<?xml version="1.0" encoding="UTF-8" standalone="no"?>
<!DOCTYPE svg PUBLIC "-//W3C//DTD SVG 1.1//EN"
 "http://www.w3.org/Graphics/SVG/1.1/DTD/svg11.dtd">
<!-- Generated by graphviz version 2.43.0 (0)
 -->
<!-- Title: /home/ram/OmniTemplate/2sat.hpp Pages: 1 -->
<svg width="646pt" height="498pt"
 viewBox="0.00 0.00 646.00 498.00" xmlns="http://www.w3.org/2000/svg" xmlns:xlink="http://www.w3.org/1999/xlink">
<g id="graph0" class="graph" transform="scale(1 1) rotate(0) translate(4 494)">
<title>/home/ram/OmniTemplate/2sat.hpp</title>
<polygon fill="white" stroke="transparent" points="-4,4 -4,-494 642,-494 642,4 -4,4"/>
<!-- Node1 -->
<g id="node1" class="node">
<title>Node1</title>
<g id="a_node1"><a xlink:title=" ">
<polygon fill="#bfbfbf" stroke="black" points="323.5,-459.5 323.5,-489.5 467.5,-489.5 467.5,-459.5 323.5,-459.5"/>
<text text-anchor="start" x="331.5" y="-477.5" font-family="Helvetica,sans-Serif" font-size="10.00">/home/ram/OmniTemplate</text>
<text text-anchor="middle" x="395.5" y="-466.5" font-family="Helvetica,sans-Serif" font-size="10.00">/2sat.hpp</text>
</a>
</g>
</g>
<!-- Node2 -->
<g id="node2" class="node">
<title>Node2</title>
<g id="a_node2"><a xlink:href="core_8hpp.html" target="_top" xlink:title=" ">
<polygon fill="white" stroke="black" points="421,-235.5 421,-254.5 480,-254.5 480,-235.5 421,-235.5"/>
<text text-anchor="middle" x="450.5" y="-242.5" font-family="Helvetica,sans-Serif" font-size="10.00">core.hpp</text>
</a>
</g>
</g>
<!-- Node1&#45;&gt;Node2 -->
<g id="edge1" class="edge">
<title>Node1&#45;&gt;Node2</title>
<path fill="none" stroke="midnightblue" d="M388.22,-459.35C383.56,-449.46 377.94,-435.78 375.5,-423 373.83,-414.27 374.34,-411.81 375.5,-403 382.22,-351.91 379.74,-335.63 405.5,-291 412.01,-279.72 422.07,-269.28 431.03,-261.31"/>
<polygon fill="midnightblue" stroke="midnightblue" points="433.44,-263.85 438.81,-254.72 428.92,-258.51 433.44,-263.85"/>
</g>
<!-- Node11 -->
<g id="node11" class="node">
<title>Node11</title>
<g id="a_node11"><a xlink:href="graph__theory_8hpp.html" target="_top" xlink:title=" ">
<polygon fill="white" stroke="black" points="385,-403.5 385,-422.5 486,-422.5 486,-403.5 385,-403.5"/>
<text text-anchor="middle" x="435.5" y="-410.5" font-family="Helvetica,sans-Serif" font-size="10.00">graph_theory.hpp</text>
</a>
</g>
</g>
<!-- Node1&#45;&gt;Node11 -->
<g id="edge16" class="edge">
<title>Node1&#45;&gt;Node11</title>
<path fill="none" stroke="midnightblue" d="M404.98,-459.4C410.67,-450.93 417.95,-440.1 423.98,-431.14"/>
<polygon fill="midnightblue" stroke="midnightblue" points="427.01,-432.91 429.68,-422.66 421.2,-429 427.01,-432.91"/>
</g>
<!-- Node3 -->
<g id="node3" class="node">
<title>Node3</title>
<g id="a_node3"><a xlink:title=" ">
<polygon fill="white" stroke="#bfbfbf" points="0,-174 0,-193 83,-193 83,-174 0,-174"/>
<text text-anchor="middle" x="41.5" y="-181" font-family="Helvetica,sans-Serif" font-size="10.00">bits/stdc++.h</text>
</a>
</g>
</g>
<!-- Node2&#45;&gt;Node3 -->
<g id="edge2" class="edge">
<title>Node2&#45;&gt;Node3</title>
<path fill="none" stroke="midnightblue" d="M420.93,-241.88C359.21,-237.11 212.38,-223.94 91.5,-199 87.05,-198.08 82.42,-196.96 77.84,-195.76"/>
<polygon fill="midnightblue" stroke="midnightblue" points="78.6,-192.34 68.03,-193.04 76.73,-199.08 78.6,-192.34"/>
</g>
<!-- Node4 -->
<g id="node4" class="node">
<title>Node4</title>
<g id="a_node4"><a xlink:title=" ">
<polygon fill="white" stroke="#bfbfbf" points="101,-174 101,-193 222,-193 222,-174 101,-174"/>
<text text-anchor="middle" x="161.5" y="-181" font-family="Helvetica,sans-Serif" font-size="10.00">experimental/iterator</text>
</a>
</g>
</g>
<!-- Node2&#45;&gt;Node4 -->
<g id="edge3" class="edge">
<title>Node2&#45;&gt;Node4</title>
<path fill="none" stroke="midnightblue" d="M420.95,-238.01C378.72,-229.43 298.64,-213.13 230.5,-199 224.44,-197.74 218.09,-196.42 211.79,-195.1"/>
<polygon fill="midnightblue" stroke="midnightblue" points="212.5,-191.67 201.99,-193.05 211.06,-198.52 212.5,-191.67"/>
</g>
<!-- Node5 -->
<g id="node5" class="node">
<title>Node5</title>
<g id="a_node5"><a xlink:title=" ">
<polygon fill="white" stroke="#bfbfbf" points="240,-168.5 240,-198.5 357,-198.5 357,-168.5 240,-168.5"/>
<text text-anchor="start" x="248" y="-186.5" font-family="Helvetica,sans-Serif" font-size="10.00">experimental/source</text>
<text text-anchor="middle" x="298.5" y="-175.5" font-family="Helvetica,sans-Serif" font-size="10.00">_location</text>
</a>
</g>
</g>
<!-- Node2&#45;&gt;Node5 -->
<g id="edge4" class="edge">
<title>Node2&#45;&gt;Node5</title>
<path fill="none" stroke="midnightblue" d="M428.72,-235.48C406.69,-226.85 371.98,-213.26 343.93,-202.29"/>
<polygon fill="midnightblue" stroke="midnightblue" points="344.91,-198.91 334.32,-198.52 342.36,-205.43 344.91,-198.91"/>
</g>
<!-- Node6 -->
<g id="node6" class="node">
<title>Node6</title>
<g id="a_node6"><a xlink:href="io_8hpp.html" target="_top" xlink:title=" ">
<polygon fill="white" stroke="black" points="375,-174 375,-193 422,-193 422,-174 375,-174"/>
<text text-anchor="middle" x="398.5" y="-181" font-family="Helvetica,sans-Serif" font-size="10.00">io.hpp</text>
</a>
</g>
</g>
<!-- Node2&#45;&gt;Node6 -->
<g id="edge5" class="edge">
<title>Node2&#45;&gt;Node6</title>
<path fill="none" stroke="midnightblue" d="M443.05,-235.48C435.17,-226.46 422.56,-212.02 412.76,-200.81"/>
<polygon fill="midnightblue" stroke="midnightblue" points="415.15,-198.24 405.94,-193.01 409.88,-202.84 415.15,-198.24"/>
</g>
<!-- Node7 -->
<g id="node7" class="node">
<title>Node7</title>
<g id="a_node7"><a xlink:href="debug_8hpp.html" target="_top" xlink:title=" ">
<polygon fill="white" stroke="black" points="378.5,-112.5 378.5,-131.5 446.5,-131.5 446.5,-112.5 378.5,-112.5"/>
<text text-anchor="middle" x="412.5" y="-119.5" font-family="Helvetica,sans-Serif" font-size="10.00">debug.hpp</text>
</a>
</g>
</g>
<!-- Node2&#45;&gt;Node7 -->
<g id="edge11" class="edge">
<title>Node2&#45;&gt;Node7</title>
<path fill="none" stroke="midnightblue" d="M448.62,-235.47C445.41,-221.3 438.46,-192.1 430.5,-168 427.49,-158.9 423.6,-148.99 420.2,-140.79"/>
<polygon fill="midnightblue" stroke="midnightblue" points="423.4,-139.35 416.27,-131.51 416.95,-142.08 423.4,-139.35"/>
</g>
<!-- Node8 -->
<g id="node8" class="node">
<title>Node8</title>
<g id="a_node8"><a xlink:href="operations_8hpp.html" target="_top" xlink:title=" ">
<polygon fill="white" stroke="black" points="409,-56.5 409,-75.5 498,-75.5 498,-56.5 409,-56.5"/>
<text text-anchor="middle" x="453.5" y="-63.5" font-family="Helvetica,sans-Serif" font-size="10.00">operations.hpp</text>
</a>
</g>
</g>
<!-- Node2&#45;&gt;Node8 -->
<g id="edge12" class="edge">
<title>Node2&#45;&gt;Node8</title>
<path fill="none" stroke="midnightblue" d="M451.19,-235.35C452.78,-214.27 456.53,-158.54 455.5,-112 455.31,-103.39 454.91,-93.86 454.52,-85.8"/>
<polygon fill="midnightblue" stroke="midnightblue" points="458.01,-85.43 454,-75.62 451.02,-85.79 458.01,-85.43"/>
</g>
<!-- Node9 -->
<g id="node9" class="node">
<title>Node9</title>
<g id="a_node9"><a xlink:href="range_8hpp.html" target="_top" xlink:title=" ">
<polygon fill="white" stroke="black" points="503,-0.5 503,-19.5 568,-19.5 568,-0.5 503,-0.5"/>
<text text-anchor="middle" x="535.5" y="-7.5" font-family="Helvetica,sans-Serif" font-size="10.00">range.hpp</text>
</a>
</g>
</g>
<!-- Node2&#45;&gt;Node9 -->
<g id="edge13" class="edge">
<title>Node2&#45;&gt;Node9</title>
<path fill="none" stroke="midnightblue" d="M447.33,-235.41C448.75,-226.38 454.68,-211.75 459.5,-199 482.94,-137 508.76,-62.68 524.07,-29.08"/>
<polygon fill="midnightblue" stroke="midnightblue" points="527.42,-30.19 528.66,-19.66 521.13,-27.12 527.42,-30.19"/>
</g>
<!-- Node10 -->
<g id="node10" class="node">
<title>Node10</title>
<g id="a_node10"><a xlink:href="utility_8hpp.html" target="_top" xlink:title=" ">
<polygon fill="white" stroke="black" points="573,-112.5 573,-131.5 638,-131.5 638,-112.5 573,-112.5"/>
<text text-anchor="middle" x="605.5" y="-119.5" font-family="Helvetica,sans-Serif" font-size="10.00">utility.hpp</text>
</a>
</g>
</g>
<!-- Node2&#45;&gt;Node10 -->
<g id="edge14" class="edge">
<title>Node2&#45;&gt;Node10</title>
<path fill="none" stroke="midnightblue" d="M480.21,-237.01C503.54,-230.33 535.78,-218.37 558.5,-199 577.08,-183.17 590.57,-158.09 598.22,-141.11"/>
<polygon fill="midnightblue" stroke="midnightblue" points="601.51,-142.31 602.21,-131.74 595.07,-139.56 601.51,-142.31"/>
</g>
<!-- Node6&#45;&gt;Node7 -->
<g id="edge6" class="edge">
<title>Node6&#45;&gt;Node7</title>
<path fill="none" stroke="midnightblue" d="M400.51,-173.98C402.5,-165.49 405.63,-152.2 408.19,-141.32"/>
<polygon fill="midnightblue" stroke="midnightblue" points="411.61,-142.04 410.5,-131.51 404.8,-140.44 411.61,-142.04"/>
</g>
<!-- Node7&#45;&gt;Node8 -->
<g id="edge7" class="edge">
<title>Node7&#45;&gt;Node8</title>
<path fill="none" stroke="midnightblue" d="M419.27,-112.08C425.06,-104.46 433.56,-93.26 440.64,-83.94"/>
<polygon fill="midnightblue" stroke="midnightblue" points="443.6,-85.83 446.86,-75.75 438.02,-81.6 443.6,-85.83"/>
</g>
<!-- Node7&#45;&gt;Node9 -->
<g id="edge10" class="edge">
<title>Node7&#45;&gt;Node9</title>
<path fill="none" stroke="midnightblue" d="M406.79,-112.1C398.98,-98.67 387.23,-72.98 399.5,-56 420.57,-26.84 461.25,-16.27 492.65,-12.58"/>
<polygon fill="midnightblue" stroke="midnightblue" points="493.29,-16.04 502.9,-11.58 492.61,-9.07 493.29,-16.04"/>
</g>
<!-- Node8&#45;&gt;Node9 -->
<g id="edge8" class="edge">
<title>Node8&#45;&gt;Node9</title>
<path fill="none" stroke="midnightblue" d="M466.67,-56.32C479.35,-47.98 498.73,-35.21 513.71,-25.35"/>
<polygon fill="midnightblue" stroke="midnightblue" points="515.93,-28.08 522.36,-19.65 512.08,-22.23 515.93,-28.08"/>
</g>
<!-- Node9&#45;&gt;Node2 -->
<g id="edge9" class="edge">
<title>Node9&#45;&gt;Node2</title>
<path fill="none" stroke="midnightblue" d="M536.43,-19.66C532.38,-46.45 503.48,-130.29 477.5,-199 474.04,-208.16 470,-218.3 465.78,-226.63"/>
<polygon fill="midnightblue" stroke="midnightblue" points="462.69,-224.99 460.77,-235.41 468.77,-228.46 462.69,-224.99"/>
</g>
<!-- Node10&#45;&gt;Node9 -->
<g id="edge15" class="edge">
<title>Node10&#45;&gt;Node9</title>
<path fill="none" stroke="midnightblue" d="M600.01,-112.37C588.51,-94.3 561.7,-52.18 546.51,-28.31"/>
<polygon fill="midnightblue" stroke="midnightblue" points="549.29,-26.15 540.97,-19.59 543.38,-29.91 549.29,-26.15"/>
</g>
<!-- Node11&#45;&gt;Node2 -->
<g id="edge17" class="edge">
<title>Node11&#45;&gt;Node2</title>
<path fill="none" stroke="midnightblue" d="M430.89,-403.24C420.84,-382.95 399.02,-331.4 413.5,-291 417.44,-280 425.36,-269.77 432.86,-261.85"/>
<polygon fill="midnightblue" stroke="midnightblue" points="435.39,-264.27 440.06,-254.76 430.48,-259.28 435.39,-264.27"/>
</g>
<!-- Node12 -->
<g id="node12" class="node">
<title>Node12</title>
<g id="a_node12"><a xlink:href="dsu_8hpp.html" target="_top" xlink:title=" ">
<polygon fill="white" stroke="black" points="423,-291.5 423,-310.5 478,-310.5 478,-291.5 423,-291.5"/>
<text text-anchor="middle" x="450.5" y="-298.5" font-family="Helvetica,sans-Serif" font-size="10.00">dsu.hpp</text>
</a>
</g>
</g>
<!-- Node11&#45;&gt;Node12 -->
<g id="edge18" class="edge">
<title>Node11&#45;&gt;Node12</title>
<path fill="none" stroke="midnightblue" d="M436.68,-403.37C439.1,-385.62 444.68,-344.67 447.96,-320.6"/>
<polygon fill="midnightblue" stroke="midnightblue" points="451.45,-320.97 449.33,-310.59 444.51,-320.03 451.45,-320.97"/>
</g>
<!-- Node13 -->
<g id="node13" class="node">
<title>Node13</title>
<g id="a_node13"><a xlink:href="linear__algebra_8hpp.html" target="_top" xlink:title=" ">
<polygon fill="white" stroke="black" points="464,-347.5 464,-366.5 571,-366.5 571,-347.5 464,-347.5"/>
<text text-anchor="middle" x="517.5" y="-354.5" font-family="Helvetica,sans-Serif" font-size="10.00">linear_algebra.hpp</text>
</a>
</g>
</g>
<!-- Node11&#45;&gt;Node13 -->
<g id="edge20" class="edge">
<title>Node11&#45;&gt;Node13</title>
<path fill="none" stroke="midnightblue" d="M448.67,-403.32C461.35,-394.98 480.73,-382.21 495.71,-372.35"/>
<polygon fill="midnightblue" stroke="midnightblue" points="497.93,-375.08 504.36,-366.65 494.08,-369.23 497.93,-375.08"/>
</g>
<!-- Node12&#45;&gt;Node2 -->
<g id="edge19" class="edge">
<title>Node12&#45;&gt;Node2</title>
<path fill="none" stroke="midnightblue" d="M450.5,-291.08C450.5,-284.01 450.5,-273.86 450.5,-264.99"/>
<polygon fill="midnightblue" stroke="midnightblue" points="454,-264.75 450.5,-254.75 447,-264.75 454,-264.75"/>
</g>
<!-- Node13&#45;&gt;Node2 -->
<g id="edge21" class="edge">
<title>Node13&#45;&gt;Node2</title>
<path fill="none" stroke="midnightblue" d="M514.09,-347.26C508.92,-334.46 498.45,-310.07 486.5,-291 480.19,-280.93 471.99,-270.52 465.01,-262.25"/>
<polygon fill="midnightblue" stroke="midnightblue" points="467.5,-259.78 458.3,-254.52 462.21,-264.37 467.5,-259.78"/>
</g>
<!-- Node14 -->
<g id="node14" class="node">
<title>Node14</title>
<g id="a_node14"><a xlink:href="modulo_8hpp.html" target="_top" xlink:title=" ">
<polygon fill="white" stroke="black" points="534.5,-291.5 534.5,-310.5 608.5,-310.5 608.5,-291.5 534.5,-291.5"/>
<text text-anchor="middle" x="571.5" y="-298.5" font-family="Helvetica,sans-Serif" font-size="10.00">modulo.hpp</text>
</a>
</g>
</g>
<!-- Node13&#45;&gt;Node14 -->
<g id="edge22" class="edge">
<title>Node13&#45;&gt;Node14</title>
<path fill="none" stroke="midnightblue" d="M526.42,-347.08C534.28,-339.22 545.93,-327.57 555.42,-318.08"/>
<polygon fill="midnightblue" stroke="midnightblue" points="558.15,-320.3 562.75,-310.75 553.2,-315.35 558.15,-320.3"/>
</g>
<!-- Node14&#45;&gt;Node2 -->
<g id="edge23" class="edge">
<title>Node14&#45;&gt;Node2</title>
<path fill="none" stroke="midnightblue" d="M552.33,-291.44C532.59,-282.64 501.61,-268.81 479.01,-258.72"/>
<polygon fill="midnightblue" stroke="midnightblue" points="480.14,-255.4 469.58,-254.52 477.29,-261.79 480.14,-255.4"/>
</g>
</g>
</svg>
