<?xml version="1.0" encoding="UTF-8" standalone="no"?>
<!DOCTYPE svg PUBLIC "-//W3C//DTD SVG 1.1//EN"
 "http://www.w3.org/Graphics/SVG/1.1/DTD/svg11.dtd">
<!-- Generated by graphviz version 2.43.0 (0)
 -->
<!-- Title: /home/ram/OmniTemplate/2sat.hpp Pages: 1 -->
<svg width="690pt" height="498pt"
 viewBox="0.00 0.00 689.50 498.00" xmlns="http://www.w3.org/2000/svg" xmlns:xlink="http://www.w3.org/1999/xlink">
<g id="graph0" class="graph" transform="scale(1 1) rotate(0) translate(4 494)">
<title>/home/ram/OmniTemplate/2sat.hpp</title>
<polygon fill="white" stroke="transparent" points="-4,4 -4,-494 685.5,-494 685.5,4 -4,4"/>
<!-- Node1 -->
<g id="node1" class="node">
<title>Node1</title>
<g id="a_node1"><a xlink:title=" ">
<polygon fill="#bfbfbf" stroke="black" points="315.5,-459.5 315.5,-489.5 459.5,-489.5 459.5,-459.5 315.5,-459.5"/>
<text text-anchor="start" x="323.5" y="-477.5" font-family="Helvetica,sans-Serif" font-size="10.00">/home/ram/OmniTemplate</text>
<text text-anchor="middle" x="387.5" y="-466.5" font-family="Helvetica,sans-Serif" font-size="10.00">/2sat.hpp</text>
</a>
</g>
</g>
<!-- Node2 -->
<g id="node2" class="node">
<title>Node2</title>
<g id="a_node2"><a xlink:href="core_8hpp.html" target="_top" xlink:title=" ">
<polygon fill="white" stroke="black" points="421,-235.5 421,-254.5 480,-254.5 480,-235.5 421,-235.5"/>
<text text-anchor="middle" x="450.5" y="-242.5" font-family="Helvetica,sans-Serif" font-size="10.00">core.hpp</text>
</a>
</g>
</g>
<!-- Node1&#45;&gt;Node2 -->
<g id="edge1" class="edge">
<title>Node1&#45;&gt;Node2</title>
<path fill="none" stroke="midnightblue" d="M381.99,-459.48C377.09,-445.27 371.18,-422.63 374.5,-403 383.29,-351.03 387.69,-336.96 413.5,-291 419.37,-280.55 427.73,-270.13 435.02,-261.96"/>
<polygon fill="midnightblue" stroke="midnightblue" points="437.6,-264.32 441.82,-254.61 432.46,-259.57 437.6,-264.32"/>
</g>
<!-- Node11 -->
<g id="node11" class="node">
<title>Node11</title>
<g id="a_node11"><a xlink:href="graph__theory_8hpp.html" target="_top" xlink:title=" ">
<polygon fill="white" stroke="black" points="384,-403.5 384,-422.5 485,-422.5 485,-403.5 384,-403.5"/>
<text text-anchor="middle" x="434.5" y="-410.5" font-family="Helvetica,sans-Serif" font-size="10.00">graph_theory.hpp</text>
</a>
</g>
</g>
<!-- Node1&#45;&gt;Node11 -->
<g id="edge16" class="edge">
<title>Node1&#45;&gt;Node11</title>
<path fill="none" stroke="midnightblue" d="M398.64,-459.4C405.47,-450.75 414.24,-439.64 421.41,-430.58"/>
<polygon fill="midnightblue" stroke="midnightblue" points="424.21,-432.67 427.66,-422.66 418.72,-428.34 424.21,-432.67"/>
</g>
<!-- Node3 -->
<g id="node3" class="node">
<title>Node3</title>
<g id="a_node3"><a xlink:title=" ">
<polygon fill="white" stroke="#bfbfbf" points="0,-174 0,-193 83,-193 83,-174 0,-174"/>
<text text-anchor="middle" x="41.5" y="-181" font-family="Helvetica,sans-Serif" font-size="10.00">bits/stdc++.h</text>
</a>
</g>
</g>
<!-- Node2&#45;&gt;Node3 -->
<g id="edge2" class="edge">
<title>Node2&#45;&gt;Node3</title>
<path fill="none" stroke="midnightblue" d="M420.93,-241.88C359.21,-237.11 212.38,-223.94 91.5,-199 87.05,-198.08 82.42,-196.96 77.84,-195.76"/>
<polygon fill="midnightblue" stroke="midnightblue" points="78.6,-192.34 68.03,-193.04 76.73,-199.08 78.6,-192.34"/>
</g>
<!-- Node4 -->
<g id="node4" class="node">
<title>Node4</title>
<g id="a_node4"><a xlink:title=" ">
<polygon fill="white" stroke="#bfbfbf" points="101,-174 101,-193 222,-193 222,-174 101,-174"/>
<text text-anchor="middle" x="161.5" y="-181" font-family="Helvetica,sans-Serif" font-size="10.00">experimental/iterator</text>
</a>
</g>
</g>
<!-- Node2&#45;&gt;Node4 -->
<g id="edge3" class="edge">
<title>Node2&#45;&gt;Node4</title>
<path fill="none" stroke="midnightblue" d="M420.95,-238.01C378.72,-229.43 298.64,-213.13 230.5,-199 224.44,-197.74 218.09,-196.42 211.79,-195.1"/>
<polygon fill="midnightblue" stroke="midnightblue" points="212.5,-191.67 201.99,-193.05 211.06,-198.52 212.5,-191.67"/>
</g>
<!-- Node5 -->
<g id="node5" class="node">
<title>Node5</title>
<g id="a_node5"><a xlink:title=" ">
<polygon fill="white" stroke="#bfbfbf" points="240,-168.5 240,-198.5 357,-198.5 357,-168.5 240,-168.5"/>
<text text-anchor="start" x="248" y="-186.5" font-family="Helvetica,sans-Serif" font-size="10.00">experimental/source</text>
<text text-anchor="middle" x="298.5" y="-175.5" font-family="Helvetica,sans-Serif" font-size="10.00">_location</text>
</a>
</g>
</g>
<!-- Node2&#45;&gt;Node5 -->
<g id="edge4" class="edge">
<title>Node2&#45;&gt;Node5</title>
<path fill="none" stroke="midnightblue" d="M428.72,-235.48C406.69,-226.85 371.98,-213.26 343.93,-202.29"/>
<polygon fill="midnightblue" stroke="midnightblue" points="344.91,-198.91 334.32,-198.52 342.36,-205.43 344.91,-198.91"/>
</g>
<!-- Node6 -->
<g id="node6" class="node">
<title>Node6</title>
<g id="a_node6"><a xlink:href="io_8hpp.html" target="_top" xlink:title=" ">
<polygon fill="white" stroke="black" points="375,-174 375,-193 422,-193 422,-174 375,-174"/>
<text text-anchor="middle" x="398.5" y="-181" font-family="Helvetica,sans-Serif" font-size="10.00">io.hpp</text>
</a>
</g>
</g>
<!-- Node2&#45;&gt;Node6 -->
<g id="edge5" class="edge">
<title>Node2&#45;&gt;Node6</title>
<path fill="none" stroke="midnightblue" d="M443.05,-235.48C435.17,-226.46 422.56,-212.02 412.76,-200.81"/>
<polygon fill="midnightblue" stroke="midnightblue" points="415.15,-198.24 405.94,-193.01 409.88,-202.84 415.15,-198.24"/>
</g>
<!-- Node7 -->
<g id="node7" class="node">
<title>Node7</title>
<g id="a_node7"><a xlink:href="debug_8hpp.html" target="_top" xlink:title=" ">
<polygon fill="white" stroke="black" points="378.5,-112.5 378.5,-131.5 446.5,-131.5 446.5,-112.5 378.5,-112.5"/>
<text text-anchor="middle" x="412.5" y="-119.5" font-family="Helvetica,sans-Serif" font-size="10.00">debug.hpp</text>
</a>
</g>
</g>
<!-- Node2&#45;&gt;Node7 -->
<g id="edge11" class="edge">
<title>Node2&#45;&gt;Node7</title>
<path fill="none" stroke="midnightblue" d="M448.62,-235.47C445.41,-221.3 438.46,-192.1 430.5,-168 427.49,-158.9 423.6,-148.99 420.2,-140.79"/>
<polygon fill="midnightblue" stroke="midnightblue" points="423.4,-139.35 416.27,-131.51 416.95,-142.08 423.4,-139.35"/>
</g>
<!-- Node8 -->
<g id="node8" class="node">
<title>Node8</title>
<g id="a_node8"><a xlink:href="operations_8hpp.html" target="_top" xlink:title=" ">
<polygon fill="white" stroke="black" points="409,-56.5 409,-75.5 498,-75.5 498,-56.5 409,-56.5"/>
<text text-anchor="middle" x="453.5" y="-63.5" font-family="Helvetica,sans-Serif" font-size="10.00">operations.hpp</text>
</a>
</g>
</g>
<!-- Node2&#45;&gt;Node8 -->
<g id="edge12" class="edge">
<title>Node2&#45;&gt;Node8</title>
<path fill="none" stroke="midnightblue" d="M451.19,-235.35C452.78,-214.27 456.53,-158.54 455.5,-112 455.31,-103.39 454.91,-93.86 454.52,-85.8"/>
<polygon fill="midnightblue" stroke="midnightblue" points="458.01,-85.43 454,-75.62 451.02,-85.79 458.01,-85.43"/>
</g>
<!-- Node9 -->
<g id="node9" class="node">
<title>Node9</title>
<g id="a_node9"><a xlink:href="range_8hpp.html" target="_top" xlink:title=" ">
<polygon fill="white" stroke="black" points="503,-0.5 503,-19.5 568,-19.5 568,-0.5 503,-0.5"/>
<text text-anchor="middle" x="535.5" y="-7.5" font-family="Helvetica,sans-Serif" font-size="10.00">range.hpp</text>
</a>
</g>
</g>
<!-- Node2&#45;&gt;Node9 -->
<g id="edge13" class="edge">
<title>Node2&#45;&gt;Node9</title>
<path fill="none" stroke="midnightblue" d="M447.33,-235.41C448.75,-226.38 454.68,-211.75 459.5,-199 482.94,-137 508.76,-62.68 524.07,-29.08"/>
<polygon fill="midnightblue" stroke="midnightblue" points="527.42,-30.19 528.66,-19.66 521.13,-27.12 527.42,-30.19"/>
</g>
<!-- Node10 -->
<g id="node10" class="node">
<title>Node10</title>
<g id="a_node10"><a xlink:href="utility_8hpp.html" target="_top" xlink:title=" ">
<polygon fill="white" stroke="black" points="573,-112.5 573,-131.5 638,-131.5 638,-112.5 573,-112.5"/>
<text text-anchor="middle" x="605.5" y="-119.5" font-family="Helvetica,sans-Serif" font-size="10.00">utility.hpp</text>
</a>
</g>
</g>
<!-- Node2&#45;&gt;Node10 -->
<g id="edge14" class="edge">
<title>Node2&#45;&gt;Node10</title>
<path fill="none" stroke="midnightblue" d="M480.21,-237.01C503.54,-230.33 535.78,-218.37 558.5,-199 577.08,-183.17 590.57,-158.09 598.22,-141.11"/>
<polygon fill="midnightblue" stroke="midnightblue" points="601.51,-142.31 602.21,-131.74 595.07,-139.56 601.51,-142.31"/>
</g>
<!-- Node6&#45;&gt;Node7 -->
<g id="edge6" class="edge">
<title>Node6&#45;&gt;Node7</title>
<path fill="none" stroke="midnightblue" d="M400.51,-173.98C402.5,-165.49 405.63,-152.2 408.19,-141.32"/>
<polygon fill="midnightblue" stroke="midnightblue" points="411.61,-142.04 410.5,-131.51 404.8,-140.44 411.61,-142.04"/>
</g>
<!-- Node7&#45;&gt;Node8 -->
<g id="edge7" class="edge">
<title>Node7&#45;&gt;Node8</title>
<path fill="none" stroke="midnightblue" d="M419.27,-112.08C425.06,-104.46 433.56,-93.26 440.64,-83.94"/>
<polygon fill="midnightblue" stroke="midnightblue" points="443.6,-85.83 446.86,-75.75 438.02,-81.6 443.6,-85.83"/>
</g>
<!-- Node7&#45;&gt;Node9 -->
<g id="edge10" class="edge">
<title>Node7&#45;&gt;Node9</title>
<path fill="none" stroke="midnightblue" d="M406.79,-112.1C398.98,-98.67 387.23,-72.98 399.5,-56 420.57,-26.84 461.25,-16.27 492.65,-12.58"/>
<polygon fill="midnightblue" stroke="midnightblue" points="493.29,-16.04 502.9,-11.58 492.61,-9.07 493.29,-16.04"/>
</g>
<!-- Node8&#45;&gt;Node9 -->
<g id="edge8" class="edge">
<title>Node8&#45;&gt;Node9</title>
<path fill="none" stroke="midnightblue" d="M466.67,-56.32C479.35,-47.98 498.73,-35.21 513.71,-25.35"/>
<polygon fill="midnightblue" stroke="midnightblue" points="515.93,-28.08 522.36,-19.65 512.08,-22.23 515.93,-28.08"/>
</g>
<!-- Node9&#45;&gt;Node2 -->
<g id="edge9" class="edge">
<title>Node9&#45;&gt;Node2</title>
<path fill="none" stroke="midnightblue" d="M536.43,-19.66C532.38,-46.45 503.48,-130.29 477.5,-199 474.04,-208.16 470,-218.3 465.78,-226.63"/>
<polygon fill="midnightblue" stroke="midnightblue" points="462.69,-224.99 460.77,-235.41 468.77,-228.46 462.69,-224.99"/>
</g>
<!-- Node10&#45;&gt;Node9 -->
<g id="edge15" class="edge">
<title>Node10&#45;&gt;Node9</title>
<path fill="none" stroke="midnightblue" d="M600.01,-112.37C588.51,-94.3 561.7,-52.18 546.51,-28.31"/>
<polygon fill="midnightblue" stroke="midnightblue" points="549.29,-26.15 540.97,-19.59 543.38,-29.91 549.29,-26.15"/>
</g>
<!-- Node11&#45;&gt;Node2 -->
<g id="edge17" class="edge">
<title>Node11&#45;&gt;Node2</title>
<path fill="none" stroke="midnightblue" d="M426.83,-403.46C419.72,-394.93 409.65,-381.09 405.5,-367 402.99,-358.47 403.65,-355.69 405.5,-347 412.09,-316 428.9,-282.97 440,-263.43"/>
<polygon fill="midnightblue" stroke="midnightblue" points="443.05,-265.16 445.07,-254.76 437,-261.63 443.05,-265.16"/>
</g>
<!-- Node12 -->
<g id="node12" class="node">
<title>Node12</title>
<g id="a_node12"><a xlink:href="dsu_8hpp.html" target="_top" xlink:title=" ">
<polygon fill="white" stroke="black" points="415,-347.5 415,-366.5 470,-366.5 470,-347.5 415,-347.5"/>
<text text-anchor="middle" x="442.5" y="-354.5" font-family="Helvetica,sans-Serif" font-size="10.00">dsu.hpp</text>
</a>
</g>
</g>
<!-- Node11&#45;&gt;Node12 -->
<g id="edge18" class="edge">
<title>Node11&#45;&gt;Node12</title>
<path fill="none" stroke="midnightblue" d="M435.82,-403.08C436.88,-395.93 438.41,-385.64 439.73,-376.69"/>
<polygon fill="midnightblue" stroke="midnightblue" points="443.2,-377.16 441.2,-366.75 436.28,-376.13 443.2,-377.16"/>
</g>
<!-- Node13 -->
<g id="node13" class="node">
<title>Node13</title>
<g id="a_node13"><a xlink:href="linear__algebra_8hpp.html" target="_top" xlink:title=" ">
<polygon fill="white" stroke="black" points="488,-347.5 488,-366.5 595,-366.5 595,-347.5 488,-347.5"/>
<text text-anchor="middle" x="541.5" y="-354.5" font-family="Helvetica,sans-Serif" font-size="10.00">linear_algebra.hpp</text>
</a>
</g>
</g>
<!-- Node11&#45;&gt;Node13 -->
<g id="edge20" class="edge">
<title>Node11&#45;&gt;Node13</title>
<path fill="none" stroke="midnightblue" d="M451.69,-403.32C468.85,-394.66 495.45,-381.24 515.25,-371.25"/>
<polygon fill="midnightblue" stroke="midnightblue" points="517,-374.28 524.35,-366.65 513.85,-368.04 517,-374.28"/>
</g>
<!-- Node12&#45;&gt;Node2 -->
<g id="edge19" class="edge">
<title>Node12&#45;&gt;Node2</title>
<path fill="none" stroke="midnightblue" d="M443.13,-347.37C444.42,-329.62 447.4,-288.67 449.15,-264.6"/>
<polygon fill="midnightblue" stroke="midnightblue" points="452.64,-264.82 449.88,-254.59 445.66,-264.31 452.64,-264.82"/>
</g>
<!-- Node13&#45;&gt;Node2 -->
<g id="edge21" class="edge">
<title>Node13&#45;&gt;Node2</title>
<path fill="none" stroke="midnightblue" d="M529.1,-347.37C517.63,-338.98 500.6,-325.43 488.5,-311 476.32,-296.48 465.74,-277.55 458.86,-263.86"/>
<polygon fill="midnightblue" stroke="midnightblue" points="461.87,-262.05 454.36,-254.58 455.58,-265.11 461.87,-262.05"/>
</g>
<!-- Node14 -->
<g id="node14" class="node">
<title>Node14</title>
<g id="a_node14"><a xlink:href="modulo_8hpp.html" target="_top" xlink:title=" ">
<polygon fill="white" stroke="black" points="497.5,-291.5 497.5,-310.5 571.5,-310.5 571.5,-291.5 497.5,-291.5"/>
<text text-anchor="middle" x="534.5" y="-298.5" font-family="Helvetica,sans-Serif" font-size="10.00">modulo.hpp</text>
</a>
</g>
</g>
<!-- Node13&#45;&gt;Node14 -->
<g id="edge22" class="edge">
<title>Node13&#45;&gt;Node14</title>
<path fill="none" stroke="midnightblue" d="M540.34,-347.08C539.42,-339.93 538.08,-329.64 536.92,-320.69"/>
<polygon fill="midnightblue" stroke="midnightblue" points="540.39,-320.22 535.63,-310.75 533.45,-321.12 540.39,-320.22"/>
</g>
<!-- Node15 -->
<g id="node15" class="node">
<title>Node15</title>
<g id="a_node15"><a xlink:href="polynomial_8hpp.html" target="_top" xlink:title=" ">
<polygon fill="white" stroke="black" points="589.5,-291.5 589.5,-310.5 681.5,-310.5 681.5,-291.5 589.5,-291.5"/>
<text text-anchor="middle" x="635.5" y="-298.5" font-family="Helvetica,sans-Serif" font-size="10.00">polynomial.hpp</text>
</a>
</g>
</g>
<!-- Node13&#45;&gt;Node15 -->
<g id="edge24" class="edge">
<title>Node13&#45;&gt;Node15</title>
<path fill="none" stroke="midnightblue" d="M556.6,-347.32C571.4,-338.82 594.19,-325.73 611.48,-315.8"/>
<polygon fill="midnightblue" stroke="midnightblue" points="613.51,-318.67 620.43,-310.65 610.02,-312.6 613.51,-318.67"/>
</g>
<!-- Node14&#45;&gt;Node2 -->
<g id="edge23" class="edge">
<title>Node14&#45;&gt;Node2</title>
<path fill="none" stroke="midnightblue" d="M521,-291.32C507.9,-282.9 487.79,-269.97 472.39,-260.07"/>
<polygon fill="midnightblue" stroke="midnightblue" points="474.27,-257.12 463.96,-254.65 470.48,-263.01 474.27,-257.12"/>
</g>
<!-- Node15&#45;&gt;Node2 -->
<g id="edge25" class="edge">
<title>Node15&#45;&gt;Node2</title>
<path fill="none" stroke="midnightblue" d="M606.19,-291.44C574.66,-282.24 524.37,-267.56 489.51,-257.39"/>
<polygon fill="midnightblue" stroke="midnightblue" points="490.26,-253.96 479.68,-254.52 488.3,-260.68 490.26,-253.96"/>
</g>
</g>
</svg>
