<?xml version="1.0" encoding="UTF-8" standalone="no"?>
<!DOCTYPE svg PUBLIC "-//W3C//DTD SVG 1.1//EN"
 "http://www.w3.org/Graphics/SVG/1.1/DTD/svg11.dtd">
<!-- Generated by graphviz version 2.43.0 (0)
 -->
<!-- Title: ear_decomp Pages: 1 -->
<svg width="227pt" height="66pt"
 viewBox="0.00 0.00 227.00 66.00" xmlns="http://www.w3.org/2000/svg" xmlns:xlink="http://www.w3.org/1999/xlink">
<g id="graph0" class="graph" transform="scale(1 1) rotate(0) translate(4 62)">
<title>ear_decomp</title>
<polygon fill="white" stroke="transparent" points="-4,4 -4,-62 223,-62 223,4 -4,4"/>
<!-- Node1 -->
<g id="node1" class="node">
<title>Node1</title>
<g id="a_node1"><a xlink:title="Returns ear decomposition of graph.">
<polygon fill="#bfbfbf" stroke="black" points="0,-19.5 0,-38.5 77,-38.5 77,-19.5 0,-19.5"/>
<text text-anchor="middle" x="38.5" y="-26.5" font-family="Helvetica,sans-Serif" font-size="10.00">ear_decomp</text>
</a>
</g>
</g>
<!-- Node2 -->
<g id="node2" class="node">
<title>Node2</title>
<g id="a_node2"><a xlink:href="namespacegraph__theory.html#a7ffa7c1e75caecd92d5c385d41eb313d" target="_top" xlink:title=" ">
<polygon fill="white" stroke="black" points="113,-38.5 113,-57.5 219,-57.5 219,-38.5 113,-38.5"/>
<text text-anchor="middle" x="166" y="-45.5" font-family="Helvetica,sans-Serif" font-size="10.00">graph_theory::DFS</text>
</a>
</g>
</g>
<!-- Node1&#45;&gt;Node2 -->
<g id="edge1" class="edge">
<title>Node1&#45;&gt;Node2</title>
<path fill="none" stroke="midnightblue" d="M77.15,-34.7C85.34,-35.94 94.2,-37.28 103.05,-38.62"/>
<polygon fill="midnightblue" stroke="midnightblue" points="102.57,-42.09 112.99,-40.13 103.62,-35.17 102.57,-42.09"/>
</g>
<!-- Node3 -->
<g id="node3" class="node">
<title>Node3</title>
<g id="a_node3"><a xlink:href="operations_8hpp.html#a915663194fec79c061edfaea61707bd0" target="_top" xlink:title=" ">
<polygon fill="white" stroke="black" points="151.5,-0.5 151.5,-19.5 180.5,-19.5 180.5,-0.5 151.5,-0.5"/>
<text text-anchor="middle" x="166" y="-7.5" font-family="Helvetica,sans-Serif" font-size="10.00">fo</text>
</a>
</g>
</g>
<!-- Node1&#45;&gt;Node3 -->
<g id="edge2" class="edge">
<title>Node1&#45;&gt;Node3</title>
<path fill="none" stroke="midnightblue" d="M77.15,-23.3C98.06,-20.13 123.41,-16.3 141.5,-13.56"/>
<polygon fill="midnightblue" stroke="midnightblue" points="142.11,-17.01 151.47,-12.05 141.06,-10.08 142.11,-17.01"/>
</g>
</g>
</svg>
