<?xml version="1.0" encoding="UTF-8" standalone="no"?>
<!DOCTYPE svg PUBLIC "-//W3C//DTD SVG 1.1//EN"
 "http://www.w3.org/Graphics/SVG/1.1/DTD/svg11.dtd">
<!-- Generated by graphviz version 2.43.0 (0)
 -->
<!-- Title: biconnected Pages: 1 -->
<svg width="226pt" height="180pt"
 viewBox="0.00 0.00 226.00 180.00" xmlns="http://www.w3.org/2000/svg" xmlns:xlink="http://www.w3.org/1999/xlink">
<g id="graph0" class="graph" transform="scale(1 1) rotate(0) translate(4 176)">
<title>biconnected</title>
<polygon fill="white" stroke="transparent" points="-4,4 -4,-176 222,-176 222,4 -4,4"/>
<!-- Node1 -->
<g id="node1" class="node">
<title>Node1</title>
<g id="a_node1"><a xlink:title=" ">
<polygon fill="#bfbfbf" stroke="black" points="0,-76.5 0,-95.5 76,-95.5 76,-76.5 0,-76.5"/>
<text text-anchor="middle" x="38" y="-83.5" font-family="Helvetica,sans-Serif" font-size="10.00">biconnected</text>
</a>
</g>
</g>
<!-- Node2 -->
<g id="node2" class="node">
<title>Node2</title>
<g id="a_node2"><a xlink:href="namespacegraph__theory.html#a7ffa7c1e75caecd92d5c385d41eb313d" target="_top" xlink:title=" ">
<polygon fill="white" stroke="black" points="112,-152.5 112,-171.5 218,-171.5 218,-152.5 112,-152.5"/>
<text text-anchor="middle" x="165" y="-159.5" font-family="Helvetica,sans-Serif" font-size="10.00">graph_theory::DFS</text>
</a>
</g>
</g>
<!-- Node1&#45;&gt;Node2 -->
<g id="edge1" class="edge">
<title>Node1&#45;&gt;Node2</title>
<path fill="none" stroke="midnightblue" d="M49.14,-95.62C62.6,-107.97 87.54,-129.42 112,-143 115.69,-145.05 119.64,-146.95 123.65,-148.7"/>
<polygon fill="midnightblue" stroke="midnightblue" points="122.47,-151.99 133.05,-152.49 125.09,-145.5 122.47,-151.99"/>
</g>
<!-- Node3 -->
<g id="node3" class="node">
<title>Node3</title>
<g id="a_node3"><a xlink:href="operations_8hpp.html#a915663194fec79c061edfaea61707bd0" target="_top" xlink:title=" ">
<polygon fill="white" stroke="black" points="150.5,-114.5 150.5,-133.5 179.5,-133.5 179.5,-114.5 150.5,-114.5"/>
<text text-anchor="middle" x="165" y="-121.5" font-family="Helvetica,sans-Serif" font-size="10.00">fo</text>
</a>
</g>
</g>
<!-- Node1&#45;&gt;Node3 -->
<g id="edge2" class="edge">
<title>Node1&#45;&gt;Node3</title>
<path fill="none" stroke="midnightblue" d="M70.54,-95.59C92.37,-102.22 120.93,-110.91 140.71,-116.92"/>
<polygon fill="midnightblue" stroke="midnightblue" points="139.84,-120.31 150.43,-119.87 141.88,-113.62 139.84,-120.31"/>
</g>
<!-- Node4 -->
<g id="node4" class="node">
<title>Node4</title>
<g id="a_node4"><a xlink:href="namespacetree.html#a92c497fa1e14c8c53f548f30bc8ca244" target="_top" xlink:title=" ">
<polygon fill="white" stroke="black" points="140.5,-76.5 140.5,-95.5 189.5,-95.5 189.5,-76.5 140.5,-76.5"/>
<text text-anchor="middle" x="165" y="-83.5" font-family="Helvetica,sans-Serif" font-size="10.00">tree::if</text>
</a>
</g>
</g>
<!-- Node1&#45;&gt;Node4 -->
<g id="edge3" class="edge">
<title>Node1&#45;&gt;Node4</title>
<path fill="none" stroke="midnightblue" d="M76.17,-86C93.17,-86 113.18,-86 129.81,-86"/>
<polygon fill="midnightblue" stroke="midnightblue" points="130.18,-89.5 140.18,-86 130.18,-82.5 130.18,-89.5"/>
</g>
<!-- Node5 -->
<g id="node5" class="node">
<title>Node5</title>
<g id="a_node5"><a xlink:href="namespaceutility.html#ae423116f6315d5e998219f27f1f8c401" target="_top" xlink:title=" ">
<polygon fill="white" stroke="black" points="122,-38.5 122,-57.5 208,-57.5 208,-38.5 122,-38.5"/>
<text text-anchor="middle" x="165" y="-45.5" font-family="Helvetica,sans-Serif" font-size="10.00">utility::min_eq</text>
</a>
</g>
</g>
<!-- Node1&#45;&gt;Node5 -->
<g id="edge4" class="edge">
<title>Node1&#45;&gt;Node5</title>
<path fill="none" stroke="midnightblue" d="M70.54,-76.41C86.38,-71.6 105.77,-65.7 122.78,-60.53"/>
<polygon fill="midnightblue" stroke="midnightblue" points="123.92,-63.84 132.47,-57.59 121.88,-57.15 123.92,-63.84"/>
</g>
<!-- Node6 -->
<g id="node6" class="node">
<title>Node6</title>
<g id="a_node6"><a xlink:href="range_8hpp.html#a438bd5fc0a79e42a6a2abb632203f925" target="_top" xlink:title=" ">
<polygon fill="white" stroke="black" points="149,-0.5 149,-19.5 181,-19.5 181,-0.5 149,-0.5"/>
<text text-anchor="middle" x="165" y="-7.5" font-family="Helvetica,sans-Serif" font-size="10.00">rev</text>
</a>
</g>
</g>
<!-- Node1&#45;&gt;Node6 -->
<g id="edge5" class="edge">
<title>Node1&#45;&gt;Node6</title>
<path fill="none" stroke="midnightblue" d="M49.14,-76.38C62.6,-64.03 87.54,-42.58 112,-29 120.46,-24.31 130.3,-20.37 139.13,-17.31"/>
<polygon fill="midnightblue" stroke="midnightblue" points="140.46,-20.56 148.89,-14.15 138.3,-13.9 140.46,-20.56"/>
</g>
</g>
</svg>
