<?xml version="1.0" encoding="UTF-8" standalone="no"?>
<!DOCTYPE svg PUBLIC "-//W3C//DTD SVG 1.1//EN"
 "http://www.w3.org/Graphics/SVG/1.1/DTD/svg11.dtd">
<!-- Generated by graphviz version 2.43.0 (0)
 -->
<!-- Title: ear_decomp Pages: 1 -->
<svg width="750pt" height="39pt"
 viewBox="0.00 0.00 750.00 39.00" xmlns="http://www.w3.org/2000/svg" xmlns:xlink="http://www.w3.org/1999/xlink">
<g id="graph0" class="graph" transform="scale(1 1) rotate(0) translate(4 35)">
<title>ear_decomp</title>
<polygon fill="white" stroke="transparent" points="-4,4 -4,-35 746,-35 746,4 -4,4"/>
<!-- Node1 -->
<g id="node1" class="node">
<title>Node1</title>
<g id="a_node1"><a xlink:title="Returns ear decomposition of graph.">
<polygon fill="#bfbfbf" stroke="black" points="665,-6 665,-25 742,-25 742,-6 665,-6"/>
<text text-anchor="middle" x="703.5" y="-13" font-family="Helvetica,sans-Serif" font-size="10.00">ear_decomp</text>
</a>
</g>
</g>
<!-- Node2 -->
<g id="node2" class="node">
<title>Node2</title>
<g id="a_node2"><a xlink:href="biconnected_8hpp.html#a789f23d7fc22d09960694892eeb41223" target="_top" xlink:title="Finds biconnected components of graph using ear decompositions.">
<polygon fill="white" stroke="black" points="532,-6 532,-25 629,-25 629,-6 532,-6"/>
<text text-anchor="middle" x="580.5" y="-13" font-family="Helvetica,sans-Serif" font-size="10.00">biconnected_ear</text>
</a>
</g>
</g>
<!-- Node1&#45;&gt;Node2 -->
<g id="edge1" class="edge">
<title>Node1&#45;&gt;Node2</title>
<path fill="none" stroke="midnightblue" d="M654.87,-15.5C646.48,-15.5 637.75,-15.5 629.36,-15.5"/>
<polygon fill="midnightblue" stroke="midnightblue" points="654.88,-19 664.88,-15.5 654.88,-12 654.88,-19"/>
</g>
<!-- Node3 -->
<g id="node3" class="node">
<title>Node3</title>
<g id="a_node3"><a xlink:href="test__biconnected_8hpp.html#a07c975aa9b96f7bdb70155ae0c3acd17" target="_top" xlink:title=" ">
<polygon fill="white" stroke="black" points="396,-6 396,-25 496,-25 496,-6 396,-6"/>
<text text-anchor="middle" x="446" y="-13" font-family="Helvetica,sans-Serif" font-size="10.00">test_biconnected</text>
</a>
</g>
</g>
<!-- Node2&#45;&gt;Node3 -->
<g id="edge2" class="edge">
<title>Node2&#45;&gt;Node3</title>
<path fill="none" stroke="midnightblue" d="M521.47,-15.5C513.01,-15.5 504.36,-15.5 496.1,-15.5"/>
<polygon fill="midnightblue" stroke="midnightblue" points="521.66,-19 531.66,-15.5 521.66,-12 521.66,-19"/>
</g>
<!-- Node4 -->
<g id="node4" class="node">
<title>Node4</title>
<g id="a_node4"><a xlink:href="namespacegraph__theory_1_1test.html#a147e0cf4f86928e4e422c6b9198a2371" target="_top" xlink:title=" ">
<polygon fill="white" stroke="black" points="249,-0.5 249,-30.5 360,-30.5 360,-0.5 249,-0.5"/>
<text text-anchor="start" x="257" y="-18.5" font-family="Helvetica,sans-Serif" font-size="10.00">graph_theory::test</text>
<text text-anchor="middle" x="304.5" y="-7.5" font-family="Helvetica,sans-Serif" font-size="10.00">::test_graph_theory</text>
</a>
</g>
</g>
<!-- Node3&#45;&gt;Node4 -->
<g id="edge3" class="edge">
<title>Node3&#45;&gt;Node4</title>
<path fill="none" stroke="midnightblue" d="M385.72,-15.5C377.32,-15.5 368.72,-15.5 360.42,-15.5"/>
<polygon fill="midnightblue" stroke="midnightblue" points="385.82,-19 395.82,-15.5 385.82,-12 385.82,-19"/>
</g>
<!-- Node5 -->
<g id="node5" class="node">
<title>Node5</title>
<g id="a_node5"><a xlink:href="test_8cpp.html#aa1c715cac916839a95e25b65b4071c4a" target="_top" xlink:title=" ">
<polygon fill="white" stroke="black" points="160,-6 160,-25 213,-25 213,-6 160,-6"/>
<text text-anchor="middle" x="186.5" y="-13" font-family="Helvetica,sans-Serif" font-size="10.00">test_all</text>
</a>
</g>
</g>
<!-- Node4&#45;&gt;Node5 -->
<g id="edge4" class="edge">
<title>Node4&#45;&gt;Node5</title>
<path fill="none" stroke="midnightblue" d="M238.68,-15.5C229.67,-15.5 220.88,-15.5 213.2,-15.5"/>
<polygon fill="midnightblue" stroke="midnightblue" points="238.9,-19 248.9,-15.5 238.9,-12 238.9,-19"/>
</g>
<!-- Node6 -->
<g id="node6" class="node">
<title>Node6</title>
<g id="a_node6"><a xlink:href="test_8cpp.html#af095a232149097b5605064623a9345ac" target="_top" xlink:title=" ">
<polygon fill="white" stroke="black" points="77,-6 77,-25 124,-25 124,-6 77,-6"/>
<text text-anchor="middle" x="100.5" y="-13" font-family="Helvetica,sans-Serif" font-size="10.00">main2</text>
</a>
</g>
</g>
<!-- Node5&#45;&gt;Node6 -->
<g id="edge5" class="edge">
<title>Node5&#45;&gt;Node6</title>
<path fill="none" stroke="midnightblue" d="M149.59,-15.5C140.96,-15.5 131.99,-15.5 124.16,-15.5"/>
<polygon fill="midnightblue" stroke="midnightblue" points="149.84,-19 159.84,-15.5 149.84,-12 149.84,-19"/>
</g>
<!-- Node7 -->
<g id="node7" class="node">
<title>Node7</title>
<g id="a_node7"><a xlink:href="main_8hpp.html#a0ddf1224851353fc92bfbff6f499fa97" target="_top" xlink:title=" ">
<polygon fill="white" stroke="black" points="0,-6 0,-25 41,-25 41,-6 0,-6"/>
<text text-anchor="middle" x="20.5" y="-13" font-family="Helvetica,sans-Serif" font-size="10.00">main</text>
</a>
</g>
</g>
<!-- Node6&#45;&gt;Node7 -->
<g id="edge6" class="edge">
<title>Node6&#45;&gt;Node7</title>
<path fill="none" stroke="midnightblue" d="M66.66,-15.5C57.96,-15.5 48.84,-15.5 41.1,-15.5"/>
<polygon fill="midnightblue" stroke="midnightblue" points="66.94,-19 76.94,-15.5 66.94,-12 66.94,-19"/>
</g>
</g>
</svg>
