<?xml version="1.0" encoding="UTF-8" standalone="no"?>
<!DOCTYPE svg PUBLIC "-//W3C//DTD SVG 1.1//EN"
 "http://www.w3.org/Graphics/SVG/1.1/DTD/svg11.dtd">
<!-- Generated by graphviz version 2.43.0 (0)
 -->
<!-- Title: biconnected Pages: 1 -->
<svg width="226pt" height="104pt"
 viewBox="0.00 0.00 226.00 104.00" xmlns="http://www.w3.org/2000/svg" xmlns:xlink="http://www.w3.org/1999/xlink">
<g id="graph0" class="graph" transform="scale(1 1) rotate(0) translate(4 100)">
<title>biconnected</title>
<polygon fill="white" stroke="transparent" points="-4,4 -4,-100 222,-100 222,4 -4,4"/>
<!-- Node1 -->
<g id="node1" class="node">
<title>Node1</title>
<g id="a_node1"><a xlink:title=" ">
<polygon fill="#bfbfbf" stroke="black" points="0,-38.5 0,-57.5 76,-57.5 76,-38.5 0,-38.5"/>
<text text-anchor="middle" x="38" y="-45.5" font-family="Helvetica,sans-Serif" font-size="10.00">biconnected</text>
</a>
</g>
</g>
<!-- Node2 -->
<g id="node2" class="node">
<title>Node2</title>
<g id="a_node2"><a xlink:href="namespacegraph__theory.html#a7ffa7c1e75caecd92d5c385d41eb313d" target="_top" xlink:title=" ">
<polygon fill="white" stroke="black" points="112,-76.5 112,-95.5 218,-95.5 218,-76.5 112,-76.5"/>
<text text-anchor="middle" x="165" y="-83.5" font-family="Helvetica,sans-Serif" font-size="10.00">graph_theory::DFS</text>
</a>
</g>
</g>
<!-- Node1&#45;&gt;Node2 -->
<g id="edge1" class="edge">
<title>Node1&#45;&gt;Node2</title>
<path fill="none" stroke="midnightblue" d="M70.54,-57.59C86.38,-62.4 105.77,-68.3 122.78,-73.47"/>
<polygon fill="midnightblue" stroke="midnightblue" points="121.88,-76.85 132.47,-76.41 123.92,-70.16 121.88,-76.85"/>
</g>
<!-- Node3 -->
<g id="node3" class="node">
<title>Node3</title>
<g id="a_node3"><a xlink:href="namespaceutility.html#ae423116f6315d5e998219f27f1f8c401" target="_top" xlink:title=" ">
<polygon fill="white" stroke="black" points="122,-38.5 122,-57.5 208,-57.5 208,-38.5 122,-38.5"/>
<text text-anchor="middle" x="165" y="-45.5" font-family="Helvetica,sans-Serif" font-size="10.00">utility::min_eq</text>
</a>
</g>
</g>
<!-- Node1&#45;&gt;Node3 -->
<g id="edge2" class="edge">
<title>Node1&#45;&gt;Node3</title>
<path fill="none" stroke="midnightblue" d="M76.17,-48C87.3,-48 99.72,-48 111.64,-48"/>
<polygon fill="midnightblue" stroke="midnightblue" points="111.94,-51.5 121.94,-48 111.94,-44.5 111.94,-51.5"/>
</g>
<!-- Node4 -->
<g id="node4" class="node">
<title>Node4</title>
<g id="a_node4"><a xlink:href="range_8hpp.html#a438bd5fc0a79e42a6a2abb632203f925" target="_top" xlink:title=" ">
<polygon fill="white" stroke="black" points="149,-0.5 149,-19.5 181,-19.5 181,-0.5 149,-0.5"/>
<text text-anchor="middle" x="165" y="-7.5" font-family="Helvetica,sans-Serif" font-size="10.00">rev</text>
</a>
</g>
</g>
<!-- Node1&#45;&gt;Node4 -->
<g id="edge3" class="edge">
<title>Node1&#45;&gt;Node4</title>
<path fill="none" stroke="midnightblue" d="M70.54,-38.41C91.75,-31.96 119.33,-23.58 139.02,-17.59"/>
<polygon fill="midnightblue" stroke="midnightblue" points="140.24,-20.88 148.79,-14.62 138.2,-14.18 140.24,-20.88"/>
</g>
</g>
</svg>
