<?xml version="1.0" encoding="UTF-8" standalone="no"?>
<!DOCTYPE svg PUBLIC "-//W3C//DTD SVG 1.1//EN"
 "http://www.w3.org/Graphics/SVG/1.1/DTD/svg11.dtd">
<!-- Generated by graphviz version 2.43.0 (0)
 -->
<!-- Title: centroid_decomp Pages: 1 -->
<svg width="340pt" height="104pt"
 viewBox="0.00 0.00 340.00 104.00" xmlns="http://www.w3.org/2000/svg" xmlns:xlink="http://www.w3.org/1999/xlink">
<g id="graph0" class="graph" transform="scale(1 1) rotate(0) translate(4 100)">
<title>centroid_decomp</title>
<polygon fill="white" stroke="transparent" points="-4,4 -4,-100 336,-100 336,4 -4,4"/>
<!-- Node1 -->
<g id="node1" class="node">
<title>Node1</title>
<g id="a_node1"><a xlink:title="Centroid decomposition of a tree.">
<polygon fill="#bfbfbf" stroke="black" points="0,-38.5 0,-57.5 101,-57.5 101,-38.5 0,-38.5"/>
<text text-anchor="middle" x="50.5" y="-45.5" font-family="Helvetica,sans-Serif" font-size="10.00">centroid_decomp</text>
</a>
</g>
</g>
<!-- Node2 -->
<g id="node2" class="node">
<title>Node2</title>
<g id="a_node2"><a xlink:href="$namespacegraph__theory.html#a9d6eaad6577fb0289aee53b10fd4a260" xlink:title="Given a searcher object, returns an array containing the size of each subtree.">
<polygon fill="white" stroke="black" points="137,-76.5 137,-95.5 264,-95.5 264,-76.5 137,-76.5"/>
<text text-anchor="middle" x="200.5" y="-83.5" font-family="Helvetica,sans-Serif" font-size="10.00">graph_theory::get_size</text>
</a>
</g>
</g>
<!-- Node1&#45;&gt;Node2 -->
<g id="edge1" class="edge">
<title>Node1&#45;&gt;Node2</title>
<path fill="none" stroke="midnightblue" d="M88.85,-57.59C108.2,-62.56 132.03,-68.68 152.61,-73.96"/>
<polygon fill="midnightblue" stroke="midnightblue" points="151.87,-77.38 162.42,-76.48 153.61,-70.6 151.87,-77.38"/>
</g>
<!-- Node3 -->
<g id="node3" class="node">
<title>Node3</title>
<g id="a_node3"><a xlink:href="$range_8hpp.html#a438bd5fc0a79e42a6a2abb632203f925" xlink:title=" ">
<polygon fill="white" stroke="black" points="300,-57.5 300,-76.5 332,-76.5 332,-57.5 300,-57.5"/>
<text text-anchor="middle" x="316" y="-64.5" font-family="Helvetica,sans-Serif" font-size="10.00">rev</text>
</a>
</g>
</g>
<!-- Node1&#45;&gt;Node3 -->
<g id="edge4" class="edge">
<title>Node1&#45;&gt;Node3</title>
<path fill="none" stroke="midnightblue" d="M101.06,-51.57C157.15,-55.62 246.34,-62.05 289.69,-65.17"/>
<polygon fill="midnightblue" stroke="midnightblue" points="289.69,-68.68 299.91,-65.91 290.19,-61.7 289.69,-68.68"/>
</g>
<!-- Node4 -->
<g id="node4" class="node">
<title>Node4</title>
<g id="a_node4"><a xlink:href="$namespaceutility.html#a80f7a687b4e8d135cde1ae1d6b169d13" xlink:title="Set x to the minimum of x and y.">
<polygon fill="white" stroke="black" points="156,-0.5 156,-19.5 245,-19.5 245,-0.5 156,-0.5"/>
<text text-anchor="middle" x="200.5" y="-7.5" font-family="Helvetica,sans-Serif" font-size="10.00">utility::max_eq</text>
</a>
</g>
</g>
<!-- Node1&#45;&gt;Node4 -->
<g id="edge3" class="edge">
<title>Node1&#45;&gt;Node4</title>
<path fill="none" stroke="midnightblue" d="M88.85,-38.41C108.2,-33.44 132.03,-27.32 152.61,-22.04"/>
<polygon fill="midnightblue" stroke="midnightblue" points="153.61,-25.4 162.42,-19.52 151.87,-18.62 153.61,-25.4"/>
</g>
<!-- Node2&#45;&gt;Node3 -->
<g id="edge2" class="edge">
<title>Node2&#45;&gt;Node3</title>
<path fill="none" stroke="midnightblue" d="M258.58,-76.44C269.53,-74.61 280.47,-72.78 289.75,-71.23"/>
<polygon fill="midnightblue" stroke="midnightblue" points="290.52,-74.65 299.8,-69.54 289.36,-67.74 290.52,-74.65"/>
</g>
</g>
</svg>
