<?xml version="1.0" encoding="UTF-8" standalone="no"?>
<!DOCTYPE svg PUBLIC "-//W3C//DTD SVG 1.1//EN"
 "http://www.w3.org/Graphics/SVG/1.1/DTD/svg11.dtd">
<!-- Generated by graphviz version 2.43.0 (0)
 -->
<!-- Title: SegmentTree::update Pages: 1 -->
<svg width="627pt" height="123pt"
 viewBox="0.00 0.00 627.00 123.00" xmlns="http://www.w3.org/2000/svg" xmlns:xlink="http://www.w3.org/1999/xlink">
<g id="graph0" class="graph" transform="scale(1 1) rotate(0) translate(4 119)">
<title>SegmentTree::update</title>
<polygon fill="white" stroke="transparent" points="-4,4 -4,-119 623,-119 623,4 -4,4"/>
<!-- Node1 -->
<g id="node1" class="node">
<title>Node1</title>
<g id="a_node1"><a xlink:title=" ">
<polygon fill="#bfbfbf" stroke="black" points="0,-57.5 0,-76.5 120,-76.5 120,-57.5 0,-57.5"/>
<text text-anchor="middle" x="60" y="-64.5" font-family="Helvetica,sans-Serif" font-size="10.00">SegmentTree::update</text>
</a>
</g>
</g>
<!-- Node2 -->
<g id="node2" class="node">
<title>Node2</title>
<g id="a_node2"><a xlink:href="classSegmentTree.html#a89a183ae20045f72d80ef9ca1627d3b9" target="_top" xlink:title=" ">
<polygon fill="white" stroke="black" points="156,-57.5 156,-76.5 303,-76.5 303,-57.5 156,-57.5"/>
<text text-anchor="middle" x="229.5" y="-64.5" font-family="Helvetica,sans-Serif" font-size="10.00">SegmentTree::update_impl</text>
</a>
</g>
</g>
<!-- Node1&#45;&gt;Node2 -->
<g id="edge1" class="edge">
<title>Node1&#45;&gt;Node2</title>
<path fill="none" stroke="midnightblue" d="M120.05,-67C128.38,-67 137.07,-67 145.74,-67"/>
<polygon fill="midnightblue" stroke="midnightblue" points="145.89,-70.5 155.89,-67 145.89,-63.5 145.89,-70.5"/>
</g>
<!-- Node3 -->
<g id="node3" class="node">
<title>Node3</title>
<g id="a_node3"><a xlink:href="classSegmentTree.html#a4fcb8374e3b27c774bb7554133353a4d" target="_top" xlink:title=" ">
<polygon fill="white" stroke="black" points="339,-76.5 339,-95.5 452,-95.5 452,-76.5 339,-76.5"/>
<text text-anchor="middle" x="395.5" y="-83.5" font-family="Helvetica,sans-Serif" font-size="10.00">SegmentTree::down</text>
</a>
</g>
</g>
<!-- Node2&#45;&gt;Node3 -->
<g id="edge2" class="edge">
<title>Node2&#45;&gt;Node3</title>
<path fill="none" stroke="midnightblue" d="M303.39,-75.44C311.78,-76.42 320.3,-77.4 328.6,-78.36"/>
<polygon fill="midnightblue" stroke="midnightblue" points="328.24,-81.85 338.57,-79.52 329.04,-74.89 328.24,-81.85"/>
</g>
<!-- Node4 -->
<g id="node4" class="node">
<title>Node4</title>
<g id="a_node4"><a xlink:href="classSegmentTree.html#a1eba29efb9fb95e7559e4480f52838cc" target="_top" xlink:title=" ">
<polygon fill="white" stroke="black" points="488,-95.5 488,-114.5 619,-114.5 619,-95.5 488,-95.5"/>
<text text-anchor="middle" x="553.5" y="-102.5" font-family="Helvetica,sans-Serif" font-size="10.00">SegmentTree::get_child</text>
</a>
</g>
</g>
<!-- Node2&#45;&gt;Node4 -->
<g id="edge5" class="edge">
<title>Node2&#45;&gt;Node4</title>
<path fill="none" stroke="midnightblue" d="M251.15,-76.59C272.57,-85.97 307.32,-99.61 339,-105 384.48,-112.73 436.2,-112.95 477.34,-111.13"/>
<polygon fill="midnightblue" stroke="midnightblue" points="477.74,-114.61 487.56,-110.62 477.4,-107.62 477.74,-114.61"/>
</g>
<!-- Node5 -->
<g id="node5" class="node">
<title>Node5</title>
<g id="a_node5"><a xlink:href="classSegmentTree.html#a49a185b358936de0e027b42bb32017d4" target="_top" xlink:title=" ">
<polygon fill="white" stroke="black" points="489.5,-57.5 489.5,-76.5 617.5,-76.5 617.5,-57.5 489.5,-57.5"/>
<text text-anchor="middle" x="553.5" y="-64.5" font-family="Helvetica,sans-Serif" font-size="10.00">SegmentTree::get_core</text>
</a>
</g>
</g>
<!-- Node2&#45;&gt;Node5 -->
<g id="edge6" class="edge">
<title>Node2&#45;&gt;Node5</title>
<path fill="none" stroke="midnightblue" d="M303.16,-67C355.68,-67 426.36,-67 479.06,-67"/>
<polygon fill="midnightblue" stroke="midnightblue" points="479.34,-70.5 489.34,-67 479.34,-63.5 479.34,-70.5"/>
</g>
<!-- Node6 -->
<g id="node6" class="node">
<title>Node6</title>
<g id="a_node6"><a xlink:href="classSegmentTree.html#a60de928bef44ff17754a2a7c8c39f39d" target="_top" xlink:title=" ">
<polygon fill="white" stroke="black" points="343,-0.5 343,-19.5 448,-19.5 448,-0.5 343,-0.5"/>
<text text-anchor="middle" x="395.5" y="-7.5" font-family="Helvetica,sans-Serif" font-size="10.00">SegmentTree::mid</text>
</a>
</g>
</g>
<!-- Node2&#45;&gt;Node6 -->
<g id="edge7" class="edge">
<title>Node2&#45;&gt;Node6</title>
<path fill="none" stroke="midnightblue" d="M257.95,-57.46C285.15,-48.01 327,-33.46 357.2,-22.96"/>
<polygon fill="midnightblue" stroke="midnightblue" points="358.66,-26.16 366.96,-19.57 356.37,-19.55 358.66,-26.16"/>
</g>
<!-- Node3&#45;&gt;Node4 -->
<g id="edge3" class="edge">
<title>Node3&#45;&gt;Node4</title>
<path fill="none" stroke="midnightblue" d="M452.38,-92.81C460.67,-93.82 469.33,-94.87 477.93,-95.92"/>
<polygon fill="midnightblue" stroke="midnightblue" points="477.63,-99.41 487.98,-97.14 478.48,-92.46 477.63,-99.41"/>
</g>
<!-- Node3&#45;&gt;Node5 -->
<g id="edge4" class="edge">
<title>Node3&#45;&gt;Node5</title>
<path fill="none" stroke="midnightblue" d="M452.38,-79.19C461.08,-78.13 470.18,-77.03 479.2,-75.93"/>
<polygon fill="midnightblue" stroke="midnightblue" points="479.82,-79.38 489.32,-74.69 478.97,-72.43 479.82,-79.38"/>
</g>
</g>
</svg>
