<?xml version="1.0" encoding="UTF-8" standalone="no"?>
<!DOCTYPE svg PUBLIC "-//W3C//DTD SVG 1.1//EN"
 "http://www.w3.org/Graphics/SVG/1.1/DTD/svg11.dtd">
<!-- Generated by graphviz version 2.43.0 (0)
 -->
<!-- Title: SegmentTree::build Pages: 1 -->
<svg width="304pt" height="66pt"
 viewBox="0.00 0.00 304.00 66.00" xmlns="http://www.w3.org/2000/svg" xmlns:xlink="http://www.w3.org/1999/xlink">
<g id="graph0" class="graph" transform="scale(1 1) rotate(0) translate(4 62)">
<title>SegmentTree::build</title>
<polygon fill="white" stroke="transparent" points="-4,4 -4,-62 300,-62 300,4 -4,4"/>
<!-- Node1 -->
<g id="node1" class="node">
<title>Node1</title>
<g id="a_node1"><a xlink:title=" ">
<polygon fill="#bfbfbf" stroke="black" points="186,-19.5 186,-38.5 296,-38.5 296,-19.5 186,-19.5"/>
<text text-anchor="middle" x="241" y="-26.5" font-family="Helvetica,sans-Serif" font-size="10.00">SegmentTree::build</text>
</a>
</g>
</g>
<!-- Node2 -->
<g id="node2" class="node">
<title>Node2</title>
<g id="a_node2"><a xlink:href="classSegmentTree.html#aabaaa7303a83cf52dc1a8def8abfe9f0" target="_top" target="_top" target="_top" xlink:title=" ">
<polygon fill="white" stroke="black" points="20,-38.5 20,-57.5 130,-57.5 130,-38.5 20,-38.5"/>
<text text-anchor="middle" x="75" y="-45.5" font-family="Helvetica,sans-Serif" font-size="10.00">SegmentTree::build</text>
</a>
</g>
</g>
<!-- Node1&#45;&gt;Node2 -->
<g id="edge1" class="edge">
<title>Node1&#45;&gt;Node2</title>
<path fill="none" stroke="midnightblue" d="M175.58,-36.46C160.53,-38.21 144.65,-40.05 130.1,-41.73"/>
<polygon fill="midnightblue" stroke="midnightblue" points="176.32,-39.9 185.85,-35.27 175.51,-32.95 176.32,-39.9"/>
</g>
<!-- Node3 -->
<g id="node3" class="node">
<title>Node3</title>
<g id="a_node3"><a xlink:href="classSegmentTree.html#a11490d67106ccf45a9474bcdd09510db" target="_top" target="_top" target="_top" xlink:title=" ">
<polygon fill="white" stroke="black" points="0,-0.5 0,-19.5 150,-19.5 150,-0.5 0,-0.5"/>
<text text-anchor="middle" x="75" y="-7.5" font-family="Helvetica,sans-Serif" font-size="10.00">SegmentTree::SegmentTree</text>
</a>
</g>
</g>
<!-- Node1&#45;&gt;Node3 -->
<g id="edge2" class="edge">
<title>Node1&#45;&gt;Node3</title>
<path fill="none" stroke="midnightblue" d="M175.71,-21.55C167.28,-20.57 158.58,-19.57 150,-18.57"/>
<polygon fill="midnightblue" stroke="midnightblue" points="175.51,-25.05 185.85,-22.73 176.32,-18.1 175.51,-25.05"/>
</g>
</g>
</svg>
