<?xml version="1.0" encoding="UTF-8" standalone="no"?>
<!DOCTYPE svg PUBLIC "-//W3C//DTD SVG 1.1//EN"
 "http://www.w3.org/Graphics/SVG/1.1/DTD/svg11.dtd">
<!-- Generated by graphviz version 2.43.0 (0)
 -->
<!-- Title: segment_tree::SegmentTree::destroy Pages: 1 -->
<svg width="352pt" height="78pt"
 viewBox="0.00 0.00 352.00 77.50" xmlns="http://www.w3.org/2000/svg" xmlns:xlink="http://www.w3.org/1999/xlink">
<g id="graph0" class="graph" transform="scale(1 1) rotate(0) translate(4 73.5)">
<title>segment_tree::SegmentTree::destroy</title>
<polygon fill="white" stroke="transparent" points="-4,4 -4,-73.5 348,-73.5 348,4 -4,4"/>
<!-- Node1 -->
<g id="node1" class="node">
<title>Node1</title>
<g id="a_node1"><a xlink:title=" ">
<polygon fill="#bfbfbf" stroke="black" points="0,-22.5 0,-52.5 154,-52.5 154,-22.5 0,-22.5"/>
<text text-anchor="start" x="8" y="-40.5" font-family="Helvetica,sans-Serif" font-size="10.00">segment_tree::SegmentTree</text>
<text text-anchor="middle" x="77" y="-29.5" font-family="Helvetica,sans-Serif" font-size="10.00">::destroy</text>
</a>
</g>
</g>
<!-- Node2 -->
<g id="node2" class="node">
<title>Node2</title>
<g id="a_node2"><a xlink:href="operations_8hpp.html#a915663194fec79c061edfaea61707bd0" target="_top" xlink:title=" ">
<polygon fill="white" stroke="black" points="252.5,-50 252.5,-69 281.5,-69 281.5,-50 252.5,-50"/>
<text text-anchor="middle" x="267" y="-57" font-family="Helvetica,sans-Serif" font-size="10.00">fo</text>
</a>
</g>
</g>
<!-- Node1&#45;&gt;Node2 -->
<g id="edge1" class="edge">
<title>Node1&#45;&gt;Node2</title>
<path fill="none" stroke="midnightblue" d="M154.2,-46.42C185.72,-50.11 220.01,-54.12 242.19,-56.71"/>
<polygon fill="midnightblue" stroke="midnightblue" points="241.98,-60.21 252.32,-57.9 242.8,-53.26 241.98,-60.21"/>
</g>
<!-- Node3 -->
<g id="node3" class="node">
<title>Node3</title>
<g id="a_node3"><a xlink:href="classsegment__tree_1_1SegmentTree.html#a3d4b3dd98355d9e414bc04cdcf5f5457" target="_top" xlink:title=" ">
<polygon fill="white" stroke="black" points="190,-0.5 190,-30.5 344,-30.5 344,-0.5 190,-0.5"/>
<text text-anchor="start" x="198" y="-18.5" font-family="Helvetica,sans-Serif" font-size="10.00">segment_tree::SegmentTree</text>
<text text-anchor="middle" x="267" y="-7.5" font-family="Helvetica,sans-Serif" font-size="10.00">::get_child</text>
</a>
</g>
</g>
<!-- Node1&#45;&gt;Node3 -->
<g id="edge2" class="edge">
<title>Node1&#45;&gt;Node3</title>
<path fill="none" stroke="midnightblue" d="M154.2,-28.58C162.61,-27.6 171.22,-26.59 179.74,-25.59"/>
<polygon fill="midnightblue" stroke="midnightblue" points="180.17,-29.07 189.7,-24.43 179.36,-22.12 180.17,-29.07"/>
</g>
</g>
</svg>
