<?xml version="1.0" encoding="UTF-8" standalone="no"?>
<!DOCTYPE svg PUBLIC "-//W3C//DTD SVG 1.1//EN"
 "http://www.w3.org/Graphics/SVG/1.1/DTD/svg11.dtd">
<!-- Generated by graphviz version 2.43.0 (0)
 -->
<!-- Title: QueueAdaptor::empty Pages: 1 -->
<svg width="578pt" height="78pt"
 viewBox="0.00 0.00 578.00 77.50" xmlns="http://www.w3.org/2000/svg" xmlns:xlink="http://www.w3.org/1999/xlink">
<g id="graph0" class="graph" transform="scale(1 1) rotate(0) translate(4 73.5)">
<title>QueueAdaptor::empty</title>
<polygon fill="white" stroke="transparent" points="-4,4 -4,-73.5 574,-73.5 574,4 -4,4"/>
<!-- Node1 -->
<g id="node1" class="node">
<title>Node1</title>
<g id="a_node1"><a xlink:title=" ">
<polygon fill="#bfbfbf" stroke="black" points="446,-22.5 446,-41.5 570,-41.5 570,-22.5 446,-22.5"/>
<text text-anchor="middle" x="508" y="-29.5" font-family="Helvetica,sans-Serif" font-size="10.00">QueueAdaptor::empty</text>
</a>
</g>
</g>
<!-- Node2 -->
<g id="node2" class="node">
<title>Node2</title>
<g id="a_node2"><a xlink:href="classQueueAdaptor.html#ad0f545cec9fdfb5cdda40a51c9ff8648" target="_top" xlink:title=" ">
<polygon fill="white" stroke="black" points="267,-39 267,-69 410,-69 410,-39 267,-39"/>
<text text-anchor="start" x="275" y="-57" font-family="Helvetica,sans-Serif" font-size="10.00">QueueAdaptor&lt; MinStack</text>
<text text-anchor="middle" x="338.5" y="-46" font-family="Helvetica,sans-Serif" font-size="10.00">&lt; T &gt; &gt;::push</text>
</a>
</g>
</g>
<!-- Node1&#45;&gt;Node2 -->
<g id="edge1" class="edge">
<title>Node1&#45;&gt;Node2</title>
<path fill="none" stroke="midnightblue" d="M435.49,-41.39C427.14,-42.49 418.61,-43.61 410.27,-44.71"/>
<polygon fill="midnightblue" stroke="midnightblue" points="436.12,-44.84 445.58,-40.07 435.21,-37.9 436.12,-44.84"/>
</g>
<!-- Node3 -->
<g id="node3" class="node">
<title>Node3</title>
<g id="a_node3"><a xlink:href="queue_8hpp.html#a3582140b7324e0ea0a09e7b49aff5da4" target="_top" xlink:title=" ">
<polygon fill="white" stroke="black" points="284.5,-0.5 284.5,-19.5 392.5,-19.5 392.5,-0.5 284.5,-0.5"/>
<text text-anchor="middle" x="338.5" y="-7.5" font-family="Helvetica,sans-Serif" font-size="10.00">test_queueadaptor</text>
</a>
</g>
</g>
<!-- Node1&#45;&gt;Node3 -->
<g id="edge2" class="edge">
<title>Node1&#45;&gt;Node3</title>
<path fill="none" stroke="midnightblue" d="M435.27,-22.58C420.96,-20.7 406.18,-18.76 392.63,-16.98"/>
<polygon fill="midnightblue" stroke="midnightblue" points="435.21,-26.1 445.58,-23.93 436.12,-19.16 435.21,-26.1"/>
</g>
<!-- Node4 -->
<g id="node4" class="node">
<title>Node4</title>
<g id="a_node4"><a xlink:href="queue_8hpp.html#a409d820ae1bf7e9bac41a9258ef79165" target="_top" xlink:title=" ">
<polygon fill="white" stroke="black" points="160,-0.5 160,-19.5 231,-19.5 231,-0.5 160,-0.5"/>
<text text-anchor="middle" x="195.5" y="-7.5" font-family="Helvetica,sans-Serif" font-size="10.00">test_queue</text>
</a>
</g>
</g>
<!-- Node3&#45;&gt;Node4 -->
<g id="edge3" class="edge">
<title>Node3&#45;&gt;Node4</title>
<path fill="none" stroke="midnightblue" d="M274.06,-10C259.28,-10 244.08,-10 231.1,-10"/>
<polygon fill="midnightblue" stroke="midnightblue" points="274.19,-13.5 284.19,-10 274.19,-6.5 274.19,-13.5"/>
</g>
<!-- Node5 -->
<g id="node5" class="node">
<title>Node5</title>
<g id="a_node5"><a xlink:href="test_8cpp.html#af095a232149097b5605064623a9345ac" target="_top" xlink:title=" ">
<polygon fill="white" stroke="black" points="77,-0.5 77,-19.5 124,-19.5 124,-0.5 77,-0.5"/>
<text text-anchor="middle" x="100.5" y="-7.5" font-family="Helvetica,sans-Serif" font-size="10.00">main2</text>
</a>
</g>
</g>
<!-- Node4&#45;&gt;Node5 -->
<g id="edge4" class="edge">
<title>Node4&#45;&gt;Node5</title>
<path fill="none" stroke="midnightblue" d="M149.86,-10C140.9,-10 131.84,-10 124.03,-10"/>
<polygon fill="midnightblue" stroke="midnightblue" points="149.87,-13.5 159.87,-10 149.87,-6.5 149.87,-13.5"/>
</g>
<!-- Node6 -->
<g id="node6" class="node">
<title>Node6</title>
<g id="a_node6"><a xlink:href="main_8hpp.html#a0ddf1224851353fc92bfbff6f499fa97" target="_top" xlink:title=" ">
<polygon fill="white" stroke="black" points="0,-0.5 0,-19.5 41,-19.5 41,-0.5 0,-0.5"/>
<text text-anchor="middle" x="20.5" y="-7.5" font-family="Helvetica,sans-Serif" font-size="10.00">main</text>
</a>
</g>
</g>
<!-- Node5&#45;&gt;Node6 -->
<g id="edge5" class="edge">
<title>Node5&#45;&gt;Node6</title>
<path fill="none" stroke="midnightblue" d="M66.66,-10C57.96,-10 48.84,-10 41.1,-10"/>
<polygon fill="midnightblue" stroke="midnightblue" points="66.94,-13.5 76.94,-10 66.94,-6.5 66.94,-13.5"/>
</g>
</g>
</svg>
