<?xml version="1.0" encoding="UTF-8" standalone="no"?>
<!DOCTYPE svg PUBLIC "-//W3C//DTD SVG 1.1//EN"
 "http://www.w3.org/Graphics/SVG/1.1/DTD/svg11.dtd">
<!-- Generated by graphviz version 2.43.0 (0)
 -->
<!-- Title: polynomial_ns::Polynomial&lt; T &gt; Pages: 1 -->
<svg width="185pt" height="152pt"
 viewBox="0.00 0.00 185.00 152.00" xmlns="http://www.w3.org/2000/svg" xmlns:xlink="http://www.w3.org/1999/xlink">
<g id="graph0" class="graph" transform="scale(1 1) rotate(0) translate(4 148)">
<title>polynomial_ns::Polynomial&lt; T &gt;</title>
<polygon fill="white" stroke="transparent" points="-4,4 -4,-148 181,-148 181,4 -4,4"/>
<!-- Node1 -->
<g id="node1" class="node">
<title>Node1</title>
<g id="a_node1"><a xlink:title=" ">
<polygon fill="#bfbfbf" stroke="black" points="0,-0.5 0,-19.5 177,-19.5 177,-0.5 0,-0.5"/>
<text text-anchor="middle" x="88.5" y="-7.5" font-family="Helvetica,sans-Serif" font-size="10.00">polynomial_ns::Polynomial&lt; T &gt;</text>
</a>
</g>
</g>
<!-- Node2 -->
<g id="node2" class="node">
<title>Node2</title>
<g id="a_node2"><a xlink:title="STL class.">
<polygon fill="white" stroke="#bfbfbf" points="40,-57.5 40,-76.5 137,-76.5 137,-57.5 40,-57.5"/>
<text text-anchor="middle" x="88.5" y="-64.5" font-family="Helvetica,sans-Serif" font-size="10.00">std::vector&lt; T &gt;</text>
</a>
</g>
</g>
<!-- Node2&#45;&gt;Node1 -->
<g id="edge1" class="edge">
<title>Node2&#45;&gt;Node1</title>
<path fill="none" stroke="midnightblue" d="M88.5,-47.12C88.5,-37.82 88.5,-27.06 88.5,-19.71"/>
<polygon fill="midnightblue" stroke="midnightblue" points="85,-47.41 88.5,-57.41 92,-47.41 85,-47.41"/>
</g>
<!-- Node3 -->
<g id="node3" class="node">
<title>Node3</title>
<g id="a_node3"><a xlink:title=" ">
<polygon fill="white" stroke="#bfbfbf" points="74,-124.5 74,-143.5 103,-143.5 103,-124.5 74,-124.5"/>
<text text-anchor="middle" x="88.5" y="-131.5" font-family="Helvetica,sans-Serif" font-size="10.00">T</text>
</a>
</g>
</g>
<!-- Node3&#45;&gt;Node2 -->
<g id="edge2" class="edge">
<title>Node3&#45;&gt;Node2</title>
<path fill="none" stroke="#9a32cd" stroke-dasharray="5,2" d="M88.5,-114.04C88.5,-101.67 88.5,-86.12 88.5,-76.63"/>
<polygon fill="#9a32cd" stroke="#9a32cd" points="85,-114.23 88.5,-124.23 92,-114.23 85,-114.23"/>
<text text-anchor="middle" x="113" y="-98" font-family="Helvetica,sans-Serif" font-size="10.00"> elements</text>
</g>
</g>
</svg>
