<?xml version="1.0" encoding="UTF-8" standalone="no"?>
<!DOCTYPE svg PUBLIC "-//W3C//DTD SVG 1.1//EN"
 "http://www.w3.org/Graphics/SVG/1.1/DTD/svg11.dtd">
<!-- Generated by graphviz version 2.43.0 (0)
 -->
<!-- Title: QueueAdaptor::size Pages: 1 -->
<svg width="655pt" height="78pt"
 viewBox="0.00 0.00 655.00 77.50" xmlns="http://www.w3.org/2000/svg" xmlns:xlink="http://www.w3.org/1999/xlink">
<g id="graph0" class="graph" transform="scale(1 1) rotate(0) translate(4 73.5)">
<title>QueueAdaptor::size</title>
<polygon fill="white" stroke="transparent" points="-4,4 -4,-73.5 651,-73.5 651,4 -4,4"/>
<!-- Node1 -->
<g id="node1" class="node">
<title>Node1</title>
<g id="a_node1"><a xlink:title=" ">
<polygon fill="#bfbfbf" stroke="black" points="535,-22.5 535,-41.5 647,-41.5 647,-22.5 535,-22.5"/>
<text text-anchor="middle" x="591" y="-29.5" font-family="Helvetica,sans-Serif" font-size="10.00">QueueAdaptor::size</text>
</a>
</g>
</g>
<!-- Node2 -->
<g id="node2" class="node">
<title>Node2</title>
<g id="a_node2"><a xlink:href="classQueueAdaptor.html#a81ec309acaf4e8ad47e49d2fbffb0000" target="_top" xlink:title=" ">
<polygon fill="white" stroke="black" points="356,-39 356,-69 499,-69 499,-39 356,-39"/>
<text text-anchor="start" x="364" y="-57" font-family="Helvetica,sans-Serif" font-size="10.00">QueueAdaptor&lt; MinStack</text>
<text text-anchor="middle" x="427.5" y="-46" font-family="Helvetica,sans-Serif" font-size="10.00">&lt; T &gt; &gt;::pop</text>
</a>
</g>
</g>
<!-- Node1&#45;&gt;Node2 -->
<g id="edge1" class="edge">
<title>Node1&#45;&gt;Node2</title>
<path fill="none" stroke="midnightblue" d="M524.72,-40.89C516.28,-42.04 507.61,-43.22 499.08,-44.38"/>
<polygon fill="midnightblue" stroke="midnightblue" points="525.44,-44.33 534.87,-39.51 524.49,-37.39 525.44,-44.33"/>
</g>
<!-- Node3 -->
<g id="node3" class="node">
<title>Node3</title>
<g id="a_node3"><a xlink:href="queue_8hpp.html#a3582140b7324e0ea0a09e7b49aff5da4" target="_top" xlink:title=" ">
<polygon fill="white" stroke="black" points="373.5,-0.5 373.5,-19.5 481.5,-19.5 481.5,-0.5 373.5,-0.5"/>
<text text-anchor="middle" x="427.5" y="-7.5" font-family="Helvetica,sans-Serif" font-size="10.00">test_queueadaptor</text>
</a>
</g>
</g>
<!-- Node1&#45;&gt;Node3 -->
<g id="edge2" class="edge">
<title>Node1&#45;&gt;Node3</title>
<path fill="none" stroke="midnightblue" d="M524.64,-23.1C510.38,-21.15 495.46,-19.12 481.74,-17.25"/>
<polygon fill="midnightblue" stroke="midnightblue" points="524.49,-26.61 534.87,-24.49 525.44,-19.67 524.49,-26.61"/>
</g>
<!-- Node4 -->
<g id="node4" class="node">
<title>Node4</title>
<g id="a_node4"><a xlink:href="queue_8hpp.html#a409d820ae1bf7e9bac41a9258ef79165" target="_top" xlink:title=" ">
<polygon fill="white" stroke="black" points="249,-0.5 249,-19.5 320,-19.5 320,-0.5 249,-0.5"/>
<text text-anchor="middle" x="284.5" y="-7.5" font-family="Helvetica,sans-Serif" font-size="10.00">test_queue</text>
</a>
</g>
</g>
<!-- Node3&#45;&gt;Node4 -->
<g id="edge3" class="edge">
<title>Node3&#45;&gt;Node4</title>
<path fill="none" stroke="midnightblue" d="M363.06,-10C348.28,-10 333.08,-10 320.1,-10"/>
<polygon fill="midnightblue" stroke="midnightblue" points="363.19,-13.5 373.19,-10 363.19,-6.5 363.19,-13.5"/>
</g>
<!-- Node5 -->
<g id="node5" class="node">
<title>Node5</title>
<g id="a_node5"><a xlink:href="test_8cpp.html#aa1c715cac916839a95e25b65b4071c4a" target="_top" xlink:title=" ">
<polygon fill="white" stroke="black" points="160,-0.5 160,-19.5 213,-19.5 213,-0.5 160,-0.5"/>
<text text-anchor="middle" x="186.5" y="-7.5" font-family="Helvetica,sans-Serif" font-size="10.00">test_all</text>
</a>
</g>
</g>
<!-- Node4&#45;&gt;Node5 -->
<g id="edge4" class="edge">
<title>Node4&#45;&gt;Node5</title>
<path fill="none" stroke="midnightblue" d="M238.67,-10C229.88,-10 220.95,-10 213.07,-10"/>
<polygon fill="midnightblue" stroke="midnightblue" points="238.84,-13.5 248.84,-10 238.84,-6.5 238.84,-13.5"/>
</g>
<!-- Node6 -->
<g id="node6" class="node">
<title>Node6</title>
<g id="a_node6"><a xlink:href="test_8cpp.html#af095a232149097b5605064623a9345ac" target="_top" xlink:title=" ">
<polygon fill="white" stroke="black" points="77,-0.5 77,-19.5 124,-19.5 124,-0.5 77,-0.5"/>
<text text-anchor="middle" x="100.5" y="-7.5" font-family="Helvetica,sans-Serif" font-size="10.00">main2</text>
</a>
</g>
</g>
<!-- Node5&#45;&gt;Node6 -->
<g id="edge5" class="edge">
<title>Node5&#45;&gt;Node6</title>
<path fill="none" stroke="midnightblue" d="M149.59,-10C140.96,-10 131.99,-10 124.16,-10"/>
<polygon fill="midnightblue" stroke="midnightblue" points="149.84,-13.5 159.84,-10 149.84,-6.5 149.84,-13.5"/>
</g>
<!-- Node7 -->
<g id="node7" class="node">
<title>Node7</title>
<g id="a_node7"><a xlink:href="main_8hpp.html#a0ddf1224851353fc92bfbff6f499fa97" target="_top" xlink:title=" ">
<polygon fill="white" stroke="black" points="0,-0.5 0,-19.5 41,-19.5 41,-0.5 0,-0.5"/>
<text text-anchor="middle" x="20.5" y="-7.5" font-family="Helvetica,sans-Serif" font-size="10.00">main</text>
</a>
</g>
</g>
<!-- Node6&#45;&gt;Node7 -->
<g id="edge6" class="edge">
<title>Node6&#45;&gt;Node7</title>
<path fill="none" stroke="midnightblue" d="M66.66,-10C57.96,-10 48.84,-10 41.1,-10"/>
<polygon fill="midnightblue" stroke="midnightblue" points="66.94,-13.5 76.94,-10 66.94,-6.5 66.94,-13.5"/>
</g>
</g>
</svg>
