<?xml version="1.0" encoding="UTF-8" standalone="no"?>
<!DOCTYPE svg PUBLIC "-//W3C//DTD SVG 1.1//EN"
 "http://www.w3.org/Graphics/SVG/1.1/DTD/svg11.dtd">
<!-- Generated by graphviz version 2.43.0 (0)
 -->
<!-- Title: hld::HLD&lt; T, Monoid, QueryDS &gt; Pages: 1 -->
<!--zoomable 577 -->
<svg id="main" version="1.1" xmlns="http://www.w3.org/2000/svg" xmlns:xlink="http://www.w3.org/1999/xlink" xml:space="preserve" onload="init(evt)">
<style type="text/css"><![CDATA[
.edge:hover path { stroke: red; }
.edge:hover polygon { stroke: red; fill: red; }
]]></style>
<script type="text/javascript"><![CDATA[
var edges = document.getElementsByTagName('g');
if (edges && edges.length) {
  for (var i=0;i<edges.length;i++) {
    if (edges[i].id.substr(0,4)=='edge') {
      edges[i].setAttribute('class','edge');
    }
  }
}
]]></script>
        <defs>
                <circle id="rim" cx="0" cy="0" r="7"/>
                <circle id="rim2" cx="0" cy="0" r="3.5"/>
                <g id="zoomPlus">
                        <use xlink:href="#rim" fill="#404040">
                                <set attributeName="fill" to="#808080" begin="zoomplus.mouseover" end="zoomplus.mouseout"/>
                        </use>
                        <path d="M-4,0h8M0,-4v8" fill="none" stroke="white" stroke-width="1.5" pointer-events="none"/>
                </g>
                <g id="zoomMin">
                        <use xlink:href="#rim" fill="#404040">
                                <set attributeName="fill" to="#808080" begin="zoomminus.mouseover" end="zoomminus.mouseout"/>
                        </use>
                        <path d="M-4,0h8" fill="none" stroke="white" stroke-width="1.5" pointer-events="none"/>
                </g>
                <g id="dirArrow">
                        <path fill="none" stroke="white" stroke-width="1.5" d="M0,-3.0v7 M-2.5,-0.5L0,-3.0L2.5,-0.5"/>
                </g>
               <g id="resetDef">
                       <use xlink:href="#rim2" fill="#404040">
                               <set attributeName="fill" to="#808080" begin="reset.mouseover" end="reset.mouseout"/>
                       </use>
               </g>
        </defs>

<script type="text/javascript">
var viewWidth = 491;
var viewHeight = 577;
var sectionId = 'dynsection-0';
</script>
<script xlink:href="svgpan.js"/>
<svg id="graph" class="graph">
<g id="viewport">
<title>hld::HLD&lt; T, Monoid, QueryDS &gt;</title>
<polygon fill="white" stroke="transparent" points="-4,4 -4,-573 486.5,-573 486.5,4 -4,4"/>
<!-- Node1 -->
<g id="node1" class="node">
<title>Node1</title>
<g id="a_node1"><a xlink:title="Heavy&#45;light decomposition.">
<polygon fill="#bfbfbf" stroke="black" points="132.5,-0.5 132.5,-30.5 252.5,-30.5 252.5,-0.5 132.5,-0.5"/>
<text text-anchor="start" x="140.5" y="-18.5" font-family="Helvetica,sans-Serif" font-size="10.00">hld::HLD&lt; T, Monoid,</text>
<text text-anchor="middle" x="192.5" y="-7.5" font-family="Helvetica,sans-Serif" font-size="10.00"> QueryDS &gt;</text>
</a>
</g>
</g>
<!-- Node2 -->
<g id="node2" class="node">
<title>Node2</title>
<g id="a_node2"><a xlink:href="structgraph__theory_1_1DFS.html" target="_top" xlink:title="Depth&#45;first search.">
<polygon fill="white" stroke="black" points="202.5,-78.5 202.5,-108.5 316.5,-108.5 316.5,-78.5 202.5,-78.5"/>
<text text-anchor="start" x="210.5" y="-96.5" font-family="Helvetica,sans-Serif" font-size="10.00">graph_theory::DFS&lt;</text>
<text text-anchor="middle" x="259.5" y="-85.5" font-family="Helvetica,sans-Serif" font-size="10.00"> Graph &gt;</text>
</a>
</g>
</g>
<!-- Node2&#45;&gt;Node1 -->
<g id="edge1" class="edge">
<title>Node2&#45;&gt;Node1</title>
<path fill="none" stroke="#9a32cd" stroke-dasharray="5,2" d="M240.26,-70.67C228.94,-57.83 214.95,-41.97 205.05,-30.73"/>
<polygon fill="#9a32cd" stroke="#9a32cd" points="237.66,-73.02 246.9,-78.2 242.91,-68.39 237.66,-73.02"/>
<text text-anchor="middle" x="235.5" y="-52" font-family="Helvetica,sans-Serif" font-size="10.00"> d</text>
</g>
<!-- Node3 -->
<g id="node3" class="node">
<title>Node3</title>
<g id="a_node3"><a xlink:href="structgraph__theory_1_1GeneralSearch.html" target="_top" xlink:title=" ">
<polygon fill="white" stroke="black" points="187,-146.5 187,-176.5 364,-176.5 364,-146.5 187,-146.5"/>
<text text-anchor="start" x="195" y="-164.5" font-family="Helvetica,sans-Serif" font-size="10.00">graph_theory::GeneralSearch</text>
<text text-anchor="middle" x="275.5" y="-153.5" font-family="Helvetica,sans-Serif" font-size="10.00">&lt; DFS&lt; GraphAdj &gt;, GraphAdj &gt;</text>
</a>
</g>
</g>
<!-- Node3&#45;&gt;Node2 -->
<g id="edge2" class="edge">
<title>Node3&#45;&gt;Node2</title>
<path fill="none" stroke="midnightblue" d="M269.64,-136.33C267.4,-127.08 264.91,-116.83 262.96,-108.79"/>
<polygon fill="midnightblue" stroke="midnightblue" points="266.27,-137.29 272.03,-146.18 273.07,-135.64 266.27,-137.29"/>
</g>
<!-- Node4 -->
<g id="node4" class="node">
<title>Node4</title>
<g id="a_node4"><a xlink:title=" ">
<polygon fill="white" stroke="#bfbfbf" points="141,-415.5 141,-434.5 238,-434.5 238,-415.5 141,-415.5"/>
<text text-anchor="middle" x="189.5" y="-422.5" font-family="Helvetica,sans-Serif" font-size="10.00">std::vector&lt; ll &gt;</text>
</a>
</g>
</g>
<!-- Node4&#45;&gt;Node1 -->
<g id="edge19" class="edge">
<title>Node4&#45;&gt;Node1</title>
<path fill="none" stroke="#9a32cd" stroke-dasharray="5,2" d="M179.01,-406.56C170.36,-390.51 159.5,-365.72 159.5,-342.5 159.5,-342.5 159.5,-342.5 159.5,-92.5 159.5,-69.34 172.55,-45.25 182.24,-30.56"/>
<polygon fill="#9a32cd" stroke="#9a32cd" points="176.02,-408.37 184,-415.34 182.1,-404.92 176.02,-408.37"/>
<text text-anchor="middle" x="175" y="-220" font-family="Helvetica,sans-Serif" font-size="10.00"> head</text>
<text text-anchor="middle" x="175" y="-209" font-family="Helvetica,sans-Serif" font-size="10.00">heavy</text>
<text text-anchor="middle" x="175" y="-198" font-family="Helvetica,sans-Serif" font-size="10.00">pos</text>
</g>
<!-- Node4&#45;&gt;Node3 -->
<g id="edge3" class="edge">
<title>Node4&#45;&gt;Node3</title>
<path fill="none" stroke="#9a32cd" stroke-dasharray="5,2" d="M195.55,-405.62C211.83,-356.11 256.35,-220.74 270.86,-176.61"/>
<polygon fill="#9a32cd" stroke="#9a32cd" points="192.16,-404.71 192.36,-415.3 198.81,-406.89 192.16,-404.71"/>
<text text-anchor="middle" x="255.5" y="-300" font-family="Helvetica,sans-Serif" font-size="10.00"> parent</text>
<text text-anchor="middle" x="255.5" y="-289" font-family="Helvetica,sans-Serif" font-size="10.00">distance</text>
</g>
<!-- Node9 -->
<g id="node9" class="node">
<title>Node9</title>
<g id="a_node9"><a xlink:title=" ">
<polygon fill="white" stroke="#bfbfbf" points="20,-332 20,-351 111,-351 111,-332 20,-332"/>
<text text-anchor="middle" x="65.5" y="-339" font-family="Helvetica,sans-Serif" font-size="10.00">GraphAdj_Base</text>
</a>
</g>
</g>
<!-- Node4&#45;&gt;Node9 -->
<g id="edge9" class="edge">
<title>Node4&#45;&gt;Node9</title>
<path fill="none" stroke="#9a32cd" stroke-dasharray="5,2" d="M130.98,-414.43C118.72,-410.47 106.5,-404.89 96.5,-397 81.29,-385 72.24,-363.34 68.14,-351.25"/>
<polygon fill="#9a32cd" stroke="#9a32cd" points="130.19,-417.84 140.77,-417.26 132.14,-411.12 130.19,-417.84"/>
<text text-anchor="middle" x="121" y="-383.5" font-family="Helvetica,sans-Serif" font-size="10.00"> elements</text>
</g>
<!-- Node10 -->
<g id="node10" class="node">
<title>Node10</title>
<g id="a_node10"><a xlink:href="structgraph__theory_1_1GeneralSearch.html" target="_top" xlink:title="Generalized graph searcher/visitor.">
<polygon fill="white" stroke="black" points="233.5,-326.5 233.5,-356.5 391.5,-356.5 391.5,-326.5 233.5,-326.5"/>
<text text-anchor="start" x="241.5" y="-344.5" font-family="Helvetica,sans-Serif" font-size="10.00">graph_theory::GeneralSearch</text>
<text text-anchor="middle" x="312.5" y="-333.5" font-family="Helvetica,sans-Serif" font-size="10.00">&lt; Searcher, Graph &gt;</text>
</a>
</g>
</g>
<!-- Node4&#45;&gt;Node10 -->
<g id="edge12" class="edge">
<title>Node4&#45;&gt;Node10</title>
<path fill="none" stroke="#9a32cd" stroke-dasharray="5,2" d="M211.21,-409.62C233.76,-394.67 268.83,-371.44 291.22,-356.6"/>
<polygon fill="#9a32cd" stroke="#9a32cd" points="209.07,-406.84 202.66,-415.28 212.93,-412.67 209.07,-406.84"/>
<text text-anchor="middle" x="283.5" y="-389" font-family="Helvetica,sans-Serif" font-size="10.00"> parent</text>
<text text-anchor="middle" x="283.5" y="-378" font-family="Helvetica,sans-Serif" font-size="10.00">distance</text>
</g>
<!-- Node5 -->
<g id="node5" class="node">
<title>Node5</title>
<g id="a_node5"><a xlink:href="structll.html" target="_top" xlink:title=" ">
<polygon fill="white" stroke="black" points="304,-482.5 304,-501.5 333,-501.5 333,-482.5 304,-482.5"/>
<text text-anchor="middle" x="318.5" y="-489.5" font-family="Helvetica,sans-Serif" font-size="10.00">ll</text>
</a>
</g>
</g>
<!-- Node5&#45;&gt;Node4 -->
<g id="edge4" class="edge">
<title>Node5&#45;&gt;Node4</title>
<path fill="none" stroke="#9a32cd" stroke-dasharray="5,2" d="M305.01,-474.11C298.32,-466.71 289.72,-458.49 280.5,-453 266.48,-444.66 249.7,-438.73 234.38,-434.59"/>
<polygon fill="#9a32cd" stroke="#9a32cd" points="302.74,-476.85 311.89,-482.2 308.07,-472.31 302.74,-476.85"/>
<text text-anchor="middle" x="319" y="-456" font-family="Helvetica,sans-Serif" font-size="10.00"> elements</text>
</g>
<!-- Node12 -->
<g id="node12" class="node">
<title>Node12</title>
<g id="a_node12"><a xlink:title=" ">
<polygon fill="white" stroke="#bfbfbf" points="386.5,-415.5 386.5,-434.5 482.5,-434.5 482.5,-415.5 386.5,-415.5"/>
<text text-anchor="middle" x="434.5" y="-422.5" font-family="Helvetica,sans-Serif" font-size="10.00">std::deque&lt; ll &gt;</text>
</a>
</g>
</g>
<!-- Node5&#45;&gt;Node12 -->
<g id="edge16" class="edge">
<title>Node5&#45;&gt;Node12</title>
<path fill="none" stroke="#9a32cd" stroke-dasharray="5,2" d="M339.49,-476.87C350.85,-469.44 365.23,-460.37 378.5,-453 390.48,-446.35 404.36,-439.65 415.3,-434.59"/>
<polygon fill="#9a32cd" stroke="#9a32cd" points="337.52,-473.97 331.12,-482.41 341.39,-479.81 337.52,-473.97"/>
<text text-anchor="middle" x="403" y="-456" font-family="Helvetica,sans-Serif" font-size="10.00"> elements</text>
</g>
<!-- Node6 -->
<g id="node6" class="node">
<title>Node6</title>
<g id="a_node6"><a xlink:title="STL class.">
<polygon fill="white" stroke="#bfbfbf" points="167,-482.5 167,-501.5 264,-501.5 264,-482.5 167,-482.5"/>
<text text-anchor="middle" x="215.5" y="-489.5" font-family="Helvetica,sans-Serif" font-size="10.00">std::vector&lt; T &gt;</text>
</a>
</g>
</g>
<!-- Node6&#45;&gt;Node4 -->
<g id="edge5" class="edge">
<title>Node6&#45;&gt;Node4</title>
<path fill="none" stroke="orange" stroke-dasharray="5,2" d="M188.73,-476.35C184.6,-472.87 180.91,-468.75 178.5,-464 173.71,-454.57 178.66,-442.73 183.37,-434.8"/>
<polygon fill="orange" stroke="orange" points="186.83,-479.29 196.99,-482.28 190.91,-473.61 186.83,-479.29"/>
<text text-anchor="middle" x="194.5" y="-456" font-family="Helvetica,sans-Serif" font-size="10.00"> &lt; ll &gt;</text>
</g>
<!-- Node6&#45;&gt;Node9 -->
<g id="edge10" class="edge">
<title>Node6&#45;&gt;Node9</title>
<path fill="none" stroke="orange" stroke-dasharray="5,2" d="M156.93,-488.33C118.74,-483.18 71.5,-469.62 46.5,-435 27.69,-408.95 48.82,-368.57 59.76,-351.07"/>
<polygon fill="orange" stroke="orange" points="156.58,-491.82 166.93,-489.52 157.41,-484.87 156.58,-491.82"/>
<text text-anchor="middle" x="89" y="-422.5" font-family="Helvetica,sans-Serif" font-size="10.00"> &lt; vector&lt; ll &gt; &gt;</text>
</g>
<!-- Node11 -->
<g id="node11" class="node">
<title>Node11</title>
<g id="a_node11"><a xlink:title=" ">
<polygon fill="white" stroke="#bfbfbf" points="256.5,-415.5 256.5,-434.5 368.5,-434.5 368.5,-415.5 256.5,-415.5"/>
<text text-anchor="middle" x="312.5" y="-422.5" font-family="Helvetica,sans-Serif" font-size="10.00">std::vector&lt; char &gt;</text>
</a>
</g>
</g>
<!-- Node6&#45;&gt;Node11 -->
<g id="edge14" class="edge">
<title>Node6&#45;&gt;Node11</title>
<path fill="none" stroke="orange" stroke-dasharray="5,2" d="M220.73,-472.75C223.53,-465.76 227.65,-458.23 233.5,-453 243.12,-444.41 255.6,-438.53 267.79,-434.51"/>
<polygon fill="orange" stroke="orange" points="217.41,-471.66 217.52,-482.26 224.04,-473.91 217.41,-471.66"/>
<text text-anchor="middle" x="257" y="-456" font-family="Helvetica,sans-Serif" font-size="10.00"> &lt; char &gt;</text>
</g>
<!-- Node7 -->
<g id="node7" class="node">
<title>Node7</title>
<g id="a_node7"><a xlink:title=" ">
<polygon fill="white" stroke="#bfbfbf" points="282,-549.5 282,-568.5 311,-568.5 311,-549.5 282,-549.5"/>
<text text-anchor="middle" x="296.5" y="-556.5" font-family="Helvetica,sans-Serif" font-size="10.00">T</text>
</a>
</g>
</g>
<!-- Node7&#45;&gt;Node6 -->
<g id="edge6" class="edge">
<title>Node7&#45;&gt;Node6</title>
<path fill="none" stroke="#9a32cd" stroke-dasharray="5,2" d="M277.45,-542.71C261.49,-529.91 239.29,-512.09 226.25,-501.63"/>
<polygon fill="#9a32cd" stroke="#9a32cd" points="275.59,-545.7 285.58,-549.23 279.97,-540.25 275.59,-545.7"/>
<text text-anchor="middle" x="286" y="-523" font-family="Helvetica,sans-Serif" font-size="10.00"> elements</text>
</g>
<!-- Node13 -->
<g id="node13" class="node">
<title>Node13</title>
<g id="a_node13"><a xlink:title="STL class.">
<polygon fill="white" stroke="#bfbfbf" points="382.5,-482.5 382.5,-501.5 478.5,-501.5 478.5,-482.5 382.5,-482.5"/>
<text text-anchor="middle" x="430.5" y="-489.5" font-family="Helvetica,sans-Serif" font-size="10.00">std::deque&lt; T &gt;</text>
</a>
</g>
</g>
<!-- Node7&#45;&gt;Node13 -->
<g id="edge18" class="edge">
<title>Node7&#45;&gt;Node13</title>
<path fill="none" stroke="#9a32cd" stroke-dasharray="5,2" d="M320.09,-546.56C346.65,-533.67 389.19,-513.04 412.97,-501.51"/>
<polygon fill="#9a32cd" stroke="#9a32cd" points="318.57,-543.41 311.1,-550.92 321.62,-549.7 318.57,-543.41"/>
<text text-anchor="middle" x="396" y="-523" font-family="Helvetica,sans-Serif" font-size="10.00"> elements</text>
</g>
<!-- Node8 -->
<g id="node8" class="node">
<title>Node8</title>
<g id="a_node8"><a xlink:href="structgraph__theory_1_1GraphAdj.html" target="_top" xlink:title=" ">
<polygon fill="white" stroke="black" points="0,-247.5 0,-266.5 131,-266.5 131,-247.5 0,-247.5"/>
<text text-anchor="middle" x="65.5" y="-254.5" font-family="Helvetica,sans-Serif" font-size="10.00">graph_theory::GraphAdj</text>
</a>
</g>
</g>
<!-- Node8&#45;&gt;Node3 -->
<g id="edge7" class="edge">
<title>Node8&#45;&gt;Node3</title>
<path fill="none" stroke="#9a32cd" stroke-dasharray="5,2" d="M72.82,-238.17C79.5,-224.2 90.74,-205.42 106.5,-195 130.05,-179.42 159.24,-170.91 186.7,-166.38"/>
<polygon fill="#9a32cd" stroke="#9a32cd" points="69.62,-236.75 68.76,-247.31 76.02,-239.59 69.62,-236.75"/>
<text text-anchor="middle" x="122" y="-209" font-family="Helvetica,sans-Serif" font-size="10.00"> graph</text>
</g>
<!-- Node9&#45;&gt;Node8 -->
<g id="edge8" class="edge">
<title>Node9&#45;&gt;Node8</title>
<path fill="none" stroke="midnightblue" d="M65.5,-321.93C65.5,-304.63 65.5,-279.61 65.5,-266.6"/>
<polygon fill="midnightblue" stroke="midnightblue" points="62,-321.98 65.5,-331.98 69,-321.98 62,-321.98"/>
</g>
<!-- Node10&#45;&gt;Node3 -->
<g id="edge11" class="edge">
<title>Node10&#45;&gt;Node3</title>
<path fill="none" stroke="orange" stroke-dasharray="5,2" d="M307.43,-316.13C299.6,-278.45 284.8,-207.23 278.48,-176.83"/>
<polygon fill="orange" stroke="orange" points="304.07,-317.16 309.53,-326.23 310.93,-315.73 304.07,-317.16"/>
<text text-anchor="start" x="296.5" y="-260" font-family="Helvetica,sans-Serif" font-size="10.00"> &lt; DFS&lt; GraphAdj &gt;,</text>
<text text-anchor="middle" x="349" y="-249" font-family="Helvetica,sans-Serif" font-size="10.00"> GraphAdj &gt;</text>
</g>
<!-- Node11&#45;&gt;Node10 -->
<g id="edge13" class="edge">
<title>Node11&#45;&gt;Node10</title>
<path fill="none" stroke="#9a32cd" stroke-dasharray="5,2" d="M312.5,-405.23C312.5,-390.41 312.5,-370.05 312.5,-356.6"/>
<polygon fill="#9a32cd" stroke="#9a32cd" points="309,-405.28 312.5,-415.28 316,-405.28 309,-405.28"/>
<text text-anchor="middle" x="331" y="-383.5" font-family="Helvetica,sans-Serif" font-size="10.00"> visited</text>
</g>
<!-- Node12&#45;&gt;Node10 -->
<g id="edge15" class="edge">
<title>Node12&#45;&gt;Node10</title>
<path fill="none" stroke="#9a32cd" stroke-dasharray="5,2" d="M412.97,-409.62C390.6,-394.67 355.81,-371.44 333.6,-356.6"/>
<polygon fill="#9a32cd" stroke="#9a32cd" points="411.18,-412.63 421.44,-415.28 415.07,-406.81 411.18,-412.63"/>
<text text-anchor="middle" x="408.5" y="-383.5" font-family="Helvetica,sans-Serif" font-size="10.00"> queue</text>
</g>
<!-- Node13&#45;&gt;Node12 -->
<g id="edge17" class="edge">
<title>Node13&#45;&gt;Node12</title>
<path fill="none" stroke="orange" stroke-dasharray="5,2" d="M431.67,-472.04C432.43,-459.67 433.38,-444.12 433.97,-434.63"/>
<polygon fill="orange" stroke="orange" points="428.16,-472.04 431.04,-482.23 435.15,-472.47 428.16,-472.04"/>
<text text-anchor="middle" x="448.5" y="-456" font-family="Helvetica,sans-Serif" font-size="10.00"> &lt; ll &gt;</text>
</g>
</g>
</svg>
        <g id="navigator" transform="translate(0 0)" fill="#404254">
                <rect fill="#f2f5e9" fill-opacity="0.5" stroke="#606060" stroke-width=".5" x="0" y="0" width="60" height="60"/>
                <use id="zoomplus" xlink:href="#zoomPlus" x="17" y="9" onmousedown="handleZoom(evt,'in')"/>
                <use id="zoomminus" xlink:href="#zoomMin" x="42" y="9" onmousedown="handleZoom(evt,'out')"/>
                <use id="reset" xlink:href="#resetDef" x="30" y="36" onmousedown="handleReset()"/>
                <g id="arrowUp" xlink:href="#dirArrow" transform="translate(30 24)" onmousedown="handlePan(0,-1)">
                  <use xlink:href="#rim" fill="#404040">
                        <set attributeName="fill" to="#808080" begin="arrowUp.mouseover" end="arrowUp.mouseout"/>
                  </use>
                  <path fill="none" stroke="white" stroke-width="1.5" d="M0,-3.0v7 M-2.5,-0.5L0,-3.0L2.5,-0.5"/>
                </g>
                <g id="arrowRight" xlink:href="#dirArrow" transform="rotate(90) translate(36 -43)" onmousedown="handlePan(1,0)">
                  <use xlink:href="#rim" fill="#404040">
                        <set attributeName="fill" to="#808080" begin="arrowRight.mouseover" end="arrowRight.mouseout"/>
                  </use>
                  <path fill="none" stroke="white" stroke-width="1.5" d="M0,-3.0v7 M-2.5,-0.5L0,-3.0L2.5,-0.5"/>
                </g>
                <g id="arrowDown" xlink:href="#dirArrow" transform="rotate(180) translate(-30 -48)" onmousedown="handlePan(0,1)">
                  <use xlink:href="#rim" fill="#404040">
                        <set attributeName="fill" to="#808080" begin="arrowDown.mouseover" end="arrowDown.mouseout"/>
                  </use>
                  <path fill="none" stroke="white" stroke-width="1.5" d="M0,-3.0v7 M-2.5,-0.5L0,-3.0L2.5,-0.5"/>
                </g>
                <g id="arrowLeft" xlink:href="#dirArrow" transform="rotate(270) translate(-36 17)" onmousedown="handlePan(-1,0)">
                  <use xlink:href="#rim" fill="#404040">
                        <set attributeName="fill" to="#808080" begin="arrowLeft.mouseover" end="arrowLeft.mouseout"/>
                  </use>
                  <path fill="none" stroke="white" stroke-width="1.5" d="M0,-3.0v7 M-2.5,-0.5L0,-3.0L2.5,-0.5"/>
                </g>
        </g>
        <svg viewBox="0 0 15 15" width="100%" height="30px" preserveAspectRatio="xMaxYMin meet">
         <g id="arrow_out" transform="scale(0.3 0.3)">
          <a xlink:href="classhld_1_1HLD__coll__graph_org.svg" target="_base">
           <rect id="button" ry="5" rx="5" y="6" x="6" height="38" width="38"
                fill="#f2f5e9" fill-opacity="0.5" stroke="#606060" stroke-width="1.0"/>
           <path id="arrow"
             d="M 11.500037,31.436501 C 11.940474,20.09759 22.043105,11.32322 32.158766,21.979434 L 37.068811,17.246167 C 37.068811,17.246167 37.088388,32 37.088388,32 L 22.160133,31.978069 C 22.160133,31.978069 26.997745,27.140456 26.997745,27.140456 C 18.528582,18.264221 13.291696,25.230495 11.500037,31.436501 z"
             style="fill:#404040;"/>
          </a>
         </g>
        </svg>
</svg>
