<?xml version="1.0" encoding="UTF-8" standalone="no"?>
<!DOCTYPE svg PUBLIC "-//W3C//DTD SVG 1.1//EN"
 "http://www.w3.org/Graphics/SVG/1.1/DTD/svg11.dtd">
<!-- Generated by graphviz version 2.43.0 (0)
 -->
<!-- Title: SegmentTree::update Pages: 1 -->
<svg width="374pt" height="66pt"
 viewBox="0.00 0.00 374.00 66.00" xmlns="http://www.w3.org/2000/svg" xmlns:xlink="http://www.w3.org/1999/xlink">
<g id="graph0" class="graph" transform="scale(1 1) rotate(0) translate(4 62)">
<title>SegmentTree::update</title>
<polygon fill="white" stroke="transparent" points="-4,4 -4,-62 370,-62 370,4 -4,4"/>
<!-- Node1 -->
<g id="node1" class="node">
<title>Node1</title>
<g id="a_node1"><a xlink:title=" ">
<polygon fill="#bfbfbf" stroke="black" points="0,-19.5 0,-38.5 120,-38.5 120,-19.5 0,-19.5"/>
<text text-anchor="middle" x="60" y="-26.5" font-family="Helvetica,sans-Serif" font-size="10.00">SegmentTree::update</text>
</a>
</g>
</g>
<!-- Node2 -->
<g id="node2" class="node">
<title>Node2</title>
<g id="a_node2"><a xlink:href="classSegmentTree.html#a00e7570a50ddee7944c35de35d8924ff" target="_top" xlink:title=" ">
<polygon fill="white" stroke="black" points="156,-19.5 156,-38.5 276,-38.5 276,-19.5 156,-19.5"/>
<text text-anchor="middle" x="216" y="-26.5" font-family="Helvetica,sans-Serif" font-size="10.00">SegmentTree::update</text>
</a>
</g>
</g>
<!-- Node1&#45;&gt;Node2 -->
<g id="edge1" class="edge">
<title>Node1&#45;&gt;Node2</title>
<path fill="none" stroke="midnightblue" d="M120.1,-29C128.42,-29 137.04,-29 145.53,-29"/>
<polygon fill="midnightblue" stroke="midnightblue" points="145.8,-32.5 155.8,-29 145.8,-25.5 145.8,-32.5"/>
</g>
<!-- Node3 -->
<g id="node3" class="node">
<title>Node3</title>
<g id="a_node3"><a xlink:href="treap_8hpp.html#a4a94ad7cd8f33ebf044afd6d79a174f8" target="_top" xlink:title=" ">
<polygon fill="white" stroke="black" points="317.5,-38.5 317.5,-57.5 360.5,-57.5 360.5,-38.5 317.5,-38.5"/>
<text text-anchor="middle" x="339" y="-45.5" font-family="Helvetica,sans-Serif" font-size="10.00">down</text>
</a>
</g>
</g>
<!-- Node2&#45;&gt;Node3 -->
<g id="edge2" class="edge">
<title>Node2&#45;&gt;Node3</title>
<path fill="none" stroke="midnightblue" d="M276.08,-38.28C286.89,-39.97 297.76,-41.68 307.31,-43.18"/>
<polygon fill="midnightblue" stroke="midnightblue" points="307.03,-46.68 317.46,-44.77 308.12,-39.77 307.03,-46.68"/>
</g>
<!-- Node4 -->
<g id="node4" class="node">
<title>Node4</title>
<g id="a_node4"><a xlink:href="e__compiled_8cpp.html#ac969ae49524a67aba9be0f061955ef23" target="_top" xlink:title=" ">
<polygon fill="white" stroke="black" points="312,-0.5 312,-19.5 366,-19.5 366,-0.5 312,-0.5"/>
<text text-anchor="middle" x="339" y="-7.5" font-family="Helvetica,sans-Serif" font-size="10.00">identity</text>
</a>
</g>
</g>
<!-- Node2&#45;&gt;Node4 -->
<g id="edge3" class="edge">
<title>Node2&#45;&gt;Node4</title>
<path fill="none" stroke="midnightblue" d="M276.08,-19.72C284.94,-18.33 293.84,-16.93 302.02,-15.65"/>
<polygon fill="midnightblue" stroke="midnightblue" points="302.6,-19.1 311.94,-14.09 301.51,-12.19 302.6,-19.1"/>
</g>
</g>
</svg>
