<?xml version="1.0" encoding="UTF-8" standalone="no"?>
<!DOCTYPE svg PUBLIC "-//W3C//DTD SVG 1.1//EN"
 "http://www.w3.org/Graphics/SVG/1.1/DTD/svg11.dtd">
<!-- Generated by graphviz version 2.43.0 (0)
 -->
<!-- Title: queue_tools::MinQueue::min Pages: 1 -->
<svg width="699pt" height="52pt"
 viewBox="0.00 0.00 699.00 51.50" xmlns="http://www.w3.org/2000/svg" xmlns:xlink="http://www.w3.org/1999/xlink">
<g id="graph0" class="graph" transform="scale(1 1) rotate(0) translate(4 47.5)">
<title>queue_tools::MinQueue::min</title>
<polygon fill="white" stroke="transparent" points="-4,4 -4,-47.5 695,-47.5 695,4 -4,4"/>
<!-- Node1 -->
<g id="node1" class="node">
<title>Node1</title>
<g id="a_node1"><a xlink:title=" ">
<polygon fill="#bfbfbf" stroke="black" points="535,-6 535,-25 691,-25 691,-6 535,-6"/>
<text text-anchor="middle" x="613" y="-13" font-family="Helvetica,sans-Serif" font-size="10.00">queue_tools::MinQueue::min</text>
</a>
</g>
</g>
<!-- Node1&#45;&gt;Node1 -->
<g id="edge1" class="edge">
<title>Node1&#45;&gt;Node1</title>
<path fill="none" stroke="midnightblue" d="M644.06,-33.77C643.18,-39.24 632.82,-43.5 613,-43.5 583.5,-43.5 574.97,-34.07 587.41,-25.26"/>
<polygon fill="midnightblue" stroke="midnightblue" points="646.94,-31.77 638.59,-25.26 641.05,-35.56 646.94,-31.77"/>
</g>
<!-- Node2 -->
<g id="node2" class="node">
<title>Node2</title>
<g id="a_node2"><a xlink:href="namespacequeue__tools_1_1test.html#abbd87df8add26a608947323b21bb1921" target="_top" xlink:title=" ">
<polygon fill="white" stroke="black" points="392,-0.5 392,-30.5 499,-30.5 499,-0.5 392,-0.5"/>
<text text-anchor="start" x="400" y="-18.5" font-family="Helvetica,sans-Serif" font-size="10.00">queue_tools::test::</text>
<text text-anchor="middle" x="445.5" y="-7.5" font-family="Helvetica,sans-Serif" font-size="10.00">test_minqueue</text>
</a>
</g>
</g>
<!-- Node1&#45;&gt;Node2 -->
<g id="edge2" class="edge">
<title>Node1&#45;&gt;Node2</title>
<path fill="none" stroke="midnightblue" d="M524.49,-15.5C515.9,-15.5 507.38,-15.5 499.3,-15.5"/>
<polygon fill="midnightblue" stroke="midnightblue" points="524.58,-19 534.58,-15.5 524.58,-12 524.58,-19"/>
</g>
<!-- Node3 -->
<g id="node3" class="node">
<title>Node3</title>
<g id="a_node3"><a xlink:href="namespacequeue__tools_1_1test.html#ae0e3be2c757c8f50b8baee654071b01e" target="_top" xlink:title=" ">
<polygon fill="white" stroke="black" points="249,-0.5 249,-30.5 356,-30.5 356,-0.5 249,-0.5"/>
<text text-anchor="start" x="257" y="-18.5" font-family="Helvetica,sans-Serif" font-size="10.00">queue_tools::test::</text>
<text text-anchor="middle" x="302.5" y="-7.5" font-family="Helvetica,sans-Serif" font-size="10.00">test_queue</text>
</a>
</g>
</g>
<!-- Node2&#45;&gt;Node3 -->
<g id="edge3" class="edge">
<title>Node2&#45;&gt;Node3</title>
<path fill="none" stroke="midnightblue" d="M381.95,-15.5C373.3,-15.5 364.49,-15.5 356.05,-15.5"/>
<polygon fill="midnightblue" stroke="midnightblue" points="382,-19 392,-15.5 382,-12 382,-19"/>
</g>
<!-- Node4 -->
<g id="node4" class="node">
<title>Node4</title>
<g id="a_node4"><a xlink:href="test_8cpp.html#aa1c715cac916839a95e25b65b4071c4a" target="_top" xlink:title=" ">
<polygon fill="white" stroke="black" points="160,-6 160,-25 213,-25 213,-6 160,-6"/>
<text text-anchor="middle" x="186.5" y="-13" font-family="Helvetica,sans-Serif" font-size="10.00">test_all</text>
</a>
</g>
</g>
<!-- Node3&#45;&gt;Node4 -->
<g id="edge4" class="edge">
<title>Node3&#45;&gt;Node4</title>
<path fill="none" stroke="midnightblue" d="M238.68,-15.5C229.71,-15.5 220.94,-15.5 213.26,-15.5"/>
<polygon fill="midnightblue" stroke="midnightblue" points="238.84,-19 248.84,-15.5 238.84,-12 238.84,-19"/>
</g>
<!-- Node5 -->
<g id="node5" class="node">
<title>Node5</title>
<g id="a_node5"><a xlink:href="test_8cpp.html#af095a232149097b5605064623a9345ac" target="_top" xlink:title=" ">
<polygon fill="white" stroke="black" points="77,-6 77,-25 124,-25 124,-6 77,-6"/>
<text text-anchor="middle" x="100.5" y="-13" font-family="Helvetica,sans-Serif" font-size="10.00">main2</text>
</a>
</g>
</g>
<!-- Node4&#45;&gt;Node5 -->
<g id="edge5" class="edge">
<title>Node4&#45;&gt;Node5</title>
<path fill="none" stroke="midnightblue" d="M149.59,-15.5C140.96,-15.5 131.99,-15.5 124.16,-15.5"/>
<polygon fill="midnightblue" stroke="midnightblue" points="149.84,-19 159.84,-15.5 149.84,-12 149.84,-19"/>
</g>
<!-- Node6 -->
<g id="node6" class="node">
<title>Node6</title>
<g id="a_node6"><a xlink:href="main_8hpp.html#a0ddf1224851353fc92bfbff6f499fa97" target="_top" xlink:title=" ">
<polygon fill="white" stroke="black" points="0,-6 0,-25 41,-25 41,-6 0,-6"/>
<text text-anchor="middle" x="20.5" y="-13" font-family="Helvetica,sans-Serif" font-size="10.00">main</text>
</a>
</g>
</g>
<!-- Node5&#45;&gt;Node6 -->
<g id="edge6" class="edge">
<title>Node5&#45;&gt;Node6</title>
<path fill="none" stroke="midnightblue" d="M66.66,-15.5C57.96,-15.5 48.84,-15.5 41.1,-15.5"/>
<polygon fill="midnightblue" stroke="midnightblue" points="66.94,-19 76.94,-15.5 66.94,-12 66.94,-19"/>
</g>
</g>
</svg>
