<?xml version="1.0" encoding="UTF-8" standalone="no"?>
<!DOCTYPE svg PUBLIC "-//W3C//DTD SVG 1.1//EN"
 "http://www.w3.org/Graphics/SVG/1.1/DTD/svg11.dtd">
<!-- Generated by graphviz version 2.43.0 (0)
 -->
<!-- Title: SegmentTree::query Pages: 1 -->
<svg width="791pt" height="123pt"
 viewBox="0.00 0.00 791.00 123.00" xmlns="http://www.w3.org/2000/svg" xmlns:xlink="http://www.w3.org/1999/xlink">
<g id="graph0" class="graph" transform="scale(1 1) rotate(0) translate(4 119)">
<title>SegmentTree::query</title>
<polygon fill="white" stroke="transparent" points="-4,4 -4,-119 787,-119 787,4 -4,4"/>
<!-- Node1 -->
<g id="node1" class="node">
<title>Node1</title>
<g id="a_node1"><a xlink:title=" ">
<polygon fill="#bfbfbf" stroke="black" points="0,-57.5 0,-76.5 114,-76.5 114,-57.5 0,-57.5"/>
<text text-anchor="middle" x="57" y="-64.5" font-family="Helvetica,sans-Serif" font-size="10.00">SegmentTree::query</text>
</a>
</g>
</g>
<!-- Node2 -->
<g id="node2" class="node">
<title>Node2</title>
<g id="a_node2"><a xlink:href="classSegmentTree.html#a801baf5cdb91eda5d2c01c39e3953a31" target="_top" xlink:title=" ">
<polygon fill="white" stroke="black" points="150,-57.5 150,-76.5 290,-76.5 290,-57.5 150,-57.5"/>
<text text-anchor="middle" x="220" y="-64.5" font-family="Helvetica,sans-Serif" font-size="10.00">SegmentTree::query_pers</text>
</a>
</g>
</g>
<!-- Node1&#45;&gt;Node2 -->
<g id="edge1" class="edge">
<title>Node1&#45;&gt;Node2</title>
<path fill="none" stroke="midnightblue" d="M114.31,-67C122.59,-67 131.24,-67 139.87,-67"/>
<polygon fill="midnightblue" stroke="midnightblue" points="139.97,-70.5 149.97,-67 139.97,-63.5 139.97,-70.5"/>
</g>
<!-- Node3 -->
<g id="node3" class="node">
<title>Node3</title>
<g id="a_node3"><a xlink:href="classSegmentTree.html#a691d643b2872c8d23c062cc050341983" target="_top" xlink:title=" ">
<polygon fill="white" stroke="black" points="326,-57.5 326,-76.5 467,-76.5 467,-57.5 326,-57.5"/>
<text text-anchor="middle" x="396.5" y="-64.5" font-family="Helvetica,sans-Serif" font-size="10.00">SegmentTree::query_impl</text>
</a>
</g>
</g>
<!-- Node2&#45;&gt;Node3 -->
<g id="edge2" class="edge">
<title>Node2&#45;&gt;Node3</title>
<path fill="none" stroke="midnightblue" d="M290.22,-67C298.54,-67 307.09,-67 315.55,-67"/>
<polygon fill="midnightblue" stroke="midnightblue" points="315.79,-70.5 325.79,-67 315.79,-63.5 315.79,-70.5"/>
</g>
<!-- Node4 -->
<g id="node4" class="node">
<title>Node4</title>
<g id="a_node4"><a xlink:href="classSegmentTree.html#a4fcb8374e3b27c774bb7554133353a4d" target="_top" xlink:title=" ">
<polygon fill="white" stroke="black" points="503,-76.5 503,-95.5 616,-95.5 616,-76.5 503,-76.5"/>
<text text-anchor="middle" x="559.5" y="-83.5" font-family="Helvetica,sans-Serif" font-size="10.00">SegmentTree::down</text>
</a>
</g>
</g>
<!-- Node3&#45;&gt;Node4 -->
<g id="edge3" class="edge">
<title>Node3&#45;&gt;Node4</title>
<path fill="none" stroke="midnightblue" d="M467.18,-75.22C475.64,-76.22 484.26,-77.24 492.66,-78.23"/>
<polygon fill="midnightblue" stroke="midnightblue" points="492.43,-81.73 502.77,-79.42 493.25,-74.78 492.43,-81.73"/>
</g>
<!-- Node5 -->
<g id="node5" class="node">
<title>Node5</title>
<g id="a_node5"><a xlink:href="classSegmentTree.html#a1eba29efb9fb95e7559e4480f52838cc" target="_top" xlink:title=" ">
<polygon fill="white" stroke="black" points="652,-95.5 652,-114.5 783,-114.5 783,-95.5 652,-95.5"/>
<text text-anchor="middle" x="717.5" y="-102.5" font-family="Helvetica,sans-Serif" font-size="10.00">SegmentTree::get_child</text>
</a>
</g>
</g>
<!-- Node3&#45;&gt;Node5 -->
<g id="edge6" class="edge">
<title>Node3&#45;&gt;Node5</title>
<path fill="none" stroke="midnightblue" d="M417.55,-76.59C438.36,-85.97 472.12,-99.61 503,-105 548.44,-112.93 600.16,-113.15 641.31,-111.29"/>
<polygon fill="midnightblue" stroke="midnightblue" points="641.72,-114.77 651.54,-110.77 641.37,-107.78 641.72,-114.77"/>
</g>
<!-- Node6 -->
<g id="node6" class="node">
<title>Node6</title>
<g id="a_node6"><a xlink:href="classSegmentTree.html#a49a185b358936de0e027b42bb32017d4" target="_top" xlink:title=" ">
<polygon fill="white" stroke="black" points="653.5,-57.5 653.5,-76.5 781.5,-76.5 781.5,-57.5 653.5,-57.5"/>
<text text-anchor="middle" x="717.5" y="-64.5" font-family="Helvetica,sans-Serif" font-size="10.00">SegmentTree::get_core</text>
</a>
</g>
</g>
<!-- Node3&#45;&gt;Node6 -->
<g id="edge7" class="edge">
<title>Node3&#45;&gt;Node6</title>
<path fill="none" stroke="midnightblue" d="M467.11,-67C519.21,-67 590.31,-67 643.26,-67"/>
<polygon fill="midnightblue" stroke="midnightblue" points="643.26,-70.5 653.26,-67 643.26,-63.5 643.26,-70.5"/>
</g>
<!-- Node7 -->
<g id="node7" class="node">
<title>Node7</title>
<g id="a_node7"><a xlink:href="classSegmentTree.html#a60de928bef44ff17754a2a7c8c39f39d" target="_top" xlink:title=" ">
<polygon fill="white" stroke="black" points="507,-0.5 507,-19.5 612,-19.5 612,-0.5 507,-0.5"/>
<text text-anchor="middle" x="559.5" y="-7.5" font-family="Helvetica,sans-Serif" font-size="10.00">SegmentTree::mid</text>
</a>
</g>
</g>
<!-- Node3&#45;&gt;Node7 -->
<g id="edge8" class="edge">
<title>Node3&#45;&gt;Node7</title>
<path fill="none" stroke="midnightblue" d="M424.45,-57.46C451.15,-48.01 492.24,-33.46 521.89,-22.96"/>
<polygon fill="midnightblue" stroke="midnightblue" points="523.21,-26.21 531.46,-19.57 520.87,-19.61 523.21,-26.21"/>
</g>
<!-- Node4&#45;&gt;Node5 -->
<g id="edge4" class="edge">
<title>Node4&#45;&gt;Node5</title>
<path fill="none" stroke="midnightblue" d="M616.38,-92.81C624.67,-93.82 633.33,-94.87 641.93,-95.92"/>
<polygon fill="midnightblue" stroke="midnightblue" points="641.63,-99.41 651.98,-97.14 642.48,-92.46 641.63,-99.41"/>
</g>
<!-- Node4&#45;&gt;Node6 -->
<g id="edge5" class="edge">
<title>Node4&#45;&gt;Node6</title>
<path fill="none" stroke="midnightblue" d="M616.38,-79.19C625.08,-78.13 634.18,-77.03 643.2,-75.93"/>
<polygon fill="midnightblue" stroke="midnightblue" points="643.82,-79.38 653.32,-74.69 642.97,-72.43 643.82,-79.38"/>
</g>
</g>
</svg>
