<?xml version="1.0" encoding="UTF-8" standalone="no"?>
<!DOCTYPE svg PUBLIC "-//W3C//DTD SVG 1.1//EN"
 "http://www.w3.org/Graphics/SVG/1.1/DTD/svg11.dtd">
<!-- Generated by graphviz version 2.43.0 (0)
 -->
<!-- Title: segment_tree::SegmentTree::build Pages: 1 -->
<svg width="377pt" height="232pt"
 viewBox="0.00 0.00 377.00 231.50" xmlns="http://www.w3.org/2000/svg" xmlns:xlink="http://www.w3.org/1999/xlink">
<g id="graph0" class="graph" transform="scale(1 1) rotate(0) translate(4 227.5)">
<title>segment_tree::SegmentTree::build</title>
<polygon fill="white" stroke="transparent" points="-4,4 -4,-227.5 373,-227.5 373,4 -4,4"/>
<!-- Node1 -->
<g id="node1" class="node">
<title>Node1</title>
<g id="a_node1"><a xlink:title=" ">
<polygon fill="#bfbfbf" stroke="black" points="0,-77 0,-107 154,-107 154,-77 0,-77"/>
<text text-anchor="start" x="8" y="-95" font-family="Helvetica,sans-Serif" font-size="10.00">segment_tree::SegmentTree</text>
<text text-anchor="middle" x="77" y="-84" font-family="Helvetica,sans-Serif" font-size="10.00">::build</text>
</a>
</g>
</g>
<!-- Node2 -->
<g id="node2" class="node">
<title>Node2</title>
<g id="a_node2"><a xlink:href="classsegment__tree_1_1SegmentTree.html#ab4671ac300a724a5bbfdd92c68abcfcb" target="_top" xlink:title=" ">
<polygon fill="white" stroke="black" points="202.5,-175 202.5,-205 356.5,-205 356.5,-175 202.5,-175"/>
<text text-anchor="start" x="210.5" y="-193" font-family="Helvetica,sans-Serif" font-size="10.00">segment_tree::SegmentTree</text>
<text text-anchor="middle" x="279.5" y="-182" font-family="Helvetica,sans-Serif" font-size="10.00">::build</text>
</a>
</g>
</g>
<!-- Node1&#45;&gt;Node2 -->
<g id="edge1" class="edge">
<title>Node1&#45;&gt;Node2</title>
<path fill="none" stroke="midnightblue" d="M96.72,-107.1C118.12,-123.69 154.74,-150.07 190,-166 194.39,-167.98 198.99,-169.84 203.67,-171.56"/>
<polygon fill="midnightblue" stroke="midnightblue" points="202.78,-174.95 213.37,-174.91 205.06,-168.34 202.78,-174.95"/>
</g>
<!-- Node3 -->
<g id="node3" class="node">
<title>Node3</title>
<g id="a_node3"><a xlink:href="classsegment__tree_1_1SegmentTree.html#a3d4b3dd98355d9e414bc04cdcf5f5457" target="_top" xlink:title=" ">
<polygon fill="white" stroke="black" points="202.5,-126 202.5,-156 356.5,-156 356.5,-126 202.5,-126"/>
<text text-anchor="start" x="210.5" y="-144" font-family="Helvetica,sans-Serif" font-size="10.00">segment_tree::SegmentTree</text>
<text text-anchor="middle" x="279.5" y="-133" font-family="Helvetica,sans-Serif" font-size="10.00">::get_child</text>
</a>
</g>
</g>
<!-- Node1&#45;&gt;Node3 -->
<g id="edge3" class="edge">
<title>Node1&#45;&gt;Node3</title>
<path fill="none" stroke="midnightblue" d="M139.52,-107.03C160.88,-112.26 185.02,-118.15 207.11,-123.55"/>
<polygon fill="midnightblue" stroke="midnightblue" points="206.55,-127.02 217.1,-125.99 208.21,-120.22 206.55,-127.02"/>
</g>
<!-- Node4 -->
<g id="node4" class="node">
<title>Node4</title>
<g id="a_node4"><a xlink:href="classsegment__tree_1_1SegmentTree.html#ac8ebb88c3ad2fedecb123e31552fde60" target="_top" xlink:title=" ">
<polygon fill="white" stroke="black" points="202.5,-77 202.5,-107 356.5,-107 356.5,-77 202.5,-77"/>
<text text-anchor="start" x="210.5" y="-95" font-family="Helvetica,sans-Serif" font-size="10.00">segment_tree::SegmentTree</text>
<text text-anchor="middle" x="279.5" y="-84" font-family="Helvetica,sans-Serif" font-size="10.00">::get_core</text>
</a>
</g>
</g>
<!-- Node1&#45;&gt;Node4 -->
<g id="edge4" class="edge">
<title>Node1&#45;&gt;Node4</title>
<path fill="none" stroke="midnightblue" d="M154.09,-92C166.59,-92 179.62,-92 192.34,-92"/>
<polygon fill="midnightblue" stroke="midnightblue" points="192.47,-95.5 202.47,-92 192.47,-88.5 192.47,-95.5"/>
</g>
<!-- Node5 -->
<g id="node5" class="node">
<title>Node5</title>
<g id="a_node5"><a xlink:href="namespacelinear__algebra.html#aac11793366a8aa7d2396775fdb1ba8ca" target="_top" xlink:title=" ">
<polygon fill="white" stroke="black" points="214.5,-38.5 214.5,-57.5 344.5,-57.5 344.5,-38.5 214.5,-38.5"/>
<text text-anchor="middle" x="279.5" y="-45.5" font-family="Helvetica,sans-Serif" font-size="10.00">linear_algebra::identity</text>
</a>
</g>
</g>
<!-- Node1&#45;&gt;Node5 -->
<g id="edge5" class="edge">
<title>Node1&#45;&gt;Node5</title>
<path fill="none" stroke="midnightblue" d="M146.44,-76.98C172.15,-71.34 200.97,-65.01 225.12,-59.72"/>
<polygon fill="midnightblue" stroke="midnightblue" points="226.14,-63.07 235.15,-57.51 224.64,-56.24 226.14,-63.07"/>
</g>
<!-- Node6 -->
<g id="node6" class="node">
<title>Node6</title>
<g id="a_node6"><a xlink:href="classsegment__tree_1_1SegmentTree.html#a2bab4503b7a982cd822c2d5cb48c8e11" target="_top" xlink:title=" ">
<polygon fill="white" stroke="black" points="190,-0.5 190,-19.5 369,-19.5 369,-0.5 190,-0.5"/>
<text text-anchor="middle" x="279.5" y="-7.5" font-family="Helvetica,sans-Serif" font-size="10.00">segment_tree::SegmentTree::mid</text>
</a>
</g>
</g>
<!-- Node1&#45;&gt;Node6 -->
<g id="edge6" class="edge">
<title>Node1&#45;&gt;Node6</title>
<path fill="none" stroke="midnightblue" d="M100.18,-76.86C122.1,-62.55 157.03,-41.48 190,-29 196.95,-26.37 204.35,-24.06 211.8,-22.05"/>
<polygon fill="midnightblue" stroke="midnightblue" points="212.75,-25.42 221.58,-19.57 211.03,-18.63 212.75,-25.42"/>
</g>
<!-- Node2&#45;&gt;Node2 -->
<g id="edge2" class="edge">
<title>Node2&#45;&gt;Node2</title>
<path fill="none" stroke="midnightblue" d="M244.3,-205.16C235.81,-214.56 247.54,-223.5 279.5,-223.5 298.97,-223.5 310.94,-220.18 315.39,-215.46"/>
<polygon fill="midnightblue" stroke="midnightblue" points="318.86,-214.9 314.7,-205.16 311.88,-215.37 318.86,-214.9"/>
</g>
</g>
</svg>
