<?xml version="1.0" encoding="UTF-8" standalone="no"?>
<!DOCTYPE svg PUBLIC "-//W3C//DTD SVG 1.1//EN"
 "http://www.w3.org/Graphics/SVG/1.1/DTD/svg11.dtd">
<!-- Generated by graphviz version 2.43.0 (0)
 -->
<!-- Title: segment_tree::SegmentTree::down Pages: 1 -->
<svg width="352pt" height="165pt"
 viewBox="0.00 0.00 352.00 165.00" xmlns="http://www.w3.org/2000/svg" xmlns:xlink="http://www.w3.org/1999/xlink">
<g id="graph0" class="graph" transform="scale(1 1) rotate(0) translate(4 161)">
<title>segment_tree::SegmentTree::down</title>
<polygon fill="white" stroke="transparent" points="-4,4 -4,-161 348,-161 348,4 -4,4"/>
<!-- Node1 -->
<g id="node1" class="node">
<title>Node1</title>
<g id="a_node1"><a xlink:title=" ">
<polygon fill="#bfbfbf" stroke="black" points="0,-63 0,-93 154,-93 154,-63 0,-63"/>
<text text-anchor="start" x="8" y="-81" font-family="Helvetica,sans-Serif" font-size="10.00">segment_tree::SegmentTree</text>
<text text-anchor="middle" x="77" y="-70" font-family="Helvetica,sans-Serif" font-size="10.00">::down</text>
</a>
</g>
</g>
<!-- Node2 -->
<g id="node2" class="node">
<title>Node2</title>
<g id="a_node2"><a xlink:href="operations_8hpp.html#a915663194fec79c061edfaea61707bd0" target="_top" xlink:title=" ">
<polygon fill="white" stroke="black" points="252.5,-137.5 252.5,-156.5 281.5,-156.5 281.5,-137.5 252.5,-137.5"/>
<text text-anchor="middle" x="267" y="-144.5" font-family="Helvetica,sans-Serif" font-size="10.00">fo</text>
</a>
</g>
</g>
<!-- Node1&#45;&gt;Node2 -->
<g id="edge1" class="edge">
<title>Node1&#45;&gt;Node2</title>
<path fill="none" stroke="midnightblue" d="M107.85,-93.04C130.08,-103.83 161.42,-118.13 190,-128 207.17,-133.93 227.12,-138.84 242.26,-142.19"/>
<polygon fill="midnightblue" stroke="midnightblue" points="241.83,-145.67 252.34,-144.34 243.29,-138.83 241.83,-145.67"/>
</g>
<!-- Node3 -->
<g id="node3" class="node">
<title>Node3</title>
<g id="a_node3"><a xlink:href="classsegment__tree_1_1SegmentTree.html#a3d4b3dd98355d9e414bc04cdcf5f5457" target="_top" xlink:title=" ">
<polygon fill="white" stroke="black" points="190,-88 190,-118 344,-118 344,-88 190,-88"/>
<text text-anchor="start" x="198" y="-106" font-family="Helvetica,sans-Serif" font-size="10.00">segment_tree::SegmentTree</text>
<text text-anchor="middle" x="267" y="-95" font-family="Helvetica,sans-Serif" font-size="10.00">::get_child</text>
</a>
</g>
</g>
<!-- Node1&#45;&gt;Node3 -->
<g id="edge2" class="edge">
<title>Node1&#45;&gt;Node3</title>
<path fill="none" stroke="midnightblue" d="M154.2,-88.13C162.61,-89.25 171.22,-90.4 179.74,-91.53"/>
<polygon fill="midnightblue" stroke="midnightblue" points="179.32,-95 189.7,-92.85 180.24,-88.07 179.32,-95"/>
</g>
<!-- Node4 -->
<g id="node4" class="node">
<title>Node4</title>
<g id="a_node4"><a xlink:href="classsegment__tree_1_1SegmentTree.html#ac8ebb88c3ad2fedecb123e31552fde60" target="_top" xlink:title=" ">
<polygon fill="white" stroke="black" points="190,-39 190,-69 344,-69 344,-39 190,-39"/>
<text text-anchor="start" x="198" y="-57" font-family="Helvetica,sans-Serif" font-size="10.00">segment_tree::SegmentTree</text>
<text text-anchor="middle" x="267" y="-46" font-family="Helvetica,sans-Serif" font-size="10.00">::get_core</text>
</a>
</g>
</g>
<!-- Node1&#45;&gt;Node4 -->
<g id="edge3" class="edge">
<title>Node1&#45;&gt;Node4</title>
<path fill="none" stroke="midnightblue" d="M154.2,-68.27C162.61,-67.2 171.22,-66.1 179.74,-65.01"/>
<polygon fill="midnightblue" stroke="midnightblue" points="180.22,-68.48 189.7,-63.74 179.33,-61.54 180.22,-68.48"/>
</g>
<!-- Node5 -->
<g id="node5" class="node">
<title>Node5</title>
<g id="a_node5"><a xlink:href="namespacelinear__algebra.html#aac11793366a8aa7d2396775fdb1ba8ca" target="_top" xlink:title=" ">
<polygon fill="white" stroke="black" points="202,-0.5 202,-19.5 332,-19.5 332,-0.5 202,-0.5"/>
<text text-anchor="middle" x="267" y="-7.5" font-family="Helvetica,sans-Serif" font-size="10.00">linear_algebra::identity</text>
</a>
</g>
</g>
<!-- Node1&#45;&gt;Node5 -->
<g id="edge4" class="edge">
<title>Node1&#45;&gt;Node5</title>
<path fill="none" stroke="midnightblue" d="M109.85,-62.86C132,-52.7 162.39,-39.49 190,-30 198.07,-27.23 206.73,-24.61 215.21,-22.25"/>
<polygon fill="midnightblue" stroke="midnightblue" points="216.3,-25.58 225.04,-19.6 214.48,-18.82 216.3,-25.58"/>
</g>
</g>
</svg>
