<?xml version="1.0" encoding="UTF-8" standalone="no"?>
<!DOCTYPE svg PUBLIC "-//W3C//DTD SVG 1.1//EN"
 "http://www.w3.org/Graphics/SVG/1.1/DTD/svg11.dtd">
<!-- Generated by graphviz version 2.43.0 (0)
 -->
<!-- Title: queue_tools::MinQueue&lt; T &gt; Pages: 1 -->
<svg width="188pt" height="174pt"
 viewBox="0.00 0.00 188.00 174.00" xmlns="http://www.w3.org/2000/svg" xmlns:xlink="http://www.w3.org/1999/xlink">
<g id="graph0" class="graph" transform="scale(1 1) rotate(0) translate(4 170)">
<title>queue_tools::MinQueue&lt; T &gt;</title>
<polygon fill="white" stroke="transparent" points="-4,4 -4,-170 184,-170 184,4 -4,4"/>
<!-- Node1 -->
<g id="node1" class="node">
<title>Node1</title>
<g id="a_node1"><a xlink:title=" ">
<polygon fill="#bfbfbf" stroke="black" points="0,-0.5 0,-19.5 160,-19.5 160,-0.5 0,-0.5"/>
<text text-anchor="middle" x="80" y="-7.5" font-family="Helvetica,sans-Serif" font-size="10.00">queue_tools::MinQueue&lt; T &gt;</text>
</a>
</g>
</g>
<!-- Node2 -->
<g id="node2" class="node">
<title>Node2</title>
<g id="a_node2"><a xlink:href="classqueue__tools_1_1QueueAdaptor.html" target="_top" xlink:title=" ">
<polygon fill="white" stroke="black" points="4,-57.5 4,-87.5 156,-87.5 156,-57.5 4,-57.5"/>
<text text-anchor="start" x="12" y="-75.5" font-family="Helvetica,sans-Serif" font-size="10.00">queue_tools::QueueAdaptor</text>
<text text-anchor="middle" x="80" y="-64.5" font-family="Helvetica,sans-Serif" font-size="10.00">&lt; MinStack&lt; T &gt; &gt;</text>
</a>
</g>
</g>
<!-- Node2&#45;&gt;Node1 -->
<g id="edge1" class="edge">
<title>Node2&#45;&gt;Node1</title>
<path fill="none" stroke="midnightblue" d="M80,-47.35C80,-37.51 80,-26.78 80,-19.54"/>
<polygon fill="midnightblue" stroke="midnightblue" points="76.5,-47.47 80,-57.47 83.5,-47.47 76.5,-47.47"/>
</g>
<!-- Node3 -->
<g id="node3" class="node">
<title>Node3</title>
<g id="a_node3"><a xlink:href="classqueue__tools_1_1QueueAdaptor.html" target="_top" xlink:title=" ">
<polygon fill="white" stroke="black" points="4,-135.5 4,-165.5 156,-165.5 156,-135.5 4,-135.5"/>
<text text-anchor="start" x="12" y="-153.5" font-family="Helvetica,sans-Serif" font-size="10.00">queue_tools::QueueAdaptor</text>
<text text-anchor="middle" x="80" y="-142.5" font-family="Helvetica,sans-Serif" font-size="10.00">&lt; Stack &gt;</text>
</a>
</g>
</g>
<!-- Node3&#45;&gt;Node2 -->
<g id="edge2" class="edge">
<title>Node3&#45;&gt;Node2</title>
<path fill="none" stroke="orange" stroke-dasharray="5,2" d="M80,-125.09C80,-112.76 80,-98.22 80,-87.73"/>
<polygon fill="orange" stroke="orange" points="76.5,-125.2 80,-135.2 83.5,-125.21 76.5,-125.2"/>
<text text-anchor="middle" x="130" y="-109" font-family="Helvetica,sans-Serif" font-size="10.00"> &lt; MinStack&lt; T &gt; &gt;</text>
</g>
</g>
</svg>
