<?xml version="1.0" encoding="UTF-8" standalone="no"?>
<!DOCTYPE svg PUBLIC "-//W3C//DTD SVG 1.1//EN"
 "http://www.w3.org/Graphics/SVG/1.1/DTD/svg11.dtd">
<!-- Generated by graphviz version 2.43.0 (0)
 -->
<!-- Title: segment_tree::SegmentTree::query Pages: 1 -->
<svg width="567pt" height="228pt"
 viewBox="0.00 0.00 567.00 228.00" xmlns="http://www.w3.org/2000/svg" xmlns:xlink="http://www.w3.org/1999/xlink">
<g id="graph0" class="graph" transform="scale(1 1) rotate(0) translate(4 224)">
<title>segment_tree::SegmentTree::query</title>
<polygon fill="white" stroke="transparent" points="-4,4 -4,-224 563,-224 563,4 -4,4"/>
<!-- Node1 -->
<g id="node1" class="node">
<title>Node1</title>
<g id="a_node1"><a xlink:title=" ">
<polygon fill="#bfbfbf" stroke="black" points="0,-93 0,-123 154,-123 154,-93 0,-93"/>
<text text-anchor="start" x="8" y="-111" font-family="Helvetica,sans-Serif" font-size="10.00">segment_tree::SegmentTree</text>
<text text-anchor="middle" x="77" y="-100" font-family="Helvetica,sans-Serif" font-size="10.00">::query</text>
</a>
</g>
</g>
<!-- Node2 -->
<g id="node2" class="node">
<title>Node2</title>
<g id="a_node2"><a xlink:href="classsegment__tree_1_1SegmentTree.html#a52f59c0f0db30957d70083a26e7ac967" target="_top" xlink:title=" ">
<polygon fill="white" stroke="black" points="202.5,-115 202.5,-145 356.5,-145 356.5,-115 202.5,-115"/>
<text text-anchor="start" x="210.5" y="-133" font-family="Helvetica,sans-Serif" font-size="10.00">segment_tree::SegmentTree</text>
<text text-anchor="middle" x="279.5" y="-122" font-family="Helvetica,sans-Serif" font-size="10.00">::down</text>
</a>
</g>
</g>
<!-- Node1&#45;&gt;Node2 -->
<g id="edge1" class="edge">
<title>Node1&#45;&gt;Node2</title>
<path fill="none" stroke="midnightblue" d="M154.09,-116.35C166.59,-117.72 179.62,-119.15 192.34,-120.55"/>
<polygon fill="midnightblue" stroke="midnightblue" points="192.14,-124.05 202.47,-121.66 192.91,-117.09 192.14,-124.05"/>
</g>
<!-- Node3 -->
<g id="node3" class="node">
<title>Node3</title>
<g id="a_node3"><a xlink:href="operations_8hpp.html#a915663194fec79c061edfaea61707bd0" target="_top" xlink:title=" ">
<polygon fill="white" stroke="black" points="467.5,-200.5 467.5,-219.5 496.5,-219.5 496.5,-200.5 467.5,-200.5"/>
<text text-anchor="middle" x="482" y="-207.5" font-family="Helvetica,sans-Serif" font-size="10.00">fo</text>
</a>
</g>
</g>
<!-- Node1&#45;&gt;Node3 -->
<g id="edge6" class="edge">
<title>Node1&#45;&gt;Node3</title>
<path fill="none" stroke="midnightblue" d="M96.94,-123.04C118.24,-139.08 154.5,-163.8 190,-176 284.81,-208.58 406.12,-211.15 456.93,-210.6"/>
<polygon fill="midnightblue" stroke="midnightblue" points="457.26,-214.1 467.2,-210.44 457.15,-207.1 457.26,-214.1"/>
</g>
<!-- Node4 -->
<g id="node4" class="node">
<title>Node4</title>
<g id="a_node4"><a xlink:href="classsegment__tree_1_1SegmentTree.html#a3d4b3dd98355d9e414bc04cdcf5f5457" target="_top" xlink:title=" ">
<polygon fill="white" stroke="black" points="405,-149 405,-179 559,-179 559,-149 405,-149"/>
<text text-anchor="start" x="413" y="-167" font-family="Helvetica,sans-Serif" font-size="10.00">segment_tree::SegmentTree</text>
<text text-anchor="middle" x="482" y="-156" font-family="Helvetica,sans-Serif" font-size="10.00">::get_child</text>
</a>
</g>
</g>
<!-- Node1&#45;&gt;Node4 -->
<g id="edge7" class="edge">
<title>Node1&#45;&gt;Node4</title>
<path fill="none" stroke="midnightblue" d="M106.06,-123.18C128.16,-134.29 160.12,-148.5 190,-155 257.56,-169.69 336,-171.25 394.41,-169.52"/>
<polygon fill="midnightblue" stroke="midnightblue" points="394.83,-173.01 404.71,-169.17 394.6,-166.01 394.83,-173.01"/>
</g>
<!-- Node5 -->
<g id="node5" class="node">
<title>Node5</title>
<g id="a_node5"><a xlink:href="classsegment__tree_1_1SegmentTree.html#ac8ebb88c3ad2fedecb123e31552fde60" target="_top" xlink:title=" ">
<polygon fill="white" stroke="black" points="405,-97 405,-127 559,-127 559,-97 405,-97"/>
<text text-anchor="start" x="413" y="-115" font-family="Helvetica,sans-Serif" font-size="10.00">segment_tree::SegmentTree</text>
<text text-anchor="middle" x="482" y="-104" font-family="Helvetica,sans-Serif" font-size="10.00">::get_core</text>
</a>
</g>
</g>
<!-- Node1&#45;&gt;Node5 -->
<g id="edge8" class="edge">
<title>Node1&#45;&gt;Node5</title>
<path fill="none" stroke="midnightblue" d="M154.29,-106.07C213,-104.93 296.15,-104.05 369,-106 377.32,-106.22 385.99,-106.54 394.66,-106.91"/>
<polygon fill="midnightblue" stroke="midnightblue" points="394.66,-110.41 404.81,-107.37 394.98,-103.42 394.66,-110.41"/>
</g>
<!-- Node6 -->
<g id="node6" class="node">
<title>Node6</title>
<g id="a_node6"><a xlink:href="namespacelinear__algebra.html#aac11793366a8aa7d2396775fdb1ba8ca" target="_top" xlink:title=" ">
<polygon fill="white" stroke="black" points="417,-51.5 417,-70.5 547,-70.5 547,-51.5 417,-51.5"/>
<text text-anchor="middle" x="482" y="-58.5" font-family="Helvetica,sans-Serif" font-size="10.00">linear_algebra::identity</text>
</a>
</g>
</g>
<!-- Node1&#45;&gt;Node6 -->
<g id="edge9" class="edge">
<title>Node1&#45;&gt;Node6</title>
<path fill="none" stroke="midnightblue" d="M154.27,-99.1C226.7,-90.66 334.89,-78.04 406.67,-69.67"/>
<polygon fill="midnightblue" stroke="midnightblue" points="407.46,-73.1 416.98,-68.47 406.64,-66.15 407.46,-73.1"/>
</g>
<!-- Node7 -->
<g id="node7" class="node">
<title>Node7</title>
<g id="a_node7"><a xlink:href="classsegment__tree_1_1SegmentTree.html#a2bab4503b7a982cd822c2d5cb48c8e11" target="_top" xlink:title=" ">
<polygon fill="white" stroke="black" points="190,-0.5 190,-19.5 369,-19.5 369,-0.5 190,-0.5"/>
<text text-anchor="middle" x="279.5" y="-7.5" font-family="Helvetica,sans-Serif" font-size="10.00">segment_tree::SegmentTree::mid</text>
</a>
</g>
</g>
<!-- Node1&#45;&gt;Node7 -->
<g id="edge10" class="edge">
<title>Node1&#45;&gt;Node7</title>
<path fill="none" stroke="midnightblue" d="M96.72,-92.9C118.12,-76.31 154.74,-49.93 190,-34 200.32,-29.34 211.74,-25.41 222.86,-22.17"/>
<polygon fill="midnightblue" stroke="midnightblue" points="223.8,-25.54 232.51,-19.5 221.94,-18.8 223.8,-25.54"/>
</g>
<!-- Node2&#45;&gt;Node3 -->
<g id="edge2" class="edge">
<title>Node2&#45;&gt;Node3</title>
<path fill="none" stroke="midnightblue" d="M308.58,-145.03C333.42,-157.9 370.92,-176.33 405,-189 422.14,-195.37 442.08,-200.81 457.24,-204.56"/>
<polygon fill="midnightblue" stroke="midnightblue" points="456.78,-208.05 467.32,-206.98 458.41,-201.24 456.78,-208.05"/>
</g>
<!-- Node2&#45;&gt;Node4 -->
<g id="edge3" class="edge">
<title>Node2&#45;&gt;Node4</title>
<path fill="none" stroke="midnightblue" d="M356.59,-142.9C369.09,-145.02 382.12,-147.23 394.84,-149.39"/>
<polygon fill="midnightblue" stroke="midnightblue" points="394.52,-152.89 404.97,-151.11 395.69,-145.98 394.52,-152.89"/>
</g>
<!-- Node2&#45;&gt;Node5 -->
<g id="edge4" class="edge">
<title>Node2&#45;&gt;Node5</title>
<path fill="none" stroke="midnightblue" d="M356.59,-123.17C369.09,-122.05 382.12,-120.88 394.84,-119.73"/>
<polygon fill="midnightblue" stroke="midnightblue" points="395.32,-123.21 404.97,-118.83 394.69,-116.23 395.32,-123.21"/>
</g>
<!-- Node2&#45;&gt;Node6 -->
<g id="edge5" class="edge">
<title>Node2&#45;&gt;Node6</title>
<path fill="none" stroke="midnightblue" d="M324.5,-114.86C360.17,-102.58 409.89,-85.47 443.65,-73.85"/>
<polygon fill="midnightblue" stroke="midnightblue" points="444.83,-77.15 453.15,-70.58 442.56,-70.53 444.83,-77.15"/>
</g>
</g>
</svg>
