<?xml version="1.0" encoding="UTF-8" standalone="no"?>
<!DOCTYPE svg PUBLIC "-//W3C//DTD SVG 1.1//EN"
 "http://www.w3.org/Graphics/SVG/1.1/DTD/svg11.dtd">
<!-- Generated by graphviz version 2.43.0 (0)
 -->
<!-- Title: segment_tree::SegmentTree&lt; T, Query, Update, has_lazy, has_ptr, has_pers, base &gt; Pages: 1 -->
<svg width="973pt" height="100pt"
 viewBox="0.00 0.00 973.00 99.50" xmlns="http://www.w3.org/2000/svg" xmlns:xlink="http://www.w3.org/1999/xlink">
<g id="graph0" class="graph" transform="scale(1 1) rotate(0) translate(4 95.5)">
<title>segment_tree::SegmentTree&lt; T, Query, Update, has_lazy, has_ptr, has_pers, base &gt;</title>
<polygon fill="white" stroke="transparent" points="-4,4 -4,-95.5 969,-95.5 969,4 -4,4"/>
<!-- Node1 -->
<g id="node1" class="node">
<title>Node1</title>
<g id="a_node1"><a xlink:title="Generic persistent explicit/implicit lazy based segment tree, technically known as range query tree.">
<polygon fill="#bfbfbf" stroke="black" points="811,-12 811,-64 965,-64 965,-12 811,-12"/>
<text text-anchor="start" x="819" y="-52" font-family="Helvetica,sans-Serif" font-size="10.00">segment_tree::SegmentTree</text>
<text text-anchor="start" x="819" y="-41" font-family="Helvetica,sans-Serif" font-size="10.00">&lt; T, Query, Update, has</text>
<text text-anchor="start" x="819" y="-30" font-family="Helvetica,sans-Serif" font-size="10.00">_lazy, has_ptr, has_pers,</text>
<text text-anchor="middle" x="888" y="-19" font-family="Helvetica,sans-Serif" font-size="10.00"> base &gt;</text>
</a>
</g>
</g>
<!-- Node2 -->
<g id="node2" class="node">
<title>Node2</title>
<g id="a_node2"><a xlink:title=" ">
<polygon fill="white" stroke="#bfbfbf" points="566,-23 566,-53 742,-53 742,-23 566,-23"/>
<text text-anchor="start" x="574" y="-41" font-family="Helvetica,sans-Serif" font-size="10.00">std::vector&lt; segment</text>
<text text-anchor="middle" x="654" y="-30" font-family="Helvetica,sans-Serif" font-size="10.00">_tree::SegmentTree::NodeCore &gt;</text>
</a>
</g>
</g>
<!-- Node2&#45;&gt;Node1 -->
<g id="edge1" class="edge">
<title>Node2&#45;&gt;Node1</title>
<path fill="none" stroke="#9a32cd" stroke-dasharray="5,2" d="M752.22,-38C771.81,-38 792.15,-38 810.89,-38"/>
<polygon fill="#9a32cd" stroke="#9a32cd" points="752.05,-34.5 742.05,-38 752.05,-41.5 752.05,-34.5"/>
<text text-anchor="middle" x="776.5" y="-41" font-family="Helvetica,sans-Serif" font-size="10.00"> nodes</text>
</g>
<!-- Node3 -->
<g id="node3" class="node">
<title>Node3</title>
<g id="a_node3"><a xlink:href="$structsegment__tree_1_1SegmentTree_1_1NodeCore.html" xlink:title=" ">
<polygon fill="white" stroke="black" points="224,-39 224,-91 378,-91 378,-39 224,-39"/>
<text text-anchor="start" x="232" y="-79" font-family="Helvetica,sans-Serif" font-size="10.00">segment_tree::SegmentTree</text>
<text text-anchor="start" x="232" y="-68" font-family="Helvetica,sans-Serif" font-size="10.00">&lt; T, Query, Update, has</text>
<text text-anchor="start" x="232" y="-57" font-family="Helvetica,sans-Serif" font-size="10.00">_lazy, has_ptr, has_pers,</text>
<text text-anchor="middle" x="301" y="-46" font-family="Helvetica,sans-Serif" font-size="10.00"> base &gt;::NodeCore</text>
</a>
</g>
</g>
<!-- Node3&#45;&gt;Node2 -->
<g id="edge2" class="edge">
<title>Node3&#45;&gt;Node2</title>
<path fill="none" stroke="#9a32cd" stroke-dasharray="5,2" d="M388.4,-58.35C442.41,-54.2 511.72,-48.87 565.86,-44.7"/>
<polygon fill="#9a32cd" stroke="#9a32cd" points="387.86,-54.88 378.16,-59.14 388.4,-61.86 387.86,-54.88"/>
<text text-anchor="middle" x="472" y="-60" font-family="Helvetica,sans-Serif" font-size="10.00"> elements</text>
</g>
<!-- Node4 -->
<g id="node4" class="node">
<title>Node4</title>
<g id="a_node4"><a xlink:title=" ">
<polygon fill="white" stroke="#bfbfbf" points="0,-55 0,-85 139,-85 139,-55 0,-55"/>
<text text-anchor="start" x="8" y="-73" font-family="Helvetica,sans-Serif" font-size="10.00">conditional_t&lt; has</text>
<text text-anchor="middle" x="69.5" y="-62" font-family="Helvetica,sans-Serif" font-size="10.00">_lazy, LazyPart, Empty &gt;</text>
</a>
</g>
</g>
<!-- Node4&#45;&gt;Node3 -->
<g id="edge3" class="edge">
<title>Node4&#45;&gt;Node3</title>
<path fill="none" stroke="midnightblue" d="M149.23,-68.28C173.35,-67.76 199.83,-67.18 223.78,-66.66"/>
<polygon fill="midnightblue" stroke="midnightblue" points="148.97,-64.79 139.05,-68.51 149.12,-71.79 148.97,-64.79"/>
</g>
<!-- Node5 -->
<g id="node5" class="node">
<title>Node5</title>
<g id="a_node5"><a xlink:title=" ">
<polygon fill="white" stroke="#bfbfbf" points="55,-8.5 55,-27.5 84,-27.5 84,-8.5 55,-8.5"/>
<text text-anchor="middle" x="69.5" y="-15.5" font-family="Helvetica,sans-Serif" font-size="10.00">T</text>
</a>
</g>
</g>
<!-- Node5&#45;&gt;Node3 -->
<g id="edge4" class="edge">
<title>Node5&#45;&gt;Node3</title>
<path fill="none" stroke="#9a32cd" stroke-dasharray="5,2" d="M94.23,-22.86C124.62,-29.08 178.74,-40.17 223.86,-49.41"/>
<polygon fill="#9a32cd" stroke="#9a32cd" points="94.67,-19.38 84.17,-20.8 93.26,-26.23 94.67,-19.38"/>
<text text-anchor="middle" x="181.5" y="-49" font-family="Helvetica,sans-Serif" font-size="10.00"> qsum</text>
</g>
<!-- Node6 -->
<g id="node6" class="node">
<title>Node6</title>
<g id="a_node6"><a xlink:title="STL class.">
<polygon fill="white" stroke="#bfbfbf" points="252.5,-0.5 252.5,-19.5 349.5,-19.5 349.5,-0.5 252.5,-0.5"/>
<text text-anchor="middle" x="301" y="-7.5" font-family="Helvetica,sans-Serif" font-size="10.00">std::vector&lt; T &gt;</text>
</a>
</g>
</g>
<!-- Node5&#45;&gt;Node6 -->
<g id="edge6" class="edge">
<title>Node5&#45;&gt;Node6</title>
<path fill="none" stroke="#9a32cd" stroke-dasharray="5,2" d="M94.6,-15.57C111.94,-13.94 135.89,-11.93 157,-11 188.75,-9.61 224.5,-9.36 252.31,-9.45"/>
<polygon fill="#9a32cd" stroke="#9a32cd" points="93.88,-12.12 84.26,-16.57 94.55,-19.09 93.88,-12.12"/>
<text text-anchor="middle" x="181.5" y="-14" font-family="Helvetica,sans-Serif" font-size="10.00"> elements</text>
</g>
<!-- Node6&#45;&gt;Node2 -->
<g id="edge5" class="edge">
<title>Node6&#45;&gt;Node2</title>
<path fill="none" stroke="orange" stroke-dasharray="5,2" d="M360.02,-10.7C409.96,-11.76 483.88,-14.4 548,-21 553.79,-21.6 559.74,-22.3 565.73,-23.08"/>
<polygon fill="orange" stroke="orange" points="359.81,-7.2 349.74,-10.5 359.67,-14.2 359.81,-7.2"/>
<text text-anchor="start" x="396" y="-35" font-family="Helvetica,sans-Serif" font-size="10.00"> &lt; segment_tree::SegmentTree</text>
<text text-anchor="middle" x="472" y="-24" font-family="Helvetica,sans-Serif" font-size="10.00">::NodeCore &gt;</text>
</g>
</g>
</svg>
