<?xml version="1.0" encoding="UTF-8" standalone="no"?>
<!DOCTYPE svg PUBLIC "-//W3C//DTD SVG 1.1//EN"
 "http://www.w3.org/Graphics/SVG/1.1/DTD/svg11.dtd">
<!-- Generated by graphviz version 2.43.0 (0)
 -->
<!-- Title: queue_tools::MinQueue::min Pages: 1 -->
<svg width="362pt" height="88pt"
 viewBox="0.00 0.00 362.00 88.00" xmlns="http://www.w3.org/2000/svg" xmlns:xlink="http://www.w3.org/1999/xlink">
<g id="graph0" class="graph" transform="scale(1 1) rotate(0) translate(4 84)">
<title>queue_tools::MinQueue::min</title>
<polygon fill="white" stroke="transparent" points="-4,4 -4,-84 358,-84 358,4 -4,4"/>
<!-- Node1 -->
<g id="node1" class="node">
<title>Node1</title>
<g id="a_node1"><a xlink:title=" ">
<polygon fill="#bfbfbf" stroke="black" points="0,-30 0,-49 156,-49 156,-30 0,-30"/>
<text text-anchor="middle" x="78" y="-37" font-family="Helvetica,sans-Serif" font-size="10.00">queue_tools::MinQueue::min</text>
</a>
</g>
</g>
<!-- Node1&#45;&gt;Node1 -->
<g id="edge3" class="edge">
<title>Node1&#45;&gt;Node1</title>
<path fill="none" stroke="midnightblue" d="M48.1,-49.26C33.55,-58.07 43.52,-67.5 78,-67.5 102.24,-67.5 114.37,-62.84 114.37,-57"/>
<polygon fill="midnightblue" stroke="midnightblue" points="117,-54.69 107.9,-49.26 111.63,-59.17 117,-54.69"/>
</g>
<!-- Node2 -->
<g id="node2" class="node">
<title>Node2</title>
<g id="a_node2"><a xlink:href="classqueue__tools_1_1QueueAdaptor.html#a409777bac8958f09bf99f9ca2ff64ab0" target="_top" xlink:title=" ">
<polygon fill="white" stroke="black" points="195,-49.5 195,-79.5 351,-79.5 351,-49.5 195,-49.5"/>
<text text-anchor="start" x="203" y="-67.5" font-family="Helvetica,sans-Serif" font-size="10.00">queue_tools::QueueAdaptor</text>
<text text-anchor="middle" x="273" y="-56.5" font-family="Helvetica,sans-Serif" font-size="10.00">&lt; MinStack&lt; T &gt; &gt;::get_left</text>
</a>
</g>
</g>
<!-- Node1&#45;&gt;Node2 -->
<g id="edge1" class="edge">
<title>Node1&#45;&gt;Node2</title>
<path fill="none" stroke="midnightblue" d="M152.52,-49.02C163.01,-50.38 173.89,-51.79 184.62,-53.18"/>
<polygon fill="midnightblue" stroke="midnightblue" points="184.47,-56.69 194.84,-54.51 185.37,-49.75 184.47,-56.69"/>
</g>
<!-- Node3 -->
<g id="node3" class="node">
<title>Node3</title>
<g id="a_node3"><a xlink:href="classqueue__tools_1_1QueueAdaptor.html#a39e37c34ea5fd27421f3f8dabe733a28" target="_top" xlink:title=" ">
<polygon fill="white" stroke="black" points="192,-0.5 192,-30.5 354,-30.5 354,-0.5 192,-0.5"/>
<text text-anchor="start" x="200" y="-18.5" font-family="Helvetica,sans-Serif" font-size="10.00">queue_tools::QueueAdaptor</text>
<text text-anchor="middle" x="273" y="-7.5" font-family="Helvetica,sans-Serif" font-size="10.00">&lt; MinStack&lt; T &gt; &gt;::get_right</text>
</a>
</g>
</g>
<!-- Node1&#45;&gt;Node3 -->
<g id="edge2" class="edge">
<title>Node1&#45;&gt;Node3</title>
<path fill="none" stroke="midnightblue" d="M155.56,-29.98C164.1,-28.92 172.87,-27.83 181.57,-26.75"/>
<polygon fill="midnightblue" stroke="midnightblue" points="182.24,-30.19 191.74,-25.48 181.38,-23.24 182.24,-30.19"/>
</g>
</g>
</svg>
