<?xml version="1.0" encoding="UTF-8" standalone="no"?>
<!DOCTYPE svg PUBLIC "-//W3C//DTD SVG 1.1//EN"
 "http://www.w3.org/Graphics/SVG/1.1/DTD/svg11.dtd">
<!-- Generated by graphviz version 2.43.0 (0)
 -->
<!-- Title: SegmentTree::update_impl Pages: 1 -->
<svg width="471pt" height="123pt"
 viewBox="0.00 0.00 471.00 123.00" xmlns="http://www.w3.org/2000/svg" xmlns:xlink="http://www.w3.org/1999/xlink">
<g id="graph0" class="graph" transform="scale(1 1) rotate(0) translate(4 119)">
<title>SegmentTree::update_impl</title>
<polygon fill="white" stroke="transparent" points="-4,4 -4,-119 467,-119 467,4 -4,4"/>
<!-- Node1 -->
<g id="node1" class="node">
<title>Node1</title>
<g id="a_node1"><a xlink:title=" ">
<polygon fill="#bfbfbf" stroke="black" points="0,-57.5 0,-76.5 147,-76.5 147,-57.5 0,-57.5"/>
<text text-anchor="middle" x="73.5" y="-64.5" font-family="Helvetica,sans-Serif" font-size="10.00">SegmentTree::update_impl</text>
</a>
</g>
</g>
<!-- Node2 -->
<g id="node2" class="node">
<title>Node2</title>
<g id="a_node2"><a xlink:href="classSegmentTree.html#a4fcb8374e3b27c774bb7554133353a4d" target="_top" xlink:title=" ">
<polygon fill="white" stroke="black" points="183,-76.5 183,-95.5 296,-95.5 296,-76.5 183,-76.5"/>
<text text-anchor="middle" x="239.5" y="-83.5" font-family="Helvetica,sans-Serif" font-size="10.00">SegmentTree::down</text>
</a>
</g>
</g>
<!-- Node1&#45;&gt;Node2 -->
<g id="edge1" class="edge">
<title>Node1&#45;&gt;Node2</title>
<path fill="none" stroke="midnightblue" d="M147.39,-75.44C155.78,-76.42 164.3,-77.4 172.6,-78.36"/>
<polygon fill="midnightblue" stroke="midnightblue" points="172.24,-81.85 182.57,-79.52 173.04,-74.89 172.24,-81.85"/>
</g>
<!-- Node3 -->
<g id="node3" class="node">
<title>Node3</title>
<g id="a_node3"><a xlink:href="classSegmentTree.html#a1eba29efb9fb95e7559e4480f52838cc" target="_top" xlink:title=" ">
<polygon fill="white" stroke="black" points="332,-95.5 332,-114.5 463,-114.5 463,-95.5 332,-95.5"/>
<text text-anchor="middle" x="397.5" y="-102.5" font-family="Helvetica,sans-Serif" font-size="10.00">SegmentTree::get_child</text>
</a>
</g>
</g>
<!-- Node1&#45;&gt;Node3 -->
<g id="edge4" class="edge">
<title>Node1&#45;&gt;Node3</title>
<path fill="none" stroke="midnightblue" d="M95.15,-76.59C116.57,-85.97 151.32,-99.61 183,-105 228.48,-112.73 280.2,-112.95 321.34,-111.13"/>
<polygon fill="midnightblue" stroke="midnightblue" points="321.74,-114.61 331.56,-110.62 321.4,-107.62 321.74,-114.61"/>
</g>
<!-- Node4 -->
<g id="node4" class="node">
<title>Node4</title>
<g id="a_node4"><a xlink:href="classSegmentTree.html#a49a185b358936de0e027b42bb32017d4" target="_top" xlink:title=" ">
<polygon fill="white" stroke="black" points="333.5,-57.5 333.5,-76.5 461.5,-76.5 461.5,-57.5 333.5,-57.5"/>
<text text-anchor="middle" x="397.5" y="-64.5" font-family="Helvetica,sans-Serif" font-size="10.00">SegmentTree::get_core</text>
</a>
</g>
</g>
<!-- Node1&#45;&gt;Node4 -->
<g id="edge5" class="edge">
<title>Node1&#45;&gt;Node4</title>
<path fill="none" stroke="midnightblue" d="M147.16,-67C199.68,-67 270.36,-67 323.06,-67"/>
<polygon fill="midnightblue" stroke="midnightblue" points="323.34,-70.5 333.34,-67 323.34,-63.5 323.34,-70.5"/>
</g>
<!-- Node5 -->
<g id="node5" class="node">
<title>Node5</title>
<g id="a_node5"><a xlink:href="classSegmentTree.html#a60de928bef44ff17754a2a7c8c39f39d" target="_top" xlink:title=" ">
<polygon fill="white" stroke="black" points="187,-0.5 187,-19.5 292,-19.5 292,-0.5 187,-0.5"/>
<text text-anchor="middle" x="239.5" y="-7.5" font-family="Helvetica,sans-Serif" font-size="10.00">SegmentTree::mid</text>
</a>
</g>
</g>
<!-- Node1&#45;&gt;Node5 -->
<g id="edge6" class="edge">
<title>Node1&#45;&gt;Node5</title>
<path fill="none" stroke="midnightblue" d="M101.95,-57.46C129.15,-48.01 171,-33.46 201.2,-22.96"/>
<polygon fill="midnightblue" stroke="midnightblue" points="202.66,-26.16 210.96,-19.57 200.37,-19.55 202.66,-26.16"/>
</g>
<!-- Node2&#45;&gt;Node3 -->
<g id="edge2" class="edge">
<title>Node2&#45;&gt;Node3</title>
<path fill="none" stroke="midnightblue" d="M296.38,-92.81C304.67,-93.82 313.33,-94.87 321.93,-95.92"/>
<polygon fill="midnightblue" stroke="midnightblue" points="321.63,-99.41 331.98,-97.14 322.48,-92.46 321.63,-99.41"/>
</g>
<!-- Node2&#45;&gt;Node4 -->
<g id="edge3" class="edge">
<title>Node2&#45;&gt;Node4</title>
<path fill="none" stroke="midnightblue" d="M296.38,-79.19C305.08,-78.13 314.18,-77.03 323.2,-75.93"/>
<polygon fill="midnightblue" stroke="midnightblue" points="323.82,-79.38 333.32,-74.69 322.97,-72.43 323.82,-79.38"/>
</g>
</g>
</svg>
