<?xml version="1.0" encoding="UTF-8" standalone="no"?>
<!DOCTYPE svg PUBLIC "-//W3C//DTD SVG 1.1//EN"
 "http://www.w3.org/Graphics/SVG/1.1/DTD/svg11.dtd">
<!-- Generated by graphviz version 2.43.0 (0)
 -->
<!-- Title: queue_tools::QueueAdaptor::size Pages: 1 -->
<svg width="651pt" height="149pt"
 viewBox="0.00 0.00 651.00 148.50" xmlns="http://www.w3.org/2000/svg" xmlns:xlink="http://www.w3.org/1999/xlink">
<g id="graph0" class="graph" transform="scale(1 1) rotate(0) translate(4 144.5)">
<title>queue_tools::QueueAdaptor::size</title>
<polygon fill="white" stroke="transparent" points="-4,4 -4,-144.5 647,-144.5 647,4 -4,4"/>
<!-- Node1 -->
<g id="node1" class="node">
<title>Node1</title>
<g id="a_node1"><a xlink:title=" ">
<polygon fill="#bfbfbf" stroke="black" points="491,-49.5 491,-79.5 643,-79.5 643,-49.5 491,-49.5"/>
<text text-anchor="start" x="499" y="-67.5" font-family="Helvetica,sans-Serif" font-size="10.00">queue_tools::QueueAdaptor</text>
<text text-anchor="middle" x="567" y="-56.5" font-family="Helvetica,sans-Serif" font-size="10.00">::size</text>
</a>
</g>
</g>
<!-- Node2 -->
<g id="node2" class="node">
<title>Node2</title>
<g id="a_node2"><a xlink:href="classqueue__tools_1_1QueueAdaptor.html#a20ad33fb4364a4c4e5228185ac4b73f1" target="_top" xlink:title=" ">
<polygon fill="white" stroke="black" points="303,-99 303,-140 455,-140 455,-99 303,-99"/>
<text text-anchor="start" x="311" y="-128" font-family="Helvetica,sans-Serif" font-size="10.00">queue_tools::QueueAdaptor</text>
<text text-anchor="start" x="311" y="-117" font-family="Helvetica,sans-Serif" font-size="10.00">&lt; MinStack&lt; T &gt; &gt;::check</text>
<text text-anchor="middle" x="379" y="-106" font-family="Helvetica,sans-Serif" font-size="10.00">_invariant</text>
</a>
</g>
</g>
<!-- Node1&#45;&gt;Node2 -->
<g id="edge1" class="edge">
<title>Node1&#45;&gt;Node2</title>
<path fill="none" stroke="midnightblue" d="M505.47,-82.4C487.62,-87.68 467.96,-93.49 449.59,-98.92"/>
<polygon fill="midnightblue" stroke="midnightblue" points="506.58,-85.72 515.17,-79.53 504.59,-79.01 506.58,-85.72"/>
</g>
<!-- Node3 -->
<g id="node3" class="node">
<title>Node3</title>
<g id="a_node3"><a xlink:href="classqueue__tools_1_1QueueAdaptor.html#aab204b0f776af2b94156b69435b81df8" target="_top" xlink:title=" ">
<polygon fill="white" stroke="black" points="303,-49.5 303,-79.5 455,-79.5 455,-49.5 303,-49.5"/>
<text text-anchor="start" x="311" y="-67.5" font-family="Helvetica,sans-Serif" font-size="10.00">queue_tools::QueueAdaptor</text>
<text text-anchor="middle" x="379" y="-56.5" font-family="Helvetica,sans-Serif" font-size="10.00">&lt; MinStack&lt; T &gt; &gt;::pop</text>
</a>
</g>
</g>
<!-- Node1&#45;&gt;Node3 -->
<g id="edge2" class="edge">
<title>Node1&#45;&gt;Node3</title>
<path fill="none" stroke="midnightblue" d="M480.85,-64.5C472.26,-64.5 463.57,-64.5 455.1,-64.5"/>
<polygon fill="midnightblue" stroke="midnightblue" points="480.88,-68 490.88,-64.5 480.88,-61 480.88,-68"/>
</g>
<!-- Node4 -->
<g id="node4" class="node">
<title>Node4</title>
<g id="a_node4"><a xlink:href="namespacequeue__tools_1_1test.html#a6fd4ee97af3a8636da778c03cef44c14" target="_top" xlink:title=" ">
<polygon fill="white" stroke="black" points="325,-0.5 325,-30.5 433,-30.5 433,-0.5 325,-0.5"/>
<text text-anchor="start" x="333" y="-18.5" font-family="Helvetica,sans-Serif" font-size="10.00">queue_tools::test::</text>
<text text-anchor="middle" x="379" y="-7.5" font-family="Helvetica,sans-Serif" font-size="10.00">test_queueadaptor</text>
</a>
</g>
</g>
<!-- Node1&#45;&gt;Node4 -->
<g id="edge3" class="edge">
<title>Node1&#45;&gt;Node4</title>
<path fill="none" stroke="midnightblue" d="M499.13,-46.88C477.45,-41.17 453.7,-34.92 433.15,-29.5"/>
<polygon fill="midnightblue" stroke="midnightblue" points="498.37,-50.3 508.93,-49.47 500.15,-43.53 498.37,-50.3"/>
</g>
<!-- Node5 -->
<g id="node5" class="node">
<title>Node5</title>
<g id="a_node5"><a xlink:href="namespacequeue__tools_1_1test.html#ae0e3be2c757c8f50b8baee654071b01e" target="_top" xlink:title=" ">
<polygon fill="white" stroke="black" points="160,-0.5 160,-30.5 267,-30.5 267,-0.5 160,-0.5"/>
<text text-anchor="start" x="168" y="-18.5" font-family="Helvetica,sans-Serif" font-size="10.00">queue_tools::test::</text>
<text text-anchor="middle" x="213.5" y="-7.5" font-family="Helvetica,sans-Serif" font-size="10.00">test_queue</text>
</a>
</g>
</g>
<!-- Node4&#45;&gt;Node5 -->
<g id="edge4" class="edge">
<title>Node4&#45;&gt;Node5</title>
<path fill="none" stroke="midnightblue" d="M314.72,-15.5C298.96,-15.5 282.22,-15.5 267.04,-15.5"/>
<polygon fill="midnightblue" stroke="midnightblue" points="314.92,-19 324.92,-15.5 314.92,-12 314.92,-19"/>
</g>
<!-- Node6 -->
<g id="node6" class="node">
<title>Node6</title>
<g id="a_node6"><a xlink:href="test_8cpp.html#af095a232149097b5605064623a9345ac" target="_top" xlink:title=" ">
<polygon fill="white" stroke="black" points="77,-6 77,-25 124,-25 124,-6 77,-6"/>
<text text-anchor="middle" x="100.5" y="-13" font-family="Helvetica,sans-Serif" font-size="10.00">main2</text>
</a>
</g>
</g>
<!-- Node5&#45;&gt;Node6 -->
<g id="edge5" class="edge">
<title>Node5&#45;&gt;Node6</title>
<path fill="none" stroke="midnightblue" d="M149.64,-15.5C140.58,-15.5 131.78,-15.5 124.25,-15.5"/>
<polygon fill="midnightblue" stroke="midnightblue" points="149.93,-19 159.93,-15.5 149.93,-12 149.93,-19"/>
</g>
<!-- Node7 -->
<g id="node7" class="node">
<title>Node7</title>
<g id="a_node7"><a xlink:href="main_8hpp.html#a0ddf1224851353fc92bfbff6f499fa97" target="_top" xlink:title=" ">
<polygon fill="white" stroke="black" points="0,-6 0,-25 41,-25 41,-6 0,-6"/>
<text text-anchor="middle" x="20.5" y="-13" font-family="Helvetica,sans-Serif" font-size="10.00">main</text>
</a>
</g>
</g>
<!-- Node6&#45;&gt;Node7 -->
<g id="edge6" class="edge">
<title>Node6&#45;&gt;Node7</title>
<path fill="none" stroke="midnightblue" d="M66.66,-15.5C57.96,-15.5 48.84,-15.5 41.1,-15.5"/>
<polygon fill="midnightblue" stroke="midnightblue" points="66.94,-19 76.94,-15.5 66.94,-12 66.94,-19"/>
</g>
</g>
</svg>
