<?xml version="1.0" encoding="UTF-8" standalone="no"?>
<!DOCTYPE svg PUBLIC "-//W3C//DTD SVG 1.1//EN"
 "http://www.w3.org/Graphics/SVG/1.1/DTD/svg11.dtd">
<!-- Generated by graphviz version 2.43.0 (0)
 -->
<!-- Title: queue_tools::QueueAdaptor::back Pages: 1 -->
<svg width="740pt" height="149pt"
 viewBox="0.00 0.00 740.00 149.00" xmlns="http://www.w3.org/2000/svg" xmlns:xlink="http://www.w3.org/1999/xlink">
<g id="graph0" class="graph" transform="scale(1 1) rotate(0) translate(4 145)">
<title>queue_tools::QueueAdaptor::back</title>
<polygon fill="white" stroke="transparent" points="-4,4 -4,-145 736,-145 736,4 -4,4"/>
<!-- Node1 -->
<g id="node1" class="node">
<title>Node1</title>
<g id="a_node1"><a xlink:title=" ">
<polygon fill="#bfbfbf" stroke="black" points="580,-55.5 580,-85.5 732,-85.5 732,-55.5 580,-55.5"/>
<text text-anchor="start" x="588" y="-73.5" font-family="Helvetica,sans-Serif" font-size="10.00">queue_tools::QueueAdaptor</text>
<text text-anchor="middle" x="656" y="-62.5" font-family="Helvetica,sans-Serif" font-size="10.00">::back</text>
</a>
</g>
</g>
<!-- Node2 -->
<g id="node2" class="node">
<title>Node2</title>
<g id="a_node2"><a xlink:href="classqueue__tools_1_1QueueAdaptor.html#ad3a4f68bb1c2cbd0bedd8094e732bece" target="_top" xlink:title=" ">
<polygon fill="white" stroke="black" points="392,-110.5 392,-140.5 544,-140.5 544,-110.5 392,-110.5"/>
<text text-anchor="start" x="400" y="-128.5" font-family="Helvetica,sans-Serif" font-size="10.00">queue_tools::QueueAdaptor</text>
<text text-anchor="middle" x="468" y="-117.5" font-family="Helvetica,sans-Serif" font-size="10.00">&lt; MinStack&lt; T &gt; &gt;::back</text>
</a>
</g>
</g>
<!-- Node1&#45;&gt;Node2 -->
<g id="edge1" class="edge">
<title>Node1&#45;&gt;Node2</title>
<path fill="none" stroke="midnightblue" d="M594.41,-88.42C570.28,-95.55 542.82,-103.67 519.76,-110.49"/>
<polygon fill="midnightblue" stroke="midnightblue" points="595.58,-91.72 604.17,-85.53 593.59,-85.01 595.58,-91.72"/>
</g>
<!-- Node3 -->
<g id="node3" class="node">
<title>Node3</title>
<g id="a_node3"><a xlink:href="classqueue__tools_1_1QueueAdaptor.html#a20ad33fb4364a4c4e5228185ac4b73f1" target="_top" xlink:title=" ">
<polygon fill="white" stroke="black" points="392,-50 392,-91 544,-91 544,-50 392,-50"/>
<text text-anchor="start" x="400" y="-79" font-family="Helvetica,sans-Serif" font-size="10.00">queue_tools::QueueAdaptor</text>
<text text-anchor="start" x="400" y="-68" font-family="Helvetica,sans-Serif" font-size="10.00">&lt; MinStack&lt; T &gt; &gt;::check</text>
<text text-anchor="middle" x="468" y="-57" font-family="Helvetica,sans-Serif" font-size="10.00">_invariant</text>
</a>
</g>
</g>
<!-- Node1&#45;&gt;Node3 -->
<g id="edge2" class="edge">
<title>Node1&#45;&gt;Node3</title>
<path fill="none" stroke="midnightblue" d="M569.85,-70.5C561.26,-70.5 552.57,-70.5 544.1,-70.5"/>
<polygon fill="midnightblue" stroke="midnightblue" points="569.88,-74 579.88,-70.5 569.88,-67 569.88,-74"/>
</g>
<!-- Node4 -->
<g id="node4" class="node">
<title>Node4</title>
<g id="a_node4"><a xlink:href="namespacequeue__tools_1_1test.html#a6fd4ee97af3a8636da778c03cef44c14" target="_top" xlink:title=" ">
<polygon fill="white" stroke="black" points="414,-0.5 414,-30.5 522,-30.5 522,-0.5 414,-0.5"/>
<text text-anchor="start" x="422" y="-18.5" font-family="Helvetica,sans-Serif" font-size="10.00">queue_tools::test::</text>
<text text-anchor="middle" x="468" y="-7.5" font-family="Helvetica,sans-Serif" font-size="10.00">test_queueadaptor</text>
</a>
</g>
</g>
<!-- Node1&#45;&gt;Node4 -->
<g id="edge3" class="edge">
<title>Node1&#45;&gt;Node4</title>
<path fill="none" stroke="midnightblue" d="M594.41,-52.58C570.28,-45.45 542.82,-37.33 519.76,-30.51"/>
<polygon fill="midnightblue" stroke="midnightblue" points="593.59,-55.99 604.17,-55.47 595.58,-49.28 593.59,-55.99"/>
</g>
<!-- Node5 -->
<g id="node5" class="node">
<title>Node5</title>
<g id="a_node5"><a xlink:href="namespacequeue__tools_1_1test.html#ae0e3be2c757c8f50b8baee654071b01e" target="_top" xlink:title=" ">
<polygon fill="white" stroke="black" points="249,-0.5 249,-30.5 356,-30.5 356,-0.5 249,-0.5"/>
<text text-anchor="start" x="257" y="-18.5" font-family="Helvetica,sans-Serif" font-size="10.00">queue_tools::test::</text>
<text text-anchor="middle" x="302.5" y="-7.5" font-family="Helvetica,sans-Serif" font-size="10.00">test_queue</text>
</a>
</g>
</g>
<!-- Node4&#45;&gt;Node5 -->
<g id="edge4" class="edge">
<title>Node4&#45;&gt;Node5</title>
<path fill="none" stroke="midnightblue" d="M403.72,-15.5C387.96,-15.5 371.22,-15.5 356.04,-15.5"/>
<polygon fill="midnightblue" stroke="midnightblue" points="403.92,-19 413.92,-15.5 403.92,-12 403.92,-19"/>
</g>
<!-- Node6 -->
<g id="node6" class="node">
<title>Node6</title>
<g id="a_node6"><a xlink:href="test_8cpp.html#aa1c715cac916839a95e25b65b4071c4a" target="_top" xlink:title=" ">
<polygon fill="white" stroke="black" points="160,-6 160,-25 213,-25 213,-6 160,-6"/>
<text text-anchor="middle" x="186.5" y="-13" font-family="Helvetica,sans-Serif" font-size="10.00">test_all</text>
</a>
</g>
</g>
<!-- Node5&#45;&gt;Node6 -->
<g id="edge5" class="edge">
<title>Node5&#45;&gt;Node6</title>
<path fill="none" stroke="midnightblue" d="M238.68,-15.5C229.71,-15.5 220.94,-15.5 213.26,-15.5"/>
<polygon fill="midnightblue" stroke="midnightblue" points="238.84,-19 248.84,-15.5 238.84,-12 238.84,-19"/>
</g>
<!-- Node7 -->
<g id="node7" class="node">
<title>Node7</title>
<g id="a_node7"><a xlink:href="test_8cpp.html#af095a232149097b5605064623a9345ac" target="_top" xlink:title=" ">
<polygon fill="white" stroke="black" points="77,-6 77,-25 124,-25 124,-6 77,-6"/>
<text text-anchor="middle" x="100.5" y="-13" font-family="Helvetica,sans-Serif" font-size="10.00">main2</text>
</a>
</g>
</g>
<!-- Node6&#45;&gt;Node7 -->
<g id="edge6" class="edge">
<title>Node6&#45;&gt;Node7</title>
<path fill="none" stroke="midnightblue" d="M149.59,-15.5C140.96,-15.5 131.99,-15.5 124.16,-15.5"/>
<polygon fill="midnightblue" stroke="midnightblue" points="149.84,-19 159.84,-15.5 149.84,-12 149.84,-19"/>
</g>
<!-- Node8 -->
<g id="node8" class="node">
<title>Node8</title>
<g id="a_node8"><a xlink:href="main_8hpp.html#a0ddf1224851353fc92bfbff6f499fa97" target="_top" xlink:title=" ">
<polygon fill="white" stroke="black" points="0,-6 0,-25 41,-25 41,-6 0,-6"/>
<text text-anchor="middle" x="20.5" y="-13" font-family="Helvetica,sans-Serif" font-size="10.00">main</text>
</a>
</g>
</g>
<!-- Node7&#45;&gt;Node8 -->
<g id="edge7" class="edge">
<title>Node7&#45;&gt;Node8</title>
<path fill="none" stroke="midnightblue" d="M66.66,-15.5C57.96,-15.5 48.84,-15.5 41.1,-15.5"/>
<polygon fill="midnightblue" stroke="midnightblue" points="66.94,-19 76.94,-15.5 66.94,-12 66.94,-19"/>
</g>
</g>
</svg>
