<?xml version="1.0" encoding="UTF-8" standalone="no"?>
<!DOCTYPE svg PUBLIC "-//W3C//DTD SVG 1.1//EN"
 "http://www.w3.org/Graphics/SVG/1.1/DTD/svg11.dtd">
<!-- Generated by graphviz version 2.43.0 (0)
 -->
<!-- Title: SegmentTree::get_child Pages: 1 -->
<svg width="818pt" height="208pt"
 viewBox="0.00 0.00 818.00 208.00" xmlns="http://www.w3.org/2000/svg" xmlns:xlink="http://www.w3.org/1999/xlink">
<g id="graph0" class="graph" transform="scale(1 1) rotate(0) translate(4 204)">
<title>SegmentTree::get_child</title>
<polygon fill="white" stroke="transparent" points="-4,4 -4,-204 814,-204 814,4 -4,4"/>
<!-- Node1 -->
<g id="node1" class="node">
<title>Node1</title>
<g id="a_node1"><a xlink:title=" ">
<polygon fill="#bfbfbf" stroke="black" points="679,-85.5 679,-104.5 810,-104.5 810,-85.5 679,-85.5"/>
<text text-anchor="middle" x="744.5" y="-92.5" font-family="Helvetica,sans-Serif" font-size="10.00">SegmentTree::get_child</text>
</a>
</g>
</g>
<!-- Node2 -->
<g id="node2" class="node">
<title>Node2</title>
<g id="a_node2"><a xlink:href="classSegmentTree.html#aa065cdae0467e72ec4862dbbb3b7b8d3" target="_top" xlink:title=" ">
<polygon fill="white" stroke="black" points="520,-180.5 520,-199.5 643,-199.5 643,-180.5 520,-180.5"/>
<text text-anchor="middle" x="581.5" y="-187.5" font-family="Helvetica,sans-Serif" font-size="10.00">SegmentTree::destroy</text>
</a>
</g>
</g>
<!-- Node1&#45;&gt;Node2 -->
<g id="edge1" class="edge">
<title>Node1&#45;&gt;Node2</title>
<path fill="none" stroke="midnightblue" d="M723.84,-111.02C704.22,-126.49 672.78,-149.87 643,-166 632.77,-171.54 620.97,-176.51 610.53,-180.47"/>
<polygon fill="midnightblue" stroke="midnightblue" points="726.1,-113.7 731.73,-104.73 721.73,-108.23 726.1,-113.7"/>
</g>
<!-- Node4 -->
<g id="node4" class="node">
<title>Node4</title>
<g id="a_node4"><a xlink:href="classSegmentTree.html#a4fcb8374e3b27c774bb7554133353a4d" target="_top" xlink:title=" ">
<polygon fill="white" stroke="black" points="525,-66.5 525,-85.5 638,-85.5 638,-66.5 525,-66.5"/>
<text text-anchor="middle" x="581.5" y="-73.5" font-family="Helvetica,sans-Serif" font-size="10.00">SegmentTree::down</text>
</a>
</g>
</g>
<!-- Node1&#45;&gt;Node4 -->
<g id="edge3" class="edge">
<title>Node1&#45;&gt;Node4</title>
<path fill="none" stroke="midnightblue" d="M669,-86.21C658.57,-84.98 648,-83.73 638,-82.55"/>
<polygon fill="midnightblue" stroke="midnightblue" points="668.6,-89.69 678.94,-87.38 669.42,-82.73 668.6,-89.69"/>
</g>
<!-- Node5 -->
<g id="node5" class="node">
<title>Node5</title>
<g id="a_node5"><a xlink:href="classSegmentTree.html#abc6c56bef599124548c2ed1c90d6e87e" target="_top" xlink:title=" ">
<polygon fill="white" stroke="black" points="348,-137.5 348,-156.5 462,-156.5 462,-137.5 348,-137.5"/>
<text text-anchor="middle" x="405" y="-144.5" font-family="Helvetica,sans-Serif" font-size="10.00">SegmentTree::query</text>
</a>
</g>
</g>
<!-- Node1&#45;&gt;Node5 -->
<g id="edge13" class="edge">
<title>Node1&#45;&gt;Node5</title>
<path fill="none" stroke="midnightblue" d="M674.3,-106.08C663.81,-107.74 653.12,-109.43 643,-111 581.11,-120.63 510.08,-131.38 462.04,-138.6"/>
<polygon fill="midnightblue" stroke="midnightblue" points="674.93,-109.53 684.26,-104.5 673.83,-102.61 674.93,-109.53"/>
</g>
<!-- Node7 -->
<g id="node7" class="node">
<title>Node7</title>
<g id="a_node7"><a xlink:href="classSegmentTree.html#a691d643b2872c8d23c062cc050341983" target="_top" xlink:title=" ">
<polygon fill="white" stroke="black" points="334.5,-90.5 334.5,-109.5 475.5,-109.5 475.5,-90.5 334.5,-90.5"/>
<text text-anchor="middle" x="405" y="-97.5" font-family="Helvetica,sans-Serif" font-size="10.00">SegmentTree::query_impl</text>
</a>
</g>
</g>
<!-- Node1&#45;&gt;Node7 -->
<g id="edge14" class="edge">
<title>Node1&#45;&gt;Node7</title>
<path fill="none" stroke="midnightblue" d="M668.69,-96.11C611.06,-96.96 531.99,-98.13 475.69,-98.97"/>
<polygon fill="midnightblue" stroke="midnightblue" points="668.88,-99.61 678.83,-95.96 668.78,-92.61 668.88,-99.61"/>
</g>
<!-- Node10 -->
<g id="node10" class="node">
<title>Node10</title>
<g id="a_node10"><a xlink:href="classSegmentTree.html#a00e7570a50ddee7944c35de35d8924ff" target="_top" xlink:title=" ">
<polygon fill="white" stroke="black" points="345,-47.5 345,-66.5 465,-66.5 465,-47.5 345,-47.5"/>
<text text-anchor="middle" x="405" y="-54.5" font-family="Helvetica,sans-Serif" font-size="10.00">SegmentTree::update</text>
</a>
</g>
</g>
<!-- Node1&#45;&gt;Node10 -->
<g id="edge15" class="edge">
<title>Node1&#45;&gt;Node10</title>
<path fill="none" stroke="midnightblue" d="M715.15,-81.12C695.44,-72.27 668.27,-61.62 643,-57 583.3,-46.09 513.72,-47.75 465.46,-51.12"/>
<polygon fill="midnightblue" stroke="midnightblue" points="713.91,-84.4 724.46,-85.42 716.84,-78.05 713.91,-84.4"/>
</g>
<!-- Node12 -->
<g id="node12" class="node">
<title>Node12</title>
<g id="a_node12"><a xlink:href="classSegmentTree.html#a89a183ae20045f72d80ef9ca1627d3b9" target="_top" xlink:title=" ">
<polygon fill="white" stroke="black" points="331.5,-0.5 331.5,-19.5 478.5,-19.5 478.5,-0.5 331.5,-0.5"/>
<text text-anchor="middle" x="405" y="-7.5" font-family="Helvetica,sans-Serif" font-size="10.00">SegmentTree::update_impl</text>
</a>
</g>
</g>
<!-- Node1&#45;&gt;Node12 -->
<g id="edge16" class="edge">
<title>Node1&#45;&gt;Node12</title>
<path fill="none" stroke="midnightblue" d="M719.47,-80.34C699.66,-68.92 670.45,-53.62 643,-45 589.33,-28.15 526.22,-19.34 478.62,-14.77"/>
<polygon fill="midnightblue" stroke="midnightblue" points="717.74,-83.38 728.13,-85.42 721.29,-77.34 717.74,-83.38"/>
</g>
<!-- Node3 -->
<g id="node3" class="node">
<title>Node3</title>
<g id="a_node3"><a xlink:href="classSegmentTree.html#a334b6dc9e4d6a407c04c89f4c9bca7cb" target="_top" xlink:title=" ">
<polygon fill="white" stroke="black" points="326,-180.5 326,-199.5 484,-199.5 484,-180.5 326,-180.5"/>
<text text-anchor="middle" x="405" y="-187.5" font-family="Helvetica,sans-Serif" font-size="10.00">SegmentTree::~SegmentTree</text>
</a>
</g>
</g>
<!-- Node2&#45;&gt;Node3 -->
<g id="edge2" class="edge">
<title>Node2&#45;&gt;Node3</title>
<path fill="none" stroke="midnightblue" d="M509.82,-190C501.4,-190 492.77,-190 484.26,-190"/>
<polygon fill="midnightblue" stroke="midnightblue" points="509.96,-193.5 519.96,-190 509.96,-186.5 509.96,-193.5"/>
</g>
<!-- Node4&#45;&gt;Node5 -->
<g id="edge4" class="edge">
<title>Node4&#45;&gt;Node5</title>
<path fill="none" stroke="midnightblue" d="M551.05,-89.81C532.06,-98.54 506.75,-109.86 484,-119 467.71,-125.54 449.23,-132.21 434.35,-137.39"/>
<polygon fill="midnightblue" stroke="midnightblue" points="552.75,-92.88 560.36,-85.5 549.81,-86.53 552.75,-92.88"/>
</g>
<!-- Node4&#45;&gt;Node7 -->
<g id="edge6" class="edge">
<title>Node4&#45;&gt;Node7</title>
<path fill="none" stroke="midnightblue" d="M514.65,-85.06C501.77,-86.83 488.23,-88.69 475.25,-90.48"/>
<polygon fill="midnightblue" stroke="midnightblue" points="515.38,-88.49 524.81,-83.66 514.42,-81.55 515.38,-88.49"/>
</g>
<!-- Node4&#45;&gt;Node10 -->
<g id="edge9" class="edge">
<title>Node4&#45;&gt;Node10</title>
<path fill="none" stroke="midnightblue" d="M514.8,-68.85C498.47,-67.07 481.07,-65.17 465.08,-63.43"/>
<polygon fill="midnightblue" stroke="midnightblue" points="514.49,-72.33 524.81,-69.94 515.24,-65.37 514.49,-72.33"/>
</g>
<!-- Node4&#45;&gt;Node12 -->
<g id="edge11" class="edge">
<title>Node4&#45;&gt;Node12</title>
<path fill="none" stroke="midnightblue" d="M547.3,-62.64C528.74,-55.24 505.14,-45.96 484,-38 467.17,-31.67 448.18,-24.84 433.15,-19.52"/>
<polygon fill="midnightblue" stroke="midnightblue" points="546.2,-65.97 556.78,-66.43 548.8,-59.47 546.2,-65.97"/>
</g>
<!-- Node6 -->
<g id="node6" class="node">
<title>Node6</title>
<g id="a_node6"><a xlink:href="classSegmentTree.html#a9f9282f29c2d91d1ef3989ea7384892b" target="_top" xlink:title=" ">
<polygon fill="white" stroke="black" points="163,-137.5 163,-156.5 277,-156.5 277,-137.5 163,-137.5"/>
<text text-anchor="middle" x="220" y="-144.5" font-family="Helvetica,sans-Serif" font-size="10.00">SegmentTree::query</text>
</a>
</g>
</g>
<!-- Node5&#45;&gt;Node6 -->
<g id="edge5" class="edge">
<title>Node5&#45;&gt;Node6</title>
<path fill="none" stroke="midnightblue" d="M337.44,-147C317.68,-147 296.25,-147 277.21,-147"/>
<polygon fill="midnightblue" stroke="midnightblue" points="337.6,-150.5 347.6,-147 337.6,-143.5 337.6,-150.5"/>
</g>
<!-- Node8 -->
<g id="node8" class="node">
<title>Node8</title>
<g id="a_node8"><a xlink:href="classSegmentTree.html#a801baf5cdb91eda5d2c01c39e3953a31" target="_top" xlink:title=" ">
<polygon fill="white" stroke="black" points="150,-90.5 150,-109.5 290,-109.5 290,-90.5 150,-90.5"/>
<text text-anchor="middle" x="220" y="-97.5" font-family="Helvetica,sans-Serif" font-size="10.00">SegmentTree::query_pers</text>
</a>
</g>
</g>
<!-- Node7&#45;&gt;Node8 -->
<g id="edge7" class="edge">
<title>Node7&#45;&gt;Node8</title>
<path fill="none" stroke="midnightblue" d="M324.03,-100C312.76,-100 301.25,-100 290.21,-100"/>
<polygon fill="midnightblue" stroke="midnightblue" points="324.29,-103.5 334.29,-100 324.29,-96.5 324.29,-103.5"/>
</g>
<!-- Node9 -->
<g id="node9" class="node">
<title>Node9</title>
<g id="a_node9"><a xlink:href="classSegmentTree.html#a54816e3b51b87889fc2038329fed254b" target="_top" xlink:title=" ">
<polygon fill="white" stroke="black" points="0,-90.5 0,-109.5 114,-109.5 114,-90.5 0,-90.5"/>
<text text-anchor="middle" x="57" y="-97.5" font-family="Helvetica,sans-Serif" font-size="10.00">SegmentTree::query</text>
</a>
</g>
</g>
<!-- Node8&#45;&gt;Node9 -->
<g id="edge8" class="edge">
<title>Node8&#45;&gt;Node9</title>
<path fill="none" stroke="midnightblue" d="M139.66,-100C131.01,-100 122.34,-100 114.06,-100"/>
<polygon fill="midnightblue" stroke="midnightblue" points="139.79,-103.5 149.79,-100 139.79,-96.5 139.79,-103.5"/>
</g>
<!-- Node11 -->
<g id="node11" class="node">
<title>Node11</title>
<g id="a_node11"><a xlink:href="classSegmentTree.html#a6565444d7616870fd1d4c36028ed0c4d" target="_top" xlink:title=" ">
<polygon fill="white" stroke="black" points="160,-47.5 160,-66.5 280,-66.5 280,-47.5 160,-47.5"/>
<text text-anchor="middle" x="220" y="-54.5" font-family="Helvetica,sans-Serif" font-size="10.00">SegmentTree::update</text>
</a>
</g>
</g>
<!-- Node10&#45;&gt;Node11 -->
<g id="edge10" class="edge">
<title>Node10&#45;&gt;Node11</title>
<path fill="none" stroke="midnightblue" d="M334.73,-57C316.79,-57 297.64,-57 280.27,-57"/>
<polygon fill="midnightblue" stroke="midnightblue" points="334.84,-60.5 344.84,-57 334.84,-53.5 334.84,-60.5"/>
</g>
<!-- Node13 -->
<g id="node13" class="node">
<title>Node13</title>
<g id="a_node13"><a xlink:href="classSegmentTree.html#aef5bdc8818b9c0da150ad1f4d6d87360" target="_top" xlink:title=" ">
<polygon fill="white" stroke="black" points="160,-0.5 160,-19.5 280,-19.5 280,-0.5 160,-0.5"/>
<text text-anchor="middle" x="220" y="-7.5" font-family="Helvetica,sans-Serif" font-size="10.00">SegmentTree::update</text>
</a>
</g>
</g>
<!-- Node12&#45;&gt;Node13 -->
<g id="edge12" class="edge">
<title>Node12&#45;&gt;Node13</title>
<path fill="none" stroke="midnightblue" d="M321.39,-10C307.53,-10 293.39,-10 280.27,-10"/>
<polygon fill="midnightblue" stroke="midnightblue" points="321.41,-13.5 331.41,-10 321.41,-6.5 321.41,-13.5"/>
</g>
</g>
</svg>
