<?xml version="1.0" encoding="UTF-8" standalone="no"?>
<!DOCTYPE svg PUBLIC "-//W3C//DTD SVG 1.1//EN"
 "http://www.w3.org/Graphics/SVG/1.1/DTD/svg11.dtd">
<!-- Generated by graphviz version 2.43.0 (0)
 -->
<!-- Title: SegmentTree::query Pages: 1 -->
<svg width="438pt" height="123pt"
 viewBox="0.00 0.00 438.00 123.00" xmlns="http://www.w3.org/2000/svg" xmlns:xlink="http://www.w3.org/1999/xlink">
<g id="graph0" class="graph" transform="scale(1 1) rotate(0) translate(4 119)">
<title>SegmentTree::query</title>
<polygon fill="white" stroke="transparent" points="-4,4 -4,-119 434,-119 434,4 -4,4"/>
<!-- Node1 -->
<g id="node1" class="node">
<title>Node1</title>
<g id="a_node1"><a xlink:title=" ">
<polygon fill="#bfbfbf" stroke="black" points="0,-57.5 0,-76.5 114,-76.5 114,-57.5 0,-57.5"/>
<text text-anchor="middle" x="57" y="-64.5" font-family="Helvetica,sans-Serif" font-size="10.00">SegmentTree::query</text>
</a>
</g>
</g>
<!-- Node2 -->
<g id="node2" class="node">
<title>Node2</title>
<g id="a_node2"><a xlink:href="classSegmentTree.html#a4fcb8374e3b27c774bb7554133353a4d" target="_top" xlink:title=" ">
<polygon fill="white" stroke="black" points="150,-76.5 150,-95.5 263,-95.5 263,-76.5 150,-76.5"/>
<text text-anchor="middle" x="206.5" y="-83.5" font-family="Helvetica,sans-Serif" font-size="10.00">SegmentTree::down</text>
</a>
</g>
</g>
<!-- Node1&#45;&gt;Node2 -->
<g id="edge1" class="edge">
<title>Node1&#45;&gt;Node2</title>
<path fill="none" stroke="midnightblue" d="M114.18,-74.24C122.61,-75.32 131.36,-76.45 139.96,-77.56"/>
<polygon fill="midnightblue" stroke="midnightblue" points="139.59,-81.04 149.96,-78.85 140.49,-74.1 139.59,-81.04"/>
</g>
<!-- Node3 -->
<g id="node3" class="node">
<title>Node3</title>
<g id="a_node3"><a xlink:href="classSegmentTree.html#a1eba29efb9fb95e7559e4480f52838cc" target="_top" xlink:title=" ">
<polygon fill="white" stroke="black" points="299,-95.5 299,-114.5 430,-114.5 430,-95.5 299,-95.5"/>
<text text-anchor="middle" x="364.5" y="-102.5" font-family="Helvetica,sans-Serif" font-size="10.00">SegmentTree::get_child</text>
</a>
</g>
</g>
<!-- Node1&#45;&gt;Node3 -->
<g id="edge4" class="edge">
<title>Node1&#45;&gt;Node3</title>
<path fill="none" stroke="midnightblue" d="M75.33,-76.58C93.36,-85.95 122.71,-99.59 150,-105 195.51,-114.03 247.56,-114.23 288.88,-112.07"/>
<polygon fill="midnightblue" stroke="midnightblue" points="289.09,-115.57 298.87,-111.5 288.68,-108.58 289.09,-115.57"/>
</g>
<!-- Node4 -->
<g id="node4" class="node">
<title>Node4</title>
<g id="a_node4"><a xlink:href="classSegmentTree.html#a49a185b358936de0e027b42bb32017d4" target="_top" xlink:title=" ">
<polygon fill="white" stroke="black" points="300.5,-57.5 300.5,-76.5 428.5,-76.5 428.5,-57.5 300.5,-57.5"/>
<text text-anchor="middle" x="364.5" y="-64.5" font-family="Helvetica,sans-Serif" font-size="10.00">SegmentTree::get_core</text>
</a>
</g>
</g>
<!-- Node1&#45;&gt;Node4 -->
<g id="edge5" class="edge">
<title>Node1&#45;&gt;Node4</title>
<path fill="none" stroke="midnightblue" d="M114.03,-67C163.55,-67 236.11,-67 290.22,-67"/>
<polygon fill="midnightblue" stroke="midnightblue" points="290.44,-70.5 300.44,-67 290.44,-63.5 290.44,-70.5"/>
</g>
<!-- Node5 -->
<g id="node5" class="node">
<title>Node5</title>
<g id="a_node5"><a xlink:href="classSegmentTree.html#a60de928bef44ff17754a2a7c8c39f39d" target="_top" xlink:title=" ">
<polygon fill="white" stroke="black" points="154,-0.5 154,-19.5 259,-19.5 259,-0.5 154,-0.5"/>
<text text-anchor="middle" x="206.5" y="-7.5" font-family="Helvetica,sans-Serif" font-size="10.00">SegmentTree::mid</text>
</a>
</g>
</g>
<!-- Node1&#45;&gt;Node5 -->
<g id="edge6" class="edge">
<title>Node1&#45;&gt;Node5</title>
<path fill="none" stroke="midnightblue" d="M82.69,-57.46C106.94,-48.09 144.14,-33.71 171.24,-23.24"/>
<polygon fill="midnightblue" stroke="midnightblue" points="172.67,-26.44 180.73,-19.57 170.14,-19.91 172.67,-26.44"/>
</g>
<!-- Node2&#45;&gt;Node3 -->
<g id="edge2" class="edge">
<title>Node2&#45;&gt;Node3</title>
<path fill="none" stroke="midnightblue" d="M263.38,-92.81C271.67,-93.82 280.33,-94.87 288.93,-95.92"/>
<polygon fill="midnightblue" stroke="midnightblue" points="288.63,-99.41 298.98,-97.14 289.48,-92.46 288.63,-99.41"/>
</g>
<!-- Node2&#45;&gt;Node4 -->
<g id="edge3" class="edge">
<title>Node2&#45;&gt;Node4</title>
<path fill="none" stroke="midnightblue" d="M263.38,-79.19C272.08,-78.13 281.18,-77.03 290.2,-75.93"/>
<polygon fill="midnightblue" stroke="midnightblue" points="290.82,-79.38 300.32,-74.69 289.97,-72.43 290.82,-79.38"/>
</g>
</g>
</svg>
