<?xml version="1.0" encoding="UTF-8" standalone="no"?>
<!DOCTYPE svg PUBLIC "-//W3C//DTD SVG 1.1//EN"
 "http://www.w3.org/Graphics/SVG/1.1/DTD/svg11.dtd">
<!-- Generated by graphviz version 2.43.0 (0)
 -->
<!-- Title: queue_tools::QueueAdaptor::empty Pages: 1 -->
<svg width="790pt" height="78pt"
 viewBox="0.00 0.00 790.00 77.50" xmlns="http://www.w3.org/2000/svg" xmlns:xlink="http://www.w3.org/1999/xlink">
<g id="graph0" class="graph" transform="scale(1 1) rotate(0) translate(4 73.5)">
<title>queue_tools::QueueAdaptor::empty</title>
<polygon fill="white" stroke="transparent" points="-4,4 -4,-73.5 786,-73.5 786,4 -4,4"/>
<!-- Node1 -->
<g id="node1" class="node">
<title>Node1</title>
<g id="a_node1"><a xlink:title=" ">
<polygon fill="#bfbfbf" stroke="black" points="630,-17 630,-47 782,-47 782,-17 630,-17"/>
<text text-anchor="start" x="638" y="-35" font-family="Helvetica,sans-Serif" font-size="10.00">queue_tools::QueueAdaptor</text>
<text text-anchor="middle" x="706" y="-24" font-family="Helvetica,sans-Serif" font-size="10.00">::empty</text>
</a>
</g>
</g>
<!-- Node2 -->
<g id="node2" class="node">
<title>Node2</title>
<g id="a_node2"><a xlink:href="classqueue__tools_1_1QueueAdaptor.html#a5857db040da0411af2957d3d44783808" target="_top" xlink:title=" ">
<polygon fill="white" stroke="black" points="431.5,-39 431.5,-69 583.5,-69 583.5,-39 431.5,-39"/>
<text text-anchor="start" x="439.5" y="-57" font-family="Helvetica,sans-Serif" font-size="10.00">queue_tools::QueueAdaptor</text>
<text text-anchor="middle" x="507.5" y="-46" font-family="Helvetica,sans-Serif" font-size="10.00">&lt; MinStack&lt; T &gt; &gt;::push</text>
</a>
</g>
</g>
<!-- Node1&#45;&gt;Node2 -->
<g id="edge1" class="edge">
<title>Node1&#45;&gt;Node2</title>
<path fill="none" stroke="midnightblue" d="M619.82,-41.54C607.76,-42.89 595.44,-44.27 583.59,-45.59"/>
<polygon fill="midnightblue" stroke="midnightblue" points="620.32,-45 629.87,-40.41 619.54,-38.05 620.32,-45"/>
</g>
<!-- Node3 -->
<g id="node3" class="node">
<title>Node3</title>
<g id="a_node3"><a xlink:href="namespacequeue__tools.html#a31a61f436e43953f5fb5672c2faae31f" target="_top" xlink:title=" ">
<polygon fill="white" stroke="black" points="421,-0.5 421,-19.5 594,-19.5 594,-0.5 421,-0.5"/>
<text text-anchor="middle" x="507.5" y="-7.5" font-family="Helvetica,sans-Serif" font-size="10.00">queue_tools::test_queueadaptor</text>
</a>
</g>
</g>
<!-- Node1&#45;&gt;Node3 -->
<g id="edge2" class="edge">
<title>Node1&#45;&gt;Node3</title>
<path fill="none" stroke="midnightblue" d="M619.72,-22.45C611,-21.48 602.14,-20.48 593.43,-19.51"/>
<polygon fill="midnightblue" stroke="midnightblue" points="619.54,-25.95 629.87,-23.59 620.32,-19 619.54,-25.95"/>
</g>
<!-- Node4 -->
<g id="node4" class="node">
<title>Node4</title>
<g id="a_node4"><a xlink:href="namespacequeue__tools.html#a9586d21c0545444548b7b230f4d15e94" target="_top" xlink:title=" ">
<polygon fill="white" stroke="black" points="249,-0.5 249,-19.5 385,-19.5 385,-0.5 249,-0.5"/>
<text text-anchor="middle" x="317" y="-7.5" font-family="Helvetica,sans-Serif" font-size="10.00">queue_tools::test_queue</text>
</a>
</g>
</g>
<!-- Node3&#45;&gt;Node4 -->
<g id="edge3" class="edge">
<title>Node3&#45;&gt;Node4</title>
<path fill="none" stroke="midnightblue" d="M410.68,-10C402.05,-10 393.44,-10 385.14,-10"/>
<polygon fill="midnightblue" stroke="midnightblue" points="410.8,-13.5 420.8,-10 410.8,-6.5 410.8,-13.5"/>
</g>
<!-- Node5 -->
<g id="node5" class="node">
<title>Node5</title>
<g id="a_node5"><a xlink:href="test_8cpp.html#aa1c715cac916839a95e25b65b4071c4a" target="_top" xlink:title=" ">
<polygon fill="white" stroke="black" points="160,-0.5 160,-19.5 213,-19.5 213,-0.5 160,-0.5"/>
<text text-anchor="middle" x="186.5" y="-7.5" font-family="Helvetica,sans-Serif" font-size="10.00">test_all</text>
</a>
</g>
</g>
<!-- Node4&#45;&gt;Node5 -->
<g id="edge4" class="edge">
<title>Node4&#45;&gt;Node5</title>
<path fill="none" stroke="midnightblue" d="M238.45,-10C229.44,-10 220.8,-10 213.27,-10"/>
<polygon fill="midnightblue" stroke="midnightblue" points="238.74,-13.5 248.74,-10 238.74,-6.5 238.74,-13.5"/>
</g>
<!-- Node6 -->
<g id="node6" class="node">
<title>Node6</title>
<g id="a_node6"><a xlink:href="test_8cpp.html#af095a232149097b5605064623a9345ac" target="_top" xlink:title=" ">
<polygon fill="white" stroke="black" points="77,-0.5 77,-19.5 124,-19.5 124,-0.5 77,-0.5"/>
<text text-anchor="middle" x="100.5" y="-7.5" font-family="Helvetica,sans-Serif" font-size="10.00">main2</text>
</a>
</g>
</g>
<!-- Node5&#45;&gt;Node6 -->
<g id="edge5" class="edge">
<title>Node5&#45;&gt;Node6</title>
<path fill="none" stroke="midnightblue" d="M149.59,-10C140.96,-10 131.99,-10 124.16,-10"/>
<polygon fill="midnightblue" stroke="midnightblue" points="149.84,-13.5 159.84,-10 149.84,-6.5 149.84,-13.5"/>
</g>
<!-- Node7 -->
<g id="node7" class="node">
<title>Node7</title>
<g id="a_node7"><a xlink:href="main_8hpp.html#a0ddf1224851353fc92bfbff6f499fa97" target="_top" xlink:title=" ">
<polygon fill="white" stroke="black" points="0,-0.5 0,-19.5 41,-19.5 41,-0.5 0,-0.5"/>
<text text-anchor="middle" x="20.5" y="-7.5" font-family="Helvetica,sans-Serif" font-size="10.00">main</text>
</a>
</g>
</g>
<!-- Node6&#45;&gt;Node7 -->
<g id="edge6" class="edge">
<title>Node6&#45;&gt;Node7</title>
<path fill="none" stroke="midnightblue" d="M66.66,-10C57.96,-10 48.84,-10 41.1,-10"/>
<polygon fill="midnightblue" stroke="midnightblue" points="66.94,-13.5 76.94,-10 66.94,-6.5 66.94,-13.5"/>
</g>
</g>
</svg>
