<?xml version="1.0" encoding="UTF-8" standalone="no"?>
<!DOCTYPE svg PUBLIC "-//W3C//DTD SVG 1.1//EN"
 "http://www.w3.org/Graphics/SVG/1.1/DTD/svg11.dtd">
<!-- Generated by graphviz version 2.43.0 (0)
 -->
<!-- Title: SegmentTree::destroy Pages: 1 -->
<svg width="298pt" height="46pt"
 viewBox="0.00 0.00 298.00 46.00" xmlns="http://www.w3.org/2000/svg" xmlns:xlink="http://www.w3.org/1999/xlink">
<g id="graph0" class="graph" transform="scale(1 1) rotate(0) translate(4 42)">
<title>SegmentTree::destroy</title>
<polygon fill="white" stroke="transparent" points="-4,4 -4,-42 294,-42 294,4 -4,4"/>
<!-- Node1 -->
<g id="node1" class="node">
<title>Node1</title>
<g id="a_node1"><a xlink:title=" ">
<polygon fill="#bfbfbf" stroke="black" points="0,-0.5 0,-19.5 123,-19.5 123,-0.5 0,-0.5"/>
<text text-anchor="middle" x="61.5" y="-7.5" font-family="Helvetica,sans-Serif" font-size="10.00">SegmentTree::destroy</text>
</a>
</g>
</g>
<!-- Node1&#45;&gt;Node1 -->
<g id="edge1" class="edge">
<title>Node1&#45;&gt;Node1</title>
<path fill="none" stroke="midnightblue" d="M36.53,-19.76C24.38,-28.57 32.71,-38 61.5,-38 80.85,-38 90.95,-33.74 91.81,-28.27"/>
<polygon fill="midnightblue" stroke="midnightblue" points="94.75,-26.37 86.47,-19.76 88.82,-30.09 94.75,-26.37"/>
</g>
<!-- Node2 -->
<g id="node2" class="node">
<title>Node2</title>
<g id="a_node2"><a xlink:href="classSegmentTree.html#a1eba29efb9fb95e7559e4480f52838cc" target="_top" xlink:title=" ">
<polygon fill="white" stroke="black" points="159,-0.5 159,-19.5 290,-19.5 290,-0.5 159,-0.5"/>
<text text-anchor="middle" x="224.5" y="-7.5" font-family="Helvetica,sans-Serif" font-size="10.00">SegmentTree::get_child</text>
</a>
</g>
</g>
<!-- Node1&#45;&gt;Node2 -->
<g id="edge2" class="edge">
<title>Node1&#45;&gt;Node2</title>
<path fill="none" stroke="midnightblue" d="M123.37,-10C131.6,-10 140.12,-10 148.56,-10"/>
<polygon fill="midnightblue" stroke="midnightblue" points="148.79,-13.5 158.79,-10 148.79,-6.5 148.79,-13.5"/>
</g>
</g>
</svg>
