<?xml version="1.0" encoding="UTF-8" standalone="no"?>
<!DOCTYPE svg PUBLIC "-//W3C//DTD SVG 1.1//EN"
 "http://www.w3.org/Graphics/SVG/1.1/DTD/svg11.dtd">
<!-- Generated by graphviz version 2.43.0 (0)
 -->
<!-- Title: SegmentTree::get_core Pages: 1 -->
<!--zoomable 218 -->
<svg id="main" version="1.1" xmlns="http://www.w3.org/2000/svg" xmlns:xlink="http://www.w3.org/1999/xlink" xml:space="preserve" onload="init(evt)">
<style type="text/css"><![CDATA[
.edge:hover path { stroke: red; }
.edge:hover polygon { stroke: red; fill: red; }
]]></style>
<script type="text/javascript"><![CDATA[
var edges = document.getElementsByTagName('g');
if (edges && edges.length) {
  for (var i=0;i<edges.length;i++) {
    if (edges[i].id.substr(0,4)=='edge') {
      edges[i].setAttribute('class','edge');
    }
  }
}
]]></script>
        <defs>
                <circle id="rim" cx="0" cy="0" r="7"/>
                <circle id="rim2" cx="0" cy="0" r="3.5"/>
                <g id="zoomPlus">
                        <use xlink:href="#rim" fill="#404040">
                                <set attributeName="fill" to="#808080" begin="zoomplus.mouseover" end="zoomplus.mouseout"/>
                        </use>
                        <path d="M-4,0h8M0,-4v8" fill="none" stroke="white" stroke-width="1.5" pointer-events="none"/>
                </g>
                <g id="zoomMin">
                        <use xlink:href="#rim" fill="#404040">
                                <set attributeName="fill" to="#808080" begin="zoomminus.mouseover" end="zoomminus.mouseout"/>
                        </use>
                        <path d="M-4,0h8" fill="none" stroke="white" stroke-width="1.5" pointer-events="none"/>
                </g>
                <g id="dirArrow">
                        <path fill="none" stroke="white" stroke-width="1.5" d="M0,-3.0v7 M-2.5,-0.5L0,-3.0L2.5,-0.5"/>
                </g>
               <g id="resetDef">
                       <use xlink:href="#rim2" fill="#404040">
                               <set attributeName="fill" to="#808080" begin="reset.mouseover" end="reset.mouseout"/>
                       </use>
               </g>
        </defs>

<script type="text/javascript">
var viewWidth = 645;
var viewHeight = 218;
var sectionId = 'dynsection-14';
</script>
<script xlink:href="svgpan.js"/>
<svg id="graph" class="graph">
<g id="viewport">
<title>SegmentTree::get_core</title>
<polygon fill="white" stroke="transparent" points="-4,4 -4,-214 641,-214 641,4 -4,4"/>
<!-- Node1 -->
<g id="node1" class="node">
<title>Node1</title>
<g id="a_node1"><a xlink:title=" ">
<polygon fill="#bfbfbf" stroke="black" points="509,-95.5 509,-114.5 637,-114.5 637,-95.5 509,-95.5"/>
<text text-anchor="middle" x="573" y="-102.5" font-family="Helvetica,sans-Serif" font-size="10.00">SegmentTree::get_core</text>
</a>
</g>
</g>
<!-- Node2 -->
<g id="node2" class="node">
<title>Node2</title>
<g id="a_node2"><a xlink:href="classSegmentTree.html#aabaaa7303a83cf52dc1a8def8abfe9f0" target="_top" xlink:title=" ">
<polygon fill="white" stroke="black" points="344.5,-190.5 344.5,-209.5 454.5,-209.5 454.5,-190.5 344.5,-190.5"/>
<text text-anchor="middle" x="399.5" y="-197.5" font-family="Helvetica,sans-Serif" font-size="10.00">SegmentTree::build</text>
</a>
</g>
</g>
<!-- Node1&#45;&gt;Node2 -->
<g id="edge1" class="edge">
<title>Node1&#45;&gt;Node2</title>
<path fill="none" stroke="midnightblue" d="M554.82,-121.68C536.14,-138.93 504.7,-165.47 473,-181 465.17,-184.84 456.47,-187.96 447.9,-190.49"/>
<polygon fill="midnightblue" stroke="midnightblue" points="557.35,-124.11 562.23,-114.7 552.55,-119.01 557.35,-124.11"/>
</g>
<!-- Node3 -->
<g id="node3" class="node">
<title>Node3</title>
<g id="a_node3"><a xlink:href="classSegmentTree.html#a4fcb8374e3b27c774bb7554133353a4d" target="_top" xlink:title=" ">
<polygon fill="white" stroke="black" points="343,-152.5 343,-171.5 456,-171.5 456,-152.5 343,-152.5"/>
<text text-anchor="middle" x="399.5" y="-159.5" font-family="Helvetica,sans-Serif" font-size="10.00">SegmentTree::down</text>
</a>
</g>
</g>
<!-- Node1&#45;&gt;Node3 -->
<g id="edge2" class="edge">
<title>Node1&#45;&gt;Node3</title>
<path fill="none" stroke="midnightblue" d="M539.59,-118.48C520.41,-126.19 495.53,-135.75 473,-143 462.47,-146.39 450.94,-149.62 440.24,-152.43"/>
<polygon fill="midnightblue" stroke="midnightblue" points="541.1,-121.64 549.05,-114.64 538.47,-115.15 541.1,-121.64"/>
</g>
<!-- Node4 -->
<g id="node4" class="node">
<title>Node4</title>
<g id="a_node4"><a xlink:href="classSegmentTree.html#abc6c56bef599124548c2ed1c90d6e87e" target="_top" xlink:title=" ">
<polygon fill="white" stroke="black" points="342.5,-114.5 342.5,-133.5 456.5,-133.5 456.5,-114.5 342.5,-114.5"/>
<text text-anchor="middle" x="399.5" y="-121.5" font-family="Helvetica,sans-Serif" font-size="10.00">SegmentTree::query</text>
</a>
</g>
</g>
<!-- Node1&#45;&gt;Node4 -->
<g id="edge3" class="edge">
<title>Node1&#45;&gt;Node4</title>
<path fill="none" stroke="midnightblue" d="M498.5,-113.14C484.44,-114.7 469.94,-116.31 456.55,-117.79"/>
<polygon fill="midnightblue" stroke="midnightblue" points="499.07,-116.6 508.63,-112.02 498.3,-109.64 499.07,-116.6"/>
</g>
<!-- Node5 -->
<g id="node5" class="node">
<title>Node5</title>
<g id="a_node5"><a xlink:href="classSegmentTree.html#a691d643b2872c8d23c062cc050341983" target="_top" xlink:title=" ">
<polygon fill="white" stroke="black" points="329,-76.5 329,-95.5 470,-95.5 470,-76.5 329,-76.5"/>
<text text-anchor="middle" x="399.5" y="-83.5" font-family="Helvetica,sans-Serif" font-size="10.00">SegmentTree::query_impl</text>
</a>
</g>
</g>
<!-- Node1&#45;&gt;Node5 -->
<g id="edge4" class="edge">
<title>Node1&#45;&gt;Node5</title>
<path fill="none" stroke="midnightblue" d="M498.54,-96.86C489.16,-95.82 479.57,-94.76 470.25,-93.73"/>
<polygon fill="midnightblue" stroke="midnightblue" points="498.3,-100.36 508.63,-97.98 499.07,-93.4 498.3,-100.36"/>
</g>
<!-- Node8 -->
<g id="node8" class="node">
<title>Node8</title>
<g id="a_node8"><a xlink:href="classSegmentTree.html#a00e7570a50ddee7944c35de35d8924ff" target="_top" xlink:title=" ">
<polygon fill="white" stroke="black" points="339.5,-38.5 339.5,-57.5 459.5,-57.5 459.5,-38.5 339.5,-38.5"/>
<text text-anchor="middle" x="399.5" y="-45.5" font-family="Helvetica,sans-Serif" font-size="10.00">SegmentTree::update</text>
</a>
</g>
</g>
<!-- Node1&#45;&gt;Node8 -->
<g id="edge7" class="edge">
<title>Node1&#45;&gt;Node8</title>
<path fill="none" stroke="midnightblue" d="M539.59,-91.52C520.41,-83.81 495.53,-74.25 473,-67 462.47,-63.61 450.94,-60.38 440.24,-57.57"/>
<polygon fill="midnightblue" stroke="midnightblue" points="538.47,-94.85 549.05,-95.36 541.1,-88.36 538.47,-94.85"/>
</g>
<!-- Node9 -->
<g id="node9" class="node">
<title>Node9</title>
<g id="a_node9"><a xlink:href="classSegmentTree.html#a89a183ae20045f72d80ef9ca1627d3b9" target="_top" xlink:title=" ">
<polygon fill="white" stroke="black" points="326,-0.5 326,-19.5 473,-19.5 473,-0.5 326,-0.5"/>
<text text-anchor="middle" x="399.5" y="-7.5" font-family="Helvetica,sans-Serif" font-size="10.00">SegmentTree::update_impl</text>
</a>
</g>
</g>
<!-- Node1&#45;&gt;Node9 -->
<g id="edge8" class="edge">
<title>Node1&#45;&gt;Node9</title>
<path fill="none" stroke="midnightblue" d="M554.82,-88.32C536.14,-71.07 504.7,-44.53 473,-29 465.17,-25.16 456.47,-22.04 447.9,-19.51"/>
<polygon fill="midnightblue" stroke="midnightblue" points="552.55,-90.99 562.23,-95.3 557.35,-85.89 552.55,-90.99"/>
</g>
<!-- Node6 -->
<g id="node6" class="node">
<title>Node6</title>
<g id="a_node6"><a xlink:href="classSegmentTree.html#a801baf5cdb91eda5d2c01c39e3953a31" target="_top" xlink:title=" ">
<polygon fill="white" stroke="black" points="150,-76.5 150,-95.5 290,-95.5 290,-76.5 150,-76.5"/>
<text text-anchor="middle" x="220" y="-83.5" font-family="Helvetica,sans-Serif" font-size="10.00">SegmentTree::query_pers</text>
</a>
</g>
</g>
<!-- Node5&#45;&gt;Node6 -->
<g id="edge5" class="edge">
<title>Node5&#45;&gt;Node6</title>
<path fill="none" stroke="midnightblue" d="M318.62,-86C309.12,-86 299.48,-86 290.15,-86"/>
<polygon fill="midnightblue" stroke="midnightblue" points="318.86,-89.5 328.86,-86 318.86,-82.5 318.86,-89.5"/>
</g>
<!-- Node7 -->
<g id="node7" class="node">
<title>Node7</title>
<g id="a_node7"><a xlink:href="classSegmentTree.html#a54816e3b51b87889fc2038329fed254b" target="_top" xlink:title=" ">
<polygon fill="white" stroke="black" points="0,-76.5 0,-95.5 114,-95.5 114,-76.5 0,-76.5"/>
<text text-anchor="middle" x="57" y="-83.5" font-family="Helvetica,sans-Serif" font-size="10.00">SegmentTree::query</text>
</a>
</g>
</g>
<!-- Node6&#45;&gt;Node7 -->
<g id="edge6" class="edge">
<title>Node6&#45;&gt;Node7</title>
<path fill="none" stroke="midnightblue" d="M139.66,-86C131.01,-86 122.34,-86 114.06,-86"/>
<polygon fill="midnightblue" stroke="midnightblue" points="139.79,-89.5 149.79,-86 139.79,-82.5 139.79,-89.5"/>
</g>
<!-- Node10 -->
<g id="node10" class="node">
<title>Node10</title>
<g id="a_node10"><a xlink:href="classSegmentTree.html#aef5bdc8818b9c0da150ad1f4d6d87360" target="_top" xlink:title=" ">
<polygon fill="white" stroke="black" points="160,-0.5 160,-19.5 280,-19.5 280,-0.5 160,-0.5"/>
<text text-anchor="middle" x="220" y="-7.5" font-family="Helvetica,sans-Serif" font-size="10.00">SegmentTree::update</text>
</a>
</g>
</g>
<!-- Node9&#45;&gt;Node10 -->
<g id="edge9" class="edge">
<title>Node9&#45;&gt;Node10</title>
<path fill="none" stroke="midnightblue" d="M315.73,-10C303.68,-10 291.49,-10 280.04,-10"/>
<polygon fill="midnightblue" stroke="midnightblue" points="315.79,-13.5 325.79,-10 315.79,-6.5 315.79,-13.5"/>
</g>
</g>
</svg>
        <g id="navigator" transform="translate(0 0)" fill="#404254">
                <rect fill="#f2f5e9" fill-opacity="0.5" stroke="#606060" stroke-width=".5" x="0" y="0" width="60" height="60"/>
                <use id="zoomplus" xlink:href="#zoomPlus" x="17" y="9" onmousedown="handleZoom(evt,'in')"/>
                <use id="zoomminus" xlink:href="#zoomMin" x="42" y="9" onmousedown="handleZoom(evt,'out')"/>
                <use id="reset" xlink:href="#resetDef" x="30" y="36" onmousedown="handleReset()"/>
                <g id="arrowUp" xlink:href="#dirArrow" transform="translate(30 24)" onmousedown="handlePan(0,-1)">
                  <use xlink:href="#rim" fill="#404040">
                        <set attributeName="fill" to="#808080" begin="arrowUp.mouseover" end="arrowUp.mouseout"/>
                  </use>
                  <path fill="none" stroke="white" stroke-width="1.5" d="M0,-3.0v7 M-2.5,-0.5L0,-3.0L2.5,-0.5"/>
                </g>
                <g id="arrowRight" xlink:href="#dirArrow" transform="rotate(90) translate(36 -43)" onmousedown="handlePan(1,0)">
                  <use xlink:href="#rim" fill="#404040">
                        <set attributeName="fill" to="#808080" begin="arrowRight.mouseover" end="arrowRight.mouseout"/>
                  </use>
                  <path fill="none" stroke="white" stroke-width="1.5" d="M0,-3.0v7 M-2.5,-0.5L0,-3.0L2.5,-0.5"/>
                </g>
                <g id="arrowDown" xlink:href="#dirArrow" transform="rotate(180) translate(-30 -48)" onmousedown="handlePan(0,1)">
                  <use xlink:href="#rim" fill="#404040">
                        <set attributeName="fill" to="#808080" begin="arrowDown.mouseover" end="arrowDown.mouseout"/>
                  </use>
                  <path fill="none" stroke="white" stroke-width="1.5" d="M0,-3.0v7 M-2.5,-0.5L0,-3.0L2.5,-0.5"/>
                </g>
                <g id="arrowLeft" xlink:href="#dirArrow" transform="rotate(270) translate(-36 17)" onmousedown="handlePan(-1,0)">
                  <use xlink:href="#rim" fill="#404040">
                        <set attributeName="fill" to="#808080" begin="arrowLeft.mouseover" end="arrowLeft.mouseout"/>
                  </use>
                  <path fill="none" stroke="white" stroke-width="1.5" d="M0,-3.0v7 M-2.5,-0.5L0,-3.0L2.5,-0.5"/>
                </g>
        </g>
        <svg viewBox="0 0 15 15" width="100%" height="30px" preserveAspectRatio="xMaxYMin meet">
         <g id="arrow_out" transform="scale(0.3 0.3)">
          <a xlink:href="classSegmentTree_a49a185b358936de0e027b42bb32017d4_icgraph_org.svg" target="_base">
           <rect id="button" ry="5" rx="5" y="6" x="6" height="38" width="38"
                fill="#f2f5e9" fill-opacity="0.5" stroke="#606060" stroke-width="1.0"/>
           <path id="arrow"
             d="M 11.500037,31.436501 C 11.940474,20.09759 22.043105,11.32322 32.158766,21.979434 L 37.068811,17.246167 C 37.068811,17.246167 37.088388,32 37.088388,32 L 22.160133,31.978069 C 22.160133,31.978069 26.997745,27.140456 26.997745,27.140456 C 18.528582,18.264221 13.291696,25.230495 11.500037,31.436501 z"
             style="fill:#404040;"/>
          </a>
         </g>
        </svg>
</svg>
