<?xml version="1.0" encoding="UTF-8" standalone="no"?>
<!DOCTYPE svg PUBLIC "-//W3C//DTD SVG 1.1//EN"
 "http://www.w3.org/Graphics/SVG/1.1/DTD/svg11.dtd">
<!-- Generated by graphviz version 2.43.0 (0)
 -->
<!-- Title: segment_tree::SegmentTree::update Pages: 1 -->
<!--zoomable 228 -->
<svg id="main" version="1.1" xmlns="http://www.w3.org/2000/svg" xmlns:xlink="http://www.w3.org/1999/xlink" xml:space="preserve" onload="init(evt)">
<style type="text/css"><![CDATA[
.edge:hover path { stroke: red; }
.edge:hover polygon { stroke: red; fill: red; }
]]></style>
<script type="text/javascript"><![CDATA[
var edges = document.getElementsByTagName('g');
if (edges && edges.length) {
  for (var i=0;i<edges.length;i++) {
    if (edges[i].id.substr(0,4)=='edge') {
      edges[i].setAttribute('class','edge');
    }
  }
}
]]></script>
        <defs>
                <circle id="rim" cx="0" cy="0" r="7"/>
                <circle id="rim2" cx="0" cy="0" r="3.5"/>
                <g id="zoomPlus">
                        <use xlink:href="#rim" fill="#404040">
                                <set attributeName="fill" to="#808080" begin="zoomplus.mouseover" end="zoomplus.mouseout"/>
                        </use>
                        <path d="M-4,0h8M0,-4v8" fill="none" stroke="white" stroke-width="1.5" pointer-events="none"/>
                </g>
                <g id="zoomMin">
                        <use xlink:href="#rim" fill="#404040">
                                <set attributeName="fill" to="#808080" begin="zoomminus.mouseover" end="zoomminus.mouseout"/>
                        </use>
                        <path d="M-4,0h8" fill="none" stroke="white" stroke-width="1.5" pointer-events="none"/>
                </g>
                <g id="dirArrow">
                        <path fill="none" stroke="white" stroke-width="1.5" d="M0,-3.0v7 M-2.5,-0.5L0,-3.0L2.5,-0.5"/>
                </g>
               <g id="resetDef">
                       <use xlink:href="#rim2" fill="#404040">
                               <set attributeName="fill" to="#808080" begin="reset.mouseover" end="reset.mouseout"/>
                       </use>
               </g>
        </defs>

<script type="text/javascript">
var viewWidth = 757;
var viewHeight = 228;
var sectionId = 'dynsection-17';
</script>
<script xlink:href="svgpan.js"/>
<svg id="graph" class="graph">
<g id="viewport">
<title>segment_tree::SegmentTree::update</title>
<polygon fill="white" stroke="transparent" points="-4,4 -4,-224 753,-224 753,4 -4,4"/>
<!-- Node1 -->
<g id="node1" class="node">
<title>Node1</title>
<g id="a_node1"><a xlink:title=" ">
<polygon fill="#bfbfbf" stroke="black" points="0,-115 0,-145 154,-145 154,-115 0,-115"/>
<text text-anchor="start" x="8" y="-133" font-family="Helvetica,sans-Serif" font-size="10.00">segment_tree::SegmentTree</text>
<text text-anchor="middle" x="77" y="-122" font-family="Helvetica,sans-Serif" font-size="10.00">::update</text>
</a>
</g>
</g>
<!-- Node2 -->
<g id="node2" class="node">
<title>Node2</title>
<g id="a_node2"><a xlink:href="namespacetree.html#a1db5e81cd89b854831db8147ff509caa" target="_top" xlink:title=" ">
<polygon fill="white" stroke="black" points="231,-142.5 231,-161.5 303,-161.5 303,-142.5 231,-142.5"/>
<text text-anchor="middle" x="267" y="-149.5" font-family="Helvetica,sans-Serif" font-size="10.00">tree::assert</text>
</a>
</g>
</g>
<!-- Node1&#45;&gt;Node2 -->
<g id="edge1" class="edge">
<title>Node1&#45;&gt;Node2</title>
<path fill="none" stroke="midnightblue" d="M154.2,-138.92C176.73,-141.55 200.68,-144.36 220.61,-146.69"/>
<polygon fill="midnightblue" stroke="midnightblue" points="220.3,-150.18 230.64,-147.86 221.11,-143.22 220.3,-150.18"/>
</g>
<!-- Node3 -->
<g id="node3" class="node">
<title>Node3</title>
<g id="a_node3"><a xlink:href="classsegment__tree_1_1SegmentTree.html#a5207ffe18417463bef339fd6d3183b5c" target="_top" xlink:title=" ">
<polygon fill="white" stroke="black" points="190,-93 190,-123 344,-123 344,-93 190,-93"/>
<text text-anchor="start" x="198" y="-111" font-family="Helvetica,sans-Serif" font-size="10.00">segment_tree::SegmentTree</text>
<text text-anchor="middle" x="267" y="-100" font-family="Helvetica,sans-Serif" font-size="10.00">::update</text>
</a>
</g>
</g>
<!-- Node1&#45;&gt;Node3 -->
<g id="edge2" class="edge">
<title>Node1&#45;&gt;Node3</title>
<path fill="none" stroke="midnightblue" d="M154.2,-121.08C162.61,-120.1 171.22,-119.09 179.74,-118.09"/>
<polygon fill="midnightblue" stroke="midnightblue" points="180.17,-121.57 189.7,-116.93 179.36,-114.62 180.17,-121.57"/>
</g>
<!-- Node4 -->
<g id="node4" class="node">
<title>Node4</title>
<g id="a_node4"><a xlink:href="classsegment__tree_1_1SegmentTree.html#a52f59c0f0db30957d70083a26e7ac967" target="_top" xlink:title=" ">
<polygon fill="white" stroke="black" points="392.5,-115 392.5,-145 546.5,-145 546.5,-115 392.5,-115"/>
<text text-anchor="start" x="400.5" y="-133" font-family="Helvetica,sans-Serif" font-size="10.00">segment_tree::SegmentTree</text>
<text text-anchor="middle" x="469.5" y="-122" font-family="Helvetica,sans-Serif" font-size="10.00">::down</text>
</a>
</g>
</g>
<!-- Node3&#45;&gt;Node4 -->
<g id="edge3" class="edge">
<title>Node3&#45;&gt;Node4</title>
<path fill="none" stroke="midnightblue" d="M344.09,-116.35C356.59,-117.72 369.62,-119.15 382.34,-120.55"/>
<polygon fill="midnightblue" stroke="midnightblue" points="382.14,-124.05 392.47,-121.66 382.91,-117.09 382.14,-124.05"/>
</g>
<!-- Node5 -->
<g id="node5" class="node">
<title>Node5</title>
<g id="a_node5"><a xlink:href="operations_8hpp.html#a915663194fec79c061edfaea61707bd0" target="_top" xlink:title=" ">
<polygon fill="white" stroke="black" points="657.5,-200.5 657.5,-219.5 686.5,-219.5 686.5,-200.5 657.5,-200.5"/>
<text text-anchor="middle" x="672" y="-207.5" font-family="Helvetica,sans-Serif" font-size="10.00">fo</text>
</a>
</g>
</g>
<!-- Node3&#45;&gt;Node5 -->
<g id="edge8" class="edge">
<title>Node3&#45;&gt;Node5</title>
<path fill="none" stroke="midnightblue" d="M326.14,-123.16C332.43,-125.94 338.52,-129.2 344,-133 365.04,-147.61 357.56,-165.66 380,-178 468.58,-226.71 595.19,-219.05 647.25,-213.2"/>
<polygon fill="midnightblue" stroke="midnightblue" points="647.96,-216.64 657.46,-211.97 647.12,-209.7 647.96,-216.64"/>
</g>
<!-- Node6 -->
<g id="node6" class="node">
<title>Node6</title>
<g id="a_node6"><a xlink:href="classsegment__tree_1_1SegmentTree.html#a3d4b3dd98355d9e414bc04cdcf5f5457" target="_top" xlink:title=" ">
<polygon fill="white" stroke="black" points="595,-149 595,-179 749,-179 749,-149 595,-149"/>
<text text-anchor="start" x="603" y="-167" font-family="Helvetica,sans-Serif" font-size="10.00">segment_tree::SegmentTree</text>
<text text-anchor="middle" x="672" y="-156" font-family="Helvetica,sans-Serif" font-size="10.00">::get_child</text>
</a>
</g>
</g>
<!-- Node3&#45;&gt;Node6 -->
<g id="edge9" class="edge">
<title>Node3&#45;&gt;Node6</title>
<path fill="none" stroke="midnightblue" d="M319.32,-123.08C327.7,-126.05 336.18,-129.39 344,-133 361.02,-140.87 362.03,-149.64 380,-155 446.74,-174.9 525.93,-175.98 584.84,-172.74"/>
<polygon fill="midnightblue" stroke="midnightblue" points="585.08,-176.24 594.85,-172.14 584.66,-169.25 585.08,-176.24"/>
</g>
<!-- Node7 -->
<g id="node7" class="node">
<title>Node7</title>
<g id="a_node7"><a xlink:href="classsegment__tree_1_1SegmentTree.html#ac8ebb88c3ad2fedecb123e31552fde60" target="_top" xlink:title=" ">
<polygon fill="white" stroke="black" points="595,-97 595,-127 749,-127 749,-97 595,-97"/>
<text text-anchor="start" x="603" y="-115" font-family="Helvetica,sans-Serif" font-size="10.00">segment_tree::SegmentTree</text>
<text text-anchor="middle" x="672" y="-104" font-family="Helvetica,sans-Serif" font-size="10.00">::get_core</text>
</a>
</g>
</g>
<!-- Node3&#45;&gt;Node7 -->
<g id="edge10" class="edge">
<title>Node3&#45;&gt;Node7</title>
<path fill="none" stroke="midnightblue" d="M344.29,-106.07C403,-104.93 486.15,-104.05 559,-106 567.32,-106.22 575.99,-106.54 584.66,-106.91"/>
<polygon fill="midnightblue" stroke="midnightblue" points="584.66,-110.41 594.81,-107.37 584.98,-103.42 584.66,-110.41"/>
</g>
<!-- Node8 -->
<g id="node8" class="node">
<title>Node8</title>
<g id="a_node8"><a xlink:href="namespacelinear__algebra.html#aac11793366a8aa7d2396775fdb1ba8ca" target="_top" xlink:title=" ">
<polygon fill="white" stroke="black" points="607,-51.5 607,-70.5 737,-70.5 737,-51.5 607,-51.5"/>
<text text-anchor="middle" x="672" y="-58.5" font-family="Helvetica,sans-Serif" font-size="10.00">linear_algebra::identity</text>
</a>
</g>
</g>
<!-- Node3&#45;&gt;Node8 -->
<g id="edge11" class="edge">
<title>Node3&#45;&gt;Node8</title>
<path fill="none" stroke="midnightblue" d="M344.27,-99.1C416.7,-90.66 524.89,-78.04 596.67,-69.67"/>
<polygon fill="midnightblue" stroke="midnightblue" points="597.46,-73.1 606.98,-68.47 596.64,-66.15 597.46,-73.1"/>
</g>
<!-- Node9 -->
<g id="node9" class="node">
<title>Node9</title>
<g id="a_node9"><a xlink:href="classsegment__tree_1_1SegmentTree.html#a2bab4503b7a982cd822c2d5cb48c8e11" target="_top" xlink:title=" ">
<polygon fill="white" stroke="black" points="380,-0.5 380,-19.5 559,-19.5 559,-0.5 380,-0.5"/>
<text text-anchor="middle" x="469.5" y="-7.5" font-family="Helvetica,sans-Serif" font-size="10.00">segment_tree::SegmentTree::mid</text>
</a>
</g>
</g>
<!-- Node3&#45;&gt;Node9 -->
<g id="edge12" class="edge">
<title>Node3&#45;&gt;Node9</title>
<path fill="none" stroke="midnightblue" d="M286.72,-92.9C308.12,-76.31 344.74,-49.93 380,-34 390.32,-29.34 401.74,-25.41 412.86,-22.17"/>
<polygon fill="midnightblue" stroke="midnightblue" points="413.8,-25.54 422.51,-19.5 411.94,-18.8 413.8,-25.54"/>
</g>
<!-- Node4&#45;&gt;Node5 -->
<g id="edge4" class="edge">
<title>Node4&#45;&gt;Node5</title>
<path fill="none" stroke="midnightblue" d="M498.58,-145.03C523.42,-157.9 560.92,-176.33 595,-189 612.14,-195.37 632.08,-200.81 647.24,-204.56"/>
<polygon fill="midnightblue" stroke="midnightblue" points="646.78,-208.05 657.32,-206.98 648.41,-201.24 646.78,-208.05"/>
</g>
<!-- Node4&#45;&gt;Node6 -->
<g id="edge5" class="edge">
<title>Node4&#45;&gt;Node6</title>
<path fill="none" stroke="midnightblue" d="M546.59,-142.9C559.09,-145.02 572.12,-147.23 584.84,-149.39"/>
<polygon fill="midnightblue" stroke="midnightblue" points="584.52,-152.89 594.97,-151.11 585.69,-145.98 584.52,-152.89"/>
</g>
<!-- Node4&#45;&gt;Node7 -->
<g id="edge6" class="edge">
<title>Node4&#45;&gt;Node7</title>
<path fill="none" stroke="midnightblue" d="M546.59,-123.17C559.09,-122.05 572.12,-120.88 584.84,-119.73"/>
<polygon fill="midnightblue" stroke="midnightblue" points="585.32,-123.21 594.97,-118.83 584.69,-116.23 585.32,-123.21"/>
</g>
<!-- Node4&#45;&gt;Node8 -->
<g id="edge7" class="edge">
<title>Node4&#45;&gt;Node8</title>
<path fill="none" stroke="midnightblue" d="M514.5,-114.86C550.17,-102.58 599.89,-85.47 633.65,-73.85"/>
<polygon fill="midnightblue" stroke="midnightblue" points="634.83,-77.15 643.15,-70.58 632.56,-70.53 634.83,-77.15"/>
</g>
</g>
</svg>
        <g id="navigator" transform="translate(0 0)" fill="#404254">
                <rect fill="#f2f5e9" fill-opacity="0.5" stroke="#606060" stroke-width=".5" x="0" y="0" width="60" height="60"/>
                <use id="zoomplus" xlink:href="#zoomPlus" x="17" y="9" onmousedown="handleZoom(evt,'in')"/>
                <use id="zoomminus" xlink:href="#zoomMin" x="42" y="9" onmousedown="handleZoom(evt,'out')"/>
                <use id="reset" xlink:href="#resetDef" x="30" y="36" onmousedown="handleReset()"/>
                <g id="arrowUp" xlink:href="#dirArrow" transform="translate(30 24)" onmousedown="handlePan(0,-1)">
                  <use xlink:href="#rim" fill="#404040">
                        <set attributeName="fill" to="#808080" begin="arrowUp.mouseover" end="arrowUp.mouseout"/>
                  </use>
                  <path fill="none" stroke="white" stroke-width="1.5" d="M0,-3.0v7 M-2.5,-0.5L0,-3.0L2.5,-0.5"/>
                </g>
                <g id="arrowRight" xlink:href="#dirArrow" transform="rotate(90) translate(36 -43)" onmousedown="handlePan(1,0)">
                  <use xlink:href="#rim" fill="#404040">
                        <set attributeName="fill" to="#808080" begin="arrowRight.mouseover" end="arrowRight.mouseout"/>
                  </use>
                  <path fill="none" stroke="white" stroke-width="1.5" d="M0,-3.0v7 M-2.5,-0.5L0,-3.0L2.5,-0.5"/>
                </g>
                <g id="arrowDown" xlink:href="#dirArrow" transform="rotate(180) translate(-30 -48)" onmousedown="handlePan(0,1)">
                  <use xlink:href="#rim" fill="#404040">
                        <set attributeName="fill" to="#808080" begin="arrowDown.mouseover" end="arrowDown.mouseout"/>
                  </use>
                  <path fill="none" stroke="white" stroke-width="1.5" d="M0,-3.0v7 M-2.5,-0.5L0,-3.0L2.5,-0.5"/>
                </g>
                <g id="arrowLeft" xlink:href="#dirArrow" transform="rotate(270) translate(-36 17)" onmousedown="handlePan(-1,0)">
                  <use xlink:href="#rim" fill="#404040">
                        <set attributeName="fill" to="#808080" begin="arrowLeft.mouseover" end="arrowLeft.mouseout"/>
                  </use>
                  <path fill="none" stroke="white" stroke-width="1.5" d="M0,-3.0v7 M-2.5,-0.5L0,-3.0L2.5,-0.5"/>
                </g>
        </g>
        <svg viewBox="0 0 15 15" width="100%" height="30px" preserveAspectRatio="xMaxYMin meet">
         <g id="arrow_out" transform="scale(0.3 0.3)">
          <a xlink:href="classsegment__tree_1_1SegmentTree_ad2375790875e1231b39795e93d61e176_cgraph_org.svg" target="_base">
           <rect id="button" ry="5" rx="5" y="6" x="6" height="38" width="38"
                fill="#f2f5e9" fill-opacity="0.5" stroke="#606060" stroke-width="1.0"/>
           <path id="arrow"
             d="M 11.500037,31.436501 C 11.940474,20.09759 22.043105,11.32322 32.158766,21.979434 L 37.068811,17.246167 C 37.068811,17.246167 37.088388,32 37.088388,32 L 22.160133,31.978069 C 22.160133,31.978069 26.997745,27.140456 26.997745,27.140456 C 18.528582,18.264221 13.291696,25.230495 11.500037,31.436501 z"
             style="fill:#404040;"/>
          </a>
         </g>
        </svg>
</svg>
