<?xml version="1.0" encoding="UTF-8" standalone="no"?>
<!DOCTYPE svg PUBLIC "-//W3C//DTD SVG 1.1//EN"
 "http://www.w3.org/Graphics/SVG/1.1/DTD/svg11.dtd">
<!-- Generated by graphviz version 2.43.0 (0)
 -->
<!-- Title: perm Pages: 1 -->
<!--zoomable 85 -->
<svg id="main" version="1.1" xmlns="http://www.w3.org/2000/svg" xmlns:xlink="http://www.w3.org/1999/xlink" xml:space="preserve" onload="init(evt)">
<style type="text/css"><![CDATA[
.edge:hover path { stroke: red; }
.edge:hover polygon { stroke: red; fill: red; }
]]></style>
<script type="text/javascript"><![CDATA[
var edges = document.getElementsByTagName('g');
if (edges && edges.length) {
  for (var i=0;i<edges.length;i++) {
    if (edges[i].id.substr(0,4)=='edge') {
      edges[i].setAttribute('class','edge');
    }
  }
}
]]></script>
        <defs>
                <circle id="rim" cx="0" cy="0" r="7"/>
                <circle id="rim2" cx="0" cy="0" r="3.5"/>
                <g id="zoomPlus">
                        <use xlink:href="#rim" fill="#404040">
                                <set attributeName="fill" to="#808080" begin="zoomplus.mouseover" end="zoomplus.mouseout"/>
                        </use>
                        <path d="M-4,0h8M0,-4v8" fill="none" stroke="white" stroke-width="1.5" pointer-events="none"/>
                </g>
                <g id="zoomMin">
                        <use xlink:href="#rim" fill="#404040">
                                <set attributeName="fill" to="#808080" begin="zoomminus.mouseover" end="zoomminus.mouseout"/>
                        </use>
                        <path d="M-4,0h8" fill="none" stroke="white" stroke-width="1.5" pointer-events="none"/>
                </g>
                <g id="dirArrow">
                        <path fill="none" stroke="white" stroke-width="1.5" d="M0,-3.0v7 M-2.5,-0.5L0,-3.0L2.5,-0.5"/>
                </g>
               <g id="resetDef">
                       <use xlink:href="#rim2" fill="#404040">
                               <set attributeName="fill" to="#808080" begin="reset.mouseover" end="reset.mouseout"/>
                       </use>
               </g>
        </defs>

<script type="text/javascript">
var viewWidth = 787;
var viewHeight = 85;
var sectionId = 'dynsection-5';
</script>
<script xlink:href="svgpan.js"/>
<svg id="graph" class="graph">
<g id="viewport">
<title>perm</title>
<polygon fill="white" stroke="transparent" points="-4,4 -4,-81 783,-81 783,4 -4,4"/>
<!-- Node1 -->
<g id="node1" class="node">
<title>Node1</title>
<g id="a_node1"><a xlink:title=" ">
<polygon fill="#bfbfbf" stroke="black" points="737,-38.5 737,-57.5 779,-57.5 779,-38.5 737,-38.5"/>
<text text-anchor="middle" x="758" y="-45.5" font-family="Helvetica,sans-Serif" font-size="10.00">perm</text>
</a>
</g>
</g>
<!-- Node2 -->
<g id="node2" class="node">
<title>Node2</title>
<g id="a_node2"><a xlink:href="combinatorics_8hpp.html#a4d8eda9d63610214a1eb9b92a51443d1" target="_top" xlink:title=" ">
<polygon fill="white" stroke="black" points="579,-57.5 579,-76.5 630,-76.5 630,-57.5 579,-57.5"/>
<text text-anchor="middle" x="604.5" y="-64.5" font-family="Helvetica,sans-Serif" font-size="10.00">choose</text>
</a>
</g>
</g>
<!-- Node1&#45;&gt;Node2 -->
<g id="edge1" class="edge">
<title>Node1&#45;&gt;Node2</title>
<path fill="none" stroke="midnightblue" d="M726.75,-51.79C698.42,-55.35 656.61,-60.59 630.23,-63.9"/>
<polygon fill="midnightblue" stroke="midnightblue" points="727.4,-55.24 736.88,-50.52 726.52,-48.29 727.4,-55.24"/>
</g>
<!-- Node3 -->
<g id="node3" class="node">
<title>Node3</title>
<g id="a_node3"><a xlink:href="combinatorics_8hpp.html#aed30b4e386e3e22247cd9d6aecc1e88f" target="_top" xlink:title=" ">
<polygon fill="white" stroke="black" points="666,-19.5 666,-38.5 701,-38.5 701,-19.5 666,-19.5"/>
<text text-anchor="middle" x="683.5" y="-26.5" font-family="Helvetica,sans-Serif" font-size="10.00">fact</text>
</a>
</g>
</g>
<!-- Node1&#45;&gt;Node3 -->
<g id="edge2" class="edge">
<title>Node1&#45;&gt;Node3</title>
<path fill="none" stroke="midnightblue" d="M726.85,-40.1C718.06,-37.8 708.79,-35.37 701.16,-33.37"/>
<polygon fill="midnightblue" stroke="midnightblue" points="726.24,-43.56 736.8,-42.71 728.02,-36.79 726.24,-43.56"/>
</g>
<!-- Node3&#45;&gt;Node2 -->
<g id="edge3" class="edge">
<title>Node3&#45;&gt;Node2</title>
<path fill="none" stroke="midnightblue" d="M656.74,-41.71C646.34,-46.85 634.54,-52.67 624.89,-57.43"/>
<polygon fill="midnightblue" stroke="midnightblue" points="658.37,-44.81 665.79,-37.25 655.28,-38.53 658.37,-44.81"/>
</g>
<!-- Node4 -->
<g id="node4" class="node">
<title>Node4</title>
<g id="a_node4"><a xlink:href="number__theory_8hpp.html#af0753ff92c84e6924e1fd6461e77b16f" target="_top" xlink:title=" ">
<polygon fill="white" stroke="black" points="580,-19.5 580,-38.5 629,-38.5 629,-19.5 580,-19.5"/>
<text text-anchor="middle" x="604.5" y="-26.5" font-family="Helvetica,sans-Serif" font-size="10.00">totient</text>
</a>
</g>
</g>
<!-- Node3&#45;&gt;Node4 -->
<g id="edge4" class="edge">
<title>Node3&#45;&gt;Node4</title>
<path fill="none" stroke="midnightblue" d="M655.52,-29C646.94,-29 637.52,-29 629.19,-29"/>
<polygon fill="midnightblue" stroke="midnightblue" points="655.79,-32.5 665.79,-29 655.79,-25.5 655.79,-32.5"/>
</g>
<!-- Node5 -->
<g id="node5" class="node">
<title>Node5</title>
<g id="a_node5"><a xlink:href="number__theory_8hpp.html#a8a159e82910edb282085d6879d8c382d" target="_top" xlink:title=" ">
<polygon fill="white" stroke="black" points="457,-38.5 457,-57.5 543,-57.5 543,-38.5 457,-38.5"/>
<text text-anchor="middle" x="500" y="-45.5" font-family="Helvetica,sans-Serif" font-size="10.00">primitive_root</text>
</a>
</g>
</g>
<!-- Node4&#45;&gt;Node5 -->
<g id="edge5" class="edge">
<title>Node4&#45;&gt;Node5</title>
<path fill="none" stroke="midnightblue" d="M570.03,-35.2C561.5,-36.78 552.23,-38.5 543.32,-40.15"/>
<polygon fill="midnightblue" stroke="midnightblue" points="570.79,-38.62 579.98,-33.36 569.51,-31.74 570.79,-38.62"/>
</g>
<!-- Node10 -->
<g id="node10" class="node">
<title>Node10</title>
<g id="a_node10"><a xlink:href="number__theory_8hpp.html#a8ae320acad5e35d58ca5ad7adc6ddd78" target="_top" xlink:title=" ">
<polygon fill="white" stroke="black" points="329.5,-0.5 329.5,-19.5 402.5,-19.5 402.5,-0.5 329.5,-0.5"/>
<text text-anchor="middle" x="366" y="-7.5" font-family="Helvetica,sans-Serif" font-size="10.00">test_totient</text>
</a>
</g>
</g>
<!-- Node4&#45;&gt;Node10 -->
<g id="edge10" class="edge">
<title>Node4&#45;&gt;Node10</title>
<path fill="none" stroke="midnightblue" d="M569.99,-26.31C525.7,-22.75 448.02,-16.51 402.68,-12.87"/>
<polygon fill="midnightblue" stroke="midnightblue" points="569.71,-29.8 579.96,-27.11 570.27,-22.82 569.71,-29.8"/>
</g>
<!-- Node6 -->
<g id="node6" class="node">
<title>Node6</title>
<g id="a_node6"><a xlink:href="number__theory_8hpp.html#a0ff115471f41e78245b5dc48eaf8032f" target="_top" xlink:title=" ">
<polygon fill="white" stroke="black" points="311,-38.5 311,-57.5 421,-57.5 421,-38.5 311,-38.5"/>
<text text-anchor="middle" x="366" y="-45.5" font-family="Helvetica,sans-Serif" font-size="10.00">test_primitive_root</text>
</a>
</g>
</g>
<!-- Node5&#45;&gt;Node6 -->
<g id="edge6" class="edge">
<title>Node5&#45;&gt;Node6</title>
<path fill="none" stroke="midnightblue" d="M446.82,-48C438.43,-48 429.72,-48 421.28,-48"/>
<polygon fill="midnightblue" stroke="midnightblue" points="446.87,-51.5 456.87,-48 446.87,-44.5 446.87,-51.5"/>
</g>
<!-- Node7 -->
<g id="node7" class="node">
<title>Node7</title>
<g id="a_node7"><a xlink:href="number__theory_8hpp.html#aed36f6b8b9706133e9b5302b1618e9ef" target="_top" xlink:title=" ">
<polygon fill="white" stroke="black" points="160,-19.5 160,-38.5 275,-38.5 275,-19.5 160,-19.5"/>
<text text-anchor="middle" x="217.5" y="-26.5" font-family="Helvetica,sans-Serif" font-size="10.00">test_number_theory</text>
</a>
</g>
</g>
<!-- Node6&#45;&gt;Node7 -->
<g id="edge7" class="edge">
<title>Node6&#45;&gt;Node7</title>
<path fill="none" stroke="midnightblue" d="M300.69,-39.66C292.25,-38.57 283.66,-37.45 275.36,-36.37"/>
<polygon fill="midnightblue" stroke="midnightblue" points="300.5,-43.16 310.87,-40.98 301.4,-36.22 300.5,-43.16"/>
</g>
<!-- Node8 -->
<g id="node8" class="node">
<title>Node8</title>
<g id="a_node8"><a xlink:href="test_8cpp.html#af095a232149097b5605064623a9345ac" target="_top" xlink:title=" ">
<polygon fill="white" stroke="black" points="77,-19.5 77,-38.5 124,-38.5 124,-19.5 77,-19.5"/>
<text text-anchor="middle" x="100.5" y="-26.5" font-family="Helvetica,sans-Serif" font-size="10.00">main2</text>
</a>
</g>
</g>
<!-- Node7&#45;&gt;Node8 -->
<g id="edge8" class="edge">
<title>Node7&#45;&gt;Node8</title>
<path fill="none" stroke="midnightblue" d="M149.41,-29C140.39,-29 131.7,-29 124.26,-29"/>
<polygon fill="midnightblue" stroke="midnightblue" points="149.67,-32.5 159.67,-29 149.67,-25.5 149.67,-32.5"/>
</g>
<!-- Node9 -->
<g id="node9" class="node">
<title>Node9</title>
<g id="a_node9"><a xlink:href="main_8hpp.html#a0ddf1224851353fc92bfbff6f499fa97" target="_top" xlink:title=" ">
<polygon fill="white" stroke="black" points="0,-19.5 0,-38.5 41,-38.5 41,-19.5 0,-19.5"/>
<text text-anchor="middle" x="20.5" y="-26.5" font-family="Helvetica,sans-Serif" font-size="10.00">main</text>
</a>
</g>
</g>
<!-- Node8&#45;&gt;Node9 -->
<g id="edge9" class="edge">
<title>Node8&#45;&gt;Node9</title>
<path fill="none" stroke="midnightblue" d="M66.66,-29C57.96,-29 48.84,-29 41.1,-29"/>
<polygon fill="midnightblue" stroke="midnightblue" points="66.94,-32.5 76.94,-29 66.94,-25.5 66.94,-32.5"/>
</g>
<!-- Node10&#45;&gt;Node7 -->
<g id="edge11" class="edge">
<title>Node10&#45;&gt;Node7</title>
<path fill="none" stroke="midnightblue" d="M318.88,-15.98C304.98,-17.78 289.58,-19.78 275.09,-21.66"/>
<polygon fill="midnightblue" stroke="midnightblue" points="319.7,-19.41 329.16,-14.65 318.79,-12.46 319.7,-19.41"/>
</g>
</g>
</svg>
        <g id="navigator" transform="translate(0 0)" fill="#404254">
                <rect fill="#f2f5e9" fill-opacity="0.5" stroke="#606060" stroke-width=".5" x="0" y="0" width="60" height="60"/>
                <use id="zoomplus" xlink:href="#zoomPlus" x="17" y="9" onmousedown="handleZoom(evt,'in')"/>
                <use id="zoomminus" xlink:href="#zoomMin" x="42" y="9" onmousedown="handleZoom(evt,'out')"/>
                <use id="reset" xlink:href="#resetDef" x="30" y="36" onmousedown="handleReset()"/>
                <g id="arrowUp" xlink:href="#dirArrow" transform="translate(30 24)" onmousedown="handlePan(0,-1)">
                  <use xlink:href="#rim" fill="#404040">
                        <set attributeName="fill" to="#808080" begin="arrowUp.mouseover" end="arrowUp.mouseout"/>
                  </use>
                  <path fill="none" stroke="white" stroke-width="1.5" d="M0,-3.0v7 M-2.5,-0.5L0,-3.0L2.5,-0.5"/>
                </g>
                <g id="arrowRight" xlink:href="#dirArrow" transform="rotate(90) translate(36 -43)" onmousedown="handlePan(1,0)">
                  <use xlink:href="#rim" fill="#404040">
                        <set attributeName="fill" to="#808080" begin="arrowRight.mouseover" end="arrowRight.mouseout"/>
                  </use>
                  <path fill="none" stroke="white" stroke-width="1.5" d="M0,-3.0v7 M-2.5,-0.5L0,-3.0L2.5,-0.5"/>
                </g>
                <g id="arrowDown" xlink:href="#dirArrow" transform="rotate(180) translate(-30 -48)" onmousedown="handlePan(0,1)">
                  <use xlink:href="#rim" fill="#404040">
                        <set attributeName="fill" to="#808080" begin="arrowDown.mouseover" end="arrowDown.mouseout"/>
                  </use>
                  <path fill="none" stroke="white" stroke-width="1.5" d="M0,-3.0v7 M-2.5,-0.5L0,-3.0L2.5,-0.5"/>
                </g>
                <g id="arrowLeft" xlink:href="#dirArrow" transform="rotate(270) translate(-36 17)" onmousedown="handlePan(-1,0)">
                  <use xlink:href="#rim" fill="#404040">
                        <set attributeName="fill" to="#808080" begin="arrowLeft.mouseover" end="arrowLeft.mouseout"/>
                  </use>
                  <path fill="none" stroke="white" stroke-width="1.5" d="M0,-3.0v7 M-2.5,-0.5L0,-3.0L2.5,-0.5"/>
                </g>
        </g>
        <svg viewBox="0 0 15 15" width="100%" height="30px" preserveAspectRatio="xMaxYMin meet">
         <g id="arrow_out" transform="scale(0.3 0.3)">
          <a xlink:href="combinatorics_8hpp_ada068dc4f9ea18a98ff58cb8b0be93c9_icgraph_org.svg" target="_base">
           <rect id="button" ry="5" rx="5" y="6" x="6" height="38" width="38"
                fill="#f2f5e9" fill-opacity="0.5" stroke="#606060" stroke-width="1.0"/>
           <path id="arrow"
             d="M 11.500037,31.436501 C 11.940474,20.09759 22.043105,11.32322 32.158766,21.979434 L 37.068811,17.246167 C 37.068811,17.246167 37.088388,32 37.088388,32 L 22.160133,31.978069 C 22.160133,31.978069 26.997745,27.140456 26.997745,27.140456 C 18.528582,18.264221 13.291696,25.230495 11.500037,31.436501 z"
             style="fill:#404040;"/>
          </a>
         </g>
        </svg>
</svg>
