<?xml version="1.0" encoding="UTF-8" standalone="no"?>
<!DOCTYPE svg PUBLIC "-//W3C//DTD SVG 1.1//EN"
 "http://www.w3.org/Graphics/SVG/1.1/DTD/svg11.dtd">
<!-- Generated by graphviz version 2.43.0 (0)
 -->
<!-- Title: test_combinatorics Pages: 1 -->
<svg width="480pt" height="104pt"
 viewBox="0.00 0.00 480.00 104.00" xmlns="http://www.w3.org/2000/svg" xmlns:xlink="http://www.w3.org/1999/xlink">
<g id="graph0" class="graph" transform="scale(1 1) rotate(0) translate(4 100)">
<title>test_combinatorics</title>
<polygon fill="white" stroke="transparent" points="-4,4 -4,-100 476,-100 476,4 -4,4"/>
<!-- Node1 -->
<g id="node1" class="node">
<title>Node1</title>
<g id="a_node1"><a xlink:title=" ">
<polygon fill="#bfbfbf" stroke="black" points="0,-38.5 0,-57.5 110,-57.5 110,-38.5 0,-38.5"/>
<text text-anchor="middle" x="55" y="-45.5" font-family="Helvetica,sans-Serif" font-size="10.00">test_combinatorics</text>
</a>
</g>
</g>
<!-- Node2 -->
<g id="node2" class="node">
<title>Node2</title>
<g id="a_node2"><a xlink:href="combinatorics_8hpp.html#a18ebcc5a7f4095dab1cc6d9bacd8d607" target="_top" xlink:title=" ">
<polygon fill="white" stroke="black" points="146,-76.5 146,-95.5 221,-95.5 221,-76.5 146,-76.5"/>
<text text-anchor="middle" x="183.5" y="-83.5" font-family="Helvetica,sans-Serif" font-size="10.00">test_choose</text>
</a>
</g>
</g>
<!-- Node1&#45;&gt;Node2 -->
<g id="edge1" class="edge">
<title>Node1&#45;&gt;Node2</title>
<path fill="none" stroke="midnightblue" d="M87.92,-57.59C103.95,-62.4 123.57,-68.3 140.78,-73.47"/>
<polygon fill="midnightblue" stroke="midnightblue" points="140,-76.89 150.59,-76.41 142.02,-70.19 140,-76.89"/>
</g>
<!-- Node6 -->
<g id="node6" class="node">
<title>Node6</title>
<g id="a_node6"><a xlink:href="combinatorics_8hpp.html#a1da351da5f459306dd3182e8e0e3a5bc" target="_top" xlink:title=" ">
<polygon fill="white" stroke="black" points="154,-38.5 154,-57.5 213,-57.5 213,-38.5 154,-38.5"/>
<text text-anchor="middle" x="183.5" y="-45.5" font-family="Helvetica,sans-Serif" font-size="10.00">test_fact</text>
</a>
</g>
</g>
<!-- Node1&#45;&gt;Node6 -->
<g id="edge6" class="edge">
<title>Node1&#45;&gt;Node6</title>
<path fill="none" stroke="midnightblue" d="M110.01,-48C121.3,-48 132.98,-48 143.58,-48"/>
<polygon fill="midnightblue" stroke="midnightblue" points="143.78,-51.5 153.78,-48 143.78,-44.5 143.78,-51.5"/>
</g>
<!-- Node7 -->
<g id="node7" class="node">
<title>Node7</title>
<g id="a_node7"><a xlink:href="combinatorics_8hpp.html#aedfa862b47420de0d171586777f5fa5e" target="_top" xlink:title=" ">
<polygon fill="white" stroke="black" points="257,-0.5 257,-19.5 323,-19.5 323,-0.5 257,-0.5"/>
<text text-anchor="middle" x="290" y="-7.5" font-family="Helvetica,sans-Serif" font-size="10.00">test_perm</text>
</a>
</g>
</g>
<!-- Node1&#45;&gt;Node7 -->
<g id="edge8" class="edge">
<title>Node1&#45;&gt;Node7</title>
<path fill="none" stroke="midnightblue" d="M98,-38.44C113.09,-35.19 130.26,-31.7 146,-29 179.74,-23.2 218.23,-18.18 246.77,-14.76"/>
<polygon fill="midnightblue" stroke="midnightblue" points="247.29,-18.22 256.81,-13.57 246.46,-11.27 247.29,-18.22"/>
</g>
<!-- Node3 -->
<g id="node3" class="node">
<title>Node3</title>
<g id="a_node3"><a xlink:href="combinatorics_8hpp.html#a4d8eda9d63610214a1eb9b92a51443d1" target="_top" xlink:title=" ">
<polygon fill="white" stroke="black" points="264.5,-76.5 264.5,-95.5 315.5,-95.5 315.5,-76.5 264.5,-76.5"/>
<text text-anchor="middle" x="290" y="-83.5" font-family="Helvetica,sans-Serif" font-size="10.00">choose</text>
</a>
</g>
</g>
<!-- Node2&#45;&gt;Node3 -->
<g id="edge2" class="edge">
<title>Node2&#45;&gt;Node3</title>
<path fill="none" stroke="midnightblue" d="M221.05,-86C231.82,-86 243.57,-86 254.23,-86"/>
<polygon fill="midnightblue" stroke="midnightblue" points="254.44,-89.5 264.44,-86 254.44,-82.5 254.44,-89.5"/>
</g>
<!-- Node4 -->
<g id="node4" class="node">
<title>Node4</title>
<g id="a_node4"><a xlink:href="combinatorics_8hpp.html#aed30b4e386e3e22247cd9d6aecc1e88f" target="_top" xlink:title=" ">
<polygon fill="white" stroke="black" points="359,-38.5 359,-57.5 394,-57.5 394,-38.5 359,-38.5"/>
<text text-anchor="middle" x="376.5" y="-45.5" font-family="Helvetica,sans-Serif" font-size="10.00">fact</text>
</a>
</g>
</g>
<!-- Node3&#45;&gt;Node4 -->
<g id="edge3" class="edge">
<title>Node3&#45;&gt;Node4</title>
<path fill="none" stroke="midnightblue" d="M312.32,-76.41C323.63,-71.33 337.61,-65.04 349.54,-59.67"/>
<polygon fill="midnightblue" stroke="midnightblue" points="351.3,-62.72 358.98,-55.43 348.43,-56.34 351.3,-62.72"/>
</g>
<!-- Node5 -->
<g id="node5" class="node">
<title>Node5</title>
<g id="a_node5"><a xlink:href="combinatorics_8hpp.html#ada068dc4f9ea18a98ff58cb8b0be93c9" target="_top" xlink:title=" ">
<polygon fill="white" stroke="black" points="430,-38.5 430,-57.5 472,-57.5 472,-38.5 430,-38.5"/>
<text text-anchor="middle" x="451" y="-45.5" font-family="Helvetica,sans-Serif" font-size="10.00">perm</text>
</a>
</g>
</g>
<!-- Node3&#45;&gt;Node5 -->
<g id="edge5" class="edge">
<title>Node3&#45;&gt;Node5</title>
<path fill="none" stroke="midnightblue" d="M315.78,-82.46C336.78,-79.22 367.6,-73.87 394,-67 402.71,-64.73 412.03,-61.79 420.51,-58.9"/>
<polygon fill="midnightblue" stroke="midnightblue" points="421.72,-62.18 430,-55.57 419.4,-55.58 421.72,-62.18"/>
</g>
<!-- Node4&#45;&gt;Node5 -->
<g id="edge4" class="edge">
<title>Node4&#45;&gt;Node5</title>
<path fill="none" stroke="midnightblue" d="M394.32,-48C401.87,-48 411.02,-48 419.7,-48"/>
<polygon fill="midnightblue" stroke="midnightblue" points="419.93,-51.5 429.93,-48 419.93,-44.5 419.93,-51.5"/>
</g>
<!-- Node6&#45;&gt;Node4 -->
<g id="edge7" class="edge">
<title>Node6&#45;&gt;Node4</title>
<path fill="none" stroke="midnightblue" d="M213.09,-48C249.78,-48 312.94,-48 348.73,-48"/>
<polygon fill="midnightblue" stroke="midnightblue" points="348.89,-51.5 358.89,-48 348.89,-44.5 348.89,-51.5"/>
</g>
<!-- Node7&#45;&gt;Node5 -->
<g id="edge9" class="edge">
<title>Node7&#45;&gt;Node5</title>
<path fill="none" stroke="midnightblue" d="M323.28,-14.72C343.71,-18.02 370.6,-22.91 394,-29 402.71,-31.27 412.03,-34.21 420.51,-37.1"/>
<polygon fill="midnightblue" stroke="midnightblue" points="419.4,-40.42 430,-40.43 421.72,-33.82 419.4,-40.42"/>
</g>
</g>
</svg>
