<?xml version="1.0" encoding="UTF-8" standalone="no"?>
<!DOCTYPE svg PUBLIC "-//W3C//DTD SVG 1.1//EN"
 "http://www.w3.org/Graphics/SVG/1.1/DTD/svg11.dtd">
<!-- Generated by graphviz version 2.43.0 (0)
 -->
<!-- Title: choose Pages: 1 -->
<svg width="208pt" height="47pt"
 viewBox="0.00 0.00 208.00 47.00" xmlns="http://www.w3.org/2000/svg" xmlns:xlink="http://www.w3.org/1999/xlink">
<g id="graph0" class="graph" transform="scale(1 1) rotate(0) translate(4 43)">
<title>choose</title>
<polygon fill="white" stroke="transparent" points="-4,4 -4,-43 204,-43 204,4 -4,4"/>
<!-- Node1 -->
<g id="node1" class="node">
<title>Node1</title>
<g id="a_node1"><a xlink:title=" ">
<polygon fill="#bfbfbf" stroke="black" points="0,-0.5 0,-19.5 51,-19.5 51,-0.5 0,-0.5"/>
<text text-anchor="middle" x="25.5" y="-7.5" font-family="Helvetica,sans-Serif" font-size="10.00">choose</text>
</a>
</g>
</g>
<!-- Node2 -->
<g id="node2" class="node">
<title>Node2</title>
<g id="a_node2"><a xlink:href="combinatorics_8hpp.html#aed30b4e386e3e22247cd9d6aecc1e88f" target="_top" xlink:title=" ">
<polygon fill="white" stroke="black" points="87,-19.5 87,-38.5 122,-38.5 122,-19.5 87,-19.5"/>
<text text-anchor="middle" x="104.5" y="-26.5" font-family="Helvetica,sans-Serif" font-size="10.00">fact</text>
</a>
</g>
</g>
<!-- Node1&#45;&gt;Node2 -->
<g id="edge1" class="edge">
<title>Node1&#45;&gt;Node2</title>
<path fill="none" stroke="midnightblue" d="M51.29,-16.12C59.45,-18.13 68.55,-20.38 76.85,-22.42"/>
<polygon fill="midnightblue" stroke="midnightblue" points="76.24,-25.88 86.79,-24.88 77.92,-19.08 76.24,-25.88"/>
</g>
<!-- Node3 -->
<g id="node3" class="node">
<title>Node3</title>
<g id="a_node3"><a xlink:href="combinatorics_8hpp.html#ada068dc4f9ea18a98ff58cb8b0be93c9" target="_top" xlink:title=" ">
<polygon fill="white" stroke="black" points="158,-0.5 158,-19.5 200,-19.5 200,-0.5 158,-0.5"/>
<text text-anchor="middle" x="179" y="-7.5" font-family="Helvetica,sans-Serif" font-size="10.00">perm</text>
</a>
</g>
</g>
<!-- Node1&#45;&gt;Node3 -->
<g id="edge3" class="edge">
<title>Node1&#45;&gt;Node3</title>
<path fill="none" stroke="midnightblue" d="M51.18,-10C77.5,-10 119.21,-10 147.55,-10"/>
<polygon fill="midnightblue" stroke="midnightblue" points="147.7,-13.5 157.7,-10 147.7,-6.5 147.7,-13.5"/>
</g>
<!-- Node2&#45;&gt;Node3 -->
<g id="edge2" class="edge">
<title>Node2&#45;&gt;Node3</title>
<path fill="none" stroke="midnightblue" d="M122.32,-24.59C129.95,-22.59 139.22,-20.16 147.99,-17.86"/>
<polygon fill="midnightblue" stroke="midnightblue" points="149.14,-21.18 157.93,-15.26 147.36,-14.41 149.14,-21.18"/>
</g>
</g>
</svg>
