<?xml version="1.0" encoding="UTF-8" standalone="no"?>
<!DOCTYPE svg PUBLIC "-//W3C//DTD SVG 1.1//EN"
 "http://www.w3.org/Graphics/SVG/1.1/DTD/svg11.dtd">
<!-- Generated by graphviz version 2.43.0 (0)
 -->
<!-- Title: fact Pages: 1 -->
<svg width="806pt" height="142pt"
 viewBox="0.00 0.00 806.00 142.00" xmlns="http://www.w3.org/2000/svg" xmlns:xlink="http://www.w3.org/1999/xlink">
<g id="graph0" class="graph" transform="scale(1 1) rotate(0) translate(4 138)">
<title>fact</title>
<polygon fill="white" stroke="transparent" points="-4,4 -4,-138 802,-138 802,4 -4,4"/>
<!-- Node1 -->
<g id="node1" class="node">
<title>Node1</title>
<g id="a_node1"><a xlink:title=" ">
<polygon fill="#bfbfbf" stroke="black" points="763,-76.5 763,-95.5 798,-95.5 798,-76.5 763,-76.5"/>
<text text-anchor="middle" x="780.5" y="-83.5" font-family="Helvetica,sans-Serif" font-size="10.00">fact</text>
</a>
</g>
</g>
<!-- Node2 -->
<g id="node2" class="node">
<title>Node2</title>
<g id="a_node2"><a xlink:href="combinatorics_8hpp.html#a4d8eda9d63610214a1eb9b92a51443d1" target="_top" xlink:title=" ">
<polygon fill="white" stroke="black" points="672,-114.5 672,-133.5 723,-133.5 723,-114.5 672,-114.5"/>
<text text-anchor="middle" x="697.5" y="-121.5" font-family="Helvetica,sans-Serif" font-size="10.00">choose</text>
</a>
</g>
</g>
<!-- Node1&#45;&gt;Node2 -->
<g id="edge1" class="edge">
<title>Node1&#45;&gt;Node2</title>
<path fill="none" stroke="midnightblue" d="M753.45,-98.22C742.29,-103.45 729.46,-109.48 719,-114.38"/>
<polygon fill="midnightblue" stroke="midnightblue" points="755.15,-101.29 762.72,-93.87 752.18,-94.95 755.15,-101.29"/>
</g>
<!-- Node8 -->
<g id="node8" class="node">
<title>Node8</title>
<g id="a_node8"><a xlink:href="combinatorics_8hpp.html#a1da351da5f459306dd3182e8e0e3a5bc" target="_top" xlink:title=" ">
<polygon fill="white" stroke="black" points="668,-76.5 668,-95.5 727,-95.5 727,-76.5 668,-76.5"/>
<text text-anchor="middle" x="697.5" y="-83.5" font-family="Helvetica,sans-Serif" font-size="10.00">test_fact</text>
</a>
</g>
</g>
<!-- Node1&#45;&gt;Node8 -->
<g id="edge7" class="edge">
<title>Node1&#45;&gt;Node8</title>
<path fill="none" stroke="midnightblue" d="M752.57,-86C744.38,-86 735.36,-86 727.07,-86"/>
<polygon fill="midnightblue" stroke="midnightblue" points="752.72,-89.5 762.72,-86 752.72,-82.5 752.72,-89.5"/>
</g>
<!-- Node9 -->
<g id="node9" class="node">
<title>Node9</title>
<g id="a_node9"><a xlink:href="number__theory_8hpp.html#af0753ff92c84e6924e1fd6461e77b16f" target="_top" xlink:title=" ">
<polygon fill="white" stroke="black" points="673,-38.5 673,-57.5 722,-57.5 722,-38.5 673,-38.5"/>
<text text-anchor="middle" x="697.5" y="-45.5" font-family="Helvetica,sans-Serif" font-size="10.00">totient</text>
</a>
</g>
</g>
<!-- Node1&#45;&gt;Node9 -->
<g id="edge9" class="edge">
<title>Node1&#45;&gt;Node9</title>
<path fill="none" stroke="midnightblue" d="M753.45,-73.78C742.29,-68.55 729.46,-62.52 719,-57.62"/>
<polygon fill="midnightblue" stroke="midnightblue" points="752.18,-77.05 762.72,-78.13 755.15,-70.71 752.18,-77.05"/>
</g>
<!-- Node3 -->
<g id="node3" class="node">
<title>Node3</title>
<g id="a_node3"><a xlink:href="combinatorics_8hpp.html#a18ebcc5a7f4095dab1cc6d9bacd8d607" target="_top" xlink:title=" ">
<polygon fill="white" stroke="black" points="551.5,-114.5 551.5,-133.5 626.5,-133.5 626.5,-114.5 551.5,-114.5"/>
<text text-anchor="middle" x="589" y="-121.5" font-family="Helvetica,sans-Serif" font-size="10.00">test_choose</text>
</a>
</g>
</g>
<!-- Node2&#45;&gt;Node3 -->
<g id="edge2" class="edge">
<title>Node2&#45;&gt;Node3</title>
<path fill="none" stroke="midnightblue" d="M661.54,-124C650.37,-124 637.98,-124 626.69,-124"/>
<polygon fill="midnightblue" stroke="midnightblue" points="661.8,-127.5 671.8,-124 661.8,-120.5 661.8,-127.5"/>
</g>
<!-- Node4 -->
<g id="node4" class="node">
<title>Node4</title>
<g id="a_node4"><a xlink:href="combinatorics_8hpp.html#a0c5a7372e7932ba5830e38929ec38c25" target="_top" xlink:title=" ">
<polygon fill="white" stroke="black" points="400,-76.5 400,-95.5 510,-95.5 510,-76.5 400,-76.5"/>
<text text-anchor="middle" x="455" y="-83.5" font-family="Helvetica,sans-Serif" font-size="10.00">test_combinatorics</text>
</a>
</g>
</g>
<!-- Node3&#45;&gt;Node4 -->
<g id="edge3" class="edge">
<title>Node3&#45;&gt;Node4</title>
<path fill="none" stroke="midnightblue" d="M544.96,-111.61C526.88,-106.41 506.18,-100.45 489.3,-95.59"/>
<polygon fill="midnightblue" stroke="midnightblue" points="544.11,-115.01 554.69,-114.41 546.05,-108.28 544.11,-115.01"/>
</g>
<!-- Node5 -->
<g id="node5" class="node">
<title>Node5</title>
<g id="a_node5"><a xlink:href="test_8cpp.html#aa1c715cac916839a95e25b65b4071c4a" target="_top" xlink:title=" ">
<polygon fill="white" stroke="black" points="160,-57.5 160,-76.5 213,-76.5 213,-57.5 160,-57.5"/>
<text text-anchor="middle" x="186.5" y="-64.5" font-family="Helvetica,sans-Serif" font-size="10.00">test_all</text>
</a>
</g>
</g>
<!-- Node4&#45;&gt;Node5 -->
<g id="edge4" class="edge">
<title>Node4&#45;&gt;Node5</title>
<path fill="none" stroke="midnightblue" d="M389.45,-81.4C332.78,-77.36 253.31,-71.69 213.04,-68.82"/>
<polygon fill="midnightblue" stroke="midnightblue" points="389.52,-84.91 399.75,-82.13 390.02,-77.93 389.52,-84.91"/>
</g>
<!-- Node6 -->
<g id="node6" class="node">
<title>Node6</title>
<g id="a_node6"><a xlink:href="test_8cpp.html#af095a232149097b5605064623a9345ac" target="_top" xlink:title=" ">
<polygon fill="white" stroke="black" points="77,-57.5 77,-76.5 124,-76.5 124,-57.5 77,-57.5"/>
<text text-anchor="middle" x="100.5" y="-64.5" font-family="Helvetica,sans-Serif" font-size="10.00">main2</text>
</a>
</g>
</g>
<!-- Node5&#45;&gt;Node6 -->
<g id="edge5" class="edge">
<title>Node5&#45;&gt;Node6</title>
<path fill="none" stroke="midnightblue" d="M149.59,-67C140.96,-67 131.99,-67 124.16,-67"/>
<polygon fill="midnightblue" stroke="midnightblue" points="149.84,-70.5 159.84,-67 149.84,-63.5 149.84,-70.5"/>
</g>
<!-- Node7 -->
<g id="node7" class="node">
<title>Node7</title>
<g id="a_node7"><a xlink:href="main_8hpp.html#a0ddf1224851353fc92bfbff6f499fa97" target="_top" xlink:title=" ">
<polygon fill="white" stroke="black" points="0,-57.5 0,-76.5 41,-76.5 41,-57.5 0,-57.5"/>
<text text-anchor="middle" x="20.5" y="-64.5" font-family="Helvetica,sans-Serif" font-size="10.00">main</text>
</a>
</g>
</g>
<!-- Node6&#45;&gt;Node7 -->
<g id="edge6" class="edge">
<title>Node6&#45;&gt;Node7</title>
<path fill="none" stroke="midnightblue" d="M66.66,-67C57.96,-67 48.84,-67 41.1,-67"/>
<polygon fill="midnightblue" stroke="midnightblue" points="66.94,-70.5 76.94,-67 66.94,-63.5 66.94,-70.5"/>
</g>
<!-- Node8&#45;&gt;Node4 -->
<g id="edge8" class="edge">
<title>Node8&#45;&gt;Node4</title>
<path fill="none" stroke="midnightblue" d="M657.84,-86C617.94,-86 555.36,-86 510.46,-86"/>
<polygon fill="midnightblue" stroke="midnightblue" points="657.97,-89.5 667.97,-86 657.97,-82.5 657.97,-89.5"/>
</g>
<!-- Node10 -->
<g id="node10" class="node">
<title>Node10</title>
<g id="a_node10"><a xlink:href="number__theory_8hpp.html#a8a159e82910edb282085d6879d8c382d" target="_top" xlink:title=" ">
<polygon fill="white" stroke="black" points="546,-38.5 546,-57.5 632,-57.5 632,-38.5 546,-38.5"/>
<text text-anchor="middle" x="589" y="-45.5" font-family="Helvetica,sans-Serif" font-size="10.00">primitive_root</text>
</a>
</g>
</g>
<!-- Node9&#45;&gt;Node10 -->
<g id="edge10" class="edge">
<title>Node9&#45;&gt;Node10</title>
<path fill="none" stroke="midnightblue" d="M662.74,-48C652.98,-48 642.21,-48 632.01,-48"/>
<polygon fill="midnightblue" stroke="midnightblue" points="662.86,-51.5 672.86,-48 662.86,-44.5 662.86,-51.5"/>
</g>
<!-- Node13 -->
<g id="node13" class="node">
<title>Node13</title>
<g id="a_node13"><a xlink:href="number__theory_8hpp.html#a8ae320acad5e35d58ca5ad7adc6ddd78" target="_top" xlink:title=" ">
<polygon fill="white" stroke="black" points="418.5,-0.5 418.5,-19.5 491.5,-19.5 491.5,-0.5 418.5,-0.5"/>
<text text-anchor="middle" x="455" y="-7.5" font-family="Helvetica,sans-Serif" font-size="10.00">test_totient</text>
</a>
</g>
</g>
<!-- Node9&#45;&gt;Node13 -->
<g id="edge14" class="edge">
<title>Node9&#45;&gt;Node13</title>
<path fill="none" stroke="midnightblue" d="M663,-36.89C653.1,-33.95 642.2,-31.04 632,-29 583.93,-19.41 527.44,-14.39 491.68,-11.97"/>
<polygon fill="midnightblue" stroke="midnightblue" points="662.27,-40.34 672.86,-39.93 664.33,-33.64 662.27,-40.34"/>
</g>
<!-- Node11 -->
<g id="node11" class="node">
<title>Node11</title>
<g id="a_node11"><a xlink:href="number__theory_8hpp.html#a0ff115471f41e78245b5dc48eaf8032f" target="_top" xlink:title=" ">
<polygon fill="white" stroke="black" points="400,-38.5 400,-57.5 510,-57.5 510,-38.5 400,-38.5"/>
<text text-anchor="middle" x="455" y="-45.5" font-family="Helvetica,sans-Serif" font-size="10.00">test_primitive_root</text>
</a>
</g>
</g>
<!-- Node10&#45;&gt;Node11 -->
<g id="edge11" class="edge">
<title>Node10&#45;&gt;Node11</title>
<path fill="none" stroke="midnightblue" d="M535.82,-48C527.43,-48 518.72,-48 510.28,-48"/>
<polygon fill="midnightblue" stroke="midnightblue" points="535.87,-51.5 545.87,-48 535.87,-44.5 535.87,-51.5"/>
</g>
<!-- Node12 -->
<g id="node12" class="node">
<title>Node12</title>
<g id="a_node12"><a xlink:href="number__theory_8hpp.html#aed36f6b8b9706133e9b5302b1618e9ef" target="_top" xlink:title=" ">
<polygon fill="white" stroke="black" points="249,-38.5 249,-57.5 364,-57.5 364,-38.5 249,-38.5"/>
<text text-anchor="middle" x="306.5" y="-45.5" font-family="Helvetica,sans-Serif" font-size="10.00">test_number_theory</text>
</a>
</g>
</g>
<!-- Node11&#45;&gt;Node12 -->
<g id="edge12" class="edge">
<title>Node11&#45;&gt;Node12</title>
<path fill="none" stroke="midnightblue" d="M389.69,-48C381.25,-48 372.66,-48 364.36,-48"/>
<polygon fill="midnightblue" stroke="midnightblue" points="389.87,-51.5 399.87,-48 389.87,-44.5 389.87,-51.5"/>
</g>
<!-- Node12&#45;&gt;Node5 -->
<g id="edge13" class="edge">
<title>Node12&#45;&gt;Node5</title>
<path fill="none" stroke="midnightblue" d="M238.94,-58.72C229.79,-60.19 220.89,-61.62 213.13,-62.87"/>
<polygon fill="midnightblue" stroke="midnightblue" points="239.6,-62.16 248.92,-57.11 238.49,-55.24 239.6,-62.16"/>
</g>
<!-- Node13&#45;&gt;Node12 -->
<g id="edge15" class="edge">
<title>Node13&#45;&gt;Node12</title>
<path fill="none" stroke="midnightblue" d="M408.35,-21.84C387.72,-27.19 363.68,-33.43 344.24,-38.47"/>
<polygon fill="midnightblue" stroke="midnightblue" points="409.36,-25.19 418.16,-19.3 407.6,-18.42 409.36,-25.19"/>
</g>
</g>
</svg>
