<?xml version="1.0" encoding="UTF-8" standalone="no"?>
<!DOCTYPE svg PUBLIC "-//W3C//DTD SVG 1.1//EN"
 "http://www.w3.org/Graphics/SVG/1.1/DTD/svg11.dtd">
<!-- Generated by graphviz version 2.43.0 (0)
 -->
<!-- Title: /home/ram/OmniTemplate/core.hpp Pages: 1 -->
<svg width="2338pt" height="374pt"
 viewBox="0.00 0.00 2338.04 374.00" xmlns="http://www.w3.org/2000/svg" xmlns:xlink="http://www.w3.org/1999/xlink">
<g id="graph0" class="graph" transform="scale(1 1) rotate(0) translate(4 370)">
<title>/home/ram/OmniTemplate/core.hpp</title>
<polygon fill="white" stroke="transparent" points="-4,4 -4,-370 2334.04,-370 2334.04,4 -4,4"/>
<!-- Node1 -->
<g id="node1" class="node">
<title>Node1</title>
<g id="a_node1"><a xlink:title=" ">
<polygon fill="#bfbfbf" stroke="black" points="914.04,-335.5 914.04,-365.5 1058.04,-365.5 1058.04,-335.5 914.04,-335.5"/>
<text text-anchor="start" x="922.04" y="-353.5" font-family="Helvetica,sans-Serif" font-size="10.00">/home/ram/OmniTemplate</text>
<text text-anchor="middle" x="986.04" y="-342.5" font-family="Helvetica,sans-Serif" font-size="10.00">/core.hpp</text>
</a>
</g>
</g>
<!-- Node2 -->
<g id="node2" class="node">
<title>Node2</title>
<g id="a_node2"><a xlink:href="2sat_8hpp.html" target="_top" xlink:title=" ">
<polygon fill="white" stroke="black" points="379.04,-134.5 379.04,-164.5 523.04,-164.5 523.04,-134.5 379.04,-134.5"/>
<text text-anchor="start" x="387.04" y="-152.5" font-family="Helvetica,sans-Serif" font-size="10.00">/home/ram/OmniTemplate</text>
<text text-anchor="middle" x="451.04" y="-141.5" font-family="Helvetica,sans-Serif" font-size="10.00">/2sat.hpp</text>
</a>
</g>
</g>
<!-- Node1&#45;&gt;Node2 -->
<g id="edge1" class="edge">
<title>Node1&#45;&gt;Node2</title>
<path fill="none" stroke="midnightblue" d="M903.73,-346.64C800.33,-341.82 629.78,-329.42 575.04,-299 526.14,-271.82 532.22,-243.67 496.04,-201 485.57,-188.64 473.31,-174.93 464.23,-164.92"/>
<polygon fill="midnightblue" stroke="midnightblue" points="903.69,-350.15 913.84,-347.1 904,-343.15 903.69,-350.15"/>
</g>
<!-- Node3 -->
<g id="node3" class="node">
<title>Node3</title>
<g id="a_node3"><a xlink:href="template_8hpp.html" target="_top" xlink:title=" ">
<polygon fill="white" stroke="black" points="1291.04,-67.5 1291.04,-97.5 1435.04,-97.5 1435.04,-67.5 1291.04,-67.5"/>
<text text-anchor="start" x="1299.04" y="-85.5" font-family="Helvetica,sans-Serif" font-size="10.00">/home/ram/OmniTemplate</text>
<text text-anchor="middle" x="1363.04" y="-74.5" font-family="Helvetica,sans-Serif" font-size="10.00">/template.hpp</text>
</a>
</g>
</g>
<!-- Node1&#45;&gt;Node3 -->
<g id="edge51" class="edge">
<title>Node1&#45;&gt;Node3</title>
<path fill="none" stroke="midnightblue" d="M903.51,-347.84C695.94,-343.25 163.43,-328.7 89.04,-299 37.09,-278.26 -23.61,-245.69 10.04,-201 87.65,-97.93 1021.58,-85.22 1290.83,-83.69"/>
<polygon fill="midnightblue" stroke="midnightblue" points="903.66,-351.35 913.74,-348.07 903.82,-344.35 903.66,-351.35"/>
</g>
<!-- Node5 -->
<g id="node5" class="node">
<title>Node5</title>
<g id="a_node5"><a xlink:href="my__int_8hpp.html" target="_top" xlink:title=" ">
<polygon fill="white" stroke="black" points="119.04,-268.5 119.04,-298.5 263.04,-298.5 263.04,-268.5 119.04,-268.5"/>
<text text-anchor="start" x="127.04" y="-286.5" font-family="Helvetica,sans-Serif" font-size="10.00">/home/ram/OmniTemplate</text>
<text text-anchor="middle" x="191.04" y="-275.5" font-family="Helvetica,sans-Serif" font-size="10.00">/my_int.hpp</text>
</a>
</g>
</g>
<!-- Node1&#45;&gt;Node5 -->
<g id="edge4" class="edge">
<title>Node1&#45;&gt;Node5</title>
<path fill="none" stroke="midnightblue" d="M903.69,-346.75C769.06,-341.46 493.95,-327.75 263.04,-299 261.77,-298.84 260.48,-298.68 259.19,-298.5"/>
<polygon fill="midnightblue" stroke="midnightblue" points="903.8,-350.26 913.93,-347.15 904.07,-343.26 903.8,-350.26"/>
</g>
<!-- Node6 -->
<g id="node6" class="node">
<title>Node6</title>
<g id="a_node6"><a xlink:href="range_8hpp.html" target="_top" xlink:title=" ">
<polygon fill="white" stroke="black" points="281.04,-268.5 281.04,-298.5 425.04,-298.5 425.04,-268.5 281.04,-268.5"/>
<text text-anchor="start" x="289.04" y="-286.5" font-family="Helvetica,sans-Serif" font-size="10.00">/home/ram/OmniTemplate</text>
<text text-anchor="middle" x="353.04" y="-275.5" font-family="Helvetica,sans-Serif" font-size="10.00">/range.hpp</text>
</a>
</g>
</g>
<!-- Node1&#45;&gt;Node6 -->
<g id="edge6" class="edge">
<title>Node1&#45;&gt;Node6</title>
<path fill="none" stroke="midnightblue" d="M903.79,-344.28C794.93,-336.61 597.47,-320.81 430.04,-299 428.54,-298.8 427.03,-298.6 425.5,-298.39"/>
<polygon fill="midnightblue" stroke="midnightblue" points="903.82,-347.79 914.04,-344.99 904.31,-340.8 903.82,-347.79"/>
</g>
<!-- Node10 -->
<g id="node10" class="node">
<title>Node10</title>
<g id="a_node10"><a xlink:href="graph__theory_8hpp.html" target="_top" xlink:title=" ">
<polygon fill="white" stroke="black" points="543.04,-201.5 543.04,-231.5 687.04,-231.5 687.04,-201.5 543.04,-201.5"/>
<text text-anchor="start" x="551.04" y="-219.5" font-family="Helvetica,sans-Serif" font-size="10.00">/home/ram/OmniTemplate</text>
<text text-anchor="middle" x="615.04" y="-208.5" font-family="Helvetica,sans-Serif" font-size="10.00">/graph_theory.hpp</text>
</a>
</g>
</g>
<!-- Node1&#45;&gt;Node10 -->
<g id="edge15" class="edge">
<title>Node1&#45;&gt;Node10</title>
<path fill="none" stroke="midnightblue" d="M903.81,-344.85C792.88,-337.73 606.69,-322.42 586.04,-299 568.86,-279.51 588.15,-249.14 602.46,-231.5"/>
<polygon fill="midnightblue" stroke="midnightblue" points="903.77,-348.36 913.97,-345.49 904.21,-341.37 903.77,-348.36"/>
</g>
<!-- Node11 -->
<g id="node11" class="node">
<title>Node11</title>
<g id="a_node11"><a xlink:href="dsu_8hpp.html" target="_top" xlink:title=" ">
<polygon fill="white" stroke="black" points="595.04,-268.5 595.04,-298.5 739.04,-298.5 739.04,-268.5 595.04,-268.5"/>
<text text-anchor="start" x="603.04" y="-286.5" font-family="Helvetica,sans-Serif" font-size="10.00">/home/ram/OmniTemplate</text>
<text text-anchor="middle" x="667.04" y="-275.5" font-family="Helvetica,sans-Serif" font-size="10.00">/dsu.hpp</text>
</a>
</g>
</g>
<!-- Node1&#45;&gt;Node11 -->
<g id="edge18" class="edge">
<title>Node1&#45;&gt;Node11</title>
<path fill="none" stroke="midnightblue" d="M907.27,-333.45C854.76,-322.75 786.39,-308.82 736.02,-298.55"/>
<polygon fill="midnightblue" stroke="midnightblue" points="906.72,-336.91 917.22,-335.48 908.12,-330.05 906.72,-336.91"/>
</g>
<!-- Node12 -->
<g id="node12" class="node">
<title>Node12</title>
<g id="a_node12"><a xlink:href="linear__algebra_8hpp.html" target="_top" xlink:title=" ">
<polygon fill="white" stroke="black" points="757.04,-268.5 757.04,-298.5 901.04,-298.5 901.04,-268.5 757.04,-268.5"/>
<text text-anchor="start" x="765.04" y="-286.5" font-family="Helvetica,sans-Serif" font-size="10.00">/home/ram/OmniTemplate</text>
<text text-anchor="middle" x="829.04" y="-275.5" font-family="Helvetica,sans-Serif" font-size="10.00">/linear_algebra.hpp</text>
</a>
</g>
</g>
<!-- Node1&#45;&gt;Node12 -->
<g id="edge21" class="edge">
<title>Node1&#45;&gt;Node12</title>
<path fill="none" stroke="midnightblue" d="M942.67,-331.54C917.55,-321.14 886.38,-308.24 863.04,-298.58"/>
<polygon fill="midnightblue" stroke="midnightblue" points="941.4,-334.8 951.98,-335.4 944.08,-328.34 941.4,-334.8"/>
</g>
<!-- Node13 -->
<g id="node13" class="node">
<title>Node13</title>
<g id="a_node13"><a xlink:href="big__integer_8hpp.html" target="_top" xlink:title=" ">
<polygon fill="white" stroke="black" points="655.04,-134.5 655.04,-164.5 799.04,-164.5 799.04,-134.5 655.04,-134.5"/>
<text text-anchor="start" x="663.04" y="-152.5" font-family="Helvetica,sans-Serif" font-size="10.00">/home/ram/OmniTemplate</text>
<text text-anchor="middle" x="727.04" y="-141.5" font-family="Helvetica,sans-Serif" font-size="10.00">/big_integer.hpp</text>
</a>
</g>
</g>
<!-- Node1&#45;&gt;Node13 -->
<g id="edge24" class="edge">
<title>Node1&#45;&gt;Node13</title>
<path fill="none" stroke="midnightblue" d="M968.05,-327.35C953.43,-310.09 931.74,-286.11 910.04,-268 858.45,-224.93 790.13,-184.95 753.29,-164.58"/>
<polygon fill="midnightblue" stroke="midnightblue" points="965.53,-329.79 974.62,-335.22 970.9,-325.3 965.53,-329.79"/>
</g>
<!-- Node14 -->
<g id="node14" class="node">
<title>Node14</title>
<g id="a_node14"><a xlink:href="combinatorics_8hpp.html" target="_top" xlink:title=" ">
<polygon fill="white" stroke="black" points="817.04,-134.5 817.04,-164.5 961.04,-164.5 961.04,-134.5 817.04,-134.5"/>
<text text-anchor="start" x="825.04" y="-152.5" font-family="Helvetica,sans-Serif" font-size="10.00">/home/ram/OmniTemplate</text>
<text text-anchor="middle" x="889.04" y="-141.5" font-family="Helvetica,sans-Serif" font-size="10.00">/combinatorics.hpp</text>
</a>
</g>
</g>
<!-- Node1&#45;&gt;Node14 -->
<g id="edge26" class="edge">
<title>Node1&#45;&gt;Node14</title>
<path fill="none" stroke="midnightblue" d="M983.06,-325.16C978.4,-294.34 967.3,-240.53 943.04,-201 934.25,-186.67 920.32,-173.78 908.81,-164.61"/>
<polygon fill="midnightblue" stroke="midnightblue" points="979.64,-325.98 984.49,-335.4 986.57,-325.01 979.64,-325.98"/>
</g>
<!-- Node15 -->
<g id="node15" class="node">
<title>Node15</title>
<g id="a_node15"><a xlink:href="coroutine_8hpp.html" target="_top" xlink:title=" ">
<polygon fill="white" stroke="black" points="979.04,-134.5 979.04,-164.5 1123.04,-164.5 1123.04,-134.5 979.04,-134.5"/>
<text text-anchor="start" x="987.04" y="-152.5" font-family="Helvetica,sans-Serif" font-size="10.00">/home/ram/OmniTemplate</text>
<text text-anchor="middle" x="1051.04" y="-141.5" font-family="Helvetica,sans-Serif" font-size="10.00">/coroutine.hpp</text>
</a>
</g>
</g>
<!-- Node1&#45;&gt;Node15 -->
<g id="edge28" class="edge">
<title>Node1&#45;&gt;Node15</title>
<path fill="none" stroke="midnightblue" d="M991.97,-325.54C999.51,-295.93 1013.46,-244.17 1029.04,-201 1033.52,-188.59 1039.57,-174.88 1044.19,-164.88"/>
<polygon fill="midnightblue" stroke="midnightblue" points="988.53,-324.83 989.48,-335.39 995.32,-326.54 988.53,-324.83"/>
</g>
<!-- Node16 -->
<g id="node16" class="node">
<title>Node16</title>
<g id="a_node16"><a xlink:href="fft_8hpp.html" target="_top" xlink:title=" ">
<polygon fill="white" stroke="black" points="1141.04,-134.5 1141.04,-164.5 1285.04,-164.5 1285.04,-134.5 1141.04,-134.5"/>
<text text-anchor="start" x="1149.04" y="-152.5" font-family="Helvetica,sans-Serif" font-size="10.00">/home/ram/OmniTemplate</text>
<text text-anchor="middle" x="1213.04" y="-141.5" font-family="Helvetica,sans-Serif" font-size="10.00">/fft.hpp</text>
</a>
</g>
</g>
<!-- Node1&#45;&gt;Node16 -->
<g id="edge30" class="edge">
<title>Node1&#45;&gt;Node16</title>
<path fill="none" stroke="midnightblue" d="M1000.94,-326.55C1006.25,-318.03 1012.13,-308.2 1017.04,-299 1039.62,-256.72 1026.38,-233.02 1062.04,-201 1076.29,-188.21 1119.32,-174.48 1155.82,-164.57"/>
<polygon fill="midnightblue" stroke="midnightblue" points="997.86,-324.86 995.47,-335.18 1003.78,-328.61 997.86,-324.86"/>
</g>
<!-- Node17 -->
<g id="node17" class="node">
<title>Node17</title>
<g id="a_node17"><a xlink:href="geometry_8hpp.html" target="_top" xlink:title=" ">
<polygon fill="white" stroke="black" points="1071.04,-201.5 1071.04,-231.5 1215.04,-231.5 1215.04,-201.5 1071.04,-201.5"/>
<text text-anchor="start" x="1079.04" y="-219.5" font-family="Helvetica,sans-Serif" font-size="10.00">/home/ram/OmniTemplate</text>
<text text-anchor="middle" x="1143.04" y="-208.5" font-family="Helvetica,sans-Serif" font-size="10.00">/geometry.hpp</text>
</a>
</g>
</g>
<!-- Node1&#45;&gt;Node17 -->
<g id="edge32" class="edge">
<title>Node1&#45;&gt;Node17</title>
<path fill="none" stroke="midnightblue" d="M1015.99,-329.59C1028.92,-320.64 1044.04,-309.7 1057.04,-299 1083.89,-276.91 1112.77,-248.47 1129.3,-231.69"/>
<polygon fill="midnightblue" stroke="midnightblue" points="1013.71,-326.91 1007.43,-335.44 1017.66,-332.69 1013.71,-326.91"/>
</g>
<!-- Node18 -->
<g id="node18" class="node">
<title>Node18</title>
<g id="a_node18"><a xlink:href="main_8hpp.html" target="_top" xlink:title=" ">
<polygon fill="white" stroke="black" points="1341.04,-134.5 1341.04,-164.5 1485.04,-164.5 1485.04,-134.5 1341.04,-134.5"/>
<text text-anchor="start" x="1349.04" y="-152.5" font-family="Helvetica,sans-Serif" font-size="10.00">/home/ram/OmniTemplate</text>
<text text-anchor="middle" x="1413.04" y="-141.5" font-family="Helvetica,sans-Serif" font-size="10.00">/main.hpp</text>
</a>
</g>
</g>
<!-- Node1&#45;&gt;Node18 -->
<g id="edge34" class="edge">
<title>Node1&#45;&gt;Node18</title>
<path fill="none" stroke="midnightblue" d="M1024.56,-330.83C1083.48,-302.36 1199.61,-246.6 1299.04,-201 1326.39,-188.46 1357.65,-174.65 1380.51,-164.64"/>
<polygon fill="midnightblue" stroke="midnightblue" points="1022.75,-327.82 1015.27,-335.32 1025.8,-334.12 1022.75,-327.82"/>
</g>
<!-- Node19 -->
<g id="node19" class="node">
<title>Node19</title>
<g id="a_node19"><a xlink:href="modulo_8hpp.html" target="_top" xlink:title=" ">
<polygon fill="white" stroke="black" points="1240.04,-268.5 1240.04,-298.5 1384.04,-298.5 1384.04,-268.5 1240.04,-268.5"/>
<text text-anchor="start" x="1248.04" y="-286.5" font-family="Helvetica,sans-Serif" font-size="10.00">/home/ram/OmniTemplate</text>
<text text-anchor="middle" x="1312.04" y="-275.5" font-family="Helvetica,sans-Serif" font-size="10.00">/modulo.hpp</text>
</a>
</g>
</g>
<!-- Node1&#45;&gt;Node19 -->
<g id="edge36" class="edge">
<title>Node1&#45;&gt;Node19</title>
<path fill="none" stroke="midnightblue" d="M1066.21,-333.52C1119.92,-322.81 1189.98,-308.84 1241.55,-298.55"/>
<polygon fill="midnightblue" stroke="midnightblue" points="1065.5,-330.09 1056.38,-335.48 1066.87,-336.95 1065.5,-330.09"/>
</g>
<!-- Node20 -->
<g id="node20" class="node">
<title>Node20</title>
<g id="a_node20"><a xlink:href="number__theory_8hpp.html" target="_top" xlink:title=" ">
<polygon fill="white" stroke="black" points="1324.04,-201.5 1324.04,-231.5 1468.04,-231.5 1468.04,-201.5 1324.04,-201.5"/>
<text text-anchor="start" x="1332.04" y="-219.5" font-family="Helvetica,sans-Serif" font-size="10.00">/home/ram/OmniTemplate</text>
<text text-anchor="middle" x="1396.04" y="-208.5" font-family="Helvetica,sans-Serif" font-size="10.00">/number_theory.hpp</text>
</a>
</g>
</g>
<!-- Node1&#45;&gt;Node20 -->
<g id="edge40" class="edge">
<title>Node1&#45;&gt;Node20</title>
<path fill="none" stroke="midnightblue" d="M1068.67,-344.91C1181.29,-337.8 1371.52,-322.47 1393.04,-299 1409.69,-280.84 1405.1,-249.72 1400.44,-231.64"/>
<polygon fill="midnightblue" stroke="midnightblue" points="1068.13,-341.43 1058.36,-345.55 1068.56,-348.42 1068.13,-341.43"/>
</g>
<!-- Node21 -->
<g id="node21" class="node">
<title>Node21</title>
<g id="a_node21"><a xlink:href="persistent_8hpp.html" target="_top" xlink:title=" ">
<polygon fill="white" stroke="black" points="1486.04,-201.5 1486.04,-231.5 1630.04,-231.5 1630.04,-201.5 1486.04,-201.5"/>
<text text-anchor="start" x="1494.04" y="-219.5" font-family="Helvetica,sans-Serif" font-size="10.00">/home/ram/OmniTemplate</text>
<text text-anchor="middle" x="1558.04" y="-208.5" font-family="Helvetica,sans-Serif" font-size="10.00">/persistent.hpp</text>
</a>
</g>
</g>
<!-- Node1&#45;&gt;Node21 -->
<g id="edge41" class="edge">
<title>Node1&#45;&gt;Node21</title>
<path fill="none" stroke="midnightblue" d="M1068.45,-349.16C1155.78,-346.65 1296.71,-336.4 1412.04,-299 1460.64,-283.24 1511.43,-250.63 1538.42,-231.79"/>
<polygon fill="midnightblue" stroke="midnightblue" points="1068.24,-345.67 1058.34,-349.43 1068.43,-352.67 1068.24,-345.67"/>
</g>
<!-- Node22 -->
<g id="node22" class="node">
<title>Node22</title>
<g id="a_node22"><a xlink:href="queue_8hpp.html" target="_top" xlink:title=" ">
<polygon fill="white" stroke="black" points="1617.04,-134.5 1617.04,-164.5 1761.04,-164.5 1761.04,-134.5 1617.04,-134.5"/>
<text text-anchor="start" x="1625.04" y="-152.5" font-family="Helvetica,sans-Serif" font-size="10.00">/home/ram/OmniTemplate</text>
<text text-anchor="middle" x="1689.04" y="-141.5" font-family="Helvetica,sans-Serif" font-size="10.00">/queue.hpp</text>
</a>
</g>
</g>
<!-- Node1&#45;&gt;Node22 -->
<g id="edge43" class="edge">
<title>Node1&#45;&gt;Node22</title>
<path fill="none" stroke="midnightblue" d="M1068.44,-346.93C1163.65,-342.53 1324.48,-330.7 1459.04,-299 1542.13,-279.43 1573.12,-286.23 1639.04,-232 1661.35,-213.65 1676.43,-182.59 1683.81,-164.58"/>
<polygon fill="midnightblue" stroke="midnightblue" points="1068.13,-343.44 1058.3,-347.38 1068.45,-350.43 1068.13,-343.44"/>
</g>
<!-- Node23 -->
<g id="node23" class="node">
<title>Node23</title>
<g id="a_node23"><a xlink:href="segment__tree_8hpp.html" target="_top" xlink:title=" ">
<polygon fill="white" stroke="black" points="1686.04,-201.5 1686.04,-231.5 1830.04,-231.5 1830.04,-201.5 1686.04,-201.5"/>
<text text-anchor="start" x="1694.04" y="-219.5" font-family="Helvetica,sans-Serif" font-size="10.00">/home/ram/OmniTemplate</text>
<text text-anchor="middle" x="1758.04" y="-208.5" font-family="Helvetica,sans-Serif" font-size="10.00">/segment_tree.hpp</text>
</a>
</g>
</g>
<!-- Node1&#45;&gt;Node23 -->
<g id="edge45" class="edge">
<title>Node1&#45;&gt;Node23</title>
<path fill="none" stroke="midnightblue" d="M1068.35,-350.29C1226.37,-350.68 1566.03,-345.84 1672.04,-299 1705.35,-284.29 1733.71,-250.96 1748.04,-231.79"/>
<polygon fill="midnightblue" stroke="midnightblue" points="1068.22,-346.78 1058.2,-350.25 1068.19,-353.78 1068.22,-346.78"/>
</g>
<!-- Node24 -->
<g id="node24" class="node">
<title>Node24</title>
<g id="a_node24"><a xlink:href="splay__tree_8hpp.html" target="_top" xlink:title=" ">
<polygon fill="white" stroke="black" points="1817.04,-134.5 1817.04,-164.5 1961.04,-164.5 1961.04,-134.5 1817.04,-134.5"/>
<text text-anchor="start" x="1825.04" y="-152.5" font-family="Helvetica,sans-Serif" font-size="10.00">/home/ram/OmniTemplate</text>
<text text-anchor="middle" x="1889.04" y="-141.5" font-family="Helvetica,sans-Serif" font-size="10.00">/splay_tree.hpp</text>
</a>
</g>
</g>
<!-- Node1&#45;&gt;Node24 -->
<g id="edge47" class="edge">
<title>Node1&#45;&gt;Node24</title>
<path fill="none" stroke="midnightblue" d="M1068.72,-347.83C1231.73,-343.87 1589,-331.65 1707.04,-299 1770.46,-281.46 1790.69,-276.61 1839.04,-232 1860.15,-212.53 1875.57,-182.15 1883.34,-164.51"/>
<polygon fill="midnightblue" stroke="midnightblue" points="1068.19,-344.34 1058.27,-348.08 1068.35,-351.34 1068.19,-344.34"/>
</g>
<!-- Node25 -->
<g id="node25" class="node">
<title>Node25</title>
<g id="a_node25"><a xlink:href="string_8hpp.html" target="_top" xlink:title=" ">
<polygon fill="white" stroke="black" points="1886.04,-201.5 1886.04,-231.5 2030.04,-231.5 2030.04,-201.5 1886.04,-201.5"/>
<text text-anchor="start" x="1894.04" y="-219.5" font-family="Helvetica,sans-Serif" font-size="10.00">/home/ram/OmniTemplate</text>
<text text-anchor="middle" x="1958.04" y="-208.5" font-family="Helvetica,sans-Serif" font-size="10.00">/string.hpp</text>
</a>
</g>
</g>
<!-- Node1&#45;&gt;Node25 -->
<g id="edge49" class="edge">
<title>Node1&#45;&gt;Node25</title>
<path fill="none" stroke="midnightblue" d="M1068.39,-350.23C1249.14,-350.9 1675.24,-347.13 1810.04,-299 1832.23,-291.08 1832.79,-280.04 1853.04,-268 1876.34,-254.15 1904.02,-240.96 1925.11,-231.54"/>
<polygon fill="midnightblue" stroke="midnightblue" points="1068.16,-346.73 1058.15,-350.18 1068.13,-353.73 1068.16,-346.73"/>
</g>
<!-- Node26 -->
<g id="node26" class="node">
<title>Node26</title>
<g id="a_node26"><a xlink:href="time_8hpp.html" target="_top" xlink:title=" ">
<polygon fill="white" stroke="black" points="1862.04,-268.5 1862.04,-298.5 2006.04,-298.5 2006.04,-268.5 1862.04,-268.5"/>
<text text-anchor="start" x="1870.04" y="-286.5" font-family="Helvetica,sans-Serif" font-size="10.00">/home/ram/OmniTemplate</text>
<text text-anchor="middle" x="1934.04" y="-275.5" font-family="Helvetica,sans-Serif" font-size="10.00">/time.hpp</text>
</a>
</g>
</g>
<!-- Node1&#45;&gt;Node26 -->
<g id="edge52" class="edge">
<title>Node1&#45;&gt;Node26</title>
<path fill="none" stroke="midnightblue" d="M1068.37,-347.65C1222.04,-343.53 1562.83,-331.3 1848.04,-299 1852.56,-298.49 1857.19,-297.9 1861.86,-297.25"/>
<polygon fill="midnightblue" stroke="midnightblue" points="1067.98,-344.16 1058.07,-347.92 1068.16,-351.16 1067.98,-344.16"/>
</g>
<!-- Node27 -->
<g id="node27" class="node">
<title>Node27</title>
<g id="a_node27"><a xlink:href="tree_8hpp.html" target="_top" xlink:title=" ">
<polygon fill="white" stroke="black" points="2024.04,-268.5 2024.04,-298.5 2168.04,-298.5 2168.04,-268.5 2024.04,-268.5"/>
<text text-anchor="start" x="2032.04" y="-286.5" font-family="Helvetica,sans-Serif" font-size="10.00">/home/ram/OmniTemplate</text>
<text text-anchor="middle" x="2096.04" y="-275.5" font-family="Helvetica,sans-Serif" font-size="10.00">/tree.hpp</text>
</a>
</g>
</g>
<!-- Node1&#45;&gt;Node27 -->
<g id="edge54" class="edge">
<title>Node1&#45;&gt;Node27</title>
<path fill="none" stroke="midnightblue" d="M1068.51,-349.03C1243.48,-347.25 1664.59,-338.8 2015.04,-299 2017.88,-298.68 2020.77,-298.32 2023.69,-297.93"/>
<polygon fill="midnightblue" stroke="midnightblue" points="1068.31,-345.53 1058.35,-349.13 1068.38,-352.53 1068.31,-345.53"/>
</g>
<!-- Node28 -->
<g id="node28" class="node">
<title>Node28</title>
<g id="a_node28"><a xlink:href="treap_8hpp.html" target="_top" xlink:title=" ">
<polygon fill="white" stroke="black" points="2186.04,-268.5 2186.04,-298.5 2330.04,-298.5 2330.04,-268.5 2186.04,-268.5"/>
<text text-anchor="start" x="2194.04" y="-286.5" font-family="Helvetica,sans-Serif" font-size="10.00">/home/ram/OmniTemplate</text>
<text text-anchor="middle" x="2258.04" y="-275.5" font-family="Helvetica,sans-Serif" font-size="10.00">/treap.hpp</text>
</a>
</g>
</g>
<!-- Node1&#45;&gt;Node28 -->
<g id="edge56" class="edge">
<title>Node1&#45;&gt;Node28</title>
<path fill="none" stroke="midnightblue" d="M1068.23,-349.82C1261.98,-349.74 1762.24,-344.71 2177.04,-299 2179.88,-298.69 2182.78,-298.33 2185.69,-297.95"/>
<polygon fill="midnightblue" stroke="midnightblue" points="1068.13,-346.32 1058.13,-349.82 1068.13,-353.32 1068.13,-346.32"/>
</g>
<!-- Node2&#45;&gt;Node3 -->
<g id="edge2" class="edge">
<title>Node2&#45;&gt;Node3</title>
<path fill="none" stroke="midnightblue" d="M533.21,-134.45C534.5,-134.3 535.78,-134.15 537.04,-134 814.67,-102.2 1147.24,-89.57 1291,-85.34"/>
<polygon fill="midnightblue" stroke="midnightblue" points="532.69,-130.99 523.23,-135.76 533.6,-137.93 532.69,-130.99"/>
</g>
<!-- Node4 -->
<g id="node4" class="node">
<title>Node4</title>
<g id="a_node4"><a xlink:href="test_8cpp.html" target="_top" xlink:title=" ">
<polygon fill="white" stroke="black" points="1291.04,-0.5 1291.04,-30.5 1435.04,-30.5 1435.04,-0.5 1291.04,-0.5"/>
<text text-anchor="start" x="1299.04" y="-18.5" font-family="Helvetica,sans-Serif" font-size="10.00">/home/ram/OmniTemplate</text>
<text text-anchor="middle" x="1363.04" y="-7.5" font-family="Helvetica,sans-Serif" font-size="10.00">/test.cpp</text>
</a>
</g>
</g>
<!-- Node3&#45;&gt;Node4 -->
<g id="edge3" class="edge">
<title>Node3&#45;&gt;Node4</title>
<path fill="none" stroke="midnightblue" d="M1363.04,-57.11C1363.04,-48.15 1363.04,-38.32 1363.04,-30.58"/>
<polygon fill="midnightblue" stroke="midnightblue" points="1359.54,-57.4 1363.04,-67.4 1366.54,-57.4 1359.54,-57.4"/>
</g>
<!-- Node5&#45;&gt;Node1 -->
<g id="edge5" class="edge">
<title>Node5&#45;&gt;Node1</title>
<path fill="none" stroke="midnightblue" d="M273.31,-297.97C275.92,-298.34 278.5,-298.68 281.04,-299 511.49,-327.69 785.96,-341.41 913.89,-346.72"/>
<polygon fill="midnightblue" stroke="midnightblue" points="273.55,-294.47 263.14,-296.47 272.52,-301.4 273.55,-294.47"/>
</g>
<!-- Node6&#45;&gt;Node1 -->
<g id="edge11" class="edge">
<title>Node6&#45;&gt;Node1</title>
<path fill="none" stroke="midnightblue" d="M435.37,-297.24C439.66,-297.87 443.91,-298.46 448.04,-299 614.49,-320.68 810.61,-336.42 914.02,-344.14"/>
<polygon fill="midnightblue" stroke="midnightblue" points="435.71,-293.76 425.3,-295.73 434.67,-300.68 435.71,-293.76"/>
</g>
<!-- Node7 -->
<g id="node7" class="node">
<title>Node7</title>
<g id="a_node7"><a xlink:href="debug_8hpp.html" target="_top" xlink:title=" ">
<polygon fill="white" stroke="black" points="181.04,-201.5 181.04,-231.5 325.04,-231.5 325.04,-201.5 181.04,-201.5"/>
<text text-anchor="start" x="189.04" y="-219.5" font-family="Helvetica,sans-Serif" font-size="10.00">/home/ram/OmniTemplate</text>
<text text-anchor="middle" x="253.04" y="-208.5" font-family="Helvetica,sans-Serif" font-size="10.00">/debug.hpp</text>
</a>
</g>
</g>
<!-- Node6&#45;&gt;Node7 -->
<g id="edge7" class="edge">
<title>Node6&#45;&gt;Node7</title>
<path fill="none" stroke="midnightblue" d="M322.63,-262.73C307.16,-252.68 288.71,-240.68 274.7,-231.58"/>
<polygon fill="midnightblue" stroke="midnightblue" points="321.05,-265.88 331.35,-268.4 324.87,-260.01 321.05,-265.88"/>
</g>
<!-- Node8 -->
<g id="node8" class="node">
<title>Node8</title>
<g id="a_node8"><a xlink:href="operations_8hpp.html" target="_top" xlink:title=" ">
<polygon fill="white" stroke="black" points="343.04,-201.5 343.04,-231.5 487.04,-231.5 487.04,-201.5 343.04,-201.5"/>
<text text-anchor="start" x="351.04" y="-219.5" font-family="Helvetica,sans-Serif" font-size="10.00">/home/ram/OmniTemplate</text>
<text text-anchor="middle" x="415.04" y="-208.5" font-family="Helvetica,sans-Serif" font-size="10.00">/operations.hpp</text>
</a>
</g>
</g>
<!-- Node6&#45;&gt;Node8 -->
<g id="edge9" class="edge">
<title>Node6&#45;&gt;Node8</title>
<path fill="none" stroke="midnightblue" d="M373.53,-261.02C382.77,-251.34 393.42,-240.17 401.62,-231.58"/>
<polygon fill="midnightblue" stroke="midnightblue" points="370.87,-258.74 366.5,-268.4 375.93,-263.58 370.87,-258.74"/>
</g>
<!-- Node9 -->
<g id="node9" class="node">
<title>Node9</title>
<g id="a_node9"><a xlink:href="utility_8hpp.html" target="_top" xlink:title=" ">
<polygon fill="white" stroke="black" points="19.04,-201.5 19.04,-231.5 163.04,-231.5 163.04,-201.5 19.04,-201.5"/>
<text text-anchor="start" x="27.04" y="-219.5" font-family="Helvetica,sans-Serif" font-size="10.00">/home/ram/OmniTemplate</text>
<text text-anchor="middle" x="91.04" y="-208.5" font-family="Helvetica,sans-Serif" font-size="10.00">/utility.hpp</text>
</a>
</g>
</g>
<!-- Node6&#45;&gt;Node9 -->
<g id="edge12" class="edge">
<title>Node6&#45;&gt;Node9</title>
<path fill="none" stroke="midnightblue" d="M286.74,-266.05C243.91,-255.43 188.76,-241.74 147.92,-231.61"/>
<polygon fill="midnightblue" stroke="midnightblue" points="285.97,-269.47 296.52,-268.48 287.65,-262.67 285.97,-269.47"/>
</g>
<!-- Node7&#45;&gt;Node1 -->
<g id="edge8" class="edge">
<title>Node7&#45;&gt;Node1</title>
<path fill="none" stroke="midnightblue" d="M324.75,-234.02C366.65,-244.34 414.95,-257.6 434.04,-268 452.3,-277.93 450,-290.7 469.04,-299 547.06,-333.01 791.09,-344.32 913.91,-347.92"/>
<polygon fill="midnightblue" stroke="midnightblue" points="325.36,-230.56 314.82,-231.59 323.7,-237.36 325.36,-230.56"/>
</g>
<!-- Node8&#45;&gt;Node1 -->
<g id="edge10" class="edge">
<title>Node8&#45;&gt;Node1</title>
<path fill="none" stroke="midnightblue" d="M437.76,-238.61C461.64,-260.31 498.05,-291.91 515.04,-299 585.25,-328.3 799.96,-341.62 913.65,-346.76"/>
<polygon fill="midnightblue" stroke="midnightblue" points="439.93,-235.85 430.19,-231.68 435.2,-241.01 439.93,-235.85"/>
</g>
<!-- Node9&#45;&gt;Node1 -->
<g id="edge13" class="edge">
<title>Node9&#45;&gt;Node1</title>
<path fill="none" stroke="midnightblue" d="M89.56,-241.72C89.86,-260.37 93.69,-285.23 110.04,-299 170.87,-350.2 714.97,-351.48 913.75,-350.21"/>
<polygon fill="midnightblue" stroke="midnightblue" points="93.06,-241.63 89.72,-231.58 86.06,-241.52 93.06,-241.63"/>
</g>
<!-- Node9&#45;&gt;Node3 -->
<g id="edge14" class="edge">
<title>Node9&#45;&gt;Node3</title>
<path fill="none" stroke="midnightblue" d="M138.19,-198.05C193.04,-178.61 286.73,-148.09 370.04,-134 547.27,-104.03 1093.27,-89.4 1290.79,-84.99"/>
<polygon fill="midnightblue" stroke="midnightblue" points="136.99,-194.76 128.75,-201.42 139.34,-201.36 136.99,-194.76"/>
</g>
<!-- Node10&#45;&gt;Node2 -->
<g id="edge16" class="edge">
<title>Node10&#45;&gt;Node2</title>
<path fill="none" stroke="midnightblue" d="M570.09,-197.68C543.78,-187.26 511.04,-174.28 486.56,-164.58"/>
<polygon fill="midnightblue" stroke="midnightblue" points="568.87,-200.97 579.46,-201.4 571.45,-194.46 568.87,-200.97"/>
</g>
<!-- Node10&#45;&gt;Node3 -->
<g id="edge17" class="edge">
<title>Node10&#45;&gt;Node3</title>
<path fill="none" stroke="midnightblue" d="M591.55,-193.72C575.2,-175.98 558.96,-151.15 575.04,-134 599.34,-108.1 1100.76,-91.04 1290.84,-85.48"/>
<polygon fill="midnightblue" stroke="midnightblue" points="589.47,-196.6 598.96,-201.32 594.49,-191.72 589.47,-196.6"/>
</g>
<!-- Node11&#45;&gt;Node3 -->
<g id="edge20" class="edge">
<title>Node11&#45;&gt;Node3</title>
<path fill="none" stroke="midnightblue" d="M685.02,-260.1C696.26,-243.19 706.76,-219.77 696.04,-201 680.43,-173.66 650.65,-192.34 635.04,-165 628.21,-153.04 625.65,-144.07 635.04,-134 679.15,-86.73 1115.77,-82.73 1290.91,-83.06"/>
<polygon fill="midnightblue" stroke="midnightblue" points="682.13,-258.12 679.18,-268.3 687.83,-262.19 682.13,-258.12"/>
</g>
<!-- Node11&#45;&gt;Node10 -->
<g id="edge19" class="edge">
<title>Node11&#45;&gt;Node10</title>
<path fill="none" stroke="midnightblue" d="M649.4,-260.45C641.76,-250.9 633.05,-240 626.31,-231.58"/>
<polygon fill="midnightblue" stroke="midnightblue" points="646.78,-262.77 655.76,-268.4 652.25,-258.4 646.78,-262.77"/>
</g>
<!-- Node12&#45;&gt;Node3 -->
<g id="edge23" class="edge">
<title>Node12&#45;&gt;Node3</title>
<path fill="none" stroke="midnightblue" d="M807.02,-261.55C787.6,-243.83 757.97,-218.6 729.04,-201 694.69,-180.1 668.11,-198.62 646.04,-165 638.49,-153.48 636.65,-144.08 646.04,-134 689.36,-87.53 1117.4,-83.04 1290.73,-83.14"/>
<polygon fill="midnightblue" stroke="midnightblue" points="804.72,-264.18 814.44,-268.4 809.47,-259.04 804.72,-264.18"/>
</g>
<!-- Node12&#45;&gt;Node10 -->
<g id="edge22" class="edge">
<title>Node12&#45;&gt;Node10</title>
<path fill="none" stroke="midnightblue" d="M772.89,-265.44C738.2,-254.91 694.22,-241.55 661.5,-231.61"/>
<polygon fill="midnightblue" stroke="midnightblue" points="772.29,-268.92 782.87,-268.48 774.32,-262.22 772.29,-268.92"/>
</g>
<!-- Node13&#45;&gt;Node3 -->
<g id="edge25" class="edge">
<title>Node13&#45;&gt;Node3</title>
<path fill="none" stroke="midnightblue" d="M809.53,-133.87C988.19,-110.17 1186.87,-95.09 1290.98,-88.06"/>
<polygon fill="midnightblue" stroke="midnightblue" points="808.87,-130.43 799.42,-135.22 809.8,-137.37 808.87,-130.43"/>
</g>
<!-- Node14&#45;&gt;Node3 -->
<g id="edge27" class="edge">
<title>Node14&#45;&gt;Node3</title>
<path fill="none" stroke="midnightblue" d="M971.33,-133.84C1088.8,-115.97 1214.03,-100.66 1290.82,-91.7"/>
<polygon fill="midnightblue" stroke="midnightblue" points="970.79,-130.39 961.44,-135.36 971.85,-137.3 970.79,-130.39"/>
</g>
<!-- Node15&#45;&gt;Node3 -->
<g id="edge29" class="edge">
<title>Node15&#45;&gt;Node3</title>
<path fill="none" stroke="midnightblue" d="M1128.41,-132.38C1179.73,-121.69 1246.42,-107.8 1295.58,-97.55"/>
<polygon fill="midnightblue" stroke="midnightblue" points="1127.44,-129.01 1118.36,-134.48 1128.86,-135.86 1127.44,-129.01"/>
</g>
<!-- Node16&#45;&gt;Node3 -->
<g id="edge31" class="edge">
<title>Node16&#45;&gt;Node3</title>
<path fill="none" stroke="midnightblue" d="M1254.8,-130.41C1278.75,-120.03 1308.36,-107.2 1330.56,-97.58"/>
<polygon fill="midnightblue" stroke="midnightblue" points="1253.38,-127.21 1245.59,-134.4 1256.16,-133.63 1253.38,-127.21"/>
</g>
<!-- Node17&#45;&gt;Node3 -->
<g id="edge33" class="edge">
<title>Node17&#45;&gt;Node3</title>
<path fill="none" stroke="midnightblue" d="M1220,-198.58C1244.98,-190.86 1271.92,-179.99 1294.04,-165 1320.75,-146.91 1343.03,-115.76 1354.56,-97.66"/>
<polygon fill="midnightblue" stroke="midnightblue" points="1218.77,-195.3 1210.18,-201.49 1220.76,-202.01 1218.77,-195.3"/>
</g>
<!-- Node18&#45;&gt;Node3 -->
<g id="edge35" class="edge">
<title>Node18&#45;&gt;Node3</title>
<path fill="none" stroke="midnightblue" d="M1396.08,-126.45C1388.74,-116.9 1380.36,-106 1373.87,-97.58"/>
<polygon fill="midnightblue" stroke="midnightblue" points="1393.32,-128.6 1402.2,-134.4 1398.87,-124.34 1393.32,-128.6"/>
</g>
<!-- Node19&#45;&gt;Node3 -->
<g id="edge39" class="edge">
<title>Node19&#45;&gt;Node3</title>
<path fill="none" stroke="midnightblue" d="M1305.68,-258.25C1302.54,-240.36 1301.84,-216.53 1315.04,-201 1367.6,-139.17 1442.63,-227.78 1494.04,-165 1519.67,-133.71 1469.49,-110.98 1424.01,-97.59"/>
<polygon fill="midnightblue" stroke="midnightblue" points="1302.3,-259.18 1307.78,-268.24 1309.15,-257.73 1302.3,-259.18"/>
</g>
<!-- Node19&#45;&gt;Node20 -->
<g id="edge37" class="edge">
<title>Node19&#45;&gt;Node20</title>
<path fill="none" stroke="midnightblue" d="M1338.32,-262.17C1351.16,-252.23 1366.3,-240.51 1377.85,-231.58"/>
<polygon fill="midnightblue" stroke="midnightblue" points="1336.04,-259.51 1330.27,-268.4 1340.32,-265.04 1336.04,-259.51"/>
</g>
<!-- Node20&#45;&gt;Node3 -->
<g id="edge38" class="edge">
<title>Node20&#45;&gt;Node3</title>
<path fill="none" stroke="midnightblue" d="M1468.09,-198.4C1509.35,-185.02 1548.96,-163.69 1527.04,-134 1505.9,-105.36 1468.76,-92.46 1435.16,-86.83"/>
<polygon fill="midnightblue" stroke="midnightblue" points="1466.96,-195.09 1458.44,-201.38 1469.03,-201.77 1466.96,-195.09"/>
</g>
<!-- Node21&#45;&gt;Node3 -->
<g id="edge42" class="edge">
<title>Node21&#45;&gt;Node3</title>
<path fill="none" stroke="midnightblue" d="M1560.3,-191.45C1560.63,-173.47 1557.97,-149.43 1544.04,-134 1516.72,-103.73 1472.92,-90.98 1435.26,-85.86"/>
<polygon fill="midnightblue" stroke="midnightblue" points="1556.8,-191.32 1559.81,-201.48 1563.79,-191.66 1556.8,-191.32"/>
</g>
<!-- Node22&#45;&gt;Node3 -->
<g id="edge44" class="edge">
<title>Node22&#45;&gt;Node3</title>
<path fill="none" stroke="midnightblue" d="M1608.88,-132.52C1555.17,-121.81 1485.11,-107.84 1433.54,-97.55"/>
<polygon fill="midnightblue" stroke="midnightblue" points="1608.22,-135.95 1618.71,-134.48 1609.59,-129.09 1608.22,-135.95"/>
</g>
<!-- Node23&#45;&gt;Node3 -->
<g id="edge46" class="edge">
<title>Node23&#45;&gt;Node3</title>
<path fill="none" stroke="midnightblue" d="M1770.45,-191.94C1778.03,-173.95 1783.87,-149.64 1770.04,-134 1748.3,-109.39 1546.5,-94.02 1435.47,-87.36"/>
<polygon fill="midnightblue" stroke="midnightblue" points="1767.19,-190.65 1766.18,-201.2 1773.55,-193.59 1767.19,-190.65"/>
</g>
<!-- Node24&#45;&gt;Node3 -->
<g id="edge48" class="edge">
<title>Node24&#45;&gt;Node3</title>
<path fill="none" stroke="midnightblue" d="M1806.87,-134.55C1805.58,-134.36 1804.31,-134.18 1803.04,-134 1673.81,-115.7 1522.5,-99.47 1435.22,-90.6"/>
<polygon fill="midnightblue" stroke="midnightblue" points="1806.42,-138.02 1816.83,-136.04 1807.45,-131.1 1806.42,-138.02"/>
</g>
<!-- Node25&#45;&gt;Node3 -->
<g id="edge50" class="edge">
<title>Node25&#45;&gt;Node3</title>
<path fill="none" stroke="midnightblue" d="M1970.49,-192.1C1978.23,-173.98 1984.26,-149.45 1970.04,-134 1934.46,-95.34 1588.26,-86.27 1435.2,-84.15"/>
<polygon fill="midnightblue" stroke="midnightblue" points="1967.2,-190.87 1966.14,-201.41 1973.54,-193.83 1967.2,-190.87"/>
</g>
<!-- Node26&#45;&gt;Node3 -->
<g id="edge53" class="edge">
<title>Node26&#45;&gt;Node3</title>
<path fill="none" stroke="midnightblue" d="M2000.5,-264.13C2015.71,-256.68 2030.04,-246.32 2039.04,-232 2065.18,-190.43 2031.13,-157.56 1988.04,-134 1940.53,-108.02 1589.22,-91.91 1435.13,-86.03"/>
<polygon fill="midnightblue" stroke="midnightblue" points="1998.65,-261.12 1990.95,-268.4 2001.51,-267.51 1998.65,-261.12"/>
</g>
<!-- Node27&#45;&gt;Node3 -->
<g id="edge55" class="edge">
<title>Node27&#45;&gt;Node3</title>
<path fill="none" stroke="midnightblue" d="M2091.74,-258.31C2084.24,-224.07 2065.23,-162.47 2022.04,-134 1973.97,-102.3 1596.05,-89.26 1435.16,-85.11"/>
<polygon fill="midnightblue" stroke="midnightblue" points="2088.37,-259.28 2093.79,-268.39 2095.23,-257.89 2088.37,-259.28"/>
</g>
<!-- Node28&#45;&gt;Node3 -->
<g id="edge57" class="edge">
<title>Node28&#45;&gt;Node3</title>
<path fill="none" stroke="midnightblue" d="M2236.74,-261.01C2201.5,-227.03 2127.25,-161.89 2050.04,-134 1938.55,-93.72 1587.74,-85.54 1435.13,-83.9"/>
<polygon fill="midnightblue" stroke="midnightblue" points="2234.45,-263.67 2244.05,-268.15 2239.35,-258.66 2234.45,-263.67"/>
</g>
</g>
</svg>
