<?xml version="1.0" encoding="UTF-8" standalone="no"?>
<!DOCTYPE svg PUBLIC "-//W3C//DTD SVG 1.1//EN"
 "http://www.w3.org/Graphics/SVG/1.1/DTD/svg11.dtd">
<!-- Generated by graphviz version 2.43.0 (0)
 -->
<!-- Title: /home/ram/OmniTemplate/core.hpp Pages: 1 -->
<svg width="783pt" height="218pt"
 viewBox="0.00 0.00 783.00 218.00" xmlns="http://www.w3.org/2000/svg" xmlns:xlink="http://www.w3.org/1999/xlink">
<g id="graph0" class="graph" transform="scale(1 1) rotate(0) translate(4 214)">
<title>/home/ram/OmniTemplate/core.hpp</title>
<polygon fill="white" stroke="transparent" points="-4,4 -4,-214 779,-214 779,4 -4,4"/>
<!-- Node1 -->
<g id="node1" class="node">
<title>Node1</title>
<g id="a_node1"><a xlink:title=" ">
<polygon fill="#bfbfbf" stroke="black" points="415.5,-179.5 415.5,-209.5 559.5,-209.5 559.5,-179.5 415.5,-179.5"/>
<text text-anchor="start" x="423.5" y="-197.5" font-family="Helvetica,sans-Serif" font-size="10.00">/home/ram/OmniTemplate</text>
<text text-anchor="middle" x="487.5" y="-186.5" font-family="Helvetica,sans-Serif" font-size="10.00">/core.hpp</text>
</a>
</g>
</g>
<!-- Node2 -->
<g id="node2" class="node">
<title>Node2</title>
<g id="a_node2"><a xlink:title=" ">
<polygon fill="white" stroke="#bfbfbf" points="0,-118 0,-137 83,-137 83,-118 0,-118"/>
<text text-anchor="middle" x="41.5" y="-125" font-family="Helvetica,sans-Serif" font-size="10.00">bits/stdc++.h</text>
</a>
</g>
</g>
<!-- Node1&#45;&gt;Node2 -->
<g id="edge1" class="edge">
<title>Node1&#45;&gt;Node2</title>
<path fill="none" stroke="midnightblue" d="M415.41,-187.7C335.61,-180.49 203.47,-166.23 91.5,-143 87.05,-142.08 82.42,-140.96 77.85,-139.75"/>
<polygon fill="midnightblue" stroke="midnightblue" points="78.61,-136.33 68.03,-137.03 76.73,-143.08 78.61,-136.33"/>
</g>
<!-- Node3 -->
<g id="node3" class="node">
<title>Node3</title>
<g id="a_node3"><a xlink:title=" ">
<polygon fill="white" stroke="#bfbfbf" points="101,-118 101,-137 222,-137 222,-118 101,-118"/>
<text text-anchor="middle" x="161.5" y="-125" font-family="Helvetica,sans-Serif" font-size="10.00">experimental/iterator</text>
</a>
</g>
</g>
<!-- Node1&#45;&gt;Node3 -->
<g id="edge2" class="edge">
<title>Node1&#45;&gt;Node3</title>
<path fill="none" stroke="midnightblue" d="M415.44,-179.6C363.9,-169.6 292.88,-155.68 230.5,-143 224.36,-141.75 217.92,-140.42 211.54,-139.1"/>
<polygon fill="midnightblue" stroke="midnightblue" points="212.12,-135.64 201.62,-137.02 210.69,-142.49 212.12,-135.64"/>
</g>
<!-- Node4 -->
<g id="node4" class="node">
<title>Node4</title>
<g id="a_node4"><a xlink:title=" ">
<polygon fill="white" stroke="#bfbfbf" points="240,-112.5 240,-142.5 357,-142.5 357,-112.5 240,-112.5"/>
<text text-anchor="start" x="248" y="-130.5" font-family="Helvetica,sans-Serif" font-size="10.00">experimental/source</text>
<text text-anchor="middle" x="298.5" y="-119.5" font-family="Helvetica,sans-Serif" font-size="10.00">_location</text>
</a>
</g>
</g>
<!-- Node1&#45;&gt;Node4 -->
<g id="edge3" class="edge">
<title>Node1&#45;&gt;Node4</title>
<path fill="none" stroke="midnightblue" d="M446.49,-179.4C417.88,-169.56 379.53,-156.37 349.03,-145.88"/>
<polygon fill="midnightblue" stroke="midnightblue" points="350.02,-142.52 339.43,-142.58 347.75,-149.14 350.02,-142.52"/>
</g>
<!-- Node5 -->
<g id="node5" class="node">
<title>Node5</title>
<g id="a_node5"><a xlink:href="my__int_8hpp.html" target="_top" xlink:title=" ">
<polygon fill="white" stroke="black" points="375,-118 375,-137 446,-137 446,-118 375,-118"/>
<text text-anchor="middle" x="410.5" y="-125" font-family="Helvetica,sans-Serif" font-size="10.00">my_int.hpp</text>
</a>
</g>
</g>
<!-- Node1&#45;&gt;Node5 -->
<g id="edge4" class="edge">
<title>Node1&#45;&gt;Node5</title>
<path fill="none" stroke="midnightblue" d="M465.11,-179.4C451.51,-169.06 434.82,-155.02 423.34,-144.31"/>
<polygon fill="midnightblue" stroke="midnightblue" points="425.64,-141.66 416.03,-137.19 420.75,-146.68 425.64,-141.66"/>
</g>
<!-- Node6 -->
<g id="node6" class="node">
<title>Node6</title>
<g id="a_node6"><a xlink:href="io_8hpp.html" target="_top" xlink:title=" ">
<polygon fill="white" stroke="black" points="464,-118 464,-137 511,-137 511,-118 464,-118"/>
<text text-anchor="middle" x="487.5" y="-125" font-family="Helvetica,sans-Serif" font-size="10.00">io.hpp</text>
</a>
</g>
</g>
<!-- Node1&#45;&gt;Node6 -->
<g id="edge6" class="edge">
<title>Node1&#45;&gt;Node6</title>
<path fill="none" stroke="midnightblue" d="M487.5,-179.4C487.5,-170.06 487.5,-157.71 487.5,-147.52"/>
<polygon fill="midnightblue" stroke="midnightblue" points="491,-147.19 487.5,-137.19 484,-147.19 491,-147.19"/>
</g>
<!-- Node7 -->
<g id="node7" class="node">
<title>Node7</title>
<g id="a_node7"><a xlink:href="debug_8hpp.html" target="_top" xlink:title=" ">
<polygon fill="white" stroke="black" points="567.5,-118 567.5,-137 635.5,-137 635.5,-118 567.5,-118"/>
<text text-anchor="middle" x="601.5" y="-125" font-family="Helvetica,sans-Serif" font-size="10.00">debug.hpp</text>
</a>
</g>
</g>
<!-- Node1&#45;&gt;Node7 -->
<g id="edge7" class="edge">
<title>Node1&#45;&gt;Node7</title>
<path fill="none" stroke="midnightblue" d="M512.24,-179.4C531.71,-168.29 558.67,-152.92 577.85,-141.98"/>
<polygon fill="midnightblue" stroke="midnightblue" points="579.63,-145 586.58,-137.01 576.16,-138.92 579.63,-145"/>
</g>
<!-- Node8 -->
<g id="node8" class="node">
<title>Node8</title>
<g id="a_node8"><a xlink:href="operations_8hpp.html" target="_top" xlink:title=" ">
<polygon fill="white" stroke="black" points="508,-56.5 508,-75.5 597,-75.5 597,-56.5 508,-56.5"/>
<text text-anchor="middle" x="552.5" y="-63.5" font-family="Helvetica,sans-Serif" font-size="10.00">operations.hpp</text>
</a>
</g>
</g>
<!-- Node1&#45;&gt;Node8 -->
<g id="edge12" class="edge">
<title>Node1&#45;&gt;Node8</title>
<path fill="none" stroke="midnightblue" d="M497.35,-179.27C504.02,-169.34 512.79,-155.66 519.5,-143 529.68,-123.79 539.34,-100.78 545.55,-85.14"/>
<polygon fill="midnightblue" stroke="midnightblue" points="548.88,-86.22 549.26,-75.64 542.36,-83.68 548.88,-86.22"/>
</g>
<!-- Node9 -->
<g id="node9" class="node">
<title>Node9</title>
<g id="a_node9"><a xlink:href="range_8hpp.html" target="_top" xlink:title=" ">
<polygon fill="white" stroke="black" points="640,-0.5 640,-19.5 705,-19.5 705,-0.5 640,-0.5"/>
<text text-anchor="middle" x="672.5" y="-7.5" font-family="Helvetica,sans-Serif" font-size="10.00">range.hpp</text>
</a>
</g>
</g>
<!-- Node1&#45;&gt;Node9 -->
<g id="edge13" class="edge">
<title>Node1&#45;&gt;Node9</title>
<path fill="none" stroke="midnightblue" d="M559.51,-184.3C586.75,-177.22 615.83,-164.78 635.5,-143 664.06,-111.36 666.17,-58.02 668.23,-29.81"/>
<polygon fill="midnightblue" stroke="midnightblue" points="671.73,-29.98 669.14,-19.7 664.75,-29.34 671.73,-29.98"/>
</g>
<!-- Node10 -->
<g id="node10" class="node">
<title>Node10</title>
<g id="a_node10"><a xlink:href="utility_8hpp.html" target="_top" xlink:title=" ">
<polygon fill="white" stroke="black" points="710,-56.5 710,-75.5 775,-75.5 775,-56.5 710,-56.5"/>
<text text-anchor="middle" x="742.5" y="-63.5" font-family="Helvetica,sans-Serif" font-size="10.00">utility.hpp</text>
</a>
</g>
</g>
<!-- Node1&#45;&gt;Node10 -->
<g id="edge14" class="edge">
<title>Node1&#45;&gt;Node10</title>
<path fill="none" stroke="midnightblue" d="M559.66,-189.58C602.55,-184.14 656.1,-171.58 695.5,-143 715.47,-128.52 728.76,-102.71 735.97,-85.23"/>
<polygon fill="midnightblue" stroke="midnightblue" points="739.35,-86.19 739.68,-75.6 732.82,-83.67 739.35,-86.19"/>
</g>
<!-- Node5&#45;&gt;Node1 -->
<g id="edge5" class="edge">
<title>Node5&#45;&gt;Node1</title>
<path fill="none" stroke="midnightblue" d="M425.31,-137.01C437.8,-145.92 455.36,-160.28 468.75,-172.29"/>
<polygon fill="midnightblue" stroke="midnightblue" points="466.74,-175.2 476.47,-179.4 471.48,-170.05 466.74,-175.2"/>
</g>
<!-- Node7&#45;&gt;Node8 -->
<g id="edge8" class="edge">
<title>Node7&#45;&gt;Node8</title>
<path fill="none" stroke="midnightblue" d="M594.48,-117.98C587.06,-108.96 575.17,-94.52 565.93,-83.31"/>
<polygon fill="midnightblue" stroke="midnightblue" points="568.57,-81 559.51,-75.51 563.16,-85.45 568.57,-81"/>
</g>
<!-- Node7&#45;&gt;Node9 -->
<g id="edge11" class="edge">
<title>Node7&#45;&gt;Node9</title>
<path fill="none" stroke="midnightblue" d="M606.84,-117.82C618.45,-98.92 646.22,-53.75 661.67,-28.62"/>
<polygon fill="midnightblue" stroke="midnightblue" points="664.85,-30.13 667.1,-19.78 658.88,-26.47 664.85,-30.13"/>
</g>
<!-- Node8&#45;&gt;Node9 -->
<g id="edge9" class="edge">
<title>Node8&#45;&gt;Node9</title>
<path fill="none" stroke="midnightblue" d="M571.51,-56.44C591.09,-47.64 621.81,-33.81 644.23,-23.72"/>
<polygon fill="midnightblue" stroke="midnightblue" points="645.89,-26.81 653.57,-19.52 643.02,-20.43 645.89,-26.81"/>
</g>
<!-- Node9&#45;&gt;Node1 -->
<g id="edge10" class="edge">
<title>Node9&#45;&gt;Node1</title>
<path fill="none" stroke="midnightblue" d="M677.63,-19.7C684.25,-42.92 685.99,-107 653.5,-143 632.29,-166.49 600.13,-179.11 569.7,-185.87"/>
<polygon fill="midnightblue" stroke="midnightblue" points="569,-182.44 559.9,-187.86 570.39,-189.3 569,-182.44"/>
</g>
<!-- Node10&#45;&gt;Node9 -->
<g id="edge15" class="edge">
<title>Node10&#45;&gt;Node9</title>
<path fill="none" stroke="midnightblue" d="M731.25,-56.32C720.7,-48.18 704.7,-35.84 692.06,-26.09"/>
<polygon fill="midnightblue" stroke="midnightblue" points="694.01,-23.17 683.95,-19.83 689.73,-28.71 694.01,-23.17"/>
</g>
</g>
</svg>
