<?xml version="1.0" encoding="UTF-8" standalone="no"?>
<!DOCTYPE svg PUBLIC "-//W3C//DTD SVG 1.1//EN"
 "http://www.w3.org/Graphics/SVG/1.1/DTD/svg11.dtd">
<!-- Generated by graphviz version 2.43.0 (0)
 -->
<!-- Title: /home/ram/OmniTemplate/src/utility/coroutine.hpp Pages: 1 -->
<svg width="330pt" height="173pt"
 viewBox="0.00 0.00 329.50 173.00" xmlns="http://www.w3.org/2000/svg" xmlns:xlink="http://www.w3.org/1999/xlink">
<g id="graph0" class="graph" transform="scale(1 1) rotate(0) translate(4 169)">
<title>/home/ram/OmniTemplate/src/utility/coroutine.hpp</title>
<polygon fill="white" stroke="transparent" points="-4,4 -4,-169 325.5,-169 325.5,4 -4,4"/>
<!-- Node1 -->
<g id="node1" class="node">
<title>Node1</title>
<g id="a_node1"><a xlink:title=" ">
<polygon fill="#bfbfbf" stroke="black" points="85,-134.5 85,-164.5 229,-164.5 229,-134.5 85,-134.5"/>
<text text-anchor="start" x="93" y="-152.5" font-family="Helvetica,sans-Serif" font-size="10.00">/home/ram/OmniTemplate</text>
<text text-anchor="middle" x="157" y="-141.5" font-family="Helvetica,sans-Serif" font-size="10.00">/src/utility/coroutine.hpp</text>
</a>
</g>
</g>
<!-- Node2 -->
<g id="node2" class="node">
<title>Node2</title>
<g id="a_node2"><a xlink:href="$template_8hpp.html" xlink:title=" ">
<polygon fill="white" stroke="black" points="0,-67.5 0,-97.5 144,-97.5 144,-67.5 0,-67.5"/>
<text text-anchor="start" x="8" y="-85.5" font-family="Helvetica,sans-Serif" font-size="10.00">/home/ram/OmniTemplate</text>
<text text-anchor="middle" x="72" y="-74.5" font-family="Helvetica,sans-Serif" font-size="10.00">/src/core/template.hpp</text>
</a>
</g>
</g>
<!-- Node1&#45;&gt;Node2 -->
<g id="edge1" class="edge">
<title>Node1&#45;&gt;Node2</title>
<path fill="none" stroke="midnightblue" d="M130.41,-128.17C117.41,-118.23 102.1,-106.51 90.41,-97.58"/>
<polygon fill="midnightblue" stroke="midnightblue" points="128.49,-131.1 138.56,-134.4 132.74,-125.54 128.49,-131.1"/>
</g>
<!-- Node3 -->
<g id="node3" class="node">
<title>Node3</title>
<g id="a_node3"><a xlink:href="$test__coroutine_8hpp.html" xlink:title=" ">
<polygon fill="white" stroke="black" points="162.5,-67.5 162.5,-97.5 321.5,-97.5 321.5,-67.5 162.5,-67.5"/>
<text text-anchor="start" x="170.5" y="-85.5" font-family="Helvetica,sans-Serif" font-size="10.00">/home/ram/OmniTemplate</text>
<text text-anchor="middle" x="242" y="-74.5" font-family="Helvetica,sans-Serif" font-size="10.00">/src/utility/test_coroutine.hpp</text>
</a>
</g>
</g>
<!-- Node1&#45;&gt;Node3 -->
<g id="edge2" class="edge">
<title>Node1&#45;&gt;Node3</title>
<path fill="none" stroke="midnightblue" d="M183.59,-128.17C196.59,-118.23 211.9,-106.51 223.59,-97.58"/>
<polygon fill="midnightblue" stroke="midnightblue" points="181.26,-125.54 175.44,-134.4 185.51,-131.1 181.26,-125.54"/>
</g>
<!-- Node4 -->
<g id="node4" class="node">
<title>Node4</title>
<g id="a_node4"><a xlink:href="$test_8cpp.html" xlink:title=" ">
<polygon fill="white" stroke="black" points="170,-0.5 170,-30.5 314,-30.5 314,-0.5 170,-0.5"/>
<text text-anchor="start" x="178" y="-18.5" font-family="Helvetica,sans-Serif" font-size="10.00">/home/ram/OmniTemplate</text>
<text text-anchor="middle" x="242" y="-7.5" font-family="Helvetica,sans-Serif" font-size="10.00">/src/test/test.cpp</text>
</a>
</g>
</g>
<!-- Node3&#45;&gt;Node4 -->
<g id="edge3" class="edge">
<title>Node3&#45;&gt;Node4</title>
<path fill="none" stroke="midnightblue" d="M242,-57.11C242,-48.15 242,-38.32 242,-30.58"/>
<polygon fill="midnightblue" stroke="midnightblue" points="238.5,-57.4 242,-67.4 245.5,-57.4 238.5,-57.4"/>
</g>
</g>
</svg>
