<?xml version="1.0" encoding="UTF-8" standalone="no"?>
<!DOCTYPE svg PUBLIC "-//W3C//DTD SVG 1.1//EN"
 "http://www.w3.org/Graphics/SVG/1.1/DTD/svg11.dtd">
<!-- Generated by graphviz version 2.43.0 (0)
 -->
<!-- Title: identity Pages: 1 -->
<!--zoomable 437 -->
<svg id="main" version="1.1" xmlns="http://www.w3.org/2000/svg" xmlns:xlink="http://www.w3.org/1999/xlink" xml:space="preserve" onload="init(evt)">
<style type="text/css"><![CDATA[
.edge:hover path { stroke: red; }
.edge:hover polygon { stroke: red; fill: red; }
]]></style>
<script type="text/javascript"><![CDATA[
var edges = document.getElementsByTagName('g');
if (edges && edges.length) {
  for (var i=0;i<edges.length;i++) {
    if (edges[i].id.substr(0,4)=='edge') {
      edges[i].setAttribute('class','edge');
    }
  }
}
]]></script>
        <defs>
                <circle id="rim" cx="0" cy="0" r="7"/>
                <circle id="rim2" cx="0" cy="0" r="3.5"/>
                <g id="zoomPlus">
                        <use xlink:href="#rim" fill="#404040">
                                <set attributeName="fill" to="#808080" begin="zoomplus.mouseover" end="zoomplus.mouseout"/>
                        </use>
                        <path d="M-4,0h8M0,-4v8" fill="none" stroke="white" stroke-width="1.5" pointer-events="none"/>
                </g>
                <g id="zoomMin">
                        <use xlink:href="#rim" fill="#404040">
                                <set attributeName="fill" to="#808080" begin="zoomminus.mouseover" end="zoomminus.mouseout"/>
                        </use>
                        <path d="M-4,0h8" fill="none" stroke="white" stroke-width="1.5" pointer-events="none"/>
                </g>
                <g id="dirArrow">
                        <path fill="none" stroke="white" stroke-width="1.5" d="M0,-3.0v7 M-2.5,-0.5L0,-3.0L2.5,-0.5"/>
                </g>
               <g id="resetDef">
                       <use xlink:href="#rim2" fill="#404040">
                               <set attributeName="fill" to="#808080" begin="reset.mouseover" end="reset.mouseout"/>
                       </use>
               </g>
        </defs>

<script type="text/javascript">
var viewWidth = 1478;
var viewHeight = 437;
var sectionId = 'dynsection-1';
</script>
<script xlink:href="svgpan.js"/>
<svg id="graph" class="graph">
<g id="viewport">
<title>identity</title>
<polygon fill="white" stroke="transparent" points="-4,4 -4,-432.5 1474,-432.5 1474,4 -4,4"/>
<!-- Node1 -->
<g id="node1" class="node">
<title>Node1</title>
<g id="a_node1"><a xlink:title=" ">
<polygon fill="#bfbfbf" stroke="black" points="1416,-175 1416,-194 1470,-194 1470,-175 1416,-175"/>
<text text-anchor="middle" x="1443" y="-182" font-family="Helvetica,sans-Serif" font-size="10.00">identity</text>
</a>
</g>
</g>
<!-- Node2 -->
<g id="node2" class="node">
<title>Node2</title>
<g id="a_node2"><a xlink:href="namespacelinear__algebra.html#a9857489fa641b19465aed9647a854219" target="_top" xlink:title=" ">
<polygon fill="white" stroke="black" points="1244,-213 1244,-232 1365,-232 1365,-213 1244,-213"/>
<text text-anchor="middle" x="1304.5" y="-220" font-family="Helvetica,sans-Serif" font-size="10.00">linear_algebra::invert</text>
</a>
</g>
</g>
<!-- Node1&#45;&gt;Node2 -->
<g id="edge1" class="edge">
<title>Node1&#45;&gt;Node2</title>
<path fill="none" stroke="midnightblue" d="M1406.13,-195.81C1397.59,-198.41 1388.49,-201.12 1380,-203.5 1368.43,-206.75 1355.79,-210.06 1344.26,-212.99"/>
<polygon fill="midnightblue" stroke="midnightblue" points="1407.31,-199.11 1415.84,-192.82 1405.25,-192.42 1407.31,-199.11"/>
</g>
<!-- Node3 -->
<g id="node3" class="node">
<title>Node3</title>
<g id="a_node3"><a xlink:href="namespacemodulo__namespace.html#a8e6fc91a032b336ea0bbed9eabf54f69" target="_top" xlink:title="Returns .">
<polygon fill="white" stroke="black" points="1229,-175 1229,-194 1380,-194 1380,-175 1229,-175"/>
<text text-anchor="middle" x="1304.5" y="-182" font-family="Helvetica,sans-Serif" font-size="10.00">modulo_namespace::power</text>
</a>
</g>
</g>
<!-- Node1&#45;&gt;Node3 -->
<g id="edge2" class="edge">
<title>Node1&#45;&gt;Node3</title>
<path fill="none" stroke="midnightblue" d="M1405.66,-184.5C1397.66,-184.5 1388.91,-184.5 1380.02,-184.5"/>
<polygon fill="midnightblue" stroke="midnightblue" points="1405.68,-188 1415.68,-184.5 1405.68,-181 1405.68,-188"/>
</g>
<!-- Node26 -->
<g id="node26" class="node">
<title>Node26</title>
<g id="a_node26"><a xlink:href="namespacelinear__algebra.html#a374c06877fb866b1df88bd50c7ea4629" target="_top" xlink:title=" ">
<polygon fill="white" stroke="black" points="1249,-65.5 1249,-95.5 1360,-95.5 1360,-65.5 1249,-65.5"/>
<text text-anchor="start" x="1257" y="-83.5" font-family="Helvetica,sans-Serif" font-size="10.00">linear_algebra::test</text>
<text text-anchor="middle" x="1304.5" y="-72.5" font-family="Helvetica,sans-Serif" font-size="10.00">_invert_impl</text>
</a>
</g>
</g>
<!-- Node1&#45;&gt;Node26 -->
<g id="edge36" class="edge">
<title>Node1&#45;&gt;Node26</title>
<path fill="none" stroke="midnightblue" d="M1421.36,-168.77C1395.4,-148.99 1351.14,-115.27 1325.49,-95.73"/>
<polygon fill="midnightblue" stroke="midnightblue" points="1419.33,-171.63 1429.4,-174.9 1423.57,-166.06 1419.33,-171.63"/>
</g>
<!-- Node4 -->
<g id="node4" class="node">
<title>Node4</title>
<g id="a_node4"><a xlink:href="number__theory_8hpp.html#a67527905c2b2c027c8b458902db2d05a" target="_top" xlink:title="Finds x such that a^x = b (mod M) using baby&#45;step giant&#45;step algorithm. a and M must be coprime.">
<polygon fill="white" stroke="black" points="652,-137 652,-156 690,-156 690,-137 652,-137"/>
<text text-anchor="middle" x="671" y="-144" font-family="Helvetica,sans-Serif" font-size="10.00">dlog</text>
</a>
</g>
</g>
<!-- Node3&#45;&gt;Node4 -->
<g id="edge3" class="edge">
<title>Node3&#45;&gt;Node4</title>
<path fill="none" stroke="midnightblue" d="M1246.51,-173.2C1229.37,-170.21 1210.48,-167.31 1193,-165.5 996.74,-145.14 756.93,-145.68 690.06,-146.29"/>
<polygon fill="midnightblue" stroke="midnightblue" points="1245.91,-176.65 1256.37,-174.97 1247.15,-169.76 1245.91,-176.65"/>
</g>
<!-- Node5 -->
<g id="node5" class="node">
<title>Node5</title>
<g id="a_node5"><a xlink:href="number__theory_8hpp.html#a7aac53ce82614d79c7098a1de32ed1e7" target="_top" xlink:title=" ">
<polygon fill="white" stroke="black" points="491,-137 491,-156 553,-156 553,-137 491,-137"/>
<text text-anchor="middle" x="522" y="-144" font-family="Helvetica,sans-Serif" font-size="10.00">test_dlog</text>
</a>
</g>
</g>
<!-- Node3&#45;&gt;Node5 -->
<g id="edge29" class="edge">
<title>Node3&#45;&gt;Node5</title>
<path fill="none" stroke="midnightblue" d="M1267.78,-171.44C1205.08,-149.71 1070.71,-108.5 953.5,-108.5 953.5,-108.5 953.5,-108.5 804.5,-108.5 712.28,-108.5 604.58,-128.78 553.23,-139.71"/>
<polygon fill="midnightblue" stroke="midnightblue" points="1266.98,-174.86 1277.58,-174.87 1269.3,-168.26 1266.98,-174.86"/>
</g>
<!-- Node10 -->
<g id="node10" class="node">
<title>Node10</title>
<g id="a_node10"><a xlink:href="namespacemodulo__namespace.html#aac690d54b7665a90ca461724df8907c0" target="_top" xlink:title=" ">
<polygon fill="white" stroke="black" points="1044,-213 1044,-232 1193,-232 1193,-213 1044,-213"/>
<text text-anchor="middle" x="1118.5" y="-220" font-family="Helvetica,sans-Serif" font-size="10.00">modulo_namespace::invert</text>
</a>
</g>
</g>
<!-- Node3&#45;&gt;Node10 -->
<g id="edge9" class="edge">
<title>Node3&#45;&gt;Node10</title>
<path fill="none" stroke="midnightblue" d="M1246.94,-196.18C1220.85,-201.57 1190.26,-207.89 1165.6,-212.98"/>
<polygon fill="midnightblue" stroke="midnightblue" points="1247.98,-199.54 1257.07,-194.09 1246.57,-192.68 1247.98,-199.54"/>
</g>
<!-- Node11 -->
<g id="node11" class="node">
<title>Node11</title>
<g id="a_node11"><a xlink:href="namespacelinear__algebra.html#ad80debbf481bb22b5347633cd83e2c77" target="_top" xlink:title=" ">
<polygon fill="white" stroke="black" points="1066.5,-49.5 1066.5,-79.5 1170.5,-79.5 1170.5,-49.5 1066.5,-49.5"/>
<text text-anchor="start" x="1074.5" y="-67.5" font-family="Helvetica,sans-Serif" font-size="10.00">linear_algebra::lin</text>
<text text-anchor="middle" x="1118.5" y="-56.5" font-family="Helvetica,sans-Serif" font-size="10.00">_recur</text>
</a>
</g>
</g>
<!-- Node3&#45;&gt;Node11 -->
<g id="edge10" class="edge">
<title>Node3&#45;&gt;Node11</title>
<path fill="none" stroke="midnightblue" d="M1286.53,-167.95C1265.82,-148.42 1229.07,-115.9 1193,-94.5 1183.52,-88.87 1172.78,-83.83 1162.51,-79.56"/>
<polygon fill="midnightblue" stroke="midnightblue" points="1284.25,-170.61 1293.89,-174.98 1289.08,-165.54 1284.25,-170.61"/>
</g>
<!-- Node14 -->
<g id="node14" class="node">
<title>Node14</title>
<g id="a_node14"><a xlink:href="number__theory_8hpp.html#a02e886c6eb18cd3b8894ea2ba9ca9784" target="_top" xlink:title="Return whether integer n &gt;= 2 is prime.">
<polygon fill="white" stroke="black" points="1096,-175 1096,-194 1141,-194 1141,-175 1096,-175"/>
<text text-anchor="middle" x="1118.5" y="-182" font-family="Helvetica,sans-Serif" font-size="10.00">prime</text>
</a>
</g>
</g>
<!-- Node3&#45;&gt;Node14 -->
<g id="edge14" class="edge">
<title>Node3&#45;&gt;Node14</title>
<path fill="none" stroke="midnightblue" d="M1218.83,-184.5C1190.1,-184.5 1160.43,-184.5 1141.08,-184.5"/>
<polygon fill="midnightblue" stroke="midnightblue" points="1218.93,-188 1228.93,-184.5 1218.93,-181 1218.93,-188"/>
</g>
<!-- Node16 -->
<g id="node16" class="node">
<title>Node16</title>
<g id="a_node16"><a xlink:href="number__theory_8hpp.html#a6542b189f3759f43899a8b1978d58e2c" target="_top" xlink:title="Returns a primitive root modulo M.">
<polygon fill="white" stroke="black" points="628,-289 628,-308 714,-308 714,-289 628,-289"/>
<text text-anchor="middle" x="671" y="-296" font-family="Helvetica,sans-Serif" font-size="10.00">primitive_root</text>
</a>
</g>
</g>
<!-- Node3&#45;&gt;Node16 -->
<g id="edge28" class="edge">
<title>Node3&#45;&gt;Node16</title>
<path fill="none" stroke="midnightblue" d="M1240.68,-197.7C1236.62,-199.41 1232.69,-201.33 1229,-203.5 1208.94,-215.28 1213.69,-230.86 1193,-241.5 1031.98,-324.32 806.47,-312.82 714.04,-303.6"/>
<polygon fill="midnightblue" stroke="midnightblue" points="1242.18,-200.88 1250.33,-194.11 1239.74,-194.32 1242.18,-200.88"/>
</g>
<!-- Node22 -->
<g id="node22" class="node">
<title>Node22</title>
<g id="a_node22"><a xlink:href="namespacepermutation.html#a90736a636d503ca5341c3acc87cdb45f" target="_top" xlink:title=" ">
<polygon fill="white" stroke="black" points="1050,-409 1050,-428 1187,-428 1187,-409 1050,-409"/>
<text text-anchor="middle" x="1118.5" y="-416" font-family="Helvetica,sans-Serif" font-size="10.00">permutation::test_power</text>
</a>
</g>
</g>
<!-- Node3&#45;&gt;Node22 -->
<g id="edge30" class="edge">
<title>Node3&#45;&gt;Node22</title>
<path fill="none" stroke="midnightblue" d="M1232.88,-199.83C1231.52,-200.97 1230.22,-202.19 1229,-203.5 1168.54,-268.22 1253.35,-334.68 1193,-399.5 1189.41,-403.36 1185.14,-406.47 1180.5,-408.99"/>
<polygon fill="midnightblue" stroke="midnightblue" points="1235,-202.62 1241.32,-194.11 1231.08,-196.82 1235,-202.62"/>
</g>
<!-- Node24 -->
<g id="node24" class="node">
<title>Node24</title>
<g id="a_node24"><a xlink:href="namespacemodulo__namespace.html#ad997b1805adbf715af5d542dd68b9ce2" target="_top" xlink:title=" ">
<polygon fill="white" stroke="black" points="1048.5,-359.5 1048.5,-389.5 1188.5,-389.5 1188.5,-359.5 1048.5,-359.5"/>
<text text-anchor="start" x="1056.5" y="-377.5" font-family="Helvetica,sans-Serif" font-size="10.00">modulo_namespace::test</text>
<text text-anchor="middle" x="1118.5" y="-366.5" font-family="Helvetica,sans-Serif" font-size="10.00">_power</text>
</a>
</g>
</g>
<!-- Node3&#45;&gt;Node24 -->
<g id="edge33" class="edge">
<title>Node3&#45;&gt;Node24</title>
<path fill="none" stroke="midnightblue" d="M1233.62,-199.46C1232,-200.7 1230.45,-202.05 1229,-203.5 1183.26,-249.23 1235.48,-295.73 1193,-344.5 1187.66,-350.63 1180.88,-355.53 1173.6,-359.44"/>
<polygon fill="midnightblue" stroke="midnightblue" points="1235.7,-202.29 1242.31,-194.01 1231.98,-196.36 1235.7,-202.29"/>
</g>
<!-- Node4&#45;&gt;Node5 -->
<g id="edge4" class="edge">
<title>Node4&#45;&gt;Node5</title>
<path fill="none" stroke="midnightblue" d="M641.88,-146.5C616.48,-146.5 579.2,-146.5 553.18,-146.5"/>
<polygon fill="midnightblue" stroke="midnightblue" points="641.97,-150 651.97,-146.5 641.97,-143 641.97,-150"/>
</g>
<!-- Node6 -->
<g id="node6" class="node">
<title>Node6</title>
<g id="a_node6"><a xlink:href="number__theory_8hpp.html#aed36f6b8b9706133e9b5302b1618e9ef" target="_top" xlink:title=" ">
<polygon fill="white" stroke="black" points="275,-230 275,-249 390,-249 390,-230 275,-230"/>
<text text-anchor="middle" x="332.5" y="-237" font-family="Helvetica,sans-Serif" font-size="10.00">test_number_theory</text>
</a>
</g>
</g>
<!-- Node5&#45;&gt;Node6 -->
<g id="edge5" class="edge">
<title>Node5&#45;&gt;Node6</title>
<path fill="none" stroke="midnightblue" d="M481.44,-158.8C471.67,-162.23 461.33,-166.21 452,-170.5 412.85,-188.5 369.82,-215.54 347.97,-229.84"/>
<polygon fill="midnightblue" stroke="midnightblue" points="482.62,-162.09 490.96,-155.55 480.36,-155.46 482.62,-162.09"/>
</g>
<!-- Node7 -->
<g id="node7" class="node">
<title>Node7</title>
<g id="a_node7"><a xlink:href="test_8cpp.html#aa1c715cac916839a95e25b65b4071c4a" target="_top" xlink:title=" ">
<polygon fill="white" stroke="black" points="160,-249 160,-268 213,-268 213,-249 160,-249"/>
<text text-anchor="middle" x="186.5" y="-256" font-family="Helvetica,sans-Serif" font-size="10.00">test_all</text>
</a>
</g>
</g>
<!-- Node6&#45;&gt;Node7 -->
<g id="edge6" class="edge">
<title>Node6&#45;&gt;Node7</title>
<path fill="none" stroke="midnightblue" d="M264.53,-248.34C246.3,-250.74 227.64,-253.2 213.25,-255.1"/>
<polygon fill="midnightblue" stroke="midnightblue" points="265.13,-251.79 274.59,-247.01 264.22,-244.85 265.13,-251.79"/>
</g>
<!-- Node8 -->
<g id="node8" class="node">
<title>Node8</title>
<g id="a_node8"><a xlink:href="test_8cpp.html#af095a232149097b5605064623a9345ac" target="_top" xlink:title=" ">
<polygon fill="white" stroke="black" points="77,-249 77,-268 124,-268 124,-249 77,-249"/>
<text text-anchor="middle" x="100.5" y="-256" font-family="Helvetica,sans-Serif" font-size="10.00">main2</text>
</a>
</g>
</g>
<!-- Node7&#45;&gt;Node8 -->
<g id="edge7" class="edge">
<title>Node7&#45;&gt;Node8</title>
<path fill="none" stroke="midnightblue" d="M149.59,-258.5C140.96,-258.5 131.99,-258.5 124.16,-258.5"/>
<polygon fill="midnightblue" stroke="midnightblue" points="149.84,-262 159.84,-258.5 149.84,-255 149.84,-262"/>
</g>
<!-- Node9 -->
<g id="node9" class="node">
<title>Node9</title>
<g id="a_node9"><a xlink:href="main_8hpp.html#a0ddf1224851353fc92bfbff6f499fa97" target="_top" xlink:title=" ">
<polygon fill="white" stroke="black" points="0,-249 0,-268 41,-268 41,-249 0,-249"/>
<text text-anchor="middle" x="20.5" y="-256" font-family="Helvetica,sans-Serif" font-size="10.00">main</text>
</a>
</g>
</g>
<!-- Node8&#45;&gt;Node9 -->
<g id="edge8" class="edge">
<title>Node8&#45;&gt;Node9</title>
<path fill="none" stroke="midnightblue" d="M66.66,-258.5C57.96,-258.5 48.84,-258.5 41.1,-258.5"/>
<polygon fill="midnightblue" stroke="midnightblue" points="66.94,-262 76.94,-258.5 66.94,-255 66.94,-262"/>
</g>
<!-- Node12 -->
<g id="node12" class="node">
<title>Node12</title>
<g id="a_node12"><a xlink:href="namespacelinear__algebra.html#ae1cd9afafb1f7ca00e88e73d262c0704" target="_top" xlink:title=" ">
<polygon fill="white" stroke="black" points="897,-49.5 897,-79.5 1008,-79.5 1008,-49.5 897,-49.5"/>
<text text-anchor="start" x="905" y="-67.5" font-family="Helvetica,sans-Serif" font-size="10.00">linear_algebra::test</text>
<text text-anchor="middle" x="952.5" y="-56.5" font-family="Helvetica,sans-Serif" font-size="10.00">_lin_recur</text>
</a>
</g>
</g>
<!-- Node11&#45;&gt;Node12 -->
<g id="edge11" class="edge">
<title>Node11&#45;&gt;Node12</title>
<path fill="none" stroke="midnightblue" d="M1055.93,-64.5C1040.24,-64.5 1023.48,-64.5 1008.16,-64.5"/>
<polygon fill="midnightblue" stroke="midnightblue" points="1056.06,-68 1066.06,-64.5 1056.06,-61 1056.06,-68"/>
</g>
<!-- Node13 -->
<g id="node13" class="node">
<title>Node13</title>
<g id="a_node13"><a xlink:href="namespacelinear__algebra.html#ad92ef518c8439f84b4414ff16ec2cdcc" target="_top" xlink:title=" ">
<polygon fill="white" stroke="black" points="750,-49.5 750,-79.5 861,-79.5 861,-49.5 750,-49.5"/>
<text text-anchor="start" x="758" y="-67.5" font-family="Helvetica,sans-Serif" font-size="10.00">linear_algebra::test</text>
<text text-anchor="middle" x="805.5" y="-56.5" font-family="Helvetica,sans-Serif" font-size="10.00">_linear_algebra</text>
</a>
</g>
</g>
<!-- Node12&#45;&gt;Node13 -->
<g id="edge12" class="edge">
<title>Node12&#45;&gt;Node13</title>
<path fill="none" stroke="midnightblue" d="M886.54,-64.5C878.14,-64.5 869.61,-64.5 861.4,-64.5"/>
<polygon fill="midnightblue" stroke="midnightblue" points="886.68,-68 896.68,-64.5 886.68,-61 886.68,-68"/>
</g>
<!-- Node13&#45;&gt;Node7 -->
<g id="edge13" class="edge">
<title>Node13&#45;&gt;Node7</title>
<path fill="none" stroke="midnightblue" d="M739.89,-75.21C706.47,-80.82 665.02,-87.88 628,-94.5 549.66,-108.5 527.85,-103.41 452,-127.5 357.41,-157.53 336.49,-173.66 249,-220.5 232.4,-229.39 214.14,-240.9 201.86,-248.92"/>
<polygon fill="midnightblue" stroke="midnightblue" points="740.71,-78.62 749.99,-73.52 739.55,-71.72 740.71,-78.62"/>
</g>
<!-- Node15 -->
<g id="node15" class="node">
<title>Node15</title>
<g id="a_node15"><a xlink:href="number__theory_8hpp.html#a8119b9949ade11ba2f554e41cc0830df" target="_top" xlink:title="Returns the factorization of n.">
<polygon fill="white" stroke="black" points="936.5,-213 936.5,-232 968.5,-232 968.5,-213 936.5,-213"/>
<text text-anchor="middle" x="952.5" y="-220" font-family="Helvetica,sans-Serif" font-size="10.00">fac</text>
</a>
</g>
</g>
<!-- Node14&#45;&gt;Node15 -->
<g id="edge15" class="edge">
<title>Node14&#45;&gt;Node15</title>
<path fill="none" stroke="midnightblue" d="M1085.92,-191.82C1050.65,-199.99 995.05,-212.87 968.54,-219.02"/>
<polygon fill="midnightblue" stroke="midnightblue" points="1086.77,-195.21 1095.72,-189.55 1085.19,-188.39 1086.77,-195.21"/>
</g>
<!-- Node21 -->
<g id="node21" class="node">
<title>Node21</title>
<g id="a_node21"><a xlink:href="number__theory_8hpp.html#a87d7c3ba2489977a16ec40544a918e00" target="_top" xlink:title=" ">
<polygon fill="white" stroke="black" points="771,-175 771,-194 840,-194 840,-175 771,-175"/>
<text text-anchor="middle" x="805.5" y="-182" font-family="Helvetica,sans-Serif" font-size="10.00">test_prime</text>
</a>
</g>
</g>
<!-- Node14&#45;&gt;Node21 -->
<g id="edge26" class="edge">
<title>Node14&#45;&gt;Node21</title>
<path fill="none" stroke="midnightblue" d="M1085.39,-184.5C1026.23,-184.5 900.56,-184.5 840.22,-184.5"/>
<polygon fill="midnightblue" stroke="midnightblue" points="1085.63,-188 1095.63,-184.5 1085.63,-181 1085.63,-188"/>
</g>
<!-- Node15&#45;&gt;Node16 -->
<g id="edge16" class="edge">
<title>Node15&#45;&gt;Node16</title>
<path fill="none" stroke="midnightblue" d="M927.04,-234.74C909.13,-243.28 884.03,-254.37 861,-261.5 811.65,-276.77 753.03,-287.09 714.3,-292.86"/>
<polygon fill="midnightblue" stroke="midnightblue" points="928.72,-237.81 936.19,-230.3 925.66,-231.52 928.72,-237.81"/>
</g>
<!-- Node18 -->
<g id="node18" class="node">
<title>Node18</title>
<g id="a_node18"><a xlink:href="number__theory_8hpp.html#afcfd3b1e3415393029bc6a496d825459" target="_top" xlink:title=" ">
<polygon fill="white" stroke="black" points="643,-251 643,-270 699,-270 699,-251 643,-251"/>
<text text-anchor="middle" x="671" y="-258" font-family="Helvetica,sans-Serif" font-size="10.00">test_fac</text>
</a>
</g>
</g>
<!-- Node15&#45;&gt;Node18 -->
<g id="edge19" class="edge">
<title>Node15&#45;&gt;Node18</title>
<path fill="none" stroke="midnightblue" d="M926.45,-228.51C908.35,-232.67 883.28,-238.05 861,-241.5 803.64,-250.38 735.82,-256.03 699.03,-258.69"/>
<polygon fill="midnightblue" stroke="midnightblue" points="927.28,-231.91 936.22,-226.23 925.69,-225.09 927.28,-231.91"/>
</g>
<!-- Node19 -->
<g id="node19" class="node">
<title>Node19</title>
<g id="a_node19"><a xlink:href="number__theory_8hpp.html#af0753ff92c84e6924e1fd6461e77b16f" target="_top" xlink:title="Returns the totient of the integer n.">
<polygon fill="white" stroke="black" points="781,-213 781,-232 830,-232 830,-213 781,-213"/>
<text text-anchor="middle" x="805.5" y="-220" font-family="Helvetica,sans-Serif" font-size="10.00">totient</text>
</a>
</g>
</g>
<!-- Node15&#45;&gt;Node19 -->
<g id="edge21" class="edge">
<title>Node15&#45;&gt;Node19</title>
<path fill="none" stroke="midnightblue" d="M926.02,-222.5C898.94,-222.5 856.47,-222.5 830.12,-222.5"/>
<polygon fill="midnightblue" stroke="midnightblue" points="926.26,-226 936.26,-222.5 926.26,-219 926.26,-226"/>
</g>
<!-- Node17 -->
<g id="node17" class="node">
<title>Node17</title>
<g id="a_node17"><a xlink:href="number__theory_8hpp.html#a0ff115471f41e78245b5dc48eaf8032f" target="_top" xlink:title=" ">
<polygon fill="white" stroke="black" points="467,-289 467,-308 577,-308 577,-289 467,-289"/>
<text text-anchor="middle" x="522" y="-296" font-family="Helvetica,sans-Serif" font-size="10.00">test_primitive_root</text>
</a>
</g>
</g>
<!-- Node16&#45;&gt;Node17 -->
<g id="edge17" class="edge">
<title>Node16&#45;&gt;Node17</title>
<path fill="none" stroke="midnightblue" d="M617.61,-298.5C604.5,-298.5 590.41,-298.5 577.22,-298.5"/>
<polygon fill="midnightblue" stroke="midnightblue" points="617.88,-302 627.88,-298.5 617.88,-295 617.88,-302"/>
</g>
<!-- Node17&#45;&gt;Node6 -->
<g id="edge18" class="edge">
<title>Node17&#45;&gt;Node6</title>
<path fill="none" stroke="midnightblue" d="M480.53,-285.77C445.44,-274.72 395.42,-258.99 363.72,-249.01"/>
<polygon fill="midnightblue" stroke="midnightblue" points="479.87,-289.23 490.46,-288.89 481.97,-282.55 479.87,-289.23"/>
</g>
<!-- Node18&#45;&gt;Node6 -->
<g id="edge20" class="edge">
<title>Node18&#45;&gt;Node6</title>
<path fill="none" stroke="midnightblue" d="M632.41,-258.15C573.47,-254.48 458.94,-247.33 390.03,-243.03"/>
<polygon fill="midnightblue" stroke="midnightblue" points="632.55,-261.67 642.75,-258.8 632.99,-254.68 632.55,-261.67"/>
</g>
<!-- Node19&#45;&gt;Node4 -->
<g id="edge22" class="edge">
<title>Node19&#45;&gt;Node4</title>
<path fill="none" stroke="midnightblue" d="M771.25,-212.67C764.08,-210.06 756.65,-206.99 750,-203.5 724.16,-189.94 697.41,-168.48 682.93,-156.12"/>
<polygon fill="midnightblue" stroke="midnightblue" points="770.2,-216.01 780.79,-215.92 772.46,-209.38 770.2,-216.01"/>
</g>
<!-- Node19&#45;&gt;Node16 -->
<g id="edge23" class="edge">
<title>Node19&#45;&gt;Node16</title>
<path fill="none" stroke="midnightblue" d="M781.81,-238.01C763.82,-250.01 737.81,-266.69 714,-279.5 707.94,-282.76 701.21,-285.97 694.95,-288.8"/>
<polygon fill="midnightblue" stroke="midnightblue" points="784.1,-240.69 790.44,-232.2 780.19,-234.88 784.1,-240.69"/>
</g>
<!-- Node20 -->
<g id="node20" class="node">
<title>Node20</title>
<g id="a_node20"><a xlink:href="number__theory_8hpp.html#a8ae320acad5e35d58ca5ad7adc6ddd78" target="_top" xlink:title=" ">
<polygon fill="white" stroke="black" points="485.5,-213 485.5,-232 558.5,-232 558.5,-213 485.5,-213"/>
<text text-anchor="middle" x="522" y="-220" font-family="Helvetica,sans-Serif" font-size="10.00">test_totient</text>
</a>
</g>
</g>
<!-- Node19&#45;&gt;Node20 -->
<g id="edge24" class="edge">
<title>Node19&#45;&gt;Node20</title>
<path fill="none" stroke="midnightblue" d="M770.67,-222.5C717.18,-222.5 613.53,-222.5 558.82,-222.5"/>
<polygon fill="midnightblue" stroke="midnightblue" points="770.98,-226 780.98,-222.5 770.98,-219 770.98,-226"/>
</g>
<!-- Node20&#45;&gt;Node6 -->
<g id="edge25" class="edge">
<title>Node20&#45;&gt;Node6</title>
<path fill="none" stroke="midnightblue" d="M475.09,-226.66C449.45,-228.99 417.28,-231.9 390.09,-234.37"/>
<polygon fill="midnightblue" stroke="midnightblue" points="475.65,-230.13 485.29,-225.74 475.02,-223.15 475.65,-230.13"/>
</g>
<!-- Node21&#45;&gt;Node6 -->
<g id="edge27" class="edge">
<title>Node21&#45;&gt;Node6</title>
<path fill="none" stroke="midnightblue" d="M760.45,-183.49C693.35,-182.71 561.71,-184.17 452,-203.5 418.97,-209.32 382.19,-221.41 358.5,-229.98"/>
<polygon fill="midnightblue" stroke="midnightblue" points="760.61,-186.99 770.66,-183.63 760.71,-179.99 760.61,-186.99"/>
</g>
<!-- Node23 -->
<g id="node23" class="node">
<title>Node23</title>
<g id="a_node23"><a xlink:href="namespacepermutation.html#a62d1bd6c9055805cce7003ed56bd2e89" target="_top" xlink:title=" ">
<polygon fill="white" stroke="black" points="249,-388 249,-407 416,-407 416,-388 249,-388"/>
<text text-anchor="middle" x="332.5" y="-395" font-family="Helvetica,sans-Serif" font-size="10.00">permutation::test_permutation</text>
</a>
</g>
</g>
<!-- Node22&#45;&gt;Node23 -->
<g id="edge31" class="edge">
<title>Node22&#45;&gt;Node23</title>
<path fill="none" stroke="midnightblue" d="M1039.62,-417.33C976.71,-416.49 885.91,-415.5 806.5,-415.5 806.5,-415.5 806.5,-415.5 670,-415.5 583.27,-415.5 484.14,-409.46 416.06,-404.38"/>
<polygon fill="midnightblue" stroke="midnightblue" points="1039.81,-420.84 1049.86,-417.47 1039.91,-413.84 1039.81,-420.84"/>
</g>
<!-- Node23&#45;&gt;Node7 -->
<g id="edge32" class="edge">
<title>Node23&#45;&gt;Node7</title>
<path fill="none" stroke="midnightblue" d="M305.99,-382.47C288.86,-371.71 266.34,-356.21 249,-339.5 225.36,-316.71 203.6,-284.28 193.48,-268.24"/>
<polygon fill="midnightblue" stroke="midnightblue" points="304.53,-385.68 314.88,-387.94 308.2,-379.72 304.53,-385.68"/>
</g>
<!-- Node25 -->
<g id="node25" class="node">
<title>Node25</title>
<g id="a_node25"><a xlink:href="namespacemodulo__namespace.html#a0a6e5000e068f2fcb17d85038a64adf4" target="_top" xlink:title=" ">
<polygon fill="white" stroke="black" points="452,-342.5 452,-372.5 592,-372.5 592,-342.5 452,-342.5"/>
<text text-anchor="start" x="460" y="-360.5" font-family="Helvetica,sans-Serif" font-size="10.00">modulo_namespace::test</text>
<text text-anchor="middle" x="522" y="-349.5" font-family="Helvetica,sans-Serif" font-size="10.00">_modulo</text>
</a>
</g>
</g>
<!-- Node24&#45;&gt;Node25 -->
<g id="edge34" class="edge">
<title>Node24&#45;&gt;Node25</title>
<path fill="none" stroke="midnightblue" d="M1038.1,-372.23C920.94,-368.88 703.64,-362.67 592.46,-359.49"/>
<polygon fill="midnightblue" stroke="midnightblue" points="1038.34,-375.74 1048.43,-372.52 1038.54,-368.74 1038.34,-375.74"/>
</g>
<!-- Node25&#45;&gt;Node7 -->
<g id="edge35" class="edge">
<title>Node25&#45;&gt;Node7</title>
<path fill="none" stroke="midnightblue" d="M460.74,-339.61C387.18,-317.77 266.08,-281.83 213.37,-266.18"/>
<polygon fill="midnightblue" stroke="midnightblue" points="459.77,-342.97 470.35,-342.46 461.76,-336.26 459.77,-342.97"/>
</g>
<!-- Node27 -->
<g id="node27" class="node">
<title>Node27</title>
<g id="a_node27"><a xlink:href="namespacelinear__algebra.html#a2da52bf2b92d06eeb430122c3ec209ec" target="_top" xlink:title=" ">
<polygon fill="white" stroke="black" points="897,-0.5 897,-30.5 1008,-30.5 1008,-0.5 897,-0.5"/>
<text text-anchor="start" x="905" y="-18.5" font-family="Helvetica,sans-Serif" font-size="10.00">linear_algebra::test</text>
<text text-anchor="middle" x="952.5" y="-7.5" font-family="Helvetica,sans-Serif" font-size="10.00">_invert</text>
</a>
</g>
</g>
<!-- Node26&#45;&gt;Node27 -->
<g id="edge37" class="edge">
<title>Node26&#45;&gt;Node27</title>
<path fill="none" stroke="midnightblue" d="M1260.35,-61.57C1240.25,-53.51 1215.78,-44.78 1193,-39.5 1130.71,-25.07 1057.33,-19.32 1008.36,-17.02"/>
<polygon fill="midnightblue" stroke="midnightblue" points="1259.27,-64.91 1269.85,-65.45 1261.92,-58.43 1259.27,-64.91"/>
</g>
<!-- Node27&#45;&gt;Node13 -->
<g id="edge38" class="edge">
<title>Node27&#45;&gt;Node13</title>
<path fill="none" stroke="midnightblue" d="M897.08,-33.89C881.98,-38.99 865.77,-44.47 851.29,-49.36"/>
<polygon fill="midnightblue" stroke="midnightblue" points="898.46,-37.12 906.81,-30.6 896.22,-30.49 898.46,-37.12"/>
</g>
</g>
</svg>
        <g id="navigator" transform="translate(0 0)" fill="#404254">
                <rect fill="#f2f5e9" fill-opacity="0.5" stroke="#606060" stroke-width=".5" x="0" y="0" width="60" height="60"/>
                <use id="zoomplus" xlink:href="#zoomPlus" x="17" y="9" onmousedown="handleZoom(evt,'in')"/>
                <use id="zoomminus" xlink:href="#zoomMin" x="42" y="9" onmousedown="handleZoom(evt,'out')"/>
                <use id="reset" xlink:href="#resetDef" x="30" y="36" onmousedown="handleReset()"/>
                <g id="arrowUp" xlink:href="#dirArrow" transform="translate(30 24)" onmousedown="handlePan(0,-1)">
                  <use xlink:href="#rim" fill="#404040">
                        <set attributeName="fill" to="#808080" begin="arrowUp.mouseover" end="arrowUp.mouseout"/>
                  </use>
                  <path fill="none" stroke="white" stroke-width="1.5" d="M0,-3.0v7 M-2.5,-0.5L0,-3.0L2.5,-0.5"/>
                </g>
                <g id="arrowRight" xlink:href="#dirArrow" transform="rotate(90) translate(36 -43)" onmousedown="handlePan(1,0)">
                  <use xlink:href="#rim" fill="#404040">
                        <set attributeName="fill" to="#808080" begin="arrowRight.mouseover" end="arrowRight.mouseout"/>
                  </use>
                  <path fill="none" stroke="white" stroke-width="1.5" d="M0,-3.0v7 M-2.5,-0.5L0,-3.0L2.5,-0.5"/>
                </g>
                <g id="arrowDown" xlink:href="#dirArrow" transform="rotate(180) translate(-30 -48)" onmousedown="handlePan(0,1)">
                  <use xlink:href="#rim" fill="#404040">
                        <set attributeName="fill" to="#808080" begin="arrowDown.mouseover" end="arrowDown.mouseout"/>
                  </use>
                  <path fill="none" stroke="white" stroke-width="1.5" d="M0,-3.0v7 M-2.5,-0.5L0,-3.0L2.5,-0.5"/>
                </g>
                <g id="arrowLeft" xlink:href="#dirArrow" transform="rotate(270) translate(-36 17)" onmousedown="handlePan(-1,0)">
                  <use xlink:href="#rim" fill="#404040">
                        <set attributeName="fill" to="#808080" begin="arrowLeft.mouseover" end="arrowLeft.mouseout"/>
                  </use>
                  <path fill="none" stroke="white" stroke-width="1.5" d="M0,-3.0v7 M-2.5,-0.5L0,-3.0L2.5,-0.5"/>
                </g>
        </g>
        <svg viewBox="0 0 15 15" width="100%" height="30px" preserveAspectRatio="xMaxYMin meet">
         <g id="arrow_out" transform="scale(0.3 0.3)">
          <a xlink:href="d__compiled_8cpp_ac969ae49524a67aba9be0f061955ef23_icgraph_org.svg" target="_base">
           <rect id="button" ry="5" rx="5" y="6" x="6" height="38" width="38"
                fill="#f2f5e9" fill-opacity="0.5" stroke="#606060" stroke-width="1.0"/>
           <path id="arrow"
             d="M 11.500037,31.436501 C 11.940474,20.09759 22.043105,11.32322 32.158766,21.979434 L 37.068811,17.246167 C 37.068811,17.246167 37.088388,32 37.088388,32 L 22.160133,31.978069 C 22.160133,31.978069 26.997745,27.140456 26.997745,27.140456 C 18.528582,18.264221 13.291696,25.230495 11.500037,31.436501 z"
             style="fill:#404040;"/>
          </a>
         </g>
        </svg>
</svg>
