<?xml version="1.0" encoding="UTF-8" standalone="no"?>
<!DOCTYPE svg PUBLIC "-//W3C//DTD SVG 1.1//EN"
 "http://www.w3.org/Graphics/SVG/1.1/DTD/svg11.dtd">
<!-- Generated by graphviz version 2.43.0 (0)
 -->
<!-- Title: /home/ram/OmniTemplate/debug.hpp Pages: 1 -->
<svg width="2008pt" height="508pt"
 viewBox="0.00 0.00 2008.00 508.00" xmlns="http://www.w3.org/2000/svg" xmlns:xlink="http://www.w3.org/1999/xlink">
<g id="graph0" class="graph" transform="scale(1 1) rotate(0) translate(4 504)">
<title>/home/ram/OmniTemplate/debug.hpp</title>
<polygon fill="white" stroke="transparent" points="-4,4 -4,-504 2004,-504 2004,4 -4,4"/>
<!-- Node1 -->
<g id="node1" class="node">
<title>Node1</title>
<g id="a_node1"><a xlink:title=" ">
<polygon fill="#bfbfbf" stroke="black" points="1732,-469.5 1732,-499.5 1876,-499.5 1876,-469.5 1732,-469.5"/>
<text text-anchor="start" x="1740" y="-487.5" font-family="Helvetica,sans-Serif" font-size="10.00">/home/ram/OmniTemplate</text>
<text text-anchor="middle" x="1804" y="-476.5" font-family="Helvetica,sans-Serif" font-size="10.00">/debug.hpp</text>
</a>
</g>
</g>
<!-- Node2 -->
<g id="node2" class="node">
<title>Node2</title>
<g id="a_node2"><a xlink:href="core_8hpp.html" target="_top" xlink:title=" ">
<polygon fill="white" stroke="black" points="985,-402.5 985,-432.5 1129,-432.5 1129,-402.5 985,-402.5"/>
<text text-anchor="start" x="993" y="-420.5" font-family="Helvetica,sans-Serif" font-size="10.00">/home/ram/OmniTemplate</text>
<text text-anchor="middle" x="1057" y="-409.5" font-family="Helvetica,sans-Serif" font-size="10.00">/core.hpp</text>
</a>
</g>
</g>
<!-- Node1&#45;&gt;Node2 -->
<g id="edge1" class="edge">
<title>Node1&#45;&gt;Node2</title>
<path fill="none" stroke="midnightblue" d="M1721.37,-476.31C1574.04,-463.49 1268.42,-436.9 1129.07,-424.77"/>
<polygon fill="midnightblue" stroke="midnightblue" points="1721.43,-479.83 1731.7,-477.21 1722.04,-472.85 1721.43,-479.83"/>
</g>
<!-- Node3 -->
<g id="node3" class="node">
<title>Node3</title>
<g id="a_node3"><a xlink:href="2sat_8hpp.html" target="_top" xlink:title=" ">
<polygon fill="white" stroke="black" points="495,-134.5 495,-164.5 639,-164.5 639,-134.5 495,-134.5"/>
<text text-anchor="start" x="503" y="-152.5" font-family="Helvetica,sans-Serif" font-size="10.00">/home/ram/OmniTemplate</text>
<text text-anchor="middle" x="567" y="-141.5" font-family="Helvetica,sans-Serif" font-size="10.00">/2sat.hpp</text>
</a>
</g>
</g>
<!-- Node2&#45;&gt;Node3 -->
<g id="edge2" class="edge">
<title>Node2&#45;&gt;Node3</title>
<path fill="none" stroke="midnightblue" d="M974.52,-415.49C820.27,-412.73 500.62,-402.62 467,-366 442.73,-339.57 395.62,-333.62 481,-201 491.68,-184.4 509.91,-172.57 526.84,-164.56"/>
<polygon fill="midnightblue" stroke="midnightblue" points="974.83,-418.99 984.88,-415.67 974.95,-411.99 974.83,-418.99"/>
</g>
<!-- Node4 -->
<g id="node4" class="node">
<title>Node4</title>
<g id="a_node4"><a xlink:href="template_8hpp.html" target="_top" xlink:title=" ">
<polygon fill="white" stroke="black" points="978,-67.5 978,-97.5 1122,-97.5 1122,-67.5 978,-67.5"/>
<text text-anchor="start" x="986" y="-85.5" font-family="Helvetica,sans-Serif" font-size="10.00">/home/ram/OmniTemplate</text>
<text text-anchor="middle" x="1050" y="-74.5" font-family="Helvetica,sans-Serif" font-size="10.00">/template.hpp</text>
</a>
</g>
</g>
<!-- Node2&#45;&gt;Node4 -->
<g id="edge61" class="edge">
<title>Node2&#45;&gt;Node4</title>
<path fill="none" stroke="midnightblue" d="M1139.05,-404.59C1186.58,-396.06 1240.25,-383.06 1257,-366 1283.06,-339.46 1276,-321.69 1276,-284.5 1276,-284.5 1276,-284.5 1276,-215.5 1276,-143.03 1188.27,-109.62 1122.13,-94.73"/>
<polygon fill="midnightblue" stroke="midnightblue" points="1138.26,-401.18 1129.02,-406.35 1139.47,-408.07 1138.26,-401.18"/>
</g>
<!-- Node6 -->
<g id="node6" class="node">
<title>Node6</title>
<g id="a_node6"><a xlink:href="range_8hpp.html" target="_top" xlink:title=" ">
<polygon fill="white" stroke="black" points="1732,-335.5 1732,-365.5 1876,-365.5 1876,-335.5 1732,-335.5"/>
<text text-anchor="start" x="1740" y="-353.5" font-family="Helvetica,sans-Serif" font-size="10.00">/home/ram/OmniTemplate</text>
<text text-anchor="middle" x="1804" y="-342.5" font-family="Helvetica,sans-Serif" font-size="10.00">/range.hpp</text>
</a>
</g>
</g>
<!-- Node2&#45;&gt;Node6 -->
<g id="edge5" class="edge">
<title>Node2&#45;&gt;Node6</title>
<path fill="none" stroke="midnightblue" d="M1139.57,-412.3C1263.56,-405.68 1504.82,-390.96 1709,-366 1716.36,-365.1 1724.06,-364.01 1731.75,-362.84"/>
<polygon fill="midnightblue" stroke="midnightblue" points="1139.2,-408.81 1129.4,-412.84 1139.57,-415.8 1139.2,-408.81"/>
</g>
<!-- Node9 -->
<g id="node9" class="node">
<title>Node9</title>
<g id="a_node9"><a xlink:href="bit_8hpp.html" target="_top" xlink:title=" ">
<polygon fill="white" stroke="black" points="1580,-201.5 1580,-231.5 1724,-231.5 1724,-201.5 1580,-201.5"/>
<text text-anchor="start" x="1588" y="-219.5" font-family="Helvetica,sans-Serif" font-size="10.00">/home/ram/OmniTemplate</text>
<text text-anchor="middle" x="1652" y="-208.5" font-family="Helvetica,sans-Serif" font-size="10.00">/bit.hpp</text>
</a>
</g>
</g>
<!-- Node2&#45;&gt;Node9 -->
<g id="edge32" class="edge">
<title>Node2&#45;&gt;Node9</title>
<path fill="none" stroke="midnightblue" d="M1139.05,-416.42C1260.76,-414.93 1481.99,-406.51 1549,-366 1593.73,-338.96 1583.83,-310.68 1614,-268 1622.74,-255.64 1633.1,-241.93 1640.79,-231.92"/>
<polygon fill="midnightblue" stroke="midnightblue" points="1138.99,-412.92 1129.03,-416.53 1139.07,-419.92 1138.99,-412.92"/>
</g>
<!-- Node10 -->
<g id="node10" class="node">
<title>Node10</title>
<g id="a_node10"><a xlink:href="graph__theory_8hpp.html" target="_top" xlink:title=" ">
<polygon fill="white" stroke="black" points="490,-201.5 490,-231.5 634,-231.5 634,-201.5 490,-201.5"/>
<text text-anchor="start" x="498" y="-219.5" font-family="Helvetica,sans-Serif" font-size="10.00">/home/ram/OmniTemplate</text>
<text text-anchor="middle" x="562" y="-208.5" font-family="Helvetica,sans-Serif" font-size="10.00">/graph_theory.hpp</text>
</a>
</g>
</g>
<!-- Node2&#45;&gt;Node10 -->
<g id="edge16" class="edge">
<title>Node2&#45;&gt;Node10</title>
<path fill="none" stroke="midnightblue" d="M974.29,-416.98C894.92,-414.83 772.98,-404.61 675,-366 669.03,-363.65 584.57,-304.33 581,-299 567.17,-278.36 563.34,-248.93 562.32,-231.66"/>
<polygon fill="midnightblue" stroke="midnightblue" points="974.64,-420.49 984.72,-417.22 974.81,-413.49 974.64,-420.49"/>
</g>
<!-- Node11 -->
<g id="node11" class="node">
<title>Node11</title>
<g id="a_node11"><a xlink:href="dsu_8hpp.html" target="_top" xlink:title=" ">
<polygon fill="white" stroke="black" points="590,-268.5 590,-298.5 734,-298.5 734,-268.5 590,-268.5"/>
<text text-anchor="start" x="598" y="-286.5" font-family="Helvetica,sans-Serif" font-size="10.00">/home/ram/OmniTemplate</text>
<text text-anchor="middle" x="662" y="-275.5" font-family="Helvetica,sans-Serif" font-size="10.00">/dsu.hpp</text>
</a>
</g>
</g>
<!-- Node2&#45;&gt;Node11 -->
<g id="edge19" class="edge">
<title>Node2&#45;&gt;Node11</title>
<path fill="none" stroke="midnightblue" d="M974.72,-413.23C884.59,-408.18 747.21,-395.75 705,-366 681.98,-349.78 670.29,-317.34 665.23,-298.65"/>
<polygon fill="midnightblue" stroke="midnightblue" points="974.74,-416.73 984.92,-413.78 975.12,-409.74 974.74,-416.73"/>
</g>
<!-- Node12 -->
<g id="node12" class="node">
<title>Node12</title>
<g id="a_node12"><a xlink:href="linear__algebra_8hpp.html" target="_top" xlink:title=" ">
<polygon fill="white" stroke="black" points="1066,-268.5 1066,-298.5 1210,-298.5 1210,-268.5 1066,-268.5"/>
<text text-anchor="start" x="1074" y="-286.5" font-family="Helvetica,sans-Serif" font-size="10.00">/home/ram/OmniTemplate</text>
<text text-anchor="middle" x="1138" y="-275.5" font-family="Helvetica,sans-Serif" font-size="10.00">/linear_algebra.hpp</text>
</a>
</g>
</g>
<!-- Node2&#45;&gt;Node12 -->
<g id="edge22" class="edge">
<title>Node2&#45;&gt;Node12</title>
<path fill="none" stroke="midnightblue" d="M1066.07,-392.78C1072.94,-376.03 1083.19,-353.39 1095,-335 1103.46,-321.82 1115.07,-308.39 1124.09,-298.7"/>
<polygon fill="midnightblue" stroke="midnightblue" points="1062.7,-391.77 1062.24,-402.35 1069.2,-394.36 1062.7,-391.77"/>
</g>
<!-- Node13 -->
<g id="node13" class="node">
<title>Node13</title>
<g id="a_node13"><a xlink:href="modulo_8hpp.html" target="_top" xlink:title=" ">
<polygon fill="white" stroke="black" points="1304,-335.5 1304,-365.5 1448,-365.5 1448,-335.5 1304,-335.5"/>
<text text-anchor="start" x="1312" y="-353.5" font-family="Helvetica,sans-Serif" font-size="10.00">/home/ram/OmniTemplate</text>
<text text-anchor="middle" x="1376" y="-342.5" font-family="Helvetica,sans-Serif" font-size="10.00">/modulo.hpp</text>
</a>
</g>
</g>
<!-- Node2&#45;&gt;Node13 -->
<g id="edge25" class="edge">
<title>Node2&#45;&gt;Node13</title>
<path fill="none" stroke="midnightblue" d="M1135.77,-400.45C1188.29,-389.75 1256.66,-375.82 1307.02,-365.55"/>
<polygon fill="midnightblue" stroke="midnightblue" points="1134.93,-397.05 1125.83,-402.48 1136.32,-403.91 1134.93,-397.05"/>
</g>
<!-- Node14 -->
<g id="node14" class="node">
<title>Node14</title>
<g id="a_node14"><a xlink:href="number__theory_8hpp.html" target="_top" xlink:title=" ">
<polygon fill="white" stroke="black" points="1342,-268.5 1342,-298.5 1486,-298.5 1486,-268.5 1342,-268.5"/>
<text text-anchor="start" x="1350" y="-286.5" font-family="Helvetica,sans-Serif" font-size="10.00">/home/ram/OmniTemplate</text>
<text text-anchor="middle" x="1414" y="-275.5" font-family="Helvetica,sans-Serif" font-size="10.00">/number_theory.hpp</text>
</a>
</g>
</g>
<!-- Node2&#45;&gt;Node14 -->
<g id="edge47" class="edge">
<title>Node2&#45;&gt;Node14</title>
<path fill="none" stroke="midnightblue" d="M1139.23,-411.85C1250.17,-404.73 1436.35,-389.42 1457,-366 1475.09,-345.48 1449.83,-316.01 1431.06,-298.7"/>
<polygon fill="midnightblue" stroke="midnightblue" points="1138.83,-408.37 1129.07,-412.49 1139.27,-415.36 1138.83,-408.37"/>
</g>
<!-- Node15 -->
<g id="node15" class="node">
<title>Node15</title>
<g id="a_node15"><a xlink:href="big__integer_8hpp.html" target="_top" xlink:title=" ">
<polygon fill="white" stroke="black" points="1380,-134.5 1380,-164.5 1524,-164.5 1524,-134.5 1380,-134.5"/>
<text text-anchor="start" x="1388" y="-152.5" font-family="Helvetica,sans-Serif" font-size="10.00">/home/ram/OmniTemplate</text>
<text text-anchor="middle" x="1452" y="-141.5" font-family="Helvetica,sans-Serif" font-size="10.00">/big_integer.hpp</text>
</a>
</g>
</g>
<!-- Node2&#45;&gt;Node15 -->
<g id="edge30" class="edge">
<title>Node2&#45;&gt;Node15</title>
<path fill="none" stroke="midnightblue" d="M1139.13,-416.81C1245.92,-415.52 1424.64,-407.05 1474,-366 1508.25,-337.52 1519.68,-305.08 1495,-268 1472.04,-233.5 1431.96,-266.5 1409,-232 1394.02,-209.49 1417.56,-181.18 1435.29,-164.54"/>
<polygon fill="midnightblue" stroke="midnightblue" points="1138.99,-413.31 1129.03,-416.91 1139.07,-420.31 1138.99,-413.31"/>
</g>
<!-- Node16 -->
<g id="node16" class="node">
<title>Node16</title>
<g id="a_node16"><a xlink:href="combinatorics_8hpp.html" target="_top" xlink:title=" ">
<polygon fill="white" stroke="black" points="1418,-201.5 1418,-231.5 1562,-231.5 1562,-201.5 1418,-201.5"/>
<text text-anchor="start" x="1426" y="-219.5" font-family="Helvetica,sans-Serif" font-size="10.00">/home/ram/OmniTemplate</text>
<text text-anchor="middle" x="1490" y="-208.5" font-family="Helvetica,sans-Serif" font-size="10.00">/combinatorics.hpp</text>
</a>
</g>
</g>
<!-- Node2&#45;&gt;Node16 -->
<g id="edge33" class="edge">
<title>Node2&#45;&gt;Node16</title>
<path fill="none" stroke="midnightblue" d="M1139.24,-413.55C1267.33,-408.1 1502.55,-394.33 1528,-366 1557.11,-333.6 1541.81,-309.31 1528,-268 1523.41,-254.26 1513.45,-241.27 1504.88,-231.9"/>
<polygon fill="midnightblue" stroke="midnightblue" points="1138.92,-410.06 1129.08,-413.98 1139.21,-417.05 1138.92,-410.06"/>
</g>
<!-- Node17 -->
<g id="node17" class="node">
<title>Node17</title>
<g id="a_node17"><a xlink:href="coroutine_8hpp.html" target="_top" xlink:title=" ">
<polygon fill="white" stroke="black" points="1618,-134.5 1618,-164.5 1762,-164.5 1762,-134.5 1618,-134.5"/>
<text text-anchor="start" x="1626" y="-152.5" font-family="Helvetica,sans-Serif" font-size="10.00">/home/ram/OmniTemplate</text>
<text text-anchor="middle" x="1690" y="-141.5" font-family="Helvetica,sans-Serif" font-size="10.00">/coroutine.hpp</text>
</a>
</g>
</g>
<!-- Node2&#45;&gt;Node17 -->
<g id="edge35" class="edge">
<title>Node2&#45;&gt;Node17</title>
<path fill="none" stroke="midnightblue" d="M1139.26,-416.75C1266.9,-415.78 1505.54,-408.16 1578,-366 1624.04,-339.21 1605.48,-301.37 1647,-268 1679.3,-242.05 1710.04,-266.5 1733,-232 1747.98,-209.49 1724.44,-181.18 1706.71,-164.54"/>
<polygon fill="midnightblue" stroke="midnightblue" points="1139.12,-413.25 1129.14,-416.81 1139.16,-420.25 1139.12,-413.25"/>
</g>
<!-- Node18 -->
<g id="node18" class="node">
<title>Node18</title>
<g id="a_node18"><a xlink:href="fft_8hpp.html" target="_top" xlink:title=" ">
<polygon fill="white" stroke="black" points="1818,-201.5 1818,-231.5 1962,-231.5 1962,-201.5 1818,-201.5"/>
<text text-anchor="start" x="1826" y="-219.5" font-family="Helvetica,sans-Serif" font-size="10.00">/home/ram/OmniTemplate</text>
<text text-anchor="middle" x="1890" y="-208.5" font-family="Helvetica,sans-Serif" font-size="10.00">/fft.hpp</text>
</a>
</g>
</g>
<!-- Node2&#45;&gt;Node18 -->
<g id="edge37" class="edge">
<title>Node2&#45;&gt;Node18</title>
<path fill="none" stroke="midnightblue" d="M1139.37,-414.95C1284.6,-411.35 1580.02,-399.99 1677,-366 1700.27,-357.84 1701.3,-346.71 1723,-335 1759.47,-315.33 1774.63,-322.14 1809,-299 1837.63,-279.73 1864.56,-249.28 1879.01,-231.57"/>
<polygon fill="midnightblue" stroke="midnightblue" points="1139.09,-411.45 1129.18,-415.19 1139.26,-418.45 1139.09,-411.45"/>
</g>
<!-- Node19 -->
<g id="node19" class="node">
<title>Node19</title>
<g id="a_node19"><a xlink:href="geometry_8hpp.html" target="_top" xlink:title=" ">
<polygon fill="white" stroke="black" points="0,-134.5 0,-164.5 144,-164.5 144,-134.5 0,-134.5"/>
<text text-anchor="start" x="8" y="-152.5" font-family="Helvetica,sans-Serif" font-size="10.00">/home/ram/OmniTemplate</text>
<text text-anchor="middle" x="72" y="-141.5" font-family="Helvetica,sans-Serif" font-size="10.00">/geometry.hpp</text>
</a>
</g>
</g>
<!-- Node2&#45;&gt;Node19 -->
<g id="edge39" class="edge">
<title>Node2&#45;&gt;Node19</title>
<path fill="none" stroke="midnightblue" d="M974.54,-414.82C768.5,-410.2 242.45,-395.62 169,-366 126.62,-348.91 112.68,-339.23 91,-299 67.08,-254.61 68.5,-192.22 70.6,-164.6"/>
<polygon fill="midnightblue" stroke="midnightblue" points="974.62,-418.32 984.7,-415.05 974.78,-411.32 974.62,-418.32"/>
</g>
<!-- Node20 -->
<g id="node20" class="node">
<title>Node20</title>
<g id="a_node20"><a xlink:href="main_8hpp.html" target="_top" xlink:title=" ">
<polygon fill="white" stroke="black" points="100,-268.5 100,-298.5 244,-298.5 244,-268.5 100,-268.5"/>
<text text-anchor="start" x="108" y="-286.5" font-family="Helvetica,sans-Serif" font-size="10.00">/home/ram/OmniTemplate</text>
<text text-anchor="middle" x="172" y="-275.5" font-family="Helvetica,sans-Serif" font-size="10.00">/main.hpp</text>
</a>
</g>
</g>
<!-- Node2&#45;&gt;Node20 -->
<g id="edge41" class="edge">
<title>Node2&#45;&gt;Node20</title>
<path fill="none" stroke="midnightblue" d="M974.73,-417.21C770.04,-418.2 250.04,-415.73 191,-366 171.44,-349.53 169.8,-317.18 170.68,-298.58"/>
<polygon fill="midnightblue" stroke="midnightblue" points="974.84,-420.71 984.82,-417.15 974.8,-413.71 974.84,-420.71"/>
</g>
<!-- Node21 -->
<g id="node21" class="node">
<title>Node21</title>
<g id="a_node21"><a xlink:href="time_8hpp.html" target="_top" xlink:title=" ">
<polygon fill="white" stroke="black" points="200,-335.5 200,-365.5 344,-365.5 344,-335.5 200,-335.5"/>
<text text-anchor="start" x="208" y="-353.5" font-family="Helvetica,sans-Serif" font-size="10.00">/home/ram/OmniTemplate</text>
<text text-anchor="middle" x="272" y="-342.5" font-family="Helvetica,sans-Serif" font-size="10.00">/time.hpp</text>
</a>
</g>
</g>
<!-- Node2&#45;&gt;Node21 -->
<g id="edge43" class="edge">
<title>Node2&#45;&gt;Node21</title>
<path fill="none" stroke="midnightblue" d="M974.49,-413.08C843.48,-407.08 580,-392.67 358,-366 353.49,-365.46 348.86,-364.84 344.19,-364.18"/>
<polygon fill="midnightblue" stroke="midnightblue" points="974.69,-416.59 984.84,-413.55 975.01,-409.6 974.69,-416.59"/>
</g>
<!-- Node22 -->
<g id="node22" class="node">
<title>Node22</title>
<g id="a_node22"><a xlink:href="my__int_8hpp.html" target="_top" xlink:title=" ">
<polygon fill="white" stroke="black" points="476,-335.5 476,-365.5 620,-365.5 620,-335.5 476,-335.5"/>
<text text-anchor="start" x="484" y="-353.5" font-family="Helvetica,sans-Serif" font-size="10.00">/home/ram/OmniTemplate</text>
<text text-anchor="middle" x="548" y="-342.5" font-family="Helvetica,sans-Serif" font-size="10.00">/my_int.hpp</text>
</a>
</g>
</g>
<!-- Node2&#45;&gt;Node22 -->
<g id="edge46" class="edge">
<title>Node2&#45;&gt;Node22</title>
<path fill="none" stroke="midnightblue" d="M974.48,-407.84C889.12,-398.6 752,-382.98 634,-366 629.5,-365.35 624.88,-364.66 620.22,-363.94"/>
<polygon fill="midnightblue" stroke="midnightblue" points="974.32,-411.34 984.63,-408.93 975.07,-404.38 974.32,-411.34"/>
</g>
<!-- Node23 -->
<g id="node23" class="node">
<title>Node23</title>
<g id="a_node23"><a xlink:href="permutation_8hpp.html" target="_top" xlink:title=" ">
<polygon fill="white" stroke="black" points="238,-201.5 238,-231.5 382,-231.5 382,-201.5 238,-201.5"/>
<text text-anchor="start" x="246" y="-219.5" font-family="Helvetica,sans-Serif" font-size="10.00">/home/ram/OmniTemplate</text>
<text text-anchor="middle" x="310" y="-208.5" font-family="Helvetica,sans-Serif" font-size="10.00">/permutation.hpp</text>
</a>
</g>
</g>
<!-- Node2&#45;&gt;Node23 -->
<g id="edge48" class="edge">
<title>Node2&#45;&gt;Node23</title>
<path fill="none" stroke="midnightblue" d="M974.57,-414.47C808.19,-409.76 443.9,-396.1 396,-366 345.8,-334.45 321.68,-262.22 313.43,-231.62"/>
<polygon fill="midnightblue" stroke="midnightblue" points="974.66,-417.97 984.76,-414.75 974.86,-410.98 974.66,-417.97"/>
</g>
<!-- Node24 -->
<g id="node24" class="node">
<title>Node24</title>
<g id="a_node24"><a xlink:href="persistent_8hpp.html" target="_top" xlink:title=" ">
<polygon fill="white" stroke="black" points="333,-134.5 333,-164.5 477,-164.5 477,-134.5 333,-134.5"/>
<text text-anchor="start" x="341" y="-152.5" font-family="Helvetica,sans-Serif" font-size="10.00">/home/ram/OmniTemplate</text>
<text text-anchor="middle" x="405" y="-141.5" font-family="Helvetica,sans-Serif" font-size="10.00">/persistent.hpp</text>
</a>
</g>
</g>
<!-- Node2&#45;&gt;Node24 -->
<g id="edge50" class="edge">
<title>Node2&#45;&gt;Node24</title>
<path fill="none" stroke="midnightblue" d="M974.66,-415.5C814.09,-412.74 471.4,-402.59 433,-366 376.18,-311.87 393.21,-203.44 401.59,-164.68"/>
<polygon fill="midnightblue" stroke="midnightblue" points="974.91,-419 984.97,-415.67 975.03,-412 974.91,-419"/>
</g>
<!-- Node25 -->
<g id="node25" class="node">
<title>Node25</title>
<g id="a_node25"><a xlink:href="queue_8hpp.html" target="_top" xlink:title=" ">
<polygon fill="white" stroke="black" points="690,-201.5 690,-231.5 834,-231.5 834,-201.5 690,-201.5"/>
<text text-anchor="start" x="698" y="-219.5" font-family="Helvetica,sans-Serif" font-size="10.00">/home/ram/OmniTemplate</text>
<text text-anchor="middle" x="762" y="-208.5" font-family="Helvetica,sans-Serif" font-size="10.00">/queue.hpp</text>
</a>
</g>
</g>
<!-- Node2&#45;&gt;Node25 -->
<g id="edge52" class="edge">
<title>Node2&#45;&gt;Node25</title>
<path fill="none" stroke="midnightblue" d="M994.46,-399.48C967.7,-391.07 936.57,-379.76 910,-366 889.08,-355.17 887.43,-346.74 867,-335 832.84,-315.38 811.96,-328.63 786,-299 769.18,-279.81 764.14,-249.34 762.63,-231.59"/>
<polygon fill="midnightblue" stroke="midnightblue" points="993.52,-402.85 1004.1,-402.44 995.57,-396.16 993.52,-402.85"/>
</g>
<!-- Node26 -->
<g id="node26" class="node">
<title>Node26</title>
<g id="a_node26"><a xlink:href="seg__old_8hpp.html" target="_top" xlink:title=" ">
<polygon fill="white" stroke="black" points="714,-335.5 714,-365.5 858,-365.5 858,-335.5 714,-335.5"/>
<text text-anchor="start" x="722" y="-353.5" font-family="Helvetica,sans-Serif" font-size="10.00">/home/ram/OmniTemplate</text>
<text text-anchor="middle" x="786" y="-342.5" font-family="Helvetica,sans-Serif" font-size="10.00">/seg_old.hpp</text>
</a>
</g>
</g>
<!-- Node2&#45;&gt;Node26 -->
<g id="edge54" class="edge">
<title>Node2&#45;&gt;Node26</title>
<path fill="none" stroke="midnightblue" d="M988.7,-400.12C944.36,-389.48 887.16,-375.76 844.83,-365.61"/>
<polygon fill="midnightblue" stroke="midnightblue" points="987.99,-403.55 998.53,-402.48 989.62,-396.74 987.99,-403.55"/>
</g>
<!-- Node27 -->
<g id="node27" class="node">
<title>Node27</title>
<g id="a_node27"><a xlink:href="segment__tree_8hpp.html" target="_top" xlink:title=" ">
<polygon fill="white" stroke="black" points="790,-134.5 790,-164.5 934,-164.5 934,-134.5 790,-134.5"/>
<text text-anchor="start" x="798" y="-152.5" font-family="Helvetica,sans-Serif" font-size="10.00">/home/ram/OmniTemplate</text>
<text text-anchor="middle" x="862" y="-141.5" font-family="Helvetica,sans-Serif" font-size="10.00">/segment_tree.hpp</text>
</a>
</g>
</g>
<!-- Node2&#45;&gt;Node27 -->
<g id="edge55" class="edge">
<title>Node2&#45;&gt;Node27</title>
<path fill="none" stroke="midnightblue" d="M1012.67,-398.24C992.26,-389.31 967.98,-377.92 947,-366 925.89,-354 923.24,-346.78 902,-335 866.83,-315.5 841.06,-332.62 819,-299 811.44,-287.48 815.01,-281.19 819,-268 824.57,-249.6 835.36,-249.65 843,-232 852.75,-209.47 857.91,-181.17 860.29,-164.53"/>
<polygon fill="midnightblue" stroke="midnightblue" points="1011.48,-401.54 1022.05,-402.29 1014.26,-395.11 1011.48,-401.54"/>
</g>
<!-- Node28 -->
<g id="node28" class="node">
<title>Node28</title>
<g id="a_node28"><a xlink:href="splay__tree_8hpp.html" target="_top" xlink:title=" ">
<polygon fill="white" stroke="black" points="828,-268.5 828,-298.5 972,-298.5 972,-268.5 828,-268.5"/>
<text text-anchor="start" x="836" y="-286.5" font-family="Helvetica,sans-Serif" font-size="10.00">/home/ram/OmniTemplate</text>
<text text-anchor="middle" x="900" y="-275.5" font-family="Helvetica,sans-Serif" font-size="10.00">/splay_tree.hpp</text>
</a>
</g>
</g>
<!-- Node2&#45;&gt;Node28 -->
<g id="edge57" class="edge">
<title>Node2&#45;&gt;Node28</title>
<path fill="none" stroke="midnightblue" d="M1027.06,-396.59C1014.12,-387.64 999,-376.7 986,-366 959.15,-343.91 930.27,-315.47 913.74,-298.69"/>
<polygon fill="midnightblue" stroke="midnightblue" points="1025.38,-399.69 1035.61,-402.44 1029.33,-393.91 1025.38,-399.69"/>
</g>
<!-- Node29 -->
<g id="node29" class="node">
<title>Node29</title>
<g id="a_node29"><a xlink:href="string_8hpp.html" target="_top" xlink:title=" ">
<polygon fill="white" stroke="black" points="928,-201.5 928,-231.5 1072,-231.5 1072,-201.5 928,-201.5"/>
<text text-anchor="start" x="936" y="-219.5" font-family="Helvetica,sans-Serif" font-size="10.00">/home/ram/OmniTemplate</text>
<text text-anchor="middle" x="1000" y="-208.5" font-family="Helvetica,sans-Serif" font-size="10.00">/string.hpp</text>
</a>
</g>
</g>
<!-- Node2&#45;&gt;Node29 -->
<g id="edge59" class="edge">
<title>Node2&#45;&gt;Node29</title>
<path fill="none" stroke="midnightblue" d="M1039.55,-394.21C1033.76,-385.79 1027.82,-375.86 1024,-366 1005.8,-319 1001.4,-258.46 1000.34,-231.51"/>
<polygon fill="midnightblue" stroke="midnightblue" points="1036.75,-396.31 1045.44,-402.37 1042.42,-392.21 1036.75,-396.31"/>
</g>
<!-- Node30 -->
<g id="node30" class="node">
<title>Node30</title>
<g id="a_node30"><a xlink:href="treap_8hpp.html" target="_top" xlink:title=" ">
<polygon fill="white" stroke="black" points="1028,-134.5 1028,-164.5 1172,-164.5 1172,-134.5 1028,-134.5"/>
<text text-anchor="start" x="1036" y="-152.5" font-family="Helvetica,sans-Serif" font-size="10.00">/home/ram/OmniTemplate</text>
<text text-anchor="middle" x="1100" y="-141.5" font-family="Helvetica,sans-Serif" font-size="10.00">/treap.hpp</text>
</a>
</g>
</g>
<!-- Node2&#45;&gt;Node30 -->
<g id="edge62" class="edge">
<title>Node2&#45;&gt;Node30</title>
<path fill="none" stroke="midnightblue" d="M1052.77,-392.21C1048.52,-362.28 1044.22,-310.19 1057,-268 1062.57,-249.6 1073.36,-249.65 1081,-232 1090.75,-209.47 1095.91,-181.17 1098.29,-164.53"/>
<polygon fill="midnightblue" stroke="midnightblue" points="1049.33,-392.83 1054.31,-402.18 1056.25,-391.76 1049.33,-392.83"/>
</g>
<!-- Node31 -->
<g id="node31" class="node">
<title>Node31</title>
<g id="a_node31"><a xlink:href="tree_8hpp.html" target="_top" xlink:title=" ">
<polygon fill="white" stroke="black" points="1104,-335.5 1104,-365.5 1248,-365.5 1248,-335.5 1104,-335.5"/>
<text text-anchor="start" x="1112" y="-353.5" font-family="Helvetica,sans-Serif" font-size="10.00">/home/ram/OmniTemplate</text>
<text text-anchor="middle" x="1176" y="-342.5" font-family="Helvetica,sans-Serif" font-size="10.00">/tree.hpp</text>
</a>
</g>
</g>
<!-- Node2&#45;&gt;Node31 -->
<g id="edge64" class="edge">
<title>Node2&#45;&gt;Node31</title>
<path fill="none" stroke="midnightblue" d="M1091.65,-397.57C1110.37,-387.35 1133.09,-374.94 1150.23,-365.58"/>
<polygon fill="midnightblue" stroke="midnightblue" points="1089.92,-394.53 1082.82,-402.4 1093.28,-400.67 1089.92,-394.53"/>
</g>
<!-- Node3&#45;&gt;Node4 -->
<g id="edge3" class="edge">
<title>Node3&#45;&gt;Node4</title>
<path fill="none" stroke="midnightblue" d="M649.18,-134.57C650.46,-134.38 651.74,-134.19 653,-134 766.24,-117.26 898.15,-101.15 977.8,-91.79"/>
<polygon fill="midnightblue" stroke="midnightblue" points="648.58,-131.12 639.23,-136.1 649.64,-138.04 648.58,-131.12"/>
</g>
<!-- Node5 -->
<g id="node5" class="node">
<title>Node5</title>
<g id="a_node5"><a xlink:href="test_8cpp.html" target="_top" xlink:title=" ">
<polygon fill="white" stroke="black" points="978,-0.5 978,-30.5 1122,-30.5 1122,-0.5 978,-0.5"/>
<text text-anchor="start" x="986" y="-18.5" font-family="Helvetica,sans-Serif" font-size="10.00">/home/ram/OmniTemplate</text>
<text text-anchor="middle" x="1050" y="-7.5" font-family="Helvetica,sans-Serif" font-size="10.00">/test.cpp</text>
</a>
</g>
</g>
<!-- Node4&#45;&gt;Node5 -->
<g id="edge4" class="edge">
<title>Node4&#45;&gt;Node5</title>
<path fill="none" stroke="midnightblue" d="M1050,-57.11C1050,-48.15 1050,-38.32 1050,-30.58"/>
<polygon fill="midnightblue" stroke="midnightblue" points="1046.5,-57.4 1050,-67.4 1053.5,-57.4 1046.5,-57.4"/>
</g>
<!-- Node6&#45;&gt;Node1 -->
<g id="edge9" class="edge">
<title>Node6&#45;&gt;Node1</title>
<path fill="none" stroke="midnightblue" d="M1804,-375.85C1804,-403.31 1804,-447.04 1804,-469.37"/>
<polygon fill="midnightblue" stroke="midnightblue" points="1807.5,-375.52 1804,-365.52 1800.5,-375.52 1807.5,-375.52"/>
</g>
<!-- Node6&#45;&gt;Node2 -->
<g id="edge10" class="edge">
<title>Node6&#45;&gt;Node2</title>
<path fill="none" stroke="midnightblue" d="M1721.48,-366.65C1502.73,-392.92 1250.47,-407.51 1129.16,-413.4"/>
<polygon fill="midnightblue" stroke="midnightblue" points="1722.04,-370.1 1731.55,-365.43 1721.2,-363.16 1722.04,-370.1"/>
</g>
<!-- Node7 -->
<g id="node7" class="node">
<title>Node7</title>
<g id="a_node7"><a xlink:href="operations_8hpp.html" target="_top" xlink:title=" ">
<polygon fill="white" stroke="black" points="1856,-268.5 1856,-298.5 2000,-298.5 2000,-268.5 1856,-268.5"/>
<text text-anchor="start" x="1864" y="-286.5" font-family="Helvetica,sans-Serif" font-size="10.00">/home/ram/OmniTemplate</text>
<text text-anchor="middle" x="1928" y="-275.5" font-family="Helvetica,sans-Serif" font-size="10.00">/operations.hpp</text>
</a>
</g>
</g>
<!-- Node6&#45;&gt;Node7 -->
<g id="edge6" class="edge">
<title>Node6&#45;&gt;Node7</title>
<path fill="none" stroke="midnightblue" d="M1839.84,-330.71C1859.39,-320.46 1883.2,-307.98 1901.15,-298.58"/>
<polygon fill="midnightblue" stroke="midnightblue" points="1838.14,-327.65 1830.91,-335.4 1841.39,-333.85 1838.14,-327.65"/>
</g>
<!-- Node8 -->
<g id="node8" class="node">
<title>Node8</title>
<g id="a_node8"><a xlink:href="utility_8hpp.html" target="_top" xlink:title=" ">
<polygon fill="white" stroke="black" points="1656,-268.5 1656,-298.5 1800,-298.5 1800,-268.5 1656,-268.5"/>
<text text-anchor="start" x="1664" y="-286.5" font-family="Helvetica,sans-Serif" font-size="10.00">/home/ram/OmniTemplate</text>
<text text-anchor="middle" x="1728" y="-275.5" font-family="Helvetica,sans-Serif" font-size="10.00">/utility.hpp</text>
</a>
</g>
</g>
<!-- Node6&#45;&gt;Node8 -->
<g id="edge11" class="edge">
<title>Node6&#45;&gt;Node8</title>
<path fill="none" stroke="midnightblue" d="M1779.89,-328.88C1768.34,-319.01 1754.81,-307.43 1744.46,-298.58"/>
<polygon fill="midnightblue" stroke="midnightblue" points="1777.63,-331.56 1787.51,-335.4 1782.18,-326.24 1777.63,-331.56"/>
</g>
<!-- Node7&#45;&gt;Node1 -->
<g id="edge7" class="edge">
<title>Node7&#45;&gt;Node1</title>
<path fill="none" stroke="midnightblue" d="M1926.34,-308.63C1924.39,-325.47 1920.17,-348.05 1911,-366 1888.79,-409.49 1846.14,-449.01 1821.93,-469.26"/>
<polygon fill="midnightblue" stroke="midnightblue" points="1929.84,-308.79 1927.32,-298.5 1922.87,-308.12 1929.84,-308.79"/>
</g>
<!-- Node7&#45;&gt;Node2 -->
<g id="edge8" class="edge">
<title>Node7&#45;&gt;Node2</title>
<path fill="none" stroke="midnightblue" d="M1922.28,-308.41C1916.36,-327.47 1905.07,-353.04 1885,-366 1822.34,-406.44 1319.05,-414.5 1129.17,-416.1"/>
<polygon fill="midnightblue" stroke="midnightblue" points="1925.7,-309.18 1925.04,-298.61 1918.96,-307.28 1925.7,-309.18"/>
</g>
<!-- Node8&#45;&gt;Node2 -->
<g id="edge12" class="edge">
<title>Node8&#45;&gt;Node2</title>
<path fill="none" stroke="midnightblue" d="M1711.74,-306.75C1696.21,-326.1 1670.93,-353 1642,-366 1552.15,-406.37 1264.59,-414.57 1129.02,-416.16"/>
<polygon fill="midnightblue" stroke="midnightblue" points="1714.6,-308.77 1717.97,-298.73 1709.07,-304.48 1714.6,-308.77"/>
</g>
<!-- Node8&#45;&gt;Node4 -->
<g id="edge15" class="edge">
<title>Node8&#45;&gt;Node4</title>
<path fill="none" stroke="midnightblue" d="M1748.73,-260.66C1755.43,-252.32 1762.12,-242.32 1766,-232 1781.35,-191.18 1800.74,-165.9 1771,-134 1727.38,-87.22 1295.96,-82.92 1122.08,-83.11"/>
<polygon fill="midnightblue" stroke="midnightblue" points="1745.96,-258.52 1742.14,-268.4 1751.29,-263.06 1745.96,-258.52"/>
</g>
<!-- Node8&#45;&gt;Node9 -->
<g id="edge13" class="edge">
<title>Node8&#45;&gt;Node9</title>
<path fill="none" stroke="midnightblue" d="M1703.89,-261.88C1692.34,-252.01 1678.81,-240.43 1668.46,-231.58"/>
<polygon fill="midnightblue" stroke="midnightblue" points="1701.63,-264.56 1711.51,-268.4 1706.18,-259.24 1701.63,-264.56"/>
</g>
<!-- Node9&#45;&gt;Node4 -->
<g id="edge14" class="edge">
<title>Node9&#45;&gt;Node4</title>
<path fill="none" stroke="midnightblue" d="M1632.3,-193.86C1613.28,-174.55 1582.65,-147.32 1550,-134 1474.37,-103.14 1241.87,-90.41 1122.45,-85.79"/>
<polygon fill="midnightblue" stroke="midnightblue" points="1630.02,-196.54 1639.47,-201.34 1635.07,-191.7 1630.02,-196.54"/>
</g>
<!-- Node10&#45;&gt;Node3 -->
<g id="edge17" class="edge">
<title>Node10&#45;&gt;Node3</title>
<path fill="none" stroke="midnightblue" d="M563.85,-191.4C564.55,-182.37 565.31,-172.41 565.92,-164.58"/>
<polygon fill="midnightblue" stroke="midnightblue" points="560.36,-191.16 563.08,-201.4 567.34,-191.69 560.36,-191.16"/>
</g>
<!-- Node10&#45;&gt;Node4 -->
<g id="edge18" class="edge">
<title>Node10&#45;&gt;Node4</title>
<path fill="none" stroke="midnightblue" d="M596.55,-196.2C612.43,-187.08 631.39,-175.83 648,-165 667.74,-152.13 669.14,-142.79 691,-134 785.31,-96.09 903.51,-85.91 977.91,-83.57"/>
<polygon fill="midnightblue" stroke="midnightblue" points="594.54,-193.31 587.59,-201.31 598.01,-199.39 594.54,-193.31"/>
</g>
<!-- Node11&#45;&gt;Node4 -->
<g id="edge21" class="edge">
<title>Node11&#45;&gt;Node4</title>
<path fill="none" stroke="midnightblue" d="M663.63,-257.94C665.7,-240.9 670.39,-218.26 681,-201 705.29,-161.49 718.94,-153.55 761,-134 830.17,-101.85 917.3,-90.03 977.72,-85.76"/>
<polygon fill="midnightblue" stroke="midnightblue" points="660.11,-257.91 662.61,-268.21 667.08,-258.6 660.11,-257.91"/>
</g>
<!-- Node11&#45;&gt;Node10 -->
<g id="edge20" class="edge">
<title>Node11&#45;&gt;Node10</title>
<path fill="none" stroke="midnightblue" d="M631.59,-262.73C616.12,-252.68 597.67,-240.68 583.66,-231.58"/>
<polygon fill="midnightblue" stroke="midnightblue" points="630.01,-265.88 640.3,-268.4 633.82,-260.01 630.01,-265.88"/>
</g>
<!-- Node12&#45;&gt;Node4 -->
<g id="edge24" class="edge">
<title>Node12&#45;&gt;Node4</title>
<path fill="none" stroke="midnightblue" d="M1155.59,-259.77C1177.18,-228.89 1207.82,-173.08 1181,-134 1167.42,-114.2 1144.89,-102.17 1122.32,-94.85"/>
<polygon fill="midnightblue" stroke="midnightblue" points="1152.56,-257.99 1149.53,-268.14 1158.23,-262.1 1152.56,-257.99"/>
</g>
<!-- Node12&#45;&gt;Node10 -->
<g id="edge23" class="edge">
<title>Node12&#45;&gt;Node10</title>
<path fill="none" stroke="midnightblue" d="M1055.91,-273.71C964.42,-263.84 812.07,-247.23 681,-232 665.8,-230.23 649.53,-228.29 634.04,-226.41"/>
<polygon fill="midnightblue" stroke="midnightblue" points="1055.63,-277.2 1065.94,-274.79 1056.38,-270.24 1055.63,-277.2"/>
</g>
<!-- Node13&#45;&gt;Node4 -->
<g id="edge29" class="edge">
<title>Node13&#45;&gt;Node4</title>
<path fill="none" stroke="midnightblue" d="M1353.83,-327.86C1346.28,-319.46 1338.4,-309.37 1333,-299 1298,-231.79 1344.85,-186.3 1290,-134 1266.2,-111.3 1183.71,-97.61 1122.04,-90.32"/>
<polygon fill="midnightblue" stroke="midnightblue" points="1351.47,-330.46 1360.87,-335.35 1356.57,-325.66 1351.47,-330.46"/>
</g>
<!-- Node13&#45;&gt;Node12 -->
<g id="edge26" class="edge">
<title>Node13&#45;&gt;Node12</title>
<path fill="none" stroke="midnightblue" d="M1314.54,-332.71C1275.81,-322.14 1226.37,-308.63 1189.67,-298.61"/>
<polygon fill="midnightblue" stroke="midnightblue" points="1314.08,-336.22 1324.65,-335.48 1315.93,-329.46 1314.08,-336.22"/>
</g>
<!-- Node13&#45;&gt;Node14 -->
<g id="edge27" class="edge">
<title>Node13&#45;&gt;Node14</title>
<path fill="none" stroke="midnightblue" d="M1389.4,-326.58C1394.86,-317.24 1400.99,-306.75 1405.77,-298.58"/>
<polygon fill="midnightblue" stroke="midnightblue" points="1386.27,-325 1384.25,-335.4 1392.31,-328.53 1386.27,-325"/>
</g>
<!-- Node14&#45;&gt;Node4 -->
<g id="edge28" class="edge">
<title>Node14&#45;&gt;Node4</title>
<path fill="none" stroke="midnightblue" d="M1395.93,-260.39C1389.29,-251.79 1381.94,-241.68 1376,-232 1350.64,-190.66 1366.68,-163.26 1328,-134 1296.31,-110.03 1193.4,-96.18 1122.1,-89.23"/>
<polygon fill="midnightblue" stroke="midnightblue" points="1393.33,-262.74 1402.27,-268.43 1398.83,-258.41 1393.33,-262.74"/>
</g>
<!-- Node15&#45;&gt;Node4 -->
<g id="edge31" class="edge">
<title>Node15&#45;&gt;Node4</title>
<path fill="none" stroke="midnightblue" d="M1369.81,-134.63C1368.53,-134.42 1367.26,-134.21 1366,-134 1282.39,-120.27 1186.26,-104.98 1122.19,-94.86"/>
<polygon fill="midnightblue" stroke="midnightblue" points="1369.31,-138.09 1379.75,-136.27 1370.45,-131.19 1369.31,-138.09"/>
</g>
<!-- Node16&#45;&gt;Node4 -->
<g id="edge34" class="edge">
<title>Node16&#45;&gt;Node4</title>
<path fill="none" stroke="midnightblue" d="M1514.4,-194.19C1531.63,-176.62 1549.02,-151.78 1533,-134 1506.04,-104.07 1250.12,-90.68 1122.14,-85.82"/>
<polygon fill="midnightblue" stroke="midnightblue" points="1511.88,-191.76 1507.13,-201.23 1516.75,-196.79 1511.88,-191.76"/>
</g>
<!-- Node17&#45;&gt;Node4 -->
<g id="edge36" class="edge">
<title>Node17&#45;&gt;Node4</title>
<path fill="none" stroke="midnightblue" d="M1607.83,-134.51C1606.54,-134.33 1605.27,-134.16 1604,-134 1431.84,-111.67 1228.32,-95.8 1122.35,-88.33"/>
<polygon fill="midnightblue" stroke="midnightblue" points="1607.41,-137.98 1617.8,-135.92 1608.39,-131.05 1607.41,-137.98"/>
</g>
<!-- Node18&#45;&gt;Node4 -->
<g id="edge38" class="edge">
<title>Node18&#45;&gt;Node4</title>
<path fill="none" stroke="midnightblue" d="M1873.8,-193.12C1858.31,-173.68 1833.05,-146.72 1804,-134 1742.6,-107.11 1298.67,-90.97 1122.13,-85.55"/>
<polygon fill="midnightblue" stroke="midnightblue" points="1871.14,-195.4 1880.01,-201.18 1876.68,-191.12 1871.14,-195.4"/>
</g>
<!-- Node19&#45;&gt;Node4 -->
<g id="edge40" class="edge">
<title>Node19&#45;&gt;Node4</title>
<path fill="none" stroke="midnightblue" d="M154.16,-134.45C155.45,-134.29 156.73,-134.14 158,-134 461.46,-99.93 825.73,-88.4 977.8,-84.89"/>
<polygon fill="midnightblue" stroke="midnightblue" points="153.65,-130.98 144.18,-135.74 154.55,-137.93 153.65,-130.98"/>
</g>
<!-- Node20&#45;&gt;Node4 -->
<g id="edge42" class="edge">
<title>Node20&#45;&gt;Node4</title>
<path fill="none" stroke="midnightblue" d="M167.71,-258.16C163.38,-224.71 161.53,-165.15 196,-134 224.82,-107.95 777.1,-90.75 977.85,-85.33"/>
<polygon fill="midnightblue" stroke="midnightblue" points="164.3,-259.04 169.23,-268.42 171.23,-258.02 164.3,-259.04"/>
</g>
<!-- Node21&#45;&gt;Node4 -->
<g id="edge45" class="edge">
<title>Node21&#45;&gt;Node4</title>
<path fill="none" stroke="midnightblue" d="M268.73,-325.47C265.91,-308.85 261,-286.48 253,-268 245.36,-250.35 234.57,-250.4 229,-232 225.01,-218.81 223.37,-213.58 229,-201 247.26,-160.2 262.8,-151.34 304,-134 365.02,-108.32 802.51,-91.5 977.72,-85.73"/>
<polygon fill="midnightblue" stroke="midnightblue" points="265.29,-326.13 270.29,-335.47 272.2,-325.05 265.29,-326.13"/>
</g>
<!-- Node21&#45;&gt;Node20 -->
<g id="edge44" class="edge">
<title>Node21&#45;&gt;Node20</title>
<path fill="none" stroke="midnightblue" d="M241.59,-329.73C226.12,-319.68 207.67,-307.68 193.66,-298.58"/>
<polygon fill="midnightblue" stroke="midnightblue" points="240.01,-332.88 250.3,-335.4 243.82,-327.01 240.01,-332.88"/>
</g>
<!-- Node23&#45;&gt;Node4 -->
<g id="edge49" class="edge">
<title>Node23&#45;&gt;Node4</title>
<path fill="none" stroke="midnightblue" d="M306.93,-191.18C306.08,-172.69 308.42,-148.08 324,-134 371.77,-90.81 803.91,-84.38 977.9,-83.56"/>
<polygon fill="midnightblue" stroke="midnightblue" points="303.44,-191.55 307.72,-201.25 310.42,-191 303.44,-191.55"/>
</g>
<!-- Node24&#45;&gt;Node4 -->
<g id="edge51" class="edge">
<title>Node24&#45;&gt;Node4</title>
<path fill="none" stroke="midnightblue" d="M487.4,-133.88C669.37,-109.88 872.07,-94.86 977.66,-87.94"/>
<polygon fill="midnightblue" stroke="midnightblue" points="486.82,-130.43 477.37,-135.22 487.75,-137.37 486.82,-130.43"/>
</g>
<!-- Node25&#45;&gt;Node4 -->
<g id="edge53" class="edge">
<title>Node25&#45;&gt;Node4</title>
<path fill="none" stroke="midnightblue" d="M761.03,-191.27C761.68,-172.98 765.72,-148.63 781,-134 808.63,-107.55 907.9,-94.39 977.78,-88.27"/>
<polygon fill="midnightblue" stroke="midnightblue" points="757.53,-191.45 760.99,-201.47 764.53,-191.48 757.53,-191.45"/>
</g>
<!-- Node27&#45;&gt;Node4 -->
<g id="edge56" class="edge">
<title>Node27&#45;&gt;Node4</title>
<path fill="none" stroke="midnightblue" d="M912.35,-131.09C942.7,-120.6 980.85,-107.41 1009.29,-97.58"/>
<polygon fill="midnightblue" stroke="midnightblue" points="911.1,-127.82 902.79,-134.4 913.39,-134.44 911.1,-127.82"/>
</g>
<!-- Node28&#45;&gt;Node4 -->
<g id="edge58" class="edge">
<title>Node28&#45;&gt;Node4</title>
<path fill="none" stroke="midnightblue" d="M901.81,-258.05C903.97,-241.06 908.68,-218.44 919,-201 946.23,-154.99 997.45,-116.98 1027.13,-97.53"/>
<polygon fill="midnightblue" stroke="midnightblue" points="898.3,-257.97 900.73,-268.28 905.26,-258.71 898.3,-257.97"/>
</g>
<!-- Node29&#45;&gt;Node4 -->
<g id="edge60" class="edge">
<title>Node29&#45;&gt;Node4</title>
<path fill="none" stroke="midnightblue" d="M1003.54,-191.27C1006.47,-174.72 1011.39,-152.52 1019,-134 1024.32,-121.06 1032.73,-107.61 1039.46,-97.86"/>
<polygon fill="midnightblue" stroke="midnightblue" points="1000.08,-190.8 1001.9,-201.23 1006.98,-191.93 1000.08,-190.8"/>
</g>
<!-- Node30&#45;&gt;Node4 -->
<g id="edge63" class="edge">
<title>Node30&#45;&gt;Node4</title>
<path fill="none" stroke="midnightblue" d="M1083.04,-126.45C1075.69,-116.9 1067.31,-106 1060.83,-97.58"/>
<polygon fill="midnightblue" stroke="midnightblue" points="1080.28,-128.6 1089.15,-134.4 1085.83,-124.34 1080.28,-128.6"/>
</g>
<!-- Node31&#45;&gt;Node4 -->
<g id="edge65" class="edge">
<title>Node31&#45;&gt;Node4</title>
<path fill="none" stroke="midnightblue" d="M1200,-328.14C1207.59,-319.88 1215.02,-309.81 1219,-299 1235.57,-253.98 1245.07,-188.22 1200,-134 1180.77,-110.86 1150.54,-98.28 1122.25,-91.45"/>
<polygon fill="midnightblue" stroke="midnightblue" points="1197.31,-325.89 1192.8,-335.47 1202.3,-330.8 1197.31,-325.89"/>
</g>
</g>
</svg>
