<?xml version="1.0" encoding="UTF-8" standalone="no"?>
<!DOCTYPE svg PUBLIC "-//W3C//DTD SVG 1.1//EN"
 "http://www.w3.org/Graphics/SVG/1.1/DTD/svg11.dtd">
<!-- Generated by graphviz version 2.43.0 (0)
 -->
<!-- Title: /home/ram/OmniTemplate/src/core/debug.hpp Pages: 1 -->
<svg width="1780pt" height="274pt"
 viewBox="0.00 0.00 1780.00 274.00" xmlns="http://www.w3.org/2000/svg" xmlns:xlink="http://www.w3.org/1999/xlink">
<g id="graph0" class="graph" transform="scale(1 1) rotate(0) translate(4 270)">
<title>/home/ram/OmniTemplate/src/core/debug.hpp</title>
<polygon fill="white" stroke="transparent" points="-4,4 -4,-270 1776,-270 1776,4 -4,4"/>
<!-- Node1 -->
<g id="node1" class="node">
<title>Node1</title>
<g id="a_node1"><a xlink:title=" ">
<polygon fill="#bfbfbf" stroke="black" points="809.5,-235.5 809.5,-265.5 953.5,-265.5 953.5,-235.5 809.5,-235.5"/>
<text text-anchor="start" x="817.5" y="-253.5" font-family="Helvetica,sans-Serif" font-size="10.00">/home/ram/OmniTemplate</text>
<text text-anchor="middle" x="881.5" y="-242.5" font-family="Helvetica,sans-Serif" font-size="10.00">/src/core/debug.hpp</text>
</a>
</g>
</g>
<!-- Node2 -->
<g id="node2" class="node">
<title>Node2</title>
<g id="a_node2"><a xlink:href="operations_8hpp.html" target="_top" xlink:title=" ">
<polygon fill="white" stroke="black" points="801,-179.5 801,-198.5 890,-198.5 890,-179.5 801,-179.5"/>
<text text-anchor="middle" x="845.5" y="-186.5" font-family="Helvetica,sans-Serif" font-size="10.00">operations.hpp</text>
</a>
</g>
</g>
<!-- Node1&#45;&gt;Node2 -->
<g id="edge1" class="edge">
<title>Node1&#45;&gt;Node2</title>
<path fill="none" stroke="midnightblue" d="M872.97,-235.4C867.9,-227.02 861.43,-216.33 856.04,-207.42"/>
<polygon fill="midnightblue" stroke="midnightblue" points="858.91,-205.4 850.74,-198.66 852.92,-209.03 858.91,-205.4"/>
</g>
<!-- Node3 -->
<g id="node3" class="node">
<title>Node3</title>
<g id="a_node3"><a xlink:href="range_8hpp.html" target="_top" xlink:title=" ">
<polygon fill="white" stroke="black" points="752,-123.5 752,-142.5 817,-142.5 817,-123.5 752,-123.5"/>
<text text-anchor="middle" x="784.5" y="-130.5" font-family="Helvetica,sans-Serif" font-size="10.00">range.hpp</text>
</a>
</g>
</g>
<!-- Node1&#45;&gt;Node3 -->
<g id="edge32" class="edge">
<title>Node1&#45;&gt;Node3</title>
<path fill="none" stroke="midnightblue" d="M839.65,-235.46C822.29,-227.49 803.65,-215.7 792.5,-199 783.52,-185.55 782.05,-166.99 782.52,-153.15"/>
<polygon fill="midnightblue" stroke="midnightblue" points="786.03,-153.06 783.24,-142.84 779.05,-152.57 786.03,-153.06"/>
</g>
<!-- Node2&#45;&gt;Node3 -->
<g id="edge2" class="edge">
<title>Node2&#45;&gt;Node3</title>
<path fill="none" stroke="midnightblue" d="M835.7,-179.32C826.68,-171.34 813.09,-159.31 802.18,-149.65"/>
<polygon fill="midnightblue" stroke="midnightblue" points="804.29,-146.84 794.48,-142.83 799.65,-152.08 804.29,-146.84"/>
</g>
<!-- Node4 -->
<g id="node4" class="node">
<title>Node4</title>
<g id="a_node4"><a xlink:href="core_2all_8hpp.html" target="_top" xlink:title=" ">
<polygon fill="white" stroke="black" points="778.5,-67.5 778.5,-86.5 852.5,-86.5 852.5,-67.5 778.5,-67.5"/>
<text text-anchor="middle" x="815.5" y="-74.5" font-family="Helvetica,sans-Serif" font-size="10.00">core/all.hpp</text>
</a>
</g>
</g>
<!-- Node3&#45;&gt;Node4 -->
<g id="edge3" class="edge">
<title>Node3&#45;&gt;Node4</title>
<path fill="none" stroke="midnightblue" d="M784.45,-123.08C787.22,-115.46 793.26,-104.26 799.46,-94.94"/>
<polygon fill="midnightblue" stroke="midnightblue" points="802.35,-96.91 805.35,-86.75 796.67,-92.83 802.35,-96.91"/>
</g>
<!-- Node4&#45;&gt;Node1 -->
<g id="edge25" class="edge">
<title>Node4&#45;&gt;Node1</title>
<path fill="none" stroke="midnightblue" d="M826.43,-86.55C845.63,-102.35 884.77,-138.25 899.5,-179 905.06,-194.39 900.39,-212.26 894.41,-226.16"/>
<polygon fill="midnightblue" stroke="midnightblue" points="891.11,-224.95 889.95,-235.48 897.42,-227.97 891.11,-224.95"/>
</g>
<!-- Node4&#45;&gt;Node2 -->
<g id="edge28" class="edge">
<title>Node4&#45;&gt;Node2</title>
<path fill="none" stroke="midnightblue" d="M817.84,-86.59C822.7,-104.39 833.94,-145.62 840.5,-169.67"/>
<polygon fill="midnightblue" stroke="midnightblue" points="837.14,-170.64 843.15,-179.37 843.89,-168.8 837.14,-170.64"/>
</g>
<!-- Node4&#45;&gt;Node3 -->
<g id="edge29" class="edge">
<title>Node4&#45;&gt;Node3</title>
<path fill="none" stroke="midnightblue" d="M815.61,-86.75C812.89,-94.33 806.87,-105.5 800.68,-114.86"/>
<polygon fill="midnightblue" stroke="midnightblue" points="797.76,-112.91 794.79,-123.08 803.45,-116.99 797.76,-112.91"/>
</g>
<!-- Node5 -->
<g id="node5" class="node">
<title>Node5</title>
<g id="a_node5"><a xlink:title=" ">
<polygon fill="white" stroke="#bfbfbf" points="1572.5,-6 1572.5,-25 1636.5,-25 1636.5,-6 1572.5,-6"/>
<text text-anchor="middle" x="1604.5" y="-13" font-family="Helvetica,sans-Serif" font-size="10.00">algorithm</text>
</a>
</g>
</g>
<!-- Node4&#45;&gt;Node5 -->
<g id="edge4" class="edge">
<title>Node4&#45;&gt;Node5</title>
<path fill="none" stroke="midnightblue" d="M852.66,-75.14C983.9,-71.88 1425.16,-59.04 1563.5,-31 1567.01,-30.29 1570.63,-29.34 1574.19,-28.27"/>
<polygon fill="midnightblue" stroke="midnightblue" points="1575.57,-31.5 1583.96,-25.03 1573.37,-24.86 1575.57,-31.5"/>
</g>
<!-- Node6 -->
<g id="node6" class="node">
<title>Node6</title>
<g id="a_node6"><a xlink:title=" ">
<polygon fill="white" stroke="#bfbfbf" points="1654.5,-6 1654.5,-25 1706.5,-25 1706.5,-6 1654.5,-6"/>
<text text-anchor="middle" x="1680.5" y="-13" font-family="Helvetica,sans-Serif" font-size="10.00">cassert</text>
</a>
</g>
</g>
<!-- Node4&#45;&gt;Node6 -->
<g id="edge5" class="edge">
<title>Node4&#45;&gt;Node6</title>
<path fill="none" stroke="midnightblue" d="M852.85,-75.65C993.54,-74.05 1491.41,-66.02 1645.5,-31 1648.17,-30.39 1650.9,-29.6 1653.6,-28.69"/>
<polygon fill="midnightblue" stroke="midnightblue" points="1654.98,-31.91 1663.08,-25.08 1652.49,-25.37 1654.98,-31.91"/>
</g>
<!-- Node7 -->
<g id="node7" class="node">
<title>Node7</title>
<g id="a_node7"><a xlink:title=" ">
<polygon fill="white" stroke="#bfbfbf" points="83.5,-6 83.5,-25 133.5,-25 133.5,-6 83.5,-6"/>
<text text-anchor="middle" x="108.5" y="-13" font-family="Helvetica,sans-Serif" font-size="10.00">chrono</text>
</a>
</g>
</g>
<!-- Node4&#45;&gt;Node7 -->
<g id="edge6" class="edge">
<title>Node4&#45;&gt;Node7</title>
<path fill="none" stroke="midnightblue" d="M778.24,-75.15C655.5,-72.1 264.78,-60.27 142.5,-31 139.99,-30.4 137.43,-29.63 134.89,-28.76"/>
<polygon fill="midnightblue" stroke="midnightblue" points="136,-25.43 125.41,-25.04 133.44,-31.95 136,-25.43"/>
</g>
<!-- Node8 -->
<g id="node8" class="node">
<title>Node8</title>
<g id="a_node8"><a xlink:title=" ">
<polygon fill="white" stroke="#bfbfbf" points="151.5,-6 151.5,-25 201.5,-25 201.5,-6 151.5,-6"/>
<text text-anchor="middle" x="176.5" y="-13" font-family="Helvetica,sans-Serif" font-size="10.00">climits</text>
</a>
</g>
</g>
<!-- Node4&#45;&gt;Node8 -->
<g id="edge7" class="edge">
<title>Node4&#45;&gt;Node8</title>
<path fill="none" stroke="midnightblue" d="M778.45,-74.84C664.32,-71 319.24,-57.46 210.5,-31 207.99,-30.39 205.43,-29.61 202.9,-28.74"/>
<polygon fill="midnightblue" stroke="midnightblue" points="204.01,-25.41 193.42,-25.01 201.45,-31.93 204.01,-25.41"/>
</g>
<!-- Node9 -->
<g id="node9" class="node">
<title>Node9</title>
<g id="a_node9"><a xlink:title=" ">
<polygon fill="white" stroke="#bfbfbf" points="220,-6 220,-25 279,-25 279,-6 220,-6"/>
<text text-anchor="middle" x="249.5" y="-13" font-family="Helvetica,sans-Serif" font-size="10.00">complex</text>
</a>
</g>
</g>
<!-- Node4&#45;&gt;Node9 -->
<g id="edge8" class="edge">
<title>Node4&#45;&gt;Node9</title>
<path fill="none" stroke="midnightblue" d="M778.47,-76.37C691.56,-76.47 468.21,-72.32 287.5,-31 284.5,-30.31 281.42,-29.44 278.37,-28.46"/>
<polygon fill="midnightblue" stroke="midnightblue" points="279.49,-25.15 268.9,-25.1 277.15,-31.74 279.49,-25.15"/>
</g>
<!-- Node10 -->
<g id="node10" class="node">
<title>Node10</title>
<g id="a_node10"><a xlink:title=" ">
<polygon fill="white" stroke="#bfbfbf" points="297,-6 297,-25 352,-25 352,-6 297,-6"/>
<text text-anchor="middle" x="324.5" y="-13" font-family="Helvetica,sans-Serif" font-size="10.00">fstream</text>
</a>
</g>
</g>
<!-- Node4&#45;&gt;Node10 -->
<g id="edge9" class="edge">
<title>Node4&#45;&gt;Node10</title>
<path fill="none" stroke="midnightblue" d="M778.34,-75.87C699.94,-74.83 512.37,-68.28 360.5,-31 357.83,-30.34 355.1,-29.53 352.39,-28.62"/>
<polygon fill="midnightblue" stroke="midnightblue" points="353.44,-25.28 342.85,-25.06 350.99,-31.84 353.44,-25.28"/>
</g>
<!-- Node11 -->
<g id="node11" class="node">
<title>Node11</title>
<g id="a_node11"><a xlink:title=" ">
<polygon fill="white" stroke="#bfbfbf" points="370,-6 370,-25 435,-25 435,-6 370,-6"/>
<text text-anchor="middle" x="402.5" y="-13" font-family="Helvetica,sans-Serif" font-size="10.00">functional</text>
</a>
</g>
</g>
<!-- Node4&#45;&gt;Node11 -->
<g id="edge10" class="edge">
<title>Node4&#45;&gt;Node11</title>
<path fill="none" stroke="midnightblue" d="M778.46,-74.11C711.19,-70.1 564.78,-58.73 444.5,-31 441.09,-30.21 437.57,-29.25 434.08,-28.2"/>
<polygon fill="midnightblue" stroke="midnightblue" points="435.07,-24.84 424.48,-25.07 432.9,-31.49 435.07,-24.84"/>
</g>
<!-- Node12 -->
<g id="node12" class="node">
<title>Node12</title>
<g id="a_node12"><a xlink:title=" ">
<polygon fill="white" stroke="#bfbfbf" points="453.5,-6 453.5,-25 513.5,-25 513.5,-6 453.5,-6"/>
<text text-anchor="middle" x="483.5" y="-13" font-family="Helvetica,sans-Serif" font-size="10.00">iostream</text>
</a>
</g>
</g>
<!-- Node4&#45;&gt;Node12 -->
<g id="edge11" class="edge">
<title>Node4&#45;&gt;Node12</title>
<path fill="none" stroke="midnightblue" d="M778.47,-72.75C722.4,-67.29 612.91,-54.49 522.5,-31 519.68,-30.27 516.78,-29.41 513.9,-28.48"/>
<polygon fill="midnightblue" stroke="midnightblue" points="514.89,-25.11 504.3,-25.12 512.59,-31.72 514.89,-25.11"/>
</g>
<!-- Node13 -->
<g id="node13" class="node">
<title>Node13</title>
<g id="a_node13"><a xlink:title=" ">
<polygon fill="white" stroke="#bfbfbf" points="531.5,-6 531.5,-25 569.5,-25 569.5,-6 531.5,-6"/>
<text text-anchor="middle" x="550.5" y="-13" font-family="Helvetica,sans-Serif" font-size="10.00">map</text>
</a>
</g>
</g>
<!-- Node4&#45;&gt;Node13 -->
<g id="edge12" class="edge">
<title>Node4&#45;&gt;Node13</title>
<path fill="none" stroke="midnightblue" d="M778.1,-72.29C730.65,-66.83 646.78,-54.6 578.5,-31 577.08,-30.51 575.64,-29.95 574.2,-29.36"/>
<polygon fill="midnightblue" stroke="midnightblue" points="575.5,-26.1 564.97,-25 572.52,-32.44 575.5,-26.1"/>
</g>
<!-- Node14 -->
<g id="node14" class="node">
<title>Node14</title>
<g id="a_node14"><a xlink:title=" ">
<polygon fill="white" stroke="#bfbfbf" points="587.5,-6 587.5,-25 643.5,-25 643.5,-6 587.5,-6"/>
<text text-anchor="middle" x="615.5" y="-13" font-family="Helvetica,sans-Serif" font-size="10.00">numeric</text>
</a>
</g>
</g>
<!-- Node4&#45;&gt;Node14 -->
<g id="edge13" class="edge">
<title>Node4&#45;&gt;Node14</title>
<path fill="none" stroke="midnightblue" d="M780.53,-67.47C747.3,-59.1 696.09,-45.51 652.5,-31 650.24,-30.25 647.91,-29.43 645.57,-28.59"/>
<polygon fill="midnightblue" stroke="midnightblue" points="646.7,-25.27 636.1,-25.01 644.23,-31.82 646.7,-25.27"/>
</g>
<!-- Node15 -->
<g id="node15" class="node">
<title>Node15</title>
<g id="a_node15"><a xlink:title=" ">
<polygon fill="white" stroke="#bfbfbf" points="662,-6 662,-25 709,-25 709,-6 662,-6"/>
<text text-anchor="middle" x="685.5" y="-13" font-family="Helvetica,sans-Serif" font-size="10.00">queue</text>
</a>
</g>
</g>
<!-- Node4&#45;&gt;Node15 -->
<g id="edge14" class="edge">
<title>Node4&#45;&gt;Node15</title>
<path fill="none" stroke="midnightblue" d="M796.87,-67.48C775.06,-57.49 738.7,-40.85 713.48,-29.31"/>
<polygon fill="midnightblue" stroke="midnightblue" points="714.64,-25.99 704.09,-25.01 711.73,-32.35 714.64,-25.99"/>
</g>
<!-- Node16 -->
<g id="node16" class="node">
<title>Node16</title>
<g id="a_node16"><a xlink:title=" ">
<polygon fill="white" stroke="#bfbfbf" points="727.5,-6 727.5,-25 781.5,-25 781.5,-6 727.5,-6"/>
<text text-anchor="middle" x="754.5" y="-13" font-family="Helvetica,sans-Serif" font-size="10.00">random</text>
</a>
</g>
</g>
<!-- Node4&#45;&gt;Node16 -->
<g id="edge15" class="edge">
<title>Node4&#45;&gt;Node16</title>
<path fill="none" stroke="midnightblue" d="M806.76,-67.48C797.34,-58.28 782.14,-43.46 770.55,-32.16"/>
<polygon fill="midnightblue" stroke="midnightblue" points="772.83,-29.49 763.22,-25.01 767.94,-34.5 772.83,-29.49"/>
</g>
<!-- Node17 -->
<g id="node17" class="node">
<title>Node17</title>
<g id="a_node17"><a xlink:title=" ">
<polygon fill="white" stroke="#bfbfbf" points="799.5,-6 799.5,-25 831.5,-25 831.5,-6 799.5,-6"/>
<text text-anchor="middle" x="815.5" y="-13" font-family="Helvetica,sans-Serif" font-size="10.00">set</text>
</a>
</g>
</g>
<!-- Node4&#45;&gt;Node17 -->
<g id="edge16" class="edge">
<title>Node4&#45;&gt;Node17</title>
<path fill="none" stroke="midnightblue" d="M815.5,-67.48C815.5,-59.08 815.5,-45.98 815.5,-35.16"/>
<polygon fill="midnightblue" stroke="midnightblue" points="819,-35.01 815.5,-25.01 812,-35.01 819,-35.01"/>
</g>
<!-- Node18 -->
<g id="node18" class="node">
<title>Node18</title>
<g id="a_node18"><a xlink:title=" ">
<polygon fill="white" stroke="#bfbfbf" points="850,-6 850,-25 893,-25 893,-6 850,-6"/>
<text text-anchor="middle" x="871.5" y="-13" font-family="Helvetica,sans-Serif" font-size="10.00">stack</text>
</a>
</g>
</g>
<!-- Node4&#45;&gt;Node18 -->
<g id="edge17" class="edge">
<title>Node4&#45;&gt;Node18</title>
<path fill="none" stroke="midnightblue" d="M823.52,-67.48C832.09,-58.37 845.86,-43.74 856.46,-32.48"/>
<polygon fill="midnightblue" stroke="midnightblue" points="859.19,-34.69 863.49,-25.01 854.09,-29.89 859.19,-34.69"/>
</g>
<!-- Node19 -->
<g id="node19" class="node">
<title>Node19</title>
<g id="a_node19"><a xlink:title=" ">
<polygon fill="white" stroke="#bfbfbf" points="911.5,-6 911.5,-25 959.5,-25 959.5,-6 911.5,-6"/>
<text text-anchor="middle" x="935.5" y="-13" font-family="Helvetica,sans-Serif" font-size="10.00">thread</text>
</a>
</g>
</g>
<!-- Node4&#45;&gt;Node19 -->
<g id="edge18" class="edge">
<title>Node4&#45;&gt;Node19</title>
<path fill="none" stroke="midnightblue" d="M832.69,-67.48C852.74,-57.53 886.1,-40.99 909.36,-29.46"/>
<polygon fill="midnightblue" stroke="midnightblue" points="910.93,-32.59 918.34,-25.01 907.82,-26.32 910.93,-32.59"/>
</g>
<!-- Node20 -->
<g id="node20" class="node">
<title>Node20</title>
<g id="a_node20"><a xlink:title=" ">
<polygon fill="white" stroke="#bfbfbf" points="978,-6 978,-25 1047,-25 1047,-6 978,-6"/>
<text text-anchor="middle" x="1012.5" y="-13" font-family="Helvetica,sans-Serif" font-size="10.00">type_traits</text>
</a>
</g>
</g>
<!-- Node4&#45;&gt;Node20 -->
<g id="edge19" class="edge">
<title>Node4&#45;&gt;Node20</title>
<path fill="none" stroke="midnightblue" d="M845.49,-67.49C876.4,-58.65 925.94,-44.27 968.5,-31 971.4,-30.1 974.4,-29.14 977.42,-28.17"/>
<polygon fill="midnightblue" stroke="midnightblue" points="978.52,-31.49 986.95,-25.07 976.36,-24.84 978.52,-31.49"/>
</g>
<!-- Node21 -->
<g id="node21" class="node">
<title>Node21</title>
<g id="a_node21"><a xlink:title=" ">
<polygon fill="white" stroke="#bfbfbf" points="1065.5,-6 1065.5,-25 1151.5,-25 1151.5,-6 1065.5,-6"/>
<text text-anchor="middle" x="1108.5" y="-13" font-family="Helvetica,sans-Serif" font-size="10.00">unordered_set</text>
</a>
</g>
</g>
<!-- Node4&#45;&gt;Node21 -->
<g id="edge20" class="edge">
<title>Node4&#45;&gt;Node21</title>
<path fill="none" stroke="midnightblue" d="M852.87,-70.06C900.42,-62.27 984.98,-47.61 1056.5,-31 1060.88,-29.98 1065.45,-28.84 1069.97,-27.65"/>
<polygon fill="midnightblue" stroke="midnightblue" points="1071,-31 1079.73,-25 1069.17,-24.24 1071,-31"/>
</g>
<!-- Node22 -->
<g id="node22" class="node">
<title>Node22</title>
<g id="a_node22"><a xlink:title=" ">
<polygon fill="white" stroke="#bfbfbf" points="1170,-6 1170,-25 1215,-25 1215,-6 1170,-6"/>
<text text-anchor="middle" x="1192.5" y="-13" font-family="Helvetica,sans-Serif" font-size="10.00">utility</text>
</a>
</g>
</g>
<!-- Node4&#45;&gt;Node22 -->
<g id="edge21" class="edge">
<title>Node4&#45;&gt;Node22</title>
<path fill="none" stroke="midnightblue" d="M852.73,-74.74C916.78,-71.77 1051.43,-62.08 1160.5,-31 1162.44,-30.45 1164.4,-29.8 1166.36,-29.08"/>
<polygon fill="midnightblue" stroke="midnightblue" points="1168.01,-32.19 1175.91,-25.14 1165.33,-25.72 1168.01,-32.19"/>
</g>
<!-- Node23 -->
<g id="node23" class="node">
<title>Node23</title>
<g id="a_node23"><a xlink:title=" ">
<polygon fill="white" stroke="#bfbfbf" points="1233,-6 1233,-25 1280,-25 1280,-6 1233,-6"/>
<text text-anchor="middle" x="1256.5" y="-13" font-family="Helvetica,sans-Serif" font-size="10.00">vector</text>
</a>
</g>
</g>
<!-- Node4&#45;&gt;Node23 -->
<g id="edge22" class="edge">
<title>Node4&#45;&gt;Node23</title>
<path fill="none" stroke="midnightblue" d="M852.61,-75.8C925.31,-74.57 1091.02,-67.59 1224.5,-31 1226.65,-30.41 1228.84,-29.69 1231.01,-28.9"/>
<polygon fill="midnightblue" stroke="midnightblue" points="1232.37,-32.12 1240.26,-25.05 1229.68,-25.66 1232.37,-32.12"/>
</g>
<!-- Node24 -->
<g id="node24" class="node">
<title>Node24</title>
<g id="a_node24"><a xlink:title=" ">
<polygon fill="white" stroke="#bfbfbf" points="1298,-6 1298,-25 1419,-25 1419,-6 1298,-6"/>
<text text-anchor="middle" x="1358.5" y="-13" font-family="Helvetica,sans-Serif" font-size="10.00">experimental/iterator</text>
</a>
</g>
</g>
<!-- Node4&#45;&gt;Node24 -->
<g id="edge23" class="edge">
<title>Node4&#45;&gt;Node24</title>
<path fill="none" stroke="midnightblue" d="M852.55,-73.91C932.63,-69.07 1127.69,-55.6 1289.5,-31 1296.74,-29.9 1304.36,-28.52 1311.79,-27.06"/>
<polygon fill="midnightblue" stroke="midnightblue" points="1312.66,-30.45 1321.76,-25.02 1311.26,-23.59 1312.66,-30.45"/>
</g>
<!-- Node25 -->
<g id="node25" class="node">
<title>Node25</title>
<g id="a_node25"><a xlink:title=" ">
<polygon fill="white" stroke="#bfbfbf" points="1437,-0.5 1437,-30.5 1554,-30.5 1554,-0.5 1437,-0.5"/>
<text text-anchor="start" x="1445" y="-18.5" font-family="Helvetica,sans-Serif" font-size="10.00">experimental/source</text>
<text text-anchor="middle" x="1495.5" y="-7.5" font-family="Helvetica,sans-Serif" font-size="10.00">_location</text>
</a>
</g>
</g>
<!-- Node4&#45;&gt;Node25 -->
<g id="edge24" class="edge">
<title>Node4&#45;&gt;Node25</title>
<path fill="none" stroke="midnightblue" d="M852.66,-75.08C947.1,-72.36 1204.04,-62.55 1426.84,-31.12"/>
<polygon fill="midnightblue" stroke="midnightblue" points="1427.35,-34.58 1436.76,-29.7 1426.36,-27.65 1427.35,-34.58"/>
</g>
<!-- Node26 -->
<g id="node26" class="node">
<title>Node26</title>
<g id="a_node26"><a xlink:href="io_8hpp.html" target="_top" xlink:title=" ">
<polygon fill="white" stroke="black" points="1725,-6 1725,-25 1772,-25 1772,-6 1725,-6"/>
<text text-anchor="middle" x="1748.5" y="-13" font-family="Helvetica,sans-Serif" font-size="10.00">io.hpp</text>
</a>
</g>
</g>
<!-- Node4&#45;&gt;Node26 -->
<g id="edge26" class="edge">
<title>Node4&#45;&gt;Node26</title>
<path fill="none" stroke="midnightblue" d="M852.69,-75.93C1000.63,-75.39 1547.54,-70.68 1715.5,-31 1717.86,-30.44 1720.27,-29.72 1722.65,-28.9"/>
<polygon fill="midnightblue" stroke="midnightblue" points="1724.14,-32.07 1732.12,-25.1 1721.54,-25.57 1724.14,-32.07"/>
</g>
<!-- Node27 -->
<g id="node27" class="node">
<title>Node27</title>
<g id="a_node27"><a xlink:href="utility_8hpp.html" target="_top" xlink:title=" ">
<polygon fill="white" stroke="black" points="0,-6 0,-25 65,-25 65,-6 0,-6"/>
<text text-anchor="middle" x="32.5" y="-13" font-family="Helvetica,sans-Serif" font-size="10.00">utility.hpp</text>
</a>
</g>
</g>
<!-- Node4&#45;&gt;Node27 -->
<g id="edge30" class="edge">
<title>Node4&#45;&gt;Node27</title>
<path fill="none" stroke="midnightblue" d="M778.25,-75.07C647.7,-71.62 211.49,-58.28 74.5,-31 70.8,-30.26 66.99,-29.28 63.23,-28.17"/>
<polygon fill="midnightblue" stroke="midnightblue" points="64.15,-24.79 53.56,-25.02 61.98,-31.44 64.15,-24.79"/>
</g>
<!-- Node26&#45;&gt;Node1 -->
<g id="edge27" class="edge">
<title>Node26&#45;&gt;Node1</title>
<path fill="none" stroke="midnightblue" d="M1730.2,-25.15C1725.47,-27.22 1720.35,-29.31 1715.5,-31 1443.29,-125.8 1108.68,-201.62 959.58,-233.37"/>
<polygon fill="midnightblue" stroke="midnightblue" points="958.66,-229.98 949.6,-235.48 960.11,-236.83 958.66,-229.98"/>
</g>
<!-- Node27&#45;&gt;Node3 -->
<g id="edge31" class="edge">
<title>Node27&#45;&gt;Node3</title>
<path fill="none" stroke="midnightblue" d="M54.93,-25.13C61.2,-27.3 68.05,-29.44 74.5,-31 323.36,-91.07 630.49,-119.8 741.74,-128.78"/>
<polygon fill="midnightblue" stroke="midnightblue" points="741.64,-132.29 751.89,-129.59 742.2,-125.31 741.64,-132.29"/>
</g>
</g>
</svg>
