<?xml version="1.0" encoding="UTF-8" standalone="no"?>
<!DOCTYPE svg PUBLIC "-//W3C//DTD SVG 1.1//EN"
 "http://www.w3.org/Graphics/SVG/1.1/DTD/svg11.dtd">
<!-- Generated by graphviz version 2.43.0 (0)
 -->
<!-- Title: /home/ram/OmniTemplate/debug.hpp Pages: 1 -->
<svg width="2118pt" height="508pt"
 viewBox="0.00 0.00 2118.00 508.00" xmlns="http://www.w3.org/2000/svg" xmlns:xlink="http://www.w3.org/1999/xlink">
<g id="graph0" class="graph" transform="scale(1 1) rotate(0) translate(4 504)">
<title>/home/ram/OmniTemplate/debug.hpp</title>
<polygon fill="white" stroke="transparent" points="-4,4 -4,-504 2114,-504 2114,4 -4,4"/>
<!-- Node1 -->
<g id="node1" class="node">
<title>Node1</title>
<g id="a_node1"><a xlink:title=" ">
<polygon fill="#bfbfbf" stroke="black" points="1842,-469.5 1842,-499.5 1986,-499.5 1986,-469.5 1842,-469.5"/>
<text text-anchor="start" x="1850" y="-487.5" font-family="Helvetica,sans-Serif" font-size="10.00">/home/ram/OmniTemplate</text>
<text text-anchor="middle" x="1914" y="-476.5" font-family="Helvetica,sans-Serif" font-size="10.00">/debug.hpp</text>
</a>
</g>
</g>
<!-- Node2 -->
<g id="node2" class="node">
<title>Node2</title>
<g id="a_node2"><a xlink:href="core_8hpp.html" target="_top" xlink:title=" ">
<polygon fill="white" stroke="black" points="1028,-402.5 1028,-432.5 1172,-432.5 1172,-402.5 1028,-402.5"/>
<text text-anchor="start" x="1036" y="-420.5" font-family="Helvetica,sans-Serif" font-size="10.00">/home/ram/OmniTemplate</text>
<text text-anchor="middle" x="1100" y="-409.5" font-family="Helvetica,sans-Serif" font-size="10.00">/core.hpp</text>
</a>
</g>
</g>
<!-- Node1&#45;&gt;Node2 -->
<g id="edge1" class="edge">
<title>Node1&#45;&gt;Node2</title>
<path fill="none" stroke="midnightblue" d="M1831.53,-476.91C1671.88,-464.17 1323.09,-436.31 1172.08,-424.26"/>
<polygon fill="midnightblue" stroke="midnightblue" points="1831.52,-480.42 1841.76,-477.73 1832.07,-473.45 1831.52,-480.42"/>
</g>
<!-- Node3 -->
<g id="node3" class="node">
<title>Node3</title>
<g id="a_node3"><a xlink:href="2sat_8hpp.html" target="_top" xlink:title=" ">
<polygon fill="white" stroke="black" points="300,-134.5 300,-164.5 444,-164.5 444,-134.5 300,-134.5"/>
<text text-anchor="start" x="308" y="-152.5" font-family="Helvetica,sans-Serif" font-size="10.00">/home/ram/OmniTemplate</text>
<text text-anchor="middle" x="372" y="-141.5" font-family="Helvetica,sans-Serif" font-size="10.00">/2sat.hpp</text>
</a>
</g>
</g>
<!-- Node2&#45;&gt;Node3 -->
<g id="edge2" class="edge">
<title>Node2&#45;&gt;Node3</title>
<path fill="none" stroke="midnightblue" d="M1017.61,-414.64C866.4,-410.5 550.53,-398.17 446,-366 388.73,-348.37 359.05,-350.84 329,-299 322.09,-287.08 325.01,-281.19 329,-268 334.57,-249.6 345.36,-249.65 353,-232 362.75,-209.47 367.91,-181.17 370.29,-164.53"/>
<polygon fill="midnightblue" stroke="midnightblue" points="1017.68,-418.15 1027.77,-414.92 1017.86,-411.15 1017.68,-418.15"/>
</g>
<!-- Node4 -->
<g id="node4" class="node">
<title>Node4</title>
<g id="a_node4"><a xlink:href="template_8hpp.html" target="_top" xlink:title=" ">
<polygon fill="white" stroke="black" points="914,-67.5 914,-97.5 1058,-97.5 1058,-67.5 914,-67.5"/>
<text text-anchor="start" x="922" y="-85.5" font-family="Helvetica,sans-Serif" font-size="10.00">/home/ram/OmniTemplate</text>
<text text-anchor="middle" x="986" y="-74.5" font-family="Helvetica,sans-Serif" font-size="10.00">/template.hpp</text>
</a>
</g>
</g>
<!-- Node2&#45;&gt;Node4 -->
<g id="edge58" class="edge">
<title>Node2&#45;&gt;Node4</title>
<path fill="none" stroke="midnightblue" d="M1182.38,-415.37C1334.71,-412.42 1648,-402 1681,-366 1690.31,-355.84 1685.24,-348.11 1681,-335 1672.53,-308.8 1559.92,-147.65 1536,-134 1456.32,-88.51 1188.41,-82.81 1058.22,-82.83"/>
<polygon fill="midnightblue" stroke="midnightblue" points="1182.07,-411.87 1172.14,-415.56 1182.2,-418.87 1182.07,-411.87"/>
</g>
<!-- Node6 -->
<g id="node6" class="node">
<title>Node6</title>
<g id="a_node6"><a xlink:href="my__int_8hpp.html" target="_top" xlink:title=" ">
<polygon fill="white" stroke="black" points="1204,-335.5 1204,-365.5 1348,-365.5 1348,-335.5 1204,-335.5"/>
<text text-anchor="start" x="1212" y="-353.5" font-family="Helvetica,sans-Serif" font-size="10.00">/home/ram/OmniTemplate</text>
<text text-anchor="middle" x="1276" y="-342.5" font-family="Helvetica,sans-Serif" font-size="10.00">/my_int.hpp</text>
</a>
</g>
</g>
<!-- Node2&#45;&gt;Node6 -->
<g id="edge5" class="edge">
<title>Node2&#45;&gt;Node6</title>
<path fill="none" stroke="midnightblue" d="M1142.15,-398.68C1169.38,-388.26 1204.66,-375.28 1232.21,-365.58"/>
<polygon fill="midnightblue" stroke="midnightblue" points="1140.58,-395.53 1132.51,-402.4 1143.1,-402.07 1140.58,-395.53"/>
</g>
<!-- Node7 -->
<g id="node7" class="node">
<title>Node7</title>
<g id="a_node7"><a xlink:href="range_8hpp.html" target="_top" xlink:title=" ">
<polygon fill="white" stroke="black" points="1842,-335.5 1842,-365.5 1986,-365.5 1986,-335.5 1842,-335.5"/>
<text text-anchor="start" x="1850" y="-353.5" font-family="Helvetica,sans-Serif" font-size="10.00">/home/ram/OmniTemplate</text>
<text text-anchor="middle" x="1914" y="-342.5" font-family="Helvetica,sans-Serif" font-size="10.00">/range.hpp</text>
</a>
</g>
</g>
<!-- Node2&#45;&gt;Node7 -->
<g id="edge7" class="edge">
<title>Node2&#45;&gt;Node7</title>
<path fill="none" stroke="midnightblue" d="M1182.26,-413.18C1316.1,-407.37 1588.94,-393.31 1819,-366 1826.37,-365.13 1834.07,-364.05 1841.76,-362.89"/>
<polygon fill="midnightblue" stroke="midnightblue" points="1181.92,-409.69 1172.08,-413.61 1182.23,-416.68 1181.92,-409.69"/>
</g>
<!-- Node10 -->
<g id="node10" class="node">
<title>Node10</title>
<g id="a_node10"><a xlink:href="graph__theory_8hpp.html" target="_top" xlink:title=" ">
<polygon fill="white" stroke="black" points="200,-201.5 200,-231.5 344,-231.5 344,-201.5 200,-201.5"/>
<text text-anchor="start" x="208" y="-219.5" font-family="Helvetica,sans-Serif" font-size="10.00">/home/ram/OmniTemplate</text>
<text text-anchor="middle" x="272" y="-208.5" font-family="Helvetica,sans-Serif" font-size="10.00">/graph_theory.hpp</text>
</a>
</g>
</g>
<!-- Node2&#45;&gt;Node10 -->
<g id="edge16" class="edge">
<title>Node2&#45;&gt;Node10</title>
<path fill="none" stroke="midnightblue" d="M1017.63,-417.03C823.29,-417.5 348.57,-413.68 296,-366 257.7,-331.26 264.29,-261.43 269.24,-231.56"/>
<polygon fill="midnightblue" stroke="midnightblue" points="1017.79,-420.53 1027.78,-417.01 1017.77,-413.53 1017.79,-420.53"/>
</g>
<!-- Node11 -->
<g id="node11" class="node">
<title>Node11</title>
<g id="a_node11"><a xlink:href="dsu_8hpp.html" target="_top" xlink:title=" ">
<polygon fill="white" stroke="black" points="100,-268.5 100,-298.5 244,-298.5 244,-268.5 100,-268.5"/>
<text text-anchor="start" x="108" y="-286.5" font-family="Helvetica,sans-Serif" font-size="10.00">/home/ram/OmniTemplate</text>
<text text-anchor="middle" x="172" y="-275.5" font-family="Helvetica,sans-Serif" font-size="10.00">/dsu.hpp</text>
</a>
</g>
</g>
<!-- Node2&#45;&gt;Node11 -->
<g id="edge19" class="edge">
<title>Node2&#45;&gt;Node11</title>
<path fill="none" stroke="midnightblue" d="M1017.88,-414.76C819.7,-410.12 326.46,-395.69 258,-366 224.41,-351.43 195.95,-317.72 181.73,-298.53"/>
<polygon fill="midnightblue" stroke="midnightblue" points="1017.87,-418.26 1027.95,-415 1018.03,-411.26 1017.87,-418.26"/>
</g>
<!-- Node12 -->
<g id="node12" class="node">
<title>Node12</title>
<g id="a_node12"><a xlink:href="linear__algebra_8hpp.html" target="_top" xlink:title=" ">
<polygon fill="white" stroke="black" points="500,-268.5 500,-298.5 644,-298.5 644,-268.5 500,-268.5"/>
<text text-anchor="start" x="508" y="-286.5" font-family="Helvetica,sans-Serif" font-size="10.00">/home/ram/OmniTemplate</text>
<text text-anchor="middle" x="572" y="-275.5" font-family="Helvetica,sans-Serif" font-size="10.00">/linear_algebra.hpp</text>
</a>
</g>
</g>
<!-- Node2&#45;&gt;Node12 -->
<g id="edge22" class="edge">
<title>Node2&#45;&gt;Node12</title>
<path fill="none" stroke="midnightblue" d="M1017.76,-411.05C917.05,-403.53 752.84,-388.34 696,-366 674.07,-357.38 672.56,-348.13 653,-335 634.01,-322.26 611.96,-308.58 595.66,-298.67"/>
<polygon fill="midnightblue" stroke="midnightblue" points="1017.67,-414.55 1027.9,-411.79 1018.19,-407.57 1017.67,-414.55"/>
</g>
<!-- Node13 -->
<g id="node13" class="node">
<title>Node13</title>
<g id="a_node13"><a xlink:href="modulo_8hpp.html" target="_top" xlink:title=" ">
<polygon fill="white" stroke="black" points="500,-335.5 500,-365.5 644,-365.5 644,-335.5 500,-335.5"/>
<text text-anchor="start" x="508" y="-353.5" font-family="Helvetica,sans-Serif" font-size="10.00">/home/ram/OmniTemplate</text>
<text text-anchor="middle" x="572" y="-342.5" font-family="Helvetica,sans-Serif" font-size="10.00">/modulo.hpp</text>
</a>
</g>
</g>
<!-- Node2&#45;&gt;Node13 -->
<g id="edge25" class="edge">
<title>Node2&#45;&gt;Node13</title>
<path fill="none" stroke="midnightblue" d="M1017.87,-408.44C928.99,-399.41 783.18,-383.69 658,-366 653.5,-365.36 648.88,-364.68 644.22,-363.96"/>
<polygon fill="midnightblue" stroke="midnightblue" points="1017.58,-411.93 1027.89,-409.45 1018.29,-404.96 1017.58,-411.93"/>
</g>
<!-- Node14 -->
<g id="node14" class="node">
<title>Node14</title>
<g id="a_node14"><a xlink:href="number__theory_8hpp.html" target="_top" xlink:title=" ">
<polygon fill="white" stroke="black" points="338,-268.5 338,-298.5 482,-298.5 482,-268.5 338,-268.5"/>
<text text-anchor="start" x="346" y="-286.5" font-family="Helvetica,sans-Serif" font-size="10.00">/home/ram/OmniTemplate</text>
<text text-anchor="middle" x="410" y="-275.5" font-family="Helvetica,sans-Serif" font-size="10.00">/number_theory.hpp</text>
</a>
</g>
</g>
<!-- Node2&#45;&gt;Node14 -->
<g id="edge45" class="edge">
<title>Node2&#45;&gt;Node14</title>
<path fill="none" stroke="midnightblue" d="M1017.8,-416.64C873.77,-415.75 582.41,-408.54 491,-366 458.99,-351.1 432.52,-317.84 419.23,-298.74"/>
<polygon fill="midnightblue" stroke="midnightblue" points="1017.89,-420.14 1027.91,-416.7 1017.93,-413.14 1017.89,-420.14"/>
</g>
<!-- Node15 -->
<g id="node15" class="node">
<title>Node15</title>
<g id="a_node15"><a xlink:href="big__integer_8hpp.html" target="_top" xlink:title=" ">
<polygon fill="white" stroke="black" points="1628,-201.5 1628,-231.5 1772,-231.5 1772,-201.5 1628,-201.5"/>
<text text-anchor="start" x="1636" y="-219.5" font-family="Helvetica,sans-Serif" font-size="10.00">/home/ram/OmniTemplate</text>
<text text-anchor="middle" x="1700" y="-208.5" font-family="Helvetica,sans-Serif" font-size="10.00">/big_integer.hpp</text>
</a>
</g>
</g>
<!-- Node2&#45;&gt;Node15 -->
<g id="edge30" class="edge">
<title>Node2&#45;&gt;Node15</title>
<path fill="none" stroke="midnightblue" d="M1182.33,-415.79C1341.44,-413.56 1678.7,-404.32 1714,-366 1748.56,-328.48 1721.64,-260.77 1707.4,-231.55"/>
<polygon fill="midnightblue" stroke="midnightblue" points="1182.06,-412.29 1172.11,-415.93 1182.16,-419.29 1182.06,-412.29"/>
</g>
<!-- Node16 -->
<g id="node16" class="node">
<title>Node16</title>
<g id="a_node16"><a xlink:href="combinatorics_8hpp.html" target="_top" xlink:title=" ">
<polygon fill="white" stroke="black" points="1690,-134.5 1690,-164.5 1834,-164.5 1834,-134.5 1690,-134.5"/>
<text text-anchor="start" x="1698" y="-152.5" font-family="Helvetica,sans-Serif" font-size="10.00">/home/ram/OmniTemplate</text>
<text text-anchor="middle" x="1762" y="-141.5" font-family="Helvetica,sans-Serif" font-size="10.00">/combinatorics.hpp</text>
</a>
</g>
</g>
<!-- Node2&#45;&gt;Node16 -->
<g id="edge32" class="edge">
<title>Node2&#45;&gt;Node16</title>
<path fill="none" stroke="midnightblue" d="M1182.58,-414.92C1344.63,-411.1 1692.3,-399.12 1735,-366 1795.15,-319.34 1794.62,-275.9 1781,-201 1778.69,-188.28 1773.35,-174.6 1768.91,-164.69"/>
<polygon fill="midnightblue" stroke="midnightblue" points="1182.1,-411.43 1172.18,-415.16 1182.26,-418.43 1182.1,-411.43"/>
</g>
<!-- Node17 -->
<g id="node17" class="node">
<title>Node17</title>
<g id="a_node17"><a xlink:href="coroutine_8hpp.html" target="_top" xlink:title=" ">
<polygon fill="white" stroke="black" points="0,-201.5 0,-231.5 144,-231.5 144,-201.5 0,-201.5"/>
<text text-anchor="start" x="8" y="-219.5" font-family="Helvetica,sans-Serif" font-size="10.00">/home/ram/OmniTemplate</text>
<text text-anchor="middle" x="72" y="-208.5" font-family="Helvetica,sans-Serif" font-size="10.00">/coroutine.hpp</text>
</a>
</g>
</g>
<!-- Node2&#45;&gt;Node17 -->
<g id="edge34" class="edge">
<title>Node2&#45;&gt;Node17</title>
<path fill="none" stroke="midnightblue" d="M1017.53,-416.48C827.12,-415.69 361.67,-409.24 212,-366 152.94,-348.94 128.06,-348.05 91,-299 75.94,-279.06 72.54,-249.13 71.93,-231.63"/>
<polygon fill="midnightblue" stroke="midnightblue" points="1017.75,-419.98 1027.76,-416.52 1017.77,-412.98 1017.75,-419.98"/>
</g>
<!-- Node18 -->
<g id="node18" class="node">
<title>Node18</title>
<g id="a_node18"><a xlink:href="fft_8hpp.html" target="_top" xlink:title=" ">
<polygon fill="white" stroke="black" points="638,-134.5 638,-164.5 782,-164.5 782,-134.5 638,-134.5"/>
<text text-anchor="start" x="646" y="-152.5" font-family="Helvetica,sans-Serif" font-size="10.00">/home/ram/OmniTemplate</text>
<text text-anchor="middle" x="710" y="-141.5" font-family="Helvetica,sans-Serif" font-size="10.00">/fft.hpp</text>
</a>
</g>
</g>
<!-- Node2&#45;&gt;Node18 -->
<g id="edge36" class="edge">
<title>Node2&#45;&gt;Node18</title>
<path fill="none" stroke="midnightblue" d="M1017.68,-411.25C932.8,-404.58 807.21,-390.83 766,-366 750.14,-356.45 672.79,-249.58 667,-232 662.69,-218.91 662.24,-213.93 667,-201 672.25,-186.74 683.52,-173.76 693.2,-164.53"/>
<polygon fill="midnightblue" stroke="midnightblue" points="1017.58,-414.75 1027.82,-412.03 1018.12,-407.77 1017.58,-414.75"/>
</g>
<!-- Node19 -->
<g id="node19" class="node">
<title>Node19</title>
<g id="a_node19"><a xlink:href="geometry_8hpp.html" target="_top" xlink:title=" ">
<polygon fill="white" stroke="black" points="676,-201.5 676,-231.5 820,-231.5 820,-201.5 676,-201.5"/>
<text text-anchor="start" x="684" y="-219.5" font-family="Helvetica,sans-Serif" font-size="10.00">/home/ram/OmniTemplate</text>
<text text-anchor="middle" x="748" y="-208.5" font-family="Helvetica,sans-Serif" font-size="10.00">/geometry.hpp</text>
</a>
</g>
</g>
<!-- Node2&#45;&gt;Node19 -->
<g id="edge38" class="edge">
<title>Node2&#45;&gt;Node19</title>
<path fill="none" stroke="midnightblue" d="M1017.44,-411.74C939.15,-405.68 828.63,-392.62 795,-366 753.02,-332.77 747.86,-262.11 747.68,-231.8"/>
<polygon fill="midnightblue" stroke="midnightblue" points="1017.55,-415.26 1027.78,-412.52 1018.07,-408.28 1017.55,-415.26"/>
</g>
<!-- Node20 -->
<g id="node20" class="node">
<title>Node20</title>
<g id="a_node20"><a xlink:href="main_8hpp.html" target="_top" xlink:title=" ">
<polygon fill="white" stroke="black" points="776,-268.5 776,-298.5 920,-298.5 920,-268.5 776,-268.5"/>
<text text-anchor="start" x="784" y="-286.5" font-family="Helvetica,sans-Serif" font-size="10.00">/home/ram/OmniTemplate</text>
<text text-anchor="middle" x="848" y="-275.5" font-family="Helvetica,sans-Serif" font-size="10.00">/main.hpp</text>
</a>
</g>
</g>
<!-- Node2&#45;&gt;Node20 -->
<g id="edge40" class="edge">
<title>Node2&#45;&gt;Node20</title>
<path fill="none" stroke="midnightblue" d="M1017.71,-413.91C940.1,-409.53 831.77,-397.74 805,-366 787.36,-345.09 812.47,-315.75 831.09,-298.57"/>
<polygon fill="midnightblue" stroke="midnightblue" points="1017.8,-417.42 1027.97,-414.46 1018.17,-410.43 1017.8,-417.42"/>
</g>
<!-- Node21 -->
<g id="node21" class="node">
<title>Node21</title>
<g id="a_node21"><a xlink:href="time_8hpp.html" target="_top" xlink:title=" ">
<polygon fill="white" stroke="black" points="814,-335.5 814,-365.5 958,-365.5 958,-335.5 814,-335.5"/>
<text text-anchor="start" x="822" y="-353.5" font-family="Helvetica,sans-Serif" font-size="10.00">/home/ram/OmniTemplate</text>
<text text-anchor="middle" x="886" y="-342.5" font-family="Helvetica,sans-Serif" font-size="10.00">/time.hpp</text>
</a>
</g>
</g>
<!-- Node2&#45;&gt;Node21 -->
<g id="edge42" class="edge">
<title>Node2&#45;&gt;Node21</title>
<path fill="none" stroke="midnightblue" d="M1043.85,-399.44C1009.16,-388.91 965.18,-375.55 932.46,-365.61"/>
<polygon fill="midnightblue" stroke="midnightblue" points="1043.24,-402.92 1053.83,-402.48 1045.28,-396.22 1043.24,-402.92"/>
</g>
<!-- Node22 -->
<g id="node22" class="node">
<title>Node22</title>
<g id="a_node22"><a xlink:href="permutation_8hpp.html" target="_top" xlink:title=" ">
<polygon fill="white" stroke="black" points="914,-134.5 914,-164.5 1058,-164.5 1058,-134.5 914,-134.5"/>
<text text-anchor="start" x="922" y="-152.5" font-family="Helvetica,sans-Serif" font-size="10.00">/home/ram/OmniTemplate</text>
<text text-anchor="middle" x="986" y="-141.5" font-family="Helvetica,sans-Serif" font-size="10.00">/permutation.hpp</text>
</a>
</g>
</g>
<!-- Node2&#45;&gt;Node22 -->
<g id="edge46" class="edge">
<title>Node2&#45;&gt;Node22</title>
<path fill="none" stroke="midnightblue" d="M1068.45,-396.5C1056.29,-387.95 1042.75,-377.33 1032,-366 982.79,-314.14 963.66,-300.44 943,-232 939.02,-218.81 938.24,-213.93 943,-201 948.25,-186.74 959.52,-173.76 969.2,-164.53"/>
<polygon fill="midnightblue" stroke="midnightblue" points="1066.77,-399.59 1077,-402.34 1070.71,-393.81 1066.77,-399.59"/>
</g>
<!-- Node23 -->
<g id="node23" class="node">
<title>Node23</title>
<g id="a_node23"><a xlink:href="persistent_8hpp.html" target="_top" xlink:title=" ">
<polygon fill="white" stroke="black" points="952,-201.5 952,-231.5 1096,-231.5 1096,-201.5 952,-201.5"/>
<text text-anchor="start" x="960" y="-219.5" font-family="Helvetica,sans-Serif" font-size="10.00">/home/ram/OmniTemplate</text>
<text text-anchor="middle" x="1024" y="-208.5" font-family="Helvetica,sans-Serif" font-size="10.00">/persistent.hpp</text>
</a>
</g>
</g>
<!-- Node2&#45;&gt;Node23 -->
<g id="edge48" class="edge">
<title>Node2&#45;&gt;Node23</title>
<path fill="none" stroke="midnightblue" d="M1072.23,-395.67C1063.12,-387.42 1053.84,-377.22 1048,-366 1024.6,-321.06 1022.88,-258.95 1023.42,-231.5"/>
<polygon fill="midnightblue" stroke="midnightblue" points="1070.22,-398.56 1080.1,-402.39 1074.77,-393.23 1070.22,-398.56"/>
</g>
<!-- Node24 -->
<g id="node24" class="node">
<title>Node24</title>
<g id="a_node24"><a xlink:href="queue_8hpp.html" target="_top" xlink:title=" ">
<polygon fill="white" stroke="black" points="1114,-134.5 1114,-164.5 1258,-164.5 1258,-134.5 1114,-134.5"/>
<text text-anchor="start" x="1122" y="-152.5" font-family="Helvetica,sans-Serif" font-size="10.00">/home/ram/OmniTemplate</text>
<text text-anchor="middle" x="1186" y="-141.5" font-family="Helvetica,sans-Serif" font-size="10.00">/queue.hpp</text>
</a>
</g>
</g>
<!-- Node2&#45;&gt;Node24 -->
<g id="edge50" class="edge">
<title>Node2&#45;&gt;Node24</title>
<path fill="none" stroke="midnightblue" d="M1100.48,-392.24C1102.22,-350.76 1109.9,-264.51 1143,-201 1150.13,-187.32 1161.58,-174.12 1170.87,-164.65"/>
<polygon fill="midnightblue" stroke="midnightblue" points="1096.98,-392.13 1100.14,-402.25 1103.98,-392.37 1096.98,-392.13"/>
</g>
<!-- Node25 -->
<g id="node25" class="node">
<title>Node25</title>
<g id="a_node25"><a xlink:href="segment__tree_8hpp.html" target="_top" xlink:title=" ">
<polygon fill="white" stroke="black" points="1152,-201.5 1152,-231.5 1296,-231.5 1296,-201.5 1152,-201.5"/>
<text text-anchor="start" x="1160" y="-219.5" font-family="Helvetica,sans-Serif" font-size="10.00">/home/ram/OmniTemplate</text>
<text text-anchor="middle" x="1224" y="-208.5" font-family="Helvetica,sans-Serif" font-size="10.00">/segment_tree.hpp</text>
</a>
</g>
</g>
<!-- Node2&#45;&gt;Node25 -->
<g id="edge52" class="edge">
<title>Node2&#45;&gt;Node25</title>
<path fill="none" stroke="midnightblue" d="M1104.91,-392.43C1108.82,-375.79 1115.12,-353.42 1124,-335 1139.79,-302.23 1147.27,-295.57 1171,-268 1182.28,-254.9 1196.53,-241.47 1207.41,-231.75"/>
<polygon fill="midnightblue" stroke="midnightblue" points="1101.44,-391.92 1102.68,-402.44 1108.27,-393.44 1101.44,-391.92"/>
</g>
<!-- Node26 -->
<g id="node26" class="node">
<title>Node26</title>
<g id="a_node26"><a xlink:href="splay__tree_8hpp.html" target="_top" xlink:title=" ">
<polygon fill="white" stroke="black" points="1314,-134.5 1314,-164.5 1458,-164.5 1458,-134.5 1314,-134.5"/>
<text text-anchor="start" x="1322" y="-152.5" font-family="Helvetica,sans-Serif" font-size="10.00">/home/ram/OmniTemplate</text>
<text text-anchor="middle" x="1386" y="-141.5" font-family="Helvetica,sans-Serif" font-size="10.00">/splay_tree.hpp</text>
</a>
</g>
</g>
<!-- Node2&#45;&gt;Node26 -->
<g id="edge54" class="edge">
<title>Node2&#45;&gt;Node26</title>
<path fill="none" stroke="midnightblue" d="M1111.4,-393.39C1120.72,-376.02 1135.09,-352.33 1152,-335 1209.25,-276.33 1241.8,-284.21 1305,-232 1331.14,-210.4 1358.29,-181.55 1373.57,-164.6"/>
<polygon fill="midnightblue" stroke="midnightblue" points="1108.27,-391.82 1106.76,-402.31 1114.48,-395.05 1108.27,-391.82"/>
</g>
<!-- Node27 -->
<g id="node27" class="node">
<title>Node27</title>
<g id="a_node27"><a xlink:href="string_8hpp.html" target="_top" xlink:title=" ">
<polygon fill="white" stroke="black" points="1306,-268.5 1306,-298.5 1450,-298.5 1450,-268.5 1306,-268.5"/>
<text text-anchor="start" x="1314" y="-286.5" font-family="Helvetica,sans-Serif" font-size="10.00">/home/ram/OmniTemplate</text>
<text text-anchor="middle" x="1378" y="-275.5" font-family="Helvetica,sans-Serif" font-size="10.00">/string.hpp</text>
</a>
</g>
</g>
<!-- Node2&#45;&gt;Node27 -->
<g id="edge56" class="edge">
<title>Node2&#45;&gt;Node27</title>
<path fill="none" stroke="midnightblue" d="M1122.4,-395.27C1145.21,-374.01 1179.39,-343.31 1195,-335 1229.33,-316.73 1270.89,-304.57 1305.73,-296.77"/>
<polygon fill="midnightblue" stroke="midnightblue" points="1119.75,-392.95 1114.85,-402.34 1124.54,-398.05 1119.75,-392.95"/>
</g>
<!-- Node28 -->
<g id="node28" class="node">
<title>Node28</title>
<g id="a_node28"><a xlink:href="treap_8hpp.html" target="_top" xlink:title=" ">
<polygon fill="white" stroke="black" points="1366,-335.5 1366,-365.5 1510,-365.5 1510,-335.5 1366,-335.5"/>
<text text-anchor="start" x="1374" y="-353.5" font-family="Helvetica,sans-Serif" font-size="10.00">/home/ram/OmniTemplate</text>
<text text-anchor="middle" x="1438" y="-342.5" font-family="Helvetica,sans-Serif" font-size="10.00">/treap.hpp</text>
</a>
</g>
</g>
<!-- Node2&#45;&gt;Node28 -->
<g id="edge59" class="edge">
<title>Node2&#45;&gt;Node28</title>
<path fill="none" stroke="midnightblue" d="M1182,-400.73C1238.11,-389.94 1311.82,-375.77 1365.73,-365.4"/>
<polygon fill="midnightblue" stroke="midnightblue" points="1181.25,-397.31 1172.09,-402.64 1182.58,-404.18 1181.25,-397.31"/>
</g>
<!-- Node29 -->
<g id="node29" class="node">
<title>Node29</title>
<g id="a_node29"><a xlink:href="tree_8hpp.html" target="_top" xlink:title=" ">
<polygon fill="white" stroke="black" points="1528,-335.5 1528,-365.5 1672,-365.5 1672,-335.5 1528,-335.5"/>
<text text-anchor="start" x="1536" y="-353.5" font-family="Helvetica,sans-Serif" font-size="10.00">/home/ram/OmniTemplate</text>
<text text-anchor="middle" x="1600" y="-342.5" font-family="Helvetica,sans-Serif" font-size="10.00">/tree.hpp</text>
</a>
</g>
</g>
<!-- Node2&#45;&gt;Node29 -->
<g id="edge61" class="edge">
<title>Node2&#45;&gt;Node29</title>
<path fill="none" stroke="midnightblue" d="M1182.15,-408C1266.76,-398.92 1402.37,-383.45 1519,-366 1521.83,-365.58 1524.7,-365.13 1527.61,-364.67"/>
<polygon fill="midnightblue" stroke="midnightblue" points="1181.66,-404.54 1172.09,-409.08 1182.4,-411.5 1181.66,-404.54"/>
</g>
<!-- Node3&#45;&gt;Node4 -->
<g id="edge3" class="edge">
<title>Node3&#45;&gt;Node4</title>
<path fill="none" stroke="midnightblue" d="M454.24,-138.08C465.9,-136.67 477.75,-135.27 489,-134 640.04,-116.97 817.19,-99.59 913.93,-90.32"/>
<polygon fill="midnightblue" stroke="midnightblue" points="453.56,-134.63 444.06,-139.32 454.41,-141.58 453.56,-134.63"/>
</g>
<!-- Node5 -->
<g id="node5" class="node">
<title>Node5</title>
<g id="a_node5"><a xlink:href="test_8cpp.html" target="_top" xlink:title=" ">
<polygon fill="white" stroke="black" points="914,-0.5 914,-30.5 1058,-30.5 1058,-0.5 914,-0.5"/>
<text text-anchor="start" x="922" y="-18.5" font-family="Helvetica,sans-Serif" font-size="10.00">/home/ram/OmniTemplate</text>
<text text-anchor="middle" x="986" y="-7.5" font-family="Helvetica,sans-Serif" font-size="10.00">/test.cpp</text>
</a>
</g>
</g>
<!-- Node4&#45;&gt;Node5 -->
<g id="edge4" class="edge">
<title>Node4&#45;&gt;Node5</title>
<path fill="none" stroke="midnightblue" d="M986,-57.11C986,-48.15 986,-38.32 986,-30.58"/>
<polygon fill="midnightblue" stroke="midnightblue" points="982.5,-57.4 986,-67.4 989.5,-57.4 982.5,-57.4"/>
</g>
<!-- Node6&#45;&gt;Node2 -->
<g id="edge6" class="edge">
<title>Node6&#45;&gt;Node2</title>
<path fill="none" stroke="midnightblue" d="M1233.93,-369.29C1206.71,-379.71 1171.43,-392.69 1143.87,-402.4"/>
<polygon fill="midnightblue" stroke="midnightblue" points="1235.49,-372.44 1243.56,-365.58 1232.97,-365.91 1235.49,-372.44"/>
</g>
<!-- Node7&#45;&gt;Node1 -->
<g id="edge11" class="edge">
<title>Node7&#45;&gt;Node1</title>
<path fill="none" stroke="midnightblue" d="M1914,-375.85C1914,-403.31 1914,-447.04 1914,-469.37"/>
<polygon fill="midnightblue" stroke="midnightblue" points="1917.5,-375.52 1914,-365.52 1910.5,-375.52 1917.5,-375.52"/>
</g>
<!-- Node7&#45;&gt;Node2 -->
<g id="edge12" class="edge">
<title>Node7&#45;&gt;Node2</title>
<path fill="none" stroke="midnightblue" d="M1831.39,-366.64C1586.6,-395.17 1302.66,-408.92 1172.11,-414.05"/>
<polygon fill="midnightblue" stroke="midnightblue" points="1832.03,-370.09 1841.55,-365.44 1831.21,-363.13 1832.03,-370.09"/>
</g>
<!-- Node8 -->
<g id="node8" class="node">
<title>Node8</title>
<g id="a_node8"><a xlink:href="operations_8hpp.html" target="_top" xlink:title=" ">
<polygon fill="white" stroke="black" points="1966,-268.5 1966,-298.5 2110,-298.5 2110,-268.5 1966,-268.5"/>
<text text-anchor="start" x="1974" y="-286.5" font-family="Helvetica,sans-Serif" font-size="10.00">/home/ram/OmniTemplate</text>
<text text-anchor="middle" x="2038" y="-275.5" font-family="Helvetica,sans-Serif" font-size="10.00">/operations.hpp</text>
</a>
</g>
</g>
<!-- Node7&#45;&gt;Node8 -->
<g id="edge8" class="edge">
<title>Node7&#45;&gt;Node8</title>
<path fill="none" stroke="midnightblue" d="M1949.84,-330.71C1969.39,-320.46 1993.2,-307.98 2011.15,-298.58"/>
<polygon fill="midnightblue" stroke="midnightblue" points="1948.14,-327.65 1940.91,-335.4 1951.39,-333.85 1948.14,-327.65"/>
</g>
<!-- Node9 -->
<g id="node9" class="node">
<title>Node9</title>
<g id="a_node9"><a xlink:href="utility_8hpp.html" target="_top" xlink:title=" ">
<polygon fill="white" stroke="black" points="1804,-268.5 1804,-298.5 1948,-298.5 1948,-268.5 1804,-268.5"/>
<text text-anchor="start" x="1812" y="-286.5" font-family="Helvetica,sans-Serif" font-size="10.00">/home/ram/OmniTemplate</text>
<text text-anchor="middle" x="1876" y="-275.5" font-family="Helvetica,sans-Serif" font-size="10.00">/utility.hpp</text>
</a>
</g>
</g>
<!-- Node7&#45;&gt;Node9 -->
<g id="edge13" class="edge">
<title>Node7&#45;&gt;Node9</title>
<path fill="none" stroke="midnightblue" d="M1900.6,-326.58C1895.14,-317.24 1889.01,-306.75 1884.23,-298.58"/>
<polygon fill="midnightblue" stroke="midnightblue" points="1897.69,-328.53 1905.75,-335.4 1903.73,-325 1897.69,-328.53"/>
</g>
<!-- Node8&#45;&gt;Node1 -->
<g id="edge9" class="edge">
<title>Node8&#45;&gt;Node1</title>
<path fill="none" stroke="midnightblue" d="M2036.34,-308.63C2034.39,-325.47 2030.17,-348.05 2021,-366 1998.79,-409.49 1956.14,-449.01 1931.93,-469.26"/>
<polygon fill="midnightblue" stroke="midnightblue" points="2039.84,-308.79 2037.32,-298.5 2032.87,-308.12 2039.84,-308.79"/>
</g>
<!-- Node8&#45;&gt;Node2 -->
<g id="edge10" class="edge">
<title>Node8&#45;&gt;Node2</title>
<path fill="none" stroke="midnightblue" d="M2032.3,-308.43C2026.39,-327.51 2015.1,-353.09 1995,-366 1926.54,-409.96 1372.68,-415.8 1172.15,-416.46"/>
<polygon fill="midnightblue" stroke="midnightblue" points="2035.72,-309.2 2035.05,-298.62 2028.98,-307.3 2035.72,-309.2"/>
</g>
<!-- Node9&#45;&gt;Node2 -->
<g id="edge14" class="edge">
<title>Node9&#45;&gt;Node2</title>
<path fill="none" stroke="midnightblue" d="M1856.26,-306.28C1836,-328.05 1805.33,-359.23 1790,-366 1680.95,-414.15 1326.16,-417.99 1172.29,-417.29"/>
<polygon fill="midnightblue" stroke="midnightblue" points="1859,-308.47 1863.21,-298.75 1853.86,-303.72 1859,-308.47"/>
</g>
<!-- Node9&#45;&gt;Node4 -->
<g id="edge15" class="edge">
<title>Node9&#45;&gt;Node4</title>
<path fill="none" stroke="midnightblue" d="M1878.65,-257.97C1880.76,-224.29 1878.77,-164.46 1843,-134 1783.93,-83.69 1253.85,-81.81 1058.16,-82.86"/>
<polygon fill="midnightblue" stroke="midnightblue" points="1875.13,-258.06 1877.82,-268.31 1882.11,-258.62 1875.13,-258.06"/>
</g>
<!-- Node10&#45;&gt;Node3 -->
<g id="edge17" class="edge">
<title>Node10&#45;&gt;Node3</title>
<path fill="none" stroke="midnightblue" d="M302.41,-195.73C317.88,-185.68 336.33,-173.68 350.34,-164.58"/>
<polygon fill="midnightblue" stroke="midnightblue" points="300.18,-193.01 293.7,-201.4 303.99,-198.88 300.18,-193.01"/>
</g>
<!-- Node10&#45;&gt;Node4 -->
<g id="edge18" class="edge">
<title>Node10&#45;&gt;Node4</title>
<path fill="none" stroke="midnightblue" d="M270.57,-191.35C270.9,-172.73 274.75,-147.89 291,-134 337.56,-94.21 745.33,-85.77 913.73,-83.98"/>
<polygon fill="midnightblue" stroke="midnightblue" points="267.07,-191.51 270.71,-201.46 274.07,-191.42 267.07,-191.51"/>
</g>
<!-- Node11&#45;&gt;Node4 -->
<g id="edge21" class="edge">
<title>Node11&#45;&gt;Node4</title>
<path fill="none" stroke="midnightblue" d="M173.66,-257.96C175.75,-240.93 180.44,-218.29 191,-201 214.99,-161.71 227.36,-151.37 270,-134 385.19,-87.07 756.11,-82.62 913.88,-82.94"/>
<polygon fill="midnightblue" stroke="midnightblue" points="170.15,-257.92 172.63,-268.22 177.11,-258.62 170.15,-257.92"/>
</g>
<!-- Node11&#45;&gt;Node10 -->
<g id="edge20" class="edge">
<title>Node11&#45;&gt;Node10</title>
<path fill="none" stroke="midnightblue" d="M202.41,-262.73C217.88,-252.68 236.33,-240.68 250.34,-231.58"/>
<polygon fill="midnightblue" stroke="midnightblue" points="200.18,-260.01 193.7,-268.4 203.99,-265.88 200.18,-260.01"/>
</g>
<!-- Node12&#45;&gt;Node4 -->
<g id="edge24" class="edge">
<title>Node12&#45;&gt;Node4</title>
<path fill="none" stroke="midnightblue" d="M567.96,-257.99C564.04,-224.84 562.81,-166.17 596,-134 639.94,-91.42 813.56,-83.71 913.71,-82.91"/>
<polygon fill="midnightblue" stroke="midnightblue" points="564.53,-258.74 569.35,-268.18 571.47,-257.8 564.53,-258.74"/>
</g>
<!-- Node12&#45;&gt;Node10 -->
<g id="edge23" class="edge">
<title>Node12&#45;&gt;Node10</title>
<path fill="none" stroke="midnightblue" d="M497.3,-266.32C448,-255.63 384.04,-241.77 336.87,-231.55"/>
<polygon fill="midnightblue" stroke="midnightblue" points="496.76,-269.78 507.27,-268.48 498.24,-262.94 496.76,-269.78"/>
</g>
<!-- Node13&#45;&gt;Node4 -->
<g id="edge29" class="edge">
<title>Node13&#45;&gt;Node4</title>
<path fill="none" stroke="midnightblue" d="M619.76,-330.45C632.89,-322.74 645.55,-312.42 653,-299 688.96,-234.2 580.41,-189.95 629,-134 665.12,-92.41 820.31,-84.14 913.78,-83.03"/>
<polygon fill="midnightblue" stroke="midnightblue" points="617.79,-327.54 610.66,-335.37 621.12,-333.69 617.79,-327.54"/>
</g>
<!-- Node13&#45;&gt;Node12 -->
<g id="edge26" class="edge">
<title>Node13&#45;&gt;Node12</title>
<path fill="none" stroke="midnightblue" d="M572,-325.11C572,-316.15 572,-306.32 572,-298.58"/>
<polygon fill="midnightblue" stroke="midnightblue" points="568.5,-325.4 572,-335.4 575.5,-325.4 568.5,-325.4"/>
</g>
<!-- Node13&#45;&gt;Node14 -->
<g id="edge27" class="edge">
<title>Node13&#45;&gt;Node14</title>
<path fill="none" stroke="midnightblue" d="M527.25,-331.54C501.33,-321.14 469.16,-308.24 445.08,-298.58"/>
<polygon fill="midnightblue" stroke="midnightblue" points="526.26,-334.92 536.85,-335.4 528.87,-328.42 526.26,-334.92"/>
</g>
<!-- Node14&#45;&gt;Node4 -->
<g id="edge28" class="edge">
<title>Node14&#45;&gt;Node4</title>
<path fill="none" stroke="midnightblue" d="M426.68,-260.11C453.25,-226.32 508.7,-163.16 572,-134 631.19,-106.74 811.82,-92.85 913.85,-87"/>
<polygon fill="midnightblue" stroke="midnightblue" points="423.6,-258.36 420.26,-268.42 429.14,-262.64 423.6,-258.36"/>
</g>
<!-- Node15&#45;&gt;Node4 -->
<g id="edge31" class="edge">
<title>Node15&#45;&gt;Node4</title>
<path fill="none" stroke="midnightblue" d="M1683.76,-193.21C1668.24,-173.84 1642.97,-146.91 1614,-134 1516.28,-90.43 1201.19,-83.96 1058.01,-83.33"/>
<polygon fill="midnightblue" stroke="midnightblue" points="1681.09,-195.48 1689.99,-201.24 1686.62,-191.19 1681.09,-195.48"/>
</g>
<!-- Node16&#45;&gt;Node4 -->
<g id="edge33" class="edge">
<title>Node16&#45;&gt;Node4</title>
<path fill="none" stroke="midnightblue" d="M1679.61,-135.06C1676.71,-134.68 1673.83,-134.33 1671,-134 1448.32,-108.1 1183.28,-93 1058.18,-86.81"/>
<polygon fill="midnightblue" stroke="midnightblue" points="1679.18,-138.53 1689.56,-136.39 1680.11,-131.59 1679.18,-138.53"/>
</g>
<!-- Node17&#45;&gt;Node4 -->
<g id="edge35" class="edge">
<title>Node17&#45;&gt;Node4</title>
<path fill="none" stroke="midnightblue" d="M87.92,-193.4C103.38,-173.92 128.75,-146.71 158,-134 226.32,-104.33 724.93,-89.63 913.78,-85.09"/>
<polygon fill="midnightblue" stroke="midnightblue" points="85.04,-191.41 81.73,-201.47 90.6,-195.67 85.04,-191.41"/>
</g>
<!-- Node18&#45;&gt;Node4 -->
<g id="edge37" class="edge">
<title>Node18&#45;&gt;Node4</title>
<path fill="none" stroke="midnightblue" d="M779.56,-132.12C824.72,-121.48 882.98,-107.76 926.08,-97.61"/>
<polygon fill="midnightblue" stroke="midnightblue" points="778.48,-128.78 769.55,-134.48 780.08,-135.59 778.48,-128.78"/>
</g>
<!-- Node19&#45;&gt;Node4 -->
<g id="edge39" class="edge">
<title>Node19&#45;&gt;Node4</title>
<path fill="none" stroke="midnightblue" d="M766.12,-193.63C782.26,-175.41 807.37,-149.95 834,-134 861.55,-117.5 895.18,-105.61 923.8,-97.52"/>
<polygon fill="midnightblue" stroke="midnightblue" points="763.27,-191.58 759.37,-201.43 768.56,-196.16 763.27,-191.58"/>
</g>
<!-- Node20&#45;&gt;Node4 -->
<g id="edge41" class="edge">
<title>Node20&#45;&gt;Node4</title>
<path fill="none" stroke="midnightblue" d="M845.28,-257.87C843.13,-225.93 844.18,-170.07 872,-134 885.35,-116.69 905.91,-105.18 925.92,-97.58"/>
<polygon fill="midnightblue" stroke="midnightblue" points="841.82,-258.42 846.14,-268.09 848.79,-257.83 841.82,-258.42"/>
</g>
<!-- Node21&#45;&gt;Node4 -->
<g id="edge44" class="edge">
<title>Node21&#45;&gt;Node4</title>
<path fill="none" stroke="midnightblue" d="M910,-328.14C917.59,-319.88 925.02,-309.81 929,-299 933.76,-286.07 932.31,-281.37 929,-268 924.65,-250.44 915,-249.39 910,-232 901.75,-203.3 906.11,-194.84 905,-165 904.49,-151.23 898.31,-146.05 905,-134 914.17,-117.48 931.23,-105.66 947.34,-97.63"/>
<polygon fill="midnightblue" stroke="midnightblue" points="907.31,-325.89 902.8,-335.47 912.3,-330.8 907.31,-325.89"/>
</g>
<!-- Node21&#45;&gt;Node20 -->
<g id="edge43" class="edge">
<title>Node21&#45;&gt;Node20</title>
<path fill="none" stroke="midnightblue" d="M872.6,-326.58C867.14,-317.24 861.01,-306.75 856.23,-298.58"/>
<polygon fill="midnightblue" stroke="midnightblue" points="869.69,-328.53 877.75,-335.4 875.73,-325 869.69,-328.53"/>
</g>
<!-- Node22&#45;&gt;Node4 -->
<g id="edge47" class="edge">
<title>Node22&#45;&gt;Node4</title>
<path fill="none" stroke="midnightblue" d="M986,-124.11C986,-115.15 986,-105.32 986,-97.58"/>
<polygon fill="midnightblue" stroke="midnightblue" points="982.5,-124.4 986,-134.4 989.5,-124.4 982.5,-124.4"/>
</g>
<!-- Node23&#45;&gt;Node4 -->
<g id="edge49" class="edge">
<title>Node23&#45;&gt;Node4</title>
<path fill="none" stroke="midnightblue" d="M1048.06,-193.75C1063.28,-177.26 1078.14,-154.08 1067,-134 1057.83,-117.48 1040.77,-105.66 1024.66,-97.63"/>
<polygon fill="midnightblue" stroke="midnightblue" points="1045.19,-191.68 1040.68,-201.27 1050.18,-196.59 1045.19,-191.68"/>
</g>
<!-- Node24&#45;&gt;Node4 -->
<g id="edge51" class="edge">
<title>Node24&#45;&gt;Node4</title>
<path fill="none" stroke="midnightblue" d="M1132.85,-131.23C1100.5,-120.71 1059.69,-107.45 1029.31,-97.58"/>
<polygon fill="midnightblue" stroke="midnightblue" points="1132.01,-134.63 1142.6,-134.4 1134.17,-127.98 1132.01,-134.63"/>
</g>
<!-- Node25&#45;&gt;Node4 -->
<g id="edge53" class="edge">
<title>Node25&#45;&gt;Node4</title>
<path fill="none" stroke="midnightblue" d="M1248.06,-194.49C1265.07,-177.1 1282.36,-152.36 1267,-134 1240.85,-102.73 1132.28,-90.79 1058.01,-86.26"/>
<polygon fill="midnightblue" stroke="midnightblue" points="1245.62,-191.98 1240.88,-201.45 1250.49,-197 1245.62,-191.98"/>
</g>
<!-- Node26&#45;&gt;Node4 -->
<g id="edge55" class="edge">
<title>Node26&#45;&gt;Node4</title>
<path fill="none" stroke="midnightblue" d="M1303.81,-134.63C1302.53,-134.42 1301.26,-134.21 1300,-134 1217.05,-120.34 1121.71,-105.06 1058.05,-94.93"/>
<polygon fill="midnightblue" stroke="midnightblue" points="1303.31,-138.09 1313.75,-136.28 1304.45,-131.19 1303.31,-138.09"/>
</g>
<!-- Node27&#45;&gt;Node4 -->
<g id="edge57" class="edge">
<title>Node27&#45;&gt;Node4</title>
<path fill="none" stroke="midnightblue" d="M1405.93,-262.05C1443.96,-231.81 1503.37,-174.39 1467,-134 1440.17,-104.21 1185.62,-90.76 1058.09,-85.85"/>
<polygon fill="midnightblue" stroke="midnightblue" points="1403.47,-259.53 1397.71,-268.43 1407.76,-265.06 1403.47,-259.53"/>
</g>
<!-- Node28&#45;&gt;Node4 -->
<g id="edge60" class="edge">
<title>Node28&#45;&gt;Node4</title>
<path fill="none" stroke="midnightblue" d="M1454.19,-326.91C1483,-283.74 1535.68,-188.95 1486,-134 1457.86,-102.87 1189.66,-90.01 1058.09,-85.54"/>
<polygon fill="midnightblue" stroke="midnightblue" points="1451.21,-325.08 1448.45,-335.31 1456.98,-329.03 1451.21,-325.08"/>
</g>
<!-- Node29&#45;&gt;Node4 -->
<g id="edge62" class="edge">
<title>Node29&#45;&gt;Node4</title>
<path fill="none" stroke="midnightblue" d="M1597.55,-325.25C1591.49,-279.39 1571.38,-180.39 1508,-134 1472.48,-108 1192.78,-92.47 1058.05,-86.42"/>
<polygon fill="midnightblue" stroke="midnightblue" points="1594.1,-325.94 1598.77,-335.45 1601.05,-325.11 1594.1,-325.94"/>
</g>
</g>
</svg>
