<?xml version="1.0" encoding="UTF-8" standalone="no"?>
<!DOCTYPE svg PUBLIC "-//W3C//DTD SVG 1.1//EN"
 "http://www.w3.org/Graphics/SVG/1.1/DTD/svg11.dtd">
<!-- Generated by graphviz version 2.43.0 (0)
 -->
<!-- Title: /home/ram/OmniTemplate/src/core Pages: 1 -->
<svg width="314pt" height="260pt"
 viewBox="0.00 0.00 314.00 260.00" xmlns="http://www.w3.org/2000/svg" xmlns:xlink="http://www.w3.org/1999/xlink">
<g id="graph0" class="graph" transform="scale(1 1) rotate(0) translate(4 256)">
<title>/home/ram/OmniTemplate/src/core</title>
<polygon fill="white" stroke="transparent" points="-4,4 -4,-256 310,-256 310,4 -4,4"/>
<g id="clust1" class="cluster">
<title>clusterdir_68267d1309a1af8e8297ef4c3efbcdba</title>
<g id="a_clust1"><a xlink:href="dir_68267d1309a1af8e8297ef4c3efbcdba.html" target="_top" xlink:title="src">
<polygon fill="#ddddee" stroke="black" points="117,-136 117,-207 187,-207 187,-136 117,-136"/>
<text text-anchor="middle" x="152" y="-195" font-family="Helvetica,sans-Serif" font-size="10.00">src</text>
</a>
</g>
</g>
<!-- dir_aebb8dcc11953d78e620bbef0b9e2183 -->
<g id="node1" class="node">
<title>dir_aebb8dcc11953d78e620bbef0b9e2183</title>
<g id="a_node1"><a xlink:href="dir_aebb8dcc11953d78e620bbef0b9e2183.html" target="_top" xlink:title="core">
<polygon fill="#eeeeff" stroke="black" points="179,-180 125,-180 125,-144 179,-144 179,-180"/>
<text text-anchor="middle" x="152" y="-159.5" font-family="Helvetica,sans-Serif" font-size="10.00">core</text>
</a>
</g>
</g>
<!-- dir_122f4add68bb94b3fee614989bbbd8f9 -->
<g id="node2" class="node">
<title>dir_122f4add68bb94b3fee614989bbbd8f9</title>
<g id="a_node2"><a xlink:href="dir_122f4add68bb94b3fee614989bbbd8f9.html" target="_top" xlink:title="ds">
<polygon fill="none" stroke="black" points="306,-108 252,-108 252,-72 306,-72 306,-108"/>
<text text-anchor="middle" x="279" y="-87.5" font-family="Helvetica,sans-Serif" font-size="10.00">ds</text>
</a>
</g>
</g>
<!-- dir_aebb8dcc11953d78e620bbef0b9e2183&#45;&gt;dir_122f4add68bb94b3fee614989bbbd8f9 -->
<g id="edge7" class="edge">
<title>dir_aebb8dcc11953d78e620bbef0b9e2183&#45;&gt;dir_122f4add68bb94b3fee614989bbbd8f9</title>
<path fill="none" stroke="black" d="M166.82,-143.82C170.73,-141.1 174.94,-138.4 179,-136 190.19,-129.4 218.67,-115.47 242.54,-104.85"/>
<polygon fill="black" stroke="black" points="243.99,-108.04 251.75,-100.82 241.18,-101.63 243.99,-108.04"/>
<g id="a_edge7&#45;headlabel"><a xlink:href="dir_000003_000005.html" target="_top" xlink:title="9">
<text text-anchor="middle" x="241.83" y="-109.58" font-family="Helvetica,sans-Serif" font-size="10.00">9</text>
</a>
</g>
</g>
<!-- dir_d182250f0c231765fc862e69db210731 -->
<g id="node3" class="node">
<title>dir_d182250f0c231765fc862e69db210731</title>
<g id="a_node3"><a xlink:href="dir_d182250f0c231765fc862e69db210731.html" target="_top" xlink:title="graph">
<polygon fill="white" stroke="red" points="251,-180 197,-180 197,-144 251,-144 251,-180"/>
<text text-anchor="middle" x="224" y="-159.5" font-family="Helvetica,sans-Serif" font-size="10.00">graph</text>
</a>
</g>
</g>
<!-- dir_aebb8dcc11953d78e620bbef0b9e2183&#45;&gt;dir_d182250f0c231765fc862e69db210731 -->
<g id="edge8" class="edge">
<title>dir_aebb8dcc11953d78e620bbef0b9e2183&#45;&gt;dir_d182250f0c231765fc862e69db210731</title>
<path fill="none" stroke="black" d="M179.28,-162C181.74,-162 184.19,-162 186.65,-162"/>
<polygon fill="black" stroke="black" points="186.75,-165.5 196.75,-162 186.75,-158.5 186.75,-165.5"/>
<g id="a_edge8&#45;headlabel"><a xlink:href="dir_000003_000004.html" target="_top" xlink:title="5">
<text text-anchor="middle" x="183.15" y="-165.84" font-family="Helvetica,sans-Serif" font-size="10.00">5</text>
</a>
</g>
</g>
<!-- dir_0619a8f54b4fad7043a6de45be8fde0b -->
<g id="node4" class="node">
<title>dir_0619a8f54b4fad7043a6de45be8fde0b</title>
<g id="a_node4"><a xlink:href="dir_0619a8f54b4fad7043a6de45be8fde0b.html" target="_top" xlink:title="utility">
<polygon fill="none" stroke="black" points="215,-252 161,-252 161,-216 215,-216 215,-252"/>
<text text-anchor="middle" x="188" y="-231.5" font-family="Helvetica,sans-Serif" font-size="10.00">utility</text>
</a>
</g>
</g>
<!-- dir_aebb8dcc11953d78e620bbef0b9e2183&#45;&gt;dir_0619a8f54b4fad7043a6de45be8fde0b -->
<g id="edge9" class="edge">
<title>dir_aebb8dcc11953d78e620bbef0b9e2183&#45;&gt;dir_0619a8f54b4fad7043a6de45be8fde0b</title>
<path fill="none" stroke="black" d="M154.9,-180.1C158.19,-188.13 162.98,-197.87 167.97,-206.8"/>
<polygon fill="black" stroke="black" points="165.11,-208.84 173.19,-215.7 171.15,-205.3 165.11,-208.84"/>
<g id="a_edge9&#45;headlabel"><a xlink:href="dir_000003_000009.html" target="_top" xlink:title="3">
<text text-anchor="middle" x="160.84" y="-204.68" font-family="Helvetica,sans-Serif" font-size="10.00">3</text>
</a>
</g>
</g>
<!-- dir_b953371115990fc405ce78459a213a8f -->
<g id="node5" class="node">
<title>dir_b953371115990fc405ce78459a213a8f</title>
<g id="a_node5"><a xlink:href="dir_b953371115990fc405ce78459a213a8f.html" target="_top" xlink:title="combinatorics">
<polygon fill="none" stroke="black" points="86,-108 0,-108 0,-72 86,-72 86,-108"/>
<text text-anchor="middle" x="43" y="-87.5" font-family="Helvetica,sans-Serif" font-size="10.00">combinatorics</text>
</a>
</g>
</g>
<!-- dir_aebb8dcc11953d78e620bbef0b9e2183&#45;&gt;dir_b953371115990fc405ce78459a213a8f -->
<g id="edge10" class="edge">
<title>dir_aebb8dcc11953d78e620bbef0b9e2183&#45;&gt;dir_b953371115990fc405ce78459a213a8f</title>
<path fill="none" stroke="black" d="M124.96,-147.17C108.91,-137.69 88.69,-124.89 72.29,-113.9"/>
<polygon fill="black" stroke="black" points="73.85,-110.74 63.62,-108.02 69.92,-116.53 73.85,-110.74"/>
<g id="a_edge10&#45;headlabel"><a xlink:href="dir_000003_000002.html" target="_top" xlink:title="2">
<text text-anchor="middle" x="78.42" y="-107.91" font-family="Helvetica,sans-Serif" font-size="10.00">2</text>
</a>
</g>
</g>
<!-- dir_ece17dd07d1079ae5da4fc1d5e1e51e1 -->
<g id="node6" class="node">
<title>dir_ece17dd07d1079ae5da4fc1d5e1e51e1</title>
<g id="a_node6"><a xlink:href="dir_ece17dd07d1079ae5da4fc1d5e1e51e1.html" target="_top" xlink:title="number_theory">
<polygon fill="none" stroke="black" points="178.5,-36 87.5,-36 87.5,0 178.5,0 178.5,-36"/>
<text text-anchor="middle" x="133" y="-15.5" font-family="Helvetica,sans-Serif" font-size="10.00">number_theory</text>
</a>
</g>
</g>
<!-- dir_aebb8dcc11953d78e620bbef0b9e2183&#45;&gt;dir_ece17dd07d1079ae5da4fc1d5e1e51e1 -->
<g id="edge11" class="edge">
<title>dir_aebb8dcc11953d78e620bbef0b9e2183&#45;&gt;dir_ece17dd07d1079ae5da4fc1d5e1e51e1</title>
<path fill="none" stroke="black" d="M149.71,-143.87C146.47,-119.67 140.52,-75.21 136.67,-46.39"/>
<polygon fill="black" stroke="black" points="140.1,-45.64 135.3,-36.19 133.16,-46.57 140.1,-45.64"/>
<g id="a_edge11&#45;headlabel"><a xlink:href="dir_000003_000007.html" target="_top" xlink:title="2">
<text text-anchor="middle" x="143.39" y="-46.32" font-family="Helvetica,sans-Serif" font-size="10.00">2</text>
</a>
</g>
</g>
<!-- dir_086a664662017844fa76bd8f66ac71cd -->
<g id="node7" class="node">
<title>dir_086a664662017844fa76bd8f66ac71cd</title>
<g id="a_node7"><a xlink:href="dir_086a664662017844fa76bd8f66ac71cd.html" target="_top" xlink:title="algebra">
<polygon fill="none" stroke="black" points="234,-108 180,-108 180,-72 234,-72 234,-108"/>
<text text-anchor="middle" x="207" y="-87.5" font-family="Helvetica,sans-Serif" font-size="10.00">algebra</text>
</a>
</g>
</g>
<!-- dir_aebb8dcc11953d78e620bbef0b9e2183&#45;&gt;dir_086a664662017844fa76bd8f66ac71cd -->
<g id="edge12" class="edge">
<title>dir_aebb8dcc11953d78e620bbef0b9e2183&#45;&gt;dir_086a664662017844fa76bd8f66ac71cd</title>
<path fill="none" stroke="black" d="M159.68,-143.7C165.41,-135.3 173.26,-125.07 180.97,-115.86"/>
<polygon fill="black" stroke="black" points="183.78,-117.96 187.67,-108.1 178.48,-113.39 183.78,-117.96"/>
<g id="a_edge12&#45;headlabel"><a xlink:href="dir_000003_000001.html" target="_top" xlink:title="4">
<text text-anchor="middle" x="183.59" y="-120.04" font-family="Helvetica,sans-Serif" font-size="10.00">4</text>
</a>
</g>
</g>
<!-- dir_122f4add68bb94b3fee614989bbbd8f9&#45;&gt;dir_aebb8dcc11953d78e620bbef0b9e2183 -->
<g id="edge1" class="edge">
<title>dir_122f4add68bb94b3fee614989bbbd8f9&#45;&gt;dir_aebb8dcc11953d78e620bbef0b9e2183</title>
<path fill="none" stroke="black" d="M251.78,-107.6C231.99,-117.77 207.25,-129.95 197,-136 194.03,-137.75 190.98,-139.67 187.92,-141.64"/>
<polygon fill="black" stroke="black" points="185.81,-138.84 179.35,-147.23 189.64,-144.7 185.81,-138.84"/>
<g id="a_edge1&#45;headlabel"><a xlink:href="dir_000005_000003.html" target="_top" xlink:title="10">
<text text-anchor="middle" x="187.27" y="-131.99" font-family="Helvetica,sans-Serif" font-size="10.00">10</text>
</a>
</g>
</g>
<!-- dir_d182250f0c231765fc862e69db210731&#45;&gt;dir_aebb8dcc11953d78e620bbef0b9e2183 -->
<g id="edge3" class="edge">
<title>dir_d182250f0c231765fc862e69db210731&#45;&gt;dir_aebb8dcc11953d78e620bbef0b9e2183</title>
<path fill="none" stroke="black" d="M196.75,-162C194.29,-162 191.84,-162 189.38,-162"/>
<polygon fill="black" stroke="black" points="189.28,-158.5 179.28,-162 189.28,-165.5 189.28,-158.5"/>
<g id="a_edge3&#45;headlabel"><a xlink:href="dir_000004_000003.html" target="_top" xlink:title="9">
<text text-anchor="middle" x="192.88" y="-153.16" font-family="Helvetica,sans-Serif" font-size="10.00">9</text>
</a>
</g>
</g>
<!-- dir_d182250f0c231765fc862e69db210731&#45;&gt;dir_122f4add68bb94b3fee614989bbbd8f9 -->
<g id="edge2" class="edge">
<title>dir_d182250f0c231765fc862e69db210731&#45;&gt;dir_122f4add68bb94b3fee614989bbbd8f9</title>
<path fill="none" stroke="black" d="M237.6,-143.7C244.12,-135.39 252.07,-125.28 259.25,-116.14"/>
<polygon fill="black" stroke="black" points="262.13,-118.13 265.56,-108.1 256.63,-113.81 262.13,-118.13"/>
<g id="a_edge2&#45;headlabel"><a xlink:href="dir_000004_000005.html" target="_top" xlink:title="3">
<text text-anchor="middle" x="262.15" y="-120.21" font-family="Helvetica,sans-Serif" font-size="10.00">3</text>
</a>
</g>
</g>
<!-- dir_d182250f0c231765fc862e69db210731&#45;&gt;dir_086a664662017844fa76bd8f66ac71cd -->
<g id="edge4" class="edge">
<title>dir_d182250f0c231765fc862e69db210731&#45;&gt;dir_086a664662017844fa76bd8f66ac71cd</title>
<path fill="none" stroke="black" d="M219.8,-143.7C217.9,-135.9 215.62,-126.51 213.52,-117.83"/>
<polygon fill="black" stroke="black" points="216.92,-117 211.15,-108.1 210.11,-118.65 216.92,-117"/>
<g id="a_edge4&#45;headlabel"><a xlink:href="dir_000004_000001.html" target="_top" xlink:title="2">
<text text-anchor="middle" x="220.52" y="-117.32" font-family="Helvetica,sans-Serif" font-size="10.00">2</text>
</a>
</g>
</g>
<!-- dir_0619a8f54b4fad7043a6de45be8fde0b&#45;&gt;dir_aebb8dcc11953d78e620bbef0b9e2183 -->
<g id="edge6" class="edge">
<title>dir_0619a8f54b4fad7043a6de45be8fde0b&#45;&gt;dir_aebb8dcc11953d78e620bbef0b9e2183</title>
<path fill="none" stroke="black" d="M185.02,-215.7C181.71,-207.64 176.9,-197.89 171.91,-188.98"/>
<polygon fill="black" stroke="black" points="174.78,-186.95 166.69,-180.1 168.74,-190.5 174.78,-186.95"/>
<g id="a_edge6&#45;headlabel"><a xlink:href="dir_000009_000003.html" target="_top" xlink:title="3">
<text text-anchor="middle" x="179.04" y="-186.11" font-family="Helvetica,sans-Serif" font-size="10.00">3</text>
</a>
</g>
</g>
<!-- dir_0619a8f54b4fad7043a6de45be8fde0b&#45;&gt;dir_d182250f0c231765fc862e69db210731 -->
<g id="edge5" class="edge">
<title>dir_0619a8f54b4fad7043a6de45be8fde0b&#45;&gt;dir_d182250f0c231765fc862e69db210731</title>
<path fill="none" stroke="black" d="M196.9,-215.7C201,-207.73 205.95,-198.1 210.49,-189.26"/>
<polygon fill="black" stroke="black" points="213.74,-190.6 215.2,-180.1 207.52,-187.4 213.74,-190.6"/>
<g id="a_edge5&#45;headlabel"><a xlink:href="dir_000009_000004.html" target="_top" xlink:title="1">
<text text-anchor="middle" x="214.62" y="-192.59" font-family="Helvetica,sans-Serif" font-size="10.00">1</text>
</a>
</g>
</g>
<!-- dir_b953371115990fc405ce78459a213a8f&#45;&gt;dir_aebb8dcc11953d78e620bbef0b9e2183 -->
<g id="edge13" class="edge">
<title>dir_b953371115990fc405ce78459a213a8f&#45;&gt;dir_aebb8dcc11953d78e620bbef0b9e2183</title>
<path fill="none" stroke="black" d="M75.67,-108.19C90.61,-117.18 108.11,-128.32 122.63,-138.04"/>
<polygon fill="black" stroke="black" points="120.99,-141.16 131.23,-143.88 124.92,-135.37 120.99,-141.16"/>
<g id="a_edge13&#45;headlabel"><a xlink:href="dir_000002_000003.html" target="_top" xlink:title="2">
<text text-anchor="middle" x="116.42" y="-138.99" font-family="Helvetica,sans-Serif" font-size="10.00">2</text>
</a>
</g>
</g>
<!-- dir_b953371115990fc405ce78459a213a8f&#45;&gt;dir_ece17dd07d1079ae5da4fc1d5e1e51e1 -->
<g id="edge14" class="edge">
<title>dir_b953371115990fc405ce78459a213a8f&#45;&gt;dir_ece17dd07d1079ae5da4fc1d5e1e51e1</title>
<path fill="none" stroke="black" d="M65.25,-71.7C76.58,-62.88 90.53,-52.03 102.82,-42.47"/>
<polygon fill="black" stroke="black" points="105.26,-45.01 111.01,-36.1 100.97,-39.48 105.26,-45.01"/>
<g id="a_edge14&#45;headlabel"><a xlink:href="dir_000002_000007.html" target="_top" xlink:title="1">
<text text-anchor="middle" x="104.17" y="-46.95" font-family="Helvetica,sans-Serif" font-size="10.00">1</text>
</a>
</g>
</g>
<!-- dir_ece17dd07d1079ae5da4fc1d5e1e51e1&#45;&gt;dir_aebb8dcc11953d78e620bbef0b9e2183 -->
<g id="edge15" class="edge">
<title>dir_ece17dd07d1079ae5da4fc1d5e1e51e1&#45;&gt;dir_aebb8dcc11953d78e620bbef0b9e2183</title>
<path fill="none" stroke="black" d="M132.6,-36.18C132.46,-54.2 133,-83.26 137,-108 138.37,-116.5 140.64,-125.57 142.99,-133.76"/>
<polygon fill="black" stroke="black" points="139.71,-135.01 145.97,-143.56 146.41,-132.98 139.71,-135.01"/>
<g id="a_edge15&#45;headlabel"><a xlink:href="dir_000007_000003.html" target="_top" xlink:title="2">
<text text-anchor="middle" x="135.95" y="-129.89" font-family="Helvetica,sans-Serif" font-size="10.00">2</text>
</a>
</g>
</g>
<!-- dir_086a664662017844fa76bd8f66ac71cd&#45;&gt;dir_aebb8dcc11953d78e620bbef0b9e2183 -->
<g id="edge16" class="edge">
<title>dir_086a664662017844fa76bd8f66ac71cd&#45;&gt;dir_aebb8dcc11953d78e620bbef0b9e2183</title>
<path fill="none" stroke="black" d="M199.46,-108.1C193.76,-116.47 185.93,-126.69 178.21,-135.92"/>
<polygon fill="black" stroke="black" points="175.38,-133.84 171.51,-143.7 180.69,-138.4 175.38,-133.84"/>
<g id="a_edge16&#45;headlabel"><a xlink:href="dir_000001_000003.html" target="_top" xlink:title="4">
<text text-anchor="middle" x="175.58" y="-126.76" font-family="Helvetica,sans-Serif" font-size="10.00">4</text>
</a>
</g>
</g>
<!-- dir_086a664662017844fa76bd8f66ac71cd&#45;&gt;dir_ece17dd07d1079ae5da4fc1d5e1e51e1 -->
<g id="edge17" class="edge">
<title>dir_086a664662017844fa76bd8f66ac71cd&#45;&gt;dir_ece17dd07d1079ae5da4fc1d5e1e51e1</title>
<path fill="none" stroke="black" d="M188.71,-71.7C179.57,-63.05 168.36,-52.45 158.4,-43.03"/>
<polygon fill="black" stroke="black" points="160.75,-40.43 151.08,-36.1 155.94,-45.52 160.75,-40.43"/>
<g id="a_edge17&#45;headlabel"><a xlink:href="dir_000001_000007.html" target="_top" xlink:title="1">
<text text-anchor="middle" x="165.31" y="-38.34" font-family="Helvetica,sans-Serif" font-size="10.00">1</text>
</a>
</g>
</g>
</g>
</svg>
