<?xml version="1.0" encoding="UTF-8" standalone="no"?>
<!DOCTYPE svg PUBLIC "-//W3C//DTD SVG 1.1//EN"
 "http://www.w3.org/Graphics/SVG/1.1/DTD/svg11.dtd">
<!-- Generated by graphviz version 2.43.0 (0)
 -->
<!-- Title: /home/ram/OmniTemplate/src/test Pages: 1 -->
<svg width="466pt" height="511pt"
 viewBox="0.00 0.00 466.00 511.00" xmlns="http://www.w3.org/2000/svg" xmlns:xlink="http://www.w3.org/1999/xlink">
<g id="graph0" class="graph" transform="scale(1 1) rotate(0) translate(4 507)">
<title>/home/ram/OmniTemplate/src/test</title>
<polygon fill="white" stroke="transparent" points="-4,4 -4,-507 462,-507 462,4 -4,4"/>
<g id="clust1" class="cluster">
<title>clusterdir_68267d1309a1af8e8297ef4c3efbcdba</title>
<g id="a_clust1"><a xlink:href="dir_68267d1309a1af8e8297ef4c3efbcdba.html" target="_top" xlink:title="src">
<polygon fill="#ddddee" stroke="black" points="255,-424 255,-495 325,-495 325,-424 255,-424"/>
<text text-anchor="middle" x="290" y="-483" font-family="Helvetica,sans-Serif" font-size="10.00">src</text>
</a>
</g>
</g>
<!-- dir_120ed4da3e3217b1e7fc0b4f48568e79 -->
<g id="node1" class="node">
<title>dir_120ed4da3e3217b1e7fc0b4f48568e79</title>
<g id="a_node1"><a xlink:href="dir_120ed4da3e3217b1e7fc0b4f48568e79.html" target="_top" xlink:title="test">
<polygon fill="#eeeeff" stroke="black" points="317,-468 263,-468 263,-432 317,-432 317,-468"/>
<text text-anchor="middle" x="290" y="-447.5" font-family="Helvetica,sans-Serif" font-size="10.00">test</text>
</a>
</g>
</g>
<!-- dir_122f4add68bb94b3fee614989bbbd8f9 -->
<g id="node2" class="node">
<title>dir_122f4add68bb94b3fee614989bbbd8f9</title>
<g id="a_node2"><a xlink:href="dir_122f4add68bb94b3fee614989bbbd8f9.html" target="_top" xlink:title="ds">
<polygon fill="none" stroke="black" points="317,-396 263,-396 263,-360 317,-360 317,-396"/>
<text text-anchor="middle" x="290" y="-375.5" font-family="Helvetica,sans-Serif" font-size="10.00">ds</text>
</a>
</g>
</g>
<!-- dir_120ed4da3e3217b1e7fc0b4f48568e79&#45;&gt;dir_122f4add68bb94b3fee614989bbbd8f9 -->
<g id="edge5" class="edge">
<title>dir_120ed4da3e3217b1e7fc0b4f48568e79&#45;&gt;dir_122f4add68bb94b3fee614989bbbd8f9</title>
<path fill="none" stroke="black" d="M290,-431.7C290,-423.98 290,-414.71 290,-406.11"/>
<polygon fill="black" stroke="black" points="293.5,-406.1 290,-396.1 286.5,-406.1 293.5,-406.1"/>
<g id="a_edge5&#45;headlabel"><a xlink:href="dir_000008_000005.html" target="_top" xlink:title="7">
<text text-anchor="middle" x="296.34" y="-407.2" font-family="Helvetica,sans-Serif" font-size="10.00">7</text>
</a>
</g>
</g>
<!-- dir_d182250f0c231765fc862e69db210731 -->
<g id="node3" class="node">
<title>dir_d182250f0c231765fc862e69db210731</title>
<g id="a_node3"><a xlink:href="dir_d182250f0c231765fc862e69db210731.html" target="_top" xlink:title="graph">
<polygon fill="white" stroke="red" points="326,-180 272,-180 272,-144 326,-144 326,-180"/>
<text text-anchor="middle" x="299" y="-159.5" font-family="Helvetica,sans-Serif" font-size="10.00">graph</text>
</a>
</g>
</g>
<!-- dir_120ed4da3e3217b1e7fc0b4f48568e79&#45;&gt;dir_d182250f0c231765fc862e69db210731 -->
<g id="edge6" class="edge">
<title>dir_120ed4da3e3217b1e7fc0b4f48568e79&#45;&gt;dir_d182250f0c231765fc862e69db210731</title>
<path fill="none" stroke="black" d="M312.66,-431.86C323.66,-422.42 336.15,-409.82 344,-396 376.53,-338.73 371.17,-317.4 379,-252 380.9,-236.11 386.57,-230.1 379,-216 369.71,-198.7 352.01,-186.1 335.62,-177.53"/>
<polygon fill="black" stroke="black" points="336.72,-174.17 326.2,-172.95 333.66,-180.47 336.72,-174.17"/>
<g id="a_edge6&#45;headlabel"><a xlink:href="dir_000008_000004.html" target="_top" xlink:title="6">
<text text-anchor="middle" x="341.2" y="-170.69" font-family="Helvetica,sans-Serif" font-size="10.00">6</text>
</a>
</g>
</g>
<!-- dir_0619a8f54b4fad7043a6de45be8fde0b -->
<g id="node4" class="node">
<title>dir_0619a8f54b4fad7043a6de45be8fde0b</title>
<g id="a_node4"><a xlink:href="dir_0619a8f54b4fad7043a6de45be8fde0b.html" target="_top" xlink:title="utility">
<polygon fill="none" stroke="black" points="354,-252 300,-252 300,-216 354,-216 354,-252"/>
<text text-anchor="middle" x="327" y="-231.5" font-family="Helvetica,sans-Serif" font-size="10.00">utility</text>
</a>
</g>
</g>
<!-- dir_120ed4da3e3217b1e7fc0b4f48568e79&#45;&gt;dir_0619a8f54b4fad7043a6de45be8fde0b -->
<g id="edge7" class="edge">
<title>dir_120ed4da3e3217b1e7fc0b4f48568e79&#45;&gt;dir_0619a8f54b4fad7043a6de45be8fde0b</title>
<path fill="none" stroke="black" d="M305.58,-431.76C313.33,-422.02 321.91,-409.17 326,-396 340.02,-350.92 335.97,-295.24 331.6,-262.57"/>
<polygon fill="black" stroke="black" points="335.03,-261.82 330.13,-252.42 328.1,-262.82 335.03,-261.82"/>
<g id="a_edge7&#45;headlabel"><a xlink:href="dir_000008_000009.html" target="_top" xlink:title="3">
<text text-anchor="middle" x="338.35" y="-262.47" font-family="Helvetica,sans-Serif" font-size="10.00">3</text>
</a>
</g>
</g>
<!-- dir_aebb8dcc11953d78e620bbef0b9e2183 -->
<g id="node5" class="node">
<title>dir_aebb8dcc11953d78e620bbef0b9e2183</title>
<g id="a_node5"><a xlink:href="dir_aebb8dcc11953d78e620bbef0b9e2183.html" target="_top" xlink:title="core">
<polygon fill="none" stroke="black" points="262,-324 208,-324 208,-288 262,-288 262,-324"/>
<text text-anchor="middle" x="235" y="-303.5" font-family="Helvetica,sans-Serif" font-size="10.00">core</text>
</a>
</g>
</g>
<!-- dir_120ed4da3e3217b1e7fc0b4f48568e79&#45;&gt;dir_aebb8dcc11953d78e620bbef0b9e2183 -->
<g id="edge8" class="edge">
<title>dir_120ed4da3e3217b1e7fc0b4f48568e79&#45;&gt;dir_aebb8dcc11953d78e620bbef0b9e2183</title>
<path fill="none" stroke="black" d="M275.84,-431.85C268.31,-421.93 259.5,-408.89 254,-396 245.59,-376.29 240.76,-352.49 238.07,-334.46"/>
<polygon fill="black" stroke="black" points="241.51,-333.76 236.7,-324.33 234.57,-334.71 241.51,-333.76"/>
<g id="a_edge8&#45;headlabel"><a xlink:href="dir_000008_000003.html" target="_top" xlink:title="2">
<text text-anchor="middle" x="244.81" y="-334.44" font-family="Helvetica,sans-Serif" font-size="10.00">2</text>
</a>
</g>
</g>
<!-- dir_b953371115990fc405ce78459a213a8f -->
<g id="node6" class="node">
<title>dir_b953371115990fc405ce78459a213a8f</title>
<g id="a_node6"><a xlink:href="dir_b953371115990fc405ce78459a213a8f.html" target="_top" xlink:title="combinatorics">
<polygon fill="none" stroke="black" points="114,-252 28,-252 28,-216 114,-216 114,-252"/>
<text text-anchor="middle" x="71" y="-231.5" font-family="Helvetica,sans-Serif" font-size="10.00">combinatorics</text>
</a>
</g>
</g>
<!-- dir_120ed4da3e3217b1e7fc0b4f48568e79&#45;&gt;dir_b953371115990fc405ce78459a213a8f -->
<g id="edge9" class="edge">
<title>dir_120ed4da3e3217b1e7fc0b4f48568e79&#45;&gt;dir_b953371115990fc405ce78459a213a8f</title>
<path fill="none" stroke="black" d="M272.45,-431.85C233.69,-393.97 140.67,-303.08 95.9,-259.33"/>
<polygon fill="black" stroke="black" points="98.23,-256.72 88.64,-252.23 93.34,-261.72 98.23,-256.72"/>
<g id="a_edge9&#45;headlabel"><a xlink:href="dir_000008_000002.html" target="_top" xlink:title="2">
<text text-anchor="middle" x="102.79" y="-254.7" font-family="Helvetica,sans-Serif" font-size="10.00">2</text>
</a>
</g>
</g>
<!-- dir_ece17dd07d1079ae5da4fc1d5e1e51e1 -->
<g id="node7" class="node">
<title>dir_ece17dd07d1079ae5da4fc1d5e1e51e1</title>
<g id="a_node7"><a xlink:href="dir_ece17dd07d1079ae5da4fc1d5e1e51e1.html" target="_top" xlink:title="number_theory">
<polygon fill="none" stroke="black" points="196.5,-36 105.5,-36 105.5,0 196.5,0 196.5,-36"/>
<text text-anchor="middle" x="151" y="-15.5" font-family="Helvetica,sans-Serif" font-size="10.00">number_theory</text>
</a>
</g>
</g>
<!-- dir_120ed4da3e3217b1e7fc0b4f48568e79&#45;&gt;dir_ece17dd07d1079ae5da4fc1d5e1e51e1 -->
<g id="edge10" class="edge">
<title>dir_120ed4da3e3217b1e7fc0b4f48568e79&#45;&gt;dir_ece17dd07d1079ae5da4fc1d5e1e51e1</title>
<path fill="none" stroke="black" d="M262.98,-448.18C190.99,-444.42 0,-423.46 0,-307 0,-307 0,-307 0,-161 0,-104.39 57.02,-63.73 100.98,-40.8"/>
<polygon fill="black" stroke="black" points="102.79,-43.81 110.14,-36.18 99.63,-37.56 102.79,-43.81"/>
<g id="a_edge10&#45;headlabel"><a xlink:href="dir_000008_000007.html" target="_top" xlink:title="2">
<text text-anchor="middle" x="100.86" y="-45.46" font-family="Helvetica,sans-Serif" font-size="10.00">2</text>
</a>
</g>
</g>
<!-- dir_086a664662017844fa76bd8f66ac71cd -->
<g id="node8" class="node">
<title>dir_086a664662017844fa76bd8f66ac71cd</title>
<g id="a_node8"><a xlink:href="dir_086a664662017844fa76bd8f66ac71cd.html" target="_top" xlink:title="algebra">
<polygon fill="none" stroke="black" points="242,-108 188,-108 188,-72 242,-72 242,-108"/>
<text text-anchor="middle" x="215" y="-87.5" font-family="Helvetica,sans-Serif" font-size="10.00">algebra</text>
</a>
</g>
</g>
<!-- dir_120ed4da3e3217b1e7fc0b4f48568e79&#45;&gt;dir_086a664662017844fa76bd8f66ac71cd -->
<g id="edge11" class="edge">
<title>dir_120ed4da3e3217b1e7fc0b4f48568e79&#45;&gt;dir_086a664662017844fa76bd8f66ac71cd</title>
<path fill="none" stroke="black" d="M317.37,-440.16C364.97,-422.86 458,-379.75 458,-307 458,-307 458,-307 458,-233 458,-138.88 320.44,-106.01 252.32,-95.5"/>
<polygon fill="black" stroke="black" points="252.8,-92.03 242.4,-94.05 251.79,-98.96 252.8,-92.03"/>
<g id="a_edge11&#45;headlabel"><a xlink:href="dir_000008_000001.html" target="_top" xlink:title="2">
<text text-anchor="middle" x="256.77" y="-87.24" font-family="Helvetica,sans-Serif" font-size="10.00">2</text>
</a>
</g>
</g>
<!-- dir_122f4add68bb94b3fee614989bbbd8f9&#45;&gt;dir_aebb8dcc11953d78e620bbef0b9e2183 -->
<g id="edge1" class="edge">
<title>dir_122f4add68bb94b3fee614989bbbd8f9&#45;&gt;dir_aebb8dcc11953d78e620bbef0b9e2183</title>
<path fill="none" stroke="black" d="M270.49,-359.7C263.18,-351.47 255.13,-341.48 248.45,-332.42"/>
<polygon fill="black" stroke="black" points="251.19,-330.23 242.54,-324.1 245.48,-334.28 251.19,-330.23"/>
<g id="a_edge1&#45;headlabel"><a xlink:href="dir_000005_000003.html" target="_top" xlink:title="10">
<text text-anchor="middle" x="255.59" y="-329.01" font-family="Helvetica,sans-Serif" font-size="10.00">10</text>
</a>
</g>
</g>
<!-- dir_d182250f0c231765fc862e69db210731&#45;&gt;dir_122f4add68bb94b3fee614989bbbd8f9 -->
<g id="edge2" class="edge">
<title>dir_d182250f0c231765fc862e69db210731&#45;&gt;dir_122f4add68bb94b3fee614989bbbd8f9</title>
<path fill="none" stroke="black" d="M326.1,-177.61C339.89,-186.66 355.33,-199.68 363,-216 369.81,-230.48 367.18,-236.56 363,-252 352.83,-289.59 328.22,-327.48 310.38,-351.53"/>
<polygon fill="black" stroke="black" points="307.41,-349.65 304.16,-359.73 312.99,-353.88 307.41,-349.65"/>
<g id="a_edge2&#45;headlabel"><a xlink:href="dir_000004_000005.html" target="_top" xlink:title="3">
<text text-anchor="middle" x="307.32" y="-342.57" font-family="Helvetica,sans-Serif" font-size="10.00">3</text>
</a>
</g>
</g>
<!-- dir_d182250f0c231765fc862e69db210731&#45;&gt;dir_aebb8dcc11953d78e620bbef0b9e2183 -->
<g id="edge3" class="edge">
<title>dir_d182250f0c231765fc862e69db210731&#45;&gt;dir_aebb8dcc11953d78e620bbef0b9e2183</title>
<path fill="none" stroke="black" d="M295.84,-180.19C287.36,-204.74 267.2,-250.07 252.18,-278.81"/>
<polygon fill="black" stroke="black" points="248.96,-277.41 247.3,-287.87 255.12,-280.72 248.96,-277.41"/>
<g id="a_edge3&#45;headlabel"><a xlink:href="dir_000004_000003.html" target="_top" xlink:title="8">
<text text-anchor="middle" x="248.16" y="-270.4" font-family="Helvetica,sans-Serif" font-size="10.00">8</text>
</a>
</g>
</g>
<!-- dir_d182250f0c231765fc862e69db210731&#45;&gt;dir_086a664662017844fa76bd8f66ac71cd -->
<g id="edge4" class="edge">
<title>dir_d182250f0c231765fc862e69db210731&#45;&gt;dir_086a664662017844fa76bd8f66ac71cd</title>
<path fill="none" stroke="black" d="M278.24,-143.7C267.76,-134.97 254.89,-124.24 243.5,-114.75"/>
<polygon fill="black" stroke="black" points="245.45,-111.82 235.53,-108.1 240.97,-117.19 245.45,-111.82"/>
<g id="a_edge4&#45;headlabel"><a xlink:href="dir_000004_000001.html" target="_top" xlink:title="2">
<text text-anchor="middle" x="250.03" y="-109.44" font-family="Helvetica,sans-Serif" font-size="10.00">2</text>
</a>
</g>
</g>
<!-- dir_0619a8f54b4fad7043a6de45be8fde0b&#45;&gt;dir_d182250f0c231765fc862e69db210731 -->
<g id="edge12" class="edge">
<title>dir_0619a8f54b4fad7043a6de45be8fde0b&#45;&gt;dir_d182250f0c231765fc862e69db210731</title>
<path fill="none" stroke="black" d="M320.08,-215.7C316.93,-207.81 313.12,-198.3 309.62,-189.55"/>
<polygon fill="black" stroke="black" points="312.81,-188.09 305.84,-180.1 306.31,-190.69 312.81,-188.09"/>
<g id="a_edge12&#45;headlabel"><a xlink:href="dir_000009_000004.html" target="_top" xlink:title="1">
<text text-anchor="middle" x="316.78" y="-187.87" font-family="Helvetica,sans-Serif" font-size="10.00">1</text>
</a>
</g>
</g>
<!-- dir_0619a8f54b4fad7043a6de45be8fde0b&#45;&gt;dir_aebb8dcc11953d78e620bbef0b9e2183 -->
<g id="edge13" class="edge">
<title>dir_0619a8f54b4fad7043a6de45be8fde0b&#45;&gt;dir_aebb8dcc11953d78e620bbef0b9e2183</title>
<path fill="none" stroke="black" d="M310.39,-252.12C299.2,-261.37 284.2,-272.9 270.47,-282.82"/>
<polygon fill="black" stroke="black" points="268.25,-280.11 262.14,-288.76 272.31,-285.81 268.25,-280.11"/>
<g id="a_edge13&#45;headlabel"><a xlink:href="dir_000009_000003.html" target="_top" xlink:title="3">
<text text-anchor="middle" x="269.53" y="-273.21" font-family="Helvetica,sans-Serif" font-size="10.00">3</text>
</a>
</g>
</g>
<!-- dir_aebb8dcc11953d78e620bbef0b9e2183&#45;&gt;dir_122f4add68bb94b3fee614989bbbd8f9 -->
<g id="edge14" class="edge">
<title>dir_aebb8dcc11953d78e620bbef0b9e2183&#45;&gt;dir_122f4add68bb94b3fee614989bbbd8f9</title>
<path fill="none" stroke="black" d="M254.33,-324.1C261.63,-332.3 269.69,-342.28 276.38,-351.36"/>
<polygon fill="black" stroke="black" points="273.67,-353.58 282.32,-359.7 279.37,-349.52 273.67,-353.58"/>
<g id="a_edge14&#45;headlabel"><a xlink:href="dir_000003_000005.html" target="_top" xlink:title="9">
<text text-anchor="middle" x="269.27" y="-349.8" font-family="Helvetica,sans-Serif" font-size="10.00">9</text>
</a>
</g>
</g>
<!-- dir_aebb8dcc11953d78e620bbef0b9e2183&#45;&gt;dir_d182250f0c231765fc862e69db210731 -->
<g id="edge15" class="edge">
<title>dir_aebb8dcc11953d78e620bbef0b9e2183&#45;&gt;dir_d182250f0c231765fc862e69db210731</title>
<path fill="none" stroke="black" d="M238.14,-287.87C246.59,-263.35 266.76,-218.03 281.79,-189.26"/>
<polygon fill="black" stroke="black" points="285.01,-190.65 286.66,-180.19 278.84,-187.34 285.01,-190.65"/>
<g id="a_edge15&#45;headlabel"><a xlink:href="dir_000003_000004.html" target="_top" xlink:title="5">
<text text-anchor="middle" x="285.81" y="-192.66" font-family="Helvetica,sans-Serif" font-size="10.00">5</text>
</a>
</g>
</g>
<!-- dir_aebb8dcc11953d78e620bbef0b9e2183&#45;&gt;dir_0619a8f54b4fad7043a6de45be8fde0b -->
<g id="edge16" class="edge">
<title>dir_aebb8dcc11953d78e620bbef0b9e2183&#45;&gt;dir_0619a8f54b4fad7043a6de45be8fde0b</title>
<path fill="none" stroke="black" d="M251.83,-287.7C263.03,-278.44 278,-266.95 291.68,-257.06"/>
<polygon fill="black" stroke="black" points="293.88,-259.8 299.99,-251.14 289.82,-254.09 293.88,-259.8"/>
<g id="a_edge16&#45;headlabel"><a xlink:href="dir_000003_000009.html" target="_top" xlink:title="3">
<text text-anchor="middle" x="292.59" y="-261.69" font-family="Helvetica,sans-Serif" font-size="10.00">3</text>
</a>
</g>
</g>
<!-- dir_aebb8dcc11953d78e620bbef0b9e2183&#45;&gt;dir_b953371115990fc405ce78459a213a8f -->
<g id="edge17" class="edge">
<title>dir_aebb8dcc11953d78e620bbef0b9e2183&#45;&gt;dir_b953371115990fc405ce78459a213a8f</title>
<path fill="none" stroke="black" d="M207.72,-295.41C182.28,-285.38 144.12,-269.3 114.52,-256.25"/>
<polygon fill="black" stroke="black" points="115.79,-252.99 105.23,-252.13 112.95,-259.38 115.79,-252.99"/>
<g id="a_edge17&#45;headlabel"><a xlink:href="dir_000003_000002.html" target="_top" xlink:title="2">
<text text-anchor="middle" x="120.23" y="-249.35" font-family="Helvetica,sans-Serif" font-size="10.00">2</text>
</a>
</g>
</g>
<!-- dir_aebb8dcc11953d78e620bbef0b9e2183&#45;&gt;dir_ece17dd07d1079ae5da4fc1d5e1e51e1 -->
<g id="edge18" class="edge">
<title>dir_aebb8dcc11953d78e620bbef0b9e2183&#45;&gt;dir_ece17dd07d1079ae5da4fc1d5e1e51e1</title>
<path fill="none" stroke="black" d="M226.58,-287.97C208.37,-240.19 168.3,-104.62 154.84,-46.27"/>
<polygon fill="black" stroke="black" points="158.21,-45.32 152.65,-36.31 151.38,-46.83 158.21,-45.32"/>
<g id="a_edge18&#45;headlabel"><a xlink:href="dir_000003_000007.html" target="_top" xlink:title="2">
<text text-anchor="middle" x="161.76" y="-45.72" font-family="Helvetica,sans-Serif" font-size="10.00">2</text>
</a>
</g>
</g>
<!-- dir_aebb8dcc11953d78e620bbef0b9e2183&#45;&gt;dir_086a664662017844fa76bd8f66ac71cd -->
<g id="edge19" class="edge">
<title>dir_aebb8dcc11953d78e620bbef0b9e2183&#45;&gt;dir_086a664662017844fa76bd8f66ac71cd</title>
<path fill="none" stroke="black" d="M229.52,-287.85C222.52,-250.83 214.06,-163.18 212.87,-118.39"/>
<polygon fill="black" stroke="black" points="216.36,-118.18 212.73,-108.23 209.37,-118.28 216.36,-118.18"/>
<g id="a_edge19&#45;headlabel"><a xlink:href="dir_000003_000001.html" target="_top" xlink:title="4">
<text text-anchor="middle" x="219.25" y="-119.24" font-family="Helvetica,sans-Serif" font-size="10.00">4</text>
</a>
</g>
</g>
<!-- dir_b953371115990fc405ce78459a213a8f&#45;&gt;dir_aebb8dcc11953d78e620bbef0b9e2183 -->
<g id="edge20" class="edge">
<title>dir_b953371115990fc405ce78459a213a8f&#45;&gt;dir_aebb8dcc11953d78e620bbef0b9e2183</title>
<path fill="none" stroke="black" d="M114.09,-250.93C140.4,-261.63 173.58,-275.77 198.58,-286.9"/>
<polygon fill="black" stroke="black" points="197.18,-290.1 207.73,-291 200.04,-283.72 197.18,-290.1"/>
<g id="a_edge20&#45;headlabel"><a xlink:href="dir_000002_000003.html" target="_top" xlink:title="2">
<text text-anchor="middle" x="192.73" y="-288.72" font-family="Helvetica,sans-Serif" font-size="10.00">2</text>
</a>
</g>
</g>
<!-- dir_b953371115990fc405ce78459a213a8f&#45;&gt;dir_ece17dd07d1079ae5da4fc1d5e1e51e1 -->
<g id="edge21" class="edge">
<title>dir_b953371115990fc405ce78459a213a8f&#45;&gt;dir_ece17dd07d1079ae5da4fc1d5e1e51e1</title>
<path fill="none" stroke="black" d="M76.61,-215.94C86.42,-186.39 107.59,-123.87 128,-72 131.43,-63.28 135.42,-53.86 139.11,-45.42"/>
<polygon fill="black" stroke="black" points="142.4,-46.62 143.24,-36.06 136,-43.8 142.4,-46.62"/>
<g id="a_edge21&#45;headlabel"><a xlink:href="dir_000002_000007.html" target="_top" xlink:title="1">
<text text-anchor="middle" x="143.55" y="-48.56" font-family="Helvetica,sans-Serif" font-size="10.00">1</text>
</a>
</g>
</g>
<!-- dir_ece17dd07d1079ae5da4fc1d5e1e51e1&#45;&gt;dir_aebb8dcc11953d78e620bbef0b9e2183 -->
<g id="edge22" class="edge">
<title>dir_ece17dd07d1079ae5da4fc1d5e1e51e1&#45;&gt;dir_aebb8dcc11953d78e620bbef0b9e2183</title>
<path fill="none" stroke="black" d="M159.52,-36.31C177.82,-84.41 217.88,-220 231.24,-278.06"/>
<polygon fill="black" stroke="black" points="227.85,-278.95 233.41,-287.97 234.68,-277.45 227.85,-278.95"/>
<g id="a_edge22&#45;headlabel"><a xlink:href="dir_000007_000003.html" target="_top" xlink:title="2">
<text text-anchor="middle" x="224.3" y="-273.55" font-family="Helvetica,sans-Serif" font-size="10.00">2</text>
</a>
</g>
</g>
<!-- dir_086a664662017844fa76bd8f66ac71cd&#45;&gt;dir_aebb8dcc11953d78e620bbef0b9e2183 -->
<g id="edge23" class="edge">
<title>dir_086a664662017844fa76bd8f66ac71cd&#45;&gt;dir_aebb8dcc11953d78e620bbef0b9e2183</title>
<path fill="none" stroke="black" d="M220.5,-108.23C227.49,-145.32 235.95,-232.98 237.14,-277.71"/>
<polygon fill="black" stroke="black" points="233.64,-277.9 237.27,-287.85 240.64,-277.8 233.64,-277.9"/>
<g id="a_edge23&#45;headlabel"><a xlink:href="dir_000001_000003.html" target="_top" xlink:title="4">
<text text-anchor="middle" x="230.75" y="-271.84" font-family="Helvetica,sans-Serif" font-size="10.00">4</text>
</a>
</g>
</g>
<!-- dir_086a664662017844fa76bd8f66ac71cd&#45;&gt;dir_ece17dd07d1079ae5da4fc1d5e1e51e1 -->
<g id="edge24" class="edge">
<title>dir_086a664662017844fa76bd8f66ac71cd&#45;&gt;dir_ece17dd07d1079ae5da4fc1d5e1e51e1</title>
<path fill="none" stroke="black" d="M199.18,-71.7C191.43,-63.22 181.96,-52.86 173.48,-43.58"/>
<polygon fill="black" stroke="black" points="175.97,-41.12 166.64,-36.1 170.8,-45.85 175.97,-41.12"/>
<g id="a_edge24&#45;headlabel"><a xlink:href="dir_000001_000007.html" target="_top" xlink:title="1">
<text text-anchor="middle" x="180.49" y="-39.36" font-family="Helvetica,sans-Serif" font-size="10.00">1</text>
</a>
</g>
</g>
</g>
</svg>
