<?xml version="1.0" encoding="UTF-8" standalone="no"?>
<!DOCTYPE svg PUBLIC "-//W3C//DTD SVG 1.1//EN"
 "http://www.w3.org/Graphics/SVG/1.1/DTD/svg11.dtd">
<!-- Generated by graphviz version 2.43.0 (0)
 -->
<!-- Title: /home/ram/OmniTemplate/src Pages: 1 -->
<svg width="366pt" height="508pt"
 viewBox="0.00 0.00 366.00 508.00" xmlns="http://www.w3.org/2000/svg" xmlns:xlink="http://www.w3.org/1999/xlink">
<g id="graph0" class="graph" transform="scale(1 1) rotate(0) translate(4 504)">
<title>/home/ram/OmniTemplate/src</title>
<polygon fill="white" stroke="transparent" points="-4,4 -4,-504 362,-504 362,4 -4,4"/>
<g id="clust1" class="cluster">
<title>clusterdir_68267d1309a1af8e8297ef4c3efbcdba</title>
<g id="a_clust1"><a xlink:href="dir_68267d1309a1af8e8297ef4c3efbcdba.html">
<polygon fill="#eeeeff" stroke="black" points="8,-8 8,-492 350,-492 350,-8 8,-8"/>
</a>
</g>
</g>
<!-- dir_68267d1309a1af8e8297ef4c3efbcdba -->
<g id="node1" class="node">
<title>dir_68267d1309a1af8e8297ef4c3efbcdba</title>
<text text-anchor="middle" x="301" y="-463.5" font-family="Helvetica,sans-Serif" font-size="10.00">src</text>
</g>
<!-- dir_086a664662017844fa76bd8f66ac71cd -->
<g id="node2" class="node">
<title>dir_086a664662017844fa76bd8f66ac71cd</title>
<g id="a_node2"><a xlink:href="dir_086a664662017844fa76bd8f66ac71cd.html" xlink:title="algebra">
<polygon fill="white" stroke="black" points="262,-412 208,-412 208,-376 262,-376 262,-412"/>
<text text-anchor="middle" x="235" y="-391.5" font-family="Helvetica,sans-Serif" font-size="10.00">algebra</text>
</a>
</g>
</g>
<!-- dir_aebb8dcc11953d78e620bbef0b9e2183 -->
<g id="node4" class="node">
<title>dir_aebb8dcc11953d78e620bbef0b9e2183</title>
<g id="a_node4"><a xlink:href="dir_aebb8dcc11953d78e620bbef0b9e2183.html" xlink:title="core">
<polygon fill="white" stroke="black" points="173,-340 119,-340 119,-304 173,-304 173,-340"/>
<text text-anchor="middle" x="146" y="-319.5" font-family="Helvetica,sans-Serif" font-size="10.00">core</text>
</a>
</g>
</g>
<!-- dir_086a664662017844fa76bd8f66ac71cd&#45;&gt;dir_aebb8dcc11953d78e620bbef0b9e2183 -->
<g id="edge29" class="edge">
<title>dir_086a664662017844fa76bd8f66ac71cd&#45;&gt;dir_aebb8dcc11953d78e620bbef0b9e2183</title>
<path fill="none" stroke="black" d="M207.58,-376.05C195.35,-367.18 181.17,-356.17 169.44,-346.48"/>
<polygon fill="black" stroke="black" points="171.67,-343.79 161.77,-340.03 167.17,-349.15 171.67,-343.79"/>
<g id="a_edge29&#45;headlabel"><a xlink:href="dir_000001_000003.html" xlink:title="4">
<text text-anchor="middle" x="176.25" y="-341.43" font-family="Helvetica,sans-Serif" font-size="10.00">4</text>
</a>
</g>
</g>
<!-- dir_ece17dd07d1079ae5da4fc1d5e1e51e1 -->
<g id="node7" class="node">
<title>dir_ece17dd07d1079ae5da4fc1d5e1e51e1</title>
<g id="a_node7"><a xlink:href="dir_ece17dd07d1079ae5da4fc1d5e1e51e1.html" xlink:title="number_theory">
<polygon fill="white" stroke="black" points="186.5,-52 95.5,-52 95.5,-16 186.5,-16 186.5,-52"/>
<text text-anchor="middle" x="141" y="-31.5" font-family="Helvetica,sans-Serif" font-size="10.00">number_theory</text>
</a>
</g>
</g>
<!-- dir_086a664662017844fa76bd8f66ac71cd&#45;&gt;dir_ece17dd07d1079ae5da4fc1d5e1e51e1 -->
<g id="edge30" class="edge">
<title>dir_086a664662017844fa76bd8f66ac71cd&#45;&gt;dir_ece17dd07d1079ae5da4fc1d5e1e51e1</title>
<path fill="none" stroke="black" d="M249,-375.82C268.37,-350.26 301,-299.93 301,-251 301,-251 301,-251 301,-177 301,-118.85 241.16,-78.72 194.67,-56.31"/>
<polygon fill="black" stroke="black" points="196.11,-53.12 185.57,-52.07 193.15,-59.47 196.11,-53.12"/>
<g id="a_edge30&#45;headlabel"><a xlink:href="dir_000001_000007.html" xlink:title="2">
<text text-anchor="middle" x="200.57" y="-49.57" font-family="Helvetica,sans-Serif" font-size="10.00">2</text>
</a>
</g>
</g>
<!-- dir_b953371115990fc405ce78459a213a8f -->
<g id="node3" class="node">
<title>dir_b953371115990fc405ce78459a213a8f</title>
<g id="a_node3"><a xlink:href="dir_b953371115990fc405ce78459a213a8f.html" xlink:title="combinatorics">
<polygon fill="white" stroke="black" points="122,-196 36,-196 36,-160 122,-160 122,-196"/>
<text text-anchor="middle" x="79" y="-175.5" font-family="Helvetica,sans-Serif" font-size="10.00">combinatorics</text>
</a>
</g>
</g>
<!-- dir_b953371115990fc405ce78459a213a8f&#45;&gt;dir_aebb8dcc11953d78e620bbef0b9e2183 -->
<g id="edge26" class="edge">
<title>dir_b953371115990fc405ce78459a213a8f&#45;&gt;dir_aebb8dcc11953d78e620bbef0b9e2183</title>
<path fill="none" stroke="black" d="M91.7,-196.19C105.81,-220.64 127.33,-265.67 138.87,-294.44"/>
<polygon fill="black" stroke="black" points="135.64,-295.8 142.5,-303.87 142.17,-293.28 135.64,-295.8"/>
<g id="a_edge26&#45;headlabel"><a xlink:href="dir_000002_000003.html" xlink:title="2">
<text text-anchor="middle" x="131.7" y="-290.96" font-family="Helvetica,sans-Serif" font-size="10.00">2</text>
</a>
</g>
</g>
<!-- dir_b953371115990fc405ce78459a213a8f&#45;&gt;dir_ece17dd07d1079ae5da4fc1d5e1e51e1 -->
<g id="edge27" class="edge">
<title>dir_b953371115990fc405ce78459a213a8f&#45;&gt;dir_ece17dd07d1079ae5da4fc1d5e1e51e1</title>
<path fill="none" stroke="black" d="M86.48,-159.87C97.14,-135.46 116.8,-90.43 129.37,-61.64"/>
<polygon fill="black" stroke="black" points="132.7,-62.75 133.49,-52.19 126.29,-59.95 132.7,-62.75"/>
<g id="a_edge27&#45;headlabel"><a xlink:href="dir_000002_000007.html" xlink:title="1">
<text text-anchor="middle" x="133.86" y="-64.68" font-family="Helvetica,sans-Serif" font-size="10.00">1</text>
</a>
</g>
</g>
<!-- dir_aebb8dcc11953d78e620bbef0b9e2183&#45;&gt;dir_086a664662017844fa76bd8f66ac71cd -->
<g id="edge25" class="edge">
<title>dir_aebb8dcc11953d78e620bbef0b9e2183&#45;&gt;dir_086a664662017844fa76bd8f66ac71cd</title>
<path fill="none" stroke="black" d="M173.31,-339.86C185.45,-348.68 199.54,-359.61 211.25,-369.26"/>
<polygon fill="black" stroke="black" points="209.01,-371.95 218.92,-375.7 213.51,-366.59 209.01,-371.95"/>
<g id="a_edge25&#45;headlabel"><a xlink:href="dir_000003_000001.html" xlink:title="4">
<text text-anchor="middle" x="204.43" y="-369.31" font-family="Helvetica,sans-Serif" font-size="10.00">4</text>
</a>
</g>
</g>
<!-- dir_aebb8dcc11953d78e620bbef0b9e2183&#45;&gt;dir_b953371115990fc405ce78459a213a8f -->
<g id="edge23" class="edge">
<title>dir_aebb8dcc11953d78e620bbef0b9e2183&#45;&gt;dir_b953371115990fc405ce78459a213a8f</title>
<path fill="none" stroke="black" d="M133.33,-303.87C119.23,-279.46 97.71,-234.43 86.16,-205.64"/>
<polygon fill="black" stroke="black" points="89.38,-204.26 82.52,-196.19 82.85,-206.78 89.38,-204.26"/>
<g id="a_edge23&#45;headlabel"><a xlink:href="dir_000003_000002.html" xlink:title="2">
<text text-anchor="middle" x="93.32" y="-204.09" font-family="Helvetica,sans-Serif" font-size="10.00">2</text>
</a>
</g>
</g>
<!-- dir_122f4add68bb94b3fee614989bbbd8f9 -->
<g id="node5" class="node">
<title>dir_122f4add68bb94b3fee614989bbbd8f9</title>
<g id="a_node5"><a xlink:href="dir_122f4add68bb94b3fee614989bbbd8f9.html" xlink:title="ds">
<polygon fill="white" stroke="black" points="214,-124 160,-124 160,-88 214,-88 214,-124"/>
<text text-anchor="middle" x="187" y="-103.5" font-family="Helvetica,sans-Serif" font-size="10.00">ds</text>
</a>
</g>
</g>
<!-- dir_aebb8dcc11953d78e620bbef0b9e2183&#45;&gt;dir_122f4add68bb94b3fee614989bbbd8f9 -->
<g id="edge19" class="edge">
<title>dir_aebb8dcc11953d78e620bbef0b9e2183&#45;&gt;dir_122f4add68bb94b3fee614989bbbd8f9</title>
<path fill="none" stroke="black" d="M141.4,-303.88C141.43,-285.91 145.42,-256.88 150,-232 155.93,-199.76 158.83,-191.99 166,-160 167.91,-151.49 170,-142.22 172.32,-133.84"/>
<polygon fill="black" stroke="black" points="175.7,-134.77 175.27,-124.18 169.01,-132.73 175.7,-134.77"/>
<g id="a_edge19&#45;headlabel"><a xlink:href="dir_000003_000005.html" xlink:title="9">
<text text-anchor="middle" x="177.37" y="-136.53" font-family="Helvetica,sans-Serif" font-size="10.00">9</text>
</a>
</g>
</g>
<!-- dir_d182250f0c231765fc862e69db210731 -->
<g id="node6" class="node">
<title>dir_d182250f0c231765fc862e69db210731</title>
<g id="a_node6"><a xlink:href="dir_d182250f0c231765fc862e69db210731.html" xlink:title="graph">
<polygon fill="white" stroke="red" points="238,-196 184,-196 184,-160 238,-160 238,-196"/>
<text text-anchor="middle" x="211" y="-175.5" font-family="Helvetica,sans-Serif" font-size="10.00">graph</text>
</a>
</g>
</g>
<!-- dir_aebb8dcc11953d78e620bbef0b9e2183&#45;&gt;dir_d182250f0c231765fc862e69db210731 -->
<g id="edge20" class="edge">
<title>dir_aebb8dcc11953d78e620bbef0b9e2183&#45;&gt;dir_d182250f0c231765fc862e69db210731</title>
<path fill="none" stroke="black" d="M144.61,-303.88C148.15,-285.66 158.34,-256.2 170,-232 174.43,-222.8 179.98,-213.13 185.67,-204.61"/>
<polygon fill="black" stroke="black" points="188.69,-206.39 191.61,-196.2 182.98,-202.35 188.69,-206.39"/>
<g id="a_edge20&#45;headlabel"><a xlink:href="dir_000003_000004.html" xlink:title="5">
<text text-anchor="middle" x="188.94" y="-208.47" font-family="Helvetica,sans-Serif" font-size="10.00">5</text>
</a>
</g>
</g>
<!-- dir_aebb8dcc11953d78e620bbef0b9e2183&#45;&gt;dir_ece17dd07d1079ae5da4fc1d5e1e51e1 -->
<g id="edge24" class="edge">
<title>dir_aebb8dcc11953d78e620bbef0b9e2183&#45;&gt;dir_ece17dd07d1079ae5da4fc1d5e1e51e1</title>
<path fill="none" stroke="black" d="M142.29,-303.97C137.28,-256.29 134.66,-121.18 137.29,-62.63"/>
<polygon fill="black" stroke="black" points="140.8,-62.49 137.87,-52.31 133.82,-62.1 140.8,-62.49"/>
<g id="a_edge24&#45;headlabel"><a xlink:href="dir_000003_000007.html" xlink:title="2">
<text text-anchor="middle" x="143.44" y="-63.73" font-family="Helvetica,sans-Serif" font-size="10.00">2</text>
</a>
</g>
</g>
<!-- dir_6cc8961f7f77054fb84f95c9f23f5ca0 -->
<g id="node8" class="node">
<title>dir_6cc8961f7f77054fb84f95c9f23f5ca0</title>
<g id="a_node8"><a xlink:href="dir_6cc8961f7f77054fb84f95c9f23f5ca0.html" xlink:title="string">
<polygon fill="white" stroke="black" points="90,-268 36,-268 36,-232 90,-232 90,-268"/>
<text text-anchor="middle" x="63" y="-247.5" font-family="Helvetica,sans-Serif" font-size="10.00">string</text>
</a>
</g>
</g>
<!-- dir_aebb8dcc11953d78e620bbef0b9e2183&#45;&gt;dir_6cc8961f7f77054fb84f95c9f23f5ca0 -->
<g id="edge22" class="edge">
<title>dir_aebb8dcc11953d78e620bbef0b9e2183&#45;&gt;dir_6cc8961f7f77054fb84f95c9f23f5ca0</title>
<path fill="none" stroke="black" d="M119.57,-303.7C108.42,-295.05 95.68,-284.45 85.04,-275.03"/>
<polygon fill="black" stroke="black" points="87.15,-272.21 77.39,-268.1 82.46,-277.41 87.15,-272.21"/>
<g id="a_edge22&#45;headlabel"><a xlink:href="dir_000003_000008.html" xlink:title="1">
<text text-anchor="middle" x="91.72" y="-270.02" font-family="Helvetica,sans-Serif" font-size="10.00">1</text>
</a>
</g>
</g>
<!-- dir_0619a8f54b4fad7043a6de45be8fde0b -->
<g id="node10" class="node">
<title>dir_0619a8f54b4fad7043a6de45be8fde0b</title>
<g id="a_node10"><a xlink:href="dir_0619a8f54b4fad7043a6de45be8fde0b.html" xlink:title="utility">
<polygon fill="white" stroke="black" points="242,-268 188,-268 188,-232 242,-232 242,-268"/>
<text text-anchor="middle" x="215" y="-247.5" font-family="Helvetica,sans-Serif" font-size="10.00">utility</text>
</a>
</g>
</g>
<!-- dir_aebb8dcc11953d78e620bbef0b9e2183&#45;&gt;dir_0619a8f54b4fad7043a6de45be8fde0b -->
<g id="edge21" class="edge">
<title>dir_aebb8dcc11953d78e620bbef0b9e2183&#45;&gt;dir_0619a8f54b4fad7043a6de45be8fde0b</title>
<path fill="none" stroke="black" d="M157.14,-303.7C164.77,-295.05 175.04,-284.45 184.87,-275.03"/>
<polygon fill="black" stroke="black" points="187.35,-277.5 192.24,-268.1 182.56,-272.4 187.35,-277.5"/>
<g id="a_edge21&#45;headlabel"><a xlink:href="dir_000003_000010.html" xlink:title="3">
<text text-anchor="middle" x="186.67" y="-279.53" font-family="Helvetica,sans-Serif" font-size="10.00">3</text>
</a>
</g>
</g>
<!-- dir_122f4add68bb94b3fee614989bbbd8f9&#45;&gt;dir_aebb8dcc11953d78e620bbef0b9e2183 -->
<g id="edge1" class="edge">
<title>dir_122f4add68bb94b3fee614989bbbd8f9&#45;&gt;dir_aebb8dcc11953d78e620bbef0b9e2183</title>
<path fill="none" stroke="black" d="M190.91,-124.18C189.74,-134.55 186.68,-148.03 184,-160 176.83,-191.99 173.93,-199.76 168,-232 164.21,-252.6 160.82,-276.05 157.16,-293.71"/>
<polygon fill="black" stroke="black" points="153.65,-293.35 154.84,-303.88 160.48,-294.91 153.65,-293.35"/>
<g id="a_edge1&#45;headlabel"><a xlink:href="dir_000005_000003.html" xlink:title="10">
<text text-anchor="middle" x="151.69" y="-286.71" font-family="Helvetica,sans-Serif" font-size="10.00">10</text>
</a>
</g>
</g>
<!-- dir_122f4add68bb94b3fee614989bbbd8f9&#45;&gt;dir_ece17dd07d1079ae5da4fc1d5e1e51e1 -->
<g id="edge2" class="edge">
<title>dir_122f4add68bb94b3fee614989bbbd8f9&#45;&gt;dir_ece17dd07d1079ae5da4fc1d5e1e51e1</title>
<path fill="none" stroke="black" d="M175.63,-87.7C170.28,-79.56 163.8,-69.69 157.89,-60.7"/>
<polygon fill="black" stroke="black" points="160.66,-58.54 152.24,-52.1 154.81,-62.38 160.66,-58.54"/>
<g id="a_edge2&#45;headlabel"><a xlink:href="dir_000005_000007.html" xlink:title="1">
<text text-anchor="middle" x="165" y="-57.48" font-family="Helvetica,sans-Serif" font-size="10.00">1</text>
</a>
</g>
</g>
<!-- dir_d182250f0c231765fc862e69db210731&#45;&gt;dir_086a664662017844fa76bd8f66ac71cd -->
<g id="edge5" class="edge">
<title>dir_d182250f0c231765fc862e69db210731&#45;&gt;dir_086a664662017844fa76bd8f66ac71cd</title>
<path fill="none" stroke="black" d="M228.73,-196.4C237.24,-206 246.53,-218.66 251,-232 266.14,-277.18 254.19,-333.18 244.4,-365.82"/>
<polygon fill="black" stroke="black" points="241,-364.97 241.34,-375.55 247.68,-367.07 241,-364.97"/>
<g id="a_edge5&#45;headlabel"><a xlink:href="dir_000004_000001.html" xlink:title="3">
<text text-anchor="middle" x="239.37" y="-358.18" font-family="Helvetica,sans-Serif" font-size="10.00">3</text>
</a>
</g>
</g>
<!-- dir_d182250f0c231765fc862e69db210731&#45;&gt;dir_aebb8dcc11953d78e620bbef0b9e2183 -->
<g id="edge4" class="edge">
<title>dir_d182250f0c231765fc862e69db210731&#45;&gt;dir_aebb8dcc11953d78e620bbef0b9e2183</title>
<path fill="none" stroke="black" d="M207.36,-196.2C201.97,-206.36 193.97,-219.61 188,-232 178.16,-252.42 169.37,-276.58 161.94,-294.58"/>
<polygon fill="black" stroke="black" points="158.68,-293.31 157.96,-303.88 165.11,-296.06 158.68,-293.31"/>
<g id="a_edge4&#45;headlabel"><a xlink:href="dir_000004_000003.html" xlink:title="10">
<text text-anchor="middle" x="157.48" y="-286.38" font-family="Helvetica,sans-Serif" font-size="10.00">10</text>
</a>
</g>
</g>
<!-- dir_d182250f0c231765fc862e69db210731&#45;&gt;dir_122f4add68bb94b3fee614989bbbd8f9 -->
<g id="edge3" class="edge">
<title>dir_d182250f0c231765fc862e69db210731&#45;&gt;dir_122f4add68bb94b3fee614989bbbd8f9</title>
<path fill="none" stroke="black" d="M205.07,-159.7C202.39,-151.9 199.17,-142.51 196.2,-133.83"/>
<polygon fill="black" stroke="black" points="199.42,-132.43 192.86,-124.1 192.8,-134.7 199.42,-132.43"/>
<g id="a_edge3&#45;headlabel"><a xlink:href="dir_000004_000005.html" xlink:title="4">
<text text-anchor="middle" x="203.27" y="-132.41" font-family="Helvetica,sans-Serif" font-size="10.00">4</text>
</a>
</g>
</g>
<!-- dir_ece17dd07d1079ae5da4fc1d5e1e51e1&#45;&gt;dir_aebb8dcc11953d78e620bbef0b9e2183 -->
<g id="edge28" class="edge">
<title>dir_ece17dd07d1079ae5da4fc1d5e1e51e1&#45;&gt;dir_aebb8dcc11953d78e620bbef0b9e2183</title>
<path fill="none" stroke="black" d="M144.74,-52.31C149.74,-100.31 152.34,-235.44 149.69,-293.7"/>
<polygon fill="black" stroke="black" points="146.18,-293.78 149.12,-303.97 153.17,-294.18 146.18,-293.78"/>
<g id="a_edge28&#45;headlabel"><a xlink:href="dir_000007_000003.html" xlink:title="2">
<text text-anchor="middle" x="143.55" y="-287.54" font-family="Helvetica,sans-Serif" font-size="10.00">2</text>
</a>
</g>
</g>
<!-- dir_6cc8961f7f77054fb84f95c9f23f5ca0&#45;&gt;dir_b953371115990fc405ce78459a213a8f -->
<g id="edge17" class="edge">
<title>dir_6cc8961f7f77054fb84f95c9f23f5ca0&#45;&gt;dir_b953371115990fc405ce78459a213a8f</title>
<path fill="none" stroke="black" d="M66.96,-231.7C68.72,-223.98 70.84,-214.71 72.8,-206.11"/>
<polygon fill="black" stroke="black" points="76.27,-206.63 75.09,-196.1 69.45,-205.07 76.27,-206.63"/>
<g id="a_edge17&#45;headlabel"><a xlink:href="dir_000008_000002.html" xlink:title="1">
<text text-anchor="middle" x="78.24" y="-208.27" font-family="Helvetica,sans-Serif" font-size="10.00">1</text>
</a>
</g>
</g>
<!-- dir_6cc8961f7f77054fb84f95c9f23f5ca0&#45;&gt;dir_aebb8dcc11953d78e620bbef0b9e2183 -->
<g id="edge16" class="edge">
<title>dir_6cc8961f7f77054fb84f95c9f23f5ca0&#45;&gt;dir_aebb8dcc11953d78e620bbef0b9e2183</title>
<path fill="none" stroke="black" d="M89.18,-268.1C100.3,-276.72 113.05,-287.32 123.71,-296.76"/>
<polygon fill="black" stroke="black" points="121.63,-299.59 131.4,-303.7 126.32,-294.4 121.63,-299.59"/>
<g id="a_edge16&#45;headlabel"><a xlink:href="dir_000008_000003.html" xlink:title="3">
<text text-anchor="middle" x="117.06" y="-296.79" font-family="Helvetica,sans-Serif" font-size="10.00">3</text>
</a>
</g>
</g>
<!-- dir_6cc8961f7f77054fb84f95c9f23f5ca0&#45;&gt;dir_ece17dd07d1079ae5da4fc1d5e1e51e1 -->
<g id="edge18" class="edge">
<title>dir_6cc8961f7f77054fb84f95c9f23f5ca0&#45;&gt;dir_ece17dd07d1079ae5da4fc1d5e1e51e1</title>
<path fill="none" stroke="black" d="M47.39,-231.77C39.63,-222.03 31.05,-209.18 27,-196 22.3,-180.71 21.22,-174.92 27,-160 43.42,-117.63 81.64,-80.81 109.3,-58.31"/>
<polygon fill="black" stroke="black" points="111.5,-61.04 117.16,-52.08 107.15,-55.56 111.5,-61.04"/>
<g id="a_edge18&#45;headlabel"><a xlink:href="dir_000008_000007.html" xlink:title="2">
<text text-anchor="middle" x="110.45" y="-63" font-family="Helvetica,sans-Serif" font-size="10.00">2</text>
</a>
</g>
</g>
<!-- dir_120ed4da3e3217b1e7fc0b4f48568e79 -->
<g id="node9" class="node">
<title>dir_120ed4da3e3217b1e7fc0b4f48568e79</title>
<g id="a_node9"><a xlink:href="dir_120ed4da3e3217b1e7fc0b4f48568e79.html" xlink:title="test">
<polygon fill="white" stroke="black" points="229,-484 175,-484 175,-448 229,-448 229,-484"/>
<text text-anchor="middle" x="202" y="-463.5" font-family="Helvetica,sans-Serif" font-size="10.00">test</text>
</a>
</g>
</g>
<!-- dir_120ed4da3e3217b1e7fc0b4f48568e79&#45;&gt;dir_086a664662017844fa76bd8f66ac71cd -->
<g id="edge13" class="edge">
<title>dir_120ed4da3e3217b1e7fc0b4f48568e79&#45;&gt;dir_086a664662017844fa76bd8f66ac71cd</title>
<path fill="none" stroke="black" d="M210.16,-447.7C213.91,-439.73 218.45,-430.1 222.62,-421.26"/>
<polygon fill="black" stroke="black" points="225.84,-422.64 226.94,-412.1 219.51,-419.66 225.84,-422.64"/>
<g id="a_edge13&#45;headlabel"><a xlink:href="dir_000009_000001.html" xlink:title="2">
<text text-anchor="middle" x="226.87" y="-424.6" font-family="Helvetica,sans-Serif" font-size="10.00">2</text>
</a>
</g>
</g>
<!-- dir_120ed4da3e3217b1e7fc0b4f48568e79&#45;&gt;dir_b953371115990fc405ce78459a213a8f -->
<g id="edge11" class="edge">
<title>dir_120ed4da3e3217b1e7fc0b4f48568e79&#45;&gt;dir_b953371115990fc405ce78459a213a8f</title>
<path fill="none" stroke="black" d="M175.17,-447.87C161.18,-438.25 144.27,-425.48 131,-412 75.62,-355.74 51.29,-343.12 27,-268 22.08,-252.78 20.95,-246.81 27,-232 31.49,-221.02 39.47,-211.08 47.85,-202.86"/>
<polygon fill="black" stroke="black" points="50.24,-205.42 55.25,-196.09 45.51,-200.26 50.24,-205.42"/>
<g id="a_edge11&#45;headlabel"><a xlink:href="dir_000009_000002.html" xlink:title="2">
<text text-anchor="middle" x="49.5" y="-207.45" font-family="Helvetica,sans-Serif" font-size="10.00">2</text>
</a>
</g>
</g>
<!-- dir_120ed4da3e3217b1e7fc0b4f48568e79&#45;&gt;dir_aebb8dcc11953d78e620bbef0b9e2183 -->
<g id="edge10" class="edge">
<title>dir_120ed4da3e3217b1e7fc0b4f48568e79&#45;&gt;dir_aebb8dcc11953d78e620bbef0b9e2183</title>
<path fill="none" stroke="black" d="M195.25,-447.87C185.62,-423.46 167.86,-378.43 156.5,-349.64"/>
<polygon fill="black" stroke="black" points="159.7,-348.21 152.78,-340.19 153.19,-350.78 159.7,-348.21"/>
<g id="a_edge10&#45;headlabel"><a xlink:href="dir_000009_000003.html" xlink:title="3">
<text text-anchor="middle" x="163.66" y="-348.01" font-family="Helvetica,sans-Serif" font-size="10.00">3</text>
</a>
</g>
</g>
<!-- dir_120ed4da3e3217b1e7fc0b4f48568e79&#45;&gt;dir_122f4add68bb94b3fee614989bbbd8f9 -->
<g id="edge6" class="edge">
<title>dir_120ed4da3e3217b1e7fc0b4f48568e79&#45;&gt;dir_122f4add68bb94b3fee614989bbbd8f9</title>
<path fill="none" stroke="black" d="M229.23,-454.56C247.61,-446.02 270.68,-432.05 283,-412 308.2,-370.99 297.81,-351.65 291,-304 281.54,-237.75 283.58,-216.04 247,-160 239.81,-148.98 229.73,-138.86 219.88,-130.48"/>
<polygon fill="black" stroke="black" points="222.06,-127.75 212.09,-124.16 217.64,-133.18 222.06,-127.75"/>
<g id="a_edge6&#45;headlabel"><a xlink:href="dir_000009_000005.html" xlink:title="7">
<text text-anchor="middle" x="226.64" y="-125.31" font-family="Helvetica,sans-Serif" font-size="10.00">7</text>
</a>
</g>
</g>
<!-- dir_120ed4da3e3217b1e7fc0b4f48568e79&#45;&gt;dir_d182250f0c231765fc862e69db210731 -->
<g id="edge7" class="edge">
<title>dir_120ed4da3e3217b1e7fc0b4f48568e79&#45;&gt;dir_d182250f0c231765fc862e69db210731</title>
<path fill="none" stroke="black" d="M229.03,-452.13C244.39,-443.21 262.25,-429.75 271,-412 287.24,-379.05 306.85,-342.24 259,-232 254.46,-221.54 246.99,-211.76 239.29,-203.52"/>
<polygon fill="black" stroke="black" points="241.76,-201.04 232.22,-196.41 236.79,-205.97 241.76,-201.04"/>
<g id="a_edge7&#45;headlabel"><a xlink:href="dir_000009_000004.html" xlink:title="6">
<text text-anchor="middle" x="246.3" y="-199.08" font-family="Helvetica,sans-Serif" font-size="10.00">6</text>
</a>
</g>
</g>
<!-- dir_120ed4da3e3217b1e7fc0b4f48568e79&#45;&gt;dir_ece17dd07d1079ae5da4fc1d5e1e51e1 -->
<g id="edge12" class="edge">
<title>dir_120ed4da3e3217b1e7fc0b4f48568e79&#45;&gt;dir_ece17dd07d1079ae5da4fc1d5e1e51e1</title>
<path fill="none" stroke="black" d="M229.19,-454.53C249.36,-445.66 276.47,-431.31 295,-412 325.83,-379.88 341,-367.53 341,-323 341,-323 341,-323 341,-177 341,-105.7 255.45,-66.93 196.26,-48.63"/>
<polygon fill="black" stroke="black" points="197.22,-45.26 186.63,-45.76 195.22,-51.97 197.22,-45.26"/>
<g id="a_edge12&#45;headlabel"><a xlink:href="dir_000009_000007.html" xlink:title="2">
<text text-anchor="middle" x="201.47" y="-41.07" font-family="Helvetica,sans-Serif" font-size="10.00">2</text>
</a>
</g>
</g>
<!-- dir_120ed4da3e3217b1e7fc0b4f48568e79&#45;&gt;dir_6cc8961f7f77054fb84f95c9f23f5ca0 -->
<g id="edge9" class="edge">
<title>dir_120ed4da3e3217b1e7fc0b4f48568e79&#45;&gt;dir_6cc8961f7f77054fb84f95c9f23f5ca0</title>
<path fill="none" stroke="black" d="M188.04,-447.78C169.23,-424.19 135.2,-380.18 110,-340 97.23,-319.64 84.62,-295.47 75.68,-277.46"/>
<polygon fill="black" stroke="black" points="78.66,-275.59 71.11,-268.15 72.37,-278.67 78.66,-275.59"/>
<g id="a_edge9&#45;headlabel"><a xlink:href="dir_000009_000008.html" xlink:title="3">
<text text-anchor="middle" x="82.79" y="-275.06" font-family="Helvetica,sans-Serif" font-size="10.00">3</text>
</a>
</g>
</g>
<!-- dir_120ed4da3e3217b1e7fc0b4f48568e79&#45;&gt;dir_0619a8f54b4fad7043a6de45be8fde0b -->
<g id="edge8" class="edge">
<title>dir_120ed4da3e3217b1e7fc0b4f48568e79&#45;&gt;dir_0619a8f54b4fad7043a6de45be8fde0b</title>
<path fill="none" stroke="black" d="M200.78,-447.82C200.11,-437.46 199.34,-423.98 199,-412 198.55,-396.01 197.98,-391.97 199,-376 201.16,-342.18 206.56,-303.53 210.49,-278.28"/>
<polygon fill="black" stroke="black" points="213.96,-278.75 212.07,-268.32 207.05,-277.65 213.96,-278.75"/>
<g id="a_edge8&#45;headlabel"><a xlink:href="dir_000009_000010.html" xlink:title="2">
<text text-anchor="middle" x="216.2" y="-280.24" font-family="Helvetica,sans-Serif" font-size="10.00">2</text>
</a>
</g>
</g>
<!-- dir_0619a8f54b4fad7043a6de45be8fde0b&#45;&gt;dir_aebb8dcc11953d78e620bbef0b9e2183 -->
<g id="edge15" class="edge">
<title>dir_0619a8f54b4fad7043a6de45be8fde0b&#45;&gt;dir_aebb8dcc11953d78e620bbef0b9e2183</title>
<path fill="none" stroke="black" d="M204.04,-268.1C196.44,-276.72 186.19,-287.32 176.36,-296.76"/>
<polygon fill="black" stroke="black" points="173.86,-294.3 168.97,-303.7 178.66,-299.4 173.86,-294.3"/>
<g id="a_edge15&#45;headlabel"><a xlink:href="dir_000010_000003.html" xlink:title="2">
<text text-anchor="middle" x="174.54" y="-287.27" font-family="Helvetica,sans-Serif" font-size="10.00">2</text>
</a>
</g>
</g>
<!-- dir_0619a8f54b4fad7043a6de45be8fde0b&#45;&gt;dir_d182250f0c231765fc862e69db210731 -->
<g id="edge14" class="edge">
<title>dir_0619a8f54b4fad7043a6de45be8fde0b&#45;&gt;dir_d182250f0c231765fc862e69db210731</title>
<path fill="none" stroke="black" d="M214.01,-231.7C213.57,-223.98 213.04,-214.71 212.55,-206.11"/>
<polygon fill="black" stroke="black" points="216.04,-205.89 211.98,-196.1 209.05,-206.29 216.04,-205.89"/>
<g id="a_edge14&#45;headlabel"><a xlink:href="dir_000010_000004.html" xlink:title="2">
<text text-anchor="middle" x="219.08" y="-206.82" font-family="Helvetica,sans-Serif" font-size="10.00">2</text>
</a>
</g>
</g>
</g>
</svg>
