<?xml version="1.0" encoding="UTF-8" standalone="no"?>
<!DOCTYPE svg PUBLIC "-//W3C//DTD SVG 1.1//EN"
 "http://www.w3.org/Graphics/SVG/1.1/DTD/svg11.dtd">
<!-- Generated by graphviz version 2.43.0 (0)
 -->
<!-- Title: /home/ram/OmniTemplate/src/combinatorics Pages: 1 -->
<svg width="201pt" height="151pt"
 viewBox="0.00 0.00 200.50 151.00" xmlns="http://www.w3.org/2000/svg" xmlns:xlink="http://www.w3.org/1999/xlink">
<g id="graph0" class="graph" transform="scale(1 1) rotate(0) translate(4 147)">
<title>/home/ram/OmniTemplate/src/combinatorics</title>
<polygon fill="white" stroke="transparent" points="-4,4 -4,-147 196.5,-147 196.5,4 -4,4"/>
<g id="clust1" class="cluster">
<title>clusterdir_68267d1309a1af8e8297ef4c3efbcdba</title>
<g id="a_clust1"><a xlink:href="dir_68267d1309a1af8e8297ef4c3efbcdba.html" target="_top" xlink:title="src">
<polygon fill="#ddddee" stroke="black" points="8,-64 8,-135 110,-135 110,-64 8,-64"/>
<text text-anchor="middle" x="59" y="-123" font-family="Helvetica,sans-Serif" font-size="10.00">src</text>
</a>
</g>
</g>
<!-- dir_b953371115990fc405ce78459a213a8f -->
<g id="node1" class="node">
<title>dir_b953371115990fc405ce78459a213a8f</title>
<g id="a_node1"><a xlink:href="dir_b953371115990fc405ce78459a213a8f.html" target="_top" xlink:title="combinatorics">
<polygon fill="#eeeeff" stroke="black" points="102,-108 16,-108 16,-72 102,-72 102,-108"/>
<text text-anchor="middle" x="59" y="-87.5" font-family="Helvetica,sans-Serif" font-size="10.00">combinatorics</text>
</a>
</g>
</g>
<!-- dir_aebb8dcc11953d78e620bbef0b9e2183 -->
<g id="node2" class="node">
<title>dir_aebb8dcc11953d78e620bbef0b9e2183</title>
<g id="a_node2"><a xlink:href="dir_aebb8dcc11953d78e620bbef0b9e2183.html" target="_top" xlink:title="core">
<polygon fill="none" stroke="black" points="174,-108 120,-108 120,-72 174,-72 174,-108"/>
<text text-anchor="middle" x="147" y="-87.5" font-family="Helvetica,sans-Serif" font-size="10.00">core</text>
</a>
</g>
</g>
<!-- dir_b953371115990fc405ce78459a213a8f&#45;&gt;dir_aebb8dcc11953d78e620bbef0b9e2183 -->
<g id="edge3" class="edge">
<title>dir_b953371115990fc405ce78459a213a8f&#45;&gt;dir_aebb8dcc11953d78e620bbef0b9e2183</title>
<path fill="none" stroke="black" d="M102.31,-90C104.77,-90 107.22,-90 109.68,-90"/>
<polygon fill="black" stroke="black" points="109.77,-93.5 119.77,-90 109.77,-86.5 109.77,-93.5"/>
<g id="a_edge3&#45;headlabel"><a xlink:href="dir_000002_000003.html" target="_top" xlink:title="2">
<text text-anchor="middle" x="106.17" y="-93.84" font-family="Helvetica,sans-Serif" font-size="10.00">2</text>
</a>
</g>
</g>
<!-- dir_ece17dd07d1079ae5da4fc1d5e1e51e1 -->
<g id="node3" class="node">
<title>dir_ece17dd07d1079ae5da4fc1d5e1e51e1</title>
<g id="a_node3"><a xlink:href="dir_ece17dd07d1079ae5da4fc1d5e1e51e1.html" target="_top" xlink:title="number_theory">
<polygon fill="none" stroke="black" points="192.5,-36 101.5,-36 101.5,0 192.5,0 192.5,-36"/>
<text text-anchor="middle" x="147" y="-15.5" font-family="Helvetica,sans-Serif" font-size="10.00">number_theory</text>
</a>
</g>
</g>
<!-- dir_b953371115990fc405ce78459a213a8f&#45;&gt;dir_ece17dd07d1079ae5da4fc1d5e1e51e1 -->
<g id="edge4" class="edge">
<title>dir_b953371115990fc405ce78459a213a8f&#45;&gt;dir_ece17dd07d1079ae5da4fc1d5e1e51e1</title>
<path fill="none" stroke="black" d="M80.75,-71.7C91.84,-62.88 105.47,-52.03 117.49,-42.47"/>
<polygon fill="black" stroke="black" points="119.85,-45.07 125.5,-36.1 115.49,-39.59 119.85,-45.07"/>
<g id="a_edge4&#45;headlabel"><a xlink:href="dir_000002_000007.html" target="_top" xlink:title="1">
<text text-anchor="middle" x="118.8" y="-47.03" font-family="Helvetica,sans-Serif" font-size="10.00">1</text>
</a>
</g>
</g>
<!-- dir_aebb8dcc11953d78e620bbef0b9e2183&#45;&gt;dir_b953371115990fc405ce78459a213a8f -->
<g id="edge1" class="edge">
<title>dir_aebb8dcc11953d78e620bbef0b9e2183&#45;&gt;dir_b953371115990fc405ce78459a213a8f</title>
<path fill="none" stroke="black" d="M119.77,-90C117.31,-90 114.86,-90 112.4,-90"/>
<polygon fill="black" stroke="black" points="112.31,-86.5 102.31,-90 112.31,-93.5 112.31,-86.5"/>
<g id="a_edge1&#45;headlabel"><a xlink:href="dir_000003_000002.html" target="_top" xlink:title="2">
<text text-anchor="middle" x="115.91" y="-81.16" font-family="Helvetica,sans-Serif" font-size="10.00">2</text>
</a>
</g>
</g>
<!-- dir_aebb8dcc11953d78e620bbef0b9e2183&#45;&gt;dir_ece17dd07d1079ae5da4fc1d5e1e51e1 -->
<g id="edge2" class="edge">
<title>dir_aebb8dcc11953d78e620bbef0b9e2183&#45;&gt;dir_ece17dd07d1079ae5da4fc1d5e1e51e1</title>
<path fill="none" stroke="black" d="M141.08,-71.7C140.29,-63.98 140.06,-54.71 140.4,-46.11"/>
<polygon fill="black" stroke="black" points="143.9,-46.32 141.1,-36.1 136.92,-45.84 143.9,-46.32"/>
<g id="a_edge2&#45;headlabel"><a xlink:href="dir_000003_000007.html" target="_top" xlink:title="2">
<text text-anchor="middle" x="146.48" y="-47.61" font-family="Helvetica,sans-Serif" font-size="10.00">2</text>
</a>
</g>
</g>
<!-- dir_ece17dd07d1079ae5da4fc1d5e1e51e1&#45;&gt;dir_aebb8dcc11953d78e620bbef0b9e2183 -->
<g id="edge5" class="edge">
<title>dir_ece17dd07d1079ae5da4fc1d5e1e51e1&#45;&gt;dir_aebb8dcc11953d78e620bbef0b9e2183</title>
<path fill="none" stroke="black" d="M152.9,-36.1C153.7,-43.79 153.94,-53.05 153.6,-61.67"/>
<polygon fill="black" stroke="black" points="150.11,-61.48 152.92,-71.7 157.09,-61.96 150.11,-61.48"/>
<g id="a_edge5&#45;headlabel"><a xlink:href="dir_000007_000003.html" target="_top" xlink:title="2">
<text text-anchor="middle" x="147.52" y="-55.2" font-family="Helvetica,sans-Serif" font-size="10.00">2</text>
</a>
</g>
</g>
</g>
</svg>
