<?xml version="1.0" encoding="UTF-8" standalone="no"?>
<!DOCTYPE svg PUBLIC "-//W3C//DTD SVG 1.1//EN"
 "http://www.w3.org/Graphics/SVG/1.1/DTD/svg11.dtd">
<!-- Generated by graphviz version 2.43.0 (0)
 -->
<!-- Title: /home/ram/OmniTemplate/src/string Pages: 1 -->
<svg width="173pt" height="223pt"
 viewBox="0.00 0.00 172.50 223.00" xmlns="http://www.w3.org/2000/svg" xmlns:xlink="http://www.w3.org/1999/xlink">
<g id="graph0" class="graph" transform="scale(1 1) rotate(0) translate(4 219)">
<title>/home/ram/OmniTemplate/src/string</title>
<polygon fill="white" stroke="transparent" points="-4,4 -4,-219 168.5,-219 168.5,4 -4,4"/>
<g id="clust1" class="cluster">
<title>clusterdir_68267d1309a1af8e8297ef4c3efbcdba</title>
<g id="a_clust1"><a xlink:href="dir_68267d1309a1af8e8297ef4c3efbcdba.html" target="_top" xlink:title="src">
<polygon fill="#ddddee" stroke="black" points="8,-136 8,-207 78,-207 78,-136 8,-136"/>
<text text-anchor="middle" x="43" y="-195" font-family="Helvetica,sans-Serif" font-size="10.00">src</text>
</a>
</g>
</g>
<!-- dir_6cc8961f7f77054fb84f95c9f23f5ca0 -->
<g id="node1" class="node">
<title>dir_6cc8961f7f77054fb84f95c9f23f5ca0</title>
<g id="a_node1"><a xlink:href="dir_6cc8961f7f77054fb84f95c9f23f5ca0.html" target="_top" xlink:title="string">
<polygon fill="#eeeeff" stroke="black" points="70,-180 16,-180 16,-144 70,-144 70,-180"/>
<text text-anchor="middle" x="43" y="-159.5" font-family="Helvetica,sans-Serif" font-size="10.00">string</text>
</a>
</g>
</g>
<!-- dir_aebb8dcc11953d78e620bbef0b9e2183 -->
<g id="node2" class="node">
<title>dir_aebb8dcc11953d78e620bbef0b9e2183</title>
<g id="a_node2"><a xlink:href="dir_aebb8dcc11953d78e620bbef0b9e2183.html" target="_top" xlink:title="core">
<polygon fill="none" stroke="black" points="142,-180 88,-180 88,-144 142,-144 142,-180"/>
<text text-anchor="middle" x="115" y="-159.5" font-family="Helvetica,sans-Serif" font-size="10.00">core</text>
</a>
</g>
</g>
<!-- dir_6cc8961f7f77054fb84f95c9f23f5ca0&#45;&gt;dir_aebb8dcc11953d78e620bbef0b9e2183 -->
<g id="edge1" class="edge">
<title>dir_6cc8961f7f77054fb84f95c9f23f5ca0&#45;&gt;dir_aebb8dcc11953d78e620bbef0b9e2183</title>
<path fill="none" stroke="black" d="M70.28,-162C72.74,-162 75.19,-162 77.65,-162"/>
<polygon fill="black" stroke="black" points="77.75,-165.5 87.75,-162 77.75,-158.5 77.75,-165.5"/>
<g id="a_edge1&#45;headlabel"><a xlink:href="dir_000008_000003.html" target="_top" xlink:title="3">
<text text-anchor="middle" x="74.15" y="-165.84" font-family="Helvetica,sans-Serif" font-size="10.00">3</text>
</a>
</g>
</g>
<!-- dir_b953371115990fc405ce78459a213a8f -->
<g id="node3" class="node">
<title>dir_b953371115990fc405ce78459a213a8f</title>
<g id="a_node3"><a xlink:href="dir_b953371115990fc405ce78459a213a8f.html" target="_top" xlink:title="combinatorics">
<polygon fill="none" stroke="black" points="122,-108 36,-108 36,-72 122,-72 122,-108"/>
<text text-anchor="middle" x="79" y="-87.5" font-family="Helvetica,sans-Serif" font-size="10.00">combinatorics</text>
</a>
</g>
</g>
<!-- dir_6cc8961f7f77054fb84f95c9f23f5ca0&#45;&gt;dir_b953371115990fc405ce78459a213a8f -->
<g id="edge2" class="edge">
<title>dir_6cc8961f7f77054fb84f95c9f23f5ca0&#45;&gt;dir_b953371115990fc405ce78459a213a8f</title>
<path fill="none" stroke="black" d="M51.9,-143.7C56,-135.73 60.95,-126.1 65.49,-117.26"/>
<polygon fill="black" stroke="black" points="68.74,-118.6 70.2,-108.1 62.52,-115.4 68.74,-118.6"/>
<g id="a_edge2&#45;headlabel"><a xlink:href="dir_000008_000002.html" target="_top" xlink:title="1">
<text text-anchor="middle" x="69.62" y="-120.59" font-family="Helvetica,sans-Serif" font-size="10.00">1</text>
</a>
</g>
</g>
<!-- dir_ece17dd07d1079ae5da4fc1d5e1e51e1 -->
<g id="node4" class="node">
<title>dir_ece17dd07d1079ae5da4fc1d5e1e51e1</title>
<g id="a_node4"><a xlink:href="dir_ece17dd07d1079ae5da4fc1d5e1e51e1.html" target="_top" xlink:title="number_theory">
<polygon fill="none" stroke="black" points="164.5,-36 73.5,-36 73.5,0 164.5,0 164.5,-36"/>
<text text-anchor="middle" x="119" y="-15.5" font-family="Helvetica,sans-Serif" font-size="10.00">number_theory</text>
</a>
</g>
</g>
<!-- dir_6cc8961f7f77054fb84f95c9f23f5ca0&#45;&gt;dir_ece17dd07d1079ae5da4fc1d5e1e51e1 -->
<g id="edge3" class="edge">
<title>dir_6cc8961f7f77054fb84f95c9f23f5ca0&#45;&gt;dir_ece17dd07d1079ae5da4fc1d5e1e51e1</title>
<path fill="none" stroke="black" d="M33.46,-143.76C24.43,-124.92 14.04,-94.43 27,-72 35.4,-57.46 49.47,-46.56 64.12,-38.55"/>
<polygon fill="black" stroke="black" points="65.92,-41.56 73.26,-33.92 62.76,-35.31 65.92,-41.56"/>
<g id="a_edge3&#45;headlabel"><a xlink:href="dir_000008_000007.html" target="_top" xlink:title="2">
<text text-anchor="middle" x="63.99" y="-43.21" font-family="Helvetica,sans-Serif" font-size="10.00">2</text>
</a>
</g>
</g>
<!-- dir_aebb8dcc11953d78e620bbef0b9e2183&#45;&gt;dir_6cc8961f7f77054fb84f95c9f23f5ca0 -->
<g id="edge4" class="edge">
<title>dir_aebb8dcc11953d78e620bbef0b9e2183&#45;&gt;dir_6cc8961f7f77054fb84f95c9f23f5ca0</title>
<path fill="none" stroke="black" d="M87.75,-162C85.29,-162 82.84,-162 80.38,-162"/>
<polygon fill="black" stroke="black" points="80.28,-158.5 70.28,-162 80.28,-165.5 80.28,-158.5"/>
<g id="a_edge4&#45;headlabel"><a xlink:href="dir_000003_000008.html" target="_top" xlink:title="1">
<text text-anchor="middle" x="83.88" y="-153.16" font-family="Helvetica,sans-Serif" font-size="10.00">1</text>
</a>
</g>
</g>
<!-- dir_aebb8dcc11953d78e620bbef0b9e2183&#45;&gt;dir_b953371115990fc405ce78459a213a8f -->
<g id="edge5" class="edge">
<title>dir_aebb8dcc11953d78e620bbef0b9e2183&#45;&gt;dir_b953371115990fc405ce78459a213a8f</title>
<path fill="none" stroke="black" d="M100.19,-143.7C95.27,-135.73 90.1,-126.1 85.95,-117.26"/>
<polygon fill="black" stroke="black" points="89.14,-115.84 81.9,-108.1 82.74,-118.67 89.14,-115.84"/>
<g id="a_edge5&#45;headlabel"><a xlink:href="dir_000003_000002.html" target="_top" xlink:title="2">
<text text-anchor="middle" x="93.19" y="-115.48" font-family="Helvetica,sans-Serif" font-size="10.00">2</text>
</a>
</g>
</g>
<!-- dir_aebb8dcc11953d78e620bbef0b9e2183&#45;&gt;dir_ece17dd07d1079ae5da4fc1d5e1e51e1 -->
<g id="edge6" class="edge">
<title>dir_aebb8dcc11953d78e620bbef0b9e2183&#45;&gt;dir_ece17dd07d1079ae5da4fc1d5e1e51e1</title>
<path fill="none" stroke="black" d="M113.78,-143.63C116.2,-133.42 120.2,-120.17 122,-108 125.06,-87.31 121.61,-63.86 118.94,-46.23"/>
<polygon fill="black" stroke="black" points="122.36,-45.46 117.44,-36.08 115.44,-46.48 122.36,-45.46"/>
<g id="a_edge6&#45;headlabel"><a xlink:href="dir_000003_000007.html" target="_top" xlink:title="2">
<text text-anchor="middle" x="125.7" y="-46.1" font-family="Helvetica,sans-Serif" font-size="10.00">2</text>
</a>
</g>
</g>
<!-- dir_b953371115990fc405ce78459a213a8f&#45;&gt;dir_aebb8dcc11953d78e620bbef0b9e2183 -->
<g id="edge7" class="edge">
<title>dir_b953371115990fc405ce78459a213a8f&#45;&gt;dir_aebb8dcc11953d78e620bbef0b9e2183</title>
<path fill="none" stroke="black" d="M93.69,-108.1C98.61,-116.04 103.78,-125.67 107.95,-134.51"/>
<polygon fill="black" stroke="black" points="104.77,-135.97 112.02,-143.7 111.17,-133.14 104.77,-135.97"/>
<g id="a_edge7&#45;headlabel"><a xlink:href="dir_000002_000003.html" target="_top" xlink:title="2">
<text text-anchor="middle" x="100.71" y="-131.34" font-family="Helvetica,sans-Serif" font-size="10.00">2</text>
</a>
</g>
</g>
<!-- dir_b953371115990fc405ce78459a213a8f&#45;&gt;dir_ece17dd07d1079ae5da4fc1d5e1e51e1 -->
<g id="edge8" class="edge">
<title>dir_b953371115990fc405ce78459a213a8f&#45;&gt;dir_ece17dd07d1079ae5da4fc1d5e1e51e1</title>
<path fill="none" stroke="black" d="M88.89,-71.7C93.49,-63.64 99.06,-53.89 104.15,-44.98"/>
<polygon fill="black" stroke="black" points="107.3,-46.52 109.23,-36.1 101.23,-43.05 107.3,-46.52"/>
<g id="a_edge8&#45;headlabel"><a xlink:href="dir_000002_000007.html" target="_top" xlink:title="1">
<text text-anchor="middle" x="107.99" y="-48.55" font-family="Helvetica,sans-Serif" font-size="10.00">1</text>
</a>
</g>
</g>
<!-- dir_ece17dd07d1079ae5da4fc1d5e1e51e1&#45;&gt;dir_aebb8dcc11953d78e620bbef0b9e2183 -->
<g id="edge9" class="edge">
<title>dir_ece17dd07d1079ae5da4fc1d5e1e51e1&#45;&gt;dir_aebb8dcc11953d78e620bbef0b9e2183</title>
<path fill="none" stroke="black" d="M130.88,-36.08C137.9,-54.01 143.69,-83.01 140,-108 138.72,-116.65 136.33,-125.85 133.38,-134.11"/>
<polygon fill="black" stroke="black" points="130.03,-133.05 129.53,-143.63 136.52,-135.67 130.03,-133.05"/>
<g id="a_edge9&#45;headlabel"><a xlink:href="dir_000007_000003.html" target="_top" xlink:title="2">
<text text-anchor="middle" x="128.75" y="-126.15" font-family="Helvetica,sans-Serif" font-size="10.00">2</text>
</a>
</g>
</g>
</g>
</svg>
