<?xml version="1.0" encoding="UTF-8" standalone="no"?>
<!DOCTYPE svg PUBLIC "-//W3C//DTD SVG 1.1//EN"
 "http://www.w3.org/Graphics/SVG/1.1/DTD/svg11.dtd">
<!-- Generated by graphviz version 2.43.0 (0)
 -->
<!-- Title: /home/ram/OmniTemplate/src/graph Pages: 1 -->
<svg width="222pt" height="303pt"
 viewBox="0.00 0.00 222.10 303.00" xmlns="http://www.w3.org/2000/svg" xmlns:xlink="http://www.w3.org/1999/xlink">
<g id="graph0" class="graph" transform="scale(1 1) rotate(0) translate(4 299)">
<title>/home/ram/OmniTemplate/src/graph</title>
<polygon fill="white" stroke="transparent" points="-4,4 -4,-299 218.1,-299 218.1,4 -4,4"/>
<g id="clust1" class="cluster">
<title>clusterdir_68267d1309a1af8e8297ef4c3efbcdba</title>
<g id="a_clust1"><a xlink:href="dir_68267d1309a1af8e8297ef4c3efbcdba.html" target="_top" xlink:title="src">
<polygon fill="#ddddee" stroke="black" points="8,-128 8,-287 94,-287 94,-128 8,-128"/>
<text text-anchor="middle" x="51" y="-275" font-family="Helvetica,sans-Serif" font-size="10.00">src</text>
</a>
</g>
</g>
<g id="clust2" class="cluster">
<title>clusterdir_d182250f0c231765fc862e69db210731</title>
<g id="a_clust2"><a xlink:href="dir_d182250f0c231765fc862e69db210731.html" target="_top">
<polygon fill="#eeeeff" stroke="black" points="16,-136 16,-260 86,-260 86,-136 16,-136"/>
</a>
</g>
</g>
<!-- dir_d182250f0c231765fc862e69db210731 -->
<g id="node1" class="node">
<title>dir_d182250f0c231765fc862e69db210731</title>
<text text-anchor="middle" x="51" y="-231.5" font-family="Helvetica,sans-Serif" font-size="10.00">graph</text>
</g>
<!-- dir_1cc959f3490ebc60f7bf96b14f24e883 -->
<g id="node2" class="node">
<title>dir_1cc959f3490ebc60f7bf96b14f24e883</title>
<g id="a_node2"><a xlink:href="dir_1cc959f3490ebc60f7bf96b14f24e883.html" target="_top" xlink:title="tree">
<polygon fill="white" stroke="black" points="78,-180 24,-180 24,-144 78,-144 78,-180"/>
<text text-anchor="middle" x="51" y="-159.5" font-family="Helvetica,sans-Serif" font-size="10.00">tree</text>
</a>
</g>
</g>
<!-- dir_d182250f0c231765fc862e69db210731&#45;&gt;dir_1cc959f3490ebc60f7bf96b14f24e883 -->
<g id="edge3" class="edge">
<title>dir_d182250f0c231765fc862e69db210731&#45;&gt;dir_1cc959f3490ebc60f7bf96b14f24e883</title>
<path fill="none" stroke="black" d="M51,-215.7C51,-207.98 51,-198.71 51,-190.11"/>
<polygon fill="black" stroke="black" points="54.5,-190.1 51,-180.1 47.5,-190.1 54.5,-190.1"/>
<g id="a_edge3&#45;headlabel"><a xlink:href="dir_000004_000006.html" target="_top" xlink:title="2">
<text text-anchor="middle" x="57.34" y="-191.2" font-family="Helvetica,sans-Serif" font-size="10.00">2</text>
</a>
</g>
</g>
<!-- dir_122f4add68bb94b3fee614989bbbd8f9 -->
<g id="node3" class="node">
<title>dir_122f4add68bb94b3fee614989bbbd8f9</title>
<g id="a_node3"><a xlink:href="dir_122f4add68bb94b3fee614989bbbd8f9.html" target="_top" xlink:title="ds">
<polygon fill="none" stroke="black" points="156,-180 102,-180 102,-144 156,-144 156,-180"/>
<text text-anchor="middle" x="129" y="-159.5" font-family="Helvetica,sans-Serif" font-size="10.00">ds</text>
</a>
</g>
</g>
<!-- dir_d182250f0c231765fc862e69db210731&#45;&gt;dir_122f4add68bb94b3fee614989bbbd8f9 -->
<g id="edge2" class="edge">
<title>dir_d182250f0c231765fc862e69db210731&#45;&gt;dir_122f4add68bb94b3fee614989bbbd8f9</title>
<path fill="none" stroke="black" d="M70.28,-215.7C79.92,-207.05 91.73,-196.45 102.23,-187.03"/>
<polygon fill="black" stroke="black" points="104.84,-189.39 109.94,-180.1 100.16,-184.18 104.84,-189.39"/>
<g id="a_edge2&#45;headlabel"><a xlink:href="dir_000004_000005.html" target="_top" xlink:title="3">
<text text-anchor="middle" x="104.06" y="-191.4" font-family="Helvetica,sans-Serif" font-size="10.00">3</text>
</a>
</g>
</g>
<!-- dir_aebb8dcc11953d78e620bbef0b9e2183 -->
<g id="node4" class="node">
<title>dir_aebb8dcc11953d78e620bbef0b9e2183</title>
<g id="a_node4"><a xlink:href="dir_aebb8dcc11953d78e620bbef0b9e2183.html" target="_top" xlink:title="core">
<polygon fill="none" stroke="black" points="184,-108 130,-108 130,-72 184,-72 184,-108"/>
<text text-anchor="middle" x="157" y="-87.5" font-family="Helvetica,sans-Serif" font-size="10.00">core</text>
</a>
</g>
</g>
<!-- dir_d182250f0c231765fc862e69db210731&#45;&gt;dir_aebb8dcc11953d78e620bbef0b9e2183 -->
<g id="edge4" class="edge">
<title>dir_d182250f0c231765fc862e69db210731&#45;&gt;dir_aebb8dcc11953d78e620bbef0b9e2183</title>
<path fill="none" stroke="black" d="M78.13,-228.87C105.38,-223.12 145.98,-209.81 165,-180 176.69,-161.68 173.19,-136.77 167.63,-117.96"/>
<polygon fill="black" stroke="black" points="170.87,-116.61 164.41,-108.22 164.22,-118.81 170.87,-116.61"/>
<g id="a_edge4&#45;headlabel"><a xlink:href="dir_000004_000003.html" target="_top" xlink:title="10">
<text text-anchor="middle" x="174.69" y="-116.63" font-family="Helvetica,sans-Serif" font-size="10.00">10</text>
</a>
</g>
</g>
<!-- dir_086a664662017844fa76bd8f66ac71cd -->
<g id="node5" class="node">
<title>dir_086a664662017844fa76bd8f66ac71cd</title>
<g id="a_node5"><a xlink:href="dir_086a664662017844fa76bd8f66ac71cd.html" target="_top" xlink:title="algebra">
<polygon fill="none" stroke="black" points="184,-36 130,-36 130,0 184,0 184,-36"/>
<text text-anchor="middle" x="157" y="-15.5" font-family="Helvetica,sans-Serif" font-size="10.00">algebra</text>
</a>
</g>
</g>
<!-- dir_d182250f0c231765fc862e69db210731&#45;&gt;dir_086a664662017844fa76bd8f66ac71cd -->
<g id="edge5" class="edge">
<title>dir_d182250f0c231765fc862e69db210731&#45;&gt;dir_086a664662017844fa76bd8f66ac71cd</title>
<path fill="none" stroke="black" d="M78.11,-232.15C112.78,-229.42 171.58,-218.94 199,-180 226.68,-140.69 209.56,-117.13 193,-72 189.47,-62.39 183.83,-52.84 178.05,-44.55"/>
<polygon fill="black" stroke="black" points="180.8,-42.39 172.05,-36.41 175.17,-46.54 180.8,-42.39"/>
<g id="a_edge5&#45;headlabel"><a xlink:href="dir_000004_000001.html" target="_top" xlink:title="2">
<text text-anchor="middle" x="185.22" y="-41.1" font-family="Helvetica,sans-Serif" font-size="10.00">2</text>
</a>
</g>
</g>
<!-- dir_1cc959f3490ebc60f7bf96b14f24e883&#45;&gt;dir_122f4add68bb94b3fee614989bbbd8f9 -->
<g id="edge6" class="edge">
<title>dir_1cc959f3490ebc60f7bf96b14f24e883&#45;&gt;dir_122f4add68bb94b3fee614989bbbd8f9</title>
<path fill="none" stroke="black" d="M78.12,-162C82.71,-162 87.31,-162 91.91,-162"/>
<polygon fill="black" stroke="black" points="91.97,-165.5 101.97,-162 91.97,-158.5 91.97,-165.5"/>
<g id="a_edge6&#45;headlabel"><a xlink:href="dir_000006_000005.html" target="_top" xlink:title="2">
<text text-anchor="middle" x="88.37" y="-165.84" font-family="Helvetica,sans-Serif" font-size="10.00">2</text>
</a>
</g>
</g>
<!-- dir_1cc959f3490ebc60f7bf96b14f24e883&#45;&gt;dir_aebb8dcc11953d78e620bbef0b9e2183 -->
<g id="edge7" class="edge">
<title>dir_1cc959f3490ebc60f7bf96b14f24e883&#45;&gt;dir_aebb8dcc11953d78e620bbef0b9e2183</title>
<path fill="none" stroke="black" d="M62.94,-143.95C69.2,-138.63 76.78,-132.89 84,-128 95.52,-120.2 108.75,-112.38 120.87,-105.94"/>
<polygon fill="black" stroke="black" points="122.58,-109 129.87,-101.32 119.38,-102.77 122.58,-109"/>
<g id="a_edge7&#45;headlabel"><a xlink:href="dir_000006_000003.html" target="_top" xlink:title="4">
<text text-anchor="middle" x="120.68" y="-110.67" font-family="Helvetica,sans-Serif" font-size="10.00">4</text>
</a>
</g>
</g>
<!-- dir_122f4add68bb94b3fee614989bbbd8f9&#45;&gt;dir_aebb8dcc11953d78e620bbef0b9e2183 -->
<g id="edge1" class="edge">
<title>dir_122f4add68bb94b3fee614989bbbd8f9&#45;&gt;dir_aebb8dcc11953d78e620bbef0b9e2183</title>
<path fill="none" stroke="black" d="M130.01,-143.7C132.37,-135.73 136.01,-126.1 139.93,-117.26"/>
<polygon fill="black" stroke="black" points="143.16,-118.64 144.26,-108.1 136.83,-115.65 143.16,-118.64"/>
<g id="a_edge1&#45;headlabel"><a xlink:href="dir_000005_000003.html" target="_top" xlink:title="10">
<text text-anchor="middle" x="144.19" y="-120.6" font-family="Helvetica,sans-Serif" font-size="10.00">10</text>
</a>
</g>
</g>
<!-- dir_aebb8dcc11953d78e620bbef0b9e2183&#45;&gt;dir_d182250f0c231765fc862e69db210731 -->
<g id="edge9" class="edge">
<title>dir_aebb8dcc11953d78e620bbef0b9e2183&#45;&gt;dir_d182250f0c231765fc862e69db210731</title>
<path fill="none" stroke="black" d="M171.8,-108.33C175.93,-114.19 179.87,-121.03 182,-128 188.77,-150.1 194.92,-160.84 182,-180 161.18,-210.89 118.97,-223.78 88.07,-229.16"/>
<polygon fill="black" stroke="black" points="87.42,-225.72 78.08,-230.71 88.49,-232.63 87.42,-225.72"/>
<g id="a_edge9&#45;headlabel"><a xlink:href="dir_000003_000004.html" target="_top" xlink:title="5">
<text text-anchor="middle" x="90.54" y="-219.86" font-family="Helvetica,sans-Serif" font-size="10.00">5</text>
</a>
</g>
</g>
<!-- dir_aebb8dcc11953d78e620bbef0b9e2183&#45;&gt;dir_1cc959f3490ebc60f7bf96b14f24e883 -->
<g id="edge10" class="edge">
<title>dir_aebb8dcc11953d78e620bbef0b9e2183&#45;&gt;dir_1cc959f3490ebc60f7bf96b14f24e883</title>
<path fill="none" stroke="black" d="M134.04,-108.01C123.99,-114.02 112.31,-121.02 102,-128 96.86,-131.48 91.54,-135.4 86.32,-139.28"/>
<polygon fill="black" stroke="black" points="84.17,-136.52 78.24,-145.3 88.35,-142.13 84.17,-136.52"/>
<g id="a_edge10&#45;headlabel"><a xlink:href="dir_000003_000006.html" target="_top" xlink:title="3">
<text text-anchor="middle" x="85.35" y="-129.59" font-family="Helvetica,sans-Serif" font-size="10.00">3</text>
</a>
</g>
</g>
<!-- dir_aebb8dcc11953d78e620bbef0b9e2183&#45;&gt;dir_122f4add68bb94b3fee614989bbbd8f9 -->
<g id="edge8" class="edge">
<title>dir_aebb8dcc11953d78e620bbef0b9e2183&#45;&gt;dir_122f4add68bb94b3fee614989bbbd8f9</title>
<path fill="none" stroke="black" d="M156.05,-108.1C153.71,-116.04 150.09,-125.67 146.16,-134.51"/>
<polygon fill="black" stroke="black" points="142.93,-133.16 141.84,-143.7 149.27,-136.14 142.93,-133.16"/>
<g id="a_edge8&#45;headlabel"><a xlink:href="dir_000003_000005.html" target="_top" xlink:title="9">
<text text-anchor="middle" x="141.9" y="-126.2" font-family="Helvetica,sans-Serif" font-size="10.00">9</text>
</a>
</g>
</g>
<!-- dir_aebb8dcc11953d78e620bbef0b9e2183&#45;&gt;dir_086a664662017844fa76bd8f66ac71cd -->
<g id="edge11" class="edge">
<title>dir_aebb8dcc11953d78e620bbef0b9e2183&#45;&gt;dir_086a664662017844fa76bd8f66ac71cd</title>
<path fill="none" stroke="black" d="M151.08,-71.7C150.29,-63.98 150.06,-54.71 150.4,-46.11"/>
<polygon fill="black" stroke="black" points="153.9,-46.32 151.1,-36.1 146.92,-45.84 153.9,-46.32"/>
<g id="a_edge11&#45;headlabel"><a xlink:href="dir_000003_000001.html" target="_top" xlink:title="4">
<text text-anchor="middle" x="156.48" y="-47.61" font-family="Helvetica,sans-Serif" font-size="10.00">4</text>
</a>
</g>
</g>
<!-- dir_086a664662017844fa76bd8f66ac71cd&#45;&gt;dir_aebb8dcc11953d78e620bbef0b9e2183 -->
<g id="edge12" class="edge">
<title>dir_086a664662017844fa76bd8f66ac71cd&#45;&gt;dir_aebb8dcc11953d78e620bbef0b9e2183</title>
<path fill="none" stroke="black" d="M162.9,-36.1C163.7,-43.79 163.94,-53.05 163.6,-61.67"/>
<polygon fill="black" stroke="black" points="160.11,-61.48 162.92,-71.7 167.09,-61.96 160.11,-61.48"/>
<g id="a_edge12&#45;headlabel"><a xlink:href="dir_000001_000003.html" target="_top" xlink:title="4">
<text text-anchor="middle" x="157.52" y="-55.2" font-family="Helvetica,sans-Serif" font-size="10.00">4</text>
</a>
</g>
</g>
</g>
</svg>
