<?xml version="1.0" encoding="UTF-8" standalone="no"?>
<!DOCTYPE svg PUBLIC "-//W3C//DTD SVG 1.1//EN"
 "http://www.w3.org/Graphics/SVG/1.1/DTD/svg11.dtd">
<!-- Generated by graphviz version 2.43.0 (0)
 -->
<!-- Title: /home/ram/OmniTemplate/src/test Pages: 1 -->
<svg width="528pt" height="511pt"
 viewBox="0.00 0.00 528.00 511.00" xmlns="http://www.w3.org/2000/svg" xmlns:xlink="http://www.w3.org/1999/xlink">
<g id="graph0" class="graph" transform="scale(1 1) rotate(0) translate(4 507)">
<title>/home/ram/OmniTemplate/src/test</title>
<polygon fill="white" stroke="transparent" points="-4,4 -4,-507 524,-507 524,4 -4,4"/>
<g id="clust1" class="cluster">
<title>clusterdir_68267d1309a1af8e8297ef4c3efbcdba</title>
<g id="a_clust1"><a xlink:href="dir_68267d1309a1af8e8297ef4c3efbcdba.html" xlink:title="src">
<polygon fill="#ddddee" stroke="black" points="269,-424 269,-495 339,-495 339,-424 269,-424"/>
<text text-anchor="middle" x="304" y="-483" font-family="Helvetica,sans-Serif" font-size="10.00">src</text>
</a>
</g>
</g>
<!-- dir_120ed4da3e3217b1e7fc0b4f48568e79 -->
<g id="node1" class="node">
<title>dir_120ed4da3e3217b1e7fc0b4f48568e79</title>
<g id="a_node1"><a xlink:href="dir_120ed4da3e3217b1e7fc0b4f48568e79.html" xlink:title="test">
<polygon fill="#eeeeff" stroke="black" points="331,-468 277,-468 277,-432 331,-432 331,-468"/>
<text text-anchor="middle" x="304" y="-447.5" font-family="Helvetica,sans-Serif" font-size="10.00">test</text>
</a>
</g>
</g>
<!-- dir_122f4add68bb94b3fee614989bbbd8f9 -->
<g id="node2" class="node">
<title>dir_122f4add68bb94b3fee614989bbbd8f9</title>
<g id="a_node2"><a xlink:href="dir_122f4add68bb94b3fee614989bbbd8f9.html" xlink:title="ds">
<polygon fill="none" stroke="black" points="406,-396 352,-396 352,-360 406,-360 406,-396"/>
<text text-anchor="middle" x="379" y="-375.5" font-family="Helvetica,sans-Serif" font-size="10.00">ds</text>
</a>
</g>
</g>
<!-- dir_120ed4da3e3217b1e7fc0b4f48568e79&#45;&gt;dir_122f4add68bb94b3fee614989bbbd8f9 -->
<g id="edge6" class="edge">
<title>dir_120ed4da3e3217b1e7fc0b4f48568e79&#45;&gt;dir_122f4add68bb94b3fee614989bbbd8f9</title>
<path fill="none" stroke="black" d="M322.54,-431.7C331.8,-423.05 343.16,-412.45 353.26,-403.03"/>
<polygon fill="black" stroke="black" points="355.75,-405.49 360.67,-396.1 350.98,-400.37 355.75,-405.49"/>
<g id="a_edge6&#45;headlabel"><a xlink:href="dir_000009_000005.html" xlink:title="7">
<text text-anchor="middle" x="355.06" y="-407.51" font-family="Helvetica,sans-Serif" font-size="10.00">7</text>
</a>
</g>
</g>
<!-- dir_d182250f0c231765fc862e69db210731 -->
<g id="node3" class="node">
<title>dir_d182250f0c231765fc862e69db210731</title>
<g id="a_node3"><a xlink:href="dir_d182250f0c231765fc862e69db210731.html" xlink:title="graph">
<polygon fill="white" stroke="red" points="388,-180 334,-180 334,-144 388,-144 388,-180"/>
<text text-anchor="middle" x="361" y="-159.5" font-family="Helvetica,sans-Serif" font-size="10.00">graph</text>
</a>
</g>
</g>
<!-- dir_120ed4da3e3217b1e7fc0b4f48568e79&#45;&gt;dir_d182250f0c231765fc862e69db210731 -->
<g id="edge7" class="edge">
<title>dir_120ed4da3e3217b1e7fc0b4f48568e79&#45;&gt;dir_d182250f0c231765fc862e69db210731</title>
<path fill="none" stroke="black" d="M331.37,-442.94C356.71,-435.91 393.62,-421.82 415,-396 436.11,-370.51 427.93,-356.53 434,-324 442.82,-276.68 464.89,-258.34 442,-216 432.42,-198.29 414.07,-185.55 397.25,-177"/>
<polygon fill="black" stroke="black" points="398.67,-173.8 388.13,-172.68 395.67,-180.13 398.67,-173.8"/>
<g id="a_edge7&#45;headlabel"><a xlink:href="dir_000009_000004.html" xlink:title="6">
<text text-anchor="middle" x="403.13" y="-170.27" font-family="Helvetica,sans-Serif" font-size="10.00">6</text>
</a>
</g>
</g>
<!-- dir_0619a8f54b4fad7043a6de45be8fde0b -->
<g id="node4" class="node">
<title>dir_0619a8f54b4fad7043a6de45be8fde0b</title>
<g id="a_node4"><a xlink:href="dir_0619a8f54b4fad7043a6de45be8fde0b.html" xlink:title="utility">
<polygon fill="none" stroke="black" points="416,-252 362,-252 362,-216 416,-216 416,-252"/>
<text text-anchor="middle" x="389" y="-231.5" font-family="Helvetica,sans-Serif" font-size="10.00">utility</text>
</a>
</g>
</g>
<!-- dir_120ed4da3e3217b1e7fc0b4f48568e79&#45;&gt;dir_0619a8f54b4fad7043a6de45be8fde0b -->
<g id="edge8" class="edge">
<title>dir_120ed4da3e3217b1e7fc0b4f48568e79&#45;&gt;dir_0619a8f54b4fad7043a6de45be8fde0b</title>
<path fill="none" stroke="black" d="M310.81,-431.85C325.61,-394.6 360.77,-306.07 378.46,-261.54"/>
<polygon fill="black" stroke="black" points="381.72,-262.82 382.16,-252.23 375.21,-260.23 381.72,-262.82"/>
<g id="a_edge8&#45;headlabel"><a xlink:href="dir_000009_000010.html" xlink:title="2">
<text text-anchor="middle" x="383.03" y="-264.71" font-family="Helvetica,sans-Serif" font-size="10.00">2</text>
</a>
</g>
</g>
<!-- dir_6cc8961f7f77054fb84f95c9f23f5ca0 -->
<g id="node5" class="node">
<title>dir_6cc8961f7f77054fb84f95c9f23f5ca0</title>
<g id="a_node5"><a xlink:href="dir_6cc8961f7f77054fb84f95c9f23f5ca0.html" xlink:title="string">
<polygon fill="none" stroke="black" points="120,-252 66,-252 66,-216 120,-216 120,-252"/>
<text text-anchor="middle" x="93" y="-231.5" font-family="Helvetica,sans-Serif" font-size="10.00">string</text>
</a>
</g>
</g>
<!-- dir_120ed4da3e3217b1e7fc0b4f48568e79&#45;&gt;dir_6cc8961f7f77054fb84f95c9f23f5ca0 -->
<g id="edge9" class="edge">
<title>dir_120ed4da3e3217b1e7fc0b4f48568e79&#45;&gt;dir_6cc8961f7f77054fb84f95c9f23f5ca0</title>
<path fill="none" stroke="black" d="M287.09,-431.85C249.82,-394.05 160.49,-303.45 117.26,-259.6"/>
<polygon fill="black" stroke="black" points="119.5,-256.9 109.99,-252.23 114.52,-261.81 119.5,-256.9"/>
<g id="a_edge9&#45;headlabel"><a xlink:href="dir_000009_000008.html" xlink:title="3">
<text text-anchor="middle" x="124.05" y="-254.96" font-family="Helvetica,sans-Serif" font-size="10.00">3</text>
</a>
</g>
</g>
<!-- dir_aebb8dcc11953d78e620bbef0b9e2183 -->
<g id="node6" class="node">
<title>dir_aebb8dcc11953d78e620bbef0b9e2183</title>
<g id="a_node6"><a xlink:href="dir_aebb8dcc11953d78e620bbef0b9e2183.html" xlink:title="core">
<polygon fill="none" stroke="black" points="296,-324 242,-324 242,-288 296,-288 296,-324"/>
<text text-anchor="middle" x="269" y="-303.5" font-family="Helvetica,sans-Serif" font-size="10.00">core</text>
</a>
</g>
</g>
<!-- dir_120ed4da3e3217b1e7fc0b4f48568e79&#45;&gt;dir_aebb8dcc11953d78e620bbef0b9e2183 -->
<g id="edge10" class="edge">
<title>dir_120ed4da3e3217b1e7fc0b4f48568e79&#45;&gt;dir_aebb8dcc11953d78e620bbef0b9e2183</title>
<path fill="none" stroke="black" d="M299.78,-431.87C293.79,-407.56 282.76,-362.82 275.66,-334.01"/>
<polygon fill="black" stroke="black" points="279.03,-333.06 273.24,-324.19 272.23,-334.74 279.03,-333.06"/>
<g id="a_edge10&#45;headlabel"><a xlink:href="dir_000009_000003.html" xlink:title="3">
<text text-anchor="middle" x="282.65" y="-333.37" font-family="Helvetica,sans-Serif" font-size="10.00">3</text>
</a>
</g>
</g>
<!-- dir_b953371115990fc405ce78459a213a8f -->
<g id="node7" class="node">
<title>dir_b953371115990fc405ce78459a213a8f</title>
<g id="a_node7"><a xlink:href="dir_b953371115990fc405ce78459a213a8f.html" xlink:title="combinatorics">
<polygon fill="none" stroke="black" points="176,-180 90,-180 90,-144 176,-144 176,-180"/>
<text text-anchor="middle" x="133" y="-159.5" font-family="Helvetica,sans-Serif" font-size="10.00">combinatorics</text>
</a>
</g>
</g>
<!-- dir_120ed4da3e3217b1e7fc0b4f48568e79&#45;&gt;dir_b953371115990fc405ce78459a213a8f -->
<g id="edge11" class="edge">
<title>dir_120ed4da3e3217b1e7fc0b4f48568e79&#45;&gt;dir_b953371115990fc405ce78459a213a8f</title>
<path fill="none" stroke="black" d="M276.76,-437.84C222,-413.64 100.12,-350.48 57,-252 50.58,-237.34 49.6,-230.19 57,-216 63.47,-203.61 74.3,-193.52 85.79,-185.6"/>
<polygon fill="black" stroke="black" points="87.68,-188.55 94.22,-180.22 83.91,-182.65 87.68,-188.55"/>
<g id="a_edge11&#45;headlabel"><a xlink:href="dir_000009_000002.html" xlink:title="2">
<text text-anchor="middle" x="86.18" y="-190.38" font-family="Helvetica,sans-Serif" font-size="10.00">2</text>
</a>
</g>
</g>
<!-- dir_ece17dd07d1079ae5da4fc1d5e1e51e1 -->
<g id="node8" class="node">
<title>dir_ece17dd07d1079ae5da4fc1d5e1e51e1</title>
<g id="a_node8"><a xlink:href="dir_ece17dd07d1079ae5da4fc1d5e1e51e1.html" xlink:title="number_theory">
<polygon fill="none" stroke="black" points="258.5,-36 167.5,-36 167.5,0 258.5,0 258.5,-36"/>
<text text-anchor="middle" x="213" y="-15.5" font-family="Helvetica,sans-Serif" font-size="10.00">number_theory</text>
</a>
</g>
</g>
<!-- dir_120ed4da3e3217b1e7fc0b4f48568e79&#45;&gt;dir_ece17dd07d1079ae5da4fc1d5e1e51e1 -->
<g id="edge12" class="edge">
<title>dir_120ed4da3e3217b1e7fc0b4f48568e79&#45;&gt;dir_ece17dd07d1079ae5da4fc1d5e1e51e1</title>
<path fill="none" stroke="black" d="M276.75,-448.7C202.14,-446.31 0,-428.6 0,-307 0,-307 0,-307 0,-161 0,-85.28 94.35,-47.45 157.46,-30.61"/>
<polygon fill="black" stroke="black" points="158.49,-33.97 167.31,-28.09 156.75,-27.18 158.49,-33.97"/>
<g id="a_edge12&#45;headlabel"><a xlink:href="dir_000009_000007.html" xlink:title="2">
<text text-anchor="middle" x="155.71" y="-35.11" font-family="Helvetica,sans-Serif" font-size="10.00">2</text>
</a>
</g>
</g>
<!-- dir_086a664662017844fa76bd8f66ac71cd -->
<g id="node9" class="node">
<title>dir_086a664662017844fa76bd8f66ac71cd</title>
<g id="a_node9"><a xlink:href="dir_086a664662017844fa76bd8f66ac71cd.html" xlink:title="algebra">
<polygon fill="none" stroke="black" points="304,-108 250,-108 250,-72 304,-72 304,-108"/>
<text text-anchor="middle" x="277" y="-87.5" font-family="Helvetica,sans-Serif" font-size="10.00">algebra</text>
</a>
</g>
</g>
<!-- dir_120ed4da3e3217b1e7fc0b4f48568e79&#45;&gt;dir_086a664662017844fa76bd8f66ac71cd -->
<g id="edge13" class="edge">
<title>dir_120ed4da3e3217b1e7fc0b4f48568e79&#45;&gt;dir_086a664662017844fa76bd8f66ac71cd</title>
<path fill="none" stroke="black" d="M331.09,-445.64C361.27,-440.42 409.31,-427.44 436,-396 488.27,-334.42 489.7,-291.5 461,-216 437.09,-153.11 360.51,-117.93 314.02,-101.87"/>
<polygon fill="black" stroke="black" points="314.9,-98.47 304.3,-98.64 312.69,-105.11 314.9,-98.47"/>
<g id="a_edge13&#45;headlabel"><a xlink:href="dir_000009_000001.html" xlink:title="2">
<text text-anchor="middle" x="319.2" y="-94.41" font-family="Helvetica,sans-Serif" font-size="10.00">2</text>
</a>
</g>
</g>
<!-- dir_122f4add68bb94b3fee614989bbbd8f9&#45;&gt;dir_aebb8dcc11953d78e620bbef0b9e2183 -->
<g id="edge1" class="edge">
<title>dir_122f4add68bb94b3fee614989bbbd8f9&#45;&gt;dir_aebb8dcc11953d78e620bbef0b9e2183</title>
<path fill="none" stroke="black" d="M351.76,-363.17C335.58,-353.69 315.18,-340.89 298.61,-329.9"/>
<polygon fill="black" stroke="black" points="300.11,-326.69 289.86,-324.02 296.21,-332.5 300.11,-326.69"/>
<g id="a_edge1&#45;headlabel"><a xlink:href="dir_000005_000003.html" xlink:title="10">
<text text-anchor="middle" x="304.68" y="-323.84" font-family="Helvetica,sans-Serif" font-size="10.00">10</text>
</a>
</g>
</g>
<!-- dir_122f4add68bb94b3fee614989bbbd8f9&#45;&gt;dir_ece17dd07d1079ae5da4fc1d5e1e51e1 -->
<g id="edge2" class="edge">
<title>dir_122f4add68bb94b3fee614989bbbd8f9&#45;&gt;dir_ece17dd07d1079ae5da4fc1d5e1e51e1</title>
<path fill="none" stroke="black" d="M406.19,-364.79C447.16,-344.32 520,-298.92 520,-235 520,-235 520,-235 520,-161 520,-51.56 357.29,-26.2 268.78,-20.51"/>
<polygon fill="black" stroke="black" points="268.82,-17.01 258.63,-19.92 268.41,-24 268.82,-17.01"/>
<g id="a_edge2&#45;headlabel"><a xlink:href="dir_000005_000007.html" xlink:title="1">
<text text-anchor="middle" x="272.57" y="-11.88" font-family="Helvetica,sans-Serif" font-size="10.00">1</text>
</a>
</g>
</g>
<!-- dir_d182250f0c231765fc862e69db210731&#45;&gt;dir_122f4add68bb94b3fee614989bbbd8f9 -->
<g id="edge3" class="edge">
<title>dir_d182250f0c231765fc862e69db210731&#45;&gt;dir_122f4add68bb94b3fee614989bbbd8f9</title>
<path fill="none" stroke="black" d="M388.1,-177.61C401.89,-186.66 417.33,-199.68 425,-216 446.37,-261.45 417.95,-318.87 397.21,-351.42"/>
<polygon fill="black" stroke="black" points="394.19,-349.63 391.61,-359.91 400.04,-353.49 394.19,-349.63"/>
<g id="a_edge3&#45;headlabel"><a xlink:href="dir_000004_000005.html" xlink:title="4">
<text text-anchor="middle" x="393.8" y="-342.57" font-family="Helvetica,sans-Serif" font-size="10.00">4</text>
</a>
</g>
</g>
<!-- dir_d182250f0c231765fc862e69db210731&#45;&gt;dir_aebb8dcc11953d78e620bbef0b9e2183 -->
<g id="edge4" class="edge">
<title>dir_d182250f0c231765fc862e69db210731&#45;&gt;dir_aebb8dcc11953d78e620bbef0b9e2183</title>
<path fill="none" stroke="black" d="M354.45,-180.19C341.02,-204.96 311.52,-250.86 290.8,-279.56"/>
<polygon fill="black" stroke="black" points="287.79,-277.74 284.68,-287.87 293.43,-281.89 287.79,-277.74"/>
<g id="a_edge4&#45;headlabel"><a xlink:href="dir_000004_000003.html" xlink:title="10">
<text text-anchor="middle" x="287.64" y="-270.67" font-family="Helvetica,sans-Serif" font-size="10.00">10</text>
</a>
</g>
</g>
<!-- dir_d182250f0c231765fc862e69db210731&#45;&gt;dir_086a664662017844fa76bd8f66ac71cd -->
<g id="edge5" class="edge">
<title>dir_d182250f0c231765fc862e69db210731&#45;&gt;dir_086a664662017844fa76bd8f66ac71cd</title>
<path fill="none" stroke="black" d="M340.24,-143.7C329.76,-134.97 316.89,-124.24 305.5,-114.75"/>
<polygon fill="black" stroke="black" points="307.45,-111.82 297.53,-108.1 302.97,-117.19 307.45,-111.82"/>
<g id="a_edge5&#45;headlabel"><a xlink:href="dir_000004_000001.html" xlink:title="3">
<text text-anchor="middle" x="312.03" y="-109.44" font-family="Helvetica,sans-Serif" font-size="10.00">3</text>
</a>
</g>
</g>
<!-- dir_0619a8f54b4fad7043a6de45be8fde0b&#45;&gt;dir_d182250f0c231765fc862e69db210731 -->
<g id="edge14" class="edge">
<title>dir_0619a8f54b4fad7043a6de45be8fde0b&#45;&gt;dir_d182250f0c231765fc862e69db210731</title>
<path fill="none" stroke="black" d="M382.08,-215.7C378.93,-207.81 375.12,-198.3 371.62,-189.55"/>
<polygon fill="black" stroke="black" points="374.81,-188.09 367.84,-180.1 368.31,-190.69 374.81,-188.09"/>
<g id="a_edge14&#45;headlabel"><a xlink:href="dir_000010_000004.html" xlink:title="2">
<text text-anchor="middle" x="378.78" y="-187.87" font-family="Helvetica,sans-Serif" font-size="10.00">2</text>
</a>
</g>
</g>
<!-- dir_0619a8f54b4fad7043a6de45be8fde0b&#45;&gt;dir_aebb8dcc11953d78e620bbef0b9e2183 -->
<g id="edge15" class="edge">
<title>dir_0619a8f54b4fad7043a6de45be8fde0b&#45;&gt;dir_aebb8dcc11953d78e620bbef0b9e2183</title>
<path fill="none" stroke="black" d="M365.64,-252.06C348.38,-262.79 324.72,-276.6 305.06,-287.43"/>
<polygon fill="black" stroke="black" points="303.18,-284.47 296.07,-292.32 306.53,-290.62 303.18,-284.47"/>
<g id="a_edge15&#45;headlabel"><a xlink:href="dir_000010_000003.html" xlink:title="2">
<text text-anchor="middle" x="304.98" y="-277.76" font-family="Helvetica,sans-Serif" font-size="10.00">2</text>
</a>
</g>
</g>
<!-- dir_6cc8961f7f77054fb84f95c9f23f5ca0&#45;&gt;dir_aebb8dcc11953d78e620bbef0b9e2183 -->
<g id="edge16" class="edge">
<title>dir_6cc8961f7f77054fb84f95c9f23f5ca0&#45;&gt;dir_aebb8dcc11953d78e620bbef0b9e2183</title>
<path fill="none" stroke="black" d="M120.18,-242.86C127.72,-245.76 135.71,-249.06 143,-252 173.09,-264.15 207.11,-277.5 232.31,-287.76"/>
<polygon fill="black" stroke="black" points="231.28,-291.12 241.86,-291.67 233.93,-284.64 231.28,-291.12"/>
<g id="a_edge16&#45;headlabel"><a xlink:href="dir_000008_000003.html" xlink:title="3">
<text text-anchor="middle" x="226.87" y="-289.88" font-family="Helvetica,sans-Serif" font-size="10.00">3</text>
</a>
</g>
</g>
<!-- dir_6cc8961f7f77054fb84f95c9f23f5ca0&#45;&gt;dir_b953371115990fc405ce78459a213a8f -->
<g id="edge17" class="edge">
<title>dir_6cc8961f7f77054fb84f95c9f23f5ca0&#45;&gt;dir_b953371115990fc405ce78459a213a8f</title>
<path fill="none" stroke="black" d="M102.89,-215.7C107.49,-207.64 113.06,-197.89 118.15,-188.98"/>
<polygon fill="black" stroke="black" points="121.3,-190.52 123.23,-180.1 115.23,-187.05 121.3,-190.52"/>
<g id="a_edge17&#45;headlabel"><a xlink:href="dir_000008_000002.html" xlink:title="1">
<text text-anchor="middle" x="121.99" y="-192.55" font-family="Helvetica,sans-Serif" font-size="10.00">1</text>
</a>
</g>
</g>
<!-- dir_6cc8961f7f77054fb84f95c9f23f5ca0&#45;&gt;dir_ece17dd07d1079ae5da4fc1d5e1e51e1 -->
<g id="edge18" class="edge">
<title>dir_6cc8961f7f77054fb84f95c9f23f5ca0&#45;&gt;dir_ece17dd07d1079ae5da4fc1d5e1e51e1</title>
<path fill="none" stroke="black" d="M85.55,-215.88C78.66,-197.41 70.89,-167.49 81,-144 100.1,-99.61 143.57,-63.61 175.42,-41.84"/>
<polygon fill="black" stroke="black" points="177.69,-44.53 184.07,-36.08 173.81,-38.71 177.69,-44.53"/>
<g id="a_edge18&#45;headlabel"><a xlink:href="dir_000008_000007.html" xlink:title="2">
<text text-anchor="middle" x="176.27" y="-46.39" font-family="Helvetica,sans-Serif" font-size="10.00">2</text>
</a>
</g>
</g>
<!-- dir_aebb8dcc11953d78e620bbef0b9e2183&#45;&gt;dir_122f4add68bb94b3fee614989bbbd8f9 -->
<g id="edge19" class="edge">
<title>dir_aebb8dcc11953d78e620bbef0b9e2183&#45;&gt;dir_122f4add68bb94b3fee614989bbbd8f9</title>
<path fill="none" stroke="black" d="M296.35,-320.9C312.47,-330.34 332.76,-343.07 349.26,-354.01"/>
<polygon fill="black" stroke="black" points="347.74,-357.2 357.99,-359.88 351.64,-351.39 347.74,-357.2"/>
<g id="a_edge19&#45;headlabel"><a xlink:href="dir_000003_000005.html" xlink:title="9">
<text text-anchor="middle" x="343.17" y="-355.06" font-family="Helvetica,sans-Serif" font-size="10.00">9</text>
</a>
</g>
</g>
<!-- dir_aebb8dcc11953d78e620bbef0b9e2183&#45;&gt;dir_d182250f0c231765fc862e69db210731 -->
<g id="edge20" class="edge">
<title>dir_aebb8dcc11953d78e620bbef0b9e2183&#45;&gt;dir_d182250f0c231765fc862e69db210731</title>
<path fill="none" stroke="black" d="M275.51,-287.87C288.92,-263.14 318.41,-217.24 339.15,-188.51"/>
<polygon fill="black" stroke="black" points="342.16,-190.32 345.27,-180.19 336.53,-186.17 342.16,-190.32"/>
<g id="a_edge20&#45;headlabel"><a xlink:href="dir_000003_000004.html" xlink:title="5">
<text text-anchor="middle" x="342.32" y="-192.4" font-family="Helvetica,sans-Serif" font-size="10.00">5</text>
</a>
</g>
</g>
<!-- dir_aebb8dcc11953d78e620bbef0b9e2183&#45;&gt;dir_0619a8f54b4fad7043a6de45be8fde0b -->
<g id="edge21" class="edge">
<title>dir_aebb8dcc11953d78e620bbef0b9e2183&#45;&gt;dir_0619a8f54b4fad7043a6de45be8fde0b</title>
<path fill="none" stroke="black" d="M292.46,-287.88C309.67,-277.18 333.2,-263.45 352.78,-252.66"/>
<polygon fill="black" stroke="black" points="354.63,-255.63 361.74,-247.78 351.29,-249.48 354.63,-255.63"/>
<g id="a_edge21&#45;headlabel"><a xlink:href="dir_000003_000010.html" xlink:title="3">
<text text-anchor="middle" x="352.84" y="-257.34" font-family="Helvetica,sans-Serif" font-size="10.00">3</text>
</a>
</g>
</g>
<!-- dir_aebb8dcc11953d78e620bbef0b9e2183&#45;&gt;dir_6cc8961f7f77054fb84f95c9f23f5ca0 -->
<g id="edge22" class="edge">
<title>dir_aebb8dcc11953d78e620bbef0b9e2183&#45;&gt;dir_6cc8961f7f77054fb84f95c9f23f5ca0</title>
<path fill="none" stroke="black" d="M241.89,-296.95C214.63,-287.39 171.84,-270.8 129.74,-253.89"/>
<polygon fill="black" stroke="black" points="130.79,-250.54 120.21,-250.05 128.18,-257.04 130.79,-250.54"/>
<g id="a_edge22&#45;headlabel"><a xlink:href="dir_000003_000008.html" xlink:title="1">
<text text-anchor="middle" x="135.19" y="-246.75" font-family="Helvetica,sans-Serif" font-size="10.00">1</text>
</a>
</g>
</g>
<!-- dir_aebb8dcc11953d78e620bbef0b9e2183&#45;&gt;dir_b953371115990fc405ce78459a213a8f -->
<g id="edge23" class="edge">
<title>dir_aebb8dcc11953d78e620bbef0b9e2183&#45;&gt;dir_b953371115990fc405ce78459a213a8f</title>
<path fill="none" stroke="black" d="M241.68,-294.56C222.8,-285.06 198.45,-269.82 181,-252 162.86,-233.47 147.37,-208.26 138.65,-189.41"/>
<polygon fill="black" stroke="black" points="141.87,-188.03 134.73,-180.2 135.43,-190.77 141.87,-188.03"/>
<g id="a_edge23&#45;headlabel"><a xlink:href="dir_000003_000002.html" xlink:title="2">
<text text-anchor="middle" x="145.89" y="-187.72" font-family="Helvetica,sans-Serif" font-size="10.00">2</text>
</a>
</g>
</g>
<!-- dir_aebb8dcc11953d78e620bbef0b9e2183&#45;&gt;dir_ece17dd07d1079ae5da4fc1d5e1e51e1 -->
<g id="edge24" class="edge">
<title>dir_aebb8dcc11953d78e620bbef0b9e2183&#45;&gt;dir_ece17dd07d1079ae5da4fc1d5e1e51e1</title>
<path fill="none" stroke="black" d="M262.25,-287.97C248.72,-240.19 221.92,-104.62 214.17,-46.27"/>
<polygon fill="black" stroke="black" points="217.64,-45.81 212.95,-36.31 210.69,-46.66 217.64,-45.81"/>
<g id="a_edge24&#45;headlabel"><a xlink:href="dir_000003_000007.html" xlink:title="2">
<text text-anchor="middle" x="220.89" y="-46.53" font-family="Helvetica,sans-Serif" font-size="10.00">2</text>
</a>
</g>
</g>
<!-- dir_aebb8dcc11953d78e620bbef0b9e2183&#45;&gt;dir_086a664662017844fa76bd8f66ac71cd -->
<g id="edge25" class="edge">
<title>dir_aebb8dcc11953d78e620bbef0b9e2183&#45;&gt;dir_086a664662017844fa76bd8f66ac71cd</title>
<path fill="none" stroke="black" d="M265.76,-287.85C263.61,-250.83 266.62,-163.18 271.28,-118.39"/>
<polygon fill="black" stroke="black" points="274.79,-118.57 272.47,-108.23 267.83,-117.76 274.79,-118.57"/>
<g id="a_edge25&#45;headlabel"><a xlink:href="dir_000003_000001.html" xlink:title="4">
<text text-anchor="middle" x="277.19" y="-119.97" font-family="Helvetica,sans-Serif" font-size="10.00">4</text>
</a>
</g>
</g>
<!-- dir_b953371115990fc405ce78459a213a8f&#45;&gt;dir_aebb8dcc11953d78e620bbef0b9e2183 -->
<g id="edge26" class="edge">
<title>dir_b953371115990fc405ce78459a213a8f&#45;&gt;dir_aebb8dcc11953d78e620bbef0b9e2183</title>
<path fill="none" stroke="black" d="M147.83,-180.2C160.05,-199.27 177.69,-230.23 199,-252 210.17,-263.41 224.17,-273.76 236.79,-282.23"/>
<polygon fill="black" stroke="black" points="234.97,-285.22 245.25,-287.78 238.81,-279.37 234.97,-285.22"/>
<g id="a_edge26&#45;headlabel"><a xlink:href="dir_000002_000003.html" xlink:title="2">
<text text-anchor="middle" x="230.4" y="-283.12" font-family="Helvetica,sans-Serif" font-size="10.00">2</text>
</a>
</g>
</g>
<!-- dir_b953371115990fc405ce78459a213a8f&#45;&gt;dir_ece17dd07d1079ae5da4fc1d5e1e51e1 -->
<g id="edge27" class="edge">
<title>dir_b953371115990fc405ce78459a213a8f&#45;&gt;dir_ece17dd07d1079ae5da4fc1d5e1e51e1</title>
<path fill="none" stroke="black" d="M142.65,-143.87C156.46,-119.35 182,-74.03 198.21,-45.26"/>
<polygon fill="black" stroke="black" points="201.46,-46.62 203.32,-36.19 195.36,-43.18 201.46,-46.62"/>
<g id="a_edge27&#45;headlabel"><a xlink:href="dir_000002_000007.html" xlink:title="1">
<text text-anchor="middle" x="202.17" y="-48.65" font-family="Helvetica,sans-Serif" font-size="10.00">1</text>
</a>
</g>
</g>
<!-- dir_ece17dd07d1079ae5da4fc1d5e1e51e1&#45;&gt;dir_aebb8dcc11953d78e620bbef0b9e2183 -->
<g id="edge28" class="edge">
<title>dir_ece17dd07d1079ae5da4fc1d5e1e51e1&#45;&gt;dir_aebb8dcc11953d78e620bbef0b9e2183</title>
<path fill="none" stroke="black" d="M219.83,-36.31C233.38,-84.31 260.09,-219.44 267.83,-277.7"/>
<polygon fill="black" stroke="black" points="264.39,-278.46 269.08,-287.97 271.34,-277.62 264.39,-278.46"/>
<g id="a_edge28&#45;headlabel"><a xlink:href="dir_000007_000003.html" xlink:title="2">
<text text-anchor="middle" x="261.14" y="-272.74" font-family="Helvetica,sans-Serif" font-size="10.00">2</text>
</a>
</g>
</g>
<!-- dir_086a664662017844fa76bd8f66ac71cd&#45;&gt;dir_aebb8dcc11953d78e620bbef0b9e2183 -->
<g id="edge29" class="edge">
<title>dir_086a664662017844fa76bd8f66ac71cd&#45;&gt;dir_aebb8dcc11953d78e620bbef0b9e2183</title>
<path fill="none" stroke="black" d="M280.24,-108.23C282.39,-145.32 279.38,-232.98 274.71,-277.71"/>
<polygon fill="black" stroke="black" points="271.21,-277.51 273.52,-287.85 278.16,-278.32 271.21,-277.51"/>
<g id="a_edge29&#45;headlabel"><a xlink:href="dir_000001_000003.html" xlink:title="4">
<text text-anchor="middle" x="268.8" y="-271.11" font-family="Helvetica,sans-Serif" font-size="10.00">4</text>
</a>
</g>
</g>
<!-- dir_086a664662017844fa76bd8f66ac71cd&#45;&gt;dir_ece17dd07d1079ae5da4fc1d5e1e51e1 -->
<g id="edge30" class="edge">
<title>dir_086a664662017844fa76bd8f66ac71cd&#45;&gt;dir_ece17dd07d1079ae5da4fc1d5e1e51e1</title>
<path fill="none" stroke="black" d="M261.18,-71.7C253.43,-63.22 243.96,-52.86 235.48,-43.58"/>
<polygon fill="black" stroke="black" points="237.97,-41.12 228.64,-36.1 232.8,-45.85 237.97,-41.12"/>
<g id="a_edge30&#45;headlabel"><a xlink:href="dir_000001_000007.html" xlink:title="2">
<text text-anchor="middle" x="242.49" y="-39.36" font-family="Helvetica,sans-Serif" font-size="10.00">2</text>
</a>
</g>
</g>
</g>
</svg>
