<?xml version="1.0" encoding="UTF-8" standalone="no"?>
<!DOCTYPE svg PUBLIC "-//W3C//DTD SVG 1.1//EN"
 "http://www.w3.org/Graphics/SVG/1.1/DTD/svg11.dtd">
<!-- Generated by graphviz version 2.43.0 (0)
 -->
<!-- Title: /home/ram/OmniTemplate/src/algebra Pages: 1 -->
<svg width="169pt" height="151pt"
 viewBox="0.00 0.00 168.50 151.00" xmlns="http://www.w3.org/2000/svg" xmlns:xlink="http://www.w3.org/1999/xlink">
<g id="graph0" class="graph" transform="scale(1 1) rotate(0) translate(4 147)">
<title>/home/ram/OmniTemplate/src/algebra</title>
<polygon fill="white" stroke="transparent" points="-4,4 -4,-147 164.5,-147 164.5,4 -4,4"/>
<g id="clust1" class="cluster">
<title>clusterdir_68267d1309a1af8e8297ef4c3efbcdba</title>
<g id="a_clust1"><a xlink:href="dir_68267d1309a1af8e8297ef4c3efbcdba.html" target="_top" xlink:title="src">
<polygon fill="#ddddee" stroke="black" points="8,-64 8,-135 78,-135 78,-64 8,-64"/>
<text text-anchor="middle" x="43" y="-123" font-family="Helvetica,sans-Serif" font-size="10.00">src</text>
</a>
</g>
</g>
<!-- dir_086a664662017844fa76bd8f66ac71cd -->
<g id="node1" class="node">
<title>dir_086a664662017844fa76bd8f66ac71cd</title>
<g id="a_node1"><a xlink:href="dir_086a664662017844fa76bd8f66ac71cd.html" target="_top" xlink:title="algebra">
<polygon fill="#eeeeff" stroke="black" points="70,-108 16,-108 16,-72 70,-72 70,-108"/>
<text text-anchor="middle" x="43" y="-87.5" font-family="Helvetica,sans-Serif" font-size="10.00">algebra</text>
</a>
</g>
</g>
<!-- dir_aebb8dcc11953d78e620bbef0b9e2183 -->
<g id="node2" class="node">
<title>dir_aebb8dcc11953d78e620bbef0b9e2183</title>
<g id="a_node2"><a xlink:href="dir_aebb8dcc11953d78e620bbef0b9e2183.html" target="_top" xlink:title="core">
<polygon fill="none" stroke="black" points="142,-108 88,-108 88,-72 142,-72 142,-108"/>
<text text-anchor="middle" x="115" y="-87.5" font-family="Helvetica,sans-Serif" font-size="10.00">core</text>
</a>
</g>
</g>
<!-- dir_086a664662017844fa76bd8f66ac71cd&#45;&gt;dir_aebb8dcc11953d78e620bbef0b9e2183 -->
<g id="edge4" class="edge">
<title>dir_086a664662017844fa76bd8f66ac71cd&#45;&gt;dir_aebb8dcc11953d78e620bbef0b9e2183</title>
<path fill="none" stroke="black" d="M70.28,-90C72.74,-90 75.19,-90 77.65,-90"/>
<polygon fill="black" stroke="black" points="77.75,-93.5 87.75,-90 77.75,-86.5 77.75,-93.5"/>
<g id="a_edge4&#45;headlabel"><a xlink:href="dir_000001_000003.html" target="_top" xlink:title="4">
<text text-anchor="middle" x="74.15" y="-93.84" font-family="Helvetica,sans-Serif" font-size="10.00">4</text>
</a>
</g>
</g>
<!-- dir_ece17dd07d1079ae5da4fc1d5e1e51e1 -->
<g id="node3" class="node">
<title>dir_ece17dd07d1079ae5da4fc1d5e1e51e1</title>
<g id="a_node3"><a xlink:href="dir_ece17dd07d1079ae5da4fc1d5e1e51e1.html" target="_top" xlink:title="number_theory">
<polygon fill="none" stroke="black" points="160.5,-36 69.5,-36 69.5,0 160.5,0 160.5,-36"/>
<text text-anchor="middle" x="115" y="-15.5" font-family="Helvetica,sans-Serif" font-size="10.00">number_theory</text>
</a>
</g>
</g>
<!-- dir_086a664662017844fa76bd8f66ac71cd&#45;&gt;dir_ece17dd07d1079ae5da4fc1d5e1e51e1 -->
<g id="edge5" class="edge">
<title>dir_086a664662017844fa76bd8f66ac71cd&#45;&gt;dir_ece17dd07d1079ae5da4fc1d5e1e51e1</title>
<path fill="none" stroke="black" d="M60.8,-71.7C69.6,-63.14 80.38,-52.66 90,-43.3"/>
<polygon fill="black" stroke="black" points="92.68,-45.58 97.41,-36.1 87.8,-40.57 92.68,-45.58"/>
<g id="a_edge5&#45;headlabel"><a xlink:href="dir_000001_000007.html" target="_top" xlink:title="2">
<text text-anchor="middle" x="92.08" y="-47.63" font-family="Helvetica,sans-Serif" font-size="10.00">2</text>
</a>
</g>
</g>
<!-- dir_aebb8dcc11953d78e620bbef0b9e2183&#45;&gt;dir_086a664662017844fa76bd8f66ac71cd -->
<g id="edge2" class="edge">
<title>dir_aebb8dcc11953d78e620bbef0b9e2183&#45;&gt;dir_086a664662017844fa76bd8f66ac71cd</title>
<path fill="none" stroke="black" d="M87.75,-90C85.29,-90 82.84,-90 80.38,-90"/>
<polygon fill="black" stroke="black" points="80.28,-86.5 70.28,-90 80.28,-93.5 80.28,-86.5"/>
<g id="a_edge2&#45;headlabel"><a xlink:href="dir_000003_000001.html" target="_top" xlink:title="4">
<text text-anchor="middle" x="83.88" y="-81.16" font-family="Helvetica,sans-Serif" font-size="10.00">4</text>
</a>
</g>
</g>
<!-- dir_aebb8dcc11953d78e620bbef0b9e2183&#45;&gt;dir_ece17dd07d1079ae5da4fc1d5e1e51e1 -->
<g id="edge1" class="edge">
<title>dir_aebb8dcc11953d78e620bbef0b9e2183&#45;&gt;dir_ece17dd07d1079ae5da4fc1d5e1e51e1</title>
<path fill="none" stroke="black" d="M109.08,-71.7C108.29,-63.98 108.06,-54.71 108.4,-46.11"/>
<polygon fill="black" stroke="black" points="111.9,-46.32 109.1,-36.1 104.92,-45.84 111.9,-46.32"/>
<g id="a_edge1&#45;headlabel"><a xlink:href="dir_000003_000007.html" target="_top" xlink:title="2">
<text text-anchor="middle" x="114.48" y="-47.61" font-family="Helvetica,sans-Serif" font-size="10.00">2</text>
</a>
</g>
</g>
<!-- dir_ece17dd07d1079ae5da4fc1d5e1e51e1&#45;&gt;dir_aebb8dcc11953d78e620bbef0b9e2183 -->
<g id="edge3" class="edge">
<title>dir_ece17dd07d1079ae5da4fc1d5e1e51e1&#45;&gt;dir_aebb8dcc11953d78e620bbef0b9e2183</title>
<path fill="none" stroke="black" d="M120.9,-36.1C121.7,-43.79 121.94,-53.05 121.6,-61.67"/>
<polygon fill="black" stroke="black" points="118.11,-61.48 120.92,-71.7 125.09,-61.96 118.11,-61.48"/>
<g id="a_edge3&#45;headlabel"><a xlink:href="dir_000007_000003.html" target="_top" xlink:title="2">
<text text-anchor="middle" x="115.52" y="-55.2" font-family="Helvetica,sans-Serif" font-size="10.00">2</text>
</a>
</g>
</g>
</g>
</svg>
