<?xml version="1.0" encoding="UTF-8" standalone="no"?>
<!DOCTYPE svg PUBLIC "-//W3C//DTD SVG 1.1//EN"
 "http://www.w3.org/Graphics/SVG/1.1/DTD/svg11.dtd">
<!-- Generated by graphviz version 2.43.0 (0)
 -->
<!-- Title: /home/ram/OmniTemplate/src/ds/dsu.hpp Pages: 1 -->
<svg width="1131pt" height="586pt"
 viewBox="0.00 0.00 1131.00 586.00" xmlns="http://www.w3.org/2000/svg" xmlns:xlink="http://www.w3.org/1999/xlink">
<g id="graph0" class="graph" transform="scale(1 1) rotate(0) translate(4 582)">
<title>/home/ram/OmniTemplate/src/ds/dsu.hpp</title>
<polygon fill="white" stroke="transparent" points="-4,4 -4,-582 1127,-582 1127,4 -4,4"/>
<!-- Node1 -->
<g id="node1" class="node">
<title>Node1</title>
<g id="a_node1"><a xlink:title=" ">
<polygon fill="#bfbfbf" stroke="black" points="918,-547.5 918,-577.5 1062,-577.5 1062,-547.5 918,-547.5"/>
<text text-anchor="start" x="926" y="-565.5" font-family="Helvetica,sans-Serif" font-size="10.00">/home/ram/OmniTemplate</text>
<text text-anchor="middle" x="990" y="-554.5" font-family="Helvetica,sans-Serif" font-size="10.00">/src/ds/dsu.hpp</text>
</a>
</g>
</g>
<!-- Node2 -->
<g id="node2" class="node">
<title>Node2</title>
<g id="a_node2"><a xlink:href="template_8hpp.html" target="_top" xlink:title=" ">
<polygon fill="white" stroke="black" points="678,-145.5 678,-175.5 822,-175.5 822,-145.5 678,-145.5"/>
<text text-anchor="start" x="686" y="-163.5" font-family="Helvetica,sans-Serif" font-size="10.00">/home/ram/OmniTemplate</text>
<text text-anchor="middle" x="750" y="-152.5" font-family="Helvetica,sans-Serif" font-size="10.00">/src/core/template.hpp</text>
</a>
</g>
</g>
<!-- Node1&#45;&gt;Node2 -->
<g id="edge1" class="edge">
<title>Node1&#45;&gt;Node2</title>
<path fill="none" stroke="midnightblue" d="M998.95,-538.08C1008.11,-511.99 1021,-468.36 1021,-429.5 1021,-429.5 1021,-429.5 1021,-360.5 1021,-289.96 1018.01,-258.53 965,-212 943.82,-193.41 876.07,-179.52 822.22,-171.06"/>
<polygon fill="midnightblue" stroke="midnightblue" points="995.66,-536.9 995.54,-547.49 1002.24,-539.29 995.66,-536.9"/>
</g>
<!-- Node3 -->
<g id="node3" class="node">
<title>Node3</title>
<g id="a_node3"><a xlink:href="test__dsu_8hpp.html" target="_top" xlink:title=" ">
<polygon fill="white" stroke="black" points="979,-73 979,-103 1123,-103 1123,-73 979,-73"/>
<text text-anchor="start" x="987" y="-91" font-family="Helvetica,sans-Serif" font-size="10.00">/home/ram/OmniTemplate</text>
<text text-anchor="middle" x="1051" y="-80" font-family="Helvetica,sans-Serif" font-size="10.00">/src/ds/test_dsu.hpp</text>
</a>
</g>
</g>
<!-- Node1&#45;&gt;Node3 -->
<g id="edge2" class="edge">
<title>Node1&#45;&gt;Node3</title>
<path fill="none" stroke="midnightblue" d="M1010.13,-539.69C1030.81,-514.92 1060,-472.38 1060,-429.5 1060,-429.5 1060,-429.5 1060,-226.5 1060,-181.29 1055.09,-127.89 1052.53,-103.03"/>
<polygon fill="midnightblue" stroke="midnightblue" points="1007.38,-537.52 1003.5,-547.38 1012.68,-542.09 1007.38,-537.52"/>
</g>
<!-- Node5 -->
<g id="node5" class="node">
<title>Node5</title>
<g id="a_node5"><a xlink:href="core_8hpp.html" target="_top" xlink:title=" ">
<polygon fill="white" stroke="black" points="548,-480.5 548,-510.5 692,-510.5 692,-480.5 548,-480.5"/>
<text text-anchor="start" x="556" y="-498.5" font-family="Helvetica,sans-Serif" font-size="10.00">/home/ram/OmniTemplate</text>
<text text-anchor="middle" x="620" y="-487.5" font-family="Helvetica,sans-Serif" font-size="10.00">/src/graph/core.hpp</text>
</a>
</g>
</g>
<!-- Node1&#45;&gt;Node5 -->
<g id="edge4" class="edge">
<title>Node1&#45;&gt;Node5</title>
<path fill="none" stroke="midnightblue" d="M907.62,-547.03C842.97,-535.67 753.87,-520.02 692.04,-509.15"/>
<polygon fill="midnightblue" stroke="midnightblue" points="907.33,-550.53 917.78,-548.81 908.54,-543.64 907.33,-550.53"/>
</g>
<!-- Node10 -->
<g id="node10" class="node">
<title>Node10</title>
<g id="a_node10"><a xlink:href="graph_2all_8hpp.html" target="_top" xlink:title=" ">
<polygon fill="white" stroke="black" points="610,-279.5 610,-309.5 754,-309.5 754,-279.5 610,-279.5"/>
<text text-anchor="start" x="618" y="-297.5" font-family="Helvetica,sans-Serif" font-size="10.00">/home/ram/OmniTemplate</text>
<text text-anchor="middle" x="682" y="-286.5" font-family="Helvetica,sans-Serif" font-size="10.00">/src/graph/all.hpp</text>
</a>
</g>
</g>
<!-- Node1&#45;&gt;Node10 -->
<g id="edge46" class="edge">
<title>Node1&#45;&gt;Node10</title>
<path fill="none" stroke="midnightblue" d="M980.56,-537.73C966.98,-505.98 939.27,-449.5 901,-413 893.25,-405.61 765.85,-339.04 709.01,-309.5"/>
<polygon fill="midnightblue" stroke="midnightblue" points="977.4,-539.23 984.47,-547.11 983.86,-536.54 977.4,-539.23"/>
</g>
<!-- Node4 -->
<g id="node4" class="node">
<title>Node4</title>
<g id="a_node4"><a xlink:href="test_8cpp.html" target="_top" xlink:title=" ">
<polygon fill="white" stroke="black" points="578,-0.5 578,-30.5 722,-30.5 722,-0.5 578,-0.5"/>
<text text-anchor="start" x="586" y="-18.5" font-family="Helvetica,sans-Serif" font-size="10.00">/home/ram/OmniTemplate</text>
<text text-anchor="middle" x="650" y="-7.5" font-family="Helvetica,sans-Serif" font-size="10.00">/src/test/test.cpp</text>
</a>
</g>
</g>
<!-- Node3&#45;&gt;Node4 -->
<g id="edge3" class="edge">
<title>Node3&#45;&gt;Node4</title>
<path fill="none" stroke="midnightblue" d="M977.16,-70.95C970.35,-69.57 963.55,-68.24 957,-67 876.85,-51.89 784.44,-37.04 722.12,-27.39"/>
<polygon fill="midnightblue" stroke="midnightblue" points="976.62,-74.41 987.12,-72.99 978.02,-67.55 976.62,-74.41"/>
</g>
<!-- Node6 -->
<g id="node6" class="node">
<title>Node6</title>
<g id="a_node6"><a xlink:href="2sat_8hpp.html" target="_top" xlink:title=" ">
<polygon fill="white" stroke="black" points="410,-212.5 410,-242.5 554,-242.5 554,-212.5 410,-212.5"/>
<text text-anchor="start" x="418" y="-230.5" font-family="Helvetica,sans-Serif" font-size="10.00">/home/ram/OmniTemplate</text>
<text text-anchor="middle" x="482" y="-219.5" font-family="Helvetica,sans-Serif" font-size="10.00">/src/graph/2sat.hpp</text>
</a>
</g>
</g>
<!-- Node5&#45;&gt;Node6 -->
<g id="edge5" class="edge">
<title>Node5&#45;&gt;Node6</title>
<path fill="none" stroke="midnightblue" d="M537.5,-488.33C475.21,-481.75 397.12,-468.74 377,-444 323.03,-377.66 423.37,-278.96 465.05,-242.6"/>
<polygon fill="midnightblue" stroke="midnightblue" points="537.44,-491.84 547.75,-489.37 538.15,-484.88 537.44,-491.84"/>
</g>
<!-- Node9 -->
<g id="node9" class="node">
<title>Node9</title>
<g id="a_node9"><a xlink:href="biconnected_8hpp.html" target="_top" xlink:title=" ">
<polygon fill="white" stroke="black" points="22,-346.5 22,-376.5 170,-376.5 170,-346.5 22,-346.5"/>
<text text-anchor="start" x="30" y="-364.5" font-family="Helvetica,sans-Serif" font-size="10.00">/home/ram/OmniTemplate</text>
<text text-anchor="middle" x="96" y="-353.5" font-family="Helvetica,sans-Serif" font-size="10.00">/src/graph/biconnected.hpp</text>
</a>
</g>
</g>
<!-- Node5&#45;&gt;Node9 -->
<g id="edge11" class="edge">
<title>Node5&#45;&gt;Node9</title>
<path fill="none" stroke="midnightblue" d="M537.75,-486.27C473.37,-478.65 381.98,-465.24 304,-444 238.7,-426.21 165.78,-394.81 125.97,-376.61"/>
<polygon fill="midnightblue" stroke="midnightblue" points="537.51,-489.76 547.85,-487.44 538.32,-482.81 537.51,-489.76"/>
</g>
<!-- Node5&#45;&gt;Node10 -->
<g id="edge33" class="edge">
<title>Node5&#45;&gt;Node10</title>
<path fill="none" stroke="midnightblue" d="M667.76,-475.45C680.89,-467.74 693.55,-457.42 701,-444 725.47,-399.91 701.94,-337.36 689.11,-309.65"/>
<polygon fill="midnightblue" stroke="midnightblue" points="665.79,-472.54 658.66,-480.37 669.12,-478.69 665.79,-472.54"/>
</g>
<!-- Node16 -->
<g id="node16" class="node">
<title>Node16</title>
<g id="a_node16"><a xlink:href="bipartite_8hpp.html" target="_top" xlink:title=" ">
<polygon fill="white" stroke="black" points="849,-346.5 849,-376.5 993,-376.5 993,-346.5 849,-346.5"/>
<text text-anchor="start" x="857" y="-364.5" font-family="Helvetica,sans-Serif" font-size="10.00">/home/ram/OmniTemplate</text>
<text text-anchor="middle" x="921" y="-353.5" font-family="Helvetica,sans-Serif" font-size="10.00">/src/graph/bipartite.hpp</text>
</a>
</g>
</g>
<!-- Node5&#45;&gt;Node16 -->
<g id="edge28" class="edge">
<title>Node5&#45;&gt;Node16</title>
<path fill="none" stroke="midnightblue" d="M702.35,-489.51C774.74,-483.42 872.83,-470.45 901,-444 919.59,-426.55 922.11,-394.87 921.84,-376.57"/>
<polygon fill="midnightblue" stroke="midnightblue" points="702,-486.03 692.31,-490.32 702.57,-493 702,-486.03"/>
</g>
<!-- Node18 -->
<g id="node18" class="node">
<title>Node18</title>
<g id="a_node18"><a xlink:href="flow_8hpp.html" target="_top" xlink:title=" ">
<polygon fill="white" stroke="black" points="548,-413.5 548,-443.5 692,-443.5 692,-413.5 548,-413.5"/>
<text text-anchor="start" x="556" y="-431.5" font-family="Helvetica,sans-Serif" font-size="10.00">/home/ram/OmniTemplate</text>
<text text-anchor="middle" x="620" y="-420.5" font-family="Helvetica,sans-Serif" font-size="10.00">/src/graph/flow.hpp</text>
</a>
</g>
</g>
<!-- Node5&#45;&gt;Node18 -->
<g id="edge34" class="edge">
<title>Node5&#45;&gt;Node18</title>
<path fill="none" stroke="midnightblue" d="M620,-470.11C620,-461.15 620,-451.32 620,-443.58"/>
<polygon fill="midnightblue" stroke="midnightblue" points="616.5,-470.4 620,-480.4 623.5,-470.4 616.5,-470.4"/>
</g>
<!-- Node20 -->
<g id="node20" class="node">
<title>Node20</title>
<g id="a_node20"><a xlink:href="graph__view_8hpp.html" target="_top" xlink:title=" ">
<polygon fill="white" stroke="black" points="198,-346.5 198,-376.5 342,-376.5 342,-346.5 198,-346.5"/>
<text text-anchor="start" x="206" y="-364.5" font-family="Helvetica,sans-Serif" font-size="10.00">/home/ram/OmniTemplate</text>
<text text-anchor="middle" x="270" y="-353.5" font-family="Helvetica,sans-Serif" font-size="10.00">/src/graph/graph_view.hpp</text>
</a>
</g>
</g>
<!-- Node5&#45;&gt;Node20 -->
<g id="edge39" class="edge">
<title>Node5&#45;&gt;Node20</title>
<path fill="none" stroke="midnightblue" d="M537.59,-493.16C480.14,-489.06 403.45,-477.04 344,-444 314.6,-427.66 290.65,-395.27 278.55,-376.62"/>
<polygon fill="midnightblue" stroke="midnightblue" points="537.52,-496.67 547.73,-493.82 537.97,-489.68 537.52,-496.67"/>
</g>
<!-- Node23 -->
<g id="node23" class="node">
<title>Node23</title>
<g id="a_node23"><a xlink:href="lca_8hpp.html" target="_top" xlink:title=" ">
<polygon fill="white" stroke="black" points="748,-413.5 748,-443.5 892,-443.5 892,-413.5 748,-413.5"/>
<text text-anchor="start" x="756" y="-431.5" font-family="Helvetica,sans-Serif" font-size="10.00">/home/ram/OmniTemplate</text>
<text text-anchor="middle" x="820" y="-420.5" font-family="Helvetica,sans-Serif" font-size="10.00">/src/graph/tree/lca.hpp</text>
</a>
</g>
</g>
<!-- Node5&#45;&gt;Node23 -->
<g id="edge44" class="edge">
<title>Node5&#45;&gt;Node23</title>
<path fill="none" stroke="midnightblue" d="M673.15,-477.23C705.5,-466.71 746.31,-453.45 776.69,-443.58"/>
<polygon fill="midnightblue" stroke="midnightblue" points="671.83,-473.98 663.4,-480.4 673.99,-480.63 671.83,-473.98"/>
</g>
<!-- Node24 -->
<g id="node24" class="node">
<title>Node24</title>
<g id="a_node24"><a xlink:href="my__int_8hpp.html" target="_top" xlink:title=" ">
<polygon fill="white" stroke="black" points="386,-413.5 386,-443.5 530,-443.5 530,-413.5 386,-413.5"/>
<text text-anchor="start" x="394" y="-431.5" font-family="Helvetica,sans-Serif" font-size="10.00">/home/ram/OmniTemplate</text>
<text text-anchor="middle" x="458" y="-420.5" font-family="Helvetica,sans-Serif" font-size="10.00">/src/utility/my_int.hpp</text>
</a>
</g>
</g>
<!-- Node5&#45;&gt;Node24 -->
<g id="edge45" class="edge">
<title>Node5&#45;&gt;Node24</title>
<path fill="none" stroke="midnightblue" d="M575.25,-476.54C549.33,-466.14 517.16,-453.24 493.08,-443.58"/>
<polygon fill="midnightblue" stroke="midnightblue" points="574.26,-479.92 584.85,-480.4 576.87,-473.42 574.26,-479.92"/>
</g>
<!-- Node6&#45;&gt;Node2 -->
<g id="edge6" class="edge">
<title>Node6&#45;&gt;Node2</title>
<path fill="none" stroke="midnightblue" d="M549.54,-210.12C593.39,-199.48 649.96,-185.76 691.82,-175.61"/>
<polygon fill="midnightblue" stroke="midnightblue" points="548.72,-206.72 539.82,-212.48 550.37,-213.52 548.72,-206.72"/>
</g>
<!-- Node7 -->
<g id="node7" class="node">
<title>Node7</title>
<g id="a_node7"><a xlink:href="test__2sat_8hpp.html" target="_top" xlink:title=" ">
<polygon fill="white" stroke="black" points="172,-145.5 172,-175.5 316,-175.5 316,-145.5 172,-145.5"/>
<text text-anchor="start" x="180" y="-163.5" font-family="Helvetica,sans-Serif" font-size="10.00">/home/ram/OmniTemplate</text>
<text text-anchor="middle" x="244" y="-152.5" font-family="Helvetica,sans-Serif" font-size="10.00">/src/graph/test_2sat.hpp</text>
</a>
</g>
</g>
<!-- Node6&#45;&gt;Node7 -->
<g id="edge7" class="edge">
<title>Node6&#45;&gt;Node7</title>
<path fill="none" stroke="midnightblue" d="M420.54,-209.71C381.81,-199.14 332.37,-185.63 295.67,-175.61"/>
<polygon fill="midnightblue" stroke="midnightblue" points="420.08,-213.22 430.65,-212.48 421.93,-206.46 420.08,-213.22"/>
</g>
<!-- Node7&#45;&gt;Node4 -->
<g id="edge10" class="edge">
<title>Node7&#45;&gt;Node4</title>
<path fill="none" stroke="midnightblue" d="M252,-135.68C260.57,-114.07 276.36,-83.18 301,-67 345.26,-37.93 489.08,-25.09 577.69,-19.82"/>
<polygon fill="midnightblue" stroke="midnightblue" points="248.68,-134.57 248.46,-145.16 255.24,-137.01 248.68,-134.57"/>
</g>
<!-- Node8 -->
<g id="node8" class="node">
<title>Node8</title>
<g id="a_node8"><a xlink:href="test__all_8hpp.html" target="_top" xlink:title=" ">
<polygon fill="white" stroke="black" points="310,-73 310,-103 454,-103 454,-73 310,-73"/>
<text text-anchor="start" x="318" y="-91" font-family="Helvetica,sans-Serif" font-size="10.00">/home/ram/OmniTemplate</text>
<text text-anchor="middle" x="382" y="-80" font-family="Helvetica,sans-Serif" font-size="10.00">/src/graph/test_all.hpp</text>
</a>
</g>
</g>
<!-- Node7&#45;&gt;Node8 -->
<g id="edge8" class="edge">
<title>Node7&#45;&gt;Node8</title>
<path fill="none" stroke="midnightblue" d="M280.77,-140.72C303.92,-128.89 333.31,-113.87 354.45,-103.07"/>
<polygon fill="midnightblue" stroke="midnightblue" points="278.91,-137.74 271.59,-145.4 282.09,-143.97 278.91,-137.74"/>
</g>
<!-- Node8&#45;&gt;Node4 -->
<g id="edge9" class="edge">
<title>Node8&#45;&gt;Node4</title>
<path fill="none" stroke="midnightblue" d="M445.13,-70.39C491.12,-58.29 552.76,-42.08 596.37,-30.61"/>
<polygon fill="midnightblue" stroke="midnightblue" points="444.05,-67.06 435.27,-72.99 445.83,-73.83 444.05,-67.06"/>
</g>
<!-- Node9&#45;&gt;Node10 -->
<g id="edge12" class="edge">
<title>Node9&#45;&gt;Node10</title>
<path fill="none" stroke="midnightblue" d="M180.21,-347.17C183.18,-346.76 186.11,-346.37 189,-346 338.11,-326.75 513.37,-310.25 609.6,-301.72"/>
<polygon fill="midnightblue" stroke="midnightblue" points="179.48,-343.74 170.06,-348.59 180.45,-350.67 179.48,-343.74"/>
</g>
<!-- Node15 -->
<g id="node15" class="node">
<title>Node15</title>
<g id="a_node15"><a xlink:href="test__biconnected_8hpp.html" target="_top" xlink:title=" ">
<polygon fill="white" stroke="black" points="0,-279.5 0,-309.5 172,-309.5 172,-279.5 0,-279.5"/>
<text text-anchor="start" x="8" y="-297.5" font-family="Helvetica,sans-Serif" font-size="10.00">/home/ram/OmniTemplate</text>
<text text-anchor="middle" x="86" y="-286.5" font-family="Helvetica,sans-Serif" font-size="10.00">/src/graph/test_biconnected.hpp</text>
</a>
</g>
</g>
<!-- Node9&#45;&gt;Node15 -->
<g id="edge24" class="edge">
<title>Node9&#45;&gt;Node15</title>
<path fill="none" stroke="midnightblue" d="M85.75,-336.4C83.91,-327.37 82.67,-317.41 82.49,-309.58"/>
<polygon fill="midnightblue" stroke="midnightblue" points="82.41,-337.49 88.15,-346.4 89.22,-335.85 82.41,-337.49"/>
</g>
<!-- Node10&#45;&gt;Node2 -->
<g id="edge13" class="edge">
<title>Node10&#45;&gt;Node2</title>
<path fill="none" stroke="midnightblue" d="M729.76,-274.45C742.89,-266.74 755.55,-256.42 763,-243 774.82,-221.7 765.21,-192.75 757.42,-175.7"/>
<polygon fill="midnightblue" stroke="midnightblue" points="727.79,-271.54 720.66,-279.37 731.12,-277.69 727.79,-271.54"/>
</g>
<!-- Node10&#45;&gt;Node6 -->
<g id="edge14" class="edge">
<title>Node10&#45;&gt;Node6</title>
<path fill="none" stroke="midnightblue" d="M628.85,-276.23C596.5,-265.71 555.69,-252.45 525.31,-242.58"/>
<polygon fill="midnightblue" stroke="midnightblue" points="628.01,-279.63 638.6,-279.4 630.17,-272.98 628.01,-279.63"/>
</g>
<!-- Node10&#45;&gt;Node8 -->
<g id="edge15" class="edge">
<title>Node10&#45;&gt;Node8</title>
<path fill="none" stroke="midnightblue" d="M648.85,-274.14C633.94,-265.1 616.29,-253.94 601,-243 583.27,-230.32 580.47,-225.03 563,-212 507.26,-170.45 438.72,-125.45 404.16,-103.16"/>
<polygon fill="midnightblue" stroke="midnightblue" points="647.36,-277.33 657.73,-279.47 650.96,-271.32 647.36,-277.33"/>
</g>
<!-- Node11 -->
<g id="node11" class="node">
<title>Node11</title>
<g id="a_node11"><a xlink:href="hld_8hpp.html" target="_top" xlink:title=" ">
<polygon fill="white" stroke="black" points="610,-212.5 610,-242.5 754,-242.5 754,-212.5 610,-212.5"/>
<text text-anchor="start" x="618" y="-230.5" font-family="Helvetica,sans-Serif" font-size="10.00">/home/ram/OmniTemplate</text>
<text text-anchor="middle" x="682" y="-219.5" font-family="Helvetica,sans-Serif" font-size="10.00">/src/graph/tree/hld.hpp</text>
</a>
</g>
</g>
<!-- Node10&#45;&gt;Node11 -->
<g id="edge16" class="edge">
<title>Node10&#45;&gt;Node11</title>
<path fill="none" stroke="midnightblue" d="M682,-269.11C682,-260.15 682,-250.32 682,-242.58"/>
<polygon fill="midnightblue" stroke="midnightblue" points="678.5,-269.4 682,-279.4 685.5,-269.4 678.5,-269.4"/>
</g>
<!-- Node13 -->
<g id="node13" class="node">
<title>Node13</title>
<g id="a_node13"><a xlink:href="graph__draw_8hpp.html" target="_top" xlink:title=" ">
<polygon fill="white" stroke="black" points="810,-212.5 810,-242.5 956,-242.5 956,-212.5 810,-212.5"/>
<text text-anchor="start" x="818" y="-230.5" font-family="Helvetica,sans-Serif" font-size="10.00">/home/ram/OmniTemplate</text>
<text text-anchor="middle" x="883" y="-219.5" font-family="Helvetica,sans-Serif" font-size="10.00">/src/utility/graph_draw.hpp</text>
</a>
</g>
</g>
<!-- Node10&#45;&gt;Node13 -->
<g id="edge20" class="edge">
<title>Node10&#45;&gt;Node13</title>
<path fill="none" stroke="midnightblue" d="M735.41,-276.23C767.93,-265.71 808.94,-252.45 839.47,-242.58"/>
<polygon fill="midnightblue" stroke="midnightblue" points="734.05,-272.99 725.61,-279.4 736.21,-279.65 734.05,-272.99"/>
</g>
<!-- Node11&#45;&gt;Node2 -->
<g id="edge17" class="edge">
<title>Node11&#45;&gt;Node2</title>
<path fill="none" stroke="midnightblue" d="M704.17,-205.31C714.37,-195.56 726.19,-184.26 735.27,-175.58"/>
<polygon fill="midnightblue" stroke="midnightblue" points="701.57,-202.96 696.75,-212.4 706.4,-208.02 701.57,-202.96"/>
</g>
<!-- Node12 -->
<g id="node12" class="node">
<title>Node12</title>
<g id="a_node12"><a xlink:href="test__hld_8hpp.html" target="_top" xlink:title=" ">
<polygon fill="white" stroke="black" points="575,-73 575,-103 725,-103 725,-73 575,-73"/>
<text text-anchor="start" x="583" y="-91" font-family="Helvetica,sans-Serif" font-size="10.00">/home/ram/OmniTemplate</text>
<text text-anchor="middle" x="650" y="-80" font-family="Helvetica,sans-Serif" font-size="10.00">/src/graph/tree/test_hld.hpp</text>
</a>
</g>
</g>
<!-- Node11&#45;&gt;Node12 -->
<g id="edge18" class="edge">
<title>Node11&#45;&gt;Node12</title>
<path fill="none" stroke="midnightblue" d="M675.63,-202.51C673.46,-194.14 671.06,-184.67 669,-176 662.92,-150.43 656.54,-120.46 652.93,-103.2"/>
<polygon fill="midnightblue" stroke="midnightblue" points="672.3,-203.6 678.22,-212.39 679.07,-201.83 672.3,-203.6"/>
</g>
<!-- Node12&#45;&gt;Node4 -->
<g id="edge19" class="edge">
<title>Node12&#45;&gt;Node4</title>
<path fill="none" stroke="midnightblue" d="M650,-62.73C650,-52.07 650,-39.91 650,-30.75"/>
<polygon fill="midnightblue" stroke="midnightblue" points="646.5,-62.73 650,-72.73 653.5,-62.73 646.5,-62.73"/>
</g>
<!-- Node13&#45;&gt;Node2 -->
<g id="edge21" class="edge">
<title>Node13&#45;&gt;Node2</title>
<path fill="none" stroke="midnightblue" d="M845.13,-207.99C824.05,-197.69 798.22,-185.07 778.8,-175.58"/>
<polygon fill="midnightblue" stroke="midnightblue" points="843.62,-211.15 854.14,-212.4 846.69,-204.86 843.62,-211.15"/>
</g>
<!-- Node14 -->
<g id="node14" class="node">
<title>Node14</title>
<g id="a_node14"><a xlink:href="test__graph__draw_8hpp.html" target="_top" xlink:title=" ">
<polygon fill="white" stroke="black" points="760,-67.5 760,-108.5 904,-108.5 904,-67.5 760,-67.5"/>
<text text-anchor="start" x="768" y="-96.5" font-family="Helvetica,sans-Serif" font-size="10.00">/home/ram/OmniTemplate</text>
<text text-anchor="start" x="768" y="-85.5" font-family="Helvetica,sans-Serif" font-size="10.00">/src/utility/test_graph</text>
<text text-anchor="middle" x="832" y="-74.5" font-family="Helvetica,sans-Serif" font-size="10.00">_draw.hpp</text>
</a>
</g>
</g>
<!-- Node13&#45;&gt;Node14 -->
<g id="edge22" class="edge">
<title>Node13&#45;&gt;Node14</title>
<path fill="none" stroke="midnightblue" d="M874.14,-202.62C864.26,-175.98 848.46,-133.39 839.28,-108.62"/>
<polygon fill="midnightblue" stroke="midnightblue" points="870.97,-204.14 877.73,-212.3 877.54,-201.71 870.97,-204.14"/>
</g>
<!-- Node14&#45;&gt;Node4 -->
<g id="edge23" class="edge">
<title>Node14&#45;&gt;Node4</title>
<path fill="none" stroke="midnightblue" d="M771.89,-63.72C743.59,-52.75 710.75,-40.03 686.3,-30.56"/>
<polygon fill="midnightblue" stroke="midnightblue" points="770.71,-67.01 781.3,-67.36 773.24,-60.49 770.71,-67.01"/>
</g>
<!-- Node15&#45;&gt;Node4 -->
<g id="edge27" class="edge">
<title>Node15&#45;&gt;Node4</title>
<path fill="none" stroke="midnightblue" d="M88.53,-269.19C93.05,-237.15 105.22,-180.7 137,-145 180.29,-96.37 199.74,-89.04 261,-67 366.9,-28.91 498.17,-18.95 577.93,-16.68"/>
<polygon fill="midnightblue" stroke="midnightblue" points="85.02,-269.07 87.24,-279.43 91.97,-269.95 85.02,-269.07"/>
</g>
<!-- Node15&#45;&gt;Node8 -->
<g id="edge26" class="edge">
<title>Node15&#45;&gt;Node8</title>
<path fill="none" stroke="midnightblue" d="M95.49,-269.76C110.94,-232.24 141.9,-161.76 163,-145 204.63,-111.92 263.55,-98.17 309.79,-92.55"/>
<polygon fill="midnightblue" stroke="midnightblue" points="92.1,-268.82 91.57,-279.4 98.58,-271.46 92.1,-268.82"/>
</g>
<!-- Node15&#45;&gt;Node9 -->
<g id="edge25" class="edge">
<title>Node15&#45;&gt;Node9</title>
<path fill="none" stroke="midnightblue" d="M96.25,-319.57C98.09,-328.6 99.33,-338.56 99.51,-346.4"/>
<polygon fill="midnightblue" stroke="midnightblue" points="99.58,-318.48 93.84,-309.58 92.78,-320.12 99.58,-318.48"/>
</g>
<!-- Node16&#45;&gt;Node10 -->
<g id="edge29" class="edge">
<title>Node16&#45;&gt;Node10</title>
<path fill="none" stroke="midnightblue" d="M859.78,-343.85C820.81,-333.25 770.9,-319.68 733.88,-309.61"/>
<polygon fill="midnightblue" stroke="midnightblue" points="858.87,-347.23 869.43,-346.48 860.7,-340.47 858.87,-347.23"/>
</g>
<!-- Node17 -->
<g id="node17" class="node">
<title>Node17</title>
<g id="a_node17"><a xlink:href="test__bipartite_8hpp.html" target="_top" xlink:title=" ">
<polygon fill="white" stroke="black" points="878,-145.5 878,-175.5 1032,-175.5 1032,-145.5 878,-145.5"/>
<text text-anchor="start" x="886" y="-163.5" font-family="Helvetica,sans-Serif" font-size="10.00">/home/ram/OmniTemplate</text>
<text text-anchor="middle" x="955" y="-152.5" font-family="Helvetica,sans-Serif" font-size="10.00">/src/graph/test_bipartite.hpp</text>
</a>
</g>
</g>
<!-- Node16&#45;&gt;Node17 -->
<g id="edge30" class="edge">
<title>Node16&#45;&gt;Node17</title>
<path fill="none" stroke="midnightblue" d="M932.63,-337.08C943.47,-313.86 958.85,-276.95 965,-243 967.46,-229.44 966.34,-225.71 965,-212 963.78,-199.55 960.9,-185.61 958.55,-175.54"/>
<polygon fill="midnightblue" stroke="midnightblue" points="929.46,-335.61 928.31,-346.14 935.77,-338.63 929.46,-335.61"/>
</g>
<!-- Node17&#45;&gt;Node4 -->
<g id="edge32" class="edge">
<title>Node17&#45;&gt;Node4</title>
<path fill="none" stroke="midnightblue" d="M950.56,-135.5C945.32,-114.19 934.45,-83.9 913,-67 883.96,-44.13 789.54,-30.19 722.16,-22.91"/>
<polygon fill="midnightblue" stroke="midnightblue" points="947.18,-136.41 952.76,-145.42 954.01,-134.9 947.18,-136.41"/>
</g>
<!-- Node17&#45;&gt;Node8 -->
<g id="edge31" class="edge">
<title>Node17&#45;&gt;Node8</title>
<path fill="none" stroke="midnightblue" d="M867.72,-148.76C754.68,-134.85 559.71,-110.86 454.44,-97.91"/>
<polygon fill="midnightblue" stroke="midnightblue" points="867.37,-152.24 877.72,-149.99 868.22,-145.3 867.37,-152.24"/>
</g>
<!-- Node18&#45;&gt;Node10 -->
<g id="edge35" class="edge">
<title>Node18&#45;&gt;Node10</title>
<path fill="none" stroke="midnightblue" d="M642.32,-405.93C649.88,-397.54 657.73,-387.44 663,-377 674.06,-355.08 678.8,-326.58 680.74,-309.74"/>
<polygon fill="midnightblue" stroke="midnightblue" points="639.58,-403.74 635.25,-413.41 644.67,-408.55 639.58,-403.74"/>
</g>
<!-- Node19 -->
<g id="node19" class="node">
<title>Node19</title>
<g id="a_node19"><a xlink:href="test__flow_8hpp.html" target="_top" xlink:title=" ">
<polygon fill="white" stroke="black" points="510,-346.5 510,-376.5 654,-376.5 654,-346.5 510,-346.5"/>
<text text-anchor="start" x="518" y="-364.5" font-family="Helvetica,sans-Serif" font-size="10.00">/home/ram/OmniTemplate</text>
<text text-anchor="middle" x="582" y="-353.5" font-family="Helvetica,sans-Serif" font-size="10.00">/src/graph/test_flow.hpp</text>
</a>
</g>
</g>
<!-- Node18&#45;&gt;Node19 -->
<g id="edge36" class="edge">
<title>Node18&#45;&gt;Node19</title>
<path fill="none" stroke="midnightblue" d="M606.6,-404.58C601.14,-395.24 595.01,-384.75 590.23,-376.58"/>
<polygon fill="midnightblue" stroke="midnightblue" points="603.69,-406.53 611.75,-413.4 609.73,-403 603.69,-406.53"/>
</g>
<!-- Node19&#45;&gt;Node8 -->
<g id="edge38" class="edge">
<title>Node19&#45;&gt;Node8</title>
<path fill="none" stroke="midnightblue" d="M532.77,-342.49C490.42,-324.25 431.47,-291.73 401,-243 373,-198.23 376.74,-131.74 380.03,-103.04"/>
<polygon fill="midnightblue" stroke="midnightblue" points="531.5,-345.75 542.07,-346.38 534.2,-339.29 531.5,-345.75"/>
</g>
<!-- Node19&#45;&gt;Node10 -->
<g id="edge37" class="edge">
<title>Node19&#45;&gt;Node10</title>
<path fill="none" stroke="midnightblue" d="M612.41,-340.73C627.88,-330.68 646.33,-318.68 660.34,-309.58"/>
<polygon fill="midnightblue" stroke="midnightblue" points="610.18,-338.01 603.7,-346.4 613.99,-343.88 610.18,-338.01"/>
</g>
<!-- Node20&#45;&gt;Node10 -->
<g id="edge40" class="edge">
<title>Node20&#45;&gt;Node10</title>
<path fill="none" stroke="midnightblue" d="M352.16,-347.54C427.46,-335.66 537.87,-318.24 609.85,-306.88"/>
<polygon fill="midnightblue" stroke="midnightblue" points="351.57,-344.09 342.24,-349.1 352.66,-351 351.57,-344.09"/>
</g>
<!-- Node21 -->
<g id="node21" class="node">
<title>Node21</title>
<g id="a_node21"><a xlink:href="centroid_8hpp.html" target="_top" xlink:title=" ">
<polygon fill="white" stroke="black" points="190.5,-279.5 190.5,-309.5 341.5,-309.5 341.5,-279.5 190.5,-279.5"/>
<text text-anchor="start" x="198.5" y="-297.5" font-family="Helvetica,sans-Serif" font-size="10.00">/home/ram/OmniTemplate</text>
<text text-anchor="middle" x="266" y="-286.5" font-family="Helvetica,sans-Serif" font-size="10.00">/src/graph/tree/centroid.hpp</text>
</a>
</g>
</g>
<!-- Node20&#45;&gt;Node21 -->
<g id="edge41" class="edge">
<title>Node20&#45;&gt;Node21</title>
<path fill="none" stroke="midnightblue" d="M268.52,-336.4C267.96,-327.37 267.35,-317.41 266.87,-309.58"/>
<polygon fill="midnightblue" stroke="midnightblue" points="265.02,-336.63 269.13,-346.4 272.01,-336.2 265.02,-336.63"/>
</g>
<!-- Node22 -->
<g id="node22" class="node">
<title>Node22</title>
<g id="a_node22"><a xlink:href="test__centroid_8hpp.html" target="_top" xlink:title=" ">
<polygon fill="white" stroke="black" points="178.5,-212.5 178.5,-242.5 353.5,-242.5 353.5,-212.5 178.5,-212.5"/>
<text text-anchor="start" x="186.5" y="-230.5" font-family="Helvetica,sans-Serif" font-size="10.00">/home/ram/OmniTemplate</text>
<text text-anchor="middle" x="266" y="-219.5" font-family="Helvetica,sans-Serif" font-size="10.00">/src/graph/tree/test_centroid.hpp</text>
</a>
</g>
</g>
<!-- Node21&#45;&gt;Node22 -->
<g id="edge42" class="edge">
<title>Node21&#45;&gt;Node22</title>
<path fill="none" stroke="midnightblue" d="M266,-269.11C266,-260.15 266,-250.32 266,-242.58"/>
<polygon fill="midnightblue" stroke="midnightblue" points="262.5,-269.4 266,-279.4 269.5,-269.4 262.5,-269.4"/>
</g>
<!-- Node22&#45;&gt;Node8 -->
<g id="edge43" class="edge">
<title>Node22&#45;&gt;Node8</title>
<path fill="none" stroke="midnightblue" d="M293.15,-205.98C303.71,-197.34 315.51,-186.78 325,-176 345.63,-152.54 364.41,-121.06 374.42,-103.11"/>
<polygon fill="midnightblue" stroke="midnightblue" points="290.65,-203.5 285.03,-212.48 295.02,-208.97 290.65,-203.5"/>
</g>
</g>
</svg>
