<?xml version="1.0" encoding="UTF-8" standalone="no"?>
<!DOCTYPE svg PUBLIC "-//W3C//DTD SVG 1.1//EN"
 "http://www.w3.org/Graphics/SVG/1.1/DTD/svg11.dtd">
<!-- Generated by graphviz version 2.43.0 (0)
 -->
<!-- Title: fft Pages: 1 -->
<svg width="159pt" height="66pt"
 viewBox="0.00 0.00 159.00 66.00" xmlns="http://www.w3.org/2000/svg" xmlns:xlink="http://www.w3.org/1999/xlink">
<g id="graph0" class="graph" transform="scale(1 1) rotate(0) translate(4 62)">
<title>fft</title>
<polygon fill="white" stroke="transparent" points="-4,4 -4,-62 155,-62 155,4 -4,4"/>
<!-- Node1 -->
<g id="node1" class="node">
<title>Node1</title>
<g id="a_node1"><a xlink:title="FFT using Cooley–Tukey FFT algorithm.">
<polygon fill="#bfbfbf" stroke="black" points="0,-19.5 0,-38.5 29,-38.5 29,-19.5 0,-19.5"/>
<text text-anchor="middle" x="14.5" y="-26.5" font-family="Helvetica,sans-Serif" font-size="10.00">fft</text>
</a>
</g>
</g>
<!-- Node2 -->
<g id="node2" class="node">
<title>Node2</title>
<g id="a_node2"><a xlink:href="namespaceutility.html#a005fc5d8af9bba651f00c74372466b83" target="_top" xlink:title=" ">
<polygon fill="white" stroke="black" points="65,-38.5 65,-57.5 151,-57.5 151,-38.5 65,-38.5"/>
<text text-anchor="middle" x="108" y="-45.5" font-family="Helvetica,sans-Serif" font-size="10.00">utility::bit_ceil</text>
</a>
</g>
</g>
<!-- Node1&#45;&gt;Node2 -->
<g id="edge1" class="edge">
<title>Node1&#45;&gt;Node2</title>
<path fill="none" stroke="midnightblue" d="M29,-31.8C36.09,-33.27 45.27,-35.18 54.83,-37.17"/>
<polygon fill="midnightblue" stroke="midnightblue" points="54.36,-40.64 64.87,-39.25 55.79,-33.79 54.36,-40.64"/>
</g>
<!-- Node3 -->
<g id="node3" class="node">
<title>Node3</title>
<g id="a_node3"><a xlink:href="operations_8hpp.html#a915663194fec79c061edfaea61707bd0" target="_top" xlink:title=" ">
<polygon fill="white" stroke="black" points="93.5,-0.5 93.5,-19.5 122.5,-19.5 122.5,-0.5 93.5,-0.5"/>
<text text-anchor="middle" x="108" y="-7.5" font-family="Helvetica,sans-Serif" font-size="10.00">fo</text>
</a>
</g>
</g>
<!-- Node1&#45;&gt;Node3 -->
<g id="edge2" class="edge">
<title>Node1&#45;&gt;Node3</title>
<path fill="none" stroke="midnightblue" d="M29,-26.2C43.33,-23.22 66.24,-18.46 83.53,-14.87"/>
<polygon fill="midnightblue" stroke="midnightblue" points="84.36,-18.28 93.44,-12.82 82.94,-11.42 84.36,-18.28"/>
</g>
</g>
</svg>
