<?xml version="1.0" encoding="UTF-8" standalone="no"?>
<!DOCTYPE svg PUBLIC "-//W3C//DTD SVG 1.1//EN"
 "http://www.w3.org/Graphics/SVG/1.1/DTD/svg11.dtd">
<!-- Generated by graphviz version 2.43.0 (0)
 -->
<!-- Title: conv Pages: 1 -->
<svg width="284pt" height="47pt"
 viewBox="0.00 0.00 284.00 47.00" xmlns="http://www.w3.org/2000/svg" xmlns:xlink="http://www.w3.org/1999/xlink">
<g id="graph0" class="graph" transform="scale(1 1) rotate(0) translate(4 43)">
<title>conv</title>
<polygon fill="white" stroke="transparent" points="-4,4 -4,-43 280,-43 280,4 -4,4"/>
<!-- Node1 -->
<g id="node1" class="node">
<title>Node1</title>
<g id="a_node1"><a xlink:title=" ">
<polygon fill="#bfbfbf" stroke="black" points="0,-19.5 0,-38.5 40,-38.5 40,-19.5 0,-19.5"/>
<text text-anchor="middle" x="20" y="-26.5" font-family="Helvetica,sans-Serif" font-size="10.00">conv</text>
</a>
</g>
</g>
<!-- Node2 -->
<g id="node2" class="node">
<title>Node2</title>
<g id="a_node2"><a xlink:href="fft_8hpp.html#a27632dcb2490189a02cc98a2029a4be3" target="_top" xlink:title=" ">
<polygon fill="white" stroke="black" points="143,-19.5 143,-38.5 172,-38.5 172,-19.5 143,-19.5"/>
<text text-anchor="middle" x="157.5" y="-26.5" font-family="Helvetica,sans-Serif" font-size="10.00">fft</text>
</a>
</g>
</g>
<!-- Node1&#45;&gt;Node2 -->
<g id="edge1" class="edge">
<title>Node1&#45;&gt;Node2</title>
<path fill="none" stroke="midnightblue" d="M40.13,-29C64.38,-29 106.21,-29 132.56,-29"/>
<polygon fill="midnightblue" stroke="midnightblue" points="132.81,-32.5 142.81,-29 132.81,-25.5 132.81,-32.5"/>
</g>
<!-- Node4 -->
<g id="node4" class="node">
<title>Node4</title>
<g id="a_node4"><a xlink:href="fft_8hpp.html#af359fe1ab295171c84c1da7bdfc95018" target="_top" xlink:title=" ">
<polygon fill="white" stroke="black" points="76,-0.5 76,-19.5 107,-19.5 107,-0.5 76,-0.5"/>
<text text-anchor="middle" x="91.5" y="-7.5" font-family="Helvetica,sans-Serif" font-size="10.00">ifft</text>
</a>
</g>
</g>
<!-- Node1&#45;&gt;Node4 -->
<g id="edge3" class="edge">
<title>Node1&#45;&gt;Node4</title>
<path fill="none" stroke="midnightblue" d="M40.36,-23.71C48.35,-21.52 57.71,-18.96 66.16,-16.65"/>
<polygon fill="midnightblue" stroke="midnightblue" points="67.15,-20.01 75.87,-14 65.3,-13.26 67.15,-20.01"/>
</g>
<!-- Node3 -->
<g id="node3" class="node">
<title>Node3</title>
<g id="a_node3"><a xlink:href="namespaceutility.html#a58ac7b6c58967aa2796efb5cc2eaa506" target="_top" xlink:title=" ">
<polygon fill="white" stroke="black" points="208,-19.5 208,-38.5 276,-38.5 276,-19.5 208,-19.5"/>
<text text-anchor="middle" x="242" y="-26.5" font-family="Helvetica,sans-Serif" font-size="10.00">utility::nx2</text>
</a>
</g>
</g>
<!-- Node2&#45;&gt;Node3 -->
<g id="edge2" class="edge">
<title>Node2&#45;&gt;Node3</title>
<path fill="none" stroke="midnightblue" d="M172.12,-29C179.25,-29 188.41,-29 197.71,-29"/>
<polygon fill="midnightblue" stroke="midnightblue" points="197.76,-32.5 207.76,-29 197.76,-25.5 197.76,-32.5"/>
</g>
<!-- Node4&#45;&gt;Node2 -->
<g id="edge4" class="edge">
<title>Node4&#45;&gt;Node2</title>
<path fill="none" stroke="midnightblue" d="M107.02,-14.31C114.76,-16.61 124.47,-19.49 133.23,-22.09"/>
<polygon fill="midnightblue" stroke="midnightblue" points="132.33,-25.47 142.91,-24.97 134.32,-18.76 132.33,-25.47"/>
</g>
</g>
</svg>
