<?xml version="1.0" encoding="UTF-8" standalone="no"?>
<!DOCTYPE svg PUBLIC "-//W3C//DTD SVG 1.1//EN"
 "http://www.w3.org/Graphics/SVG/1.1/DTD/svg11.dtd">
<!-- Generated by graphviz version 2.43.0 (0)
 -->
<!-- Title: /home/ram/OmniTemplate/src/graph/flow.hpp Pages: 1 -->
<svg width="585pt" height="452pt"
 viewBox="0.00 0.00 585.00 452.00" xmlns="http://www.w3.org/2000/svg" xmlns:xlink="http://www.w3.org/1999/xlink">
<g id="graph0" class="graph" transform="scale(1 1) rotate(0) translate(4 448)">
<title>/home/ram/OmniTemplate/src/graph/flow.hpp</title>
<polygon fill="white" stroke="transparent" points="-4,4 -4,-448 581,-448 581,4 -4,4"/>
<!-- Node1 -->
<g id="node1" class="node">
<title>Node1</title>
<g id="a_node1"><a xlink:title=" ">
<polygon fill="#bfbfbf" stroke="black" points="333,-413.5 333,-443.5 477,-443.5 477,-413.5 333,-413.5"/>
<text text-anchor="start" x="341" y="-431.5" font-family="Helvetica,sans-Serif" font-size="10.00">/home/ram/OmniTemplate</text>
<text text-anchor="middle" x="405" y="-420.5" font-family="Helvetica,sans-Serif" font-size="10.00">/src/graph/flow.hpp</text>
</a>
</g>
</g>
<!-- Node2 -->
<g id="node2" class="node">
<title>Node2</title>
<g id="a_node2"><a xlink:href="graph_2all_8hpp.html" target="_top" xlink:title=" ">
<polygon fill="white" stroke="black" points="283,-279.5 283,-309.5 427,-309.5 427,-279.5 283,-279.5"/>
<text text-anchor="start" x="291" y="-297.5" font-family="Helvetica,sans-Serif" font-size="10.00">/home/ram/OmniTemplate</text>
<text text-anchor="middle" x="355" y="-286.5" font-family="Helvetica,sans-Serif" font-size="10.00">/src/graph/all.hpp</text>
</a>
</g>
</g>
<!-- Node1&#45;&gt;Node2 -->
<g id="edge1" class="edge">
<title>Node1&#45;&gt;Node2</title>
<path fill="none" stroke="midnightblue" d="M388.83,-404.67C383.48,-396.28 377.9,-386.5 374,-377 364.72,-354.42 359.44,-326.38 356.9,-309.77"/>
<polygon fill="midnightblue" stroke="midnightblue" points="386.01,-406.75 394.46,-413.14 391.84,-402.88 386.01,-406.75"/>
</g>
<!-- Node12 -->
<g id="node12" class="node">
<title>Node12</title>
<g id="a_node12"><a xlink:href="test__flow_8hpp.html" target="_top" xlink:title=" ">
<polygon fill="white" stroke="black" points="383,-346.5 383,-376.5 527,-376.5 527,-346.5 383,-346.5"/>
<text text-anchor="start" x="391" y="-364.5" font-family="Helvetica,sans-Serif" font-size="10.00">/home/ram/OmniTemplate</text>
<text text-anchor="middle" x="455" y="-353.5" font-family="Helvetica,sans-Serif" font-size="10.00">/src/graph/test_flow.hpp</text>
</a>
</g>
</g>
<!-- Node1&#45;&gt;Node12 -->
<g id="edge18" class="edge">
<title>Node1&#45;&gt;Node12</title>
<path fill="none" stroke="midnightblue" d="M421.96,-405.45C429.31,-395.9 437.69,-385 444.17,-376.58"/>
<polygon fill="midnightblue" stroke="midnightblue" points="419.17,-403.34 415.85,-413.4 424.72,-407.6 419.17,-403.34"/>
</g>
<!-- Node3 -->
<g id="node3" class="node">
<title>Node3</title>
<g id="a_node3"><a xlink:href="template_8hpp.html" target="_top" xlink:title=" ">
<polygon fill="white" stroke="black" points="104,-145.5 104,-175.5 248,-175.5 248,-145.5 104,-145.5"/>
<text text-anchor="start" x="112" y="-163.5" font-family="Helvetica,sans-Serif" font-size="10.00">/home/ram/OmniTemplate</text>
<text text-anchor="middle" x="176" y="-152.5" font-family="Helvetica,sans-Serif" font-size="10.00">/src/core/template.hpp</text>
</a>
</g>
</g>
<!-- Node2&#45;&gt;Node3 -->
<g id="edge2" class="edge">
<title>Node2&#45;&gt;Node3</title>
<path fill="none" stroke="midnightblue" d="M272.94,-285.93C243.19,-279.09 211.81,-266.4 191,-243 174.46,-224.4 173.42,-193.72 174.49,-175.78"/>
<polygon fill="midnightblue" stroke="midnightblue" points="272.44,-289.41 282.95,-288.04 273.88,-282.56 272.44,-289.41"/>
</g>
<!-- Node4 -->
<g id="node4" class="node">
<title>Node4</title>
<g id="a_node4"><a xlink:href="2sat_8hpp.html" target="_top" xlink:title=" ">
<polygon fill="white" stroke="black" points="364,-212.5 364,-242.5 508,-242.5 508,-212.5 364,-212.5"/>
<text text-anchor="start" x="372" y="-230.5" font-family="Helvetica,sans-Serif" font-size="10.00">/home/ram/OmniTemplate</text>
<text text-anchor="middle" x="436" y="-219.5" font-family="Helvetica,sans-Serif" font-size="10.00">/src/graph/2sat.hpp</text>
</a>
</g>
</g>
<!-- Node2&#45;&gt;Node4 -->
<g id="edge3" class="edge">
<title>Node2&#45;&gt;Node4</title>
<path fill="none" stroke="midnightblue" d="M380.69,-272.88C393,-263.01 407.43,-251.43 418.46,-242.58"/>
<polygon fill="midnightblue" stroke="midnightblue" points="378.18,-270.41 372.58,-279.4 382.57,-275.87 378.18,-270.41"/>
</g>
<!-- Node6 -->
<g id="node6" class="node">
<title>Node6</title>
<g id="a_node6"><a xlink:href="test__all_8hpp.html" target="_top" xlink:title=" ">
<polygon fill="white" stroke="black" points="433,-73 433,-103 577,-103 577,-73 433,-73"/>
<text text-anchor="start" x="441" y="-91" font-family="Helvetica,sans-Serif" font-size="10.00">/home/ram/OmniTemplate</text>
<text text-anchor="middle" x="505" y="-80" font-family="Helvetica,sans-Serif" font-size="10.00">/src/graph/test_all.hpp</text>
</a>
</g>
</g>
<!-- Node2&#45;&gt;Node6 -->
<g id="edge9" class="edge">
<title>Node2&#45;&gt;Node6</title>
<path fill="none" stroke="midnightblue" d="M437.22,-287.8C467.27,-281.25 498.41,-268.26 517,-243 548.15,-200.66 524.57,-132.88 511.8,-103.44"/>
<polygon fill="midnightblue" stroke="midnightblue" points="436.24,-284.42 427.1,-289.78 437.58,-291.29 436.24,-284.42"/>
</g>
<!-- Node8 -->
<g id="node8" class="node">
<title>Node8</title>
<g id="a_node8"><a xlink:href="hld_8hpp.html" target="_top" xlink:title=" ">
<polygon fill="white" stroke="black" points="0,-212.5 0,-242.5 144,-242.5 144,-212.5 0,-212.5"/>
<text text-anchor="start" x="8" y="-230.5" font-family="Helvetica,sans-Serif" font-size="10.00">/home/ram/OmniTemplate</text>
<text text-anchor="middle" x="72" y="-219.5" font-family="Helvetica,sans-Serif" font-size="10.00">/src/graph/tree/hld.hpp</text>
</a>
</g>
</g>
<!-- Node2&#45;&gt;Node8 -->
<g id="edge10" class="edge">
<title>Node2&#45;&gt;Node8</title>
<path fill="none" stroke="midnightblue" d="M283.97,-277.19C237.62,-266.54 177.73,-252.78 133.44,-242.61"/>
<polygon fill="midnightblue" stroke="midnightblue" points="283.41,-280.65 293.94,-279.48 284.98,-273.83 283.41,-280.65"/>
</g>
<!-- Node10 -->
<g id="node10" class="node">
<title>Node10</title>
<g id="a_node10"><a xlink:href="graph__draw_8hpp.html" target="_top" xlink:title=" ">
<polygon fill="white" stroke="black" points="200,-212.5 200,-242.5 346,-242.5 346,-212.5 200,-212.5"/>
<text text-anchor="start" x="208" y="-230.5" font-family="Helvetica,sans-Serif" font-size="10.00">/home/ram/OmniTemplate</text>
<text text-anchor="middle" x="273" y="-219.5" font-family="Helvetica,sans-Serif" font-size="10.00">/src/utility/graph_draw.hpp</text>
</a>
</g>
</g>
<!-- Node2&#45;&gt;Node10 -->
<g id="edge14" class="edge">
<title>Node2&#45;&gt;Node10</title>
<path fill="none" stroke="midnightblue" d="M329.35,-273.17C316.81,-263.23 302.03,-251.51 290.76,-242.58"/>
<polygon fill="midnightblue" stroke="midnightblue" points="327.2,-275.93 337.21,-279.4 331.54,-270.44 327.2,-275.93"/>
</g>
<!-- Node4&#45;&gt;Node3 -->
<g id="edge4" class="edge">
<title>Node4&#45;&gt;Node3</title>
<path fill="none" stroke="midnightblue" d="M369.94,-209.98C327.47,-199.37 272.88,-185.72 232.44,-175.61"/>
<polygon fill="midnightblue" stroke="midnightblue" points="369.35,-213.45 379.9,-212.48 371.05,-206.66 369.35,-213.45"/>
</g>
<!-- Node5 -->
<g id="node5" class="node">
<title>Node5</title>
<g id="a_node5"><a xlink:href="test__2sat_8hpp.html" target="_top" xlink:title=" ">
<polygon fill="white" stroke="black" points="364,-145.5 364,-175.5 508,-175.5 508,-145.5 364,-145.5"/>
<text text-anchor="start" x="372" y="-163.5" font-family="Helvetica,sans-Serif" font-size="10.00">/home/ram/OmniTemplate</text>
<text text-anchor="middle" x="436" y="-152.5" font-family="Helvetica,sans-Serif" font-size="10.00">/src/graph/test_2sat.hpp</text>
</a>
</g>
</g>
<!-- Node4&#45;&gt;Node5 -->
<g id="edge5" class="edge">
<title>Node4&#45;&gt;Node5</title>
<path fill="none" stroke="midnightblue" d="M436,-202.11C436,-193.15 436,-183.32 436,-175.58"/>
<polygon fill="midnightblue" stroke="midnightblue" points="432.5,-202.4 436,-212.4 439.5,-202.4 432.5,-202.4"/>
</g>
<!-- Node5&#45;&gt;Node6 -->
<g id="edge6" class="edge">
<title>Node5&#45;&gt;Node6</title>
<path fill="none" stroke="midnightblue" d="M457.18,-137.86C468.19,-126.61 481.34,-113.18 491.06,-103.25"/>
<polygon fill="midnightblue" stroke="midnightblue" points="454.46,-135.64 449.96,-145.23 459.46,-140.53 454.46,-135.64"/>
</g>
<!-- Node7 -->
<g id="node7" class="node">
<title>Node7</title>
<g id="a_node7"><a xlink:href="test_8cpp.html" target="_top" xlink:title=" ">
<polygon fill="white" stroke="black" points="271,-0.5 271,-30.5 415,-30.5 415,-0.5 271,-0.5"/>
<text text-anchor="start" x="279" y="-18.5" font-family="Helvetica,sans-Serif" font-size="10.00">/home/ram/OmniTemplate</text>
<text text-anchor="middle" x="343" y="-7.5" font-family="Helvetica,sans-Serif" font-size="10.00">/src/test/test.cpp</text>
</a>
</g>
</g>
<!-- Node5&#45;&gt;Node7 -->
<g id="edge8" class="edge">
<title>Node5&#45;&gt;Node7</title>
<path fill="none" stroke="midnightblue" d="M421.21,-136.76C401.81,-106.93 368.35,-55.48 352.22,-30.68"/>
<polygon fill="midnightblue" stroke="midnightblue" points="418.36,-138.79 426.74,-145.27 424.22,-134.97 418.36,-138.79"/>
</g>
<!-- Node6&#45;&gt;Node7 -->
<g id="edge7" class="edge">
<title>Node6&#45;&gt;Node7</title>
<path fill="none" stroke="midnightblue" d="M463.28,-68.84C435.89,-56.92 400.6,-41.57 375.34,-30.57"/>
<polygon fill="midnightblue" stroke="midnightblue" points="462.04,-72.12 472.61,-72.9 464.83,-65.7 462.04,-72.12"/>
</g>
<!-- Node8&#45;&gt;Node3 -->
<g id="edge11" class="edge">
<title>Node8&#45;&gt;Node3</title>
<path fill="none" stroke="midnightblue" d="M103.18,-207.02C119.36,-196.9 138.77,-184.77 153.48,-175.58"/>
<polygon fill="midnightblue" stroke="midnightblue" points="101.19,-204.13 94.57,-212.4 104.9,-210.06 101.19,-204.13"/>
</g>
<!-- Node9 -->
<g id="node9" class="node">
<title>Node9</title>
<g id="a_node9"><a xlink:href="test__hld_8hpp.html" target="_top" xlink:title=" ">
<polygon fill="white" stroke="black" points="36,-73 36,-103 186,-103 186,-73 36,-73"/>
<text text-anchor="start" x="44" y="-91" font-family="Helvetica,sans-Serif" font-size="10.00">/home/ram/OmniTemplate</text>
<text text-anchor="middle" x="111" y="-80" font-family="Helvetica,sans-Serif" font-size="10.00">/src/graph/tree/test_hld.hpp</text>
</a>
</g>
</g>
<!-- Node8&#45;&gt;Node9 -->
<g id="edge12" class="edge">
<title>Node8&#45;&gt;Node9</title>
<path fill="none" stroke="midnightblue" d="M78.72,-202.6C83.3,-186.35 89.5,-164.37 95,-145 99.03,-130.8 103.67,-114.58 106.91,-103.27"/>
<polygon fill="midnightblue" stroke="midnightblue" points="75.32,-201.79 75.97,-212.36 82.05,-203.68 75.32,-201.79"/>
</g>
<!-- Node9&#45;&gt;Node7 -->
<g id="edge13" class="edge">
<title>Node9&#45;&gt;Node7</title>
<path fill="none" stroke="midnightblue" d="M166.9,-70.01C206.58,-57.96 259.22,-41.96 296.58,-30.61"/>
<polygon fill="midnightblue" stroke="midnightblue" points="165.66,-66.73 157.11,-72.99 167.7,-73.43 165.66,-66.73"/>
</g>
<!-- Node10&#45;&gt;Node3 -->
<g id="edge15" class="edge">
<title>Node10&#45;&gt;Node3</title>
<path fill="none" stroke="midnightblue" d="M243.5,-206.73C228.49,-196.68 210.6,-184.68 197.01,-175.58"/>
<polygon fill="midnightblue" stroke="midnightblue" points="241.7,-209.74 251.95,-212.4 245.59,-203.92 241.7,-209.74"/>
</g>
<!-- Node11 -->
<g id="node11" class="node">
<title>Node11</title>
<g id="a_node11"><a xlink:href="test__graph__draw_8hpp.html" target="_top" xlink:title=" ">
<polygon fill="white" stroke="black" points="221,-67.5 221,-108.5 365,-108.5 365,-67.5 221,-67.5"/>
<text text-anchor="start" x="229" y="-96.5" font-family="Helvetica,sans-Serif" font-size="10.00">/home/ram/OmniTemplate</text>
<text text-anchor="start" x="229" y="-85.5" font-family="Helvetica,sans-Serif" font-size="10.00">/src/utility/test_graph</text>
<text text-anchor="middle" x="293" y="-74.5" font-family="Helvetica,sans-Serif" font-size="10.00">_draw.hpp</text>
</a>
</g>
</g>
<!-- Node10&#45;&gt;Node11 -->
<g id="edge16" class="edge">
<title>Node10&#45;&gt;Node11</title>
<path fill="none" stroke="midnightblue" d="M276.53,-202.26C280.4,-175.6 286.56,-133.28 290.15,-108.62"/>
<polygon fill="midnightblue" stroke="midnightblue" points="273.04,-201.9 275.07,-212.3 279.97,-202.91 273.04,-201.9"/>
</g>
<!-- Node11&#45;&gt;Node7 -->
<g id="edge17" class="edge">
<title>Node11&#45;&gt;Node7</title>
<path fill="none" stroke="midnightblue" d="M312.76,-59.14C319.62,-49.47 327.02,-39.02 332.79,-30.89"/>
<polygon fill="midnightblue" stroke="midnightblue" points="309.86,-57.18 306.93,-67.36 315.57,-61.23 309.86,-57.18"/>
</g>
<!-- Node12&#45;&gt;Node2 -->
<g id="edge19" class="edge">
<title>Node12&#45;&gt;Node2</title>
<path fill="none" stroke="midnightblue" d="M424.59,-340.73C409.12,-330.68 390.67,-318.68 376.66,-309.58"/>
<polygon fill="midnightblue" stroke="midnightblue" points="423.01,-343.88 433.3,-346.4 426.82,-338.01 423.01,-343.88"/>
</g>
<!-- Node12&#45;&gt;Node6 -->
<g id="edge20" class="edge">
<title>Node12&#45;&gt;Node6</title>
<path fill="none" stroke="midnightblue" d="M475.53,-338.9C495.17,-316.76 523.7,-280.36 537,-243 551.62,-201.91 554.55,-186.77 542,-145 537.3,-129.38 526.68,-114.09 518.01,-103.45"/>
<polygon fill="midnightblue" stroke="midnightblue" points="472.86,-336.63 468.74,-346.39 478.05,-341.33 472.86,-336.63"/>
</g>
</g>
</svg>
