<?xml version="1.0" encoding="UTF-8" standalone="no"?>
<!DOCTYPE svg PUBLIC "-//W3C//DTD SVG 1.1//EN"
 "http://www.w3.org/Graphics/SVG/1.1/DTD/svg11.dtd">
<!-- Generated by graphviz version 2.43.0 (0)
 -->
<!-- Title: std::operator&lt; Pages: 1 -->
<svg width="229pt" height="46pt"
 viewBox="0.00 0.00 229.00 46.00" xmlns="http://www.w3.org/2000/svg" xmlns:xlink="http://www.w3.org/1999/xlink">
<g id="graph0" class="graph" transform="scale(1 1) rotate(0) translate(4 42)">
<title>std::operator&lt;</title>
<polygon fill="white" stroke="transparent" points="-4,4 -4,-42 225,-42 225,4 -4,4"/>
<!-- Node1 -->
<g id="node1" class="node">
<title>Node1</title>
<g id="a_node1"><a xlink:title=" ">
<polygon fill="#bfbfbf" stroke="black" points="0,-0.5 0,-19.5 87,-19.5 87,-0.5 0,-0.5"/>
<text text-anchor="middle" x="43.5" y="-7.5" font-family="Helvetica,sans-Serif" font-size="10.00">std::operator&lt;</text>
</a>
</g>
</g>
<!-- Node1&#45;&gt;Node1 -->
<g id="edge2" class="edge">
<title>Node1&#45;&gt;Node1</title>
<path fill="none" stroke="midnightblue" d="M23.77,-19.76C14.17,-28.57 20.75,-38 43.5,-38 58.07,-38 66.01,-34.13 67.31,-29.03"/>
<polygon fill="midnightblue" stroke="midnightblue" points="70.46,-27.5 63.23,-19.76 64.05,-30.32 70.46,-27.5"/>
</g>
<!-- Node2 -->
<g id="node2" class="node">
<title>Node2</title>
<g id="a_node2"><a xlink:href="namespaceutility.html#a3bd1495c0bc9744b584e2294d8cb4693" target="_top" xlink:title=" ">
<polygon fill="white" stroke="black" points="123,-0.5 123,-19.5 221,-19.5 221,-0.5 123,-0.5"/>
<text text-anchor="middle" x="172" y="-7.5" font-family="Helvetica,sans-Serif" font-size="10.00">utility::map_args</text>
</a>
</g>
</g>
<!-- Node1&#45;&gt;Node2 -->
<g id="edge1" class="edge">
<title>Node1&#45;&gt;Node2</title>
<path fill="none" stroke="midnightblue" d="M87.33,-10C95.57,-10 104.33,-10 112.96,-10"/>
<polygon fill="midnightblue" stroke="midnightblue" points="113,-13.5 123,-10 113,-6.5 113,-13.5"/>
</g>
</g>
</svg>
