<?xml version="1.0" encoding="UTF-8" standalone="no"?>
<!DOCTYPE svg PUBLIC "-//W3C//DTD SVG 1.1//EN"
 "http://www.w3.org/Graphics/SVG/1.1/DTD/svg11.dtd">
<!-- Generated by graphviz version 2.43.0 (0)
 -->
<!-- Title: std::operator&lt; Pages: 1 -->
<svg width="196pt" height="46pt"
 viewBox="0.00 0.00 196.00 46.00" xmlns="http://www.w3.org/2000/svg" xmlns:xlink="http://www.w3.org/1999/xlink">
<g id="graph0" class="graph" transform="scale(1 1) rotate(0) translate(4 42)">
<title>std::operator&lt;</title>
<polygon fill="white" stroke="transparent" points="-4,4 -4,-42 192,-42 192,4 -4,4"/>
<!-- Node1 -->
<g id="node1" class="node">
<title>Node1</title>
<g id="a_node1"><a xlink:title=" ">
<polygon fill="#bfbfbf" stroke="black" points="0,-0.5 0,-19.5 87,-19.5 87,-0.5 0,-0.5"/>
<text text-anchor="middle" x="43.5" y="-7.5" font-family="Helvetica,sans-Serif" font-size="10.00">std::operator&lt;</text>
</a>
</g>
</g>
<!-- Node1&#45;&gt;Node1 -->
<g id="edge2" class="edge">
<title>Node1&#45;&gt;Node1</title>
<path fill="none" stroke="midnightblue" d="M26.24,-19.76C17.84,-28.57 23.59,-38 43.5,-38 55.94,-38 62.85,-34.31 64.24,-29.4"/>
<polygon fill="midnightblue" stroke="midnightblue" points="67.45,-27.98 60.76,-19.76 60.86,-30.35 67.45,-27.98"/>
</g>
<!-- Node2 -->
<g id="node2" class="node">
<title>Node2</title>
<g id="a_node2"><a xlink:href="utility_8hpp.html#a03511d4859cd518749f66a6af5391f92" target="_top" xlink:title=" ">
<polygon fill="white" stroke="black" points="123,-0.5 123,-19.5 188,-19.5 188,-0.5 123,-0.5"/>
<text text-anchor="middle" x="155.5" y="-7.5" font-family="Helvetica,sans-Serif" font-size="10.00">map_args</text>
</a>
</g>
</g>
<!-- Node1&#45;&gt;Node2 -->
<g id="edge1" class="edge">
<title>Node1&#45;&gt;Node2</title>
<path fill="none" stroke="midnightblue" d="M87.03,-10C95.36,-10 104.1,-10 112.41,-10"/>
<polygon fill="midnightblue" stroke="midnightblue" points="112.66,-13.5 122.66,-10 112.66,-6.5 112.66,-13.5"/>
</g>
</g>
</svg>
