<?xml version="1.0" encoding="UTF-8" standalone="no"?>
<!DOCTYPE svg PUBLIC "-//W3C//DTD SVG 1.1//EN"
 "http://www.w3.org/Graphics/SVG/1.1/DTD/svg11.dtd">
<!-- Generated by graphviz version 2.43.0 (0)
 -->
<!-- Title: /home/ram/OmniTemplate/src/utility/graph_draw.hpp Pages: 1 -->
<svg width="774pt" height="610pt"
 viewBox="0.00 0.00 773.50 610.00" xmlns="http://www.w3.org/2000/svg" xmlns:xlink="http://www.w3.org/1999/xlink">
<g id="graph0" class="graph" transform="scale(1 1) rotate(0) translate(4 606)">
<title>/home/ram/OmniTemplate/src/utility/graph_draw.hpp</title>
<polygon fill="white" stroke="transparent" points="-4,4 -4,-606 769.5,-606 769.5,4 -4,4"/>
<!-- Node1 -->
<g id="node1" class="node">
<title>Node1</title>
<g id="a_node1"><a xlink:title=" ">
<polygon fill="#bfbfbf" stroke="black" points="128.5,-571.5 128.5,-601.5 274.5,-601.5 274.5,-571.5 128.5,-571.5"/>
<text text-anchor="start" x="136.5" y="-589.5" font-family="Helvetica,sans-Serif" font-size="10.00">/home/ram/OmniTemplate</text>
<text text-anchor="middle" x="201.5" y="-578.5" font-family="Helvetica,sans-Serif" font-size="10.00">/src/utility/graph_draw.hpp</text>
</a>
</g>
</g>
<!-- Node2 -->
<g id="node2" class="node">
<title>Node2</title>
<g id="a_node2"><a xlink:href="core_2all_8hpp.html" target="_top" xlink:title=" ">
<polygon fill="white" stroke="black" points="357.5,-235.5 357.5,-254.5 431.5,-254.5 431.5,-235.5 357.5,-235.5"/>
<text text-anchor="middle" x="394.5" y="-242.5" font-family="Helvetica,sans-Serif" font-size="10.00">core/all.hpp</text>
</a>
</g>
</g>
<!-- Node1&#45;&gt;Node2 -->
<g id="edge1" class="edge">
<title>Node1&#45;&gt;Node2</title>
<path fill="none" stroke="midnightblue" d="M133.99,-571.44C82.19,-556.24 19.5,-526.23 19.5,-470 19.5,-470 19.5,-470 19.5,-356 19.5,-320.35 35.93,-309.35 66.5,-291 112.84,-263.19 268.1,-251.95 347.24,-247.95"/>
<polygon fill="midnightblue" stroke="midnightblue" points="347.61,-251.44 357.43,-247.45 347.27,-244.44 347.61,-251.44"/>
</g>
<!-- Node11 -->
<g id="node11" class="node">
<title>Node11</title>
<g id="a_node11"><a xlink:href="graph_2all_8hpp.html" target="_top" xlink:title=" ">
<polygon fill="white" stroke="black" points="345.5,-515.5 345.5,-534.5 425.5,-534.5 425.5,-515.5 345.5,-515.5"/>
<text text-anchor="middle" x="385.5" y="-522.5" font-family="Helvetica,sans-Serif" font-size="10.00">graph/all.hpp</text>
</a>
</g>
</g>
<!-- Node1&#45;&gt;Node11 -->
<g id="edge16" class="edge">
<title>Node1&#45;&gt;Node11</title>
<path fill="none" stroke="midnightblue" d="M245.11,-571.4C276.9,-561.12 319.47,-547.35 349.37,-537.68"/>
<polygon fill="midnightblue" stroke="midnightblue" points="350.56,-540.98 358.99,-534.57 348.4,-534.32 350.56,-540.98"/>
</g>
<!-- Node3 -->
<g id="node3" class="node">
<title>Node3</title>
<g id="a_node3"><a xlink:title=" ">
<polygon fill="white" stroke="#bfbfbf" points="0,-174 0,-193 83,-193 83,-174 0,-174"/>
<text text-anchor="middle" x="41.5" y="-181" font-family="Helvetica,sans-Serif" font-size="10.00">bits/stdc++.h</text>
</a>
</g>
</g>
<!-- Node2&#45;&gt;Node3 -->
<g id="edge2" class="edge">
<title>Node2&#45;&gt;Node3</title>
<path fill="none" stroke="midnightblue" d="M357.36,-240.12C299.94,-233.75 186.32,-219.69 91.5,-199 87.28,-198.08 82.89,-197 78.54,-195.84"/>
<polygon fill="midnightblue" stroke="midnightblue" points="79.15,-192.38 68.58,-193.07 77.27,-199.12 79.15,-192.38"/>
</g>
<!-- Node4 -->
<g id="node4" class="node">
<title>Node4</title>
<g id="a_node4"><a xlink:title=" ">
<polygon fill="white" stroke="#bfbfbf" points="101,-174 101,-193 222,-193 222,-174 101,-174"/>
<text text-anchor="middle" x="161.5" y="-181" font-family="Helvetica,sans-Serif" font-size="10.00">experimental/iterator</text>
</a>
</g>
</g>
<!-- Node2&#45;&gt;Node4 -->
<g id="edge3" class="edge">
<title>Node2&#45;&gt;Node4</title>
<path fill="none" stroke="midnightblue" d="M361.12,-235.48C319.94,-224.96 249.85,-207.06 204.63,-195.51"/>
<polygon fill="midnightblue" stroke="midnightblue" points="205.38,-192.09 194.82,-193.01 203.64,-198.87 205.38,-192.09"/>
</g>
<!-- Node5 -->
<g id="node5" class="node">
<title>Node5</title>
<g id="a_node5"><a xlink:title=" ">
<polygon fill="white" stroke="#bfbfbf" points="240,-168.5 240,-198.5 357,-198.5 357,-168.5 240,-168.5"/>
<text text-anchor="start" x="248" y="-186.5" font-family="Helvetica,sans-Serif" font-size="10.00">experimental/source</text>
<text text-anchor="middle" x="298.5" y="-175.5" font-family="Helvetica,sans-Serif" font-size="10.00">_location</text>
</a>
</g>
</g>
<!-- Node2&#45;&gt;Node5 -->
<g id="edge4" class="edge">
<title>Node2&#45;&gt;Node5</title>
<path fill="none" stroke="midnightblue" d="M380.75,-235.48C367.5,-227.27 347,-214.56 329.78,-203.88"/>
<polygon fill="midnightblue" stroke="midnightblue" points="331.47,-200.82 321.13,-198.52 327.78,-206.77 331.47,-200.82"/>
</g>
<!-- Node6 -->
<g id="node6" class="node">
<title>Node6</title>
<g id="a_node6"><a xlink:href="io_8hpp.html" target="_top" xlink:title=" ">
<polygon fill="white" stroke="black" points="470,-174 470,-193 517,-193 517,-174 470,-174"/>
<text text-anchor="middle" x="493.5" y="-181" font-family="Helvetica,sans-Serif" font-size="10.00">io.hpp</text>
</a>
</g>
</g>
<!-- Node2&#45;&gt;Node6 -->
<g id="edge5" class="edge">
<title>Node2&#45;&gt;Node6</title>
<path fill="none" stroke="midnightblue" d="M408.68,-235.48C424.86,-225.75 451.53,-209.73 470.64,-198.24"/>
<polygon fill="midnightblue" stroke="midnightblue" points="472.57,-201.16 479.34,-193.01 468.97,-195.16 472.57,-201.16"/>
</g>
<!-- Node7 -->
<g id="node7" class="node">
<title>Node7</title>
<g id="a_node7"><a xlink:href="debug_8hpp.html" target="_top" xlink:title=" ">
<polygon fill="white" stroke="black" points="440.5,-112.5 440.5,-131.5 508.5,-131.5 508.5,-112.5 440.5,-112.5"/>
<text text-anchor="middle" x="474.5" y="-119.5" font-family="Helvetica,sans-Serif" font-size="10.00">debug.hpp</text>
</a>
</g>
</g>
<!-- Node2&#45;&gt;Node7 -->
<g id="edge11" class="edge">
<title>Node2&#45;&gt;Node7</title>
<path fill="none" stroke="midnightblue" d="M400.25,-235.3C413.4,-215.41 445.84,-166.35 463.16,-140.15"/>
<polygon fill="midnightblue" stroke="midnightblue" points="466.2,-141.9 468.8,-131.62 460.36,-138.03 466.2,-141.9"/>
</g>
<!-- Node8 -->
<g id="node8" class="node">
<title>Node8</title>
<g id="a_node8"><a xlink:href="operations_8hpp.html" target="_top" xlink:title=" ">
<polygon fill="white" stroke="black" points="479,-56.5 479,-75.5 568,-75.5 568,-56.5 479,-56.5"/>
<text text-anchor="middle" x="523.5" y="-63.5" font-family="Helvetica,sans-Serif" font-size="10.00">operations.hpp</text>
</a>
</g>
</g>
<!-- Node2&#45;&gt;Node8 -->
<g id="edge12" class="edge">
<title>Node2&#45;&gt;Node8</title>
<path fill="none" stroke="midnightblue" d="M431.58,-242.45C462.34,-238.97 504.33,-228.65 525.5,-199 549.72,-165.08 538.52,-112.74 530,-85.27"/>
<polygon fill="midnightblue" stroke="midnightblue" points="533.31,-84.13 526.84,-75.74 526.67,-86.34 533.31,-84.13"/>
</g>
<!-- Node9 -->
<g id="node9" class="node">
<title>Node9</title>
<g id="a_node9"><a xlink:href="range_8hpp.html" target="_top" xlink:title=" ">
<polygon fill="white" stroke="black" points="418,-0.5 418,-19.5 483,-19.5 483,-0.5 418,-0.5"/>
<text text-anchor="middle" x="450.5" y="-7.5" font-family="Helvetica,sans-Serif" font-size="10.00">range.hpp</text>
</a>
</g>
</g>
<!-- Node2&#45;&gt;Node9 -->
<g id="edge13" class="edge">
<title>Node2&#45;&gt;Node9</title>
<path fill="none" stroke="midnightblue" d="M393.81,-235.43C397.01,-201.61 426.6,-76.95 442.19,-29.5"/>
<polygon fill="midnightblue" stroke="midnightblue" points="445.55,-30.49 445.56,-19.9 438.95,-28.17 445.55,-30.49"/>
</g>
<!-- Node10 -->
<g id="node10" class="node">
<title>Node10</title>
<g id="a_node10"><a xlink:href="utility_8hpp.html" target="_top" xlink:title=" ">
<polygon fill="white" stroke="black" points="574,-112.5 574,-131.5 639,-131.5 639,-112.5 574,-112.5"/>
<text text-anchor="middle" x="606.5" y="-119.5" font-family="Helvetica,sans-Serif" font-size="10.00">utility.hpp</text>
</a>
</g>
</g>
<!-- Node2&#45;&gt;Node10 -->
<g id="edge14" class="edge">
<title>Node2&#45;&gt;Node10</title>
<path fill="none" stroke="midnightblue" d="M431.66,-241.65C467.53,-237.7 521.8,-227.17 559.5,-199 579.26,-184.24 592.61,-158.5 599.88,-141.11"/>
<polygon fill="midnightblue" stroke="midnightblue" points="603.24,-142.12 603.63,-131.53 596.73,-139.57 603.24,-142.12"/>
</g>
<!-- Node6&#45;&gt;Node7 -->
<g id="edge6" class="edge">
<title>Node6&#45;&gt;Node7</title>
<path fill="none" stroke="midnightblue" d="M490.78,-173.98C488.07,-165.49 483.83,-152.2 480.35,-141.32"/>
<polygon fill="midnightblue" stroke="midnightblue" points="483.59,-139.97 477.22,-131.51 476.93,-142.1 483.59,-139.97"/>
</g>
<!-- Node7&#45;&gt;Node8 -->
<g id="edge7" class="edge">
<title>Node7&#45;&gt;Node8</title>
<path fill="none" stroke="midnightblue" d="M482.59,-112.08C489.66,-104.3 500.09,-92.8 508.65,-83.37"/>
<polygon fill="midnightblue" stroke="midnightblue" points="511.43,-85.51 515.56,-75.75 506.25,-80.8 511.43,-85.51"/>
</g>
<!-- Node7&#45;&gt;Node9 -->
<g id="edge10" class="edge">
<title>Node7&#45;&gt;Node9</title>
<path fill="none" stroke="midnightblue" d="M472.62,-112.37C468.74,-94.62 459.81,-53.67 454.56,-29.6"/>
<polygon fill="midnightblue" stroke="midnightblue" points="457.93,-28.62 452.37,-19.59 451.09,-30.11 457.93,-28.62"/>
</g>
<!-- Node8&#45;&gt;Node9 -->
<g id="edge8" class="edge">
<title>Node8&#45;&gt;Node9</title>
<path fill="none" stroke="midnightblue" d="M511.77,-56.32C500.66,-48.11 483.76,-35.6 470.52,-25.81"/>
<polygon fill="midnightblue" stroke="midnightblue" points="472.56,-22.97 462.44,-19.83 468.4,-28.59 472.56,-22.97"/>
</g>
<!-- Node9&#45;&gt;Node2 -->
<g id="edge9" class="edge">
<title>Node9&#45;&gt;Node2</title>
<path fill="none" stroke="midnightblue" d="M451.16,-19.9C447.8,-54.29 418.16,-179 402.66,-225.95"/>
<polygon fill="midnightblue" stroke="midnightblue" points="399.34,-224.84 399.31,-235.43 405.94,-227.17 399.34,-224.84"/>
</g>
<!-- Node10&#45;&gt;Node9 -->
<g id="edge15" class="edge">
<title>Node10&#45;&gt;Node9</title>
<path fill="none" stroke="midnightblue" d="M604.72,-112.13C601.49,-98.26 593.38,-71.43 576.5,-56 553.4,-34.87 519.69,-23.52 492.96,-17.5"/>
<polygon fill="midnightblue" stroke="midnightblue" points="493.59,-14.06 483.09,-15.45 492.17,-20.91 493.59,-14.06"/>
</g>
<!-- Node11&#45;&gt;Node2 -->
<g id="edge23" class="edge">
<title>Node11&#45;&gt;Node2</title>
<path fill="none" stroke="midnightblue" d="M425.67,-521.04C497.95,-515.24 646.74,-501 693.5,-479 732.51,-460.65 765.5,-457.11 765.5,-414 765.5,-414 765.5,-414 765.5,-356 765.5,-289.25 541.95,-259.85 441.91,-250.03"/>
<polygon fill="midnightblue" stroke="midnightblue" points="442.06,-246.53 431.77,-249.06 441.39,-253.5 442.06,-246.53"/>
</g>
<!-- Node12 -->
<g id="node12" class="node">
<title>Node12</title>
<g id="a_node12"><a xlink:href="linear__algebra_8hpp.html" target="_top" xlink:title=" ">
<polygon fill="white" stroke="black" points="136,-347.5 136,-366.5 283,-366.5 283,-347.5 136,-347.5"/>
<text text-anchor="middle" x="209.5" y="-354.5" font-family="Helvetica,sans-Serif" font-size="10.00">algebra/linear_algebra.hpp</text>
</a>
</g>
</g>
<!-- Node11&#45;&gt;Node12 -->
<g id="edge17" class="edge">
<title>Node11&#45;&gt;Node12</title>
<path fill="none" stroke="midnightblue" d="M345.48,-518.6C317.93,-512.97 282.16,-501.64 258.5,-479 229.26,-451.02 216.97,-403.2 212.21,-376.83"/>
<polygon fill="midnightblue" stroke="midnightblue" points="215.62,-375.98 210.56,-366.67 208.71,-377.1 215.62,-375.98"/>
</g>
<!-- Node15 -->
<g id="node15" class="node">
<title>Node15</title>
<g id="a_node15"><a xlink:href="dsu_8hpp.html" target="_top" xlink:title=" ">
<polygon fill="white" stroke="black" points="354,-347.5 354,-366.5 423,-366.5 423,-347.5 354,-347.5"/>
<text text-anchor="middle" x="388.5" y="-354.5" font-family="Helvetica,sans-Serif" font-size="10.00">ds/dsu.hpp</text>
</a>
</g>
</g>
<!-- Node11&#45;&gt;Node15 -->
<g id="edge24" class="edge">
<title>Node11&#45;&gt;Node15</title>
<path fill="none" stroke="midnightblue" d="M385.66,-515.08C386.13,-488.95 387.52,-412.21 388.16,-376.58"/>
<polygon fill="midnightblue" stroke="midnightblue" points="391.66,-376.63 388.35,-366.57 384.66,-376.5 391.66,-376.63"/>
</g>
<!-- Node16 -->
<g id="node16" class="node">
<title>Node16</title>
<g id="a_node16"><a xlink:href="biconnected_8hpp.html" target="_top" xlink:title=" ">
<polygon fill="white" stroke="black" points="588,-459.5 588,-478.5 685,-478.5 685,-459.5 588,-459.5"/>
<text text-anchor="middle" x="636.5" y="-466.5" font-family="Helvetica,sans-Serif" font-size="10.00">biconnected.hpp</text>
</a>
</g>
</g>
<!-- Node11&#45;&gt;Node16 -->
<g id="edge26" class="edge">
<title>Node11&#45;&gt;Node16</title>
<path fill="none" stroke="midnightblue" d="M425.27,-515.44C469.06,-506.02 539.51,-490.87 586.88,-480.68"/>
<polygon fill="midnightblue" stroke="midnightblue" points="587.87,-484.04 596.91,-478.52 586.4,-477.2 587.87,-484.04"/>
</g>
<!-- Node18 -->
<g id="node18" class="node">
<title>Node18</title>
<g id="a_node18"><a xlink:href="flow_8hpp.html" target="_top" xlink:title=" ">
<polygon fill="white" stroke="black" points="262.5,-403.5 262.5,-422.5 320.5,-422.5 320.5,-403.5 262.5,-403.5"/>
<text text-anchor="middle" x="291.5" y="-410.5" font-family="Helvetica,sans-Serif" font-size="10.00">flow.hpp</text>
</a>
</g>
</g>
<!-- Node11&#45;&gt;Node18 -->
<g id="edge30" class="edge">
<title>Node11&#45;&gt;Node18</title>
<path fill="none" stroke="midnightblue" d="M345.46,-520.38C318.26,-515.59 284.14,-504.53 266.5,-479 256.24,-464.15 266.45,-444.51 276.74,-430.72"/>
<polygon fill="midnightblue" stroke="midnightblue" points="279.73,-432.59 283.31,-422.62 274.29,-428.19 279.73,-432.59"/>
</g>
<!-- Node19 -->
<g id="node19" class="node">
<title>Node19</title>
<g id="a_node19"><a xlink:href="test__flow_8hpp.html" target="_top" xlink:title=" ">
<polygon fill="white" stroke="black" points="275.5,-459.5 275.5,-478.5 357.5,-478.5 357.5,-459.5 275.5,-459.5"/>
<text text-anchor="middle" x="316.5" y="-466.5" font-family="Helvetica,sans-Serif" font-size="10.00">test_flow.hpp</text>
</a>
</g>
</g>
<!-- Node11&#45;&gt;Node19 -->
<g id="edge33" class="edge">
<title>Node11&#45;&gt;Node19</title>
<path fill="none" stroke="midnightblue" d="M374.41,-515.32C364.01,-507.18 348.24,-494.84 335.78,-485.09"/>
<polygon fill="midnightblue" stroke="midnightblue" points="337.82,-482.24 327.79,-478.83 333.51,-487.75 337.82,-482.24"/>
</g>
<!-- Node20 -->
<g id="node20" class="node">
<title>Node20</title>
<g id="a_node20"><a xlink:href="tree_8hpp.html" target="_top" xlink:title=" ">
<polygon fill="white" stroke="black" points="413.5,-403.5 413.5,-422.5 493.5,-422.5 493.5,-403.5 413.5,-403.5"/>
<text text-anchor="middle" x="453.5" y="-410.5" font-family="Helvetica,sans-Serif" font-size="10.00">tree/tree.hpp</text>
</a>
</g>
</g>
<!-- Node11&#45;&gt;Node20 -->
<g id="edge35" class="edge">
<title>Node11&#45;&gt;Node20</title>
<path fill="none" stroke="midnightblue" d="M390.84,-515.37C402.01,-497.3 428.05,-455.18 442.8,-431.31"/>
<polygon fill="midnightblue" stroke="midnightblue" points="445.91,-432.94 448.19,-422.59 439.95,-429.26 445.91,-432.94"/>
</g>
<!-- Node21 -->
<g id="node21" class="node">
<title>Node21</title>
<g id="a_node21"><a xlink:href="bipartite_8hpp.html" target="_top" xlink:title=" ">
<polygon fill="white" stroke="black" points="480,-347.5 480,-366.5 559,-366.5 559,-347.5 480,-347.5"/>
<text text-anchor="middle" x="519.5" y="-354.5" font-family="Helvetica,sans-Serif" font-size="10.00">bipartite.hpp</text>
</a>
</g>
</g>
<!-- Node11&#45;&gt;Node21 -->
<g id="edge37" class="edge">
<title>Node11&#45;&gt;Node21</title>
<path fill="none" stroke="midnightblue" d="M400.23,-515.47C425.23,-500.22 475.82,-465.82 502.5,-423 511.27,-408.92 515.54,-390.43 517.61,-376.77"/>
<polygon fill="midnightblue" stroke="midnightblue" points="521.11,-376.99 518.87,-366.64 514.16,-376.13 521.11,-376.99"/>
</g>
<!-- Node12&#45;&gt;Node2 -->
<g id="edge18" class="edge">
<title>Node12&#45;&gt;Node2</title>
<path fill="none" stroke="midnightblue" d="M150.62,-347.5C103.95,-338.33 50.55,-320.88 76.5,-291 110.96,-251.31 267.14,-245.68 347.07,-245.46"/>
<polygon fill="midnightblue" stroke="midnightblue" points="347.35,-248.96 357.35,-245.46 347.35,-241.96 347.35,-248.96"/>
</g>
<!-- Node13 -->
<g id="node13" class="node">
<title>Node13</title>
<g id="a_node13"><a xlink:href="modulo_8hpp.html" target="_top" xlink:title=" ">
<polygon fill="white" stroke="black" points="85.5,-291.5 85.5,-310.5 237.5,-310.5 237.5,-291.5 85.5,-291.5"/>
<text text-anchor="middle" x="161.5" y="-298.5" font-family="Helvetica,sans-Serif" font-size="10.00">number_theory/modulo.hpp</text>
</a>
</g>
</g>
<!-- Node12&#45;&gt;Node13 -->
<g id="edge19" class="edge">
<title>Node12&#45;&gt;Node13</title>
<path fill="none" stroke="midnightblue" d="M201.57,-347.08C194.65,-339.3 184.43,-327.8 176.05,-318.37"/>
<polygon fill="midnightblue" stroke="midnightblue" points="178.54,-315.9 169.28,-310.75 173.31,-320.55 178.54,-315.9"/>
</g>
<!-- Node14 -->
<g id="node14" class="node">
<title>Node14</title>
<g id="a_node14"><a xlink:href="polynomial_8hpp.html" target="_top" xlink:title=" ">
<polygon fill="white" stroke="black" points="255.5,-291.5 255.5,-310.5 347.5,-310.5 347.5,-291.5 255.5,-291.5"/>
<text text-anchor="middle" x="301.5" y="-298.5" font-family="Helvetica,sans-Serif" font-size="10.00">polynomial.hpp</text>
</a>
</g>
</g>
<!-- Node12&#45;&gt;Node14 -->
<g id="edge21" class="edge">
<title>Node12&#45;&gt;Node14</title>
<path fill="none" stroke="midnightblue" d="M224.28,-347.32C238.77,-338.82 261.07,-325.73 277.99,-315.8"/>
<polygon fill="midnightblue" stroke="midnightblue" points="279.9,-318.74 286.76,-310.65 276.36,-312.7 279.9,-318.74"/>
</g>
<!-- Node13&#45;&gt;Node2 -->
<g id="edge20" class="edge">
<title>Node13&#45;&gt;Node2</title>
<path fill="none" stroke="midnightblue" d="M198.42,-291.44C238.9,-282.06 303.92,-266.99 347.88,-256.8"/>
<polygon fill="midnightblue" stroke="midnightblue" points="348.8,-260.18 357.75,-254.52 347.22,-253.36 348.8,-260.18"/>
</g>
<!-- Node14&#45;&gt;Node2 -->
<g id="edge22" class="edge">
<title>Node14&#45;&gt;Node2</title>
<path fill="none" stroke="midnightblue" d="M316.44,-291.32C331.09,-282.82 353.63,-269.73 370.74,-259.8"/>
<polygon fill="midnightblue" stroke="midnightblue" points="372.7,-262.7 379.6,-254.65 369.19,-256.65 372.7,-262.7"/>
</g>
<!-- Node15&#45;&gt;Node2 -->
<g id="edge25" class="edge">
<title>Node15&#45;&gt;Node2</title>
<path fill="none" stroke="midnightblue" d="M388.97,-347.37C389.94,-329.62 392.17,-288.67 393.49,-264.6"/>
<polygon fill="midnightblue" stroke="midnightblue" points="396.98,-264.77 394.03,-254.59 389.99,-264.39 396.98,-264.77"/>
</g>
<!-- Node16&#45;&gt;Node2 -->
<g id="edge27" class="edge">
<title>Node16&#45;&gt;Node2</title>
<path fill="none" stroke="midnightblue" d="M630.22,-459.23C623.93,-450.29 614.11,-435.95 606.5,-423 587.27,-390.26 592.28,-375.76 567.5,-347 529.68,-303.1 467.81,-273.56 429.21,-258.29"/>
<polygon fill="midnightblue" stroke="midnightblue" points="430.05,-254.86 419.46,-254.53 427.54,-261.39 430.05,-254.86"/>
</g>
<!-- Node17 -->
<g id="node17" class="node">
<title>Node17</title>
<g id="a_node17"><a xlink:href="test__biconnected_8hpp.html" target="_top" xlink:title=" ">
<polygon fill="white" stroke="black" points="616,-403.5 616,-422.5 737,-422.5 737,-403.5 616,-403.5"/>
<text text-anchor="middle" x="676.5" y="-410.5" font-family="Helvetica,sans-Serif" font-size="10.00">test_biconnected.hpp</text>
</a>
</g>
</g>
<!-- Node16&#45;&gt;Node17 -->
<g id="edge28" class="edge">
<title>Node16&#45;&gt;Node17</title>
<path fill="none" stroke="midnightblue" d="M637.94,-459.08C642.06,-451.3 650.21,-439.8 658.12,-430.37"/>
<polygon fill="midnightblue" stroke="midnightblue" points="660.86,-432.55 664.89,-422.75 655.63,-427.9 660.86,-432.55"/>
</g>
<!-- Node17&#45;&gt;Node16 -->
<g id="edge29" class="edge">
<title>Node17&#45;&gt;Node16</title>
<path fill="none" stroke="midnightblue" d="M675.15,-422.75C671.08,-430.48 662.96,-441.97 655.05,-451.43"/>
<polygon fill="midnightblue" stroke="midnightblue" points="652.29,-449.28 648.27,-459.08 657.52,-453.92 652.29,-449.28"/>
</g>
<!-- Node18&#45;&gt;Node2 -->
<g id="edge32" class="edge">
<title>Node18&#45;&gt;Node2</title>
<path fill="none" stroke="midnightblue" d="M297.19,-403.43C308.65,-386.12 335.23,-345.66 356.5,-311 366.2,-295.2 376.82,-276.95 384.36,-263.82"/>
<polygon fill="midnightblue" stroke="midnightblue" points="387.53,-265.32 389.46,-254.9 381.45,-261.85 387.53,-265.32"/>
</g>
<!-- Node18&#45;&gt;Node12 -->
<g id="edge31" class="edge">
<title>Node18&#45;&gt;Node12</title>
<path fill="none" stroke="midnightblue" d="M278.33,-403.32C265.65,-394.98 246.27,-382.21 231.29,-372.35"/>
<polygon fill="midnightblue" stroke="midnightblue" points="232.92,-369.23 222.64,-366.65 229.07,-375.08 232.92,-369.23"/>
</g>
<!-- Node19&#45;&gt;Node18 -->
<g id="edge34" class="edge">
<title>Node19&#45;&gt;Node18</title>
<path fill="none" stroke="midnightblue" d="M312.37,-459.08C308.99,-451.77 304.08,-441.18 299.88,-432.1"/>
<polygon fill="midnightblue" stroke="midnightblue" points="302.93,-430.36 295.55,-422.75 296.58,-433.3 302.93,-430.36"/>
</g>
<!-- Node20&#45;&gt;Node2 -->
<g id="edge36" class="edge">
<title>Node20&#45;&gt;Node2</title>
<path fill="none" stroke="midnightblue" d="M450.58,-403.14C446.43,-390.61 438.55,-367 431.5,-347 421.24,-317.89 408.81,-284.26 401.28,-264.09"/>
<polygon fill="midnightblue" stroke="midnightblue" points="404.52,-262.76 397.74,-254.62 397.96,-265.21 404.52,-262.76"/>
</g>
<!-- Node21&#45;&gt;Node2 -->
<g id="edge38" class="edge">
<title>Node21&#45;&gt;Node2</title>
<path fill="none" stroke="midnightblue" d="M513.6,-347.27C504.39,-334.05 485.55,-308.63 465.5,-291 451.56,-278.75 433.96,-267.57 419.76,-259.41"/>
<polygon fill="midnightblue" stroke="midnightblue" points="421.44,-256.34 411,-254.51 418.02,-262.45 421.44,-256.34"/>
</g>
</g>
</svg>
