<?xml version="1.0" encoding="UTF-8" standalone="no"?>
<!DOCTYPE svg PUBLIC "-//W3C//DTD SVG 1.1//EN"
 "http://www.w3.org/Graphics/SVG/1.1/DTD/svg11.dtd">
<!-- Generated by graphviz version 2.43.0 (0)
 -->
<!-- Title: /home/ram/OmniTemplate/src/graph/all.hpp Pages: 1 -->
<svg width="811pt" height="666pt"
 viewBox="0.00 0.00 810.50 666.00" xmlns="http://www.w3.org/2000/svg" xmlns:xlink="http://www.w3.org/1999/xlink">
<g id="graph0" class="graph" transform="scale(1 1) rotate(0) translate(4 662)">
<title>/home/ram/OmniTemplate/src/graph/all.hpp</title>
<polygon fill="white" stroke="transparent" points="-4,4 -4,-662 806.5,-662 806.5,4 -4,4"/>
<!-- Node1 -->
<g id="node1" class="node">
<title>Node1</title>
<g id="a_node1"><a xlink:title=" ">
<polygon fill="#bfbfbf" stroke="black" points="285.5,-627.5 285.5,-657.5 429.5,-657.5 429.5,-627.5 285.5,-627.5"/>
<text text-anchor="start" x="293.5" y="-645.5" font-family="Helvetica,sans-Serif" font-size="10.00">/home/ram/OmniTemplate</text>
<text text-anchor="middle" x="357.5" y="-634.5" font-family="Helvetica,sans-Serif" font-size="10.00">/src/graph/all.hpp</text>
</a>
</g>
</g>
<!-- Node2 -->
<g id="node2" class="node">
<title>Node2</title>
<g id="a_node2"><a xlink:href="$linear__algebra_8hpp.html" xlink:title=" ">
<polygon fill="white" stroke="black" points="234,-403.5 234,-422.5 381,-422.5 381,-403.5 234,-403.5"/>
<text text-anchor="middle" x="307.5" y="-410.5" font-family="Helvetica,sans-Serif" font-size="10.00">algebra/linear_algebra.hpp</text>
</a>
</g>
</g>
<!-- Node1&#45;&gt;Node2 -->
<g id="edge1" class="edge">
<title>Node1&#45;&gt;Node2</title>
<path fill="none" stroke="midnightblue" d="M285.29,-628.4C259.45,-620.88 231.54,-609.16 210.5,-591 189.28,-572.69 188.13,-562.23 181.5,-535 168.81,-482.9 233.76,-445.04 275.16,-426.61"/>
<polygon fill="midnightblue" stroke="midnightblue" points="276.8,-429.72 284.6,-422.56 274.03,-423.28 276.8,-429.72"/>
</g>
<!-- Node3 -->
<g id="node3" class="node">
<title>Node3</title>
<g id="a_node3"><a xlink:href="$core_2all_8hpp.html" xlink:title=" ">
<polygon fill="white" stroke="black" points="357.5,-235.5 357.5,-254.5 431.5,-254.5 431.5,-235.5 357.5,-235.5"/>
<text text-anchor="middle" x="394.5" y="-242.5" font-family="Helvetica,sans-Serif" font-size="10.00">core/all.hpp</text>
</a>
</g>
</g>
<!-- Node1&#45;&gt;Node3 -->
<g id="edge34" class="edge">
<title>Node1&#45;&gt;Node3</title>
<path fill="none" stroke="midnightblue" d="M285.23,-640.52C204.95,-635.15 86.5,-612.56 86.5,-526 86.5,-526 86.5,-526 86.5,-356 86.5,-313.87 117.95,-310.11 155.5,-291 216.8,-259.8 296.87,-250.08 346.99,-247.15"/>
<polygon fill="midnightblue" stroke="midnightblue" points="347.41,-250.63 357.22,-246.62 347.05,-243.64 347.41,-250.63"/>
</g>
<!-- Node14 -->
<g id="node14" class="node">
<title>Node14</title>
<g id="a_node14"><a xlink:href="$biconnected_8hpp.html" xlink:title=" ">
<polygon fill="white" stroke="black" points="557,-515.5 557,-534.5 654,-534.5 654,-515.5 557,-515.5"/>
<text text-anchor="middle" x="605.5" y="-522.5" font-family="Helvetica,sans-Serif" font-size="10.00">biconnected.hpp</text>
</a>
</g>
</g>
<!-- Node1&#45;&gt;Node14 -->
<g id="edge22" class="edge">
<title>Node1&#45;&gt;Node14</title>
<path fill="none" stroke="midnightblue" d="M429.9,-629.64C464.08,-621.97 504.51,-609.81 537.5,-591 559.56,-578.42 579.91,-557.15 592.48,-542.38"/>
<polygon fill="midnightblue" stroke="midnightblue" points="595.28,-544.49 598.95,-534.55 589.88,-540.03 595.28,-544.49"/>
</g>
<!-- Node15 -->
<g id="node15" class="node">
<title>Node15</title>
<g id="a_node15"><a xlink:href="$core_8hpp.html" xlink:title=" ">
<polygon fill="white" stroke="black" points="336,-459.5 336,-478.5 425,-478.5 425,-459.5 336,-459.5"/>
<text text-anchor="middle" x="380.5" y="-466.5" font-family="Helvetica,sans-Serif" font-size="10.00">graph/core.hpp</text>
</a>
</g>
</g>
<!-- Node1&#45;&gt;Node15 -->
<g id="edge33" class="edge">
<title>Node1&#45;&gt;Node15</title>
<path fill="none" stroke="midnightblue" d="M359.38,-627.47C363.51,-596.7 373.35,-523.33 377.99,-488.7"/>
<polygon fill="midnightblue" stroke="midnightblue" points="381.49,-488.94 379.35,-478.56 374.55,-488.01 381.49,-488.94"/>
</g>
<!-- Node16 -->
<g id="node16" class="node">
<title>Node16</title>
<g id="a_node16"><a xlink:href="$dsu_8hpp.html" xlink:title=" ">
<polygon fill="white" stroke="black" points="502,-403.5 502,-422.5 571,-422.5 571,-403.5 502,-403.5"/>
<text text-anchor="middle" x="536.5" y="-410.5" font-family="Helvetica,sans-Serif" font-size="10.00">ds/dsu.hpp</text>
</a>
</g>
</g>
<!-- Node1&#45;&gt;Node16 -->
<g id="edge35" class="edge">
<title>Node1&#45;&gt;Node16</title>
<path fill="none" stroke="midnightblue" d="M387.39,-627.48C420.7,-610.32 473.77,-578.14 503.5,-535 525.25,-503.44 532.69,-458.07 535.22,-432.8"/>
<polygon fill="midnightblue" stroke="midnightblue" points="538.72,-432.99 536.07,-422.73 531.74,-432.4 538.72,-432.99"/>
</g>
<!-- Node18 -->
<g id="node18" class="node">
<title>Node18</title>
<g id="a_node18"><a xlink:href="$bipartite_8hpp.html" xlink:title=" ">
<polygon fill="white" stroke="black" points="191,-515.5 191,-534.5 270,-534.5 270,-515.5 191,-515.5"/>
<text text-anchor="middle" x="230.5" y="-522.5" font-family="Helvetica,sans-Serif" font-size="10.00">bipartite.hpp</text>
</a>
</g>
</g>
<!-- Node1&#45;&gt;Node18 -->
<g id="edge30" class="edge">
<title>Node1&#45;&gt;Node18</title>
<path fill="none" stroke="midnightblue" d="M285.4,-632.23C260.32,-625.16 234.7,-612.75 219.5,-591 209.9,-577.26 214.88,-557.97 220.91,-543.97"/>
<polygon fill="midnightblue" stroke="midnightblue" points="224.1,-545.4 225.28,-534.87 217.79,-542.37 224.1,-545.4"/>
</g>
<!-- Node19 -->
<g id="node19" class="node">
<title>Node19</title>
<g id="a_node19"><a xlink:href="$flow_8hpp.html" xlink:title=" ">
<polygon fill="white" stroke="black" points="287.5,-515.5 287.5,-534.5 345.5,-534.5 345.5,-515.5 287.5,-515.5"/>
<text text-anchor="middle" x="316.5" y="-522.5" font-family="Helvetica,sans-Serif" font-size="10.00">flow.hpp</text>
</a>
</g>
</g>
<!-- Node1&#45;&gt;Node19 -->
<g id="edge36" class="edge">
<title>Node1&#45;&gt;Node19</title>
<path fill="none" stroke="midnightblue" d="M352.47,-627.34C345.05,-606.43 331.16,-567.31 322.99,-544.27"/>
<polygon fill="midnightblue" stroke="midnightblue" points="326.22,-542.92 319.58,-534.67 319.62,-545.26 326.22,-542.92"/>
</g>
<!-- Node20 -->
<g id="node20" class="node">
<title>Node20</title>
<g id="a_node20"><a xlink:href="$graph__view_8hpp.html" xlink:title=" ">
<polygon fill="white" stroke="black" points="402,-515.5 402,-534.5 495,-534.5 495,-515.5 402,-515.5"/>
<text text-anchor="middle" x="448.5" y="-522.5" font-family="Helvetica,sans-Serif" font-size="10.00">graph_view.hpp</text>
</a>
</g>
</g>
<!-- Node1&#45;&gt;Node20 -->
<g id="edge40" class="edge">
<title>Node1&#45;&gt;Node20</title>
<path fill="none" stroke="midnightblue" d="M368.66,-627.34C385.5,-605.96 417.36,-565.53 435.32,-542.73"/>
<polygon fill="midnightblue" stroke="midnightblue" points="438.23,-544.69 441.67,-534.67 432.73,-540.36 438.23,-544.69"/>
</g>
<!-- Node21 -->
<g id="node21" class="node">
<title>Node21</title>
<g id="a_node21"><a xlink:href="$test__flow_8hpp.html" xlink:title=" ">
<polygon fill="white" stroke="black" points="228.5,-571.5 228.5,-590.5 310.5,-590.5 310.5,-571.5 228.5,-571.5"/>
<text text-anchor="middle" x="269.5" y="-578.5" font-family="Helvetica,sans-Serif" font-size="10.00">test_flow.hpp</text>
</a>
</g>
</g>
<!-- Node1&#45;&gt;Node21 -->
<g id="edge43" class="edge">
<title>Node1&#45;&gt;Node21</title>
<path fill="none" stroke="midnightblue" d="M336.65,-627.4C322.8,-618.04 304.69,-605.79 290.76,-596.38"/>
<polygon fill="midnightblue" stroke="midnightblue" points="292.55,-593.36 282.3,-590.66 288.63,-599.16 292.55,-593.36"/>
</g>
<!-- Node22 -->
<g id="node22" class="node">
<title>Node22</title>
<g id="a_node22"><a xlink:href="$tree_8hpp.html" xlink:title=" ">
<polygon fill="white" stroke="black" points="722.5,-347.5 722.5,-366.5 802.5,-366.5 802.5,-347.5 722.5,-347.5"/>
<text text-anchor="middle" x="762.5" y="-354.5" font-family="Helvetica,sans-Serif" font-size="10.00">tree/tree.hpp</text>
</a>
</g>
</g>
<!-- Node1&#45;&gt;Node22 -->
<g id="edge45" class="edge">
<title>Node1&#45;&gt;Node22</title>
<path fill="none" stroke="midnightblue" d="M429.94,-634.95C542.73,-622.72 747.5,-591.5 747.5,-526 747.5,-526 747.5,-526 747.5,-468 747.5,-435.5 754.01,-398.1 758.45,-376.34"/>
<polygon fill="midnightblue" stroke="midnightblue" points="761.89,-377.01 760.54,-366.5 755.04,-375.56 761.89,-377.01"/>
</g>
<!-- Node2&#45;&gt;Node3 -->
<g id="edge2" class="edge">
<title>Node2&#45;&gt;Node3</title>
<path fill="none" stroke="midnightblue" d="M298.48,-403.39C277.73,-382.56 230.44,-328.37 257.5,-291 277.81,-262.94 316.19,-252.07 347.17,-248"/>
<polygon fill="midnightblue" stroke="midnightblue" points="347.8,-251.45 357.35,-246.87 347.03,-244.5 347.8,-251.45"/>
</g>
<!-- Node12 -->
<g id="node12" class="node">
<title>Node12</title>
<g id="a_node12"><a xlink:href="$modulo_8hpp.html" xlink:title=" ">
<polygon fill="white" stroke="black" points="266.5,-291.5 266.5,-310.5 418.5,-310.5 418.5,-291.5 266.5,-291.5"/>
<text text-anchor="middle" x="342.5" y="-298.5" font-family="Helvetica,sans-Serif" font-size="10.00">number_theory/modulo.hpp</text>
</a>
</g>
</g>
<!-- Node2&#45;&gt;Node12 -->
<g id="edge17" class="edge">
<title>Node2&#45;&gt;Node12</title>
<path fill="none" stroke="midnightblue" d="M309.92,-403.12C313.39,-390.56 320.06,-366.91 326.5,-347 329.38,-338.11 332.82,-328.34 335.77,-320.17"/>
<polygon fill="midnightblue" stroke="midnightblue" points="339.13,-321.17 339.29,-310.58 332.56,-318.76 339.13,-321.17"/>
</g>
<!-- Node13 -->
<g id="node13" class="node">
<title>Node13</title>
<g id="a_node13"><a xlink:href="$polynomial_8hpp.html" xlink:title=" ">
<polygon fill="white" stroke="black" points="335.5,-347.5 335.5,-366.5 427.5,-366.5 427.5,-347.5 335.5,-347.5"/>
<text text-anchor="middle" x="381.5" y="-354.5" font-family="Helvetica,sans-Serif" font-size="10.00">polynomial.hpp</text>
</a>
</g>
</g>
<!-- Node2&#45;&gt;Node13 -->
<g id="edge19" class="edge">
<title>Node2&#45;&gt;Node13</title>
<path fill="none" stroke="midnightblue" d="M319.39,-403.32C330.65,-395.11 347.79,-382.6 361.21,-372.81"/>
<polygon fill="midnightblue" stroke="midnightblue" points="363.38,-375.56 369.39,-366.83 359.25,-369.9 363.38,-375.56"/>
</g>
<!-- Node4 -->
<g id="node4" class="node">
<title>Node4</title>
<g id="a_node4"><a xlink:title=" ">
<polygon fill="white" stroke="#bfbfbf" points="0,-174 0,-193 83,-193 83,-174 0,-174"/>
<text text-anchor="middle" x="41.5" y="-181" font-family="Helvetica,sans-Serif" font-size="10.00">bits/stdc++.h</text>
</a>
</g>
</g>
<!-- Node3&#45;&gt;Node4 -->
<g id="edge3" class="edge">
<title>Node3&#45;&gt;Node4</title>
<path fill="none" stroke="midnightblue" d="M357.36,-240.12C299.94,-233.75 186.32,-219.69 91.5,-199 87.28,-198.08 82.89,-197 78.54,-195.84"/>
<polygon fill="midnightblue" stroke="midnightblue" points="79.15,-192.38 68.58,-193.07 77.27,-199.12 79.15,-192.38"/>
</g>
<!-- Node5 -->
<g id="node5" class="node">
<title>Node5</title>
<g id="a_node5"><a xlink:title=" ">
<polygon fill="white" stroke="#bfbfbf" points="101,-174 101,-193 222,-193 222,-174 101,-174"/>
<text text-anchor="middle" x="161.5" y="-181" font-family="Helvetica,sans-Serif" font-size="10.00">experimental/iterator</text>
</a>
</g>
</g>
<!-- Node3&#45;&gt;Node5 -->
<g id="edge4" class="edge">
<title>Node3&#45;&gt;Node5</title>
<path fill="none" stroke="midnightblue" d="M361.12,-235.48C319.94,-224.96 249.85,-207.06 204.63,-195.51"/>
<polygon fill="midnightblue" stroke="midnightblue" points="205.38,-192.09 194.82,-193.01 203.64,-198.87 205.38,-192.09"/>
</g>
<!-- Node6 -->
<g id="node6" class="node">
<title>Node6</title>
<g id="a_node6"><a xlink:title=" ">
<polygon fill="white" stroke="#bfbfbf" points="240,-168.5 240,-198.5 357,-198.5 357,-168.5 240,-168.5"/>
<text text-anchor="start" x="248" y="-186.5" font-family="Helvetica,sans-Serif" font-size="10.00">experimental/source</text>
<text text-anchor="middle" x="298.5" y="-175.5" font-family="Helvetica,sans-Serif" font-size="10.00">_location</text>
</a>
</g>
</g>
<!-- Node3&#45;&gt;Node6 -->
<g id="edge5" class="edge">
<title>Node3&#45;&gt;Node6</title>
<path fill="none" stroke="midnightblue" d="M380.75,-235.48C367.5,-227.27 347,-214.56 329.78,-203.88"/>
<polygon fill="midnightblue" stroke="midnightblue" points="331.47,-200.82 321.13,-198.52 327.78,-206.77 331.47,-200.82"/>
</g>
<!-- Node7 -->
<g id="node7" class="node">
<title>Node7</title>
<g id="a_node7"><a xlink:href="$debug_8hpp.html" xlink:title=" ">
<polygon fill="white" stroke="black" points="440.5,-112.5 440.5,-131.5 508.5,-131.5 508.5,-112.5 440.5,-112.5"/>
<text text-anchor="middle" x="474.5" y="-119.5" font-family="Helvetica,sans-Serif" font-size="10.00">debug.hpp</text>
</a>
</g>
</g>
<!-- Node3&#45;&gt;Node7 -->
<g id="edge6" class="edge">
<title>Node3&#45;&gt;Node7</title>
<path fill="none" stroke="midnightblue" d="M400.25,-235.3C413.4,-215.41 445.84,-166.35 463.16,-140.15"/>
<polygon fill="midnightblue" stroke="midnightblue" points="466.2,-141.9 468.8,-131.62 460.36,-138.03 466.2,-141.9"/>
</g>
<!-- Node8 -->
<g id="node8" class="node">
<title>Node8</title>
<g id="a_node8"><a xlink:href="$operations_8hpp.html" xlink:title=" ">
<polygon fill="white" stroke="black" points="479,-56.5 479,-75.5 568,-75.5 568,-56.5 479,-56.5"/>
<text text-anchor="middle" x="523.5" y="-63.5" font-family="Helvetica,sans-Serif" font-size="10.00">operations.hpp</text>
</a>
</g>
</g>
<!-- Node3&#45;&gt;Node8 -->
<g id="edge13" class="edge">
<title>Node3&#45;&gt;Node8</title>
<path fill="none" stroke="midnightblue" d="M431.58,-242.45C462.34,-238.97 504.33,-228.65 525.5,-199 549.72,-165.08 538.52,-112.74 530,-85.27"/>
<polygon fill="midnightblue" stroke="midnightblue" points="533.31,-84.13 526.84,-75.74 526.67,-86.34 533.31,-84.13"/>
</g>
<!-- Node9 -->
<g id="node9" class="node">
<title>Node9</title>
<g id="a_node9"><a xlink:href="$range_8hpp.html" xlink:title=" ">
<polygon fill="white" stroke="black" points="418,-0.5 418,-19.5 483,-19.5 483,-0.5 418,-0.5"/>
<text text-anchor="middle" x="450.5" y="-7.5" font-family="Helvetica,sans-Serif" font-size="10.00">range.hpp</text>
</a>
</g>
</g>
<!-- Node3&#45;&gt;Node9 -->
<g id="edge14" class="edge">
<title>Node3&#45;&gt;Node9</title>
<path fill="none" stroke="midnightblue" d="M393.81,-235.43C397.01,-201.61 426.6,-76.95 442.19,-29.5"/>
<polygon fill="midnightblue" stroke="midnightblue" points="445.55,-30.49 445.56,-19.9 438.95,-28.17 445.55,-30.49"/>
</g>
<!-- Node10 -->
<g id="node10" class="node">
<title>Node10</title>
<g id="a_node10"><a xlink:href="$io_8hpp.html" xlink:title=" ">
<polygon fill="white" stroke="black" points="470,-174 470,-193 517,-193 517,-174 470,-174"/>
<text text-anchor="middle" x="493.5" y="-181" font-family="Helvetica,sans-Serif" font-size="10.00">io.hpp</text>
</a>
</g>
</g>
<!-- Node3&#45;&gt;Node10 -->
<g id="edge11" class="edge">
<title>Node3&#45;&gt;Node10</title>
<path fill="none" stroke="midnightblue" d="M408.68,-235.48C424.86,-225.75 451.53,-209.73 470.64,-198.24"/>
<polygon fill="midnightblue" stroke="midnightblue" points="472.57,-201.16 479.34,-193.01 468.97,-195.16 472.57,-201.16"/>
</g>
<!-- Node11 -->
<g id="node11" class="node">
<title>Node11</title>
<g id="a_node11"><a xlink:href="$utility_8hpp.html" xlink:title=" ">
<polygon fill="white" stroke="black" points="574,-112.5 574,-131.5 639,-131.5 639,-112.5 574,-112.5"/>
<text text-anchor="middle" x="606.5" y="-119.5" font-family="Helvetica,sans-Serif" font-size="10.00">utility.hpp</text>
</a>
</g>
</g>
<!-- Node3&#45;&gt;Node11 -->
<g id="edge15" class="edge">
<title>Node3&#45;&gt;Node11</title>
<path fill="none" stroke="midnightblue" d="M431.66,-241.65C467.53,-237.7 521.8,-227.17 559.5,-199 579.26,-184.24 592.61,-158.5 599.88,-141.11"/>
<polygon fill="midnightblue" stroke="midnightblue" points="603.24,-142.12 603.63,-131.53 596.73,-139.57 603.24,-142.12"/>
</g>
<!-- Node7&#45;&gt;Node8 -->
<g id="edge7" class="edge">
<title>Node7&#45;&gt;Node8</title>
<path fill="none" stroke="midnightblue" d="M482.59,-112.08C489.66,-104.3 500.09,-92.8 508.65,-83.37"/>
<polygon fill="midnightblue" stroke="midnightblue" points="511.43,-85.51 515.56,-75.75 506.25,-80.8 511.43,-85.51"/>
</g>
<!-- Node7&#45;&gt;Node9 -->
<g id="edge10" class="edge">
<title>Node7&#45;&gt;Node9</title>
<path fill="none" stroke="midnightblue" d="M472.62,-112.37C468.74,-94.62 459.81,-53.67 454.56,-29.6"/>
<polygon fill="midnightblue" stroke="midnightblue" points="457.93,-28.62 452.37,-19.59 451.09,-30.11 457.93,-28.62"/>
</g>
<!-- Node8&#45;&gt;Node9 -->
<g id="edge8" class="edge">
<title>Node8&#45;&gt;Node9</title>
<path fill="none" stroke="midnightblue" d="M511.77,-56.32C500.66,-48.11 483.76,-35.6 470.52,-25.81"/>
<polygon fill="midnightblue" stroke="midnightblue" points="472.56,-22.97 462.44,-19.83 468.4,-28.59 472.56,-22.97"/>
</g>
<!-- Node9&#45;&gt;Node3 -->
<g id="edge9" class="edge">
<title>Node9&#45;&gt;Node3</title>
<path fill="none" stroke="midnightblue" d="M451.16,-19.9C447.8,-54.29 418.16,-179 402.66,-225.95"/>
<polygon fill="midnightblue" stroke="midnightblue" points="399.34,-224.84 399.31,-235.43 405.94,-227.17 399.34,-224.84"/>
</g>
<!-- Node10&#45;&gt;Node7 -->
<g id="edge12" class="edge">
<title>Node10&#45;&gt;Node7</title>
<path fill="none" stroke="midnightblue" d="M490.78,-173.98C488.07,-165.49 483.83,-152.2 480.35,-141.32"/>
<polygon fill="midnightblue" stroke="midnightblue" points="483.59,-139.97 477.22,-131.51 476.93,-142.1 483.59,-139.97"/>
</g>
<!-- Node11&#45;&gt;Node9 -->
<g id="edge16" class="edge">
<title>Node11&#45;&gt;Node9</title>
<path fill="none" stroke="midnightblue" d="M604.72,-112.13C601.49,-98.26 593.38,-71.43 576.5,-56 553.4,-34.87 519.69,-23.52 492.96,-17.5"/>
<polygon fill="midnightblue" stroke="midnightblue" points="493.59,-14.06 483.09,-15.45 492.17,-20.91 493.59,-14.06"/>
</g>
<!-- Node12&#45;&gt;Node3 -->
<g id="edge18" class="edge">
<title>Node12&#45;&gt;Node3</title>
<path fill="none" stroke="midnightblue" d="M351.09,-291.08C358.66,-283.22 369.88,-271.57 379.01,-262.08"/>
<polygon fill="midnightblue" stroke="midnightblue" points="381.66,-264.38 386.07,-254.75 376.62,-259.53 381.66,-264.38"/>
</g>
<!-- Node13&#45;&gt;Node3 -->
<g id="edge20" class="edge">
<title>Node13&#45;&gt;Node3</title>
<path fill="none" stroke="midnightblue" d="M395.29,-347.19C406.33,-339.24 421,-326.45 427.5,-311 434.73,-293.8 422.7,-274.86 411.18,-261.88"/>
<polygon fill="midnightblue" stroke="midnightblue" points="413.7,-259.45 404.26,-254.64 408.64,-264.29 413.7,-259.45"/>
</g>
<!-- Node13&#45;&gt;Node12 -->
<g id="edge21" class="edge">
<title>Node13&#45;&gt;Node12</title>
<path fill="none" stroke="midnightblue" d="M375.06,-347.08C369.55,-339.46 361.47,-328.26 354.74,-318.94"/>
<polygon fill="midnightblue" stroke="midnightblue" points="357.51,-316.81 348.82,-310.75 351.84,-320.91 357.51,-316.81"/>
</g>
<!-- Node14&#45;&gt;Node3 -->
<g id="edge23" class="edge">
<title>Node14&#45;&gt;Node3</title>
<path fill="none" stroke="midnightblue" d="M625.81,-515.45C641.26,-507.97 661.94,-495.68 674.5,-479 692.69,-454.86 694.5,-444.23 694.5,-414 694.5,-414 694.5,-414 694.5,-356 694.5,-302.81 526.19,-267.59 441.7,-253.26"/>
<polygon fill="midnightblue" stroke="midnightblue" points="442.03,-249.76 431.59,-251.57 440.88,-256.67 442.03,-249.76"/>
</g>
<!-- Node14&#45;&gt;Node15 -->
<g id="edge24" class="edge">
<title>Node14&#45;&gt;Node15</title>
<path fill="none" stroke="midnightblue" d="M569.85,-515.44C530.84,-506.08 468.23,-491.06 425.78,-480.87"/>
<polygon fill="midnightblue" stroke="midnightblue" points="426.53,-477.45 415.99,-478.52 424.89,-484.25 426.53,-477.45"/>
</g>
<!-- Node17 -->
<g id="node17" class="node">
<title>Node17</title>
<g id="a_node17"><a xlink:href="$test__biconnected_8hpp.html" xlink:title=" ">
<polygon fill="white" stroke="black" points="545,-459.5 545,-478.5 666,-478.5 666,-459.5 545,-459.5"/>
<text text-anchor="middle" x="605.5" y="-466.5" font-family="Helvetica,sans-Serif" font-size="10.00">test_biconnected.hpp</text>
</a>
</g>
</g>
<!-- Node14&#45;&gt;Node17 -->
<g id="edge28" class="edge">
<title>Node14&#45;&gt;Node17</title>
<path fill="none" stroke="midnightblue" d="M600.33,-515.08C598.82,-507.93 598.39,-497.64 599.04,-488.69"/>
<polygon fill="midnightblue" stroke="midnightblue" points="602.52,-489.13 600.37,-478.75 595.58,-488.2 602.52,-489.13"/>
</g>
<!-- Node15&#45;&gt;Node2 -->
<g id="edge27" class="edge">
<title>Node15&#45;&gt;Node2</title>
<path fill="none" stroke="midnightblue" d="M368.77,-459.32C357.66,-451.11 340.76,-438.6 327.52,-428.81"/>
<polygon fill="midnightblue" stroke="midnightblue" points="329.56,-425.97 319.44,-422.83 325.4,-431.59 329.56,-425.97"/>
</g>
<!-- Node15&#45;&gt;Node16 -->
<g id="edge25" class="edge">
<title>Node15&#45;&gt;Node16</title>
<path fill="none" stroke="midnightblue" d="M405.22,-459.44C431.35,-450.4 472.76,-436.06 502.08,-425.92"/>
<polygon fill="midnightblue" stroke="midnightblue" points="503.59,-429.1 511.9,-422.52 501.3,-422.48 503.59,-429.1"/>
</g>
<!-- Node16&#45;&gt;Node3 -->
<g id="edge26" class="edge">
<title>Node16&#45;&gt;Node3</title>
<path fill="none" stroke="midnightblue" d="M536.17,-403.5C534.91,-381.95 528.71,-324.53 498.5,-291 483.51,-274.36 461.27,-263.62 441.21,-256.82"/>
<polygon fill="midnightblue" stroke="midnightblue" points="442.17,-253.45 431.58,-253.79 440.07,-260.13 442.17,-253.45"/>
</g>
<!-- Node17&#45;&gt;Node14 -->
<g id="edge29" class="edge">
<title>Node17&#45;&gt;Node14</title>
<path fill="none" stroke="midnightblue" d="M610.63,-478.75C612.16,-485.86 612.6,-496.14 611.97,-505.1"/>
<polygon fill="midnightblue" stroke="midnightblue" points="608.49,-504.71 610.67,-515.08 615.43,-505.62 608.49,-504.71"/>
</g>
<!-- Node18&#45;&gt;Node3 -->
<g id="edge31" class="edge">
<title>Node18&#45;&gt;Node3</title>
<path fill="none" stroke="midnightblue" d="M212.04,-515.39C181.67,-499.81 124.5,-463.86 124.5,-414 124.5,-414 124.5,-414 124.5,-356 124.5,-307.02 169.13,-311.74 213.5,-291 256.54,-270.88 309.69,-259.05 347.23,-252.6"/>
<polygon fill="midnightblue" stroke="midnightblue" points="348.09,-256.01 357.38,-250.93 346.95,-249.1 348.09,-256.01"/>
</g>
<!-- Node18&#45;&gt;Node15 -->
<g id="edge32" class="edge">
<title>Node18&#45;&gt;Node15</title>
<path fill="none" stroke="midnightblue" d="M254.27,-515.44C279.39,-506.4 319.21,-492.06 347.4,-481.92"/>
<polygon fill="midnightblue" stroke="midnightblue" points="348.62,-485.2 356.84,-478.52 346.25,-478.61 348.62,-485.2"/>
</g>
<!-- Node19&#45;&gt;Node2 -->
<g id="edge37" class="edge">
<title>Node19&#45;&gt;Node2</title>
<path fill="none" stroke="midnightblue" d="M315.79,-515.37C314.34,-497.62 310.99,-456.67 309.02,-432.6"/>
<polygon fill="midnightblue" stroke="midnightblue" points="312.51,-432.27 308.2,-422.59 305.53,-432.84 312.51,-432.27"/>
</g>
<!-- Node19&#45;&gt;Node3 -->
<g id="edge38" class="edge">
<title>Node19&#45;&gt;Node3</title>
<path fill="none" stroke="midnightblue" d="M295.22,-515.4C261.74,-500.3 200.5,-465.62 200.5,-414 200.5,-414 200.5,-414 200.5,-356 200.5,-288.79 289.69,-262.15 347.12,-251.97"/>
<polygon fill="midnightblue" stroke="midnightblue" points="347.81,-255.4 357.09,-250.3 346.66,-248.49 347.81,-255.4"/>
</g>
<!-- Node19&#45;&gt;Node15 -->
<g id="edge39" class="edge">
<title>Node19&#45;&gt;Node15</title>
<path fill="none" stroke="midnightblue" d="M326.78,-515.32C336.34,-507.26 350.78,-495.08 362.28,-485.37"/>
<polygon fill="midnightblue" stroke="midnightblue" points="364.64,-487.96 370.03,-478.83 360.13,-482.61 364.64,-487.96"/>
</g>
<!-- Node20&#45;&gt;Node3 -->
<g id="edge41" class="edge">
<title>Node20&#45;&gt;Node3</title>
<path fill="none" stroke="midnightblue" d="M450.6,-515.44C457.92,-483.82 479.84,-371.37 443.5,-291 437.98,-278.79 427.4,-268.41 417.48,-260.7"/>
<polygon fill="midnightblue" stroke="midnightblue" points="419.23,-257.65 409.07,-254.64 415.14,-263.33 419.23,-257.65"/>
</g>
<!-- Node20&#45;&gt;Node15 -->
<g id="edge42" class="edge">
<title>Node20&#45;&gt;Node15</title>
<path fill="none" stroke="midnightblue" d="M437.57,-515.32C427.33,-507.18 411.78,-494.84 399.5,-485.09"/>
<polygon fill="midnightblue" stroke="midnightblue" points="401.63,-482.31 391.62,-478.83 397.28,-487.79 401.63,-482.31"/>
</g>
<!-- Node21&#45;&gt;Node19 -->
<g id="edge44" class="edge">
<title>Node21&#45;&gt;Node19</title>
<path fill="none" stroke="midnightblue" d="M277.26,-571.08C284.04,-563.3 294.04,-551.8 302.26,-542.37"/>
<polygon fill="midnightblue" stroke="midnightblue" points="304.96,-544.59 308.88,-534.75 299.68,-540 304.96,-544.59"/>
</g>
<!-- Node22&#45;&gt;Node3 -->
<g id="edge46" class="edge">
<title>Node22&#45;&gt;Node3</title>
<path fill="none" stroke="midnightblue" d="M757.94,-347.07C750.03,-332.6 732.32,-304.32 708.5,-291 663.74,-265.97 517.92,-253.54 441.77,-248.63"/>
<polygon fill="midnightblue" stroke="midnightblue" points="441.71,-245.12 431.51,-247.98 441.27,-252.1 441.71,-245.12"/>
</g>
</g>
</svg>
