<?xml version="1.0" encoding="UTF-8" standalone="no"?>
<!DOCTYPE svg PUBLIC "-//W3C//DTD SVG 1.1//EN"
 "http://www.w3.org/Graphics/SVG/1.1/DTD/svg11.dtd">
<!-- Generated by graphviz version 2.43.0 (0)
 -->
<!-- Title: /home/ram/OmniTemplate/src/graph/all.hpp Pages: 1 -->
<!--zoomable 251 -->
<svg id="main" version="1.1" xmlns="http://www.w3.org/2000/svg" xmlns:xlink="http://www.w3.org/1999/xlink" xml:space="preserve" onload="init(evt)">
<style type="text/css"><![CDATA[
.edge:hover path { stroke: red; }
.edge:hover polygon { stroke: red; fill: red; }
]]></style>
<script type="text/javascript"><![CDATA[
var edges = document.getElementsByTagName('g');
if (edges && edges.length) {
  for (var i=0;i<edges.length;i++) {
    if (edges[i].id.substr(0,4)=='edge') {
      edges[i].setAttribute('class','edge');
    }
  }
}
]]></script>
        <defs>
                <circle id="rim" cx="0" cy="0" r="7"/>
                <circle id="rim2" cx="0" cy="0" r="3.5"/>
                <g id="zoomPlus">
                        <use xlink:href="#rim" fill="#404040">
                                <set attributeName="fill" to="#808080" begin="zoomplus.mouseover" end="zoomplus.mouseout"/>
                        </use>
                        <path d="M-4,0h8M0,-4v8" fill="none" stroke="white" stroke-width="1.5" pointer-events="none"/>
                </g>
                <g id="zoomMin">
                        <use xlink:href="#rim" fill="#404040">
                                <set attributeName="fill" to="#808080" begin="zoomminus.mouseover" end="zoomminus.mouseout"/>
                        </use>
                        <path d="M-4,0h8" fill="none" stroke="white" stroke-width="1.5" pointer-events="none"/>
                </g>
                <g id="dirArrow">
                        <path fill="none" stroke="white" stroke-width="1.5" d="M0,-3.0v7 M-2.5,-0.5L0,-3.0L2.5,-0.5"/>
                </g>
               <g id="resetDef">
                       <use xlink:href="#rim2" fill="#404040">
                               <set attributeName="fill" to="#808080" begin="reset.mouseover" end="reset.mouseout"/>
                       </use>
               </g>
        </defs>

<script type="text/javascript">
var viewWidth = 743;
var viewHeight = 251;
var sectionId = 'dynsection-1';
</script>
<script xlink:href="svgpan.js"/>
<svg id="graph" class="graph">
<g id="viewport">
<title>/home/ram/OmniTemplate/src/graph/all.hpp</title>
<polygon fill="white" stroke="transparent" points="-4,4 -4,-247 739,-247 739,4 -4,4"/>
<!-- Node1 -->
<g id="node1" class="node">
<title>Node1</title>
<g id="a_node1"><a xlink:title=" ">
<polygon fill="#bfbfbf" stroke="black" points="264,-212.5 264,-242.5 408,-242.5 408,-212.5 264,-212.5"/>
<text text-anchor="start" x="272" y="-230.5" font-family="Helvetica,sans-Serif" font-size="10.00">/home/ram/OmniTemplate</text>
<text text-anchor="middle" x="336" y="-219.5" font-family="Helvetica,sans-Serif" font-size="10.00">/src/graph/all.hpp</text>
</a>
</g>
</g>
<!-- Node2 -->
<g id="node2" class="node">
<title>Node2</title>
<g id="a_node2"><a xlink:href="template_8hpp.html" target="_top" xlink:title=" ">
<polygon fill="white" stroke="black" points="162,-73 162,-103 306,-103 306,-73 162,-73"/>
<text text-anchor="start" x="170" y="-91" font-family="Helvetica,sans-Serif" font-size="10.00">/home/ram/OmniTemplate</text>
<text text-anchor="middle" x="234" y="-80" font-family="Helvetica,sans-Serif" font-size="10.00">/src/core/template.hpp</text>
</a>
</g>
</g>
<!-- Node1&#45;&gt;Node2 -->
<g id="edge1" class="edge">
<title>Node1&#45;&gt;Node2</title>
<path fill="none" stroke="midnightblue" d="M292.22,-207.49C278.49,-199.57 264.47,-189.12 255,-176 239.18,-154.08 235.16,-121.76 234.21,-103.31"/>
<polygon fill="midnightblue" stroke="midnightblue" points="290.69,-210.64 301.15,-212.33 294.03,-204.49 290.69,-210.64"/>
</g>
<!-- Node4 -->
<g id="node4" class="node">
<title>Node4</title>
<g id="a_node4"><a xlink:href="2sat_8hpp.html" target="_top" xlink:title=" ">
<polygon fill="white" stroke="black" points="64,-145.5 64,-175.5 208,-175.5 208,-145.5 64,-145.5"/>
<text text-anchor="start" x="72" y="-163.5" font-family="Helvetica,sans-Serif" font-size="10.00">/home/ram/OmniTemplate</text>
<text text-anchor="middle" x="136" y="-152.5" font-family="Helvetica,sans-Serif" font-size="10.00">/src/graph/2sat.hpp</text>
</a>
</g>
</g>
<!-- Node1&#45;&gt;Node4 -->
<g id="edge3" class="edge">
<title>Node1&#45;&gt;Node4</title>
<path fill="none" stroke="midnightblue" d="M282.85,-209.23C250.5,-198.71 209.69,-185.45 179.31,-175.58"/>
<polygon fill="midnightblue" stroke="midnightblue" points="282.01,-212.63 292.6,-212.4 284.17,-205.98 282.01,-212.63"/>
</g>
<!-- Node6 -->
<g id="node6" class="node">
<title>Node6</title>
<g id="a_node6"><a xlink:href="test__all_8hpp.html" target="_top" xlink:title=" ">
<polygon fill="white" stroke="black" points="591,-145.5 591,-175.5 735,-175.5 735,-145.5 591,-145.5"/>
<text text-anchor="start" x="599" y="-163.5" font-family="Helvetica,sans-Serif" font-size="10.00">/home/ram/OmniTemplate</text>
<text text-anchor="middle" x="663" y="-152.5" font-family="Helvetica,sans-Serif" font-size="10.00">/src/graph/test_all.hpp</text>
</a>
</g>
</g>
<!-- Node1&#45;&gt;Node6 -->
<g id="edge7" class="edge">
<title>Node1&#45;&gt;Node6</title>
<path fill="none" stroke="midnightblue" d="M416.41,-210.52C470.29,-199.81 540.56,-185.84 592.29,-175.55"/>
<polygon fill="midnightblue" stroke="midnightblue" points="415.68,-207.09 406.55,-212.48 417.04,-213.96 415.68,-207.09"/>
</g>
<!-- Node7 -->
<g id="node7" class="node">
<title>Node7</title>
<g id="a_node7"><a xlink:href="hld_8hpp.html" target="_top" xlink:title=" ">
<polygon fill="white" stroke="black" points="264,-145.5 264,-175.5 408,-175.5 408,-145.5 264,-145.5"/>
<text text-anchor="start" x="272" y="-163.5" font-family="Helvetica,sans-Serif" font-size="10.00">/home/ram/OmniTemplate</text>
<text text-anchor="middle" x="336" y="-152.5" font-family="Helvetica,sans-Serif" font-size="10.00">/src/graph/tree/hld.hpp</text>
</a>
</g>
</g>
<!-- Node1&#45;&gt;Node7 -->
<g id="edge9" class="edge">
<title>Node1&#45;&gt;Node7</title>
<path fill="none" stroke="midnightblue" d="M336,-202.11C336,-193.15 336,-183.32 336,-175.58"/>
<polygon fill="midnightblue" stroke="midnightblue" points="332.5,-202.4 336,-212.4 339.5,-202.4 332.5,-202.4"/>
</g>
<!-- Node9 -->
<g id="node9" class="node">
<title>Node9</title>
<g id="a_node9"><a xlink:href="graph__draw_8hpp.html" target="_top" xlink:title=" ">
<polygon fill="white" stroke="black" points="426,-145.5 426,-175.5 572,-175.5 572,-145.5 426,-145.5"/>
<text text-anchor="start" x="434" y="-163.5" font-family="Helvetica,sans-Serif" font-size="10.00">/home/ram/OmniTemplate</text>
<text text-anchor="middle" x="499" y="-152.5" font-family="Helvetica,sans-Serif" font-size="10.00">/src/utility/graph_draw.hpp</text>
</a>
</g>
</g>
<!-- Node1&#45;&gt;Node9 -->
<g id="edge13" class="edge">
<title>Node1&#45;&gt;Node9</title>
<path fill="none" stroke="midnightblue" d="M380.68,-208.68C406.83,-198.26 439.37,-185.28 463.7,-175.58"/>
<polygon fill="midnightblue" stroke="midnightblue" points="379.36,-205.44 371.37,-212.4 381.95,-211.94 379.36,-205.44"/>
</g>
<!-- Node3 -->
<g id="node3" class="node">
<title>Node3</title>
<g id="a_node3"><a xlink:href="test_8cpp.html" target="_top" xlink:title=" ">
<polygon fill="white" stroke="black" points="327,-0.5 327,-30.5 471,-30.5 471,-0.5 327,-0.5"/>
<text text-anchor="start" x="335" y="-18.5" font-family="Helvetica,sans-Serif" font-size="10.00">/home/ram/OmniTemplate</text>
<text text-anchor="middle" x="399" y="-7.5" font-family="Helvetica,sans-Serif" font-size="10.00">/src/test/test.cpp</text>
</a>
</g>
</g>
<!-- Node2&#45;&gt;Node3 -->
<g id="edge2" class="edge">
<title>Node2&#45;&gt;Node3</title>
<path fill="none" stroke="midnightblue" d="M276.49,-68.84C304.39,-56.92 340.34,-41.57 366.06,-30.57"/>
<polygon fill="midnightblue" stroke="midnightblue" points="274.81,-65.76 266.99,-72.9 277.56,-72.19 274.81,-65.76"/>
</g>
<!-- Node4&#45;&gt;Node2 -->
<g id="edge4" class="edge">
<title>Node4&#45;&gt;Node2</title>
<path fill="none" stroke="midnightblue" d="M164.34,-139.11C180.44,-127.53 200.18,-113.33 214.53,-103"/>
<polygon fill="midnightblue" stroke="midnightblue" points="161.91,-136.55 155.83,-145.23 165.99,-142.23 161.91,-136.55"/>
</g>
<!-- Node5 -->
<g id="node5" class="node">
<title>Node5</title>
<g id="a_node5"><a xlink:href="test__2sat_8hpp.html" target="_top" xlink:title=" ">
<polygon fill="white" stroke="black" points="0,-73 0,-103 144,-103 144,-73 0,-73"/>
<text text-anchor="start" x="8" y="-91" font-family="Helvetica,sans-Serif" font-size="10.00">/home/ram/OmniTemplate</text>
<text text-anchor="middle" x="72" y="-80" font-family="Helvetica,sans-Serif" font-size="10.00">/src/graph/test_2sat.hpp</text>
</a>
</g>
</g>
<!-- Node4&#45;&gt;Node5 -->
<g id="edge5" class="edge">
<title>Node4&#45;&gt;Node5</title>
<path fill="none" stroke="midnightblue" d="M116.06,-137.54C105.91,-126.36 93.86,-113.08 84.93,-103.25"/>
<polygon fill="midnightblue" stroke="midnightblue" points="113.74,-140.18 123.05,-145.23 118.92,-135.48 113.74,-140.18"/>
</g>
<!-- Node5&#45;&gt;Node3 -->
<g id="edge6" class="edge">
<title>Node5&#45;&gt;Node3</title>
<path fill="none" stroke="midnightblue" d="M137.66,-70.55C142.85,-69.33 148.01,-68.13 153,-67 211.37,-53.81 277.86,-40.25 326.99,-30.5"/>
<polygon fill="midnightblue" stroke="midnightblue" points="136.61,-67.21 127.7,-72.94 138.24,-74.01 136.61,-67.21"/>
</g>
<!-- Node6&#45;&gt;Node3 -->
<g id="edge8" class="edge">
<title>Node6&#45;&gt;Node3</title>
<path fill="none" stroke="midnightblue" d="M665.15,-135.38C665.61,-114.46 662.64,-84.82 645,-67 621.04,-42.79 534.69,-29.32 471.03,-22.5"/>
<polygon fill="midnightblue" stroke="midnightblue" points="661.65,-135.26 664.66,-145.42 668.65,-135.6 661.65,-135.26"/>
</g>
<!-- Node7&#45;&gt;Node2 -->
<g id="edge10" class="edge">
<title>Node7&#45;&gt;Node2</title>
<path fill="none" stroke="midnightblue" d="M306.96,-139.43C290.12,-127.79 269.34,-113.42 254.26,-103"/>
<polygon fill="midnightblue" stroke="midnightblue" points="305.14,-142.43 315.36,-145.23 309.12,-136.67 305.14,-142.43"/>
</g>
<!-- Node8 -->
<g id="node8" class="node">
<title>Node8</title>
<g id="a_node8"><a xlink:href="test__hld_8hpp.html" target="_top" xlink:title=" ">
<polygon fill="white" stroke="black" points="324,-73 324,-103 474,-103 474,-73 324,-73"/>
<text text-anchor="start" x="332" y="-91" font-family="Helvetica,sans-Serif" font-size="10.00">/home/ram/OmniTemplate</text>
<text text-anchor="middle" x="399" y="-80" font-family="Helvetica,sans-Serif" font-size="10.00">/src/graph/tree/test_hld.hpp</text>
</a>
</g>
</g>
<!-- Node7&#45;&gt;Node8 -->
<g id="edge11" class="edge">
<title>Node7&#45;&gt;Node8</title>
<path fill="none" stroke="midnightblue" d="M355.62,-137.54C365.62,-126.36 377.48,-113.08 386.27,-103.25"/>
<polygon fill="midnightblue" stroke="midnightblue" points="352.8,-135.44 348.75,-145.23 358.02,-140.11 352.8,-135.44"/>
</g>
<!-- Node8&#45;&gt;Node3 -->
<g id="edge12" class="edge">
<title>Node8&#45;&gt;Node3</title>
<path fill="none" stroke="midnightblue" d="M399,-62.73C399,-52.07 399,-39.91 399,-30.75"/>
<polygon fill="midnightblue" stroke="midnightblue" points="395.5,-62.73 399,-72.73 402.5,-62.73 395.5,-62.73"/>
</g>
<!-- Node9&#45;&gt;Node2 -->
<g id="edge14" class="edge">
<title>Node9&#45;&gt;Node2</title>
<path fill="none" stroke="midnightblue" d="M436.58,-142.89C391.1,-130.79 330.15,-114.58 287.03,-103.11"/>
<polygon fill="midnightblue" stroke="midnightblue" points="435.76,-146.3 446.33,-145.49 437.56,-139.53 435.76,-146.3"/>
</g>
<!-- Node10 -->
<g id="node10" class="node">
<title>Node10</title>
<g id="a_node10"><a xlink:href="test__graph__draw_8hpp.html" target="_top" xlink:title=" ">
<polygon fill="white" stroke="black" points="492,-67.5 492,-108.5 636,-108.5 636,-67.5 492,-67.5"/>
<text text-anchor="start" x="500" y="-96.5" font-family="Helvetica,sans-Serif" font-size="10.00">/home/ram/OmniTemplate</text>
<text text-anchor="start" x="500" y="-85.5" font-family="Helvetica,sans-Serif" font-size="10.00">/src/utility/test_graph</text>
<text text-anchor="middle" x="564" y="-74.5" font-family="Helvetica,sans-Serif" font-size="10.00">_draw.hpp</text>
</a>
</g>
</g>
<!-- Node9&#45;&gt;Node10 -->
<g id="edge15" class="edge">
<title>Node9&#45;&gt;Node10</title>
<path fill="none" stroke="midnightblue" d="M518.99,-137.82C527.59,-128.49 537.57,-117.67 545.94,-108.59"/>
<polygon fill="midnightblue" stroke="midnightblue" points="516.36,-135.51 512.15,-145.23 521.51,-140.25 516.36,-135.51"/>
</g>
<!-- Node10&#45;&gt;Node3 -->
<g id="edge16" class="edge">
<title>Node10&#45;&gt;Node3</title>
<path fill="none" stroke="midnightblue" d="M508.84,-63.43C483.33,-52.53 453.88,-39.95 431.91,-30.56"/>
<polygon fill="midnightblue" stroke="midnightblue" points="507.47,-66.65 518.04,-67.36 510.22,-60.21 507.47,-66.65"/>
</g>
</g>
</svg>
        <g id="navigator" transform="translate(0 0)" fill="#404254">
                <rect fill="#f2f5e9" fill-opacity="0.5" stroke="#606060" stroke-width=".5" x="0" y="0" width="60" height="60"/>
                <use id="zoomplus" xlink:href="#zoomPlus" x="17" y="9" onmousedown="handleZoom(evt,'in')"/>
                <use id="zoomminus" xlink:href="#zoomMin" x="42" y="9" onmousedown="handleZoom(evt,'out')"/>
                <use id="reset" xlink:href="#resetDef" x="30" y="36" onmousedown="handleReset()"/>
                <g id="arrowUp" xlink:href="#dirArrow" transform="translate(30 24)" onmousedown="handlePan(0,-1)">
                  <use xlink:href="#rim" fill="#404040">
                        <set attributeName="fill" to="#808080" begin="arrowUp.mouseover" end="arrowUp.mouseout"/>
                  </use>
                  <path fill="none" stroke="white" stroke-width="1.5" d="M0,-3.0v7 M-2.5,-0.5L0,-3.0L2.5,-0.5"/>
                </g>
                <g id="arrowRight" xlink:href="#dirArrow" transform="rotate(90) translate(36 -43)" onmousedown="handlePan(1,0)">
                  <use xlink:href="#rim" fill="#404040">
                        <set attributeName="fill" to="#808080" begin="arrowRight.mouseover" end="arrowRight.mouseout"/>
                  </use>
                  <path fill="none" stroke="white" stroke-width="1.5" d="M0,-3.0v7 M-2.5,-0.5L0,-3.0L2.5,-0.5"/>
                </g>
                <g id="arrowDown" xlink:href="#dirArrow" transform="rotate(180) translate(-30 -48)" onmousedown="handlePan(0,1)">
                  <use xlink:href="#rim" fill="#404040">
                        <set attributeName="fill" to="#808080" begin="arrowDown.mouseover" end="arrowDown.mouseout"/>
                  </use>
                  <path fill="none" stroke="white" stroke-width="1.5" d="M0,-3.0v7 M-2.5,-0.5L0,-3.0L2.5,-0.5"/>
                </g>
                <g id="arrowLeft" xlink:href="#dirArrow" transform="rotate(270) translate(-36 17)" onmousedown="handlePan(-1,0)">
                  <use xlink:href="#rim" fill="#404040">
                        <set attributeName="fill" to="#808080" begin="arrowLeft.mouseover" end="arrowLeft.mouseout"/>
                  </use>
                  <path fill="none" stroke="white" stroke-width="1.5" d="M0,-3.0v7 M-2.5,-0.5L0,-3.0L2.5,-0.5"/>
                </g>
        </g>
        <svg viewBox="0 0 15 15" width="100%" height="30px" preserveAspectRatio="xMaxYMin meet">
         <g id="arrow_out" transform="scale(0.3 0.3)">
          <a xlink:href="graph_2all_8hpp__dep__incl_org.svg" target="_base">
           <rect id="button" ry="5" rx="5" y="6" x="6" height="38" width="38"
                fill="#f2f5e9" fill-opacity="0.5" stroke="#606060" stroke-width="1.0"/>
           <path id="arrow"
             d="M 11.500037,31.436501 C 11.940474,20.09759 22.043105,11.32322 32.158766,21.979434 L 37.068811,17.246167 C 37.068811,17.246167 37.088388,32 37.088388,32 L 22.160133,31.978069 C 22.160133,31.978069 26.997745,27.140456 26.997745,27.140456 C 18.528582,18.264221 13.291696,25.230495 11.500037,31.436501 z"
             style="fill:#404040;"/>
          </a>
         </g>
        </svg>
</svg>
