<?xml version="1.0" encoding="UTF-8" standalone="no"?>
<!DOCTYPE svg PUBLIC "-//W3C//DTD SVG 1.1//EN"
 "http://www.w3.org/Graphics/SVG/1.1/DTD/svg11.dtd">
<!-- Generated by graphviz version 2.43.0 (0)
 -->
<!-- Title: /home/ram/OmniTemplate/src/graph/all.hpp Pages: 1 -->
<!--zoomable 554 -->
<svg id="main" version="1.1" xmlns="http://www.w3.org/2000/svg" xmlns:xlink="http://www.w3.org/1999/xlink" xml:space="preserve" onload="init(evt)">
<style type="text/css"><![CDATA[
.edge:hover path { stroke: red; }
.edge:hover polygon { stroke: red; fill: red; }
]]></style>
<script type="text/javascript"><![CDATA[
var edges = document.getElementsByTagName('g');
if (edges && edges.length) {
  for (var i=0;i<edges.length;i++) {
    if (edges[i].id.substr(0,4)=='edge') {
      edges[i].setAttribute('class','edge');
    }
  }
}
]]></script>
        <defs>
                <circle id="rim" cx="0" cy="0" r="7"/>
                <circle id="rim2" cx="0" cy="0" r="3.5"/>
                <g id="zoomPlus">
                        <use xlink:href="#rim" fill="#404040">
                                <set attributeName="fill" to="#808080" begin="zoomplus.mouseover" end="zoomplus.mouseout"/>
                        </use>
                        <path d="M-4,0h8M0,-4v8" fill="none" stroke="white" stroke-width="1.5" pointer-events="none"/>
                </g>
                <g id="zoomMin">
                        <use xlink:href="#rim" fill="#404040">
                                <set attributeName="fill" to="#808080" begin="zoomminus.mouseover" end="zoomminus.mouseout"/>
                        </use>
                        <path d="M-4,0h8" fill="none" stroke="white" stroke-width="1.5" pointer-events="none"/>
                </g>
                <g id="dirArrow">
                        <path fill="none" stroke="white" stroke-width="1.5" d="M0,-3.0v7 M-2.5,-0.5L0,-3.0L2.5,-0.5"/>
                </g>
               <g id="resetDef">
                       <use xlink:href="#rim2" fill="#404040">
                               <set attributeName="fill" to="#808080" begin="reset.mouseover" end="reset.mouseout"/>
                       </use>
               </g>
        </defs>

<script type="text/javascript">
var viewWidth = 776;
var viewHeight = 554;
var sectionId = 'dynsection-0';
</script>
<script xlink:href="svgpan.js"/>
<svg id="graph" class="graph">
<g id="viewport">
<title>/home/ram/OmniTemplate/src/graph/all.hpp</title>
<polygon fill="white" stroke="transparent" points="-4,4 -4,-550 772,-550 772,4 -4,4"/>
<!-- Node1 -->
<g id="node1" class="node">
<title>Node1</title>
<g id="a_node1"><a xlink:title=" ">
<polygon fill="#bfbfbf" stroke="black" points="307.5,-515.5 307.5,-545.5 451.5,-545.5 451.5,-515.5 307.5,-515.5"/>
<text text-anchor="start" x="315.5" y="-533.5" font-family="Helvetica,sans-Serif" font-size="10.00">/home/ram/OmniTemplate</text>
<text text-anchor="middle" x="379.5" y="-522.5" font-family="Helvetica,sans-Serif" font-size="10.00">/src/graph/all.hpp</text>
</a>
</g>
</g>
<!-- Node2 -->
<g id="node2" class="node">
<title>Node2</title>
<g id="a_node2"><a xlink:href="linear__algebra_8hpp.html" target="_top" xlink:title=" ">
<polygon fill="white" stroke="black" points="165,-347.5 165,-366.5 312,-366.5 312,-347.5 165,-347.5"/>
<text text-anchor="middle" x="238.5" y="-354.5" font-family="Helvetica,sans-Serif" font-size="10.00">algebra/linear_algebra.hpp</text>
</a>
</g>
</g>
<!-- Node1&#45;&gt;Node2 -->
<g id="edge1" class="edge">
<title>Node1&#45;&gt;Node2</title>
<path fill="none" stroke="midnightblue" d="M341.5,-515.38C323.48,-507.09 302.81,-495.05 288.5,-479 261.62,-448.85 247.97,-402.25 242.13,-376.57"/>
<polygon fill="midnightblue" stroke="midnightblue" points="245.53,-375.72 240.03,-366.66 238.68,-377.17 245.53,-375.72"/>
</g>
<!-- Node3 -->
<g id="node3" class="node">
<title>Node3</title>
<g id="a_node3"><a xlink:href="core_2all_8hpp.html" target="_top" xlink:title=" ">
<polygon fill="white" stroke="black" points="357.5,-235.5 357.5,-254.5 431.5,-254.5 431.5,-235.5 357.5,-235.5"/>
<text text-anchor="middle" x="394.5" y="-242.5" font-family="Helvetica,sans-Serif" font-size="10.00">core/all.hpp</text>
</a>
</g>
</g>
<!-- Node1&#45;&gt;Node3 -->
<g id="edge21" class="edge">
<title>Node1&#45;&gt;Node3</title>
<path fill="none" stroke="midnightblue" d="M307.18,-519.88C207.09,-504.5 38.5,-470.25 38.5,-414 38.5,-414 38.5,-414 38.5,-356 38.5,-320.61 54.32,-309.48 84.5,-291 127.57,-264.62 271.37,-252.83 347.03,-248.35"/>
<polygon fill="midnightblue" stroke="midnightblue" points="347.45,-251.83 357.23,-247.76 347.05,-244.84 347.45,-251.83"/>
</g>
<!-- Node14 -->
<g id="node14" class="node">
<title>Node14</title>
<g id="a_node14"><a xlink:href="dsu_8hpp.html" target="_top" xlink:title=" ">
<polygon fill="white" stroke="black" points="385,-347.5 385,-366.5 454,-366.5 454,-347.5 385,-347.5"/>
<text text-anchor="middle" x="419.5" y="-354.5" font-family="Helvetica,sans-Serif" font-size="10.00">ds/dsu.hpp</text>
</a>
</g>
</g>
<!-- Node1&#45;&gt;Node14 -->
<g id="edge22" class="edge">
<title>Node1&#45;&gt;Node14</title>
<path fill="none" stroke="midnightblue" d="M384.41,-515.47C387.81,-505.41 392.3,-491.47 395.5,-479 404.7,-443.17 412.41,-400.6 416.45,-376.7"/>
<polygon fill="midnightblue" stroke="midnightblue" points="419.95,-377.02 418.13,-366.58 413.04,-375.87 419.95,-377.02"/>
</g>
<!-- Node15 -->
<g id="node15" class="node">
<title>Node15</title>
<g id="a_node15"><a xlink:href="biconnected_8hpp.html" target="_top" xlink:title=" ">
<polygon fill="white" stroke="black" points="619,-459.5 619,-478.5 716,-478.5 716,-459.5 619,-459.5"/>
<text text-anchor="middle" x="667.5" y="-466.5" font-family="Helvetica,sans-Serif" font-size="10.00">biconnected.hpp</text>
</a>
</g>
</g>
<!-- Node1&#45;&gt;Node15 -->
<g id="edge24" class="edge">
<title>Node1&#45;&gt;Node15</title>
<path fill="none" stroke="midnightblue" d="M447.39,-515.47C499.13,-504.78 569.28,-490.29 616.35,-480.57"/>
<polygon fill="midnightblue" stroke="midnightblue" points="617.24,-483.96 626.33,-478.51 615.82,-477.1 617.24,-483.96"/>
</g>
<!-- Node17 -->
<g id="node17" class="node">
<title>Node17</title>
<g id="a_node17"><a xlink:href="flow_8hpp.html" target="_top" xlink:title=" ">
<polygon fill="white" stroke="black" points="291.5,-403.5 291.5,-422.5 349.5,-422.5 349.5,-403.5 291.5,-403.5"/>
<text text-anchor="middle" x="320.5" y="-410.5" font-family="Helvetica,sans-Serif" font-size="10.00">flow.hpp</text>
</a>
</g>
</g>
<!-- Node1&#45;&gt;Node17 -->
<g id="edge28" class="edge">
<title>Node1&#45;&gt;Node17</title>
<path fill="none" stroke="midnightblue" d="M339.01,-515.5C322.44,-507.54 304.97,-495.74 295.5,-479 286.71,-463.46 296.38,-444.22 306.13,-430.72"/>
<polygon fill="midnightblue" stroke="midnightblue" points="308.95,-432.81 312.37,-422.78 303.44,-428.49 308.95,-432.81"/>
</g>
<!-- Node18 -->
<g id="node18" class="node">
<title>Node18</title>
<g id="a_node18"><a xlink:href="test__flow_8hpp.html" target="_top" xlink:title=" ">
<polygon fill="white" stroke="black" points="304.5,-459.5 304.5,-478.5 386.5,-478.5 386.5,-459.5 304.5,-459.5"/>
<text text-anchor="middle" x="345.5" y="-466.5" font-family="Helvetica,sans-Serif" font-size="10.00">test_flow.hpp</text>
</a>
</g>
</g>
<!-- Node1&#45;&gt;Node18 -->
<g id="edge31" class="edge">
<title>Node1&#45;&gt;Node18</title>
<path fill="none" stroke="midnightblue" d="M371.44,-515.4C366.65,-507.02 360.54,-496.33 355.46,-487.42"/>
<polygon fill="midnightblue" stroke="midnightblue" points="358.45,-485.6 350.45,-478.66 352.37,-489.08 358.45,-485.6"/>
</g>
<!-- Node19 -->
<g id="node19" class="node">
<title>Node19</title>
<g id="a_node19"><a xlink:href="tree_8hpp.html" target="_top" xlink:title=" ">
<polygon fill="white" stroke="black" points="442.5,-403.5 442.5,-422.5 522.5,-422.5 522.5,-403.5 442.5,-403.5"/>
<text text-anchor="middle" x="482.5" y="-410.5" font-family="Helvetica,sans-Serif" font-size="10.00">tree/tree.hpp</text>
</a>
</g>
</g>
<!-- Node1&#45;&gt;Node19 -->
<g id="edge33" class="edge">
<title>Node1&#45;&gt;Node19</title>
<path fill="none" stroke="midnightblue" d="M393.95,-515.2C403.88,-505.24 417.24,-491.54 428.5,-479 442.97,-462.88 458.72,-443.73 469.45,-430.41"/>
<polygon fill="midnightblue" stroke="midnightblue" points="472.19,-432.58 475.71,-422.59 466.73,-428.21 472.19,-432.58"/>
</g>
<!-- Node20 -->
<g id="node20" class="node">
<title>Node20</title>
<g id="a_node20"><a xlink:href="bipartite_8hpp.html" target="_top" xlink:title=" ">
<polygon fill="white" stroke="black" points="511,-347.5 511,-366.5 590,-366.5 590,-347.5 511,-347.5"/>
<text text-anchor="middle" x="550.5" y="-354.5" font-family="Helvetica,sans-Serif" font-size="10.00">bipartite.hpp</text>
</a>
</g>
</g>
<!-- Node1&#45;&gt;Node20 -->
<g id="edge35" class="edge">
<title>Node1&#45;&gt;Node20</title>
<path fill="none" stroke="midnightblue" d="M411.09,-515.38C445.67,-498.35 500.33,-466.47 531.5,-423 541.24,-409.41 546.02,-390.87 548.35,-377.06"/>
<polygon fill="midnightblue" stroke="midnightblue" points="551.87,-377.18 549.78,-366.79 544.93,-376.22 551.87,-377.18"/>
</g>
<!-- Node2&#45;&gt;Node3 -->
<g id="edge2" class="edge">
<title>Node2&#45;&gt;Node3</title>
<path fill="none" stroke="midnightblue" d="M170.05,-347.48C121.43,-338.65 69.08,-321.69 95.5,-291 127.39,-253.95 271.13,-246.99 347.1,-245.95"/>
<polygon fill="midnightblue" stroke="midnightblue" points="347.39,-249.45 357.35,-245.84 347.31,-242.45 347.39,-249.45"/>
</g>
<!-- Node12 -->
<g id="node12" class="node">
<title>Node12</title>
<g id="a_node12"><a xlink:href="modulo_8hpp.html" target="_top" xlink:title=" ">
<polygon fill="white" stroke="black" points="104.5,-291.5 104.5,-310.5 256.5,-310.5 256.5,-291.5 104.5,-291.5"/>
<text text-anchor="middle" x="180.5" y="-298.5" font-family="Helvetica,sans-Serif" font-size="10.00">number_theory/modulo.hpp</text>
</a>
</g>
</g>
<!-- Node2&#45;&gt;Node12 -->
<g id="edge17" class="edge">
<title>Node2&#45;&gt;Node12</title>
<path fill="none" stroke="midnightblue" d="M229.18,-347.32C220.61,-339.34 207.69,-327.31 197.31,-317.65"/>
<polygon fill="midnightblue" stroke="midnightblue" points="199.69,-315.09 189.99,-310.83 194.92,-320.21 199.69,-315.09"/>
</g>
<!-- Node13 -->
<g id="node13" class="node">
<title>Node13</title>
<g id="a_node13"><a xlink:href="polynomial_8hpp.html" target="_top" xlink:title=" ">
<polygon fill="white" stroke="black" points="274.5,-291.5 274.5,-310.5 366.5,-310.5 366.5,-291.5 274.5,-291.5"/>
<text text-anchor="middle" x="320.5" y="-298.5" font-family="Helvetica,sans-Serif" font-size="10.00">polynomial.hpp</text>
</a>
</g>
</g>
<!-- Node2&#45;&gt;Node13 -->
<g id="edge19" class="edge">
<title>Node2&#45;&gt;Node13</title>
<path fill="none" stroke="midnightblue" d="M251.67,-347.32C264.35,-338.98 283.73,-326.21 298.71,-316.35"/>
<polygon fill="midnightblue" stroke="midnightblue" points="300.93,-319.08 307.36,-310.65 297.08,-313.23 300.93,-319.08"/>
</g>
<!-- Node4 -->
<g id="node4" class="node">
<title>Node4</title>
<g id="a_node4"><a xlink:title=" ">
<polygon fill="white" stroke="#bfbfbf" points="0,-174 0,-193 83,-193 83,-174 0,-174"/>
<text text-anchor="middle" x="41.5" y="-181" font-family="Helvetica,sans-Serif" font-size="10.00">bits/stdc++.h</text>
</a>
</g>
</g>
<!-- Node3&#45;&gt;Node4 -->
<g id="edge3" class="edge">
<title>Node3&#45;&gt;Node4</title>
<path fill="none" stroke="midnightblue" d="M357.36,-240.12C299.94,-233.75 186.32,-219.69 91.5,-199 87.28,-198.08 82.89,-197 78.54,-195.84"/>
<polygon fill="midnightblue" stroke="midnightblue" points="79.15,-192.38 68.58,-193.07 77.27,-199.12 79.15,-192.38"/>
</g>
<!-- Node5 -->
<g id="node5" class="node">
<title>Node5</title>
<g id="a_node5"><a xlink:title=" ">
<polygon fill="white" stroke="#bfbfbf" points="101,-174 101,-193 222,-193 222,-174 101,-174"/>
<text text-anchor="middle" x="161.5" y="-181" font-family="Helvetica,sans-Serif" font-size="10.00">experimental/iterator</text>
</a>
</g>
</g>
<!-- Node3&#45;&gt;Node5 -->
<g id="edge4" class="edge">
<title>Node3&#45;&gt;Node5</title>
<path fill="none" stroke="midnightblue" d="M361.12,-235.48C319.94,-224.96 249.85,-207.06 204.63,-195.51"/>
<polygon fill="midnightblue" stroke="midnightblue" points="205.38,-192.09 194.82,-193.01 203.64,-198.87 205.38,-192.09"/>
</g>
<!-- Node6 -->
<g id="node6" class="node">
<title>Node6</title>
<g id="a_node6"><a xlink:title=" ">
<polygon fill="white" stroke="#bfbfbf" points="240,-168.5 240,-198.5 357,-198.5 357,-168.5 240,-168.5"/>
<text text-anchor="start" x="248" y="-186.5" font-family="Helvetica,sans-Serif" font-size="10.00">experimental/source</text>
<text text-anchor="middle" x="298.5" y="-175.5" font-family="Helvetica,sans-Serif" font-size="10.00">_location</text>
</a>
</g>
</g>
<!-- Node3&#45;&gt;Node6 -->
<g id="edge5" class="edge">
<title>Node3&#45;&gt;Node6</title>
<path fill="none" stroke="midnightblue" d="M380.75,-235.48C367.5,-227.27 347,-214.56 329.78,-203.88"/>
<polygon fill="midnightblue" stroke="midnightblue" points="331.47,-200.82 321.13,-198.52 327.78,-206.77 331.47,-200.82"/>
</g>
<!-- Node7 -->
<g id="node7" class="node">
<title>Node7</title>
<g id="a_node7"><a xlink:href="io_8hpp.html" target="_top" xlink:title=" ">
<polygon fill="white" stroke="black" points="470,-174 470,-193 517,-193 517,-174 470,-174"/>
<text text-anchor="middle" x="493.5" y="-181" font-family="Helvetica,sans-Serif" font-size="10.00">io.hpp</text>
</a>
</g>
</g>
<!-- Node3&#45;&gt;Node7 -->
<g id="edge6" class="edge">
<title>Node3&#45;&gt;Node7</title>
<path fill="none" stroke="midnightblue" d="M408.68,-235.48C424.86,-225.75 451.53,-209.73 470.64,-198.24"/>
<polygon fill="midnightblue" stroke="midnightblue" points="472.57,-201.16 479.34,-193.01 468.97,-195.16 472.57,-201.16"/>
</g>
<!-- Node8 -->
<g id="node8" class="node">
<title>Node8</title>
<g id="a_node8"><a xlink:href="debug_8hpp.html" target="_top" xlink:title=" ">
<polygon fill="white" stroke="black" points="440.5,-112.5 440.5,-131.5 508.5,-131.5 508.5,-112.5 440.5,-112.5"/>
<text text-anchor="middle" x="474.5" y="-119.5" font-family="Helvetica,sans-Serif" font-size="10.00">debug.hpp</text>
</a>
</g>
</g>
<!-- Node3&#45;&gt;Node8 -->
<g id="edge12" class="edge">
<title>Node3&#45;&gt;Node8</title>
<path fill="none" stroke="midnightblue" d="M400.25,-235.3C413.4,-215.41 445.84,-166.35 463.16,-140.15"/>
<polygon fill="midnightblue" stroke="midnightblue" points="466.2,-141.9 468.8,-131.62 460.36,-138.03 466.2,-141.9"/>
</g>
<!-- Node9 -->
<g id="node9" class="node">
<title>Node9</title>
<g id="a_node9"><a xlink:href="operations_8hpp.html" target="_top" xlink:title=" ">
<polygon fill="white" stroke="black" points="479,-56.5 479,-75.5 568,-75.5 568,-56.5 479,-56.5"/>
<text text-anchor="middle" x="523.5" y="-63.5" font-family="Helvetica,sans-Serif" font-size="10.00">operations.hpp</text>
</a>
</g>
</g>
<!-- Node3&#45;&gt;Node9 -->
<g id="edge13" class="edge">
<title>Node3&#45;&gt;Node9</title>
<path fill="none" stroke="midnightblue" d="M431.58,-242.45C462.34,-238.97 504.33,-228.65 525.5,-199 549.72,-165.08 538.52,-112.74 530,-85.27"/>
<polygon fill="midnightblue" stroke="midnightblue" points="533.31,-84.13 526.84,-75.74 526.67,-86.34 533.31,-84.13"/>
</g>
<!-- Node10 -->
<g id="node10" class="node">
<title>Node10</title>
<g id="a_node10"><a xlink:href="range_8hpp.html" target="_top" xlink:title=" ">
<polygon fill="white" stroke="black" points="418,-0.5 418,-19.5 483,-19.5 483,-0.5 418,-0.5"/>
<text text-anchor="middle" x="450.5" y="-7.5" font-family="Helvetica,sans-Serif" font-size="10.00">range.hpp</text>
</a>
</g>
</g>
<!-- Node3&#45;&gt;Node10 -->
<g id="edge14" class="edge">
<title>Node3&#45;&gt;Node10</title>
<path fill="none" stroke="midnightblue" d="M393.81,-235.43C397.01,-201.61 426.6,-76.95 442.19,-29.5"/>
<polygon fill="midnightblue" stroke="midnightblue" points="445.55,-30.49 445.56,-19.9 438.95,-28.17 445.55,-30.49"/>
</g>
<!-- Node11 -->
<g id="node11" class="node">
<title>Node11</title>
<g id="a_node11"><a xlink:href="utility_8hpp.html" target="_top" xlink:title=" ">
<polygon fill="white" stroke="black" points="574,-112.5 574,-131.5 639,-131.5 639,-112.5 574,-112.5"/>
<text text-anchor="middle" x="606.5" y="-119.5" font-family="Helvetica,sans-Serif" font-size="10.00">utility.hpp</text>
</a>
</g>
</g>
<!-- Node3&#45;&gt;Node11 -->
<g id="edge15" class="edge">
<title>Node3&#45;&gt;Node11</title>
<path fill="none" stroke="midnightblue" d="M431.66,-241.65C467.53,-237.7 521.8,-227.17 559.5,-199 579.26,-184.24 592.61,-158.5 599.88,-141.11"/>
<polygon fill="midnightblue" stroke="midnightblue" points="603.24,-142.12 603.63,-131.53 596.73,-139.57 603.24,-142.12"/>
</g>
<!-- Node7&#45;&gt;Node8 -->
<g id="edge7" class="edge">
<title>Node7&#45;&gt;Node8</title>
<path fill="none" stroke="midnightblue" d="M490.78,-173.98C488.07,-165.49 483.83,-152.2 480.35,-141.32"/>
<polygon fill="midnightblue" stroke="midnightblue" points="483.59,-139.97 477.22,-131.51 476.93,-142.1 483.59,-139.97"/>
</g>
<!-- Node8&#45;&gt;Node9 -->
<g id="edge8" class="edge">
<title>Node8&#45;&gt;Node9</title>
<path fill="none" stroke="midnightblue" d="M482.59,-112.08C489.66,-104.3 500.09,-92.8 508.65,-83.37"/>
<polygon fill="midnightblue" stroke="midnightblue" points="511.43,-85.51 515.56,-75.75 506.25,-80.8 511.43,-85.51"/>
</g>
<!-- Node8&#45;&gt;Node10 -->
<g id="edge11" class="edge">
<title>Node8&#45;&gt;Node10</title>
<path fill="none" stroke="midnightblue" d="M472.62,-112.37C468.74,-94.62 459.81,-53.67 454.56,-29.6"/>
<polygon fill="midnightblue" stroke="midnightblue" points="457.93,-28.62 452.37,-19.59 451.09,-30.11 457.93,-28.62"/>
</g>
<!-- Node9&#45;&gt;Node10 -->
<g id="edge9" class="edge">
<title>Node9&#45;&gt;Node10</title>
<path fill="none" stroke="midnightblue" d="M511.77,-56.32C500.66,-48.11 483.76,-35.6 470.52,-25.81"/>
<polygon fill="midnightblue" stroke="midnightblue" points="472.56,-22.97 462.44,-19.83 468.4,-28.59 472.56,-22.97"/>
</g>
<!-- Node10&#45;&gt;Node3 -->
<g id="edge10" class="edge">
<title>Node10&#45;&gt;Node3</title>
<path fill="none" stroke="midnightblue" d="M451.16,-19.9C447.8,-54.29 418.16,-179 402.66,-225.95"/>
<polygon fill="midnightblue" stroke="midnightblue" points="399.34,-224.84 399.31,-235.43 405.94,-227.17 399.34,-224.84"/>
</g>
<!-- Node11&#45;&gt;Node10 -->
<g id="edge16" class="edge">
<title>Node11&#45;&gt;Node10</title>
<path fill="none" stroke="midnightblue" d="M604.72,-112.13C601.49,-98.26 593.38,-71.43 576.5,-56 553.4,-34.87 519.69,-23.52 492.96,-17.5"/>
<polygon fill="midnightblue" stroke="midnightblue" points="493.59,-14.06 483.09,-15.45 492.17,-20.91 493.59,-14.06"/>
</g>
<!-- Node12&#45;&gt;Node3 -->
<g id="edge18" class="edge">
<title>Node12&#45;&gt;Node3</title>
<path fill="none" stroke="midnightblue" d="M214.41,-291.44C251.35,-282.12 310.55,-267.18 350.92,-257"/>
<polygon fill="midnightblue" stroke="midnightblue" points="351.91,-260.36 360.75,-254.52 350.2,-253.57 351.91,-260.36"/>
</g>
<!-- Node13&#45;&gt;Node3 -->
<g id="edge20" class="edge">
<title>Node13&#45;&gt;Node3</title>
<path fill="none" stroke="midnightblue" d="M332.39,-291.32C343.65,-283.11 360.79,-270.6 374.21,-260.81"/>
<polygon fill="midnightblue" stroke="midnightblue" points="376.38,-263.56 382.39,-254.83 372.25,-257.9 376.38,-263.56"/>
</g>
<!-- Node14&#45;&gt;Node3 -->
<g id="edge23" class="edge">
<title>Node14&#45;&gt;Node3</title>
<path fill="none" stroke="midnightblue" d="M418.38,-347.09C416.7,-334.5 413.24,-310.81 408.5,-291 406.36,-282.04 403.39,-272.25 400.74,-264.1"/>
<polygon fill="midnightblue" stroke="midnightblue" points="404.03,-262.9 397.53,-254.53 397.39,-265.13 404.03,-262.9"/>
</g>
<!-- Node15&#45;&gt;Node3 -->
<g id="edge25" class="edge">
<title>Node15&#45;&gt;Node3</title>
<path fill="none" stroke="midnightblue" d="M661.49,-459.18C655.45,-450.21 646,-435.84 638.5,-423 619.25,-390.04 623.47,-375.87 598.5,-347 556.7,-298.69 486.36,-271.12 440.18,-257.36"/>
<polygon fill="midnightblue" stroke="midnightblue" points="441,-253.96 430.43,-254.55 439.07,-260.68 441,-253.96"/>
</g>
<!-- Node16 -->
<g id="node16" class="node">
<title>Node16</title>
<g id="a_node16"><a xlink:href="test__biconnected_8hpp.html" target="_top" xlink:title=" ">
<polygon fill="white" stroke="black" points="647,-403.5 647,-422.5 768,-422.5 768,-403.5 647,-403.5"/>
<text text-anchor="middle" x="707.5" y="-410.5" font-family="Helvetica,sans-Serif" font-size="10.00">test_biconnected.hpp</text>
</a>
</g>
</g>
<!-- Node15&#45;&gt;Node16 -->
<g id="edge26" class="edge">
<title>Node15&#45;&gt;Node16</title>
<path fill="none" stroke="midnightblue" d="M668.94,-459.08C673.06,-451.3 681.21,-439.8 689.12,-430.37"/>
<polygon fill="midnightblue" stroke="midnightblue" points="691.86,-432.55 695.89,-422.75 686.63,-427.9 691.86,-432.55"/>
</g>
<!-- Node16&#45;&gt;Node15 -->
<g id="edge27" class="edge">
<title>Node16&#45;&gt;Node15</title>
<path fill="none" stroke="midnightblue" d="M706.15,-422.75C702.08,-430.48 693.96,-441.97 686.05,-451.43"/>
<polygon fill="midnightblue" stroke="midnightblue" points="683.29,-449.28 679.27,-459.08 688.52,-453.92 683.29,-449.28"/>
</g>
<!-- Node17&#45;&gt;Node2 -->
<g id="edge29" class="edge">
<title>Node17&#45;&gt;Node2</title>
<path fill="none" stroke="midnightblue" d="M307.33,-403.32C294.65,-394.98 275.27,-382.21 260.29,-372.35"/>
<polygon fill="midnightblue" stroke="midnightblue" points="261.92,-369.23 251.64,-366.65 258.07,-375.08 261.92,-369.23"/>
</g>
<!-- Node17&#45;&gt;Node3 -->
<g id="edge30" class="edge">
<title>Node17&#45;&gt;Node3</title>
<path fill="none" stroke="midnightblue" d="M326.01,-403.4C336.76,-386.34 360.72,-346.8 375.5,-311 381.81,-295.72 386.92,-277.61 390.25,-264.4"/>
<polygon fill="midnightblue" stroke="midnightblue" points="393.66,-265.15 392.61,-254.61 386.86,-263.51 393.66,-265.15"/>
</g>
<!-- Node18&#45;&gt;Node17 -->
<g id="edge32" class="edge">
<title>Node18&#45;&gt;Node17</title>
<path fill="none" stroke="midnightblue" d="M341.37,-459.08C337.99,-451.77 333.08,-441.18 328.88,-432.1"/>
<polygon fill="midnightblue" stroke="midnightblue" points="331.93,-430.36 324.55,-422.75 325.58,-433.3 331.93,-430.36"/>
</g>
<!-- Node19&#45;&gt;Node3 -->
<g id="edge34" class="edge">
<title>Node19&#45;&gt;Node3</title>
<path fill="none" stroke="midnightblue" d="M480.66,-403.3C477.78,-390.55 471.57,-366.22 462.5,-347 449.76,-320.03 442.18,-315.73 425.5,-291 419.19,-281.64 412.05,-271.27 406.21,-262.84"/>
<polygon fill="midnightblue" stroke="midnightblue" points="409.07,-260.81 400.49,-254.59 403.32,-264.8 409.07,-260.81"/>
</g>
<!-- Node20&#45;&gt;Node3 -->
<g id="edge36" class="edge">
<title>Node20&#45;&gt;Node3</title>
<path fill="none" stroke="midnightblue" d="M545.2,-347.33C536.52,-333.73 518.05,-307.26 496.5,-291 477.25,-276.47 452.57,-265.42 432.31,-257.91"/>
<polygon fill="midnightblue" stroke="midnightblue" points="433.36,-254.57 422.77,-254.51 431.01,-261.16 433.36,-254.57"/>
</g>
</g>
</svg>
        <g id="navigator" transform="translate(0 0)" fill="#404254">
                <rect fill="#f2f5e9" fill-opacity="0.5" stroke="#606060" stroke-width=".5" x="0" y="0" width="60" height="60"/>
                <use id="zoomplus" xlink:href="#zoomPlus" x="17" y="9" onmousedown="handleZoom(evt,'in')"/>
                <use id="zoomminus" xlink:href="#zoomMin" x="42" y="9" onmousedown="handleZoom(evt,'out')"/>
                <use id="reset" xlink:href="#resetDef" x="30" y="36" onmousedown="handleReset()"/>
                <g id="arrowUp" xlink:href="#dirArrow" transform="translate(30 24)" onmousedown="handlePan(0,-1)">
                  <use xlink:href="#rim" fill="#404040">
                        <set attributeName="fill" to="#808080" begin="arrowUp.mouseover" end="arrowUp.mouseout"/>
                  </use>
                  <path fill="none" stroke="white" stroke-width="1.5" d="M0,-3.0v7 M-2.5,-0.5L0,-3.0L2.5,-0.5"/>
                </g>
                <g id="arrowRight" xlink:href="#dirArrow" transform="rotate(90) translate(36 -43)" onmousedown="handlePan(1,0)">
                  <use xlink:href="#rim" fill="#404040">
                        <set attributeName="fill" to="#808080" begin="arrowRight.mouseover" end="arrowRight.mouseout"/>
                  </use>
                  <path fill="none" stroke="white" stroke-width="1.5" d="M0,-3.0v7 M-2.5,-0.5L0,-3.0L2.5,-0.5"/>
                </g>
                <g id="arrowDown" xlink:href="#dirArrow" transform="rotate(180) translate(-30 -48)" onmousedown="handlePan(0,1)">
                  <use xlink:href="#rim" fill="#404040">
                        <set attributeName="fill" to="#808080" begin="arrowDown.mouseover" end="arrowDown.mouseout"/>
                  </use>
                  <path fill="none" stroke="white" stroke-width="1.5" d="M0,-3.0v7 M-2.5,-0.5L0,-3.0L2.5,-0.5"/>
                </g>
                <g id="arrowLeft" xlink:href="#dirArrow" transform="rotate(270) translate(-36 17)" onmousedown="handlePan(-1,0)">
                  <use xlink:href="#rim" fill="#404040">
                        <set attributeName="fill" to="#808080" begin="arrowLeft.mouseover" end="arrowLeft.mouseout"/>
                  </use>
                  <path fill="none" stroke="white" stroke-width="1.5" d="M0,-3.0v7 M-2.5,-0.5L0,-3.0L2.5,-0.5"/>
                </g>
        </g>
        <svg viewBox="0 0 15 15" width="100%" height="30px" preserveAspectRatio="xMaxYMin meet">
         <g id="arrow_out" transform="scale(0.3 0.3)">
          <a xlink:href="graph_2all_8hpp__incl_org.svg" target="_base">
           <rect id="button" ry="5" rx="5" y="6" x="6" height="38" width="38"
                fill="#f2f5e9" fill-opacity="0.5" stroke="#606060" stroke-width="1.0"/>
           <path id="arrow"
             d="M 11.500037,31.436501 C 11.940474,20.09759 22.043105,11.32322 32.158766,21.979434 L 37.068811,17.246167 C 37.068811,17.246167 37.088388,32 37.088388,32 L 22.160133,31.978069 C 22.160133,31.978069 26.997745,27.140456 26.997745,27.140456 C 18.528582,18.264221 13.291696,25.230495 11.500037,31.436501 z"
             style="fill:#404040;"/>
          </a>
         </g>
        </svg>
</svg>
