<?xml version="1.0" encoding="UTF-8" standalone="no"?>
<!DOCTYPE svg PUBLIC "-//W3C//DTD SVG 1.1//EN"
 "http://www.w3.org/Graphics/SVG/1.1/DTD/svg11.dtd">
<!-- Generated by graphviz version 2.43.0 (0)
 -->
<!-- Title: /home/ram/OmniTemplate/src/graph/graph_view.hpp Pages: 1 -->
<svg width="1975pt" height="554pt"
 viewBox="0.00 0.00 1974.50 554.00" xmlns="http://www.w3.org/2000/svg" xmlns:xlink="http://www.w3.org/1999/xlink">
<g id="graph0" class="graph" transform="scale(1 1) rotate(0) translate(4 550)">
<title>/home/ram/OmniTemplate/src/graph/graph_view.hpp</title>
<polygon fill="white" stroke="transparent" points="-4,4 -4,-550 1970.5,-550 1970.5,4 -4,4"/>
<!-- Node1 -->
<g id="node1" class="node">
<title>Node1</title>
<g id="a_node1"><a xlink:title=" ">
<polygon fill="#bfbfbf" stroke="black" points="811,-515.5 811,-545.5 955,-545.5 955,-515.5 811,-515.5"/>
<text text-anchor="start" x="819" y="-533.5" font-family="Helvetica,sans-Serif" font-size="10.00">/home/ram/OmniTemplate</text>
<text text-anchor="middle" x="883" y="-522.5" font-family="Helvetica,sans-Serif" font-size="10.00">/src/graph/graph_view.hpp</text>
</a>
</g>
</g>
<!-- Node2 -->
<g id="node2" class="node">
<title>Node2</title>
<g id="a_node2"><a xlink:href="core_2all_8hpp.html" target="_top" xlink:title=" ">
<polygon fill="white" stroke="black" points="937,-235.5 937,-254.5 1011,-254.5 1011,-235.5 937,-235.5"/>
<text text-anchor="middle" x="974" y="-242.5" font-family="Helvetica,sans-Serif" font-size="10.00">core/all.hpp</text>
</a>
</g>
</g>
<!-- Node1&#45;&gt;Node2 -->
<g id="edge1" class="edge">
<title>Node1&#45;&gt;Node2</title>
<path fill="none" stroke="midnightblue" d="M872.18,-515.44C857.21,-494.53 832,-453.46 832,-414 832,-414 832,-414 832,-356 832,-304.07 892.09,-273.15 934.09,-257.89"/>
<polygon fill="midnightblue" stroke="midnightblue" points="935.24,-261.19 943.54,-254.6 932.94,-254.58 935.24,-261.19"/>
</g>
<!-- Node30 -->
<g id="node30" class="node">
<title>Node30</title>
<g id="a_node30"><a xlink:href="core_8hpp.html" target="_top" xlink:title=" ">
<polygon fill="white" stroke="black" points="893.5,-459.5 893.5,-478.5 982.5,-478.5 982.5,-459.5 893.5,-459.5"/>
<text text-anchor="middle" x="938" y="-466.5" font-family="Helvetica,sans-Serif" font-size="10.00">graph/core.hpp</text>
</a>
</g>
</g>
<!-- Node1&#45;&gt;Node30 -->
<g id="edge35" class="edge">
<title>Node1&#45;&gt;Node30</title>
<path fill="none" stroke="midnightblue" d="M896.03,-515.4C904.19,-506.58 914.72,-495.18 923.19,-486.02"/>
<polygon fill="midnightblue" stroke="midnightblue" points="925.78,-488.38 930,-478.66 920.64,-483.63 925.78,-488.38"/>
</g>
<!-- Node3 -->
<g id="node3" class="node">
<title>Node3</title>
<g id="a_node3"><a xlink:title=" ">
<polygon fill="white" stroke="#bfbfbf" points="0,-174 0,-193 64,-193 64,-174 0,-174"/>
<text text-anchor="middle" x="32" y="-181" font-family="Helvetica,sans-Serif" font-size="10.00">algorithm</text>
</a>
</g>
</g>
<!-- Node2&#45;&gt;Node3 -->
<g id="edge2" class="edge">
<title>Node2&#45;&gt;Node3</title>
<path fill="none" stroke="midnightblue" d="M936.85,-243.58C789.04,-241.67 242.5,-232.46 73,-199 69.49,-198.31 65.87,-197.37 62.3,-196.31"/>
<polygon fill="midnightblue" stroke="midnightblue" points="63.12,-192.89 52.53,-193.07 60.92,-199.54 63.12,-192.89"/>
</g>
<!-- Node4 -->
<g id="node4" class="node">
<title>Node4</title>
<g id="a_node4"><a xlink:title=" ">
<polygon fill="white" stroke="#bfbfbf" points="82,-174 82,-193 126,-193 126,-174 82,-174"/>
<text text-anchor="middle" x="104" y="-181" font-family="Helvetica,sans-Serif" font-size="10.00">bitset</text>
</a>
</g>
</g>
<!-- Node2&#45;&gt;Node4 -->
<g id="edge3" class="edge">
<title>Node2&#45;&gt;Node4</title>
<path fill="none" stroke="midnightblue" d="M936.68,-243.89C794.94,-243.17 290.11,-237.87 135,-199 133.01,-198.5 131,-197.87 129,-197.16"/>
<polygon fill="midnightblue" stroke="midnightblue" points="129.91,-193.75 119.34,-193.09 127.19,-200.2 129.91,-193.75"/>
</g>
<!-- Node5 -->
<g id="node5" class="node">
<title>Node5</title>
<g id="a_node5"><a xlink:title=" ">
<polygon fill="white" stroke="#bfbfbf" points="144,-174 144,-193 196,-193 196,-174 144,-174"/>
<text text-anchor="middle" x="170" y="-181" font-family="Helvetica,sans-Serif" font-size="10.00">cassert</text>
</a>
</g>
</g>
<!-- Node2&#45;&gt;Node5 -->
<g id="edge4" class="edge">
<title>Node2&#45;&gt;Node5</title>
<path fill="none" stroke="midnightblue" d="M936.67,-243.46C802.73,-241.27 346.75,-231.53 205,-199 202.33,-198.39 199.6,-197.59 196.9,-196.68"/>
<polygon fill="midnightblue" stroke="midnightblue" points="198.02,-193.36 187.43,-193.06 195.52,-199.9 198.02,-193.36"/>
</g>
<!-- Node6 -->
<g id="node6" class="node">
<title>Node6</title>
<g id="a_node6"><a xlink:title=" ">
<polygon fill="white" stroke="#bfbfbf" points="214,-174 214,-193 264,-193 264,-174 214,-174"/>
<text text-anchor="middle" x="239" y="-181" font-family="Helvetica,sans-Serif" font-size="10.00">chrono</text>
</a>
</g>
</g>
<!-- Node2&#45;&gt;Node6 -->
<g id="edge5" class="edge">
<title>Node2&#45;&gt;Node6</title>
<path fill="none" stroke="midnightblue" d="M936.95,-243.27C811.14,-240.54 400.98,-229.45 273,-199 270.49,-198.4 267.92,-197.63 265.39,-196.76"/>
<polygon fill="midnightblue" stroke="midnightblue" points="266.5,-193.44 255.91,-193.05 263.94,-199.96 266.5,-193.44"/>
</g>
<!-- Node7 -->
<g id="node7" class="node">
<title>Node7</title>
<g id="a_node7"><a xlink:title=" ">
<polygon fill="white" stroke="#bfbfbf" points="282,-174 282,-193 332,-193 332,-174 282,-174"/>
<text text-anchor="middle" x="307" y="-181" font-family="Helvetica,sans-Serif" font-size="10.00">climits</text>
</a>
</g>
</g>
<!-- Node2&#45;&gt;Node7 -->
<g id="edge6" class="edge">
<title>Node2&#45;&gt;Node7</title>
<path fill="none" stroke="midnightblue" d="M936.91,-242.97C819.23,-239.47 455.32,-226.62 341,-199 338.49,-198.39 335.93,-197.62 333.39,-196.74"/>
<polygon fill="midnightblue" stroke="midnightblue" points="334.5,-193.42 323.92,-193.02 331.94,-199.94 334.5,-193.42"/>
</g>
<!-- Node8 -->
<g id="node8" class="node">
<title>Node8</title>
<g id="a_node8"><a xlink:title=" ">
<polygon fill="white" stroke="#bfbfbf" points="350.5,-174 350.5,-193 409.5,-193 409.5,-174 350.5,-174"/>
<text text-anchor="middle" x="380" y="-181" font-family="Helvetica,sans-Serif" font-size="10.00">complex</text>
</a>
</g>
</g>
<!-- Node2&#45;&gt;Node8 -->
<g id="edge7" class="edge">
<title>Node2&#45;&gt;Node8</title>
<path fill="none" stroke="midnightblue" d="M936.7,-244.6C846.42,-245.26 609.5,-242.36 418,-199 415,-198.32 411.92,-197.45 408.87,-196.48"/>
<polygon fill="midnightblue" stroke="midnightblue" points="409.99,-193.16 399.39,-193.11 407.65,-199.76 409.99,-193.16"/>
</g>
<!-- Node9 -->
<g id="node9" class="node">
<title>Node9</title>
<g id="a_node9"><a xlink:title=" ">
<polygon fill="white" stroke="#bfbfbf" points="427.5,-174 427.5,-193 482.5,-193 482.5,-174 427.5,-174"/>
<text text-anchor="middle" x="455" y="-181" font-family="Helvetica,sans-Serif" font-size="10.00">fstream</text>
</a>
</g>
</g>
<!-- Node2&#45;&gt;Node9 -->
<g id="edge8" class="edge">
<title>Node2&#45;&gt;Node9</title>
<path fill="none" stroke="midnightblue" d="M936.74,-244.17C854.88,-243.77 653.67,-238.45 491,-199 488.33,-198.35 485.6,-197.54 482.89,-196.64"/>
<polygon fill="midnightblue" stroke="midnightblue" points="483.94,-193.3 473.35,-193.08 481.49,-199.86 483.94,-193.3"/>
</g>
<!-- Node10 -->
<g id="node10" class="node">
<title>Node10</title>
<g id="a_node10"><a xlink:title=" ">
<polygon fill="white" stroke="#bfbfbf" points="500.5,-174 500.5,-193 565.5,-193 565.5,-174 500.5,-174"/>
<text text-anchor="middle" x="533" y="-181" font-family="Helvetica,sans-Serif" font-size="10.00">functional</text>
</a>
</g>
</g>
<!-- Node2&#45;&gt;Node10 -->
<g id="edge9" class="edge">
<title>Node2&#45;&gt;Node10</title>
<path fill="none" stroke="midnightblue" d="M936.97,-242.54C865.96,-239.15 706.06,-228.63 575,-199 571.59,-198.23 568.06,-197.27 564.58,-196.23"/>
<polygon fill="midnightblue" stroke="midnightblue" points="565.56,-192.87 554.97,-193.1 563.4,-199.52 565.56,-192.87"/>
</g>
<!-- Node11 -->
<g id="node11" class="node">
<title>Node11</title>
<g id="a_node11"><a xlink:title=" ">
<polygon fill="white" stroke="#bfbfbf" points="584,-174 584,-193 644,-193 644,-174 584,-174"/>
<text text-anchor="middle" x="614" y="-181" font-family="Helvetica,sans-Serif" font-size="10.00">iostream</text>
</a>
</g>
</g>
<!-- Node2&#45;&gt;Node11 -->
<g id="edge10" class="edge">
<title>Node2&#45;&gt;Node11</title>
<path fill="none" stroke="midnightblue" d="M936.91,-241.42C876.62,-236.65 753.93,-224.52 653,-199 650.01,-198.25 646.94,-197.34 643.89,-196.36"/>
<polygon fill="midnightblue" stroke="midnightblue" points="644.98,-193.03 634.38,-193.02 642.66,-199.63 644.98,-193.03"/>
</g>
<!-- Node12 -->
<g id="node12" class="node">
<title>Node12</title>
<g id="a_node12"><a xlink:title=" ">
<polygon fill="white" stroke="#bfbfbf" points="662,-174 662,-193 700,-193 700,-174 662,-174"/>
<text text-anchor="middle" x="681" y="-181" font-family="Helvetica,sans-Serif" font-size="10.00">map</text>
</a>
</g>
</g>
<!-- Node2&#45;&gt;Node12 -->
<g id="edge11" class="edge">
<title>Node2&#45;&gt;Node12</title>
<path fill="none" stroke="midnightblue" d="M936.69,-241.32C884.57,-236.76 787.55,-225.29 709,-199 707.57,-198.52 706.13,-197.98 704.69,-197.39"/>
<polygon fill="midnightblue" stroke="midnightblue" points="705.99,-194.14 695.45,-193.06 703.02,-200.47 705.99,-194.14"/>
</g>
<!-- Node13 -->
<g id="node13" class="node">
<title>Node13</title>
<g id="a_node13"><a xlink:title=" ">
<polygon fill="white" stroke="#bfbfbf" points="718,-174 718,-193 774,-193 774,-174 718,-174"/>
<text text-anchor="middle" x="746" y="-181" font-family="Helvetica,sans-Serif" font-size="10.00">numeric</text>
</a>
</g>
</g>
<!-- Node2&#45;&gt;Node13 -->
<g id="edge12" class="edge">
<title>Node2&#45;&gt;Node13</title>
<path fill="none" stroke="midnightblue" d="M936.97,-236.9C898.18,-229.09 835.68,-215.44 783,-199 780.58,-198.24 778.09,-197.41 775.61,-196.53"/>
<polygon fill="midnightblue" stroke="midnightblue" points="776.76,-193.22 766.17,-193 774.31,-199.78 776.76,-193.22"/>
</g>
<!-- Node14 -->
<g id="node14" class="node">
<title>Node14</title>
<g id="a_node14"><a xlink:title=" ">
<polygon fill="white" stroke="#bfbfbf" points="792.5,-174 792.5,-193 839.5,-193 839.5,-174 792.5,-174"/>
<text text-anchor="middle" x="816" y="-181" font-family="Helvetica,sans-Serif" font-size="10.00">queue</text>
</a>
</g>
</g>
<!-- Node2&#45;&gt;Node14 -->
<g id="edge13" class="edge">
<title>Node2&#45;&gt;Node14</title>
<path fill="none" stroke="midnightblue" d="M948.43,-235.37C923.03,-226.66 883.06,-212.6 849,-199 847.4,-198.36 845.77,-197.69 844.12,-197.01"/>
<polygon fill="midnightblue" stroke="midnightblue" points="845.32,-193.72 834.75,-193.01 842.57,-200.15 845.32,-193.72"/>
</g>
<!-- Node15 -->
<g id="node15" class="node">
<title>Node15</title>
<g id="a_node15"><a xlink:title=" ">
<polygon fill="white" stroke="#bfbfbf" points="858,-174 858,-193 912,-193 912,-174 858,-174"/>
<text text-anchor="middle" x="885" y="-181" font-family="Helvetica,sans-Serif" font-size="10.00">random</text>
</a>
</g>
</g>
<!-- Node2&#45;&gt;Node15 -->
<g id="edge14" class="edge">
<title>Node2&#45;&gt;Node15</title>
<path fill="none" stroke="midnightblue" d="M961.25,-235.48C946.97,-225.93 923.6,-210.31 906.49,-198.87"/>
<polygon fill="midnightblue" stroke="midnightblue" points="907.99,-195.66 897.73,-193.01 904.1,-201.48 907.99,-195.66"/>
</g>
<!-- Node16 -->
<g id="node16" class="node">
<title>Node16</title>
<g id="a_node16"><a xlink:title=" ">
<polygon fill="white" stroke="#bfbfbf" points="930,-174 930,-193 962,-193 962,-174 930,-174"/>
<text text-anchor="middle" x="946" y="-181" font-family="Helvetica,sans-Serif" font-size="10.00">set</text>
</a>
</g>
</g>
<!-- Node2&#45;&gt;Node16 -->
<g id="edge15" class="edge">
<title>Node2&#45;&gt;Node16</title>
<path fill="none" stroke="midnightblue" d="M969.99,-235.48C965.91,-226.82 959.48,-213.15 954.3,-202.15"/>
<polygon fill="midnightblue" stroke="midnightblue" points="957.43,-200.57 950,-193.01 951.1,-203.55 957.43,-200.57"/>
</g>
<!-- Node17 -->
<g id="node17" class="node">
<title>Node17</title>
<g id="a_node17"><a xlink:title=" ">
<polygon fill="white" stroke="#bfbfbf" points="980.5,-174 980.5,-193 1023.5,-193 1023.5,-174 980.5,-174"/>
<text text-anchor="middle" x="1002" y="-181" font-family="Helvetica,sans-Serif" font-size="10.00">stack</text>
</a>
</g>
</g>
<!-- Node2&#45;&gt;Node17 -->
<g id="edge16" class="edge">
<title>Node2&#45;&gt;Node17</title>
<path fill="none" stroke="midnightblue" d="M978.01,-235.48C982.09,-226.82 988.52,-213.15 993.7,-202.15"/>
<polygon fill="midnightblue" stroke="midnightblue" points="996.9,-203.55 998,-193.01 990.57,-200.57 996.9,-203.55"/>
</g>
<!-- Node18 -->
<g id="node18" class="node">
<title>Node18</title>
<g id="a_node18"><a xlink:title=" ">
<polygon fill="white" stroke="#bfbfbf" points="1042,-174 1042,-193 1090,-193 1090,-174 1042,-174"/>
<text text-anchor="middle" x="1066" y="-181" font-family="Helvetica,sans-Serif" font-size="10.00">thread</text>
</a>
</g>
</g>
<!-- Node2&#45;&gt;Node18 -->
<g id="edge17" class="edge">
<title>Node2&#45;&gt;Node18</title>
<path fill="none" stroke="midnightblue" d="M987.18,-235.48C1002.07,-225.84 1026.54,-210.02 1044.27,-198.55"/>
<polygon fill="midnightblue" stroke="midnightblue" points="1046.35,-201.38 1052.84,-193.01 1042.55,-195.5 1046.35,-201.38"/>
</g>
<!-- Node19 -->
<g id="node19" class="node">
<title>Node19</title>
<g id="a_node19"><a xlink:title=" ">
<polygon fill="white" stroke="#bfbfbf" points="1108.5,-174 1108.5,-193 1177.5,-193 1177.5,-174 1108.5,-174"/>
<text text-anchor="middle" x="1143" y="-181" font-family="Helvetica,sans-Serif" font-size="10.00">type_traits</text>
</a>
</g>
</g>
<!-- Node2&#45;&gt;Node19 -->
<g id="edge18" class="edge">
<title>Node2&#45;&gt;Node19</title>
<path fill="none" stroke="midnightblue" d="M998.21,-235.48C1027.33,-225.22 1076.37,-207.96 1109.2,-196.4"/>
<polygon fill="midnightblue" stroke="midnightblue" points="1110.56,-199.63 1118.83,-193.01 1108.24,-193.03 1110.56,-199.63"/>
</g>
<!-- Node20 -->
<g id="node20" class="node">
<title>Node20</title>
<g id="a_node20"><a xlink:title=" ">
<polygon fill="white" stroke="#bfbfbf" points="1196,-174 1196,-193 1282,-193 1282,-174 1196,-174"/>
<text text-anchor="middle" x="1239" y="-181" font-family="Helvetica,sans-Serif" font-size="10.00">unordered_set</text>
</a>
</g>
</g>
<!-- Node2&#45;&gt;Node20 -->
<g id="edge19" class="edge">
<title>Node2&#45;&gt;Node20</title>
<path fill="none" stroke="midnightblue" d="M1011.29,-236.76C1053.75,-228.37 1125.12,-213.78 1186,-199 1190.34,-197.95 1194.87,-196.79 1199.37,-195.61"/>
<polygon fill="midnightblue" stroke="midnightblue" points="1200.33,-198.98 1209.09,-193.01 1198.52,-192.21 1200.33,-198.98"/>
</g>
<!-- Node21 -->
<g id="node21" class="node">
<title>Node21</title>
<g id="a_node21"><a xlink:title=" ">
<polygon fill="white" stroke="#bfbfbf" points="1300.5,-174 1300.5,-193 1345.5,-193 1345.5,-174 1300.5,-174"/>
<text text-anchor="middle" x="1323" y="-181" font-family="Helvetica,sans-Serif" font-size="10.00">utility</text>
</a>
</g>
</g>
<!-- Node2&#45;&gt;Node21 -->
<g id="edge20" class="edge">
<title>Node2&#45;&gt;Node21</title>
<path fill="none" stroke="midnightblue" d="M1011.33,-242.14C1071.34,-238.38 1192.53,-227.66 1291,-199 1292.93,-198.44 1294.9,-197.78 1296.86,-197.06"/>
<polygon fill="midnightblue" stroke="midnightblue" points="1298.51,-200.16 1306.4,-193.1 1295.82,-193.7 1298.51,-200.16"/>
</g>
<!-- Node22 -->
<g id="node22" class="node">
<title>Node22</title>
<g id="a_node22"><a xlink:title=" ">
<polygon fill="white" stroke="#bfbfbf" points="1363.5,-174 1363.5,-193 1410.5,-193 1410.5,-174 1363.5,-174"/>
<text text-anchor="middle" x="1387" y="-181" font-family="Helvetica,sans-Serif" font-size="10.00">vector</text>
</a>
</g>
</g>
<!-- Node2&#45;&gt;Node22 -->
<g id="edge21" class="edge">
<title>Node2&#45;&gt;Node22</title>
<path fill="none" stroke="midnightblue" d="M1011.24,-243.38C1080.28,-241.4 1232.28,-233.16 1355,-199 1357.15,-198.4 1359.34,-197.68 1361.51,-196.88"/>
<polygon fill="midnightblue" stroke="midnightblue" points="1362.87,-200.1 1370.76,-193.03 1360.18,-193.64 1362.87,-200.1"/>
</g>
<!-- Node23 -->
<g id="node23" class="node">
<title>Node23</title>
<g id="a_node23"><a xlink:title=" ">
<polygon fill="white" stroke="#bfbfbf" points="1428.5,-168.5 1428.5,-198.5 1545.5,-198.5 1545.5,-168.5 1428.5,-168.5"/>
<text text-anchor="start" x="1436.5" y="-186.5" font-family="Helvetica,sans-Serif" font-size="10.00">experimental/source</text>
<text text-anchor="middle" x="1487" y="-175.5" font-family="Helvetica,sans-Serif" font-size="10.00">_location</text>
</a>
</g>
</g>
<!-- Node2&#45;&gt;Node23 -->
<g id="edge22" class="edge">
<title>Node2&#45;&gt;Node23</title>
<path fill="none" stroke="midnightblue" d="M1011.19,-241.67C1086.29,-236.66 1261.59,-223.41 1417.97,-199.22"/>
<polygon fill="midnightblue" stroke="midnightblue" points="1418.91,-202.61 1428.24,-197.61 1417.82,-195.7 1418.91,-202.61"/>
</g>
<!-- Node24 -->
<g id="node24" class="node">
<title>Node24</title>
<g id="a_node24"><a xlink:title=" ">
<polygon fill="white" stroke="#bfbfbf" points="1563.5,-174 1563.5,-193 1684.5,-193 1684.5,-174 1563.5,-174"/>
<text text-anchor="middle" x="1624" y="-181" font-family="Helvetica,sans-Serif" font-size="10.00">experimental/iterator</text>
</a>
</g>
</g>
<!-- Node2&#45;&gt;Node24 -->
<g id="edge23" class="edge">
<title>Node2&#45;&gt;Node24</title>
<path fill="none" stroke="midnightblue" d="M1011.23,-242.79C1103.67,-239.43 1350.95,-228.22 1555,-199 1562.41,-197.94 1570.23,-196.56 1577.82,-195.07"/>
<polygon fill="midnightblue" stroke="midnightblue" points="1578.53,-198.49 1587.63,-193.07 1577.13,-191.64 1578.53,-198.49"/>
</g>
<!-- Node25 -->
<g id="node25" class="node">
<title>Node25</title>
<g id="a_node25"><a xlink:href="debug_8hpp.html" target="_top" xlink:title=" ">
<polygon fill="white" stroke="black" points="1750,-112.5 1750,-131.5 1818,-131.5 1818,-112.5 1750,-112.5"/>
<text text-anchor="middle" x="1784" y="-119.5" font-family="Helvetica,sans-Serif" font-size="10.00">debug.hpp</text>
</a>
</g>
</g>
<!-- Node2&#45;&gt;Node25 -->
<g id="edge24" class="edge">
<title>Node2&#45;&gt;Node25</title>
<path fill="none" stroke="midnightblue" d="M1011.21,-243.6C1154.21,-241.81 1663.64,-233.08 1727,-199 1750.67,-186.27 1767.3,-158.96 1776.26,-140.78"/>
<polygon fill="midnightblue" stroke="midnightblue" points="1779.51,-142.09 1780.55,-131.55 1773.16,-139.14 1779.51,-142.09"/>
</g>
<!-- Node26 -->
<g id="node26" class="node">
<title>Node26</title>
<g id="a_node26"><a xlink:href="operations_8hpp.html" target="_top" xlink:title=" ">
<polygon fill="white" stroke="black" points="1699.5,-56.5 1699.5,-75.5 1788.5,-75.5 1788.5,-56.5 1699.5,-56.5"/>
<text text-anchor="middle" x="1744" y="-63.5" font-family="Helvetica,sans-Serif" font-size="10.00">operations.hpp</text>
</a>
</g>
</g>
<!-- Node2&#45;&gt;Node26 -->
<g id="edge31" class="edge">
<title>Node2&#45;&gt;Node26</title>
<path fill="none" stroke="midnightblue" d="M1011.32,-244C1151.13,-243.7 1638.82,-239.71 1694,-199 1730.39,-172.16 1740.3,-115.44 1742.99,-85.85"/>
<polygon fill="midnightblue" stroke="midnightblue" points="1746.5,-85.87 1743.73,-75.64 1739.52,-85.36 1746.5,-85.87"/>
</g>
<!-- Node27 -->
<g id="node27" class="node">
<title>Node27</title>
<g id="a_node27"><a xlink:href="range_8hpp.html" target="_top" xlink:title=" ">
<polygon fill="white" stroke="black" points="1831.5,-0.5 1831.5,-19.5 1896.5,-19.5 1896.5,-0.5 1831.5,-0.5"/>
<text text-anchor="middle" x="1864" y="-7.5" font-family="Helvetica,sans-Serif" font-size="10.00">range.hpp</text>
</a>
</g>
</g>
<!-- Node2&#45;&gt;Node27 -->
<g id="edge32" class="edge">
<title>Node2&#45;&gt;Node27</title>
<path fill="none" stroke="midnightblue" d="M1011.09,-243.3C1171.29,-240.25 1796.24,-226.95 1827,-199 1874.81,-155.56 1865.87,-68.63 1863.05,-30.12"/>
<polygon fill="midnightblue" stroke="midnightblue" points="1866.52,-29.6 1862.43,-19.82 1859.53,-30.01 1866.52,-29.6"/>
</g>
<!-- Node28 -->
<g id="node28" class="node">
<title>Node28</title>
<g id="a_node28"><a xlink:href="io_8hpp.html" target="_top" xlink:title=" ">
<polygon fill="white" stroke="black" points="1779.5,-174 1779.5,-193 1826.5,-193 1826.5,-174 1779.5,-174"/>
<text text-anchor="middle" x="1803" y="-181" font-family="Helvetica,sans-Serif" font-size="10.00">io.hpp</text>
</a>
</g>
</g>
<!-- Node2&#45;&gt;Node28 -->
<g id="edge29" class="edge">
<title>Node2&#45;&gt;Node28</title>
<path fill="none" stroke="midnightblue" d="M1011.42,-243.39C1147.87,-240.94 1618.39,-230.35 1765,-199 1768.08,-198.34 1771.23,-197.47 1774.35,-196.49"/>
<polygon fill="midnightblue" stroke="midnightblue" points="1775.77,-199.7 1784.02,-193.06 1773.42,-193.1 1775.77,-199.7"/>
</g>
<!-- Node29 -->
<g id="node29" class="node">
<title>Node29</title>
<g id="a_node29"><a xlink:href="utility_8hpp.html" target="_top" xlink:title=" ">
<polygon fill="white" stroke="black" points="1901.5,-112.5 1901.5,-131.5 1966.5,-131.5 1966.5,-112.5 1901.5,-112.5"/>
<text text-anchor="middle" x="1934" y="-119.5" font-family="Helvetica,sans-Serif" font-size="10.00">utility.hpp</text>
</a>
</g>
</g>
<!-- Node2&#45;&gt;Node29 -->
<g id="edge33" class="edge">
<title>Node2&#45;&gt;Node29</title>
<path fill="none" stroke="midnightblue" d="M1011.26,-244.19C1173.14,-244.74 1810.72,-244.01 1887,-199 1908.57,-186.27 1921.62,-159.38 1928.33,-141.25"/>
<polygon fill="midnightblue" stroke="midnightblue" points="1931.73,-142.12 1931.63,-131.52 1925.1,-139.87 1931.73,-142.12"/>
</g>
<!-- Node25&#45;&gt;Node26 -->
<g id="edge25" class="edge">
<title>Node25&#45;&gt;Node26</title>
<path fill="none" stroke="midnightblue" d="M1777.39,-112.08C1771.74,-104.46 1763.46,-93.26 1756.55,-83.94"/>
<polygon fill="midnightblue" stroke="midnightblue" points="1759.25,-81.7 1750.48,-75.75 1753.62,-85.87 1759.25,-81.7"/>
</g>
<!-- Node25&#45;&gt;Node27 -->
<g id="edge28" class="edge">
<title>Node25&#45;&gt;Node27</title>
<path fill="none" stroke="midnightblue" d="M1790.28,-112.37C1803.48,-94.22 1834.33,-51.8 1851.64,-27.99"/>
<polygon fill="midnightblue" stroke="midnightblue" points="1854.7,-29.74 1857.75,-19.59 1849.04,-25.62 1854.7,-29.74"/>
</g>
<!-- Node26&#45;&gt;Node27 -->
<g id="edge26" class="edge">
<title>Node26&#45;&gt;Node27</title>
<path fill="none" stroke="midnightblue" d="M1763.01,-56.44C1782.59,-47.64 1813.31,-33.81 1835.73,-23.72"/>
<polygon fill="midnightblue" stroke="midnightblue" points="1837.39,-26.81 1845.07,-19.52 1834.52,-20.43 1837.39,-26.81"/>
</g>
<!-- Node27&#45;&gt;Node2 -->
<g id="edge27" class="edge">
<title>Node27&#45;&gt;Node2</title>
<path fill="none" stroke="midnightblue" d="M1869.62,-19.82C1881.42,-50.18 1897.75,-151.07 1845,-199 1814.47,-226.74 1198.48,-240.06 1021.25,-243.24"/>
<polygon fill="midnightblue" stroke="midnightblue" points="1021.12,-239.74 1011.19,-243.41 1021.25,-246.74 1021.12,-239.74"/>
</g>
<!-- Node28&#45;&gt;Node25 -->
<g id="edge30" class="edge">
<title>Node28&#45;&gt;Node25</title>
<path fill="none" stroke="midnightblue" d="M1800.28,-173.98C1797.57,-165.49 1793.33,-152.2 1789.85,-141.32"/>
<polygon fill="midnightblue" stroke="midnightblue" points="1793.09,-139.97 1786.72,-131.51 1786.43,-142.1 1793.09,-139.97"/>
</g>
<!-- Node29&#45;&gt;Node27 -->
<g id="edge34" class="edge">
<title>Node29&#45;&gt;Node27</title>
<path fill="none" stroke="midnightblue" d="M1928.51,-112.37C1917.01,-94.3 1890.2,-52.18 1875.01,-28.31"/>
<polygon fill="midnightblue" stroke="midnightblue" points="1877.79,-26.15 1869.47,-19.59 1871.88,-29.91 1877.79,-26.15"/>
</g>
<!-- Node31 -->
<g id="node31" class="node">
<title>Node31</title>
<g id="a_node31"><a xlink:href="linear__algebra_8hpp.html" target="_top" xlink:title=" ">
<polygon fill="white" stroke="black" points="864.5,-403.5 864.5,-422.5 1011.5,-422.5 1011.5,-403.5 864.5,-403.5"/>
<text text-anchor="middle" x="938" y="-410.5" font-family="Helvetica,sans-Serif" font-size="10.00">algebra/linear_algebra.hpp</text>
</a>
</g>
</g>
<!-- Node30&#45;&gt;Node31 -->
<g id="edge36" class="edge">
<title>Node30&#45;&gt;Node31</title>
<path fill="none" stroke="midnightblue" d="M938,-459.08C938,-452.01 938,-441.86 938,-432.99"/>
<polygon fill="midnightblue" stroke="midnightblue" points="941.5,-432.75 938,-422.75 934.5,-432.75 941.5,-432.75"/>
</g>
<!-- Node34 -->
<g id="node34" class="node">
<title>Node34</title>
<g id="a_node34"><a xlink:href="dsu_8hpp.html" target="_top" xlink:title=" ">
<polygon fill="white" stroke="black" points="1078.5,-347.5 1078.5,-366.5 1147.5,-366.5 1147.5,-347.5 1078.5,-347.5"/>
<text text-anchor="middle" x="1113" y="-354.5" font-family="Helvetica,sans-Serif" font-size="10.00">ds/dsu.hpp</text>
</a>
</g>
</g>
<!-- Node30&#45;&gt;Node34 -->
<g id="edge43" class="edge">
<title>Node30&#45;&gt;Node34</title>
<path fill="none" stroke="midnightblue" d="M954.95,-459.38C971.75,-450.69 998.07,-436.63 1020,-423 1046.03,-406.83 1074.76,-386.31 1093.3,-372.7"/>
<polygon fill="midnightblue" stroke="midnightblue" points="1095.56,-375.38 1101.53,-366.62 1091.41,-369.75 1095.56,-375.38"/>
</g>
<!-- Node31&#45;&gt;Node2 -->
<g id="edge37" class="edge">
<title>Node31&#45;&gt;Node2</title>
<path fill="none" stroke="midnightblue" d="M929.23,-403.36C909.55,-382.88 865.39,-330.22 889,-291 898.29,-275.57 914.83,-265.16 930.87,-258.27"/>
<polygon fill="midnightblue" stroke="midnightblue" points="932.17,-261.52 940.2,-254.61 929.61,-255.01 932.17,-261.52"/>
</g>
<!-- Node32 -->
<g id="node32" class="node">
<title>Node32</title>
<g id="a_node32"><a xlink:href="modulo_8hpp.html" target="_top" xlink:title=" ">
<polygon fill="white" stroke="black" points="898,-291.5 898,-310.5 1050,-310.5 1050,-291.5 898,-291.5"/>
<text text-anchor="middle" x="974" y="-298.5" font-family="Helvetica,sans-Serif" font-size="10.00">number_theory/modulo.hpp</text>
</a>
</g>
</g>
<!-- Node31&#45;&gt;Node32 -->
<g id="edge38" class="edge">
<title>Node31&#45;&gt;Node32</title>
<path fill="none" stroke="midnightblue" d="M940.37,-403.1C943.77,-390.52 950.36,-366.85 957,-347 959.98,-338.08 963.63,-328.3 966.78,-320.14"/>
<polygon fill="midnightblue" stroke="midnightblue" points="970.15,-321.14 970.54,-310.56 963.63,-318.59 970.15,-321.14"/>
</g>
<!-- Node33 -->
<g id="node33" class="node">
<title>Node33</title>
<g id="a_node33"><a xlink:href="polynomial_8hpp.html" target="_top" xlink:title=" ">
<polygon fill="white" stroke="black" points="966,-347.5 966,-366.5 1058,-366.5 1058,-347.5 966,-347.5"/>
<text text-anchor="middle" x="1012" y="-354.5" font-family="Helvetica,sans-Serif" font-size="10.00">polynomial.hpp</text>
</a>
</g>
</g>
<!-- Node31&#45;&gt;Node33 -->
<g id="edge40" class="edge">
<title>Node31&#45;&gt;Node33</title>
<path fill="none" stroke="midnightblue" d="M949.89,-403.32C961.15,-395.11 978.29,-382.6 991.71,-372.81"/>
<polygon fill="midnightblue" stroke="midnightblue" points="993.88,-375.56 999.89,-366.83 989.75,-369.9 993.88,-375.56"/>
</g>
<!-- Node32&#45;&gt;Node2 -->
<g id="edge39" class="edge">
<title>Node32&#45;&gt;Node2</title>
<path fill="none" stroke="midnightblue" d="M974,-291.08C974,-284.01 974,-273.86 974,-264.99"/>
<polygon fill="midnightblue" stroke="midnightblue" points="977.5,-264.75 974,-254.75 970.5,-264.75 977.5,-264.75"/>
</g>
<!-- Node33&#45;&gt;Node2 -->
<g id="edge41" class="edge">
<title>Node33&#45;&gt;Node2</title>
<path fill="none" stroke="midnightblue" d="M1025.99,-347.49C1044.07,-335.37 1071.79,-312.24 1059,-291 1049.71,-275.57 1033.17,-265.16 1017.13,-258.27"/>
<polygon fill="midnightblue" stroke="midnightblue" points="1018.39,-255.01 1007.8,-254.61 1015.83,-261.52 1018.39,-255.01"/>
</g>
<!-- Node33&#45;&gt;Node32 -->
<g id="edge42" class="edge">
<title>Node33&#45;&gt;Node32</title>
<path fill="none" stroke="midnightblue" d="M1005.73,-347.08C1000.36,-339.46 992.48,-328.26 985.92,-318.94"/>
<polygon fill="midnightblue" stroke="midnightblue" points="988.78,-316.91 980.16,-310.75 983.05,-320.94 988.78,-316.91"/>
</g>
<!-- Node34&#45;&gt;Node2 -->
<g id="edge44" class="edge">
<title>Node34&#45;&gt;Node2</title>
<path fill="none" stroke="midnightblue" d="M1109.92,-347.28C1104.71,-333.61 1092.92,-307.05 1075,-291 1058.12,-275.88 1035.33,-265.14 1015.67,-257.95"/>
<polygon fill="midnightblue" stroke="midnightblue" points="1016.61,-254.57 1006.02,-254.6 1014.32,-261.18 1016.61,-254.57"/>
</g>
</g>
</svg>
