<?xml version="1.0" encoding="UTF-8" standalone="no"?>
<!DOCTYPE svg PUBLIC "-//W3C//DTD SVG 1.1//EN"
 "http://www.w3.org/Graphics/SVG/1.1/DTD/svg11.dtd">
<!-- Generated by graphviz version 2.43.0 (0)
 -->
<!-- Title: /home/ram/OmniTemplate/graph_theory.hpp Pages: 1 -->
<!--zoomable 274 -->
<svg id="main" version="1.1" xmlns="http://www.w3.org/2000/svg" xmlns:xlink="http://www.w3.org/1999/xlink" xml:space="preserve" onload="init(evt)">
<style type="text/css"><![CDATA[
.edge:hover path { stroke: red; }
.edge:hover polygon { stroke: red; fill: red; }
]]></style>
<script type="text/javascript"><![CDATA[
var edges = document.getElementsByTagName('g');
if (edges && edges.length) {
  for (var i=0;i<edges.length;i++) {
    if (edges[i].id.substr(0,4)=='edge') {
      edges[i].setAttribute('class','edge');
    }
  }
}
]]></script>
        <defs>
                <circle id="rim" cx="0" cy="0" r="7"/>
                <circle id="rim2" cx="0" cy="0" r="3.5"/>
                <g id="zoomPlus">
                        <use xlink:href="#rim" fill="#404040">
                                <set attributeName="fill" to="#808080" begin="zoomplus.mouseover" end="zoomplus.mouseout"/>
                        </use>
                        <path d="M-4,0h8M0,-4v8" fill="none" stroke="white" stroke-width="1.5" pointer-events="none"/>
                </g>
                <g id="zoomMin">
                        <use xlink:href="#rim" fill="#404040">
                                <set attributeName="fill" to="#808080" begin="zoomminus.mouseover" end="zoomminus.mouseout"/>
                        </use>
                        <path d="M-4,0h8" fill="none" stroke="white" stroke-width="1.5" pointer-events="none"/>
                </g>
                <g id="dirArrow">
                        <path fill="none" stroke="white" stroke-width="1.5" d="M0,-3.0v7 M-2.5,-0.5L0,-3.0L2.5,-0.5"/>
                </g>
               <g id="resetDef">
                       <use xlink:href="#rim2" fill="#404040">
                               <set attributeName="fill" to="#808080" begin="reset.mouseover" end="reset.mouseout"/>
                       </use>
               </g>
        </defs>

<script type="text/javascript">
var viewWidth = 852;
var viewHeight = 274;
var sectionId = 'dynsection-0';
</script>
<script xlink:href="svgpan.js"/>
<svg id="graph" class="graph">
<g id="viewport">
<title>/home/ram/OmniTemplate/graph_theory.hpp</title>
<polygon fill="white" stroke="transparent" points="-4,4 -4,-270 848,-270 848,4 -4,4"/>
<!-- Node1 -->
<g id="node1" class="node">
<title>Node1</title>
<g id="a_node1"><a xlink:title=" ">
<polygon fill="#bfbfbf" stroke="black" points="415.5,-235.5 415.5,-265.5 559.5,-265.5 559.5,-235.5 415.5,-235.5"/>
<text text-anchor="start" x="423.5" y="-253.5" font-family="Helvetica,sans-Serif" font-size="10.00">/home/ram/OmniTemplate</text>
<text text-anchor="middle" x="487.5" y="-242.5" font-family="Helvetica,sans-Serif" font-size="10.00">/graph_theory.hpp</text>
</a>
</g>
</g>
<!-- Node2 -->
<g id="node2" class="node">
<title>Node2</title>
<g id="a_node2"><a xlink:href="core_8hpp.html" target="_top" xlink:title=" ">
<polygon fill="white" stroke="black" points="458,-123.5 458,-142.5 517,-142.5 517,-123.5 458,-123.5"/>
<text text-anchor="middle" x="487.5" y="-130.5" font-family="Helvetica,sans-Serif" font-size="10.00">core.hpp</text>
</a>
</g>
</g>
<!-- Node1&#45;&gt;Node2 -->
<g id="edge1" class="edge">
<title>Node1&#45;&gt;Node2</title>
<path fill="none" stroke="midnightblue" d="M473.39,-235.46C464.95,-226.03 455.03,-212.84 450.5,-199 447.74,-190.55 447.5,-187.37 450.5,-179 454.44,-168 462.36,-157.77 469.86,-149.85"/>
<polygon fill="midnightblue" stroke="midnightblue" points="472.39,-152.27 477.06,-142.76 467.48,-147.28 472.39,-152.27"/>
</g>
<!-- Node12 -->
<g id="node12" class="node">
<title>Node12</title>
<g id="a_node12"><a xlink:href="dsu_8hpp.html" target="_top" xlink:title=" ">
<polygon fill="white" stroke="black" points="460,-179.5 460,-198.5 515,-198.5 515,-179.5 460,-179.5"/>
<text text-anchor="middle" x="487.5" y="-186.5" font-family="Helvetica,sans-Serif" font-size="10.00">dsu.hpp</text>
</a>
</g>
</g>
<!-- Node1&#45;&gt;Node12 -->
<g id="edge16" class="edge">
<title>Node1&#45;&gt;Node12</title>
<path fill="none" stroke="midnightblue" d="M487.5,-235.4C487.5,-227.47 487.5,-217.46 487.5,-208.86"/>
<polygon fill="midnightblue" stroke="midnightblue" points="491,-208.66 487.5,-198.66 484,-208.66 491,-208.66"/>
</g>
<!-- Node13 -->
<g id="node13" class="node">
<title>Node13</title>
<g id="a_node13"><a xlink:href="linear__algebra_8hpp.html" target="_top" xlink:title=" ">
<polygon fill="white" stroke="black" points="533,-179.5 533,-198.5 640,-198.5 640,-179.5 533,-179.5"/>
<text text-anchor="middle" x="586.5" y="-186.5" font-family="Helvetica,sans-Serif" font-size="10.00">linear_algebra.hpp</text>
</a>
</g>
</g>
<!-- Node1&#45;&gt;Node13 -->
<g id="edge18" class="edge">
<title>Node1&#45;&gt;Node13</title>
<path fill="none" stroke="midnightblue" d="M510.96,-235.4C526.83,-225.86 547.69,-213.32 563.47,-203.84"/>
<polygon fill="midnightblue" stroke="midnightblue" points="565.33,-206.81 572.09,-198.66 561.72,-200.81 565.33,-206.81"/>
</g>
<!-- Node3 -->
<g id="node3" class="node">
<title>Node3</title>
<g id="a_node3"><a xlink:title=" ">
<polygon fill="white" stroke="#bfbfbf" points="0,-62 0,-81 83,-81 83,-62 0,-62"/>
<text text-anchor="middle" x="41.5" y="-69" font-family="Helvetica,sans-Serif" font-size="10.00">bits/stdc++.h</text>
</a>
</g>
</g>
<!-- Node2&#45;&gt;Node3 -->
<g id="edge2" class="edge">
<title>Node2&#45;&gt;Node3</title>
<path fill="none" stroke="midnightblue" d="M457.93,-130.35C391.74,-126.3 226.85,-114.11 91.5,-87 86.99,-86.1 82.3,-84.98 77.68,-83.77"/>
<polygon fill="midnightblue" stroke="midnightblue" points="78.33,-80.32 67.76,-81.02 76.46,-87.07 78.33,-80.32"/>
</g>
<!-- Node4 -->
<g id="node4" class="node">
<title>Node4</title>
<g id="a_node4"><a xlink:title=" ">
<polygon fill="white" stroke="#bfbfbf" points="101,-62 101,-81 222,-81 222,-62 101,-62"/>
<text text-anchor="middle" x="161.5" y="-69" font-family="Helvetica,sans-Serif" font-size="10.00">experimental/iterator</text>
</a>
</g>
</g>
<!-- Node2&#45;&gt;Node4 -->
<g id="edge3" class="edge">
<title>Node2&#45;&gt;Node4</title>
<path fill="none" stroke="midnightblue" d="M457.76,-127.13C409.83,-119.2 312.57,-102.8 230.5,-87 224.19,-85.78 217.57,-84.46 211.02,-83.12"/>
<polygon fill="midnightblue" stroke="midnightblue" points="211.36,-79.61 200.86,-81.01 209.94,-86.47 211.36,-79.61"/>
</g>
<!-- Node5 -->
<g id="node5" class="node">
<title>Node5</title>
<g id="a_node5"><a xlink:title=" ">
<polygon fill="white" stroke="#bfbfbf" points="240,-56.5 240,-86.5 357,-86.5 357,-56.5 240,-56.5"/>
<text text-anchor="start" x="248" y="-74.5" font-family="Helvetica,sans-Serif" font-size="10.00">experimental/source</text>
<text text-anchor="middle" x="298.5" y="-63.5" font-family="Helvetica,sans-Serif" font-size="10.00">_location</text>
</a>
</g>
</g>
<!-- Node2&#45;&gt;Node5 -->
<g id="edge4" class="edge">
<title>Node2&#45;&gt;Node5</title>
<path fill="none" stroke="midnightblue" d="M460.42,-123.48C432.43,-114.66 387.98,-100.67 352.72,-89.57"/>
<polygon fill="midnightblue" stroke="midnightblue" points="353.63,-86.19 343.04,-86.52 351.53,-92.86 353.63,-86.19"/>
</g>
<!-- Node6 -->
<g id="node6" class="node">
<title>Node6</title>
<g id="a_node6"><a xlink:href="my__int_8hpp.html" target="_top" xlink:title=" ">
<polygon fill="white" stroke="black" points="375,-62 375,-81 446,-81 446,-62 375,-62"/>
<text text-anchor="middle" x="410.5" y="-69" font-family="Helvetica,sans-Serif" font-size="10.00">my_int.hpp</text>
</a>
</g>
</g>
<!-- Node2&#45;&gt;Node6 -->
<g id="edge5" class="edge">
<title>Node2&#45;&gt;Node6</title>
<path fill="none" stroke="midnightblue" d="M471.57,-123.48C457.54,-114.2 437.73,-99.17 424.35,-87.83"/>
<polygon fill="midnightblue" stroke="midnightblue" points="426.43,-85 416.61,-81.01 421.8,-90.25 426.43,-85"/>
</g>
<!-- Node7 -->
<g id="node7" class="node">
<title>Node7</title>
<g id="a_node7"><a xlink:href="io_8hpp.html" target="_top" xlink:title=" ">
<polygon fill="white" stroke="black" points="464,-62 464,-81 511,-81 511,-62 464,-62"/>
<text text-anchor="middle" x="487.5" y="-69" font-family="Helvetica,sans-Serif" font-size="10.00">io.hpp</text>
</a>
</g>
</g>
<!-- Node2&#45;&gt;Node7 -->
<g id="edge7" class="edge">
<title>Node2&#45;&gt;Node7</title>
<path fill="none" stroke="midnightblue" d="M487.5,-123.48C487.5,-115.08 487.5,-101.98 487.5,-91.16"/>
<polygon fill="midnightblue" stroke="midnightblue" points="491,-91.01 487.5,-81.01 484,-91.01 491,-91.01"/>
</g>
<!-- Node8 -->
<g id="node8" class="node">
<title>Node8</title>
<g id="a_node8"><a xlink:href="debug_8hpp.html" target="_top" xlink:title=" ">
<polygon fill="white" stroke="black" points="529.5,-62 529.5,-81 597.5,-81 597.5,-62 529.5,-62"/>
<text text-anchor="middle" x="563.5" y="-69" font-family="Helvetica,sans-Serif" font-size="10.00">debug.hpp</text>
</a>
</g>
</g>
<!-- Node2&#45;&gt;Node8 -->
<g id="edge8" class="edge">
<title>Node2&#45;&gt;Node8</title>
<path fill="none" stroke="midnightblue" d="M498.39,-123.48C510.47,-114.02 530.17,-98.6 544.74,-87.19"/>
<polygon fill="midnightblue" stroke="midnightblue" points="546.91,-89.93 552.63,-81.01 542.6,-84.42 546.91,-89.93"/>
</g>
<!-- Node9 -->
<g id="node9" class="node">
<title>Node9</title>
<g id="a_node9"><a xlink:href="range_8hpp.html" target="_top" xlink:title=" ">
<polygon fill="white" stroke="black" points="602,-0.5 602,-19.5 667,-19.5 667,-0.5 602,-0.5"/>
<text text-anchor="middle" x="634.5" y="-7.5" font-family="Helvetica,sans-Serif" font-size="10.00">range.hpp</text>
</a>
</g>
</g>
<!-- Node2&#45;&gt;Node9 -->
<g id="edge13" class="edge">
<title>Node2&#45;&gt;Node9</title>
<path fill="none" stroke="midnightblue" d="M517.2,-126.3C541.7,-120.52 575.57,-109.12 597.5,-87 612.93,-71.44 619.95,-46.65 625.11,-29.65"/>
<polygon fill="midnightblue" stroke="midnightblue" points="628.56,-30.36 628.31,-19.77 621.9,-28.21 628.56,-30.36"/>
</g>
<!-- Node10 -->
<g id="node10" class="node">
<title>Node10</title>
<g id="a_node10"><a xlink:href="operations_8hpp.html" target="_top" xlink:title=" ">
<polygon fill="white" stroke="black" points="672,-62 672,-81 761,-81 761,-62 672,-62"/>
<text text-anchor="middle" x="716.5" y="-69" font-family="Helvetica,sans-Serif" font-size="10.00">operations.hpp</text>
</a>
</g>
</g>
<!-- Node2&#45;&gt;Node10 -->
<g id="edge11" class="edge">
<title>Node2&#45;&gt;Node10</title>
<path fill="none" stroke="midnightblue" d="M517.44,-124.22C557.34,-113.85 628.19,-95.44 673.72,-83.62"/>
<polygon fill="midnightblue" stroke="midnightblue" points="674.79,-86.95 683.59,-81.05 673.03,-80.18 674.79,-86.95"/>
</g>
<!-- Node11 -->
<g id="node11" class="node">
<title>Node11</title>
<g id="a_node11"><a xlink:href="utility_8hpp.html" target="_top" xlink:title=" ">
<polygon fill="white" stroke="black" points="779,-62 779,-81 844,-81 844,-62 779,-62"/>
<text text-anchor="middle" x="811.5" y="-69" font-family="Helvetica,sans-Serif" font-size="10.00">utility.hpp</text>
</a>
</g>
</g>
<!-- Node2&#45;&gt;Node11 -->
<g id="edge14" class="edge">
<title>Node2&#45;&gt;Node11</title>
<path fill="none" stroke="midnightblue" d="M517.07,-129C568.8,-123.37 678.84,-109.7 769.5,-87 772.72,-86.19 776.04,-85.25 779.34,-84.24"/>
<polygon fill="midnightblue" stroke="midnightblue" points="780.63,-87.5 789.05,-81.06 778.46,-80.84 780.63,-87.5"/>
</g>
<!-- Node6&#45;&gt;Node2 -->
<g id="edge6" class="edge">
<title>Node6&#45;&gt;Node2</title>
<path fill="none" stroke="midnightblue" d="M426.41,-81.01C440.43,-90.28 460.24,-105.31 473.63,-116.65"/>
<polygon fill="midnightblue" stroke="midnightblue" points="471.55,-119.49 481.37,-123.48 476.18,-114.24 471.55,-119.49"/>
</g>
<!-- Node8&#45;&gt;Node9 -->
<g id="edge9" class="edge">
<title>Node8&#45;&gt;Node9</title>
<path fill="none" stroke="midnightblue" d="M573.67,-61.98C584.85,-52.61 603.02,-37.38 616.59,-26.01"/>
<polygon fill="midnightblue" stroke="midnightblue" points="618.93,-28.61 624.35,-19.51 614.43,-23.25 618.93,-28.61"/>
</g>
<!-- Node9&#45;&gt;Node2 -->
<g id="edge10" class="edge">
<title>Node9&#45;&gt;Node2</title>
<path fill="none" stroke="midnightblue" d="M638.95,-19.77C640.62,-35.35 634.31,-68.03 615.5,-87 592.23,-110.47 555.51,-121.88 527.22,-127.3"/>
<polygon fill="midnightblue" stroke="midnightblue" points="526.46,-123.88 517.21,-129.04 527.66,-130.78 526.46,-123.88"/>
</g>
<!-- Node10&#45;&gt;Node9 -->
<g id="edge12" class="edge">
<title>Node10&#45;&gt;Node9</title>
<path fill="none" stroke="midnightblue" d="M704.75,-61.98C691.72,-52.52 670.46,-37.1 654.74,-25.69"/>
<polygon fill="midnightblue" stroke="midnightblue" points="656.38,-22.55 646.23,-19.51 652.27,-28.21 656.38,-22.55"/>
</g>
<!-- Node11&#45;&gt;Node9 -->
<g id="edge15" class="edge">
<title>Node11&#45;&gt;Node9</title>
<path fill="none" stroke="midnightblue" d="M786.64,-61.87C781.01,-59.93 775.05,-57.88 769.5,-56 735.74,-44.55 697.16,-31.71 669.91,-22.69"/>
<polygon fill="midnightblue" stroke="midnightblue" points="671,-19.36 660.41,-19.54 668.8,-26.01 671,-19.36"/>
</g>
<!-- Node12&#45;&gt;Node2 -->
<g id="edge17" class="edge">
<title>Node12&#45;&gt;Node2</title>
<path fill="none" stroke="midnightblue" d="M487.5,-179.08C487.5,-172.01 487.5,-161.86 487.5,-152.99"/>
<polygon fill="midnightblue" stroke="midnightblue" points="491,-152.75 487.5,-142.75 484,-152.75 491,-152.75"/>
</g>
<!-- Node13&#45;&gt;Node2 -->
<g id="edge19" class="edge">
<title>Node13&#45;&gt;Node2</title>
<path fill="none" stroke="midnightblue" d="M570.59,-179.32C554.86,-170.74 530.56,-157.49 512.29,-147.52"/>
<polygon fill="midnightblue" stroke="midnightblue" points="513.82,-144.37 503.37,-142.65 510.47,-150.52 513.82,-144.37"/>
</g>
</g>
</svg>
        <g id="navigator" transform="translate(0 0)" fill="#404254">
                <rect fill="#f2f5e9" fill-opacity="0.5" stroke="#606060" stroke-width=".5" x="0" y="0" width="60" height="60"/>
                <use id="zoomplus" xlink:href="#zoomPlus" x="17" y="9" onmousedown="handleZoom(evt,'in')"/>
                <use id="zoomminus" xlink:href="#zoomMin" x="42" y="9" onmousedown="handleZoom(evt,'out')"/>
                <use id="reset" xlink:href="#resetDef" x="30" y="36" onmousedown="handleReset()"/>
                <g id="arrowUp" xlink:href="#dirArrow" transform="translate(30 24)" onmousedown="handlePan(0,-1)">
                  <use xlink:href="#rim" fill="#404040">
                        <set attributeName="fill" to="#808080" begin="arrowUp.mouseover" end="arrowUp.mouseout"/>
                  </use>
                  <path fill="none" stroke="white" stroke-width="1.5" d="M0,-3.0v7 M-2.5,-0.5L0,-3.0L2.5,-0.5"/>
                </g>
                <g id="arrowRight" xlink:href="#dirArrow" transform="rotate(90) translate(36 -43)" onmousedown="handlePan(1,0)">
                  <use xlink:href="#rim" fill="#404040">
                        <set attributeName="fill" to="#808080" begin="arrowRight.mouseover" end="arrowRight.mouseout"/>
                  </use>
                  <path fill="none" stroke="white" stroke-width="1.5" d="M0,-3.0v7 M-2.5,-0.5L0,-3.0L2.5,-0.5"/>
                </g>
                <g id="arrowDown" xlink:href="#dirArrow" transform="rotate(180) translate(-30 -48)" onmousedown="handlePan(0,1)">
                  <use xlink:href="#rim" fill="#404040">
                        <set attributeName="fill" to="#808080" begin="arrowDown.mouseover" end="arrowDown.mouseout"/>
                  </use>
                  <path fill="none" stroke="white" stroke-width="1.5" d="M0,-3.0v7 M-2.5,-0.5L0,-3.0L2.5,-0.5"/>
                </g>
                <g id="arrowLeft" xlink:href="#dirArrow" transform="rotate(270) translate(-36 17)" onmousedown="handlePan(-1,0)">
                  <use xlink:href="#rim" fill="#404040">
                        <set attributeName="fill" to="#808080" begin="arrowLeft.mouseover" end="arrowLeft.mouseout"/>
                  </use>
                  <path fill="none" stroke="white" stroke-width="1.5" d="M0,-3.0v7 M-2.5,-0.5L0,-3.0L2.5,-0.5"/>
                </g>
        </g>
        <svg viewBox="0 0 15 15" width="100%" height="30px" preserveAspectRatio="xMaxYMin meet">
         <g id="arrow_out" transform="scale(0.3 0.3)">
          <a xlink:href="graph__theory_8hpp__incl_org.svg" target="_base">
           <rect id="button" ry="5" rx="5" y="6" x="6" height="38" width="38"
                fill="#f2f5e9" fill-opacity="0.5" stroke="#606060" stroke-width="1.0"/>
           <path id="arrow"
             d="M 11.500037,31.436501 C 11.940474,20.09759 22.043105,11.32322 32.158766,21.979434 L 37.068811,17.246167 C 37.068811,17.246167 37.088388,32 37.088388,32 L 22.160133,31.978069 C 22.160133,31.978069 26.997745,27.140456 26.997745,27.140456 C 18.528582,18.264221 13.291696,25.230495 11.500037,31.436501 z"
             style="fill:#404040;"/>
          </a>
         </g>
        </svg>
</svg>
