<?xml version="1.0" encoding="UTF-8" standalone="no"?>
<!DOCTYPE svg PUBLIC "-//W3C//DTD SVG 1.1//EN"
 "http://www.w3.org/Graphics/SVG/1.1/DTD/svg11.dtd">
<!-- Generated by graphviz version 2.43.0 (0)
 -->
<!-- Title: /home/ram/OmniTemplate/graph_theory.hpp Pages: 1 -->
<svg width="694pt" height="386pt"
 viewBox="0.00 0.00 694.00 386.00" xmlns="http://www.w3.org/2000/svg" xmlns:xlink="http://www.w3.org/1999/xlink">
<g id="graph0" class="graph" transform="scale(1 1) rotate(0) translate(4 382)">
<title>/home/ram/OmniTemplate/graph_theory.hpp</title>
<polygon fill="white" stroke="transparent" points="-4,4 -4,-382 690,-382 690,4 -4,4"/>
<!-- Node1 -->
<g id="node1" class="node">
<title>Node1</title>
<g id="a_node1"><a xlink:title=" ">
<polygon fill="#bfbfbf" stroke="black" points="341.5,-347.5 341.5,-377.5 485.5,-377.5 485.5,-347.5 341.5,-347.5"/>
<text text-anchor="start" x="349.5" y="-365.5" font-family="Helvetica,sans-Serif" font-size="10.00">/home/ram/OmniTemplate</text>
<text text-anchor="middle" x="413.5" y="-354.5" font-family="Helvetica,sans-Serif" font-size="10.00">/graph_theory.hpp</text>
</a>
</g>
</g>
<!-- Node2 -->
<g id="node2" class="node">
<title>Node2</title>
<g id="a_node2"><a xlink:href="core_8hpp.html" target="_top" xlink:title=" ">
<polygon fill="white" stroke="black" points="421,-179.5 421,-198.5 480,-198.5 480,-179.5 421,-179.5"/>
<text text-anchor="middle" x="450.5" y="-186.5" font-family="Helvetica,sans-Serif" font-size="10.00">core.hpp</text>
</a>
</g>
</g>
<!-- Node1&#45;&gt;Node2 -->
<g id="edge1" class="edge">
<title>Node1&#45;&gt;Node2</title>
<path fill="none" stroke="midnightblue" d="M404.47,-347.39C390.17,-323.12 365.87,-272.46 385.5,-235 392.78,-221.11 406.51,-210.65 419.48,-203.33"/>
<polygon fill="midnightblue" stroke="midnightblue" points="421.43,-206.27 428.69,-198.55 418.2,-200.05 421.43,-206.27"/>
</g>
<!-- Node11 -->
<g id="node11" class="node">
<title>Node11</title>
<g id="a_node11"><a xlink:href="dsu_8hpp.html" target="_top" xlink:title=" ">
<polygon fill="white" stroke="black" points="395,-235.5 395,-254.5 450,-254.5 450,-235.5 395,-235.5"/>
<text text-anchor="middle" x="422.5" y="-242.5" font-family="Helvetica,sans-Serif" font-size="10.00">dsu.hpp</text>
</a>
</g>
</g>
<!-- Node1&#45;&gt;Node11 -->
<g id="edge15" class="edge">
<title>Node1&#45;&gt;Node11</title>
<path fill="none" stroke="midnightblue" d="M414.6,-347.34C416.22,-326.62 419.23,-288.02 421.03,-264.9"/>
<polygon fill="midnightblue" stroke="midnightblue" points="424.54,-264.91 421.82,-254.67 417.56,-264.37 424.54,-264.91"/>
</g>
<!-- Node12 -->
<g id="node12" class="node">
<title>Node12</title>
<g id="a_node12"><a xlink:href="linear__algebra_8hpp.html" target="_top" xlink:title=" ">
<polygon fill="white" stroke="black" points="442,-291.5 442,-310.5 549,-310.5 549,-291.5 442,-291.5"/>
<text text-anchor="middle" x="495.5" y="-298.5" font-family="Helvetica,sans-Serif" font-size="10.00">linear_algebra.hpp</text>
</a>
</g>
</g>
<!-- Node1&#45;&gt;Node12 -->
<g id="edge17" class="edge">
<title>Node1&#45;&gt;Node12</title>
<path fill="none" stroke="midnightblue" d="M432.93,-347.4C445.71,-338.13 462.39,-326.03 475.31,-316.65"/>
<polygon fill="midnightblue" stroke="midnightblue" points="477.53,-319.36 483.57,-310.66 473.42,-313.7 477.53,-319.36"/>
</g>
<!-- Node3 -->
<g id="node3" class="node">
<title>Node3</title>
<g id="a_node3"><a xlink:title=" ">
<polygon fill="white" stroke="#bfbfbf" points="0,-118 0,-137 83,-137 83,-118 0,-118"/>
<text text-anchor="middle" x="41.5" y="-125" font-family="Helvetica,sans-Serif" font-size="10.00">bits/stdc++.h</text>
</a>
</g>
</g>
<!-- Node2&#45;&gt;Node3 -->
<g id="edge2" class="edge">
<title>Node2&#45;&gt;Node3</title>
<path fill="none" stroke="midnightblue" d="M420.93,-185.88C359.21,-181.11 212.38,-167.94 91.5,-143 87.05,-142.08 82.42,-140.96 77.84,-139.76"/>
<polygon fill="midnightblue" stroke="midnightblue" points="78.6,-136.34 68.03,-137.04 76.73,-143.08 78.6,-136.34"/>
</g>
<!-- Node4 -->
<g id="node4" class="node">
<title>Node4</title>
<g id="a_node4"><a xlink:title=" ">
<polygon fill="white" stroke="#bfbfbf" points="101,-118 101,-137 222,-137 222,-118 101,-118"/>
<text text-anchor="middle" x="161.5" y="-125" font-family="Helvetica,sans-Serif" font-size="10.00">experimental/iterator</text>
</a>
</g>
</g>
<!-- Node2&#45;&gt;Node4 -->
<g id="edge3" class="edge">
<title>Node2&#45;&gt;Node4</title>
<path fill="none" stroke="midnightblue" d="M420.95,-182.01C378.72,-173.43 298.64,-157.13 230.5,-143 224.44,-141.74 218.09,-140.42 211.79,-139.1"/>
<polygon fill="midnightblue" stroke="midnightblue" points="212.5,-135.67 201.99,-137.05 211.06,-142.52 212.5,-135.67"/>
</g>
<!-- Node5 -->
<g id="node5" class="node">
<title>Node5</title>
<g id="a_node5"><a xlink:title=" ">
<polygon fill="white" stroke="#bfbfbf" points="240,-112.5 240,-142.5 357,-142.5 357,-112.5 240,-112.5"/>
<text text-anchor="start" x="248" y="-130.5" font-family="Helvetica,sans-Serif" font-size="10.00">experimental/source</text>
<text text-anchor="middle" x="298.5" y="-119.5" font-family="Helvetica,sans-Serif" font-size="10.00">_location</text>
</a>
</g>
</g>
<!-- Node2&#45;&gt;Node5 -->
<g id="edge4" class="edge">
<title>Node2&#45;&gt;Node5</title>
<path fill="none" stroke="midnightblue" d="M428.72,-179.48C406.69,-170.85 371.98,-157.26 343.93,-146.29"/>
<polygon fill="midnightblue" stroke="midnightblue" points="344.91,-142.91 334.32,-142.52 342.36,-149.43 344.91,-142.91"/>
</g>
<!-- Node6 -->
<g id="node6" class="node">
<title>Node6</title>
<g id="a_node6"><a xlink:href="io_8hpp.html" target="_top" xlink:title=" ">
<polygon fill="white" stroke="black" points="375,-118 375,-137 422,-137 422,-118 375,-118"/>
<text text-anchor="middle" x="398.5" y="-125" font-family="Helvetica,sans-Serif" font-size="10.00">io.hpp</text>
</a>
</g>
</g>
<!-- Node2&#45;&gt;Node6 -->
<g id="edge5" class="edge">
<title>Node2&#45;&gt;Node6</title>
<path fill="none" stroke="midnightblue" d="M443.05,-179.48C435.17,-170.46 422.56,-156.02 412.76,-144.81"/>
<polygon fill="midnightblue" stroke="midnightblue" points="415.15,-142.24 405.94,-137.01 409.88,-146.84 415.15,-142.24"/>
</g>
<!-- Node7 -->
<g id="node7" class="node">
<title>Node7</title>
<g id="a_node7"><a xlink:href="debug_8hpp.html" target="_top" xlink:title=" ">
<polygon fill="white" stroke="black" points="478.5,-118 478.5,-137 546.5,-137 546.5,-118 478.5,-118"/>
<text text-anchor="middle" x="512.5" y="-125" font-family="Helvetica,sans-Serif" font-size="10.00">debug.hpp</text>
</a>
</g>
</g>
<!-- Node2&#45;&gt;Node7 -->
<g id="edge6" class="edge">
<title>Node2&#45;&gt;Node7</title>
<path fill="none" stroke="midnightblue" d="M459.38,-179.48C468.96,-170.28 484.41,-155.46 496.19,-144.16"/>
<polygon fill="midnightblue" stroke="midnightblue" points="498.84,-146.46 503.63,-137.01 493.99,-141.41 498.84,-146.46"/>
</g>
<!-- Node8 -->
<g id="node8" class="node">
<title>Node8</title>
<g id="a_node8"><a xlink:href="operations_8hpp.html" target="_top" xlink:title=" ">
<polygon fill="white" stroke="black" points="419,-56.5 419,-75.5 508,-75.5 508,-56.5 419,-56.5"/>
<text text-anchor="middle" x="463.5" y="-63.5" font-family="Helvetica,sans-Serif" font-size="10.00">operations.hpp</text>
</a>
</g>
</g>
<!-- Node2&#45;&gt;Node8 -->
<g id="edge11" class="edge">
<title>Node2&#45;&gt;Node8</title>
<path fill="none" stroke="midnightblue" d="M451.43,-179.3C453.52,-159.85 458.61,-112.49 461.47,-85.9"/>
<polygon fill="midnightblue" stroke="midnightblue" points="464.99,-85.94 462.57,-75.62 458.03,-85.19 464.99,-85.94"/>
</g>
<!-- Node9 -->
<g id="node9" class="node">
<title>Node9</title>
<g id="a_node9"><a xlink:href="range_8hpp.html" target="_top" xlink:title=" ">
<polygon fill="white" stroke="black" points="551,-0.5 551,-19.5 616,-19.5 616,-0.5 551,-0.5"/>
<text text-anchor="middle" x="583.5" y="-7.5" font-family="Helvetica,sans-Serif" font-size="10.00">range.hpp</text>
</a>
</g>
</g>
<!-- Node2&#45;&gt;Node9 -->
<g id="edge12" class="edge">
<title>Node2&#45;&gt;Node9</title>
<path fill="none" stroke="midnightblue" d="M480.11,-181.08C501.66,-174.91 529.64,-163.54 546.5,-143 573.55,-110.06 576.29,-57.27 578.85,-29.48"/>
<polygon fill="midnightblue" stroke="midnightblue" points="582.33,-29.86 579.96,-19.54 575.37,-29.09 582.33,-29.86"/>
</g>
<!-- Node10 -->
<g id="node10" class="node">
<title>Node10</title>
<g id="a_node10"><a xlink:href="utility_8hpp.html" target="_top" xlink:title=" ">
<polygon fill="white" stroke="black" points="621,-56.5 621,-75.5 686,-75.5 686,-56.5 621,-56.5"/>
<text text-anchor="middle" x="653.5" y="-63.5" font-family="Helvetica,sans-Serif" font-size="10.00">utility.hpp</text>
</a>
</g>
</g>
<!-- Node2&#45;&gt;Node10 -->
<g id="edge13" class="edge">
<title>Node2&#45;&gt;Node10</title>
<path fill="none" stroke="midnightblue" d="M480.05,-185.81C513.71,-181.99 568.88,-171.53 606.5,-143 626.15,-128.09 639.52,-102.39 646.84,-85.04"/>
<polygon fill="midnightblue" stroke="midnightblue" points="650.19,-86.09 650.61,-75.5 643.68,-83.51 650.19,-86.09"/>
</g>
<!-- Node7&#45;&gt;Node8 -->
<g id="edge7" class="edge">
<title>Node7&#45;&gt;Node8</title>
<path fill="none" stroke="midnightblue" d="M505.48,-117.98C498.06,-108.96 486.17,-94.52 476.93,-83.31"/>
<polygon fill="midnightblue" stroke="midnightblue" points="479.57,-81 470.51,-75.51 474.16,-85.45 479.57,-81"/>
</g>
<!-- Node7&#45;&gt;Node9 -->
<g id="edge10" class="edge">
<title>Node7&#45;&gt;Node9</title>
<path fill="none" stroke="midnightblue" d="M517.84,-117.82C529.45,-98.92 557.22,-53.75 572.67,-28.62"/>
<polygon fill="midnightblue" stroke="midnightblue" points="575.85,-30.13 578.1,-19.78 569.88,-26.47 575.85,-30.13"/>
</g>
<!-- Node8&#45;&gt;Node9 -->
<g id="edge8" class="edge">
<title>Node8&#45;&gt;Node9</title>
<path fill="none" stroke="midnightblue" d="M482.51,-56.44C502.09,-47.64 532.81,-33.81 555.23,-23.72"/>
<polygon fill="midnightblue" stroke="midnightblue" points="556.89,-26.81 564.57,-19.52 554.02,-20.43 556.89,-26.81"/>
</g>
<!-- Node9&#45;&gt;Node2 -->
<g id="edge9" class="edge">
<title>Node9&#45;&gt;Node2</title>
<path fill="none" stroke="midnightblue" d="M588.44,-19.54C594.59,-42.35 595.27,-105.52 564.5,-143 546.36,-165.09 515.36,-176.57 490.13,-182.39"/>
<polygon fill="midnightblue" stroke="midnightblue" points="489.15,-179.02 480.07,-184.48 490.58,-185.87 489.15,-179.02"/>
</g>
<!-- Node10&#45;&gt;Node9 -->
<g id="edge14" class="edge">
<title>Node10&#45;&gt;Node9</title>
<path fill="none" stroke="midnightblue" d="M642.25,-56.32C631.7,-48.18 615.7,-35.84 603.06,-26.09"/>
<polygon fill="midnightblue" stroke="midnightblue" points="605.01,-23.17 594.95,-19.83 600.73,-28.71 605.01,-23.17"/>
</g>
<!-- Node11&#45;&gt;Node2 -->
<g id="edge16" class="edge">
<title>Node11&#45;&gt;Node2</title>
<path fill="none" stroke="midnightblue" d="M427.12,-235.08C430.96,-227.69 436.52,-216.95 441.26,-207.81"/>
<polygon fill="midnightblue" stroke="midnightblue" points="444.47,-209.24 445.96,-198.75 438.25,-206.02 444.47,-209.24"/>
</g>
<!-- Node12&#45;&gt;Node2 -->
<g id="edge18" class="edge">
<title>Node12&#45;&gt;Node2</title>
<path fill="none" stroke="midnightblue" d="M491.97,-291.37C484.64,-273.46 467.65,-231.92 457.84,-207.95"/>
<polygon fill="midnightblue" stroke="midnightblue" points="461.04,-206.52 454.01,-198.59 454.56,-209.17 461.04,-206.52"/>
</g>
<!-- Node13 -->
<g id="node13" class="node">
<title>Node13</title>
<g id="a_node13"><a xlink:href="modulo_8hpp.html" target="_top" xlink:title=" ">
<polygon fill="white" stroke="black" points="506.5,-235.5 506.5,-254.5 580.5,-254.5 580.5,-235.5 506.5,-235.5"/>
<text text-anchor="middle" x="543.5" y="-242.5" font-family="Helvetica,sans-Serif" font-size="10.00">modulo.hpp</text>
</a>
</g>
</g>
<!-- Node12&#45;&gt;Node13 -->
<g id="edge19" class="edge">
<title>Node12&#45;&gt;Node13</title>
<path fill="none" stroke="midnightblue" d="M503.43,-291.08C510.35,-283.3 520.57,-271.8 528.95,-262.37"/>
<polygon fill="midnightblue" stroke="midnightblue" points="531.69,-264.55 535.72,-254.75 526.46,-259.9 531.69,-264.55"/>
</g>
<!-- Node13&#45;&gt;Node2 -->
<g id="edge20" class="edge">
<title>Node13&#45;&gt;Node2</title>
<path fill="none" stroke="midnightblue" d="M528.56,-235.32C513.91,-226.82 491.37,-213.73 474.26,-203.8"/>
<polygon fill="midnightblue" stroke="midnightblue" points="475.81,-200.65 465.4,-198.65 472.3,-206.7 475.81,-200.65"/>
</g>
</g>
</svg>
