<?xml version="1.0" encoding="UTF-8" standalone="no"?>
<!DOCTYPE svg PUBLIC "-//W3C//DTD SVG 1.1//EN"
 "http://www.w3.org/Graphics/SVG/1.1/DTD/svg11.dtd">
<!-- Generated by graphviz version 2.43.0 (0)
 -->
<!-- Title: bipartite Pages: 1 -->
<svg width="574pt" height="66pt"
 viewBox="0.00 0.00 574.00 66.00" xmlns="http://www.w3.org/2000/svg" xmlns:xlink="http://www.w3.org/1999/xlink">
<g id="graph0" class="graph" transform="scale(1 1) rotate(0) translate(4 62)">
<title>bipartite</title>
<polygon fill="white" stroke="transparent" points="-4,4 -4,-62 570,-62 570,4 -4,4"/>
<!-- Node1 -->
<g id="node1" class="node">
<title>Node1</title>
<g id="a_node1"><a xlink:title=" ">
<polygon fill="#bfbfbf" stroke="black" points="508,-19.5 508,-38.5 566,-38.5 566,-19.5 508,-19.5"/>
<text text-anchor="middle" x="537" y="-26.5" font-family="Helvetica,sans-Serif" font-size="10.00">bipartite</text>
</a>
</g>
</g>
<!-- Node2 -->
<g id="node2" class="node">
<title>Node2</title>
<g id="a_node2"><a xlink:href="graph__theory_8hpp.html#a838f63e24db10d9e165fd191b3cc2e05" target="_top" xlink:title=" ">
<polygon fill="white" stroke="black" points="394,-38.5 394,-57.5 468,-57.5 468,-38.5 394,-38.5"/>
<text text-anchor="middle" x="431" y="-45.5" font-family="Helvetica,sans-Serif" font-size="10.00">max_match</text>
</a>
</g>
</g>
<!-- Node1&#45;&gt;Node2 -->
<g id="edge1" class="edge">
<title>Node1&#45;&gt;Node2</title>
<path fill="none" stroke="midnightblue" d="M497.98,-35.95C488.19,-37.73 477.69,-39.65 468,-41.42"/>
<polygon fill="midnightblue" stroke="midnightblue" points="498.65,-39.38 507.86,-34.14 497.39,-32.5 498.65,-39.38"/>
</g>
<!-- Node3 -->
<g id="node3" class="node">
<title>Node3</title>
<g id="a_node3"><a xlink:href="graph__theory_8hpp.html#ac5604c1c25612be563ce269b2de93874" target="_top" xlink:title=" ">
<polygon fill="white" stroke="black" points="390,-0.5 390,-19.5 472,-19.5 472,-0.5 390,-0.5"/>
<text text-anchor="middle" x="431" y="-7.5" font-family="Helvetica,sans-Serif" font-size="10.00">test_bipartite</text>
</a>
</g>
</g>
<!-- Node1&#45;&gt;Node3 -->
<g id="edge2" class="edge">
<title>Node1&#45;&gt;Node3</title>
<path fill="none" stroke="midnightblue" d="M497.97,-22.05C489.61,-20.52 480.72,-18.9 472.27,-17.36"/>
<polygon fill="midnightblue" stroke="midnightblue" points="497.39,-25.5 507.86,-23.86 498.65,-18.62 497.39,-25.5"/>
</g>
<!-- Node4 -->
<g id="node4" class="node">
<title>Node4</title>
<g id="a_node4"><a xlink:href="graph__theory_8hpp.html#a9c55a42c5c6ac6b7fb16f464507e90c6" target="_top" xlink:title=" ">
<polygon fill="white" stroke="black" points="249,-0.5 249,-19.5 354,-19.5 354,-0.5 249,-0.5"/>
<text text-anchor="middle" x="301.5" y="-7.5" font-family="Helvetica,sans-Serif" font-size="10.00">test_graph_theory</text>
</a>
</g>
</g>
<!-- Node3&#45;&gt;Node4 -->
<g id="edge3" class="edge">
<title>Node3&#45;&gt;Node4</title>
<path fill="none" stroke="midnightblue" d="M379.4,-10C371.13,-10 362.56,-10 354.27,-10"/>
<polygon fill="midnightblue" stroke="midnightblue" points="379.66,-13.5 389.66,-10 379.66,-6.5 379.66,-13.5"/>
</g>
<!-- Node5 -->
<g id="node5" class="node">
<title>Node5</title>
<g id="a_node5"><a xlink:href="test_8cpp.html#aa1c715cac916839a95e25b65b4071c4a" target="_top" xlink:title=" ">
<polygon fill="white" stroke="black" points="160,-0.5 160,-19.5 213,-19.5 213,-0.5 160,-0.5"/>
<text text-anchor="middle" x="186.5" y="-7.5" font-family="Helvetica,sans-Serif" font-size="10.00">test_all</text>
</a>
</g>
</g>
<!-- Node4&#45;&gt;Node5 -->
<g id="edge4" class="edge">
<title>Node4&#45;&gt;Node5</title>
<path fill="none" stroke="midnightblue" d="M238.72,-10C229.67,-10 220.81,-10 213.07,-10"/>
<polygon fill="midnightblue" stroke="midnightblue" points="238.96,-13.5 248.96,-10 238.96,-6.5 238.96,-13.5"/>
</g>
<!-- Node6 -->
<g id="node6" class="node">
<title>Node6</title>
<g id="a_node6"><a xlink:href="test_8cpp.html#af095a232149097b5605064623a9345ac" target="_top" xlink:title=" ">
<polygon fill="white" stroke="black" points="77,-0.5 77,-19.5 124,-19.5 124,-0.5 77,-0.5"/>
<text text-anchor="middle" x="100.5" y="-7.5" font-family="Helvetica,sans-Serif" font-size="10.00">main2</text>
</a>
</g>
</g>
<!-- Node5&#45;&gt;Node6 -->
<g id="edge5" class="edge">
<title>Node5&#45;&gt;Node6</title>
<path fill="none" stroke="midnightblue" d="M149.59,-10C140.96,-10 131.99,-10 124.16,-10"/>
<polygon fill="midnightblue" stroke="midnightblue" points="149.84,-13.5 159.84,-10 149.84,-6.5 149.84,-13.5"/>
</g>
<!-- Node7 -->
<g id="node7" class="node">
<title>Node7</title>
<g id="a_node7"><a xlink:href="main_8hpp.html#a0ddf1224851353fc92bfbff6f499fa97" target="_top" xlink:title=" ">
<polygon fill="white" stroke="black" points="0,-0.5 0,-19.5 41,-19.5 41,-0.5 0,-0.5"/>
<text text-anchor="middle" x="20.5" y="-7.5" font-family="Helvetica,sans-Serif" font-size="10.00">main</text>
</a>
</g>
</g>
<!-- Node6&#45;&gt;Node7 -->
<g id="edge6" class="edge">
<title>Node6&#45;&gt;Node7</title>
<path fill="none" stroke="midnightblue" d="M66.66,-10C57.96,-10 48.84,-10 41.1,-10"/>
<polygon fill="midnightblue" stroke="midnightblue" points="66.94,-13.5 76.94,-10 66.94,-6.5 66.94,-13.5"/>
</g>
</g>
</svg>
