<?xml version="1.0" encoding="UTF-8" standalone="no"?>
<!DOCTYPE svg PUBLIC "-//W3C//DTD SVG 1.1//EN"
 "http://www.w3.org/Graphics/SVG/1.1/DTD/svg11.dtd">
<!-- Generated by graphviz version 2.43.0 (0)
 -->
<!-- Title: /home/ram/OmniTemplate/src/graph/graph_view.hpp Pages: 1 -->
<svg width="748pt" height="385pt"
 viewBox="0.00 0.00 747.50 385.00" xmlns="http://www.w3.org/2000/svg" xmlns:xlink="http://www.w3.org/1999/xlink">
<g id="graph0" class="graph" transform="scale(1 1) rotate(0) translate(4 381)">
<title>/home/ram/OmniTemplate/src/graph/graph_view.hpp</title>
<polygon fill="white" stroke="transparent" points="-4,4 -4,-381 743.5,-381 743.5,4 -4,4"/>
<!-- Node1 -->
<g id="node1" class="node">
<title>Node1</title>
<g id="a_node1"><a xlink:title=" ">
<polygon fill="#bfbfbf" stroke="black" points="365,-346.5 365,-376.5 509,-376.5 509,-346.5 365,-346.5"/>
<text text-anchor="start" x="373" y="-364.5" font-family="Helvetica,sans-Serif" font-size="10.00">/home/ram/OmniTemplate</text>
<text text-anchor="middle" x="437" y="-353.5" font-family="Helvetica,sans-Serif" font-size="10.00">/src/graph/graph_view.hpp</text>
</a>
</g>
</g>
<!-- Node2 -->
<g id="node2" class="node">
<title>Node2</title>
<g id="a_node2"><a xlink:href="$graph_2all_8hpp.html" xlink:title=" ">
<polygon fill="white" stroke="black" points="282,-279.5 282,-309.5 426,-309.5 426,-279.5 282,-279.5"/>
<text text-anchor="start" x="290" y="-297.5" font-family="Helvetica,sans-Serif" font-size="10.00">/home/ram/OmniTemplate</text>
<text text-anchor="middle" x="354" y="-286.5" font-family="Helvetica,sans-Serif" font-size="10.00">/src/graph/all.hpp</text>
</a>
</g>
</g>
<!-- Node1&#45;&gt;Node2 -->
<g id="edge1" class="edge">
<title>Node1&#45;&gt;Node2</title>
<path fill="none" stroke="midnightblue" d="M411.04,-340.17C398.35,-330.23 383.39,-318.51 371.97,-309.58"/>
<polygon fill="midnightblue" stroke="midnightblue" points="408.96,-342.99 418.99,-346.4 413.28,-337.47 408.96,-342.99"/>
</g>
<!-- Node12 -->
<g id="node12" class="node">
<title>Node12</title>
<g id="a_node12"><a xlink:href="$centroid_8hpp.html" xlink:title=" ">
<polygon fill="white" stroke="black" points="510.5,-279.5 510.5,-309.5 661.5,-309.5 661.5,-279.5 510.5,-279.5"/>
<text text-anchor="start" x="518.5" y="-297.5" font-family="Helvetica,sans-Serif" font-size="10.00">/home/ram/OmniTemplate</text>
<text text-anchor="middle" x="586" y="-286.5" font-family="Helvetica,sans-Serif" font-size="10.00">/src/graph/tree/centroid.hpp</text>
</a>
</g>
</g>
<!-- Node1&#45;&gt;Node12 -->
<g id="edge18" class="edge">
<title>Node1&#45;&gt;Node12</title>
<path fill="none" stroke="midnightblue" d="M478.79,-342.27C502.52,-331.92 531.78,-319.15 553.73,-309.58"/>
<polygon fill="midnightblue" stroke="midnightblue" points="477.1,-339.19 469.33,-346.4 479.9,-345.61 477.1,-339.19"/>
</g>
<!-- Node3 -->
<g id="node3" class="node">
<title>Node3</title>
<g id="a_node3"><a xlink:href="$template_8hpp.html" xlink:title=" ">
<polygon fill="white" stroke="black" points="105,-145.5 105,-175.5 249,-175.5 249,-145.5 105,-145.5"/>
<text text-anchor="start" x="113" y="-163.5" font-family="Helvetica,sans-Serif" font-size="10.00">/home/ram/OmniTemplate</text>
<text text-anchor="middle" x="177" y="-152.5" font-family="Helvetica,sans-Serif" font-size="10.00">/src/core/template.hpp</text>
</a>
</g>
</g>
<!-- Node2&#45;&gt;Node3 -->
<g id="edge2" class="edge">
<title>Node2&#45;&gt;Node3</title>
<path fill="none" stroke="midnightblue" d="M271.9,-285.86C242.43,-279 211.45,-266.31 191,-243 174.62,-224.33 173.98,-193.68 175.29,-175.76"/>
<polygon fill="midnightblue" stroke="midnightblue" points="271.32,-289.31 281.82,-287.97 272.77,-282.46 271.32,-289.31"/>
</g>
<!-- Node4 -->
<g id="node4" class="node">
<title>Node4</title>
<g id="a_node4"><a xlink:href="$2sat_8hpp.html" xlink:title=" ">
<polygon fill="white" stroke="black" points="364,-212.5 364,-242.5 508,-242.5 508,-212.5 364,-212.5"/>
<text text-anchor="start" x="372" y="-230.5" font-family="Helvetica,sans-Serif" font-size="10.00">/home/ram/OmniTemplate</text>
<text text-anchor="middle" x="436" y="-219.5" font-family="Helvetica,sans-Serif" font-size="10.00">/src/graph/2sat.hpp</text>
</a>
</g>
</g>
<!-- Node2&#45;&gt;Node4 -->
<g id="edge3" class="edge">
<title>Node2&#45;&gt;Node4</title>
<path fill="none" stroke="midnightblue" d="M379.65,-273.17C392.19,-263.23 406.97,-251.51 418.24,-242.58"/>
<polygon fill="midnightblue" stroke="midnightblue" points="377.46,-270.44 371.79,-279.4 381.8,-275.93 377.46,-270.44"/>
</g>
<!-- Node6 -->
<g id="node6" class="node">
<title>Node6</title>
<g id="a_node6"><a xlink:href="$test__all_8hpp.html" xlink:title=" ">
<polygon fill="white" stroke="black" points="460,-73 460,-103 604,-103 604,-73 460,-73"/>
<text text-anchor="start" x="468" y="-91" font-family="Helvetica,sans-Serif" font-size="10.00">/home/ram/OmniTemplate</text>
<text text-anchor="middle" x="532" y="-80" font-family="Helvetica,sans-Serif" font-size="10.00">/src/graph/test_all.hpp</text>
</a>
</g>
</g>
<!-- Node2&#45;&gt;Node6 -->
<g id="edge9" class="edge">
<title>Node2&#45;&gt;Node6</title>
<path fill="none" stroke="midnightblue" d="M436.24,-286.8C466.06,-280.08 497.24,-267.24 517,-243 550.43,-201.98 541.29,-132.89 535.3,-103.23"/>
<polygon fill="midnightblue" stroke="midnightblue" points="435.3,-283.42 426.2,-288.85 436.7,-290.28 435.3,-283.42"/>
</g>
<!-- Node8 -->
<g id="node8" class="node">
<title>Node8</title>
<g id="a_node8"><a xlink:href="$hld_8hpp.html" xlink:title=" ">
<polygon fill="white" stroke="black" points="0,-212.5 0,-242.5 144,-242.5 144,-212.5 0,-212.5"/>
<text text-anchor="start" x="8" y="-230.5" font-family="Helvetica,sans-Serif" font-size="10.00">/home/ram/OmniTemplate</text>
<text text-anchor="middle" x="72" y="-219.5" font-family="Helvetica,sans-Serif" font-size="10.00">/src/graph/tree/hld.hpp</text>
</a>
</g>
</g>
<!-- Node2&#45;&gt;Node8 -->
<g id="edge10" class="edge">
<title>Node2&#45;&gt;Node8</title>
<path fill="none" stroke="midnightblue" d="M283.22,-277.19C237.04,-266.54 177.36,-252.78 133.22,-242.61"/>
<polygon fill="midnightblue" stroke="midnightblue" points="282.63,-280.64 293.16,-279.48 284.2,-273.82 282.63,-280.64"/>
</g>
<!-- Node10 -->
<g id="node10" class="node">
<title>Node10</title>
<g id="a_node10"><a xlink:href="$graph__draw_8hpp.html" xlink:title=" ">
<polygon fill="white" stroke="black" points="200,-212.5 200,-242.5 346,-242.5 346,-212.5 200,-212.5"/>
<text text-anchor="start" x="208" y="-230.5" font-family="Helvetica,sans-Serif" font-size="10.00">/home/ram/OmniTemplate</text>
<text text-anchor="middle" x="273" y="-219.5" font-family="Helvetica,sans-Serif" font-size="10.00">/src/utility/graph_draw.hpp</text>
</a>
</g>
</g>
<!-- Node2&#45;&gt;Node10 -->
<g id="edge14" class="edge">
<title>Node2&#45;&gt;Node10</title>
<path fill="none" stroke="midnightblue" d="M328.31,-272.88C316,-263.01 301.57,-251.43 290.54,-242.58"/>
<polygon fill="midnightblue" stroke="midnightblue" points="326.43,-275.87 336.42,-279.4 330.82,-270.41 326.43,-275.87"/>
</g>
<!-- Node4&#45;&gt;Node3 -->
<g id="edge4" class="edge">
<title>Node4&#45;&gt;Node3</title>
<path fill="none" stroke="midnightblue" d="M370.19,-209.98C327.89,-199.37 273.51,-185.72 233.23,-175.61"/>
<polygon fill="midnightblue" stroke="midnightblue" points="369.57,-213.44 380.12,-212.48 371.27,-206.65 369.57,-213.44"/>
</g>
<!-- Node5 -->
<g id="node5" class="node">
<title>Node5</title>
<g id="a_node5"><a xlink:href="$test__2sat_8hpp.html" xlink:title=" ">
<polygon fill="white" stroke="black" points="364,-145.5 364,-175.5 508,-175.5 508,-145.5 364,-145.5"/>
<text text-anchor="start" x="372" y="-163.5" font-family="Helvetica,sans-Serif" font-size="10.00">/home/ram/OmniTemplate</text>
<text text-anchor="middle" x="436" y="-152.5" font-family="Helvetica,sans-Serif" font-size="10.00">/src/graph/test_2sat.hpp</text>
</a>
</g>
</g>
<!-- Node4&#45;&gt;Node5 -->
<g id="edge5" class="edge">
<title>Node4&#45;&gt;Node5</title>
<path fill="none" stroke="midnightblue" d="M436,-202.11C436,-193.15 436,-183.32 436,-175.58"/>
<polygon fill="midnightblue" stroke="midnightblue" points="432.5,-202.4 436,-212.4 439.5,-202.4 432.5,-202.4"/>
</g>
<!-- Node5&#45;&gt;Node6 -->
<g id="edge6" class="edge">
<title>Node5&#45;&gt;Node6</title>
<path fill="none" stroke="midnightblue" d="M463.77,-139.11C479.54,-127.53 498.87,-113.33 512.93,-103"/>
<polygon fill="midnightblue" stroke="midnightblue" points="461.42,-136.49 455.43,-145.23 465.56,-142.14 461.42,-136.49"/>
</g>
<!-- Node7 -->
<g id="node7" class="node">
<title>Node7</title>
<g id="a_node7"><a xlink:href="$test_8cpp.html" xlink:title=" ">
<polygon fill="white" stroke="black" points="263,-0.5 263,-30.5 407,-30.5 407,-0.5 263,-0.5"/>
<text text-anchor="start" x="271" y="-18.5" font-family="Helvetica,sans-Serif" font-size="10.00">/home/ram/OmniTemplate</text>
<text text-anchor="middle" x="335" y="-7.5" font-family="Helvetica,sans-Serif" font-size="10.00">/src/test/test.cpp</text>
</a>
</g>
</g>
<!-- Node5&#45;&gt;Node7 -->
<g id="edge8" class="edge">
<title>Node5&#45;&gt;Node7</title>
<path fill="none" stroke="midnightblue" d="M419.94,-136.76C398.87,-106.93 362.53,-55.48 345.01,-30.68"/>
<polygon fill="midnightblue" stroke="midnightblue" points="417.32,-139.12 425.95,-145.27 423.04,-135.08 417.32,-139.12"/>
</g>
<!-- Node6&#45;&gt;Node7 -->
<g id="edge7" class="edge">
<title>Node6&#45;&gt;Node7</title>
<path fill="none" stroke="midnightblue" d="M483,-69.46C449.46,-57.46 405.58,-41.76 374.32,-30.57"/>
<polygon fill="midnightblue" stroke="midnightblue" points="482.01,-72.83 492.61,-72.9 484.37,-66.24 482.01,-72.83"/>
</g>
<!-- Node8&#45;&gt;Node3 -->
<g id="edge11" class="edge">
<title>Node8&#45;&gt;Node3</title>
<path fill="none" stroke="midnightblue" d="M103.48,-207.02C119.82,-196.9 139.41,-184.77 154.26,-175.58"/>
<polygon fill="midnightblue" stroke="midnightblue" points="101.44,-204.16 94.78,-212.4 105.13,-210.11 101.44,-204.16"/>
</g>
<!-- Node9 -->
<g id="node9" class="node">
<title>Node9</title>
<g id="a_node9"><a xlink:href="$test__hld_8hpp.html" xlink:title=" ">
<polygon fill="white" stroke="black" points="28,-73 28,-103 178,-103 178,-73 28,-73"/>
<text text-anchor="start" x="36" y="-91" font-family="Helvetica,sans-Serif" font-size="10.00">/home/ram/OmniTemplate</text>
<text text-anchor="middle" x="103" y="-80" font-family="Helvetica,sans-Serif" font-size="10.00">/src/graph/tree/test_hld.hpp</text>
</a>
</g>
</g>
<!-- Node8&#45;&gt;Node9 -->
<g id="edge12" class="edge">
<title>Node8&#45;&gt;Node9</title>
<path fill="none" stroke="midnightblue" d="M77.46,-202.29C83.92,-173.61 94.48,-126.78 99.77,-103.33"/>
<polygon fill="midnightblue" stroke="midnightblue" points="73.99,-201.78 75.2,-212.3 80.81,-203.32 73.99,-201.78"/>
</g>
<!-- Node9&#45;&gt;Node7 -->
<g id="edge13" class="edge">
<title>Node9&#45;&gt;Node7</title>
<path fill="none" stroke="midnightblue" d="M158.9,-70.01C198.58,-57.96 251.22,-41.96 288.58,-30.61"/>
<polygon fill="midnightblue" stroke="midnightblue" points="157.66,-66.73 149.11,-72.99 159.7,-73.43 157.66,-66.73"/>
</g>
<!-- Node10&#45;&gt;Node3 -->
<g id="edge15" class="edge">
<title>Node10&#45;&gt;Node3</title>
<path fill="none" stroke="midnightblue" d="M243.81,-206.73C228.95,-196.68 211.24,-184.68 197.79,-175.58"/>
<polygon fill="midnightblue" stroke="midnightblue" points="241.93,-209.69 252.17,-212.4 245.85,-203.89 241.93,-209.69"/>
</g>
<!-- Node11 -->
<g id="node11" class="node">
<title>Node11</title>
<g id="a_node11"><a xlink:href="$test__graph__draw_8hpp.html" xlink:title=" ">
<polygon fill="white" stroke="black" points="213,-67.5 213,-108.5 357,-108.5 357,-67.5 213,-67.5"/>
<text text-anchor="start" x="221" y="-96.5" font-family="Helvetica,sans-Serif" font-size="10.00">/home/ram/OmniTemplate</text>
<text text-anchor="start" x="221" y="-85.5" font-family="Helvetica,sans-Serif" font-size="10.00">/src/utility/test_graph</text>
<text text-anchor="middle" x="285" y="-74.5" font-family="Helvetica,sans-Serif" font-size="10.00">_draw.hpp</text>
</a>
</g>
</g>
<!-- Node10&#45;&gt;Node11 -->
<g id="edge16" class="edge">
<title>Node10&#45;&gt;Node11</title>
<path fill="none" stroke="midnightblue" d="M275.12,-202.26C277.44,-175.6 281.14,-133.28 283.29,-108.62"/>
<polygon fill="midnightblue" stroke="midnightblue" points="271.62,-202.04 274.24,-212.3 278.6,-202.65 271.62,-202.04"/>
</g>
<!-- Node11&#45;&gt;Node7 -->
<g id="edge17" class="edge">
<title>Node11&#45;&gt;Node7</title>
<path fill="none" stroke="midnightblue" d="M304.76,-59.14C311.62,-49.47 319.02,-39.02 324.79,-30.89"/>
<polygon fill="midnightblue" stroke="midnightblue" points="301.86,-57.18 298.93,-67.36 307.57,-61.23 301.86,-57.18"/>
</g>
<!-- Node13 -->
<g id="node13" class="node">
<title>Node13</title>
<g id="a_node13"><a xlink:href="$test__centroid_8hpp.html" xlink:title=" ">
<polygon fill="white" stroke="black" points="564.5,-212.5 564.5,-242.5 739.5,-242.5 739.5,-212.5 564.5,-212.5"/>
<text text-anchor="start" x="572.5" y="-230.5" font-family="Helvetica,sans-Serif" font-size="10.00">/home/ram/OmniTemplate</text>
<text text-anchor="middle" x="652" y="-219.5" font-family="Helvetica,sans-Serif" font-size="10.00">/src/graph/tree/test_centroid.hpp</text>
</a>
</g>
</g>
<!-- Node12&#45;&gt;Node13 -->
<g id="edge19" class="edge">
<title>Node12&#45;&gt;Node13</title>
<path fill="none" stroke="midnightblue" d="M607.51,-272.31C617.41,-262.56 628.89,-251.26 637.71,-242.58"/>
<polygon fill="midnightblue" stroke="midnightblue" points="604.99,-269.89 600.32,-279.4 609.9,-274.87 604.99,-269.89"/>
</g>
<!-- Node13&#45;&gt;Node6 -->
<g id="edge20" class="edge">
<title>Node13&#45;&gt;Node6</title>
<path fill="none" stroke="midnightblue" d="M632.82,-204.52C608.01,-176.1 565.51,-127.39 544.5,-103.33"/>
<polygon fill="midnightblue" stroke="midnightblue" points="630.4,-207.07 639.61,-212.3 635.67,-202.47 630.4,-207.07"/>
</g>
</g>
</svg>
