<?xml version="1.0" encoding="UTF-8" standalone="no"?>
<!DOCTYPE svg PUBLIC "-//W3C//DTD SVG 1.1//EN"
 "http://www.w3.org/Graphics/SVG/1.1/DTD/svg11.dtd">
<!-- Generated by graphviz version 2.43.0 (0)
 -->
<!-- Title: /home/ram/OmniTemplate/src/graph/tree/hld.hpp Pages: 1 -->
<!--zoomable 722 -->
<svg id="main" version="1.1" xmlns="http://www.w3.org/2000/svg" xmlns:xlink="http://www.w3.org/1999/xlink" xml:space="preserve" onload="init(evt)">
<style type="text/css"><![CDATA[
.edge:hover path { stroke: red; }
.edge:hover polygon { stroke: red; fill: red; }
]]></style>
<script type="text/javascript"><![CDATA[
var edges = document.getElementsByTagName('g');
if (edges && edges.length) {
  for (var i=0;i<edges.length;i++) {
    if (edges[i].id.substr(0,4)=='edge') {
      edges[i].setAttribute('class','edge');
    }
  }
}
]]></script>
        <defs>
                <circle id="rim" cx="0" cy="0" r="7"/>
                <circle id="rim2" cx="0" cy="0" r="3.5"/>
                <g id="zoomPlus">
                        <use xlink:href="#rim" fill="#404040">
                                <set attributeName="fill" to="#808080" begin="zoomplus.mouseover" end="zoomplus.mouseout"/>
                        </use>
                        <path d="M-4,0h8M0,-4v8" fill="none" stroke="white" stroke-width="1.5" pointer-events="none"/>
                </g>
                <g id="zoomMin">
                        <use xlink:href="#rim" fill="#404040">
                                <set attributeName="fill" to="#808080" begin="zoomminus.mouseover" end="zoomminus.mouseout"/>
                        </use>
                        <path d="M-4,0h8" fill="none" stroke="white" stroke-width="1.5" pointer-events="none"/>
                </g>
                <g id="dirArrow">
                        <path fill="none" stroke="white" stroke-width="1.5" d="M0,-3.0v7 M-2.5,-0.5L0,-3.0L2.5,-0.5"/>
                </g>
               <g id="resetDef">
                       <use xlink:href="#rim2" fill="#404040">
                               <set attributeName="fill" to="#808080" begin="reset.mouseover" end="reset.mouseout"/>
                       </use>
               </g>
        </defs>

<script type="text/javascript">
var viewWidth = 1913;
var viewHeight = 722;
var sectionId = 'dynsection-0';
</script>
<script xlink:href="svgpan.js"/>
<svg id="graph" class="graph">
<g id="viewport">
<title>/home/ram/OmniTemplate/src/graph/tree/hld.hpp</title>
<polygon fill="white" stroke="transparent" points="-4,4 -4,-718 1908.5,-718 1908.5,4 -4,4"/>
<!-- Node1 -->
<g id="node1" class="node">
<title>Node1</title>
<g id="a_node1"><a xlink:title=" ">
<polygon fill="#bfbfbf" stroke="black" points="563,-683.5 563,-713.5 707,-713.5 707,-683.5 563,-683.5"/>
<text text-anchor="start" x="571" y="-701.5" font-family="Helvetica,sans-Serif" font-size="10.00">/home/ram/OmniTemplate</text>
<text text-anchor="middle" x="635" y="-690.5" font-family="Helvetica,sans-Serif" font-size="10.00">/src/graph/tree/hld.hpp</text>
</a>
</g>
</g>
<!-- Node2 -->
<g id="node2" class="node">
<title>Node2</title>
<g id="a_node2"><a xlink:href="core_2all_8hpp.html" target="_top" xlink:title=" ">
<polygon fill="white" stroke="black" points="903,-235.5 903,-254.5 977,-254.5 977,-235.5 903,-235.5"/>
<text text-anchor="middle" x="940" y="-242.5" font-family="Helvetica,sans-Serif" font-size="10.00">core/all.hpp</text>
</a>
</g>
</g>
<!-- Node1&#45;&gt;Node2 -->
<g id="edge1" class="edge">
<title>Node1&#45;&gt;Node2</title>
<path fill="none" stroke="midnightblue" d="M614.86,-683.21C589.72,-663.54 550,-625.57 550,-582 550,-582 550,-582 550,-356 550,-285.52 788.92,-257.98 892.75,-249.34"/>
<polygon fill="midnightblue" stroke="midnightblue" points="893.27,-252.81 902.96,-248.52 892.71,-245.83 893.27,-252.81"/>
</g>
<!-- Node29 -->
<g id="node29" class="node">
<title>Node29</title>
<g id="a_node29"><a xlink:href="sparse__table_8hpp.html" target="_top" xlink:title=" ">
<polygon fill="white" stroke="black" points="578,-347.5 578,-366.5 692,-366.5 692,-347.5 578,-347.5"/>
<text text-anchor="middle" x="635" y="-354.5" font-family="Helvetica,sans-Serif" font-size="10.00">ds/sparse_table.hpp</text>
</a>
</g>
</g>
<!-- Node1&#45;&gt;Node29 -->
<g id="edge34" class="edge">
<title>Node1&#45;&gt;Node29</title>
<path fill="none" stroke="midnightblue" d="M635,-683.28C635,-661.48 635,-618.49 635,-582 635,-582 635,-582 635,-468 635,-435.95 635,-398.64 635,-376.75"/>
<polygon fill="midnightblue" stroke="midnightblue" points="638.5,-376.56 635,-366.56 631.5,-376.56 638.5,-376.56"/>
</g>
<!-- Node30 -->
<g id="node30" class="node">
<title>Node30</title>
<g id="a_node30"><a xlink:href="graph_2all_8hpp.html" target="_top" xlink:title=" ">
<polygon fill="white" stroke="black" points="885,-627.5 885,-646.5 965,-646.5 965,-627.5 885,-627.5"/>
<text text-anchor="middle" x="925" y="-634.5" font-family="Helvetica,sans-Serif" font-size="10.00">graph/all.hpp</text>
</a>
</g>
</g>
<!-- Node1&#45;&gt;Node30 -->
<g id="edge36" class="edge">
<title>Node1&#45;&gt;Node30</title>
<path fill="none" stroke="midnightblue" d="M703.36,-683.47C755.93,-672.69 827.37,-658.03 874.77,-648.31"/>
<polygon fill="midnightblue" stroke="midnightblue" points="875.71,-651.69 884.8,-646.25 874.3,-644.83 875.71,-651.69"/>
</g>
<!-- Node3 -->
<g id="node3" class="node">
<title>Node3</title>
<g id="a_node3"><a xlink:title=" ">
<polygon fill="white" stroke="#bfbfbf" points="0,-174 0,-193 64,-193 64,-174 0,-174"/>
<text text-anchor="middle" x="32" y="-181" font-family="Helvetica,sans-Serif" font-size="10.00">algorithm</text>
</a>
</g>
</g>
<!-- Node2&#45;&gt;Node3 -->
<g id="edge2" class="edge">
<title>Node2&#45;&gt;Node3</title>
<path fill="none" stroke="midnightblue" d="M902.54,-243.49C757.85,-241.29 235.44,-231.23 73,-199 69.49,-198.3 65.87,-197.37 62.3,-196.3"/>
<polygon fill="midnightblue" stroke="midnightblue" points="63.13,-192.89 52.53,-193.06 60.92,-199.53 63.13,-192.89"/>
</g>
<!-- Node4 -->
<g id="node4" class="node">
<title>Node4</title>
<g id="a_node4"><a xlink:title=" ">
<polygon fill="white" stroke="#bfbfbf" points="82,-174 82,-193 134,-193 134,-174 82,-174"/>
<text text-anchor="middle" x="108" y="-181" font-family="Helvetica,sans-Serif" font-size="10.00">cassert</text>
</a>
</g>
</g>
<!-- Node2&#45;&gt;Node4 -->
<g id="edge3" class="edge">
<title>Node2&#45;&gt;Node4</title>
<path fill="none" stroke="midnightblue" d="M902.74,-243.55C765.76,-241.64 290.44,-232.68 143,-199 140.33,-198.39 137.6,-197.59 134.9,-196.69"/>
<polygon fill="midnightblue" stroke="midnightblue" points="136.02,-193.37 125.43,-193.07 133.52,-199.91 136.02,-193.37"/>
</g>
<!-- Node5 -->
<g id="node5" class="node">
<title>Node5</title>
<g id="a_node5"><a xlink:title=" ">
<polygon fill="white" stroke="#bfbfbf" points="152,-174 152,-193 202,-193 202,-174 152,-174"/>
<text text-anchor="middle" x="177" y="-181" font-family="Helvetica,sans-Serif" font-size="10.00">chrono</text>
</a>
</g>
</g>
<!-- Node2&#45;&gt;Node5 -->
<g id="edge4" class="edge">
<title>Node2&#45;&gt;Node5</title>
<path fill="none" stroke="midnightblue" d="M902.83,-243.37C773.61,-240.94 344.58,-230.61 211,-199 208.49,-198.41 205.92,-197.64 203.39,-196.77"/>
<polygon fill="midnightblue" stroke="midnightblue" points="204.5,-193.45 193.91,-193.05 201.94,-199.96 204.5,-193.45"/>
</g>
<!-- Node6 -->
<g id="node6" class="node">
<title>Node6</title>
<g id="a_node6"><a xlink:title=" ">
<polygon fill="white" stroke="#bfbfbf" points="220,-174 220,-193 270,-193 270,-174 220,-174"/>
<text text-anchor="middle" x="245" y="-181" font-family="Helvetica,sans-Serif" font-size="10.00">climits</text>
</a>
</g>
</g>
<!-- Node2&#45;&gt;Node6 -->
<g id="edge5" class="edge">
<title>Node2&#45;&gt;Node6</title>
<path fill="none" stroke="midnightblue" d="M902.98,-243.11C781.95,-239.93 398.96,-227.79 279,-199 276.49,-198.4 273.93,-197.63 271.39,-196.75"/>
<polygon fill="midnightblue" stroke="midnightblue" points="272.5,-193.43 261.91,-193.03 269.94,-199.94 272.5,-193.43"/>
</g>
<!-- Node7 -->
<g id="node7" class="node">
<title>Node7</title>
<g id="a_node7"><a xlink:title=" ">
<polygon fill="white" stroke="#bfbfbf" points="288.5,-174 288.5,-193 347.5,-193 347.5,-174 288.5,-174"/>
<text text-anchor="middle" x="318" y="-181" font-family="Helvetica,sans-Serif" font-size="10.00">complex</text>
</a>
</g>
</g>
<!-- Node2&#45;&gt;Node7 -->
<g id="edge6" class="edge">
<title>Node2&#45;&gt;Node7</title>
<path fill="none" stroke="midnightblue" d="M902.71,-242.53C791.09,-237.9 460.93,-222.54 356,-199 353,-198.33 349.91,-197.46 346.87,-196.49"/>
<polygon fill="midnightblue" stroke="midnightblue" points="347.99,-193.17 337.39,-193.13 345.64,-199.77 347.99,-193.17"/>
</g>
<!-- Node8 -->
<g id="node8" class="node">
<title>Node8</title>
<g id="a_node8"><a xlink:title=" ">
<polygon fill="white" stroke="#bfbfbf" points="365.5,-174 365.5,-193 420.5,-193 420.5,-174 365.5,-174"/>
<text text-anchor="middle" x="393" y="-181" font-family="Helvetica,sans-Serif" font-size="10.00">fstream</text>
</a>
</g>
</g>
<!-- Node2&#45;&gt;Node8 -->
<g id="edge7" class="edge">
<title>Node2&#45;&gt;Node8</title>
<path fill="none" stroke="midnightblue" d="M902.85,-244.44C817.74,-244.66 602.64,-240.64 429,-199 426.33,-198.36 423.59,-197.55 420.88,-196.65"/>
<polygon fill="midnightblue" stroke="midnightblue" points="421.93,-193.31 411.34,-193.1 419.49,-199.87 421.93,-193.31"/>
</g>
<!-- Node9 -->
<g id="node9" class="node">
<title>Node9</title>
<g id="a_node9"><a xlink:title=" ">
<polygon fill="white" stroke="#bfbfbf" points="438.5,-174 438.5,-193 503.5,-193 503.5,-174 438.5,-174"/>
<text text-anchor="middle" x="471" y="-181" font-family="Helvetica,sans-Serif" font-size="10.00">functional</text>
</a>
</g>
</g>
<!-- Node2&#45;&gt;Node9 -->
<g id="edge8" class="edge">
<title>Node2&#45;&gt;Node9</title>
<path fill="none" stroke="midnightblue" d="M902.99,-242.92C828.37,-240.14 654.9,-230.54 513,-199 509.58,-198.24 506.06,-197.29 502.57,-196.25"/>
<polygon fill="midnightblue" stroke="midnightblue" points="503.55,-192.89 492.96,-193.13 501.39,-199.55 503.55,-192.89"/>
</g>
<!-- Node10 -->
<g id="node10" class="node">
<title>Node10</title>
<g id="a_node10"><a xlink:title=" ">
<polygon fill="white" stroke="#bfbfbf" points="522,-174 522,-193 582,-193 582,-174 522,-174"/>
<text text-anchor="middle" x="552" y="-181" font-family="Helvetica,sans-Serif" font-size="10.00">iostream</text>
</a>
</g>
</g>
<!-- Node2&#45;&gt;Node10 -->
<g id="edge9" class="edge">
<title>Node2&#45;&gt;Node10</title>
<path fill="none" stroke="midnightblue" d="M902.81,-241.99C838.45,-237.9 702.5,-226.53 591,-199 588.01,-198.26 584.94,-197.37 581.89,-196.39"/>
<polygon fill="midnightblue" stroke="midnightblue" points="582.96,-193.06 572.37,-193.07 580.66,-199.67 582.96,-193.06"/>
</g>
<!-- Node11 -->
<g id="node11" class="node">
<title>Node11</title>
<g id="a_node11"><a xlink:title=" ">
<polygon fill="white" stroke="#bfbfbf" points="600,-174 600,-193 638,-193 638,-174 600,-174"/>
<text text-anchor="middle" x="619" y="-181" font-family="Helvetica,sans-Serif" font-size="10.00">map</text>
</a>
</g>
</g>
<!-- Node2&#45;&gt;Node11 -->
<g id="edge10" class="edge">
<title>Node2&#45;&gt;Node11</title>
<path fill="none" stroke="midnightblue" d="M902.56,-242.14C845.97,-238.47 735.81,-227.95 647,-199 645.57,-198.53 644.12,-198 642.68,-197.42"/>
<polygon fill="midnightblue" stroke="midnightblue" points="643.97,-194.16 633.43,-193.11 641.02,-200.51 643.97,-194.16"/>
</g>
<!-- Node12 -->
<g id="node12" class="node">
<title>Node12</title>
<g id="a_node12"><a xlink:title=" ">
<polygon fill="white" stroke="#bfbfbf" points="656,-174 656,-193 712,-193 712,-174 656,-174"/>
<text text-anchor="middle" x="684" y="-181" font-family="Helvetica,sans-Serif" font-size="10.00">numeric</text>
</a>
</g>
</g>
<!-- Node2&#45;&gt;Node12 -->
<g id="edge11" class="edge">
<title>Node2&#45;&gt;Node12</title>
<path fill="none" stroke="midnightblue" d="M902.71,-238.33C858.74,-231.2 783.71,-217.58 721,-199 718.57,-198.28 716.07,-197.47 713.58,-196.6"/>
<polygon fill="midnightblue" stroke="midnightblue" points="714.73,-193.3 704.14,-193.11 712.3,-199.86 714.73,-193.3"/>
</g>
<!-- Node13 -->
<g id="node13" class="node">
<title>Node13</title>
<g id="a_node13"><a xlink:title=" ">
<polygon fill="white" stroke="#bfbfbf" points="730.5,-174 730.5,-193 777.5,-193 777.5,-174 730.5,-174"/>
<text text-anchor="middle" x="754" y="-181" font-family="Helvetica,sans-Serif" font-size="10.00">queue</text>
</a>
</g>
</g>
<!-- Node2&#45;&gt;Node13 -->
<g id="edge12" class="edge">
<title>Node2&#45;&gt;Node13</title>
<path fill="none" stroke="midnightblue" d="M906.47,-235.47C875.21,-227.2 827.44,-213.76 787,-199 785.34,-198.4 783.65,-197.75 781.95,-197.07"/>
<polygon fill="midnightblue" stroke="midnightblue" points="782.91,-193.68 772.33,-193.05 780.21,-200.14 782.91,-193.68"/>
</g>
<!-- Node14 -->
<g id="node14" class="node">
<title>Node14</title>
<g id="a_node14"><a xlink:title=" ">
<polygon fill="white" stroke="#bfbfbf" points="796,-174 796,-193 850,-193 850,-174 796,-174"/>
<text text-anchor="middle" x="823" y="-181" font-family="Helvetica,sans-Serif" font-size="10.00">random</text>
</a>
</g>
</g>
<!-- Node2&#45;&gt;Node14 -->
<g id="edge13" class="edge">
<title>Node2&#45;&gt;Node14</title>
<path fill="none" stroke="midnightblue" d="M923.24,-235.48C903.78,-225.58 871.45,-209.14 848.79,-197.62"/>
<polygon fill="midnightblue" stroke="midnightblue" points="850.23,-194.42 839.73,-193.01 847.06,-200.66 850.23,-194.42"/>
</g>
<!-- Node15 -->
<g id="node15" class="node">
<title>Node15</title>
<g id="a_node15"><a xlink:title=" ">
<polygon fill="white" stroke="#bfbfbf" points="868,-174 868,-193 900,-193 900,-174 868,-174"/>
<text text-anchor="middle" x="884" y="-181" font-family="Helvetica,sans-Serif" font-size="10.00">set</text>
</a>
</g>
</g>
<!-- Node2&#45;&gt;Node15 -->
<g id="edge14" class="edge">
<title>Node2&#45;&gt;Node15</title>
<path fill="none" stroke="midnightblue" d="M931.98,-235.48C923.41,-226.37 909.64,-211.74 899.04,-200.48"/>
<polygon fill="midnightblue" stroke="midnightblue" points="901.41,-197.89 892.01,-193.01 896.31,-202.69 901.41,-197.89"/>
</g>
<!-- Node16 -->
<g id="node16" class="node">
<title>Node16</title>
<g id="a_node16"><a xlink:title=" ">
<polygon fill="white" stroke="#bfbfbf" points="918.5,-174 918.5,-193 961.5,-193 961.5,-174 918.5,-174"/>
<text text-anchor="middle" x="940" y="-181" font-family="Helvetica,sans-Serif" font-size="10.00">stack</text>
</a>
</g>
</g>
<!-- Node2&#45;&gt;Node16 -->
<g id="edge15" class="edge">
<title>Node2&#45;&gt;Node16</title>
<path fill="none" stroke="midnightblue" d="M940,-235.48C940,-227.08 940,-213.98 940,-203.16"/>
<polygon fill="midnightblue" stroke="midnightblue" points="943.5,-203.01 940,-193.01 936.5,-203.01 943.5,-203.01"/>
</g>
<!-- Node17 -->
<g id="node17" class="node">
<title>Node17</title>
<g id="a_node17"><a xlink:title=" ">
<polygon fill="white" stroke="#bfbfbf" points="980,-174 980,-193 1028,-193 1028,-174 980,-174"/>
<text text-anchor="middle" x="1004" y="-181" font-family="Helvetica,sans-Serif" font-size="10.00">thread</text>
</a>
</g>
</g>
<!-- Node2&#45;&gt;Node17 -->
<g id="edge16" class="edge">
<title>Node2&#45;&gt;Node17</title>
<path fill="none" stroke="midnightblue" d="M949.17,-235.48C959.15,-226.2 975.31,-211.17 987.51,-199.83"/>
<polygon fill="midnightblue" stroke="midnightblue" points="989.91,-202.38 994.85,-193.01 985.14,-197.25 989.91,-202.38"/>
</g>
<!-- Node18 -->
<g id="node18" class="node">
<title>Node18</title>
<g id="a_node18"><a xlink:title=" ">
<polygon fill="white" stroke="#bfbfbf" points="1046.5,-174 1046.5,-193 1115.5,-193 1115.5,-174 1046.5,-174"/>
<text text-anchor="middle" x="1081" y="-181" font-family="Helvetica,sans-Serif" font-size="10.00">type_traits</text>
</a>
</g>
</g>
<!-- Node2&#45;&gt;Node18 -->
<g id="edge17" class="edge">
<title>Node2&#45;&gt;Node18</title>
<path fill="none" stroke="midnightblue" d="M960.2,-235.48C984.07,-225.4 1024,-208.55 1051.37,-197"/>
<polygon fill="midnightblue" stroke="midnightblue" points="1052.98,-200.12 1060.84,-193.01 1050.26,-193.67 1052.98,-200.12"/>
</g>
<!-- Node19 -->
<g id="node19" class="node">
<title>Node19</title>
<g id="a_node19"><a xlink:title=" ">
<polygon fill="white" stroke="#bfbfbf" points="1134,-174 1134,-193 1220,-193 1220,-174 1134,-174"/>
<text text-anchor="middle" x="1177" y="-181" font-family="Helvetica,sans-Serif" font-size="10.00">unordered_set</text>
</a>
</g>
</g>
<!-- Node2&#45;&gt;Node19 -->
<g id="edge18" class="edge">
<title>Node2&#45;&gt;Node19</title>
<path fill="none" stroke="midnightblue" d="M976.04,-235.49C1013.18,-226.65 1072.75,-212.28 1124,-199 1128.05,-197.95 1132.27,-196.83 1136.48,-195.71"/>
<polygon fill="midnightblue" stroke="midnightblue" points="1137.47,-199.07 1146.21,-193.08 1135.64,-192.31 1137.47,-199.07"/>
</g>
<!-- Node20 -->
<g id="node20" class="node">
<title>Node20</title>
<g id="a_node20"><a xlink:title=" ">
<polygon fill="white" stroke="#bfbfbf" points="1238.5,-174 1238.5,-193 1283.5,-193 1283.5,-174 1238.5,-174"/>
<text text-anchor="middle" x="1261" y="-181" font-family="Helvetica,sans-Serif" font-size="10.00">utility</text>
</a>
</g>
</g>
<!-- Node2&#45;&gt;Node20 -->
<g id="edge19" class="edge">
<title>Node2&#45;&gt;Node20</title>
<path fill="none" stroke="midnightblue" d="M977.2,-241.44C1032.93,-236.89 1140.93,-225.28 1229,-199 1230.93,-198.42 1232.89,-197.76 1234.85,-197.03"/>
<polygon fill="midnightblue" stroke="midnightblue" points="1236.5,-200.13 1244.39,-193.06 1233.81,-193.67 1236.5,-200.13"/>
</g>
<!-- Node21 -->
<g id="node21" class="node">
<title>Node21</title>
<g id="a_node21"><a xlink:title=" ">
<polygon fill="white" stroke="#bfbfbf" points="1301.5,-174 1301.5,-193 1348.5,-193 1348.5,-174 1301.5,-174"/>
<text text-anchor="middle" x="1325" y="-181" font-family="Helvetica,sans-Serif" font-size="10.00">vector</text>
</a>
</g>
</g>
<!-- Node2&#45;&gt;Node21 -->
<g id="edge20" class="edge">
<title>Node2&#45;&gt;Node21</title>
<path fill="none" stroke="midnightblue" d="M977.17,-242.74C1042.14,-239.77 1180.09,-230.04 1292,-199 1294.16,-198.4 1296.35,-197.69 1298.54,-196.9"/>
<polygon fill="midnightblue" stroke="midnightblue" points="1299.91,-200.12 1307.87,-193.14 1297.29,-193.63 1299.91,-200.12"/>
</g>
<!-- Node22 -->
<g id="node22" class="node">
<title>Node22</title>
<g id="a_node22"><a xlink:title=" ">
<polygon fill="white" stroke="#bfbfbf" points="1366.5,-174 1366.5,-193 1487.5,-193 1487.5,-174 1366.5,-174"/>
<text text-anchor="middle" x="1427" y="-181" font-family="Helvetica,sans-Serif" font-size="10.00">experimental/iterator</text>
</a>
</g>
</g>
<!-- Node2&#45;&gt;Node22 -->
<g id="edge21" class="edge">
<title>Node2&#45;&gt;Node22</title>
<path fill="none" stroke="midnightblue" d="M977.26,-241.2C1050.36,-235.43 1217.63,-220.9 1357,-199 1364.16,-197.87 1371.71,-196.51 1379.08,-195.07"/>
<polygon fill="midnightblue" stroke="midnightblue" points="1379.86,-198.48 1388.98,-193.07 1378.48,-191.62 1379.86,-198.48"/>
</g>
<!-- Node23 -->
<g id="node23" class="node">
<title>Node23</title>
<g id="a_node23"><a xlink:title=" ">
<polygon fill="white" stroke="#bfbfbf" points="1505.5,-168.5 1505.5,-198.5 1622.5,-198.5 1622.5,-168.5 1505.5,-168.5"/>
<text text-anchor="start" x="1513.5" y="-186.5" font-family="Helvetica,sans-Serif" font-size="10.00">experimental/source</text>
<text text-anchor="middle" x="1564" y="-175.5" font-family="Helvetica,sans-Serif" font-size="10.00">_location</text>
</a>
</g>
</g>
<!-- Node2&#45;&gt;Node23 -->
<g id="edge22" class="edge">
<title>Node2&#45;&gt;Node23</title>
<path fill="none" stroke="midnightblue" d="M977.28,-242.65C1065.52,-239.09 1294.2,-227.8 1495.32,-198.96"/>
<polygon fill="midnightblue" stroke="midnightblue" points="1496.09,-202.38 1505.48,-197.48 1495.08,-195.45 1496.09,-202.38"/>
</g>
<!-- Node24 -->
<g id="node24" class="node">
<title>Node24</title>
<g id="a_node24"><a xlink:href="debug_8hpp.html" target="_top" xlink:title=" ">
<polygon fill="white" stroke="black" points="1706,-112.5 1706,-131.5 1774,-131.5 1774,-112.5 1706,-112.5"/>
<text text-anchor="middle" x="1740" y="-119.5" font-family="Helvetica,sans-Serif" font-size="10.00">debug.hpp</text>
</a>
</g>
</g>
<!-- Node2&#45;&gt;Node24 -->
<g id="edge23" class="edge">
<title>Node2&#45;&gt;Node24</title>
<path fill="none" stroke="midnightblue" d="M977.2,-243.57C1118.96,-241.67 1620.56,-232.62 1683,-199 1706.66,-186.26 1723.29,-158.95 1732.26,-140.78"/>
<polygon fill="midnightblue" stroke="midnightblue" points="1735.51,-142.09 1736.55,-131.55 1729.16,-139.14 1735.51,-142.09"/>
</g>
<!-- Node25 -->
<g id="node25" class="node">
<title>Node25</title>
<g id="a_node25"><a xlink:href="operations_8hpp.html" target="_top" xlink:title=" ">
<polygon fill="white" stroke="black" points="1744.5,-56.5 1744.5,-75.5 1833.5,-75.5 1833.5,-56.5 1744.5,-56.5"/>
<text text-anchor="middle" x="1789" y="-63.5" font-family="Helvetica,sans-Serif" font-size="10.00">operations.hpp</text>
</a>
</g>
</g>
<!-- Node2&#45;&gt;Node25 -->
<g id="edge30" class="edge">
<title>Node2&#45;&gt;Node25</title>
<path fill="none" stroke="midnightblue" d="M977.14,-243.45C1137.47,-240.88 1763.57,-228.97 1792,-199 1821.1,-168.33 1806.71,-113.34 1796.39,-84.99"/>
<polygon fill="midnightblue" stroke="midnightblue" points="1799.61,-83.6 1792.74,-75.53 1793.08,-86.12 1799.61,-83.6"/>
</g>
<!-- Node26 -->
<g id="node26" class="node">
<title>Node26</title>
<g id="a_node26"><a xlink:href="range_8hpp.html" target="_top" xlink:title=" ">
<polygon fill="white" stroke="black" points="1683.5,-0.5 1683.5,-19.5 1748.5,-19.5 1748.5,-0.5 1683.5,-0.5"/>
<text text-anchor="middle" x="1716" y="-7.5" font-family="Helvetica,sans-Serif" font-size="10.00">range.hpp</text>
</a>
</g>
</g>
<!-- Node2&#45;&gt;Node26 -->
<g id="edge31" class="edge">
<title>Node2&#45;&gt;Node26</title>
<path fill="none" stroke="midnightblue" d="M977.43,-243.77C1112.62,-242.65 1569.57,-236.17 1623,-199 1680.96,-158.68 1699.49,-68.67 1709.06,-29.65"/>
<polygon fill="midnightblue" stroke="midnightblue" points="1712.52,-30.24 1711.66,-19.68 1705.75,-28.47 1712.52,-30.24"/>
</g>
<!-- Node27 -->
<g id="node27" class="node">
<title>Node27</title>
<g id="a_node27"><a xlink:href="io_8hpp.html" target="_top" xlink:title=" ">
<polygon fill="white" stroke="black" points="1735.5,-174 1735.5,-193 1782.5,-193 1782.5,-174 1735.5,-174"/>
<text text-anchor="middle" x="1759" y="-181" font-family="Helvetica,sans-Serif" font-size="10.00">io.hpp</text>
</a>
</g>
</g>
<!-- Node2&#45;&gt;Node27 -->
<g id="edge28" class="edge">
<title>Node2&#45;&gt;Node27</title>
<path fill="none" stroke="midnightblue" d="M977.41,-243.36C1112.74,-240.81 1576.41,-229.98 1721,-199 1724.08,-198.34 1727.23,-197.47 1730.35,-196.49"/>
<polygon fill="midnightblue" stroke="midnightblue" points="1731.76,-199.7 1740.02,-193.05 1729.42,-193.1 1731.76,-199.7"/>
</g>
<!-- Node28 -->
<g id="node28" class="node">
<title>Node28</title>
<g id="a_node28"><a xlink:href="utility_8hpp.html" target="_top" xlink:title=" ">
<polygon fill="white" stroke="black" points="1839.5,-112.5 1839.5,-131.5 1904.5,-131.5 1904.5,-112.5 1839.5,-112.5"/>
<text text-anchor="middle" x="1872" y="-119.5" font-family="Helvetica,sans-Serif" font-size="10.00">utility.hpp</text>
</a>
</g>
</g>
<!-- Node2&#45;&gt;Node28 -->
<g id="edge32" class="edge">
<title>Node2&#45;&gt;Node28</title>
<path fill="none" stroke="midnightblue" d="M977.18,-244.13C1135.81,-244.39 1751.25,-242.6 1825,-199 1846.56,-186.26 1859.61,-159.37 1866.32,-141.24"/>
<polygon fill="midnightblue" stroke="midnightblue" points="1869.72,-142.11 1869.62,-131.52 1863.09,-139.86 1869.72,-142.11"/>
</g>
<!-- Node24&#45;&gt;Node25 -->
<g id="edge24" class="edge">
<title>Node24&#45;&gt;Node25</title>
<path fill="none" stroke="midnightblue" d="M1748.09,-112.08C1755.16,-104.3 1765.59,-92.8 1774.15,-83.37"/>
<polygon fill="midnightblue" stroke="midnightblue" points="1776.93,-85.51 1781.06,-75.75 1771.75,-80.8 1776.93,-85.51"/>
</g>
<!-- Node24&#45;&gt;Node26 -->
<g id="edge27" class="edge">
<title>Node24&#45;&gt;Node26</title>
<path fill="none" stroke="midnightblue" d="M1738.12,-112.37C1734.24,-94.62 1725.31,-53.67 1720.06,-29.6"/>
<polygon fill="midnightblue" stroke="midnightblue" points="1723.43,-28.62 1717.87,-19.59 1716.59,-30.11 1723.43,-28.62"/>
</g>
<!-- Node25&#45;&gt;Node26 -->
<g id="edge25" class="edge">
<title>Node25&#45;&gt;Node26</title>
<path fill="none" stroke="midnightblue" d="M1777.27,-56.32C1766.16,-48.11 1749.26,-35.6 1736.02,-25.81"/>
<polygon fill="midnightblue" stroke="midnightblue" points="1738.06,-22.97 1727.94,-19.83 1733.9,-28.59 1738.06,-22.97"/>
</g>
<!-- Node26&#45;&gt;Node2 -->
<g id="edge26" class="edge">
<title>Node26&#45;&gt;Node2</title>
<path fill="none" stroke="midnightblue" d="M1718.7,-19.68C1720.76,-50.42 1704.68,-154.7 1641,-199 1587.92,-235.93 1136.55,-242.57 987.47,-243.75"/>
<polygon fill="midnightblue" stroke="midnightblue" points="987.24,-240.25 977.27,-243.82 987.29,-247.25 987.24,-240.25"/>
</g>
<!-- Node27&#45;&gt;Node24 -->
<g id="edge29" class="edge">
<title>Node27&#45;&gt;Node24</title>
<path fill="none" stroke="midnightblue" d="M1756.28,-173.98C1753.57,-165.49 1749.33,-152.2 1745.85,-141.32"/>
<polygon fill="midnightblue" stroke="midnightblue" points="1749.09,-139.97 1742.72,-131.51 1742.43,-142.1 1749.09,-139.97"/>
</g>
<!-- Node28&#45;&gt;Node26 -->
<g id="edge33" class="edge">
<title>Node28&#45;&gt;Node26</title>
<path fill="none" stroke="midnightblue" d="M1870.37,-112.13C1867.38,-98.26 1859.7,-71.43 1843,-56 1819.77,-34.54 1785.64,-23.19 1758.62,-17.26"/>
<polygon fill="midnightblue" stroke="midnightblue" points="1759.14,-13.8 1748.64,-15.25 1757.75,-20.66 1759.14,-13.8"/>
</g>
<!-- Node29&#45;&gt;Node2 -->
<g id="edge35" class="edge">
<title>Node29&#45;&gt;Node2</title>
<path fill="none" stroke="midnightblue" d="M635.81,-347.25C637.62,-333.04 643.35,-305.13 661,-291 695.88,-263.07 822.37,-252.11 892.45,-248.1"/>
<polygon fill="midnightblue" stroke="midnightblue" points="892.98,-251.58 902.78,-247.54 892.6,-244.59 892.98,-251.58"/>
</g>
<!-- Node30&#45;&gt;Node2 -->
<g id="edge56" class="edge">
<title>Node30&#45;&gt;Node2</title>
<path fill="none" stroke="midnightblue" d="M965.22,-633.12C1064.08,-624.93 1311,-597.34 1311,-526 1311,-526 1311,-526 1311,-356 1311,-325.9 1314.89,-310.55 1292,-291 1247.14,-252.69 1072.4,-246.51 987.22,-245.83"/>
<polygon fill="midnightblue" stroke="midnightblue" points="987.06,-242.33 977.04,-245.78 987.02,-249.33 987.06,-242.33"/>
</g>
<!-- Node31 -->
<g id="node31" class="node">
<title>Node31</title>
<g id="a_node31"><a xlink:href="linear__algebra_8hpp.html" target="_top" xlink:title=" ">
<polygon fill="white" stroke="black" points="759.5,-403.5 759.5,-422.5 906.5,-422.5 906.5,-403.5 759.5,-403.5"/>
<text text-anchor="middle" x="833" y="-410.5" font-family="Helvetica,sans-Serif" font-size="10.00">algebra/linear_algebra.hpp</text>
</a>
</g>
</g>
<!-- Node30&#45;&gt;Node31 -->
<g id="edge37" class="edge">
<title>Node30&#45;&gt;Node31</title>
<path fill="none" stroke="midnightblue" d="M884.82,-633.51C828.2,-627.45 728.72,-606.61 701,-535 680.98,-483.28 752.97,-444.88 798.45,-426.35"/>
<polygon fill="midnightblue" stroke="midnightblue" points="799.97,-429.52 807.99,-422.6 797.4,-423.01 799.97,-429.52"/>
</g>
<!-- Node34 -->
<g id="node34" class="node">
<title>Node34</title>
<g id="a_node34"><a xlink:href="biconnected_8hpp.html" target="_top" xlink:title=" ">
<polygon fill="white" stroke="black" points="1061.5,-515.5 1061.5,-534.5 1158.5,-534.5 1158.5,-515.5 1061.5,-515.5"/>
<text text-anchor="middle" x="1110" y="-522.5" font-family="Helvetica,sans-Serif" font-size="10.00">biconnected.hpp</text>
</a>
</g>
</g>
<!-- Node30&#45;&gt;Node34 -->
<g id="edge44" class="edge">
<title>Node30&#45;&gt;Node34</title>
<path fill="none" stroke="midnightblue" d="M939.52,-627.37C971.4,-608.41 1047.77,-563 1086.55,-539.94"/>
<polygon fill="midnightblue" stroke="midnightblue" points="1088.74,-542.71 1095.55,-534.59 1085.17,-536.69 1088.74,-542.71"/>
</g>
<!-- Node35 -->
<g id="node35" class="node">
<title>Node35</title>
<g id="a_node35"><a xlink:href="core_8hpp.html" target="_top" xlink:title=" ">
<polygon fill="white" stroke="black" points="879.5,-459.5 879.5,-478.5 968.5,-478.5 968.5,-459.5 879.5,-459.5"/>
<text text-anchor="middle" x="924" y="-466.5" font-family="Helvetica,sans-Serif" font-size="10.00">graph/core.hpp</text>
</a>
</g>
</g>
<!-- Node30&#45;&gt;Node35 -->
<g id="edge55" class="edge">
<title>Node30&#45;&gt;Node35</title>
<path fill="none" stroke="midnightblue" d="M924.95,-627.08C924.79,-600.95 924.33,-524.21 924.11,-488.58"/>
<polygon fill="midnightblue" stroke="midnightblue" points="927.61,-488.55 924.05,-478.57 920.61,-488.59 927.61,-488.55"/>
</g>
<!-- Node36 -->
<g id="node36" class="node">
<title>Node36</title>
<g id="a_node36"><a xlink:href="dsu_8hpp.html" target="_top" xlink:title=" ">
<polygon fill="white" stroke="black" points="1025.5,-403.5 1025.5,-422.5 1094.5,-422.5 1094.5,-403.5 1025.5,-403.5"/>
<text text-anchor="middle" x="1060" y="-410.5" font-family="Helvetica,sans-Serif" font-size="10.00">ds/dsu.hpp</text>
</a>
</g>
</g>
<!-- Node30&#45;&gt;Node36 -->
<g id="edge57" class="edge">
<title>Node30&#45;&gt;Node36</title>
<path fill="none" stroke="midnightblue" d="M965.25,-632.49C1021.5,-625.18 1121.82,-602.82 1167,-535 1178.18,-518.23 1169.14,-476.86 1155,-459 1142.32,-442.99 1122.58,-432.38 1104.37,-425.51"/>
<polygon fill="midnightblue" stroke="midnightblue" points="1105.34,-422.14 1094.75,-422.15 1103.04,-428.75 1105.34,-422.14"/>
</g>
<!-- Node38 -->
<g id="node38" class="node">
<title>Node38</title>
<g id="a_node38"><a xlink:href="bipartite_8hpp.html" target="_top" xlink:title=" ">
<polygon fill="white" stroke="black" points="710.5,-515.5 710.5,-534.5 789.5,-534.5 789.5,-515.5 710.5,-515.5"/>
<text text-anchor="middle" x="750" y="-522.5" font-family="Helvetica,sans-Serif" font-size="10.00">bipartite.hpp</text>
</a>
</g>
</g>
<!-- Node30&#45;&gt;Node38 -->
<g id="edge52" class="edge">
<title>Node30&#45;&gt;Node38</title>
<path fill="none" stroke="midnightblue" d="M884.73,-635.03C849.31,-632 798.74,-622.01 768,-591 756.03,-578.92 751.85,-559.64 750.47,-545.21"/>
<polygon fill="midnightblue" stroke="midnightblue" points="753.95,-544.68 749.87,-534.9 746.96,-545.09 753.95,-544.68"/>
</g>
<!-- Node39 -->
<g id="node39" class="node">
<title>Node39</title>
<g id="a_node39"><a xlink:href="flow_8hpp.html" target="_top" xlink:title=" ">
<polygon fill="white" stroke="black" points="822,-515.5 822,-534.5 880,-534.5 880,-515.5 822,-515.5"/>
<text text-anchor="middle" x="851" y="-522.5" font-family="Helvetica,sans-Serif" font-size="10.00">flow.hpp</text>
</a>
</g>
</g>
<!-- Node30&#45;&gt;Node39 -->
<g id="edge58" class="edge">
<title>Node30&#45;&gt;Node39</title>
<path fill="none" stroke="midnightblue" d="M919.19,-627.37C906.98,-609.22 878.45,-566.8 862.43,-542.99"/>
<polygon fill="midnightblue" stroke="midnightblue" points="865.27,-540.94 856.78,-534.59 859.46,-544.84 865.27,-540.94"/>
</g>
<!-- Node40 -->
<g id="node40" class="node">
<title>Node40</title>
<g id="a_node40"><a xlink:href="graph__view_8hpp.html" target="_top" xlink:title=" ">
<polygon fill="white" stroke="black" points="950.5,-515.5 950.5,-534.5 1043.5,-534.5 1043.5,-515.5 950.5,-515.5"/>
<text text-anchor="middle" x="997" y="-522.5" font-family="Helvetica,sans-Serif" font-size="10.00">graph_view.hpp</text>
</a>
</g>
</g>
<!-- Node30&#45;&gt;Node40 -->
<g id="edge62" class="edge">
<title>Node30&#45;&gt;Node40</title>
<path fill="none" stroke="midnightblue" d="M930.65,-627.37C942.53,-609.22 970.29,-566.8 985.88,-542.99"/>
<polygon fill="midnightblue" stroke="midnightblue" points="988.83,-544.88 991.38,-534.59 982.97,-541.04 988.83,-544.88"/>
</g>
<!-- Node41 -->
<g id="node41" class="node">
<title>Node41</title>
<g id="a_node41"><a xlink:href="test__flow_8hpp.html" target="_top" xlink:title=" ">
<polygon fill="white" stroke="black" points="777,-571.5 777,-590.5 859,-590.5 859,-571.5 777,-571.5"/>
<text text-anchor="middle" x="818" y="-578.5" font-family="Helvetica,sans-Serif" font-size="10.00">test_flow.hpp</text>
</a>
</g>
</g>
<!-- Node30&#45;&gt;Node41 -->
<g id="edge65" class="edge">
<title>Node30&#45;&gt;Node41</title>
<path fill="none" stroke="midnightblue" d="M907.81,-627.32C890.65,-618.66 864.05,-605.24 844.25,-595.25"/>
<polygon fill="midnightblue" stroke="midnightblue" points="845.65,-592.04 835.15,-590.65 842.5,-598.28 845.65,-592.04"/>
</g>
<!-- Node42 -->
<g id="node42" class="node">
<title>Node42</title>
<g id="a_node42"><a xlink:href="tree_8hpp.html" target="_top" xlink:title=" ">
<polygon fill="white" stroke="black" points="1203,-291.5 1203,-310.5 1283,-310.5 1283,-291.5 1203,-291.5"/>
<text text-anchor="middle" x="1243" y="-298.5" font-family="Helvetica,sans-Serif" font-size="10.00">tree/tree.hpp</text>
</a>
</g>
</g>
<!-- Node30&#45;&gt;Node42 -->
<g id="edge67" class="edge">
<title>Node30&#45;&gt;Node42</title>
<path fill="none" stroke="midnightblue" d="M965.3,-631.04C1052.52,-619.19 1251,-585.66 1251,-526 1251,-526 1251,-526 1251,-412 1251,-379.86 1247.56,-342.58 1245.19,-320.72"/>
<polygon fill="midnightblue" stroke="midnightblue" points="1248.64,-320.09 1244.05,-310.54 1241.69,-320.87 1248.64,-320.09"/>
</g>
<!-- Node31&#45;&gt;Node2 -->
<g id="edge38" class="edge">
<title>Node31&#45;&gt;Node2</title>
<path fill="none" stroke="midnightblue" d="M838.96,-403.39C845.22,-394.34 855.33,-379.69 864,-367 880.98,-342.17 885.96,-336.44 902,-311 912,-295.14 922.72,-276.65 930.22,-263.45"/>
<polygon fill="midnightblue" stroke="midnightblue" points="933.39,-264.95 935.26,-254.52 927.3,-261.51 933.39,-264.95"/>
</g>
<!-- Node32 -->
<g id="node32" class="node">
<title>Node32</title>
<g id="a_node32"><a xlink:href="modulo_8hpp.html" target="_top" xlink:title=" ">
<polygon fill="white" stroke="black" points="741,-291.5 741,-310.5 893,-310.5 893,-291.5 741,-291.5"/>
<text text-anchor="middle" x="817" y="-298.5" font-family="Helvetica,sans-Serif" font-size="10.00">number_theory/modulo.hpp</text>
</a>
</g>
</g>
<!-- Node31&#45;&gt;Node32 -->
<g id="edge39" class="edge">
<title>Node31&#45;&gt;Node32</title>
<path fill="none" stroke="midnightblue" d="M838.08,-403.48C844.87,-390.97 855.36,-366.93 849,-347 845.66,-336.54 838.9,-326.43 832.45,-318.45"/>
<polygon fill="midnightblue" stroke="midnightblue" points="834.94,-315.98 825.75,-310.71 829.65,-320.56 834.94,-315.98"/>
</g>
<!-- Node33 -->
<g id="node33" class="node">
<title>Node33</title>
<g id="a_node33"><a xlink:href="polynomial_8hpp.html" target="_top" xlink:title=" ">
<polygon fill="white" stroke="black" points="748,-347.5 748,-366.5 840,-366.5 840,-347.5 748,-347.5"/>
<text text-anchor="middle" x="794" y="-354.5" font-family="Helvetica,sans-Serif" font-size="10.00">polynomial.hpp</text>
</a>
</g>
</g>
<!-- Node31&#45;&gt;Node33 -->
<g id="edge41" class="edge">
<title>Node31&#45;&gt;Node33</title>
<path fill="none" stroke="midnightblue" d="M826.56,-403.08C821.05,-395.46 812.97,-384.26 806.24,-374.94"/>
<polygon fill="midnightblue" stroke="midnightblue" points="809.01,-372.81 800.32,-366.75 803.34,-376.91 809.01,-372.81"/>
</g>
<!-- Node32&#45;&gt;Node2 -->
<g id="edge40" class="edge">
<title>Node32&#45;&gt;Node2</title>
<path fill="none" stroke="midnightblue" d="M836.49,-291.44C856.64,-282.6 888.32,-268.69 911.33,-258.59"/>
<polygon fill="midnightblue" stroke="midnightblue" points="912.85,-261.74 920.6,-254.52 910.04,-255.33 912.85,-261.74"/>
</g>
<!-- Node33&#45;&gt;Node2 -->
<g id="edge42" class="edge">
<title>Node33&#45;&gt;Node2</title>
<path fill="none" stroke="midnightblue" d="M774.98,-347.39C750.94,-335.33 714.67,-312.48 732,-291 751.78,-266.48 837.49,-254.66 892.52,-249.5"/>
<polygon fill="midnightblue" stroke="midnightblue" points="893.11,-252.96 902.76,-248.59 892.48,-245.99 893.11,-252.96"/>
</g>
<!-- Node33&#45;&gt;Node32 -->
<g id="edge43" class="edge">
<title>Node33&#45;&gt;Node32</title>
<path fill="none" stroke="midnightblue" d="M797.8,-347.08C800.91,-339.77 805.42,-329.18 809.29,-320.1"/>
<polygon fill="midnightblue" stroke="midnightblue" points="812.57,-321.32 813.27,-310.75 806.13,-318.58 812.57,-321.32"/>
</g>
<!-- Node34&#45;&gt;Node2 -->
<g id="edge45" class="edge">
<title>Node34&#45;&gt;Node2</title>
<path fill="none" stroke="midnightblue" d="M1121.56,-515.2C1131.72,-506.9 1146.22,-493.58 1155,-479 1170.59,-453.11 1175,-444.23 1175,-414 1175,-414 1175,-414 1175,-356 1175,-273.95 1056.03,-252.97 987.39,-247.7"/>
<polygon fill="midnightblue" stroke="midnightblue" points="987.45,-244.19 977.24,-247 986.97,-251.18 987.45,-244.19"/>
</g>
<!-- Node34&#45;&gt;Node35 -->
<g id="edge46" class="edge">
<title>Node34&#45;&gt;Node35</title>
<path fill="none" stroke="midnightblue" d="M1080.53,-515.44C1048.83,-506.24 998.27,-491.56 963.23,-481.39"/>
<polygon fill="midnightblue" stroke="midnightblue" points="963.91,-477.94 953.33,-478.52 961.96,-484.67 963.91,-477.94"/>
</g>
<!-- Node37 -->
<g id="node37" class="node">
<title>Node37</title>
<g id="a_node37"><a xlink:href="test__biconnected_8hpp.html" target="_top" xlink:title=" ">
<polygon fill="white" stroke="black" points="1025.5,-459.5 1025.5,-478.5 1146.5,-478.5 1146.5,-459.5 1025.5,-459.5"/>
<text text-anchor="middle" x="1086" y="-466.5" font-family="Helvetica,sans-Serif" font-size="10.00">test_biconnected.hpp</text>
</a>
</g>
</g>
<!-- Node34&#45;&gt;Node37 -->
<g id="edge50" class="edge">
<title>Node34&#45;&gt;Node37</title>
<path fill="none" stroke="midnightblue" d="M1100.87,-515.08C1096.13,-507.85 1091.07,-497.41 1087.74,-488.4"/>
<polygon fill="midnightblue" stroke="midnightblue" points="1091.06,-487.27 1084.76,-478.75 1084.37,-489.34 1091.06,-487.27"/>
</g>
<!-- Node35&#45;&gt;Node31 -->
<g id="edge47" class="edge">
<title>Node35&#45;&gt;Node31</title>
<path fill="none" stroke="midnightblue" d="M909.38,-459.32C895.05,-450.82 872.99,-437.73 856.25,-427.8"/>
<polygon fill="midnightblue" stroke="midnightblue" points="857.97,-424.75 847.58,-422.65 854.4,-430.77 857.97,-424.75"/>
</g>
<!-- Node35&#45;&gt;Node36 -->
<g id="edge48" class="edge">
<title>Node35&#45;&gt;Node36</title>
<path fill="none" stroke="midnightblue" d="M945.55,-459.44C968.03,-450.52 1003.49,-436.44 1028.98,-426.32"/>
<polygon fill="midnightblue" stroke="midnightblue" points="1030.55,-429.46 1038.55,-422.52 1027.97,-422.95 1030.55,-429.46"/>
</g>
<!-- Node36&#45;&gt;Node2 -->
<g id="edge49" class="edge">
<title>Node36&#45;&gt;Node2</title>
<path fill="none" stroke="midnightblue" d="M1058.42,-403.45C1054.15,-382.26 1040.62,-326.5 1011,-291 999.73,-277.49 983.32,-266.72 969.12,-259.11"/>
<polygon fill="midnightblue" stroke="midnightblue" points="970.68,-255.98 960.18,-254.57 967.51,-262.22 970.68,-255.98"/>
</g>
<!-- Node37&#45;&gt;Node34 -->
<g id="edge51" class="edge">
<title>Node37&#45;&gt;Node34</title>
<path fill="none" stroke="midnightblue" d="M1095.02,-478.75C1099.76,-485.94 1104.83,-496.36 1108.18,-505.4"/>
<polygon fill="midnightblue" stroke="midnightblue" points="1104.89,-506.58 1111.2,-515.08 1111.57,-504.49 1104.89,-506.58"/>
</g>
<!-- Node38&#45;&gt;Node2 -->
<g id="edge53" class="edge">
<title>Node38&#45;&gt;Node2</title>
<path fill="none" stroke="midnightblue" d="M747.46,-515.39C736.53,-477.56 695.3,-326.29 724,-291 744.82,-265.4 835.44,-253.88 892.48,-249.08"/>
<polygon fill="midnightblue" stroke="midnightblue" points="893.03,-252.54 902.72,-248.26 892.47,-245.57 893.03,-252.54"/>
</g>
<!-- Node38&#45;&gt;Node35 -->
<g id="edge54" class="edge">
<title>Node38&#45;&gt;Node35</title>
<path fill="none" stroke="midnightblue" d="M777.57,-515.44C807.1,-506.28 854.12,-491.69 886.88,-481.52"/>
<polygon fill="midnightblue" stroke="midnightblue" points="888.04,-484.82 896.56,-478.52 885.97,-478.14 888.04,-484.82"/>
</g>
<!-- Node39&#45;&gt;Node2 -->
<g id="edge60" class="edge">
<title>Node39&#45;&gt;Node2</title>
<path fill="none" stroke="midnightblue" d="M851.86,-515.3C853.51,-502.13 858.09,-476.78 870,-459 884.25,-437.72 902.31,-445.25 915,-423 944.15,-371.87 943.83,-299.36 941.71,-265.21"/>
<polygon fill="midnightblue" stroke="midnightblue" points="945.17,-264.53 940.93,-254.82 938.19,-265.06 945.17,-264.53"/>
</g>
<!-- Node39&#45;&gt;Node31 -->
<g id="edge59" class="edge">
<title>Node39&#45;&gt;Node31</title>
<path fill="none" stroke="midnightblue" d="M847.57,-515.19C844.24,-506.24 839.36,-491.88 837,-479 834.19,-463.69 833.25,-446.05 832.97,-433.01"/>
<polygon fill="midnightblue" stroke="midnightblue" points="836.47,-432.88 832.88,-422.91 829.47,-432.95 836.47,-432.88"/>
</g>
<!-- Node39&#45;&gt;Node35 -->
<g id="edge61" class="edge">
<title>Node39&#45;&gt;Node35</title>
<path fill="none" stroke="midnightblue" d="M862.73,-515.32C873.84,-507.11 890.74,-494.6 903.98,-484.81"/>
<polygon fill="midnightblue" stroke="midnightblue" points="906.1,-487.59 912.06,-478.83 901.94,-481.97 906.1,-487.59"/>
</g>
<!-- Node40&#45;&gt;Node2 -->
<g id="edge63" class="edge">
<title>Node40&#45;&gt;Node2</title>
<path fill="none" stroke="midnightblue" d="M997,-515.44C997,-496.94 997,-451.81 997,-414 997,-414 997,-414 997,-356 997,-319.3 971.68,-282.66 954.79,-262.3"/>
<polygon fill="midnightblue" stroke="midnightblue" points="957.35,-259.9 948.17,-254.62 952.05,-264.48 957.35,-259.9"/>
</g>
<!-- Node40&#45;&gt;Node35 -->
<g id="edge64" class="edge">
<title>Node40&#45;&gt;Node35</title>
<path fill="none" stroke="midnightblue" d="M985.27,-515.32C974.16,-507.11 957.26,-494.6 944.02,-484.81"/>
<polygon fill="midnightblue" stroke="midnightblue" points="946.06,-481.97 935.94,-478.83 941.9,-487.59 946.06,-481.97"/>
</g>
<!-- Node41&#45;&gt;Node39 -->
<g id="edge66" class="edge">
<title>Node41&#45;&gt;Node39</title>
<path fill="none" stroke="midnightblue" d="M823.45,-571.08C828.01,-563.61 834.67,-552.72 840.29,-543.52"/>
<polygon fill="midnightblue" stroke="midnightblue" points="843.42,-545.11 845.65,-534.75 837.45,-541.46 843.42,-545.11"/>
</g>
<!-- Node42&#45;&gt;Node2 -->
<g id="edge68" class="edge">
<title>Node42&#45;&gt;Node2</title>
<path fill="none" stroke="midnightblue" d="M1202.76,-292.83C1147.03,-282.9 1046.52,-264.98 987.28,-254.43"/>
<polygon fill="midnightblue" stroke="midnightblue" points="987.53,-250.92 977.07,-252.61 986.3,-257.81 987.53,-250.92"/>
</g>
</g>
</svg>
        <g id="navigator" transform="translate(0 0)" fill="#404254">
                <rect fill="#f2f5e9" fill-opacity="0.5" stroke="#606060" stroke-width=".5" x="0" y="0" width="60" height="60"/>
                <use id="zoomplus" xlink:href="#zoomPlus" x="17" y="9" onmousedown="handleZoom(evt,'in')"/>
                <use id="zoomminus" xlink:href="#zoomMin" x="42" y="9" onmousedown="handleZoom(evt,'out')"/>
                <use id="reset" xlink:href="#resetDef" x="30" y="36" onmousedown="handleReset()"/>
                <g id="arrowUp" xlink:href="#dirArrow" transform="translate(30 24)" onmousedown="handlePan(0,-1)">
                  <use xlink:href="#rim" fill="#404040">
                        <set attributeName="fill" to="#808080" begin="arrowUp.mouseover" end="arrowUp.mouseout"/>
                  </use>
                  <path fill="none" stroke="white" stroke-width="1.5" d="M0,-3.0v7 M-2.5,-0.5L0,-3.0L2.5,-0.5"/>
                </g>
                <g id="arrowRight" xlink:href="#dirArrow" transform="rotate(90) translate(36 -43)" onmousedown="handlePan(1,0)">
                  <use xlink:href="#rim" fill="#404040">
                        <set attributeName="fill" to="#808080" begin="arrowRight.mouseover" end="arrowRight.mouseout"/>
                  </use>
                  <path fill="none" stroke="white" stroke-width="1.5" d="M0,-3.0v7 M-2.5,-0.5L0,-3.0L2.5,-0.5"/>
                </g>
                <g id="arrowDown" xlink:href="#dirArrow" transform="rotate(180) translate(-30 -48)" onmousedown="handlePan(0,1)">
                  <use xlink:href="#rim" fill="#404040">
                        <set attributeName="fill" to="#808080" begin="arrowDown.mouseover" end="arrowDown.mouseout"/>
                  </use>
                  <path fill="none" stroke="white" stroke-width="1.5" d="M0,-3.0v7 M-2.5,-0.5L0,-3.0L2.5,-0.5"/>
                </g>
                <g id="arrowLeft" xlink:href="#dirArrow" transform="rotate(270) translate(-36 17)" onmousedown="handlePan(-1,0)">
                  <use xlink:href="#rim" fill="#404040">
                        <set attributeName="fill" to="#808080" begin="arrowLeft.mouseover" end="arrowLeft.mouseout"/>
                  </use>
                  <path fill="none" stroke="white" stroke-width="1.5" d="M0,-3.0v7 M-2.5,-0.5L0,-3.0L2.5,-0.5"/>
                </g>
        </g>
        <svg viewBox="0 0 15 15" width="100%" height="30px" preserveAspectRatio="xMaxYMin meet">
         <g id="arrow_out" transform="scale(0.3 0.3)">
          <a xlink:href="hld_8hpp__incl_org.svg" target="_base">
           <rect id="button" ry="5" rx="5" y="6" x="6" height="38" width="38"
                fill="#f2f5e9" fill-opacity="0.5" stroke="#606060" stroke-width="1.0"/>
           <path id="arrow"
             d="M 11.500037,31.436501 C 11.940474,20.09759 22.043105,11.32322 32.158766,21.979434 L 37.068811,17.246167 C 37.068811,17.246167 37.088388,32 37.088388,32 L 22.160133,31.978069 C 22.160133,31.978069 26.997745,27.140456 26.997745,27.140456 C 18.528582,18.264221 13.291696,25.230495 11.500037,31.436501 z"
             style="fill:#404040;"/>
          </a>
         </g>
        </svg>
</svg>
