<?xml version="1.0" encoding="UTF-8" standalone="no"?>
<!DOCTYPE svg PUBLIC "-//W3C//DTD SVG 1.1//EN"
 "http://www.w3.org/Graphics/SVG/1.1/DTD/svg11.dtd">
<!-- Generated by graphviz version 2.43.0 (0)
 -->
<!-- Title: Graphical Class Hierarchy Pages: 1 -->
<svg width="321pt" height="78pt"
 viewBox="0.00 0.00 321.00 77.50" xmlns="http://www.w3.org/2000/svg" xmlns:xlink="http://www.w3.org/1999/xlink">
<g id="graph0" class="graph" transform="scale(1 1) rotate(0) translate(4 73.5)">
<title>Graphical Class Hierarchy</title>
<polygon fill="white" stroke="transparent" points="-4,4 -4,-73.5 317,-73.5 317,4 -4,4"/>
<!-- Node12 -->
<g id="node1" class="node">
<title>Node12</title>
<g id="a_node1"><a xlink:title=" ">
<polygon fill="white" stroke="#bfbfbf" points="0,-28 0,-47 122,-47 122,-28 0,-28"/>
<text text-anchor="middle" x="61" y="-35" font-family="Helvetica,sans-Serif" font-size="10.00">stack&lt; pair&lt; T, T &gt;&gt;</text>
</a>
</g>
</g>
<!-- Node0 -->
<g id="node2" class="node">
<title>Node0</title>
<g id="a_node2"><a xlink:href="classqueue__tools_1_1MinStack.html" target="_top" xlink:title=" ">
<polygon fill="white" stroke="black" points="158,-50 158,-69 313,-69 313,-50 158,-50"/>
<text text-anchor="middle" x="235.5" y="-57" font-family="Helvetica,sans-Serif" font-size="10.00">queue_tools::MinStack&lt; T &gt;</text>
</a>
</g>
</g>
<!-- Node12&#45;&gt;Node0 -->
<g id="edge1" class="edge">
<title>Node12&#45;&gt;Node0</title>
<path fill="none" stroke="midnightblue" d="M132.44,-46.48C141.51,-47.64 150.81,-48.83 159.94,-49.99"/>
<polygon fill="midnightblue" stroke="midnightblue" points="132.69,-42.99 122.33,-45.19 131.81,-49.93 132.69,-42.99"/>
</g>
<!-- Node14 -->
<g id="node3" class="node">
<title>Node14</title>
<g id="a_node3"><a xlink:href="classqueue__tools_1_1MinStack.html" target="_top" xlink:title=" ">
<polygon fill="white" stroke="black" points="172,-0.5 172,-30.5 299,-30.5 299,-0.5 172,-0.5"/>
<text text-anchor="start" x="180" y="-18.5" font-family="Helvetica,sans-Serif" font-size="10.00">queue_tools::MinStack</text>
<text text-anchor="middle" x="235.5" y="-7.5" font-family="Helvetica,sans-Serif" font-size="10.00">&lt; T, Base &gt;</text>
</a>
</g>
</g>
<!-- Node12&#45;&gt;Node14 -->
<g id="edge2" class="edge">
<title>Node12&#45;&gt;Node14</title>
<path fill="none" stroke="midnightblue" d="M132.63,-28.49C145.63,-26.83 159.12,-25.11 171.86,-23.49"/>
<polygon fill="midnightblue" stroke="midnightblue" points="131.81,-25.07 122.33,-29.81 132.69,-32.01 131.81,-25.07"/>
</g>
</g>
</svg>
