<?xml version="1.0" encoding="UTF-8" standalone="no"?>
<!DOCTYPE svg PUBLIC "-//W3C//DTD SVG 1.1//EN"
 "http://www.w3.org/Graphics/SVG/1.1/DTD/svg11.dtd">
<!-- Generated by graphviz version 2.43.0 (0)
 -->
<!-- Title: Graphical Class Hierarchy Pages: 1 -->
<svg width="318pt" height="66pt"
 viewBox="0.00 0.00 318.00 66.00" xmlns="http://www.w3.org/2000/svg" xmlns:xlink="http://www.w3.org/1999/xlink">
<g id="graph0" class="graph" transform="scale(1 1) rotate(0) translate(4 62)">
<title>Graphical Class Hierarchy</title>
<polygon fill="white" stroke="transparent" points="-4,4 -4,-62 314,-62 314,4 -4,4"/>
<!-- Node4 -->
<g id="node1" class="node">
<title>Node4</title>
<g id="a_node1"><a xlink:title="STL class.">
<polygon fill="white" stroke="#bfbfbf" points="0,-19.5 0,-38.5 97,-38.5 97,-19.5 0,-19.5"/>
<text text-anchor="middle" x="48.5" y="-26.5" font-family="Helvetica,sans-Serif" font-size="10.00">std::vector&lt; T &gt;</text>
</a>
</g>
</g>
<!-- Node0 -->
<g id="node2" class="node">
<title>Node0</title>
<g id="a_node2"><a xlink:href="classpermutation_1_1Permutation.html" target="_top" xlink:title="Permutation class.">
<polygon fill="white" stroke="black" points="150,-38.5 150,-57.5 293,-57.5 293,-38.5 150,-38.5"/>
<text text-anchor="middle" x="221.5" y="-45.5" font-family="Helvetica,sans-Serif" font-size="10.00">permutation::Permutation</text>
</a>
</g>
</g>
<!-- Node4&#45;&gt;Node0 -->
<g id="edge1" class="edge">
<title>Node4&#45;&gt;Node0</title>
<path fill="none" stroke="midnightblue" d="M107.33,-35.43C120.96,-36.94 135.65,-38.57 149.78,-40.14"/>
<polygon fill="midnightblue" stroke="midnightblue" points="107.46,-31.92 97.13,-34.29 106.69,-38.88 107.46,-31.92"/>
</g>
<!-- Node6 -->
<g id="node3" class="node">
<title>Node6</title>
<g id="a_node3"><a xlink:href="classpolynomial__ns_1_1Polynomial.html" target="_top" xlink:title=" ">
<polygon fill="white" stroke="black" points="133,-0.5 133,-19.5 310,-19.5 310,-0.5 133,-0.5"/>
<text text-anchor="middle" x="221.5" y="-7.5" font-family="Helvetica,sans-Serif" font-size="10.00">polynomial_ns::Polynomial&lt; T &gt;</text>
</a>
</g>
</g>
<!-- Node4&#45;&gt;Node6 -->
<g id="edge2" class="edge">
<title>Node4&#45;&gt;Node6</title>
<path fill="none" stroke="midnightblue" d="M107.31,-22.58C116.18,-21.59 125.5,-20.56 134.81,-19.52"/>
<polygon fill="midnightblue" stroke="midnightblue" points="106.69,-19.12 97.13,-23.71 107.46,-26.08 106.69,-19.12"/>
</g>
</g>
</svg>
