<?xml version="1.0" encoding="UTF-8" standalone="no"?>
<!DOCTYPE svg PUBLIC "-//W3C//DTD SVG 1.1//EN"
 "http://www.w3.org/Graphics/SVG/1.1/DTD/svg11.dtd">
<!-- Generated by graphviz version 2.43.0 (0)
 -->
<!-- Title: Graphical Class Hierarchy Pages: 1 -->
<svg width="270pt" height="66pt"
 viewBox="0.00 0.00 270.00 66.00" xmlns="http://www.w3.org/2000/svg" xmlns:xlink="http://www.w3.org/1999/xlink">
<g id="graph0" class="graph" transform="scale(1 1) rotate(0) translate(4 62)">
<title>Graphical Class Hierarchy</title>
<polygon fill="white" stroke="transparent" points="-4,4 -4,-62 266,-62 266,4 -4,4"/>
<!-- Node0 -->
<g id="node1" class="node">
<title>Node0</title>
<g id="a_node1"><a xlink:href="structgraph__theory_1_1gsearch.html" target="_top" xlink:title=" ">
<polygon fill="white" stroke="black" points="0,-19.5 0,-38.5 125,-38.5 125,-19.5 0,-19.5"/>
<text text-anchor="middle" x="62.5" y="-26.5" font-family="Helvetica,sans-Serif" font-size="10.00">graph_theory::gsearch</text>
</a>
</g>
</g>
<!-- Node1 -->
<g id="node2" class="node">
<title>Node1</title>
<g id="a_node2"><a xlink:href="structgraph__theory_1_1bfs.html" target="_top" xlink:title=" ">
<polygon fill="white" stroke="black" points="161,-38.5 161,-57.5 262,-57.5 262,-38.5 161,-38.5"/>
<text text-anchor="middle" x="211.5" y="-45.5" font-family="Helvetica,sans-Serif" font-size="10.00">graph_theory::bfs</text>
</a>
</g>
</g>
<!-- Node0&#45;&gt;Node1 -->
<g id="edge1" class="edge">
<title>Node0&#45;&gt;Node1</title>
<path fill="none" stroke="midnightblue" d="M135.41,-38.3C143.97,-39.4 152.55,-40.51 160.7,-41.56"/>
<polygon fill="midnightblue" stroke="midnightblue" points="135.78,-34.81 125.42,-37 134.88,-41.76 135.78,-34.81"/>
</g>
<!-- Node2 -->
<g id="node3" class="node">
<title>Node2</title>
<g id="a_node3"><a xlink:href="structgraph__theory_1_1dfs.html" target="_top" xlink:title=" ">
<polygon fill="white" stroke="black" points="161,-0.5 161,-19.5 262,-19.5 262,-0.5 161,-0.5"/>
<text text-anchor="middle" x="211.5" y="-7.5" font-family="Helvetica,sans-Serif" font-size="10.00">graph_theory::dfs</text>
</a>
</g>
</g>
<!-- Node0&#45;&gt;Node2 -->
<g id="edge2" class="edge">
<title>Node0&#45;&gt;Node2</title>
<path fill="none" stroke="midnightblue" d="M135.41,-19.7C143.97,-18.6 152.55,-17.49 160.7,-16.44"/>
<polygon fill="midnightblue" stroke="midnightblue" points="134.88,-16.24 125.42,-21 135.78,-23.19 134.88,-16.24"/>
</g>
</g>
</svg>
