<?xml version="1.0" encoding="UTF-8" standalone="no"?>
<!DOCTYPE svg PUBLIC "-//W3C//DTD SVG 1.1//EN"
 "http://www.w3.org/Graphics/SVG/1.1/DTD/svg11.dtd">
<!-- Generated by graphviz version 2.43.0 (0)
 -->
<!-- Title: Graphical Class Hierarchy Pages: 1 -->
<svg width="432pt" height="61pt"
 viewBox="0.00 0.00 432.00 61.00" xmlns="http://www.w3.org/2000/svg" xmlns:xlink="http://www.w3.org/1999/xlink">
<g id="graph0" class="graph" transform="scale(1 1) rotate(0) translate(4 57)">
<title>Graphical Class Hierarchy</title>
<polygon fill="white" stroke="transparent" points="-4,4 -4,-57 428,-57 428,4 -4,4"/>
<!-- Node69 -->
<g id="node1" class="node">
<title>Node69</title>
<g id="a_node1"><a xlink:title=" ">
<polygon fill="white" stroke="#bfbfbf" points="0,-17 0,-36 80,-36 80,-17 0,-17"/>
<text text-anchor="middle" x="40" y="-24" font-family="Helvetica,sans-Serif" font-size="10.00">conditional_t</text>
</a>
</g>
</g>
<!-- Node0 -->
<g id="node2" class="node">
<title>Node0</title>
<g id="a_node2"><a xlink:href="structSegmentTree_1_1NodeCore.html" target="_top" xlink:title=" ">
<polygon fill="white" stroke="black" points="116,-0.5 116,-52.5 252,-52.5 252,-0.5 116,-0.5"/>
<text text-anchor="start" x="124" y="-40.5" font-family="Helvetica,sans-Serif" font-size="10.00">SegmentTree&lt; T, Query,</text>
<text text-anchor="start" x="124" y="-29.5" font-family="Helvetica,sans-Serif" font-size="10.00"> Update, has_lazy, has</text>
<text text-anchor="start" x="124" y="-18.5" font-family="Helvetica,sans-Serif" font-size="10.00">_ptr, has_pers, base &gt;</text>
<text text-anchor="middle" x="184" y="-7.5" font-family="Helvetica,sans-Serif" font-size="10.00">::NodeCore</text>
</a>
</g>
</g>
<!-- Node69&#45;&gt;Node0 -->
<g id="edge1" class="edge">
<title>Node69&#45;&gt;Node0</title>
<path fill="none" stroke="midnightblue" d="M90.35,-26.5C98.6,-26.5 107.28,-26.5 115.88,-26.5"/>
<polygon fill="midnightblue" stroke="midnightblue" points="90.18,-23 80.18,-26.5 90.18,-30 90.18,-23"/>
</g>
<!-- Node1 -->
<g id="node3" class="node">
<title>Node1</title>
<g id="a_node3"><a xlink:href="structSegmentTree_1_1NodeExp.html" target="_top" xlink:title=" ">
<polygon fill="white" stroke="black" points="288,-0.5 288,-52.5 424,-52.5 424,-0.5 288,-0.5"/>
<text text-anchor="start" x="296" y="-40.5" font-family="Helvetica,sans-Serif" font-size="10.00">SegmentTree&lt; T, Query,</text>
<text text-anchor="start" x="296" y="-29.5" font-family="Helvetica,sans-Serif" font-size="10.00"> Update, has_lazy, has</text>
<text text-anchor="start" x="296" y="-18.5" font-family="Helvetica,sans-Serif" font-size="10.00">_ptr, has_pers, base &gt;</text>
<text text-anchor="middle" x="356" y="-7.5" font-family="Helvetica,sans-Serif" font-size="10.00">::NodeExp</text>
</a>
</g>
</g>
<!-- Node0&#45;&gt;Node1 -->
<g id="edge2" class="edge">
<title>Node0&#45;&gt;Node1</title>
<path fill="none" stroke="midnightblue" d="M262.42,-26.5C270.88,-26.5 279.43,-26.5 287.74,-26.5"/>
<polygon fill="midnightblue" stroke="midnightblue" points="262.19,-23 252.19,-26.5 262.19,-30 262.19,-23"/>
</g>
</g>
</svg>
