<?xml version="1.0" encoding="UTF-8" standalone="no"?>
<!DOCTYPE svg PUBLIC "-//W3C//DTD SVG 1.1//EN"
 "http://www.w3.org/Graphics/SVG/1.1/DTD/svg11.dtd">
<!-- Generated by graphviz version 2.43.0 (0)
 -->
<!-- Title: /home/ram/OmniTemplate/io.hpp Pages: 1 -->
<svg width="787pt" height="218pt"
 viewBox="0.00 0.00 787.00 218.00" xmlns="http://www.w3.org/2000/svg" xmlns:xlink="http://www.w3.org/1999/xlink">
<g id="graph0" class="graph" transform="scale(1 1) rotate(0) translate(4 214)">
<title>/home/ram/OmniTemplate/io.hpp</title>
<polygon fill="white" stroke="transparent" points="-4,4 -4,-214 783,-214 783,4 -4,4"/>
<!-- Node1 -->
<g id="node1" class="node">
<title>Node1</title>
<g id="a_node1"><a xlink:title=" ">
<polygon fill="#bfbfbf" stroke="black" points="436.5,-179.5 436.5,-209.5 580.5,-209.5 580.5,-179.5 436.5,-179.5"/>
<text text-anchor="start" x="444.5" y="-197.5" font-family="Helvetica,sans-Serif" font-size="10.00">/home/ram/OmniTemplate</text>
<text text-anchor="middle" x="508.5" y="-186.5" font-family="Helvetica,sans-Serif" font-size="10.00">/io.hpp</text>
</a>
</g>
</g>
<!-- Node2 -->
<g id="node2" class="node">
<title>Node2</title>
<g id="a_node2"><a xlink:href="core_8hpp.html" target="_top" xlink:title=" ">
<polygon fill="white" stroke="black" points="479,-123.5 479,-142.5 538,-142.5 538,-123.5 479,-123.5"/>
<text text-anchor="middle" x="508.5" y="-130.5" font-family="Helvetica,sans-Serif" font-size="10.00">core.hpp</text>
</a>
</g>
</g>
<!-- Node1&#45;&gt;Node2 -->
<g id="edge1" class="edge">
<title>Node1&#45;&gt;Node2</title>
<path fill="none" stroke="midnightblue" d="M502.66,-179.4C501.63,-171.38 501.47,-161.23 502.19,-152.57"/>
<polygon fill="midnightblue" stroke="midnightblue" points="505.66,-153.04 503.57,-142.66 498.73,-152.08 505.66,-153.04"/>
</g>
<!-- Node2&#45;&gt;Node1 -->
<g id="edge7" class="edge">
<title>Node2&#45;&gt;Node1</title>
<path fill="none" stroke="midnightblue" d="M513.43,-142.66C514.93,-149.65 515.51,-159.86 515.14,-169.29"/>
<polygon fill="midnightblue" stroke="midnightblue" points="511.64,-169.15 514.34,-179.4 518.62,-169.71 511.64,-169.15"/>
</g>
<!-- Node3 -->
<g id="node3" class="node">
<title>Node3</title>
<g id="a_node3"><a xlink:title=" ">
<polygon fill="white" stroke="#bfbfbf" points="0,-62 0,-81 83,-81 83,-62 0,-62"/>
<text text-anchor="middle" x="41.5" y="-69" font-family="Helvetica,sans-Serif" font-size="10.00">bits/stdc++.h</text>
</a>
</g>
</g>
<!-- Node2&#45;&gt;Node3 -->
<g id="edge2" class="edge">
<title>Node2&#45;&gt;Node3</title>
<path fill="none" stroke="midnightblue" d="M478.99,-130.53C410.53,-126.74 235.82,-114.92 92.5,-87 87.78,-86.08 82.86,-84.93 78.02,-83.69"/>
<polygon fill="midnightblue" stroke="midnightblue" points="78.86,-80.29 68.29,-81.04 77.02,-87.04 78.86,-80.29"/>
</g>
<!-- Node4 -->
<g id="node4" class="node">
<title>Node4</title>
<g id="a_node4"><a xlink:title=" ">
<polygon fill="white" stroke="#bfbfbf" points="101,-62 101,-81 222,-81 222,-62 101,-62"/>
<text text-anchor="middle" x="161.5" y="-69" font-family="Helvetica,sans-Serif" font-size="10.00">experimental/iterator</text>
</a>
</g>
</g>
<!-- Node2&#45;&gt;Node4 -->
<g id="edge3" class="edge">
<title>Node2&#45;&gt;Node4</title>
<path fill="none" stroke="midnightblue" d="M478.91,-127.62C428.17,-120.02 321.33,-103.59 231.5,-87 224.86,-85.77 217.88,-84.41 211,-83.03"/>
<polygon fill="midnightblue" stroke="midnightblue" points="211.55,-79.57 201.05,-81 210.15,-86.43 211.55,-79.57"/>
</g>
<!-- Node5 -->
<g id="node5" class="node">
<title>Node5</title>
<g id="a_node5"><a xlink:title=" ">
<polygon fill="white" stroke="#bfbfbf" points="240,-56.5 240,-86.5 357,-86.5 357,-56.5 240,-56.5"/>
<text text-anchor="start" x="248" y="-74.5" font-family="Helvetica,sans-Serif" font-size="10.00">experimental/source</text>
<text text-anchor="middle" x="298.5" y="-63.5" font-family="Helvetica,sans-Serif" font-size="10.00">_location</text>
</a>
</g>
</g>
<!-- Node2&#45;&gt;Node5 -->
<g id="edge4" class="edge">
<title>Node2&#45;&gt;Node5</title>
<path fill="none" stroke="midnightblue" d="M478.86,-123.6C447.59,-114.74 397.48,-100.54 358,-89.36"/>
<polygon fill="midnightblue" stroke="midnightblue" points="358.79,-85.94 348.21,-86.59 356.88,-92.68 358.79,-85.94"/>
</g>
<!-- Node6 -->
<g id="node6" class="node">
<title>Node6</title>
<g id="a_node6"><a xlink:href="my__int_8hpp.html" target="_top" xlink:title=" ">
<polygon fill="white" stroke="black" points="375,-62 375,-81 446,-81 446,-62 375,-62"/>
<text text-anchor="middle" x="410.5" y="-69" font-family="Helvetica,sans-Serif" font-size="10.00">my_int.hpp</text>
</a>
</g>
</g>
<!-- Node2&#45;&gt;Node6 -->
<g id="edge5" class="edge">
<title>Node2&#45;&gt;Node6</title>
<path fill="none" stroke="midnightblue" d="M489.56,-123.48C471.76,-113.93 445.7,-98.31 428.29,-86.87"/>
<polygon fill="midnightblue" stroke="midnightblue" points="429.86,-83.71 419.62,-81.01 425.95,-89.51 429.86,-83.71"/>
</g>
<!-- Node7 -->
<g id="node7" class="node">
<title>Node7</title>
<g id="a_node7"><a xlink:href="operations_8hpp.html" target="_top" xlink:title=" ">
<polygon fill="white" stroke="black" points="464,-62 464,-81 553,-81 553,-62 464,-62"/>
<text text-anchor="middle" x="508.5" y="-69" font-family="Helvetica,sans-Serif" font-size="10.00">operations.hpp</text>
</a>
</g>
</g>
<!-- Node2&#45;&gt;Node7 -->
<g id="edge8" class="edge">
<title>Node2&#45;&gt;Node7</title>
<path fill="none" stroke="midnightblue" d="M508.5,-123.48C508.5,-115.08 508.5,-101.98 508.5,-91.16"/>
<polygon fill="midnightblue" stroke="midnightblue" points="512,-91.01 508.5,-81.01 505,-91.01 512,-91.01"/>
</g>
<!-- Node8 -->
<g id="node8" class="node">
<title>Node8</title>
<g id="a_node8"><a xlink:href="range_8hpp.html" target="_top" xlink:title=" ">
<polygon fill="white" stroke="black" points="558,-0.5 558,-19.5 623,-19.5 623,-0.5 558,-0.5"/>
<text text-anchor="middle" x="590.5" y="-7.5" font-family="Helvetica,sans-Serif" font-size="10.00">range.hpp</text>
</a>
</g>
</g>
<!-- Node2&#45;&gt;Node8 -->
<g id="edge11" class="edge">
<title>Node2&#45;&gt;Node8</title>
<path fill="none" stroke="midnightblue" d="M515.58,-123.26C525.77,-115.18 542.81,-102.16 553.5,-87 566,-69.28 573.6,-45.33 579.64,-29.09"/>
<polygon fill="midnightblue" stroke="midnightblue" points="582.94,-30.25 583.41,-19.67 576.44,-27.65 582.94,-30.25"/>
</g>
<!-- Node9 -->
<g id="node9" class="node">
<title>Node9</title>
<g id="a_node9"><a xlink:href="debug_8hpp.html" target="_top" xlink:title=" ">
<polygon fill="white" stroke="black" points="627.5,-62 627.5,-81 695.5,-81 695.5,-62 627.5,-62"/>
<text text-anchor="middle" x="661.5" y="-69" font-family="Helvetica,sans-Serif" font-size="10.00">debug.hpp</text>
</a>
</g>
</g>
<!-- Node2&#45;&gt;Node9 -->
<g id="edge12" class="edge">
<title>Node2&#45;&gt;Node9</title>
<path fill="none" stroke="midnightblue" d="M530.42,-123.48C556.55,-113.31 600.41,-96.26 630.13,-84.7"/>
<polygon fill="midnightblue" stroke="midnightblue" points="631.57,-87.9 639.62,-81.01 629.03,-81.37 631.57,-87.9"/>
</g>
<!-- Node10 -->
<g id="node10" class="node">
<title>Node10</title>
<g id="a_node10"><a xlink:href="utility_8hpp.html" target="_top" xlink:title=" ">
<polygon fill="white" stroke="black" points="714,-62 714,-81 779,-81 779,-62 714,-62"/>
<text text-anchor="middle" x="746.5" y="-69" font-family="Helvetica,sans-Serif" font-size="10.00">utility.hpp</text>
</a>
</g>
</g>
<!-- Node2&#45;&gt;Node10 -->
<g id="edge13" class="edge">
<title>Node2&#45;&gt;Node10</title>
<path fill="none" stroke="midnightblue" d="M538.29,-124.85C575.5,-116.8 640.46,-102.77 695.5,-87 698.54,-86.13 701.68,-85.16 704.86,-84.16"/>
<polygon fill="midnightblue" stroke="midnightblue" points="705.95,-87.48 714.39,-81.08 703.8,-80.82 705.95,-87.48"/>
</g>
<!-- Node6&#45;&gt;Node2 -->
<g id="edge6" class="edge">
<title>Node6&#45;&gt;Node2</title>
<path fill="none" stroke="midnightblue" d="M429.41,-81.01C447.2,-90.55 473.26,-106.17 490.68,-117.61"/>
<polygon fill="midnightblue" stroke="midnightblue" points="489.11,-120.78 499.36,-123.48 493.03,-114.98 489.11,-120.78"/>
</g>
<!-- Node7&#45;&gt;Node8 -->
<g id="edge9" class="edge">
<title>Node7&#45;&gt;Node8</title>
<path fill="none" stroke="midnightblue" d="M520.25,-61.98C533.28,-52.52 554.54,-37.1 570.26,-25.69"/>
<polygon fill="midnightblue" stroke="midnightblue" points="572.73,-28.21 578.77,-19.51 568.62,-22.55 572.73,-28.21"/>
</g>
<!-- Node8&#45;&gt;Node2 -->
<g id="edge10" class="edge">
<title>Node8&#45;&gt;Node2</title>
<path fill="none" stroke="midnightblue" d="M594.28,-19.67C594.7,-34.54 586.74,-65.4 571.5,-87 562.84,-99.28 550.02,-110.15 538.04,-118.14"/>
<polygon fill="midnightblue" stroke="midnightblue" points="536.19,-115.17 529.54,-123.42 539.88,-121.11 536.19,-115.17"/>
</g>
<!-- Node10&#45;&gt;Node2 -->
<g id="edge14" class="edge">
<title>Node10&#45;&gt;Node2</title>
<path fill="none" stroke="midnightblue" d="M731.8,-81.08C726.08,-83.14 719.58,-85.26 713.5,-87 657.03,-103.18 590.13,-117.53 548.35,-125.47"/>
<polygon fill="midnightblue" stroke="midnightblue" points="547.47,-122.07 538.28,-127.34 548.76,-128.95 547.47,-122.07"/>
</g>
</g>
</svg>
