<?xml version="1.0" encoding="UTF-8" standalone="no"?>
<!DOCTYPE svg PUBLIC "-//W3C//DTD SVG 1.1//EN"
 "http://www.w3.org/Graphics/SVG/1.1/DTD/svg11.dtd">
<!-- Generated by graphviz version 2.43.0 (0)
 -->
<!-- Title: std::operator&lt;&lt; Pages: 1 -->
<svg width="311pt" height="66pt"
 viewBox="0.00 0.00 311.00 66.00" xmlns="http://www.w3.org/2000/svg" xmlns:xlink="http://www.w3.org/1999/xlink">
<g id="graph0" class="graph" transform="scale(1 1) rotate(0) translate(4 62)">
<title>std::operator&lt;&lt;</title>
<polygon fill="white" stroke="transparent" points="-4,4 -4,-62 307,-62 307,4 -4,4"/>
<!-- Node1 -->
<g id="node1" class="node">
<title>Node1</title>
<g id="a_node1"><a xlink:title=" ">
<polygon fill="#bfbfbf" stroke="black" points="0,-19.5 0,-38.5 95,-38.5 95,-19.5 0,-19.5"/>
<text text-anchor="middle" x="47.5" y="-26.5" font-family="Helvetica,sans-Serif" font-size="10.00">std::operator&lt;&lt;</text>
</a>
</g>
</g>
<!-- Node2 -->
<g id="node2" class="node">
<title>Node2</title>
<g id="a_node2"><a xlink:href="debug_8hpp.html#aa310d6d6fd9f39ae8d81d5513865c0ec" target="_top" xlink:title=" ">
<polygon fill="white" stroke="black" points="131,-19.5 131,-38.5 196,-38.5 196,-19.5 131,-19.5"/>
<text text-anchor="middle" x="163.5" y="-26.5" font-family="Helvetica,sans-Serif" font-size="10.00">simple_tp</text>
</a>
</g>
</g>
<!-- Node1&#45;&gt;Node2 -->
<g id="edge1" class="edge">
<title>Node1&#45;&gt;Node2</title>
<path fill="none" stroke="midnightblue" d="M95.2,-29C103.58,-29 112.28,-29 120.52,-29"/>
<polygon fill="midnightblue" stroke="midnightblue" points="120.67,-32.5 130.67,-29 120.67,-25.5 120.67,-32.5"/>
</g>
<!-- Node3 -->
<g id="node3" class="node">
<title>Node3</title>
<g id="a_node3"><a xlink:href="debug_8hpp.html#a92c8e980174e4094a7a8a3cf8343a02b" target="_top" xlink:title=" ">
<polygon fill="white" stroke="black" points="241,-38.5 241,-57.5 294,-57.5 294,-38.5 241,-38.5"/>
<text text-anchor="middle" x="267.5" y="-45.5" font-family="Helvetica,sans-Serif" font-size="10.00">replace</text>
</a>
</g>
</g>
<!-- Node2&#45;&gt;Node3 -->
<g id="edge2" class="edge">
<title>Node2&#45;&gt;Node3</title>
<path fill="none" stroke="midnightblue" d="M196.21,-34.91C207.23,-36.96 219.65,-39.27 230.95,-41.38"/>
<polygon fill="midnightblue" stroke="midnightblue" points="230.48,-44.85 240.95,-43.24 231.76,-37.97 230.48,-44.85"/>
</g>
<!-- Node4 -->
<g id="node4" class="node">
<title>Node4</title>
<g id="a_node4"><a xlink:href="debug_8hpp.html#a10360dc566406026aeb0d545b79d36d8" target="_top" xlink:title=" ">
<polygon fill="white" stroke="black" points="232,-0.5 232,-19.5 303,-19.5 303,-0.5 232,-0.5"/>
<text text-anchor="middle" x="267.5" y="-7.5" font-family="Helvetica,sans-Serif" font-size="10.00">type_name</text>
</a>
</g>
</g>
<!-- Node2&#45;&gt;Node4 -->
<g id="edge3" class="edge">
<title>Node2&#45;&gt;Node4</title>
<path fill="none" stroke="midnightblue" d="M196.21,-23.09C204.37,-21.57 213.29,-19.91 221.97,-18.3"/>
<polygon fill="midnightblue" stroke="midnightblue" points="222.78,-21.7 231.97,-16.43 221.5,-14.82 222.78,-21.7"/>
</g>
</g>
</svg>
