<?xml version="1.0" encoding="UTF-8" standalone="no"?>
<!DOCTYPE svg PUBLIC "-//W3C//DTD SVG 1.1//EN"
 "http://www.w3.org/Graphics/SVG/1.1/DTD/svg11.dtd">
<!-- Generated by graphviz version 2.43.0 (0)
 -->
<!-- Title: /home/ram/OmniTemplate/io.hpp Pages: 1 -->
<svg width="2846pt" height="508pt"
 viewBox="0.00 0.00 2846.00 508.00" xmlns="http://www.w3.org/2000/svg" xmlns:xlink="http://www.w3.org/1999/xlink">
<g id="graph0" class="graph" transform="scale(1 1) rotate(0) translate(4 504)">
<title>/home/ram/OmniTemplate/io.hpp</title>
<polygon fill="white" stroke="transparent" points="-4,4 -4,-504 2842,-504 2842,4 -4,4"/>
<!-- Node1 -->
<g id="node1" class="node">
<title>Node1</title>
<g id="a_node1"><a xlink:title=" ">
<polygon fill="#bfbfbf" stroke="black" points="2128,-469.5 2128,-499.5 2272,-499.5 2272,-469.5 2128,-469.5"/>
<text text-anchor="start" x="2136" y="-487.5" font-family="Helvetica,sans-Serif" font-size="10.00">/home/ram/OmniTemplate</text>
<text text-anchor="middle" x="2200" y="-476.5" font-family="Helvetica,sans-Serif" font-size="10.00">/io.hpp</text>
</a>
</g>
</g>
<!-- Node2 -->
<g id="node2" class="node">
<title>Node2</title>
<g id="a_node2"><a xlink:href="core_8hpp.html" target="_top" xlink:title=" ">
<polygon fill="white" stroke="black" points="1452,-402.5 1452,-432.5 1596,-432.5 1596,-402.5 1452,-402.5"/>
<text text-anchor="start" x="1460" y="-420.5" font-family="Helvetica,sans-Serif" font-size="10.00">/home/ram/OmniTemplate</text>
<text text-anchor="middle" x="1524" y="-409.5" font-family="Helvetica,sans-Serif" font-size="10.00">/core.hpp</text>
</a>
</g>
</g>
<!-- Node1&#45;&gt;Node2 -->
<g id="edge1" class="edge">
<title>Node1&#45;&gt;Node2</title>
<path fill="none" stroke="midnightblue" d="M2117.81,-475.6C1984.38,-462.77 1722.83,-437.62 1596.16,-425.44"/>
<polygon fill="midnightblue" stroke="midnightblue" points="2117.69,-479.1 2127.98,-476.57 2118.36,-472.13 2117.69,-479.1"/>
</g>
<!-- Node3 -->
<g id="node3" class="node">
<title>Node3</title>
<g id="a_node3"><a xlink:href="2sat_8hpp.html" target="_top" xlink:title=" ">
<polygon fill="white" stroke="black" points="338,-134.5 338,-164.5 482,-164.5 482,-134.5 338,-134.5"/>
<text text-anchor="start" x="346" y="-152.5" font-family="Helvetica,sans-Serif" font-size="10.00">/home/ram/OmniTemplate</text>
<text text-anchor="middle" x="410" y="-141.5" font-family="Helvetica,sans-Serif" font-size="10.00">/2sat.hpp</text>
</a>
</g>
</g>
<!-- Node2&#45;&gt;Node3 -->
<g id="edge2" class="edge">
<title>Node2&#45;&gt;Node3</title>
<path fill="none" stroke="midnightblue" d="M1441.74,-415.2C1199.73,-411.05 504.72,-396.5 467,-366 462.95,-362.72 425.33,-212.25 413.52,-164.73"/>
<polygon fill="midnightblue" stroke="midnightblue" points="1441.83,-418.71 1451.88,-415.38 1441.94,-411.71 1441.83,-418.71"/>
</g>
<!-- Node4 -->
<g id="node4" class="node">
<title>Node4</title>
<g id="a_node4"><a xlink:href="template_8hpp.html" target="_top" xlink:title=" ">
<polygon fill="white" stroke="black" points="1114,-67.5 1114,-97.5 1258,-97.5 1258,-67.5 1114,-67.5"/>
<text text-anchor="start" x="1122" y="-85.5" font-family="Helvetica,sans-Serif" font-size="10.00">/home/ram/OmniTemplate</text>
<text text-anchor="middle" x="1186" y="-74.5" font-family="Helvetica,sans-Serif" font-size="10.00">/template.hpp</text>
</a>
</g>
</g>
<!-- Node2&#45;&gt;Node4 -->
<g id="edge66" class="edge">
<title>Node2&#45;&gt;Node4</title>
<path fill="none" stroke="midnightblue" d="M1606.37,-415.54C1880.57,-412.06 2748.06,-398.51 2798,-366 2831.82,-343.99 2838,-324.85 2838,-284.5 2838,-284.5 2838,-284.5 2838,-215.5 2838,-135.03 1576.01,-94.39 1258.05,-85.43"/>
<polygon fill="midnightblue" stroke="midnightblue" points="1606.04,-412.05 1596.09,-415.67 1606.13,-419.05 1606.04,-412.05"/>
</g>
<!-- Node7 -->
<g id="node7" class="node">
<title>Node7</title>
<g id="a_node7"><a xlink:href="range_8hpp.html" target="_top" xlink:title=" ">
<polygon fill="white" stroke="black" points="2628,-335.5 2628,-365.5 2772,-365.5 2772,-335.5 2628,-335.5"/>
<text text-anchor="start" x="2636" y="-353.5" font-family="Helvetica,sans-Serif" font-size="10.00">/home/ram/OmniTemplate</text>
<text text-anchor="middle" x="2700" y="-342.5" font-family="Helvetica,sans-Serif" font-size="10.00">/range.hpp</text>
</a>
</g>
</g>
<!-- Node2&#45;&gt;Node7 -->
<g id="edge6" class="edge">
<title>Node2&#45;&gt;Node7</title>
<path fill="none" stroke="midnightblue" d="M1606.5,-416.03C1787.7,-414.23 2233.6,-405.77 2605,-366 2612.38,-365.21 2620.08,-364.19 2627.78,-363.06"/>
<polygon fill="midnightblue" stroke="midnightblue" points="1606.21,-412.53 1596.25,-416.12 1606.28,-419.53 1606.21,-412.53"/>
</g>
<!-- Node11 -->
<g id="node11" class="node">
<title>Node11</title>
<g id="a_node11"><a xlink:href="bit_8hpp.html" target="_top" xlink:title=" ">
<polygon fill="white" stroke="black" points="1866,-201.5 1866,-231.5 2010,-231.5 2010,-201.5 1866,-201.5"/>
<text text-anchor="start" x="1874" y="-219.5" font-family="Helvetica,sans-Serif" font-size="10.00">/home/ram/OmniTemplate</text>
<text text-anchor="middle" x="1938" y="-208.5" font-family="Helvetica,sans-Serif" font-size="10.00">/bit.hpp</text>
</a>
</g>
</g>
<!-- Node2&#45;&gt;Node11 -->
<g id="edge39" class="edge">
<title>Node2&#45;&gt;Node11</title>
<path fill="none" stroke="midnightblue" d="M1606.39,-412.31C1691.62,-406.55 1817.65,-393.56 1857,-366 1904.63,-332.64 1927.04,-262.05 1934.74,-231.78"/>
<polygon fill="midnightblue" stroke="midnightblue" points="1605.96,-408.83 1596.21,-412.98 1606.42,-415.82 1605.96,-408.83"/>
</g>
<!-- Node12 -->
<g id="node12" class="node">
<title>Node12</title>
<g id="a_node12"><a xlink:href="graph__theory_8hpp.html" target="_top" xlink:title=" ">
<polygon fill="white" stroke="black" points="269,-201.5 269,-231.5 413,-231.5 413,-201.5 269,-201.5"/>
<text text-anchor="start" x="277" y="-219.5" font-family="Helvetica,sans-Serif" font-size="10.00">/home/ram/OmniTemplate</text>
<text text-anchor="middle" x="341" y="-208.5" font-family="Helvetica,sans-Serif" font-size="10.00">/graph_theory.hpp</text>
</a>
</g>
</g>
<!-- Node2&#45;&gt;Node12 -->
<g id="edge19" class="edge">
<title>Node2&#45;&gt;Node12</title>
<path fill="none" stroke="midnightblue" d="M1441.64,-415.29C1188.77,-411.25 438.1,-396.72 396,-366 373.4,-349.51 351.98,-265.4 344.14,-231.59"/>
<polygon fill="midnightblue" stroke="midnightblue" points="1441.81,-418.79 1451.86,-415.45 1441.92,-411.79 1441.81,-418.79"/>
</g>
<!-- Node13 -->
<g id="node13" class="node">
<title>Node13</title>
<g id="a_node13"><a xlink:href="hld_8hpp.html" target="_top" xlink:title=" ">
<polygon fill="white" stroke="black" points="100,-134.5 100,-164.5 244,-164.5 244,-134.5 100,-134.5"/>
<text text-anchor="start" x="108" y="-152.5" font-family="Helvetica,sans-Serif" font-size="10.00">/home/ram/OmniTemplate</text>
<text text-anchor="middle" x="172" y="-141.5" font-family="Helvetica,sans-Serif" font-size="10.00">/hld.hpp</text>
</a>
</g>
</g>
<!-- Node2&#45;&gt;Node13 -->
<g id="edge48" class="edge">
<title>Node2&#45;&gt;Node13</title>
<path fill="none" stroke="midnightblue" d="M1441.62,-415.3C1186.17,-411.28 418,-396.73 310,-366 251.62,-349.39 224.9,-349.35 191,-299 162.69,-256.96 166.48,-192.8 169.9,-164.62"/>
<polygon fill="midnightblue" stroke="midnightblue" points="1441.89,-418.81 1451.95,-415.46 1442,-411.81 1441.89,-418.81"/>
</g>
<!-- Node14 -->
<g id="node14" class="node">
<title>Node14</title>
<g id="a_node14"><a xlink:href="dsu_8hpp.html" target="_top" xlink:title=" ">
<polygon fill="white" stroke="black" points="876,-268.5 876,-298.5 1020,-298.5 1020,-268.5 876,-268.5"/>
<text text-anchor="start" x="884" y="-286.5" font-family="Helvetica,sans-Serif" font-size="10.00">/home/ram/OmniTemplate</text>
<text text-anchor="middle" x="948" y="-275.5" font-family="Helvetica,sans-Serif" font-size="10.00">/dsu.hpp</text>
</a>
</g>
</g>
<!-- Node2&#45;&gt;Node14 -->
<g id="edge24" class="edge">
<title>Node2&#45;&gt;Node14</title>
<path fill="none" stroke="midnightblue" d="M1441.5,-414.39C1321.26,-410.24 1104.51,-398.39 1034,-366 1000.91,-350.8 972.47,-317.66 958.06,-298.65"/>
<polygon fill="midnightblue" stroke="midnightblue" points="1441.65,-417.89 1451.76,-414.73 1441.88,-410.9 1441.65,-417.89"/>
</g>
<!-- Node15 -->
<g id="node15" class="node">
<title>Node15</title>
<g id="a_node15"><a xlink:href="linear__algebra_8hpp.html" target="_top" xlink:title=" ">
<polygon fill="white" stroke="black" points="200,-268.5 200,-298.5 344,-298.5 344,-268.5 200,-268.5"/>
<text text-anchor="start" x="208" y="-286.5" font-family="Helvetica,sans-Serif" font-size="10.00">/home/ram/OmniTemplate</text>
<text text-anchor="middle" x="272" y="-275.5" font-family="Helvetica,sans-Serif" font-size="10.00">/linear_algebra.hpp</text>
</a>
</g>
</g>
<!-- Node2&#45;&gt;Node15 -->
<g id="edge27" class="edge">
<title>Node2&#45;&gt;Node15</title>
<path fill="none" stroke="midnightblue" d="M1441.92,-416.25C1192.89,-415.05 456.96,-407.95 358,-366 324.29,-351.71 295.88,-317.89 281.7,-298.61"/>
<polygon fill="midnightblue" stroke="midnightblue" points="1441.97,-419.75 1451.99,-416.3 1442,-412.75 1441.97,-419.75"/>
</g>
<!-- Node16 -->
<g id="node16" class="node">
<title>Node16</title>
<g id="a_node16"><a xlink:href="modulo_8hpp.html" target="_top" xlink:title=" ">
<polygon fill="white" stroke="black" points="476,-335.5 476,-365.5 620,-365.5 620,-335.5 476,-335.5"/>
<text text-anchor="start" x="484" y="-353.5" font-family="Helvetica,sans-Serif" font-size="10.00">/home/ram/OmniTemplate</text>
<text text-anchor="middle" x="548" y="-342.5" font-family="Helvetica,sans-Serif" font-size="10.00">/modulo.hpp</text>
</a>
</g>
</g>
<!-- Node2&#45;&gt;Node16 -->
<g id="edge30" class="edge">
<title>Node2&#45;&gt;Node16</title>
<path fill="none" stroke="midnightblue" d="M1441.81,-413.03C1290.37,-406.32 957.13,-390.08 677,-366 658.59,-364.42 638.74,-362.36 620.25,-360.3"/>
<polygon fill="midnightblue" stroke="midnightblue" points="1441.81,-416.54 1451.96,-413.48 1442.12,-409.54 1441.81,-416.54"/>
</g>
<!-- Node17 -->
<g id="node17" class="node">
<title>Node17</title>
<g id="a_node17"><a xlink:href="number__theory_8hpp.html" target="_top" xlink:title=" ">
<polygon fill="white" stroke="black" points="476,-268.5 476,-298.5 620,-298.5 620,-268.5 476,-268.5"/>
<text text-anchor="start" x="484" y="-286.5" font-family="Helvetica,sans-Serif" font-size="10.00">/home/ram/OmniTemplate</text>
<text text-anchor="middle" x="548" y="-275.5" font-family="Helvetica,sans-Serif" font-size="10.00">/number_theory.hpp</text>
</a>
</g>
</g>
<!-- Node2&#45;&gt;Node17 -->
<g id="edge60" class="edge">
<title>Node2&#45;&gt;Node17</title>
<path fill="none" stroke="midnightblue" d="M1441.65,-414.46C1269.94,-409.65 878.85,-395.74 749,-366 683.85,-351.08 612.41,-317.67 574.73,-298.58"/>
<polygon fill="midnightblue" stroke="midnightblue" points="1441.8,-417.96 1451.89,-414.74 1441.99,-410.97 1441.8,-417.96"/>
</g>
<!-- Node18 -->
<g id="node18" class="node">
<title>Node18</title>
<g id="a_node18"><a xlink:href="permutation_8hpp.html" target="_top" xlink:title=" ">
<polygon fill="white" stroke="black" points="638,-268.5 638,-298.5 782,-298.5 782,-268.5 638,-268.5"/>
<text text-anchor="start" x="646" y="-286.5" font-family="Helvetica,sans-Serif" font-size="10.00">/home/ram/OmniTemplate</text>
<text text-anchor="middle" x="710" y="-275.5" font-family="Helvetica,sans-Serif" font-size="10.00">/permutation.hpp</text>
</a>
</g>
</g>
<!-- Node2&#45;&gt;Node18 -->
<g id="edge61" class="edge">
<title>Node2&#45;&gt;Node18</title>
<path fill="none" stroke="midnightblue" d="M1441.73,-413.92C1263.66,-407.89 853.85,-391.41 796,-366 762.67,-351.36 734.31,-318 719.99,-298.81"/>
<polygon fill="midnightblue" stroke="midnightblue" points="1441.72,-417.42 1451.83,-414.26 1441.96,-410.43 1441.72,-417.42"/>
</g>
<!-- Node19 -->
<g id="node19" class="node">
<title>Node19</title>
<g id="a_node19"><a xlink:href="big__integer_8hpp.html" target="_top" xlink:title=" ">
<polygon fill="white" stroke="black" points="614,-134.5 614,-164.5 758,-164.5 758,-134.5 614,-134.5"/>
<text text-anchor="start" x="622" y="-152.5" font-family="Helvetica,sans-Serif" font-size="10.00">/home/ram/OmniTemplate</text>
<text text-anchor="middle" x="686" y="-141.5" font-family="Helvetica,sans-Serif" font-size="10.00">/big_integer.hpp</text>
</a>
</g>
</g>
<!-- Node2&#45;&gt;Node19 -->
<g id="edge37" class="edge">
<title>Node2&#45;&gt;Node19</title>
<path fill="none" stroke="midnightblue" d="M1441.62,-416.94C1294.11,-416.58 991.46,-410.26 897,-366 871.57,-354.09 740.62,-210.84 698.83,-164.71"/>
<polygon fill="midnightblue" stroke="midnightblue" points="1441.96,-420.44 1451.97,-416.96 1441.97,-413.44 1441.96,-420.44"/>
</g>
<!-- Node20 -->
<g id="node20" class="node">
<title>Node20</title>
<g id="a_node20"><a xlink:href="combinatorics_8hpp.html" target="_top" xlink:title=" ">
<polygon fill="white" stroke="black" points="776,-134.5 776,-164.5 920,-164.5 920,-134.5 776,-134.5"/>
<text text-anchor="start" x="784" y="-152.5" font-family="Helvetica,sans-Serif" font-size="10.00">/home/ram/OmniTemplate</text>
<text text-anchor="middle" x="848" y="-141.5" font-family="Helvetica,sans-Serif" font-size="10.00">/combinatorics.hpp</text>
</a>
</g>
</g>
<!-- Node2&#45;&gt;Node20 -->
<g id="edge40" class="edge">
<title>Node2&#45;&gt;Node20</title>
<path fill="none" stroke="midnightblue" d="M1441.55,-412.91C1312.65,-406.6 1069.6,-391.69 987,-366 928.67,-347.86 901.21,-349.61 867,-299 838.62,-257.01 842.45,-192.83 845.89,-164.62"/>
<polygon fill="midnightblue" stroke="midnightblue" points="1441.61,-416.42 1451.77,-413.4 1441.95,-409.43 1441.61,-416.42"/>
</g>
<!-- Node21 -->
<g id="node21" class="node">
<title>Node21</title>
<g id="a_node21"><a xlink:href="coroutine_8hpp.html" target="_top" xlink:title=" ">
<polygon fill="white" stroke="black" points="914,-201.5 914,-231.5 1058,-231.5 1058,-201.5 914,-201.5"/>
<text text-anchor="start" x="922" y="-219.5" font-family="Helvetica,sans-Serif" font-size="10.00">/home/ram/OmniTemplate</text>
<text text-anchor="middle" x="986" y="-208.5" font-family="Helvetica,sans-Serif" font-size="10.00">/coroutine.hpp</text>
</a>
</g>
</g>
<!-- Node2&#45;&gt;Node21 -->
<g id="edge42" class="edge">
<title>Node2&#45;&gt;Node21</title>
<path fill="none" stroke="midnightblue" d="M1441.55,-416.91C1327.44,-415.89 1128.95,-407.9 1072,-366 1033.69,-337.81 1054.24,-308.31 1029,-268 1020.69,-254.73 1009.07,-241.3 1000.01,-231.64"/>
<polygon fill="midnightblue" stroke="midnightblue" points="1441.62,-420.41 1451.65,-416.98 1441.67,-413.41 1441.62,-420.41"/>
</g>
<!-- Node22 -->
<g id="node22" class="node">
<title>Node22</title>
<g id="a_node22"><a xlink:href="fft_8hpp.html" target="_top" xlink:title=" ">
<polygon fill="white" stroke="black" points="1014,-134.5 1014,-164.5 1158,-164.5 1158,-134.5 1014,-134.5"/>
<text text-anchor="start" x="1022" y="-152.5" font-family="Helvetica,sans-Serif" font-size="10.00">/home/ram/OmniTemplate</text>
<text text-anchor="middle" x="1086" y="-141.5" font-family="Helvetica,sans-Serif" font-size="10.00">/fft.hpp</text>
</a>
</g>
</g>
<!-- Node2&#45;&gt;Node22 -->
<g id="edge44" class="edge">
<title>Node2&#45;&gt;Node22</title>
<path fill="none" stroke="midnightblue" d="M1441.67,-413.91C1349.53,-409.48 1207.56,-397.6 1165,-366 1098.13,-316.36 1087.79,-204.14 1086.25,-164.6"/>
<polygon fill="midnightblue" stroke="midnightblue" points="1441.66,-417.41 1451.81,-414.37 1441.98,-410.42 1441.66,-417.41"/>
</g>
<!-- Node23 -->
<g id="node23" class="node">
<title>Node23</title>
<g id="a_node23"><a xlink:href="geometry_8hpp.html" target="_top" xlink:title=" ">
<polygon fill="white" stroke="black" points="1114,-201.5 1114,-231.5 1258,-231.5 1258,-201.5 1114,-201.5"/>
<text text-anchor="start" x="1122" y="-219.5" font-family="Helvetica,sans-Serif" font-size="10.00">/home/ram/OmniTemplate</text>
<text text-anchor="middle" x="1186" y="-208.5" font-family="Helvetica,sans-Serif" font-size="10.00">/geometry.hpp</text>
</a>
</g>
</g>
<!-- Node2&#45;&gt;Node23 -->
<g id="edge46" class="edge">
<title>Node2&#45;&gt;Node23</title>
<path fill="none" stroke="midnightblue" d="M1441.49,-412.61C1381.32,-407.33 1298.95,-394.96 1232,-366 1186.56,-346.34 1165.1,-343.3 1143,-299 1136.85,-286.67 1138.24,-280.93 1143,-268 1148.25,-253.74 1159.52,-240.76 1169.2,-231.53"/>
<polygon fill="midnightblue" stroke="midnightblue" points="1441.44,-416.12 1451.7,-413.45 1442.02,-409.14 1441.44,-416.12"/>
</g>
<!-- Node24 -->
<g id="node24" class="node">
<title>Node24</title>
<g id="a_node24"><a xlink:href="sparse__table_8hpp.html" target="_top" xlink:title=" ">
<polygon fill="white" stroke="black" points="0,-201.5 0,-231.5 144,-231.5 144,-201.5 0,-201.5"/>
<text text-anchor="start" x="8" y="-219.5" font-family="Helvetica,sans-Serif" font-size="10.00">/home/ram/OmniTemplate</text>
<text text-anchor="middle" x="72" y="-208.5" font-family="Helvetica,sans-Serif" font-size="10.00">/sparse_table.hpp</text>
</a>
</g>
</g>
<!-- Node2&#45;&gt;Node24 -->
<g id="edge49" class="edge">
<title>Node2&#45;&gt;Node24</title>
<path fill="none" stroke="midnightblue" d="M1441.19,-415.64C1153.68,-412.36 213.09,-399.13 158,-366 107.19,-335.45 83.41,-262.66 75.34,-231.76"/>
<polygon fill="midnightblue" stroke="midnightblue" points="1441.51,-419.14 1451.55,-415.75 1441.59,-412.14 1441.51,-419.14"/>
</g>
<!-- Node25 -->
<g id="node25" class="node">
<title>Node25</title>
<g id="a_node25"><a xlink:href="main_8hpp.html" target="_top" xlink:title=" ">
<polygon fill="white" stroke="black" points="1152,-268.5 1152,-298.5 1296,-298.5 1296,-268.5 1152,-268.5"/>
<text text-anchor="start" x="1160" y="-286.5" font-family="Helvetica,sans-Serif" font-size="10.00">/home/ram/OmniTemplate</text>
<text text-anchor="middle" x="1224" y="-275.5" font-family="Helvetica,sans-Serif" font-size="10.00">/main.hpp</text>
</a>
</g>
</g>
<!-- Node2&#45;&gt;Node25 -->
<g id="edge52" class="edge">
<title>Node2&#45;&gt;Node25</title>
<path fill="none" stroke="midnightblue" d="M1441.69,-409.26C1374.64,-401.86 1286.7,-388.25 1259,-366 1237.99,-349.12 1229.35,-317.24 1225.98,-298.75"/>
<polygon fill="midnightblue" stroke="midnightblue" points="1441.52,-412.77 1451.84,-410.35 1442.27,-405.81 1441.52,-412.77"/>
</g>
<!-- Node26 -->
<g id="node26" class="node">
<title>Node26</title>
<g id="a_node26"><a xlink:href="time_8hpp.html" target="_top" xlink:title=" ">
<polygon fill="white" stroke="black" points="1268,-335.5 1268,-365.5 1412,-365.5 1412,-335.5 1268,-335.5"/>
<text text-anchor="start" x="1276" y="-353.5" font-family="Helvetica,sans-Serif" font-size="10.00">/home/ram/OmniTemplate</text>
<text text-anchor="middle" x="1340" y="-342.5" font-family="Helvetica,sans-Serif" font-size="10.00">/time.hpp</text>
</a>
</g>
</g>
<!-- Node2&#45;&gt;Node26 -->
<g id="edge54" class="edge">
<title>Node2&#45;&gt;Node26</title>
<path fill="none" stroke="midnightblue" d="M1474.33,-398.96C1444.7,-388.48 1407.56,-375.37 1379.85,-365.58"/>
<polygon fill="midnightblue" stroke="midnightblue" points="1473.48,-402.37 1484.07,-402.4 1475.81,-395.76 1473.48,-402.37"/>
</g>
<!-- Node27 -->
<g id="node27" class="node">
<title>Node27</title>
<g id="a_node27"><a xlink:href="segment__tree_8hpp.html" target="_top" xlink:title=" ">
<polygon fill="white" stroke="black" points="1352,-268.5 1352,-298.5 1496,-298.5 1496,-268.5 1352,-268.5"/>
<text text-anchor="start" x="1360" y="-286.5" font-family="Helvetica,sans-Serif" font-size="10.00">/home/ram/OmniTemplate</text>
<text text-anchor="middle" x="1424" y="-275.5" font-family="Helvetica,sans-Serif" font-size="10.00">/segment_tree.hpp</text>
</a>
</g>
</g>
<!-- Node2&#45;&gt;Node27 -->
<g id="edge69" class="edge">
<title>Node2&#45;&gt;Node27</title>
<path fill="none" stroke="midnightblue" d="M1507.1,-394.19C1486.39,-366.86 1451.94,-321.38 1434.62,-298.52"/>
<polygon fill="midnightblue" stroke="midnightblue" points="1504.47,-396.52 1513.3,-402.37 1510.05,-392.29 1504.47,-396.52"/>
</g>
<!-- Node28 -->
<g id="node28" class="node">
<title>Node28</title>
<g id="a_node28"><a xlink:href="my__int_8hpp.html" target="_top" xlink:title=" ">
<polygon fill="white" stroke="black" points="2104,-335.5 2104,-365.5 2248,-365.5 2248,-335.5 2104,-335.5"/>
<text text-anchor="start" x="2112" y="-353.5" font-family="Helvetica,sans-Serif" font-size="10.00">/home/ram/OmniTemplate</text>
<text text-anchor="middle" x="2176" y="-342.5" font-family="Helvetica,sans-Serif" font-size="10.00">/my_int.hpp</text>
</a>
</g>
</g>
<!-- Node2&#45;&gt;Node28 -->
<g id="edge59" class="edge">
<title>Node2&#45;&gt;Node28</title>
<path fill="none" stroke="midnightblue" d="M1606.18,-411.19C1716.51,-403.6 1918.5,-388.08 2090,-366 2094.51,-365.42 2099.14,-364.78 2103.8,-364.09"/>
<polygon fill="midnightblue" stroke="midnightblue" points="1605.86,-407.7 1596.12,-411.88 1606.33,-414.69 1605.86,-407.7"/>
</g>
<!-- Node29 -->
<g id="node29" class="node">
<title>Node29</title>
<g id="a_node29"><a xlink:href="persistent_8hpp.html" target="_top" xlink:title=" ">
<polygon fill="white" stroke="black" points="1328,-134.5 1328,-164.5 1472,-164.5 1472,-134.5 1328,-134.5"/>
<text text-anchor="start" x="1336" y="-152.5" font-family="Helvetica,sans-Serif" font-size="10.00">/home/ram/OmniTemplate</text>
<text text-anchor="middle" x="1400" y="-141.5" font-family="Helvetica,sans-Serif" font-size="10.00">/persistent.hpp</text>
</a>
</g>
</g>
<!-- Node2&#45;&gt;Node29 -->
<g id="edge62" class="edge">
<title>Node2&#45;&gt;Node29</title>
<path fill="none" stroke="midnightblue" d="M1527.81,-391.87C1531.32,-359.93 1532.47,-304.07 1505,-268 1479.9,-235.03 1445.75,-263.65 1419,-232 1402.78,-212.8 1399.8,-182.33 1399.58,-164.59"/>
<polygon fill="midnightblue" stroke="midnightblue" points="1524.3,-391.73 1526.51,-402.09 1531.24,-392.61 1524.3,-391.73"/>
</g>
<!-- Node30 -->
<g id="node30" class="node">
<title>Node30</title>
<g id="a_node30"><a xlink:href="polynomial_8hpp.html" target="_top" xlink:title=" ">
<polygon fill="white" stroke="black" points="1428,-201.5 1428,-231.5 1572,-231.5 1572,-201.5 1428,-201.5"/>
<text text-anchor="start" x="1436" y="-219.5" font-family="Helvetica,sans-Serif" font-size="10.00">/home/ram/OmniTemplate</text>
<text text-anchor="middle" x="1500" y="-208.5" font-family="Helvetica,sans-Serif" font-size="10.00">/polynomial.hpp</text>
</a>
</g>
</g>
<!-- Node2&#45;&gt;Node30 -->
<g id="edge64" class="edge">
<title>Node2&#45;&gt;Node30</title>
<path fill="none" stroke="midnightblue" d="M1532.13,-392.54C1540.98,-362.6 1552.1,-310.18 1538,-268 1533.41,-254.26 1523.45,-241.27 1514.88,-231.9"/>
<polygon fill="midnightblue" stroke="midnightblue" points="1528.77,-391.55 1529.14,-402.14 1535.46,-393.63 1528.77,-391.55"/>
</g>
<!-- Node31 -->
<g id="node31" class="node">
<title>Node31</title>
<g id="a_node31"><a xlink:href="queue_8hpp.html" target="_top" xlink:title=" ">
<polygon fill="white" stroke="black" points="1528,-134.5 1528,-164.5 1672,-164.5 1672,-134.5 1528,-134.5"/>
<text text-anchor="start" x="1536" y="-152.5" font-family="Helvetica,sans-Serif" font-size="10.00">/home/ram/OmniTemplate</text>
<text text-anchor="middle" x="1600" y="-141.5" font-family="Helvetica,sans-Serif" font-size="10.00">/queue.hpp</text>
</a>
</g>
</g>
<!-- Node2&#45;&gt;Node31 -->
<g id="edge67" class="edge">
<title>Node2&#45;&gt;Node31</title>
<path fill="none" stroke="midnightblue" d="M1540.29,-393.72C1545.65,-385.33 1551.21,-375.55 1555,-366 1583.79,-293.54 1595.27,-199.72 1598.75,-164.59"/>
<polygon fill="midnightblue" stroke="midnightblue" points="1537.28,-391.92 1534.64,-402.18 1543.1,-395.81 1537.28,-391.92"/>
</g>
<!-- Node32 -->
<g id="node32" class="node">
<title>Node32</title>
<g id="a_node32"><a xlink:href="splay__tree_8hpp.html" target="_top" xlink:title=" ">
<polygon fill="white" stroke="black" points="1628,-201.5 1628,-231.5 1772,-231.5 1772,-201.5 1628,-201.5"/>
<text text-anchor="start" x="1636" y="-219.5" font-family="Helvetica,sans-Serif" font-size="10.00">/home/ram/OmniTemplate</text>
<text text-anchor="middle" x="1700" y="-208.5" font-family="Helvetica,sans-Serif" font-size="10.00">/splay_tree.hpp</text>
</a>
</g>
</g>
<!-- Node2&#45;&gt;Node32 -->
<g id="edge70" class="edge">
<title>Node2&#45;&gt;Node32</title>
<path fill="none" stroke="midnightblue" d="M1568.02,-397.79C1583.79,-389.63 1600.89,-378.94 1614,-366 1655.36,-325.2 1683.61,-260.39 1694.72,-231.83"/>
<polygon fill="midnightblue" stroke="midnightblue" points="1566.33,-394.72 1558.93,-402.3 1569.45,-400.99 1566.33,-394.72"/>
</g>
<!-- Node33 -->
<g id="node33" class="node">
<title>Node33</title>
<g id="a_node33"><a xlink:href="string_8hpp.html" target="_top" xlink:title=" ">
<polygon fill="white" stroke="black" points="1728,-134.5 1728,-164.5 1872,-164.5 1872,-134.5 1728,-134.5"/>
<text text-anchor="start" x="1736" y="-152.5" font-family="Helvetica,sans-Serif" font-size="10.00">/home/ram/OmniTemplate</text>
<text text-anchor="middle" x="1800" y="-141.5" font-family="Helvetica,sans-Serif" font-size="10.00">/string.hpp</text>
</a>
</g>
</g>
<!-- Node2&#45;&gt;Node33 -->
<g id="edge72" class="edge">
<title>Node2&#45;&gt;Node33</title>
<path fill="none" stroke="midnightblue" d="M1574.93,-398.81C1595.93,-390.4 1619.99,-379.26 1640,-366 1712.06,-318.24 1738.05,-307.03 1781,-232 1793.27,-210.57 1797.62,-181.66 1799.16,-164.66"/>
<polygon fill="midnightblue" stroke="midnightblue" points="1573.56,-395.59 1565.51,-402.49 1576.1,-402.11 1573.56,-395.59"/>
</g>
<!-- Node34 -->
<g id="node34" class="node">
<title>Node34</title>
<g id="a_node34"><a xlink:href="treap_8hpp.html" target="_top" xlink:title=" ">
<polygon fill="white" stroke="black" points="1704,-335.5 1704,-365.5 1848,-365.5 1848,-335.5 1704,-335.5"/>
<text text-anchor="start" x="1712" y="-353.5" font-family="Helvetica,sans-Serif" font-size="10.00">/home/ram/OmniTemplate</text>
<text text-anchor="middle" x="1776" y="-342.5" font-family="Helvetica,sans-Serif" font-size="10.00">/treap.hpp</text>
</a>
</g>
</g>
<!-- Node2&#45;&gt;Node34 -->
<g id="edge74" class="edge">
<title>Node2&#45;&gt;Node34</title>
<path fill="none" stroke="midnightblue" d="M1588.29,-399.92C1629.41,-389.31 1682.18,-375.7 1721.29,-365.61"/>
<polygon fill="midnightblue" stroke="midnightblue" points="1587.18,-396.59 1578.37,-402.48 1588.93,-403.37 1587.18,-396.59"/>
</g>
<!-- Node35 -->
<g id="node35" class="node">
<title>Node35</title>
<g id="a_node35"><a xlink:href="tree_8hpp.html" target="_top" xlink:title=" ">
<polygon fill="white" stroke="black" points="1904,-335.5 1904,-365.5 2048,-365.5 2048,-335.5 1904,-335.5"/>
<text text-anchor="start" x="1912" y="-353.5" font-family="Helvetica,sans-Serif" font-size="10.00">/home/ram/OmniTemplate</text>
<text text-anchor="middle" x="1976" y="-342.5" font-family="Helvetica,sans-Serif" font-size="10.00">/tree.hpp</text>
</a>
</g>
</g>
<!-- Node2&#45;&gt;Node35 -->
<g id="edge76" class="edge">
<title>Node2&#45;&gt;Node35</title>
<path fill="none" stroke="midnightblue" d="M1606.54,-405.83C1680.78,-396.06 1792.81,-380.9 1890,-366 1894.49,-365.31 1899.11,-364.59 1903.76,-363.84"/>
<polygon fill="midnightblue" stroke="midnightblue" points="1605.77,-402.4 1596.32,-407.17 1606.69,-409.34 1605.77,-402.4"/>
</g>
<!-- Node36 -->
<g id="node36" class="node">
<title>Node36</title>
<g id="a_node36"><a xlink:href="seg__old_8hpp.html" target="_top" xlink:title=" ">
<polygon fill="white" stroke="black" points="2266,-335.5 2266,-365.5 2410,-365.5 2410,-335.5 2266,-335.5"/>
<text text-anchor="start" x="2274" y="-353.5" font-family="Helvetica,sans-Serif" font-size="10.00">/home/ram/OmniTemplate</text>
<text text-anchor="middle" x="2338" y="-342.5" font-family="Helvetica,sans-Serif" font-size="10.00">/seg_old.hpp</text>
</a>
</g>
</g>
<!-- Node2&#45;&gt;Node36 -->
<g id="edge78" class="edge">
<title>Node2&#45;&gt;Node36</title>
<path fill="none" stroke="midnightblue" d="M1606.37,-413.74C1742.3,-408.52 2021.96,-395.05 2257,-366 2259.84,-365.65 2262.72,-365.27 2265.64,-364.85"/>
<polygon fill="midnightblue" stroke="midnightblue" points="1605.9,-410.25 1596.04,-414.13 1606.16,-417.25 1605.9,-410.25"/>
</g>
<!-- Node37 -->
<g id="node37" class="node">
<title>Node37</title>
<g id="a_node37"><a xlink:href="segment__tree__multi_8hpp.html" target="_top" xlink:title=" ">
<polygon fill="white" stroke="black" points="2428,-335.5 2428,-365.5 2572,-365.5 2572,-335.5 2428,-335.5"/>
<text text-anchor="start" x="2436" y="-353.5" font-family="Helvetica,sans-Serif" font-size="10.00">/home/ram/OmniTemplate</text>
<text text-anchor="middle" x="2500" y="-342.5" font-family="Helvetica,sans-Serif" font-size="10.00">/segment_tree_multi.hpp</text>
</a>
</g>
</g>
<!-- Node2&#45;&gt;Node37 -->
<g id="edge79" class="edge">
<title>Node2&#45;&gt;Node37</title>
<path fill="none" stroke="midnightblue" d="M1606.3,-415.18C1764.34,-411.9 2121.04,-400.95 2419,-366 2421.84,-365.67 2424.73,-365.3 2427.64,-364.9"/>
<polygon fill="midnightblue" stroke="midnightblue" points="1606.11,-411.68 1596.18,-415.38 1606.25,-418.68 1606.11,-411.68"/>
</g>
<!-- Node3&#45;&gt;Node4 -->
<g id="edge3" class="edge">
<title>Node3&#45;&gt;Node4</title>
<path fill="none" stroke="midnightblue" d="M492.17,-134.48C493.45,-134.31 494.73,-134.15 496,-134 720.48,-106.92 987.93,-92.36 1113.77,-86.55"/>
<polygon fill="midnightblue" stroke="midnightblue" points="491.63,-131.02 482.19,-135.82 492.57,-137.95 491.63,-131.02"/>
</g>
<!-- Node5 -->
<g id="node5" class="node">
<title>Node5</title>
<g id="a_node5"><a xlink:href="program_8cpp.html" target="_top" xlink:title=" ">
<polygon fill="white" stroke="black" points="1033,-0.5 1033,-30.5 1177,-30.5 1177,-0.5 1033,-0.5"/>
<text text-anchor="start" x="1041" y="-18.5" font-family="Helvetica,sans-Serif" font-size="10.00">/home/ram/OmniTemplate</text>
<text text-anchor="middle" x="1105" y="-7.5" font-family="Helvetica,sans-Serif" font-size="10.00">/program.cpp</text>
</a>
</g>
</g>
<!-- Node4&#45;&gt;Node5 -->
<g id="edge4" class="edge">
<title>Node4&#45;&gt;Node5</title>
<path fill="none" stroke="midnightblue" d="M1160.31,-60.88C1148,-51.01 1133.57,-39.43 1122.54,-30.58"/>
<polygon fill="midnightblue" stroke="midnightblue" points="1158.43,-63.87 1168.42,-67.4 1162.82,-58.41 1158.43,-63.87"/>
</g>
<!-- Node6 -->
<g id="node6" class="node">
<title>Node6</title>
<g id="a_node6"><a xlink:href="test_8cpp.html" target="_top" xlink:title=" ">
<polygon fill="white" stroke="black" points="1195,-0.5 1195,-30.5 1339,-30.5 1339,-0.5 1195,-0.5"/>
<text text-anchor="start" x="1203" y="-18.5" font-family="Helvetica,sans-Serif" font-size="10.00">/home/ram/OmniTemplate</text>
<text text-anchor="middle" x="1267" y="-7.5" font-family="Helvetica,sans-Serif" font-size="10.00">/test.cpp</text>
</a>
</g>
</g>
<!-- Node4&#45;&gt;Node6 -->
<g id="edge5" class="edge">
<title>Node4&#45;&gt;Node6</title>
<path fill="none" stroke="midnightblue" d="M1211.69,-60.88C1224,-51.01 1238.43,-39.43 1249.46,-30.58"/>
<polygon fill="midnightblue" stroke="midnightblue" points="1209.18,-58.41 1203.58,-67.4 1213.57,-63.87 1209.18,-58.41"/>
</g>
<!-- Node7&#45;&gt;Node2 -->
<g id="edge13" class="edge">
<title>Node7&#45;&gt;Node2</title>
<path fill="none" stroke="midnightblue" d="M2617.55,-366.55C2229.87,-407.37 1770.95,-414.83 1596.23,-416.2"/>
<polygon fill="midnightblue" stroke="midnightblue" points="2617.98,-370.03 2627.55,-365.49 2617.24,-363.06 2617.98,-370.03"/>
</g>
<!-- Node8 -->
<g id="node8" class="node">
<title>Node8</title>
<g id="a_node8"><a xlink:href="operations_8hpp.html" target="_top" xlink:title=" ">
<polygon fill="white" stroke="black" points="2666,-268.5 2666,-298.5 2810,-298.5 2810,-268.5 2666,-268.5"/>
<text text-anchor="start" x="2674" y="-286.5" font-family="Helvetica,sans-Serif" font-size="10.00">/home/ram/OmniTemplate</text>
<text text-anchor="middle" x="2738" y="-275.5" font-family="Helvetica,sans-Serif" font-size="10.00">/operations.hpp</text>
</a>
</g>
</g>
<!-- Node7&#45;&gt;Node8 -->
<g id="edge7" class="edge">
<title>Node7&#45;&gt;Node8</title>
<path fill="none" stroke="midnightblue" d="M2713.4,-326.58C2718.86,-317.24 2724.99,-306.75 2729.77,-298.58"/>
<polygon fill="midnightblue" stroke="midnightblue" points="2710.27,-325 2708.25,-335.4 2716.31,-328.53 2710.27,-325"/>
</g>
<!-- Node9 -->
<g id="node9" class="node">
<title>Node9</title>
<g id="a_node9"><a xlink:href="debug_8hpp.html" target="_top" xlink:title=" ">
<polygon fill="white" stroke="black" points="2616,-201.5 2616,-231.5 2760,-231.5 2760,-201.5 2616,-201.5"/>
<text text-anchor="start" x="2624" y="-219.5" font-family="Helvetica,sans-Serif" font-size="10.00">/home/ram/OmniTemplate</text>
<text text-anchor="middle" x="2688" y="-208.5" font-family="Helvetica,sans-Serif" font-size="10.00">/debug.hpp</text>
</a>
</g>
</g>
<!-- Node7&#45;&gt;Node9 -->
<g id="edge12" class="edge">
<title>Node7&#45;&gt;Node9</title>
<path fill="none" stroke="midnightblue" d="M2676,-328.14C2668.41,-319.88 2660.98,-309.81 2657,-299 2648.27,-275.28 2664.12,-247.82 2676.2,-231.6"/>
<polygon fill="midnightblue" stroke="midnightblue" points="2673.7,-330.8 2683.2,-335.47 2678.69,-325.89 2673.7,-330.8"/>
</g>
<!-- Node10 -->
<g id="node10" class="node">
<title>Node10</title>
<g id="a_node10"><a xlink:href="utility_8hpp.html" target="_top" xlink:title=" ">
<polygon fill="white" stroke="black" points="2066,-268.5 2066,-298.5 2210,-298.5 2210,-268.5 2066,-268.5"/>
<text text-anchor="start" x="2074" y="-286.5" font-family="Helvetica,sans-Serif" font-size="10.00">/home/ram/OmniTemplate</text>
<text text-anchor="middle" x="2138" y="-275.5" font-family="Helvetica,sans-Serif" font-size="10.00">/utility.hpp</text>
</a>
</g>
</g>
<!-- Node7&#45;&gt;Node10 -->
<g id="edge14" class="edge">
<title>Node7&#45;&gt;Node10</title>
<path fill="none" stroke="midnightblue" d="M2617.7,-339.39C2605.4,-337.9 2592.87,-336.4 2581,-335 2450.31,-319.59 2297.84,-302.38 2210.15,-292.55"/>
<polygon fill="midnightblue" stroke="midnightblue" points="2617.61,-342.9 2627.96,-340.63 2618.45,-335.95 2617.61,-342.9"/>
</g>
<!-- Node8&#45;&gt;Node2 -->
<g id="edge11" class="edge">
<title>Node8&#45;&gt;Node2</title>
<path fill="none" stroke="midnightblue" d="M2762.39,-305.77C2779.89,-323.52 2797.68,-348.64 2781,-366 2739.77,-408.92 1857.24,-415.36 1596.14,-416.33"/>
<polygon fill="midnightblue" stroke="midnightblue" points="2764.64,-303.08 2755.01,-298.66 2759.78,-308.12 2764.64,-303.08"/>
</g>
<!-- Node8&#45;&gt;Node9 -->
<g id="edge8" class="edge">
<title>Node8&#45;&gt;Node9</title>
<path fill="none" stroke="midnightblue" d="M2721.04,-260.45C2713.69,-250.9 2705.31,-240 2698.83,-231.58"/>
<polygon fill="midnightblue" stroke="midnightblue" points="2718.28,-262.6 2727.15,-268.4 2723.83,-258.34 2718.28,-262.6"/>
</g>
<!-- Node9&#45;&gt;Node1 -->
<g id="edge9" class="edge">
<title>Node9&#45;&gt;Node1</title>
<path fill="none" stroke="midnightblue" d="M2769.81,-232.22C2789.05,-239.7 2807.33,-250.99 2819,-268 2844.2,-304.73 2831.18,-336.28 2798,-366 2721.07,-434.92 2413.63,-467.06 2272.05,-478.43"/>
<polygon fill="midnightblue" stroke="midnightblue" points="2770.91,-228.9 2760.32,-228.85 2768.57,-235.49 2770.91,-228.9"/>
</g>
<!-- Node9&#45;&gt;Node2 -->
<g id="edge10" class="edge">
<title>Node9&#45;&gt;Node2</title>
<path fill="none" stroke="midnightblue" d="M2671.01,-239.76C2664.39,-248.52 2656.78,-258.69 2650,-268 2618.65,-311.07 2627.68,-340.34 2581,-366 2495.27,-413.12 1820.46,-416.79 1596.19,-416.69"/>
<polygon fill="midnightblue" stroke="midnightblue" points="2673.98,-241.64 2677.23,-231.56 2668.4,-237.41 2673.98,-241.64"/>
</g>
<!-- Node10&#45;&gt;Node2 -->
<g id="edge15" class="edge">
<title>Node10&#45;&gt;Node2</title>
<path fill="none" stroke="midnightblue" d="M2119.26,-306.49C2100.26,-328.19 2071.63,-359.08 2057,-366 1977.16,-403.73 1722.24,-413.27 1596.09,-415.68"/>
<polygon fill="midnightblue" stroke="midnightblue" points="2122.11,-308.55 2126.02,-298.7 2116.83,-303.96 2122.11,-308.55"/>
</g>
<!-- Node10&#45;&gt;Node4 -->
<g id="edge18" class="edge">
<title>Node10&#45;&gt;Node4</title>
<path fill="none" stroke="midnightblue" d="M2131.89,-258.64C2121.72,-224.35 2097.75,-162.18 2052,-134 1985.24,-92.88 1454.03,-85.24 1258.18,-83.82"/>
<polygon fill="midnightblue" stroke="midnightblue" points="2128.54,-259.64 2134.62,-268.32 2135.28,-257.74 2128.54,-259.64"/>
</g>
<!-- Node10&#45;&gt;Node11 -->
<g id="edge16" class="edge">
<title>Node10&#45;&gt;Node11</title>
<path fill="none" stroke="midnightblue" d="M2084.85,-265.23C2052.5,-254.71 2011.69,-241.45 1981.31,-231.58"/>
<polygon fill="midnightblue" stroke="midnightblue" points="2084.01,-268.63 2094.6,-268.4 2086.17,-261.98 2084.01,-268.63"/>
</g>
<!-- Node11&#45;&gt;Node4 -->
<g id="edge17" class="edge">
<title>Node11&#45;&gt;Node4</title>
<path fill="none" stroke="midnightblue" d="M1937.85,-191.19C1936.32,-172.48 1930.92,-147.59 1914,-134 1863.69,-93.58 1432.31,-85.51 1258.31,-83.9"/>
<polygon fill="midnightblue" stroke="midnightblue" points="1934.36,-191.55 1938.36,-201.36 1941.35,-191.2 1934.36,-191.55"/>
</g>
<!-- Node12&#45;&gt;Node3 -->
<g id="edge20" class="edge">
<title>Node12&#45;&gt;Node3</title>
<path fill="none" stroke="midnightblue" d="M363.49,-194.31C373.84,-184.56 385.84,-173.26 395.06,-164.58"/>
<polygon fill="midnightblue" stroke="midnightblue" points="360.85,-191.99 355.97,-201.4 365.65,-197.09 360.85,-191.99"/>
</g>
<!-- Node12&#45;&gt;Node4 -->
<g id="edge23" class="edge">
<title>Node12&#45;&gt;Node4</title>
<path fill="none" stroke="midnightblue" d="M328.45,-192.01C320.66,-173.84 314.6,-149.28 329,-134 355.76,-105.62 912.01,-89.88 1113.74,-85.09"/>
<polygon fill="midnightblue" stroke="midnightblue" points="325.42,-193.78 332.84,-201.34 331.76,-190.81 325.42,-193.78"/>
</g>
<!-- Node12&#45;&gt;Node13 -->
<g id="edge21" class="edge">
<title>Node12&#45;&gt;Node13</title>
<path fill="none" stroke="midnightblue" d="M294.67,-197.68C267.57,-187.26 233.83,-174.28 208.6,-164.58"/>
<polygon fill="midnightblue" stroke="midnightblue" points="293.74,-201.07 304.33,-201.4 296.25,-194.54 293.74,-201.07"/>
</g>
<!-- Node13&#45;&gt;Node4 -->
<g id="edge22" class="edge">
<title>Node13&#45;&gt;Node4</title>
<path fill="none" stroke="midnightblue" d="M254.16,-134.44C255.45,-134.29 256.73,-134.14 258,-134 575.72,-98.68 957.49,-87.78 1113.87,-84.66"/>
<polygon fill="midnightblue" stroke="midnightblue" points="253.65,-130.98 244.18,-135.72 254.54,-137.92 253.65,-130.98"/>
</g>
<!-- Node14&#45;&gt;Node4 -->
<g id="edge26" class="edge">
<title>Node14&#45;&gt;Node4</title>
<path fill="none" stroke="midnightblue" d="M924,-261.14C916.41,-252.88 908.98,-242.81 905,-232 900.24,-219.07 899.17,-213.48 905,-201 924.62,-158.98 943.69,-155.07 985,-134 1025.22,-113.48 1074.32,-100.95 1113.91,-93.49"/>
<polygon fill="midnightblue" stroke="midnightblue" points="921.7,-263.8 931.2,-268.47 926.69,-258.89 921.7,-263.8"/>
</g>
<!-- Node14&#45;&gt;Node12 -->
<g id="edge25" class="edge">
<title>Node14&#45;&gt;Node12</title>
<path fill="none" stroke="midnightblue" d="M865.81,-273.7C746.44,-260.92 526.99,-237.42 413.39,-225.25"/>
<polygon fill="midnightblue" stroke="midnightblue" points="865.67,-277.2 875.99,-274.79 866.42,-270.24 865.67,-277.2"/>
</g>
<!-- Node15&#45;&gt;Node4 -->
<g id="edge29" class="edge">
<title>Node15&#45;&gt;Node4</title>
<path fill="none" stroke="midnightblue" d="M262.49,-258.73C257.27,-242.12 253.13,-219.67 260,-201 273.5,-164.31 282,-151.43 317,-134 387.43,-98.93 918.33,-87.5 1113.93,-84.46"/>
<polygon fill="midnightblue" stroke="midnightblue" points="259.2,-259.92 265.78,-268.22 265.81,-257.63 259.2,-259.92"/>
</g>
<!-- Node15&#45;&gt;Node12 -->
<g id="edge28" class="edge">
<title>Node15&#45;&gt;Node12</title>
<path fill="none" stroke="midnightblue" d="M294.49,-261.31C304.84,-251.56 316.84,-240.26 326.06,-231.58"/>
<polygon fill="midnightblue" stroke="midnightblue" points="291.85,-258.99 286.97,-268.4 296.65,-264.09 291.85,-258.99"/>
</g>
<!-- Node16&#45;&gt;Node4 -->
<g id="edge36" class="edge">
<title>Node16&#45;&gt;Node4</title>
<path fill="none" stroke="midnightblue" d="M500.24,-330.45C487.11,-322.74 474.45,-312.42 467,-299 460.31,-286.95 462.79,-281.12 467,-268 489.41,-198.25 499.24,-170.08 563,-134 609.95,-107.43 959.94,-91.66 1113.79,-85.95"/>
<polygon fill="midnightblue" stroke="midnightblue" points="498.88,-333.69 509.34,-335.37 502.21,-327.54 498.88,-333.69"/>
</g>
<!-- Node16&#45;&gt;Node15 -->
<g id="edge31" class="edge">
<title>Node16&#45;&gt;Node15</title>
<path fill="none" stroke="midnightblue" d="M478.44,-333.12C433.28,-322.48 375.02,-308.76 331.92,-298.61"/>
<polygon fill="midnightblue" stroke="midnightblue" points="477.92,-336.59 488.45,-335.48 479.52,-329.78 477.92,-336.59"/>
</g>
<!-- Node16&#45;&gt;Node17 -->
<g id="edge32" class="edge">
<title>Node16&#45;&gt;Node17</title>
<path fill="none" stroke="midnightblue" d="M548,-325.11C548,-316.15 548,-306.32 548,-298.58"/>
<polygon fill="midnightblue" stroke="midnightblue" points="544.5,-325.4 548,-335.4 551.5,-325.4 544.5,-325.4"/>
</g>
<!-- Node16&#45;&gt;Node18 -->
<g id="edge34" class="edge">
<title>Node16&#45;&gt;Node18</title>
<path fill="none" stroke="midnightblue" d="M592.75,-331.54C618.67,-321.14 650.84,-308.24 674.92,-298.58"/>
<polygon fill="midnightblue" stroke="midnightblue" points="591.13,-328.42 583.15,-335.4 593.74,-334.92 591.13,-328.42"/>
</g>
<!-- Node17&#45;&gt;Node4 -->
<g id="edge33" class="edge">
<title>Node17&#45;&gt;Node4</title>
<path fill="none" stroke="midnightblue" d="M547.08,-257.93C547.29,-224.22 553.24,-164.33 590,-134 629.62,-101.31 964.07,-88.98 1113.91,-85.07"/>
<polygon fill="midnightblue" stroke="midnightblue" points="543.58,-258.32 547.19,-268.29 550.58,-258.25 543.58,-258.32"/>
</g>
<!-- Node18&#45;&gt;Node4 -->
<g id="edge35" class="edge">
<title>Node18&#45;&gt;Node4</title>
<path fill="none" stroke="midnightblue" d="M678.32,-262.59C634.88,-232.93 566.37,-176.13 605,-134 638.76,-97.18 965.83,-87.12 1113.86,-84.44"/>
<polygon fill="midnightblue" stroke="midnightblue" points="676.64,-265.68 686.9,-268.32 680.53,-259.86 676.64,-265.68"/>
</g>
<!-- Node19&#45;&gt;Node4 -->
<g id="edge38" class="edge">
<title>Node19&#45;&gt;Node4</title>
<path fill="none" stroke="midnightblue" d="M768.31,-133.85C895.54,-115.03 1032.42,-99.6 1113.91,-90.92"/>
<polygon fill="midnightblue" stroke="midnightblue" points="767.76,-130.39 758.39,-135.33 768.8,-137.32 767.76,-130.39"/>
</g>
<!-- Node20&#45;&gt;Node4 -->
<g id="edge41" class="edge">
<title>Node20&#45;&gt;Node4</title>
<path fill="none" stroke="midnightblue" d="M930,-132.73C986.11,-121.94 1059.82,-107.77 1113.73,-97.4"/>
<polygon fill="midnightblue" stroke="midnightblue" points="929.25,-129.31 920.09,-134.64 930.58,-136.18 929.25,-129.31"/>
</g>
<!-- Node21&#45;&gt;Node4 -->
<g id="edge43" class="edge">
<title>Node21&#45;&gt;Node4</title>
<path fill="none" stroke="midnightblue" d="M985.4,-191.32C986.28,-173.26 990.45,-149.19 1005,-134 1032.98,-104.79 1076.32,-92.02 1113.58,-86.63"/>
<polygon fill="midnightblue" stroke="midnightblue" points="981.9,-191.33 985.22,-201.39 988.9,-191.46 981.9,-191.33"/>
</g>
<!-- Node22&#45;&gt;Node4 -->
<g id="edge45" class="edge">
<title>Node22&#45;&gt;Node4</title>
<path fill="none" stroke="midnightblue" d="M1116.41,-128.73C1131.88,-118.68 1150.33,-106.68 1164.34,-97.58"/>
<polygon fill="midnightblue" stroke="midnightblue" points="1114.18,-126.01 1107.7,-134.4 1117.99,-131.88 1114.18,-126.01"/>
</g>
<!-- Node23&#45;&gt;Node4 -->
<g id="edge47" class="edge">
<title>Node23&#45;&gt;Node4</title>
<path fill="none" stroke="midnightblue" d="M1186,-191.02C1186,-163.51 1186,-119.79 1186,-97.52"/>
<polygon fill="midnightblue" stroke="midnightblue" points="1182.5,-191.37 1186,-201.37 1189.5,-191.37 1182.5,-191.37"/>
</g>
<!-- Node24&#45;&gt;Node4 -->
<g id="edge51" class="edge">
<title>Node24&#45;&gt;Node4</title>
<path fill="none" stroke="midnightblue" d="M70.47,-191.23C70.75,-172.55 74.57,-147.67 91,-134 130.32,-101.29 875.94,-87.9 1113.76,-84.45"/>
<polygon fill="midnightblue" stroke="midnightblue" points="66.97,-191.45 70.65,-201.39 73.97,-191.33 66.97,-191.45"/>
</g>
<!-- Node24&#45;&gt;Node13 -->
<g id="edge50" class="edge">
<title>Node24&#45;&gt;Node13</title>
<path fill="none" stroke="midnightblue" d="M102.41,-195.73C117.88,-185.68 136.33,-173.68 150.34,-164.58"/>
<polygon fill="midnightblue" stroke="midnightblue" points="100.18,-193.01 93.7,-201.4 103.99,-198.88 100.18,-193.01"/>
</g>
<!-- Node25&#45;&gt;Node4 -->
<g id="edge53" class="edge">
<title>Node25&#45;&gt;Node4</title>
<path fill="none" stroke="midnightblue" d="M1248,-261.14C1255.59,-252.88 1263.02,-242.81 1267,-232 1271.76,-219.07 1271.09,-214.16 1267,-201 1259.93,-178.29 1217.9,-123.55 1197.33,-97.6"/>
<polygon fill="midnightblue" stroke="midnightblue" points="1245.31,-258.89 1240.8,-268.47 1250.3,-263.8 1245.31,-258.89"/>
</g>
<!-- Node26&#45;&gt;Node4 -->
<g id="edge58" class="edge">
<title>Node26&#45;&gt;Node4</title>
<path fill="none" stroke="midnightblue" d="M1334.39,-325.54C1323.53,-283.21 1296.36,-194 1248,-134 1236.5,-119.73 1220.38,-106.75 1207.45,-97.52"/>
<polygon fill="midnightblue" stroke="midnightblue" points="1330.99,-326.39 1336.8,-335.25 1337.78,-324.7 1330.99,-326.39"/>
</g>
<!-- Node26&#45;&gt;Node25 -->
<g id="edge55" class="edge">
<title>Node26&#45;&gt;Node25</title>
<path fill="none" stroke="midnightblue" d="M1305.73,-330.3C1287.58,-320.12 1265.68,-307.85 1249.12,-298.58"/>
<polygon fill="midnightblue" stroke="midnightblue" points="1304.4,-333.56 1314.83,-335.4 1307.82,-327.45 1304.4,-333.56"/>
</g>
<!-- Node26&#45;&gt;Node27 -->
<g id="edge56" class="edge">
<title>Node26&#45;&gt;Node27</title>
<path fill="none" stroke="midnightblue" d="M1366.28,-329.17C1379.12,-319.23 1394.26,-307.51 1405.81,-298.58"/>
<polygon fill="midnightblue" stroke="midnightblue" points="1363.99,-326.51 1358.23,-335.4 1368.28,-332.04 1363.99,-326.51"/>
</g>
<!-- Node27&#45;&gt;Node4 -->
<g id="edge57" class="edge">
<title>Node27&#45;&gt;Node4</title>
<path fill="none" stroke="midnightblue" d="M1405.23,-260.1C1378.61,-229.24 1327.41,-173.02 1276,-134 1257.16,-119.7 1233.82,-106.72 1215.63,-97.5"/>
<polygon fill="midnightblue" stroke="midnightblue" points="1402.9,-262.77 1412.06,-268.1 1408.22,-258.22 1402.9,-262.77"/>
</g>
<!-- Node29&#45;&gt;Node4 -->
<g id="edge63" class="edge">
<title>Node29&#45;&gt;Node4</title>
<path fill="none" stroke="midnightblue" d="M1343.85,-131.44C1309.16,-120.91 1265.18,-107.55 1232.46,-97.61"/>
<polygon fill="midnightblue" stroke="midnightblue" points="1343.24,-134.92 1353.83,-134.48 1345.28,-128.22 1343.24,-134.92"/>
</g>
<!-- Node30&#45;&gt;Node4 -->
<g id="edge65" class="edge">
<title>Node30&#45;&gt;Node4</title>
<path fill="none" stroke="midnightblue" d="M1501.04,-191.2C1500.43,-172.88 1496.4,-148.51 1481,-134 1449.61,-104.43 1334.89,-91.97 1258.11,-86.87"/>
<polygon fill="midnightblue" stroke="midnightblue" points="1497.54,-191.43 1501.06,-201.42 1504.54,-191.42 1497.54,-191.43"/>
</g>
<!-- Node31&#45;&gt;Node4 -->
<g id="edge68" class="edge">
<title>Node31&#45;&gt;Node4</title>
<path fill="none" stroke="midnightblue" d="M1517.81,-134.62C1516.53,-134.41 1515.26,-134.2 1514,-134 1425.98,-119.8 1324.52,-104.32 1258.03,-94.29"/>
<polygon fill="midnightblue" stroke="midnightblue" points="1517.32,-138.08 1527.75,-136.24 1518.45,-131.17 1517.32,-138.08"/>
</g>
<!-- Node32&#45;&gt;Node4 -->
<g id="edge71" class="edge">
<title>Node32&#45;&gt;Node4</title>
<path fill="none" stroke="midnightblue" d="M1701.31,-191.16C1700.88,-172.65 1696.95,-148.04 1681,-134 1649.91,-106.64 1387.68,-91.93 1258.01,-86.28"/>
<polygon fill="midnightblue" stroke="midnightblue" points="1697.81,-191.2 1701.23,-201.23 1704.81,-191.26 1697.81,-191.2"/>
</g>
<!-- Node33&#45;&gt;Node4 -->
<g id="edge73" class="edge">
<title>Node33&#45;&gt;Node4</title>
<path fill="none" stroke="midnightblue" d="M1717.83,-134.52C1716.54,-134.34 1715.27,-134.17 1714,-134 1551.73,-112.59 1360.25,-96.56 1258.35,-88.77"/>
<polygon fill="midnightblue" stroke="midnightblue" points="1717.4,-137.99 1727.8,-135.94 1718.39,-131.06 1717.4,-137.99"/>
</g>
<!-- Node34&#45;&gt;Node4 -->
<g id="edge75" class="edge">
<title>Node34&#45;&gt;Node4</title>
<path fill="none" stroke="midnightblue" d="M1787.87,-326.25C1803.13,-296.71 1830.8,-244.35 1857,-201 1866.95,-184.54 1875.43,-183.4 1881,-165 1884.99,-151.81 1890.38,-144.09 1881,-134 1839.24,-89.1 1427.69,-83.64 1258.28,-83.32"/>
<polygon fill="midnightblue" stroke="midnightblue" points="1784.65,-324.85 1783.19,-335.34 1790.87,-328.05 1784.65,-324.85"/>
</g>
<!-- Node35&#45;&gt;Node4 -->
<g id="edge77" class="edge">
<title>Node35&#45;&gt;Node4</title>
<path fill="none" stroke="midnightblue" d="M1992.27,-327.01C2011.67,-297.19 2039.12,-243.42 2019,-201 1998.83,-158.48 1980.77,-151.29 1937,-134 1814.85,-85.76 1421.54,-82.14 1258.18,-82.81"/>
<polygon fill="midnightblue" stroke="midnightblue" points="1989.26,-325.2 1986.56,-335.45 1995.06,-329.12 1989.26,-325.2"/>
</g>
</g>
</svg>
