<?xml version="1.0" encoding="UTF-8" standalone="no"?>
<!DOCTYPE svg PUBLIC "-//W3C//DTD SVG 1.1//EN"
 "http://www.w3.org/Graphics/SVG/1.1/DTD/svg11.dtd">
<!-- Generated by graphviz version 2.43.0 (0)
 -->
<!-- Title: /home/ram/OmniTemplate/io.hpp Pages: 1 -->
<svg width="2307pt" height="441pt"
 viewBox="0.00 0.00 2306.77 441.00" xmlns="http://www.w3.org/2000/svg" xmlns:xlink="http://www.w3.org/1999/xlink">
<g id="graph0" class="graph" transform="scale(1 1) rotate(0) translate(4 437)">
<title>/home/ram/OmniTemplate/io.hpp</title>
<polygon fill="white" stroke="transparent" points="-4,4 -4,-437 2302.77,-437 2302.77,4 -4,4"/>
<!-- Node1 -->
<g id="node1" class="node">
<title>Node1</title>
<g id="a_node1"><a xlink:title=" ">
<polygon fill="#bfbfbf" stroke="black" points="1066.77,-402.5 1066.77,-432.5 1210.77,-432.5 1210.77,-402.5 1066.77,-402.5"/>
<text text-anchor="start" x="1074.77" y="-420.5" font-family="Helvetica,sans-Serif" font-size="10.00">/home/ram/OmniTemplate</text>
<text text-anchor="middle" x="1138.77" y="-409.5" font-family="Helvetica,sans-Serif" font-size="10.00">/io.hpp</text>
</a>
</g>
</g>
<!-- Node2 -->
<g id="node2" class="node">
<title>Node2</title>
<g id="a_node2"><a xlink:href="core_8hpp.html" target="_top" xlink:title=" ">
<polygon fill="white" stroke="black" points="1066.77,-335.5 1066.77,-365.5 1210.77,-365.5 1210.77,-335.5 1066.77,-335.5"/>
<text text-anchor="start" x="1074.77" y="-353.5" font-family="Helvetica,sans-Serif" font-size="10.00">/home/ram/OmniTemplate</text>
<text text-anchor="middle" x="1138.77" y="-342.5" font-family="Helvetica,sans-Serif" font-size="10.00">/core.hpp</text>
</a>
</g>
</g>
<!-- Node1&#45;&gt;Node2 -->
<g id="edge1" class="edge">
<title>Node1&#45;&gt;Node2</title>
<path fill="none" stroke="midnightblue" d="M1132.23,-392.4C1131.78,-383.37 1132.07,-373.41 1133.1,-365.58"/>
<polygon fill="midnightblue" stroke="midnightblue" points="1128.74,-392.74 1133.09,-402.4 1135.72,-392.13 1128.74,-392.74"/>
</g>
<!-- Node2&#45;&gt;Node1 -->
<g id="edge7" class="edge">
<title>Node2&#45;&gt;Node1</title>
<path fill="none" stroke="midnightblue" d="M1145.32,-375.57C1145.77,-384.6 1145.48,-394.56 1144.45,-402.4"/>
<polygon fill="midnightblue" stroke="midnightblue" points="1148.8,-375.24 1144.45,-365.58 1141.83,-375.84 1148.8,-375.24"/>
</g>
<!-- Node3 -->
<g id="node3" class="node">
<title>Node3</title>
<g id="a_node3"><a xlink:href="2sat_8hpp.html" target="_top" xlink:title=" ">
<polygon fill="white" stroke="black" points="110.77,-134.5 110.77,-164.5 254.77,-164.5 254.77,-134.5 110.77,-134.5"/>
<text text-anchor="start" x="118.77" y="-152.5" font-family="Helvetica,sans-Serif" font-size="10.00">/home/ram/OmniTemplate</text>
<text text-anchor="middle" x="182.77" y="-141.5" font-family="Helvetica,sans-Serif" font-size="10.00">/2sat.hpp</text>
</a>
</g>
</g>
<!-- Node2&#45;&gt;Node3 -->
<g id="edge2" class="edge">
<title>Node2&#45;&gt;Node3</title>
<path fill="none" stroke="midnightblue" d="M1056.28,-348.79C806.74,-346.23 74.76,-335.63 39.77,-299 -7.57,-249.43 95.94,-190.93 151.1,-164.59"/>
<polygon fill="midnightblue" stroke="midnightblue" points="1056.34,-352.29 1066.38,-348.89 1056.42,-345.29 1056.34,-352.29"/>
</g>
<!-- Node4 -->
<g id="node4" class="node">
<title>Node4</title>
<g id="a_node4"><a xlink:href="template_8hpp.html" target="_top" xlink:title=" ">
<polygon fill="white" stroke="black" points="898.77,-67.5 898.77,-97.5 1042.77,-97.5 1042.77,-67.5 898.77,-67.5"/>
<text text-anchor="start" x="906.77" y="-85.5" font-family="Helvetica,sans-Serif" font-size="10.00">/home/ram/OmniTemplate</text>
<text text-anchor="middle" x="970.77" y="-74.5" font-family="Helvetica,sans-Serif" font-size="10.00">/template.hpp</text>
</a>
</g>
</g>
<!-- Node2&#45;&gt;Node4 -->
<g id="edge51" class="edge">
<title>Node2&#45;&gt;Node4</title>
<path fill="none" stroke="midnightblue" d="M1056.4,-348.85C804.5,-346.45 59.34,-336.22 23.77,-299 -30.14,-242.59 17.26,-174.8 83.77,-134 152.43,-91.88 699.54,-84.88 898.65,-83.72"/>
<polygon fill="midnightblue" stroke="midnightblue" points="1056.56,-352.35 1066.59,-348.94 1056.62,-345.35 1056.56,-352.35"/>
</g>
<!-- Node6 -->
<g id="node6" class="node">
<title>Node6</title>
<g id="a_node6"><a xlink:href="my__int_8hpp.html" target="_top" xlink:title=" ">
<polygon fill="white" stroke="black" points="1954.77,-268.5 1954.77,-298.5 2098.77,-298.5 2098.77,-268.5 1954.77,-268.5"/>
<text text-anchor="start" x="1962.77" y="-286.5" font-family="Helvetica,sans-Serif" font-size="10.00">/home/ram/OmniTemplate</text>
<text text-anchor="middle" x="2026.77" y="-275.5" font-family="Helvetica,sans-Serif" font-size="10.00">/my_int.hpp</text>
</a>
</g>
</g>
<!-- Node2&#45;&gt;Node6 -->
<g id="edge5" class="edge">
<title>Node2&#45;&gt;Node6</title>
<path fill="none" stroke="midnightblue" d="M1221.01,-347.3C1366.04,-342.85 1676.3,-330.36 1936.77,-299 1942.59,-298.3 1948.62,-297.45 1954.68,-296.52"/>
<polygon fill="midnightblue" stroke="midnightblue" points="1220.75,-343.81 1210.86,-347.61 1220.96,-350.81 1220.75,-343.81"/>
</g>
<!-- Node7 -->
<g id="node7" class="node">
<title>Node7</title>
<g id="a_node7"><a xlink:href="range_8hpp.html" target="_top" xlink:title=" ">
<polygon fill="white" stroke="black" points="2154.77,-268.5 2154.77,-298.5 2298.77,-298.5 2298.77,-268.5 2154.77,-268.5"/>
<text text-anchor="start" x="2162.77" y="-286.5" font-family="Helvetica,sans-Serif" font-size="10.00">/home/ram/OmniTemplate</text>
<text text-anchor="middle" x="2226.77" y="-275.5" font-family="Helvetica,sans-Serif" font-size="10.00">/range.hpp</text>
</a>
</g>
</g>
<!-- Node2&#45;&gt;Node7 -->
<g id="edge8" class="edge">
<title>Node2&#45;&gt;Node7</title>
<path fill="none" stroke="midnightblue" d="M1221.04,-348.52C1391.45,-345.81 1794.95,-335.76 2131.77,-299 2139.15,-298.2 2146.85,-297.17 2154.55,-296.03"/>
<polygon fill="midnightblue" stroke="midnightblue" points="1220.84,-345.02 1210.89,-348.68 1220.94,-352.02 1220.84,-345.02"/>
</g>
<!-- Node9 -->
<g id="node9" class="node">
<title>Node9</title>
<g id="a_node9"><a xlink:href="utility_8hpp.html" target="_top" xlink:title=" ">
<polygon fill="white" stroke="black" points="410.77,-268.5 410.77,-298.5 554.77,-298.5 554.77,-268.5 410.77,-268.5"/>
<text text-anchor="start" x="418.77" y="-286.5" font-family="Helvetica,sans-Serif" font-size="10.00">/home/ram/OmniTemplate</text>
<text text-anchor="middle" x="482.77" y="-275.5" font-family="Helvetica,sans-Serif" font-size="10.00">/utility.hpp</text>
</a>
</g>
</g>
<!-- Node2&#45;&gt;Node9 -->
<g id="edge12" class="edge">
<title>Node2&#45;&gt;Node9</title>
<path fill="none" stroke="midnightblue" d="M1056.42,-344.65C943.79,-337.26 735.83,-321.61 559.77,-299 558.27,-298.81 556.76,-298.61 555.23,-298.4"/>
<polygon fill="midnightblue" stroke="midnightblue" points="1056.48,-348.16 1066.69,-345.32 1056.93,-341.17 1056.48,-348.16"/>
</g>
<!-- Node10 -->
<g id="node10" class="node">
<title>Node10</title>
<g id="a_node10"><a xlink:href="graph__theory_8hpp.html" target="_top" xlink:title=" ">
<polygon fill="white" stroke="black" points="148.77,-201.5 148.77,-231.5 292.77,-231.5 292.77,-201.5 148.77,-201.5"/>
<text text-anchor="start" x="156.77" y="-219.5" font-family="Helvetica,sans-Serif" font-size="10.00">/home/ram/OmniTemplate</text>
<text text-anchor="middle" x="220.77" y="-208.5" font-family="Helvetica,sans-Serif" font-size="10.00">/graph_theory.hpp</text>
</a>
</g>
</g>
<!-- Node2&#45;&gt;Node10 -->
<g id="edge15" class="edge">
<title>Node2&#45;&gt;Node10</title>
<path fill="none" stroke="midnightblue" d="M1056.64,-347.54C840.57,-342.02 270.77,-325.05 239.77,-299 220.2,-282.55 218.56,-250.2 219.44,-231.58"/>
<polygon fill="midnightblue" stroke="midnightblue" points="1056.57,-351.03 1066.65,-347.79 1056.75,-344.04 1056.57,-351.03"/>
</g>
<!-- Node11 -->
<g id="node11" class="node">
<title>Node11</title>
<g id="a_node11"><a xlink:href="dsu_8hpp.html" target="_top" xlink:title=" ">
<polygon fill="white" stroke="black" points="48.77,-268.5 48.77,-298.5 192.77,-298.5 192.77,-268.5 48.77,-268.5"/>
<text text-anchor="start" x="56.77" y="-286.5" font-family="Helvetica,sans-Serif" font-size="10.00">/home/ram/OmniTemplate</text>
<text text-anchor="middle" x="120.77" y="-275.5" font-family="Helvetica,sans-Serif" font-size="10.00">/dsu.hpp</text>
</a>
</g>
</g>
<!-- Node2&#45;&gt;Node11 -->
<g id="edge18" class="edge">
<title>Node2&#45;&gt;Node11</title>
<path fill="none" stroke="midnightblue" d="M1056.21,-348.15C893.31,-344.8 519.2,-333.69 206.77,-299 202.26,-298.5 197.62,-297.92 192.95,-297.28"/>
<polygon fill="midnightblue" stroke="midnightblue" points="1056.56,-351.66 1066.63,-348.36 1056.7,-344.66 1056.56,-351.66"/>
</g>
<!-- Node12 -->
<g id="node12" class="node">
<title>Node12</title>
<g id="a_node12"><a xlink:href="linear__algebra_8hpp.html" target="_top" xlink:title=" ">
<polygon fill="white" stroke="black" points="248.77,-268.5 248.77,-298.5 392.77,-298.5 392.77,-268.5 248.77,-268.5"/>
<text text-anchor="start" x="256.77" y="-286.5" font-family="Helvetica,sans-Serif" font-size="10.00">/home/ram/OmniTemplate</text>
<text text-anchor="middle" x="320.77" y="-275.5" font-family="Helvetica,sans-Serif" font-size="10.00">/linear_algebra.hpp</text>
</a>
</g>
</g>
<!-- Node2&#45;&gt;Node12 -->
<g id="edge21" class="edge">
<title>Node2&#45;&gt;Node12</title>
<path fill="none" stroke="midnightblue" d="M1056.23,-346.77C919.65,-341.6 638.25,-328.18 401.77,-299 398.94,-298.65 396.05,-298.27 393.14,-297.86"/>
<polygon fill="midnightblue" stroke="midnightblue" points="1056.48,-350.28 1066.6,-347.16 1056.74,-343.29 1056.48,-350.28"/>
</g>
<!-- Node13 -->
<g id="node13" class="node">
<title>Node13</title>
<g id="a_node13"><a xlink:href="big__integer_8hpp.html" target="_top" xlink:title=" ">
<polygon fill="white" stroke="black" points="386.77,-134.5 386.77,-164.5 530.77,-164.5 530.77,-134.5 386.77,-134.5"/>
<text text-anchor="start" x="394.77" y="-152.5" font-family="Helvetica,sans-Serif" font-size="10.00">/home/ram/OmniTemplate</text>
<text text-anchor="middle" x="458.77" y="-141.5" font-family="Helvetica,sans-Serif" font-size="10.00">/big_integer.hpp</text>
</a>
</g>
</g>
<!-- Node2&#45;&gt;Node13 -->
<g id="edge24" class="edge">
<title>Node2&#45;&gt;Node13</title>
<path fill="none" stroke="midnightblue" d="M1056.5,-347.14C933.63,-342.64 708.72,-330.29 634.77,-299 561.51,-267.99 495.8,-195.46 470.17,-164.7"/>
<polygon fill="midnightblue" stroke="midnightblue" points="1056.5,-350.65 1066.62,-347.51 1056.75,-343.65 1056.5,-350.65"/>
</g>
<!-- Node14 -->
<g id="node14" class="node">
<title>Node14</title>
<g id="a_node14"><a xlink:href="combinatorics_8hpp.html" target="_top" xlink:title=" ">
<polygon fill="white" stroke="black" points="548.77,-134.5 548.77,-164.5 692.77,-164.5 692.77,-134.5 548.77,-134.5"/>
<text text-anchor="start" x="556.77" y="-152.5" font-family="Helvetica,sans-Serif" font-size="10.00">/home/ram/OmniTemplate</text>
<text text-anchor="middle" x="620.77" y="-141.5" font-family="Helvetica,sans-Serif" font-size="10.00">/combinatorics.hpp</text>
</a>
</g>
</g>
<!-- Node2&#45;&gt;Node14 -->
<g id="edge26" class="edge">
<title>Node2&#45;&gt;Node14</title>
<path fill="none" stroke="midnightblue" d="M1056.59,-348.54C972.37,-345.45 838.56,-334.67 728.77,-299 670.31,-280.01 638.98,-284.96 607.77,-232 595.33,-210.89 605.31,-181.62 613.31,-164.51"/>
<polygon fill="midnightblue" stroke="midnightblue" points="1056.5,-352.03 1066.62,-348.87 1056.74,-345.04 1056.5,-352.03"/>
</g>
<!-- Node15 -->
<g id="node15" class="node">
<title>Node15</title>
<g id="a_node15"><a xlink:href="coroutine_8hpp.html" target="_top" xlink:title=" ">
<polygon fill="white" stroke="black" points="616.77,-201.5 616.77,-231.5 760.77,-231.5 760.77,-201.5 616.77,-201.5"/>
<text text-anchor="start" x="624.77" y="-219.5" font-family="Helvetica,sans-Serif" font-size="10.00">/home/ram/OmniTemplate</text>
<text text-anchor="middle" x="688.77" y="-208.5" font-family="Helvetica,sans-Serif" font-size="10.00">/coroutine.hpp</text>
</a>
</g>
</g>
<!-- Node2&#45;&gt;Node15 -->
<g id="edge28" class="edge">
<title>Node2&#45;&gt;Node15</title>
<path fill="none" stroke="midnightblue" d="M1056.35,-343.93C964.66,-336.71 823.06,-322.22 774.77,-299 742.15,-283.31 713.73,-250.67 699.16,-231.81"/>
<polygon fill="midnightblue" stroke="midnightblue" points="1056.21,-347.43 1066.45,-344.71 1056.75,-340.45 1056.21,-347.43"/>
</g>
<!-- Node16 -->
<g id="node16" class="node">
<title>Node16</title>
<g id="a_node16"><a xlink:href="fft_8hpp.html" target="_top" xlink:title=" ">
<polygon fill="white" stroke="black" points="748.77,-134.5 748.77,-164.5 892.77,-164.5 892.77,-134.5 748.77,-134.5"/>
<text text-anchor="start" x="756.77" y="-152.5" font-family="Helvetica,sans-Serif" font-size="10.00">/home/ram/OmniTemplate</text>
<text text-anchor="middle" x="820.77" y="-141.5" font-family="Helvetica,sans-Serif" font-size="10.00">/fft.hpp</text>
</a>
</g>
</g>
<!-- Node2&#45;&gt;Node16 -->
<g id="edge30" class="edge">
<title>Node2&#45;&gt;Node16</title>
<path fill="none" stroke="midnightblue" d="M1056.43,-347.79C975.82,-341.02 858.01,-316.25 807.77,-232 795.22,-210.96 805.24,-181.66 813.27,-164.53"/>
<polygon fill="midnightblue" stroke="midnightblue" points="1056.33,-351.29 1066.57,-348.56 1056.86,-344.31 1056.33,-351.29"/>
</g>
<!-- Node17 -->
<g id="node17" class="node">
<title>Node17</title>
<g id="a_node17"><a xlink:href="geometry_8hpp.html" target="_top" xlink:title=" ">
<polygon fill="white" stroke="black" points="816.77,-201.5 816.77,-231.5 960.77,-231.5 960.77,-201.5 816.77,-201.5"/>
<text text-anchor="start" x="824.77" y="-219.5" font-family="Helvetica,sans-Serif" font-size="10.00">/home/ram/OmniTemplate</text>
<text text-anchor="middle" x="888.77" y="-208.5" font-family="Helvetica,sans-Serif" font-size="10.00">/geometry.hpp</text>
</a>
</g>
</g>
<!-- Node2&#45;&gt;Node17 -->
<g id="edge32" class="edge">
<title>Node2&#45;&gt;Node17</title>
<path fill="none" stroke="midnightblue" d="M1058.74,-332.77C1030.99,-324.96 1000.43,-313.99 974.77,-299 943.87,-280.95 915.24,-249.78 900.08,-231.67"/>
<polygon fill="midnightblue" stroke="midnightblue" points="1057.85,-336.16 1068.42,-335.41 1059.69,-329.41 1057.85,-336.16"/>
</g>
<!-- Node18 -->
<g id="node18" class="node">
<title>Node18</title>
<g id="a_node18"><a xlink:href="main_8hpp.html" target="_top" xlink:title=" ">
<polygon fill="white" stroke="black" points="948.77,-134.5 948.77,-164.5 1092.77,-164.5 1092.77,-134.5 948.77,-134.5"/>
<text text-anchor="start" x="956.77" y="-152.5" font-family="Helvetica,sans-Serif" font-size="10.00">/home/ram/OmniTemplate</text>
<text text-anchor="middle" x="1020.77" y="-141.5" font-family="Helvetica,sans-Serif" font-size="10.00">/main.hpp</text>
</a>
</g>
</g>
<!-- Node2&#45;&gt;Node18 -->
<g id="edge34" class="edge">
<title>Node2&#45;&gt;Node18</title>
<path fill="none" stroke="midnightblue" d="M1056.96,-334.78C1037.72,-327.3 1019.45,-316.01 1007.77,-299 979.22,-257.39 1001.71,-193.01 1014.05,-164.69"/>
<polygon fill="midnightblue" stroke="midnightblue" points="1055.86,-338.1 1066.46,-338.15 1058.21,-331.51 1055.86,-338.1"/>
</g>
<!-- Node19 -->
<g id="node19" class="node">
<title>Node19</title>
<g id="a_node19"><a xlink:href="modulo_8hpp.html" target="_top" xlink:title=" ">
<polygon fill="white" stroke="black" points="1016.77,-268.5 1016.77,-298.5 1160.77,-298.5 1160.77,-268.5 1016.77,-268.5"/>
<text text-anchor="start" x="1024.77" y="-286.5" font-family="Helvetica,sans-Serif" font-size="10.00">/home/ram/OmniTemplate</text>
<text text-anchor="middle" x="1088.77" y="-275.5" font-family="Helvetica,sans-Serif" font-size="10.00">/modulo.hpp</text>
</a>
</g>
</g>
<!-- Node2&#45;&gt;Node19 -->
<g id="edge36" class="edge">
<title>Node2&#45;&gt;Node19</title>
<path fill="none" stroke="midnightblue" d="M1121.81,-327.45C1114.46,-317.9 1106.08,-307 1099.6,-298.58"/>
<polygon fill="midnightblue" stroke="midnightblue" points="1119.05,-329.6 1127.92,-335.4 1124.6,-325.34 1119.05,-329.6"/>
</g>
<!-- Node20 -->
<g id="node20" class="node">
<title>Node20</title>
<g id="a_node20"><a xlink:href="number__theory_8hpp.html" target="_top" xlink:title=" ">
<polygon fill="white" stroke="black" points="1054.77,-201.5 1054.77,-231.5 1198.77,-231.5 1198.77,-201.5 1054.77,-201.5"/>
<text text-anchor="start" x="1062.77" y="-219.5" font-family="Helvetica,sans-Serif" font-size="10.00">/home/ram/OmniTemplate</text>
<text text-anchor="middle" x="1126.77" y="-208.5" font-family="Helvetica,sans-Serif" font-size="10.00">/number_theory.hpp</text>
</a>
</g>
</g>
<!-- Node2&#45;&gt;Node20 -->
<g id="edge40" class="edge">
<title>Node2&#45;&gt;Node20</title>
<path fill="none" stroke="midnightblue" d="M1156.4,-327.03C1167.01,-310.69 1177.14,-288.02 1169.77,-268 1164.52,-253.74 1153.25,-240.76 1143.57,-231.53"/>
<polygon fill="midnightblue" stroke="midnightblue" points="1153.42,-325.19 1150.57,-335.4 1159.16,-329.2 1153.42,-325.19"/>
</g>
<!-- Node21 -->
<g id="node21" class="node">
<title>Node21</title>
<g id="a_node21"><a xlink:href="persistent_8hpp.html" target="_top" xlink:title=" ">
<polygon fill="white" stroke="black" points="1216.77,-201.5 1216.77,-231.5 1360.77,-231.5 1360.77,-201.5 1216.77,-201.5"/>
<text text-anchor="start" x="1224.77" y="-219.5" font-family="Helvetica,sans-Serif" font-size="10.00">/home/ram/OmniTemplate</text>
<text text-anchor="middle" x="1288.77" y="-208.5" font-family="Helvetica,sans-Serif" font-size="10.00">/persistent.hpp</text>
</a>
</g>
</g>
<!-- Node2&#45;&gt;Node21 -->
<g id="edge41" class="edge">
<title>Node2&#45;&gt;Node21</title>
<path fill="none" stroke="midnightblue" d="M1162.53,-328.59C1193.39,-301.44 1246.41,-254.78 1272.84,-231.52"/>
<polygon fill="midnightblue" stroke="midnightblue" points="1160.02,-326.14 1154.83,-335.37 1164.64,-331.39 1160.02,-326.14"/>
</g>
<!-- Node22 -->
<g id="node22" class="node">
<title>Node22</title>
<g id="a_node22"><a xlink:href="queue_8hpp.html" target="_top" xlink:title=" ">
<polygon fill="white" stroke="black" points="1247.77,-134.5 1247.77,-164.5 1391.77,-164.5 1391.77,-134.5 1247.77,-134.5"/>
<text text-anchor="start" x="1255.77" y="-152.5" font-family="Helvetica,sans-Serif" font-size="10.00">/home/ram/OmniTemplate</text>
<text text-anchor="middle" x="1319.77" y="-141.5" font-family="Helvetica,sans-Serif" font-size="10.00">/queue.hpp</text>
</a>
</g>
</g>
<!-- Node2&#45;&gt;Node22 -->
<g id="edge43" class="edge">
<title>Node2&#45;&gt;Node22</title>
<path fill="none" stroke="midnightblue" d="M1215.89,-332.64C1269.25,-316.52 1336.45,-286.34 1369.77,-232 1384.27,-208.37 1358.57,-180.89 1338.96,-164.63"/>
<polygon fill="midnightblue" stroke="midnightblue" points="1214.72,-329.34 1206.09,-335.49 1216.67,-336.06 1214.72,-329.34"/>
</g>
<!-- Node23 -->
<g id="node23" class="node">
<title>Node23</title>
<g id="a_node23"><a xlink:href="segment__tree_8hpp.html" target="_top" xlink:title=" ">
<polygon fill="white" stroke="black" points="1416.77,-201.5 1416.77,-231.5 1560.77,-231.5 1560.77,-201.5 1416.77,-201.5"/>
<text text-anchor="start" x="1424.77" y="-219.5" font-family="Helvetica,sans-Serif" font-size="10.00">/home/ram/OmniTemplate</text>
<text text-anchor="middle" x="1488.77" y="-208.5" font-family="Helvetica,sans-Serif" font-size="10.00">/segment_tree.hpp</text>
</a>
</g>
</g>
<!-- Node2&#45;&gt;Node23 -->
<g id="edge45" class="edge">
<title>Node2&#45;&gt;Node23</title>
<path fill="none" stroke="midnightblue" d="M1221.2,-345.7C1275.34,-340.4 1346.31,-327.95 1402.77,-299 1434.99,-282.48 1463.56,-250.16 1478.26,-231.56"/>
<polygon fill="midnightblue" stroke="midnightblue" points="1220.6,-342.24 1210.96,-346.64 1221.23,-349.21 1220.6,-342.24"/>
</g>
<!-- Node24 -->
<g id="node24" class="node">
<title>Node24</title>
<g id="a_node24"><a xlink:href="splay__tree_8hpp.html" target="_top" xlink:title=" ">
<polygon fill="white" stroke="black" points="1453.77,-134.5 1453.77,-164.5 1597.77,-164.5 1597.77,-134.5 1453.77,-134.5"/>
<text text-anchor="start" x="1461.77" y="-152.5" font-family="Helvetica,sans-Serif" font-size="10.00">/home/ram/OmniTemplate</text>
<text text-anchor="middle" x="1525.77" y="-141.5" font-family="Helvetica,sans-Serif" font-size="10.00">/splay_tree.hpp</text>
</a>
</g>
</g>
<!-- Node2&#45;&gt;Node24 -->
<g id="edge47" class="edge">
<title>Node2&#45;&gt;Node24</title>
<path fill="none" stroke="midnightblue" d="M1221.3,-340.19C1335.88,-325.22 1533.25,-291.29 1569.77,-232 1583.94,-209 1560.56,-181.09 1542.82,-164.62"/>
<polygon fill="midnightblue" stroke="midnightblue" points="1220.63,-336.75 1211.16,-341.49 1221.52,-343.69 1220.63,-336.75"/>
</g>
<!-- Node25 -->
<g id="node25" class="node">
<title>Node25</title>
<g id="a_node25"><a xlink:href="string_8hpp.html" target="_top" xlink:title=" ">
<polygon fill="white" stroke="black" points="1616.77,-201.5 1616.77,-231.5 1760.77,-231.5 1760.77,-201.5 1616.77,-201.5"/>
<text text-anchor="start" x="1624.77" y="-219.5" font-family="Helvetica,sans-Serif" font-size="10.00">/home/ram/OmniTemplate</text>
<text text-anchor="middle" x="1688.77" y="-208.5" font-family="Helvetica,sans-Serif" font-size="10.00">/string.hpp</text>
</a>
</g>
</g>
<!-- Node2&#45;&gt;Node25 -->
<g id="edge49" class="edge">
<title>Node2&#45;&gt;Node25</title>
<path fill="none" stroke="midnightblue" d="M1221.24,-349.77C1304.31,-347.62 1434.97,-337.52 1540.77,-299 1564.64,-290.31 1566.74,-280.63 1588.77,-268 1611.89,-254.75 1638.9,-241.22 1659.02,-231.5"/>
<polygon fill="midnightblue" stroke="midnightblue" points="1221.02,-346.27 1211.1,-350 1221.18,-353.27 1221.02,-346.27"/>
</g>
<!-- Node26 -->
<g id="node26" class="node">
<title>Node26</title>
<g id="a_node26"><a xlink:href="time_8hpp.html" target="_top" xlink:title=" ">
<polygon fill="white" stroke="black" points="1654.77,-134.5 1654.77,-164.5 1798.77,-164.5 1798.77,-134.5 1654.77,-134.5"/>
<text text-anchor="start" x="1662.77" y="-152.5" font-family="Helvetica,sans-Serif" font-size="10.00">/home/ram/OmniTemplate</text>
<text text-anchor="middle" x="1726.77" y="-141.5" font-family="Helvetica,sans-Serif" font-size="10.00">/time.hpp</text>
</a>
</g>
</g>
<!-- Node2&#45;&gt;Node26 -->
<g id="edge52" class="edge">
<title>Node2&#45;&gt;Node26</title>
<path fill="none" stroke="midnightblue" d="M1221.31,-345.01C1330.2,-338.23 1515.48,-323.51 1578.77,-299 1600.74,-290.49 1600.37,-277.86 1621.77,-268 1683.26,-239.68 1727.94,-285.23 1769.77,-232 1786.58,-210.62 1762.1,-181.69 1743.76,-164.67"/>
<polygon fill="midnightblue" stroke="midnightblue" points="1220.78,-341.54 1211.02,-345.64 1221.21,-348.52 1220.78,-341.54"/>
</g>
<!-- Node27 -->
<g id="node27" class="node">
<title>Node27</title>
<g id="a_node27"><a xlink:href="tree_8hpp.html" target="_top" xlink:title=" ">
<polygon fill="white" stroke="black" points="1630.77,-268.5 1630.77,-298.5 1774.77,-298.5 1774.77,-268.5 1630.77,-268.5"/>
<text text-anchor="start" x="1638.77" y="-286.5" font-family="Helvetica,sans-Serif" font-size="10.00">/home/ram/OmniTemplate</text>
<text text-anchor="middle" x="1702.77" y="-275.5" font-family="Helvetica,sans-Serif" font-size="10.00">/tree.hpp</text>
</a>
</g>
</g>
<!-- Node2&#45;&gt;Node27 -->
<g id="edge54" class="edge">
<title>Node2&#45;&gt;Node27</title>
<path fill="none" stroke="midnightblue" d="M1221.17,-342.35C1316.58,-333.72 1478.37,-317.96 1616.77,-299 1621.27,-298.38 1625.9,-297.71 1630.56,-297.01"/>
<polygon fill="midnightblue" stroke="midnightblue" points="1220.66,-338.89 1211.01,-343.27 1221.29,-345.86 1220.66,-338.89"/>
</g>
<!-- Node28 -->
<g id="node28" class="node">
<title>Node28</title>
<g id="a_node28"><a xlink:href="treap_8hpp.html" target="_top" xlink:title=" ">
<polygon fill="white" stroke="black" points="1792.77,-268.5 1792.77,-298.5 1936.77,-298.5 1936.77,-268.5 1792.77,-268.5"/>
<text text-anchor="start" x="1800.77" y="-286.5" font-family="Helvetica,sans-Serif" font-size="10.00">/home/ram/OmniTemplate</text>
<text text-anchor="middle" x="1864.77" y="-275.5" font-family="Helvetica,sans-Serif" font-size="10.00">/treap.hpp</text>
</a>
</g>
</g>
<!-- Node2&#45;&gt;Node28 -->
<g id="edge56" class="edge">
<title>Node2&#45;&gt;Node28</title>
<path fill="none" stroke="midnightblue" d="M1221.16,-345.67C1344.06,-339.35 1582.49,-324.83 1783.77,-299 1786.61,-298.64 1789.49,-298.24 1792.4,-297.82"/>
<polygon fill="midnightblue" stroke="midnightblue" points="1220.89,-342.17 1211.08,-346.18 1221.24,-349.17 1220.89,-342.17"/>
</g>
<!-- Node3&#45;&gt;Node4 -->
<g id="edge3" class="edge">
<title>Node3&#45;&gt;Node4</title>
<path fill="none" stroke="midnightblue" d="M264.94,-134.47C266.23,-134.31 267.5,-134.15 268.77,-134 497.92,-106.5 771.06,-92.09 898.55,-86.42"/>
<polygon fill="midnightblue" stroke="midnightblue" points="264.41,-131.01 254.96,-135.82 265.34,-137.95 264.41,-131.01"/>
</g>
<!-- Node5 -->
<g id="node5" class="node">
<title>Node5</title>
<g id="a_node5"><a xlink:href="test_8cpp.html" target="_top" xlink:title=" ">
<polygon fill="white" stroke="black" points="898.77,-0.5 898.77,-30.5 1042.77,-30.5 1042.77,-0.5 898.77,-0.5"/>
<text text-anchor="start" x="906.77" y="-18.5" font-family="Helvetica,sans-Serif" font-size="10.00">/home/ram/OmniTemplate</text>
<text text-anchor="middle" x="970.77" y="-7.5" font-family="Helvetica,sans-Serif" font-size="10.00">/test.cpp</text>
</a>
</g>
</g>
<!-- Node4&#45;&gt;Node5 -->
<g id="edge4" class="edge">
<title>Node4&#45;&gt;Node5</title>
<path fill="none" stroke="midnightblue" d="M970.77,-57.11C970.77,-48.15 970.77,-38.32 970.77,-30.58"/>
<polygon fill="midnightblue" stroke="midnightblue" points="967.27,-57.4 970.77,-67.4 974.27,-57.4 967.27,-57.4"/>
</g>
<!-- Node6&#45;&gt;Node2 -->
<g id="edge6" class="edge">
<title>Node6&#45;&gt;Node2</title>
<path fill="none" stroke="midnightblue" d="M1948.46,-299.73C1673.63,-332.18 1351.93,-344.07 1210.93,-347.9"/>
<polygon fill="midnightblue" stroke="midnightblue" points="1949.12,-303.18 1958.63,-298.52 1948.29,-296.23 1949.12,-303.18"/>
</g>
<!-- Node7&#45;&gt;Node2 -->
<g id="edge11" class="edge">
<title>Node7&#45;&gt;Node2</title>
<path fill="none" stroke="midnightblue" d="M2144.17,-299.58C1791.56,-337.39 1375.72,-346.59 1210.99,-348.81"/>
<polygon fill="midnightblue" stroke="midnightblue" points="2144.76,-303.04 2154.33,-298.48 2144.01,-296.08 2144.76,-303.04"/>
</g>
<!-- Node8 -->
<g id="node8" class="node">
<title>Node8</title>
<g id="a_node8"><a xlink:href="operations_8hpp.html" target="_top" xlink:title=" ">
<polygon fill="white" stroke="black" points="2104.77,-201.5 2104.77,-231.5 2248.77,-231.5 2248.77,-201.5 2104.77,-201.5"/>
<text text-anchor="start" x="2112.77" y="-219.5" font-family="Helvetica,sans-Serif" font-size="10.00">/home/ram/OmniTemplate</text>
<text text-anchor="middle" x="2176.77" y="-208.5" font-family="Helvetica,sans-Serif" font-size="10.00">/operations.hpp</text>
</a>
</g>
</g>
<!-- Node7&#45;&gt;Node8 -->
<g id="edge9" class="edge">
<title>Node7&#45;&gt;Node8</title>
<path fill="none" stroke="midnightblue" d="M2209.81,-260.45C2202.46,-250.9 2194.08,-240 2187.6,-231.58"/>
<polygon fill="midnightblue" stroke="midnightblue" points="2207.05,-262.6 2215.92,-268.4 2212.6,-258.34 2207.05,-262.6"/>
</g>
<!-- Node8&#45;&gt;Node2 -->
<g id="edge10" class="edge">
<title>Node8&#45;&gt;Node2</title>
<path fill="none" stroke="midnightblue" d="M2164.59,-240.36C2152.86,-259.76 2133.18,-286.41 2107.77,-299 2028.2,-338.44 1422.22,-347.17 1211.06,-349.02"/>
<polygon fill="midnightblue" stroke="midnightblue" points="2167.73,-241.92 2169.69,-231.51 2161.66,-238.42 2167.73,-241.92"/>
</g>
<!-- Node9&#45;&gt;Node2 -->
<g id="edge13" class="edge">
<title>Node9&#45;&gt;Node2</title>
<path fill="none" stroke="midnightblue" d="M565.1,-297.26C569.39,-297.88 573.63,-298.47 577.77,-299 752.92,-321.49 959.64,-337.09 1066.64,-344.53"/>
<polygon fill="midnightblue" stroke="midnightblue" points="565.44,-293.77 555.03,-295.76 564.4,-300.7 565.44,-293.77"/>
</g>
<!-- Node9&#45;&gt;Node4 -->
<g id="edge14" class="edge">
<title>Node9&#45;&gt;Node4</title>
<path fill="none" stroke="midnightblue" d="M451.08,-262.58C407.63,-232.91 339.11,-176.1 377.77,-134 412.37,-96.33 748.19,-86.72 898.58,-84.3"/>
<polygon fill="midnightblue" stroke="midnightblue" points="449.4,-265.67 459.66,-268.31 453.29,-259.85 449.4,-265.67"/>
</g>
<!-- Node10&#45;&gt;Node3 -->
<g id="edge16" class="edge">
<title>Node10&#45;&gt;Node3</title>
<path fill="none" stroke="midnightblue" d="M207.37,-192.58C201.91,-183.24 195.78,-172.75 191,-164.58"/>
<polygon fill="midnightblue" stroke="midnightblue" points="204.46,-194.53 212.53,-201.4 210.5,-191 204.46,-194.53"/>
</g>
<!-- Node10&#45;&gt;Node4 -->
<g id="edge17" class="edge">
<title>Node10&#45;&gt;Node4</title>
<path fill="none" stroke="midnightblue" d="M240.51,-193.73C260.78,-171.97 291.45,-140.79 306.77,-134 411.08,-87.77 749.25,-82.81 898.67,-82.96"/>
<polygon fill="midnightblue" stroke="midnightblue" points="237.78,-191.54 233.57,-201.26 242.92,-196.28 237.78,-191.54"/>
</g>
<!-- Node11&#45;&gt;Node4 -->
<g id="edge20" class="edge">
<title>Node11&#45;&gt;Node4</title>
<path fill="none" stroke="midnightblue" d="M107.86,-259.21C91.74,-226.65 69.93,-167.75 101.77,-134 128.96,-105.18 694.97,-89.69 898.59,-85.03"/>
<polygon fill="midnightblue" stroke="midnightblue" points="104.91,-261.13 112.61,-268.41 111.13,-257.92 104.91,-261.13"/>
</g>
<!-- Node11&#45;&gt;Node10 -->
<g id="edge19" class="edge">
<title>Node11&#45;&gt;Node10</title>
<path fill="none" stroke="midnightblue" d="M151.18,-262.73C166.66,-252.68 185.1,-240.68 199.12,-231.58"/>
<polygon fill="midnightblue" stroke="midnightblue" points="148.95,-260.01 142.47,-268.4 152.76,-265.88 148.95,-260.01"/>
</g>
<!-- Node12&#45;&gt;Node4 -->
<g id="edge23" class="edge">
<title>Node12&#45;&gt;Node4</title>
<path fill="none" stroke="midnightblue" d="M319.84,-257.93C320.04,-224.2 325.98,-164.3 362.77,-134 403.34,-100.58 746.55,-88.63 898.67,-84.94"/>
<polygon fill="midnightblue" stroke="midnightblue" points="316.35,-258.32 319.96,-268.28 323.35,-258.24 316.35,-258.32"/>
</g>
<!-- Node12&#45;&gt;Node10 -->
<g id="edge22" class="edge">
<title>Node12&#45;&gt;Node10</title>
<path fill="none" stroke="midnightblue" d="M290.36,-262.73C274.89,-252.68 256.44,-240.68 242.43,-231.58"/>
<polygon fill="midnightblue" stroke="midnightblue" points="288.78,-265.88 299.07,-268.4 292.6,-260.01 288.78,-265.88"/>
</g>
<!-- Node13&#45;&gt;Node4 -->
<g id="edge25" class="edge">
<title>Node13&#45;&gt;Node4</title>
<path fill="none" stroke="midnightblue" d="M541.42,-133.81C672.97,-114.58 814.95,-99.15 898.53,-90.62"/>
<polygon fill="midnightblue" stroke="midnightblue" points="540.54,-130.4 531.16,-135.32 541.56,-137.32 540.54,-130.4"/>
</g>
<!-- Node14&#45;&gt;Node4 -->
<g id="edge27" class="edge">
<title>Node14&#45;&gt;Node4</title>
<path fill="none" stroke="midnightblue" d="M702.97,-133.24C762.37,-122.2 841.85,-107.44 898.77,-96.87"/>
<polygon fill="midnightblue" stroke="midnightblue" points="702.06,-129.84 692.87,-135.11 703.34,-136.73 702.06,-129.84"/>
</g>
<!-- Node15&#45;&gt;Node4 -->
<g id="edge29" class="edge">
<title>Node15&#45;&gt;Node4</title>
<path fill="none" stroke="midnightblue" d="M697.5,-191.94C705.62,-173.35 719.53,-148.25 739.77,-134 786.18,-101.33 849.83,-89.22 898.57,-84.99"/>
<polygon fill="midnightblue" stroke="midnightblue" points="694.25,-190.66 693.69,-201.24 700.72,-193.32 694.25,-190.66"/>
</g>
<!-- Node16&#45;&gt;Node4 -->
<g id="edge31" class="edge">
<title>Node16&#45;&gt;Node4</title>
<path fill="none" stroke="midnightblue" d="M862.53,-130.41C886.47,-120.03 916.09,-107.2 938.29,-97.58"/>
<polygon fill="midnightblue" stroke="midnightblue" points="861.1,-127.21 853.32,-134.4 863.89,-133.63 861.1,-127.21"/>
</g>
<!-- Node17&#45;&gt;Node4 -->
<g id="edge33" class="edge">
<title>Node17&#45;&gt;Node4</title>
<path fill="none" stroke="midnightblue" d="M902.85,-192.83C919.85,-165.47 947.92,-120.28 962.06,-97.52"/>
<polygon fill="midnightblue" stroke="midnightblue" points="899.85,-191.03 897.55,-201.37 905.8,-194.73 899.85,-191.03"/>
</g>
<!-- Node18&#45;&gt;Node4 -->
<g id="edge35" class="edge">
<title>Node18&#45;&gt;Node4</title>
<path fill="none" stroke="midnightblue" d="M1003.81,-126.45C996.46,-116.9 988.08,-106 981.6,-97.58"/>
<polygon fill="midnightblue" stroke="midnightblue" points="1001.05,-128.6 1009.92,-134.4 1006.6,-124.34 1001.05,-128.6"/>
</g>
<!-- Node19&#45;&gt;Node4 -->
<g id="edge39" class="edge">
<title>Node19&#45;&gt;Node4</title>
<path fill="none" stroke="midnightblue" d="M1064.79,-260.79C1049.62,-244.32 1034.77,-221.15 1045.77,-201 1059.95,-175.03 1087.59,-190.97 1101.77,-165 1108.37,-152.91 1109.57,-145.36 1101.77,-134 1088.19,-114.2 1065.66,-102.17 1043.09,-94.85"/>
<polygon fill="midnightblue" stroke="midnightblue" points="1062.65,-263.61 1072.15,-268.3 1067.65,-258.71 1062.65,-263.61"/>
</g>
<!-- Node19&#45;&gt;Node20 -->
<g id="edge37" class="edge">
<title>Node19&#45;&gt;Node20</title>
<path fill="none" stroke="midnightblue" d="M1102.17,-259.58C1107.63,-250.24 1113.77,-239.75 1118.54,-231.58"/>
<polygon fill="midnightblue" stroke="midnightblue" points="1099.04,-258 1097.02,-268.4 1105.09,-261.53 1099.04,-258"/>
</g>
<!-- Node20&#45;&gt;Node4 -->
<g id="edge38" class="edge">
<title>Node20&#45;&gt;Node4</title>
<path fill="none" stroke="midnightblue" d="M1137.04,-191.73C1142.89,-174.13 1146.92,-150.44 1134.77,-134 1113.63,-105.36 1076.49,-92.46 1042.89,-86.83"/>
<polygon fill="midnightblue" stroke="midnightblue" points="1133.69,-190.7 1133.48,-201.29 1140.25,-193.13 1133.69,-190.7"/>
</g>
<!-- Node21&#45;&gt;Node4 -->
<g id="edge42" class="edge">
<title>Node21&#45;&gt;Node4</title>
<path fill="none" stroke="midnightblue" d="M1260.26,-195.48C1233.35,-177.34 1191.32,-150.92 1151.77,-134 1115.03,-118.28 1072.01,-106.04 1037.13,-97.55"/>
<polygon fill="midnightblue" stroke="midnightblue" points="1258.55,-198.55 1268.79,-201.29 1262.5,-192.77 1258.55,-198.55"/>
</g>
<!-- Node22&#45;&gt;Node4 -->
<g id="edge44" class="edge">
<title>Node22&#45;&gt;Node4</title>
<path fill="none" stroke="midnightblue" d="M1237.42,-133.16C1178.37,-122.16 1099.59,-107.49 1042.99,-96.95"/>
<polygon fill="midnightblue" stroke="midnightblue" points="1236.99,-136.64 1247.46,-135.03 1238.27,-129.76 1236.99,-136.64"/>
</g>
<!-- Node23&#45;&gt;Node4 -->
<g id="edge46" class="edge">
<title>Node23&#45;&gt;Node4</title>
<path fill="none" stroke="midnightblue" d="M1468.47,-193.85C1447.64,-172.2 1416.18,-141.1 1400.77,-134 1338.83,-105.44 1148.57,-91.99 1043.09,-86.59"/>
<polygon fill="midnightblue" stroke="midnightblue" points="1466.17,-196.52 1475.61,-201.34 1471.24,-191.69 1466.17,-196.52"/>
</g>
<!-- Node24&#45;&gt;Node4 -->
<g id="edge48" class="edge">
<title>Node24&#45;&gt;Node4</title>
<path fill="none" stroke="midnightblue" d="M1443.04,-134.73C1441.27,-134.48 1439.51,-134.24 1437.77,-134 1298.39,-115 1134.81,-98.67 1042.93,-90.05"/>
<polygon fill="midnightblue" stroke="midnightblue" points="1442.91,-138.25 1453.31,-136.23 1443.92,-131.32 1442.91,-138.25"/>
</g>
<!-- Node25&#45;&gt;Node4 -->
<g id="edge50" class="edge">
<title>Node25&#45;&gt;Node4</title>
<path fill="none" stroke="midnightblue" d="M1670.05,-193.75C1650.81,-172 1621.63,-140.83 1606.77,-134 1508.14,-88.67 1187.73,-83.15 1042.95,-83.05"/>
<polygon fill="midnightblue" stroke="midnightblue" points="1667.42,-196.06 1676.64,-201.27 1672.68,-191.44 1667.42,-196.06"/>
</g>
<!-- Node26&#45;&gt;Node4 -->
<g id="edge53" class="edge">
<title>Node26&#45;&gt;Node4</title>
<path fill="none" stroke="midnightblue" d="M1644.6,-134.48C1643.32,-134.31 1642.04,-134.15 1640.77,-134 1423.95,-107.61 1165.86,-92.81 1042.87,-86.76"/>
<polygon fill="midnightblue" stroke="midnightblue" points="1644.2,-137.96 1654.58,-135.83 1645.14,-131.02 1644.2,-137.96"/>
</g>
<!-- Node27&#45;&gt;Node4 -->
<g id="edge55" class="edge">
<title>Node27&#45;&gt;Node4</title>
<path fill="none" stroke="midnightblue" d="M1746.67,-263.44C1760.8,-255.48 1775.45,-245.01 1785.77,-232 1813.52,-197.03 1838.37,-166.5 1807.77,-134 1781.73,-106.34 1241.62,-90.21 1043.13,-85.2"/>
<polygon fill="midnightblue" stroke="midnightblue" points="1744.69,-260.53 1737.51,-268.31 1747.98,-266.71 1744.69,-260.53"/>
</g>
<!-- Node28&#45;&gt;Node4 -->
<g id="edge57" class="edge">
<title>Node28&#45;&gt;Node4</title>
<path fill="none" stroke="midnightblue" d="M1866.88,-257.91C1868.26,-224.17 1864.99,-164.25 1828.77,-134 1769.15,-84.2 1238.75,-82 1042.97,-82.92"/>
<polygon fill="midnightblue" stroke="midnightblue" points="1863.36,-258.08 1866.27,-268.27 1870.35,-258.49 1863.36,-258.08"/>
</g>
</g>
</svg>
