<?xml version="1.0" encoding="UTF-8" standalone="no"?>
<!DOCTYPE svg PUBLIC "-//W3C//DTD SVG 1.1//EN"
 "http://www.w3.org/Graphics/SVG/1.1/DTD/svg11.dtd">
<!-- Generated by graphviz version 2.43.0 (0)
 -->
<!-- Title: /home/ram/OmniTemplate/io.hpp Pages: 1 -->
<svg width="2166pt" height="441pt"
 viewBox="0.00 0.00 2165.76 441.00" xmlns="http://www.w3.org/2000/svg" xmlns:xlink="http://www.w3.org/1999/xlink">
<g id="graph0" class="graph" transform="scale(1 1) rotate(0) translate(4 437)">
<title>/home/ram/OmniTemplate/io.hpp</title>
<polygon fill="white" stroke="transparent" points="-4,4 -4,-437 2161.76,-437 2161.76,4 -4,4"/>
<!-- Node1 -->
<g id="node1" class="node">
<title>Node1</title>
<g id="a_node1"><a xlink:title=" ">
<polygon fill="#bfbfbf" stroke="black" points="913.76,-402.5 913.76,-432.5 1057.76,-432.5 1057.76,-402.5 913.76,-402.5"/>
<text text-anchor="start" x="921.76" y="-420.5" font-family="Helvetica,sans-Serif" font-size="10.00">/home/ram/OmniTemplate</text>
<text text-anchor="middle" x="985.76" y="-409.5" font-family="Helvetica,sans-Serif" font-size="10.00">/io.hpp</text>
</a>
</g>
</g>
<!-- Node2 -->
<g id="node2" class="node">
<title>Node2</title>
<g id="a_node2"><a xlink:href="core_8hpp.html" target="_top" xlink:title=" ">
<polygon fill="white" stroke="black" points="913.76,-335.5 913.76,-365.5 1057.76,-365.5 1057.76,-335.5 913.76,-335.5"/>
<text text-anchor="start" x="921.76" y="-353.5" font-family="Helvetica,sans-Serif" font-size="10.00">/home/ram/OmniTemplate</text>
<text text-anchor="middle" x="985.76" y="-342.5" font-family="Helvetica,sans-Serif" font-size="10.00">/core.hpp</text>
</a>
</g>
</g>
<!-- Node1&#45;&gt;Node2 -->
<g id="edge1" class="edge">
<title>Node1&#45;&gt;Node2</title>
<path fill="none" stroke="midnightblue" d="M979.21,-392.4C978.76,-383.37 979.05,-373.41 980.08,-365.58"/>
<polygon fill="midnightblue" stroke="midnightblue" points="975.73,-392.74 980.08,-402.4 982.7,-392.13 975.73,-392.74"/>
</g>
<!-- Node2&#45;&gt;Node1 -->
<g id="edge7" class="edge">
<title>Node2&#45;&gt;Node1</title>
<path fill="none" stroke="midnightblue" d="M992.3,-375.57C992.75,-384.6 992.46,-394.56 991.43,-402.4"/>
<polygon fill="midnightblue" stroke="midnightblue" points="995.78,-375.24 991.43,-365.58 988.81,-375.84 995.78,-375.24"/>
</g>
<!-- Node3 -->
<g id="node3" class="node">
<title>Node3</title>
<g id="a_node3"><a xlink:href="2sat_8hpp.html" target="_top" xlink:title=" ">
<polygon fill="white" stroke="black" points="99.76,-134.5 99.76,-164.5 243.76,-164.5 243.76,-134.5 99.76,-134.5"/>
<text text-anchor="start" x="107.76" y="-152.5" font-family="Helvetica,sans-Serif" font-size="10.00">/home/ram/OmniTemplate</text>
<text text-anchor="middle" x="171.76" y="-141.5" font-family="Helvetica,sans-Serif" font-size="10.00">/2sat.hpp</text>
</a>
</g>
</g>
<!-- Node2&#45;&gt;Node3 -->
<g id="edge2" class="edge">
<title>Node2&#45;&gt;Node3</title>
<path fill="none" stroke="midnightblue" d="M903.34,-348.08C680.68,-343.85 81.79,-329.65 52.76,-299 24.68,-269.37 78.46,-213.81 90.76,-201 105.21,-185.93 125.06,-173.46 141.49,-164.68"/>
<polygon fill="midnightblue" stroke="midnightblue" points="903.59,-351.59 913.65,-348.27 903.72,-344.59 903.59,-351.59"/>
</g>
<!-- Node4 -->
<g id="node4" class="node">
<title>Node4</title>
<g id="a_node4"><a xlink:href="template_8hpp.html" target="_top" xlink:title=" ">
<polygon fill="white" stroke="black" points="620.76,-67.5 620.76,-97.5 764.76,-97.5 764.76,-67.5 620.76,-67.5"/>
<text text-anchor="start" x="628.76" y="-85.5" font-family="Helvetica,sans-Serif" font-size="10.00">/home/ram/OmniTemplate</text>
<text text-anchor="middle" x="692.76" y="-74.5" font-family="Helvetica,sans-Serif" font-size="10.00">/template.hpp</text>
</a>
</g>
</g>
<!-- Node2&#45;&gt;Node4 -->
<g id="edge54" class="edge">
<title>Node2&#45;&gt;Node4</title>
<path fill="none" stroke="midnightblue" d="M903.41,-348.14C678.8,-344.04 70.22,-330.08 40.76,-299 5.71,-262.04 -41.45,-231.58 70.76,-134 111.48,-98.59 465.61,-87.71 620.61,-84.62"/>
<polygon fill="midnightblue" stroke="midnightblue" points="903.43,-351.64 913.49,-348.32 903.56,-344.64 903.43,-351.64"/>
</g>
<!-- Node6 -->
<g id="node6" class="node">
<title>Node6</title>
<g id="a_node6"><a xlink:href="my__int_8hpp.html" target="_top" xlink:title=" ">
<polygon fill="white" stroke="black" points="1813.76,-268.5 1813.76,-298.5 1957.76,-298.5 1957.76,-268.5 1813.76,-268.5"/>
<text text-anchor="start" x="1821.76" y="-286.5" font-family="Helvetica,sans-Serif" font-size="10.00">/home/ram/OmniTemplate</text>
<text text-anchor="middle" x="1885.76" y="-275.5" font-family="Helvetica,sans-Serif" font-size="10.00">/my_int.hpp</text>
</a>
</g>
</g>
<!-- Node2&#45;&gt;Node6 -->
<g id="edge5" class="edge">
<title>Node2&#45;&gt;Node6</title>
<path fill="none" stroke="midnightblue" d="M1068.15,-347.41C1214.89,-343.1 1530.72,-330.79 1795.76,-299 1801.57,-298.3 1807.6,-297.46 1813.67,-296.53"/>
<polygon fill="midnightblue" stroke="midnightblue" points="1067.77,-343.92 1057.88,-347.71 1067.98,-350.92 1067.77,-343.92"/>
</g>
<!-- Node7 -->
<g id="node7" class="node">
<title>Node7</title>
<g id="a_node7"><a xlink:href="range_8hpp.html" target="_top" xlink:title=" ">
<polygon fill="white" stroke="black" points="2013.76,-268.5 2013.76,-298.5 2157.76,-298.5 2157.76,-268.5 2013.76,-268.5"/>
<text text-anchor="start" x="2021.76" y="-286.5" font-family="Helvetica,sans-Serif" font-size="10.00">/home/ram/OmniTemplate</text>
<text text-anchor="middle" x="2085.76" y="-275.5" font-family="Helvetica,sans-Serif" font-size="10.00">/range.hpp</text>
</a>
</g>
</g>
<!-- Node2&#45;&gt;Node7 -->
<g id="edge8" class="edge">
<title>Node2&#45;&gt;Node7</title>
<path fill="none" stroke="midnightblue" d="M1068.09,-348.59C1240.03,-346.01 1649.25,-336.16 1990.76,-299 1998.13,-298.2 2005.83,-297.17 2013.53,-296.04"/>
<polygon fill="midnightblue" stroke="midnightblue" points="1067.8,-345.1 1057.86,-348.74 1067.91,-352.1 1067.8,-345.1"/>
</g>
<!-- Node9 -->
<g id="node9" class="node">
<title>Node9</title>
<g id="a_node9"><a xlink:href="graph__theory_8hpp.html" target="_top" xlink:title=" ">
<polygon fill="white" stroke="black" points="99.76,-201.5 99.76,-231.5 243.76,-231.5 243.76,-201.5 99.76,-201.5"/>
<text text-anchor="start" x="107.76" y="-219.5" font-family="Helvetica,sans-Serif" font-size="10.00">/home/ram/OmniTemplate</text>
<text text-anchor="middle" x="171.76" y="-208.5" font-family="Helvetica,sans-Serif" font-size="10.00">/graph_theory.hpp</text>
</a>
</g>
</g>
<!-- Node2&#45;&gt;Node9 -->
<g id="edge12" class="edge">
<title>Node2&#45;&gt;Node9</title>
<path fill="none" stroke="midnightblue" d="M903.52,-347.09C724.47,-341.38 310.69,-325.47 252.76,-299 236.15,-291.41 201.9,-253.03 183.71,-231.75"/>
<polygon fill="midnightblue" stroke="midnightblue" points="903.58,-350.59 913.68,-347.41 903.8,-343.6 903.58,-350.59"/>
</g>
<!-- Node10 -->
<g id="node10" class="node">
<title>Node10</title>
<g id="a_node10"><a xlink:href="dsu_8hpp.html" target="_top" xlink:title=" ">
<polygon fill="white" stroke="black" points="61.76,-268.5 61.76,-298.5 205.76,-298.5 205.76,-268.5 61.76,-268.5"/>
<text text-anchor="start" x="69.76" y="-286.5" font-family="Helvetica,sans-Serif" font-size="10.00">/home/ram/OmniTemplate</text>
<text text-anchor="middle" x="133.76" y="-275.5" font-family="Helvetica,sans-Serif" font-size="10.00">/dsu.hpp</text>
</a>
</g>
</g>
<!-- Node2&#45;&gt;Node10 -->
<g id="edge15" class="edge">
<title>Node2&#45;&gt;Node10</title>
<path fill="none" stroke="midnightblue" d="M903.46,-346.81C762.9,-341.6 467.71,-328 219.76,-299 215.24,-298.47 210.61,-297.87 205.94,-297.22"/>
<polygon fill="midnightblue" stroke="midnightblue" points="903.6,-350.31 913.72,-347.18 903.86,-343.32 903.6,-350.31"/>
</g>
<!-- Node11 -->
<g id="node11" class="node">
<title>Node11</title>
<g id="a_node11"><a xlink:href="linear__algebra_8hpp.html" target="_top" xlink:title=" ">
<polygon fill="white" stroke="black" points="261.76,-268.5 261.76,-298.5 405.76,-298.5 405.76,-268.5 261.76,-268.5"/>
<text text-anchor="start" x="269.76" y="-286.5" font-family="Helvetica,sans-Serif" font-size="10.00">/home/ram/OmniTemplate</text>
<text text-anchor="middle" x="333.76" y="-275.5" font-family="Helvetica,sans-Serif" font-size="10.00">/linear_algebra.hpp</text>
</a>
</g>
</g>
<!-- Node2&#45;&gt;Node11 -->
<g id="edge18" class="edge">
<title>Node2&#45;&gt;Node11</title>
<path fill="none" stroke="midnightblue" d="M903.57,-344.19C793.25,-336.6 591.26,-321.08 419.76,-299 415.25,-298.42 410.62,-297.78 405.96,-297.09"/>
<polygon fill="midnightblue" stroke="midnightblue" points="903.42,-347.69 913.64,-344.88 903.9,-340.7 903.42,-347.69"/>
</g>
<!-- Node12 -->
<g id="node12" class="node">
<title>Node12</title>
<g id="a_node12"><a xlink:href="utility_8hpp.html" target="_top" xlink:title=" ">
<polygon fill="white" stroke="black" points="461.76,-268.5 461.76,-298.5 605.76,-298.5 605.76,-268.5 461.76,-268.5"/>
<text text-anchor="start" x="469.76" y="-286.5" font-family="Helvetica,sans-Serif" font-size="10.00">/home/ram/OmniTemplate</text>
<text text-anchor="middle" x="533.76" y="-275.5" font-family="Helvetica,sans-Serif" font-size="10.00">/utility.hpp</text>
</a>
</g>
</g>
<!-- Node2&#45;&gt;Node12 -->
<g id="edge21" class="edge">
<title>Node2&#45;&gt;Node12</title>
<path fill="none" stroke="midnightblue" d="M903.22,-338.83C828.97,-329.06 716.95,-313.9 619.76,-299 615.27,-298.31 610.65,-297.59 605.99,-296.84"/>
<polygon fill="midnightblue" stroke="midnightblue" points="903.07,-342.34 913.44,-340.17 903.98,-335.4 903.07,-342.34"/>
</g>
<!-- Node13 -->
<g id="node13" class="node">
<title>Node13</title>
<g id="a_node13"><a xlink:href="geometry_8hpp.html" target="_top" xlink:title=" ">
<polygon fill="white" stroke="black" points="299.76,-201.5 299.76,-231.5 443.76,-231.5 443.76,-201.5 299.76,-201.5"/>
<text text-anchor="start" x="307.76" y="-219.5" font-family="Helvetica,sans-Serif" font-size="10.00">/home/ram/OmniTemplate</text>
<text text-anchor="middle" x="371.76" y="-208.5" font-family="Helvetica,sans-Serif" font-size="10.00">/geometry.hpp</text>
</a>
</g>
</g>
<!-- Node2&#45;&gt;Node13 -->
<g id="edge38" class="edge">
<title>Node2&#45;&gt;Node13</title>
<path fill="none" stroke="midnightblue" d="M903.42,-348.48C774.2,-345.75 530.49,-335.73 452.76,-299 436.25,-291.2 401.95,-252.91 383.73,-231.7"/>
<polygon fill="midnightblue" stroke="midnightblue" points="903.59,-351.98 913.66,-348.68 903.73,-344.98 903.59,-351.98"/>
</g>
<!-- Node14 -->
<g id="node14" class="node">
<title>Node14</title>
<g id="a_node14"><a xlink:href="number__theory_8hpp.html" target="_top" xlink:title=" ">
<polygon fill="white" stroke="black" points="661.76,-201.5 661.76,-231.5 805.76,-231.5 805.76,-201.5 661.76,-201.5"/>
<text text-anchor="start" x="669.76" y="-219.5" font-family="Helvetica,sans-Serif" font-size="10.00">/home/ram/OmniTemplate</text>
<text text-anchor="middle" x="733.76" y="-208.5" font-family="Helvetica,sans-Serif" font-size="10.00">/number_theory.hpp</text>
</a>
</g>
</g>
<!-- Node2&#45;&gt;Node14 -->
<g id="edge44" class="edge">
<title>Node2&#45;&gt;Node14</title>
<path fill="none" stroke="midnightblue" d="M903.47,-346.91C825.85,-342.53 717.52,-330.74 690.76,-299 673.12,-278.09 698.23,-248.75 716.85,-231.57"/>
<polygon fill="midnightblue" stroke="midnightblue" points="903.55,-350.42 913.72,-347.46 903.92,-343.43 903.55,-350.42"/>
</g>
<!-- Node15 -->
<g id="node15" class="node">
<title>Node15</title>
<g id="a_node15"><a xlink:href="segment__tree_8hpp.html" target="_top" xlink:title=" ">
<polygon fill="white" stroke="black" points="499.76,-201.5 499.76,-231.5 643.76,-231.5 643.76,-201.5 499.76,-201.5"/>
<text text-anchor="start" x="507.76" y="-219.5" font-family="Helvetica,sans-Serif" font-size="10.00">/home/ram/OmniTemplate</text>
<text text-anchor="middle" x="571.76" y="-208.5" font-family="Helvetica,sans-Serif" font-size="10.00">/segment_tree.hpp</text>
</a>
</g>
</g>
<!-- Node2&#45;&gt;Node15 -->
<g id="edge49" class="edge">
<title>Node2&#45;&gt;Node15</title>
<path fill="none" stroke="midnightblue" d="M903.44,-346.44C840.31,-341.62 752.19,-329.46 680.76,-299 642.5,-282.69 605.33,-250.28 585.83,-231.62"/>
<polygon fill="midnightblue" stroke="midnightblue" points="903.51,-349.95 913.74,-347.17 904.01,-342.97 903.51,-349.95"/>
</g>
<!-- Node16 -->
<g id="node16" class="node">
<title>Node16</title>
<g id="a_node16"><a xlink:href="big__integer_8hpp.html" target="_top" xlink:title=" ">
<polygon fill="white" stroke="black" points="539.76,-134.5 539.76,-164.5 683.76,-164.5 683.76,-134.5 539.76,-134.5"/>
<text text-anchor="start" x="547.76" y="-152.5" font-family="Helvetica,sans-Serif" font-size="10.00">/home/ram/OmniTemplate</text>
<text text-anchor="middle" x="611.76" y="-141.5" font-family="Helvetica,sans-Serif" font-size="10.00">/big_integer.hpp</text>
</a>
</g>
</g>
<!-- Node2&#45;&gt;Node16 -->
<g id="edge30" class="edge">
<title>Node2&#45;&gt;Node16</title>
<path fill="none" stroke="midnightblue" d="M963.95,-328.33C921.94,-287.56 833.74,-202.08 831.76,-201 818.4,-193.77 740.57,-176.78 681.23,-164.5"/>
<polygon fill="midnightblue" stroke="midnightblue" points="961.61,-330.93 971.22,-335.39 966.48,-325.91 961.61,-330.93"/>
</g>
<!-- Node17 -->
<g id="node17" class="node">
<title>Node17</title>
<g id="a_node17"><a xlink:href="combinatorics_8hpp.html" target="_top" xlink:title=" ">
<polygon fill="white" stroke="black" points="701.76,-134.5 701.76,-164.5 845.76,-164.5 845.76,-134.5 701.76,-134.5"/>
<text text-anchor="start" x="709.76" y="-152.5" font-family="Helvetica,sans-Serif" font-size="10.00">/home/ram/OmniTemplate</text>
<text text-anchor="middle" x="773.76" y="-141.5" font-family="Helvetica,sans-Serif" font-size="10.00">/combinatorics.hpp</text>
</a>
</g>
</g>
<!-- Node2&#45;&gt;Node17 -->
<g id="edge32" class="edge">
<title>Node2&#45;&gt;Node17</title>
<path fill="none" stroke="midnightblue" d="M972.17,-326.1C950.36,-289.16 907.78,-219.58 885.76,-201 866.52,-184.77 841.22,-172.77 819.53,-164.55"/>
<polygon fill="midnightblue" stroke="midnightblue" points="969.41,-328.31 977.49,-335.17 975.44,-324.77 969.41,-328.31"/>
</g>
<!-- Node18 -->
<g id="node18" class="node">
<title>Node18</title>
<g id="a_node18"><a xlink:href="coroutine_8hpp.html" target="_top" xlink:title=" ">
<polygon fill="white" stroke="black" points="863.76,-134.5 863.76,-164.5 1007.76,-164.5 1007.76,-134.5 863.76,-134.5"/>
<text text-anchor="start" x="871.76" y="-152.5" font-family="Helvetica,sans-Serif" font-size="10.00">/home/ram/OmniTemplate</text>
<text text-anchor="middle" x="935.76" y="-141.5" font-family="Helvetica,sans-Serif" font-size="10.00">/coroutine.hpp</text>
</a>
</g>
</g>
<!-- Node2&#45;&gt;Node18 -->
<g id="edge34" class="edge">
<title>Node2&#45;&gt;Node18</title>
<path fill="none" stroke="midnightblue" d="M978.93,-325.51C976.6,-317.14 974.01,-307.67 971.76,-299 959.02,-249.96 945.25,-191.43 939.08,-164.87"/>
<polygon fill="midnightblue" stroke="midnightblue" points="975.63,-326.71 981.71,-335.38 982.37,-324.81 975.63,-326.71"/>
</g>
<!-- Node19 -->
<g id="node19" class="node">
<title>Node19</title>
<g id="a_node19"><a xlink:href="fft_8hpp.html" target="_top" xlink:title=" ">
<polygon fill="white" stroke="black" points="1025.76,-134.5 1025.76,-164.5 1169.76,-164.5 1169.76,-134.5 1025.76,-134.5"/>
<text text-anchor="start" x="1033.76" y="-152.5" font-family="Helvetica,sans-Serif" font-size="10.00">/home/ram/OmniTemplate</text>
<text text-anchor="middle" x="1097.76" y="-141.5" font-family="Helvetica,sans-Serif" font-size="10.00">/fft.hpp</text>
</a>
</g>
</g>
<!-- Node2&#45;&gt;Node19 -->
<g id="edge36" class="edge">
<title>Node2&#45;&gt;Node19</title>
<path fill="none" stroke="midnightblue" d="M982.51,-325.27C979.61,-293.79 979.14,-238.41 1004.76,-201 1016.28,-184.17 1035.29,-172.44 1053.13,-164.55"/>
<polygon fill="midnightblue" stroke="midnightblue" points="979.05,-325.78 983.6,-335.35 986.01,-325.03 979.05,-325.78"/>
</g>
<!-- Node20 -->
<g id="node20" class="node">
<title>Node20</title>
<g id="a_node20"><a xlink:href="main_8hpp.html" target="_top" xlink:title=" ">
<polygon fill="white" stroke="black" points="1013.76,-201.5 1013.76,-231.5 1157.76,-231.5 1157.76,-201.5 1013.76,-201.5"/>
<text text-anchor="start" x="1021.76" y="-219.5" font-family="Helvetica,sans-Serif" font-size="10.00">/home/ram/OmniTemplate</text>
<text text-anchor="middle" x="1085.76" y="-208.5" font-family="Helvetica,sans-Serif" font-size="10.00">/main.hpp</text>
</a>
</g>
</g>
<!-- Node2&#45;&gt;Node20 -->
<g id="edge39" class="edge">
<title>Node2&#45;&gt;Node20</title>
<path fill="none" stroke="midnightblue" d="M1002.66,-327.19C1023.36,-299.86 1057.81,-254.38 1075.13,-231.52"/>
<polygon fill="midnightblue" stroke="midnightblue" points="999.71,-325.29 996.46,-335.37 1005.29,-329.52 999.71,-325.29"/>
</g>
<!-- Node21 -->
<g id="node21" class="node">
<title>Node21</title>
<g id="a_node21"><a xlink:href="modulo_8hpp.html" target="_top" xlink:title=" ">
<polygon fill="white" stroke="black" points="699.76,-268.5 699.76,-298.5 843.76,-298.5 843.76,-268.5 699.76,-268.5"/>
<text text-anchor="start" x="707.76" y="-286.5" font-family="Helvetica,sans-Serif" font-size="10.00">/home/ram/OmniTemplate</text>
<text text-anchor="middle" x="771.76" y="-275.5" font-family="Helvetica,sans-Serif" font-size="10.00">/modulo.hpp</text>
</a>
</g>
</g>
<!-- Node2&#45;&gt;Node21 -->
<g id="edge41" class="edge">
<title>Node2&#45;&gt;Node21</title>
<path fill="none" stroke="midnightblue" d="M929.6,-332.44C894.91,-321.91 850.93,-308.55 818.21,-298.61"/>
<polygon fill="midnightblue" stroke="midnightblue" points="929,-335.92 939.58,-335.48 931.03,-329.22 929,-335.92"/>
</g>
<!-- Node22 -->
<g id="node22" class="node">
<title>Node22</title>
<g id="a_node22"><a xlink:href="persistent_8hpp.html" target="_top" xlink:title=" ">
<polygon fill="white" stroke="black" points="1225.76,-134.5 1225.76,-164.5 1369.76,-164.5 1369.76,-134.5 1225.76,-134.5"/>
<text text-anchor="start" x="1233.76" y="-152.5" font-family="Helvetica,sans-Serif" font-size="10.00">/home/ram/OmniTemplate</text>
<text text-anchor="middle" x="1297.76" y="-141.5" font-family="Helvetica,sans-Serif" font-size="10.00">/persistent.hpp</text>
</a>
</g>
</g>
<!-- Node2&#45;&gt;Node22 -->
<g id="edge45" class="edge">
<title>Node2&#45;&gt;Node22</title>
<path fill="none" stroke="midnightblue" d="M1017.94,-330.08C1054.68,-307.57 1116.24,-268.83 1166.76,-232 1184.37,-219.16 1186.65,-213.14 1204.76,-201 1225.2,-187.28 1249.72,-174.09 1268.45,-164.63"/>
<polygon fill="midnightblue" stroke="midnightblue" points="1015.86,-327.24 1009.15,-335.44 1019.51,-333.22 1015.86,-327.24"/>
</g>
<!-- Node23 -->
<g id="node23" class="node">
<title>Node23</title>
<g id="a_node23"><a xlink:href="queue_8hpp.html" target="_top" xlink:title=" ">
<polygon fill="white" stroke="black" points="1213.76,-201.5 1213.76,-231.5 1357.76,-231.5 1357.76,-201.5 1213.76,-201.5"/>
<text text-anchor="start" x="1221.76" y="-219.5" font-family="Helvetica,sans-Serif" font-size="10.00">/home/ram/OmniTemplate</text>
<text text-anchor="middle" x="1285.76" y="-208.5" font-family="Helvetica,sans-Serif" font-size="10.00">/queue.hpp</text>
</a>
</g>
</g>
<!-- Node2&#45;&gt;Node23 -->
<g id="edge47" class="edge">
<title>Node2&#45;&gt;Node23</title>
<path fill="none" stroke="midnightblue" d="M1068.07,-340.41C1109.45,-333.34 1159.26,-320.87 1199.76,-299 1231.43,-281.9 1259.99,-250.09 1274.89,-231.68"/>
<polygon fill="midnightblue" stroke="midnightblue" points="1067.32,-336.99 1058.02,-342.06 1068.45,-343.9 1067.32,-336.99"/>
</g>
<!-- Node24 -->
<g id="node24" class="node">
<title>Node24</title>
<g id="a_node24"><a xlink:href="splay__tree_8hpp.html" target="_top" xlink:title=" ">
<polygon fill="white" stroke="black" points="1425.76,-134.5 1425.76,-164.5 1569.76,-164.5 1569.76,-134.5 1425.76,-134.5"/>
<text text-anchor="start" x="1433.76" y="-152.5" font-family="Helvetica,sans-Serif" font-size="10.00">/home/ram/OmniTemplate</text>
<text text-anchor="middle" x="1497.76" y="-141.5" font-family="Helvetica,sans-Serif" font-size="10.00">/splay_tree.hpp</text>
</a>
</g>
</g>
<!-- Node2&#45;&gt;Node24 -->
<g id="edge50" class="edge">
<title>Node2&#45;&gt;Node24</title>
<path fill="none" stroke="midnightblue" d="M1067.85,-338.41C1116.86,-330.41 1179.87,-317.69 1233.76,-299 1296.29,-277.32 1311.23,-268.02 1366.76,-232 1385.04,-220.14 1386.65,-213.14 1404.76,-201 1425.2,-187.28 1449.72,-174.09 1468.45,-164.63"/>
<polygon fill="midnightblue" stroke="midnightblue" points="1067.24,-334.96 1057.92,-339.99 1068.35,-341.87 1067.24,-334.96"/>
</g>
<!-- Node25 -->
<g id="node25" class="node">
<title>Node25</title>
<g id="a_node25"><a xlink:href="string_8hpp.html" target="_top" xlink:title=" ">
<polygon fill="white" stroke="black" points="1413.76,-201.5 1413.76,-231.5 1557.76,-231.5 1557.76,-201.5 1413.76,-201.5"/>
<text text-anchor="start" x="1421.76" y="-219.5" font-family="Helvetica,sans-Serif" font-size="10.00">/home/ram/OmniTemplate</text>
<text text-anchor="middle" x="1485.76" y="-208.5" font-family="Helvetica,sans-Serif" font-size="10.00">/string.hpp</text>
</a>
</g>
</g>
<!-- Node2&#45;&gt;Node25 -->
<g id="edge52" class="edge">
<title>Node2&#45;&gt;Node25</title>
<path fill="none" stroke="midnightblue" d="M1068.07,-345.55C1171.59,-339.55 1342.69,-325.86 1399.76,-299 1432.7,-283.49 1461.2,-250.47 1475.65,-231.56"/>
<polygon fill="midnightblue" stroke="midnightblue" points="1067.75,-342.07 1057.96,-346.13 1068.15,-349.06 1067.75,-342.07"/>
</g>
<!-- Node26 -->
<g id="node26" class="node">
<title>Node26</title>
<g id="a_node26"><a xlink:href="time_8hpp.html" target="_top" xlink:title=" ">
<polygon fill="white" stroke="black" points="1625.76,-134.5 1625.76,-164.5 1769.76,-164.5 1769.76,-134.5 1625.76,-134.5"/>
<text text-anchor="start" x="1633.76" y="-152.5" font-family="Helvetica,sans-Serif" font-size="10.00">/home/ram/OmniTemplate</text>
<text text-anchor="middle" x="1697.76" y="-141.5" font-family="Helvetica,sans-Serif" font-size="10.00">/time.hpp</text>
</a>
</g>
</g>
<!-- Node2&#45;&gt;Node26 -->
<g id="edge55" class="edge">
<title>Node2&#45;&gt;Node26</title>
<path fill="none" stroke="midnightblue" d="M1067.95,-344.84C1178.41,-337.79 1368.46,-322.66 1433.76,-299 1457.28,-290.47 1458.67,-279.77 1480.76,-268 1517.32,-248.51 1529.93,-251.01 1566.76,-232 1607.46,-210.99 1652.23,-181.69 1677.48,-164.54"/>
<polygon fill="midnightblue" stroke="midnightblue" points="1067.6,-341.35 1057.84,-345.48 1068.04,-348.34 1067.6,-341.35"/>
</g>
<!-- Node27 -->
<g id="node27" class="node">
<title>Node27</title>
<g id="a_node27"><a xlink:href="tree_8hpp.html" target="_top" xlink:title=" ">
<polygon fill="white" stroke="black" points="1489.76,-268.5 1489.76,-298.5 1633.76,-298.5 1633.76,-268.5 1489.76,-268.5"/>
<text text-anchor="start" x="1497.76" y="-286.5" font-family="Helvetica,sans-Serif" font-size="10.00">/home/ram/OmniTemplate</text>
<text text-anchor="middle" x="1561.76" y="-275.5" font-family="Helvetica,sans-Serif" font-size="10.00">/tree.hpp</text>
</a>
</g>
</g>
<!-- Node2&#45;&gt;Node27 -->
<g id="edge57" class="edge">
<title>Node2&#45;&gt;Node27</title>
<path fill="none" stroke="midnightblue" d="M1068.25,-342.63C1165.79,-334.13 1332.93,-318.38 1475.76,-299 1480.26,-298.39 1484.88,-297.72 1489.55,-297.02"/>
<polygon fill="midnightblue" stroke="midnightblue" points="1067.82,-339.15 1058.16,-343.51 1068.42,-346.13 1067.82,-339.15"/>
</g>
<!-- Node28 -->
<g id="node28" class="node">
<title>Node28</title>
<g id="a_node28"><a xlink:href="treap_8hpp.html" target="_top" xlink:title=" ">
<polygon fill="white" stroke="black" points="1651.76,-268.5 1651.76,-298.5 1795.76,-298.5 1795.76,-268.5 1651.76,-268.5"/>
<text text-anchor="start" x="1659.76" y="-286.5" font-family="Helvetica,sans-Serif" font-size="10.00">/home/ram/OmniTemplate</text>
<text text-anchor="middle" x="1723.76" y="-275.5" font-family="Helvetica,sans-Serif" font-size="10.00">/treap.hpp</text>
</a>
</g>
</g>
<!-- Node2&#45;&gt;Node28 -->
<g id="edge59" class="edge">
<title>Node2&#45;&gt;Node28</title>
<path fill="none" stroke="midnightblue" d="M1068.17,-345.83C1192.9,-339.67 1436.9,-325.27 1642.76,-299 1645.59,-298.64 1648.48,-298.24 1651.39,-297.83"/>
<polygon fill="midnightblue" stroke="midnightblue" points="1067.75,-342.34 1057.94,-346.33 1068.1,-349.33 1067.75,-342.34"/>
</g>
<!-- Node3&#45;&gt;Node4 -->
<g id="edge3" class="edge">
<title>Node3&#45;&gt;Node4</title>
<path fill="none" stroke="midnightblue" d="M253.93,-134.55C255.22,-134.36 256.49,-134.18 257.76,-134 385.15,-115.88 534.23,-99.64 620.64,-90.72"/>
<polygon fill="midnightblue" stroke="midnightblue" points="253.34,-131.1 243.97,-136.05 254.38,-138.02 253.34,-131.1"/>
</g>
<!-- Node5 -->
<g id="node5" class="node">
<title>Node5</title>
<g id="a_node5"><a xlink:href="test_8cpp.html" target="_top" xlink:title=" ">
<polygon fill="white" stroke="black" points="620.76,-0.5 620.76,-30.5 764.76,-30.5 764.76,-0.5 620.76,-0.5"/>
<text text-anchor="start" x="628.76" y="-18.5" font-family="Helvetica,sans-Serif" font-size="10.00">/home/ram/OmniTemplate</text>
<text text-anchor="middle" x="692.76" y="-7.5" font-family="Helvetica,sans-Serif" font-size="10.00">/test.cpp</text>
</a>
</g>
</g>
<!-- Node4&#45;&gt;Node5 -->
<g id="edge4" class="edge">
<title>Node4&#45;&gt;Node5</title>
<path fill="none" stroke="midnightblue" d="M692.76,-57.11C692.76,-48.15 692.76,-38.32 692.76,-30.58"/>
<polygon fill="midnightblue" stroke="midnightblue" points="689.26,-57.4 692.76,-67.4 696.26,-57.4 689.26,-57.4"/>
</g>
<!-- Node6&#45;&gt;Node2 -->
<g id="edge6" class="edge">
<title>Node6&#45;&gt;Node2</title>
<path fill="none" stroke="midnightblue" d="M1807.27,-299.75C1527.7,-332.62 1200.26,-344.29 1057.8,-347.99"/>
<polygon fill="midnightblue" stroke="midnightblue" points="1808.1,-303.18 1817.61,-298.52 1807.27,-296.22 1808.1,-303.18"/>
</g>
<!-- Node7&#45;&gt;Node2 -->
<g id="edge11" class="edge">
<title>Node7&#45;&gt;Node2</title>
<path fill="none" stroke="midnightblue" d="M2003.28,-299.56C1645.78,-337.81 1223.9,-346.77 1057.85,-348.87"/>
<polygon fill="midnightblue" stroke="midnightblue" points="2003.74,-303.03 2013.31,-298.48 2002.99,-296.07 2003.74,-303.03"/>
</g>
<!-- Node8 -->
<g id="node8" class="node">
<title>Node8</title>
<g id="a_node8"><a xlink:href="operations_8hpp.html" target="_top" xlink:title=" ">
<polygon fill="white" stroke="black" points="1963.76,-201.5 1963.76,-231.5 2107.76,-231.5 2107.76,-201.5 1963.76,-201.5"/>
<text text-anchor="start" x="1971.76" y="-219.5" font-family="Helvetica,sans-Serif" font-size="10.00">/home/ram/OmniTemplate</text>
<text text-anchor="middle" x="2035.76" y="-208.5" font-family="Helvetica,sans-Serif" font-size="10.00">/operations.hpp</text>
</a>
</g>
</g>
<!-- Node7&#45;&gt;Node8 -->
<g id="edge9" class="edge">
<title>Node7&#45;&gt;Node8</title>
<path fill="none" stroke="midnightblue" d="M2068.79,-260.45C2061.45,-250.9 2053.07,-240 2046.58,-231.58"/>
<polygon fill="midnightblue" stroke="midnightblue" points="2066.03,-262.6 2074.91,-268.4 2071.58,-258.34 2066.03,-262.6"/>
</g>
<!-- Node8&#45;&gt;Node2 -->
<g id="edge10" class="edge">
<title>Node8&#45;&gt;Node2</title>
<path fill="none" stroke="midnightblue" d="M2023.57,-240.36C2011.85,-259.77 1992.17,-286.41 1966.76,-299 1886.05,-338.97 1270.53,-347.36 1057.8,-349.07"/>
<polygon fill="midnightblue" stroke="midnightblue" points="2026.71,-241.92 2028.68,-231.51 2020.65,-238.42 2026.71,-241.92"/>
</g>
<!-- Node9&#45;&gt;Node3 -->
<g id="edge13" class="edge">
<title>Node9&#45;&gt;Node3</title>
<path fill="none" stroke="midnightblue" d="M171.76,-191.11C171.76,-182.15 171.76,-172.32 171.76,-164.58"/>
<polygon fill="midnightblue" stroke="midnightblue" points="168.26,-191.4 171.76,-201.4 175.26,-191.4 168.26,-191.4"/>
</g>
<!-- Node9&#45;&gt;Node4 -->
<g id="edge14" class="edge">
<title>Node9&#45;&gt;Node4</title>
<path fill="none" stroke="midnightblue" d="M204.28,-195.91C219.2,-186.75 237.03,-175.55 252.76,-165 272.32,-151.87 273.84,-142.64 295.76,-134 353.28,-111.32 522.74,-95.76 620.67,-88.39"/>
<polygon fill="midnightblue" stroke="midnightblue" points="202.12,-193.13 195.42,-201.33 205.77,-199.1 202.12,-193.13"/>
</g>
<!-- Node10&#45;&gt;Node4 -->
<g id="edge17" class="edge">
<title>Node10&#45;&gt;Node4</title>
<path fill="none" stroke="midnightblue" d="M109.75,-261.14C102.17,-252.88 94.73,-242.81 90.76,-232 75.71,-191.13 61.27,-166.06 90.76,-134 125.99,-95.69 468.52,-86.43 620.62,-84.2"/>
<polygon fill="midnightblue" stroke="midnightblue" points="107.45,-263.8 116.96,-268.47 112.44,-258.89 107.45,-263.8"/>
</g>
<!-- Node10&#45;&gt;Node9 -->
<g id="edge16" class="edge">
<title>Node10&#45;&gt;Node9</title>
<path fill="none" stroke="midnightblue" d="M147.16,-259.58C152.61,-250.24 158.75,-239.75 163.53,-231.58"/>
<polygon fill="midnightblue" stroke="midnightblue" points="144.03,-258 142,-268.4 150.07,-261.53 144.03,-258"/>
</g>
<!-- Node11&#45;&gt;Node4 -->
<g id="edge20" class="edge">
<title>Node11&#45;&gt;Node4</title>
<path fill="none" stroke="midnightblue" d="M309.75,-261.14C302.17,-252.88 294.73,-242.81 290.76,-232 286,-219.07 285.13,-213.58 290.76,-201 309.02,-160.2 325.34,-153.09 365.76,-134 447.31,-95.49 551.82,-85.22 620.46,-83.04"/>
<polygon fill="midnightblue" stroke="midnightblue" points="307.45,-263.8 316.96,-268.47 312.44,-258.89 307.45,-263.8"/>
</g>
<!-- Node11&#45;&gt;Node9 -->
<g id="edge19" class="edge">
<title>Node11&#45;&gt;Node9</title>
<path fill="none" stroke="midnightblue" d="M289,-264.54C263.08,-254.14 230.92,-241.24 206.84,-231.58"/>
<polygon fill="midnightblue" stroke="midnightblue" points="288.02,-267.92 298.6,-268.4 290.63,-261.42 288.02,-267.92"/>
</g>
<!-- Node12&#45;&gt;Node4 -->
<g id="edge29" class="edge">
<title>Node12&#45;&gt;Node4</title>
<path fill="none" stroke="midnightblue" d="M512.57,-260.83C485.02,-229.99 443.86,-172.87 474.76,-134 492.85,-111.23 564.37,-97.82 620.62,-90.61"/>
<polygon fill="midnightblue" stroke="midnightblue" points="510.22,-263.45 519.57,-268.44 515.37,-258.71 510.22,-263.45"/>
</g>
<!-- Node12&#45;&gt;Node9 -->
<g id="edge22" class="edge">
<title>Node12&#45;&gt;Node9</title>
<path fill="none" stroke="midnightblue" d="M451.16,-267.67C388.7,-256.45 303.79,-241.21 244.02,-230.47"/>
<polygon fill="midnightblue" stroke="midnightblue" points="450.91,-271.18 461.37,-269.5 452.15,-264.29 450.91,-271.18"/>
</g>
<!-- Node12&#45;&gt;Node13 -->
<g id="edge23" class="edge">
<title>Node12&#45;&gt;Node13</title>
<path fill="none" stroke="midnightblue" d="M489,-264.54C463.08,-254.14 430.92,-241.24 406.84,-231.58"/>
<polygon fill="midnightblue" stroke="midnightblue" points="488.02,-267.92 498.6,-268.4 490.63,-261.42 488.02,-267.92"/>
</g>
<!-- Node12&#45;&gt;Node14 -->
<g id="edge25" class="edge">
<title>Node12&#45;&gt;Node14</title>
<path fill="none" stroke="midnightblue" d="M586.9,-265.23C619.25,-254.71 660.06,-241.45 690.44,-231.58"/>
<polygon fill="midnightblue" stroke="midnightblue" points="585.58,-261.98 577.15,-268.4 587.74,-268.63 585.58,-261.98"/>
</g>
<!-- Node12&#45;&gt;Node15 -->
<g id="edge27" class="edge">
<title>Node12&#45;&gt;Node15</title>
<path fill="none" stroke="midnightblue" d="M547.16,-259.58C552.61,-250.24 558.75,-239.75 563.53,-231.58"/>
<polygon fill="midnightblue" stroke="midnightblue" points="544.03,-258 542,-268.4 550.07,-261.53 544.03,-258"/>
</g>
<!-- Node13&#45;&gt;Node4 -->
<g id="edge24" class="edge">
<title>Node13&#45;&gt;Node4</title>
<path fill="none" stroke="midnightblue" d="M368.36,-191.07C367.3,-172.89 369.23,-148.76 383.76,-134 415.93,-101.31 539.95,-89.78 620.75,-85.71"/>
<polygon fill="midnightblue" stroke="midnightblue" points="364.89,-191.59 369.29,-201.23 371.86,-190.95 364.89,-191.59"/>
</g>
<!-- Node14&#45;&gt;Node4 -->
<g id="edge26" class="edge">
<title>Node14&#45;&gt;Node4</title>
<path fill="none" stroke="midnightblue" d="M651.59,-200.44C585.48,-187.93 502.78,-171.21 497.76,-165 459.92,-118.21 550.59,-97.92 620.64,-89.38"/>
<polygon fill="midnightblue" stroke="midnightblue" points="651.15,-203.92 661.62,-202.33 652.44,-197.04 651.15,-203.92"/>
</g>
<!-- Node15&#45;&gt;Node4 -->
<g id="edge28" class="edge">
<title>Node15&#45;&gt;Node4</title>
<path fill="none" stroke="midnightblue" d="M519.83,-196.78C505.99,-189.15 492.69,-178.78 484.76,-165 477.88,-153.06 476.24,-144.83 484.76,-134 501.61,-112.57 567.49,-99.11 620.65,-91.53"/>
<polygon fill="midnightblue" stroke="midnightblue" points="518.45,-200.01 528.95,-201.42 521.62,-193.77 518.45,-200.01"/>
</g>
<!-- Node16&#45;&gt;Node4 -->
<g id="edge31" class="edge">
<title>Node16&#45;&gt;Node4</title>
<path fill="none" stroke="midnightblue" d="M637.45,-127.88C649.76,-118.01 664.18,-106.43 675.21,-97.58"/>
<polygon fill="midnightblue" stroke="midnightblue" points="634.94,-125.41 629.33,-134.4 639.32,-130.87 634.94,-125.41"/>
</g>
<!-- Node17&#45;&gt;Node4 -->
<g id="edge33" class="edge">
<title>Node17&#45;&gt;Node4</title>
<path fill="none" stroke="midnightblue" d="M748.06,-127.88C735.75,-118.01 721.33,-106.43 710.3,-97.58"/>
<polygon fill="midnightblue" stroke="midnightblue" points="746.19,-130.87 756.18,-134.4 750.57,-125.41 746.19,-130.87"/>
</g>
<!-- Node18&#45;&gt;Node4 -->
<g id="edge35" class="edge">
<title>Node18&#45;&gt;Node4</title>
<path fill="none" stroke="midnightblue" d="M873.51,-131.85C833.89,-121.25 783.14,-107.68 745.51,-97.61"/>
<polygon fill="midnightblue" stroke="midnightblue" points="872.76,-135.27 883.33,-134.48 874.57,-128.51 872.76,-135.27"/>
</g>
<!-- Node19&#45;&gt;Node4 -->
<g id="edge37" class="edge">
<title>Node19&#45;&gt;Node4</title>
<path fill="none" stroke="midnightblue" d="M1015.3,-133.78C923.32,-118.45 828.29,-103.84 764.89,-94.27"/>
<polygon fill="midnightblue" stroke="midnightblue" points="1014.91,-137.26 1025.35,-135.45 1016.06,-130.35 1014.91,-137.26"/>
</g>
<!-- Node20&#45;&gt;Node4 -->
<g id="edge40" class="edge">
<title>Node20&#45;&gt;Node4</title>
<path fill="none" stroke="midnightblue" d="M1131.84,-197.28C1164.94,-181.61 1200.24,-157.83 1178.76,-134 1151.58,-103.86 893.44,-90.56 764.84,-85.77"/>
<polygon fill="midnightblue" stroke="midnightblue" points="1130.27,-194.15 1122.61,-201.48 1133.16,-200.53 1130.27,-194.15"/>
</g>
<!-- Node21&#45;&gt;Node4 -->
<g id="edge43" class="edge">
<title>Node21&#45;&gt;Node4</title>
<path fill="none" stroke="midnightblue" d="M796.06,-261.28C813.22,-243.77 830.58,-218.96 814.76,-201 730.64,-105.54 614.88,-260.46 530.76,-165 498.75,-128.68 563.62,-106.59 620.55,-94.74"/>
<polygon fill="midnightblue" stroke="midnightblue" points="793.56,-258.83 788.81,-268.3 798.43,-263.86 793.56,-258.83"/>
</g>
<!-- Node21&#45;&gt;Node14 -->
<g id="edge42" class="edge">
<title>Node21&#45;&gt;Node14</title>
<path fill="none" stroke="midnightblue" d="M758.35,-259.58C752.9,-250.24 746.76,-239.75 741.98,-231.58"/>
<polygon fill="midnightblue" stroke="midnightblue" points="755.44,-261.53 763.51,-268.4 761.48,-258 755.44,-261.53"/>
</g>
<!-- Node22&#45;&gt;Node4 -->
<g id="edge46" class="edge">
<title>Node22&#45;&gt;Node4</title>
<path fill="none" stroke="midnightblue" d="M1215.58,-134.52C1214.3,-134.34 1213.02,-134.17 1211.76,-134 1052.91,-112.91 865.62,-96.84 765.14,-88.93"/>
<polygon fill="midnightblue" stroke="midnightblue" points="1215.15,-137.99 1225.55,-135.95 1216.15,-131.06 1215.15,-137.99"/>
</g>
<!-- Node23&#45;&gt;Node4 -->
<g id="edge48" class="edge">
<title>Node23&#45;&gt;Node4</title>
<path fill="none" stroke="midnightblue" d="M1331.72,-197.26C1365.02,-181.49 1400.66,-157.58 1378.76,-134 1337.63,-89.74 932.82,-83.9 765.03,-83.39"/>
<polygon fill="midnightblue" stroke="midnightblue" points="1330.09,-194.15 1322.44,-201.48 1332.99,-200.52 1330.09,-194.15"/>
</g>
<!-- Node24&#45;&gt;Node4 -->
<g id="edge51" class="edge">
<title>Node24&#45;&gt;Node4</title>
<path fill="none" stroke="midnightblue" d="M1415.59,-134.47C1414.3,-134.31 1413.02,-134.15 1411.76,-134 1175.98,-105.91 894.71,-91.72 764.92,-86.25"/>
<polygon fill="midnightblue" stroke="midnightblue" points="1415.19,-137.95 1425.57,-135.81 1416.12,-131.01 1415.19,-137.95"/>
</g>
<!-- Node25&#45;&gt;Node4 -->
<g id="edge53" class="edge">
<title>Node25&#45;&gt;Node4</title>
<path fill="none" stroke="midnightblue" d="M1531.82,-197.16C1565.18,-181.34 1600.85,-157.39 1578.76,-134 1550.95,-104.56 971.2,-89.42 764.87,-84.94"/>
<polygon fill="midnightblue" stroke="midnightblue" points="1530.17,-194.07 1522.52,-201.4 1533.07,-200.44 1530.17,-194.07"/>
</g>
<!-- Node26&#45;&gt;Node4 -->
<g id="edge56" class="edge">
<title>Node26&#45;&gt;Node4</title>
<path fill="none" stroke="midnightblue" d="M1615.59,-134.44C1614.3,-134.29 1613.02,-134.14 1611.76,-134 1297.52,-98.99 920,-87.93 764.77,-84.71"/>
<polygon fill="midnightblue" stroke="midnightblue" points="1615.21,-137.92 1625.58,-135.73 1616.1,-130.98 1615.21,-137.92"/>
</g>
<!-- Node27&#45;&gt;Node4 -->
<g id="edge58" class="edge">
<title>Node27&#45;&gt;Node4</title>
<path fill="none" stroke="midnightblue" d="M1626.53,-265.62C1709.04,-241.22 1834.64,-192.54 1778.76,-134 1743.75,-97.33 1002.4,-86.64 765.12,-84.15"/>
<polygon fill="midnightblue" stroke="midnightblue" points="1625.32,-262.33 1616.69,-268.48 1627.27,-269.05 1625.32,-262.33"/>
</g>
<!-- Node28&#45;&gt;Node4 -->
<g id="edge60" class="edge">
<title>Node28&#45;&gt;Node4</title>
<path fill="none" stroke="midnightblue" d="M1748.6,-261.46C1782.43,-230.38 1834.87,-171.8 1798.76,-134 1763.01,-96.58 1004.58,-86.38 764.77,-84.08"/>
<polygon fill="midnightblue" stroke="midnightblue" points="1745.99,-259.1 1740.88,-268.38 1750.66,-264.31 1745.99,-259.1"/>
</g>
</g>
</svg>
