<?xml version="1.0" encoding="UTF-8" standalone="no"?>
<!DOCTYPE svg PUBLIC "-//W3C//DTD SVG 1.1//EN"
 "http://www.w3.org/Graphics/SVG/1.1/DTD/svg11.dtd">
<!-- Generated by graphviz version 2.43.0 (0)
 -->
<!-- Title: /home/ram/OmniTemplate/src/graph/tree/lca.hpp Pages: 1 -->
<svg width="647pt" height="554pt"
 viewBox="0.00 0.00 647.00 554.00" xmlns="http://www.w3.org/2000/svg" xmlns:xlink="http://www.w3.org/1999/xlink">
<g id="graph0" class="graph" transform="scale(1 1) rotate(0) translate(4 550)">
<title>/home/ram/OmniTemplate/src/graph/tree/lca.hpp</title>
<polygon fill="white" stroke="transparent" points="-4,4 -4,-550 643,-550 643,4 -4,4"/>
<!-- Node1 -->
<g id="node1" class="node">
<title>Node1</title>
<g id="a_node1"><a xlink:title=" ">
<polygon fill="#bfbfbf" stroke="black" points="287.5,-515.5 287.5,-545.5 431.5,-545.5 431.5,-515.5 287.5,-515.5"/>
<text text-anchor="start" x="295.5" y="-533.5" font-family="Helvetica,sans-Serif" font-size="10.00">/home/ram/OmniTemplate</text>
<text text-anchor="middle" x="359.5" y="-522.5" font-family="Helvetica,sans-Serif" font-size="10.00">/src/graph/tree/lca.hpp</text>
</a>
</g>
</g>
<!-- Node2 -->
<g id="node2" class="node">
<title>Node2</title>
<g id="a_node2"><a xlink:href="$core_8hpp.html" xlink:title=" ">
<polygon fill="white" stroke="black" points="330,-459.5 330,-478.5 389,-478.5 389,-459.5 330,-459.5"/>
<text text-anchor="middle" x="359.5" y="-466.5" font-family="Helvetica,sans-Serif" font-size="10.00">core.hpp</text>
</a>
</g>
</g>
<!-- Node1&#45;&gt;Node2 -->
<g id="edge1" class="edge">
<title>Node1&#45;&gt;Node2</title>
<path fill="none" stroke="midnightblue" d="M359.5,-515.4C359.5,-507.47 359.5,-497.46 359.5,-488.86"/>
<polygon fill="midnightblue" stroke="midnightblue" points="363,-488.66 359.5,-478.66 356,-488.66 363,-488.66"/>
</g>
<!-- Node3 -->
<g id="node3" class="node">
<title>Node3</title>
<g id="a_node3"><a xlink:href="$dsu_8hpp.html" xlink:title=" ">
<polygon fill="white" stroke="black" points="274,-347.5 274,-366.5 343,-366.5 343,-347.5 274,-347.5"/>
<text text-anchor="middle" x="308.5" y="-354.5" font-family="Helvetica,sans-Serif" font-size="10.00">ds/dsu.hpp</text>
</a>
</g>
</g>
<!-- Node2&#45;&gt;Node3 -->
<g id="edge2" class="edge">
<title>Node2&#45;&gt;Node3</title>
<path fill="none" stroke="midnightblue" d="M351.93,-459.26C344.75,-450.58 334.11,-436.63 327.5,-423 320.29,-408.12 315.27,-389.98 312.21,-376.64"/>
<polygon fill="midnightblue" stroke="midnightblue" points="315.6,-375.8 310.09,-366.75 308.76,-377.26 315.6,-375.8"/>
</g>
<!-- Node13 -->
<g id="node13" class="node">
<title>Node13</title>
<g id="a_node13"><a xlink:href="$linear__algebra_8hpp.html" xlink:title=" ">
<polygon fill="white" stroke="black" points="337,-403.5 337,-422.5 484,-422.5 484,-403.5 337,-403.5"/>
<text text-anchor="middle" x="410.5" y="-410.5" font-family="Helvetica,sans-Serif" font-size="10.00">algebra/linear_algebra.hpp</text>
</a>
</g>
</g>
<!-- Node2&#45;&gt;Node13 -->
<g id="edge18" class="edge">
<title>Node2&#45;&gt;Node13</title>
<path fill="none" stroke="midnightblue" d="M367.92,-459.08C375.35,-451.22 386.35,-439.57 395.31,-430.08"/>
<polygon fill="midnightblue" stroke="midnightblue" points="397.91,-432.42 402.24,-422.75 392.82,-427.62 397.91,-432.42"/>
</g>
<!-- Node4 -->
<g id="node4" class="node">
<title>Node4</title>
<g id="a_node4"><a xlink:href="$core_2all_8hpp.html" xlink:title=" ">
<polygon fill="white" stroke="black" points="386.5,-235.5 386.5,-254.5 460.5,-254.5 460.5,-235.5 386.5,-235.5"/>
<text text-anchor="middle" x="423.5" y="-242.5" font-family="Helvetica,sans-Serif" font-size="10.00">core/all.hpp</text>
</a>
</g>
</g>
<!-- Node3&#45;&gt;Node4 -->
<g id="edge3" class="edge">
<title>Node3&#45;&gt;Node4</title>
<path fill="none" stroke="midnightblue" d="M313.75,-347.3C321.97,-334.11 338.89,-308.75 357.5,-291 370.02,-279.06 386.01,-268.08 399.11,-259.95"/>
<polygon fill="midnightblue" stroke="midnightblue" points="401.29,-262.72 408.05,-254.56 397.68,-256.72 401.29,-262.72"/>
</g>
<!-- Node5 -->
<g id="node5" class="node">
<title>Node5</title>
<g id="a_node5"><a xlink:title=" ">
<polygon fill="white" stroke="#bfbfbf" points="0,-174 0,-193 83,-193 83,-174 0,-174"/>
<text text-anchor="middle" x="41.5" y="-181" font-family="Helvetica,sans-Serif" font-size="10.00">bits/stdc++.h</text>
</a>
</g>
</g>
<!-- Node4&#45;&gt;Node5 -->
<g id="edge4" class="edge">
<title>Node4&#45;&gt;Node5</title>
<path fill="none" stroke="midnightblue" d="M386.35,-240.77C324.64,-235 197.35,-221.39 91.5,-199 87.1,-198.07 82.53,-196.95 78.01,-195.76"/>
<polygon fill="midnightblue" stroke="midnightblue" points="78.87,-192.37 68.3,-193.06 77,-199.11 78.87,-192.37"/>
</g>
<!-- Node6 -->
<g id="node6" class="node">
<title>Node6</title>
<g id="a_node6"><a xlink:title=" ">
<polygon fill="white" stroke="#bfbfbf" points="101,-174 101,-193 222,-193 222,-174 101,-174"/>
<text text-anchor="middle" x="161.5" y="-181" font-family="Helvetica,sans-Serif" font-size="10.00">experimental/iterator</text>
</a>
</g>
</g>
<!-- Node4&#45;&gt;Node6 -->
<g id="edge5" class="edge">
<title>Node4&#45;&gt;Node6</title>
<path fill="none" stroke="midnightblue" d="M386.24,-235.54C339.62,-224.95 259.73,-206.81 208.83,-195.25"/>
<polygon fill="midnightblue" stroke="midnightblue" points="209.58,-191.83 199.06,-193.03 208.03,-198.66 209.58,-191.83"/>
</g>
<!-- Node7 -->
<g id="node7" class="node">
<title>Node7</title>
<g id="a_node7"><a xlink:title=" ">
<polygon fill="white" stroke="#bfbfbf" points="240,-168.5 240,-198.5 357,-198.5 357,-168.5 240,-168.5"/>
<text text-anchor="start" x="248" y="-186.5" font-family="Helvetica,sans-Serif" font-size="10.00">experimental/source</text>
<text text-anchor="middle" x="298.5" y="-175.5" font-family="Helvetica,sans-Serif" font-size="10.00">_location</text>
</a>
</g>
</g>
<!-- Node4&#45;&gt;Node7 -->
<g id="edge6" class="edge">
<title>Node4&#45;&gt;Node7</title>
<path fill="none" stroke="midnightblue" d="M405.59,-235.48C387.79,-227 359.92,-213.74 337.08,-202.86"/>
<polygon fill="midnightblue" stroke="midnightblue" points="338.49,-199.66 327.96,-198.52 335.49,-205.98 338.49,-199.66"/>
</g>
<!-- Node8 -->
<g id="node8" class="node">
<title>Node8</title>
<g id="a_node8"><a xlink:href="$debug_8hpp.html" xlink:title=" ">
<polygon fill="white" stroke="black" points="422.5,-112.5 422.5,-131.5 490.5,-131.5 490.5,-112.5 422.5,-112.5"/>
<text text-anchor="middle" x="456.5" y="-119.5" font-family="Helvetica,sans-Serif" font-size="10.00">debug.hpp</text>
</a>
</g>
</g>
<!-- Node4&#45;&gt;Node8 -->
<g id="edge7" class="edge">
<title>Node4&#45;&gt;Node8</title>
<path fill="none" stroke="midnightblue" d="M425.56,-235.06C428.89,-220.82 435.75,-192.1 442.5,-168 444.99,-159.13 448,-149.35 450.59,-141.18"/>
<polygon fill="midnightblue" stroke="midnightblue" points="453.94,-142.18 453.67,-131.58 447.28,-140.03 453.94,-142.18"/>
</g>
<!-- Node9 -->
<g id="node9" class="node">
<title>Node9</title>
<g id="a_node9"><a xlink:href="$operations_8hpp.html" xlink:title=" ">
<polygon fill="white" stroke="black" points="372,-56.5 372,-75.5 461,-75.5 461,-56.5 372,-56.5"/>
<text text-anchor="middle" x="416.5" y="-63.5" font-family="Helvetica,sans-Serif" font-size="10.00">operations.hpp</text>
</a>
</g>
</g>
<!-- Node4&#45;&gt;Node9 -->
<g id="edge14" class="edge">
<title>Node4&#45;&gt;Node9</title>
<path fill="none" stroke="midnightblue" d="M422.19,-235.37C419.15,-214.31 411.95,-158.63 413.5,-112 413.79,-103.38 414.38,-93.85 414.97,-85.79"/>
<polygon fill="midnightblue" stroke="midnightblue" points="418.47,-85.86 415.75,-75.62 411.49,-85.32 418.47,-85.86"/>
</g>
<!-- Node10 -->
<g id="node10" class="node">
<title>Node10</title>
<g id="a_node10"><a xlink:href="$range_8hpp.html" xlink:title=" ">
<polygon fill="white" stroke="black" points="504,-0.5 504,-19.5 569,-19.5 569,-0.5 504,-0.5"/>
<text text-anchor="middle" x="536.5" y="-7.5" font-family="Helvetica,sans-Serif" font-size="10.00">range.hpp</text>
</a>
</g>
</g>
<!-- Node4&#45;&gt;Node10 -->
<g id="edge15" class="edge">
<title>Node4&#45;&gt;Node10</title>
<path fill="none" stroke="midnightblue" d="M446.11,-235.41C463.28,-228.58 485.69,-217.09 498.5,-199 535.35,-146.95 533.11,-66.46 533.64,-30.04"/>
<polygon fill="midnightblue" stroke="midnightblue" points="537.15,-29.97 533.97,-19.86 530.15,-29.75 537.15,-29.97"/>
</g>
<!-- Node11 -->
<g id="node11" class="node">
<title>Node11</title>
<g id="a_node11"><a xlink:href="$io_8hpp.html" xlink:title=" ">
<polygon fill="white" stroke="black" points="452,-174 452,-193 499,-193 499,-174 452,-174"/>
<text text-anchor="middle" x="475.5" y="-181" font-family="Helvetica,sans-Serif" font-size="10.00">io.hpp</text>
</a>
</g>
</g>
<!-- Node4&#45;&gt;Node11 -->
<g id="edge12" class="edge">
<title>Node4&#45;&gt;Node11</title>
<path fill="none" stroke="midnightblue" d="M430.95,-235.48C438.83,-226.46 451.44,-212.02 461.24,-200.81"/>
<polygon fill="midnightblue" stroke="midnightblue" points="464.12,-202.84 468.06,-193.01 458.85,-198.24 464.12,-202.84"/>
</g>
<!-- Node12 -->
<g id="node12" class="node">
<title>Node12</title>
<g id="a_node12"><a xlink:href="$utility_8hpp.html" xlink:title=" ">
<polygon fill="white" stroke="black" points="574,-112.5 574,-131.5 639,-131.5 639,-112.5 574,-112.5"/>
<text text-anchor="middle" x="606.5" y="-119.5" font-family="Helvetica,sans-Serif" font-size="10.00">utility.hpp</text>
</a>
</g>
</g>
<!-- Node4&#45;&gt;Node12 -->
<g id="edge16" class="edge">
<title>Node4&#45;&gt;Node12</title>
<path fill="none" stroke="midnightblue" d="M460.56,-238.85C489.94,-233.21 530.71,-221.73 559.5,-199 578.76,-183.8 592.16,-158.37 599.59,-141.15"/>
<polygon fill="midnightblue" stroke="midnightblue" points="602.93,-142.24 603.45,-131.66 596.44,-139.61 602.93,-142.24"/>
</g>
<!-- Node8&#45;&gt;Node9 -->
<g id="edge8" class="edge">
<title>Node8&#45;&gt;Node9</title>
<path fill="none" stroke="midnightblue" d="M449.89,-112.08C444.24,-104.46 435.96,-93.26 429.05,-83.94"/>
<polygon fill="midnightblue" stroke="midnightblue" points="431.75,-81.7 422.98,-75.75 426.12,-85.87 431.75,-81.7"/>
</g>
<!-- Node8&#45;&gt;Node10 -->
<g id="edge11" class="edge">
<title>Node8&#45;&gt;Node10</title>
<path fill="none" stroke="midnightblue" d="M462.78,-112.37C475.98,-94.22 506.83,-51.8 524.14,-27.99"/>
<polygon fill="midnightblue" stroke="midnightblue" points="527.2,-29.74 530.25,-19.59 521.54,-25.62 527.2,-29.74"/>
</g>
<!-- Node9&#45;&gt;Node10 -->
<g id="edge9" class="edge">
<title>Node9&#45;&gt;Node10</title>
<path fill="none" stroke="midnightblue" d="M435.51,-56.44C455.09,-47.64 485.81,-33.81 508.23,-23.72"/>
<polygon fill="midnightblue" stroke="midnightblue" points="509.89,-26.81 517.57,-19.52 507.02,-20.43 509.89,-26.81"/>
</g>
<!-- Node10&#45;&gt;Node4 -->
<g id="edge10" class="edge">
<title>Node10&#45;&gt;Node4</title>
<path fill="none" stroke="midnightblue" d="M541.45,-19.86C550.16,-48.7 557.33,-141.32 516.5,-199 505.53,-214.49 487.52,-225.14 470.17,-232.17"/>
<polygon fill="midnightblue" stroke="midnightblue" points="468.8,-228.95 460.65,-235.71 471.24,-235.51 468.8,-228.95"/>
</g>
<!-- Node11&#45;&gt;Node8 -->
<g id="edge13" class="edge">
<title>Node11&#45;&gt;Node8</title>
<path fill="none" stroke="midnightblue" d="M472.78,-173.98C470.07,-165.49 465.83,-152.2 462.35,-141.32"/>
<polygon fill="midnightblue" stroke="midnightblue" points="465.59,-139.97 459.22,-131.51 458.93,-142.1 465.59,-139.97"/>
</g>
<!-- Node12&#45;&gt;Node10 -->
<g id="edge17" class="edge">
<title>Node12&#45;&gt;Node10</title>
<path fill="none" stroke="midnightblue" d="M601.01,-112.37C589.51,-94.3 562.7,-52.18 547.51,-28.31"/>
<polygon fill="midnightblue" stroke="midnightblue" points="550.29,-26.15 541.97,-19.59 544.38,-29.91 550.29,-26.15"/>
</g>
<!-- Node13&#45;&gt;Node4 -->
<g id="edge19" class="edge">
<title>Node13&#45;&gt;Node4</title>
<path fill="none" stroke="midnightblue" d="M406.28,-403.28C397.11,-383.07 377.18,-331.67 390.5,-291 393.99,-280.34 401.07,-270.12 407.79,-262.12"/>
<polygon fill="midnightblue" stroke="midnightblue" points="410.4,-264.44 414.48,-254.66 405.2,-259.76 410.4,-264.44"/>
</g>
<!-- Node14 -->
<g id="node14" class="node">
<title>Node14</title>
<g id="a_node14"><a xlink:href="$modulo_8hpp.html" xlink:title=" ">
<polygon fill="white" stroke="black" points="399.5,-291.5 399.5,-310.5 551.5,-310.5 551.5,-291.5 399.5,-291.5"/>
<text text-anchor="middle" x="475.5" y="-298.5" font-family="Helvetica,sans-Serif" font-size="10.00">number_theory/modulo.hpp</text>
</a>
</g>
</g>
<!-- Node13&#45;&gt;Node14 -->
<g id="edge20" class="edge">
<title>Node13&#45;&gt;Node14</title>
<path fill="none" stroke="midnightblue" d="M411.59,-403.45C413.53,-390.46 418.49,-365.35 429.5,-347 436.28,-335.7 446.57,-325.27 455.7,-317.3"/>
<polygon fill="midnightblue" stroke="midnightblue" points="458.17,-319.79 463.63,-310.71 453.7,-314.41 458.17,-319.79"/>
</g>
<!-- Node15 -->
<g id="node15" class="node">
<title>Node15</title>
<g id="a_node15"><a xlink:href="$polynomial_8hpp.html" xlink:title=" ">
<polygon fill="white" stroke="black" points="438.5,-347.5 438.5,-366.5 530.5,-366.5 530.5,-347.5 438.5,-347.5"/>
<text text-anchor="middle" x="484.5" y="-354.5" font-family="Helvetica,sans-Serif" font-size="10.00">polynomial.hpp</text>
</a>
</g>
</g>
<!-- Node13&#45;&gt;Node15 -->
<g id="edge22" class="edge">
<title>Node13&#45;&gt;Node15</title>
<path fill="none" stroke="midnightblue" d="M422.39,-403.32C433.65,-395.11 450.79,-382.6 464.21,-372.81"/>
<polygon fill="midnightblue" stroke="midnightblue" points="466.38,-375.56 472.39,-366.83 462.25,-369.9 466.38,-375.56"/>
</g>
<!-- Node14&#45;&gt;Node4 -->
<g id="edge21" class="edge">
<title>Node14&#45;&gt;Node4</title>
<path fill="none" stroke="midnightblue" d="M466.91,-291.08C459.34,-283.22 448.12,-271.57 438.99,-262.08"/>
<polygon fill="midnightblue" stroke="midnightblue" points="441.38,-259.53 431.93,-254.75 436.34,-264.38 441.38,-259.53"/>
</g>
<!-- Node15&#45;&gt;Node4 -->
<g id="edge23" class="edge">
<title>Node15&#45;&gt;Node4</title>
<path fill="none" stroke="midnightblue" d="M509.34,-347.41C537.69,-336.22 578.01,-315.19 560.5,-291 540.19,-262.94 501.81,-252.07 470.83,-248"/>
<polygon fill="midnightblue" stroke="midnightblue" points="470.97,-244.5 460.65,-246.87 470.2,-251.45 470.97,-244.5"/>
</g>
<!-- Node15&#45;&gt;Node14 -->
<g id="edge24" class="edge">
<title>Node15&#45;&gt;Node14</title>
<path fill="none" stroke="midnightblue" d="M483.01,-347.08C481.82,-339.93 480.11,-329.64 478.62,-320.69"/>
<polygon fill="midnightblue" stroke="midnightblue" points="482.05,-320.04 476.96,-310.75 475.15,-321.19 482.05,-320.04"/>
</g>
</g>
</svg>
