<?xml version="1.0" encoding="UTF-8" standalone="no"?>
<!DOCTYPE svg PUBLIC "-//W3C//DTD SVG 1.1//EN"
 "http://www.w3.org/Graphics/SVG/1.1/DTD/svg11.dtd">
<!-- Generated by graphviz version 2.43.0 (0)
 -->
<!-- Title: /home/ram/OmniTemplate/linear_algebra.hpp Pages: 1 -->
<svg width="697pt" height="307pt"
 viewBox="0.00 0.00 697.46 307.00" xmlns="http://www.w3.org/2000/svg" xmlns:xlink="http://www.w3.org/1999/xlink">
<g id="graph0" class="graph" transform="scale(1 1) rotate(0) translate(4 303)">
<title>/home/ram/OmniTemplate/linear_algebra.hpp</title>
<polygon fill="white" stroke="transparent" points="-4,4 -4,-303 693.46,-303 693.46,4 -4,4"/>
<!-- Node1 -->
<g id="node1" class="node">
<title>Node1</title>
<g id="a_node1"><a xlink:title=" ">
<polygon fill="#bfbfbf" stroke="black" points="412,-268.5 412,-298.5 556,-298.5 556,-268.5 412,-268.5"/>
<text text-anchor="start" x="420" y="-286.5" font-family="Helvetica,sans-Serif" font-size="10.00">/home/ram/OmniTemplate</text>
<text text-anchor="middle" x="484" y="-275.5" font-family="Helvetica,sans-Serif" font-size="10.00">/linear_algebra.hpp</text>
</a>
</g>
</g>
<!-- Node2 -->
<g id="node2" class="node">
<title>Node2</title>
<g id="a_node2"><a xlink:href="graph__theory_8hpp.html" target="_top" xlink:title=" ">
<polygon fill="white" stroke="black" points="281,-201.5 281,-231.5 425,-231.5 425,-201.5 281,-201.5"/>
<text text-anchor="start" x="289" y="-219.5" font-family="Helvetica,sans-Serif" font-size="10.00">/home/ram/OmniTemplate</text>
<text text-anchor="middle" x="353" y="-208.5" font-family="Helvetica,sans-Serif" font-size="10.00">/graph_theory.hpp</text>
</a>
</g>
</g>
<!-- Node1&#45;&gt;Node2 -->
<g id="edge1" class="edge">
<title>Node1&#45;&gt;Node2</title>
<path fill="none" stroke="midnightblue" d="M446.42,-263.85C425.71,-253.58 400.41,-241.03 381.37,-231.58"/>
<polygon fill="midnightblue" stroke="midnightblue" points="445.06,-267.09 455.57,-268.4 448.17,-260.82 445.06,-267.09"/>
</g>
<!-- Node4 -->
<g id="node4" class="node">
<title>Node4</title>
<g id="a_node4"><a xlink:href="template_8hpp.html" target="_top" xlink:title=" ">
<polygon fill="white" stroke="black" points="312,-67.5 312,-97.5 456,-97.5 456,-67.5 312,-67.5"/>
<text text-anchor="start" x="320" y="-85.5" font-family="Helvetica,sans-Serif" font-size="10.00">/home/ram/OmniTemplate</text>
<text text-anchor="middle" x="384" y="-74.5" font-family="Helvetica,sans-Serif" font-size="10.00">/template.hpp</text>
</a>
</g>
</g>
<!-- Node1&#45;&gt;Node4 -->
<g id="edge11" class="edge">
<title>Node1&#45;&gt;Node4</title>
<path fill="none" stroke="midnightblue" d="M541.21,-265.28C614.13,-240.47 725.29,-191.32 677,-134 649.31,-101.13 533.7,-89.66 456.24,-85.65"/>
<polygon fill="midnightblue" stroke="midnightblue" points="540.02,-261.98 531.64,-268.47 542.23,-268.62 540.02,-261.98"/>
</g>
<!-- Node3 -->
<g id="node3" class="node">
<title>Node3</title>
<g id="a_node3"><a xlink:href="2sat_8hpp.html" target="_top" xlink:title=" ">
<polygon fill="white" stroke="black" points="0,-134.5 0,-164.5 144,-164.5 144,-134.5 0,-134.5"/>
<text text-anchor="start" x="8" y="-152.5" font-family="Helvetica,sans-Serif" font-size="10.00">/home/ram/OmniTemplate</text>
<text text-anchor="middle" x="72" y="-141.5" font-family="Helvetica,sans-Serif" font-size="10.00">/2sat.hpp</text>
</a>
</g>
</g>
<!-- Node2&#45;&gt;Node3 -->
<g id="edge2" class="edge">
<title>Node2&#45;&gt;Node3</title>
<path fill="none" stroke="midnightblue" d="M282.47,-199.19C236.45,-188.54 176.98,-174.78 133,-164.61"/>
<polygon fill="midnightblue" stroke="midnightblue" points="281.84,-202.63 292.37,-201.48 283.42,-195.81 281.84,-202.63"/>
</g>
<!-- Node2&#45;&gt;Node4 -->
<g id="edge10" class="edge">
<title>Node2&#45;&gt;Node4</title>
<path fill="none" stroke="midnightblue" d="M270.98,-202.91C217.86,-191.13 163.33,-169.84 191,-134 206,-114.57 263.56,-101.17 311.95,-93.09"/>
<polygon fill="midnightblue" stroke="midnightblue" points="270.35,-206.35 280.86,-205 271.8,-199.5 270.35,-206.35"/>
</g>
<!-- Node7 -->
<g id="node7" class="node">
<title>Node7</title>
<g id="a_node7"><a xlink:href="d_8cpp.html" target="_top" xlink:title=" ">
<polygon fill="white" stroke="black" points="200,-134.5 200,-164.5 344,-164.5 344,-134.5 200,-134.5"/>
<text text-anchor="start" x="208" y="-152.5" font-family="Helvetica,sans-Serif" font-size="10.00">/home/ram/OmniTemplate</text>
<text text-anchor="middle" x="272" y="-141.5" font-family="Helvetica,sans-Serif" font-size="10.00">/d.cpp</text>
</a>
</g>
</g>
<!-- Node2&#45;&gt;Node7 -->
<g id="edge6" class="edge">
<title>Node2&#45;&gt;Node7</title>
<path fill="none" stroke="midnightblue" d="M327.31,-194.88C315,-185.01 300.57,-173.43 289.54,-164.58"/>
<polygon fill="midnightblue" stroke="midnightblue" points="325.43,-197.87 335.42,-201.4 329.82,-192.41 325.43,-197.87"/>
</g>
<!-- Node8 -->
<g id="node8" class="node">
<title>Node8</title>
<g id="a_node8"><a xlink:href="flow_8cpp.html" target="_top" xlink:title=" ">
<polygon fill="white" stroke="black" points="362,-134.5 362,-164.5 506,-164.5 506,-134.5 362,-134.5"/>
<text text-anchor="start" x="370" y="-152.5" font-family="Helvetica,sans-Serif" font-size="10.00">/home/ram/OmniTemplate</text>
<text text-anchor="middle" x="434" y="-141.5" font-family="Helvetica,sans-Serif" font-size="10.00">/flow.cpp</text>
</a>
</g>
</g>
<!-- Node2&#45;&gt;Node8 -->
<g id="edge7" class="edge">
<title>Node2&#45;&gt;Node8</title>
<path fill="none" stroke="midnightblue" d="M378.69,-194.88C391,-185.01 405.43,-173.43 416.46,-164.58"/>
<polygon fill="midnightblue" stroke="midnightblue" points="376.18,-192.41 370.58,-201.4 380.57,-197.87 376.18,-192.41"/>
</g>
<!-- Node9 -->
<g id="node9" class="node">
<title>Node9</title>
<g id="a_node9"><a xlink:href="hld_8hpp.html" target="_top" xlink:title=" ">
<polygon fill="white" stroke="black" points="524,-134.5 524,-164.5 668,-164.5 668,-134.5 524,-134.5"/>
<text text-anchor="start" x="532" y="-152.5" font-family="Helvetica,sans-Serif" font-size="10.00">/home/ram/OmniTemplate</text>
<text text-anchor="middle" x="596" y="-141.5" font-family="Helvetica,sans-Serif" font-size="10.00">/hld.hpp</text>
</a>
</g>
</g>
<!-- Node2&#45;&gt;Node9 -->
<g id="edge8" class="edge">
<title>Node2&#45;&gt;Node9</title>
<path fill="none" stroke="midnightblue" d="M415.25,-198.85C454.86,-188.25 505.61,-174.68 543.25,-164.61"/>
<polygon fill="midnightblue" stroke="midnightblue" points="414.18,-195.51 405.43,-201.48 415.99,-202.27 414.18,-195.51"/>
</g>
<!-- Node3&#45;&gt;Node4 -->
<g id="edge3" class="edge">
<title>Node3&#45;&gt;Node4</title>
<path fill="none" stroke="midnightblue" d="M149.36,-132.38C200.68,-121.69 267.38,-107.8 316.54,-97.55"/>
<polygon fill="midnightblue" stroke="midnightblue" points="148.39,-129.01 139.32,-134.48 149.82,-135.86 148.39,-129.01"/>
</g>
<!-- Node5 -->
<g id="node5" class="node">
<title>Node5</title>
<g id="a_node5"><a xlink:href="program_8cpp.html" target="_top" xlink:title=" ">
<polygon fill="white" stroke="black" points="231,-0.5 231,-30.5 375,-30.5 375,-0.5 231,-0.5"/>
<text text-anchor="start" x="239" y="-18.5" font-family="Helvetica,sans-Serif" font-size="10.00">/home/ram/OmniTemplate</text>
<text text-anchor="middle" x="303" y="-7.5" font-family="Helvetica,sans-Serif" font-size="10.00">/program.cpp</text>
</a>
</g>
</g>
<!-- Node4&#45;&gt;Node5 -->
<g id="edge4" class="edge">
<title>Node4&#45;&gt;Node5</title>
<path fill="none" stroke="midnightblue" d="M358.31,-60.88C346,-51.01 331.57,-39.43 320.54,-30.58"/>
<polygon fill="midnightblue" stroke="midnightblue" points="356.43,-63.87 366.42,-67.4 360.82,-58.41 356.43,-63.87"/>
</g>
<!-- Node6 -->
<g id="node6" class="node">
<title>Node6</title>
<g id="a_node6"><a xlink:href="test_8cpp.html" target="_top" xlink:title=" ">
<polygon fill="white" stroke="black" points="393,-0.5 393,-30.5 537,-30.5 537,-0.5 393,-0.5"/>
<text text-anchor="start" x="401" y="-18.5" font-family="Helvetica,sans-Serif" font-size="10.00">/home/ram/OmniTemplate</text>
<text text-anchor="middle" x="465" y="-7.5" font-family="Helvetica,sans-Serif" font-size="10.00">/test.cpp</text>
</a>
</g>
</g>
<!-- Node4&#45;&gt;Node6 -->
<g id="edge5" class="edge">
<title>Node4&#45;&gt;Node6</title>
<path fill="none" stroke="midnightblue" d="M409.69,-60.88C422,-51.01 436.43,-39.43 447.46,-30.58"/>
<polygon fill="midnightblue" stroke="midnightblue" points="407.18,-58.41 401.58,-67.4 411.57,-63.87 407.18,-58.41"/>
</g>
<!-- Node9&#45;&gt;Node4 -->
<g id="edge9" class="edge">
<title>Node9&#45;&gt;Node4</title>
<path fill="none" stroke="midnightblue" d="M540.37,-131.44C506.01,-120.91 462.44,-107.55 430.02,-97.61"/>
<polygon fill="midnightblue" stroke="midnightblue" points="539.67,-134.89 550.26,-134.48 541.73,-128.2 539.67,-134.89"/>
</g>
</g>
</svg>
