<?xml version="1.0" encoding="UTF-8" standalone="no"?>
<!DOCTYPE svg PUBLIC "-//W3C//DTD SVG 1.1//EN"
 "http://www.w3.org/Graphics/SVG/1.1/DTD/svg11.dtd">
<!-- Generated by graphviz version 2.43.0 (0)
 -->
<!-- Title: det Pages: 1 -->
<svg width="121pt" height="28pt"
 viewBox="0.00 0.00 121.00 28.00" xmlns="http://www.w3.org/2000/svg" xmlns:xlink="http://www.w3.org/1999/xlink">
<g id="graph0" class="graph" transform="scale(1 1) rotate(0) translate(4 24)">
<title>det</title>
<polygon fill="white" stroke="transparent" points="-4,4 -4,-24 117,-24 117,4 -4,4"/>
<!-- Node1 -->
<g id="node1" class="node">
<title>Node1</title>
<g id="a_node1"><a xlink:title=" ">
<polygon fill="#bfbfbf" stroke="black" points="0,-0.5 0,-19.5 32,-19.5 32,-0.5 0,-0.5"/>
<text text-anchor="middle" x="16" y="-7.5" font-family="Helvetica,sans-Serif" font-size="10.00">det</text>
</a>
</g>
</g>
<!-- Node2 -->
<g id="node2" class="node">
<title>Node2</title>
<g id="a_node2"><a xlink:href="linear__algebra_8hpp.html#a19f0f5824555e4b22a1636e87f97d266" target="_top" xlink:title=" ">
<polygon fill="white" stroke="black" points="68,-0.5 68,-19.5 113,-19.5 113,-0.5 68,-0.5"/>
<text text-anchor="middle" x="90.5" y="-7.5" font-family="Helvetica,sans-Serif" font-size="10.00">gauss</text>
</a>
</g>
</g>
<!-- Node1&#45;&gt;Node2 -->
<g id="edge1" class="edge">
<title>Node1&#45;&gt;Node2</title>
<path fill="none" stroke="midnightblue" d="M32.02,-4.41C39.47,-3.48 48.78,-3.11 57.71,-3.3"/>
<polygon fill="midnightblue" stroke="midnightblue" points="57.75,-6.8 67.9,-3.77 58.07,0.19 57.75,-6.8"/>
</g>
<!-- Node2&#45;&gt;Node1 -->
<g id="edge2" class="edge">
<title>Node2&#45;&gt;Node1</title>
<path fill="none" stroke="midnightblue" d="M67.9,-16.23C59.77,-16.84 50.46,-16.91 42.05,-16.45"/>
<polygon fill="midnightblue" stroke="midnightblue" points="42.29,-12.96 32.02,-15.59 41.69,-19.94 42.29,-12.96"/>
</g>
</g>
</svg>
