<?xml version="1.0" encoding="UTF-8" standalone="no"?>
<!DOCTYPE svg PUBLIC "-//W3C//DTD SVG 1.1//EN"
 "http://www.w3.org/Graphics/SVG/1.1/DTD/svg11.dtd">
<!-- Generated by graphviz version 2.43.0 (0)
 -->
<!-- Title: test_link_cut_tree Pages: 1 -->
<!--zoomable 207 -->
<svg id="main" version="1.1" xmlns="http://www.w3.org/2000/svg" xmlns:xlink="http://www.w3.org/1999/xlink" xml:space="preserve" onload="init(evt)">
<style type="text/css"><![CDATA[
.edge:hover path { stroke: red; }
.edge:hover polygon { stroke: red; fill: red; }
]]></style>
<script type="text/javascript"><![CDATA[
var edges = document.getElementsByTagName('g');
if (edges && edges.length) {
  for (var i=0;i<edges.length;i++) {
    if (edges[i].id.substr(0,4)=='edge') {
      edges[i].setAttribute('class','edge');
    }
  }
}
]]></script>
        <defs>
                <circle id="rim" cx="0" cy="0" r="7"/>
                <circle id="rim2" cx="0" cy="0" r="3.5"/>
                <g id="zoomPlus">
                        <use xlink:href="#rim" fill="#404040">
                                <set attributeName="fill" to="#808080" begin="zoomplus.mouseover" end="zoomplus.mouseout"/>
                        </use>
                        <path d="M-4,0h8M0,-4v8" fill="none" stroke="white" stroke-width="1.5" pointer-events="none"/>
                </g>
                <g id="zoomMin">
                        <use xlink:href="#rim" fill="#404040">
                                <set attributeName="fill" to="#808080" begin="zoomminus.mouseover" end="zoomminus.mouseout"/>
                        </use>
                        <path d="M-4,0h8" fill="none" stroke="white" stroke-width="1.5" pointer-events="none"/>
                </g>
                <g id="dirArrow">
                        <path fill="none" stroke="white" stroke-width="1.5" d="M0,-3.0v7 M-2.5,-0.5L0,-3.0L2.5,-0.5"/>
                </g>
               <g id="resetDef">
                       <use xlink:href="#rim2" fill="#404040">
                               <set attributeName="fill" to="#808080" begin="reset.mouseover" end="reset.mouseout"/>
                       </use>
               </g>
        </defs>

<script type="text/javascript">
var viewWidth = 1046;
var viewHeight = 207;
var sectionId = 'dynsection-14';
</script>
<script xlink:href="svgpan.js"/>
<svg id="graph" class="graph">
<g id="viewport">
<title>test_link_cut_tree</title>
<polygon fill="white" stroke="transparent" points="-4,4 -4,-202.96 1042,-202.96 1042,4 -4,4"/>
<!-- Node1 -->
<g id="node1" class="node">
<title>Node1</title>
<g id="a_node1"><a xlink:title=" ">
<polygon fill="#bfbfbf" stroke="black" points="0,-76.5 0,-95.5 104,-95.5 104,-76.5 0,-76.5"/>
<text text-anchor="middle" x="52" y="-83.5" font-family="Helvetica,sans-Serif" font-size="10.00">test_link_cut_tree</text>
</a>
</g>
</g>
<!-- Node2 -->
<g id="node2" class="node">
<title>Node2</title>
<g id="a_node2"><a xlink:href="link__cut_8hpp.html#aee90268d7b5985314517951d6e69543c" target="_top" xlink:title=" ">
<polygon fill="white" stroke="black" points="258,-152.5 258,-171.5 290,-171.5 290,-152.5 258,-152.5"/>
<text text-anchor="middle" x="274" y="-159.5" font-family="Helvetica,sans-Serif" font-size="10.00">cut</text>
</a>
</g>
</g>
<!-- Node1&#45;&gt;Node2 -->
<g id="edge1" class="edge">
<title>Node1&#45;&gt;Node2</title>
<path fill="none" stroke="midnightblue" d="M72.74,-95.52C90.17,-103.72 116.42,-115.53 140,-124 176.91,-137.27 220.86,-149.07 247.84,-155.88"/>
<polygon fill="midnightblue" stroke="midnightblue" points="247.08,-159.3 257.63,-158.32 248.77,-152.51 247.08,-159.3"/>
</g>
<!-- Node9 -->
<g id="node9" class="node">
<title>Node9</title>
<g id="a_node9"><a xlink:href="link__cut_8hpp.html#af2023ad828dc7b552bfb5c19b197e8a8" target="_top" xlink:title=" ">
<polygon fill="white" stroke="black" points="244,-114.5 244,-133.5 304,-133.5 304,-114.5 244,-114.5"/>
<text text-anchor="middle" x="274" y="-121.5" font-family="Helvetica,sans-Serif" font-size="10.00">find_root</text>
</a>
</g>
</g>
<!-- Node1&#45;&gt;Node9 -->
<g id="edge11" class="edge">
<title>Node1&#45;&gt;Node9</title>
<path fill="none" stroke="midnightblue" d="M93.6,-95.51C108.18,-98.76 124.79,-102.26 140,-105 171.41,-110.67 207.24,-115.7 233.79,-119.16"/>
<polygon fill="midnightblue" stroke="midnightblue" points="233.48,-122.65 243.84,-120.46 234.37,-115.71 233.48,-122.65"/>
</g>
<!-- Node10 -->
<g id="node10" class="node">
<title>Node10</title>
<g id="a_node10"><a xlink:href="link__cut_8hpp.html#a9cc2d4090d8e477ad393975565bb9cc4" target="_top" xlink:title=" ">
<polygon fill="white" stroke="black" points="158.5,-76.5 158.5,-95.5 189.5,-95.5 189.5,-76.5 158.5,-76.5"/>
<text text-anchor="middle" x="174" y="-83.5" font-family="Helvetica,sans-Serif" font-size="10.00">lca</text>
</a>
</g>
</g>
<!-- Node1&#45;&gt;Node10 -->
<g id="edge13" class="edge">
<title>Node1&#45;&gt;Node10</title>
<path fill="none" stroke="midnightblue" d="M104.24,-86C119.41,-86 135.35,-86 148.06,-86"/>
<polygon fill="midnightblue" stroke="midnightblue" points="148.3,-89.5 158.3,-86 148.29,-82.5 148.3,-89.5"/>
</g>
<!-- Node11 -->
<g id="node11" class="node">
<title>Node11</title>
<g id="a_node11"><a xlink:href="link__cut_8hpp.html#a6f35606505d7f40059acd4d66875d81d" target="_top" xlink:title=" ">
<polygon fill="white" stroke="black" points="256.5,-38.5 256.5,-57.5 291.5,-57.5 291.5,-38.5 256.5,-38.5"/>
<text text-anchor="middle" x="274" y="-45.5" font-family="Helvetica,sans-Serif" font-size="10.00">link</text>
</a>
</g>
</g>
<!-- Node1&#45;&gt;Node11 -->
<g id="edge16" class="edge">
<title>Node1&#45;&gt;Node11</title>
<path fill="none" stroke="midnightblue" d="M93.6,-76.49C108.18,-73.24 124.79,-69.74 140,-67 176.52,-60.41 219.01,-54.68 245.95,-51.28"/>
<polygon fill="midnightblue" stroke="midnightblue" points="246.65,-54.72 256.14,-50.01 245.78,-47.77 246.65,-54.72"/>
</g>
<!-- Node12 -->
<g id="node12" class="node">
<title>Node12</title>
<g id="a_node12"><a xlink:href="link__cut_8hpp.html#af124103e4649e58cb832c00c79a58ed1" target="_top" xlink:title=" ">
<polygon fill="white" stroke="black" points="140,-0.5 140,-19.5 208,-19.5 208,-0.5 140,-0.5"/>
<text text-anchor="middle" x="174" y="-7.5" font-family="Helvetica,sans-Serif" font-size="10.00">make_tree</text>
</a>
</g>
</g>
<!-- Node1&#45;&gt;Node12 -->
<g id="edge19" class="edge">
<title>Node1&#45;&gt;Node12</title>
<path fill="none" stroke="midnightblue" d="M68.2,-76.37C88.67,-63.41 125.29,-40.21 149.37,-24.96"/>
<polygon fill="midnightblue" stroke="midnightblue" points="151.35,-27.85 157.93,-19.55 147.6,-21.94 151.35,-27.85"/>
</g>
<!-- Node3 -->
<g id="node3" class="node">
<title>Node3</title>
<g id="a_node3"><a xlink:href="link__cut_8hpp.html#a6d130eaad5cd2a8cec8a77c0932abb29" target="_top" xlink:title=" ">
<polygon fill="white" stroke="black" points="340,-114.5 340,-133.5 390,-133.5 390,-114.5 340,-114.5"/>
<text text-anchor="middle" x="365" y="-121.5" font-family="Helvetica,sans-Serif" font-size="10.00">access</text>
</a>
</g>
</g>
<!-- Node2&#45;&gt;Node3 -->
<g id="edge2" class="edge">
<title>Node2&#45;&gt;Node3</title>
<path fill="none" stroke="midnightblue" d="M290.1,-155.55C301.54,-150.67 317.68,-143.78 331.96,-137.68"/>
<polygon fill="midnightblue" stroke="midnightblue" points="333.64,-140.77 341.47,-133.62 330.89,-134.33 333.64,-140.77"/>
</g>
<!-- Node4 -->
<g id="node4" class="node">
<title>Node4</title>
<g id="a_node4"><a xlink:href="structsplay__tree_1_1SplayNode.html#a510653918c7b8181c888bbb608a9e6ee" target="_top" xlink:title=" ">
<polygon fill="white" stroke="black" points="750,-109 750,-139 876,-139 876,-109 750,-109"/>
<text text-anchor="start" x="758" y="-127" font-family="Helvetica,sans-Serif" font-size="10.00">splay_tree::SplayNode</text>
<text text-anchor="middle" x="813" y="-116" font-family="Helvetica,sans-Serif" font-size="10.00">::attach</text>
</a>
</g>
</g>
<!-- Node3&#45;&gt;Node4 -->
<g id="edge3" class="edge">
<title>Node3&#45;&gt;Node4</title>
<path fill="none" stroke="midnightblue" d="M390.3,-124C455.67,-124 637.28,-124 739.57,-124"/>
<polygon fill="midnightblue" stroke="midnightblue" points="739.82,-127.5 749.82,-124 739.82,-120.5 739.82,-127.5"/>
</g>
<!-- Node6 -->
<g id="node6" class="node">
<title>Node6</title>
<g id="a_node6"><a xlink:href="link__cut_8hpp.html#aa6d8f02358cbad26bd5d0a48a608002e" target="_top" xlink:title=" ">
<polygon fill="white" stroke="black" points="450,-76.5 450,-95.5 528,-95.5 528,-76.5 450,-76.5"/>
<text text-anchor="middle" x="489" y="-83.5" font-family="Helvetica,sans-Serif" font-size="10.00">detach_child</text>
</a>
</g>
</g>
<!-- Node3&#45;&gt;Node6 -->
<g id="edge5" class="edge">
<title>Node3&#45;&gt;Node6</title>
<path fill="none" stroke="midnightblue" d="M390.1,-116.49C406.54,-111.37 428.71,-104.47 447.79,-98.52"/>
<polygon fill="midnightblue" stroke="midnightblue" points="448.94,-101.83 457.44,-95.52 446.85,-95.15 448.94,-101.83"/>
</g>
<!-- Node7 -->
<g id="node7" class="node">
<title>Node7</title>
<g id="a_node7"><a xlink:href="structsplay__tree_1_1SplayNode.html#a34a54d6c33025f4be7b37065e584b8c5" target="_top" xlink:title=" ">
<polygon fill="white" stroke="black" points="426,-153 426,-183 552,-183 552,-153 426,-153"/>
<text text-anchor="start" x="434" y="-171" font-family="Helvetica,sans-Serif" font-size="10.00">splay_tree::SplayNode</text>
<text text-anchor="middle" x="489" y="-160" font-family="Helvetica,sans-Serif" font-size="10.00">::splay</text>
</a>
</g>
</g>
<!-- Node3&#45;&gt;Node7 -->
<g id="edge6" class="edge">
<title>Node3&#45;&gt;Node7</title>
<path fill="none" stroke="midnightblue" d="M390.1,-132.69C403.33,-137.46 420.26,-143.57 436.32,-149.36"/>
<polygon fill="midnightblue" stroke="midnightblue" points="435.56,-152.81 446.16,-152.91 437.94,-146.22 435.56,-152.81"/>
</g>
<!-- Node5 -->
<g id="node5" class="node">
<title>Node5</title>
<g id="a_node5"><a xlink:href="structsplay__tree_1_1SplayNode.html#a73de7d8fe94fc66a6a43427751e8a546" target="_top" xlink:title=" ">
<polygon fill="white" stroke="black" points="912,-153 912,-183 1038,-183 1038,-153 912,-153"/>
<text text-anchor="start" x="920" y="-171" font-family="Helvetica,sans-Serif" font-size="10.00">splay_tree::SplayNode</text>
<text text-anchor="middle" x="975" y="-160" font-family="Helvetica,sans-Serif" font-size="10.00">::side</text>
</a>
</g>
</g>
<!-- Node4&#45;&gt;Node5 -->
<g id="edge4" class="edge">
<title>Node4&#45;&gt;Node5</title>
<path fill="none" stroke="midnightblue" d="M868.62,-139.02C881.8,-142.65 896.01,-146.55 909.6,-150.29"/>
<polygon fill="midnightblue" stroke="midnightblue" points="908.79,-153.7 919.36,-152.97 910.65,-146.95 908.79,-153.7"/>
</g>
<!-- Node7&#45;&gt;Node5 -->
<g id="edge10" class="edge">
<title>Node7&#45;&gt;Node5</title>
<path fill="none" stroke="midnightblue" d="M538.89,-183.03C554.43,-187.11 571.8,-190.97 588,-193 696.88,-206.67 824.04,-192.7 901.78,-180.81"/>
<polygon fill="midnightblue" stroke="midnightblue" points="902.6,-184.22 911.94,-179.22 901.52,-177.31 902.6,-184.22"/>
</g>
<!-- Node8 -->
<g id="node8" class="node">
<title>Node8</title>
<g id="a_node8"><a xlink:href="structsplay__tree_1_1SplayNode.html#a099b6b1b7632cb57ee28bc474d86343e" target="_top" xlink:title=" ">
<polygon fill="white" stroke="black" points="588,-153 588,-183 714,-183 714,-153 588,-153"/>
<text text-anchor="start" x="596" y="-171" font-family="Helvetica,sans-Serif" font-size="10.00">splay_tree::SplayNode</text>
<text text-anchor="middle" x="651" y="-160" font-family="Helvetica,sans-Serif" font-size="10.00">::rotate</text>
</a>
</g>
</g>
<!-- Node7&#45;&gt;Node8 -->
<g id="edge7" class="edge">
<title>Node7&#45;&gt;Node8</title>
<path fill="none" stroke="midnightblue" d="M552.32,-168C560.62,-168 569.18,-168 577.63,-168"/>
<polygon fill="midnightblue" stroke="midnightblue" points="577.85,-171.5 587.85,-168 577.85,-164.5 577.85,-171.5"/>
</g>
<!-- Node8&#45;&gt;Node4 -->
<g id="edge8" class="edge">
<title>Node8&#45;&gt;Node4</title>
<path fill="none" stroke="midnightblue" d="M706.62,-152.98C719.8,-149.35 734.01,-145.45 747.6,-141.71"/>
<polygon fill="midnightblue" stroke="midnightblue" points="748.65,-145.05 757.36,-139.03 746.79,-138.3 748.65,-145.05"/>
</g>
<!-- Node8&#45;&gt;Node5 -->
<g id="edge9" class="edge">
<title>Node8&#45;&gt;Node5</title>
<path fill="none" stroke="midnightblue" d="M714.08,-168C767.68,-168 845.14,-168 901.55,-168"/>
<polygon fill="midnightblue" stroke="midnightblue" points="901.83,-171.5 911.83,-168 901.83,-164.5 901.83,-171.5"/>
</g>
<!-- Node9&#45;&gt;Node3 -->
<g id="edge12" class="edge">
<title>Node9&#45;&gt;Node3</title>
<path fill="none" stroke="midnightblue" d="M304.14,-124C312.27,-124 321.18,-124 329.58,-124"/>
<polygon fill="midnightblue" stroke="midnightblue" points="329.85,-127.5 339.85,-124 329.85,-120.5 329.85,-127.5"/>
</g>
<!-- Node10&#45;&gt;Node3 -->
<g id="edge14" class="edge">
<title>Node10&#45;&gt;Node3</title>
<path fill="none" stroke="midnightblue" d="M189.85,-87.4C214,-89.86 263.19,-95.6 304,-105 312.57,-106.97 321.68,-109.59 330.15,-112.24"/>
<polygon fill="midnightblue" stroke="midnightblue" points="329.13,-115.59 339.72,-115.34 331.29,-108.93 329.13,-115.59"/>
</g>
<!-- Node10&#45;&gt;Node9 -->
<g id="edge15" class="edge">
<title>Node10&#45;&gt;Node9</title>
<path fill="none" stroke="midnightblue" d="M189.88,-91.77C202.86,-96.8 222.19,-104.3 238.93,-110.79"/>
<polygon fill="midnightblue" stroke="midnightblue" points="237.84,-114.12 248.43,-114.47 240.37,-107.59 237.84,-114.12"/>
</g>
<!-- Node11&#45;&gt;Node3 -->
<g id="edge17" class="edge">
<title>Node11&#45;&gt;Node3</title>
<path fill="none" stroke="midnightblue" d="M286.62,-57.52C291.94,-61.9 298.31,-67.19 304,-72 317.88,-83.76 333.4,-97.21 345.17,-107.49"/>
<polygon fill="midnightblue" stroke="midnightblue" points="343.17,-110.39 353.01,-114.34 347.78,-105.12 343.17,-110.39"/>
</g>
<!-- Node11&#45;&gt;Node4 -->
<g id="edge18" class="edge">
<title>Node11&#45;&gt;Node4</title>
<path fill="none" stroke="midnightblue" d="M291.64,-48.29C334.82,-49.22 453.94,-52.97 552,-67 618.4,-76.5 693.08,-93.55 745.31,-106.54"/>
<polygon fill="midnightblue" stroke="midnightblue" points="744.57,-109.96 755.12,-108.99 746.27,-103.17 744.57,-109.96"/>
</g>
</g>
</svg>
        <g id="navigator" transform="translate(0 0)" fill="#404254">
                <rect fill="#f2f5e9" fill-opacity="0.5" stroke="#606060" stroke-width=".5" x="0" y="0" width="60" height="60"/>
                <use id="zoomplus" xlink:href="#zoomPlus" x="17" y="9" onmousedown="handleZoom(evt,'in')"/>
                <use id="zoomminus" xlink:href="#zoomMin" x="42" y="9" onmousedown="handleZoom(evt,'out')"/>
                <use id="reset" xlink:href="#resetDef" x="30" y="36" onmousedown="handleReset()"/>
                <g id="arrowUp" xlink:href="#dirArrow" transform="translate(30 24)" onmousedown="handlePan(0,-1)">
                  <use xlink:href="#rim" fill="#404040">
                        <set attributeName="fill" to="#808080" begin="arrowUp.mouseover" end="arrowUp.mouseout"/>
                  </use>
                  <path fill="none" stroke="white" stroke-width="1.5" d="M0,-3.0v7 M-2.5,-0.5L0,-3.0L2.5,-0.5"/>
                </g>
                <g id="arrowRight" xlink:href="#dirArrow" transform="rotate(90) translate(36 -43)" onmousedown="handlePan(1,0)">
                  <use xlink:href="#rim" fill="#404040">
                        <set attributeName="fill" to="#808080" begin="arrowRight.mouseover" end="arrowRight.mouseout"/>
                  </use>
                  <path fill="none" stroke="white" stroke-width="1.5" d="M0,-3.0v7 M-2.5,-0.5L0,-3.0L2.5,-0.5"/>
                </g>
                <g id="arrowDown" xlink:href="#dirArrow" transform="rotate(180) translate(-30 -48)" onmousedown="handlePan(0,1)">
                  <use xlink:href="#rim" fill="#404040">
                        <set attributeName="fill" to="#808080" begin="arrowDown.mouseover" end="arrowDown.mouseout"/>
                  </use>
                  <path fill="none" stroke="white" stroke-width="1.5" d="M0,-3.0v7 M-2.5,-0.5L0,-3.0L2.5,-0.5"/>
                </g>
                <g id="arrowLeft" xlink:href="#dirArrow" transform="rotate(270) translate(-36 17)" onmousedown="handlePan(-1,0)">
                  <use xlink:href="#rim" fill="#404040">
                        <set attributeName="fill" to="#808080" begin="arrowLeft.mouseover" end="arrowLeft.mouseout"/>
                  </use>
                  <path fill="none" stroke="white" stroke-width="1.5" d="M0,-3.0v7 M-2.5,-0.5L0,-3.0L2.5,-0.5"/>
                </g>
        </g>
        <svg viewBox="0 0 15 15" width="100%" height="30px" preserveAspectRatio="xMaxYMin meet">
         <g id="arrow_out" transform="scale(0.3 0.3)">
          <a xlink:href="link__cut_8hpp_a343a0ee0a29d19210e328e8f6bc5dfd3_cgraph_org.svg" target="_base">
           <rect id="button" ry="5" rx="5" y="6" x="6" height="38" width="38"
                fill="#f2f5e9" fill-opacity="0.5" stroke="#606060" stroke-width="1.0"/>
           <path id="arrow"
             d="M 11.500037,31.436501 C 11.940474,20.09759 22.043105,11.32322 32.158766,21.979434 L 37.068811,17.246167 C 37.068811,17.246167 37.088388,32 37.088388,32 L 22.160133,31.978069 C 22.160133,31.978069 26.997745,27.140456 26.997745,27.140456 C 18.528582,18.264221 13.291696,25.230495 11.500037,31.436501 z"
             style="fill:#404040;"/>
          </a>
         </g>
        </svg>
</svg>
