<?xml version="1.0" encoding="UTF-8" standalone="no"?>
<!DOCTYPE svg PUBLIC "-//W3C//DTD SVG 1.1//EN"
 "http://www.w3.org/Graphics/SVG/1.1/DTD/svg11.dtd">
<!-- Generated by graphviz version 2.43.0 (0)
 -->
<!-- Title: link Pages: 1 -->
<svg width="777pt" height="150pt"
 viewBox="0.00 0.00 777.00 149.96" xmlns="http://www.w3.org/2000/svg" xmlns:xlink="http://www.w3.org/1999/xlink">
<g id="graph0" class="graph" transform="scale(1 1) rotate(0) translate(4 145.96)">
<title>link</title>
<polygon fill="white" stroke="transparent" points="-4,4 -4,-145.96 773,-145.96 773,4 -4,4"/>
<!-- Node1 -->
<g id="node1" class="node">
<title>Node1</title>
<g id="a_node1"><a xlink:title=" ">
<polygon fill="#bfbfbf" stroke="black" points="0,-0.5 0,-19.5 35,-19.5 35,-0.5 0,-0.5"/>
<text text-anchor="middle" x="17.5" y="-7.5" font-family="Helvetica,sans-Serif" font-size="10.00">link</text>
</a>
</g>
</g>
<!-- Node2 -->
<g id="node2" class="node">
<title>Node2</title>
<g id="a_node2"><a xlink:href="link__cut_8hpp.html#a6d130eaad5cd2a8cec8a77c0932abb29" target="_top" xlink:title=" ">
<polygon fill="white" stroke="black" points="71,-38.5 71,-57.5 121,-57.5 121,-38.5 71,-38.5"/>
<text text-anchor="middle" x="96" y="-45.5" font-family="Helvetica,sans-Serif" font-size="10.00">access</text>
</a>
</g>
</g>
<!-- Node1&#45;&gt;Node2 -->
<g id="edge1" class="edge">
<title>Node1&#45;&gt;Node2</title>
<path fill="none" stroke="midnightblue" d="M35.1,-18.25C44.34,-22.84 56.1,-28.68 66.75,-33.97"/>
<polygon fill="midnightblue" stroke="midnightblue" points="65.22,-37.12 75.73,-38.43 68.33,-30.85 65.22,-37.12"/>
</g>
<!-- Node3 -->
<g id="node3" class="node">
<title>Node3</title>
<g id="a_node3"><a xlink:href="structsplay__tree_1_1SplayNode.html#a510653918c7b8181c888bbb608a9e6ee" target="_top" xlink:title=" ">
<polygon fill="white" stroke="black" points="481,-52 481,-82 607,-82 607,-52 481,-52"/>
<text text-anchor="start" x="489" y="-70" font-family="Helvetica,sans-Serif" font-size="10.00">splay_tree::SplayNode</text>
<text text-anchor="middle" x="544" y="-59" font-family="Helvetica,sans-Serif" font-size="10.00">::attach</text>
</a>
</g>
</g>
<!-- Node1&#45;&gt;Node3 -->
<g id="edge10" class="edge">
<title>Node1&#45;&gt;Node3</title>
<path fill="none" stroke="midnightblue" d="M35.28,-8.75C77.2,-5.9 189.87,0.09 283,-10 351.41,-17.41 428.2,-35.48 480.48,-49.31"/>
<polygon fill="midnightblue" stroke="midnightblue" points="479.71,-52.73 490.27,-51.93 481.52,-45.96 479.71,-52.73"/>
</g>
<!-- Node2&#45;&gt;Node3 -->
<g id="edge2" class="edge">
<title>Node2&#45;&gt;Node3</title>
<path fill="none" stroke="midnightblue" d="M121.3,-49.04C186.67,-51.82 368.28,-59.56 470.57,-63.91"/>
<polygon fill="midnightblue" stroke="midnightblue" points="470.68,-67.42 480.82,-64.35 470.98,-60.43 470.68,-67.42"/>
</g>
<!-- Node5 -->
<g id="node5" class="node">
<title>Node5</title>
<g id="a_node5"><a xlink:href="link__cut_8hpp.html#aa6d8f02358cbad26bd5d0a48a608002e" target="_top" xlink:title=" ">
<polygon fill="white" stroke="black" points="181,-19.5 181,-38.5 259,-38.5 259,-19.5 181,-19.5"/>
<text text-anchor="middle" x="220" y="-26.5" font-family="Helvetica,sans-Serif" font-size="10.00">detach_child</text>
</a>
</g>
</g>
<!-- Node2&#45;&gt;Node5 -->
<g id="edge4" class="edge">
<title>Node2&#45;&gt;Node5</title>
<path fill="none" stroke="midnightblue" d="M121.1,-44.25C135.13,-42.06 153.34,-39.23 170.24,-36.59"/>
<polygon fill="midnightblue" stroke="midnightblue" points="171.2,-39.99 180.54,-34.99 170.12,-33.07 171.2,-39.99"/>
</g>
<!-- Node6 -->
<g id="node6" class="node">
<title>Node6</title>
<g id="a_node6"><a xlink:href="structsplay__tree_1_1SplayNode.html#a34a54d6c33025f4be7b37065e584b8c5" target="_top" xlink:title=" ">
<polygon fill="white" stroke="black" points="157,-96 157,-126 283,-126 283,-96 157,-96"/>
<text text-anchor="start" x="165" y="-114" font-family="Helvetica,sans-Serif" font-size="10.00">splay_tree::SplayNode</text>
<text text-anchor="middle" x="220" y="-103" font-family="Helvetica,sans-Serif" font-size="10.00">::splay</text>
</a>
</g>
</g>
<!-- Node2&#45;&gt;Node6 -->
<g id="edge5" class="edge">
<title>Node2&#45;&gt;Node6</title>
<path fill="none" stroke="midnightblue" d="M113.94,-57.63C125.89,-64.34 142.32,-73.42 157,-81 163.65,-84.43 170.75,-87.98 177.68,-91.38"/>
<polygon fill="midnightblue" stroke="midnightblue" points="176.46,-94.68 186.98,-95.9 179.52,-88.38 176.46,-94.68"/>
</g>
<!-- Node4 -->
<g id="node4" class="node">
<title>Node4</title>
<g id="a_node4"><a xlink:href="structsplay__tree_1_1SplayNode.html#a73de7d8fe94fc66a6a43427751e8a546" target="_top" xlink:title=" ">
<polygon fill="white" stroke="black" points="643,-96 643,-126 769,-126 769,-96 643,-96"/>
<text text-anchor="start" x="651" y="-114" font-family="Helvetica,sans-Serif" font-size="10.00">splay_tree::SplayNode</text>
<text text-anchor="middle" x="706" y="-103" font-family="Helvetica,sans-Serif" font-size="10.00">::side</text>
</a>
</g>
</g>
<!-- Node3&#45;&gt;Node4 -->
<g id="edge3" class="edge">
<title>Node3&#45;&gt;Node4</title>
<path fill="none" stroke="midnightblue" d="M599.62,-82.02C612.8,-85.65 627.01,-89.55 640.6,-93.29"/>
<polygon fill="midnightblue" stroke="midnightblue" points="639.79,-96.7 650.36,-95.97 641.65,-89.95 639.79,-96.7"/>
</g>
<!-- Node6&#45;&gt;Node4 -->
<g id="edge9" class="edge">
<title>Node6&#45;&gt;Node4</title>
<path fill="none" stroke="midnightblue" d="M269.89,-126.03C285.43,-130.11 302.8,-133.97 319,-136 427.88,-149.67 555.04,-135.7 632.78,-123.81"/>
<polygon fill="midnightblue" stroke="midnightblue" points="633.6,-127.22 642.94,-122.22 632.52,-120.31 633.6,-127.22"/>
</g>
<!-- Node7 -->
<g id="node7" class="node">
<title>Node7</title>
<g id="a_node7"><a xlink:href="structsplay__tree_1_1SplayNode.html#a099b6b1b7632cb57ee28bc474d86343e" target="_top" xlink:title=" ">
<polygon fill="white" stroke="black" points="319,-96 319,-126 445,-126 445,-96 319,-96"/>
<text text-anchor="start" x="327" y="-114" font-family="Helvetica,sans-Serif" font-size="10.00">splay_tree::SplayNode</text>
<text text-anchor="middle" x="382" y="-103" font-family="Helvetica,sans-Serif" font-size="10.00">::rotate</text>
</a>
</g>
</g>
<!-- Node6&#45;&gt;Node7 -->
<g id="edge6" class="edge">
<title>Node6&#45;&gt;Node7</title>
<path fill="none" stroke="midnightblue" d="M283.32,-111C291.62,-111 300.18,-111 308.63,-111"/>
<polygon fill="midnightblue" stroke="midnightblue" points="308.85,-114.5 318.85,-111 308.85,-107.5 308.85,-114.5"/>
</g>
<!-- Node7&#45;&gt;Node3 -->
<g id="edge7" class="edge">
<title>Node7&#45;&gt;Node3</title>
<path fill="none" stroke="midnightblue" d="M437.62,-95.98C450.8,-92.35 465.01,-88.45 478.6,-84.71"/>
<polygon fill="midnightblue" stroke="midnightblue" points="479.65,-88.05 488.36,-82.03 477.79,-81.3 479.65,-88.05"/>
</g>
<!-- Node7&#45;&gt;Node4 -->
<g id="edge8" class="edge">
<title>Node7&#45;&gt;Node4</title>
<path fill="none" stroke="midnightblue" d="M445.08,-111C498.68,-111 576.14,-111 632.55,-111"/>
<polygon fill="midnightblue" stroke="midnightblue" points="632.83,-114.5 642.83,-111 632.83,-107.5 632.83,-114.5"/>
</g>
</g>
</svg>
