<?xml version="1.0" encoding="UTF-8" standalone="no"?>
<!DOCTYPE svg PUBLIC "-//W3C//DTD SVG 1.1//EN"
 "http://www.w3.org/Graphics/SVG/1.1/DTD/svg11.dtd">
<!-- Generated by graphviz version 2.43.0 (0)
 -->
<!-- Title: lca Pages: 1 -->
<svg width="869pt" height="118pt"
 viewBox="0.00 0.00 869.00 118.00" xmlns="http://www.w3.org/2000/svg" xmlns:xlink="http://www.w3.org/1999/xlink">
<g id="graph0" class="graph" transform="scale(1 1) rotate(0) translate(4 114)">
<title>lca</title>
<polygon fill="white" stroke="transparent" points="-4,4 -4,-114 865,-114 865,4 -4,4"/>
<!-- Node1 -->
<g id="node1" class="node">
<title>Node1</title>
<g id="a_node1"><a xlink:title=" ">
<polygon fill="#bfbfbf" stroke="black" points="0,-50 0,-69 31,-69 31,-50 0,-50"/>
<text text-anchor="middle" x="15.5" y="-57" font-family="Helvetica,sans-Serif" font-size="10.00">lca</text>
</a>
</g>
</g>
<!-- Node2 -->
<g id="node2" class="node">
<title>Node2</title>
<g id="a_node2"><a xlink:href="link__cut_8hpp.html#a6d130eaad5cd2a8cec8a77c0932abb29" target="_top" xlink:title=" ">
<polygon fill="white" stroke="black" points="163,-50 163,-69 213,-69 213,-50 163,-50"/>
<text text-anchor="middle" x="188" y="-57" font-family="Helvetica,sans-Serif" font-size="10.00">access</text>
</a>
</g>
</g>
<!-- Node1&#45;&gt;Node2 -->
<g id="edge1" class="edge">
<title>Node1&#45;&gt;Node2</title>
<path fill="none" stroke="midnightblue" d="M31.04,-59.5C57.72,-59.5 115.17,-59.5 152.4,-59.5"/>
<polygon fill="midnightblue" stroke="midnightblue" points="152.79,-63 162.79,-59.5 152.79,-56 152.79,-63"/>
</g>
<!-- Node8 -->
<g id="node8" class="node">
<title>Node8</title>
<g id="a_node8"><a xlink:href="link__cut_8hpp.html#af2023ad828dc7b552bfb5c19b197e8a8" target="_top" xlink:title=" ">
<polygon fill="white" stroke="black" points="67,-31 67,-50 127,-50 127,-31 67,-31"/>
<text text-anchor="middle" x="97" y="-38" font-family="Helvetica,sans-Serif" font-size="10.00">find_root</text>
</a>
</g>
</g>
<!-- Node1&#45;&gt;Node8 -->
<g id="edge10" class="edge">
<title>Node1&#45;&gt;Node8</title>
<path fill="none" stroke="midnightblue" d="M31.08,-56.02C38.39,-54.27 47.63,-52.06 56.82,-49.86"/>
<polygon fill="midnightblue" stroke="midnightblue" points="57.78,-53.23 66.69,-47.5 56.15,-46.43 57.78,-53.23"/>
</g>
<!-- Node3 -->
<g id="node3" class="node">
<title>Node3</title>
<g id="a_node3"><a xlink:href="structsplay__tree_1_1SplayNode.html#a510653918c7b8181c888bbb608a9e6ee" target="_top" xlink:title=" ">
<polygon fill="white" stroke="black" points="573,-79.5 573,-109.5 699,-109.5 699,-79.5 573,-79.5"/>
<text text-anchor="start" x="581" y="-97.5" font-family="Helvetica,sans-Serif" font-size="10.00">splay_tree::SplayNode</text>
<text text-anchor="middle" x="636" y="-86.5" font-family="Helvetica,sans-Serif" font-size="10.00">::attach</text>
</a>
</g>
</g>
<!-- Node2&#45;&gt;Node3 -->
<g id="edge2" class="edge">
<title>Node2&#45;&gt;Node3</title>
<path fill="none" stroke="midnightblue" d="M213.16,-68.76C223.96,-72.48 236.95,-76.38 249,-78.5 357.11,-97.51 484.74,-98.75 562.75,-97.18"/>
<polygon fill="midnightblue" stroke="midnightblue" points="563.04,-100.67 572.95,-96.95 562.88,-93.67 563.04,-100.67"/>
</g>
<!-- Node5 -->
<g id="node5" class="node">
<title>Node5</title>
<g id="a_node5"><a xlink:href="link__cut_8hpp.html#aa6d8f02358cbad26bd5d0a48a608002e" target="_top" xlink:title=" ">
<polygon fill="white" stroke="black" points="273,-50 273,-69 351,-69 351,-50 273,-50"/>
<text text-anchor="middle" x="312" y="-57" font-family="Helvetica,sans-Serif" font-size="10.00">detach_child</text>
</a>
</g>
</g>
<!-- Node2&#45;&gt;Node5 -->
<g id="edge4" class="edge">
<title>Node2&#45;&gt;Node5</title>
<path fill="none" stroke="midnightblue" d="M213.1,-59.5C227.13,-59.5 245.34,-59.5 262.24,-59.5"/>
<polygon fill="midnightblue" stroke="midnightblue" points="262.54,-63 272.54,-59.5 262.54,-56 262.54,-63"/>
</g>
<!-- Node6 -->
<g id="node6" class="node">
<title>Node6</title>
<g id="a_node6"><a xlink:href="structsplay__tree_1_1SplayNode.html#a34a54d6c33025f4be7b37065e584b8c5" target="_top" xlink:title=" ">
<polygon fill="white" stroke="black" points="249,-0.5 249,-30.5 375,-30.5 375,-0.5 249,-0.5"/>
<text text-anchor="start" x="257" y="-18.5" font-family="Helvetica,sans-Serif" font-size="10.00">splay_tree::SplayNode</text>
<text text-anchor="middle" x="312" y="-7.5" font-family="Helvetica,sans-Serif" font-size="10.00">::splay</text>
</a>
</g>
</g>
<!-- Node2&#45;&gt;Node6 -->
<g id="edge5" class="edge">
<title>Node2&#45;&gt;Node6</title>
<path fill="none" stroke="midnightblue" d="M213.1,-50.81C226.33,-46.04 243.26,-39.93 259.32,-34.14"/>
<polygon fill="midnightblue" stroke="midnightblue" points="260.94,-37.28 269.16,-30.59 258.56,-30.69 260.94,-37.28"/>
</g>
<!-- Node4 -->
<g id="node4" class="node">
<title>Node4</title>
<g id="a_node4"><a xlink:href="structsplay__tree_1_1SplayNode.html#a73de7d8fe94fc66a6a43427751e8a546" target="_top" xlink:title=" ">
<polygon fill="white" stroke="black" points="735,-35.5 735,-65.5 861,-65.5 861,-35.5 735,-35.5"/>
<text text-anchor="start" x="743" y="-53.5" font-family="Helvetica,sans-Serif" font-size="10.00">splay_tree::SplayNode</text>
<text text-anchor="middle" x="798" y="-42.5" font-family="Helvetica,sans-Serif" font-size="10.00">::side</text>
</a>
</g>
</g>
<!-- Node3&#45;&gt;Node4 -->
<g id="edge3" class="edge">
<title>Node3&#45;&gt;Node4</title>
<path fill="none" stroke="midnightblue" d="M691.62,-79.48C704.8,-75.85 719.01,-71.95 732.6,-68.21"/>
<polygon fill="midnightblue" stroke="midnightblue" points="733.65,-71.55 742.36,-65.53 731.79,-64.8 733.65,-71.55"/>
</g>
<!-- Node6&#45;&gt;Node4 -->
<g id="edge9" class="edge">
<title>Node6&#45;&gt;Node4</title>
<path fill="none" stroke="midnightblue" d="M375.31,-18.67C420.27,-21.07 482.41,-24.61 537,-28.5 600.44,-33.02 672.49,-39.2 724.63,-43.86"/>
<polygon fill="midnightblue" stroke="midnightblue" points="724.51,-47.36 734.78,-44.77 725.14,-40.39 724.51,-47.36"/>
</g>
<!-- Node7 -->
<g id="node7" class="node">
<title>Node7</title>
<g id="a_node7"><a xlink:href="structsplay__tree_1_1SplayNode.html#a099b6b1b7632cb57ee28bc474d86343e" target="_top" xlink:title=" ">
<polygon fill="white" stroke="black" points="411,-38.5 411,-68.5 537,-68.5 537,-38.5 411,-38.5"/>
<text text-anchor="start" x="419" y="-56.5" font-family="Helvetica,sans-Serif" font-size="10.00">splay_tree::SplayNode</text>
<text text-anchor="middle" x="474" y="-45.5" font-family="Helvetica,sans-Serif" font-size="10.00">::rotate</text>
</a>
</g>
</g>
<!-- Node6&#45;&gt;Node7 -->
<g id="edge6" class="edge">
<title>Node6&#45;&gt;Node7</title>
<path fill="none" stroke="midnightblue" d="M375.32,-30.3C383.71,-32.29 392.37,-34.35 400.91,-36.38"/>
<polygon fill="midnightblue" stroke="midnightblue" points="400.31,-39.83 410.85,-38.74 401.93,-33.02 400.31,-39.83"/>
</g>
<!-- Node7&#45;&gt;Node3 -->
<g id="edge7" class="edge">
<title>Node7&#45;&gt;Node3</title>
<path fill="none" stroke="midnightblue" d="M533.67,-68.53C544.32,-71.26 555.52,-74.13 566.43,-76.93"/>
<polygon fill="midnightblue" stroke="midnightblue" points="565.78,-80.38 576.34,-79.47 567.52,-73.59 565.78,-80.38"/>
</g>
<!-- Node7&#45;&gt;Node4 -->
<g id="edge8" class="edge">
<title>Node7&#45;&gt;Node4</title>
<path fill="none" stroke="midnightblue" d="M537.08,-52.92C590.68,-52.42 668.14,-51.7 724.55,-51.17"/>
<polygon fill="midnightblue" stroke="midnightblue" points="724.86,-54.67 734.83,-51.08 724.8,-47.67 724.86,-54.67"/>
</g>
<!-- Node8&#45;&gt;Node2 -->
<g id="edge11" class="edge">
<title>Node8&#45;&gt;Node2</title>
<path fill="none" stroke="midnightblue" d="M127.14,-46.72C135.36,-48.48 144.37,-50.4 152.86,-52.21"/>
<polygon fill="midnightblue" stroke="midnightblue" points="152.34,-55.68 162.85,-54.34 153.8,-48.83 152.34,-55.68"/>
</g>
</g>
</svg>
