<?xml version="1.0" encoding="UTF-8" standalone="no"?>
<!DOCTYPE svg PUBLIC "-//W3C//DTD SVG 1.1//EN"
 "http://www.w3.org/Graphics/SVG/1.1/DTD/svg11.dtd">
<!-- Generated by graphviz version 2.43.0 (0)
 -->
<!-- Title: main Pages: 1 -->
<svg width="643pt" height="1320pt"
 viewBox="0.00 0.00 643.00 1320.00" xmlns="http://www.w3.org/2000/svg" xmlns:xlink="http://www.w3.org/1999/xlink">
<g id="graph0" class="graph" transform="scale(1 1) rotate(0) translate(4 1316)">
<title>main</title>
<polygon fill="white" stroke="transparent" points="-4,4 -4,-1316 639,-1316 639,4 -4,4"/>
<!-- Node1 -->
<g id="node1" class="node">
<title>Node1</title>
<g id="a_node1"><a xlink:title=" ">
<polygon fill="#bfbfbf" stroke="black" points="0,-893.5 0,-912.5 41,-912.5 41,-893.5 0,-893.5"/>
<text text-anchor="middle" x="20.5" y="-900.5" font-family="Helvetica,sans-Serif" font-size="10.00">main</text>
</a>
</g>
</g>
<!-- Node2 -->
<g id="node2" class="node">
<title>Node2</title>
<g id="a_node2"><a xlink:href="main_8hpp.html#af095a232149097b5605064623a9345ac" target="_top" xlink:title=" ">
<polygon fill="white" stroke="black" points="77,-893.5 77,-912.5 124,-912.5 124,-893.5 77,-893.5"/>
<text text-anchor="middle" x="100.5" y="-900.5" font-family="Helvetica,sans-Serif" font-size="10.00">main2</text>
</a>
</g>
</g>
<!-- Node1&#45;&gt;Node2 -->
<g id="edge1" class="edge">
<title>Node1&#45;&gt;Node2</title>
<path fill="none" stroke="midnightblue" d="M41.18,-903C48.88,-903 57.93,-903 66.57,-903"/>
<polygon fill="midnightblue" stroke="midnightblue" points="66.78,-906.5 76.78,-903 66.78,-899.5 66.78,-906.5"/>
</g>
<!-- Node3 -->
<g id="node3" class="node">
<title>Node3</title>
<g id="a_node3"><a xlink:href="test_8cpp.html#aa1c715cac916839a95e25b65b4071c4a" target="_top" xlink:title=" ">
<polygon fill="white" stroke="black" points="160,-893.5 160,-912.5 213,-912.5 213,-893.5 160,-893.5"/>
<text text-anchor="middle" x="186.5" y="-900.5" font-family="Helvetica,sans-Serif" font-size="10.00">test_all</text>
</a>
</g>
</g>
<!-- Node2&#45;&gt;Node3 -->
<g id="edge2" class="edge">
<title>Node2&#45;&gt;Node3</title>
<path fill="none" stroke="midnightblue" d="M124.01,-903C131.97,-903 141.14,-903 149.92,-903"/>
<polygon fill="midnightblue" stroke="midnightblue" points="149.96,-906.5 159.96,-903 149.96,-899.5 149.96,-906.5"/>
</g>
<!-- Node4 -->
<g id="node4" class="node">
<title>Node4</title>
<g id="a_node4"><a xlink:href="combinatorics_8hpp.html#a0c5a7372e7932ba5830e38929ec38c25" target="_top" xlink:title=" ">
<polygon fill="white" stroke="black" points="251.5,-1235.5 251.5,-1254.5 361.5,-1254.5 361.5,-1235.5 251.5,-1235.5"/>
<text text-anchor="middle" x="306.5" y="-1242.5" font-family="Helvetica,sans-Serif" font-size="10.00">test_combinatorics</text>
</a>
</g>
</g>
<!-- Node3&#45;&gt;Node4 -->
<g id="edge3" class="edge">
<title>Node3&#45;&gt;Node4</title>
<path fill="none" stroke="midnightblue" d="M187.66,-912.51C188.65,-949.99 195.93,-1090.1 249,-1188 257.63,-1203.92 272.07,-1218.37 284.19,-1228.74"/>
<polygon fill="midnightblue" stroke="midnightblue" points="282.15,-1231.6 292.11,-1235.23 286.59,-1226.19 282.15,-1231.6"/>
</g>
<!-- Node11 -->
<g id="node9" class="node">
<title>Node11</title>
<g id="a_node9"><a xlink:href="dsu_8hpp.html#af3fcfa892c42e873402a4d0f4a73e0d4" target="_top" xlink:title=" ">
<polygon fill="white" stroke="black" points="277.5,-1159.5 277.5,-1178.5 335.5,-1178.5 335.5,-1159.5 277.5,-1159.5"/>
<text text-anchor="middle" x="306.5" y="-1166.5" font-family="Helvetica,sans-Serif" font-size="10.00">test_dsu</text>
</a>
</g>
</g>
<!-- Node3&#45;&gt;Node11 -->
<g id="edge8" class="edge">
<title>Node3&#45;&gt;Node11</title>
<path fill="none" stroke="midnightblue" d="M188.67,-912.73C193.82,-953.96 215.66,-1113.87 249,-1150 254.07,-1155.49 260.77,-1159.4 267.78,-1162.17"/>
<polygon fill="midnightblue" stroke="midnightblue" points="266.82,-1165.54 277.41,-1165.3 268.98,-1158.88 266.82,-1165.54"/>
</g>
<!-- Node12 -->
<g id="node10" class="node">
<title>Node12</title>
<g id="a_node10"><a xlink:href="geometry_8hpp.html#a847291628b61b00d0bc261bb22adf447" target="_top" xlink:title=" ">
<polygon fill="white" stroke="black" points="262.5,-1121.5 262.5,-1140.5 350.5,-1140.5 350.5,-1121.5 262.5,-1121.5"/>
<text text-anchor="middle" x="306.5" y="-1128.5" font-family="Helvetica,sans-Serif" font-size="10.00">test_geometry</text>
</a>
</g>
</g>
<!-- Node3&#45;&gt;Node12 -->
<g id="edge9" class="edge">
<title>Node3&#45;&gt;Node12</title>
<path fill="none" stroke="midnightblue" d="M190.45,-912.64C198.17,-937.26 220.42,-1004.12 249,-1055 260.98,-1076.33 278.12,-1098.54 290.38,-1113.4"/>
<polygon fill="midnightblue" stroke="midnightblue" points="287.85,-1115.83 296.95,-1121.24 293.21,-1111.33 287.85,-1115.83"/>
</g>
<!-- Node17 -->
<g id="node13" class="node">
<title>Node17</title>
<g id="a_node13"><a xlink:href="graph__theory_8hpp.html#a9c55a42c5c6ac6b7fb16f464507e90c6" target="_top" xlink:title=" ">
<polygon fill="white" stroke="black" points="254,-1026.5 254,-1045.5 359,-1045.5 359,-1026.5 254,-1026.5"/>
<text text-anchor="middle" x="306.5" y="-1033.5" font-family="Helvetica,sans-Serif" font-size="10.00">test_graph_theory</text>
</a>
</g>
</g>
<!-- Node3&#45;&gt;Node17 -->
<g id="edge12" class="edge">
<title>Node3&#45;&gt;Node17</title>
<path fill="none" stroke="midnightblue" d="M195.99,-912.57C215.71,-934.79 264.85,-990.19 290.06,-1018.6"/>
<polygon fill="midnightblue" stroke="midnightblue" points="287.52,-1021.01 296.77,-1026.16 292.75,-1016.36 287.52,-1021.01"/>
</g>
<!-- Node26 -->
<g id="node18" class="node">
<title>Node26</title>
<g id="a_node18"><a xlink:href="linear__algebra_8hpp.html#ac334a92cbd04265f52708e07af9487e3" target="_top" xlink:title=" ">
<polygon fill="white" stroke="black" points="270,-941.5 270,-960.5 343,-960.5 343,-941.5 270,-941.5"/>
<text text-anchor="middle" x="306.5" y="-948.5" font-family="Helvetica,sans-Serif" font-size="10.00">test_matrix</text>
</a>
</g>
</g>
<!-- Node3&#45;&gt;Node26 -->
<g id="edge17" class="edge">
<title>Node3&#45;&gt;Node26</title>
<path fill="none" stroke="midnightblue" d="M211.1,-912.6C228.7,-919.76 252.98,-929.64 272.51,-937.58"/>
<polygon fill="midnightblue" stroke="midnightblue" points="271.36,-940.89 281.95,-941.42 274,-934.41 271.36,-940.89"/>
</g>
<!-- Node29 -->
<g id="node20" class="node">
<title>Node29</title>
<g id="a_node20"><a xlink:href="modulo_8hpp.html#ace704e27d561de2f121af8778c37d2d4" target="_top" xlink:title=" ">
<polygon fill="white" stroke="black" points="268,-893.5 268,-912.5 345,-912.5 345,-893.5 268,-893.5"/>
<text text-anchor="middle" x="306.5" y="-900.5" font-family="Helvetica,sans-Serif" font-size="10.00">test_modulo</text>
</a>
</g>
</g>
<!-- Node3&#45;&gt;Node29 -->
<g id="edge19" class="edge">
<title>Node3&#45;&gt;Node29</title>
<path fill="none" stroke="midnightblue" d="M213.1,-903C226.1,-903 242.32,-903 257.53,-903"/>
<polygon fill="midnightblue" stroke="midnightblue" points="257.84,-906.5 267.84,-903 257.84,-899.5 257.84,-906.5"/>
</g>
<!-- Node33 -->
<g id="node23" class="node">
<title>Node33</title>
<g id="a_node23"><a xlink:href="number__theory_8hpp.html#aed36f6b8b9706133e9b5302b1618e9ef" target="_top" xlink:title=" ">
<polygon fill="white" stroke="black" points="249,-760.5 249,-779.5 364,-779.5 364,-760.5 249,-760.5"/>
<text text-anchor="middle" x="306.5" y="-767.5" font-family="Helvetica,sans-Serif" font-size="10.00">test_number_theory</text>
</a>
</g>
</g>
<!-- Node3&#45;&gt;Node33 -->
<g id="edge22" class="edge">
<title>Node3&#45;&gt;Node33</title>
<path fill="none" stroke="midnightblue" d="M195.99,-893.43C215.71,-871.21 264.85,-815.81 290.06,-787.4"/>
<polygon fill="midnightblue" stroke="midnightblue" points="292.75,-789.64 296.77,-779.84 287.52,-784.99 292.75,-789.64"/>
</g>
<!-- Node45 -->
<g id="node30" class="node">
<title>Node45</title>
<g id="a_node30"><a xlink:href="queue_8hpp.html#a409d820ae1bf7e9bac41a9258ef79165" target="_top" xlink:title=" ">
<polygon fill="white" stroke="black" points="271,-589.5 271,-608.5 342,-608.5 342,-589.5 271,-589.5"/>
<text text-anchor="middle" x="306.5" y="-596.5" font-family="Helvetica,sans-Serif" font-size="10.00">test_queue</text>
</a>
</g>
</g>
<!-- Node3&#45;&gt;Node45 -->
<g id="edge29" class="edge">
<title>Node3&#45;&gt;Node45</title>
<path fill="none" stroke="midnightblue" d="M191.29,-893.23C208.04,-850.08 275.55,-676.17 298.11,-618.03"/>
<polygon fill="midnightblue" stroke="midnightblue" points="301.42,-619.17 301.78,-608.58 294.9,-616.64 301.42,-619.17"/>
</g>
<!-- Node60 -->
<g id="node34" class="node">
<title>Node60</title>
<g id="a_node34"><a xlink:href="2sat_8hpp.html#ae65df9939b591697fda3629f42cb8ec7" target="_top" xlink:title=" ">
<polygon fill="white" stroke="black" points="275.5,-513.5 275.5,-532.5 337.5,-532.5 337.5,-513.5 275.5,-513.5"/>
<text text-anchor="middle" x="306.5" y="-520.5" font-family="Helvetica,sans-Serif" font-size="10.00">test_sat2</text>
</a>
</g>
</g>
<!-- Node3&#45;&gt;Node60 -->
<g id="edge33" class="edge">
<title>Node3&#45;&gt;Node60</title>
<path fill="none" stroke="midnightblue" d="M187.34,-893.36C187.07,-852.69 189.97,-692.14 249,-580 257.44,-563.97 271.88,-549.52 284.04,-539.18"/>
<polygon fill="midnightblue" stroke="midnightblue" points="286.45,-541.74 292,-532.71 282.04,-536.3 286.45,-541.74"/>
</g>
<!-- Node63 -->
<g id="node36" class="node">
<title>Node63</title>
<g id="a_node36"><a xlink:href="splay__tree_8hpp.html#a453119e81bfa8f9fc72104639b907497" target="_top" xlink:title=" ">
<polygon fill="white" stroke="black" points="260.5,-361.5 260.5,-380.5 352.5,-380.5 352.5,-361.5 260.5,-361.5"/>
<text text-anchor="middle" x="306.5" y="-368.5" font-family="Helvetica,sans-Serif" font-size="10.00">test_splay_tree</text>
</a>
</g>
</g>
<!-- Node3&#45;&gt;Node63 -->
<g id="edge35" class="edge">
<title>Node3&#45;&gt;Node63</title>
<path fill="none" stroke="midnightblue" d="M188.11,-893.24C191.1,-848.09 205.92,-655.34 249,-504 261.01,-461.8 282.98,-415.18 295.7,-389.88"/>
<polygon fill="midnightblue" stroke="midnightblue" points="298.95,-391.2 300.38,-380.7 292.72,-388.02 298.95,-391.2"/>
</g>
<!-- Node76 -->
<g id="node44" class="node">
<title>Node76</title>
<g id="a_node44"><a xlink:href="utility_8hpp.html#a5e29afed548a99cd2c14f21a464382d7" target="_top" xlink:title=" ">
<polygon fill="white" stroke="black" points="272,-114.5 272,-133.5 341,-133.5 341,-114.5 272,-114.5"/>
<text text-anchor="middle" x="306.5" y="-121.5" font-family="Helvetica,sans-Serif" font-size="10.00">test_utility</text>
</a>
</g>
</g>
<!-- Node3&#45;&gt;Node76 -->
<g id="edge44" class="edge">
<title>Node3&#45;&gt;Node76</title>
<path fill="none" stroke="midnightblue" d="M188.09,-893.5C191.52,-839.85 210.1,-569.45 249,-352 262.98,-273.84 288.38,-182.69 299.74,-143.52"/>
<polygon fill="midnightblue" stroke="midnightblue" points="303.1,-144.48 302.55,-133.9 296.38,-142.52 303.1,-144.48"/>
</g>
<!-- Node5 -->
<g id="node5" class="node">
<title>Node5</title>
<g id="a_node5"><a xlink:href="combinatorics_8hpp.html#a18ebcc5a7f4095dab1cc6d9bacd8d607" target="_top" xlink:title=" ">
<polygon fill="white" stroke="black" points="417.5,-1292.5 417.5,-1311.5 492.5,-1311.5 492.5,-1292.5 417.5,-1292.5"/>
<text text-anchor="middle" x="455" y="-1299.5" font-family="Helvetica,sans-Serif" font-size="10.00">test_choose</text>
</a>
</g>
</g>
<!-- Node4&#45;&gt;Node5 -->
<g id="edge4" class="edge">
<title>Node4&#45;&gt;Node5</title>
<path fill="none" stroke="midnightblue" d="M329.8,-1254.54C348.46,-1262.43 375.83,-1273.79 400,-1283 405.22,-1284.99 410.76,-1287.02 416.22,-1288.98"/>
<polygon fill="midnightblue" stroke="midnightblue" points="415.28,-1292.37 425.87,-1292.41 417.62,-1285.77 415.28,-1292.37"/>
</g>
<!-- Node9 -->
<g id="node7" class="node">
<title>Node9</title>
<g id="a_node7"><a xlink:href="combinatorics_8hpp.html#a1da351da5f459306dd3182e8e0e3a5bc" target="_top" xlink:title=" ">
<polygon fill="white" stroke="red" points="425.5,-1254.5 425.5,-1273.5 484.5,-1273.5 484.5,-1254.5 425.5,-1254.5"/>
<text text-anchor="middle" x="455" y="-1261.5" font-family="Helvetica,sans-Serif" font-size="10.00">test_fact</text>
</a>
</g>
</g>
<!-- Node4&#45;&gt;Node9 -->
<g id="edge6" class="edge">
<title>Node4&#45;&gt;Node9</title>
<path fill="none" stroke="midnightblue" d="M361.63,-1252.02C379.29,-1254.31 398.53,-1256.81 414.86,-1258.92"/>
<polygon fill="midnightblue" stroke="midnightblue" points="414.76,-1262.44 425.13,-1260.26 415.66,-1255.5 414.76,-1262.44"/>
</g>
<!-- Node10 -->
<g id="node8" class="node">
<title>Node10</title>
<g id="a_node8"><a xlink:href="combinatorics_8hpp.html#aedfa862b47420de0d171586777f5fa5e" target="_top" xlink:title=" ">
<polygon fill="white" stroke="red" points="422,-1216.5 422,-1235.5 488,-1235.5 488,-1216.5 422,-1216.5"/>
<text text-anchor="middle" x="455" y="-1223.5" font-family="Helvetica,sans-Serif" font-size="10.00">test_perm</text>
</a>
</g>
</g>
<!-- Node4&#45;&gt;Node10 -->
<g id="edge7" class="edge">
<title>Node4&#45;&gt;Node10</title>
<path fill="none" stroke="midnightblue" d="M361.63,-1237.98C378.06,-1235.85 395.86,-1233.54 411.41,-1231.52"/>
<polygon fill="midnightblue" stroke="midnightblue" points="412.31,-1234.94 421.78,-1230.18 411.41,-1227.99 412.31,-1234.94"/>
</g>
<!-- Node6 -->
<g id="node6" class="node">
<title>Node6</title>
<g id="a_node6"><a xlink:href="combinatorics_8hpp.html#a4d8eda9d63610214a1eb9b92a51443d1" target="_top" xlink:title=" ">
<polygon fill="white" stroke="red" points="565,-1292.5 565,-1311.5 616,-1311.5 616,-1292.5 565,-1292.5"/>
<text text-anchor="middle" x="590.5" y="-1299.5" font-family="Helvetica,sans-Serif" font-size="10.00">choose</text>
</a>
</g>
</g>
<!-- Node5&#45;&gt;Node6 -->
<g id="edge5" class="edge">
<title>Node5&#45;&gt;Node6</title>
<path fill="none" stroke="midnightblue" d="M492.83,-1302C512.11,-1302 535.58,-1302 554.57,-1302"/>
<polygon fill="midnightblue" stroke="midnightblue" points="554.6,-1305.5 564.6,-1302 554.6,-1298.5 554.6,-1305.5"/>
</g>
<!-- Node13 -->
<g id="node11" class="node">
<title>Node13</title>
<g id="a_node11"><a xlink:href="geometry_8hpp.html#a08748b8a2389649d041e6c8ff9d28ba0" target="_top" xlink:title=" ">
<polygon fill="white" stroke="red" points="427,-1178.5 427,-1197.5 483,-1197.5 483,-1178.5 427,-1178.5"/>
<text text-anchor="middle" x="455" y="-1185.5" font-family="Helvetica,sans-Serif" font-size="10.00">test_dot</text>
</a>
</g>
</g>
<!-- Node12&#45;&gt;Node13 -->
<g id="edge10" class="edge">
<title>Node12&#45;&gt;Node13</title>
<path fill="none" stroke="midnightblue" d="M338.92,-1140.57C347.18,-1143.35 356.01,-1146.57 364,-1150 380.63,-1157.13 383.42,-1161.76 400,-1169 405.48,-1171.4 411.38,-1173.72 417.18,-1175.86"/>
<polygon fill="midnightblue" stroke="midnightblue" points="416.18,-1179.23 426.78,-1179.3 418.54,-1172.63 416.18,-1179.23"/>
</g>
<!-- Node15 -->
<g id="node12" class="node">
<title>Node15</title>
<g id="a_node12"><a xlink:href="geometry_8hpp.html#a51b282424a806deac8ebd597aa601232" target="_top" xlink:title=" ">
<polygon fill="white" stroke="red" points="418.5,-1140.5 418.5,-1159.5 491.5,-1159.5 491.5,-1140.5 418.5,-1140.5"/>
<text text-anchor="middle" x="455" y="-1147.5" font-family="Helvetica,sans-Serif" font-size="10.00">test_wedge</text>
</a>
</g>
</g>
<!-- Node12&#45;&gt;Node15 -->
<g id="edge11" class="edge">
<title>Node12&#45;&gt;Node15</title>
<path fill="none" stroke="midnightblue" d="M350.66,-1136.6C368.67,-1138.93 389.61,-1141.65 407.91,-1144.02"/>
<polygon fill="midnightblue" stroke="midnightblue" points="407.69,-1147.52 418.06,-1145.34 408.59,-1140.58 407.69,-1147.52"/>
</g>
<!-- Node18 -->
<g id="node14" class="node">
<title>Node18</title>
<g id="a_node14"><a xlink:href="graph__theory_8hpp.html#a8cbcc457cc04bce093aa17866046ffb6" target="_top" xlink:title=" ">
<polygon fill="white" stroke="red" points="411,-1102.5 411,-1121.5 499,-1121.5 499,-1102.5 411,-1102.5"/>
<text text-anchor="middle" x="455" y="-1109.5" font-family="Helvetica,sans-Serif" font-size="10.00">test_add_edge</text>
</a>
</g>
</g>
<!-- Node17&#45;&gt;Node18 -->
<g id="edge13" class="edge">
<title>Node17&#45;&gt;Node18</title>
<path fill="none" stroke="midnightblue" d="M321.08,-1045.66C338.66,-1057.85 370.55,-1078.94 400,-1093 404.37,-1095.08 409.03,-1097.06 413.71,-1098.9"/>
<polygon fill="midnightblue" stroke="midnightblue" points="412.67,-1102.25 423.27,-1102.46 415.12,-1095.69 412.67,-1102.25"/>
</g>
<!-- Node20 -->
<g id="node15" class="node">
<title>Node20</title>
<g id="a_node15"><a xlink:href="graph__theory_8hpp.html#a7a5d11f82e9baa82dc71ff8ded6f62da" target="_top" xlink:title=" ">
<polygon fill="white" stroke="red" points="425.5,-1064.5 425.5,-1083.5 484.5,-1083.5 484.5,-1064.5 425.5,-1064.5"/>
<text text-anchor="middle" x="455" y="-1071.5" font-family="Helvetica,sans-Serif" font-size="10.00">test_dist</text>
</a>
</g>
</g>
<!-- Node17&#45;&gt;Node20 -->
<g id="edge14" class="edge">
<title>Node17&#45;&gt;Node20</title>
<path fill="none" stroke="midnightblue" d="M344.47,-1045.59C366.13,-1051.21 393.45,-1058.29 415.39,-1063.98"/>
<polygon fill="midnightblue" stroke="midnightblue" points="414.8,-1067.45 425.36,-1066.57 416.56,-1060.67 414.8,-1067.45"/>
</g>
<!-- Node22 -->
<g id="node16" class="node">
<title>Node22</title>
<g id="a_node16"><a xlink:href="graph__theory_8hpp.html#adc21a6e0c023e0b90a90d2cd42940d42" target="_top" xlink:title=" ">
<polygon fill="white" stroke="red" points="425.5,-1026.5 425.5,-1045.5 484.5,-1045.5 484.5,-1026.5 425.5,-1026.5"/>
<text text-anchor="middle" x="455" y="-1033.5" font-family="Helvetica,sans-Serif" font-size="10.00">test_mst</text>
</a>
</g>
</g>
<!-- Node17&#45;&gt;Node22 -->
<g id="edge15" class="edge">
<title>Node17&#45;&gt;Node22</title>
<path fill="none" stroke="midnightblue" d="M359.15,-1036C377.57,-1036 397.99,-1036 415.15,-1036"/>
<polygon fill="midnightblue" stroke="midnightblue" points="415.37,-1039.5 425.37,-1036 415.37,-1032.5 415.37,-1039.5"/>
</g>
<!-- Node24 -->
<g id="node17" class="node">
<title>Node24</title>
<g id="a_node17"><a xlink:href="graph__theory_8hpp.html#a56c22f1781661a462e8a456fb4562e68" target="_top" xlink:title=" ">
<polygon fill="white" stroke="red" points="422.5,-988.5 422.5,-1007.5 487.5,-1007.5 487.5,-988.5 422.5,-988.5"/>
<text text-anchor="middle" x="455" y="-995.5" font-family="Helvetica,sans-Serif" font-size="10.00">test_trans</text>
</a>
</g>
</g>
<!-- Node17&#45;&gt;Node24 -->
<g id="edge16" class="edge">
<title>Node17&#45;&gt;Node24</title>
<path fill="none" stroke="midnightblue" d="M344.47,-1026.41C365.1,-1021.06 390.88,-1014.37 412.24,-1008.83"/>
<polygon fill="midnightblue" stroke="midnightblue" points="413.22,-1012.19 422.02,-1006.3 411.46,-1005.42 413.22,-1012.19"/>
</g>
<!-- Node27 -->
<g id="node19" class="node">
<title>Node27</title>
<g id="a_node19"><a xlink:href="linear__algebra_8hpp.html#a9bca95617a7712fbff5e543cf1cef977" target="_top" xlink:title=" ">
<polygon fill="white" stroke="red" points="439,-950.5 439,-969.5 471,-969.5 471,-950.5 439,-950.5"/>
<text text-anchor="middle" x="455" y="-957.5" font-family="Helvetica,sans-Serif" font-size="10.00">det</text>
</a>
</g>
</g>
<!-- Node26&#45;&gt;Node27 -->
<g id="edge18" class="edge">
<title>Node26&#45;&gt;Node27</title>
<path fill="none" stroke="midnightblue" d="M343.34,-953.2C369.81,-954.83 405.19,-957 428.75,-958.45"/>
<polygon fill="midnightblue" stroke="midnightblue" points="428.77,-961.96 438.97,-959.08 429.2,-954.97 428.77,-961.96"/>
</g>
<!-- Node30 -->
<g id="node21" class="node">
<title>Node30</title>
<g id="a_node21"><a xlink:href="modulo_8hpp.html#af249c063d4cee0dc930796b8728265e0" target="_top" xlink:title=" ">
<polygon fill="white" stroke="black" points="427,-912.5 427,-931.5 483,-931.5 483,-912.5 427,-912.5"/>
<text text-anchor="middle" x="455" y="-919.5" font-family="Helvetica,sans-Serif" font-size="10.00">test_md</text>
</a>
</g>
</g>
<!-- Node29&#45;&gt;Node30 -->
<g id="edge20" class="edge">
<title>Node29&#45;&gt;Node30</title>
<path fill="none" stroke="midnightblue" d="M345.23,-907.89C367.18,-910.74 394.76,-914.32 416.65,-917.16"/>
<polygon fill="midnightblue" stroke="midnightblue" points="416.21,-920.63 426.58,-918.44 417.11,-913.69 416.21,-920.63"/>
</g>
<!-- Node31 -->
<g id="node22" class="node">
<title>Node31</title>
<g id="a_node22"><a xlink:href="modulo_8hpp.html#af63abc641089d55f193ed28ed00f7eaa" target="_top" xlink:title=" ">
<polygon fill="white" stroke="red" points="419.5,-874.5 419.5,-893.5 490.5,-893.5 490.5,-874.5 419.5,-874.5"/>
<text text-anchor="middle" x="455" y="-881.5" font-family="Helvetica,sans-Serif" font-size="10.00">test_power</text>
</a>
</g>
</g>
<!-- Node29&#45;&gt;Node31 -->
<g id="edge21" class="edge">
<title>Node29&#45;&gt;Node31</title>
<path fill="none" stroke="midnightblue" d="M345.23,-898.11C364.81,-895.57 388.86,-892.45 409.36,-889.79"/>
<polygon fill="midnightblue" stroke="midnightblue" points="409.95,-893.24 419.41,-888.49 409.04,-886.3 409.95,-893.24"/>
</g>
<!-- Node34 -->
<g id="node24" class="node">
<title>Node34</title>
<g id="a_node24"><a xlink:href="number__theory_8hpp.html#a3e935b9aca6e9dfa6b0a8ef9a4c7e153" target="_top" xlink:title=" ">
<polygon fill="white" stroke="red" points="415.5,-836.5 415.5,-855.5 494.5,-855.5 494.5,-836.5 415.5,-836.5"/>
<text text-anchor="middle" x="455" y="-843.5" font-family="Helvetica,sans-Serif" font-size="10.00">test_divisors</text>
</a>
</g>
</g>
<!-- Node33&#45;&gt;Node34 -->
<g id="edge23" class="edge">
<title>Node33&#45;&gt;Node34</title>
<path fill="none" stroke="midnightblue" d="M321.08,-779.66C338.66,-791.85 370.55,-812.94 400,-827 404.37,-829.08 409.03,-831.06 413.71,-832.9"/>
<polygon fill="midnightblue" stroke="midnightblue" points="412.67,-836.25 423.27,-836.46 415.12,-829.69 412.67,-836.25"/>
</g>
<!-- Node36 -->
<g id="node25" class="node">
<title>Node36</title>
<g id="a_node25"><a xlink:href="number__theory_8hpp.html#a7aac53ce82614d79c7098a1de32ed1e7" target="_top" xlink:title=" ">
<polygon fill="white" stroke="red" points="424,-798.5 424,-817.5 486,-817.5 486,-798.5 424,-798.5"/>
<text text-anchor="middle" x="455" y="-805.5" font-family="Helvetica,sans-Serif" font-size="10.00">test_dlog</text>
</a>
</g>
</g>
<!-- Node33&#45;&gt;Node36 -->
<g id="edge24" class="edge">
<title>Node33&#45;&gt;Node36</title>
<path fill="none" stroke="midnightblue" d="M344.47,-779.59C365.69,-785.09 392.35,-792.01 414.05,-797.64"/>
<polygon fill="midnightblue" stroke="midnightblue" points="413.39,-801.08 423.94,-800.2 415.14,-794.31 413.39,-801.08"/>
</g>
<!-- Node37 -->
<g id="node26" class="node">
<title>Node37</title>
<g id="a_node26"><a xlink:href="number__theory_8hpp.html#afcfd3b1e3415393029bc6a496d825459" target="_top" xlink:title=" ">
<polygon fill="white" stroke="red" points="427,-760.5 427,-779.5 483,-779.5 483,-760.5 427,-760.5"/>
<text text-anchor="middle" x="455" y="-767.5" font-family="Helvetica,sans-Serif" font-size="10.00">test_fac</text>
</a>
</g>
</g>
<!-- Node33&#45;&gt;Node37 -->
<g id="edge25" class="edge">
<title>Node33&#45;&gt;Node37</title>
<path fill="none" stroke="midnightblue" d="M364.14,-770C381.84,-770 400.91,-770 416.91,-770"/>
<polygon fill="midnightblue" stroke="midnightblue" points="416.93,-773.5 426.93,-770 416.93,-766.5 416.93,-773.5"/>
</g>
<!-- Node40 -->
<g id="node27" class="node">
<title>Node40</title>
<g id="a_node27"><a xlink:href="number__theory_8hpp.html#a87d7c3ba2489977a16ec40544a918e00" target="_top" xlink:title=" ">
<polygon fill="white" stroke="red" points="420.5,-722.5 420.5,-741.5 489.5,-741.5 489.5,-722.5 420.5,-722.5"/>
<text text-anchor="middle" x="455" y="-729.5" font-family="Helvetica,sans-Serif" font-size="10.00">test_prime</text>
</a>
</g>
</g>
<!-- Node33&#45;&gt;Node40 -->
<g id="edge26" class="edge">
<title>Node33&#45;&gt;Node40</title>
<path fill="none" stroke="midnightblue" d="M344.47,-760.41C364.43,-755.23 389.2,-748.81 410.13,-743.38"/>
<polygon fill="midnightblue" stroke="midnightblue" points="411.26,-746.7 420.06,-740.8 409.5,-739.93 411.26,-746.7"/>
</g>
<!-- Node41 -->
<g id="node28" class="node">
<title>Node41</title>
<g id="a_node28"><a xlink:href="number__theory_8hpp.html#a0ff115471f41e78245b5dc48eaf8032f" target="_top" xlink:title=" ">
<polygon fill="white" stroke="red" points="400,-684.5 400,-703.5 510,-703.5 510,-684.5 400,-684.5"/>
<text text-anchor="middle" x="455" y="-691.5" font-family="Helvetica,sans-Serif" font-size="10.00">test_primitive_root</text>
</a>
</g>
</g>
<!-- Node33&#45;&gt;Node41 -->
<g id="edge27" class="edge">
<title>Node33&#45;&gt;Node41</title>
<path fill="none" stroke="midnightblue" d="M321.08,-760.34C338.66,-748.15 370.55,-727.06 400,-713 404.37,-710.92 409.03,-708.94 413.71,-707.1"/>
<polygon fill="midnightblue" stroke="midnightblue" points="415.12,-710.31 423.27,-703.54 412.67,-703.75 415.12,-710.31"/>
</g>
<!-- Node44 -->
<g id="node29" class="node">
<title>Node44</title>
<g id="a_node29"><a xlink:href="number__theory_8hpp.html#a8ae320acad5e35d58ca5ad7adc6ddd78" target="_top" xlink:title=" ">
<polygon fill="white" stroke="red" points="418.5,-646.5 418.5,-665.5 491.5,-665.5 491.5,-646.5 418.5,-646.5"/>
<text text-anchor="middle" x="455" y="-653.5" font-family="Helvetica,sans-Serif" font-size="10.00">test_totient</text>
</a>
</g>
</g>
<!-- Node33&#45;&gt;Node44 -->
<g id="edge28" class="edge">
<title>Node33&#45;&gt;Node44</title>
<path fill="none" stroke="midnightblue" d="M314.53,-760.21C328.65,-741.2 362.37,-699.04 400,-675 403.11,-673.01 406.46,-671.2 409.91,-669.55"/>
<polygon fill="midnightblue" stroke="midnightblue" points="411.37,-672.74 419.19,-665.58 408.62,-666.3 411.37,-672.74"/>
</g>
<!-- Node46 -->
<g id="node31" class="node">
<title>Node46</title>
<g id="a_node31"><a xlink:href="queue_8hpp.html#ade8983381de2dd15dd63f80934f01827" target="_top" xlink:title=" ">
<polygon fill="white" stroke="red" points="410.5,-608.5 410.5,-627.5 499.5,-627.5 499.5,-608.5 410.5,-608.5"/>
<text text-anchor="middle" x="455" y="-615.5" font-family="Helvetica,sans-Serif" font-size="10.00">test_minqueue</text>
</a>
</g>
</g>
<!-- Node45&#45;&gt;Node46 -->
<g id="edge30" class="edge">
<title>Node45&#45;&gt;Node46</title>
<path fill="none" stroke="midnightblue" d="M342.22,-603.5C359.58,-605.75 380.99,-608.53 400.4,-611.05"/>
<polygon fill="midnightblue" stroke="midnightblue" points="399.97,-614.52 410.34,-612.34 400.87,-607.58 399.97,-614.52"/>
</g>
<!-- Node52 -->
<g id="node32" class="node">
<title>Node52</title>
<g id="a_node32"><a xlink:href="queue_8hpp.html#a10088901e62ea354d6ae3d8cd9575a05" target="_top" xlink:title=" ">
<polygon fill="white" stroke="red" points="412,-570.5 412,-589.5 498,-589.5 498,-570.5 412,-570.5"/>
<text text-anchor="middle" x="455" y="-577.5" font-family="Helvetica,sans-Serif" font-size="10.00">test_minstack</text>
</a>
</g>
</g>
<!-- Node45&#45;&gt;Node52 -->
<g id="edge31" class="edge">
<title>Node45&#45;&gt;Node52</title>
<path fill="none" stroke="midnightblue" d="M342.22,-594.5C360.02,-592.19 382.06,-589.33 401.85,-586.76"/>
<polygon fill="midnightblue" stroke="midnightblue" points="402.49,-590.21 411.96,-585.45 401.59,-583.27 402.49,-590.21"/>
</g>
<!-- Node55 -->
<g id="node33" class="node">
<title>Node55</title>
<g id="a_node33"><a xlink:href="queue_8hpp.html#a3582140b7324e0ea0a09e7b49aff5da4" target="_top" xlink:title=" ">
<polygon fill="white" stroke="red" points="401,-532.5 401,-551.5 509,-551.5 509,-532.5 401,-532.5"/>
<text text-anchor="middle" x="455" y="-539.5" font-family="Helvetica,sans-Serif" font-size="10.00">test_queueadaptor</text>
</a>
</g>
</g>
<!-- Node45&#45;&gt;Node55 -->
<g id="edge32" class="edge">
<title>Node45&#45;&gt;Node55</title>
<path fill="none" stroke="midnightblue" d="M329.8,-589.46C348.46,-581.57 375.83,-570.21 400,-561 405.22,-559.01 410.76,-556.98 416.22,-555.02"/>
<polygon fill="midnightblue" stroke="midnightblue" points="417.62,-558.23 425.87,-551.59 415.28,-551.63 417.62,-558.23"/>
</g>
<!-- Node61 -->
<g id="node35" class="node">
<title>Node61</title>
<g id="a_node35"><a xlink:href="2sat_8hpp.html#aab122b9926a6b55217e5542e400a6bae" target="_top" xlink:title=" ">
<polygon fill="white" stroke="red" points="436,-494.5 436,-513.5 474,-513.5 474,-494.5 436,-494.5"/>
<text text-anchor="middle" x="455" y="-501.5" font-family="Helvetica,sans-Serif" font-size="10.00">sat2</text>
</a>
</g>
</g>
<!-- Node60&#45;&gt;Node61 -->
<g id="edge34" class="edge">
<title>Node60&#45;&gt;Node61</title>
<path fill="none" stroke="midnightblue" d="M337.85,-519.06C363.67,-515.72 400.46,-510.94 425.67,-507.67"/>
<polygon fill="midnightblue" stroke="midnightblue" points="426.24,-511.13 435.7,-506.37 425.34,-504.19 426.24,-511.13"/>
</g>
<!-- Node64 -->
<g id="node37" class="node">
<title>Node64</title>
<g id="a_node37"><a xlink:href="structSplayTree.html#aec1d30f8e415fe8e5946e524d27c1ad6" target="_top" xlink:title=" ">
<polygon fill="white" stroke="black" points="406.5,-456.5 406.5,-475.5 503.5,-475.5 503.5,-456.5 406.5,-456.5"/>
<text text-anchor="middle" x="455" y="-463.5" font-family="Helvetica,sans-Serif" font-size="10.00">SplayTree::begin</text>
</a>
</g>
</g>
<!-- Node63&#45;&gt;Node64 -->
<g id="edge36" class="edge">
<title>Node63&#45;&gt;Node64</title>
<path fill="none" stroke="midnightblue" d="M316.91,-380.68C332.75,-396.5 366.32,-428.02 400,-447 403.65,-449.06 407.57,-450.95 411.56,-452.68"/>
<polygon fill="midnightblue" stroke="midnightblue" points="410.34,-455.97 420.93,-456.42 412.94,-449.47 410.34,-455.97"/>
</g>
<!-- Node65 -->
<g id="node38" class="node">
<title>Node65</title>
<g id="a_node38"><a xlink:href="structSplayTree.html#a4b5e196ef6ecd49b08cd405a30ee6a6b" target="_top" xlink:title=" ">
<polygon fill="white" stroke="black" points="404.5,-418.5 404.5,-437.5 505.5,-437.5 505.5,-418.5 404.5,-418.5"/>
<text text-anchor="middle" x="455" y="-425.5" font-family="Helvetica,sans-Serif" font-size="10.00">SplayTree::empty</text>
</a>
</g>
</g>
<!-- Node63&#45;&gt;Node65 -->
<g id="edge37" class="edge">
<title>Node63&#45;&gt;Node65</title>
<path fill="none" stroke="midnightblue" d="M332.02,-380.54C356.11,-389.91 393.06,-404.29 419.98,-414.76"/>
<polygon fill="midnightblue" stroke="midnightblue" points="418.81,-418.06 429.4,-418.43 421.35,-411.54 418.81,-418.06"/>
</g>
<!-- Node66 -->
<g id="node39" class="node">
<title>Node66</title>
<g id="a_node39"><a xlink:href="structSplayTree.html#a67cc9fe4b6d6c9e2167701c982fcefb8" target="_top" xlink:title=" ">
<polygon fill="white" stroke="black" points="546,-399.5 546,-418.5 635,-418.5 635,-399.5 546,-399.5"/>
<text text-anchor="middle" x="590.5" y="-406.5" font-family="Helvetica,sans-Serif" font-size="10.00">SplayTree::size</text>
</a>
</g>
</g>
<!-- Node63&#45;&gt;Node66 -->
<g id="edge43" class="edge">
<title>Node63&#45;&gt;Node66</title>
<path fill="none" stroke="midnightblue" d="M352.81,-377.11C402.58,-383.81 482.48,-394.58 535.47,-401.72"/>
<polygon fill="midnightblue" stroke="midnightblue" points="535.32,-405.23 545.7,-403.1 536.25,-398.29 535.32,-405.23"/>
</g>
<!-- Node67 -->
<g id="node40" class="node">
<title>Node67</title>
<g id="a_node40"><a xlink:href="structSplayTree.html#a45302c7001ad3e2564ac91ccd7dd9a0c" target="_top" xlink:title=" ">
<polygon fill="white" stroke="black" points="411,-342.5 411,-361.5 499,-361.5 499,-342.5 411,-342.5"/>
<text text-anchor="middle" x="455" y="-349.5" font-family="Helvetica,sans-Serif" font-size="10.00">SplayTree::end</text>
</a>
</g>
</g>
<!-- Node63&#45;&gt;Node67 -->
<g id="edge39" class="edge">
<title>Node63&#45;&gt;Node67</title>
<path fill="none" stroke="midnightblue" d="M352.65,-365.14C367.82,-363.18 384.89,-360.96 400.63,-358.92"/>
<polygon fill="midnightblue" stroke="midnightblue" points="401.29,-362.37 410.75,-357.61 400.39,-355.42 401.29,-362.37"/>
</g>
<!-- Node68 -->
<g id="node41" class="node">
<title>Node68</title>
<g id="a_node41"><a xlink:href="structSplayTree.html#a31e65260a6cc94aab86c6a3def846830" target="_top" xlink:title=" ">
<polygon fill="white" stroke="red" points="406.5,-304.5 406.5,-323.5 503.5,-323.5 503.5,-304.5 406.5,-304.5"/>
<text text-anchor="middle" x="455" y="-311.5" font-family="Helvetica,sans-Serif" font-size="10.00">SplayTree::erase</text>
</a>
</g>
</g>
<!-- Node63&#45;&gt;Node68 -->
<g id="edge40" class="edge">
<title>Node63&#45;&gt;Node68</title>
<path fill="none" stroke="midnightblue" d="M329.8,-361.46C348.46,-353.57 375.83,-342.21 400,-333 405.22,-331.01 410.76,-328.98 416.22,-327.02"/>
<polygon fill="midnightblue" stroke="midnightblue" points="417.62,-330.23 425.87,-323.59 415.28,-323.63 417.62,-330.23"/>
</g>
<!-- Node74 -->
<g id="node42" class="node">
<title>Node74</title>
<g id="a_node42"><a xlink:href="structSplayTree.html#a875c802868fd4e94282efdedd86cb772" target="_top" xlink:title=" ">
<polygon fill="white" stroke="black" points="410.5,-266.5 410.5,-285.5 499.5,-285.5 499.5,-266.5 410.5,-266.5"/>
<text text-anchor="middle" x="455" y="-273.5" font-family="Helvetica,sans-Serif" font-size="10.00">SplayTree::find</text>
</a>
</g>
</g>
<!-- Node63&#45;&gt;Node74 -->
<g id="edge41" class="edge">
<title>Node63&#45;&gt;Node74</title>
<path fill="none" stroke="midnightblue" d="M316.91,-361.32C332.75,-345.5 366.32,-313.98 400,-295 403.65,-292.94 407.57,-291.05 411.56,-289.32"/>
<polygon fill="midnightblue" stroke="midnightblue" points="412.94,-292.53 420.93,-285.58 410.34,-286.03 412.94,-292.53"/>
</g>
<!-- Node75 -->
<g id="node43" class="node">
<title>Node75</title>
<g id="a_node43"><a xlink:href="structSplayTree.html#a68ee8070ca751318c345c2ec728b6003" target="_top" xlink:title=" ">
<polygon fill="white" stroke="red" points="406,-228.5 406,-247.5 504,-247.5 504,-228.5 406,-228.5"/>
<text text-anchor="middle" x="455" y="-235.5" font-family="Helvetica,sans-Serif" font-size="10.00">SplayTree::insert</text>
</a>
</g>
</g>
<!-- Node63&#45;&gt;Node75 -->
<g id="edge42" class="edge">
<title>Node63&#45;&gt;Node75</title>
<path fill="none" stroke="midnightblue" d="M312.86,-361.24C325.31,-339.42 358.33,-286.36 400,-257 402.72,-255.08 405.66,-253.34 408.7,-251.76"/>
<polygon fill="midnightblue" stroke="midnightblue" points="410.41,-254.83 418.06,-247.51 407.51,-248.46 410.41,-254.83"/>
</g>
<!-- Node65&#45;&gt;Node66 -->
<g id="edge38" class="edge">
<title>Node65&#45;&gt;Node66</title>
<path fill="none" stroke="midnightblue" d="M505.71,-420.93C515.5,-419.53 525.82,-418.06 535.74,-416.65"/>
<polygon fill="midnightblue" stroke="midnightblue" points="536.49,-420.08 545.9,-415.21 535.5,-413.15 536.49,-420.08"/>
</g>
<!-- Node77 -->
<g id="node45" class="node">
<title>Node77</title>
<g id="a_node45"><a xlink:href="utility_8hpp.html#aebff8fa924a7c48ecb780e71c6316ea6" target="_top" xlink:title=" ">
<polygon fill="white" stroke="black" points="430,-190.5 430,-209.5 480,-209.5 480,-190.5 430,-190.5"/>
<text text-anchor="middle" x="455" y="-197.5" font-family="Helvetica,sans-Serif" font-size="10.00">test_ar</text>
</a>
</g>
</g>
<!-- Node76&#45;&gt;Node77 -->
<g id="edge45" class="edge">
<title>Node76&#45;&gt;Node77</title>
<path fill="none" stroke="midnightblue" d="M321.08,-133.66C338.66,-145.85 370.55,-166.94 400,-181 406.39,-184.05 413.4,-186.87 420.2,-189.36"/>
<polygon fill="midnightblue" stroke="midnightblue" points="419.31,-192.75 429.9,-192.75 421.61,-186.15 419.31,-192.75"/>
</g>
<!-- Node78 -->
<g id="node46" class="node">
<title>Node78</title>
<g id="a_node46"><a xlink:href="utility_8hpp.html#a4d1e5660a426a9d04e0907c3a69b55fa" target="_top" xlink:title=" ">
<polygon fill="white" stroke="red" points="410.5,-152.5 410.5,-171.5 499.5,-171.5 499.5,-152.5 410.5,-152.5"/>
<text text-anchor="middle" x="455" y="-159.5" font-family="Helvetica,sans-Serif" font-size="10.00">test_map_args</text>
</a>
</g>
</g>
<!-- Node76&#45;&gt;Node78 -->
<g id="edge46" class="edge">
<title>Node76&#45;&gt;Node78</title>
<path fill="none" stroke="midnightblue" d="M341.11,-132.72C360.73,-137.81 385.77,-144.3 407.29,-149.88"/>
<polygon fill="midnightblue" stroke="midnightblue" points="406.65,-153.33 417.21,-152.46 408.41,-146.56 406.65,-153.33"/>
</g>
<!-- Node80 -->
<g id="node47" class="node">
<title>Node80</title>
<g id="a_node47"><a xlink:href="utility_8hpp.html#a9a2af0b2340759f5b235759ed1116227" target="_top" xlink:title=" ">
<polygon fill="white" stroke="red" points="407.5,-114.5 407.5,-133.5 502.5,-133.5 502.5,-114.5 407.5,-114.5"/>
<text text-anchor="middle" x="455" y="-121.5" font-family="Helvetica,sans-Serif" font-size="10.00">test_next_comb</text>
</a>
</g>
</g>
<!-- Node76&#45;&gt;Node80 -->
<g id="edge47" class="edge">
<title>Node76&#45;&gt;Node80</title>
<path fill="none" stroke="midnightblue" d="M341.11,-124C357.72,-124 378.23,-124 397.19,-124"/>
<polygon fill="midnightblue" stroke="midnightblue" points="397.22,-127.5 407.22,-124 397.22,-120.5 397.22,-127.5"/>
</g>
<!-- Node82 -->
<g id="node48" class="node">
<title>Node82</title>
<g id="a_node48"><a xlink:href="utility_8hpp.html#ae9af300622998a43b200780645473ec3" target="_top" xlink:title=" ">
<polygon fill="white" stroke="red" points="425.5,-76.5 425.5,-95.5 484.5,-95.5 484.5,-76.5 425.5,-76.5"/>
<text text-anchor="middle" x="455" y="-83.5" font-family="Helvetica,sans-Serif" font-size="10.00">test_nx2</text>
</a>
</g>
</g>
<!-- Node76&#45;&gt;Node82 -->
<g id="edge48" class="edge">
<title>Node76&#45;&gt;Node82</title>
<path fill="none" stroke="midnightblue" d="M341.11,-115.28C363.33,-109.52 392.52,-101.95 415.65,-95.95"/>
<polygon fill="midnightblue" stroke="midnightblue" points="416.68,-99.3 425.48,-93.4 414.92,-92.52 416.68,-99.3"/>
</g>
<!-- Node84 -->
<g id="node49" class="node">
<title>Node84</title>
<g id="a_node49"><a xlink:href="utility_8hpp.html#a135862e0b9eecf842529ef19034e3c3c" target="_top" xlink:title=" ">
<polygon fill="white" stroke="red" points="424,-38.5 424,-57.5 486,-57.5 486,-38.5 424,-38.5"/>
<text text-anchor="middle" x="455" y="-45.5" font-family="Helvetica,sans-Serif" font-size="10.00">test_uniq</text>
</a>
</g>
</g>
<!-- Node76&#45;&gt;Node84 -->
<g id="edge49" class="edge">
<title>Node76&#45;&gt;Node84</title>
<path fill="none" stroke="midnightblue" d="M321.08,-114.34C338.66,-102.15 370.55,-81.06 400,-67 404.59,-64.81 409.51,-62.73 414.43,-60.82"/>
<polygon fill="midnightblue" stroke="midnightblue" points="415.67,-64.09 423.83,-57.34 413.24,-57.53 415.67,-64.09"/>
</g>
<!-- Node86 -->
<g id="node50" class="node">
<title>Node86</title>
<g id="a_node50"><a xlink:href="utility_8hpp.html#a61e1ebee9702000f4f876a4e08d2d83a" target="_top" xlink:title=" ">
<polygon fill="white" stroke="black" points="424,-0.5 424,-19.5 486,-19.5 486,-0.5 424,-0.5"/>
<text text-anchor="middle" x="455" y="-7.5" font-family="Helvetica,sans-Serif" font-size="10.00">test_with</text>
</a>
</g>
</g>
<!-- Node76&#45;&gt;Node86 -->
<g id="edge50" class="edge">
<title>Node76&#45;&gt;Node86</title>
<path fill="none" stroke="midnightblue" d="M314.53,-114.21C328.65,-95.2 362.37,-53.04 400,-29 404.44,-26.16 409.36,-23.69 414.36,-21.54"/>
<polygon fill="midnightblue" stroke="midnightblue" points="415.93,-24.69 424,-17.82 413.41,-18.16 415.93,-24.69"/>
</g>
</g>
</svg>
