<?xml version="1.0" encoding="UTF-8" standalone="no"?>
<!DOCTYPE svg PUBLIC "-//W3C//DTD SVG 1.1//EN"
 "http://www.w3.org/Graphics/SVG/1.1/DTD/svg11.dtd">
<!-- Generated by graphviz version 2.43.0 (0)
 -->
<!-- Title: /home/ram/OmniTemplate/modulo.hpp Pages: 1 -->
<svg width="998pt" height="374pt"
 viewBox="0.00 0.00 998.00 374.00" xmlns="http://www.w3.org/2000/svg" xmlns:xlink="http://www.w3.org/1999/xlink">
<g id="graph0" class="graph" transform="scale(1 1) rotate(0) translate(4 370)">
<title>/home/ram/OmniTemplate/modulo.hpp</title>
<polygon fill="white" stroke="transparent" points="-4,4 -4,-370 994,-370 994,4 -4,4"/>
<!-- Node1 -->
<g id="node1" class="node">
<title>Node1</title>
<g id="a_node1"><a xlink:title=" ">
<polygon fill="#bfbfbf" stroke="black" points="688,-335.5 688,-365.5 832,-365.5 832,-335.5 688,-335.5"/>
<text text-anchor="start" x="696" y="-353.5" font-family="Helvetica,sans-Serif" font-size="10.00">/home/ram/OmniTemplate</text>
<text text-anchor="middle" x="760" y="-342.5" font-family="Helvetica,sans-Serif" font-size="10.00">/modulo.hpp</text>
</a>
</g>
</g>
<!-- Node2 -->
<g id="node2" class="node">
<title>Node2</title>
<g id="a_node2"><a xlink:href="linear__algebra_8hpp.html" target="_top" xlink:title=" ">
<polygon fill="white" stroke="black" points="562,-268.5 562,-298.5 706,-298.5 706,-268.5 562,-268.5"/>
<text text-anchor="start" x="570" y="-286.5" font-family="Helvetica,sans-Serif" font-size="10.00">/home/ram/OmniTemplate</text>
<text text-anchor="middle" x="634" y="-275.5" font-family="Helvetica,sans-Serif" font-size="10.00">/linear_algebra.hpp</text>
</a>
</g>
</g>
<!-- Node1&#45;&gt;Node2 -->
<g id="edge1" class="edge">
<title>Node1&#45;&gt;Node2</title>
<path fill="none" stroke="midnightblue" d="M723.58,-330.71C703.71,-320.46 679.52,-307.98 661.29,-298.58"/>
<polygon fill="midnightblue" stroke="midnightblue" points="722.17,-333.92 732.66,-335.4 725.38,-327.7 722.17,-333.92"/>
</g>
<!-- Node5 -->
<g id="node5" class="node">
<title>Node5</title>
<g id="a_node5"><a xlink:href="template_8hpp.html" target="_top" xlink:title=" ">
<polygon fill="white" stroke="black" points="624,-67.5 624,-97.5 768,-97.5 768,-67.5 624,-67.5"/>
<text text-anchor="start" x="632" y="-85.5" font-family="Helvetica,sans-Serif" font-size="10.00">/home/ram/OmniTemplate</text>
<text text-anchor="middle" x="696" y="-74.5" font-family="Helvetica,sans-Serif" font-size="10.00">/template.hpp</text>
</a>
</g>
</g>
<!-- Node1&#45;&gt;Node5 -->
<g id="edge17" class="edge">
<title>Node1&#45;&gt;Node5</title>
<path fill="none" stroke="midnightblue" d="M754.2,-325.41C741.14,-271.12 709.74,-140.61 699.38,-97.55"/>
<polygon fill="midnightblue" stroke="midnightblue" points="750.82,-326.29 756.56,-335.2 757.62,-324.66 750.82,-326.29"/>
</g>
<!-- Node11 -->
<g id="node11" class="node">
<title>Node11</title>
<g id="a_node11"><a xlink:href="number__theory_8hpp.html" target="_top" xlink:title=" ">
<polygon fill="white" stroke="black" points="762,-201.5 762,-231.5 906,-231.5 906,-201.5 762,-201.5"/>
<text text-anchor="start" x="770" y="-219.5" font-family="Helvetica,sans-Serif" font-size="10.00">/home/ram/OmniTemplate</text>
<text text-anchor="middle" x="834" y="-208.5" font-family="Helvetica,sans-Serif" font-size="10.00">/number_theory.hpp</text>
</a>
</g>
</g>
<!-- Node1&#45;&gt;Node11 -->
<g id="edge13" class="edge">
<title>Node1&#45;&gt;Node11</title>
<path fill="none" stroke="midnightblue" d="M772.91,-326.48C788.27,-299.07 813.43,-254.19 826.14,-231.52"/>
<polygon fill="midnightblue" stroke="midnightblue" points="769.76,-324.94 767.92,-335.37 775.86,-328.36 769.76,-324.94"/>
</g>
<!-- Node12 -->
<g id="node12" class="node">
<title>Node12</title>
<g id="a_node12"><a xlink:href="permutation_8hpp.html" target="_top" xlink:title=" ">
<polygon fill="white" stroke="black" points="846,-268.5 846,-298.5 990,-298.5 990,-268.5 846,-268.5"/>
<text text-anchor="start" x="854" y="-286.5" font-family="Helvetica,sans-Serif" font-size="10.00">/home/ram/OmniTemplate</text>
<text text-anchor="middle" x="918" y="-275.5" font-family="Helvetica,sans-Serif" font-size="10.00">/permutation.hpp</text>
</a>
</g>
</g>
<!-- Node1&#45;&gt;Node12 -->
<g id="edge15" class="edge">
<title>Node1&#45;&gt;Node12</title>
<path fill="none" stroke="midnightblue" d="M803.65,-331.54C828.93,-321.14 860.3,-308.24 883.78,-298.58"/>
<polygon fill="midnightblue" stroke="midnightblue" points="802.2,-328.35 794.28,-335.4 804.86,-334.83 802.2,-328.35"/>
</g>
<!-- Node3 -->
<g id="node3" class="node">
<title>Node3</title>
<g id="a_node3"><a xlink:href="graph__theory_8hpp.html" target="_top" xlink:title=" ">
<polygon fill="white" stroke="black" points="281,-201.5 281,-231.5 425,-231.5 425,-201.5 281,-201.5"/>
<text text-anchor="start" x="289" y="-219.5" font-family="Helvetica,sans-Serif" font-size="10.00">/home/ram/OmniTemplate</text>
<text text-anchor="middle" x="353" y="-208.5" font-family="Helvetica,sans-Serif" font-size="10.00">/graph_theory.hpp</text>
</a>
</g>
</g>
<!-- Node2&#45;&gt;Node3 -->
<g id="edge2" class="edge">
<title>Node2&#45;&gt;Node3</title>
<path fill="none" stroke="midnightblue" d="M563.47,-266.19C517.45,-255.54 457.98,-241.78 414,-231.61"/>
<polygon fill="midnightblue" stroke="midnightblue" points="562.84,-269.63 573.37,-268.48 564.42,-262.81 562.84,-269.63"/>
</g>
<!-- Node2&#45;&gt;Node5 -->
<g id="edge12" class="edge">
<title>Node2&#45;&gt;Node5</title>
<path fill="none" stroke="midnightblue" d="M643.67,-258.73C653.01,-235.19 667.15,-198 677,-165 683.94,-141.75 689.91,-114.15 693.22,-97.77"/>
<polygon fill="midnightblue" stroke="midnightblue" points="640.34,-257.63 639.87,-268.22 646.84,-260.24 640.34,-257.63"/>
</g>
<!-- Node4 -->
<g id="node4" class="node">
<title>Node4</title>
<g id="a_node4"><a xlink:href="2sat_8hpp.html" target="_top" xlink:title=" ">
<polygon fill="white" stroke="black" points="0,-134.5 0,-164.5 144,-164.5 144,-134.5 0,-134.5"/>
<text text-anchor="start" x="8" y="-152.5" font-family="Helvetica,sans-Serif" font-size="10.00">/home/ram/OmniTemplate</text>
<text text-anchor="middle" x="72" y="-141.5" font-family="Helvetica,sans-Serif" font-size="10.00">/2sat.hpp</text>
</a>
</g>
</g>
<!-- Node3&#45;&gt;Node4 -->
<g id="edge3" class="edge">
<title>Node3&#45;&gt;Node4</title>
<path fill="none" stroke="midnightblue" d="M282.47,-199.19C236.45,-188.54 176.98,-174.78 133,-164.61"/>
<polygon fill="midnightblue" stroke="midnightblue" points="281.84,-202.63 292.37,-201.48 283.42,-195.81 281.84,-202.63"/>
</g>
<!-- Node3&#45;&gt;Node5 -->
<g id="edge11" class="edge">
<title>Node3&#45;&gt;Node5</title>
<path fill="none" stroke="midnightblue" d="M270.74,-201.91C216.39,-189.49 160.37,-167.84 191,-134 219.49,-102.52 491.36,-89.82 623.97,-85.46"/>
<polygon fill="midnightblue" stroke="midnightblue" points="270.33,-205.4 280.85,-204.12 271.82,-198.56 270.33,-205.4"/>
</g>
<!-- Node8 -->
<g id="node8" class="node">
<title>Node8</title>
<g id="a_node8"><a xlink:href="d_8cpp.html" target="_top" xlink:title=" ">
<polygon fill="white" stroke="black" points="200,-134.5 200,-164.5 344,-164.5 344,-134.5 200,-134.5"/>
<text text-anchor="start" x="208" y="-152.5" font-family="Helvetica,sans-Serif" font-size="10.00">/home/ram/OmniTemplate</text>
<text text-anchor="middle" x="272" y="-141.5" font-family="Helvetica,sans-Serif" font-size="10.00">/d.cpp</text>
</a>
</g>
</g>
<!-- Node3&#45;&gt;Node8 -->
<g id="edge7" class="edge">
<title>Node3&#45;&gt;Node8</title>
<path fill="none" stroke="midnightblue" d="M327.31,-194.88C315,-185.01 300.57,-173.43 289.54,-164.58"/>
<polygon fill="midnightblue" stroke="midnightblue" points="325.43,-197.87 335.42,-201.4 329.82,-192.41 325.43,-197.87"/>
</g>
<!-- Node9 -->
<g id="node9" class="node">
<title>Node9</title>
<g id="a_node9"><a xlink:href="flow_8cpp.html" target="_top" xlink:title=" ">
<polygon fill="white" stroke="black" points="362,-134.5 362,-164.5 506,-164.5 506,-134.5 362,-134.5"/>
<text text-anchor="start" x="370" y="-152.5" font-family="Helvetica,sans-Serif" font-size="10.00">/home/ram/OmniTemplate</text>
<text text-anchor="middle" x="434" y="-141.5" font-family="Helvetica,sans-Serif" font-size="10.00">/flow.cpp</text>
</a>
</g>
</g>
<!-- Node3&#45;&gt;Node9 -->
<g id="edge8" class="edge">
<title>Node3&#45;&gt;Node9</title>
<path fill="none" stroke="midnightblue" d="M378.69,-194.88C391,-185.01 405.43,-173.43 416.46,-164.58"/>
<polygon fill="midnightblue" stroke="midnightblue" points="376.18,-192.41 370.58,-201.4 380.57,-197.87 376.18,-192.41"/>
</g>
<!-- Node10 -->
<g id="node10" class="node">
<title>Node10</title>
<g id="a_node10"><a xlink:href="hld_8hpp.html" target="_top" xlink:title=" ">
<polygon fill="white" stroke="black" points="524,-134.5 524,-164.5 668,-164.5 668,-134.5 524,-134.5"/>
<text text-anchor="start" x="532" y="-152.5" font-family="Helvetica,sans-Serif" font-size="10.00">/home/ram/OmniTemplate</text>
<text text-anchor="middle" x="596" y="-141.5" font-family="Helvetica,sans-Serif" font-size="10.00">/hld.hpp</text>
</a>
</g>
</g>
<!-- Node3&#45;&gt;Node10 -->
<g id="edge9" class="edge">
<title>Node3&#45;&gt;Node10</title>
<path fill="none" stroke="midnightblue" d="M415.25,-198.85C454.86,-188.25 505.61,-174.68 543.25,-164.61"/>
<polygon fill="midnightblue" stroke="midnightblue" points="414.18,-195.51 405.43,-201.48 415.99,-202.27 414.18,-195.51"/>
</g>
<!-- Node4&#45;&gt;Node5 -->
<g id="edge4" class="edge">
<title>Node4&#45;&gt;Node5</title>
<path fill="none" stroke="midnightblue" d="M154.17,-134.51C155.46,-134.34 156.73,-134.17 158,-134 324.04,-112.24 520.09,-96.27 623.58,-88.6"/>
<polygon fill="midnightblue" stroke="midnightblue" points="153.61,-131.06 144.2,-135.93 154.6,-137.99 153.61,-131.06"/>
</g>
<!-- Node6 -->
<g id="node6" class="node">
<title>Node6</title>
<g id="a_node6"><a xlink:href="program_8cpp.html" target="_top" xlink:title=" ">
<polygon fill="white" stroke="black" points="543,-0.5 543,-30.5 687,-30.5 687,-0.5 543,-0.5"/>
<text text-anchor="start" x="551" y="-18.5" font-family="Helvetica,sans-Serif" font-size="10.00">/home/ram/OmniTemplate</text>
<text text-anchor="middle" x="615" y="-7.5" font-family="Helvetica,sans-Serif" font-size="10.00">/program.cpp</text>
</a>
</g>
</g>
<!-- Node5&#45;&gt;Node6 -->
<g id="edge5" class="edge">
<title>Node5&#45;&gt;Node6</title>
<path fill="none" stroke="midnightblue" d="M670.31,-60.88C658,-51.01 643.57,-39.43 632.54,-30.58"/>
<polygon fill="midnightblue" stroke="midnightblue" points="668.43,-63.87 678.42,-67.4 672.82,-58.41 668.43,-63.87"/>
</g>
<!-- Node7 -->
<g id="node7" class="node">
<title>Node7</title>
<g id="a_node7"><a xlink:href="test_8cpp.html" target="_top" xlink:title=" ">
<polygon fill="white" stroke="black" points="705,-0.5 705,-30.5 849,-30.5 849,-0.5 705,-0.5"/>
<text text-anchor="start" x="713" y="-18.5" font-family="Helvetica,sans-Serif" font-size="10.00">/home/ram/OmniTemplate</text>
<text text-anchor="middle" x="777" y="-7.5" font-family="Helvetica,sans-Serif" font-size="10.00">/test.cpp</text>
</a>
</g>
</g>
<!-- Node5&#45;&gt;Node7 -->
<g id="edge6" class="edge">
<title>Node5&#45;&gt;Node7</title>
<path fill="none" stroke="midnightblue" d="M721.69,-60.88C734,-51.01 748.43,-39.43 759.46,-30.58"/>
<polygon fill="midnightblue" stroke="midnightblue" points="719.18,-58.41 713.58,-67.4 723.57,-63.87 719.18,-58.41"/>
</g>
<!-- Node10&#45;&gt;Node5 -->
<g id="edge10" class="edge">
<title>Node10&#45;&gt;Node5</title>
<path fill="none" stroke="midnightblue" d="M626.41,-128.73C641.88,-118.68 660.33,-106.68 674.34,-97.58"/>
<polygon fill="midnightblue" stroke="midnightblue" points="624.18,-126.01 617.7,-134.4 627.99,-131.88 624.18,-126.01"/>
</g>
<!-- Node11&#45;&gt;Node5 -->
<g id="edge14" class="edge">
<title>Node11&#45;&gt;Node5</title>
<path fill="none" stroke="midnightblue" d="M811.78,-194.25C783.34,-167.04 734.87,-120.68 710.66,-97.52"/>
<polygon fill="midnightblue" stroke="midnightblue" points="809.59,-196.99 819.23,-201.37 814.42,-191.93 809.59,-196.99"/>
</g>
<!-- Node12&#45;&gt;Node5 -->
<g id="edge16" class="edge">
<title>Node12&#45;&gt;Node5</title>
<path fill="none" stroke="midnightblue" d="M923.09,-258.42C925.4,-241.14 925.61,-218.01 915,-201 879.67,-144.34 807.03,-113.25 755.09,-97.51"/>
<polygon fill="midnightblue" stroke="midnightblue" points="919.64,-257.87 921.46,-268.31 926.54,-259.01 919.64,-257.87"/>
</g>
</g>
</svg>
