<?xml version="1.0" encoding="UTF-8" standalone="no"?>
<!DOCTYPE svg PUBLIC "-//W3C//DTD SVG 1.1//EN"
 "http://www.w3.org/Graphics/SVG/1.1/DTD/svg11.dtd">
<!-- Generated by graphviz version 2.43.0 (0)
 -->
<!-- Title: invert Pages: 1 -->
<!--zoomable 358 -->
<svg id="main" version="1.1" xmlns="http://www.w3.org/2000/svg" xmlns:xlink="http://www.w3.org/1999/xlink" xml:space="preserve" onload="init(evt)">
<style type="text/css"><![CDATA[
.edge:hover path { stroke: red; }
.edge:hover polygon { stroke: red; fill: red; }
]]></style>
<script type="text/javascript"><![CDATA[
var edges = document.getElementsByTagName('g');
if (edges && edges.length) {
  for (var i=0;i<edges.length;i++) {
    if (edges[i].id.substr(0,4)=='edge') {
      edges[i].setAttribute('class','edge');
    }
  }
}
]]></script>
        <defs>
                <circle id="rim" cx="0" cy="0" r="7"/>
                <circle id="rim2" cx="0" cy="0" r="3.5"/>
                <g id="zoomPlus">
                        <use xlink:href="#rim" fill="#404040">
                                <set attributeName="fill" to="#808080" begin="zoomplus.mouseover" end="zoomplus.mouseout"/>
                        </use>
                        <path d="M-4,0h8M0,-4v8" fill="none" stroke="white" stroke-width="1.5" pointer-events="none"/>
                </g>
                <g id="zoomMin">
                        <use xlink:href="#rim" fill="#404040">
                                <set attributeName="fill" to="#808080" begin="zoomminus.mouseover" end="zoomminus.mouseout"/>
                        </use>
                        <path d="M-4,0h8" fill="none" stroke="white" stroke-width="1.5" pointer-events="none"/>
                </g>
                <g id="dirArrow">
                        <path fill="none" stroke="white" stroke-width="1.5" d="M0,-3.0v7 M-2.5,-0.5L0,-3.0L2.5,-0.5"/>
                </g>
               <g id="resetDef">
                       <use xlink:href="#rim2" fill="#404040">
                               <set attributeName="fill" to="#808080" begin="reset.mouseover" end="reset.mouseout"/>
                       </use>
               </g>
        </defs>

<script type="text/javascript">
var viewWidth = 1377;
var viewHeight = 358;
var sectionId = 'dynsection-4';
</script>
<script xlink:href="svgpan.js"/>
<svg id="graph" class="graph">
<g id="viewport">
<title>invert</title>
<polygon fill="white" stroke="transparent" points="-4,4 -4,-353.92 1373,-353.92 1373,4 -4,4"/>
<!-- Node1 -->
<g id="node1" class="node">
<title>Node1</title>
<g id="a_node1"><a xlink:title=" ">
<polygon fill="#bfbfbf" stroke="black" points="1324,-126.5 1324,-145.5 1369,-145.5 1369,-126.5 1324,-126.5"/>
<text text-anchor="middle" x="1346.5" y="-133.5" font-family="Helvetica,sans-Serif" font-size="10.00">invert</text>
</a>
</g>
</g>
<!-- Node2 -->
<g id="node2" class="node">
<title>Node2</title>
<g id="a_node2"><a xlink:href="namespacemodulo__namespace.html#a8e6fc91a032b336ea0bbed9eabf54f69" target="_top" xlink:title="Returns .">
<polygon fill="white" stroke="black" points="1137,-126.5 1137,-145.5 1288,-145.5 1288,-126.5 1137,-126.5"/>
<text text-anchor="middle" x="1212.5" y="-133.5" font-family="Helvetica,sans-Serif" font-size="10.00">modulo_namespace::power</text>
</a>
</g>
</g>
<!-- Node1&#45;&gt;Node2 -->
<g id="edge1" class="edge">
<title>Node1&#45;&gt;Node2</title>
<path fill="none" stroke="midnightblue" d="M1313.85,-130.14C1305.95,-129.69 1297.14,-129.41 1288.11,-129.3"/>
<polygon fill="midnightblue" stroke="midnightblue" points="1313.78,-133.64 1324,-130.86 1314.27,-126.66 1313.78,-133.64"/>
</g>
<!-- Node2&#45;&gt;Node1 -->
<g id="edge8" class="edge">
<title>Node2&#45;&gt;Node1</title>
<path fill="none" stroke="midnightblue" d="M1298.14,-142.5C1307.61,-142.25 1316.52,-141.79 1324,-141.14"/>
<polygon fill="midnightblue" stroke="midnightblue" points="1298.04,-139.01 1288.11,-142.7 1298.17,-146 1298.04,-139.01"/>
</g>
<!-- Node3 -->
<g id="node3" class="node">
<title>Node3</title>
<g id="a_node3"><a xlink:href="number__theory_8hpp.html#a67527905c2b2c027c8b458902db2d05a" target="_top" xlink:title="Finds x such that a^x = b (mod M) using baby&#45;step giant&#45;step algorithm. a and M must be coprime.">
<polygon fill="white" stroke="black" points="627,-164.5 627,-183.5 665,-183.5 665,-164.5 627,-164.5"/>
<text text-anchor="middle" x="646" y="-171.5" font-family="Helvetica,sans-Serif" font-size="10.00">dlog</text>
</a>
</g>
</g>
<!-- Node2&#45;&gt;Node3 -->
<g id="edge2" class="edge">
<title>Node2&#45;&gt;Node3</title>
<path fill="none" stroke="midnightblue" d="M1132.53,-146.72C1121.94,-147.95 1111.22,-149.08 1101,-150 931.98,-165.15 726.64,-171.78 665.2,-173.52"/>
<polygon fill="midnightblue" stroke="midnightblue" points="1133.1,-150.18 1142.62,-145.52 1132.28,-143.22 1133.1,-150.18"/>
</g>
<!-- Node4 -->
<g id="node4" class="node">
<title>Node4</title>
<g id="a_node4"><a xlink:href="number__theory_8hpp.html#a7aac53ce82614d79c7098a1de32ed1e7" target="_top" xlink:title=" ">
<polygon fill="white" stroke="black" points="452.5,-164.5 452.5,-183.5 514.5,-183.5 514.5,-164.5 452.5,-164.5"/>
<text text-anchor="middle" x="483.5" y="-171.5" font-family="Helvetica,sans-Serif" font-size="10.00">test_dlog</text>
</a>
</g>
</g>
<!-- Node2&#45;&gt;Node4 -->
<g id="edge28" class="edge">
<title>Node2&#45;&gt;Node4</title>
<path fill="none" stroke="midnightblue" d="M1126.71,-136C1058.34,-136 959.73,-136 873.5,-136 873.5,-136 873.5,-136 752,-136 665.22,-136 564.17,-155.84 514.79,-166.85"/>
<polygon fill="midnightblue" stroke="midnightblue" points="1126.99,-139.5 1136.99,-136 1126.99,-132.5 1126.99,-139.5"/>
</g>
<!-- Node9 -->
<g id="node9" class="node">
<title>Node9</title>
<g id="a_node9"><a xlink:href="namespacelinear__algebra.html#ad80debbf481bb22b5347633cd83e2c77" target="_top" xlink:title=" ">
<polygon fill="white" stroke="black" points="980.5,-77 980.5,-107 1084.5,-107 1084.5,-77 980.5,-77"/>
<text text-anchor="start" x="988.5" y="-95" font-family="Helvetica,sans-Serif" font-size="10.00">linear_algebra::lin</text>
<text text-anchor="middle" x="1032.5" y="-84" font-family="Helvetica,sans-Serif" font-size="10.00">_recur</text>
</a>
</g>
</g>
<!-- Node2&#45;&gt;Node9 -->
<g id="edge9" class="edge">
<title>Node2&#45;&gt;Node9</title>
<path fill="none" stroke="midnightblue" d="M1163.13,-124.04C1138.78,-118.03 1109.27,-110.73 1084.55,-104.62"/>
<polygon fill="midnightblue" stroke="midnightblue" points="1162.33,-127.45 1172.88,-126.45 1164.01,-120.66 1162.33,-127.45"/>
</g>
<!-- Node12 -->
<g id="node12" class="node">
<title>Node12</title>
<g id="a_node12"><a xlink:href="number__theory_8hpp.html#a02e886c6eb18cd3b8894ea2ba9ca9784" target="_top" xlink:title="Return whether integer n &gt;= 2 is prime.">
<polygon fill="white" stroke="black" points="1010,-202.5 1010,-221.5 1055,-221.5 1055,-202.5 1010,-202.5"/>
<text text-anchor="middle" x="1032.5" y="-209.5" font-family="Helvetica,sans-Serif" font-size="10.00">prime</text>
</a>
</g>
</g>
<!-- Node2&#45;&gt;Node12 -->
<g id="edge13" class="edge">
<title>Node2&#45;&gt;Node12</title>
<path fill="none" stroke="midnightblue" d="M1183.44,-150.14C1161.31,-161.07 1129.52,-176.25 1101,-188 1085.93,-194.21 1068.61,-200.34 1055.29,-204.86"/>
<polygon fill="midnightblue" stroke="midnightblue" points="1185.19,-153.18 1192.59,-145.6 1182.08,-146.91 1185.19,-153.18"/>
</g>
<!-- Node14 -->
<g id="node14" class="node">
<title>Node14</title>
<g id="a_node14"><a xlink:href="number__theory_8hpp.html#a6542b189f3759f43899a8b1978d58e2c" target="_top" xlink:title="Returns a primitive root modulo M.">
<polygon fill="white" stroke="black" points="603,-278.5 603,-297.5 689,-297.5 689,-278.5 603,-278.5"/>
<text text-anchor="middle" x="646" y="-285.5" font-family="Helvetica,sans-Serif" font-size="10.00">primitive_root</text>
</a>
</g>
</g>
<!-- Node2&#45;&gt;Node14 -->
<g id="edge27" class="edge">
<title>Node2&#45;&gt;Node14</title>
<path fill="none" stroke="midnightblue" d="M1195.51,-153.18C1175.26,-174.08 1138.47,-209.24 1101,-231 970.44,-306.83 929.77,-319.29 781,-345 756.47,-349.24 748.66,-352.72 725,-345 696.3,-335.63 669.4,-311.26 655.95,-297.61"/>
<polygon fill="midnightblue" stroke="midnightblue" points="1198.3,-155.33 1202.66,-145.68 1193.23,-150.5 1198.3,-155.33"/>
</g>
<!-- Node20 -->
<g id="node20" class="node">
<title>Node20</title>
<g id="a_node20"><a xlink:href="modulo_8hpp.html#af63abc641089d55f193ed28ed00f7eaa" target="_top" xlink:title=" ">
<polygon fill="white" stroke="black" points="997,-38.5 997,-57.5 1068,-57.5 1068,-38.5 997,-38.5"/>
<text text-anchor="middle" x="1032.5" y="-45.5" font-family="Helvetica,sans-Serif" font-size="10.00">test_power</text>
</a>
</g>
</g>
<!-- Node2&#45;&gt;Node20 -->
<g id="edge29" class="edge">
<title>Node2&#45;&gt;Node20</title>
<path fill="none" stroke="midnightblue" d="M1190.55,-120.38C1169.04,-104.96 1134.12,-81.64 1101,-67 1090.64,-62.42 1078.91,-58.66 1068.15,-55.73"/>
<polygon fill="midnightblue" stroke="midnightblue" points="1188.76,-123.4 1198.9,-126.45 1192.87,-117.74 1188.76,-123.4"/>
</g>
<!-- Node22 -->
<g id="node22" class="node">
<title>Node22</title>
<g id="a_node22"><a xlink:href="namespacepermutation.html#a90736a636d503ca5341c3acc87cdb45f" target="_top" xlink:title=" ">
<polygon fill="white" stroke="black" points="964,-0.5 964,-19.5 1101,-19.5 1101,-0.5 964,-0.5"/>
<text text-anchor="middle" x="1032.5" y="-7.5" font-family="Helvetica,sans-Serif" font-size="10.00">permutation::test_power</text>
</a>
</g>
</g>
<!-- Node2&#45;&gt;Node22 -->
<g id="edge32" class="edge">
<title>Node2&#45;&gt;Node22</title>
<path fill="none" stroke="midnightblue" d="M1197.96,-118.23C1178.89,-94.43 1141.85,-52.49 1101,-29 1094.35,-25.18 1086.89,-22.08 1079.41,-19.6"/>
<polygon fill="midnightblue" stroke="midnightblue" points="1195.43,-120.68 1204.36,-126.39 1200.94,-116.36 1195.43,-120.68"/>
</g>
<!-- Node3&#45;&gt;Node4 -->
<g id="edge3" class="edge">
<title>Node3&#45;&gt;Node4</title>
<path fill="none" stroke="midnightblue" d="M616.73,-174C588.06,-174 543.83,-174 514.54,-174"/>
<polygon fill="midnightblue" stroke="midnightblue" points="616.9,-177.5 626.9,-174 616.9,-170.5 616.9,-177.5"/>
</g>
<!-- Node5 -->
<g id="node5" class="node">
<title>Node5</title>
<g id="a_node5"><a xlink:href="number__theory_8hpp.html#aed36f6b8b9706133e9b5302b1618e9ef" target="_top" xlink:title=" ">
<polygon fill="white" stroke="black" points="249,-221.5 249,-240.5 364,-240.5 364,-221.5 249,-221.5"/>
<text text-anchor="middle" x="306.5" y="-228.5" font-family="Helvetica,sans-Serif" font-size="10.00">test_number_theory</text>
</a>
</g>
</g>
<!-- Node4&#45;&gt;Node5 -->
<g id="edge4" class="edge">
<title>Node4&#45;&gt;Node5</title>
<path fill="none" stroke="midnightblue" d="M442.25,-185.19C428.76,-189.08 413.68,-193.57 400,-198 377.13,-205.4 351.39,-214.66 332.88,-221.48"/>
<polygon fill="midnightblue" stroke="midnightblue" points="443.54,-188.46 452.2,-182.35 441.62,-181.73 443.54,-188.46"/>
</g>
<!-- Node6 -->
<g id="node6" class="node">
<title>Node6</title>
<g id="a_node6"><a xlink:href="test_8cpp.html#aa1c715cac916839a95e25b65b4071c4a" target="_top" xlink:title=" ">
<polygon fill="white" stroke="black" points="160,-60.5 160,-79.5 213,-79.5 213,-60.5 160,-60.5"/>
<text text-anchor="middle" x="186.5" y="-67.5" font-family="Helvetica,sans-Serif" font-size="10.00">test_all</text>
</a>
</g>
</g>
<!-- Node5&#45;&gt;Node6 -->
<g id="edge5" class="edge">
<title>Node5&#45;&gt;Node6</title>
<path fill="none" stroke="midnightblue" d="M292.54,-213.32C267.67,-179.38 213.99,-106.15 194.64,-79.74"/>
<polygon fill="midnightblue" stroke="midnightblue" points="289.74,-215.41 298.47,-221.41 295.38,-211.28 289.74,-215.41"/>
</g>
<!-- Node7 -->
<g id="node7" class="node">
<title>Node7</title>
<g id="a_node7"><a xlink:href="test_8cpp.html#af095a232149097b5605064623a9345ac" target="_top" xlink:title=" ">
<polygon fill="white" stroke="black" points="77,-60.5 77,-79.5 124,-79.5 124,-60.5 77,-60.5"/>
<text text-anchor="middle" x="100.5" y="-67.5" font-family="Helvetica,sans-Serif" font-size="10.00">main2</text>
</a>
</g>
</g>
<!-- Node6&#45;&gt;Node7 -->
<g id="edge6" class="edge">
<title>Node6&#45;&gt;Node7</title>
<path fill="none" stroke="midnightblue" d="M149.59,-70C140.96,-70 131.99,-70 124.16,-70"/>
<polygon fill="midnightblue" stroke="midnightblue" points="149.84,-73.5 159.84,-70 149.84,-66.5 149.84,-73.5"/>
</g>
<!-- Node8 -->
<g id="node8" class="node">
<title>Node8</title>
<g id="a_node8"><a xlink:href="main_8hpp.html#a0ddf1224851353fc92bfbff6f499fa97" target="_top" xlink:title=" ">
<polygon fill="white" stroke="black" points="0,-60.5 0,-79.5 41,-79.5 41,-60.5 0,-60.5"/>
<text text-anchor="middle" x="20.5" y="-67.5" font-family="Helvetica,sans-Serif" font-size="10.00">main</text>
</a>
</g>
</g>
<!-- Node7&#45;&gt;Node8 -->
<g id="edge7" class="edge">
<title>Node7&#45;&gt;Node8</title>
<path fill="none" stroke="midnightblue" d="M66.66,-70C57.96,-70 48.84,-70 41.1,-70"/>
<polygon fill="midnightblue" stroke="midnightblue" points="66.94,-73.5 76.94,-70 66.94,-66.5 66.94,-73.5"/>
</g>
<!-- Node10 -->
<g id="node10" class="node">
<title>Node10</title>
<g id="a_node10"><a xlink:href="namespacelinear__algebra.html#ae1cd9afafb1f7ca00e88e73d262c0704" target="_top" xlink:title=" ">
<polygon fill="white" stroke="black" points="817,-77 817,-107 928,-107 928,-77 817,-77"/>
<text text-anchor="start" x="825" y="-95" font-family="Helvetica,sans-Serif" font-size="10.00">linear_algebra::test</text>
<text text-anchor="middle" x="872.5" y="-84" font-family="Helvetica,sans-Serif" font-size="10.00">_lin_recur</text>
</a>
</g>
</g>
<!-- Node9&#45;&gt;Node10 -->
<g id="edge10" class="edge">
<title>Node9&#45;&gt;Node10</title>
<path fill="none" stroke="midnightblue" d="M969.84,-92C956.06,-92 941.55,-92 928.08,-92"/>
<polygon fill="midnightblue" stroke="midnightblue" points="970.2,-95.5 980.2,-92 970.2,-88.5 970.2,-95.5"/>
</g>
<!-- Node11 -->
<g id="node11" class="node">
<title>Node11</title>
<g id="a_node11"><a xlink:href="namespacelinear__algebra.html#ad92ef518c8439f84b4414ff16ec2cdcc" target="_top" xlink:title=" ">
<polygon fill="white" stroke="black" points="251,-77 251,-107 362,-107 362,-77 251,-77"/>
<text text-anchor="start" x="259" y="-95" font-family="Helvetica,sans-Serif" font-size="10.00">linear_algebra::test</text>
<text text-anchor="middle" x="306.5" y="-84" font-family="Helvetica,sans-Serif" font-size="10.00">_linear_algebra</text>
</a>
</g>
</g>
<!-- Node10&#45;&gt;Node11 -->
<g id="edge11" class="edge">
<title>Node10&#45;&gt;Node11</title>
<path fill="none" stroke="midnightblue" d="M806.76,-92C694.73,-92 466.7,-92 362.12,-92"/>
<polygon fill="midnightblue" stroke="midnightblue" points="806.91,-95.5 816.91,-92 806.91,-88.5 806.91,-95.5"/>
</g>
<!-- Node11&#45;&gt;Node6 -->
<g id="edge12" class="edge">
<title>Node11&#45;&gt;Node6</title>
<path fill="none" stroke="midnightblue" d="M241.1,-79.99C231.24,-78.15 221.58,-76.35 213.24,-74.8"/>
<polygon fill="midnightblue" stroke="midnightblue" points="240.52,-83.44 250.99,-81.84 241.8,-76.56 240.52,-83.44"/>
</g>
<!-- Node13 -->
<g id="node13" class="node">
<title>Node13</title>
<g id="a_node13"><a xlink:href="number__theory_8hpp.html#a8119b9949ade11ba2f554e41cc0830df" target="_top" xlink:title="Returns the factorization of n.">
<polygon fill="white" stroke="black" points="856.5,-259.5 856.5,-278.5 888.5,-278.5 888.5,-259.5 856.5,-259.5"/>
<text text-anchor="middle" x="872.5" y="-266.5" font-family="Helvetica,sans-Serif" font-size="10.00">fac</text>
</a>
</g>
</g>
<!-- Node12&#45;&gt;Node13 -->
<g id="edge14" class="edge">
<title>Node12&#45;&gt;Node13</title>
<path fill="none" stroke="midnightblue" d="M1000.05,-223.35C966.35,-235.5 914.29,-254.29 888.72,-263.51"/>
<polygon fill="midnightblue" stroke="midnightblue" points="1001.64,-226.49 1009.86,-219.81 999.27,-219.91 1001.64,-226.49"/>
</g>
<!-- Node19 -->
<g id="node19" class="node">
<title>Node19</title>
<g id="a_node19"><a xlink:href="number__theory_8hpp.html#a87d7c3ba2489977a16ec40544a918e00" target="_top" xlink:title=" ">
<polygon fill="white" stroke="black" points="838,-202.5 838,-221.5 907,-221.5 907,-202.5 838,-202.5"/>
<text text-anchor="middle" x="872.5" y="-209.5" font-family="Helvetica,sans-Serif" font-size="10.00">test_prime</text>
</a>
</g>
</g>
<!-- Node12&#45;&gt;Node19 -->
<g id="edge25" class="edge">
<title>Node12&#45;&gt;Node19</title>
<path fill="none" stroke="midnightblue" d="M999.81,-212C972.91,-212 934.41,-212 907,-212"/>
<polygon fill="midnightblue" stroke="midnightblue" points="999.86,-215.5 1009.86,-212 999.86,-208.5 999.86,-215.5"/>
</g>
<!-- Node13&#45;&gt;Node14 -->
<g id="edge15" class="edge">
<title>Node13&#45;&gt;Node14</title>
<path fill="none" stroke="midnightblue" d="M846.21,-271.14C808.13,-274.36 735.61,-280.5 689.37,-284.41"/>
<polygon fill="midnightblue" stroke="midnightblue" points="846.75,-274.61 856.42,-270.28 846.16,-267.63 846.75,-274.61"/>
</g>
<!-- Node16 -->
<g id="node16" class="node">
<title>Node16</title>
<g id="a_node16"><a xlink:href="number__theory_8hpp.html#afcfd3b1e3415393029bc6a496d825459" target="_top" xlink:title=" ">
<polygon fill="white" stroke="black" points="725,-316.5 725,-335.5 781,-335.5 781,-316.5 725,-316.5"/>
<text text-anchor="middle" x="753" y="-323.5" font-family="Helvetica,sans-Serif" font-size="10.00">test_fac</text>
</a>
</g>
</g>
<!-- Node13&#45;&gt;Node16 -->
<g id="edge18" class="edge">
<title>Node13&#45;&gt;Node16</title>
<path fill="none" stroke="midnightblue" d="M846.89,-280.94C825.13,-291.49 793.8,-306.69 773.68,-316.46"/>
<polygon fill="midnightblue" stroke="midnightblue" points="848.67,-283.97 856.14,-276.45 845.61,-277.67 848.67,-283.97"/>
</g>
<!-- Node17 -->
<g id="node17" class="node">
<title>Node17</title>
<g id="a_node17"><a xlink:href="number__theory_8hpp.html#af0753ff92c84e6924e1fd6461e77b16f" target="_top" xlink:title="Returns the totient of the integer n.">
<polygon fill="white" stroke="black" points="728.5,-240.5 728.5,-259.5 777.5,-259.5 777.5,-240.5 728.5,-240.5"/>
<text text-anchor="middle" x="753" y="-247.5" font-family="Helvetica,sans-Serif" font-size="10.00">totient</text>
</a>
</g>
</g>
<!-- Node13&#45;&gt;Node17 -->
<g id="edge20" class="edge">
<title>Node13&#45;&gt;Node17</title>
<path fill="none" stroke="midnightblue" d="M846.09,-264.89C825.86,-261.62 797.75,-257.07 777.92,-253.87"/>
<polygon fill="midnightblue" stroke="midnightblue" points="845.71,-268.37 856.14,-266.52 846.83,-261.46 845.71,-268.37"/>
</g>
<!-- Node15 -->
<g id="node15" class="node">
<title>Node15</title>
<g id="a_node15"><a xlink:href="number__theory_8hpp.html#a0ff115471f41e78245b5dc48eaf8032f" target="_top" xlink:title=" ">
<polygon fill="white" stroke="black" points="428.5,-278.5 428.5,-297.5 538.5,-297.5 538.5,-278.5 428.5,-278.5"/>
<text text-anchor="middle" x="483.5" y="-285.5" font-family="Helvetica,sans-Serif" font-size="10.00">test_primitive_root</text>
</a>
</g>
</g>
<!-- Node14&#45;&gt;Node15 -->
<g id="edge16" class="edge">
<title>Node14&#45;&gt;Node15</title>
<path fill="none" stroke="midnightblue" d="M592.41,-288C575.22,-288 556.1,-288 538.79,-288"/>
<polygon fill="midnightblue" stroke="midnightblue" points="592.83,-291.5 602.83,-288 592.83,-284.5 592.83,-291.5"/>
</g>
<!-- Node15&#45;&gt;Node5 -->
<g id="edge17" class="edge">
<title>Node15&#45;&gt;Node5</title>
<path fill="none" stroke="midnightblue" d="M438.16,-275.63C425.77,-272.03 412.32,-267.99 400,-264 377.13,-256.6 351.39,-247.34 332.88,-240.52"/>
<polygon fill="midnightblue" stroke="midnightblue" points="437.26,-279.01 447.84,-278.41 439.2,-272.28 437.26,-279.01"/>
</g>
<!-- Node16&#45;&gt;Node5 -->
<g id="edge19" class="edge">
<title>Node16&#45;&gt;Node5</title>
<path fill="none" stroke="midnightblue" d="M714.83,-331.34C648.84,-339.26 508.02,-349 400,-307 363.19,-292.69 330.07,-257.76 315.44,-240.7"/>
<polygon fill="midnightblue" stroke="midnightblue" points="715.27,-334.82 724.76,-330.1 714.4,-327.87 715.27,-334.82"/>
</g>
<!-- Node17&#45;&gt;Node3 -->
<g id="edge21" class="edge">
<title>Node17&#45;&gt;Node3</title>
<path fill="none" stroke="midnightblue" d="M730.36,-234.33C709.24,-219.05 677.81,-196.3 660.19,-183.55"/>
<polygon fill="midnightblue" stroke="midnightblue" points="728.55,-237.35 738.7,-240.37 732.65,-231.68 728.55,-237.35"/>
</g>
<!-- Node17&#45;&gt;Node14 -->
<g id="edge22" class="edge">
<title>Node17&#45;&gt;Node14</title>
<path fill="none" stroke="midnightblue" d="M718.75,-262.03C704.12,-267.33 687.18,-273.46 673.44,-278.43"/>
<polygon fill="midnightblue" stroke="midnightblue" points="720.22,-265.22 728.44,-258.53 717.84,-258.64 720.22,-265.22"/>
</g>
<!-- Node18 -->
<g id="node18" class="node">
<title>Node18</title>
<g id="a_node18"><a xlink:href="number__theory_8hpp.html#a8ae320acad5e35d58ca5ad7adc6ddd78" target="_top" xlink:title=" ">
<polygon fill="white" stroke="black" points="609.5,-240.5 609.5,-259.5 682.5,-259.5 682.5,-240.5 609.5,-240.5"/>
<text text-anchor="middle" x="646" y="-247.5" font-family="Helvetica,sans-Serif" font-size="10.00">test_totient</text>
</a>
</g>
</g>
<!-- Node17&#45;&gt;Node18 -->
<g id="edge23" class="edge">
<title>Node17&#45;&gt;Node18</title>
<path fill="none" stroke="midnightblue" d="M718.12,-250C706.85,-250 694.27,-250 682.86,-250"/>
<polygon fill="midnightblue" stroke="midnightblue" points="718.44,-253.5 728.44,-250 718.44,-246.5 718.44,-253.5"/>
</g>
<!-- Node18&#45;&gt;Node5 -->
<g id="edge24" class="edge">
<title>Node18&#45;&gt;Node5</title>
<path fill="none" stroke="midnightblue" d="M599.09,-247.42C538.06,-243.98 430.21,-237.91 364.17,-234.19"/>
<polygon fill="midnightblue" stroke="midnightblue" points="599.02,-250.92 609.2,-247.98 599.41,-243.93 599.02,-250.92"/>
</g>
<!-- Node19&#45;&gt;Node5 -->
<g id="edge26" class="edge">
<title>Node19&#45;&gt;Node5</title>
<path fill="none" stroke="midnightblue" d="M827.74,-213.47C726.62,-216.88 476.76,-225.3 364.14,-229.09"/>
<polygon fill="midnightblue" stroke="midnightblue" points="828.03,-216.97 837.91,-213.13 827.8,-209.97 828.03,-216.97"/>
</g>
<!-- Node21 -->
<g id="node21" class="node">
<title>Node21</title>
<g id="a_node21"><a xlink:href="modulo_8hpp.html#ace704e27d561de2f121af8778c37d2d4" target="_top" xlink:title=" ">
<polygon fill="white" stroke="black" points="268,-38.5 268,-57.5 345,-57.5 345,-38.5 268,-38.5"/>
<text text-anchor="middle" x="306.5" y="-45.5" font-family="Helvetica,sans-Serif" font-size="10.00">test_modulo</text>
</a>
</g>
</g>
<!-- Node20&#45;&gt;Node21 -->
<g id="edge30" class="edge">
<title>Node20&#45;&gt;Node21</title>
<path fill="none" stroke="midnightblue" d="M986.81,-48C931.97,-48 836.15,-48 754,-48 754,-48 754,-48 645,-48 536.16,-48 407.58,-48 345.21,-48"/>
<polygon fill="midnightblue" stroke="midnightblue" points="986.89,-51.5 996.89,-48 986.89,-44.5 986.89,-51.5"/>
</g>
<!-- Node21&#45;&gt;Node6 -->
<g id="edge31" class="edge">
<title>Node21&#45;&gt;Node6</title>
<path fill="none" stroke="midnightblue" d="M258,-56.86C242.71,-59.71 226.36,-62.76 213.25,-65.2"/>
<polygon fill="midnightblue" stroke="midnightblue" points="258.65,-60.3 267.84,-55.02 257.37,-53.41 258.65,-60.3"/>
</g>
<!-- Node23 -->
<g id="node23" class="node">
<title>Node23</title>
<g id="a_node23"><a xlink:href="namespacepermutation.html#a62d1bd6c9055805cce7003ed56bd2e89" target="_top" xlink:title=" ">
<polygon fill="white" stroke="black" points="400,-0.5 400,-19.5 567,-19.5 567,-0.5 400,-0.5"/>
<text text-anchor="middle" x="483.5" y="-7.5" font-family="Helvetica,sans-Serif" font-size="10.00">permutation::test_permutation</text>
</a>
</g>
</g>
<!-- Node22&#45;&gt;Node23 -->
<g id="edge33" class="edge">
<title>Node22&#45;&gt;Node23</title>
<path fill="none" stroke="midnightblue" d="M953.6,-10C851.15,-10 671.89,-10 567.13,-10"/>
<polygon fill="midnightblue" stroke="midnightblue" points="953.88,-13.5 963.88,-10 953.88,-6.5 953.88,-13.5"/>
</g>
<!-- Node23&#45;&gt;Node6 -->
<g id="edge34" class="edge">
<title>Node23&#45;&gt;Node6</title>
<path fill="none" stroke="midnightblue" d="M389.85,-6.92C346.07,-8.11 293.73,-13.45 249,-29 229.36,-35.83 209.95,-50.43 198.34,-60.24"/>
<polygon fill="midnightblue" stroke="midnightblue" points="389.99,-10.42 399.92,-6.71 389.85,-3.42 389.99,-10.42"/>
</g>
</g>
</svg>
        <g id="navigator" transform="translate(0 0)" fill="#404254">
                <rect fill="#f2f5e9" fill-opacity="0.5" stroke="#606060" stroke-width=".5" x="0" y="0" width="60" height="60"/>
                <use id="zoomplus" xlink:href="#zoomPlus" x="17" y="9" onmousedown="handleZoom(evt,'in')"/>
                <use id="zoomminus" xlink:href="#zoomMin" x="42" y="9" onmousedown="handleZoom(evt,'out')"/>
                <use id="reset" xlink:href="#resetDef" x="30" y="36" onmousedown="handleReset()"/>
                <g id="arrowUp" xlink:href="#dirArrow" transform="translate(30 24)" onmousedown="handlePan(0,-1)">
                  <use xlink:href="#rim" fill="#404040">
                        <set attributeName="fill" to="#808080" begin="arrowUp.mouseover" end="arrowUp.mouseout"/>
                  </use>
                  <path fill="none" stroke="white" stroke-width="1.5" d="M0,-3.0v7 M-2.5,-0.5L0,-3.0L2.5,-0.5"/>
                </g>
                <g id="arrowRight" xlink:href="#dirArrow" transform="rotate(90) translate(36 -43)" onmousedown="handlePan(1,0)">
                  <use xlink:href="#rim" fill="#404040">
                        <set attributeName="fill" to="#808080" begin="arrowRight.mouseover" end="arrowRight.mouseout"/>
                  </use>
                  <path fill="none" stroke="white" stroke-width="1.5" d="M0,-3.0v7 M-2.5,-0.5L0,-3.0L2.5,-0.5"/>
                </g>
                <g id="arrowDown" xlink:href="#dirArrow" transform="rotate(180) translate(-30 -48)" onmousedown="handlePan(0,1)">
                  <use xlink:href="#rim" fill="#404040">
                        <set attributeName="fill" to="#808080" begin="arrowDown.mouseover" end="arrowDown.mouseout"/>
                  </use>
                  <path fill="none" stroke="white" stroke-width="1.5" d="M0,-3.0v7 M-2.5,-0.5L0,-3.0L2.5,-0.5"/>
                </g>
                <g id="arrowLeft" xlink:href="#dirArrow" transform="rotate(270) translate(-36 17)" onmousedown="handlePan(-1,0)">
                  <use xlink:href="#rim" fill="#404040">
                        <set attributeName="fill" to="#808080" begin="arrowLeft.mouseover" end="arrowLeft.mouseout"/>
                  </use>
                  <path fill="none" stroke="white" stroke-width="1.5" d="M0,-3.0v7 M-2.5,-0.5L0,-3.0L2.5,-0.5"/>
                </g>
        </g>
        <svg viewBox="0 0 15 15" width="100%" height="30px" preserveAspectRatio="xMaxYMin meet">
         <g id="arrow_out" transform="scale(0.3 0.3)">
          <a xlink:href="modulo_8hpp_a1de2201b825244a50237413786f6e970_icgraph_org.svg" target="_base">
           <rect id="button" ry="5" rx="5" y="6" x="6" height="38" width="38"
                fill="#f2f5e9" fill-opacity="0.5" stroke="#606060" stroke-width="1.0"/>
           <path id="arrow"
             d="M 11.500037,31.436501 C 11.940474,20.09759 22.043105,11.32322 32.158766,21.979434 L 37.068811,17.246167 C 37.068811,17.246167 37.088388,32 37.088388,32 L 22.160133,31.978069 C 22.160133,31.978069 26.997745,27.140456 26.997745,27.140456 C 18.528582,18.264221 13.291696,25.230495 11.500037,31.436501 z"
             style="fill:#404040;"/>
          </a>
         </g>
        </svg>
</svg>
