<?xml version="1.0" encoding="UTF-8" standalone="no"?>
<!DOCTYPE svg PUBLIC "-//W3C//DTD SVG 1.1//EN"
 "http://www.w3.org/Graphics/SVG/1.1/DTD/svg11.dtd">
<!-- Generated by graphviz version 2.43.0 (0)
 -->
<!-- Title: /home/ram/OmniTemplate/src/number_theory/modulo.hpp Pages: 1 -->
<!--zoomable 552 -->
<svg id="main" version="1.1" xmlns="http://www.w3.org/2000/svg" xmlns:xlink="http://www.w3.org/1999/xlink" xml:space="preserve" onload="init(evt)">
<style type="text/css"><![CDATA[
.edge:hover path { stroke: red; }
.edge:hover polygon { stroke: red; fill: red; }
]]></style>
<script type="text/javascript"><![CDATA[
var edges = document.getElementsByTagName('g');
if (edges && edges.length) {
  for (var i=0;i<edges.length;i++) {
    if (edges[i].id.substr(0,4)=='edge') {
      edges[i].setAttribute('class','edge');
    }
  }
}
]]></script>
        <defs>
                <circle id="rim" cx="0" cy="0" r="7"/>
                <circle id="rim2" cx="0" cy="0" r="3.5"/>
                <g id="zoomPlus">
                        <use xlink:href="#rim" fill="#404040">
                                <set attributeName="fill" to="#808080" begin="zoomplus.mouseover" end="zoomplus.mouseout"/>
                        </use>
                        <path d="M-4,0h8M0,-4v8" fill="none" stroke="white" stroke-width="1.5" pointer-events="none"/>
                </g>
                <g id="zoomMin">
                        <use xlink:href="#rim" fill="#404040">
                                <set attributeName="fill" to="#808080" begin="zoomminus.mouseover" end="zoomminus.mouseout"/>
                        </use>
                        <path d="M-4,0h8" fill="none" stroke="white" stroke-width="1.5" pointer-events="none"/>
                </g>
                <g id="dirArrow">
                        <path fill="none" stroke="white" stroke-width="1.5" d="M0,-3.0v7 M-2.5,-0.5L0,-3.0L2.5,-0.5"/>
                </g>
               <g id="resetDef">
                       <use xlink:href="#rim2" fill="#404040">
                               <set attributeName="fill" to="#808080" begin="reset.mouseover" end="reset.mouseout"/>
                       </use>
               </g>
        </defs>

<script type="text/javascript">
var viewWidth = 1208;
var viewHeight = 552;
var sectionId = 'dynsection-1';
</script>
<script xlink:href="svgpan.js"/>
<svg id="graph" class="graph">
<g id="viewport">
<title>/home/ram/OmniTemplate/src/number_theory/modulo.hpp</title>
<polygon fill="white" stroke="transparent" points="-4,4 -4,-548 1204.19,-548 1204.19,4 -4,4"/>
<!-- Node1 -->
<g id="node1" class="node">
<title>Node1</title>
<g id="a_node1"><a xlink:title=" ">
<polygon fill="#bfbfbf" stroke="black" points="789.19,-513.5 789.19,-543.5 961.19,-543.5 961.19,-513.5 789.19,-513.5"/>
<text text-anchor="start" x="797.19" y="-531.5" font-family="Helvetica,sans-Serif" font-size="10.00">/home/ram/OmniTemplate</text>
<text text-anchor="middle" x="875.19" y="-520.5" font-family="Helvetica,sans-Serif" font-size="10.00">/src/number_theory/modulo.hpp</text>
</a>
</g>
</g>
<!-- Node2 -->
<g id="node2" class="node">
<title>Node2</title>
<g id="a_node2"><a xlink:href="linear__algebra_8hpp.html" target="_top" xlink:title=" ">
<polygon fill="white" stroke="black" points="494.69,-446.5 494.69,-476.5 661.69,-476.5 661.69,-446.5 494.69,-446.5"/>
<text text-anchor="start" x="502.69" y="-464.5" font-family="Helvetica,sans-Serif" font-size="10.00">/home/ram/OmniTemplate</text>
<text text-anchor="middle" x="578.19" y="-453.5" font-family="Helvetica,sans-Serif" font-size="10.00">/src/algebra/linear_algebra.hpp</text>
</a>
</g>
</g>
<!-- Node1&#45;&gt;Node2 -->
<g id="edge1" class="edge">
<title>Node1&#45;&gt;Node2</title>
<path fill="none" stroke="midnightblue" d="M801.24,-511.32C752.43,-500.63 689.11,-486.77 642.41,-476.55"/>
<polygon fill="midnightblue" stroke="midnightblue" points="800.59,-514.76 811.11,-513.48 802.09,-507.92 800.59,-514.76"/>
</g>
<!-- Node5 -->
<g id="node5" class="node">
<title>Node5</title>
<g id="a_node5"><a xlink:href="template_8hpp.html" target="_top" xlink:title=" ">
<polygon fill="white" stroke="black" points="649.19,-73 649.19,-103 793.19,-103 793.19,-73 649.19,-73"/>
<text text-anchor="start" x="657.19" y="-91" font-family="Helvetica,sans-Serif" font-size="10.00">/home/ram/OmniTemplate</text>
<text text-anchor="middle" x="721.19" y="-80" font-family="Helvetica,sans-Serif" font-size="10.00">/src/core/template.hpp</text>
</a>
</g>
</g>
<!-- Node1&#45;&gt;Node5 -->
<g id="edge30" class="edge">
<title>Node1&#45;&gt;Node5</title>
<path fill="none" stroke="midnightblue" d="M838.4,-508.18C802.16,-486.19 752.19,-446.61 752.19,-395.5 752.19,-395.5 752.19,-395.5 752.19,-243 752.19,-190.64 734.75,-130.19 726.03,-103.24"/>
<polygon fill="midnightblue" stroke="midnightblue" points="836.88,-511.35 847.28,-513.39 840.42,-505.31 836.88,-511.35"/>
</g>
<!-- Node16 -->
<g id="node16" class="node">
<title>Node16</title>
<g id="a_node16"><a xlink:href="permutation_8hpp.html" target="_top" xlink:title=" ">
<polygon fill="white" stroke="black" points="780.19,-151 780.19,-181 970.19,-181 970.19,-151 780.19,-151"/>
<text text-anchor="start" x="788.19" y="-169" font-family="Helvetica,sans-Serif" font-size="10.00">/home/ram/OmniTemplate</text>
<text text-anchor="middle" x="875.19" y="-158" font-family="Helvetica,sans-Serif" font-size="10.00">/src/combinatorics/permutation.hpp</text>
</a>
</g>
</g>
<!-- Node1&#45;&gt;Node16 -->
<g id="edge26" class="edge">
<title>Node1&#45;&gt;Node16</title>
<path fill="none" stroke="midnightblue" d="M875.19,-502.99C875.19,-476.49 875.19,-433 875.19,-395.5 875.19,-395.5 875.19,-395.5 875.19,-321 875.19,-269.4 875.19,-208.07 875.19,-181.01"/>
<polygon fill="midnightblue" stroke="midnightblue" points="871.69,-503.24 875.19,-513.24 878.69,-503.24 871.69,-503.24"/>
</g>
<!-- Node18 -->
<g id="node18" class="node">
<title>Node18</title>
<g id="a_node18"><a xlink:href="number__theory_8hpp.html" target="_top" xlink:title=" ">
<polygon fill="white" stroke="black" points="988.19,-145.5 988.19,-186.5 1140.19,-186.5 1140.19,-145.5 988.19,-145.5"/>
<text text-anchor="start" x="996.19" y="-174.5" font-family="Helvetica,sans-Serif" font-size="10.00">/home/ram/OmniTemplate</text>
<text text-anchor="start" x="996.19" y="-163.5" font-family="Helvetica,sans-Serif" font-size="10.00">/src/number_theory/number</text>
<text text-anchor="middle" x="1064.19" y="-152.5" font-family="Helvetica,sans-Serif" font-size="10.00">_theory.hpp</text>
</a>
</g>
</g>
<!-- Node1&#45;&gt;Node18 -->
<g id="edge31" class="edge">
<title>Node1&#45;&gt;Node18</title>
<path fill="none" stroke="midnightblue" d="M908.57,-507.72C941.9,-485.16 988.19,-444.93 988.19,-395.5 988.19,-395.5 988.19,-395.5 988.19,-321 988.19,-268.23 1024.52,-214.81 1046.95,-186.87"/>
<polygon fill="midnightblue" stroke="midnightblue" points="906.44,-504.93 899.99,-513.34 910.27,-510.79 906.44,-504.93"/>
</g>
<!-- Node20 -->
<g id="node20" class="node">
<title>Node20</title>
<g id="a_node20"><a xlink:href="test__modulo_8hpp.html" target="_top" xlink:title=" ">
<polygon fill="white" stroke="black" points="1056.19,-301.5 1056.19,-342.5 1200.19,-342.5 1200.19,-301.5 1056.19,-301.5"/>
<text text-anchor="start" x="1064.19" y="-330.5" font-family="Helvetica,sans-Serif" font-size="10.00">/home/ram/OmniTemplate</text>
<text text-anchor="start" x="1064.19" y="-319.5" font-family="Helvetica,sans-Serif" font-size="10.00">/src/number_theory/test</text>
<text text-anchor="middle" x="1128.19" y="-308.5" font-family="Helvetica,sans-Serif" font-size="10.00">_modulo.hpp</text>
</a>
</g>
</g>
<!-- Node1&#45;&gt;Node20 -->
<g id="edge35" class="edge">
<title>Node1&#45;&gt;Node20</title>
<path fill="none" stroke="midnightblue" d="M936.9,-510.06C958.78,-502.1 982.76,-491.22 1002.19,-477 1054.04,-439.05 1097.06,-374.95 1116.71,-342.73"/>
<polygon fill="midnightblue" stroke="midnightblue" points="935.64,-506.79 927.35,-513.4 937.95,-513.4 935.64,-506.79"/>
</g>
<!-- Node3 -->
<g id="node3" class="node">
<title>Node3</title>
<g id="a_node3"><a xlink:href="test__linear__algebra_8hpp.html" target="_top" xlink:title=" ">
<polygon fill="white" stroke="black" points="80.19,-223.5 80.19,-264.5 224.19,-264.5 224.19,-223.5 80.19,-223.5"/>
<text text-anchor="start" x="88.19" y="-252.5" font-family="Helvetica,sans-Serif" font-size="10.00">/home/ram/OmniTemplate</text>
<text text-anchor="start" x="88.19" y="-241.5" font-family="Helvetica,sans-Serif" font-size="10.00">/src/algebra/test_linear</text>
<text text-anchor="middle" x="152.19" y="-230.5" font-family="Helvetica,sans-Serif" font-size="10.00">_algebra.hpp</text>
</a>
</g>
</g>
<!-- Node2&#45;&gt;Node3 -->
<g id="edge2" class="edge">
<title>Node2&#45;&gt;Node3</title>
<path fill="none" stroke="midnightblue" d="M498.18,-444.05C465.97,-435.93 429,-424.68 397.19,-410 309.19,-369.39 217.59,-298.81 175.67,-264.64"/>
<polygon fill="midnightblue" stroke="midnightblue" points="497.47,-447.47 508.01,-446.46 499.14,-440.68 497.47,-447.47"/>
</g>
<!-- Node2&#45;&gt;Node5 -->
<g id="edge4" class="edge">
<title>Node2&#45;&gt;Node5</title>
<path fill="none" stroke="midnightblue" d="M617.77,-441.6C657.92,-419.34 714.19,-378.29 714.19,-323 714.19,-323 714.19,-323 714.19,-243 714.19,-191.35 718.17,-130.05 720.13,-103"/>
<polygon fill="midnightblue" stroke="midnightblue" points="615.87,-438.64 608.71,-446.45 619.18,-444.81 615.87,-438.64"/>
</g>
<!-- Node6 -->
<g id="node6" class="node">
<title>Node6</title>
<g id="a_node6"><a xlink:href="graph_2all_8hpp.html" target="_top" xlink:title=" ">
<polygon fill="white" stroke="black" points="374.19,-229 374.19,-259 518.19,-259 518.19,-229 374.19,-229"/>
<text text-anchor="start" x="382.19" y="-247" font-family="Helvetica,sans-Serif" font-size="10.00">/home/ram/OmniTemplate</text>
<text text-anchor="middle" x="446.19" y="-236" font-family="Helvetica,sans-Serif" font-size="10.00">/src/graph/all.hpp</text>
</a>
</g>
</g>
<!-- Node2&#45;&gt;Node6 -->
<g id="edge6" class="edge">
<title>Node2&#45;&gt;Node6</title>
<path fill="none" stroke="midnightblue" d="M582.01,-435.82C585.84,-402.13 587.65,-341.32 559.19,-301 544.99,-280.88 521.44,-267.62 499.51,-259.09"/>
<polygon fill="midnightblue" stroke="midnightblue" points="578.49,-435.77 580.68,-446.14 585.43,-436.67 578.49,-435.77"/>
</g>
<!-- Node14 -->
<g id="node14" class="node">
<title>Node14</title>
<g id="a_node14"><a xlink:href="flow_8hpp.html" target="_top" xlink:title=" ">
<polygon fill="white" stroke="black" points="406.19,-379.5 406.19,-409.5 550.19,-409.5 550.19,-379.5 406.19,-379.5"/>
<text text-anchor="start" x="414.19" y="-397.5" font-family="Helvetica,sans-Serif" font-size="10.00">/home/ram/OmniTemplate</text>
<text text-anchor="middle" x="478.19" y="-386.5" font-family="Helvetica,sans-Serif" font-size="10.00">/src/graph/flow.hpp</text>
</a>
</g>
</g>
<!-- Node2&#45;&gt;Node14 -->
<g id="edge22" class="edge">
<title>Node2&#45;&gt;Node14</title>
<path fill="none" stroke="midnightblue" d="M547.78,-440.73C532.31,-430.68 513.86,-418.68 499.85,-409.58"/>
<polygon fill="midnightblue" stroke="midnightblue" points="546.2,-443.88 556.49,-446.4 550.02,-438.01 546.2,-443.88"/>
</g>
<!-- Node4 -->
<g id="node4" class="node">
<title>Node4</title>
<g id="a_node4"><a xlink:href="test_8cpp.html" target="_top" xlink:title=" ">
<polygon fill="white" stroke="black" points="484.19,-0.5 484.19,-30.5 628.19,-30.5 628.19,-0.5 484.19,-0.5"/>
<text text-anchor="start" x="492.19" y="-18.5" font-family="Helvetica,sans-Serif" font-size="10.00">/home/ram/OmniTemplate</text>
<text text-anchor="middle" x="556.19" y="-7.5" font-family="Helvetica,sans-Serif" font-size="10.00">/src/test/test.cpp</text>
</a>
</g>
</g>
<!-- Node3&#45;&gt;Node4 -->
<g id="edge3" class="edge">
<title>Node3&#45;&gt;Node4</title>
<path fill="none" stroke="midnightblue" d="M70.41,-229.81C46.01,-221.64 21.88,-208.42 7.19,-187 -3.37,-171.61 -1.04,-161.75 7.19,-145 32.2,-94.09 55.62,-88.3 108.19,-67 174.57,-40.11 374.97,-25.86 483.87,-19.92"/>
<polygon fill="midnightblue" stroke="midnightblue" points="69.54,-233.21 80.12,-232.81 71.6,-226.52 69.54,-233.21"/>
</g>
<!-- Node5&#45;&gt;Node4 -->
<g id="edge5" class="edge">
<title>Node5&#45;&gt;Node4</title>
<path fill="none" stroke="midnightblue" d="M678.7,-68.84C650.8,-56.92 614.85,-41.57 589.13,-30.57"/>
<polygon fill="midnightblue" stroke="midnightblue" points="677.63,-72.19 688.2,-72.9 680.38,-65.76 677.63,-72.19"/>
</g>
<!-- Node6&#45;&gt;Node5 -->
<g id="edge7" class="edge">
<title>Node6&#45;&gt;Node5</title>
<path fill="none" stroke="midnightblue" d="M528.09,-235.33C569.87,-228.12 619.65,-214.13 657.19,-187 687.33,-165.22 707.08,-124.5 715.9,-103.05"/>
<polygon fill="midnightblue" stroke="midnightblue" points="527.52,-231.88 518.21,-236.94 528.64,-238.79 527.52,-231.88"/>
</g>
<!-- Node7 -->
<g id="node7" class="node">
<title>Node7</title>
<g id="a_node7"><a xlink:href="2sat_8hpp.html" target="_top" xlink:title=" ">
<polygon fill="white" stroke="black" points="342.19,-151 342.19,-181 486.19,-181 486.19,-151 342.19,-151"/>
<text text-anchor="start" x="350.19" y="-169" font-family="Helvetica,sans-Serif" font-size="10.00">/home/ram/OmniTemplate</text>
<text text-anchor="middle" x="414.19" y="-158" font-family="Helvetica,sans-Serif" font-size="10.00">/src/graph/2sat.hpp</text>
</a>
</g>
</g>
<!-- Node6&#45;&gt;Node7 -->
<g id="edge8" class="edge">
<title>Node6&#45;&gt;Node7</title>
<path fill="none" stroke="midnightblue" d="M436.23,-219.33C430.97,-206.85 424.69,-191.94 420.18,-181.23"/>
<polygon fill="midnightblue" stroke="midnightblue" points="433.07,-220.85 440.17,-228.7 439.52,-218.13 433.07,-220.85"/>
</g>
<!-- Node9 -->
<g id="node9" class="node">
<title>Node9</title>
<g id="a_node9"><a xlink:href="test__all_8hpp.html" target="_top" xlink:title=" ">
<polygon fill="white" stroke="black" points="16.19,-151 16.19,-181 160.19,-181 160.19,-151 16.19,-151"/>
<text text-anchor="start" x="24.19" y="-169" font-family="Helvetica,sans-Serif" font-size="10.00">/home/ram/OmniTemplate</text>
<text text-anchor="middle" x="88.19" y="-158" font-family="Helvetica,sans-Serif" font-size="10.00">/src/graph/test_all.hpp</text>
</a>
</g>
</g>
<!-- Node6&#45;&gt;Node9 -->
<g id="edge12" class="edge">
<title>Node6&#45;&gt;Node9</title>
<path fill="none" stroke="midnightblue" d="M363.9,-227.32C308.7,-216.56 234.43,-201.64 169.19,-187 160.99,-185.16 152.35,-183.13 143.89,-181.08"/>
<polygon fill="midnightblue" stroke="midnightblue" points="363.5,-230.8 373.98,-229.28 364.83,-223.93 363.5,-230.8"/>
</g>
<!-- Node10 -->
<g id="node10" class="node">
<title>Node10</title>
<g id="a_node10"><a xlink:href="hld_8hpp.html" target="_top" xlink:title=" ">
<polygon fill="white" stroke="black" points="504.19,-151 504.19,-181 648.19,-181 648.19,-151 504.19,-151"/>
<text text-anchor="start" x="512.19" y="-169" font-family="Helvetica,sans-Serif" font-size="10.00">/home/ram/OmniTemplate</text>
<text text-anchor="middle" x="576.19" y="-158" font-family="Helvetica,sans-Serif" font-size="10.00">/src/graph/tree/hld.hpp</text>
</a>
</g>
</g>
<!-- Node6&#45;&gt;Node10 -->
<g id="edge14" class="edge">
<title>Node6&#45;&gt;Node10</title>
<path fill="none" stroke="midnightblue" d="M479,-223.82C501.77,-210.51 531.6,-193.07 552.17,-181.04"/>
<polygon fill="midnightblue" stroke="midnightblue" points="477.2,-220.81 470.34,-228.88 480.74,-226.86 477.2,-220.81"/>
</g>
<!-- Node12 -->
<g id="node12" class="node">
<title>Node12</title>
<g id="a_node12"><a xlink:href="graph__draw_8hpp.html" target="_top" xlink:title=" ">
<polygon fill="white" stroke="black" points="178.19,-151 178.19,-181 324.19,-181 324.19,-151 178.19,-151"/>
<text text-anchor="start" x="186.19" y="-169" font-family="Helvetica,sans-Serif" font-size="10.00">/home/ram/OmniTemplate</text>
<text text-anchor="middle" x="251.19" y="-158" font-family="Helvetica,sans-Serif" font-size="10.00">/src/utility/graph_draw.hpp</text>
</a>
</g>
</g>
<!-- Node6&#45;&gt;Node12 -->
<g id="edge18" class="edge">
<title>Node6&#45;&gt;Node12</title>
<path fill="none" stroke="midnightblue" d="M400.57,-225.22C366.01,-211.75 319.17,-193.5 287.22,-181.04"/>
<polygon fill="midnightblue" stroke="midnightblue" points="399.38,-228.51 409.97,-228.88 401.92,-221.99 399.38,-228.51"/>
</g>
<!-- Node7&#45;&gt;Node5 -->
<g id="edge9" class="edge">
<title>Node7&#45;&gt;Node5</title>
<path fill="none" stroke="midnightblue" d="M480.84,-148.5C535.71,-134.92 612.67,-115.87 664.6,-103.01"/>
<polygon fill="midnightblue" stroke="midnightblue" points="479.72,-145.17 470.86,-150.97 481.41,-151.97 479.72,-145.17"/>
</g>
<!-- Node8 -->
<g id="node8" class="node">
<title>Node8</title>
<g id="a_node8"><a xlink:href="test__2sat_8hpp.html" target="_top" xlink:title=" ">
<polygon fill="white" stroke="black" points="319.19,-73 319.19,-103 463.19,-103 463.19,-73 319.19,-73"/>
<text text-anchor="start" x="327.19" y="-91" font-family="Helvetica,sans-Serif" font-size="10.00">/home/ram/OmniTemplate</text>
<text text-anchor="middle" x="391.19" y="-80" font-family="Helvetica,sans-Serif" font-size="10.00">/src/graph/test_2sat.hpp</text>
</a>
</g>
</g>
<!-- Node7&#45;&gt;Node8 -->
<g id="edge10" class="edge">
<title>Node7&#45;&gt;Node8</title>
<path fill="none" stroke="midnightblue" d="M406.92,-140.96C403.16,-128.55 398.7,-113.83 395.5,-103.23"/>
<polygon fill="midnightblue" stroke="midnightblue" points="403.62,-142.15 409.86,-150.7 410.32,-140.12 403.62,-142.15"/>
</g>
<!-- Node8&#45;&gt;Node4 -->
<g id="edge11" class="edge">
<title>Node8&#45;&gt;Node4</title>
<path fill="none" stroke="midnightblue" d="M433.69,-68.84C461.58,-56.92 497.53,-41.57 523.25,-30.57"/>
<polygon fill="midnightblue" stroke="midnightblue" points="432,-65.76 424.18,-72.9 434.76,-72.19 432,-65.76"/>
</g>
<!-- Node9&#45;&gt;Node4 -->
<g id="edge13" class="edge">
<title>Node9&#45;&gt;Node4</title>
<path fill="none" stroke="midnightblue" d="M95.81,-141.41C104.57,-118.37 121.31,-84.32 148.19,-67 202.19,-32.21 381.96,-21.38 483.94,-18.01"/>
<polygon fill="midnightblue" stroke="midnightblue" points="92.51,-140.23 92.44,-150.82 99.1,-142.59 92.51,-140.23"/>
</g>
<!-- Node10&#45;&gt;Node5 -->
<g id="edge15" class="edge">
<title>Node10&#45;&gt;Node5</title>
<path fill="none" stroke="midnightblue" d="M612.11,-146.17C637.59,-132.82 671.25,-115.18 694.4,-103.04"/>
<polygon fill="midnightblue" stroke="midnightblue" points="610.36,-143.14 603.12,-150.88 613.61,-149.34 610.36,-143.14"/>
</g>
<!-- Node11 -->
<g id="node11" class="node">
<title>Node11</title>
<g id="a_node11"><a xlink:href="test__hld_8hpp.html" target="_top" xlink:title=" ">
<polygon fill="white" stroke="black" points="481.19,-73 481.19,-103 631.19,-103 631.19,-73 481.19,-73"/>
<text text-anchor="start" x="489.19" y="-91" font-family="Helvetica,sans-Serif" font-size="10.00">/home/ram/OmniTemplate</text>
<text text-anchor="middle" x="556.19" y="-80" font-family="Helvetica,sans-Serif" font-size="10.00">/src/graph/tree/test_hld.hpp</text>
</a>
</g>
</g>
<!-- Node10&#45;&gt;Node11 -->
<g id="edge16" class="edge">
<title>Node10&#45;&gt;Node11</title>
<path fill="none" stroke="midnightblue" d="M569.87,-140.96C566.6,-128.55 562.72,-113.83 559.94,-103.23"/>
<polygon fill="midnightblue" stroke="midnightblue" points="566.5,-141.92 572.43,-150.7 573.27,-140.14 566.5,-141.92"/>
</g>
<!-- Node11&#45;&gt;Node4 -->
<g id="edge17" class="edge">
<title>Node11&#45;&gt;Node4</title>
<path fill="none" stroke="midnightblue" d="M556.19,-62.73C556.19,-52.07 556.19,-39.91 556.19,-30.75"/>
<polygon fill="midnightblue" stroke="midnightblue" points="552.69,-62.73 556.19,-72.73 559.69,-62.73 552.69,-62.73"/>
</g>
<!-- Node12&#45;&gt;Node5 -->
<g id="edge19" class="edge">
<title>Node12&#45;&gt;Node5</title>
<path fill="none" stroke="midnightblue" d="M314.6,-148.72C320.86,-147.36 327.13,-146.09 333.19,-145 468.4,-120.68 505.02,-133.51 640.19,-109 649.31,-107.35 658.94,-105.27 668.24,-103.08"/>
<polygon fill="midnightblue" stroke="midnightblue" points="313.79,-145.32 304.8,-150.93 315.33,-152.15 313.79,-145.32"/>
</g>
<!-- Node13 -->
<g id="node13" class="node">
<title>Node13</title>
<g id="a_node13"><a xlink:href="test__graph__draw_8hpp.html" target="_top" xlink:title=" ">
<polygon fill="white" stroke="black" points="157.19,-67.5 157.19,-108.5 301.19,-108.5 301.19,-67.5 157.19,-67.5"/>
<text text-anchor="start" x="165.19" y="-96.5" font-family="Helvetica,sans-Serif" font-size="10.00">/home/ram/OmniTemplate</text>
<text text-anchor="start" x="165.19" y="-85.5" font-family="Helvetica,sans-Serif" font-size="10.00">/src/utility/test_graph</text>
<text text-anchor="middle" x="229.19" y="-74.5" font-family="Helvetica,sans-Serif" font-size="10.00">_draw.hpp</text>
</a>
</g>
</g>
<!-- Node12&#45;&gt;Node13 -->
<g id="edge20" class="edge">
<title>Node12&#45;&gt;Node13</title>
<path fill="none" stroke="midnightblue" d="M244.24,-140.98C241.23,-130.58 237.74,-118.55 234.89,-108.68"/>
<polygon fill="midnightblue" stroke="midnightblue" points="240.91,-142.07 247.05,-150.7 247.63,-140.13 240.91,-142.07"/>
</g>
<!-- Node13&#45;&gt;Node4 -->
<g id="edge21" class="edge">
<title>Node13&#45;&gt;Node4</title>
<path fill="none" stroke="midnightblue" d="M311.39,-66.77C375.01,-52.49 437.45,-39.77 484.18,-30.5"/>
<polygon fill="midnightblue" stroke="midnightblue" points="310.57,-63.36 301.58,-68.98 312.11,-70.19 310.57,-63.36"/>
</g>
<!-- Node14&#45;&gt;Node6 -->
<g id="edge23" class="edge">
<title>Node14&#45;&gt;Node6</title>
<path fill="none" stroke="midnightblue" d="M430.43,-374.45C417.3,-366.74 404.64,-356.42 397.19,-343 388.13,-326.68 390.63,-318.47 397.19,-301 403.46,-284.31 417.21,-269.34 428.55,-259.09"/>
<polygon fill="midnightblue" stroke="midnightblue" points="429.07,-377.69 439.53,-379.37 432.4,-371.54 429.07,-377.69"/>
</g>
<!-- Node15 -->
<g id="node15" class="node">
<title>Node15</title>
<g id="a_node15"><a xlink:href="test__flow_8hpp.html" target="_top" xlink:title=" ">
<polygon fill="white" stroke="black" points="406.19,-307 406.19,-337 550.19,-337 550.19,-307 406.19,-307"/>
<text text-anchor="start" x="414.19" y="-325" font-family="Helvetica,sans-Serif" font-size="10.00">/home/ram/OmniTemplate</text>
<text text-anchor="middle" x="478.19" y="-314" font-family="Helvetica,sans-Serif" font-size="10.00">/src/graph/test_flow.hpp</text>
</a>
</g>
</g>
<!-- Node14&#45;&gt;Node15 -->
<g id="edge24" class="edge">
<title>Node14&#45;&gt;Node15</title>
<path fill="none" stroke="midnightblue" d="M478.19,-369.23C478.19,-358.57 478.19,-346.41 478.19,-337.25"/>
<polygon fill="midnightblue" stroke="midnightblue" points="474.69,-369.23 478.19,-379.23 481.69,-369.23 474.69,-369.23"/>
</g>
<!-- Node15&#45;&gt;Node6 -->
<g id="edge25" class="edge">
<title>Node15&#45;&gt;Node6</title>
<path fill="none" stroke="midnightblue" d="M468.23,-297.33C462.97,-284.85 456.69,-269.94 452.18,-259.23"/>
<polygon fill="midnightblue" stroke="midnightblue" points="465.07,-298.85 472.17,-306.7 471.52,-296.13 465.07,-298.85"/>
</g>
<!-- Node16&#45;&gt;Node5 -->
<g id="edge29" class="edge">
<title>Node16&#45;&gt;Node5</title>
<path fill="none" stroke="midnightblue" d="M837.4,-146.35C810.29,-132.97 774.34,-115.23 749.64,-103.04"/>
<polygon fill="midnightblue" stroke="midnightblue" points="836.07,-149.6 846.59,-150.88 839.17,-143.32 836.07,-149.6"/>
</g>
<!-- Node17 -->
<g id="node17" class="node">
<title>Node17</title>
<g id="a_node17"><a xlink:href="test__permutation_8hpp.html" target="_top" xlink:title=" ">
<polygon fill="white" stroke="black" points="811.19,-67.5 811.19,-108.5 955.19,-108.5 955.19,-67.5 811.19,-67.5"/>
<text text-anchor="start" x="819.19" y="-96.5" font-family="Helvetica,sans-Serif" font-size="10.00">/home/ram/OmniTemplate</text>
<text text-anchor="start" x="819.19" y="-85.5" font-family="Helvetica,sans-Serif" font-size="10.00">/src/combinatorics/test</text>
<text text-anchor="middle" x="883.19" y="-74.5" font-family="Helvetica,sans-Serif" font-size="10.00">_permutation.hpp</text>
</a>
</g>
</g>
<!-- Node16&#45;&gt;Node17 -->
<g id="edge27" class="edge">
<title>Node16&#45;&gt;Node17</title>
<path fill="none" stroke="midnightblue" d="M877.75,-140.66C878.84,-130.33 880.09,-118.44 881.12,-108.68"/>
<polygon fill="midnightblue" stroke="midnightblue" points="874.26,-140.39 876.7,-150.7 881.22,-141.13 874.26,-140.39"/>
</g>
<!-- Node17&#45;&gt;Node4 -->
<g id="edge28" class="edge">
<title>Node17&#45;&gt;Node4</title>
<path fill="none" stroke="midnightblue" d="M801,-66.77C737.37,-52.49 674.93,-39.77 628.2,-30.5"/>
<polygon fill="midnightblue" stroke="midnightblue" points="800.28,-70.19 810.8,-68.98 801.82,-63.36 800.28,-70.19"/>
</g>
<!-- Node18&#45;&gt;Node5 -->
<g id="edge32" class="edge">
<title>Node18&#45;&gt;Node5</title>
<path fill="none" stroke="midnightblue" d="M977.86,-144.74C899.1,-127.69 877.45,-125.94 802.19,-109 793.99,-107.16 785.35,-105.12 776.89,-103.08"/>
<polygon fill="midnightblue" stroke="midnightblue" points="977.24,-148.19 987.76,-146.9 978.74,-141.35 977.24,-148.19"/>
</g>
<!-- Node19 -->
<g id="node19" class="node">
<title>Node19</title>
<g id="a_node19"><a xlink:href="test__number__theory_8hpp.html" target="_top" xlink:title=" ">
<polygon fill="white" stroke="black" points="979.19,-67.5 979.19,-108.5 1123.19,-108.5 1123.19,-67.5 979.19,-67.5"/>
<text text-anchor="start" x="987.19" y="-96.5" font-family="Helvetica,sans-Serif" font-size="10.00">/home/ram/OmniTemplate</text>
<text text-anchor="start" x="987.19" y="-85.5" font-family="Helvetica,sans-Serif" font-size="10.00">/src/number_theory/test</text>
<text text-anchor="middle" x="1051.19" y="-74.5" font-family="Helvetica,sans-Serif" font-size="10.00">_number_theory.hpp</text>
</a>
</g>
</g>
<!-- Node18&#45;&gt;Node19 -->
<g id="edge33" class="edge">
<title>Node18&#45;&gt;Node19</title>
<path fill="none" stroke="midnightblue" d="M1059.11,-135.3C1057.57,-126.3 1055.92,-116.65 1054.53,-108.51"/>
<polygon fill="midnightblue" stroke="midnightblue" points="1055.71,-136.16 1060.84,-145.43 1062.61,-134.98 1055.71,-136.16"/>
</g>
<!-- Node19&#45;&gt;Node4 -->
<g id="edge34" class="edge">
<title>Node19&#45;&gt;Node4</title>
<path fill="none" stroke="midnightblue" d="M969.27,-67.92C967.56,-67.6 965.87,-67.3 964.19,-67 847.33,-46.39 710.19,-31.25 628.38,-23.17"/>
<polygon fill="midnightblue" stroke="midnightblue" points="968.66,-71.37 979.15,-69.84 970,-64.5 968.66,-71.37"/>
</g>
<!-- Node20&#45;&gt;Node4 -->
<g id="edge36" class="edge">
<title>Node20&#45;&gt;Node4</title>
<path fill="none" stroke="midnightblue" d="M1140.72,-291.84C1161.7,-237.91 1195.76,-122.96 1132.19,-67 1095.11,-34.35 774.4,-22.05 628.24,-18.11"/>
<polygon fill="midnightblue" stroke="midnightblue" points="1137.45,-290.59 1136.98,-301.18 1143.95,-293.2 1137.45,-290.59"/>
</g>
</g>
</svg>
        <g id="navigator" transform="translate(0 0)" fill="#404254">
                <rect fill="#f2f5e9" fill-opacity="0.5" stroke="#606060" stroke-width=".5" x="0" y="0" width="60" height="60"/>
                <use id="zoomplus" xlink:href="#zoomPlus" x="17" y="9" onmousedown="handleZoom(evt,'in')"/>
                <use id="zoomminus" xlink:href="#zoomMin" x="42" y="9" onmousedown="handleZoom(evt,'out')"/>
                <use id="reset" xlink:href="#resetDef" x="30" y="36" onmousedown="handleReset()"/>
                <g id="arrowUp" xlink:href="#dirArrow" transform="translate(30 24)" onmousedown="handlePan(0,-1)">
                  <use xlink:href="#rim" fill="#404040">
                        <set attributeName="fill" to="#808080" begin="arrowUp.mouseover" end="arrowUp.mouseout"/>
                  </use>
                  <path fill="none" stroke="white" stroke-width="1.5" d="M0,-3.0v7 M-2.5,-0.5L0,-3.0L2.5,-0.5"/>
                </g>
                <g id="arrowRight" xlink:href="#dirArrow" transform="rotate(90) translate(36 -43)" onmousedown="handlePan(1,0)">
                  <use xlink:href="#rim" fill="#404040">
                        <set attributeName="fill" to="#808080" begin="arrowRight.mouseover" end="arrowRight.mouseout"/>
                  </use>
                  <path fill="none" stroke="white" stroke-width="1.5" d="M0,-3.0v7 M-2.5,-0.5L0,-3.0L2.5,-0.5"/>
                </g>
                <g id="arrowDown" xlink:href="#dirArrow" transform="rotate(180) translate(-30 -48)" onmousedown="handlePan(0,1)">
                  <use xlink:href="#rim" fill="#404040">
                        <set attributeName="fill" to="#808080" begin="arrowDown.mouseover" end="arrowDown.mouseout"/>
                  </use>
                  <path fill="none" stroke="white" stroke-width="1.5" d="M0,-3.0v7 M-2.5,-0.5L0,-3.0L2.5,-0.5"/>
                </g>
                <g id="arrowLeft" xlink:href="#dirArrow" transform="rotate(270) translate(-36 17)" onmousedown="handlePan(-1,0)">
                  <use xlink:href="#rim" fill="#404040">
                        <set attributeName="fill" to="#808080" begin="arrowLeft.mouseover" end="arrowLeft.mouseout"/>
                  </use>
                  <path fill="none" stroke="white" stroke-width="1.5" d="M0,-3.0v7 M-2.5,-0.5L0,-3.0L2.5,-0.5"/>
                </g>
        </g>
        <svg viewBox="0 0 15 15" width="100%" height="30px" preserveAspectRatio="xMaxYMin meet">
         <g id="arrow_out" transform="scale(0.3 0.3)">
          <a xlink:href="modulo_8hpp__dep__incl_org.svg" target="_base">
           <rect id="button" ry="5" rx="5" y="6" x="6" height="38" width="38"
                fill="#f2f5e9" fill-opacity="0.5" stroke="#606060" stroke-width="1.0"/>
           <path id="arrow"
             d="M 11.500037,31.436501 C 11.940474,20.09759 22.043105,11.32322 32.158766,21.979434 L 37.068811,17.246167 C 37.068811,17.246167 37.088388,32 37.088388,32 L 22.160133,31.978069 C 22.160133,31.978069 26.997745,27.140456 26.997745,27.140456 C 18.528582,18.264221 13.291696,25.230495 11.500037,31.436501 z"
             style="fill:#404040;"/>
          </a>
         </g>
        </svg>
</svg>
