<?xml version="1.0" encoding="UTF-8" standalone="no"?>
<!DOCTYPE svg PUBLIC "-//W3C//DTD SVG 1.1//EN"
 "http://www.w3.org/Graphics/SVG/1.1/DTD/svg11.dtd">
<!-- Generated by graphviz version 2.43.0 (0)
 -->
<!-- Title: /home/ram/OmniTemplate/src/number_theory/modulo.hpp Pages: 1 -->
<svg width="1895pt" height="753pt"
 viewBox="0.00 0.00 1895.00 753.00" xmlns="http://www.w3.org/2000/svg" xmlns:xlink="http://www.w3.org/1999/xlink">
<g id="graph0" class="graph" transform="scale(1 1) rotate(0) translate(4 749)">
<title>/home/ram/OmniTemplate/src/number_theory/modulo.hpp</title>
<polygon fill="white" stroke="transparent" points="-4,4 -4,-749 1891,-749 1891,4 -4,4"/>
<!-- Node1 -->
<g id="node1" class="node">
<title>Node1</title>
<g id="a_node1"><a xlink:title=" ">
<polygon fill="#bfbfbf" stroke="black" points="1297,-714.5 1297,-744.5 1469,-744.5 1469,-714.5 1297,-714.5"/>
<text text-anchor="start" x="1305" y="-732.5" font-family="Helvetica,sans-Serif" font-size="10.00">/home/ram/OmniTemplate</text>
<text text-anchor="middle" x="1383" y="-721.5" font-family="Helvetica,sans-Serif" font-size="10.00">/src/number_theory/modulo.hpp</text>
</a>
</g>
</g>
<!-- Node2 -->
<g id="node2" class="node">
<title>Node2</title>
<g id="a_node2"><a xlink:href="linear__algebra_8hpp.html" target="_top" xlink:title=" ">
<polygon fill="white" stroke="black" points="841.5,-569.5 841.5,-599.5 1008.5,-599.5 1008.5,-569.5 841.5,-569.5"/>
<text text-anchor="start" x="849.5" y="-587.5" font-family="Helvetica,sans-Serif" font-size="10.00">/home/ram/OmniTemplate</text>
<text text-anchor="middle" x="925" y="-576.5" font-family="Helvetica,sans-Serif" font-size="10.00">/src/algebra/linear_algebra.hpp</text>
</a>
</g>
</g>
<!-- Node1&#45;&gt;Node2 -->
<g id="edge1" class="edge">
<title>Node1&#45;&gt;Node2</title>
<path fill="none" stroke="midnightblue" d="M1286.66,-721.61C1196.21,-713.96 1068.23,-699.74 1023,-678 984.62,-659.56 951.28,-620.59 935.21,-599.6"/>
<polygon fill="midnightblue" stroke="midnightblue" points="1286.41,-725.1 1296.66,-722.44 1286.99,-718.12 1286.41,-725.1"/>
</g>
<!-- Node5 -->
<g id="node5" class="node">
<title>Node5</title>
<g id="a_node5"><a xlink:href="template_8hpp.html" target="_top" xlink:title=" ">
<polygon fill="white" stroke="black" points="949,-151 949,-181 1093,-181 1093,-151 949,-151"/>
<text text-anchor="start" x="957" y="-169" font-family="Helvetica,sans-Serif" font-size="10.00">/home/ram/OmniTemplate</text>
<text text-anchor="middle" x="1021" y="-158" font-family="Helvetica,sans-Serif" font-size="10.00">/src/core/template.hpp</text>
</a>
</g>
</g>
<!-- Node1&#45;&gt;Node5 -->
<g id="edge61" class="edge">
<title>Node1&#45;&gt;Node5</title>
<path fill="none" stroke="midnightblue" d="M1286.58,-722.01C1210.75,-715.18 1112.78,-701.97 1081,-678 1044.65,-650.59 1037,-631.03 1037,-585.5 1037,-585.5 1037,-585.5 1037,-315.5 1037,-265.97 1028.09,-207.69 1023.57,-181.28"/>
<polygon fill="midnightblue" stroke="midnightblue" points="1286.38,-725.51 1296.65,-722.9 1286.99,-718.54 1286.38,-725.51"/>
</g>
<!-- Node26 -->
<g id="node26" class="node">
<title>Node26</title>
<g id="a_node26"><a xlink:href="polynomial_8hpp.html" target="_top" xlink:title=" ">
<polygon fill="white" stroke="black" points="1090,-642 1090,-672 1242,-672 1242,-642 1090,-642"/>
<text text-anchor="start" x="1098" y="-660" font-family="Helvetica,sans-Serif" font-size="10.00">/home/ram/OmniTemplate</text>
<text text-anchor="middle" x="1166" y="-649" font-family="Helvetica,sans-Serif" font-size="10.00">/src/algebra/polynomial.hpp</text>
</a>
</g>
</g>
<!-- Node1&#45;&gt;Node26 -->
<g id="edge49" class="edge">
<title>Node1&#45;&gt;Node26</title>
<path fill="none" stroke="midnightblue" d="M1330.24,-711.36C1293.18,-699.32 1244.22,-683.41 1209.42,-672.11"/>
<polygon fill="midnightblue" stroke="midnightblue" points="1329.28,-714.73 1339.87,-714.49 1331.44,-708.07 1329.28,-714.73"/>
</g>
<!-- Node28 -->
<g id="node28" class="node">
<title>Node28</title>
<g id="a_node28"><a xlink:href="permutation_8hpp.html" target="_top" xlink:title=" ">
<polygon fill="white" stroke="black" points="1473,-229 1473,-259 1663,-259 1663,-229 1473,-229"/>
<text text-anchor="start" x="1481" y="-247" font-family="Helvetica,sans-Serif" font-size="10.00">/home/ram/OmniTemplate</text>
<text text-anchor="middle" x="1568" y="-236" font-family="Helvetica,sans-Serif" font-size="10.00">/src/combinatorics/permutation.hpp</text>
</a>
</g>
</g>
<!-- Node1&#45;&gt;Node28 -->
<g id="edge54" class="edge">
<title>Node1&#45;&gt;Node28</title>
<path fill="none" stroke="midnightblue" d="M1413.61,-708.2C1446.77,-683.5 1495,-638.47 1495,-585.5 1495,-585.5 1495,-585.5 1495,-382.5 1495,-332.5 1533.12,-282.96 1554.27,-259.32"/>
<polygon fill="midnightblue" stroke="midnightblue" points="1411.19,-705.63 1405.13,-714.33 1415.28,-711.31 1411.19,-705.63"/>
</g>
<!-- Node30 -->
<g id="node30" class="node">
<title>Node30</title>
<g id="a_node30"><a xlink:href="suffix__array_8hpp.html" target="_top" xlink:title=" ">
<polygon fill="white" stroke="black" points="1511,-151 1511,-181 1657,-181 1657,-151 1511,-151"/>
<text text-anchor="start" x="1519" y="-169" font-family="Helvetica,sans-Serif" font-size="10.00">/home/ram/OmniTemplate</text>
<text text-anchor="middle" x="1584" y="-158" font-family="Helvetica,sans-Serif" font-size="10.00">/src/string/suffix_array.hpp</text>
</a>
</g>
</g>
<!-- Node1&#45;&gt;Node30 -->
<g id="edge74" class="edge">
<title>Node1&#45;&gt;Node30</title>
<path fill="none" stroke="midnightblue" d="M1431.75,-710.04C1447.99,-702.08 1465.19,-691.46 1478,-678 1617.81,-531.1 1627.83,-462.93 1672,-265 1676.07,-246.78 1680.98,-239.36 1672,-223 1661.37,-203.63 1640.88,-190.01 1622.35,-181.05"/>
<polygon fill="midnightblue" stroke="midnightblue" points="1429.93,-707.03 1422.34,-714.42 1432.88,-713.38 1429.93,-707.03"/>
</g>
<!-- Node32 -->
<g id="node32" class="node">
<title>Node32</title>
<g id="a_node32"><a xlink:href="test__sparse__table_8hpp.html" target="_top" xlink:title=" ">
<polygon fill="white" stroke="black" points="1650,-569.5 1650,-599.5 1808,-599.5 1808,-569.5 1650,-569.5"/>
<text text-anchor="start" x="1658" y="-587.5" font-family="Helvetica,sans-Serif" font-size="10.00">/home/ram/OmniTemplate</text>
<text text-anchor="middle" x="1729" y="-576.5" font-family="Helvetica,sans-Serif" font-size="10.00">/src/ds/test_sparse_table.hpp</text>
</a>
</g>
</g>
<!-- Node1&#45;&gt;Node32 -->
<g id="edge62" class="edge">
<title>Node1&#45;&gt;Node32</title>
<path fill="none" stroke="midnightblue" d="M1479.21,-722.55C1528.43,-716.31 1587.93,-703.63 1636,-678 1672.37,-658.61 1703.8,-620.4 1719.1,-599.67"/>
<polygon fill="midnightblue" stroke="midnightblue" points="1478.71,-719.09 1469.2,-723.75 1479.54,-726.04 1478.71,-719.09"/>
</g>
<!-- Node33 -->
<g id="node33" class="node">
<title>Node33</title>
<g id="a_node33"><a xlink:href="number__theory_8hpp.html" target="_top" xlink:title=" ">
<polygon fill="white" stroke="black" points="1141,-223.5 1141,-264.5 1293,-264.5 1293,-223.5 1141,-223.5"/>
<text text-anchor="start" x="1149" y="-252.5" font-family="Helvetica,sans-Serif" font-size="10.00">/home/ram/OmniTemplate</text>
<text text-anchor="start" x="1149" y="-241.5" font-family="Helvetica,sans-Serif" font-size="10.00">/src/number_theory/number</text>
<text text-anchor="middle" x="1217" y="-230.5" font-family="Helvetica,sans-Serif" font-size="10.00">_theory.hpp</text>
</a>
</g>
</g>
<!-- Node1&#45;&gt;Node33 -->
<g id="edge64" class="edge">
<title>Node1&#45;&gt;Node33</title>
<path fill="none" stroke="midnightblue" d="M1367.7,-705.78C1350.81,-678.47 1326,-630.64 1326,-585.5 1326,-585.5 1326,-585.5 1326,-382.5 1326,-331.48 1279.34,-288.36 1247.07,-264.64"/>
<polygon fill="midnightblue" stroke="midnightblue" points="1364.75,-707.67 1373.07,-714.23 1370.65,-703.91 1364.75,-707.67"/>
</g>
<!-- Node35 -->
<g id="node35" class="node">
<title>Node35</title>
<g id="a_node35"><a xlink:href="test__modulo_8hpp.html" target="_top" xlink:title=" ">
<polygon fill="white" stroke="black" points="1743,-636.5 1743,-677.5 1887,-677.5 1887,-636.5 1743,-636.5"/>
<text text-anchor="start" x="1751" y="-665.5" font-family="Helvetica,sans-Serif" font-size="10.00">/home/ram/OmniTemplate</text>
<text text-anchor="start" x="1751" y="-654.5" font-family="Helvetica,sans-Serif" font-size="10.00">/src/number_theory/test</text>
<text text-anchor="middle" x="1815" y="-643.5" font-family="Helvetica,sans-Serif" font-size="10.00">_modulo.hpp</text>
</a>
</g>
</g>
<!-- Node1&#45;&gt;Node35 -->
<g id="edge68" class="edge">
<title>Node1&#45;&gt;Node35</title>
<path fill="none" stroke="midnightblue" d="M1479.53,-714.29C1544.24,-704.57 1631.34,-691.12 1708,-678 1719.27,-676.07 1731.19,-673.94 1742.82,-671.8"/>
<polygon fill="midnightblue" stroke="midnightblue" points="1478.71,-710.88 1469.34,-715.82 1479.74,-717.8 1478.71,-710.88"/>
</g>
<!-- Node36 -->
<g id="node36" class="node">
<title>Node36</title>
<g id="a_node36"><a xlink:href="string_8hpp.html" target="_top" xlink:title=" ">
<polygon fill="white" stroke="black" points="1311,-229 1311,-259 1455,-259 1455,-229 1311,-229"/>
<text text-anchor="start" x="1319" y="-247" font-family="Helvetica,sans-Serif" font-size="10.00">/home/ram/OmniTemplate</text>
<text text-anchor="middle" x="1383" y="-236" font-family="Helvetica,sans-Serif" font-size="10.00">/src/string/string.hpp</text>
</a>
</g>
</g>
<!-- Node1&#45;&gt;Node36 -->
<g id="edge70" class="edge">
<title>Node1&#45;&gt;Node36</title>
<path fill="none" stroke="midnightblue" d="M1383,-704.07C1383,-675.61 1383,-627.14 1383,-585.5 1383,-585.5 1383,-585.5 1383,-382.5 1383,-337.38 1383,-283.94 1383,-259.05"/>
<polygon fill="midnightblue" stroke="midnightblue" points="1379.5,-704.29 1383,-714.29 1386.5,-704.29 1379.5,-704.29"/>
</g>
<!-- Node3 -->
<g id="node3" class="node">
<title>Node3</title>
<g id="a_node3"><a xlink:href="test__linear__algebra_8hpp.html" target="_top" xlink:title=" ">
<polygon fill="white" stroke="black" points="949,-67.5 949,-108.5 1093,-108.5 1093,-67.5 949,-67.5"/>
<text text-anchor="start" x="957" y="-96.5" font-family="Helvetica,sans-Serif" font-size="10.00">/home/ram/OmniTemplate</text>
<text text-anchor="start" x="957" y="-85.5" font-family="Helvetica,sans-Serif" font-size="10.00">/src/algebra/test_linear</text>
<text text-anchor="middle" x="1021" y="-74.5" font-family="Helvetica,sans-Serif" font-size="10.00">_algebra.hpp</text>
</a>
</g>
</g>
<!-- Node2&#45;&gt;Node3 -->
<g id="edge2" class="edge">
<title>Node2&#45;&gt;Node3</title>
<path fill="none" stroke="midnightblue" d="M923,-558.77C916.83,-477.05 900.76,-216.82 940,-145 948.44,-129.55 963.2,-117.46 977.83,-108.54"/>
<polygon fill="midnightblue" stroke="midnightblue" points="919.54,-559.38 923.8,-569.08 926.52,-558.83 919.54,-559.38"/>
</g>
<!-- Node2&#45;&gt;Node5 -->
<g id="edge4" class="edge">
<title>Node2&#45;&gt;Node5</title>
<path fill="none" stroke="midnightblue" d="M946.64,-561.49C968.48,-536.85 999,-494.7 999,-451.5 999,-451.5 999,-451.5 999,-315.5 999,-265.72 1011.25,-207.56 1017.47,-181.23"/>
<polygon fill="midnightblue" stroke="midnightblue" points="943.79,-559.41 939.62,-569.15 948.96,-564.14 943.79,-559.41"/>
</g>
<!-- Node6 -->
<g id="node6" class="node">
<title>Node6</title>
<g id="a_node6"><a xlink:href="graph_2all_8hpp.html" target="_top" xlink:title=" ">
<polygon fill="white" stroke="black" points="570,-301.5 570,-331.5 714,-331.5 714,-301.5 570,-301.5"/>
<text text-anchor="start" x="578" y="-319.5" font-family="Helvetica,sans-Serif" font-size="10.00">/home/ram/OmniTemplate</text>
<text text-anchor="middle" x="642" y="-308.5" font-family="Helvetica,sans-Serif" font-size="10.00">/src/graph/all.hpp</text>
</a>
</g>
</g>
<!-- Node2&#45;&gt;Node6 -->
<g id="edge5" class="edge">
<title>Node2&#45;&gt;Node6</title>
<path fill="none" stroke="midnightblue" d="M917.77,-559.47C906.4,-522.72 883.97,-454.73 868,-435 823.63,-380.17 746.82,-348.05 695.22,-331.63"/>
<polygon fill="midnightblue" stroke="midnightblue" points="914.53,-560.82 920.8,-569.36 921.22,-558.77 914.53,-560.82"/>
</g>
<!-- Node14 -->
<g id="node14" class="node">
<title>Node14</title>
<g id="a_node14"><a xlink:href="core_8hpp.html" target="_top" xlink:title=" ">
<polygon fill="white" stroke="black" points="353,-502.5 353,-532.5 497,-532.5 497,-502.5 353,-502.5"/>
<text text-anchor="start" x="361" y="-520.5" font-family="Helvetica,sans-Serif" font-size="10.00">/home/ram/OmniTemplate</text>
<text text-anchor="middle" x="425" y="-509.5" font-family="Helvetica,sans-Serif" font-size="10.00">/src/graph/core.hpp</text>
</a>
</g>
</g>
<!-- Node2&#45;&gt;Node14 -->
<g id="edge22" class="edge">
<title>Node2&#45;&gt;Node14</title>
<path fill="none" stroke="midnightblue" d="M831.23,-571.31C734.35,-558.72 585.25,-539.33 497.18,-527.88"/>
<polygon fill="midnightblue" stroke="midnightblue" points="830.94,-574.8 841.31,-572.62 831.85,-567.86 830.94,-574.8"/>
</g>
<!-- Node19 -->
<g id="node19" class="node">
<title>Node19</title>
<g id="a_node19"><a xlink:href="flow_8hpp.html" target="_top" xlink:title=" ">
<polygon fill="white" stroke="black" points="715,-435.5 715,-465.5 859,-465.5 859,-435.5 715,-435.5"/>
<text text-anchor="start" x="723" y="-453.5" font-family="Helvetica,sans-Serif" font-size="10.00">/home/ram/OmniTemplate</text>
<text text-anchor="middle" x="787" y="-442.5" font-family="Helvetica,sans-Serif" font-size="10.00">/src/graph/flow.hpp</text>
</a>
</g>
</g>
<!-- Node2&#45;&gt;Node19 -->
<g id="edge48" class="edge">
<title>Node2&#45;&gt;Node19</title>
<path fill="none" stroke="midnightblue" d="M902.78,-562.25C874.34,-535.04 825.87,-488.68 801.66,-465.52"/>
<polygon fill="midnightblue" stroke="midnightblue" points="900.59,-564.99 910.23,-569.37 905.42,-559.93 900.59,-564.99"/>
</g>
<!-- Node4 -->
<g id="node4" class="node">
<title>Node4</title>
<g id="a_node4"><a xlink:href="test_8cpp.html" target="_top" xlink:title=" ">
<polygon fill="white" stroke="black" points="999,-0.5 999,-30.5 1143,-30.5 1143,-0.5 999,-0.5"/>
<text text-anchor="start" x="1007" y="-18.5" font-family="Helvetica,sans-Serif" font-size="10.00">/home/ram/OmniTemplate</text>
<text text-anchor="middle" x="1071" y="-7.5" font-family="Helvetica,sans-Serif" font-size="10.00">/src/test/test.cpp</text>
</a>
</g>
</g>
<!-- Node3&#45;&gt;Node4 -->
<g id="edge3" class="edge">
<title>Node3&#45;&gt;Node4</title>
<path fill="none" stroke="midnightblue" d="M1040.76,-59.14C1047.62,-49.47 1055.02,-39.02 1060.79,-30.89"/>
<polygon fill="midnightblue" stroke="midnightblue" points="1037.86,-57.18 1034.93,-67.36 1043.57,-61.23 1037.86,-57.18"/>
</g>
<!-- Node6&#45;&gt;Node5 -->
<g id="edge6" class="edge">
<title>Node6&#45;&gt;Node5</title>
<path fill="none" stroke="midnightblue" d="M724.36,-310.32C777.7,-304.44 847.5,-291.86 904,-265 947.79,-244.18 988.76,-203.05 1008.57,-181.28"/>
<polygon fill="midnightblue" stroke="midnightblue" points="723.84,-306.86 714.26,-311.38 724.57,-313.82 723.84,-306.86"/>
</g>
<!-- Node7 -->
<g id="node7" class="node">
<title>Node7</title>
<g id="a_node7"><a xlink:href="2sat_8hpp.html" target="_top" xlink:title=" ">
<polygon fill="white" stroke="black" points="311,-229 311,-259 455,-259 455,-229 311,-229"/>
<text text-anchor="start" x="319" y="-247" font-family="Helvetica,sans-Serif" font-size="10.00">/home/ram/OmniTemplate</text>
<text text-anchor="middle" x="383" y="-236" font-family="Helvetica,sans-Serif" font-size="10.00">/src/graph/2sat.hpp</text>
</a>
</g>
</g>
<!-- Node6&#45;&gt;Node7 -->
<g id="edge7" class="edge">
<title>Node6&#45;&gt;Node7</title>
<path fill="none" stroke="midnightblue" d="M580.71,-298.82C536.29,-286.73 476.89,-270.56 434.83,-259.11"/>
<polygon fill="midnightblue" stroke="midnightblue" points="579.95,-302.24 590.52,-301.49 581.79,-295.48 579.95,-302.24"/>
</g>
<!-- Node9 -->
<g id="node9" class="node">
<title>Node9</title>
<g id="a_node9"><a xlink:href="test__all_8hpp.html" target="_top" xlink:title=" ">
<polygon fill="white" stroke="black" points="411,-73 411,-103 555,-103 555,-73 411,-73"/>
<text text-anchor="start" x="419" y="-91" font-family="Helvetica,sans-Serif" font-size="10.00">/home/ram/OmniTemplate</text>
<text text-anchor="middle" x="483" y="-80" font-family="Helvetica,sans-Serif" font-size="10.00">/src/graph/test_all.hpp</text>
</a>
</g>
</g>
<!-- Node6&#45;&gt;Node9 -->
<g id="edge13" class="edge">
<title>Node6&#45;&gt;Node9</title>
<path fill="none" stroke="midnightblue" d="M611.25,-295.24C599.9,-286.79 587.51,-276.31 578,-265 533.55,-212.1 500.8,-135.09 488.42,-103.42"/>
<polygon fill="midnightblue" stroke="midnightblue" points="609.49,-298.29 619.66,-301.29 613.58,-292.61 609.49,-298.29"/>
</g>
<!-- Node10 -->
<g id="node10" class="node">
<title>Node10</title>
<g id="a_node10"><a xlink:href="hld_8hpp.html" target="_top" xlink:title=" ">
<polygon fill="white" stroke="black" points="751,-229 751,-259 895,-259 895,-229 751,-229"/>
<text text-anchor="start" x="759" y="-247" font-family="Helvetica,sans-Serif" font-size="10.00">/home/ram/OmniTemplate</text>
<text text-anchor="middle" x="823" y="-236" font-family="Helvetica,sans-Serif" font-size="10.00">/src/graph/tree/hld.hpp</text>
</a>
</g>
</g>
<!-- Node6&#45;&gt;Node10 -->
<g id="edge14" class="edge">
<title>Node6&#45;&gt;Node10</title>
<path fill="none" stroke="midnightblue" d="M687.82,-297.65C718.53,-285.69 758.4,-270.16 786.87,-259.07"/>
<polygon fill="midnightblue" stroke="midnightblue" points="686.24,-294.51 678.19,-301.4 688.78,-301.03 686.24,-294.51"/>
</g>
<!-- Node12 -->
<g id="node12" class="node">
<title>Node12</title>
<g id="a_node12"><a xlink:href="graph__draw_8hpp.html" target="_top" xlink:title=" ">
<polygon fill="white" stroke="black" points="587,-229 587,-259 733,-259 733,-229 587,-229"/>
<text text-anchor="start" x="595" y="-247" font-family="Helvetica,sans-Serif" font-size="10.00">/home/ram/OmniTemplate</text>
<text text-anchor="middle" x="660" y="-236" font-family="Helvetica,sans-Serif" font-size="10.00">/src/utility/graph_draw.hpp</text>
</a>
</g>
</g>
<!-- Node6&#45;&gt;Node12 -->
<g id="edge18" class="edge">
<title>Node6&#45;&gt;Node12</title>
<path fill="none" stroke="midnightblue" d="M648.2,-291.23C650.92,-280.57 654.02,-268.41 656.36,-259.25"/>
<polygon fill="midnightblue" stroke="midnightblue" points="644.73,-290.68 645.64,-301.23 651.51,-292.41 644.73,-290.68"/>
</g>
<!-- Node7&#45;&gt;Node5 -->
<g id="edge8" class="edge">
<title>Node7&#45;&gt;Node5</title>
<path fill="none" stroke="midnightblue" d="M465.23,-233.2C591.08,-218.21 829.43,-189.82 948.91,-175.59"/>
<polygon fill="midnightblue" stroke="midnightblue" points="464.77,-229.73 455.26,-234.39 465.6,-236.69 464.77,-229.73"/>
</g>
<!-- Node8 -->
<g id="node8" class="node">
<title>Node8</title>
<g id="a_node8"><a xlink:href="test__2sat_8hpp.html" target="_top" xlink:title=" ">
<polygon fill="white" stroke="black" points="273,-151 273,-181 417,-181 417,-151 273,-151"/>
<text text-anchor="start" x="281" y="-169" font-family="Helvetica,sans-Serif" font-size="10.00">/home/ram/OmniTemplate</text>
<text text-anchor="middle" x="345" y="-158" font-family="Helvetica,sans-Serif" font-size="10.00">/src/graph/test_2sat.hpp</text>
</a>
</g>
</g>
<!-- Node7&#45;&gt;Node8 -->
<g id="edge9" class="edge">
<title>Node7&#45;&gt;Node8</title>
<path fill="none" stroke="midnightblue" d="M371.35,-219.7C365.07,-207.14 357.52,-192.04 352.12,-181.23"/>
<polygon fill="midnightblue" stroke="midnightblue" points="368.25,-221.33 375.85,-228.7 374.51,-218.2 368.25,-221.33"/>
</g>
<!-- Node8&#45;&gt;Node4 -->
<g id="edge12" class="edge">
<title>Node8&#45;&gt;Node4</title>
<path fill="none" stroke="midnightblue" d="M351.84,-140.85C359.8,-117.63 375.39,-83.67 402,-67 451.63,-35.91 836.21,-22.5 998.8,-18.18"/>
<polygon fill="midnightblue" stroke="midnightblue" points="348.42,-140.08 348.71,-150.67 355.08,-142.21 348.42,-140.08"/>
</g>
<!-- Node8&#45;&gt;Node9 -->
<g id="edge10" class="edge">
<title>Node8&#45;&gt;Node9</title>
<path fill="none" stroke="midnightblue" d="M379.5,-146C403.72,-132.66 435.57,-115.12 457.5,-103.04"/>
<polygon fill="midnightblue" stroke="midnightblue" points="377.7,-142.99 370.63,-150.88 381.08,-149.12 377.7,-142.99"/>
</g>
<!-- Node9&#45;&gt;Node4 -->
<g id="edge11" class="edge">
<title>Node9&#45;&gt;Node4</title>
<path fill="none" stroke="midnightblue" d="M554.27,-71C561.92,-69.53 569.61,-68.16 577,-67 726.04,-43.6 902.16,-28.59 998.69,-21.44"/>
<polygon fill="midnightblue" stroke="midnightblue" points="553.39,-67.6 544.26,-72.97 554.75,-74.47 553.39,-67.6"/>
</g>
<!-- Node10&#45;&gt;Node5 -->
<g id="edge15" class="edge">
<title>Node10&#45;&gt;Node5</title>
<path fill="none" stroke="midnightblue" d="M869.32,-225.22C904.42,-211.75 951.97,-193.5 984.42,-181.04"/>
<polygon fill="midnightblue" stroke="midnightblue" points="867.86,-222.03 859.78,-228.88 870.37,-228.57 867.86,-222.03"/>
</g>
<!-- Node11 -->
<g id="node11" class="node">
<title>Node11</title>
<g id="a_node11"><a xlink:href="test__hld_8hpp.html" target="_top" xlink:title=" ">
<polygon fill="white" stroke="black" points="781,-73 781,-103 931,-103 931,-73 781,-73"/>
<text text-anchor="start" x="789" y="-91" font-family="Helvetica,sans-Serif" font-size="10.00">/home/ram/OmniTemplate</text>
<text text-anchor="middle" x="856" y="-80" font-family="Helvetica,sans-Serif" font-size="10.00">/src/graph/tree/test_hld.hpp</text>
</a>
</g>
</g>
<!-- Node10&#45;&gt;Node11 -->
<g id="edge16" class="edge">
<title>Node10&#45;&gt;Node11</title>
<path fill="none" stroke="midnightblue" d="M828.19,-218.76C835.16,-186.24 847.32,-129.51 852.96,-103.18"/>
<polygon fill="midnightblue" stroke="midnightblue" points="824.72,-218.28 826.05,-228.79 831.56,-219.74 824.72,-218.28"/>
</g>
<!-- Node11&#45;&gt;Node4 -->
<g id="edge17" class="edge">
<title>Node11&#45;&gt;Node4</title>
<path fill="none" stroke="midnightblue" d="M908.28,-69.86C944.99,-57.82 993.5,-41.91 1027.98,-30.61"/>
<polygon fill="midnightblue" stroke="midnightblue" points="907.15,-66.55 898.73,-72.99 909.33,-73.2 907.15,-66.55"/>
</g>
<!-- Node12&#45;&gt;Node5 -->
<g id="edge19" class="edge">
<title>Node12&#45;&gt;Node5</title>
<path fill="none" stroke="midnightblue" d="M726.47,-226.54C731.72,-225.32 736.94,-224.12 742,-223 812.05,-207.43 892.43,-191.5 948.86,-180.63"/>
<polygon fill="midnightblue" stroke="midnightblue" points="725.32,-223.22 716.39,-228.92 726.93,-230.03 725.32,-223.22"/>
</g>
<!-- Node13 -->
<g id="node13" class="node">
<title>Node13</title>
<g id="a_node13"><a xlink:href="test__graph__draw_8hpp.html" target="_top" xlink:title=" ">
<polygon fill="white" stroke="black" points="619,-67.5 619,-108.5 763,-108.5 763,-67.5 619,-67.5"/>
<text text-anchor="start" x="627" y="-96.5" font-family="Helvetica,sans-Serif" font-size="10.00">/home/ram/OmniTemplate</text>
<text text-anchor="start" x="627" y="-85.5" font-family="Helvetica,sans-Serif" font-size="10.00">/src/utility/test_graph</text>
<text text-anchor="middle" x="691" y="-74.5" font-family="Helvetica,sans-Serif" font-size="10.00">_draw.hpp</text>
</a>
</g>
</g>
<!-- Node12&#45;&gt;Node13 -->
<g id="edge20" class="edge">
<title>Node12&#45;&gt;Node13</title>
<path fill="none" stroke="midnightblue" d="M686.47,-222.17C696.47,-212.65 706.71,-200.48 712,-187 722.24,-160.92 711.29,-128.89 701.76,-108.7"/>
<polygon fill="midnightblue" stroke="midnightblue" points="684.06,-219.63 678.96,-228.92 688.74,-224.84 684.06,-219.63"/>
</g>
<!-- Node13&#45;&gt;Node4 -->
<g id="edge21" class="edge">
<title>Node13&#45;&gt;Node4</title>
<path fill="none" stroke="midnightblue" d="M773.17,-66.82C855.8,-49.9 940.4,-36.11 998.82,-27.14"/>
<polygon fill="midnightblue" stroke="midnightblue" points="772.45,-63.4 763.36,-68.85 773.86,-70.25 772.45,-63.4"/>
</g>
<!-- Node14&#45;&gt;Node6 -->
<g id="edge35" class="edge">
<title>Node14&#45;&gt;Node6</title>
<path fill="none" stroke="midnightblue" d="M507.54,-506.81C567.65,-498.39 642.76,-484.62 668,-466 705.47,-438.36 725.15,-409.97 705,-368 697.54,-352.46 682.7,-340.19 669.3,-331.64"/>
<polygon fill="midnightblue" stroke="midnightblue" points="506.71,-503.39 497.27,-508.22 507.66,-510.33 506.71,-503.39"/>
</g>
<!-- Node14&#45;&gt;Node7 -->
<g id="edge23" class="edge">
<title>Node14&#45;&gt;Node7</title>
<path fill="none" stroke="midnightblue" d="M357.59,-499.3C308.55,-482.71 246.18,-452.08 219,-399 199.15,-360.23 193.66,-336.43 219,-301 225.91,-291.33 286.76,-272.27 332.34,-259.09"/>
<polygon fill="midnightblue" stroke="midnightblue" points="356.61,-502.67 367.2,-502.44 358.78,-496.01 356.61,-502.67"/>
</g>
<!-- Node15 -->
<g id="node15" class="node">
<title>Node15</title>
<g id="a_node15"><a xlink:href="biconnected_8hpp.html" target="_top" xlink:title=" ">
<polygon fill="white" stroke="black" points="18,-368.5 18,-398.5 166,-398.5 166,-368.5 18,-368.5"/>
<text text-anchor="start" x="26" y="-386.5" font-family="Helvetica,sans-Serif" font-size="10.00">/home/ram/OmniTemplate</text>
<text text-anchor="middle" x="92" y="-375.5" font-family="Helvetica,sans-Serif" font-size="10.00">/src/graph/biconnected.hpp</text>
</a>
</g>
</g>
<!-- Node14&#45;&gt;Node15 -->
<g id="edge24" class="edge">
<title>Node14&#45;&gt;Node15</title>
<path fill="none" stroke="midnightblue" d="M342.89,-509.5C295.14,-502.95 234.93,-490.32 186,-466 152.15,-449.18 120.65,-417.27 104.11,-398.76"/>
<polygon fill="midnightblue" stroke="midnightblue" points="342.51,-512.98 352.88,-510.81 343.42,-506.04 342.51,-512.98"/>
</g>
<!-- Node17 -->
<g id="node17" class="node">
<title>Node17</title>
<g id="a_node17"><a xlink:href="bipartite_8hpp.html" target="_top" xlink:title=" ">
<polygon fill="white" stroke="black" points="390,-368.5 390,-398.5 534,-398.5 534,-368.5 390,-368.5"/>
<text text-anchor="start" x="398" y="-386.5" font-family="Helvetica,sans-Serif" font-size="10.00">/home/ram/OmniTemplate</text>
<text text-anchor="middle" x="462" y="-375.5" font-family="Helvetica,sans-Serif" font-size="10.00">/src/graph/bipartite.hpp</text>
</a>
</g>
</g>
<!-- Node14&#45;&gt;Node17 -->
<g id="edge30" class="edge">
<title>Node14&#45;&gt;Node17</title>
<path fill="none" stroke="midnightblue" d="M377.24,-497.45C364.11,-489.74 351.45,-479.42 344,-466 337.31,-453.95 336.41,-446.5 344,-435 355.54,-417.52 374.51,-406.06 393.9,-398.57"/>
<polygon fill="midnightblue" stroke="midnightblue" points="375.88,-500.69 386.34,-502.37 379.21,-494.54 375.88,-500.69"/>
</g>
<!-- Node14&#45;&gt;Node19 -->
<g id="edge36" class="edge">
<title>Node14&#45;&gt;Node19</title>
<path fill="none" stroke="midnightblue" d="M507.6,-501.67C570.06,-490.45 654.97,-475.21 714.74,-464.47"/>
<polygon fill="midnightblue" stroke="midnightblue" points="506.61,-498.29 497.39,-503.5 507.85,-505.18 506.61,-498.29"/>
</g>
<!-- Node21 -->
<g id="node21" class="node">
<title>Node21</title>
<g id="a_node21"><a xlink:href="graph__view_8hpp.html" target="_top" xlink:title=" ">
<polygon fill="white" stroke="black" points="228,-368.5 228,-398.5 372,-398.5 372,-368.5 228,-368.5"/>
<text text-anchor="start" x="236" y="-386.5" font-family="Helvetica,sans-Serif" font-size="10.00">/home/ram/OmniTemplate</text>
<text text-anchor="middle" x="300" y="-375.5" font-family="Helvetica,sans-Serif" font-size="10.00">/src/graph/graph_view.hpp</text>
</a>
</g>
</g>
<!-- Node14&#45;&gt;Node21 -->
<g id="edge41" class="edge">
<title>Node14&#45;&gt;Node21</title>
<path fill="none" stroke="midnightblue" d="M378.96,-498.01C363.44,-490.01 347.02,-479.36 335,-466 317.29,-446.31 307.58,-416.29 303.11,-398.71"/>
<polygon fill="midnightblue" stroke="midnightblue" points="377.44,-501.16 387.96,-502.42 380.52,-494.88 377.44,-501.16"/>
</g>
<!-- Node24 -->
<g id="node24" class="node">
<title>Node24</title>
<g id="a_node24"><a xlink:href="lca_8hpp.html" target="_top" xlink:title=" ">
<polygon fill="white" stroke="black" points="353,-435.5 353,-465.5 497,-465.5 497,-435.5 353,-435.5"/>
<text text-anchor="start" x="361" y="-453.5" font-family="Helvetica,sans-Serif" font-size="10.00">/home/ram/OmniTemplate</text>
<text text-anchor="middle" x="425" y="-442.5" font-family="Helvetica,sans-Serif" font-size="10.00">/src/graph/tree/lca.hpp</text>
</a>
</g>
</g>
<!-- Node14&#45;&gt;Node24 -->
<g id="edge46" class="edge">
<title>Node14&#45;&gt;Node24</title>
<path fill="none" stroke="midnightblue" d="M425,-492.11C425,-483.15 425,-473.32 425,-465.58"/>
<polygon fill="midnightblue" stroke="midnightblue" points="421.5,-492.4 425,-502.4 428.5,-492.4 421.5,-492.4"/>
</g>
<!-- Node25 -->
<g id="node25" class="node">
<title>Node25</title>
<g id="a_node25"><a xlink:href="my__int_8hpp.html" target="_top" xlink:title=" ">
<polygon fill="white" stroke="black" points="515,-435.5 515,-465.5 659,-465.5 659,-435.5 515,-435.5"/>
<text text-anchor="start" x="523" y="-453.5" font-family="Helvetica,sans-Serif" font-size="10.00">/home/ram/OmniTemplate</text>
<text text-anchor="middle" x="587" y="-442.5" font-family="Helvetica,sans-Serif" font-size="10.00">/src/utility/my_int.hpp</text>
</a>
</g>
</g>
<!-- Node14&#45;&gt;Node25 -->
<g id="edge47" class="edge">
<title>Node14&#45;&gt;Node25</title>
<path fill="none" stroke="midnightblue" d="M469.75,-498.54C495.67,-488.14 527.84,-475.24 551.92,-465.58"/>
<polygon fill="midnightblue" stroke="midnightblue" points="468.13,-495.42 460.15,-502.4 470.74,-501.92 468.13,-495.42"/>
</g>
<!-- Node15&#45;&gt;Node6 -->
<g id="edge25" class="edge">
<title>Node15&#45;&gt;Node6</title>
<path fill="none" stroke="midnightblue" d="M176.35,-372.53C284.01,-359.81 468.43,-338.01 569.87,-326.02"/>
<polygon fill="midnightblue" stroke="midnightblue" points="175.7,-369.08 166.18,-373.73 176.52,-376.04 175.7,-369.08"/>
</g>
<!-- Node16 -->
<g id="node16" class="node">
<title>Node16</title>
<g id="a_node16"><a xlink:href="test__biconnected_8hpp.html" target="_top" xlink:title=" ">
<polygon fill="white" stroke="black" points="0,-301.5 0,-331.5 172,-331.5 172,-301.5 0,-301.5"/>
<text text-anchor="start" x="8" y="-319.5" font-family="Helvetica,sans-Serif" font-size="10.00">/home/ram/OmniTemplate</text>
<text text-anchor="middle" x="86" y="-308.5" font-family="Helvetica,sans-Serif" font-size="10.00">/src/graph/test_biconnected.hpp</text>
</a>
</g>
</g>
<!-- Node15&#45;&gt;Node16 -->
<g id="edge26" class="edge">
<title>Node15&#45;&gt;Node16</title>
<path fill="none" stroke="midnightblue" d="M83.23,-358.4C81.95,-349.37 81.32,-339.41 81.62,-331.58"/>
<polygon fill="midnightblue" stroke="midnightblue" points="79.81,-359.17 85.02,-368.4 86.7,-357.94 79.81,-359.17"/>
</g>
<!-- Node16&#45;&gt;Node4 -->
<g id="edge29" class="edge">
<title>Node16&#45;&gt;Node4</title>
<path fill="none" stroke="midnightblue" d="M82.03,-291.36C79.83,-272.32 78.81,-245.34 86,-223 99.07,-182.38 107.86,-170.61 142,-145 225.32,-82.49 261.03,-88.23 363,-67 482.96,-42.03 843.82,-25.38 998.89,-19.19"/>
<polygon fill="midnightblue" stroke="midnightblue" points="78.56,-291.85 83.37,-301.3 85.5,-290.92 78.56,-291.85"/>
</g>
<!-- Node16&#45;&gt;Node9 -->
<g id="edge28" class="edge">
<title>Node16&#45;&gt;Node9</title>
<path fill="none" stroke="midnightblue" d="M86.26,-291.39C87.65,-271.16 92.53,-242.52 108,-223 181.44,-130.36 324.09,-101.69 410.72,-92.87"/>
<polygon fill="midnightblue" stroke="midnightblue" points="82.76,-291.23 85.8,-301.38 89.75,-291.55 82.76,-291.23"/>
</g>
<!-- Node16&#45;&gt;Node15 -->
<g id="edge27" class="edge">
<title>Node16&#45;&gt;Node15</title>
<path fill="none" stroke="midnightblue" d="M94.77,-341.57C96.05,-350.6 96.68,-360.56 96.38,-368.4"/>
<polygon fill="midnightblue" stroke="midnightblue" points="98.18,-340.8 92.97,-331.58 91.29,-342.04 98.18,-340.8"/>
</g>
<!-- Node17&#45;&gt;Node6 -->
<g id="edge31" class="edge">
<title>Node17&#45;&gt;Node6</title>
<path fill="none" stroke="midnightblue" d="M510.59,-364.96C539.58,-354.48 575.91,-341.37 603.02,-331.58"/>
<polygon fill="midnightblue" stroke="midnightblue" points="509.27,-361.71 501.06,-368.4 511.65,-368.29 509.27,-361.71"/>
</g>
<!-- Node18 -->
<g id="node18" class="node">
<title>Node18</title>
<g id="a_node18"><a xlink:href="test__bipartite_8hpp.html" target="_top" xlink:title=" ">
<polygon fill="white" stroke="black" points="549,-151 549,-181 703,-181 703,-151 549,-151"/>
<text text-anchor="start" x="557" y="-169" font-family="Helvetica,sans-Serif" font-size="10.00">/home/ram/OmniTemplate</text>
<text text-anchor="middle" x="626" y="-158" font-family="Helvetica,sans-Serif" font-size="10.00">/src/graph/test_bipartite.hpp</text>
</a>
</g>
</g>
<!-- Node17&#45;&gt;Node18 -->
<g id="edge32" class="edge">
<title>Node17&#45;&gt;Node18</title>
<path fill="none" stroke="midnightblue" d="M477.75,-359.66C499.56,-328.31 540.52,-270.44 578,-223 589.59,-208.33 603.57,-192.18 613.45,-181.01"/>
<polygon fill="midnightblue" stroke="midnightblue" points="474.69,-357.92 471.87,-368.14 480.45,-361.91 474.69,-357.92"/>
</g>
<!-- Node18&#45;&gt;Node4 -->
<g id="edge34" class="edge">
<title>Node18&#45;&gt;Node4</title>
<path fill="none" stroke="midnightblue" d="M612.7,-141.69C602.13,-119.72 591.86,-87.24 610,-67 635.46,-38.6 875.83,-24.57 998.99,-19.2"/>
<polygon fill="midnightblue" stroke="midnightblue" points="609.64,-143.38 617.32,-150.68 615.86,-140.18 609.64,-143.38"/>
</g>
<!-- Node18&#45;&gt;Node9 -->
<g id="edge33" class="edge">
<title>Node18&#45;&gt;Node9</title>
<path fill="none" stroke="midnightblue" d="M590.58,-146.17C565.44,-132.82 532.25,-115.18 509.42,-103.04"/>
<polygon fill="midnightblue" stroke="midnightblue" points="588.96,-149.28 599.44,-150.88 592.25,-143.1 588.96,-149.28"/>
</g>
<!-- Node19&#45;&gt;Node6 -->
<g id="edge37" class="edge">
<title>Node19&#45;&gt;Node6</title>
<path fill="none" stroke="midnightblue" d="M776.96,-425.64C768.59,-408 755.26,-384.3 738,-368 721.3,-352.22 698.71,-340.02 679.64,-331.56"/>
<polygon fill="midnightblue" stroke="midnightblue" points="773.99,-427.57 781.3,-435.23 780.36,-424.68 773.99,-427.57"/>
</g>
<!-- Node20 -->
<g id="node20" class="node">
<title>Node20</title>
<g id="a_node20"><a xlink:href="test__flow_8hpp.html" target="_top" xlink:title=" ">
<polygon fill="white" stroke="black" points="552,-368.5 552,-398.5 696,-398.5 696,-368.5 552,-368.5"/>
<text text-anchor="start" x="560" y="-386.5" font-family="Helvetica,sans-Serif" font-size="10.00">/home/ram/OmniTemplate</text>
<text text-anchor="middle" x="624" y="-375.5" font-family="Helvetica,sans-Serif" font-size="10.00">/src/graph/test_flow.hpp</text>
</a>
</g>
</g>
<!-- Node19&#45;&gt;Node20 -->
<g id="edge38" class="edge">
<title>Node19&#45;&gt;Node20</title>
<path fill="none" stroke="midnightblue" d="M742.32,-431.68C716.17,-421.26 683.63,-408.28 659.3,-398.58"/>
<polygon fill="midnightblue" stroke="midnightblue" points="741.05,-434.94 751.63,-435.4 743.64,-428.44 741.05,-434.94"/>
</g>
<!-- Node20&#45;&gt;Node6 -->
<g id="edge39" class="edge">
<title>Node20&#45;&gt;Node6</title>
<path fill="none" stroke="midnightblue" d="M630.59,-358.7C633.11,-349.59 635.91,-339.49 638.1,-331.58"/>
<polygon fill="midnightblue" stroke="midnightblue" points="627.2,-357.82 627.91,-368.4 633.95,-359.69 627.2,-357.82"/>
</g>
<!-- Node20&#45;&gt;Node9 -->
<g id="edge40" class="edge">
<title>Node20&#45;&gt;Node9</title>
<path fill="none" stroke="midnightblue" d="M592.79,-362.52C581.61,-354.16 569.65,-343.67 561,-332 505.86,-257.6 488.77,-142.72 484.35,-103.04"/>
<polygon fill="midnightblue" stroke="midnightblue" points="590.95,-365.51 601.12,-368.48 595.03,-359.82 590.95,-365.51"/>
</g>
<!-- Node21&#45;&gt;Node6 -->
<g id="edge42" class="edge">
<title>Node21&#45;&gt;Node6</title>
<path fill="none" stroke="midnightblue" d="M382.22,-366.87C439.47,-355.99 515.1,-341.62 569.99,-331.19"/>
<polygon fill="midnightblue" stroke="midnightblue" points="381.28,-363.49 372.11,-368.79 382.59,-370.37 381.28,-363.49"/>
</g>
<!-- Node22 -->
<g id="node22" class="node">
<title>Node22</title>
<g id="a_node22"><a xlink:href="centroid_8hpp.html" target="_top" xlink:title=" ">
<polygon fill="white" stroke="black" points="228.5,-301.5 228.5,-331.5 379.5,-331.5 379.5,-301.5 228.5,-301.5"/>
<text text-anchor="start" x="236.5" y="-319.5" font-family="Helvetica,sans-Serif" font-size="10.00">/home/ram/OmniTemplate</text>
<text text-anchor="middle" x="304" y="-308.5" font-family="Helvetica,sans-Serif" font-size="10.00">/src/graph/tree/centroid.hpp</text>
</a>
</g>
</g>
<!-- Node21&#45;&gt;Node22 -->
<g id="edge43" class="edge">
<title>Node21&#45;&gt;Node22</title>
<path fill="none" stroke="midnightblue" d="M301.48,-358.4C302.04,-349.37 302.65,-339.41 303.13,-331.58"/>
<polygon fill="midnightblue" stroke="midnightblue" points="297.99,-358.2 300.87,-368.4 304.98,-358.63 297.99,-358.2"/>
</g>
<!-- Node23 -->
<g id="node23" class="node">
<title>Node23</title>
<g id="a_node23"><a xlink:href="test__centroid_8hpp.html" target="_top" xlink:title=" ">
<polygon fill="white" stroke="black" points="117.5,-229 117.5,-259 292.5,-259 292.5,-229 117.5,-229"/>
<text text-anchor="start" x="125.5" y="-247" font-family="Helvetica,sans-Serif" font-size="10.00">/home/ram/OmniTemplate</text>
<text text-anchor="middle" x="205" y="-236" font-family="Helvetica,sans-Serif" font-size="10.00">/src/graph/tree/test_centroid.hpp</text>
</a>
</g>
</g>
<!-- Node22&#45;&gt;Node23 -->
<g id="edge44" class="edge">
<title>Node22&#45;&gt;Node23</title>
<path fill="none" stroke="midnightblue" d="M275.82,-295.43C259.47,-283.79 239.3,-269.42 224.67,-259"/>
<polygon fill="midnightblue" stroke="midnightblue" points="273.79,-298.28 283.97,-301.23 277.85,-292.58 273.79,-298.28"/>
</g>
<!-- Node23&#45;&gt;Node9 -->
<g id="edge45" class="edge">
<title>Node23&#45;&gt;Node9</title>
<path fill="none" stroke="midnightblue" d="M281.12,-226.76C340.24,-213.64 414.14,-195.94 426,-187 454.76,-165.31 471.53,-124.55 478.75,-103.07"/>
<polygon fill="midnightblue" stroke="midnightblue" points="280.03,-223.42 271.02,-228.99 281.54,-230.25 280.03,-223.42"/>
</g>
<!-- Node26&#45;&gt;Node2 -->
<g id="edge50" class="edge">
<title>Node26&#45;&gt;Node2</title>
<path fill="none" stroke="midnightblue" d="M1108.45,-639.16C1067.18,-627.09 1012.2,-611.01 973.22,-599.61"/>
<polygon fill="midnightblue" stroke="midnightblue" points="1107.52,-642.54 1118.1,-641.99 1109.48,-635.82 1107.52,-642.54"/>
</g>
<!-- Node26&#45;&gt;Node5 -->
<g id="edge53" class="edge">
<title>Node26&#45;&gt;Node5</title>
<path fill="none" stroke="midnightblue" d="M1140.88,-635.24C1113.94,-610.5 1075,-566.44 1075,-518.5 1075,-518.5 1075,-518.5 1075,-315.5 1075,-263.38 1045.25,-206.82 1029.92,-181.13"/>
<polygon fill="midnightblue" stroke="midnightblue" points="1138.66,-637.95 1148.45,-641.99 1143.31,-632.72 1138.66,-637.95"/>
</g>
<!-- Node27 -->
<g id="node27" class="node">
<title>Node27</title>
<g id="a_node27"><a xlink:href="test__polynomial_8hpp.html" target="_top" xlink:title=" ">
<polygon fill="white" stroke="black" points="1103,-502.5 1103,-532.5 1279,-532.5 1279,-502.5 1103,-502.5"/>
<text text-anchor="start" x="1111" y="-520.5" font-family="Helvetica,sans-Serif" font-size="10.00">/home/ram/OmniTemplate</text>
<text text-anchor="middle" x="1191" y="-509.5" font-family="Helvetica,sans-Serif" font-size="10.00">/src/algebra/test_polynomial.hpp</text>
</a>
</g>
</g>
<!-- Node26&#45;&gt;Node27 -->
<g id="edge51" class="edge">
<title>Node26&#45;&gt;Node27</title>
<path fill="none" stroke="midnightblue" d="M1170.4,-631.79C1175.62,-603.11 1184.13,-556.28 1188.4,-532.83"/>
<polygon fill="midnightblue" stroke="midnightblue" points="1166.93,-631.34 1168.58,-641.8 1173.81,-632.59 1166.93,-631.34"/>
</g>
<!-- Node27&#45;&gt;Node4 -->
<g id="edge52" class="edge">
<title>Node27&#45;&gt;Node4</title>
<path fill="none" stroke="midnightblue" d="M1168.49,-495.03C1145.45,-470.63 1113,-428.46 1113,-384.5 1113,-384.5 1113,-384.5 1113,-315.5 1113,-204.95 1134.4,-172.7 1102,-67 1097.9,-53.62 1089.41,-40.21 1082.35,-30.57"/>
<polygon fill="midnightblue" stroke="midnightblue" points="1166.1,-497.59 1175.59,-502.3 1171.11,-492.7 1166.1,-497.59"/>
</g>
<!-- Node28&#45;&gt;Node5 -->
<g id="edge57" class="edge">
<title>Node28&#45;&gt;Node5</title>
<path fill="none" stroke="midnightblue" d="M1489.34,-227.19C1480.81,-225.68 1472.23,-224.25 1464,-223 1320.75,-201.3 1283.5,-207.01 1140,-187 1124.85,-184.89 1108.67,-182.35 1093.27,-179.81"/>
<polygon fill="midnightblue" stroke="midnightblue" points="1488.86,-230.66 1499.32,-229 1490.11,-223.77 1488.86,-230.66"/>
</g>
<!-- Node29 -->
<g id="node29" class="node">
<title>Node29</title>
<g id="a_node29"><a xlink:href="test__permutation_8hpp.html" target="_top" xlink:title=" ">
<polygon fill="white" stroke="black" points="1291,-67.5 1291,-108.5 1435,-108.5 1435,-67.5 1291,-67.5"/>
<text text-anchor="start" x="1299" y="-96.5" font-family="Helvetica,sans-Serif" font-size="10.00">/home/ram/OmniTemplate</text>
<text text-anchor="start" x="1299" y="-85.5" font-family="Helvetica,sans-Serif" font-size="10.00">/src/combinatorics/test</text>
<text text-anchor="middle" x="1363" y="-74.5" font-family="Helvetica,sans-Serif" font-size="10.00">_permutation.hpp</text>
</a>
</g>
</g>
<!-- Node28&#45;&gt;Node29 -->
<g id="edge55" class="edge">
<title>Node28&#45;&gt;Node29</title>
<path fill="none" stroke="midnightblue" d="M1542.28,-222.51C1529.79,-212.23 1514.75,-199.35 1502,-187 1483.92,-169.49 1483.72,-160.65 1464,-145 1446.25,-130.92 1424.49,-118.36 1405.72,-108.72"/>
<polygon fill="midnightblue" stroke="midnightblue" points="1540.12,-225.26 1550.08,-228.87 1544.54,-219.84 1540.12,-225.26"/>
</g>
<!-- Node28&#45;&gt;Node30 -->
<g id="edge58" class="edge">
<title>Node28&#45;&gt;Node30</title>
<path fill="none" stroke="midnightblue" d="M1573.14,-218.59C1575.74,-206.26 1578.8,-191.72 1581,-181.23"/>
<polygon fill="midnightblue" stroke="midnightblue" points="1569.64,-218.2 1571.01,-228.7 1576.49,-219.64 1569.64,-218.2"/>
</g>
<!-- Node29&#45;&gt;Node4 -->
<g id="edge56" class="edge">
<title>Node29&#45;&gt;Node4</title>
<path fill="none" stroke="midnightblue" d="M1281,-67.2C1232.65,-55.53 1172.62,-41.03 1129.14,-30.54"/>
<polygon fill="midnightblue" stroke="midnightblue" points="1280.28,-70.63 1290.82,-69.57 1281.92,-63.82 1280.28,-70.63"/>
</g>
<!-- Node31 -->
<g id="node31" class="node">
<title>Node31</title>
<g id="a_node31"><a xlink:href="test__suffix__array_8hpp.html" target="_top" xlink:title=" ">
<polygon fill="white" stroke="black" points="1465,-67.5 1465,-108.5 1609,-108.5 1609,-67.5 1465,-67.5"/>
<text text-anchor="start" x="1473" y="-96.5" font-family="Helvetica,sans-Serif" font-size="10.00">/home/ram/OmniTemplate</text>
<text text-anchor="start" x="1473" y="-85.5" font-family="Helvetica,sans-Serif" font-size="10.00">/src/string/test_suffix</text>
<text text-anchor="middle" x="1537" y="-74.5" font-family="Helvetica,sans-Serif" font-size="10.00">_array.hpp</text>
</a>
</g>
</g>
<!-- Node30&#45;&gt;Node31 -->
<g id="edge59" class="edge">
<title>Node30&#45;&gt;Node31</title>
<path fill="none" stroke="midnightblue" d="M1569.75,-141.95C1563.18,-131.33 1555.46,-118.85 1549.17,-108.68"/>
<polygon fill="midnightblue" stroke="midnightblue" points="1566.92,-144.04 1575.16,-150.7 1572.88,-140.36 1566.92,-144.04"/>
</g>
<!-- Node31&#45;&gt;Node4 -->
<g id="edge60" class="edge">
<title>Node31&#45;&gt;Node4</title>
<path fill="none" stroke="midnightblue" d="M1454.94,-68.99C1451.25,-68.3 1447.59,-67.63 1444,-67 1339.88,-48.78 1218.43,-33.43 1143.11,-24.59"/>
<polygon fill="midnightblue" stroke="midnightblue" points="1454.28,-72.43 1464.76,-70.89 1455.61,-65.56 1454.28,-72.43"/>
</g>
<!-- Node32&#45;&gt;Node4 -->
<g id="edge63" class="edge">
<title>Node32&#45;&gt;Node4</title>
<path fill="none" stroke="midnightblue" d="M1729,-558.99C1729,-532.49 1729,-489 1729,-451.5 1729,-451.5 1729,-451.5 1729,-165 1729,-99.19 1678.42,-93.09 1618,-67 1534.5,-30.94 1271.74,-20.58 1143.22,-17.64"/>
<polygon fill="midnightblue" stroke="midnightblue" points="1725.5,-559.24 1729,-569.24 1732.5,-559.24 1725.5,-559.24"/>
</g>
<!-- Node33&#45;&gt;Node5 -->
<g id="edge65" class="edge">
<title>Node33&#45;&gt;Node5</title>
<path fill="none" stroke="midnightblue" d="M1157.09,-219.77C1124.53,-207.15 1085.33,-191.94 1057.38,-181.11"/>
<polygon fill="midnightblue" stroke="midnightblue" points="1155.94,-223.08 1166.53,-223.43 1158.47,-216.55 1155.94,-223.08"/>
</g>
<!-- Node34 -->
<g id="node34" class="node">
<title>Node34</title>
<g id="a_node34"><a xlink:href="test__number__theory_8hpp.html" target="_top" xlink:title=" ">
<polygon fill="white" stroke="black" points="1149,-145.5 1149,-186.5 1293,-186.5 1293,-145.5 1149,-145.5"/>
<text text-anchor="start" x="1157" y="-174.5" font-family="Helvetica,sans-Serif" font-size="10.00">/home/ram/OmniTemplate</text>
<text text-anchor="start" x="1157" y="-163.5" font-family="Helvetica,sans-Serif" font-size="10.00">/src/number_theory/test</text>
<text text-anchor="middle" x="1221" y="-152.5" font-family="Helvetica,sans-Serif" font-size="10.00">_number_theory.hpp</text>
</a>
</g>
</g>
<!-- Node33&#45;&gt;Node34 -->
<g id="edge66" class="edge">
<title>Node33&#45;&gt;Node34</title>
<path fill="none" stroke="midnightblue" d="M1218.56,-213.3C1219.04,-204.3 1219.54,-194.65 1219.97,-186.51"/>
<polygon fill="midnightblue" stroke="midnightblue" points="1215.06,-213.26 1218.03,-223.43 1222.05,-213.63 1215.06,-213.26"/>
</g>
<!-- Node34&#45;&gt;Node4 -->
<g id="edge67" class="edge">
<title>Node34&#45;&gt;Node4</title>
<path fill="none" stroke="midnightblue" d="M1199.03,-137.33C1182.35,-117.01 1158.38,-89.19 1135,-67 1121.04,-53.75 1103.85,-40.32 1090.8,-30.65"/>
<polygon fill="midnightblue" stroke="midnightblue" points="1196.46,-139.72 1205.49,-145.27 1201.89,-135.31 1196.46,-139.72"/>
</g>
<!-- Node35&#45;&gt;Node4 -->
<g id="edge69" class="edge">
<title>Node35&#45;&gt;Node4</title>
<path fill="none" stroke="midnightblue" d="M1822.21,-626.25C1828.28,-598.54 1836,-555.97 1836,-518.5 1836,-518.5 1836,-518.5 1836,-165 1836,-81.61 1755.25,-92.95 1676,-67 1578.84,-35.19 1281.5,-22.59 1143.17,-18.35"/>
<polygon fill="midnightblue" stroke="midnightblue" points="1818.77,-625.58 1819.98,-636.11 1825.6,-627.13 1818.77,-625.58"/>
</g>
<!-- Node36&#45;&gt;Node5 -->
<g id="edge71" class="edge">
<title>Node36&#45;&gt;Node5</title>
<path fill="none" stroke="midnightblue" d="M1317.34,-226.52C1312.16,-225.3 1307,-224.11 1302,-223 1231.24,-207.22 1149.96,-191.26 1093.09,-180.43"/>
<polygon fill="midnightblue" stroke="midnightblue" points="1316.77,-229.98 1327.3,-228.9 1318.39,-223.17 1316.77,-229.98"/>
</g>
<!-- Node37 -->
<g id="node37" class="node">
<title>Node37</title>
<g id="a_node37"><a xlink:href="test__string_8hpp.html" target="_top" xlink:title=" ">
<polygon fill="white" stroke="black" points="1311,-151 1311,-181 1455,-181 1455,-151 1311,-151"/>
<text text-anchor="start" x="1319" y="-169" font-family="Helvetica,sans-Serif" font-size="10.00">/home/ram/OmniTemplate</text>
<text text-anchor="middle" x="1383" y="-158" font-family="Helvetica,sans-Serif" font-size="10.00">/src/string/test_string.hpp</text>
</a>
</g>
</g>
<!-- Node36&#45;&gt;Node37 -->
<g id="edge72" class="edge">
<title>Node36&#45;&gt;Node37</title>
<path fill="none" stroke="midnightblue" d="M1383,-218.59C1383,-206.26 1383,-191.72 1383,-181.23"/>
<polygon fill="midnightblue" stroke="midnightblue" points="1379.5,-218.7 1383,-228.7 1386.5,-218.71 1379.5,-218.7"/>
</g>
<!-- Node37&#45;&gt;Node4 -->
<g id="edge73" class="edge">
<title>Node37&#45;&gt;Node4</title>
<path fill="none" stroke="midnightblue" d="M1344.12,-146.49C1280.85,-116.38 1156.99,-57.43 1100.44,-30.51"/>
<polygon fill="midnightblue" stroke="midnightblue" points="1342.83,-149.76 1353.37,-150.9 1345.84,-143.44 1342.83,-149.76"/>
</g>
</g>
</svg>
