<?xml version="1.0" encoding="UTF-8" standalone="no"?>
<!DOCTYPE svg PUBLIC "-//W3C//DTD SVG 1.1//EN"
 "http://www.w3.org/Graphics/SVG/1.1/DTD/svg11.dtd">
<!-- Generated by graphviz version 2.43.0 (0)
 -->
<!-- Title: test_modulo Pages: 1 -->
<svg width="476pt" height="66pt"
 viewBox="0.00 0.00 476.00 66.00" xmlns="http://www.w3.org/2000/svg" xmlns:xlink="http://www.w3.org/1999/xlink">
<g id="graph0" class="graph" transform="scale(1 1) rotate(0) translate(4 62)">
<title>test_modulo</title>
<polygon fill="white" stroke="transparent" points="-4,4 -4,-62 472,-62 472,4 -4,4"/>
<!-- Node1 -->
<g id="node1" class="node">
<title>Node1</title>
<g id="a_node1"><a xlink:title=" ">
<polygon fill="#bfbfbf" stroke="black" points="0,-19.5 0,-38.5 77,-38.5 77,-19.5 0,-19.5"/>
<text text-anchor="middle" x="38.5" y="-26.5" font-family="Helvetica,sans-Serif" font-size="10.00">test_modulo</text>
</a>
</g>
</g>
<!-- Node2 -->
<g id="node2" class="node">
<title>Node2</title>
<g id="a_node2"><a xlink:href="modulo_8hpp.html#af249c063d4cee0dc930796b8728265e0" target="_top" xlink:title=" ">
<polygon fill="white" stroke="black" points="120.5,-38.5 120.5,-57.5 176.5,-57.5 176.5,-38.5 120.5,-38.5"/>
<text text-anchor="middle" x="148.5" y="-45.5" font-family="Helvetica,sans-Serif" font-size="10.00">test_md</text>
</a>
</g>
</g>
<!-- Node1&#45;&gt;Node2 -->
<g id="edge1" class="edge">
<title>Node1&#45;&gt;Node2</title>
<path fill="none" stroke="midnightblue" d="M77.27,-35.65C88.06,-37.54 99.8,-39.61 110.54,-41.5"/>
<polygon fill="midnightblue" stroke="midnightblue" points="110.01,-44.96 120.46,-43.24 111.22,-38.06 110.01,-44.96"/>
</g>
<!-- Node4 -->
<g id="node4" class="node">
<title>Node4</title>
<g id="a_node4"><a xlink:href="modulo_8hpp.html#af63abc641089d55f193ed28ed00f7eaa" target="_top" xlink:title=" ">
<polygon fill="white" stroke="black" points="113,-0.5 113,-19.5 184,-19.5 184,-0.5 113,-0.5"/>
<text text-anchor="middle" x="148.5" y="-7.5" font-family="Helvetica,sans-Serif" font-size="10.00">test_power</text>
</a>
</g>
</g>
<!-- Node1&#45;&gt;Node4 -->
<g id="edge3" class="edge">
<title>Node1&#45;&gt;Node4</title>
<path fill="none" stroke="midnightblue" d="M77.27,-22.35C85.49,-20.91 94.26,-19.37 102.72,-17.88"/>
<polygon fill="midnightblue" stroke="midnightblue" points="103.58,-21.28 112.82,-16.1 102.37,-14.39 103.58,-21.28"/>
</g>
<!-- Node3 -->
<g id="node3" class="node">
<title>Node3</title>
<g id="a_node3"><a xlink:href="namespacemodulo__namespace.html#a3e7d17a70dd5b958c5dba586ab30fcb8" target="_top" xlink:title=" ">
<polygon fill="white" stroke="black" points="220,-38.5 220,-57.5 378,-57.5 378,-38.5 220,-38.5"/>
<text text-anchor="middle" x="299" y="-45.5" font-family="Helvetica,sans-Serif" font-size="10.00">modulo_namespace::modulo</text>
</a>
</g>
</g>
<!-- Node2&#45;&gt;Node3 -->
<g id="edge2" class="edge">
<title>Node2&#45;&gt;Node3</title>
<path fill="none" stroke="midnightblue" d="M176.74,-48C186.35,-48 197.76,-48 209.66,-48"/>
<polygon fill="midnightblue" stroke="midnightblue" points="209.75,-51.5 219.75,-48 209.75,-44.5 209.75,-51.5"/>
</g>
<!-- Node4&#45;&gt;Node3 -->
<g id="edge4" class="edge">
<title>Node4&#45;&gt;Node3</title>
<path fill="none" stroke="midnightblue" d="M184.24,-19.54C195.62,-22.62 208.34,-26.01 220,-29 229.02,-31.31 238.65,-33.72 247.95,-36"/>
<polygon fill="midnightblue" stroke="midnightblue" points="247.33,-39.45 257.87,-38.42 248.99,-32.65 247.33,-39.45"/>
</g>
<!-- Node5 -->
<g id="node5" class="node">
<title>Node5</title>
<g id="a_node5"><a xlink:href="namespacemodulo__namespace.html#a8e6fc91a032b336ea0bbed9eabf54f69" target="_top" xlink:title="Returns .">
<polygon fill="white" stroke="black" points="223.5,-0.5 223.5,-19.5 374.5,-19.5 374.5,-0.5 223.5,-0.5"/>
<text text-anchor="middle" x="299" y="-7.5" font-family="Helvetica,sans-Serif" font-size="10.00">modulo_namespace::power</text>
</a>
</g>
</g>
<!-- Node4&#45;&gt;Node5 -->
<g id="edge5" class="edge">
<title>Node4&#45;&gt;Node5</title>
<path fill="none" stroke="midnightblue" d="M184.32,-10C193.13,-10 202.98,-10 213.1,-10"/>
<polygon fill="midnightblue" stroke="midnightblue" points="213.28,-13.5 223.28,-10 213.28,-6.5 213.28,-13.5"/>
</g>
<!-- Node6 -->
<g id="node6" class="node">
<title>Node6</title>
<g id="a_node6"><a xlink:href="modulo_8hpp.html#a146074c3251f452432e782dd110a5347" target="_top" xlink:title=" ">
<polygon fill="white" stroke="black" points="414,-38.5 414,-57.5 468,-57.5 468,-38.5 414,-38.5"/>
<text text-anchor="middle" x="441" y="-45.5" font-family="Helvetica,sans-Serif" font-size="10.00">identity</text>
</a>
</g>
</g>
<!-- Node5&#45;&gt;Node6 -->
<g id="edge6" class="edge">
<title>Node5&#45;&gt;Node6</title>
<path fill="none" stroke="midnightblue" d="M341,-19.51C352.97,-22.42 366.04,-25.71 378,-29 386.5,-31.34 395.61,-34.02 404.15,-36.63"/>
<polygon fill="midnightblue" stroke="midnightblue" points="403.27,-40.01 413.85,-39.62 405.33,-33.33 403.27,-40.01"/>
</g>
<!-- Node7 -->
<g id="node7" class="node">
<title>Node7</title>
<g id="a_node7"><a xlink:href="modulo_8hpp.html#a1de2201b825244a50237413786f6e970" target="_top" xlink:title=" ">
<polygon fill="white" stroke="black" points="418.5,-0.5 418.5,-19.5 463.5,-19.5 463.5,-0.5 418.5,-0.5"/>
<text text-anchor="middle" x="441" y="-7.5" font-family="Helvetica,sans-Serif" font-size="10.00">invert</text>
</a>
</g>
</g>
<!-- Node5&#45;&gt;Node7 -->
<g id="edge7" class="edge">
<title>Node5&#45;&gt;Node7</title>
<path fill="none" stroke="midnightblue" d="M374.51,-3.26C386.43,-3.33 398.18,-3.66 408.36,-4.25"/>
<polygon fill="midnightblue" stroke="midnightblue" points="408.12,-7.74 418.34,-4.96 408.62,-0.76 408.12,-7.74"/>
</g>
<!-- Node7&#45;&gt;Node5 -->
<g id="edge8" class="edge">
<title>Node7&#45;&gt;Node5</title>
<path fill="none" stroke="midnightblue" d="M418.34,-15.04C408.86,-15.86 397.05,-16.39 384.6,-16.62"/>
<polygon fill="midnightblue" stroke="midnightblue" points="384.47,-13.12 374.51,-16.74 384.55,-20.12 384.47,-13.12"/>
</g>
</g>
</svg>
