<?xml version="1.0" encoding="UTF-8" standalone="no"?>
<!DOCTYPE svg PUBLIC "-//W3C//DTD SVG 1.1//EN"
 "http://www.w3.org/Graphics/SVG/1.1/DTD/svg11.dtd">
<!-- Generated by graphviz version 2.43.0 (0)
 -->
<!-- Title: /home/ram/OmniTemplate/src/number_theory/modulo.hpp Pages: 1 -->
<svg width="1210pt" height="552pt"
 viewBox="0.00 0.00 1210.16 552.00" xmlns="http://www.w3.org/2000/svg" xmlns:xlink="http://www.w3.org/1999/xlink">
<g id="graph0" class="graph" transform="scale(1 1) rotate(0) translate(4 548)">
<title>/home/ram/OmniTemplate/src/number_theory/modulo.hpp</title>
<polygon fill="white" stroke="transparent" points="-4,4 -4,-548 1206.16,-548 1206.16,4 -4,4"/>
<!-- Node1 -->
<g id="node1" class="node">
<title>Node1</title>
<g id="a_node1"><a xlink:title=" ">
<polygon fill="#bfbfbf" stroke="black" points="791.16,-513.5 791.16,-543.5 963.16,-543.5 963.16,-513.5 791.16,-513.5"/>
<text text-anchor="start" x="799.16" y="-531.5" font-family="Helvetica,sans-Serif" font-size="10.00">/home/ram/OmniTemplate</text>
<text text-anchor="middle" x="877.16" y="-520.5" font-family="Helvetica,sans-Serif" font-size="10.00">/src/number_theory/modulo.hpp</text>
</a>
</g>
</g>
<!-- Node2 -->
<g id="node2" class="node">
<title>Node2</title>
<g id="a_node2"><a xlink:href="linear__algebra_8hpp.html" target="_top" xlink:title=" ">
<polygon fill="white" stroke="black" points="513.66,-446.5 513.66,-476.5 680.66,-476.5 680.66,-446.5 513.66,-446.5"/>
<text text-anchor="start" x="521.66" y="-464.5" font-family="Helvetica,sans-Serif" font-size="10.00">/home/ram/OmniTemplate</text>
<text text-anchor="middle" x="597.16" y="-453.5" font-family="Helvetica,sans-Serif" font-size="10.00">/src/algebra/linear_algebra.hpp</text>
</a>
</g>
</g>
<!-- Node1&#45;&gt;Node2 -->
<g id="edge1" class="edge">
<title>Node1&#45;&gt;Node2</title>
<path fill="none" stroke="midnightblue" d="M806.88,-511.19C761.02,-500.54 701.77,-486.78 657.94,-476.61"/>
<polygon fill="midnightblue" stroke="midnightblue" points="806.21,-514.62 816.75,-513.48 807.8,-507.81 806.21,-514.62"/>
</g>
<!-- Node5 -->
<g id="node5" class="node">
<title>Node5</title>
<g id="a_node5"><a xlink:href="template_8hpp.html" target="_top" xlink:title=" ">
<polygon fill="white" stroke="black" points="512.16,-73 512.16,-103 656.16,-103 656.16,-73 512.16,-73"/>
<text text-anchor="start" x="520.16" y="-91" font-family="Helvetica,sans-Serif" font-size="10.00">/home/ram/OmniTemplate</text>
<text text-anchor="middle" x="584.16" y="-80" font-family="Helvetica,sans-Serif" font-size="10.00">/src/core/template.hpp</text>
</a>
</g>
</g>
<!-- Node1&#45;&gt;Node5 -->
<g id="edge31" class="edge">
<title>Node1&#45;&gt;Node5</title>
<path fill="none" stroke="midnightblue" d="M840.37,-508.18C804.13,-486.19 754.16,-446.61 754.16,-395.5 754.16,-395.5 754.16,-395.5 754.16,-243 754.16,-197.04 752.61,-178.51 721.16,-145 702.08,-124.67 674.56,-111.52 649.19,-103.11"/>
<polygon fill="midnightblue" stroke="midnightblue" points="838.85,-511.35 849.25,-513.39 842.39,-505.31 838.85,-511.35"/>
</g>
<!-- Node16 -->
<g id="node16" class="node">
<title>Node16</title>
<g id="a_node16"><a xlink:href="permutation_8hpp.html" target="_top" xlink:title=" ">
<polygon fill="white" stroke="black" points="782.16,-151 782.16,-181 972.16,-181 972.16,-151 782.16,-151"/>
<text text-anchor="start" x="790.16" y="-169" font-family="Helvetica,sans-Serif" font-size="10.00">/home/ram/OmniTemplate</text>
<text text-anchor="middle" x="877.16" y="-158" font-family="Helvetica,sans-Serif" font-size="10.00">/src/combinatorics/permutation.hpp</text>
</a>
</g>
</g>
<!-- Node1&#45;&gt;Node16 -->
<g id="edge27" class="edge">
<title>Node1&#45;&gt;Node16</title>
<path fill="none" stroke="midnightblue" d="M877.16,-502.99C877.16,-476.49 877.16,-433 877.16,-395.5 877.16,-395.5 877.16,-395.5 877.16,-321 877.16,-269.4 877.16,-208.07 877.16,-181.01"/>
<polygon fill="midnightblue" stroke="midnightblue" points="873.66,-503.24 877.16,-513.24 880.66,-503.24 873.66,-503.24"/>
</g>
<!-- Node18 -->
<g id="node18" class="node">
<title>Node18</title>
<g id="a_node18"><a xlink:href="number__theory_8hpp.html" target="_top" xlink:title=" ">
<polygon fill="white" stroke="black" points="990.16,-145.5 990.16,-186.5 1142.16,-186.5 1142.16,-145.5 990.16,-145.5"/>
<text text-anchor="start" x="998.16" y="-174.5" font-family="Helvetica,sans-Serif" font-size="10.00">/home/ram/OmniTemplate</text>
<text text-anchor="start" x="998.16" y="-163.5" font-family="Helvetica,sans-Serif" font-size="10.00">/src/number_theory/number</text>
<text text-anchor="middle" x="1066.16" y="-152.5" font-family="Helvetica,sans-Serif" font-size="10.00">_theory.hpp</text>
</a>
</g>
</g>
<!-- Node1&#45;&gt;Node18 -->
<g id="edge32" class="edge">
<title>Node1&#45;&gt;Node18</title>
<path fill="none" stroke="midnightblue" d="M910.54,-507.72C943.86,-485.16 990.16,-444.93 990.16,-395.5 990.16,-395.5 990.16,-395.5 990.16,-321 990.16,-268.23 1026.49,-214.81 1048.91,-186.87"/>
<polygon fill="midnightblue" stroke="midnightblue" points="908.41,-504.93 901.96,-513.34 912.24,-510.79 908.41,-504.93"/>
</g>
<!-- Node20 -->
<g id="node20" class="node">
<title>Node20</title>
<g id="a_node20"><a xlink:href="test__modulo_8hpp.html" target="_top" xlink:title=" ">
<polygon fill="white" stroke="black" points="1058.16,-301.5 1058.16,-342.5 1202.16,-342.5 1202.16,-301.5 1058.16,-301.5"/>
<text text-anchor="start" x="1066.16" y="-330.5" font-family="Helvetica,sans-Serif" font-size="10.00">/home/ram/OmniTemplate</text>
<text text-anchor="start" x="1066.16" y="-319.5" font-family="Helvetica,sans-Serif" font-size="10.00">/src/number_theory/test</text>
<text text-anchor="middle" x="1130.16" y="-308.5" font-family="Helvetica,sans-Serif" font-size="10.00">_modulo.hpp</text>
</a>
</g>
</g>
<!-- Node1&#45;&gt;Node20 -->
<g id="edge36" class="edge">
<title>Node1&#45;&gt;Node20</title>
<path fill="none" stroke="midnightblue" d="M938.87,-510.06C960.74,-502.1 984.73,-491.22 1004.16,-477 1056.01,-439.05 1099.03,-374.95 1118.68,-342.73"/>
<polygon fill="midnightblue" stroke="midnightblue" points="937.6,-506.79 929.32,-513.4 939.92,-513.4 937.6,-506.79"/>
</g>
<!-- Node3 -->
<g id="node3" class="node">
<title>Node3</title>
<g id="a_node3"><a xlink:href="test__linear__algebra_8hpp.html" target="_top" xlink:title=" ">
<polygon fill="white" stroke="black" points="81.16,-223.5 81.16,-264.5 225.16,-264.5 225.16,-223.5 81.16,-223.5"/>
<text text-anchor="start" x="89.16" y="-252.5" font-family="Helvetica,sans-Serif" font-size="10.00">/home/ram/OmniTemplate</text>
<text text-anchor="start" x="89.16" y="-241.5" font-family="Helvetica,sans-Serif" font-size="10.00">/src/algebra/test_linear</text>
<text text-anchor="middle" x="153.16" y="-230.5" font-family="Helvetica,sans-Serif" font-size="10.00">_algebra.hpp</text>
</a>
</g>
</g>
<!-- Node2&#45;&gt;Node3 -->
<g id="edge2" class="edge">
<title>Node2&#45;&gt;Node3</title>
<path fill="none" stroke="midnightblue" d="M558.92,-441.94C475.71,-401.55 278.81,-305.99 193.61,-264.64"/>
<polygon fill="midnightblue" stroke="midnightblue" points="557.5,-445.14 568.03,-446.36 560.56,-438.85 557.5,-445.14"/>
</g>
<!-- Node2&#45;&gt;Node5 -->
<g id="edge4" class="edge">
<title>Node2&#45;&gt;Node5</title>
<path fill="none" stroke="midnightblue" d="M637.95,-441.48C652.09,-433.35 667.14,-422.76 678.16,-410 705.74,-378.07 716.16,-365.19 716.16,-323 716.16,-323 716.16,-323 716.16,-243 716.16,-198.63 724.05,-180.29 697.16,-145 681.9,-124.97 657.54,-111.64 635.35,-103.02"/>
<polygon fill="midnightblue" stroke="midnightblue" points="635.93,-438.6 628.84,-446.47 639.29,-444.74 635.93,-438.6"/>
</g>
<!-- Node6 -->
<g id="node6" class="node">
<title>Node6</title>
<g id="a_node6"><a xlink:href="graph_2all_8hpp.html" target="_top" xlink:title=" ">
<polygon fill="white" stroke="black" points="425.16,-229 425.16,-259 569.16,-259 569.16,-229 425.16,-229"/>
<text text-anchor="start" x="433.16" y="-247" font-family="Helvetica,sans-Serif" font-size="10.00">/home/ram/OmniTemplate</text>
<text text-anchor="middle" x="497.16" y="-236" font-family="Helvetica,sans-Serif" font-size="10.00">/src/graph/all.hpp</text>
</a>
</g>
</g>
<!-- Node2&#45;&gt;Node6 -->
<g id="edge6" class="edge">
<title>Node2&#45;&gt;Node6</title>
<path fill="none" stroke="midnightblue" d="M551.74,-441.73C538.17,-433.9 524.66,-423.44 516.16,-410 485.64,-361.75 490.96,-289.43 494.94,-259.14"/>
<polygon fill="midnightblue" stroke="midnightblue" points="550.15,-444.85 560.62,-446.5 553.46,-438.68 550.15,-444.85"/>
</g>
<!-- Node14 -->
<g id="node14" class="node">
<title>Node14</title>
<g id="a_node14"><a xlink:href="flow_8hpp.html" target="_top" xlink:title=" ">
<polygon fill="white" stroke="black" points="525.16,-379.5 525.16,-409.5 669.16,-409.5 669.16,-379.5 525.16,-379.5"/>
<text text-anchor="start" x="533.16" y="-397.5" font-family="Helvetica,sans-Serif" font-size="10.00">/home/ram/OmniTemplate</text>
<text text-anchor="middle" x="597.16" y="-386.5" font-family="Helvetica,sans-Serif" font-size="10.00">/src/graph/flow.hpp</text>
</a>
</g>
</g>
<!-- Node2&#45;&gt;Node14 -->
<g id="edge22" class="edge">
<title>Node2&#45;&gt;Node14</title>
<path fill="none" stroke="midnightblue" d="M597.16,-436.11C597.16,-427.15 597.16,-417.32 597.16,-409.58"/>
<polygon fill="midnightblue" stroke="midnightblue" points="593.66,-436.4 597.16,-446.4 600.66,-436.4 593.66,-436.4"/>
</g>
<!-- Node4 -->
<g id="node4" class="node">
<title>Node4</title>
<g id="a_node4"><a xlink:href="test_8cpp.html" target="_top" xlink:title=" ">
<polygon fill="white" stroke="black" points="512.16,-0.5 512.16,-30.5 656.16,-30.5 656.16,-0.5 512.16,-0.5"/>
<text text-anchor="start" x="520.16" y="-18.5" font-family="Helvetica,sans-Serif" font-size="10.00">/home/ram/OmniTemplate</text>
<text text-anchor="middle" x="584.16" y="-7.5" font-family="Helvetica,sans-Serif" font-size="10.00">/src/test/test.cpp</text>
</a>
</g>
</g>
<!-- Node3&#45;&gt;Node4 -->
<g id="edge3" class="edge">
<title>Node3&#45;&gt;Node4</title>
<path fill="none" stroke="midnightblue" d="M71.26,-229.46C47.26,-221.26 23.6,-208.11 9.16,-187 -1.31,-171.69 -5.15,-84.36 11.16,-67 44.81,-31.18 365.59,-20.59 511.97,-17.6"/>
<polygon fill="midnightblue" stroke="midnightblue" points="70.23,-232.8 80.82,-232.47 72.33,-226.12 70.23,-232.8"/>
</g>
<!-- Node5&#45;&gt;Node4 -->
<g id="edge5" class="edge">
<title>Node5&#45;&gt;Node4</title>
<path fill="none" stroke="midnightblue" d="M584.16,-62.73C584.16,-52.07 584.16,-39.91 584.16,-30.75"/>
<polygon fill="midnightblue" stroke="midnightblue" points="580.66,-62.73 584.16,-72.73 587.66,-62.73 580.66,-62.73"/>
</g>
<!-- Node6&#45;&gt;Node5 -->
<g id="edge7" class="edge">
<title>Node6&#45;&gt;Node5</title>
<path fill="none" stroke="midnightblue" d="M503.82,-219.2C510.15,-198.66 520.83,-168.66 535.16,-145 544.66,-129.31 558.7,-113.79 569.31,-103.09"/>
<polygon fill="midnightblue" stroke="midnightblue" points="500.4,-218.41 500.91,-228.99 507.11,-220.4 500.4,-218.41"/>
</g>
<!-- Node7 -->
<g id="node7" class="node">
<title>Node7</title>
<g id="a_node7"><a xlink:href="2sat_8hpp.html" target="_top" xlink:title=" ">
<polygon fill="white" stroke="black" points="182.16,-151 182.16,-181 326.16,-181 326.16,-151 182.16,-151"/>
<text text-anchor="start" x="190.16" y="-169" font-family="Helvetica,sans-Serif" font-size="10.00">/home/ram/OmniTemplate</text>
<text text-anchor="middle" x="254.16" y="-158" font-family="Helvetica,sans-Serif" font-size="10.00">/src/graph/2sat.hpp</text>
</a>
</g>
</g>
<!-- Node6&#45;&gt;Node7 -->
<g id="edge8" class="edge">
<title>Node6&#45;&gt;Node7</title>
<path fill="none" stroke="midnightblue" d="M442.52,-225.91C399.29,-212.39 339.67,-193.74 299.16,-181.07"/>
<polygon fill="midnightblue" stroke="midnightblue" points="441.72,-229.33 452.3,-228.97 443.81,-222.65 441.72,-229.33"/>
</g>
<!-- Node9 -->
<g id="node9" class="node">
<title>Node9</title>
<g id="a_node9"><a xlink:href="test__all_8hpp.html" target="_top" xlink:title=" ">
<polygon fill="white" stroke="black" points="544.16,-151 544.16,-181 688.16,-181 688.16,-151 544.16,-151"/>
<text text-anchor="start" x="552.16" y="-169" font-family="Helvetica,sans-Serif" font-size="10.00">/home/ram/OmniTemplate</text>
<text text-anchor="middle" x="616.16" y="-158" font-family="Helvetica,sans-Serif" font-size="10.00">/src/graph/test_all.hpp</text>
</a>
</g>
</g>
<!-- Node6&#45;&gt;Node9 -->
<g id="edge12" class="edge">
<title>Node6&#45;&gt;Node9</title>
<path fill="none" stroke="midnightblue" d="M527.74,-223.47C548.52,-210.2 575.5,-192.96 594.17,-181.04"/>
<polygon fill="midnightblue" stroke="midnightblue" points="525.81,-220.55 519.26,-228.88 529.57,-226.45 525.81,-220.55"/>
</g>
<!-- Node10 -->
<g id="node10" class="node">
<title>Node10</title>
<g id="a_node10"><a xlink:href="hld_8hpp.html" target="_top" xlink:title=" ">
<polygon fill="white" stroke="black" points="344.16,-151 344.16,-181 488.16,-181 488.16,-151 344.16,-151"/>
<text text-anchor="start" x="352.16" y="-169" font-family="Helvetica,sans-Serif" font-size="10.00">/home/ram/OmniTemplate</text>
<text text-anchor="middle" x="416.16" y="-158" font-family="Helvetica,sans-Serif" font-size="10.00">/src/graph/tree/hld.hpp</text>
</a>
</g>
</g>
<!-- Node6&#45;&gt;Node10 -->
<g id="edge14" class="edge">
<title>Node6&#45;&gt;Node10</title>
<path fill="none" stroke="midnightblue" d="M474.28,-221.53C460.53,-208.63 443.41,-192.57 431.32,-181.23"/>
<polygon fill="midnightblue" stroke="midnightblue" points="472.23,-224.41 481.92,-228.7 477.02,-219.31 472.23,-224.41"/>
</g>
<!-- Node12 -->
<g id="node12" class="node">
<title>Node12</title>
<g id="a_node12"><a xlink:href="graph__draw_8hpp.html" target="_top" xlink:title=" ">
<polygon fill="white" stroke="black" points="18.16,-151 18.16,-181 164.16,-181 164.16,-151 18.16,-151"/>
<text text-anchor="start" x="26.16" y="-169" font-family="Helvetica,sans-Serif" font-size="10.00">/home/ram/OmniTemplate</text>
<text text-anchor="middle" x="91.16" y="-158" font-family="Helvetica,sans-Serif" font-size="10.00">/src/utility/graph_draw.hpp</text>
</a>
</g>
</g>
<!-- Node6&#45;&gt;Node12 -->
<g id="edge18" class="edge">
<title>Node6&#45;&gt;Node12</title>
<path fill="none" stroke="midnightblue" d="M415.27,-230.43C349.59,-219.96 255.15,-204.06 173.16,-187 164.55,-185.21 155.47,-183.16 146.62,-181.07"/>
<polygon fill="midnightblue" stroke="midnightblue" points="414.72,-233.88 425.15,-232 415.82,-226.97 414.72,-233.88"/>
</g>
<!-- Node7&#45;&gt;Node5 -->
<g id="edge9" class="edge">
<title>Node7&#45;&gt;Node5</title>
<path fill="none" stroke="midnightblue" d="M320.1,-148.54C325.19,-147.32 330.26,-146.13 335.16,-145 409.57,-127.85 428.75,-126.15 503.16,-109 511.2,-107.15 519.68,-105.12 528,-103.1"/>
<polygon fill="midnightblue" stroke="midnightblue" points="319.22,-145.15 310.31,-150.9 320.86,-151.96 319.22,-145.15"/>
</g>
<!-- Node8 -->
<g id="node8" class="node">
<title>Node8</title>
<g id="a_node8"><a xlink:href="test__2sat_8hpp.html" target="_top" xlink:title=" ">
<polygon fill="white" stroke="black" points="182.16,-73 182.16,-103 326.16,-103 326.16,-73 182.16,-73"/>
<text text-anchor="start" x="190.16" y="-91" font-family="Helvetica,sans-Serif" font-size="10.00">/home/ram/OmniTemplate</text>
<text text-anchor="middle" x="254.16" y="-80" font-family="Helvetica,sans-Serif" font-size="10.00">/src/graph/test_2sat.hpp</text>
</a>
</g>
</g>
<!-- Node7&#45;&gt;Node8 -->
<g id="edge10" class="edge">
<title>Node7&#45;&gt;Node8</title>
<path fill="none" stroke="midnightblue" d="M254.16,-140.59C254.16,-128.26 254.16,-113.72 254.16,-103.23"/>
<polygon fill="midnightblue" stroke="midnightblue" points="250.66,-140.7 254.16,-150.7 257.66,-140.71 250.66,-140.7"/>
</g>
<!-- Node8&#45;&gt;Node4 -->
<g id="edge11" class="edge">
<title>Node8&#45;&gt;Node4</title>
<path fill="none" stroke="midnightblue" d="M319.82,-70.54C325,-69.32 330.16,-68.12 335.16,-67 394.55,-53.65 462.26,-40.02 512.07,-30.29"/>
<polygon fill="midnightblue" stroke="midnightblue" points="318.77,-67.19 309.86,-72.92 320.4,-74 318.77,-67.19"/>
</g>
<!-- Node9&#45;&gt;Node4 -->
<g id="edge13" class="edge">
<title>Node9&#45;&gt;Node4</title>
<path fill="none" stroke="midnightblue" d="M641.2,-143.82C650.61,-134.27 660.21,-122.17 665.16,-109 671.72,-91.53 674.22,-83.32 665.16,-67 655.99,-50.48 638.93,-38.66 622.81,-30.63"/>
<polygon fill="midnightblue" stroke="midnightblue" points="638.6,-141.47 633.8,-150.91 643.44,-146.52 638.6,-141.47"/>
</g>
<!-- Node10&#45;&gt;Node5 -->
<g id="edge15" class="edge">
<title>Node10&#45;&gt;Node5</title>
<path fill="none" stroke="midnightblue" d="M456.61,-146.7C486.27,-133.28 525.94,-115.34 553.12,-103.04"/>
<polygon fill="midnightblue" stroke="midnightblue" points="455.03,-143.57 447.36,-150.88 457.92,-149.95 455.03,-143.57"/>
</g>
<!-- Node11 -->
<g id="node11" class="node">
<title>Node11</title>
<g id="a_node11"><a xlink:href="test__hld_8hpp.html" target="_top" xlink:title=" ">
<polygon fill="white" stroke="black" points="344.16,-73 344.16,-103 494.16,-103 494.16,-73 344.16,-73"/>
<text text-anchor="start" x="352.16" y="-91" font-family="Helvetica,sans-Serif" font-size="10.00">/home/ram/OmniTemplate</text>
<text text-anchor="middle" x="419.16" y="-80" font-family="Helvetica,sans-Serif" font-size="10.00">/src/graph/tree/test_hld.hpp</text>
</a>
</g>
</g>
<!-- Node10&#45;&gt;Node11 -->
<g id="edge16" class="edge">
<title>Node10&#45;&gt;Node11</title>
<path fill="none" stroke="midnightblue" d="M417.12,-140.59C417.61,-128.26 418.18,-113.72 418.6,-103.23"/>
<polygon fill="midnightblue" stroke="midnightblue" points="413.62,-140.57 416.72,-150.7 420.61,-140.85 413.62,-140.57"/>
</g>
<!-- Node11&#45;&gt;Node4 -->
<g id="edge17" class="edge">
<title>Node11&#45;&gt;Node4</title>
<path fill="none" stroke="midnightblue" d="M461.65,-68.84C489.55,-56.92 525.49,-41.57 551.22,-30.57"/>
<polygon fill="midnightblue" stroke="midnightblue" points="459.97,-65.76 452.15,-72.9 462.72,-72.19 459.97,-65.76"/>
</g>
<!-- Node12&#45;&gt;Node5 -->
<g id="edge19" class="edge">
<title>Node12&#45;&gt;Node5</title>
<path fill="none" stroke="midnightblue" d="M154.26,-148.73C160.62,-147.36 167,-146.08 173.16,-145 318.47,-119.47 357.88,-134.74 503.16,-109 512.43,-107.36 522.21,-105.26 531.65,-103.04"/>
<polygon fill="midnightblue" stroke="midnightblue" points="153.31,-145.36 144.32,-150.97 154.84,-152.19 153.31,-145.36"/>
</g>
<!-- Node13 -->
<g id="node13" class="node">
<title>Node13</title>
<g id="a_node13"><a xlink:href="test__graph__draw_8hpp.html" target="_top" xlink:title=" ">
<polygon fill="white" stroke="black" points="20.16,-67.5 20.16,-108.5 164.16,-108.5 164.16,-67.5 20.16,-67.5"/>
<text text-anchor="start" x="28.16" y="-96.5" font-family="Helvetica,sans-Serif" font-size="10.00">/home/ram/OmniTemplate</text>
<text text-anchor="start" x="28.16" y="-85.5" font-family="Helvetica,sans-Serif" font-size="10.00">/src/utility/test_graph</text>
<text text-anchor="middle" x="92.16" y="-74.5" font-family="Helvetica,sans-Serif" font-size="10.00">_draw.hpp</text>
</a>
</g>
</g>
<!-- Node12&#45;&gt;Node13 -->
<g id="edge20" class="edge">
<title>Node12&#45;&gt;Node13</title>
<path fill="none" stroke="midnightblue" d="M91.48,-140.66C91.61,-130.33 91.77,-118.44 91.9,-108.68"/>
<polygon fill="midnightblue" stroke="midnightblue" points="87.98,-140.66 91.35,-150.7 94.98,-140.75 87.98,-140.66"/>
</g>
<!-- Node13&#45;&gt;Node4 -->
<g id="edge21" class="edge">
<title>Node13&#45;&gt;Node4</title>
<path fill="none" stroke="midnightblue" d="M174.52,-66.85C298.33,-44.5 431.91,-30.23 512.11,-22.72"/>
<polygon fill="midnightblue" stroke="midnightblue" points="173.7,-63.44 164.49,-68.69 174.95,-70.33 173.7,-63.44"/>
</g>
<!-- Node14&#45;&gt;Node6 -->
<g id="edge23" class="edge">
<title>Node14&#45;&gt;Node6</title>
<path fill="none" stroke="midnightblue" d="M566.39,-373.48C555.38,-365.12 543.61,-354.63 535.16,-343 515.95,-316.58 505.03,-279.19 500.19,-259.09"/>
<polygon fill="midnightblue" stroke="midnightblue" points="564.45,-376.4 574.6,-379.45 568.57,-370.74 564.45,-376.4"/>
</g>
<!-- Node15 -->
<g id="node15" class="node">
<title>Node15</title>
<g id="a_node15"><a xlink:href="test__flow_8hpp.html" target="_top" xlink:title=" ">
<polygon fill="white" stroke="black" points="544.16,-307 544.16,-337 688.16,-337 688.16,-307 544.16,-307"/>
<text text-anchor="start" x="552.16" y="-325" font-family="Helvetica,sans-Serif" font-size="10.00">/home/ram/OmniTemplate</text>
<text text-anchor="middle" x="616.16" y="-314" font-family="Helvetica,sans-Serif" font-size="10.00">/src/graph/test_flow.hpp</text>
</a>
</g>
</g>
<!-- Node14&#45;&gt;Node15 -->
<g id="edge24" class="edge">
<title>Node14&#45;&gt;Node15</title>
<path fill="none" stroke="midnightblue" d="M603.61,-369.56C606.5,-358.82 609.82,-346.51 612.32,-337.25"/>
<polygon fill="midnightblue" stroke="midnightblue" points="600.23,-368.67 601,-379.23 606.98,-370.49 600.23,-368.67"/>
</g>
<!-- Node15&#45;&gt;Node6 -->
<g id="edge25" class="edge">
<title>Node15&#45;&gt;Node6</title>
<path fill="none" stroke="midnightblue" d="M585.57,-301.47C564.8,-288.2 537.81,-270.96 519.14,-259.04"/>
<polygon fill="midnightblue" stroke="midnightblue" points="583.74,-304.45 594.05,-306.88 587.51,-298.55 583.74,-304.45"/>
</g>
<!-- Node15&#45;&gt;Node9 -->
<g id="edge26" class="edge">
<title>Node15&#45;&gt;Node9</title>
<path fill="none" stroke="midnightblue" d="M616.16,-296.76C616.16,-264.24 616.16,-207.51 616.16,-181.18"/>
<polygon fill="midnightblue" stroke="midnightblue" points="612.66,-296.79 616.16,-306.79 619.66,-296.79 612.66,-296.79"/>
</g>
<!-- Node16&#45;&gt;Node5 -->
<g id="edge30" class="edge">
<title>Node16&#45;&gt;Node5</title>
<path fill="none" stroke="midnightblue" d="M813.24,-148.42C760.97,-134.86 687.88,-115.9 638.42,-103.07"/>
<polygon fill="midnightblue" stroke="midnightblue" points="812.52,-151.85 823.08,-150.97 814.27,-145.07 812.52,-151.85"/>
</g>
<!-- Node17 -->
<g id="node17" class="node">
<title>Node17</title>
<g id="a_node17"><a xlink:href="test__permutation_8hpp.html" target="_top" xlink:title=" ">
<polygon fill="white" stroke="black" points="759.16,-67.5 759.16,-108.5 903.16,-108.5 903.16,-67.5 759.16,-67.5"/>
<text text-anchor="start" x="767.16" y="-96.5" font-family="Helvetica,sans-Serif" font-size="10.00">/home/ram/OmniTemplate</text>
<text text-anchor="start" x="767.16" y="-85.5" font-family="Helvetica,sans-Serif" font-size="10.00">/src/combinatorics/test</text>
<text text-anchor="middle" x="831.16" y="-74.5" font-family="Helvetica,sans-Serif" font-size="10.00">_permutation.hpp</text>
</a>
</g>
</g>
<!-- Node16&#45;&gt;Node17 -->
<g id="edge28" class="edge">
<title>Node16&#45;&gt;Node17</title>
<path fill="none" stroke="midnightblue" d="M863.21,-141.95C856.78,-131.33 849.23,-118.85 843.07,-108.68"/>
<polygon fill="midnightblue" stroke="midnightblue" points="860.33,-143.96 868.51,-150.7 866.32,-140.34 860.33,-143.96"/>
</g>
<!-- Node17&#45;&gt;Node4 -->
<g id="edge29" class="edge">
<title>Node17&#45;&gt;Node4</title>
<path fill="none" stroke="midnightblue" d="M752.9,-64.66C713.8,-53.5 667.68,-40.34 633.55,-30.6"/>
<polygon fill="midnightblue" stroke="midnightblue" points="752.11,-68.08 762.68,-67.46 754.03,-61.35 752.11,-68.08"/>
</g>
<!-- Node18&#45;&gt;Node5 -->
<g id="edge33" class="edge">
<title>Node18&#45;&gt;Node5</title>
<path fill="none" stroke="midnightblue" d="M979.86,-144.86C905.67,-131.62 749.18,-110.58 656.54,-98.41"/>
<polygon fill="midnightblue" stroke="midnightblue" points="979.3,-148.32 989.77,-146.68 980.57,-141.44 979.3,-148.32"/>
</g>
<!-- Node19 -->
<g id="node19" class="node">
<title>Node19</title>
<g id="a_node19"><a xlink:href="test__number__theory_8hpp.html" target="_top" xlink:title=" ">
<polygon fill="white" stroke="black" points="958.16,-67.5 958.16,-108.5 1102.16,-108.5 1102.16,-67.5 958.16,-67.5"/>
<text text-anchor="start" x="966.16" y="-96.5" font-family="Helvetica,sans-Serif" font-size="10.00">/home/ram/OmniTemplate</text>
<text text-anchor="start" x="966.16" y="-85.5" font-family="Helvetica,sans-Serif" font-size="10.00">/src/number_theory/test</text>
<text text-anchor="middle" x="1030.16" y="-74.5" font-family="Helvetica,sans-Serif" font-size="10.00">_number_theory.hpp</text>
</a>
</g>
</g>
<!-- Node18&#45;&gt;Node19 -->
<g id="edge34" class="edge">
<title>Node18&#45;&gt;Node19</title>
<path fill="none" stroke="midnightblue" d="M1052.5,-136.17C1048.13,-126.93 1043.38,-116.92 1039.4,-108.51"/>
<polygon fill="midnightblue" stroke="midnightblue" points="1049.44,-137.89 1056.89,-145.43 1055.77,-134.89 1049.44,-137.89"/>
</g>
<!-- Node19&#45;&gt;Node4 -->
<g id="edge35" class="edge">
<title>Node19&#45;&gt;Node4</title>
<path fill="none" stroke="midnightblue" d="M948.07,-72.92C936.03,-70.91 923.78,-68.88 912.16,-67 824.14,-52.77 722.68,-37.29 656.19,-27.27"/>
<polygon fill="midnightblue" stroke="midnightblue" points="947.67,-76.4 958.11,-74.61 948.83,-69.5 947.67,-76.4"/>
</g>
<!-- Node20&#45;&gt;Node4 -->
<g id="edge37" class="edge">
<title>Node20&#45;&gt;Node4</title>
<path fill="none" stroke="midnightblue" d="M1139.98,-291.53C1156.6,-235.53 1181.95,-115.04 1111.16,-67 1074.34,-42.02 791.74,-25.94 656.21,-19.58"/>
<polygon fill="midnightblue" stroke="midnightblue" points="1136.6,-290.62 1137.01,-301.2 1143.29,-292.67 1136.6,-290.62"/>
</g>
</g>
</svg>
