<?xml version="1.0" encoding="UTF-8" standalone="no"?>
<!DOCTYPE svg PUBLIC "-//W3C//DTD SVG 1.1//EN"
 "http://www.w3.org/Graphics/SVG/1.1/DTD/svg11.dtd">
<!-- Generated by graphviz version 2.43.0 (0)
 -->
<!-- Title: /home/ram/OmniTemplate/my_int.hpp Pages: 1 -->
<!--zoomable 441 -->
<svg id="main" version="1.1" xmlns="http://www.w3.org/2000/svg" xmlns:xlink="http://www.w3.org/1999/xlink" xml:space="preserve" onload="init(evt)">
<style type="text/css"><![CDATA[
.edge:hover path { stroke: red; }
.edge:hover polygon { stroke: red; fill: red; }
]]></style>
<script type="text/javascript"><![CDATA[
var edges = document.getElementsByTagName('g');
if (edges && edges.length) {
  for (var i=0;i<edges.length;i++) {
    if (edges[i].id.substr(0,4)=='edge') {
      edges[i].setAttribute('class','edge');
    }
  }
}
]]></script>
        <defs>
                <circle id="rim" cx="0" cy="0" r="7"/>
                <circle id="rim2" cx="0" cy="0" r="3.5"/>
                <g id="zoomPlus">
                        <use xlink:href="#rim" fill="#404040">
                                <set attributeName="fill" to="#808080" begin="zoomplus.mouseover" end="zoomplus.mouseout"/>
                        </use>
                        <path d="M-4,0h8M0,-4v8" fill="none" stroke="white" stroke-width="1.5" pointer-events="none"/>
                </g>
                <g id="zoomMin">
                        <use xlink:href="#rim" fill="#404040">
                                <set attributeName="fill" to="#808080" begin="zoomminus.mouseover" end="zoomminus.mouseout"/>
                        </use>
                        <path d="M-4,0h8" fill="none" stroke="white" stroke-width="1.5" pointer-events="none"/>
                </g>
                <g id="dirArrow">
                        <path fill="none" stroke="white" stroke-width="1.5" d="M0,-3.0v7 M-2.5,-0.5L0,-3.0L2.5,-0.5"/>
                </g>
               <g id="resetDef">
                       <use xlink:href="#rim2" fill="#404040">
                               <set attributeName="fill" to="#808080" begin="reset.mouseover" end="reset.mouseout"/>
                       </use>
               </g>
        </defs>

<script type="text/javascript">
var viewWidth = 2450;
var viewHeight = 441;
var sectionId = 'dynsection-1';
</script>
<script xlink:href="svgpan.js"/>
<svg id="graph" class="graph">
<g id="viewport">
<title>/home/ram/OmniTemplate/my_int.hpp</title>
<polygon fill="white" stroke="transparent" points="-4,4 -4,-437 2445.87,-437 2445.87,4 -4,4"/>
<!-- Node1 -->
<g id="node1" class="node">
<title>Node1</title>
<g id="a_node1"><a xlink:title=" ">
<polygon fill="#bfbfbf" stroke="black" points="1001.87,-402.5 1001.87,-432.5 1145.87,-432.5 1145.87,-402.5 1001.87,-402.5"/>
<text text-anchor="start" x="1009.87" y="-420.5" font-family="Helvetica,sans-Serif" font-size="10.00">/home/ram/OmniTemplate</text>
<text text-anchor="middle" x="1073.87" y="-409.5" font-family="Helvetica,sans-Serif" font-size="10.00">/my_int.hpp</text>
</a>
</g>
</g>
<!-- Node2 -->
<g id="node2" class="node">
<title>Node2</title>
<g id="a_node2"><a xlink:href="core_8hpp.html" target="_top" xlink:title=" ">
<polygon fill="white" stroke="black" points="1001.87,-335.5 1001.87,-365.5 1145.87,-365.5 1145.87,-335.5 1001.87,-335.5"/>
<text text-anchor="start" x="1009.87" y="-353.5" font-family="Helvetica,sans-Serif" font-size="10.00">/home/ram/OmniTemplate</text>
<text text-anchor="middle" x="1073.87" y="-342.5" font-family="Helvetica,sans-Serif" font-size="10.00">/core.hpp</text>
</a>
</g>
</g>
<!-- Node1&#45;&gt;Node2 -->
<g id="edge1" class="edge">
<title>Node1&#45;&gt;Node2</title>
<path fill="none" stroke="midnightblue" d="M1067.33,-392.4C1066.88,-383.37 1067.17,-373.41 1068.2,-365.58"/>
<polygon fill="midnightblue" stroke="midnightblue" points="1063.84,-392.74 1068.19,-402.4 1070.82,-392.13 1063.84,-392.74"/>
</g>
<!-- Node2&#45;&gt;Node1 -->
<g id="edge5" class="edge">
<title>Node2&#45;&gt;Node1</title>
<path fill="none" stroke="midnightblue" d="M1080.42,-375.57C1080.87,-384.6 1080.58,-394.56 1079.55,-402.4"/>
<polygon fill="midnightblue" stroke="midnightblue" points="1083.9,-375.24 1079.55,-365.58 1076.93,-375.84 1083.9,-375.24"/>
</g>
<!-- Node3 -->
<g id="node3" class="node">
<title>Node3</title>
<g id="a_node3"><a xlink:href="2sat_8hpp.html" target="_top" xlink:title=" ">
<polygon fill="white" stroke="black" points="397.87,-134.5 397.87,-164.5 541.87,-164.5 541.87,-134.5 397.87,-134.5"/>
<text text-anchor="start" x="405.87" y="-152.5" font-family="Helvetica,sans-Serif" font-size="10.00">/home/ram/OmniTemplate</text>
<text text-anchor="middle" x="469.87" y="-141.5" font-family="Helvetica,sans-Serif" font-size="10.00">/2sat.hpp</text>
</a>
</g>
</g>
<!-- Node2&#45;&gt;Node3 -->
<g id="edge2" class="edge">
<title>Node2&#45;&gt;Node3</title>
<path fill="none" stroke="midnightblue" d="M991.42,-346.21C878.06,-340.7 680.63,-327.31 614.87,-299 548.68,-270.51 497.41,-195.9 478.15,-164.62"/>
<polygon fill="midnightblue" stroke="midnightblue" points="991.29,-349.7 1001.45,-346.68 991.63,-342.71 991.29,-349.7"/>
</g>
<!-- Node4 -->
<g id="node4" class="node">
<title>Node4</title>
<g id="a_node4"><a xlink:href="template_8hpp.html" target="_top" xlink:title=" ">
<polygon fill="white" stroke="black" points="1309.87,-67.5 1309.87,-97.5 1453.87,-97.5 1453.87,-67.5 1309.87,-67.5"/>
<text text-anchor="start" x="1317.87" y="-85.5" font-family="Helvetica,sans-Serif" font-size="10.00">/home/ram/OmniTemplate</text>
<text text-anchor="middle" x="1381.87" y="-74.5" font-family="Helvetica,sans-Serif" font-size="10.00">/template.hpp</text>
</a>
</g>
</g>
<!-- Node2&#45;&gt;Node4 -->
<g id="edge51" class="edge">
<title>Node2&#45;&gt;Node4</title>
<path fill="none" stroke="midnightblue" d="M991.62,-348.21C801.07,-344.67 333.96,-332.75 180.87,-299 96.08,-280.31 -40.7,-270.1 11.87,-201 91.05,-96.92 1038.43,-84.93 1309.71,-83.63"/>
<polygon fill="midnightblue" stroke="midnightblue" points="991.79,-351.71 1001.86,-348.4 991.92,-344.71 991.79,-351.71"/>
</g>
<!-- Node6 -->
<g id="node6" class="node">
<title>Node6</title>
<g id="a_node6"><a xlink:href="range_8hpp.html" target="_top" xlink:title=" ">
<polygon fill="white" stroke="black" points="268.87,-268.5 268.87,-298.5 412.87,-298.5 412.87,-268.5 268.87,-268.5"/>
<text text-anchor="start" x="276.87" y="-286.5" font-family="Helvetica,sans-Serif" font-size="10.00">/home/ram/OmniTemplate</text>
<text text-anchor="middle" x="340.87" y="-275.5" font-family="Helvetica,sans-Serif" font-size="10.00">/range.hpp</text>
</a>
</g>
</g>
<!-- Node2&#45;&gt;Node6 -->
<g id="edge6" class="edge">
<title>Node2&#45;&gt;Node6</title>
<path fill="none" stroke="midnightblue" d="M991.46,-345.73C866.76,-339.27 623.17,-324.27 417.87,-299 416.37,-298.82 414.85,-298.62 413.33,-298.42"/>
<polygon fill="midnightblue" stroke="midnightblue" points="991.52,-349.24 1001.69,-346.25 991.88,-342.25 991.52,-349.24"/>
</g>
<!-- Node10 -->
<g id="node10" class="node">
<title>Node10</title>
<g id="a_node10"><a xlink:href="graph__theory_8hpp.html" target="_top" xlink:title=" ">
<polygon fill="white" stroke="black" points="544.87,-201.5 544.87,-231.5 688.87,-231.5 688.87,-201.5 544.87,-201.5"/>
<text text-anchor="start" x="552.87" y="-219.5" font-family="Helvetica,sans-Serif" font-size="10.00">/home/ram/OmniTemplate</text>
<text text-anchor="middle" x="616.87" y="-208.5" font-family="Helvetica,sans-Serif" font-size="10.00">/graph_theory.hpp</text>
</a>
</g>
</g>
<!-- Node2&#45;&gt;Node10 -->
<g id="edge15" class="edge">
<title>Node2&#45;&gt;Node10</title>
<path fill="none" stroke="midnightblue" d="M991.65,-345.09C872.16,-337.92 661.86,-322.17 635.87,-299 616.9,-282.08 614.99,-250.21 615.68,-231.73"/>
<polygon fill="midnightblue" stroke="midnightblue" points="991.67,-348.59 1001.86,-345.69 992.08,-341.6 991.67,-348.59"/>
</g>
<!-- Node11 -->
<g id="node11" class="node">
<title>Node11</title>
<g id="a_node11"><a xlink:href="dsu_8hpp.html" target="_top" xlink:title=" ">
<polygon fill="white" stroke="black" points="644.87,-268.5 644.87,-298.5 788.87,-298.5 788.87,-268.5 644.87,-268.5"/>
<text text-anchor="start" x="652.87" y="-286.5" font-family="Helvetica,sans-Serif" font-size="10.00">/home/ram/OmniTemplate</text>
<text text-anchor="middle" x="716.87" y="-275.5" font-family="Helvetica,sans-Serif" font-size="10.00">/dsu.hpp</text>
</a>
</g>
</g>
<!-- Node2&#45;&gt;Node11 -->
<g id="edge18" class="edge">
<title>Node2&#45;&gt;Node11</title>
<path fill="none" stroke="midnightblue" d="M991.61,-334.52C930.4,-323.38 847.65,-308.31 789.01,-297.63"/>
<polygon fill="midnightblue" stroke="midnightblue" points="991.16,-338 1001.63,-336.35 992.42,-331.11 991.16,-338"/>
</g>
<!-- Node12 -->
<g id="node12" class="node">
<title>Node12</title>
<g id="a_node12"><a xlink:href="linear__algebra_8hpp.html" target="_top" xlink:title=" ">
<polygon fill="white" stroke="black" points="806.87,-268.5 806.87,-298.5 950.87,-298.5 950.87,-268.5 806.87,-268.5"/>
<text text-anchor="start" x="814.87" y="-286.5" font-family="Helvetica,sans-Serif" font-size="10.00">/home/ram/OmniTemplate</text>
<text text-anchor="middle" x="878.87" y="-275.5" font-family="Helvetica,sans-Serif" font-size="10.00">/linear_algebra.hpp</text>
</a>
</g>
</g>
<!-- Node2&#45;&gt;Node12 -->
<g id="edge21" class="edge">
<title>Node2&#45;&gt;Node12</title>
<path fill="none" stroke="midnightblue" d="M1022.06,-332.23C990.51,-321.71 950.72,-308.45 921.1,-298.58"/>
<polygon fill="midnightblue" stroke="midnightblue" points="1020.97,-335.55 1031.56,-335.4 1023.18,-328.91 1020.97,-335.55"/>
</g>
<!-- Node13 -->
<g id="node13" class="node">
<title>Node13</title>
<g id="a_node13"><a xlink:href="big__integer_8hpp.html" target="_top" xlink:title=" ">
<polygon fill="white" stroke="black" points="673.87,-134.5 673.87,-164.5 817.87,-164.5 817.87,-134.5 673.87,-134.5"/>
<text text-anchor="start" x="681.87" y="-152.5" font-family="Helvetica,sans-Serif" font-size="10.00">/home/ram/OmniTemplate</text>
<text text-anchor="middle" x="745.87" y="-141.5" font-family="Helvetica,sans-Serif" font-size="10.00">/big_integer.hpp</text>
</a>
</g>
</g>
<!-- Node2&#45;&gt;Node13 -->
<g id="edge24" class="edge">
<title>Node2&#45;&gt;Node13</title>
<path fill="none" stroke="midnightblue" d="M1047.25,-329.1C1024.53,-312.02 990.73,-287.41 959.87,-268 895.11,-227.27 815.29,-185.56 773.83,-164.5"/>
<polygon fill="midnightblue" stroke="midnightblue" points="1045.29,-332.01 1055.38,-335.24 1049.51,-326.42 1045.29,-332.01"/>
</g>
<!-- Node14 -->
<g id="node14" class="node">
<title>Node14</title>
<g id="a_node14"><a xlink:href="combinatorics_8hpp.html" target="_top" xlink:title=" ">
<polygon fill="white" stroke="black" points="835.87,-134.5 835.87,-164.5 979.87,-164.5 979.87,-134.5 835.87,-134.5"/>
<text text-anchor="start" x="843.87" y="-152.5" font-family="Helvetica,sans-Serif" font-size="10.00">/home/ram/OmniTemplate</text>
<text text-anchor="middle" x="907.87" y="-141.5" font-family="Helvetica,sans-Serif" font-size="10.00">/combinatorics.hpp</text>
</a>
</g>
</g>
<!-- Node2&#45;&gt;Node14 -->
<g id="edge26" class="edge">
<title>Node2&#45;&gt;Node14</title>
<path fill="none" stroke="midnightblue" d="M1065.43,-325.53C1053.35,-293.93 1028.58,-238.04 992.87,-201 977.98,-185.55 957.37,-173.15 940.17,-164.5"/>
<polygon fill="midnightblue" stroke="midnightblue" points="1062.28,-327.09 1069.04,-335.25 1068.84,-324.65 1062.28,-327.09"/>
</g>
<!-- Node15 -->
<g id="node15" class="node">
<title>Node15</title>
<g id="a_node15"><a xlink:href="coroutine_8hpp.html" target="_top" xlink:title=" ">
<polygon fill="white" stroke="black" points="997.87,-134.5 997.87,-164.5 1141.87,-164.5 1141.87,-134.5 997.87,-134.5"/>
<text text-anchor="start" x="1005.87" y="-152.5" font-family="Helvetica,sans-Serif" font-size="10.00">/home/ram/OmniTemplate</text>
<text text-anchor="middle" x="1069.87" y="-141.5" font-family="Helvetica,sans-Serif" font-size="10.00">/coroutine.hpp</text>
</a>
</g>
</g>
<!-- Node2&#45;&gt;Node15 -->
<g id="edge28" class="edge">
<title>Node2&#45;&gt;Node15</title>
<path fill="none" stroke="midnightblue" d="M1073.38,-325C1072.53,-282.93 1070.83,-198.26 1070.16,-164.68"/>
<polygon fill="midnightblue" stroke="midnightblue" points="1069.88,-325.26 1073.58,-335.19 1076.88,-325.12 1069.88,-325.26"/>
</g>
<!-- Node16 -->
<g id="node16" class="node">
<title>Node16</title>
<g id="a_node16"><a xlink:href="fft_8hpp.html" target="_top" xlink:title=" ">
<polygon fill="white" stroke="black" points="1159.87,-134.5 1159.87,-164.5 1303.87,-164.5 1303.87,-134.5 1159.87,-134.5"/>
<text text-anchor="start" x="1167.87" y="-152.5" font-family="Helvetica,sans-Serif" font-size="10.00">/home/ram/OmniTemplate</text>
<text text-anchor="middle" x="1231.87" y="-141.5" font-family="Helvetica,sans-Serif" font-size="10.00">/fft.hpp</text>
</a>
</g>
</g>
<!-- Node2&#45;&gt;Node16 -->
<g id="edge30" class="edge">
<title>Node2&#45;&gt;Node16</title>
<path fill="none" stroke="midnightblue" d="M1077.42,-325.18C1083.27,-288.04 1095.9,-219.53 1111.87,-201 1126.78,-183.71 1148.6,-172.2 1169.56,-164.61"/>
<polygon fill="midnightblue" stroke="midnightblue" points="1073.94,-324.77 1075.89,-335.18 1080.86,-325.83 1073.94,-324.77"/>
</g>
<!-- Node17 -->
<g id="node17" class="node">
<title>Node17</title>
<g id="a_node17"><a xlink:href="geometry_8hpp.html" target="_top" xlink:title=" ">
<polygon fill="white" stroke="black" points="1120.87,-201.5 1120.87,-231.5 1264.87,-231.5 1264.87,-201.5 1120.87,-201.5"/>
<text text-anchor="start" x="1128.87" y="-219.5" font-family="Helvetica,sans-Serif" font-size="10.00">/home/ram/OmniTemplate</text>
<text text-anchor="middle" x="1192.87" y="-208.5" font-family="Helvetica,sans-Serif" font-size="10.00">/geometry.hpp</text>
</a>
</g>
</g>
<!-- Node2&#45;&gt;Node17 -->
<g id="edge32" class="edge">
<title>Node2&#45;&gt;Node17</title>
<path fill="none" stroke="midnightblue" d="M1093.35,-327.9C1117.91,-300.65 1159.44,-254.58 1180.23,-231.52"/>
<polygon fill="midnightblue" stroke="midnightblue" points="1090.7,-325.6 1086.61,-335.37 1095.9,-330.29 1090.7,-325.6"/>
</g>
<!-- Node18 -->
<g id="node18" class="node">
<title>Node18</title>
<g id="a_node18"><a xlink:href="main_8hpp.html" target="_top" xlink:title=" ">
<polygon fill="white" stroke="black" points="1359.87,-134.5 1359.87,-164.5 1503.87,-164.5 1503.87,-134.5 1359.87,-134.5"/>
<text text-anchor="start" x="1367.87" y="-152.5" font-family="Helvetica,sans-Serif" font-size="10.00">/home/ram/OmniTemplate</text>
<text text-anchor="middle" x="1431.87" y="-141.5" font-family="Helvetica,sans-Serif" font-size="10.00">/main.hpp</text>
</a>
</g>
</g>
<!-- Node2&#45;&gt;Node18 -->
<g id="edge34" class="edge">
<title>Node2&#45;&gt;Node18</title>
<path fill="none" stroke="midnightblue" d="M1108.4,-330.3C1180,-290.51 1343.2,-199.79 1406.3,-164.71"/>
<polygon fill="midnightblue" stroke="midnightblue" points="1106.37,-327.43 1099.33,-335.35 1109.77,-333.55 1106.37,-327.43"/>
</g>
<!-- Node19 -->
<g id="node19" class="node">
<title>Node19</title>
<g id="a_node19"><a xlink:href="modulo_8hpp.html" target="_top" xlink:title=" ">
<polygon fill="white" stroke="black" points="1289.87,-268.5 1289.87,-298.5 1433.87,-298.5 1433.87,-268.5 1289.87,-268.5"/>
<text text-anchor="start" x="1297.87" y="-286.5" font-family="Helvetica,sans-Serif" font-size="10.00">/home/ram/OmniTemplate</text>
<text text-anchor="middle" x="1361.87" y="-275.5" font-family="Helvetica,sans-Serif" font-size="10.00">/modulo.hpp</text>
</a>
</g>
</g>
<!-- Node2&#45;&gt;Node19 -->
<g id="edge36" class="edge">
<title>Node2&#45;&gt;Node19</title>
<path fill="none" stroke="midnightblue" d="M1145.86,-333.25C1193.07,-322.6 1254.18,-308.81 1299.35,-298.61"/>
<polygon fill="midnightblue" stroke="midnightblue" points="1144.99,-329.86 1136.01,-335.48 1146.53,-336.69 1144.99,-329.86"/>
</g>
<!-- Node20 -->
<g id="node20" class="node">
<title>Node20</title>
<g id="a_node20"><a xlink:href="number__theory_8hpp.html" target="_top" xlink:title=" ">
<polygon fill="white" stroke="black" points="1373.87,-201.5 1373.87,-231.5 1517.87,-231.5 1517.87,-201.5 1373.87,-201.5"/>
<text text-anchor="start" x="1381.87" y="-219.5" font-family="Helvetica,sans-Serif" font-size="10.00">/home/ram/OmniTemplate</text>
<text text-anchor="middle" x="1445.87" y="-208.5" font-family="Helvetica,sans-Serif" font-size="10.00">/number_theory.hpp</text>
</a>
</g>
</g>
<!-- Node2&#45;&gt;Node20 -->
<g id="edge40" class="edge">
<title>Node2&#45;&gt;Node20</title>
<path fill="none" stroke="midnightblue" d="M1156.3,-350.05C1253.25,-348.77 1405.73,-340.03 1442.87,-299 1459.41,-280.74 1454.85,-249.65 1450.24,-231.61"/>
<polygon fill="midnightblue" stroke="midnightblue" points="1156.19,-346.55 1146.22,-350.16 1156.26,-353.55 1156.19,-346.55"/>
</g>
<!-- Node21 -->
<g id="node21" class="node">
<title>Node21</title>
<g id="a_node21"><a xlink:href="persistent_8hpp.html" target="_top" xlink:title=" ">
<polygon fill="white" stroke="black" points="1535.87,-201.5 1535.87,-231.5 1679.87,-231.5 1679.87,-201.5 1535.87,-201.5"/>
<text text-anchor="start" x="1543.87" y="-219.5" font-family="Helvetica,sans-Serif" font-size="10.00">/home/ram/OmniTemplate</text>
<text text-anchor="middle" x="1607.87" y="-208.5" font-family="Helvetica,sans-Serif" font-size="10.00">/persistent.hpp</text>
</a>
</g>
</g>
<!-- Node2&#45;&gt;Node21 -->
<g id="edge41" class="edge">
<title>Node2&#45;&gt;Node21</title>
<path fill="none" stroke="midnightblue" d="M1156.13,-347.77C1236.07,-344.03 1359.97,-332.69 1461.87,-299 1510.38,-282.96 1561.2,-250.46 1588.22,-231.7"/>
<polygon fill="midnightblue" stroke="midnightblue" points="1155.95,-344.28 1146.12,-348.21 1156.26,-351.27 1155.95,-344.28"/>
</g>
<!-- Node22 -->
<g id="node22" class="node">
<title>Node22</title>
<g id="a_node22"><a xlink:href="queue_8hpp.html" target="_top" xlink:title=" ">
<polygon fill="white" stroke="black" points="1635.87,-134.5 1635.87,-164.5 1779.87,-164.5 1779.87,-134.5 1635.87,-134.5"/>
<text text-anchor="start" x="1643.87" y="-152.5" font-family="Helvetica,sans-Serif" font-size="10.00">/home/ram/OmniTemplate</text>
<text text-anchor="middle" x="1707.87" y="-141.5" font-family="Helvetica,sans-Serif" font-size="10.00">/queue.hpp</text>
</a>
</g>
</g>
<!-- Node2&#45;&gt;Node22 -->
<g id="edge43" class="edge">
<title>Node2&#45;&gt;Node22</title>
<path fill="none" stroke="midnightblue" d="M1156.22,-345.85C1244.47,-340.57 1388.17,-328.02 1508.87,-299 1591.87,-279.04 1632.47,-296.08 1688.87,-232 1705.48,-213.13 1708.32,-182.55 1708.41,-164.7"/>
<polygon fill="midnightblue" stroke="midnightblue" points="1155.78,-342.37 1146,-346.44 1156.19,-349.35 1155.78,-342.37"/>
</g>
<!-- Node23 -->
<g id="node23" class="node">
<title>Node23</title>
<g id="a_node23"><a xlink:href="segment__tree_8hpp.html" target="_top" xlink:title=" ">
<polygon fill="white" stroke="black" points="1735.87,-201.5 1735.87,-231.5 1879.87,-231.5 1879.87,-201.5 1735.87,-201.5"/>
<text text-anchor="start" x="1743.87" y="-219.5" font-family="Helvetica,sans-Serif" font-size="10.00">/home/ram/OmniTemplate</text>
<text text-anchor="middle" x="1807.87" y="-208.5" font-family="Helvetica,sans-Serif" font-size="10.00">/segment_tree.hpp</text>
</a>
</g>
</g>
<!-- Node2&#45;&gt;Node23 -->
<g id="edge45" class="edge">
<title>Node2&#45;&gt;Node23</title>
<path fill="none" stroke="midnightblue" d="M1156.07,-349.86C1307.19,-349.41 1622.77,-343.04 1721.87,-299 1755.14,-284.22 1783.52,-250.91 1797.86,-231.77"/>
<polygon fill="midnightblue" stroke="midnightblue" points="1155.91,-346.36 1145.92,-349.88 1155.92,-353.36 1155.91,-346.36"/>
</g>
<!-- Node24 -->
<g id="node24" class="node">
<title>Node24</title>
<g id="a_node24"><a xlink:href="splay__tree_8hpp.html" target="_top" xlink:title=" ">
<polygon fill="white" stroke="black" points="1835.87,-134.5 1835.87,-164.5 1979.87,-164.5 1979.87,-134.5 1835.87,-134.5"/>
<text text-anchor="start" x="1843.87" y="-152.5" font-family="Helvetica,sans-Serif" font-size="10.00">/home/ram/OmniTemplate</text>
<text text-anchor="middle" x="1907.87" y="-141.5" font-family="Helvetica,sans-Serif" font-size="10.00">/splay_tree.hpp</text>
</a>
</g>
</g>
<!-- Node2&#45;&gt;Node24 -->
<g id="edge47" class="edge">
<title>Node2&#45;&gt;Node24</title>
<path fill="none" stroke="midnightblue" d="M1156.09,-348.68C1312.73,-346.26 1648.03,-336.69 1756.87,-299 1780.17,-290.93 1781.17,-279.71 1802.87,-268 1839.34,-248.33 1862.12,-263.65 1888.87,-232 1905.1,-212.8 1908.07,-182.33 1908.29,-164.59"/>
<polygon fill="midnightblue" stroke="midnightblue" points="1155.98,-345.18 1146.03,-348.83 1156.09,-352.18 1155.98,-345.18"/>
</g>
<!-- Node25 -->
<g id="node25" class="node">
<title>Node25</title>
<g id="a_node25"><a xlink:href="string_8hpp.html" target="_top" xlink:title=" ">
<polygon fill="white" stroke="black" points="1811.87,-268.5 1811.87,-298.5 1955.87,-298.5 1955.87,-268.5 1811.87,-268.5"/>
<text text-anchor="start" x="1819.87" y="-286.5" font-family="Helvetica,sans-Serif" font-size="10.00">/home/ram/OmniTemplate</text>
<text text-anchor="middle" x="1883.87" y="-275.5" font-family="Helvetica,sans-Serif" font-size="10.00">/string.hpp</text>
</a>
</g>
</g>
<!-- Node2&#45;&gt;Node25 -->
<g id="edge49" class="edge">
<title>Node2&#45;&gt;Node25</title>
<path fill="none" stroke="midnightblue" d="M1156.25,-346.37C1290.86,-340.66 1566.18,-326.55 1797.87,-299 1802.38,-298.46 1807.02,-297.85 1811.68,-297.2"/>
<polygon fill="midnightblue" stroke="midnightblue" points="1155.87,-342.88 1146.02,-346.8 1156.16,-349.87 1155.87,-342.88"/>
</g>
<!-- Node26 -->
<g id="node26" class="node">
<title>Node26</title>
<g id="a_node26"><a xlink:href="time_8hpp.html" target="_top" xlink:title=" ">
<polygon fill="white" stroke="black" points="1973.87,-268.5 1973.87,-298.5 2117.87,-298.5 2117.87,-268.5 1973.87,-268.5"/>
<text text-anchor="start" x="1981.87" y="-286.5" font-family="Helvetica,sans-Serif" font-size="10.00">/home/ram/OmniTemplate</text>
<text text-anchor="middle" x="2045.87" y="-275.5" font-family="Helvetica,sans-Serif" font-size="10.00">/time.hpp</text>
</a>
</g>
</g>
<!-- Node2&#45;&gt;Node26 -->
<g id="edge52" class="edge">
<title>Node2&#45;&gt;Node26</title>
<path fill="none" stroke="midnightblue" d="M1156.11,-348.15C1313.58,-344.82 1668.43,-333.81 1964.87,-299 1967.71,-298.67 1970.6,-298.3 1973.51,-297.9"/>
<polygon fill="midnightblue" stroke="midnightblue" points="1155.95,-344.65 1146.02,-348.36 1156.09,-351.65 1155.95,-344.65"/>
</g>
<!-- Node27 -->
<g id="node27" class="node">
<title>Node27</title>
<g id="a_node27"><a xlink:href="tree_8hpp.html" target="_top" xlink:title=" ">
<polygon fill="white" stroke="black" points="2135.87,-268.5 2135.87,-298.5 2279.87,-298.5 2279.87,-268.5 2135.87,-268.5"/>
<text text-anchor="start" x="2143.87" y="-286.5" font-family="Helvetica,sans-Serif" font-size="10.00">/home/ram/OmniTemplate</text>
<text text-anchor="middle" x="2207.87" y="-275.5" font-family="Helvetica,sans-Serif" font-size="10.00">/tree.hpp</text>
</a>
</g>
</g>
<!-- Node2&#45;&gt;Node27 -->
<g id="edge54" class="edge">
<title>Node2&#45;&gt;Node27</title>
<path fill="none" stroke="midnightblue" d="M1156,-349.17C1333.66,-347.65 1766.72,-339.7 2126.87,-299 2129.71,-298.68 2132.6,-298.32 2135.52,-297.93"/>
<polygon fill="midnightblue" stroke="midnightblue" points="1155.92,-345.67 1145.94,-349.25 1155.97,-352.67 1155.92,-345.67"/>
</g>
<!-- Node28 -->
<g id="node28" class="node">
<title>Node28</title>
<g id="a_node28"><a xlink:href="treap_8hpp.html" target="_top" xlink:title=" ">
<polygon fill="white" stroke="black" points="2297.87,-268.5 2297.87,-298.5 2441.87,-298.5 2441.87,-268.5 2297.87,-268.5"/>
<text text-anchor="start" x="2305.87" y="-286.5" font-family="Helvetica,sans-Serif" font-size="10.00">/home/ram/OmniTemplate</text>
<text text-anchor="middle" x="2369.87" y="-275.5" font-family="Helvetica,sans-Serif" font-size="10.00">/treap.hpp</text>
</a>
</g>
</g>
<!-- Node2&#45;&gt;Node28 -->
<g id="edge56" class="edge">
<title>Node2&#45;&gt;Node28</title>
<path fill="none" stroke="midnightblue" d="M1156.27,-349.92C1352.88,-350.08 1864.68,-345.57 2288.87,-299 2291.71,-298.69 2294.6,-298.34 2297.52,-297.95"/>
<polygon fill="midnightblue" stroke="midnightblue" points="1156.03,-346.42 1146.02,-349.91 1156.02,-353.42 1156.03,-346.42"/>
</g>
<!-- Node3&#45;&gt;Node4 -->
<g id="edge3" class="edge">
<title>Node3&#45;&gt;Node4</title>
<path fill="none" stroke="midnightblue" d="M552.04,-134.45C553.32,-134.3 554.6,-134.15 555.87,-134 833.5,-102.2 1166.07,-89.57 1309.83,-85.34"/>
<polygon fill="midnightblue" stroke="midnightblue" points="551.52,-130.99 542.05,-135.76 552.42,-137.93 551.52,-130.99"/>
</g>
<!-- Node5 -->
<g id="node5" class="node">
<title>Node5</title>
<g id="a_node5"><a xlink:href="test_8cpp.html" target="_top" xlink:title=" ">
<polygon fill="white" stroke="black" points="1309.87,-0.5 1309.87,-30.5 1453.87,-30.5 1453.87,-0.5 1309.87,-0.5"/>
<text text-anchor="start" x="1317.87" y="-18.5" font-family="Helvetica,sans-Serif" font-size="10.00">/home/ram/OmniTemplate</text>
<text text-anchor="middle" x="1381.87" y="-7.5" font-family="Helvetica,sans-Serif" font-size="10.00">/test.cpp</text>
</a>
</g>
</g>
<!-- Node4&#45;&gt;Node5 -->
<g id="edge4" class="edge">
<title>Node4&#45;&gt;Node5</title>
<path fill="none" stroke="midnightblue" d="M1381.87,-57.11C1381.87,-48.15 1381.87,-38.32 1381.87,-30.58"/>
<polygon fill="midnightblue" stroke="midnightblue" points="1378.37,-57.4 1381.87,-67.4 1385.37,-57.4 1378.37,-57.4"/>
</g>
<!-- Node6&#45;&gt;Node2 -->
<g id="edge11" class="edge">
<title>Node6&#45;&gt;Node2</title>
<path fill="none" stroke="midnightblue" d="M423.19,-297.31C427.48,-297.92 431.73,-298.49 435.87,-299 640.51,-324.19 883.2,-339.17 1001.68,-345.67"/>
<polygon fill="midnightblue" stroke="midnightblue" points="423.52,-293.83 413.12,-295.83 422.5,-300.75 423.52,-293.83"/>
</g>
<!-- Node7 -->
<g id="node7" class="node">
<title>Node7</title>
<g id="a_node7"><a xlink:href="debug_8hpp.html" target="_top" xlink:title=" ">
<polygon fill="white" stroke="black" points="182.87,-201.5 182.87,-231.5 326.87,-231.5 326.87,-201.5 182.87,-201.5"/>
<text text-anchor="start" x="190.87" y="-219.5" font-family="Helvetica,sans-Serif" font-size="10.00">/home/ram/OmniTemplate</text>
<text text-anchor="middle" x="254.87" y="-208.5" font-family="Helvetica,sans-Serif" font-size="10.00">/debug.hpp</text>
</a>
</g>
</g>
<!-- Node6&#45;&gt;Node7 -->
<g id="edge7" class="edge">
<title>Node6&#45;&gt;Node7</title>
<path fill="none" stroke="midnightblue" d="M313.97,-262.17C300.82,-252.23 285.32,-240.51 273.5,-231.58"/>
<polygon fill="midnightblue" stroke="midnightblue" points="312.12,-265.16 322.21,-268.4 316.34,-259.57 312.12,-265.16"/>
</g>
<!-- Node8 -->
<g id="node8" class="node">
<title>Node8</title>
<g id="a_node8"><a xlink:href="operations_8hpp.html" target="_top" xlink:title=" ">
<polygon fill="white" stroke="black" points="344.87,-201.5 344.87,-231.5 488.87,-231.5 488.87,-201.5 344.87,-201.5"/>
<text text-anchor="start" x="352.87" y="-219.5" font-family="Helvetica,sans-Serif" font-size="10.00">/home/ram/OmniTemplate</text>
<text text-anchor="middle" x="416.87" y="-208.5" font-family="Helvetica,sans-Serif" font-size="10.00">/operations.hpp</text>
</a>
</g>
</g>
<!-- Node6&#45;&gt;Node8 -->
<g id="edge9" class="edge">
<title>Node6&#45;&gt;Node8</title>
<path fill="none" stroke="midnightblue" d="M364.98,-261.88C376.53,-252.01 390.06,-240.43 400.41,-231.58"/>
<polygon fill="midnightblue" stroke="midnightblue" points="362.69,-259.24 357.36,-268.4 367.24,-264.56 362.69,-259.24"/>
</g>
<!-- Node9 -->
<g id="node9" class="node">
<title>Node9</title>
<g id="a_node9"><a xlink:href="utility_8hpp.html" target="_top" xlink:title=" ">
<polygon fill="white" stroke="black" points="20.87,-201.5 20.87,-231.5 164.87,-231.5 164.87,-201.5 20.87,-201.5"/>
<text text-anchor="start" x="28.87" y="-219.5" font-family="Helvetica,sans-Serif" font-size="10.00">/home/ram/OmniTemplate</text>
<text text-anchor="middle" x="92.87" y="-208.5" font-family="Helvetica,sans-Serif" font-size="10.00">/utility.hpp</text>
</a>
</g>
</g>
<!-- Node6&#45;&gt;Node9 -->
<g id="edge12" class="edge">
<title>Node6&#45;&gt;Node9</title>
<path fill="none" stroke="midnightblue" d="M277.6,-265.92C237.13,-255.31 185.2,-241.7 146.71,-231.61"/>
<polygon fill="midnightblue" stroke="midnightblue" points="276.8,-269.33 287.37,-268.48 278.58,-262.55 276.8,-269.33"/>
</g>
<!-- Node7&#45;&gt;Node2 -->
<g id="edge8" class="edge">
<title>Node7&#45;&gt;Node2</title>
<path fill="none" stroke="midnightblue" d="M335.83,-234.2C364.17,-242.02 395.48,-253.01 421.87,-268 439.65,-278.1 437.12,-290.84 455.87,-299 552.11,-340.88 860.31,-348.26 1001.72,-349.4"/>
<polygon fill="midnightblue" stroke="midnightblue" points="336.51,-230.75 325.95,-231.56 334.7,-237.52 336.51,-230.75"/>
</g>
<!-- Node8&#45;&gt;Node2 -->
<g id="edge10" class="edge">
<title>Node8&#45;&gt;Node2</title>
<path fill="none" stroke="midnightblue" d="M433.14,-239.74C448.68,-259.07 473.96,-285.97 502.87,-299 590.15,-338.33 868.7,-347.07 1001.77,-348.98"/>
<polygon fill="midnightblue" stroke="midnightblue" points="435.81,-237.46 426.9,-231.72 430.28,-241.76 435.81,-237.46"/>
</g>
<!-- Node9&#45;&gt;Node2 -->
<g id="edge13" class="edge">
<title>Node9&#45;&gt;Node2</title>
<path fill="none" stroke="midnightblue" d="M123.02,-236.75C155.42,-256.32 209.12,-285.61 259.87,-299 398.92,-335.69 829.78,-345.95 1001.84,-348.62"/>
<polygon fill="midnightblue" stroke="midnightblue" points="124.83,-233.75 114.47,-231.51 121.17,-239.72 124.83,-233.75"/>
</g>
<!-- Node9&#45;&gt;Node4 -->
<g id="edge14" class="edge">
<title>Node9&#45;&gt;Node4</title>
<path fill="none" stroke="midnightblue" d="M142.63,-198.21C200.86,-178.82 300.58,-148.23 388.87,-134 566.32,-105.41 1112.18,-89.92 1309.64,-85.13"/>
<polygon fill="midnightblue" stroke="midnightblue" points="141.32,-194.96 132.95,-201.46 143.55,-201.59 141.32,-194.96"/>
</g>
<!-- Node10&#45;&gt;Node3 -->
<g id="edge16" class="edge">
<title>Node10&#45;&gt;Node3</title>
<path fill="none" stroke="midnightblue" d="M575.64,-197.27C552.23,-186.92 523.36,-174.15 501.71,-164.58"/>
<polygon fill="midnightblue" stroke="midnightblue" points="574.41,-200.55 584.98,-201.4 577.24,-194.15 574.41,-200.55"/>
</g>
<!-- Node10&#45;&gt;Node4 -->
<g id="edge17" class="edge">
<title>Node10&#45;&gt;Node4</title>
<path fill="none" stroke="midnightblue" d="M599.94,-192.45C588.91,-174.4 579.05,-149.8 593.87,-134 618.17,-108.1 1119.58,-91.04 1309.67,-85.48"/>
<polygon fill="midnightblue" stroke="midnightblue" points="597.28,-194.77 605.7,-201.2 603.13,-190.92 597.28,-194.77"/>
</g>
<!-- Node11&#45;&gt;Node4 -->
<g id="edge20" class="edge">
<title>Node11&#45;&gt;Node4</title>
<path fill="none" stroke="midnightblue" d="M715.34,-258.2C713.32,-241.11 708.65,-218.3 697.87,-201 684.51,-179.55 664.69,-187.83 653.87,-165 647.97,-152.55 644.47,-144.07 653.87,-134 697.98,-86.73 1134.6,-82.73 1309.74,-83.06"/>
<polygon fill="midnightblue" stroke="midnightblue" points="711.89,-258.86 716.32,-268.49 718.86,-258.2 711.89,-258.86"/>
</g>
<!-- Node11&#45;&gt;Node10 -->
<g id="edge19" class="edge">
<title>Node11&#45;&gt;Node10</title>
<path fill="none" stroke="midnightblue" d="M686.46,-262.73C670.99,-252.68 652.54,-240.68 638.53,-231.58"/>
<polygon fill="midnightblue" stroke="midnightblue" points="684.88,-265.88 695.17,-268.4 688.7,-260.01 684.88,-265.88"/>
</g>
<!-- Node12&#45;&gt;Node4 -->
<g id="edge23" class="edge">
<title>Node12&#45;&gt;Node4</title>
<path fill="none" stroke="midnightblue" d="M844.68,-263.62C814.7,-247.08 769.92,-222.4 730.87,-201 701.57,-184.94 681.93,-193.73 664.87,-165 657.84,-153.15 655.48,-144.08 664.87,-134 708.18,-87.53 1136.22,-83.04 1309.56,-83.14"/>
<polygon fill="midnightblue" stroke="midnightblue" points="843.04,-266.71 853.49,-268.48 846.42,-260.58 843.04,-266.71"/>
</g>
<!-- Node12&#45;&gt;Node10 -->
<g id="edge22" class="edge">
<title>Node12&#45;&gt;Node10</title>
<path fill="none" stroke="midnightblue" d="M812.57,-266.05C769.74,-255.43 714.58,-241.74 673.75,-231.61"/>
<polygon fill="midnightblue" stroke="midnightblue" points="811.8,-269.47 822.34,-268.48 813.48,-262.67 811.8,-269.47"/>
</g>
<!-- Node13&#45;&gt;Node4 -->
<g id="edge25" class="edge">
<title>Node13&#45;&gt;Node4</title>
<path fill="none" stroke="midnightblue" d="M828.36,-133.87C1007.01,-110.17 1205.7,-95.09 1309.81,-88.06"/>
<polygon fill="midnightblue" stroke="midnightblue" points="827.69,-130.43 818.25,-135.22 828.62,-137.37 827.69,-130.43"/>
</g>
<!-- Node14&#45;&gt;Node4 -->
<g id="edge27" class="edge">
<title>Node14&#45;&gt;Node4</title>
<path fill="none" stroke="midnightblue" d="M990.15,-133.84C1107.63,-115.97 1232.86,-100.66 1309.65,-91.7"/>
<polygon fill="midnightblue" stroke="midnightblue" points="989.62,-130.39 980.27,-135.36 990.68,-137.3 989.62,-130.39"/>
</g>
<!-- Node15&#45;&gt;Node4 -->
<g id="edge29" class="edge">
<title>Node15&#45;&gt;Node4</title>
<path fill="none" stroke="midnightblue" d="M1147.24,-132.38C1198.56,-121.69 1265.25,-107.8 1314.41,-97.55"/>
<polygon fill="midnightblue" stroke="midnightblue" points="1146.26,-129.01 1137.19,-134.48 1147.69,-135.86 1146.26,-129.01"/>
</g>
<!-- Node16&#45;&gt;Node4 -->
<g id="edge31" class="edge">
<title>Node16&#45;&gt;Node4</title>
<path fill="none" stroke="midnightblue" d="M1273.63,-130.41C1297.57,-120.03 1327.19,-107.2 1349.39,-97.58"/>
<polygon fill="midnightblue" stroke="midnightblue" points="1272.2,-127.21 1264.42,-134.4 1274.99,-133.63 1272.2,-127.21"/>
</g>
<!-- Node17&#45;&gt;Node4 -->
<g id="edge33" class="edge">
<title>Node17&#45;&gt;Node4</title>
<path fill="none" stroke="midnightblue" d="M1249.47,-197.96C1270.54,-189.87 1293.91,-178.92 1312.87,-165 1338.73,-146.02 1361.15,-115.47 1372.97,-97.66"/>
<polygon fill="midnightblue" stroke="midnightblue" points="1248.14,-194.72 1239.98,-201.48 1250.57,-201.28 1248.14,-194.72"/>
</g>
<!-- Node18&#45;&gt;Node4 -->
<g id="edge35" class="edge">
<title>Node18&#45;&gt;Node4</title>
<path fill="none" stroke="midnightblue" d="M1414.91,-126.45C1407.56,-116.9 1399.18,-106 1392.7,-97.58"/>
<polygon fill="midnightblue" stroke="midnightblue" points="1412.15,-128.6 1421.02,-134.4 1417.7,-124.34 1412.15,-128.6"/>
</g>
<!-- Node19&#45;&gt;Node4 -->
<g id="edge39" class="edge">
<title>Node19&#45;&gt;Node4</title>
<path fill="none" stroke="midnightblue" d="M1355.69,-258.4C1352.64,-240.59 1351.99,-216.79 1364.87,-201 1407.67,-148.55 1471.04,-218.23 1512.87,-165 1537.7,-133.41 1488.46,-110.86 1443.42,-97.6"/>
<polygon fill="midnightblue" stroke="midnightblue" points="1352.29,-259.25 1357.73,-268.34 1359.14,-257.84 1352.29,-259.25"/>
</g>
<!-- Node19&#45;&gt;Node20 -->
<g id="edge37" class="edge">
<title>Node19&#45;&gt;Node20</title>
<path fill="none" stroke="midnightblue" d="M1388.15,-262.17C1400.99,-252.23 1416.13,-240.51 1427.68,-231.58"/>
<polygon fill="midnightblue" stroke="midnightblue" points="1385.87,-259.51 1380.1,-268.4 1390.15,-265.04 1385.87,-259.51"/>
</g>
<!-- Node20&#45;&gt;Node4 -->
<g id="edge38" class="edge">
<title>Node20&#45;&gt;Node4</title>
<path fill="none" stroke="midnightblue" d="M1507.94,-197.15C1522.9,-189.65 1537.09,-179.27 1545.87,-165 1553.09,-153.27 1554.06,-145.08 1545.87,-134 1524.72,-105.36 1487.58,-92.46 1453.99,-86.83"/>
<polygon fill="midnightblue" stroke="midnightblue" points="1506.19,-194.1 1498.56,-201.45 1509.11,-200.46 1506.19,-194.1"/>
</g>
<!-- Node21&#45;&gt;Node4 -->
<g id="edge42" class="edge">
<title>Node21&#45;&gt;Node4</title>
<path fill="none" stroke="midnightblue" d="M1600.27,-192.02C1593.15,-173.65 1580.75,-148.81 1561.87,-134 1531.1,-109.86 1489.42,-97.26 1453.91,-90.68"/>
<polygon fill="midnightblue" stroke="midnightblue" points="1596.99,-193.25 1603.69,-201.46 1603.57,-190.86 1596.99,-193.25"/>
</g>
<!-- Node22&#45;&gt;Node4 -->
<g id="edge44" class="edge">
<title>Node22&#45;&gt;Node4</title>
<path fill="none" stroke="midnightblue" d="M1627.71,-132.52C1573.99,-121.81 1503.94,-107.84 1452.36,-97.55"/>
<polygon fill="midnightblue" stroke="midnightblue" points="1627.04,-135.95 1637.54,-134.48 1628.41,-129.09 1627.04,-135.95"/>
</g>
<!-- Node23&#45;&gt;Node4 -->
<g id="edge46" class="edge">
<title>Node23&#45;&gt;Node4</title>
<path fill="none" stroke="midnightblue" d="M1809.1,-191.26C1808.62,-172.8 1804.67,-148.21 1788.87,-134 1741.03,-90.96 1557.85,-83.52 1454.3,-82.87"/>
<polygon fill="midnightblue" stroke="midnightblue" points="1805.6,-191.27 1809.05,-201.29 1812.6,-191.31 1805.6,-191.27"/>
</g>
<!-- Node24&#45;&gt;Node4 -->
<g id="edge48" class="edge">
<title>Node24&#45;&gt;Node4</title>
<path fill="none" stroke="midnightblue" d="M1825.7,-134.55C1824.41,-134.36 1823.14,-134.18 1821.87,-134 1692.64,-115.7 1541.33,-99.47 1454.04,-90.6"/>
<polygon fill="midnightblue" stroke="midnightblue" points="1825.25,-138.02 1835.65,-136.04 1826.28,-131.1 1825.25,-138.02"/>
</g>
<!-- Node25&#45;&gt;Node4 -->
<g id="edge50" class="edge">
<title>Node25&#45;&gt;Node4</title>
<path fill="none" stroke="midnightblue" d="M1915.57,-262.57C1959.04,-232.89 2027.58,-176.06 1988.87,-134 1953.29,-95.34 1607.09,-86.27 1454.03,-84.15"/>
<polygon fill="midnightblue" stroke="midnightblue" points="1913.36,-259.84 1906.99,-268.31 1917.25,-265.66 1913.36,-259.84"/>
</g>
<!-- Node26&#45;&gt;Node4 -->
<g id="edge53" class="edge">
<title>Node26&#45;&gt;Node4</title>
<path fill="none" stroke="midnightblue" d="M2047.53,-257.98C2048.31,-224.32 2044.07,-164.51 2007.87,-134 1966.32,-98.97 1609.79,-87.87 1454.11,-84.68"/>
<polygon fill="midnightblue" stroke="midnightblue" points="2044.02,-258.18 2047.11,-268.32 2051.01,-258.47 2044.02,-258.18"/>
</g>
<!-- Node27&#45;&gt;Node4 -->
<g id="edge55" class="edge">
<title>Node27&#45;&gt;Node4</title>
<path fill="none" stroke="midnightblue" d="M2189.96,-260.19C2161.05,-226.03 2100.47,-161.83 2032.87,-134 1929.82,-91.57 1601.03,-84.53 1454.05,-83.54"/>
<polygon fill="midnightblue" stroke="midnightblue" points="2187.53,-262.73 2196.61,-268.18 2192.91,-258.26 2187.53,-262.73"/>
</g>
<!-- Node28&#45;&gt;Node4 -->
<g id="edge57" class="edge">
<title>Node28&#45;&gt;Node4</title>
<path fill="none" stroke="midnightblue" d="M2340.53,-262.82C2289.1,-229.49 2178.19,-162.75 2073.87,-134 1958.76,-102.28 1606.93,-89.4 1454.06,-85.21"/>
<polygon fill="midnightblue" stroke="midnightblue" points="2338.86,-265.9 2349.14,-268.45 2342.69,-260.04 2338.86,-265.9"/>
</g>
</g>
</svg>
        <g id="navigator" transform="translate(0 0)" fill="#404254">
                <rect fill="#f2f5e9" fill-opacity="0.5" stroke="#606060" stroke-width=".5" x="0" y="0" width="60" height="60"/>
                <use id="zoomplus" xlink:href="#zoomPlus" x="17" y="9" onmousedown="handleZoom(evt,'in')"/>
                <use id="zoomminus" xlink:href="#zoomMin" x="42" y="9" onmousedown="handleZoom(evt,'out')"/>
                <use id="reset" xlink:href="#resetDef" x="30" y="36" onmousedown="handleReset()"/>
                <g id="arrowUp" xlink:href="#dirArrow" transform="translate(30 24)" onmousedown="handlePan(0,-1)">
                  <use xlink:href="#rim" fill="#404040">
                        <set attributeName="fill" to="#808080" begin="arrowUp.mouseover" end="arrowUp.mouseout"/>
                  </use>
                  <path fill="none" stroke="white" stroke-width="1.5" d="M0,-3.0v7 M-2.5,-0.5L0,-3.0L2.5,-0.5"/>
                </g>
                <g id="arrowRight" xlink:href="#dirArrow" transform="rotate(90) translate(36 -43)" onmousedown="handlePan(1,0)">
                  <use xlink:href="#rim" fill="#404040">
                        <set attributeName="fill" to="#808080" begin="arrowRight.mouseover" end="arrowRight.mouseout"/>
                  </use>
                  <path fill="none" stroke="white" stroke-width="1.5" d="M0,-3.0v7 M-2.5,-0.5L0,-3.0L2.5,-0.5"/>
                </g>
                <g id="arrowDown" xlink:href="#dirArrow" transform="rotate(180) translate(-30 -48)" onmousedown="handlePan(0,1)">
                  <use xlink:href="#rim" fill="#404040">
                        <set attributeName="fill" to="#808080" begin="arrowDown.mouseover" end="arrowDown.mouseout"/>
                  </use>
                  <path fill="none" stroke="white" stroke-width="1.5" d="M0,-3.0v7 M-2.5,-0.5L0,-3.0L2.5,-0.5"/>
                </g>
                <g id="arrowLeft" xlink:href="#dirArrow" transform="rotate(270) translate(-36 17)" onmousedown="handlePan(-1,0)">
                  <use xlink:href="#rim" fill="#404040">
                        <set attributeName="fill" to="#808080" begin="arrowLeft.mouseover" end="arrowLeft.mouseout"/>
                  </use>
                  <path fill="none" stroke="white" stroke-width="1.5" d="M0,-3.0v7 M-2.5,-0.5L0,-3.0L2.5,-0.5"/>
                </g>
        </g>
        <svg viewBox="0 0 15 15" width="100%" height="30px" preserveAspectRatio="xMaxYMin meet">
         <g id="arrow_out" transform="scale(0.3 0.3)">
          <a xlink:href="my__int_8hpp__dep__incl_org.svg" target="_base">
           <rect id="button" ry="5" rx="5" y="6" x="6" height="38" width="38"
                fill="#f2f5e9" fill-opacity="0.5" stroke="#606060" stroke-width="1.0"/>
           <path id="arrow"
             d="M 11.500037,31.436501 C 11.940474,20.09759 22.043105,11.32322 32.158766,21.979434 L 37.068811,17.246167 C 37.068811,17.246167 37.088388,32 37.088388,32 L 22.160133,31.978069 C 22.160133,31.978069 26.997745,27.140456 26.997745,27.140456 C 18.528582,18.264221 13.291696,25.230495 11.500037,31.436501 z"
             style="fill:#404040;"/>
          </a>
         </g>
        </svg>
</svg>
