<?xml version="1.0" encoding="UTF-8" standalone="no"?>
<!DOCTYPE svg PUBLIC "-//W3C//DTD SVG 1.1//EN"
 "http://www.w3.org/Graphics/SVG/1.1/DTD/svg11.dtd">
<!-- Generated by graphviz version 2.43.0 (0)
 -->
<!-- Title: /home/ram/OmniTemplate/my_int.hpp Pages: 1 -->
<svg width="763pt" height="218pt"
 viewBox="0.00 0.00 763.00 218.00" xmlns="http://www.w3.org/2000/svg" xmlns:xlink="http://www.w3.org/1999/xlink">
<g id="graph0" class="graph" transform="scale(1 1) rotate(0) translate(4 214)">
<title>/home/ram/OmniTemplate/my_int.hpp</title>
<polygon fill="white" stroke="transparent" points="-4,4 -4,-214 759,-214 759,4 -4,4"/>
<!-- Node1 -->
<g id="node1" class="node">
<title>Node1</title>
<g id="a_node1"><a xlink:title=" ">
<polygon fill="#bfbfbf" stroke="black" points="402.5,-179.5 402.5,-209.5 546.5,-209.5 546.5,-179.5 402.5,-179.5"/>
<text text-anchor="start" x="410.5" y="-197.5" font-family="Helvetica,sans-Serif" font-size="10.00">/home/ram/OmniTemplate</text>
<text text-anchor="middle" x="474.5" y="-186.5" font-family="Helvetica,sans-Serif" font-size="10.00">/my_int.hpp</text>
</a>
</g>
</g>
<!-- Node2 -->
<g id="node2" class="node">
<title>Node2</title>
<g id="a_node2"><a xlink:href="core_8hpp.html" target="_top" xlink:title=" ">
<polygon fill="white" stroke="black" points="445,-123.5 445,-142.5 504,-142.5 504,-123.5 445,-123.5"/>
<text text-anchor="middle" x="474.5" y="-130.5" font-family="Helvetica,sans-Serif" font-size="10.00">core.hpp</text>
</a>
</g>
</g>
<!-- Node1&#45;&gt;Node2 -->
<g id="edge1" class="edge">
<title>Node1&#45;&gt;Node2</title>
<path fill="none" stroke="midnightblue" d="M468.66,-179.4C467.63,-171.38 467.47,-161.23 468.19,-152.57"/>
<polygon fill="midnightblue" stroke="midnightblue" points="471.66,-153.04 469.57,-142.66 464.73,-152.08 471.66,-153.04"/>
</g>
<!-- Node2&#45;&gt;Node1 -->
<g id="edge5" class="edge">
<title>Node2&#45;&gt;Node1</title>
<path fill="none" stroke="midnightblue" d="M479.43,-142.66C480.93,-149.65 481.51,-159.86 481.14,-169.29"/>
<polygon fill="midnightblue" stroke="midnightblue" points="477.64,-169.15 480.34,-179.4 484.62,-169.71 477.64,-169.15"/>
</g>
<!-- Node3 -->
<g id="node3" class="node">
<title>Node3</title>
<g id="a_node3"><a xlink:title=" ">
<polygon fill="white" stroke="#bfbfbf" points="0,-62 0,-81 83,-81 83,-62 0,-62"/>
<text text-anchor="middle" x="41.5" y="-69" font-family="Helvetica,sans-Serif" font-size="10.00">bits/stdc++.h</text>
</a>
</g>
</g>
<!-- Node2&#45;&gt;Node3 -->
<g id="edge2" class="edge">
<title>Node2&#45;&gt;Node3</title>
<path fill="none" stroke="midnightblue" d="M444.53,-130.1C379.77,-125.65 222.16,-112.9 92.5,-87 87.96,-86.09 83.23,-84.98 78.57,-83.78"/>
<polygon fill="midnightblue" stroke="midnightblue" points="79.13,-80.31 68.57,-81.06 77.3,-87.06 79.13,-80.31"/>
</g>
<!-- Node4 -->
<g id="node4" class="node">
<title>Node4</title>
<g id="a_node4"><a xlink:title=" ">
<polygon fill="white" stroke="#bfbfbf" points="101,-62 101,-81 222,-81 222,-62 101,-62"/>
<text text-anchor="middle" x="161.5" y="-69" font-family="Helvetica,sans-Serif" font-size="10.00">experimental/iterator</text>
</a>
</g>
</g>
<!-- Node2&#45;&gt;Node4 -->
<g id="edge3" class="edge">
<title>Node2&#45;&gt;Node4</title>
<path fill="none" stroke="midnightblue" d="M444.91,-126.73C399.12,-118.52 308.34,-102.07 231.5,-87 225.19,-85.76 218.56,-84.43 212,-83.09"/>
<polygon fill="midnightblue" stroke="midnightblue" points="212.32,-79.59 201.82,-81 210.91,-86.44 212.32,-79.59"/>
</g>
<!-- Node5 -->
<g id="node5" class="node">
<title>Node5</title>
<g id="a_node5"><a xlink:title=" ">
<polygon fill="white" stroke="#bfbfbf" points="240,-56.5 240,-86.5 357,-86.5 357,-56.5 240,-56.5"/>
<text text-anchor="start" x="248" y="-74.5" font-family="Helvetica,sans-Serif" font-size="10.00">experimental/source</text>
<text text-anchor="middle" x="298.5" y="-63.5" font-family="Helvetica,sans-Serif" font-size="10.00">_location</text>
</a>
</g>
</g>
<!-- Node2&#45;&gt;Node5 -->
<g id="edge4" class="edge">
<title>Node2&#45;&gt;Node5</title>
<path fill="none" stroke="midnightblue" d="M449.28,-123.48C423.44,-114.74 382.53,-100.91 349.84,-89.86"/>
<polygon fill="midnightblue" stroke="midnightblue" points="350.57,-86.41 339.98,-86.52 348.33,-93.04 350.57,-86.41"/>
</g>
<!-- Node6 -->
<g id="node6" class="node">
<title>Node6</title>
<g id="a_node6"><a xlink:href="io_8hpp.html" target="_top" xlink:title=" ">
<polygon fill="white" stroke="black" points="375,-62 375,-81 422,-81 422,-62 375,-62"/>
<text text-anchor="middle" x="398.5" y="-69" font-family="Helvetica,sans-Serif" font-size="10.00">io.hpp</text>
</a>
</g>
</g>
<!-- Node2&#45;&gt;Node6 -->
<g id="edge6" class="edge">
<title>Node2&#45;&gt;Node6</title>
<path fill="none" stroke="midnightblue" d="M463.61,-123.48C451.53,-114.02 431.83,-98.6 417.26,-87.19"/>
<polygon fill="midnightblue" stroke="midnightblue" points="419.4,-84.42 409.37,-81.01 415.09,-89.93 419.4,-84.42"/>
</g>
<!-- Node7 -->
<g id="node7" class="node">
<title>Node7</title>
<g id="a_node7"><a xlink:href="debug_8hpp.html" target="_top" xlink:title=" ">
<polygon fill="white" stroke="black" points="440.5,-62 440.5,-81 508.5,-81 508.5,-62 440.5,-62"/>
<text text-anchor="middle" x="474.5" y="-69" font-family="Helvetica,sans-Serif" font-size="10.00">debug.hpp</text>
</a>
</g>
</g>
<!-- Node2&#45;&gt;Node7 -->
<g id="edge7" class="edge">
<title>Node2&#45;&gt;Node7</title>
<path fill="none" stroke="midnightblue" d="M474.5,-123.48C474.5,-115.08 474.5,-101.98 474.5,-91.16"/>
<polygon fill="midnightblue" stroke="midnightblue" points="478,-91.01 474.5,-81.01 471,-91.01 478,-91.01"/>
</g>
<!-- Node8 -->
<g id="node8" class="node">
<title>Node8</title>
<g id="a_node8"><a xlink:href="range_8hpp.html" target="_top" xlink:title=" ">
<polygon fill="white" stroke="black" points="513,-0.5 513,-19.5 578,-19.5 578,-0.5 513,-0.5"/>
<text text-anchor="middle" x="545.5" y="-7.5" font-family="Helvetica,sans-Serif" font-size="10.00">range.hpp</text>
</a>
</g>
</g>
<!-- Node2&#45;&gt;Node8 -->
<g id="edge12" class="edge">
<title>Node2&#45;&gt;Node8</title>
<path fill="none" stroke="midnightblue" d="M478.01,-123.31C485.56,-114.88 499.58,-101.3 508.5,-87 519.86,-68.8 527.62,-45.3 533.95,-29.28"/>
<polygon fill="midnightblue" stroke="midnightblue" points="537.22,-30.53 537.92,-19.96 530.78,-27.79 537.22,-30.53"/>
</g>
<!-- Node9 -->
<g id="node9" class="node">
<title>Node9</title>
<g id="a_node9"><a xlink:href="operations_8hpp.html" target="_top" xlink:title=" ">
<polygon fill="white" stroke="black" points="583,-62 583,-81 672,-81 672,-62 583,-62"/>
<text text-anchor="middle" x="627.5" y="-69" font-family="Helvetica,sans-Serif" font-size="10.00">operations.hpp</text>
</a>
</g>
</g>
<!-- Node2&#45;&gt;Node9 -->
<g id="edge10" class="edge">
<title>Node2&#45;&gt;Node9</title>
<path fill="none" stroke="midnightblue" d="M496.42,-123.48C522.55,-113.31 566.41,-96.26 596.13,-84.7"/>
<polygon fill="midnightblue" stroke="midnightblue" points="597.57,-87.9 605.62,-81.01 595.03,-81.37 597.57,-87.9"/>
</g>
<!-- Node10 -->
<g id="node10" class="node">
<title>Node10</title>
<g id="a_node10"><a xlink:href="utility_8hpp.html" target="_top" xlink:title=" ">
<polygon fill="white" stroke="black" points="690,-62 690,-81 755,-81 755,-62 690,-62"/>
<text text-anchor="middle" x="722.5" y="-69" font-family="Helvetica,sans-Serif" font-size="10.00">utility.hpp</text>
</a>
</g>
</g>
<!-- Node2&#45;&gt;Node10 -->
<g id="edge13" class="edge">
<title>Node2&#45;&gt;Node10</title>
<path fill="none" stroke="midnightblue" d="M504.27,-126.75C544.75,-119.33 619.24,-104.7 681.5,-87 684.29,-86.21 687.17,-85.32 690.04,-84.4"/>
<polygon fill="midnightblue" stroke="midnightblue" points="691.32,-87.66 699.68,-81.14 689.08,-81.03 691.32,-87.66"/>
</g>
<!-- Node7&#45;&gt;Node8 -->
<g id="edge8" class="edge">
<title>Node7&#45;&gt;Node8</title>
<path fill="none" stroke="midnightblue" d="M484.67,-61.98C495.85,-52.61 514.02,-37.38 527.59,-26.01"/>
<polygon fill="midnightblue" stroke="midnightblue" points="529.93,-28.61 535.35,-19.51 525.43,-23.25 529.93,-28.61"/>
</g>
<!-- Node8&#45;&gt;Node2 -->
<g id="edge9" class="edge">
<title>Node8&#45;&gt;Node2</title>
<path fill="none" stroke="midnightblue" d="M549.02,-19.96C548.85,-34.75 540.34,-64.81 526.5,-87 519.53,-98.17 509.45,-108.91 499.83,-117.09"/>
<polygon fill="midnightblue" stroke="midnightblue" points="497.62,-114.37 491.94,-123.31 501.96,-119.87 497.62,-114.37"/>
</g>
<!-- Node9&#45;&gt;Node8 -->
<g id="edge11" class="edge">
<title>Node9&#45;&gt;Node8</title>
<path fill="none" stroke="midnightblue" d="M615.75,-61.98C602.72,-52.52 581.46,-37.1 565.74,-25.69"/>
<polygon fill="midnightblue" stroke="midnightblue" points="567.38,-22.55 557.23,-19.51 563.27,-28.21 567.38,-22.55"/>
</g>
<!-- Node10&#45;&gt;Node8 -->
<g id="edge14" class="edge">
<title>Node10&#45;&gt;Node8</title>
<path fill="none" stroke="midnightblue" d="M698.68,-61.98C693.05,-60 687.07,-57.91 681.5,-56 647.66,-44.42 608.91,-31.64 581.45,-22.68"/>
<polygon fill="midnightblue" stroke="midnightblue" points="582.47,-19.33 571.88,-19.55 580.3,-25.98 582.47,-19.33"/>
</g>
</g>
</svg>
