<?xml version="1.0" encoding="UTF-8" standalone="no"?>
<!DOCTYPE svg PUBLIC "-//W3C//DTD SVG 1.1//EN"
 "http://www.w3.org/Graphics/SVG/1.1/DTD/svg11.dtd">
<!-- Generated by graphviz version 2.43.0 (0)
 -->
<!-- Title: /home/ram/OmniTemplate/my_int.hpp Pages: 1 -->
<svg width="763pt" height="218pt"
 viewBox="0.00 0.00 763.00 218.00" xmlns="http://www.w3.org/2000/svg" xmlns:xlink="http://www.w3.org/1999/xlink">
<g id="graph0" class="graph" transform="scale(1 1) rotate(0) translate(4 214)">
<title>/home/ram/OmniTemplate/my_int.hpp</title>
<polygon fill="white" stroke="transparent" points="-4,4 -4,-214 759,-214 759,4 -4,4"/>
<!-- Node1 -->
<g id="node1" class="node">
<title>Node1</title>
<g id="a_node1"><a xlink:title=" ">
<polygon fill="#bfbfbf" stroke="black" points="412.5,-179.5 412.5,-209.5 556.5,-209.5 556.5,-179.5 412.5,-179.5"/>
<text text-anchor="start" x="420.5" y="-197.5" font-family="Helvetica,sans-Serif" font-size="10.00">/home/ram/OmniTemplate</text>
<text text-anchor="middle" x="484.5" y="-186.5" font-family="Helvetica,sans-Serif" font-size="10.00">/my_int.hpp</text>
</a>
</g>
</g>
<!-- Node2 -->
<g id="node2" class="node">
<title>Node2</title>
<g id="a_node2"><a xlink:href="core_8hpp.html" target="_top" xlink:title=" ">
<polygon fill="white" stroke="black" points="455,-123.5 455,-142.5 514,-142.5 514,-123.5 455,-123.5"/>
<text text-anchor="middle" x="484.5" y="-130.5" font-family="Helvetica,sans-Serif" font-size="10.00">core.hpp</text>
</a>
</g>
</g>
<!-- Node1&#45;&gt;Node2 -->
<g id="edge1" class="edge">
<title>Node1&#45;&gt;Node2</title>
<path fill="none" stroke="midnightblue" d="M478.66,-179.4C477.63,-171.38 477.47,-161.23 478.19,-152.57"/>
<polygon fill="midnightblue" stroke="midnightblue" points="481.66,-153.04 479.57,-142.66 474.73,-152.08 481.66,-153.04"/>
</g>
<!-- Node2&#45;&gt;Node1 -->
<g id="edge5" class="edge">
<title>Node2&#45;&gt;Node1</title>
<path fill="none" stroke="midnightblue" d="M489.43,-142.66C490.93,-149.65 491.51,-159.86 491.14,-169.29"/>
<polygon fill="midnightblue" stroke="midnightblue" points="487.64,-169.15 490.34,-179.4 494.62,-169.71 487.64,-169.15"/>
</g>
<!-- Node3 -->
<g id="node3" class="node">
<title>Node3</title>
<g id="a_node3"><a xlink:title=" ">
<polygon fill="white" stroke="#bfbfbf" points="0,-62 0,-81 83,-81 83,-62 0,-62"/>
<text text-anchor="middle" x="41.5" y="-69" font-family="Helvetica,sans-Serif" font-size="10.00">bits/stdc++.h</text>
</a>
</g>
</g>
<!-- Node2&#45;&gt;Node3 -->
<g id="edge2" class="edge">
<title>Node2&#45;&gt;Node3</title>
<path fill="none" stroke="midnightblue" d="M454.74,-130.24C388.92,-125.99 226.22,-113.5 92.5,-87 87.78,-86.06 82.87,-84.91 78.03,-83.66"/>
<polygon fill="midnightblue" stroke="midnightblue" points="78.87,-80.26 68.3,-81 77.02,-87.01 78.87,-80.26"/>
</g>
<!-- Node4 -->
<g id="node4" class="node">
<title>Node4</title>
<g id="a_node4"><a xlink:title=" ">
<polygon fill="white" stroke="#bfbfbf" points="101,-62 101,-81 222,-81 222,-62 101,-62"/>
<text text-anchor="middle" x="161.5" y="-69" font-family="Helvetica,sans-Serif" font-size="10.00">experimental/iterator</text>
</a>
</g>
</g>
<!-- Node2&#45;&gt;Node4 -->
<g id="edge3" class="edge">
<title>Node2&#45;&gt;Node4</title>
<path fill="none" stroke="midnightblue" d="M454.85,-127.01C407.54,-118.97 312.11,-102.51 231.5,-87 225.18,-85.78 218.55,-84.47 212,-83.14"/>
<polygon fill="midnightblue" stroke="midnightblue" points="212.31,-79.63 201.81,-81.05 210.9,-86.49 212.31,-79.63"/>
</g>
<!-- Node5 -->
<g id="node5" class="node">
<title>Node5</title>
<g id="a_node5"><a xlink:title=" ">
<polygon fill="white" stroke="#bfbfbf" points="240,-56.5 240,-86.5 357,-86.5 357,-56.5 240,-56.5"/>
<text text-anchor="start" x="248" y="-74.5" font-family="Helvetica,sans-Serif" font-size="10.00">experimental/source</text>
<text text-anchor="middle" x="298.5" y="-63.5" font-family="Helvetica,sans-Serif" font-size="10.00">_location</text>
</a>
</g>
</g>
<!-- Node2&#45;&gt;Node5 -->
<g id="edge4" class="edge">
<title>Node2&#45;&gt;Node5</title>
<path fill="none" stroke="midnightblue" d="M457.85,-123.48C430.31,-114.66 386.56,-100.67 351.86,-89.57"/>
<polygon fill="midnightblue" stroke="midnightblue" points="352.93,-86.24 342.34,-86.52 350.79,-92.9 352.93,-86.24"/>
</g>
<!-- Node6 -->
<g id="node6" class="node">
<title>Node6</title>
<g id="a_node6"><a xlink:href="io_8hpp.html" target="_top" xlink:title=" ">
<polygon fill="white" stroke="black" points="375,-62 375,-81 422,-81 422,-62 375,-62"/>
<text text-anchor="middle" x="398.5" y="-69" font-family="Helvetica,sans-Serif" font-size="10.00">io.hpp</text>
</a>
</g>
</g>
<!-- Node2&#45;&gt;Node6 -->
<g id="edge6" class="edge">
<title>Node2&#45;&gt;Node6</title>
<path fill="none" stroke="midnightblue" d="M467.28,-123.48C451.55,-114.02 428.92,-98.6 413.82,-87.19"/>
<polygon fill="midnightblue" stroke="midnightblue" points="415.94,-84.4 405.9,-81.01 411.63,-89.92 415.94,-84.4"/>
</g>
<!-- Node7 -->
<g id="node7" class="node">
<title>Node7</title>
<g id="a_node7"><a xlink:href="operations_8hpp.html" target="_top" xlink:title=" ">
<polygon fill="white" stroke="black" points="440,-62 440,-81 529,-81 529,-62 440,-62"/>
<text text-anchor="middle" x="484.5" y="-69" font-family="Helvetica,sans-Serif" font-size="10.00">operations.hpp</text>
</a>
</g>
</g>
<!-- Node2&#45;&gt;Node7 -->
<g id="edge8" class="edge">
<title>Node2&#45;&gt;Node7</title>
<path fill="none" stroke="midnightblue" d="M484.5,-123.48C484.5,-115.08 484.5,-101.98 484.5,-91.16"/>
<polygon fill="midnightblue" stroke="midnightblue" points="488,-91.01 484.5,-81.01 481,-91.01 488,-91.01"/>
</g>
<!-- Node8 -->
<g id="node8" class="node">
<title>Node8</title>
<g id="a_node8"><a xlink:href="range_8hpp.html" target="_top" xlink:title=" ">
<polygon fill="white" stroke="black" points="534,-0.5 534,-19.5 599,-19.5 599,-0.5 534,-0.5"/>
<text text-anchor="middle" x="566.5" y="-7.5" font-family="Helvetica,sans-Serif" font-size="10.00">range.hpp</text>
</a>
</g>
</g>
<!-- Node2&#45;&gt;Node8 -->
<g id="edge11" class="edge">
<title>Node2&#45;&gt;Node8</title>
<path fill="none" stroke="midnightblue" d="M491.58,-123.26C501.77,-115.18 518.81,-102.16 529.5,-87 542,-69.28 549.6,-45.33 555.64,-29.09"/>
<polygon fill="midnightblue" stroke="midnightblue" points="558.94,-30.25 559.41,-19.67 552.44,-27.65 558.94,-30.25"/>
</g>
<!-- Node9 -->
<g id="node9" class="node">
<title>Node9</title>
<g id="a_node9"><a xlink:href="debug_8hpp.html" target="_top" xlink:title=" ">
<polygon fill="white" stroke="black" points="603.5,-62 603.5,-81 671.5,-81 671.5,-62 603.5,-62"/>
<text text-anchor="middle" x="637.5" y="-69" font-family="Helvetica,sans-Serif" font-size="10.00">debug.hpp</text>
</a>
</g>
</g>
<!-- Node2&#45;&gt;Node9 -->
<g id="edge12" class="edge">
<title>Node2&#45;&gt;Node9</title>
<path fill="none" stroke="midnightblue" d="M506.42,-123.48C532.55,-113.31 576.41,-96.26 606.13,-84.7"/>
<polygon fill="midnightblue" stroke="midnightblue" points="607.57,-87.9 615.62,-81.01 605.03,-81.37 607.57,-87.9"/>
</g>
<!-- Node10 -->
<g id="node10" class="node">
<title>Node10</title>
<g id="a_node10"><a xlink:href="utility_8hpp.html" target="_top" xlink:title=" ">
<polygon fill="white" stroke="black" points="690,-62 690,-81 755,-81 755,-62 690,-62"/>
<text text-anchor="middle" x="722.5" y="-69" font-family="Helvetica,sans-Serif" font-size="10.00">utility.hpp</text>
</a>
</g>
</g>
<!-- Node2&#45;&gt;Node10 -->
<g id="edge13" class="edge">
<title>Node2&#45;&gt;Node10</title>
<path fill="none" stroke="midnightblue" d="M514.29,-124.85C551.5,-116.8 616.46,-102.77 671.5,-87 674.54,-86.13 677.68,-85.16 680.86,-84.16"/>
<polygon fill="midnightblue" stroke="midnightblue" points="681.95,-87.48 690.39,-81.08 679.8,-80.82 681.95,-87.48"/>
</g>
<!-- Node6&#45;&gt;Node2 -->
<g id="edge7" class="edge">
<title>Node6&#45;&gt;Node2</title>
<path fill="none" stroke="midnightblue" d="M415.7,-81.01C431.42,-90.46 454.05,-105.88 469.16,-117.29"/>
<polygon fill="midnightblue" stroke="midnightblue" points="467.04,-120.08 477.08,-123.48 471.35,-114.56 467.04,-120.08"/>
</g>
<!-- Node7&#45;&gt;Node8 -->
<g id="edge9" class="edge">
<title>Node7&#45;&gt;Node8</title>
<path fill="none" stroke="midnightblue" d="M496.25,-61.98C509.28,-52.52 530.54,-37.1 546.26,-25.69"/>
<polygon fill="midnightblue" stroke="midnightblue" points="548.73,-28.21 554.77,-19.51 544.62,-22.55 548.73,-28.21"/>
</g>
<!-- Node8&#45;&gt;Node2 -->
<g id="edge10" class="edge">
<title>Node8&#45;&gt;Node2</title>
<path fill="none" stroke="midnightblue" d="M570.28,-19.67C570.7,-34.54 562.74,-65.4 547.5,-87 538.84,-99.28 526.02,-110.15 514.04,-118.14"/>
<polygon fill="midnightblue" stroke="midnightblue" points="512.19,-115.17 505.54,-123.42 515.88,-121.11 512.19,-115.17"/>
</g>
<!-- Node10&#45;&gt;Node2 -->
<g id="edge14" class="edge">
<title>Node10&#45;&gt;Node2</title>
<path fill="none" stroke="midnightblue" d="M707.8,-81.08C702.08,-83.14 695.58,-85.26 689.5,-87 633.03,-103.18 566.13,-117.53 524.35,-125.47"/>
<polygon fill="midnightblue" stroke="midnightblue" points="523.47,-122.07 514.28,-127.34 524.76,-128.95 523.47,-122.07"/>
</g>
</g>
</svg>
