<?xml version="1.0" encoding="UTF-8" standalone="no"?>
<!DOCTYPE svg PUBLIC "-//W3C//DTD SVG 1.1//EN"
 "http://www.w3.org/Graphics/SVG/1.1/DTD/svg11.dtd">
<!-- Generated by graphviz version 2.43.0 (0)
 -->
<!-- Title: /home/ram/OmniTemplate/my_int.hpp Pages: 1 -->
<svg width="607pt" height="218pt"
 viewBox="0.00 0.00 607.00 218.00" xmlns="http://www.w3.org/2000/svg" xmlns:xlink="http://www.w3.org/1999/xlink">
<g id="graph0" class="graph" transform="scale(1 1) rotate(0) translate(4 214)">
<title>/home/ram/OmniTemplate/my_int.hpp</title>
<polygon fill="white" stroke="transparent" points="-4,4 -4,-214 603,-214 603,4 -4,4"/>
<!-- Node1 -->
<g id="node1" class="node">
<title>Node1</title>
<g id="a_node1"><a xlink:title=" ">
<polygon fill="#bfbfbf" stroke="black" points="326.5,-179.5 326.5,-209.5 470.5,-209.5 470.5,-179.5 326.5,-179.5"/>
<text text-anchor="start" x="334.5" y="-197.5" font-family="Helvetica,sans-Serif" font-size="10.00">/home/ram/OmniTemplate</text>
<text text-anchor="middle" x="398.5" y="-186.5" font-family="Helvetica,sans-Serif" font-size="10.00">/my_int.hpp</text>
</a>
</g>
</g>
<!-- Node2 -->
<g id="node2" class="node">
<title>Node2</title>
<g id="a_node2"><a xlink:href="core_8hpp.html" target="_top" xlink:title=" ">
<polygon fill="white" stroke="black" points="369,-123.5 369,-142.5 428,-142.5 428,-123.5 369,-123.5"/>
<text text-anchor="middle" x="398.5" y="-130.5" font-family="Helvetica,sans-Serif" font-size="10.00">core.hpp</text>
</a>
</g>
</g>
<!-- Node1&#45;&gt;Node2 -->
<g id="edge1" class="edge">
<title>Node1&#45;&gt;Node2</title>
<path fill="none" stroke="midnightblue" d="M392.66,-179.4C391.63,-171.38 391.47,-161.23 392.19,-152.57"/>
<polygon fill="midnightblue" stroke="midnightblue" points="395.66,-153.04 393.57,-142.66 388.73,-152.08 395.66,-153.04"/>
</g>
<!-- Node2&#45;&gt;Node1 -->
<g id="edge5" class="edge">
<title>Node2&#45;&gt;Node1</title>
<path fill="none" stroke="midnightblue" d="M403.43,-142.66C404.93,-149.65 405.51,-159.86 405.14,-169.29"/>
<polygon fill="midnightblue" stroke="midnightblue" points="401.64,-169.15 404.34,-179.4 408.62,-169.71 401.64,-169.15"/>
</g>
<!-- Node3 -->
<g id="node3" class="node">
<title>Node3</title>
<g id="a_node3"><a xlink:title=" ">
<polygon fill="white" stroke="#bfbfbf" points="0,-62 0,-81 83,-81 83,-62 0,-62"/>
<text text-anchor="middle" x="41.5" y="-69" font-family="Helvetica,sans-Serif" font-size="10.00">bits/stdc++.h</text>
</a>
</g>
</g>
<!-- Node2&#45;&gt;Node3 -->
<g id="edge2" class="edge">
<title>Node2&#45;&gt;Node3</title>
<path fill="none" stroke="midnightblue" d="M368.73,-128.93C313.76,-122.98 192.77,-108.53 92.5,-87 88.08,-86.05 83.47,-84.93 78.92,-83.74"/>
<polygon fill="midnightblue" stroke="midnightblue" points="79.7,-80.33 69.13,-81.07 77.85,-87.08 79.7,-80.33"/>
</g>
<!-- Node4 -->
<g id="node4" class="node">
<title>Node4</title>
<g id="a_node4"><a xlink:title=" ">
<polygon fill="white" stroke="#bfbfbf" points="101,-62 101,-81 222,-81 222,-62 101,-62"/>
<text text-anchor="middle" x="161.5" y="-69" font-family="Helvetica,sans-Serif" font-size="10.00">experimental/iterator</text>
</a>
</g>
</g>
<!-- Node2&#45;&gt;Node4 -->
<g id="edge3" class="edge">
<title>Node2&#45;&gt;Node4</title>
<path fill="none" stroke="midnightblue" d="M368.96,-124.58C327.84,-114.26 253.02,-95.48 205.37,-83.51"/>
<polygon fill="midnightblue" stroke="midnightblue" points="206.18,-80.11 195.63,-81.07 204.48,-86.9 206.18,-80.11"/>
</g>
<!-- Node5 -->
<g id="node5" class="node">
<title>Node5</title>
<g id="a_node5"><a xlink:title=" ">
<polygon fill="white" stroke="#bfbfbf" points="240,-56.5 240,-86.5 357,-86.5 357,-56.5 240,-56.5"/>
<text text-anchor="start" x="248" y="-74.5" font-family="Helvetica,sans-Serif" font-size="10.00">experimental/source</text>
<text text-anchor="middle" x="298.5" y="-63.5" font-family="Helvetica,sans-Serif" font-size="10.00">_location</text>
</a>
</g>
</g>
<!-- Node2&#45;&gt;Node5 -->
<g id="edge4" class="edge">
<title>Node2&#45;&gt;Node5</title>
<path fill="none" stroke="midnightblue" d="M384.17,-123.48C370.38,-115.27 349.02,-102.56 331.08,-91.88"/>
<polygon fill="midnightblue" stroke="midnightblue" points="332.45,-88.63 322.07,-86.52 328.87,-94.64 332.45,-88.63"/>
</g>
<!-- Node6 -->
<g id="node6" class="node">
<title>Node6</title>
<g id="a_node6"><a xlink:href="io_8hpp.html" target="_top" xlink:title=" ">
<polygon fill="white" stroke="black" points="375,-62 375,-81 422,-81 422,-62 375,-62"/>
<text text-anchor="middle" x="398.5" y="-69" font-family="Helvetica,sans-Serif" font-size="10.00">io.hpp</text>
</a>
</g>
</g>
<!-- Node2&#45;&gt;Node6 -->
<g id="edge6" class="edge">
<title>Node2&#45;&gt;Node6</title>
<path fill="none" stroke="midnightblue" d="M393.6,-123.48C391.77,-115.08 391.3,-101.98 392.19,-91.16"/>
<polygon fill="midnightblue" stroke="midnightblue" points="395.69,-91.4 393.6,-81.01 388.75,-90.43 395.69,-91.4"/>
</g>
<!-- Node7 -->
<g id="node7" class="node">
<title>Node7</title>
<g id="a_node7"><a xlink:href="operations_8hpp.html" target="_top" xlink:title=" ">
<polygon fill="white" stroke="black" points="440,-62 440,-81 529,-81 529,-62 440,-62"/>
<text text-anchor="middle" x="484.5" y="-69" font-family="Helvetica,sans-Serif" font-size="10.00">operations.hpp</text>
</a>
</g>
</g>
<!-- Node2&#45;&gt;Node7 -->
<g id="edge8" class="edge">
<title>Node2&#45;&gt;Node7</title>
<path fill="none" stroke="midnightblue" d="M410.82,-123.48C424.62,-113.93 447.2,-98.31 463.73,-86.87"/>
<polygon fill="midnightblue" stroke="midnightblue" points="465.97,-89.58 472.2,-81.01 461.99,-83.82 465.97,-89.58"/>
</g>
<!-- Node8 -->
<g id="node8" class="node">
<title>Node8</title>
<g id="a_node8"><a xlink:href="range_8hpp.html" target="_top" xlink:title=" ">
<polygon fill="white" stroke="black" points="534,-0.5 534,-19.5 599,-19.5 599,-0.5 534,-0.5"/>
<text text-anchor="middle" x="566.5" y="-7.5" font-family="Helvetica,sans-Serif" font-size="10.00">range.hpp</text>
</a>
</g>
</g>
<!-- Node2&#45;&gt;Node8 -->
<g id="edge11" class="edge">
<title>Node2&#45;&gt;Node8</title>
<path fill="none" stroke="midnightblue" d="M428.06,-129.05C457.39,-124.69 501.49,-113.86 529.5,-87 545.4,-71.75 552.33,-46.7 557.37,-29.56"/>
<polygon fill="midnightblue" stroke="midnightblue" points="560.84,-30.2 560.49,-19.62 554.16,-28.11 560.84,-30.2"/>
</g>
<!-- Node6&#45;&gt;Node2 -->
<g id="edge7" class="edge">
<title>Node6&#45;&gt;Node2</title>
<path fill="none" stroke="midnightblue" d="M403.4,-81.01C405.23,-89.4 405.7,-102.5 404.82,-113.32"/>
<polygon fill="midnightblue" stroke="midnightblue" points="401.31,-113.09 403.4,-123.48 408.25,-114.05 401.31,-113.09"/>
</g>
<!-- Node7&#45;&gt;Node8 -->
<g id="edge9" class="edge">
<title>Node7&#45;&gt;Node8</title>
<path fill="none" stroke="midnightblue" d="M496.25,-61.98C509.28,-52.52 530.54,-37.1 546.26,-25.69"/>
<polygon fill="midnightblue" stroke="midnightblue" points="548.73,-28.21 554.77,-19.51 544.62,-22.55 548.73,-28.21"/>
</g>
<!-- Node8&#45;&gt;Node2 -->
<g id="edge10" class="edge">
<title>Node8&#45;&gt;Node2</title>
<path fill="none" stroke="midnightblue" d="M571.01,-19.62C572.93,-35.25 566.89,-68.41 547.5,-87 518.4,-114.9 471.93,-125.5 438.48,-129.53"/>
<polygon fill="midnightblue" stroke="midnightblue" points="437.7,-126.1 428.12,-130.62 438.43,-133.06 437.7,-126.1"/>
</g>
</g>
</svg>
