<?xml version="1.0" encoding="UTF-8" standalone="no"?>
<!DOCTYPE svg PUBLIC "-//W3C//DTD SVG 1.1//EN"
 "http://www.w3.org/Graphics/SVG/1.1/DTD/svg11.dtd">
<!-- Generated by graphviz version 2.43.0 (0)
 -->
<!-- Title: graph_theory::trans Pages: 1 -->
<svg width="777pt" height="122pt"
 viewBox="0.00 0.00 777.00 121.50" xmlns="http://www.w3.org/2000/svg" xmlns:xlink="http://www.w3.org/1999/xlink">
<g id="graph0" class="graph" transform="scale(1 1) rotate(0) translate(4 117.5)">
<title>graph_theory::trans</title>
<polygon fill="white" stroke="transparent" points="-4,4 -4,-117.5 773,-117.5 773,4 -4,4"/>
<!-- Node1 -->
<g id="node1" class="node">
<title>Node1</title>
<g id="a_node1"><a xlink:title="Returns the transpose graph of directed graph.">
<polygon fill="#bfbfbf" stroke="black" points="658,-28 658,-47 769,-47 769,-28 658,-28"/>
<text text-anchor="middle" x="713.5" y="-35" font-family="Helvetica,sans-Serif" font-size="10.00">graph_theory::trans</text>
</a>
</g>
</g>
<!-- Node2 -->
<g id="node2" class="node">
<title>Node2</title>
<g id="a_node2"><a xlink:href="$namespacegraph__theory.html#afcb5da494d1b16139a1be66e66543043" xlink:title="Returns the strongly connected component for each vertex of the graph g.">
<polygon fill="white" stroke="black" points="520,-50 520,-69 622,-69 622,-50 520,-50"/>
<text text-anchor="middle" x="571" y="-57" font-family="Helvetica,sans-Serif" font-size="10.00">graph_theory::scc</text>
</a>
</g>
</g>
<!-- Node1&#45;&gt;Node2 -->
<g id="edge1" class="edge">
<title>Node1&#45;&gt;Node2</title>
<path fill="none" stroke="midnightblue" d="M647.78,-47.63C639.2,-48.98 630.5,-50.34 622.22,-51.64"/>
<polygon fill="midnightblue" stroke="midnightblue" points="648.44,-51.07 657.78,-46.07 647.36,-44.16 648.44,-51.07"/>
</g>
<!-- Node8 -->
<g id="node8" class="node">
<title>Node8</title>
<g id="a_node8"><a xlink:href="$namespacegraph__theory_1_1test.html#a39d1cd9f78ffe067260878347c9e178d" xlink:title=" ">
<polygon fill="white" stroke="black" points="234,-0.5 234,-30.5 339,-30.5 339,-0.5 234,-0.5"/>
<text text-anchor="start" x="242" y="-18.5" font-family="Helvetica,sans-Serif" font-size="10.00">graph_theory::test</text>
<text text-anchor="middle" x="286.5" y="-7.5" font-family="Helvetica,sans-Serif" font-size="10.00">::test_trans</text>
</a>
</g>
</g>
<!-- Node1&#45;&gt;Node8 -->
<g id="edge9" class="edge">
<title>Node1&#45;&gt;Node8</title>
<path fill="none" stroke="midnightblue" d="M647.82,-34.15C563.29,-29.78 416.94,-22.2 339.32,-18.18"/>
<polygon fill="midnightblue" stroke="midnightblue" points="647.64,-37.65 657.81,-34.67 648,-30.66 647.64,-37.65"/>
</g>
<!-- Node3 -->
<g id="node3" class="node">
<title>Node3</title>
<g id="a_node3"><a xlink:href="$namespacesat2.html#a7e3bde170b608f8eb02f83eaf34073e3" xlink:title=" ">
<polygon fill="white" stroke="black" points="399,-94 399,-113 464,-113 464,-94 399,-94"/>
<text text-anchor="middle" x="431.5" y="-101" font-family="Helvetica,sans-Serif" font-size="10.00">sat2::sat2</text>
</a>
</g>
</g>
<!-- Node2&#45;&gt;Node3 -->
<g id="edge2" class="edge">
<title>Node2&#45;&gt;Node3</title>
<path fill="none" stroke="midnightblue" d="M530.56,-72.12C508.81,-79.08 482.26,-87.58 462.28,-93.97"/>
<polygon fill="midnightblue" stroke="midnightblue" points="531.71,-75.43 540.16,-69.05 529.57,-68.76 531.71,-75.43"/>
</g>
<!-- Node7 -->
<g id="node7" class="node">
<title>Node7</title>
<g id="a_node7"><a xlink:href="$namespacegraph__theory_1_1test.html#a12ae68923e728fc307296eb6e6a56466" xlink:title=" ">
<polygon fill="white" stroke="black" points="379,-44.5 379,-74.5 484,-74.5 484,-44.5 379,-44.5"/>
<text text-anchor="start" x="387" y="-62.5" font-family="Helvetica,sans-Serif" font-size="10.00">graph_theory::test</text>
<text text-anchor="middle" x="431.5" y="-51.5" font-family="Helvetica,sans-Serif" font-size="10.00">::test_scc</text>
</a>
</g>
</g>
<!-- Node2&#45;&gt;Node7 -->
<g id="edge7" class="edge">
<title>Node2&#45;&gt;Node7</title>
<path fill="none" stroke="midnightblue" d="M509.69,-59.5C501.16,-59.5 492.45,-59.5 484.11,-59.5"/>
<polygon fill="midnightblue" stroke="midnightblue" points="509.97,-63 519.97,-59.5 509.97,-56 509.97,-63"/>
</g>
<!-- Node4 -->
<g id="node4" class="node">
<title>Node4</title>
<g id="a_node4"><a xlink:href="$namespacesat2_1_1test.html#a39c93d63732b7216ede171b3589de7f2" xlink:title=" ">
<polygon fill="white" stroke="black" points="230,-94 230,-113 343,-113 343,-94 230,-94"/>
<text text-anchor="middle" x="286.5" y="-101" font-family="Helvetica,sans-Serif" font-size="10.00">sat2::test::test_sat2</text>
</a>
</g>
</g>
<!-- Node3&#45;&gt;Node4 -->
<g id="edge3" class="edge">
<title>Node3&#45;&gt;Node4</title>
<path fill="none" stroke="midnightblue" d="M388.74,-103.5C374.46,-103.5 358.25,-103.5 343.05,-103.5"/>
<polygon fill="midnightblue" stroke="midnightblue" points="388.76,-107 398.76,-103.5 388.76,-100 388.76,-107"/>
</g>
<!-- Node5 -->
<g id="node5" class="node">
<title>Node5</title>
<g id="a_node5"><a xlink:href="$test_8cpp.html#af095a232149097b5605064623a9345ac" xlink:title=" ">
<polygon fill="white" stroke="black" points="0,-72 0,-91 47,-91 47,-72 0,-72"/>
<text text-anchor="middle" x="23.5" y="-79" font-family="Helvetica,sans-Serif" font-size="10.00">main2</text>
</a>
</g>
</g>
<!-- Node4&#45;&gt;Node5 -->
<g id="edge4" class="edge">
<title>Node4&#45;&gt;Node5</title>
<path fill="none" stroke="midnightblue" d="M219.55,-97.94C163.07,-93.18 85.03,-86.6 47.06,-83.4"/>
<polygon fill="midnightblue" stroke="midnightblue" points="219.57,-101.46 229.83,-98.81 220.16,-94.48 219.57,-101.46"/>
</g>
<!-- Node6 -->
<g id="node6" class="node">
<title>Node6</title>
<g id="a_node6"><a xlink:href="$namespacegraph__theory_1_1test.html#a147e0cf4f86928e4e422c6b9198a2371" xlink:title=" ">
<polygon fill="white" stroke="black" points="83,-44.5 83,-74.5 194,-74.5 194,-44.5 83,-44.5"/>
<text text-anchor="start" x="91" y="-62.5" font-family="Helvetica,sans-Serif" font-size="10.00">graph_theory::test</text>
<text text-anchor="middle" x="138.5" y="-51.5" font-family="Helvetica,sans-Serif" font-size="10.00">::test_graph_theory</text>
</a>
</g>
</g>
<!-- Node4&#45;&gt;Node6 -->
<g id="edge5" class="edge">
<title>Node4&#45;&gt;Node6</title>
<path fill="none" stroke="midnightblue" d="M244.17,-91.04C227.16,-85.92 207.31,-79.94 189.49,-74.57"/>
<polygon fill="midnightblue" stroke="midnightblue" points="243.24,-94.42 253.82,-93.95 245.26,-87.72 243.24,-94.42"/>
</g>
<!-- Node6&#45;&gt;Node5 -->
<g id="edge6" class="edge">
<title>Node6&#45;&gt;Node5</title>
<path fill="none" stroke="midnightblue" d="M72.93,-72.07C63.73,-73.86 54.81,-75.6 47.2,-77.08"/>
<polygon fill="midnightblue" stroke="midnightblue" points="73.84,-75.46 82.99,-70.11 72.5,-68.59 73.84,-75.46"/>
</g>
<!-- Node7&#45;&gt;Node6 -->
<g id="edge8" class="edge">
<title>Node7&#45;&gt;Node6</title>
<path fill="none" stroke="midnightblue" d="M368.76,-59.5C317.01,-59.5 243.83,-59.5 194.17,-59.5"/>
<polygon fill="midnightblue" stroke="midnightblue" points="368.81,-63 378.81,-59.5 368.81,-56 368.81,-63"/>
</g>
<!-- Node8&#45;&gt;Node6 -->
<g id="edge10" class="edge">
<title>Node8&#45;&gt;Node6</title>
<path fill="none" stroke="midnightblue" d="M225.73,-33.51C213.73,-37.13 201.24,-40.89 189.61,-44.4"/>
<polygon fill="midnightblue" stroke="midnightblue" points="227.1,-36.76 235.66,-30.52 225.08,-30.05 227.1,-36.76"/>
</g>
</g>
</svg>
