<?xml version="1.0" encoding="UTF-8" standalone="no"?>
<!DOCTYPE svg PUBLIC "-//W3C//DTD SVG 1.1//EN"
 "http://www.w3.org/Graphics/SVG/1.1/DTD/svg11.dtd">
<!-- Generated by graphviz version 2.43.0 (0)
 -->
<!-- Title: utility::ssize Pages: 1 -->
<svg width="262pt" height="154pt"
 viewBox="0.00 0.00 262.00 154.00" xmlns="http://www.w3.org/2000/svg" xmlns:xlink="http://www.w3.org/1999/xlink">
<g id="graph0" class="graph" transform="scale(1 1) rotate(0) translate(4 150)">
<title>utility::ssize</title>
<polygon fill="white" stroke="transparent" points="-4,4 -4,-150 258,-150 258,4 -4,4"/>
<!-- Node1 -->
<g id="node1" class="node">
<title>Node1</title>
<g id="a_node1"><a xlink:title=" ">
<polygon fill="#bfbfbf" stroke="black" points="179,-66.5 179,-85.5 254,-85.5 254,-66.5 179,-66.5"/>
<text text-anchor="middle" x="216.5" y="-73.5" font-family="Helvetica,sans-Serif" font-size="10.00">utility::ssize</text>
</a>
</g>
</g>
<!-- Node2 -->
<g id="node2" class="node">
<title>Node2</title>
<g id="a_node2"><a xlink:href="namespacepermutation.html#a4c6e81c9c25d20631e5b1a63edeedb74" target="_top" xlink:title=" ">
<polygon fill="white" stroke="black" points="11.5,-126.5 11.5,-145.5 131.5,-145.5 131.5,-126.5 11.5,-126.5"/>
<text text-anchor="middle" x="71.5" y="-133.5" font-family="Helvetica,sans-Serif" font-size="10.00">permutation::identity</text>
</a>
</g>
</g>
<!-- Node1&#45;&gt;Node2 -->
<g id="edge1" class="edge">
<title>Node1&#45;&gt;Node2</title>
<path fill="none" stroke="midnightblue" d="M192.22,-91.16C178.36,-99.67 160.18,-109.96 143,-117 134.09,-120.65 124.25,-123.81 114.83,-126.45"/>
<polygon fill="midnightblue" stroke="midnightblue" points="194.44,-93.9 201.05,-85.62 190.72,-87.97 194.44,-93.9"/>
</g>
<!-- Node3 -->
<g id="node3" class="node">
<title>Node3</title>
<g id="a_node3"><a xlink:href="structbigint_1_1bigint.html#a1589b9707458aa79ca2a2928b9f0e865" target="_top" xlink:title=" ">
<polygon fill="white" stroke="black" points="5,-88.5 5,-107.5 138,-107.5 138,-88.5 5,-88.5"/>
<text text-anchor="middle" x="71.5" y="-95.5" font-family="Helvetica,sans-Serif" font-size="10.00">bigint::bigint::operator[]</text>
</a>
</g>
</g>
<!-- Node1&#45;&gt;Node3 -->
<g id="edge2" class="edge">
<title>Node1&#45;&gt;Node3</title>
<path fill="none" stroke="midnightblue" d="M168.53,-83.23C157.63,-84.9 145.87,-86.71 134.44,-88.47"/>
<polygon fill="midnightblue" stroke="midnightblue" points="169.32,-86.65 178.67,-81.67 168.26,-79.73 169.32,-86.65"/>
</g>
<!-- Node4 -->
<g id="node4" class="node">
<title>Node4</title>
<g id="a_node4"><a xlink:href="classpermutation_1_1Permutation.html#a0b7480d74a8c5d9db8da2151638b4048" target="_top" xlink:title=" ">
<polygon fill="white" stroke="black" points="0,-39 0,-69 143,-69 143,-39 0,-39"/>
<text text-anchor="start" x="8" y="-57" font-family="Helvetica,sans-Serif" font-size="10.00">permutation::Permutation</text>
<text text-anchor="middle" x="71.5" y="-46" font-family="Helvetica,sans-Serif" font-size="10.00">::Permutation</text>
</a>
</g>
</g>
<!-- Node1&#45;&gt;Node4 -->
<g id="edge3" class="edge">
<title>Node1&#45;&gt;Node4</title>
<path fill="none" stroke="midnightblue" d="M168.61,-68.79C160.42,-67.53 151.75,-66.19 143.09,-64.86"/>
<polygon fill="midnightblue" stroke="midnightblue" points="168.26,-72.27 178.67,-70.33 169.32,-65.35 168.26,-72.27"/>
</g>
<!-- Node5 -->
<g id="node5" class="node">
<title>Node5</title>
<g id="a_node5"><a xlink:href="classSparseTable.html#a8a0ff315be302f4e9fb2fe03f846492f" target="_top" xlink:title=" ">
<polygon fill="white" stroke="black" points="1.5,-0.5 1.5,-19.5 141.5,-19.5 141.5,-0.5 1.5,-0.5"/>
<text text-anchor="middle" x="71.5" y="-7.5" font-family="Helvetica,sans-Serif" font-size="10.00">SparseTable::SparseTable</text>
</a>
</g>
</g>
<!-- Node1&#45;&gt;Node5 -->
<g id="edge4" class="edge">
<title>Node1&#45;&gt;Node5</title>
<path fill="none" stroke="midnightblue" d="M194.38,-60.29C180.39,-50.48 161.3,-38.19 143,-30 133.83,-25.89 123.6,-22.42 113.85,-19.57"/>
<polygon fill="midnightblue" stroke="midnightblue" points="192.62,-63.33 202.78,-66.32 196.7,-57.65 192.62,-63.33"/>
</g>
</g>
</svg>
