<?xml version="1.0" encoding="UTF-8" standalone="no"?>
<!DOCTYPE svg PUBLIC "-//W3C//DTD SVG 1.1//EN"
 "http://www.w3.org/Graphics/SVG/1.1/DTD/svg11.dtd">
<!-- Generated by graphviz version 2.43.0 (0)
 -->
<!-- Title: graph_theory::test_tree_diameter Pages: 1 -->
<svg width="283pt" height="78pt"
 viewBox="0.00 0.00 283.00 77.50" xmlns="http://www.w3.org/2000/svg" xmlns:xlink="http://www.w3.org/1999/xlink">
<g id="graph0" class="graph" transform="scale(1 1) rotate(0) translate(4 73.5)">
<title>graph_theory::test_tree_diameter</title>
<polygon fill="white" stroke="transparent" points="-4,4 -4,-73.5 279,-73.5 279,4 -4,4"/>
<!-- Node1 -->
<g id="node1" class="node">
<title>Node1</title>
<g id="a_node1"><a xlink:title=" ">
<polygon fill="#bfbfbf" stroke="black" points="0,-22.5 0,-52.5 105,-52.5 105,-22.5 0,-22.5"/>
<text text-anchor="start" x="8" y="-40.5" font-family="Helvetica,sans-Serif" font-size="10.00">graph_theory::test</text>
<text text-anchor="middle" x="52.5" y="-29.5" font-family="Helvetica,sans-Serif" font-size="10.00">_tree_diameter</text>
</a>
</g>
</g>
<!-- Node2 -->
<g id="node2" class="node">
<title>Node2</title>
<g id="a_node2"><a xlink:href="namespacegraph__theory.html#a7baea0d3e99864e50ed82e6e93a88eb5" target="_top" xlink:title=" ">
<polygon fill="white" stroke="black" points="141,-50 141,-69 275,-69 275,-50 141,-50"/>
<text text-anchor="middle" x="208" y="-57" font-family="Helvetica,sans-Serif" font-size="10.00">graph_theory::add_edge</text>
</a>
</g>
</g>
<!-- Node1&#45;&gt;Node2 -->
<g id="edge1" class="edge">
<title>Node1&#45;&gt;Node2</title>
<path fill="none" stroke="midnightblue" d="M105.04,-44.89C113.3,-46.07 122.01,-47.32 130.7,-48.56"/>
<polygon fill="midnightblue" stroke="midnightblue" points="130.48,-52.07 140.88,-50.02 131.47,-45.14 130.48,-52.07"/>
</g>
<!-- Node3 -->
<g id="node3" class="node">
<title>Node3</title>
<g id="a_node3"><a xlink:href="namespacegraph__theory.html#a9361a6539ccda780bb95468f68d876f7" target="_top" xlink:title=" ">
<polygon fill="white" stroke="black" points="155,-0.5 155,-30.5 261,-30.5 261,-0.5 155,-0.5"/>
<text text-anchor="start" x="163" y="-18.5" font-family="Helvetica,sans-Serif" font-size="10.00">graph_theory::tree</text>
<text text-anchor="middle" x="208" y="-7.5" font-family="Helvetica,sans-Serif" font-size="10.00">_diameter</text>
</a>
</g>
</g>
<!-- Node1&#45;&gt;Node3 -->
<g id="edge2" class="edge">
<title>Node1&#45;&gt;Node3</title>
<path fill="none" stroke="midnightblue" d="M105.04,-30.11C117.81,-28.28 131.63,-26.3 144.85,-24.41"/>
<polygon fill="midnightblue" stroke="midnightblue" points="145.41,-27.86 154.81,-22.98 144.42,-20.93 145.41,-27.86"/>
</g>
</g>
</svg>
