<?xml version="1.0" encoding="UTF-8" standalone="no"?>
<!DOCTYPE svg PUBLIC "-//W3C//DTD SVG 1.1//EN"
 "http://www.w3.org/Graphics/SVG/1.1/DTD/svg11.dtd">
<!-- Generated by graphviz version 2.43.0 (0)
 -->
<!-- Title: modulo_namespace::invert Pages: 1 -->
<svg width="538pt" height="28pt"
 viewBox="0.00 0.00 538.00 28.00" xmlns="http://www.w3.org/2000/svg" xmlns:xlink="http://www.w3.org/1999/xlink">
<g id="graph0" class="graph" transform="scale(1 1) rotate(0) translate(4 24)">
<title>modulo_namespace::invert</title>
<polygon fill="white" stroke="transparent" points="-4,4 -4,-24 534,-24 534,4 -4,4"/>
<!-- Node1 -->
<g id="node1" class="node">
<title>Node1</title>
<g id="a_node1"><a xlink:title=" ">
<polygon fill="#bfbfbf" stroke="black" points="0,-0.5 0,-19.5 149,-19.5 149,-0.5 0,-0.5"/>
<text text-anchor="middle" x="74.5" y="-7.5" font-family="Helvetica,sans-Serif" font-size="10.00">modulo_namespace::invert</text>
</a>
</g>
</g>
<!-- Node2 -->
<g id="node2" class="node">
<title>Node2</title>
<g id="a_node2"><a xlink:href="namespacemodulo__namespace.html#a8e6fc91a032b336ea0bbed9eabf54f69" target="_top" xlink:title="Returns .">
<polygon fill="white" stroke="black" points="185,-0.5 185,-19.5 336,-19.5 336,-0.5 185,-0.5"/>
<text text-anchor="middle" x="260.5" y="-7.5" font-family="Helvetica,sans-Serif" font-size="10.00">modulo_namespace::power</text>
</a>
</g>
</g>
<!-- Node1&#45;&gt;Node2 -->
<g id="edge1" class="edge">
<title>Node1&#45;&gt;Node2</title>
<path fill="none" stroke="midnightblue" d="M149.01,-3.37C157.5,-3.26 166.21,-3.22 174.84,-3.27"/>
<polygon fill="midnightblue" stroke="midnightblue" points="174.87,-6.77 184.9,-3.36 174.93,0.23 174.87,-6.77"/>
</g>
<!-- Node2&#45;&gt;Node1 -->
<g id="edge3" class="edge">
<title>Node2&#45;&gt;Node1</title>
<path fill="none" stroke="midnightblue" d="M184.9,-16.64C176.39,-16.75 167.68,-16.78 159.06,-16.72"/>
<polygon fill="midnightblue" stroke="midnightblue" points="159.05,-13.22 149.01,-16.63 158.98,-20.22 159.05,-13.22"/>
</g>
<!-- Node3 -->
<g id="node3" class="node">
<title>Node3</title>
<g id="a_node3"><a xlink:href="namespacemodulo__namespace.html#a55577c112e6d41b6314ad996f9e48842" target="_top" xlink:title=" ">
<polygon fill="white" stroke="black" points="372,-0.5 372,-19.5 530,-19.5 530,-0.5 372,-0.5"/>
<text text-anchor="middle" x="451" y="-7.5" font-family="Helvetica,sans-Serif" font-size="10.00">modulo_namespace::identity</text>
</a>
</g>
</g>
<!-- Node2&#45;&gt;Node3 -->
<g id="edge2" class="edge">
<title>Node2&#45;&gt;Node3</title>
<path fill="none" stroke="midnightblue" d="M336,-10C344.43,-10 353.09,-10 361.67,-10"/>
<polygon fill="midnightblue" stroke="midnightblue" points="361.71,-13.5 371.71,-10 361.71,-6.5 361.71,-13.5"/>
</g>
</g>
</svg>
