<?xml version="1.0" encoding="UTF-8" standalone="no"?>
<!DOCTYPE svg PUBLIC "-//W3C//DTD SVG 1.1//EN"
 "http://www.w3.org/Graphics/SVG/1.1/DTD/svg11.dtd">
<!-- Generated by graphviz version 2.43.0 (0)
 -->
<!-- Title: sat2::test_sat2 Pages: 1 -->
<svg width="483pt" height="66pt"
 viewBox="0.00 0.00 483.00 66.00" xmlns="http://www.w3.org/2000/svg" xmlns:xlink="http://www.w3.org/1999/xlink">
<g id="graph0" class="graph" transform="scale(1 1) rotate(0) translate(4 62)">
<title>sat2::test_sat2</title>
<polygon fill="white" stroke="transparent" points="-4,4 -4,-62 479,-62 479,4 -4,4"/>
<!-- Node1 -->
<g id="node1" class="node">
<title>Node1</title>
<g id="a_node1"><a xlink:title=" ">
<polygon fill="#bfbfbf" stroke="black" points="0,-19.5 0,-38.5 89,-38.5 89,-19.5 0,-19.5"/>
<text text-anchor="middle" x="44.5" y="-26.5" font-family="Helvetica,sans-Serif" font-size="10.00">sat2::test_sat2</text>
</a>
</g>
</g>
<!-- Node2 -->
<g id="node2" class="node">
<title>Node2</title>
<g id="a_node2"><a xlink:href="namespacesat2.html#a784d98eee2b8c4df5227ca2d0a218adc" target="_top" xlink:title=" ">
<polygon fill="white" stroke="black" points="125,-19.5 125,-38.5 190,-38.5 190,-19.5 125,-19.5"/>
<text text-anchor="middle" x="157.5" y="-26.5" font-family="Helvetica,sans-Serif" font-size="10.00">sat2::sat2</text>
</a>
</g>
</g>
<!-- Node1&#45;&gt;Node2 -->
<g id="edge1" class="edge">
<title>Node1&#45;&gt;Node2</title>
<path fill="none" stroke="midnightblue" d="M89.05,-29C97.42,-29 106.17,-29 114.49,-29"/>
<polygon fill="midnightblue" stroke="midnightblue" points="114.74,-32.5 124.74,-29 114.74,-25.5 114.74,-32.5"/>
</g>
<!-- Node3 -->
<g id="node3" class="node">
<title>Node3</title>
<g id="a_node3"><a xlink:href="namespaceutility.html#a1507417750abfb917c914c44e07ed713" target="_top" xlink:title=" ">
<polygon fill="white" stroke="black" points="232.5,-38.5 232.5,-57.5 321.5,-57.5 321.5,-38.5 232.5,-38.5"/>
<text text-anchor="middle" x="277" y="-45.5" font-family="Helvetica,sans-Serif" font-size="10.00">utility::max_eq</text>
</a>
</g>
</g>
<!-- Node2&#45;&gt;Node3 -->
<g id="edge2" class="edge">
<title>Node2&#45;&gt;Node3</title>
<path fill="none" stroke="midnightblue" d="M190.3,-34.14C200.18,-35.74 211.37,-37.55 222.32,-39.32"/>
<polygon fill="midnightblue" stroke="midnightblue" points="221.84,-42.79 232.27,-40.93 222.95,-35.88 221.84,-42.79"/>
</g>
<!-- Node4 -->
<g id="node4" class="node">
<title>Node4</title>
<g id="a_node4"><a xlink:href="namespacegraph__theory.html#abf42c204d44caae5b7ea48d8261dfd9e" target="_top" xlink:title=" ">
<polygon fill="white" stroke="black" points="226,-0.5 226,-19.5 328,-19.5 328,-0.5 226,-0.5"/>
<text text-anchor="middle" x="277" y="-7.5" font-family="Helvetica,sans-Serif" font-size="10.00">graph_theory::scc</text>
</a>
</g>
</g>
<!-- Node2&#45;&gt;Node4 -->
<g id="edge3" class="edge">
<title>Node2&#45;&gt;Node4</title>
<path fill="none" stroke="midnightblue" d="M190.3,-23.86C198.2,-22.58 206.93,-21.17 215.71,-19.75"/>
<polygon fill="midnightblue" stroke="midnightblue" points="216.28,-23.2 225.59,-18.15 215.16,-16.29 216.28,-23.2"/>
</g>
<!-- Node5 -->
<g id="node5" class="node">
<title>Node5</title>
<g id="a_node5"><a xlink:href="namespacegraph__theory.html#af33d0502161df2d1b82be4b1e8dcaa13" target="_top" xlink:title=" ">
<polygon fill="white" stroke="black" points="364,-0.5 364,-19.5 475,-19.5 475,-0.5 364,-0.5"/>
<text text-anchor="middle" x="419.5" y="-7.5" font-family="Helvetica,sans-Serif" font-size="10.00">graph_theory::trans</text>
</a>
</g>
</g>
<!-- Node4&#45;&gt;Node5 -->
<g id="edge4" class="edge">
<title>Node4&#45;&gt;Node5</title>
<path fill="none" stroke="midnightblue" d="M328.33,-10C336.5,-10 345.07,-10 353.53,-10"/>
<polygon fill="midnightblue" stroke="midnightblue" points="353.77,-13.5 363.77,-10 353.77,-6.5 353.77,-13.5"/>
</g>
</g>
</svg>
