<?xml version="1.0" encoding="UTF-8" standalone="no"?>
<!DOCTYPE svg PUBLIC "-//W3C//DTD SVG 1.1//EN"
 "http://www.w3.org/Graphics/SVG/1.1/DTD/svg11.dtd">
<!-- Generated by graphviz version 2.43.0 (0)
 -->
<!-- Title: combinatorics::fact Pages: 1 -->
<svg width="980pt" height="192pt"
 viewBox="0.00 0.00 980.00 191.50" xmlns="http://www.w3.org/2000/svg" xmlns:xlink="http://www.w3.org/1999/xlink">
<g id="graph0" class="graph" transform="scale(1 1) rotate(0) translate(4 187.5)">
<title>combinatorics::fact</title>
<polygon fill="white" stroke="transparent" points="-4,4 -4,-187.5 976,-187.5 976,4 -4,4"/>
<!-- Node1 -->
<g id="node1" class="node">
<title>Node1</title>
<g id="a_node1"><a xlink:title=" ">
<polygon fill="#bfbfbf" stroke="black" points="862,-114.5 862,-133.5 972,-133.5 972,-114.5 862,-114.5"/>
<text text-anchor="middle" x="917" y="-121.5" font-family="Helvetica,sans-Serif" font-size="10.00">combinatorics::fact</text>
</a>
</g>
</g>
<!-- Node2 -->
<g id="node2" class="node">
<title>Node2</title>
<g id="a_node2"><a xlink:href="namespacecombinatorics.html#a24ea271b6415a4679e019562f474d88f" target="_top" xlink:title=" ">
<polygon fill="white" stroke="black" points="696,-155.5 696,-174.5 822,-174.5 822,-155.5 696,-155.5"/>
<text text-anchor="middle" x="759" y="-162.5" font-family="Helvetica,sans-Serif" font-size="10.00">combinatorics::choose</text>
</a>
</g>
</g>
<!-- Node1&#45;&gt;Node2 -->
<g id="edge1" class="edge">
<title>Node1&#45;&gt;Node2</title>
<path fill="none" stroke="midnightblue" d="M870.05,-136.08C846.5,-142.27 818.24,-149.69 796.26,-155.47"/>
<polygon fill="midnightblue" stroke="midnightblue" points="871.04,-139.44 879.82,-133.51 869.26,-132.67 871.04,-139.44"/>
</g>
<!-- Node8 -->
<g id="node8" class="node">
<title>Node8</title>
<g id="a_node8"><a xlink:href="namespacecombinatorics.html#a49a9258d4d599545b41c0425b8c34aeb" target="_top" xlink:title=" ">
<polygon fill="white" stroke="black" points="692,-114.5 692,-133.5 826,-133.5 826,-114.5 692,-114.5"/>
<text text-anchor="middle" x="759" y="-121.5" font-family="Helvetica,sans-Serif" font-size="10.00">combinatorics::test_fact</text>
</a>
</g>
</g>
<!-- Node1&#45;&gt;Node8 -->
<g id="edge7" class="edge">
<title>Node1&#45;&gt;Node8</title>
<path fill="none" stroke="midnightblue" d="M851.71,-124C843.27,-124 834.6,-124 826.13,-124"/>
<polygon fill="midnightblue" stroke="midnightblue" points="851.88,-127.5 861.88,-124 851.88,-120.5 851.88,-127.5"/>
</g>
<!-- Node9 -->
<g id="node9" class="node">
<title>Node9</title>
<g id="a_node9"><a xlink:href="number__theory_8hpp.html#af0753ff92c84e6924e1fd6461e77b16f" target="_top" xlink:title=" ">
<polygon fill="white" stroke="black" points="734.5,-57.5 734.5,-76.5 783.5,-76.5 783.5,-57.5 734.5,-57.5"/>
<text text-anchor="middle" x="759" y="-64.5" font-family="Helvetica,sans-Serif" font-size="10.00">totient</text>
</a>
</g>
</g>
<!-- Node1&#45;&gt;Node9 -->
<g id="edge9" class="edge">
<title>Node1&#45;&gt;Node9</title>
<path fill="none" stroke="midnightblue" d="M880.32,-110.96C850.68,-100.13 809.33,-85.03 783.64,-75.64"/>
<polygon fill="midnightblue" stroke="midnightblue" points="879.3,-114.31 889.89,-114.46 881.7,-107.74 879.3,-114.31"/>
</g>
<!-- Node3 -->
<g id="node3" class="node">
<title>Node3</title>
<g id="a_node3"><a xlink:href="namespacecombinatorics.html#a4bb0c0ff8e23b9dfa30bdc71206a62be" target="_top" xlink:title=" ">
<polygon fill="white" stroke="black" points="546,-153 546,-183 656,-183 656,-153 546,-153"/>
<text text-anchor="start" x="554" y="-171" font-family="Helvetica,sans-Serif" font-size="10.00">combinatorics::test</text>
<text text-anchor="middle" x="601" y="-160" font-family="Helvetica,sans-Serif" font-size="10.00">_choose</text>
</a>
</g>
</g>
<!-- Node2&#45;&gt;Node3 -->
<g id="edge2" class="edge">
<title>Node2&#45;&gt;Node3</title>
<path fill="none" stroke="midnightblue" d="M685.68,-166.39C675.81,-166.58 665.81,-166.77 656.33,-166.96"/>
<polygon fill="midnightblue" stroke="midnightblue" points="685.97,-169.89 695.9,-166.19 685.83,-162.89 685.97,-169.89"/>
</g>
<!-- Node4 -->
<g id="node4" class="node">
<title>Node4</title>
<g id="a_node4"><a xlink:href="namespacecombinatorics.html#a4e91bb5e7575eceb8a1727698820b896" target="_top" xlink:title=" ">
<polygon fill="white" stroke="black" points="400,-115 400,-145 510,-145 510,-115 400,-115"/>
<text text-anchor="start" x="408" y="-133" font-family="Helvetica,sans-Serif" font-size="10.00">combinatorics::test</text>
<text text-anchor="middle" x="455" y="-122" font-family="Helvetica,sans-Serif" font-size="10.00">_combinatorics</text>
</a>
</g>
</g>
<!-- Node3&#45;&gt;Node4 -->
<g id="edge3" class="edge">
<title>Node3&#45;&gt;Node4</title>
<path fill="none" stroke="midnightblue" d="M536.29,-151.19C527.63,-148.9 518.81,-146.57 510.33,-144.34"/>
<polygon fill="midnightblue" stroke="midnightblue" points="535.41,-154.57 545.97,-153.74 537.19,-147.81 535.41,-154.57"/>
</g>
<!-- Node5 -->
<g id="node5" class="node">
<title>Node5</title>
<g id="a_node5"><a xlink:href="test_8cpp.html#aa1c715cac916839a95e25b65b4071c4a" target="_top" xlink:title=" ">
<polygon fill="white" stroke="black" points="160,-76.5 160,-95.5 213,-95.5 213,-76.5 160,-76.5"/>
<text text-anchor="middle" x="186.5" y="-83.5" font-family="Helvetica,sans-Serif" font-size="10.00">test_all</text>
</a>
</g>
</g>
<!-- Node4&#45;&gt;Node5 -->
<g id="edge4" class="edge">
<title>Node4&#45;&gt;Node5</title>
<path fill="none" stroke="midnightblue" d="M389.8,-119.4C333.11,-110.04 253.39,-96.88 213.04,-90.22"/>
<polygon fill="midnightblue" stroke="midnightblue" points="389.31,-122.87 399.75,-121.04 390.45,-115.96 389.31,-122.87"/>
</g>
<!-- Node6 -->
<g id="node6" class="node">
<title>Node6</title>
<g id="a_node6"><a xlink:href="test_8cpp.html#af095a232149097b5605064623a9345ac" target="_top" xlink:title=" ">
<polygon fill="white" stroke="black" points="77,-76.5 77,-95.5 124,-95.5 124,-76.5 77,-76.5"/>
<text text-anchor="middle" x="100.5" y="-83.5" font-family="Helvetica,sans-Serif" font-size="10.00">main2</text>
</a>
</g>
</g>
<!-- Node5&#45;&gt;Node6 -->
<g id="edge5" class="edge">
<title>Node5&#45;&gt;Node6</title>
<path fill="none" stroke="midnightblue" d="M149.59,-86C140.96,-86 131.99,-86 124.16,-86"/>
<polygon fill="midnightblue" stroke="midnightblue" points="149.84,-89.5 159.84,-86 149.84,-82.5 149.84,-89.5"/>
</g>
<!-- Node7 -->
<g id="node7" class="node">
<title>Node7</title>
<g id="a_node7"><a xlink:href="main_8hpp.html#a0ddf1224851353fc92bfbff6f499fa97" target="_top" xlink:title=" ">
<polygon fill="white" stroke="black" points="0,-76.5 0,-95.5 41,-95.5 41,-76.5 0,-76.5"/>
<text text-anchor="middle" x="20.5" y="-83.5" font-family="Helvetica,sans-Serif" font-size="10.00">main</text>
</a>
</g>
</g>
<!-- Node6&#45;&gt;Node7 -->
<g id="edge6" class="edge">
<title>Node6&#45;&gt;Node7</title>
<path fill="none" stroke="midnightblue" d="M66.66,-86C57.96,-86 48.84,-86 41.1,-86"/>
<polygon fill="midnightblue" stroke="midnightblue" points="66.94,-89.5 76.94,-86 66.94,-82.5 66.94,-89.5"/>
</g>
<!-- Node8&#45;&gt;Node4 -->
<g id="edge8" class="edge">
<title>Node8&#45;&gt;Node4</title>
<path fill="none" stroke="midnightblue" d="M681.59,-125.52C628.06,-126.58 557.82,-127.98 510.03,-128.93"/>
<polygon fill="midnightblue" stroke="midnightblue" points="681.8,-129.01 691.72,-125.32 681.66,-122.02 681.8,-129.01"/>
</g>
<!-- Node10 -->
<g id="node10" class="node">
<title>Node10</title>
<g id="a_node10"><a xlink:href="number__theory_8hpp.html#a67527905c2b2c027c8b458902db2d05a" target="_top" xlink:title=" ">
<polygon fill="white" stroke="black" points="582,-76.5 582,-95.5 620,-95.5 620,-76.5 582,-76.5"/>
<text text-anchor="middle" x="601" y="-83.5" font-family="Helvetica,sans-Serif" font-size="10.00">dlog</text>
</a>
</g>
</g>
<!-- Node9&#45;&gt;Node10 -->
<g id="edge10" class="edge">
<title>Node9&#45;&gt;Node10</title>
<path fill="none" stroke="midnightblue" d="M724.08,-71.13C692.12,-75.02 645.44,-80.71 620.07,-83.8"/>
<polygon fill="midnightblue" stroke="midnightblue" points="724.8,-74.57 734.31,-69.89 723.96,-67.62 724.8,-74.57"/>
</g>
<!-- Node13 -->
<g id="node13" class="node">
<title>Node13</title>
<g id="a_node13"><a xlink:href="number__theory_8hpp.html#a6542b189f3759f43899a8b1978d58e2c" target="_top" xlink:title=" ">
<polygon fill="white" stroke="black" points="558,-38.5 558,-57.5 644,-57.5 644,-38.5 558,-38.5"/>
<text text-anchor="middle" x="601" y="-45.5" font-family="Helvetica,sans-Serif" font-size="10.00">primitive_root</text>
</a>
</g>
</g>
<!-- Node9&#45;&gt;Node13 -->
<g id="edge14" class="edge">
<title>Node9&#45;&gt;Node13</title>
<path fill="none" stroke="midnightblue" d="M724.14,-62.88C700.67,-60.02 669.27,-56.19 644.18,-53.14"/>
<polygon fill="midnightblue" stroke="midnightblue" points="723.96,-66.38 734.31,-64.11 724.8,-59.43 723.96,-66.38"/>
</g>
<!-- Node15 -->
<g id="node15" class="node">
<title>Node15</title>
<g id="a_node15"><a xlink:href="number__theory_8hpp.html#a8ae320acad5e35d58ca5ad7adc6ddd78" target="_top" xlink:title=" ">
<polygon fill="white" stroke="black" points="418.5,-0.5 418.5,-19.5 491.5,-19.5 491.5,-0.5 418.5,-0.5"/>
<text text-anchor="middle" x="455" y="-7.5" font-family="Helvetica,sans-Serif" font-size="10.00">test_totient</text>
</a>
</g>
</g>
<!-- Node9&#45;&gt;Node15 -->
<g id="edge17" class="edge">
<title>Node9&#45;&gt;Node15</title>
<path fill="none" stroke="midnightblue" d="M728.19,-53.53C708.18,-45.08 681.01,-34.74 656,-29 599.57,-16.04 532.23,-11.9 491.85,-10.59"/>
<polygon fill="midnightblue" stroke="midnightblue" points="726.83,-56.75 737.4,-57.49 729.6,-50.32 726.83,-56.75"/>
</g>
<!-- Node11 -->
<g id="node11" class="node">
<title>Node11</title>
<g id="a_node11"><a xlink:href="number__theory_8hpp.html#a7aac53ce82614d79c7098a1de32ed1e7" target="_top" xlink:title=" ">
<polygon fill="white" stroke="black" points="424,-76.5 424,-95.5 486,-95.5 486,-76.5 424,-76.5"/>
<text text-anchor="middle" x="455" y="-83.5" font-family="Helvetica,sans-Serif" font-size="10.00">test_dlog</text>
</a>
</g>
</g>
<!-- Node10&#45;&gt;Node11 -->
<g id="edge11" class="edge">
<title>Node10&#45;&gt;Node11</title>
<path fill="none" stroke="midnightblue" d="M571.6,-86C546.92,-86 511.29,-86 486.12,-86"/>
<polygon fill="midnightblue" stroke="midnightblue" points="571.76,-89.5 581.76,-86 571.76,-82.5 571.76,-89.5"/>
</g>
<!-- Node12 -->
<g id="node12" class="node">
<title>Node12</title>
<g id="a_node12"><a xlink:href="number__theory_8hpp.html#aed36f6b8b9706133e9b5302b1618e9ef" target="_top" xlink:title=" ">
<polygon fill="white" stroke="black" points="249,-57.5 249,-76.5 364,-76.5 364,-57.5 249,-57.5"/>
<text text-anchor="middle" x="306.5" y="-64.5" font-family="Helvetica,sans-Serif" font-size="10.00">test_number_theory</text>
</a>
</g>
</g>
<!-- Node11&#45;&gt;Node12 -->
<g id="edge12" class="edge">
<title>Node11&#45;&gt;Node12</title>
<path fill="none" stroke="midnightblue" d="M413.51,-80.75C398.26,-78.77 380.62,-76.48 364.17,-74.35"/>
<polygon fill="midnightblue" stroke="midnightblue" points="413.28,-84.25 423.65,-82.06 414.18,-77.31 413.28,-84.25"/>
</g>
<!-- Node12&#45;&gt;Node5 -->
<g id="edge13" class="edge">
<title>Node12&#45;&gt;Node5</title>
<path fill="none" stroke="midnightblue" d="M238.94,-77.72C229.79,-79.19 220.89,-80.62 213.13,-81.87"/>
<polygon fill="midnightblue" stroke="midnightblue" points="239.6,-81.16 248.92,-76.11 238.49,-74.24 239.6,-81.16"/>
</g>
<!-- Node14 -->
<g id="node14" class="node">
<title>Node14</title>
<g id="a_node14"><a xlink:href="number__theory_8hpp.html#a0ff115471f41e78245b5dc48eaf8032f" target="_top" xlink:title=" ">
<polygon fill="white" stroke="black" points="400,-38.5 400,-57.5 510,-57.5 510,-38.5 400,-38.5"/>
<text text-anchor="middle" x="455" y="-45.5" font-family="Helvetica,sans-Serif" font-size="10.00">test_primitive_root</text>
</a>
</g>
</g>
<!-- Node13&#45;&gt;Node14 -->
<g id="edge15" class="edge">
<title>Node13&#45;&gt;Node14</title>
<path fill="none" stroke="midnightblue" d="M547.89,-48C535.62,-48 522.52,-48 510.17,-48"/>
<polygon fill="midnightblue" stroke="midnightblue" points="547.96,-51.5 557.96,-48 547.96,-44.5 547.96,-51.5"/>
</g>
<!-- Node14&#45;&gt;Node12 -->
<g id="edge16" class="edge">
<title>Node14&#45;&gt;Node12</title>
<path fill="none" stroke="midnightblue" d="M389.69,-56.34C381.25,-57.43 372.66,-58.55 364.36,-59.63"/>
<polygon fill="midnightblue" stroke="midnightblue" points="390.4,-59.78 399.87,-55.02 389.5,-52.84 390.4,-59.78"/>
</g>
<!-- Node15&#45;&gt;Node12 -->
<g id="edge18" class="edge">
<title>Node15&#45;&gt;Node12</title>
<path fill="none" stroke="midnightblue" d="M416.22,-23.02C410.76,-24.98 405.22,-27.01 400,-29 375.83,-38.21 348.46,-49.57 329.8,-57.46"/>
<polygon fill="midnightblue" stroke="midnightblue" points="417.62,-26.23 425.87,-19.59 415.28,-19.63 417.62,-26.23"/>
</g>
</g>
</svg>
