<?xml version="1.0" encoding="UTF-8" standalone="no"?>
<!DOCTYPE svg PUBLIC "-//W3C//DTD SVG 1.1//EN"
 "http://www.w3.org/Graphics/SVG/1.1/DTD/svg11.dtd">
<!-- Generated by graphviz version 2.43.0 (0)
 -->
<!-- Title: utility::swap2 Pages: 1 -->
<svg width="337pt" height="85pt"
 viewBox="0.00 0.00 337.00 85.00" xmlns="http://www.w3.org/2000/svg" xmlns:xlink="http://www.w3.org/1999/xlink">
<g id="graph0" class="graph" transform="scale(1 1) rotate(0) translate(4 81)">
<title>utility::swap2</title>
<polygon fill="white" stroke="transparent" points="-4,4 -4,-81 333,-81 333,4 -4,4"/>
<!-- Node1 -->
<g id="node1" class="node">
<title>Node1</title>
<g id="a_node1"><a xlink:title=" ">
<polygon fill="#bfbfbf" stroke="black" points="247,-19.5 247,-38.5 329,-38.5 329,-19.5 247,-19.5"/>
<text text-anchor="middle" x="288" y="-26.5" font-family="Helvetica,sans-Serif" font-size="10.00">utility::swap2</text>
</a>
</g>
</g>
<!-- Node2 -->
<g id="node2" class="node">
<title>Node2</title>
<g id="a_node2"><a xlink:href="classHLD.html#ae6a418056cde03facbbb74f8e5bfd5ee" target="_top" xlink:title=" ">
<polygon fill="white" stroke="black" points="116.5,-38.5 116.5,-57.5 207.5,-57.5 207.5,-38.5 116.5,-38.5"/>
<text text-anchor="middle" x="162" y="-45.5" font-family="Helvetica,sans-Serif" font-size="10.00">HLD::func_path</text>
</a>
</g>
</g>
<!-- Node1&#45;&gt;Node2 -->
<g id="edge1" class="edge">
<title>Node1&#45;&gt;Node2</title>
<path fill="none" stroke="midnightblue" d="M236.58,-36.73C227.05,-38.19 217.13,-39.71 207.78,-41.14"/>
<polygon fill="midnightblue" stroke="midnightblue" points="237.39,-40.14 246.74,-35.17 236.33,-33.22 237.39,-40.14"/>
</g>
<!-- Node5 -->
<g id="node5" class="node">
<title>Node5</title>
<g id="a_node5"><a xlink:href="structdsu__ds_1_1dsu.html#a11446b57ae0bf69361258cb4ee2fd212" target="_top" xlink:title="Joins the set containing x with the set containing y Returns true if the set containing x is differen...">
<polygon fill="white" stroke="black" points="113,-0.5 113,-19.5 211,-19.5 211,-0.5 113,-0.5"/>
<text text-anchor="middle" x="162" y="-7.5" font-family="Helvetica,sans-Serif" font-size="10.00">dsu_ds::dsu::join</text>
</a>
</g>
</g>
<!-- Node1&#45;&gt;Node5 -->
<g id="edge4" class="edge">
<title>Node1&#45;&gt;Node5</title>
<path fill="none" stroke="midnightblue" d="M236.69,-21.29C228.3,-20.01 219.61,-18.67 211.27,-17.4"/>
<polygon fill="midnightblue" stroke="midnightblue" points="236.33,-24.78 246.74,-22.83 237.39,-17.86 236.33,-24.78"/>
</g>
<!-- Node3 -->
<g id="node3" class="node">
<title>Node3</title>
<g id="a_node3"><a xlink:href="classHLD.html#a21892094d3c19ccc6fa6fe71b0ec2dcf" target="_top" xlink:title="Returns the Monoid sum over values of vertices on the path from u to v.">
<polygon fill="white" stroke="black" points="3,-57.5 3,-76.5 74,-76.5 74,-57.5 3,-57.5"/>
<text text-anchor="middle" x="38.5" y="-64.5" font-family="Helvetica,sans-Serif" font-size="10.00">HLD::query</text>
</a>
</g>
</g>
<!-- Node2&#45;&gt;Node3 -->
<g id="edge2" class="edge">
<title>Node2&#45;&gt;Node3</title>
<path fill="none" stroke="midnightblue" d="M106.48,-56.53C95.49,-58.24 84.23,-60.01 74.15,-61.58"/>
<polygon fill="midnightblue" stroke="midnightblue" points="107.11,-59.97 116.45,-54.97 106.03,-53.05 107.11,-59.97"/>
</g>
<!-- Node4 -->
<g id="node4" class="node">
<title>Node4</title>
<g id="a_node4"><a xlink:href="classHLD.html#ad4b836a03e5018a79381fb7dc89a0c72" target="_top" xlink:title=" ">
<polygon fill="white" stroke="black" points="0,-19.5 0,-38.5 77,-38.5 77,-19.5 0,-19.5"/>
<text text-anchor="middle" x="38.5" y="-26.5" font-family="Helvetica,sans-Serif" font-size="10.00">HLD::update</text>
</a>
</g>
</g>
<!-- Node2&#45;&gt;Node4 -->
<g id="edge3" class="edge">
<title>Node2&#45;&gt;Node4</title>
<path fill="none" stroke="midnightblue" d="M106.33,-39.45C96.51,-37.91 86.47,-36.34 77.25,-34.9"/>
<polygon fill="midnightblue" stroke="midnightblue" points="106.03,-42.95 116.45,-41.03 107.11,-36.03 106.03,-42.95"/>
</g>
</g>
</svg>
