<?xml version="1.0" encoding="UTF-8" standalone="no"?>
<!DOCTYPE svg PUBLIC "-//W3C//DTD SVG 1.1//EN"
 "http://www.w3.org/Graphics/SVG/1.1/DTD/svg11.dtd">
<!-- Generated by graphviz version 2.43.0 (0)
 -->
<!-- Title: combinatorics::perm Pages: 1 -->
<!--zoomable 190 -->
<svg id="main" version="1.1" xmlns="http://www.w3.org/2000/svg" xmlns:xlink="http://www.w3.org/1999/xlink" xml:space="preserve" onload="init(evt)">
<style type="text/css"><![CDATA[
.edge:hover path { stroke: red; }
.edge:hover polygon { stroke: red; fill: red; }
]]></style>
<script type="text/javascript"><![CDATA[
var edges = document.getElementsByTagName('g');
if (edges && edges.length) {
  for (var i=0;i<edges.length;i++) {
    if (edges[i].id.substr(0,4)=='edge') {
      edges[i].setAttribute('class','edge');
    }
  }
}
]]></script>
        <defs>
                <circle id="rim" cx="0" cy="0" r="7"/>
                <circle id="rim2" cx="0" cy="0" r="3.5"/>
                <g id="zoomPlus">
                        <use xlink:href="#rim" fill="#404040">
                                <set attributeName="fill" to="#808080" begin="zoomplus.mouseover" end="zoomplus.mouseout"/>
                        </use>
                        <path d="M-4,0h8M0,-4v8" fill="none" stroke="white" stroke-width="1.5" pointer-events="none"/>
                </g>
                <g id="zoomMin">
                        <use xlink:href="#rim" fill="#404040">
                                <set attributeName="fill" to="#808080" begin="zoomminus.mouseover" end="zoomminus.mouseout"/>
                        </use>
                        <path d="M-4,0h8" fill="none" stroke="white" stroke-width="1.5" pointer-events="none"/>
                </g>
                <g id="dirArrow">
                        <path fill="none" stroke="white" stroke-width="1.5" d="M0,-3.0v7 M-2.5,-0.5L0,-3.0L2.5,-0.5"/>
                </g>
               <g id="resetDef">
                       <use xlink:href="#rim2" fill="#404040">
                               <set attributeName="fill" to="#808080" begin="reset.mouseover" end="reset.mouseout"/>
                       </use>
               </g>
        </defs>

<script type="text/javascript">
var viewWidth = 1164;
var viewHeight = 190;
var sectionId = 'dynsection-4';
</script>
<script xlink:href="svgpan.js"/>
<svg id="graph" class="graph">
<g id="viewport">
<title>combinatorics::perm</title>
<polygon fill="white" stroke="transparent" points="-4,4 -4,-186 1160,-186 1160,4 -4,4"/>
<!-- Node1 -->
<g id="node1" class="node">
<title>Node1</title>
<g id="a_node1"><a xlink:title=" ">
<polygon fill="#bfbfbf" stroke="black" points="1039,-118.5 1039,-137.5 1156,-137.5 1156,-118.5 1039,-118.5"/>
<text text-anchor="middle" x="1097.5" y="-125.5" font-family="Helvetica,sans-Serif" font-size="10.00">combinatorics::perm</text>
</a>
</g>
</g>
<!-- Node2 -->
<g id="node2" class="node">
<title>Node2</title>
<g id="a_node2"><a xlink:href="namespacecombinatorics.html#a1b1a7ea1cc5fc393d43d6a4c6d888876" target="_top" xlink:title=" ">
<polygon fill="white" stroke="black" points="696,-118.5 696,-137.5 822,-137.5 822,-118.5 696,-118.5"/>
<text text-anchor="middle" x="759" y="-125.5" font-family="Helvetica,sans-Serif" font-size="10.00">combinatorics::choose</text>
</a>
</g>
</g>
<!-- Node1&#45;&gt;Node2 -->
<g id="edge1" class="edge">
<title>Node1&#45;&gt;Node2</title>
<path fill="none" stroke="midnightblue" d="M1028.46,-128C968.13,-128 880.73,-128 822.22,-128"/>
<polygon fill="midnightblue" stroke="midnightblue" points="1028.65,-131.5 1038.65,-128 1028.65,-124.5 1028.65,-131.5"/>
</g>
<!-- Node8 -->
<g id="node8" class="node">
<title>Node8</title>
<g id="a_node8"><a xlink:href="namespacecombinatorics.html#a683282a64d9be4f8df67be6138201570" target="_top" xlink:title=" ">
<polygon fill="white" stroke="black" points="877.5,-80.5 877.5,-99.5 987.5,-99.5 987.5,-80.5 877.5,-80.5"/>
<text text-anchor="middle" x="932.5" y="-87.5" font-family="Helvetica,sans-Serif" font-size="10.00">combinatorics::fact</text>
</a>
</g>
</g>
<!-- Node1&#45;&gt;Node8 -->
<g id="edge7" class="edge">
<title>Node1&#45;&gt;Node8</title>
<path fill="none" stroke="midnightblue" d="M1045.47,-116.1C1022.56,-110.76 995.9,-104.55 974.34,-99.52"/>
<polygon fill="midnightblue" stroke="midnightblue" points="1044.83,-119.55 1055.37,-118.41 1046.42,-112.73 1044.83,-119.55"/>
</g>
<!-- Node15 -->
<g id="node15" class="node">
<title>Node15</title>
<g id="a_node15"><a xlink:href="namespacecombinatorics.html#a354a245ee1f57f4f0586318676040d0a" target="_top" xlink:title=" ">
<polygon fill="white" stroke="black" points="862,-162.5 862,-181.5 1003,-181.5 1003,-162.5 862,-162.5"/>
<text text-anchor="middle" x="932.5" y="-169.5" font-family="Helvetica,sans-Serif" font-size="10.00">combinatorics::test_perm</text>
</a>
</g>
</g>
<!-- Node1&#45;&gt;Node15 -->
<g id="edge18" class="edge">
<title>Node1&#45;&gt;Node15</title>
<path fill="none" stroke="midnightblue" d="M1051.47,-140.15C1025.39,-147.2 993.03,-155.93 968.8,-162.47"/>
<polygon fill="midnightblue" stroke="midnightblue" points="1052.39,-143.53 1061.13,-137.55 1050.56,-136.77 1052.39,-143.53"/>
</g>
<!-- Node3 -->
<g id="node3" class="node">
<title>Node3</title>
<g id="a_node3"><a xlink:href="namespacecombinatorics.html#a4bb0c0ff8e23b9dfa30bdc71206a62be" target="_top" xlink:title=" ">
<polygon fill="white" stroke="black" points="546,-115 546,-145 656,-145 656,-115 546,-115"/>
<text text-anchor="start" x="554" y="-133" font-family="Helvetica,sans-Serif" font-size="10.00">combinatorics::test</text>
<text text-anchor="middle" x="601" y="-122" font-family="Helvetica,sans-Serif" font-size="10.00">_choose</text>
</a>
</g>
</g>
<!-- Node2&#45;&gt;Node3 -->
<g id="edge2" class="edge">
<title>Node2&#45;&gt;Node3</title>
<path fill="none" stroke="midnightblue" d="M685.68,-128.93C675.81,-129.05 665.81,-129.18 656.33,-129.3"/>
<polygon fill="midnightblue" stroke="midnightblue" points="685.94,-132.42 695.9,-128.8 685.85,-125.42 685.94,-132.42"/>
</g>
<!-- Node4 -->
<g id="node4" class="node">
<title>Node4</title>
<g id="a_node4"><a xlink:href="namespacecombinatorics.html#a4e91bb5e7575eceb8a1727698820b896" target="_top" xlink:title=" ">
<polygon fill="white" stroke="black" points="400,-96 400,-126 510,-126 510,-96 400,-96"/>
<text text-anchor="start" x="408" y="-114" font-family="Helvetica,sans-Serif" font-size="10.00">combinatorics::test</text>
<text text-anchor="middle" x="455" y="-103" font-family="Helvetica,sans-Serif" font-size="10.00">_combinatorics</text>
</a>
</g>
</g>
<!-- Node3&#45;&gt;Node4 -->
<g id="edge3" class="edge">
<title>Node3&#45;&gt;Node4</title>
<path fill="none" stroke="midnightblue" d="M536.01,-121.56C527.44,-120.43 518.72,-119.27 510.33,-118.17"/>
<polygon fill="midnightblue" stroke="midnightblue" points="535.6,-125.03 545.97,-122.87 536.51,-118.09 535.6,-125.03"/>
</g>
<!-- Node5 -->
<g id="node5" class="node">
<title>Node5</title>
<g id="a_node5"><a xlink:href="test_8cpp.html#aa1c715cac916839a95e25b65b4071c4a" target="_top" xlink:title=" ">
<polygon fill="white" stroke="black" points="160,-57.5 160,-76.5 213,-76.5 213,-57.5 160,-57.5"/>
<text text-anchor="middle" x="186.5" y="-64.5" font-family="Helvetica,sans-Serif" font-size="10.00">test_all</text>
</a>
</g>
</g>
<!-- Node4&#45;&gt;Node5 -->
<g id="edge4" class="edge">
<title>Node4&#45;&gt;Node5</title>
<path fill="none" stroke="midnightblue" d="M389.8,-100.4C333.11,-91.04 253.39,-77.88 213.04,-71.22"/>
<polygon fill="midnightblue" stroke="midnightblue" points="389.31,-103.87 399.75,-102.04 390.45,-96.96 389.31,-103.87"/>
</g>
<!-- Node6 -->
<g id="node6" class="node">
<title>Node6</title>
<g id="a_node6"><a xlink:href="test_8cpp.html#af095a232149097b5605064623a9345ac" target="_top" xlink:title=" ">
<polygon fill="white" stroke="black" points="77,-57.5 77,-76.5 124,-76.5 124,-57.5 77,-57.5"/>
<text text-anchor="middle" x="100.5" y="-64.5" font-family="Helvetica,sans-Serif" font-size="10.00">main2</text>
</a>
</g>
</g>
<!-- Node5&#45;&gt;Node6 -->
<g id="edge5" class="edge">
<title>Node5&#45;&gt;Node6</title>
<path fill="none" stroke="midnightblue" d="M149.59,-67C140.96,-67 131.99,-67 124.16,-67"/>
<polygon fill="midnightblue" stroke="midnightblue" points="149.84,-70.5 159.84,-67 149.84,-63.5 149.84,-70.5"/>
</g>
<!-- Node7 -->
<g id="node7" class="node">
<title>Node7</title>
<g id="a_node7"><a xlink:href="main_8hpp.html#a0ddf1224851353fc92bfbff6f499fa97" target="_top" xlink:title=" ">
<polygon fill="white" stroke="black" points="0,-57.5 0,-76.5 41,-76.5 41,-57.5 0,-57.5"/>
<text text-anchor="middle" x="20.5" y="-64.5" font-family="Helvetica,sans-Serif" font-size="10.00">main</text>
</a>
</g>
</g>
<!-- Node6&#45;&gt;Node7 -->
<g id="edge6" class="edge">
<title>Node6&#45;&gt;Node7</title>
<path fill="none" stroke="midnightblue" d="M66.66,-67C57.96,-67 48.84,-67 41.1,-67"/>
<polygon fill="midnightblue" stroke="midnightblue" points="66.94,-70.5 76.94,-67 66.94,-63.5 66.94,-70.5"/>
</g>
<!-- Node8&#45;&gt;Node2 -->
<g id="edge8" class="edge">
<title>Node8&#45;&gt;Node2</title>
<path fill="none" stroke="midnightblue" d="M878.46,-101.75C854.21,-107.13 825.85,-113.41 802.97,-118.48"/>
<polygon fill="midnightblue" stroke="midnightblue" points="879.22,-105.17 888.22,-99.59 877.7,-98.34 879.22,-105.17"/>
</g>
<!-- Node9 -->
<g id="node9" class="node">
<title>Node9</title>
<g id="a_node9"><a xlink:href="namespacecombinatorics.html#a49a9258d4d599545b41c0425b8c34aeb" target="_top" xlink:title=" ">
<polygon fill="white" stroke="black" points="692,-77.5 692,-96.5 826,-96.5 826,-77.5 692,-77.5"/>
<text text-anchor="middle" x="759" y="-84.5" font-family="Helvetica,sans-Serif" font-size="10.00">combinatorics::test_fact</text>
</a>
</g>
</g>
<!-- Node8&#45;&gt;Node9 -->
<g id="edge9" class="edge">
<title>Node8&#45;&gt;Node9</title>
<path fill="none" stroke="midnightblue" d="M867.18,-88.87C853.8,-88.64 839.69,-88.39 826.25,-88.16"/>
<polygon fill="midnightblue" stroke="midnightblue" points="867.18,-92.38 877.24,-89.05 867.3,-85.38 867.18,-92.38"/>
</g>
<!-- Node10 -->
<g id="node10" class="node">
<title>Node10</title>
<g id="a_node10"><a xlink:href="number__theory_8hpp.html#af0753ff92c84e6924e1fd6461e77b16f" target="_top" xlink:title=" ">
<polygon fill="white" stroke="black" points="734.5,-38.5 734.5,-57.5 783.5,-57.5 783.5,-38.5 734.5,-38.5"/>
<text text-anchor="middle" x="759" y="-45.5" font-family="Helvetica,sans-Serif" font-size="10.00">totient</text>
</a>
</g>
</g>
<!-- Node8&#45;&gt;Node10 -->
<g id="edge11" class="edge">
<title>Node8&#45;&gt;Node10</title>
<path fill="none" stroke="midnightblue" d="M882.86,-78.09C850.52,-70.17 809.46,-60.11 783.96,-53.87"/>
<polygon fill="midnightblue" stroke="midnightblue" points="882.04,-81.49 892.58,-80.47 883.7,-74.69 882.04,-81.49"/>
</g>
<!-- Node9&#45;&gt;Node4 -->
<g id="edge10" class="edge">
<title>Node9&#45;&gt;Node4</title>
<path fill="none" stroke="midnightblue" d="M681.59,-93.07C628.06,-97.33 557.82,-102.91 510.03,-106.71"/>
<polygon fill="midnightblue" stroke="midnightblue" points="682.03,-96.55 691.72,-92.27 681.48,-89.57 682.03,-96.55"/>
</g>
<!-- Node11 -->
<g id="node11" class="node">
<title>Node11</title>
<g id="a_node11"><a xlink:href="number__theory_8hpp.html#a6542b189f3759f43899a8b1978d58e2c" target="_top" xlink:title=" ">
<polygon fill="white" stroke="black" points="558,-38.5 558,-57.5 644,-57.5 644,-38.5 558,-38.5"/>
<text text-anchor="middle" x="601" y="-45.5" font-family="Helvetica,sans-Serif" font-size="10.00">primitive_root</text>
</a>
</g>
</g>
<!-- Node10&#45;&gt;Node11 -->
<g id="edge12" class="edge">
<title>Node10&#45;&gt;Node11</title>
<path fill="none" stroke="midnightblue" d="M724.14,-48C700.67,-48 669.27,-48 644.18,-48"/>
<polygon fill="midnightblue" stroke="midnightblue" points="724.31,-51.5 734.31,-48 724.31,-44.5 724.31,-51.5"/>
</g>
<!-- Node14 -->
<g id="node14" class="node">
<title>Node14</title>
<g id="a_node14"><a xlink:href="number__theory_8hpp.html#a8ae320acad5e35d58ca5ad7adc6ddd78" target="_top" xlink:title=" ">
<polygon fill="white" stroke="black" points="418.5,-0.5 418.5,-19.5 491.5,-19.5 491.5,-0.5 418.5,-0.5"/>
<text text-anchor="middle" x="455" y="-7.5" font-family="Helvetica,sans-Serif" font-size="10.00">test_totient</text>
</a>
</g>
</g>
<!-- Node10&#45;&gt;Node14 -->
<g id="edge16" class="edge">
<title>Node10&#45;&gt;Node14</title>
<path fill="none" stroke="midnightblue" d="M724.12,-40.9C704.33,-36.95 678.83,-32.2 656,-29 598.66,-20.95 531.59,-15.35 491.52,-12.41"/>
<polygon fill="midnightblue" stroke="midnightblue" points="723.7,-44.39 734.19,-42.94 725.09,-37.53 723.7,-44.39"/>
</g>
<!-- Node12 -->
<g id="node12" class="node">
<title>Node12</title>
<g id="a_node12"><a xlink:href="number__theory_8hpp.html#a0ff115471f41e78245b5dc48eaf8032f" target="_top" xlink:title=" ">
<polygon fill="white" stroke="black" points="400,-38.5 400,-57.5 510,-57.5 510,-38.5 400,-38.5"/>
<text text-anchor="middle" x="455" y="-45.5" font-family="Helvetica,sans-Serif" font-size="10.00">test_primitive_root</text>
</a>
</g>
</g>
<!-- Node11&#45;&gt;Node12 -->
<g id="edge13" class="edge">
<title>Node11&#45;&gt;Node12</title>
<path fill="none" stroke="midnightblue" d="M547.89,-48C535.62,-48 522.52,-48 510.17,-48"/>
<polygon fill="midnightblue" stroke="midnightblue" points="547.96,-51.5 557.96,-48 547.96,-44.5 547.96,-51.5"/>
</g>
<!-- Node13 -->
<g id="node13" class="node">
<title>Node13</title>
<g id="a_node13"><a xlink:href="number__theory_8hpp.html#aed36f6b8b9706133e9b5302b1618e9ef" target="_top" xlink:title=" ">
<polygon fill="white" stroke="black" points="249,-38.5 249,-57.5 364,-57.5 364,-38.5 249,-38.5"/>
<text text-anchor="middle" x="306.5" y="-45.5" font-family="Helvetica,sans-Serif" font-size="10.00">test_number_theory</text>
</a>
</g>
</g>
<!-- Node12&#45;&gt;Node13 -->
<g id="edge14" class="edge">
<title>Node12&#45;&gt;Node13</title>
<path fill="none" stroke="midnightblue" d="M389.69,-48C381.25,-48 372.66,-48 364.36,-48"/>
<polygon fill="midnightblue" stroke="midnightblue" points="389.87,-51.5 399.87,-48 389.87,-44.5 389.87,-51.5"/>
</g>
<!-- Node13&#45;&gt;Node5 -->
<g id="edge15" class="edge">
<title>Node13&#45;&gt;Node5</title>
<path fill="none" stroke="midnightblue" d="M238.94,-58.72C229.79,-60.19 220.89,-61.62 213.13,-62.87"/>
<polygon fill="midnightblue" stroke="midnightblue" points="239.6,-62.16 248.92,-57.11 238.49,-55.24 239.6,-62.16"/>
</g>
<!-- Node14&#45;&gt;Node13 -->
<g id="edge17" class="edge">
<title>Node14&#45;&gt;Node13</title>
<path fill="none" stroke="midnightblue" d="M408.35,-21.84C387.72,-27.19 363.68,-33.43 344.24,-38.47"/>
<polygon fill="midnightblue" stroke="midnightblue" points="409.36,-25.19 418.16,-19.3 407.6,-18.42 409.36,-25.19"/>
</g>
<!-- Node15&#45;&gt;Node4 -->
<g id="edge19" class="edge">
<title>Node15&#45;&gt;Node4</title>
<path fill="none" stroke="midnightblue" d="M851.35,-177.41C772.43,-180.61 649.08,-179.9 546,-154 522.66,-148.13 498.13,-135.96 480.59,-126.06"/>
<polygon fill="midnightblue" stroke="midnightblue" points="851.87,-180.89 861.7,-176.96 851.56,-173.9 851.87,-180.89"/>
</g>
</g>
</svg>
        <g id="navigator" transform="translate(0 0)" fill="#404254">
                <rect fill="#f2f5e9" fill-opacity="0.5" stroke="#606060" stroke-width=".5" x="0" y="0" width="60" height="60"/>
                <use id="zoomplus" xlink:href="#zoomPlus" x="17" y="9" onmousedown="handleZoom(evt,'in')"/>
                <use id="zoomminus" xlink:href="#zoomMin" x="42" y="9" onmousedown="handleZoom(evt,'out')"/>
                <use id="reset" xlink:href="#resetDef" x="30" y="36" onmousedown="handleReset()"/>
                <g id="arrowUp" xlink:href="#dirArrow" transform="translate(30 24)" onmousedown="handlePan(0,-1)">
                  <use xlink:href="#rim" fill="#404040">
                        <set attributeName="fill" to="#808080" begin="arrowUp.mouseover" end="arrowUp.mouseout"/>
                  </use>
                  <path fill="none" stroke="white" stroke-width="1.5" d="M0,-3.0v7 M-2.5,-0.5L0,-3.0L2.5,-0.5"/>
                </g>
                <g id="arrowRight" xlink:href="#dirArrow" transform="rotate(90) translate(36 -43)" onmousedown="handlePan(1,0)">
                  <use xlink:href="#rim" fill="#404040">
                        <set attributeName="fill" to="#808080" begin="arrowRight.mouseover" end="arrowRight.mouseout"/>
                  </use>
                  <path fill="none" stroke="white" stroke-width="1.5" d="M0,-3.0v7 M-2.5,-0.5L0,-3.0L2.5,-0.5"/>
                </g>
                <g id="arrowDown" xlink:href="#dirArrow" transform="rotate(180) translate(-30 -48)" onmousedown="handlePan(0,1)">
                  <use xlink:href="#rim" fill="#404040">
                        <set attributeName="fill" to="#808080" begin="arrowDown.mouseover" end="arrowDown.mouseout"/>
                  </use>
                  <path fill="none" stroke="white" stroke-width="1.5" d="M0,-3.0v7 M-2.5,-0.5L0,-3.0L2.5,-0.5"/>
                </g>
                <g id="arrowLeft" xlink:href="#dirArrow" transform="rotate(270) translate(-36 17)" onmousedown="handlePan(-1,0)">
                  <use xlink:href="#rim" fill="#404040">
                        <set attributeName="fill" to="#808080" begin="arrowLeft.mouseover" end="arrowLeft.mouseout"/>
                  </use>
                  <path fill="none" stroke="white" stroke-width="1.5" d="M0,-3.0v7 M-2.5,-0.5L0,-3.0L2.5,-0.5"/>
                </g>
        </g>
        <svg viewBox="0 0 15 15" width="100%" height="30px" preserveAspectRatio="xMaxYMin meet">
         <g id="arrow_out" transform="scale(0.3 0.3)">
          <a xlink:href="namespacecombinatorics_a162be12f51480d59189ec28dbcc2c5e2_icgraph_org.svg" target="_base">
           <rect id="button" ry="5" rx="5" y="6" x="6" height="38" width="38"
                fill="#f2f5e9" fill-opacity="0.5" stroke="#606060" stroke-width="1.0"/>
           <path id="arrow"
             d="M 11.500037,31.436501 C 11.940474,20.09759 22.043105,11.32322 32.158766,21.979434 L 37.068811,17.246167 C 37.068811,17.246167 37.088388,32 37.088388,32 L 22.160133,31.978069 C 22.160133,31.978069 26.997745,27.140456 26.997745,27.140456 C 18.528582,18.264221 13.291696,25.230495 11.500037,31.436501 z"
             style="fill:#404040;"/>
          </a>
         </g>
        </svg>
</svg>
