<?xml version="1.0" encoding="UTF-8" standalone="no"?>
<!DOCTYPE svg PUBLIC "-//W3C//DTD SVG 1.1//EN"
 "http://www.w3.org/Graphics/SVG/1.1/DTD/svg11.dtd">
<!-- Generated by graphviz version 2.43.0 (0)
 -->
<!-- Title: graph_theory::bipartite Pages: 1 -->
<svg width="847pt" height="88pt"
 viewBox="0.00 0.00 847.00 88.00" xmlns="http://www.w3.org/2000/svg" xmlns:xlink="http://www.w3.org/1999/xlink">
<g id="graph0" class="graph" transform="scale(1 1) rotate(0) translate(4 84)">
<title>graph_theory::bipartite</title>
<polygon fill="white" stroke="transparent" points="-4,4 -4,-84 843,-84 843,4 -4,4"/>
<!-- Node1 -->
<g id="node1" class="node">
<title>Node1</title>
<g id="a_node1"><a xlink:title=" ">
<polygon fill="#bfbfbf" stroke="black" points="711,-30 711,-49 839,-49 839,-30 711,-30"/>
<text text-anchor="middle" x="775" y="-37" font-family="Helvetica,sans-Serif" font-size="10.00">graph_theory::bipartite</text>
</a>
</g>
</g>
<!-- Node2 -->
<g id="node2" class="node">
<title>Node2</title>
<g id="a_node2"><a xlink:href="namespacegraph__theory.html#a178da2acee19545ba0378a75ffea2fdb" target="_top" xlink:title=" ">
<polygon fill="white" stroke="black" points="531,-52 531,-71 675,-71 675,-52 531,-52"/>
<text text-anchor="middle" x="603" y="-59" font-family="Helvetica,sans-Serif" font-size="10.00">graph_theory::max_match</text>
</a>
</g>
</g>
<!-- Node1&#45;&gt;Node2 -->
<g id="edge1" class="edge">
<title>Node1&#45;&gt;Node2</title>
<path fill="none" stroke="midnightblue" d="M700.51,-49.01C692.07,-50.1 683.48,-51.21 675.08,-52.3"/>
<polygon fill="midnightblue" stroke="midnightblue" points="701.23,-52.45 710.7,-47.69 700.33,-45.5 701.23,-52.45"/>
</g>
<!-- Node8 -->
<g id="node8" class="node">
<title>Node8</title>
<g id="a_node8"><a xlink:href="namespacegraph__theory.html#aeebcf017acc0533f31c46d62d0cebe72" target="_top" xlink:title=" ">
<polygon fill="white" stroke="black" points="390,-0.5 390,-30.5 495,-30.5 495,-0.5 390,-0.5"/>
<text text-anchor="start" x="398" y="-18.5" font-family="Helvetica,sans-Serif" font-size="10.00">graph_theory::test</text>
<text text-anchor="middle" x="442.5" y="-7.5" font-family="Helvetica,sans-Serif" font-size="10.00">_bipartite</text>
</a>
</g>
</g>
<!-- Node1&#45;&gt;Node8 -->
<g id="edge7" class="edge">
<title>Node1&#45;&gt;Node8</title>
<path fill="none" stroke="midnightblue" d="M700.51,-34.16C638.19,-29.64 550.37,-23.26 495.22,-19.26"/>
<polygon fill="midnightblue" stroke="midnightblue" points="700.44,-37.67 710.67,-34.9 700.95,-30.69 700.44,-37.67"/>
</g>
<!-- Node3 -->
<g id="node3" class="node">
<title>Node3</title>
<g id="a_node3"><a xlink:href="namespacegraph__theory.html#abbe5b980d32347acbd0811f9c189d097" target="_top" xlink:title=" ">
<polygon fill="white" stroke="black" points="390,-49.5 390,-79.5 495,-79.5 495,-49.5 390,-49.5"/>
<text text-anchor="start" x="398" y="-67.5" font-family="Helvetica,sans-Serif" font-size="10.00">graph_theory::test</text>
<text text-anchor="middle" x="442.5" y="-56.5" font-family="Helvetica,sans-Serif" font-size="10.00">_max_match</text>
</a>
</g>
</g>
<!-- Node2&#45;&gt;Node3 -->
<g id="edge2" class="edge">
<title>Node2&#45;&gt;Node3</title>
<path fill="none" stroke="midnightblue" d="M520.48,-63.04C511.82,-63.21 503.2,-63.37 495.03,-63.52"/>
<polygon fill="midnightblue" stroke="midnightblue" points="520.7,-66.54 530.63,-62.85 520.57,-59.54 520.7,-66.54"/>
</g>
<!-- Node4 -->
<g id="node4" class="node">
<title>Node4</title>
<g id="a_node4"><a xlink:href="namespacegraph__theory.html#aa2b38897f4c429325f0eb73b1137755a" target="_top" xlink:title=" ">
<polygon fill="white" stroke="black" points="249,-24.5 249,-54.5 354,-54.5 354,-24.5 249,-24.5"/>
<text text-anchor="start" x="257" y="-42.5" font-family="Helvetica,sans-Serif" font-size="10.00">graph_theory::test</text>
<text text-anchor="middle" x="301.5" y="-31.5" font-family="Helvetica,sans-Serif" font-size="10.00">_graph_theory</text>
</a>
</g>
</g>
<!-- Node3&#45;&gt;Node4 -->
<g id="edge3" class="edge">
<title>Node3&#45;&gt;Node4</title>
<path fill="none" stroke="midnightblue" d="M379.84,-53.41C371.31,-51.88 362.62,-50.31 354.3,-48.82"/>
<polygon fill="midnightblue" stroke="midnightblue" points="379.28,-56.87 389.74,-55.19 380.52,-49.98 379.28,-56.87"/>
</g>
<!-- Node5 -->
<g id="node5" class="node">
<title>Node5</title>
<g id="a_node5"><a xlink:href="test_8cpp.html#aa1c715cac916839a95e25b65b4071c4a" target="_top" xlink:title=" ">
<polygon fill="white" stroke="black" points="160,-30 160,-49 213,-49 213,-30 160,-30"/>
<text text-anchor="middle" x="186.5" y="-37" font-family="Helvetica,sans-Serif" font-size="10.00">test_all</text>
</a>
</g>
</g>
<!-- Node4&#45;&gt;Node5 -->
<g id="edge4" class="edge">
<title>Node4&#45;&gt;Node5</title>
<path fill="none" stroke="midnightblue" d="M238.72,-39.5C229.67,-39.5 220.81,-39.5 213.07,-39.5"/>
<polygon fill="midnightblue" stroke="midnightblue" points="238.96,-43 248.96,-39.5 238.96,-36 238.96,-43"/>
</g>
<!-- Node6 -->
<g id="node6" class="node">
<title>Node6</title>
<g id="a_node6"><a xlink:href="test_8cpp.html#af095a232149097b5605064623a9345ac" target="_top" xlink:title=" ">
<polygon fill="white" stroke="black" points="77,-30 77,-49 124,-49 124,-30 77,-30"/>
<text text-anchor="middle" x="100.5" y="-37" font-family="Helvetica,sans-Serif" font-size="10.00">main2</text>
</a>
</g>
</g>
<!-- Node5&#45;&gt;Node6 -->
<g id="edge5" class="edge">
<title>Node5&#45;&gt;Node6</title>
<path fill="none" stroke="midnightblue" d="M149.59,-39.5C140.96,-39.5 131.99,-39.5 124.16,-39.5"/>
<polygon fill="midnightblue" stroke="midnightblue" points="149.84,-43 159.84,-39.5 149.84,-36 149.84,-43"/>
</g>
<!-- Node7 -->
<g id="node7" class="node">
<title>Node7</title>
<g id="a_node7"><a xlink:href="main_8hpp.html#a0ddf1224851353fc92bfbff6f499fa97" target="_top" xlink:title=" ">
<polygon fill="white" stroke="black" points="0,-30 0,-49 41,-49 41,-30 0,-30"/>
<text text-anchor="middle" x="20.5" y="-37" font-family="Helvetica,sans-Serif" font-size="10.00">main</text>
</a>
</g>
</g>
<!-- Node6&#45;&gt;Node7 -->
<g id="edge6" class="edge">
<title>Node6&#45;&gt;Node7</title>
<path fill="none" stroke="midnightblue" d="M66.66,-39.5C57.96,-39.5 48.84,-39.5 41.1,-39.5"/>
<polygon fill="midnightblue" stroke="midnightblue" points="66.94,-43 76.94,-39.5 66.94,-36 66.94,-43"/>
</g>
<!-- Node8&#45;&gt;Node4 -->
<g id="edge8" class="edge">
<title>Node8&#45;&gt;Node4</title>
<path fill="none" stroke="midnightblue" d="M379.84,-26.15C371.31,-27.62 362.62,-29.12 354.3,-30.56"/>
<polygon fill="midnightblue" stroke="midnightblue" points="380.48,-29.59 389.74,-24.44 379.29,-22.69 380.48,-29.59"/>
</g>
</g>
</svg>
