<?xml version="1.0" encoding="UTF-8" standalone="no"?>
<!DOCTYPE svg PUBLIC "-//W3C//DTD SVG 1.1//EN"
 "http://www.w3.org/Graphics/SVG/1.1/DTD/svg11.dtd">
<!-- Generated by graphviz version 2.43.0 (0)
 -->
<!-- Title: convex_hull_trick::wedge Pages: 1 -->
<svg width="983pt" height="173pt"
 viewBox="0.00 0.00 983.00 173.00" xmlns="http://www.w3.org/2000/svg" xmlns:xlink="http://www.w3.org/1999/xlink">
<g id="graph0" class="graph" transform="scale(1 1) rotate(0) translate(4 169)">
<title>convex_hull_trick::wedge</title>
<polygon fill="white" stroke="transparent" points="-4,4 -4,-169 979,-169 979,4 -4,4"/>
<!-- Node1 -->
<g id="node1" class="node">
<title>Node1</title>
<g id="a_node1"><a xlink:title=" ">
<polygon fill="#bfbfbf" stroke="black" points="867,-22.5 867,-52.5 975,-52.5 975,-22.5 867,-22.5"/>
<text text-anchor="start" x="875" y="-40.5" font-family="Helvetica,sans-Serif" font-size="10.00">convex_hull_trick::</text>
<text text-anchor="middle" x="921" y="-29.5" font-family="Helvetica,sans-Serif" font-size="10.00">wedge</text>
</a>
</g>
</g>
<!-- Node2 -->
<g id="node2" class="node">
<title>Node2</title>
<g id="a_node2"><a xlink:href="$namespaceconvex__hull__trick.html#abeaee6745d46728e8edf0f80a1e92ddf" xlink:title=" ">
<polygon fill="white" stroke="black" points="701,-48 701,-67 831,-67 831,-48 701,-48"/>
<text text-anchor="middle" x="766" y="-55" font-family="Helvetica,sans-Serif" font-size="10.00">convex_hull_trick::area</text>
</a>
</g>
</g>
<!-- Node1&#45;&gt;Node2 -->
<g id="edge1" class="edge">
<title>Node1&#45;&gt;Node2</title>
<path fill="none" stroke="midnightblue" d="M857,-45.74C848.43,-46.85 839.64,-48 831.06,-49.13"/>
<polygon fill="midnightblue" stroke="midnightblue" points="857.46,-49.21 866.92,-44.44 856.55,-42.26 857.46,-49.21"/>
</g>
<!-- Node10 -->
<g id="node10" class="node">
<title>Node10</title>
<g id="a_node10"><a xlink:href="$namespaceconvex__hull__trick_1_1test.html#a84a3352ebc4eb5a1f911bb8e8d1af61d" xlink:title=" ">
<polygon fill="white" stroke="black" points="547.5,-0.5 547.5,-30.5 655.5,-30.5 655.5,-0.5 547.5,-0.5"/>
<text text-anchor="start" x="555.5" y="-18.5" font-family="Helvetica,sans-Serif" font-size="10.00">convex_hull_trick::</text>
<text text-anchor="middle" x="601.5" y="-7.5" font-family="Helvetica,sans-Serif" font-size="10.00">test::test_wedge</text>
</a>
</g>
</g>
<!-- Node1&#45;&gt;Node10 -->
<g id="edge10" class="edge">
<title>Node1&#45;&gt;Node10</title>
<path fill="none" stroke="midnightblue" d="M856.56,-33.1C797.63,-29.02 710.89,-23.01 655.55,-19.18"/>
<polygon fill="midnightblue" stroke="midnightblue" points="856.64,-36.62 866.86,-33.82 857.12,-29.63 856.64,-36.62"/>
</g>
<!-- Node3 -->
<g id="node3" class="node">
<title>Node3</title>
<g id="a_node3"><a xlink:href="$namespaceconvex__hull__trick.html#a09a415224250703a38ef6bd668e1cac5" xlink:title="Returns whether moving through &#160;is counterclockwise.">
<polygon fill="white" stroke="black" points="538,-50 538,-69 665,-69 665,-50 538,-50"/>
<text text-anchor="middle" x="601.5" y="-57" font-family="Helvetica,sans-Serif" font-size="10.00">convex_hull_trick::ccw</text>
</a>
</g>
</g>
<!-- Node2&#45;&gt;Node3 -->
<g id="edge2" class="edge">
<title>Node2&#45;&gt;Node3</title>
<path fill="none" stroke="midnightblue" d="M690.52,-58.42C682.05,-58.52 673.49,-58.63 665.2,-58.73"/>
<polygon fill="midnightblue" stroke="midnightblue" points="690.82,-61.91 700.78,-58.29 690.73,-54.91 690.82,-61.91"/>
</g>
<!-- Node4 -->
<g id="node4" class="node">
<title>Node4</title>
<g id="a_node4"><a xlink:href="$namespaceconvex__hull__trick.html#aa194f52c547fd3298f72caf6371a23ed" xlink:title=" ">
<polygon fill="white" stroke="black" points="376,-94 376,-113 502,-113 502,-94 376,-94"/>
<text text-anchor="middle" x="439" y="-101" font-family="Helvetica,sans-Serif" font-size="10.00">convex_hull_trick::hull</text>
</a>
</g>
</g>
<!-- Node3&#45;&gt;Node4 -->
<g id="edge3" class="edge">
<title>Node3&#45;&gt;Node4</title>
<path fill="none" stroke="midnightblue" d="M555.82,-71.75C530.2,-78.77 498.51,-87.46 474.76,-93.97"/>
<polygon fill="midnightblue" stroke="midnightblue" points="556.96,-75.07 565.67,-69.05 555.1,-68.32 556.96,-75.07"/>
</g>
<!-- Node9 -->
<g id="node9" class="node">
<title>Node9</title>
<g id="a_node9"><a xlink:href="$namespaceconvex__hull__trick_1_1test.html#a9b689c83ba8f830281d1aabf43efd1e4" xlink:title=" ">
<polygon fill="white" stroke="black" points="385,-44.5 385,-74.5 493,-74.5 493,-44.5 385,-44.5"/>
<text text-anchor="start" x="393" y="-62.5" font-family="Helvetica,sans-Serif" font-size="10.00">convex_hull_trick::</text>
<text text-anchor="middle" x="439" y="-51.5" font-family="Helvetica,sans-Serif" font-size="10.00">test::test_ccw</text>
</a>
</g>
</g>
<!-- Node3&#45;&gt;Node9 -->
<g id="edge8" class="edge">
<title>Node3&#45;&gt;Node9</title>
<path fill="none" stroke="midnightblue" d="M527.83,-59.5C516.18,-59.5 504.32,-59.5 493.24,-59.5"/>
<polygon fill="midnightblue" stroke="midnightblue" points="527.99,-63 537.99,-59.5 527.99,-56 527.99,-63"/>
</g>
<!-- Node5 -->
<g id="node5" class="node">
<title>Node5</title>
<g id="a_node5"><a xlink:href="$structconvex__hull__trick_1_1CHT.html#a2166ed9dd69f17fe9f4ed77fbf4d0907" xlink:title=" ">
<polygon fill="white" stroke="black" points="232,-134.5 232,-164.5 340,-164.5 340,-134.5 232,-134.5"/>
<text text-anchor="start" x="240" y="-152.5" font-family="Helvetica,sans-Serif" font-size="10.00">convex_hull_trick::</text>
<text text-anchor="middle" x="286" y="-141.5" font-family="Helvetica,sans-Serif" font-size="10.00">CHT::CHT</text>
</a>
</g>
</g>
<!-- Node4&#45;&gt;Node5 -->
<g id="edge4" class="edge">
<title>Node4&#45;&gt;Node5</title>
<path fill="none" stroke="midnightblue" d="M397.01,-115.99C378.31,-121.68 356,-128.48 336.38,-134.46"/>
<polygon fill="midnightblue" stroke="midnightblue" points="398.17,-119.29 406.71,-113.03 396.13,-112.6 398.17,-119.29"/>
</g>
<!-- Node6 -->
<g id="node6" class="node">
<title>Node6</title>
<g id="a_node6"><a xlink:href="$namespaceconvex__hull__trick_1_1test.html#a585d91f97ee3a90cbcdb2ba5bbfe94ac" xlink:title=" ">
<polygon fill="white" stroke="black" points="232,-85.5 232,-115.5 340,-115.5 340,-85.5 232,-85.5"/>
<text text-anchor="start" x="240" y="-103.5" font-family="Helvetica,sans-Serif" font-size="10.00">convex_hull_trick::</text>
<text text-anchor="middle" x="286" y="-92.5" font-family="Helvetica,sans-Serif" font-size="10.00">test::test_hull</text>
</a>
</g>
</g>
<!-- Node4&#45;&gt;Node6 -->
<g id="edge5" class="edge">
<title>Node4&#45;&gt;Node6</title>
<path fill="none" stroke="midnightblue" d="M365.62,-102.06C356.99,-101.89 348.29,-101.72 340,-101.55"/>
<polygon fill="midnightblue" stroke="midnightblue" points="365.64,-105.56 375.71,-102.26 365.78,-98.56 365.64,-105.56"/>
</g>
<!-- Node7 -->
<g id="node7" class="node">
<title>Node7</title>
<g id="a_node7"><a xlink:href="$namespaceconvex__hull__trick_1_1test.html#a05eb98d10b7444bbdc9fe64f4d99676a" xlink:title=" ">
<polygon fill="white" stroke="black" points="83,-41.5 83,-71.5 196,-71.5 196,-41.5 83,-41.5"/>
<text text-anchor="start" x="91" y="-59.5" font-family="Helvetica,sans-Serif" font-size="10.00">convex_hull_trick::</text>
<text text-anchor="middle" x="139.5" y="-48.5" font-family="Helvetica,sans-Serif" font-size="10.00">test::test_geometry</text>
</a>
</g>
</g>
<!-- Node6&#45;&gt;Node7 -->
<g id="edge6" class="edge">
<title>Node6&#45;&gt;Node7</title>
<path fill="none" stroke="midnightblue" d="M225.84,-82.49C213.97,-78.87 201.6,-75.11 190.09,-71.6"/>
<polygon fill="midnightblue" stroke="midnightblue" points="225.09,-85.92 235.68,-85.48 227.13,-79.22 225.09,-85.92"/>
</g>
<!-- Node8 -->
<g id="node8" class="node">
<title>Node8</title>
<g id="a_node8"><a xlink:href="$test_8cpp.html#af095a232149097b5605064623a9345ac" xlink:title=" ">
<polygon fill="white" stroke="black" points="0,-47 0,-66 47,-66 47,-47 0,-47"/>
<text text-anchor="middle" x="23.5" y="-54" font-family="Helvetica,sans-Serif" font-size="10.00">main2</text>
</a>
</g>
</g>
<!-- Node7&#45;&gt;Node8 -->
<g id="edge7" class="edge">
<title>Node7&#45;&gt;Node8</title>
<path fill="none" stroke="midnightblue" d="M72.78,-56.5C63.57,-56.5 54.68,-56.5 47.09,-56.5"/>
<polygon fill="midnightblue" stroke="midnightblue" points="72.84,-60 82.84,-56.5 72.84,-53 72.84,-60"/>
</g>
<!-- Node9&#45;&gt;Node7 -->
<g id="edge9" class="edge">
<title>Node9&#45;&gt;Node7</title>
<path fill="none" stroke="midnightblue" d="M374.51,-58.86C321.5,-58.33 246.66,-57.57 196,-57.06"/>
<polygon fill="midnightblue" stroke="midnightblue" points="374.78,-62.36 384.81,-58.96 374.85,-55.36 374.78,-62.36"/>
</g>
<!-- Node10&#45;&gt;Node7 -->
<g id="edge11" class="edge">
<title>Node10&#45;&gt;Node7</title>
<path fill="none" stroke="midnightblue" d="M537.22,-20.71C492.24,-24.45 430.4,-29.66 376,-34.5 314.44,-39.98 243.87,-46.62 196.16,-51.16"/>
<polygon fill="midnightblue" stroke="midnightblue" points="537.74,-24.18 547.42,-19.86 537.16,-17.2 537.74,-24.18"/>
</g>
</g>
</svg>
