<?xml version="1.0" encoding="UTF-8" standalone="no"?>
<!DOCTYPE svg PUBLIC "-//W3C//DTD SVG 1.1//EN"
 "http://www.w3.org/Graphics/SVG/1.1/DTD/svg11.dtd">
<!-- Generated by graphviz version 2.43.0 (0)
 -->
<!-- Title: geometry::wedge Pages: 1 -->
<svg width="1117pt" height="142pt"
 viewBox="0.00 0.00 1117.00 142.00" xmlns="http://www.w3.org/2000/svg" xmlns:xlink="http://www.w3.org/1999/xlink">
<g id="graph0" class="graph" transform="scale(1 1) rotate(0) translate(4 138)">
<title>geometry::wedge</title>
<polygon fill="white" stroke="transparent" points="-4,4 -4,-138 1113,-138 1113,4 -4,4"/>
<!-- Node1 -->
<g id="node1" class="node">
<title>Node1</title>
<g id="a_node1"><a xlink:title=" ">
<polygon fill="#bfbfbf" stroke="black" points="1008,-19.5 1008,-38.5 1109,-38.5 1109,-19.5 1008,-19.5"/>
<text text-anchor="middle" x="1058.5" y="-26.5" font-family="Helvetica,sans-Serif" font-size="10.00">geometry::wedge</text>
</a>
</g>
</g>
<!-- Node2 -->
<g id="node2" class="node">
<title>Node2</title>
<g id="a_node2"><a xlink:href="namespacegeometry.html#ac4305c26988f1a68345c8b24370f0d4c" target="_top" xlink:title=" ">
<polygon fill="white" stroke="black" points="881,-38.5 881,-57.5 972,-57.5 972,-38.5 881,-38.5"/>
<text text-anchor="middle" x="926.5" y="-45.5" font-family="Helvetica,sans-Serif" font-size="10.00">geometry::area</text>
</a>
</g>
</g>
<!-- Node1&#45;&gt;Node2 -->
<g id="edge1" class="edge">
<title>Node1&#45;&gt;Node2</title>
<path fill="none" stroke="midnightblue" d="M997.92,-37.71C989.27,-38.97 980.48,-40.26 972.19,-41.47"/>
<polygon fill="midnightblue" stroke="midnightblue" points="998.59,-41.15 1007.98,-36.24 997.58,-34.22 998.59,-41.15"/>
</g>
<!-- Node12 -->
<g id="node12" class="node">
<title>Node12</title>
<g id="a_node12"><a xlink:href="namespacegeometry.html#af24e139ee1704a4aa6452a7fec700995" target="_top" xlink:title=" ">
<polygon fill="white" stroke="black" points="720,-0.5 720,-19.5 845,-19.5 845,-0.5 720,-0.5"/>
<text text-anchor="middle" x="782.5" y="-7.5" font-family="Helvetica,sans-Serif" font-size="10.00">geometry::test_wedge</text>
</a>
</g>
</g>
<!-- Node1&#45;&gt;Node12 -->
<g id="edge12" class="edge">
<title>Node1&#45;&gt;Node12</title>
<path fill="none" stroke="midnightblue" d="M997.65,-24.85C952.52,-21.72 890.82,-17.44 845.24,-14.28"/>
<polygon fill="midnightblue" stroke="midnightblue" points="997.66,-28.36 1007.88,-25.56 998.15,-21.38 997.66,-28.36"/>
</g>
<!-- Node3 -->
<g id="node3" class="node">
<title>Node3</title>
<g id="a_node3"><a xlink:href="namespacegeometry.html#a639388ad011f5842dfd4b81cb6a91c93" target="_top" xlink:title=" ">
<polygon fill="white" stroke="black" points="738.5,-38.5 738.5,-57.5 826.5,-57.5 826.5,-38.5 738.5,-38.5"/>
<text text-anchor="middle" x="782.5" y="-45.5" font-family="Helvetica,sans-Serif" font-size="10.00">geometry::ccw</text>
</a>
</g>
</g>
<!-- Node2&#45;&gt;Node3 -->
<g id="edge2" class="edge">
<title>Node2&#45;&gt;Node3</title>
<path fill="none" stroke="midnightblue" d="M870.62,-48C856.13,-48 840.7,-48 826.91,-48"/>
<polygon fill="midnightblue" stroke="midnightblue" points="870.96,-51.5 880.96,-48 870.96,-44.5 870.96,-51.5"/>
</g>
<!-- Node4 -->
<g id="node4" class="node">
<title>Node4</title>
<g id="a_node4"><a xlink:href="namespacegeometry.html#a0cef2145f28cbec7c561075942baf6e3" target="_top" xlink:title=" ">
<polygon fill="white" stroke="black" points="584.5,-76.5 584.5,-95.5 671.5,-95.5 671.5,-76.5 584.5,-76.5"/>
<text text-anchor="middle" x="628" y="-83.5" font-family="Helvetica,sans-Serif" font-size="10.00">geometry::hull</text>
</a>
</g>
</g>
<!-- Node3&#45;&gt;Node4 -->
<g id="edge3" class="edge">
<title>Node3&#45;&gt;Node4</title>
<path fill="none" stroke="midnightblue" d="M733.18,-60.04C711.88,-65.35 687.2,-71.5 667.21,-76.48"/>
<polygon fill="midnightblue" stroke="midnightblue" points="734.16,-63.4 743.02,-57.59 732.47,-56.61 734.16,-63.4"/>
</g>
<!-- Node11 -->
<g id="node11" class="node">
<title>Node11</title>
<g id="a_node11"><a xlink:href="namespacegeometry.html#a18ead2a577ff9e1f661e55515285809b" target="_top" xlink:title=" ">
<polygon fill="white" stroke="black" points="572,-38.5 572,-57.5 684,-57.5 684,-38.5 572,-38.5"/>
<text text-anchor="middle" x="628" y="-45.5" font-family="Helvetica,sans-Serif" font-size="10.00">geometry::test_ccw</text>
</a>
</g>
</g>
<!-- Node3&#45;&gt;Node11 -->
<g id="edge10" class="edge">
<title>Node3&#45;&gt;Node11</title>
<path fill="none" stroke="midnightblue" d="M728.08,-48C713.85,-48 698.44,-48 684.12,-48"/>
<polygon fill="midnightblue" stroke="midnightblue" points="728.21,-51.5 738.21,-48 728.21,-44.5 728.21,-51.5"/>
</g>
<!-- Node5 -->
<g id="node5" class="node">
<title>Node5</title>
<g id="a_node5"><a xlink:href="structgeometry_1_1cht.html#aba1f183ba70cc4a50970ed2f127c1b6a" target="_top" xlink:title=" ">
<polygon fill="white" stroke="black" points="428,-114.5 428,-133.5 533,-133.5 533,-114.5 428,-114.5"/>
<text text-anchor="middle" x="480.5" y="-121.5" font-family="Helvetica,sans-Serif" font-size="10.00">geometry::cht::cht</text>
</a>
</g>
</g>
<!-- Node4&#45;&gt;Node5 -->
<g id="edge4" class="edge">
<title>Node4&#45;&gt;Node5</title>
<path fill="none" stroke="midnightblue" d="M580.35,-98.18C560.15,-103.46 536.85,-109.54 517.95,-114.48"/>
<polygon fill="midnightblue" stroke="midnightblue" points="581.49,-101.5 590.28,-95.59 579.72,-94.73 581.49,-101.5"/>
</g>
<!-- Node6 -->
<g id="node6" class="node">
<title>Node6</title>
<g id="a_node6"><a xlink:href="namespacegeometry.html#a27118bb54df18fa8cdda0a971ad58027" target="_top" xlink:title=" ">
<polygon fill="white" stroke="black" points="425,-76.5 425,-95.5 536,-95.5 536,-76.5 425,-76.5"/>
<text text-anchor="middle" x="480.5" y="-83.5" font-family="Helvetica,sans-Serif" font-size="10.00">geometry::test_hull</text>
</a>
</g>
</g>
<!-- Node4&#45;&gt;Node6 -->
<g id="edge5" class="edge">
<title>Node4&#45;&gt;Node6</title>
<path fill="none" stroke="midnightblue" d="M574.02,-86C561.72,-86 548.6,-86 536.23,-86"/>
<polygon fill="midnightblue" stroke="midnightblue" points="574.13,-89.5 584.13,-86 574.13,-82.5 574.13,-89.5"/>
</g>
<!-- Node7 -->
<g id="node7" class="node">
<title>Node7</title>
<g id="a_node7"><a xlink:href="namespacegeometry.html#aad3419586eb6065d81469c30417d5530" target="_top" xlink:title=" ">
<polygon fill="white" stroke="black" points="249,-38.5 249,-57.5 389,-57.5 389,-38.5 249,-38.5"/>
<text text-anchor="middle" x="319" y="-45.5" font-family="Helvetica,sans-Serif" font-size="10.00">geometry::test_geometry</text>
</a>
</g>
</g>
<!-- Node6&#45;&gt;Node7 -->
<g id="edge6" class="edge">
<title>Node6&#45;&gt;Node7</title>
<path fill="none" stroke="midnightblue" d="M429.27,-74.03C406.91,-68.71 380.96,-62.52 359.96,-57.52"/>
<polygon fill="midnightblue" stroke="midnightblue" points="428.71,-77.5 439.25,-76.41 430.33,-70.69 428.71,-77.5"/>
</g>
<!-- Node8 -->
<g id="node8" class="node">
<title>Node8</title>
<g id="a_node8"><a xlink:href="test_8cpp.html#aa1c715cac916839a95e25b65b4071c4a" target="_top" xlink:title=" ">
<polygon fill="white" stroke="black" points="160,-38.5 160,-57.5 213,-57.5 213,-38.5 160,-38.5"/>
<text text-anchor="middle" x="186.5" y="-45.5" font-family="Helvetica,sans-Serif" font-size="10.00">test_all</text>
</a>
</g>
</g>
<!-- Node7&#45;&gt;Node8 -->
<g id="edge7" class="edge">
<title>Node7&#45;&gt;Node8</title>
<path fill="none" stroke="midnightblue" d="M238.78,-48C229.53,-48 220.67,-48 213,-48"/>
<polygon fill="midnightblue" stroke="midnightblue" points="238.93,-51.5 248.93,-48 238.93,-44.5 238.93,-51.5"/>
</g>
<!-- Node9 -->
<g id="node9" class="node">
<title>Node9</title>
<g id="a_node9"><a xlink:href="test_8cpp.html#af095a232149097b5605064623a9345ac" target="_top" xlink:title=" ">
<polygon fill="white" stroke="black" points="77,-38.5 77,-57.5 124,-57.5 124,-38.5 77,-38.5"/>
<text text-anchor="middle" x="100.5" y="-45.5" font-family="Helvetica,sans-Serif" font-size="10.00">main2</text>
</a>
</g>
</g>
<!-- Node8&#45;&gt;Node9 -->
<g id="edge8" class="edge">
<title>Node8&#45;&gt;Node9</title>
<path fill="none" stroke="midnightblue" d="M149.59,-48C140.96,-48 131.99,-48 124.16,-48"/>
<polygon fill="midnightblue" stroke="midnightblue" points="149.84,-51.5 159.84,-48 149.84,-44.5 149.84,-51.5"/>
</g>
<!-- Node10 -->
<g id="node10" class="node">
<title>Node10</title>
<g id="a_node10"><a xlink:href="main_8hpp.html#a0ddf1224851353fc92bfbff6f499fa97" target="_top" xlink:title=" ">
<polygon fill="white" stroke="black" points="0,-38.5 0,-57.5 41,-57.5 41,-38.5 0,-38.5"/>
<text text-anchor="middle" x="20.5" y="-45.5" font-family="Helvetica,sans-Serif" font-size="10.00">main</text>
</a>
</g>
</g>
<!-- Node9&#45;&gt;Node10 -->
<g id="edge9" class="edge">
<title>Node9&#45;&gt;Node10</title>
<path fill="none" stroke="midnightblue" d="M66.66,-48C57.96,-48 48.84,-48 41.1,-48"/>
<polygon fill="midnightblue" stroke="midnightblue" points="66.94,-51.5 76.94,-48 66.94,-44.5 66.94,-51.5"/>
</g>
<!-- Node11&#45;&gt;Node7 -->
<g id="edge11" class="edge">
<title>Node11&#45;&gt;Node7</title>
<path fill="none" stroke="midnightblue" d="M561.56,-48C510.82,-48 440.69,-48 389.05,-48"/>
<polygon fill="midnightblue" stroke="midnightblue" points="561.76,-51.5 571.76,-48 561.76,-44.5 561.76,-51.5"/>
</g>
<!-- Node12&#45;&gt;Node7 -->
<g id="edge13" class="edge">
<title>Node12&#45;&gt;Node7</title>
<path fill="none" stroke="midnightblue" d="M709.64,-15.92C622.19,-23.12 475.57,-35.19 389.3,-42.29"/>
<polygon fill="midnightblue" stroke="midnightblue" points="710.06,-19.39 719.74,-15.09 709.49,-12.42 710.06,-19.39"/>
</g>
</g>
</svg>
