<?xml version="1.0" encoding="UTF-8" standalone="no"?>
<!DOCTYPE svg PUBLIC "-//W3C//DTD SVG 1.1//EN"
 "http://www.w3.org/Graphics/SVG/1.1/DTD/svg11.dtd">
<!-- Generated by graphviz version 2.43.0 (0)
 -->
<!-- Title: graph_theory::bipartite::color2 Pages: 1 -->
<svg width="1025pt" height="88pt"
 viewBox="0.00 0.00 1025.00 88.00" xmlns="http://www.w3.org/2000/svg" xmlns:xlink="http://www.w3.org/1999/xlink">
<g id="graph0" class="graph" transform="scale(1 1) rotate(0) translate(4 84)">
<title>graph_theory::bipartite::color2</title>
<polygon fill="white" stroke="transparent" points="-4,4 -4,-84 1021,-84 1021,4 -4,4"/>
<!-- Node1 -->
<g id="node1" class="node">
<title>Node1</title>
<g id="a_node1"><a xlink:title=" ">
<polygon fill="#bfbfbf" stroke="black" points="889,-24.5 889,-54.5 1017,-54.5 1017,-24.5 889,-24.5"/>
<text text-anchor="start" x="897" y="-42.5" font-family="Helvetica,sans-Serif" font-size="10.00">graph_theory::bipartite</text>
<text text-anchor="middle" x="953" y="-31.5" font-family="Helvetica,sans-Serif" font-size="10.00">::color2</text>
</a>
</g>
</g>
<!-- Node2 -->
<g id="node2" class="node">
<title>Node2</title>
<g id="a_node2"><a xlink:href="namespacegraph__theory_1_1bipartite.html#a58be81901a34562c817737007ac90ee4" target="_top" xlink:title=" ">
<polygon fill="white" stroke="black" points="725,-47.5 725,-77.5 853,-77.5 853,-47.5 725,-47.5"/>
<text text-anchor="start" x="733" y="-65.5" font-family="Helvetica,sans-Serif" font-size="10.00">graph_theory::bipartite</text>
<text text-anchor="middle" x="789" y="-54.5" font-family="Helvetica,sans-Serif" font-size="10.00">::max_match</text>
</a>
</g>
</g>
<!-- Node1&#45;&gt;Node2 -->
<g id="edge1" class="edge">
<title>Node1&#45;&gt;Node2</title>
<path fill="none" stroke="midnightblue" d="M878.91,-49.88C870.32,-51.1 861.62,-52.33 853.19,-53.53"/>
<polygon fill="midnightblue" stroke="midnightblue" points="879.49,-53.33 888.9,-48.46 878.51,-46.4 879.49,-53.33"/>
</g>
<!-- Node9 -->
<g id="node9" class="node">
<title>Node9</title>
<g id="a_node9"><a xlink:href="namespacegraph__theory_1_1bipartite_1_1test.html#a7e5ad591c1ee6db41745438d98b39825" target="_top" xlink:title=" ">
<polygon fill="white" stroke="black" points="560.5,-0.5 560.5,-30.5 688.5,-30.5 688.5,-0.5 560.5,-0.5"/>
<text text-anchor="start" x="568.5" y="-18.5" font-family="Helvetica,sans-Serif" font-size="10.00">graph_theory::bipartite</text>
<text text-anchor="middle" x="624.5" y="-7.5" font-family="Helvetica,sans-Serif" font-size="10.00">::test::test_color2</text>
</a>
</g>
</g>
<!-- Node1&#45;&gt;Node9 -->
<g id="edge8" class="edge">
<title>Node1&#45;&gt;Node9</title>
<path fill="none" stroke="midnightblue" d="M878.61,-34.11C821.48,-29.91 743.02,-24.14 688.66,-20.14"/>
<polygon fill="midnightblue" stroke="midnightblue" points="878.43,-37.6 888.66,-34.84 878.94,-30.62 878.43,-37.6"/>
</g>
<!-- Node3 -->
<g id="node3" class="node">
<title>Node3</title>
<g id="a_node3"><a xlink:href="namespacegraph__theory_1_1bipartite_1_1test.html#af862fd7b59fb6a9e0a396a5bd8801c3e" target="_top" xlink:title=" ">
<polygon fill="white" stroke="black" points="560,-49.5 560,-79.5 689,-79.5 689,-49.5 560,-49.5"/>
<text text-anchor="start" x="568" y="-67.5" font-family="Helvetica,sans-Serif" font-size="10.00">graph_theory::bipartite</text>
<text text-anchor="middle" x="624.5" y="-56.5" font-family="Helvetica,sans-Serif" font-size="10.00">::test::test_max_match</text>
</a>
</g>
</g>
<!-- Node2&#45;&gt;Node3 -->
<g id="edge2" class="edge">
<title>Node2&#45;&gt;Node3</title>
<path fill="none" stroke="midnightblue" d="M714.48,-63.4C706.03,-63.51 697.46,-63.61 689.15,-63.72"/>
<polygon fill="midnightblue" stroke="midnightblue" points="714.75,-66.9 724.71,-63.28 714.67,-59.9 714.75,-66.9"/>
</g>
<!-- Node4 -->
<g id="node4" class="node">
<title>Node4</title>
<g id="a_node4"><a xlink:href="namespacegraph__theory_1_1bipartite_1_1test.html#aab2e93dd92c799618ead37ec7b1d93b9" target="_top" xlink:title=" ">
<polygon fill="white" stroke="black" points="396,-24.5 396,-54.5 524,-54.5 524,-24.5 396,-24.5"/>
<text text-anchor="start" x="404" y="-42.5" font-family="Helvetica,sans-Serif" font-size="10.00">graph_theory::bipartite</text>
<text text-anchor="middle" x="460" y="-31.5" font-family="Helvetica,sans-Serif" font-size="10.00">::test::test_bipartite</text>
</a>
</g>
</g>
<!-- Node3&#45;&gt;Node4 -->
<g id="edge3" class="edge">
<title>Node3&#45;&gt;Node4</title>
<path fill="none" stroke="midnightblue" d="M549.74,-53.15C541.16,-51.83 532.46,-50.49 524.04,-49.2"/>
<polygon fill="midnightblue" stroke="midnightblue" points="549.33,-56.63 559.74,-54.69 550.39,-49.71 549.33,-56.63"/>
</g>
<!-- Node5 -->
<g id="node5" class="node">
<title>Node5</title>
<g id="a_node5"><a xlink:href="namespacegraph__theory_1_1test.html#a147e0cf4f86928e4e422c6b9198a2371" target="_top" xlink:title=" ">
<polygon fill="white" stroke="black" points="249,-24.5 249,-54.5 360,-54.5 360,-24.5 249,-24.5"/>
<text text-anchor="start" x="257" y="-42.5" font-family="Helvetica,sans-Serif" font-size="10.00">graph_theory::test</text>
<text text-anchor="middle" x="304.5" y="-31.5" font-family="Helvetica,sans-Serif" font-size="10.00">::test_graph_theory</text>
</a>
</g>
</g>
<!-- Node4&#45;&gt;Node5 -->
<g id="edge4" class="edge">
<title>Node4&#45;&gt;Node5</title>
<path fill="none" stroke="midnightblue" d="M385.43,-39.5C376.98,-39.5 368.48,-39.5 360.34,-39.5"/>
<polygon fill="midnightblue" stroke="midnightblue" points="385.68,-43 395.68,-39.5 385.68,-36 385.68,-43"/>
</g>
<!-- Node6 -->
<g id="node6" class="node">
<title>Node6</title>
<g id="a_node6"><a xlink:href="test_8cpp.html#aa1c715cac916839a95e25b65b4071c4a" target="_top" xlink:title=" ">
<polygon fill="white" stroke="black" points="160,-30 160,-49 213,-49 213,-30 160,-30"/>
<text text-anchor="middle" x="186.5" y="-37" font-family="Helvetica,sans-Serif" font-size="10.00">test_all</text>
</a>
</g>
</g>
<!-- Node5&#45;&gt;Node6 -->
<g id="edge5" class="edge">
<title>Node5&#45;&gt;Node6</title>
<path fill="none" stroke="midnightblue" d="M238.68,-39.5C229.67,-39.5 220.88,-39.5 213.2,-39.5"/>
<polygon fill="midnightblue" stroke="midnightblue" points="238.9,-43 248.9,-39.5 238.9,-36 238.9,-43"/>
</g>
<!-- Node7 -->
<g id="node7" class="node">
<title>Node7</title>
<g id="a_node7"><a xlink:href="test_8cpp.html#af095a232149097b5605064623a9345ac" target="_top" xlink:title=" ">
<polygon fill="white" stroke="black" points="77,-30 77,-49 124,-49 124,-30 77,-30"/>
<text text-anchor="middle" x="100.5" y="-37" font-family="Helvetica,sans-Serif" font-size="10.00">main2</text>
</a>
</g>
</g>
<!-- Node6&#45;&gt;Node7 -->
<g id="edge6" class="edge">
<title>Node6&#45;&gt;Node7</title>
<path fill="none" stroke="midnightblue" d="M149.59,-39.5C140.96,-39.5 131.99,-39.5 124.16,-39.5"/>
<polygon fill="midnightblue" stroke="midnightblue" points="149.84,-43 159.84,-39.5 149.84,-36 149.84,-43"/>
</g>
<!-- Node8 -->
<g id="node8" class="node">
<title>Node8</title>
<g id="a_node8"><a xlink:href="main_8hpp.html#a0ddf1224851353fc92bfbff6f499fa97" target="_top" xlink:title=" ">
<polygon fill="white" stroke="black" points="0,-30 0,-49 41,-49 41,-30 0,-30"/>
<text text-anchor="middle" x="20.5" y="-37" font-family="Helvetica,sans-Serif" font-size="10.00">main</text>
</a>
</g>
</g>
<!-- Node7&#45;&gt;Node8 -->
<g id="edge7" class="edge">
<title>Node7&#45;&gt;Node8</title>
<path fill="none" stroke="midnightblue" d="M66.66,-39.5C57.96,-39.5 48.84,-39.5 41.1,-39.5"/>
<polygon fill="midnightblue" stroke="midnightblue" points="66.94,-43 76.94,-39.5 66.94,-36 66.94,-43"/>
</g>
<!-- Node9&#45;&gt;Node4 -->
<g id="edge9" class="edge">
<title>Node9&#45;&gt;Node4</title>
<path fill="none" stroke="midnightblue" d="M550.1,-26.34C541.43,-27.62 532.63,-28.92 524.12,-30.18"/>
<polygon fill="midnightblue" stroke="midnightblue" points="550.83,-29.77 560.21,-24.85 549.8,-22.85 550.83,-29.77"/>
</g>
</g>
</svg>
