<?xml version="1.0" encoding="UTF-8" standalone="no"?>
<!DOCTYPE svg PUBLIC "-//W3C//DTD SVG 1.1//EN"
 "http://www.w3.org/Graphics/SVG/1.1/DTD/svg11.dtd">
<!-- Generated by graphviz version 2.43.0 (0)
 -->
<!-- Title: graph_theory::trans Pages: 1 -->
<svg width="799pt" height="122pt"
 viewBox="0.00 0.00 799.00 121.50" xmlns="http://www.w3.org/2000/svg" xmlns:xlink="http://www.w3.org/1999/xlink">
<g id="graph0" class="graph" transform="scale(1 1) rotate(0) translate(4 117.5)">
<title>graph_theory::trans</title>
<polygon fill="white" stroke="transparent" points="-4,4 -4,-117.5 795,-117.5 795,4 -4,4"/>
<!-- Node1 -->
<g id="node1" class="node">
<title>Node1</title>
<g id="a_node1"><a xlink:title=" ">
<polygon fill="#bfbfbf" stroke="black" points="680,-28 680,-47 791,-47 791,-28 680,-28"/>
<text text-anchor="middle" x="735.5" y="-35" font-family="Helvetica,sans-Serif" font-size="10.00">graph_theory::trans</text>
</a>
</g>
</g>
<!-- Node2 -->
<g id="node2" class="node">
<title>Node2</title>
<g id="a_node2"><a xlink:href="namespacegraph__theory.html#abf42c204d44caae5b7ea48d8261dfd9e" target="_top" xlink:title=" ">
<polygon fill="white" stroke="black" points="540.5,-50 540.5,-69 642.5,-69 642.5,-50 540.5,-50"/>
<text text-anchor="middle" x="591.5" y="-57" font-family="Helvetica,sans-Serif" font-size="10.00">graph_theory::scc</text>
</a>
</g>
</g>
<!-- Node1&#45;&gt;Node2 -->
<g id="edge1" class="edge">
<title>Node1&#45;&gt;Node2</title>
<path fill="none" stroke="midnightblue" d="M669.49,-47.57C660.47,-48.97 651.31,-50.39 642.61,-51.74"/>
<polygon fill="midnightblue" stroke="midnightblue" points="670.25,-51 679.6,-46.01 669.18,-44.08 670.25,-51"/>
</g>
<!-- Node10 -->
<g id="node10" class="node">
<title>Node10</title>
<g id="a_node10"><a xlink:href="namespacegraph__theory_1_1test.html#a39d1cd9f78ffe067260878347c9e178d" target="_top" xlink:title=" ">
<polygon fill="white" stroke="black" points="539,-0.5 539,-30.5 644,-30.5 644,-0.5 539,-0.5"/>
<text text-anchor="start" x="547" y="-18.5" font-family="Helvetica,sans-Serif" font-size="10.00">graph_theory::test</text>
<text text-anchor="middle" x="591.5" y="-7.5" font-family="Helvetica,sans-Serif" font-size="10.00">::test_trans</text>
</a>
</g>
</g>
<!-- Node1&#45;&gt;Node10 -->
<g id="edge10" class="edge">
<title>Node1&#45;&gt;Node10</title>
<path fill="none" stroke="midnightblue" d="M669.46,-27.42C661.08,-26.13 652.59,-24.81 644.46,-23.55"/>
<polygon fill="midnightblue" stroke="midnightblue" points="669.18,-30.92 679.6,-28.99 670.25,-24 669.18,-30.92"/>
</g>
<!-- Node3 -->
<g id="node3" class="node">
<title>Node3</title>
<g id="a_node3"><a xlink:href="namespacesat2.html#a7c5b410fc1eefa671c8e9531c2e29cec" target="_top" xlink:title=" ">
<polygon fill="white" stroke="black" points="418,-94 418,-113 483,-113 483,-94 418,-94"/>
<text text-anchor="middle" x="450.5" y="-101" font-family="Helvetica,sans-Serif" font-size="10.00">sat2::sat2</text>
</a>
</g>
</g>
<!-- Node2&#45;&gt;Node3 -->
<g id="edge2" class="edge">
<title>Node2&#45;&gt;Node3</title>
<path fill="none" stroke="midnightblue" d="M550.62,-72.12C528.65,-79.08 501.81,-87.58 481.6,-93.97"/>
<polygon fill="midnightblue" stroke="midnightblue" points="551.86,-75.4 560.34,-69.05 549.75,-68.73 551.86,-75.4"/>
</g>
<!-- Node8 -->
<g id="node8" class="node">
<title>Node8</title>
<g id="a_node8"><a xlink:href="namespacegraph__theory_1_1test.html#a12ae68923e728fc307296eb6e6a56466" target="_top" xlink:title=" ">
<polygon fill="white" stroke="black" points="398,-44.5 398,-74.5 503,-74.5 503,-44.5 398,-44.5"/>
<text text-anchor="start" x="406" y="-62.5" font-family="Helvetica,sans-Serif" font-size="10.00">graph_theory::test</text>
<text text-anchor="middle" x="450.5" y="-51.5" font-family="Helvetica,sans-Serif" font-size="10.00">::test_scc</text>
</a>
</g>
</g>
<!-- Node2&#45;&gt;Node8 -->
<g id="edge7" class="edge">
<title>Node2&#45;&gt;Node8</title>
<path fill="none" stroke="midnightblue" d="M530.21,-59.5C521.15,-59.5 511.87,-59.5 503.01,-59.5"/>
<polygon fill="midnightblue" stroke="midnightblue" points="530.32,-63 540.32,-59.5 530.32,-56 530.32,-63"/>
</g>
<!-- Node4 -->
<g id="node4" class="node">
<title>Node4</title>
<g id="a_node4"><a xlink:href="namespacesat2_1_1test.html#a39c93d63732b7216ede171b3589de7f2" target="_top" xlink:title=" ">
<polygon fill="white" stroke="black" points="249,-94 249,-113 362,-113 362,-94 249,-94"/>
<text text-anchor="middle" x="305.5" y="-101" font-family="Helvetica,sans-Serif" font-size="10.00">sat2::test::test_sat2</text>
</a>
</g>
</g>
<!-- Node3&#45;&gt;Node4 -->
<g id="edge3" class="edge">
<title>Node3&#45;&gt;Node4</title>
<path fill="none" stroke="midnightblue" d="M407.74,-103.5C393.46,-103.5 377.25,-103.5 362.05,-103.5"/>
<polygon fill="midnightblue" stroke="midnightblue" points="407.76,-107 417.76,-103.5 407.76,-100 407.76,-107"/>
</g>
<!-- Node5 -->
<g id="node5" class="node">
<title>Node5</title>
<g id="a_node5"><a xlink:href="test_8cpp.html#aa1c715cac916839a95e25b65b4071c4a" target="_top" xlink:title=" ">
<polygon fill="white" stroke="black" points="160,-72 160,-91 213,-91 213,-72 160,-72"/>
<text text-anchor="middle" x="186.5" y="-79" font-family="Helvetica,sans-Serif" font-size="10.00">test_all</text>
</a>
</g>
</g>
<!-- Node4&#45;&gt;Node5 -->
<g id="edge4" class="edge">
<title>Node4&#45;&gt;Node5</title>
<path fill="none" stroke="midnightblue" d="M243.9,-92.11C233.04,-90.06 222.27,-88.04 213.11,-86.31"/>
<polygon fill="midnightblue" stroke="midnightblue" points="243.39,-95.57 253.86,-93.98 244.68,-88.69 243.39,-95.57"/>
</g>
<!-- Node6 -->
<g id="node6" class="node">
<title>Node6</title>
<g id="a_node6"><a xlink:href="test_8cpp.html#af095a232149097b5605064623a9345ac" target="_top" xlink:title=" ">
<polygon fill="white" stroke="black" points="77,-72 77,-91 124,-91 124,-72 77,-72"/>
<text text-anchor="middle" x="100.5" y="-79" font-family="Helvetica,sans-Serif" font-size="10.00">main2</text>
</a>
</g>
</g>
<!-- Node5&#45;&gt;Node6 -->
<g id="edge5" class="edge">
<title>Node5&#45;&gt;Node6</title>
<path fill="none" stroke="midnightblue" d="M149.59,-81.5C140.96,-81.5 131.99,-81.5 124.16,-81.5"/>
<polygon fill="midnightblue" stroke="midnightblue" points="149.84,-85 159.84,-81.5 149.84,-78 149.84,-85"/>
</g>
<!-- Node7 -->
<g id="node7" class="node">
<title>Node7</title>
<g id="a_node7"><a xlink:href="main_8hpp.html#a0ddf1224851353fc92bfbff6f499fa97" target="_top" xlink:title=" ">
<polygon fill="white" stroke="black" points="0,-72 0,-91 41,-91 41,-72 0,-72"/>
<text text-anchor="middle" x="20.5" y="-79" font-family="Helvetica,sans-Serif" font-size="10.00">main</text>
</a>
</g>
</g>
<!-- Node6&#45;&gt;Node7 -->
<g id="edge6" class="edge">
<title>Node6&#45;&gt;Node7</title>
<path fill="none" stroke="midnightblue" d="M66.66,-81.5C57.96,-81.5 48.84,-81.5 41.1,-81.5"/>
<polygon fill="midnightblue" stroke="midnightblue" points="66.94,-85 76.94,-81.5 66.94,-78 66.94,-85"/>
</g>
<!-- Node9 -->
<g id="node9" class="node">
<title>Node9</title>
<g id="a_node9"><a xlink:href="namespacegraph__theory_1_1test.html#a147e0cf4f86928e4e422c6b9198a2371" target="_top" xlink:title=" ">
<polygon fill="white" stroke="black" points="250,-44.5 250,-74.5 361,-74.5 361,-44.5 250,-44.5"/>
<text text-anchor="start" x="258" y="-62.5" font-family="Helvetica,sans-Serif" font-size="10.00">graph_theory::test</text>
<text text-anchor="middle" x="305.5" y="-51.5" font-family="Helvetica,sans-Serif" font-size="10.00">::test_graph_theory</text>
</a>
</g>
</g>
<!-- Node8&#45;&gt;Node9 -->
<g id="edge8" class="edge">
<title>Node8&#45;&gt;Node9</title>
<path fill="none" stroke="midnightblue" d="M387.73,-59.5C378.98,-59.5 370.04,-59.5 361.43,-59.5"/>
<polygon fill="midnightblue" stroke="midnightblue" points="387.87,-63 397.87,-59.5 387.87,-56 387.87,-63"/>
</g>
<!-- Node9&#45;&gt;Node5 -->
<g id="edge9" class="edge">
<title>Node9&#45;&gt;Node5</title>
<path fill="none" stroke="midnightblue" d="M239.92,-71.64C230.5,-73.41 221.29,-75.15 213.29,-76.65"/>
<polygon fill="midnightblue" stroke="midnightblue" points="240.59,-75.08 249.77,-69.79 239.29,-68.2 240.59,-75.08"/>
</g>
<!-- Node10&#45;&gt;Node9 -->
<g id="edge11" class="edge">
<title>Node10&#45;&gt;Node9</title>
<path fill="none" stroke="midnightblue" d="M528.33,-18.97C490.44,-21.75 441.17,-26.53 398,-34.5 384.07,-37.07 369.18,-40.74 355.54,-44.47"/>
<polygon fill="midnightblue" stroke="midnightblue" points="528.97,-22.44 538.7,-18.24 528.47,-15.45 528.97,-22.44"/>
</g>
</g>
</svg>
