<?xml version="1.0" encoding="UTF-8" standalone="no"?>
<!DOCTYPE svg PUBLIC "-//W3C//DTD SVG 1.1//EN"
 "http://www.w3.org/Graphics/SVG/1.1/DTD/svg11.dtd">
<!-- Generated by graphviz version 2.43.0 (0)
 -->
<!-- Title: utility::ssize Pages: 1 -->
<svg width="262pt" height="165pt"
 viewBox="0.00 0.00 262.00 164.50" xmlns="http://www.w3.org/2000/svg" xmlns:xlink="http://www.w3.org/1999/xlink">
<g id="graph0" class="graph" transform="scale(1 1) rotate(0) translate(4 160.5)">
<title>utility::ssize</title>
<polygon fill="white" stroke="transparent" points="-4,4 -4,-160.5 258,-160.5 258,4 -4,4"/>
<!-- Node1 -->
<g id="node1" class="node">
<title>Node1</title>
<g id="a_node1"><a xlink:title=" ">
<polygon fill="#bfbfbf" stroke="black" points="179,-77 179,-96 254,-96 254,-77 179,-77"/>
<text text-anchor="middle" x="216.5" y="-84" font-family="Helvetica,sans-Serif" font-size="10.00">utility::ssize</text>
</a>
</g>
</g>
<!-- Node2 -->
<g id="node2" class="node">
<title>Node2</title>
<g id="a_node2"><a xlink:href="namespacepermutation.html#a4c6e81c9c25d20631e5b1a63edeedb74" target="_top" xlink:title=" ">
<polygon fill="white" stroke="black" points="11.5,-137 11.5,-156 131.5,-156 131.5,-137 11.5,-137"/>
<text text-anchor="middle" x="71.5" y="-144" font-family="Helvetica,sans-Serif" font-size="10.00">permutation::identity</text>
</a>
</g>
</g>
<!-- Node1&#45;&gt;Node2 -->
<g id="edge1" class="edge">
<title>Node1&#45;&gt;Node2</title>
<path fill="none" stroke="midnightblue" d="M192.22,-101.66C178.36,-110.17 160.18,-120.46 143,-127.5 134.09,-131.15 124.25,-134.31 114.83,-136.95"/>
<polygon fill="midnightblue" stroke="midnightblue" points="194.44,-104.4 201.05,-96.12 190.72,-98.47 194.44,-104.4"/>
</g>
<!-- Node3 -->
<g id="node3" class="node">
<title>Node3</title>
<g id="a_node3"><a xlink:href="structbigint_1_1bigint.html#a1589b9707458aa79ca2a2928b9f0e865" target="_top" xlink:title=" ">
<polygon fill="white" stroke="black" points="5,-99 5,-118 138,-118 138,-99 5,-99"/>
<text text-anchor="middle" x="71.5" y="-106" font-family="Helvetica,sans-Serif" font-size="10.00">bigint::bigint::operator[]</text>
</a>
</g>
</g>
<!-- Node1&#45;&gt;Node3 -->
<g id="edge2" class="edge">
<title>Node1&#45;&gt;Node3</title>
<path fill="none" stroke="midnightblue" d="M168.53,-93.73C157.63,-95.4 145.87,-97.21 134.44,-98.97"/>
<polygon fill="midnightblue" stroke="midnightblue" points="169.32,-97.15 178.67,-92.17 168.26,-90.23 169.32,-97.15"/>
</g>
<!-- Node4 -->
<g id="node4" class="node">
<title>Node4</title>
<g id="a_node4"><a xlink:href="classpermutation_1_1Permutation.html#a0b7480d74a8c5d9db8da2151638b4048" target="_top" xlink:title=" ">
<polygon fill="white" stroke="black" points="0,-49.5 0,-79.5 143,-79.5 143,-49.5 0,-49.5"/>
<text text-anchor="start" x="8" y="-67.5" font-family="Helvetica,sans-Serif" font-size="10.00">permutation::Permutation</text>
<text text-anchor="middle" x="71.5" y="-56.5" font-family="Helvetica,sans-Serif" font-size="10.00">::Permutation</text>
</a>
</g>
</g>
<!-- Node1&#45;&gt;Node4 -->
<g id="edge3" class="edge">
<title>Node1&#45;&gt;Node4</title>
<path fill="none" stroke="midnightblue" d="M168.61,-79.29C160.42,-78.03 151.75,-76.69 143.09,-75.36"/>
<polygon fill="midnightblue" stroke="midnightblue" points="168.26,-82.77 178.67,-80.83 169.32,-75.85 168.26,-82.77"/>
</g>
<!-- Node5 -->
<g id="node5" class="node">
<title>Node5</title>
<g id="a_node5"><a xlink:href="classsparse__table_1_1SparseTable.html#a625a4d7a54800fdde78057a1fcc670db" target="_top" xlink:title=" ">
<polygon fill="white" stroke="black" points="0,-0.5 0,-30.5 143,-30.5 143,-0.5 0,-0.5"/>
<text text-anchor="start" x="8" y="-18.5" font-family="Helvetica,sans-Serif" font-size="10.00">sparse_table::SparseTable</text>
<text text-anchor="middle" x="71.5" y="-7.5" font-family="Helvetica,sans-Serif" font-size="10.00">::SparseTable</text>
</a>
</g>
</g>
<!-- Node1&#45;&gt;Node5 -->
<g id="edge4" class="edge">
<title>Node1&#45;&gt;Node5</title>
<path fill="none" stroke="midnightblue" d="M193.94,-71.01C179.9,-61.38 160.92,-49.22 143,-40.5 135.64,-36.92 127.64,-33.59 119.75,-30.6"/>
<polygon fill="midnightblue" stroke="midnightblue" points="192.19,-74.06 202.4,-76.91 196.2,-68.32 192.19,-74.06"/>
</g>
</g>
</svg>
