<?xml version="1.0" encoding="UTF-8" standalone="no"?>
<!DOCTYPE svg PUBLIC "-//W3C//DTD SVG 1.1//EN"
 "http://www.w3.org/Graphics/SVG/1.1/DTD/svg11.dtd">
<!-- Generated by graphviz version 2.43.0 (0)
 -->
<!-- Title: queue_tools::test_queue Pages: 1 -->
<!--zoomable 440 -->
<svg id="main" version="1.1" xmlns="http://www.w3.org/2000/svg" xmlns:xlink="http://www.w3.org/1999/xlink" xml:space="preserve" onload="init(evt)">
<style type="text/css"><![CDATA[
.edge:hover path { stroke: red; }
.edge:hover polygon { stroke: red; fill: red; }
]]></style>
<script type="text/javascript"><![CDATA[
var edges = document.getElementsByTagName('g');
if (edges && edges.length) {
  for (var i=0;i<edges.length;i++) {
    if (edges[i].id.substr(0,4)=='edge') {
      edges[i].setAttribute('class','edge');
    }
  }
}
]]></script>
        <defs>
                <circle id="rim" cx="0" cy="0" r="7"/>
                <circle id="rim2" cx="0" cy="0" r="3.5"/>
                <g id="zoomPlus">
                        <use xlink:href="#rim" fill="#404040">
                                <set attributeName="fill" to="#808080" begin="zoomplus.mouseover" end="zoomplus.mouseout"/>
                        </use>
                        <path d="M-4,0h8M0,-4v8" fill="none" stroke="white" stroke-width="1.5" pointer-events="none"/>
                </g>
                <g id="zoomMin">
                        <use xlink:href="#rim" fill="#404040">
                                <set attributeName="fill" to="#808080" begin="zoomminus.mouseover" end="zoomminus.mouseout"/>
                        </use>
                        <path d="M-4,0h8" fill="none" stroke="white" stroke-width="1.5" pointer-events="none"/>
                </g>
                <g id="dirArrow">
                        <path fill="none" stroke="white" stroke-width="1.5" d="M0,-3.0v7 M-2.5,-0.5L0,-3.0L2.5,-0.5"/>
                </g>
               <g id="resetDef">
                       <use xlink:href="#rim2" fill="#404040">
                               <set attributeName="fill" to="#808080" begin="reset.mouseover" end="reset.mouseout"/>
                       </use>
               </g>
        </defs>

<script type="text/javascript">
var viewWidth = 743;
var viewHeight = 440;
var sectionId = 'dynsection-4';
</script>
<script xlink:href="svgpan.js"/>
<svg id="graph" class="graph">
<g id="viewport">
<title>queue_tools::test_queue</title>
<polygon fill="white" stroke="transparent" points="-4,4 -4,-435.5 739,-435.5 739,4 -4,4"/>
<!-- Node1 -->
<g id="node1" class="node">
<title>Node1</title>
<g id="a_node1"><a xlink:title=" ">
<polygon fill="#bfbfbf" stroke="black" points="0,-215.5 0,-234.5 136,-234.5 136,-215.5 0,-215.5"/>
<text text-anchor="middle" x="68" y="-222.5" font-family="Helvetica,sans-Serif" font-size="10.00">queue_tools::test_queue</text>
</a>
</g>
</g>
<!-- Node2 -->
<g id="node2" class="node">
<title>Node2</title>
<g id="a_node2"><a xlink:href="namespacequeue__tools.html#a71b737e17fb5b267fa169679d262e116" target="_top" xlink:title=" ">
<polygon fill="white" stroke="black" points="181,-313.5 181,-332.5 336,-332.5 336,-313.5 181,-313.5"/>
<text text-anchor="middle" x="258.5" y="-320.5" font-family="Helvetica,sans-Serif" font-size="10.00">queue_tools::test_minqueue</text>
</a>
</g>
</g>
<!-- Node1&#45;&gt;Node2 -->
<g id="edge1" class="edge">
<title>Node1&#45;&gt;Node2</title>
<path fill="none" stroke="midnightblue" d="M87.42,-234.58C120.64,-251.85 190.76,-288.3 229.8,-308.6"/>
<polygon fill="midnightblue" stroke="midnightblue" points="228.52,-311.88 239.01,-313.39 231.75,-305.67 228.52,-311.88"/>
</g>
<!-- Node8 -->
<g id="node8" class="node">
<title>Node8</title>
<g id="a_node8"><a xlink:href="namespacequeue__tools.html#aa529c8f80a8d1ef721ff78853f291be9" target="_top" xlink:title=" ">
<polygon fill="white" stroke="black" points="183,-44.5 183,-63.5 334,-63.5 334,-44.5 183,-44.5"/>
<text text-anchor="middle" x="258.5" y="-51.5" font-family="Helvetica,sans-Serif" font-size="10.00">queue_tools::test_minstack</text>
</a>
</g>
</g>
<!-- Node1&#45;&gt;Node8 -->
<g id="edge8" class="edge">
<title>Node1&#45;&gt;Node8</title>
<path fill="none" stroke="midnightblue" d="M79.67,-215.32C110.65,-187.22 200.8,-105.44 239.5,-70.33"/>
<polygon fill="midnightblue" stroke="midnightblue" points="241.89,-72.89 246.94,-63.58 237.18,-67.7 241.89,-72.89"/>
</g>
<!-- Node11 -->
<g id="node11" class="node">
<title>Node11</title>
<g id="a_node11"><a xlink:href="namespacequeue__tools.html#a31a61f436e43953f5fb5672c2faae31f" target="_top" xlink:title=" ">
<polygon fill="white" stroke="black" points="172,-215.5 172,-234.5 345,-234.5 345,-215.5 172,-215.5"/>
<text text-anchor="middle" x="258.5" y="-222.5" font-family="Helvetica,sans-Serif" font-size="10.00">queue_tools::test_queueadaptor</text>
</a>
</g>
</g>
<!-- Node1&#45;&gt;Node11 -->
<g id="edge11" class="edge">
<title>Node1&#45;&gt;Node11</title>
<path fill="none" stroke="midnightblue" d="M136.25,-225C144.54,-225 153.13,-225 161.73,-225"/>
<polygon fill="midnightblue" stroke="midnightblue" points="161.82,-228.5 171.82,-225 161.82,-221.5 161.82,-228.5"/>
</g>
<!-- Node3 -->
<g id="node3" class="node">
<title>Node3</title>
<g id="a_node3"><a xlink:href="classqueue__tools_1_1MinQueue.html#a73bf3796b5aadd9098a2d1cee3485739" target="_top" xlink:title=" ">
<polygon fill="white" stroke="black" points="381,-382.5 381,-401.5 537,-401.5 537,-382.5 381,-382.5"/>
<text text-anchor="middle" x="459" y="-389.5" font-family="Helvetica,sans-Serif" font-size="10.00">queue_tools::MinQueue::min</text>
</a>
</g>
</g>
<!-- Node2&#45;&gt;Node3 -->
<g id="edge2" class="edge">
<title>Node2&#45;&gt;Node3</title>
<path fill="none" stroke="midnightblue" d="M280.22,-332.63C304.12,-343.49 344.8,-361.16 381,-373 388.63,-375.5 396.78,-377.84 404.81,-379.97"/>
<polygon fill="midnightblue" stroke="midnightblue" points="403.96,-383.37 414.51,-382.46 405.7,-376.59 403.96,-383.37"/>
</g>
<!-- Node6 -->
<g id="node6" class="node">
<title>Node6</title>
<g id="a_node6"><a xlink:href="classqueue__tools_1_1QueueAdaptor.html#aab204b0f776af2b94156b69435b81df8" target="_top" xlink:title=" ">
<polygon fill="white" stroke="black" points="383,-284 383,-314 535,-314 535,-284 383,-284"/>
<text text-anchor="start" x="391" y="-302" font-family="Helvetica,sans-Serif" font-size="10.00">queue_tools::QueueAdaptor</text>
<text text-anchor="middle" x="459" y="-291" font-family="Helvetica,sans-Serif" font-size="10.00">&lt; MinStack&lt; T &gt; &gt;::pop</text>
</a>
</g>
</g>
<!-- Node2&#45;&gt;Node6 -->
<g id="edge6" class="edge">
<title>Node2&#45;&gt;Node6</title>
<path fill="none" stroke="midnightblue" d="M336.25,-313.72C348.18,-312.28 360.57,-310.78 372.68,-309.32"/>
<polygon fill="midnightblue" stroke="midnightblue" points="373.26,-312.77 382.77,-308.1 372.42,-305.82 373.26,-312.77"/>
</g>
<!-- Node7 -->
<g id="node7" class="node">
<title>Node7</title>
<g id="a_node7"><a xlink:href="classqueue__tools_1_1QueueAdaptor.html#a5857db040da0411af2957d3d44783808" target="_top" xlink:title=" ">
<polygon fill="white" stroke="black" points="383,-333 383,-363 535,-363 535,-333 383,-333"/>
<text text-anchor="start" x="391" y="-351" font-family="Helvetica,sans-Serif" font-size="10.00">queue_tools::QueueAdaptor</text>
<text text-anchor="middle" x="459" y="-340" font-family="Helvetica,sans-Serif" font-size="10.00">&lt; MinStack&lt; T &gt; &gt;::push</text>
</a>
</g>
</g>
<!-- Node2&#45;&gt;Node7 -->
<g id="edge7" class="edge">
<title>Node2&#45;&gt;Node7</title>
<path fill="none" stroke="midnightblue" d="M335.11,-332.52C347.47,-334.08 360.36,-335.7 372.93,-337.29"/>
<polygon fill="midnightblue" stroke="midnightblue" points="372.57,-340.77 382.93,-338.55 373.44,-333.82 372.57,-340.77"/>
</g>
<!-- Node3&#45;&gt;Node3 -->
<g id="edge5" class="edge">
<title>Node3&#45;&gt;Node3</title>
<path fill="none" stroke="midnightblue" d="M429.1,-401.76C414.55,-410.57 424.52,-420 459,-420 483.24,-420 495.37,-415.34 495.37,-409.5"/>
<polygon fill="midnightblue" stroke="midnightblue" points="498,-407.19 488.9,-401.76 492.63,-411.67 498,-407.19"/>
</g>
<!-- Node4 -->
<g id="node4" class="node">
<title>Node4</title>
<g id="a_node4"><a xlink:href="classqueue__tools_1_1QueueAdaptor.html#a409777bac8958f09bf99f9ca2ff64ab0" target="_top" xlink:title=" ">
<polygon fill="white" stroke="black" points="576,-401 576,-431 732,-431 732,-401 576,-401"/>
<text text-anchor="start" x="584" y="-419" font-family="Helvetica,sans-Serif" font-size="10.00">queue_tools::QueueAdaptor</text>
<text text-anchor="middle" x="654" y="-408" font-family="Helvetica,sans-Serif" font-size="10.00">&lt; MinStack&lt; T &gt; &gt;::get_left</text>
</a>
</g>
</g>
<!-- Node3&#45;&gt;Node4 -->
<g id="edge3" class="edge">
<title>Node3&#45;&gt;Node4</title>
<path fill="none" stroke="midnightblue" d="M536.56,-401.52C546.16,-402.71 556.05,-403.94 565.8,-405.16"/>
<polygon fill="midnightblue" stroke="midnightblue" points="565.55,-408.65 575.9,-406.41 566.41,-401.71 565.55,-408.65"/>
</g>
<!-- Node5 -->
<g id="node5" class="node">
<title>Node5</title>
<g id="a_node5"><a xlink:href="classqueue__tools_1_1QueueAdaptor.html#a39e37c34ea5fd27421f3f8dabe733a28" target="_top" xlink:title=" ">
<polygon fill="white" stroke="black" points="573,-352 573,-382 735,-382 735,-352 573,-352"/>
<text text-anchor="start" x="581" y="-370" font-family="Helvetica,sans-Serif" font-size="10.00">queue_tools::QueueAdaptor</text>
<text text-anchor="middle" x="654" y="-359" font-family="Helvetica,sans-Serif" font-size="10.00">&lt; MinStack&lt; T &gt; &gt;::get_right</text>
</a>
</g>
</g>
<!-- Node3&#45;&gt;Node5 -->
<g id="edge4" class="edge">
<title>Node3&#45;&gt;Node5</title>
<path fill="none" stroke="midnightblue" d="M533.52,-382.48C543.08,-381.24 552.97,-379.96 562.77,-378.69"/>
<polygon fill="midnightblue" stroke="midnightblue" points="563.47,-382.13 572.93,-377.37 562.57,-375.19 563.47,-382.13"/>
</g>
<!-- Node9 -->
<g id="node9" class="node">
<title>Node9</title>
<g id="a_node9"><a xlink:href="classqueue__tools_1_1MinStack.html#abdcf9b4a593fa77e2702ee740814ff8b" target="_top" xlink:title=" ">
<polygon fill="white" stroke="black" points="383,-0.5 383,-19.5 535,-19.5 535,-0.5 383,-0.5"/>
<text text-anchor="middle" x="459" y="-7.5" font-family="Helvetica,sans-Serif" font-size="10.00">queue_tools::MinStack::min</text>
</a>
</g>
</g>
<!-- Node8&#45;&gt;Node9 -->
<g id="edge9" class="edge">
<title>Node8&#45;&gt;Node9</title>
<path fill="none" stroke="midnightblue" d="M302.57,-44.45C332.62,-37.79 372.9,-28.86 404.93,-21.76"/>
<polygon fill="midnightblue" stroke="midnightblue" points="406.01,-25.11 415.01,-19.53 404.49,-18.28 406.01,-25.11"/>
</g>
<!-- Node10 -->
<g id="node10" class="node">
<title>Node10</title>
<g id="a_node10"><a xlink:href="classqueue__tools_1_1MinStack.html#a9d9144961b94102610066192b64b6efa" target="_top" xlink:title=" ">
<polygon fill="white" stroke="black" points="395.5,-39 395.5,-69 522.5,-69 522.5,-39 395.5,-39"/>
<text text-anchor="start" x="403.5" y="-57" font-family="Helvetica,sans-Serif" font-size="10.00">queue_tools::MinStack</text>
<text text-anchor="middle" x="459" y="-46" font-family="Helvetica,sans-Serif" font-size="10.00">::push</text>
</a>
</g>
</g>
<!-- Node8&#45;&gt;Node10 -->
<g id="edge10" class="edge">
<title>Node8&#45;&gt;Node10</title>
<path fill="none" stroke="midnightblue" d="M334.26,-54C350.92,-54 368.55,-54 385.13,-54"/>
<polygon fill="midnightblue" stroke="midnightblue" points="385.3,-57.5 395.3,-54 385.3,-50.5 385.3,-57.5"/>
</g>
<!-- Node11&#45;&gt;Node6 -->
<g id="edge15" class="edge">
<title>Node11&#45;&gt;Node6</title>
<path fill="none" stroke="midnightblue" d="M281.22,-234.62C305.36,-245.15 345.6,-262.23 381,-275 386.4,-276.95 392.05,-278.89 397.72,-280.77"/>
<polygon fill="midnightblue" stroke="midnightblue" points="396.66,-284.11 407.26,-283.88 398.83,-277.45 396.66,-284.11"/>
</g>
<!-- Node11&#45;&gt;Node7 -->
<g id="edge16" class="edge">
<title>Node11&#45;&gt;Node7</title>
<path fill="none" stroke="midnightblue" d="M268.65,-234.61C287.76,-254.14 334.02,-298.76 381,-324 384.44,-325.85 388.05,-327.58 391.74,-329.19"/>
<polygon fill="midnightblue" stroke="midnightblue" points="390.47,-332.46 401.05,-332.98 393.11,-325.97 390.47,-332.46"/>
</g>
<!-- Node12 -->
<g id="node12" class="node">
<title>Node12</title>
<g id="a_node12"><a xlink:href="classqueue__tools_1_1QueueAdaptor.html#a70c630a800a12e880917ffc2ccbd1153" target="_top" xlink:title=" ">
<polygon fill="white" stroke="black" points="383,-88 383,-118 535,-118 535,-88 383,-88"/>
<text text-anchor="start" x="391" y="-106" font-family="Helvetica,sans-Serif" font-size="10.00">queue_tools::QueueAdaptor</text>
<text text-anchor="middle" x="459" y="-95" font-family="Helvetica,sans-Serif" font-size="10.00">::back</text>
</a>
</g>
</g>
<!-- Node11&#45;&gt;Node12 -->
<g id="edge12" class="edge">
<title>Node11&#45;&gt;Node12</title>
<path fill="none" stroke="midnightblue" d="M269.01,-215.35C288.42,-196.17 334.66,-152.95 381,-128 385.01,-125.84 389.23,-123.83 393.55,-121.96"/>
<polygon fill="midnightblue" stroke="midnightblue" points="395.17,-125.09 403.13,-118.1 392.55,-118.6 395.17,-125.09"/>
</g>
<!-- Node13 -->
<g id="node13" class="node">
<title>Node13</title>
<g id="a_node13"><a xlink:href="classqueue__tools_1_1QueueAdaptor.html#a65573a420692f22b4274313469f3688b" target="_top" xlink:title=" ">
<polygon fill="white" stroke="black" points="383,-235 383,-265 535,-265 535,-235 383,-235"/>
<text text-anchor="start" x="391" y="-253" font-family="Helvetica,sans-Serif" font-size="10.00">queue_tools::QueueAdaptor</text>
<text text-anchor="middle" x="459" y="-242" font-family="Helvetica,sans-Serif" font-size="10.00">::empty</text>
</a>
</g>
</g>
<!-- Node11&#45;&gt;Node13 -->
<g id="edge13" class="edge">
<title>Node11&#45;&gt;Node13</title>
<path fill="none" stroke="midnightblue" d="M335.11,-234.52C347.47,-236.08 360.36,-237.7 372.93,-239.29"/>
<polygon fill="midnightblue" stroke="midnightblue" points="372.57,-242.77 382.93,-240.55 373.44,-235.82 372.57,-242.77"/>
</g>
<!-- Node14 -->
<g id="node14" class="node">
<title>Node14</title>
<g id="a_node14"><a xlink:href="classqueue__tools_1_1QueueAdaptor.html#a603c22db9148d592426c73e53ad88178" target="_top" xlink:title=" ">
<polygon fill="white" stroke="black" points="383,-186 383,-216 535,-216 535,-186 383,-186"/>
<text text-anchor="start" x="391" y="-204" font-family="Helvetica,sans-Serif" font-size="10.00">queue_tools::QueueAdaptor</text>
<text text-anchor="middle" x="459" y="-193" font-family="Helvetica,sans-Serif" font-size="10.00">::front</text>
</a>
</g>
</g>
<!-- Node11&#45;&gt;Node14 -->
<g id="edge14" class="edge">
<title>Node11&#45;&gt;Node14</title>
<path fill="none" stroke="midnightblue" d="M338.24,-215.48C349.62,-214.1 361.39,-212.68 372.89,-211.29"/>
<polygon fill="midnightblue" stroke="midnightblue" points="373.41,-214.75 382.92,-210.08 372.57,-207.8 373.41,-214.75"/>
</g>
<!-- Node15 -->
<g id="node15" class="node">
<title>Node15</title>
<g id="a_node15"><a xlink:href="classqueue__tools_1_1QueueAdaptor.html#adfb78c6b9828b06e9c8f29ae56b43078" target="_top" xlink:title=" ">
<polygon fill="white" stroke="black" points="383,-137 383,-167 535,-167 535,-137 383,-137"/>
<text text-anchor="start" x="391" y="-155" font-family="Helvetica,sans-Serif" font-size="10.00">queue_tools::QueueAdaptor</text>
<text text-anchor="middle" x="459" y="-144" font-family="Helvetica,sans-Serif" font-size="10.00">::size</text>
</a>
</g>
</g>
<!-- Node11&#45;&gt;Node15 -->
<g id="edge17" class="edge">
<title>Node11&#45;&gt;Node15</title>
<path fill="none" stroke="midnightblue" d="M282.63,-215.36C306.95,-205.35 346.42,-189.43 381,-177 387.31,-174.73 393.94,-172.44 400.56,-170.21"/>
<polygon fill="midnightblue" stroke="midnightblue" points="401.81,-173.49 410.2,-167.01 399.6,-166.84 401.81,-173.49"/>
</g>
</g>
</svg>
        <g id="navigator" transform="translate(0 0)" fill="#404254">
                <rect fill="#f2f5e9" fill-opacity="0.5" stroke="#606060" stroke-width=".5" x="0" y="0" width="60" height="60"/>
                <use id="zoomplus" xlink:href="#zoomPlus" x="17" y="9" onmousedown="handleZoom(evt,'in')"/>
                <use id="zoomminus" xlink:href="#zoomMin" x="42" y="9" onmousedown="handleZoom(evt,'out')"/>
                <use id="reset" xlink:href="#resetDef" x="30" y="36" onmousedown="handleReset()"/>
                <g id="arrowUp" xlink:href="#dirArrow" transform="translate(30 24)" onmousedown="handlePan(0,-1)">
                  <use xlink:href="#rim" fill="#404040">
                        <set attributeName="fill" to="#808080" begin="arrowUp.mouseover" end="arrowUp.mouseout"/>
                  </use>
                  <path fill="none" stroke="white" stroke-width="1.5" d="M0,-3.0v7 M-2.5,-0.5L0,-3.0L2.5,-0.5"/>
                </g>
                <g id="arrowRight" xlink:href="#dirArrow" transform="rotate(90) translate(36 -43)" onmousedown="handlePan(1,0)">
                  <use xlink:href="#rim" fill="#404040">
                        <set attributeName="fill" to="#808080" begin="arrowRight.mouseover" end="arrowRight.mouseout"/>
                  </use>
                  <path fill="none" stroke="white" stroke-width="1.5" d="M0,-3.0v7 M-2.5,-0.5L0,-3.0L2.5,-0.5"/>
                </g>
                <g id="arrowDown" xlink:href="#dirArrow" transform="rotate(180) translate(-30 -48)" onmousedown="handlePan(0,1)">
                  <use xlink:href="#rim" fill="#404040">
                        <set attributeName="fill" to="#808080" begin="arrowDown.mouseover" end="arrowDown.mouseout"/>
                  </use>
                  <path fill="none" stroke="white" stroke-width="1.5" d="M0,-3.0v7 M-2.5,-0.5L0,-3.0L2.5,-0.5"/>
                </g>
                <g id="arrowLeft" xlink:href="#dirArrow" transform="rotate(270) translate(-36 17)" onmousedown="handlePan(-1,0)">
                  <use xlink:href="#rim" fill="#404040">
                        <set attributeName="fill" to="#808080" begin="arrowLeft.mouseover" end="arrowLeft.mouseout"/>
                  </use>
                  <path fill="none" stroke="white" stroke-width="1.5" d="M0,-3.0v7 M-2.5,-0.5L0,-3.0L2.5,-0.5"/>
                </g>
        </g>
        <svg viewBox="0 0 15 15" width="100%" height="30px" preserveAspectRatio="xMaxYMin meet">
         <g id="arrow_out" transform="scale(0.3 0.3)">
          <a xlink:href="namespacequeue__tools_a9586d21c0545444548b7b230f4d15e94_cgraph_org.svg" target="_base">
           <rect id="button" ry="5" rx="5" y="6" x="6" height="38" width="38"
                fill="#f2f5e9" fill-opacity="0.5" stroke="#606060" stroke-width="1.0"/>
           <path id="arrow"
             d="M 11.500037,31.436501 C 11.940474,20.09759 22.043105,11.32322 32.158766,21.979434 L 37.068811,17.246167 C 37.068811,17.246167 37.088388,32 37.088388,32 L 22.160133,31.978069 C 22.160133,31.978069 26.997745,27.140456 26.997745,27.140456 C 18.528582,18.264221 13.291696,25.230495 11.500037,31.436501 z"
             style="fill:#404040;"/>
          </a>
         </g>
        </svg>
</svg>
