<?xml version="1.0" encoding="UTF-8" standalone="no"?>
<!DOCTYPE svg PUBLIC "-//W3C//DTD SVG 1.1//EN"
 "http://www.w3.org/Graphics/SVG/1.1/DTD/svg11.dtd">
<!-- Generated by graphviz version 2.43.0 (0)
 -->
<!-- Title: linear_algebra::gauss Pages: 1 -->
<svg width="698pt" height="72pt"
 viewBox="0.00 0.00 698.00 71.50" xmlns="http://www.w3.org/2000/svg" xmlns:xlink="http://www.w3.org/1999/xlink">
<g id="graph0" class="graph" transform="scale(1 1) rotate(0) translate(4 67.5)">
<title>linear_algebra::gauss</title>
<polygon fill="white" stroke="transparent" points="-4,4 -4,-67.5 694,-67.5 694,4 -4,4"/>
<!-- Node1 -->
<g id="node1" class="node">
<title>Node1</title>
<g id="a_node1"><a xlink:title=" ">
<polygon fill="#bfbfbf" stroke="black" points="569,-38.5 569,-57.5 690,-57.5 690,-38.5 569,-38.5"/>
<text text-anchor="middle" x="629.5" y="-45.5" font-family="Helvetica,sans-Serif" font-size="10.00">linear_algebra::gauss</text>
</a>
</g>
</g>
<!-- Node2 -->
<g id="node2" class="node">
<title>Node2</title>
<g id="a_node2"><a xlink:href="namespacelinear__algebra.html#ab7a7f1a8ba225710625d5af10f317b6a" target="_top" xlink:title=" ">
<polygon fill="white" stroke="black" points="410.5,-38.5 410.5,-57.5 518.5,-57.5 518.5,-38.5 410.5,-38.5"/>
<text text-anchor="middle" x="464.5" y="-45.5" font-family="Helvetica,sans-Serif" font-size="10.00">linear_algebra::det</text>
</a>
</g>
</g>
<!-- Node1&#45;&gt;Node2 -->
<g id="edge1" class="edge">
<title>Node1&#45;&gt;Node2</title>
<path fill="none" stroke="midnightblue" d="M558.58,-41.31C545.16,-41.17 531.31,-41.28 518.53,-41.63"/>
<polygon fill="midnightblue" stroke="midnightblue" points="558.68,-44.81 568.73,-41.47 558.79,-37.81 558.68,-44.81"/>
</g>
<!-- Node7 -->
<g id="node7" class="node">
<title>Node7</title>
<g id="a_node7"><a xlink:href="namespacelinear__algebra.html#abb6e46a3a7889f6b0c7824515c997889" target="_top" xlink:title=" ">
<polygon fill="white" stroke="black" points="396,-0.5 396,-19.5 533,-19.5 533,-0.5 396,-0.5"/>
<text text-anchor="middle" x="464.5" y="-7.5" font-family="Helvetica,sans-Serif" font-size="10.00">linear_algebra::operator/</text>
</a>
</g>
</g>
<!-- Node1&#45;&gt;Node7 -->
<g id="edge7" class="edge">
<title>Node1&#45;&gt;Node7</title>
<path fill="none" stroke="midnightblue" d="M577.47,-36.1C554.56,-30.76 527.9,-24.55 506.34,-19.52"/>
<polygon fill="midnightblue" stroke="midnightblue" points="576.83,-39.55 587.37,-38.41 578.42,-32.73 576.83,-39.55"/>
</g>
<!-- Node2&#45;&gt;Node1 -->
<g id="edge2" class="edge">
<title>Node2&#45;&gt;Node1</title>
<path fill="none" stroke="midnightblue" d="M528.87,-54.6C541.98,-54.82 555.75,-54.8 568.73,-54.53"/>
<polygon fill="midnightblue" stroke="midnightblue" points="528.6,-51.09 518.53,-54.37 528.45,-58.09 528.6,-51.09"/>
</g>
<!-- Node3 -->
<g id="node3" class="node">
<title>Node3</title>
<g id="a_node3"><a xlink:href="namespacelinear__algebra.html#a14b8a1cd669e604f8c4c121e723f17b6" target="_top" xlink:title=" ">
<polygon fill="white" stroke="black" points="249,-33 249,-63 360,-63 360,-33 249,-33"/>
<text text-anchor="start" x="257" y="-51" font-family="Helvetica,sans-Serif" font-size="10.00">linear_algebra::test</text>
<text text-anchor="middle" x="304.5" y="-40" font-family="Helvetica,sans-Serif" font-size="10.00">_matrix</text>
</a>
</g>
</g>
<!-- Node2&#45;&gt;Node3 -->
<g id="edge3" class="edge">
<title>Node2&#45;&gt;Node3</title>
<path fill="none" stroke="midnightblue" d="M400.38,-48C387.03,-48 373.04,-48 360.03,-48"/>
<polygon fill="midnightblue" stroke="midnightblue" points="400.45,-51.5 410.45,-48 400.45,-44.5 400.45,-51.5"/>
</g>
<!-- Node4 -->
<g id="node4" class="node">
<title>Node4</title>
<g id="a_node4"><a xlink:href="test_8cpp.html#aa1c715cac916839a95e25b65b4071c4a" target="_top" xlink:title=" ">
<polygon fill="white" stroke="black" points="160,-38.5 160,-57.5 213,-57.5 213,-38.5 160,-38.5"/>
<text text-anchor="middle" x="186.5" y="-45.5" font-family="Helvetica,sans-Serif" font-size="10.00">test_all</text>
</a>
</g>
</g>
<!-- Node3&#45;&gt;Node4 -->
<g id="edge4" class="edge">
<title>Node3&#45;&gt;Node4</title>
<path fill="none" stroke="midnightblue" d="M238.68,-48C229.67,-48 220.88,-48 213.2,-48"/>
<polygon fill="midnightblue" stroke="midnightblue" points="238.9,-51.5 248.9,-48 238.9,-44.5 238.9,-51.5"/>
</g>
<!-- Node5 -->
<g id="node5" class="node">
<title>Node5</title>
<g id="a_node5"><a xlink:href="test_8cpp.html#af095a232149097b5605064623a9345ac" target="_top" xlink:title=" ">
<polygon fill="white" stroke="black" points="77,-38.5 77,-57.5 124,-57.5 124,-38.5 77,-38.5"/>
<text text-anchor="middle" x="100.5" y="-45.5" font-family="Helvetica,sans-Serif" font-size="10.00">main2</text>
</a>
</g>
</g>
<!-- Node4&#45;&gt;Node5 -->
<g id="edge5" class="edge">
<title>Node4&#45;&gt;Node5</title>
<path fill="none" stroke="midnightblue" d="M149.59,-48C140.96,-48 131.99,-48 124.16,-48"/>
<polygon fill="midnightblue" stroke="midnightblue" points="149.84,-51.5 159.84,-48 149.84,-44.5 149.84,-51.5"/>
</g>
<!-- Node6 -->
<g id="node6" class="node">
<title>Node6</title>
<g id="a_node6"><a xlink:href="main_8hpp.html#a0ddf1224851353fc92bfbff6f499fa97" target="_top" xlink:title=" ">
<polygon fill="white" stroke="black" points="0,-38.5 0,-57.5 41,-57.5 41,-38.5 0,-38.5"/>
<text text-anchor="middle" x="20.5" y="-45.5" font-family="Helvetica,sans-Serif" font-size="10.00">main</text>
</a>
</g>
</g>
<!-- Node5&#45;&gt;Node6 -->
<g id="edge6" class="edge">
<title>Node5&#45;&gt;Node6</title>
<path fill="none" stroke="midnightblue" d="M66.66,-48C57.96,-48 48.84,-48 41.1,-48"/>
<polygon fill="midnightblue" stroke="midnightblue" points="66.94,-51.5 76.94,-48 66.94,-44.5 66.94,-51.5"/>
</g>
</g>
</svg>
