<?xml version="1.0" encoding="UTF-8" standalone="no"?>
<!DOCTYPE svg PUBLIC "-//W3C//DTD SVG 1.1//EN"
 "http://www.w3.org/Graphics/SVG/1.1/DTD/svg11.dtd">
<!-- Generated by graphviz version 2.43.0 (0)
 -->
<!-- Title: graph_theory::trans Pages: 1 -->
<svg width="854pt" height="122pt"
 viewBox="0.00 0.00 854.00 121.50" xmlns="http://www.w3.org/2000/svg" xmlns:xlink="http://www.w3.org/1999/xlink">
<g id="graph0" class="graph" transform="scale(1 1) rotate(0) translate(4 117.5)">
<title>graph_theory::trans</title>
<polygon fill="white" stroke="transparent" points="-4,4 -4,-117.5 850,-117.5 850,4 -4,4"/>
<!-- Node1 -->
<g id="node1" class="node">
<title>Node1</title>
<g id="a_node1"><a xlink:title="Returns the transpose graph of directed graph.">
<polygon fill="#bfbfbf" stroke="black" points="735,-28 735,-47 846,-47 846,-28 735,-28"/>
<text text-anchor="middle" x="790.5" y="-35" font-family="Helvetica,sans-Serif" font-size="10.00">graph_theory::trans</text>
</a>
</g>
</g>
<!-- Node2 -->
<g id="node2" class="node">
<title>Node2</title>
<g id="a_node2"><a xlink:href="namespacegraph__theory.html#afcb5da494d1b16139a1be66e66543043" target="_top" xlink:title="Returns the strongly connected component for each vertex of the graph g.">
<polygon fill="white" stroke="black" points="597,-50 597,-69 699,-69 699,-50 597,-50"/>
<text text-anchor="middle" x="648" y="-57" font-family="Helvetica,sans-Serif" font-size="10.00">graph_theory::scc</text>
</a>
</g>
</g>
<!-- Node1&#45;&gt;Node2 -->
<g id="edge1" class="edge">
<title>Node1&#45;&gt;Node2</title>
<path fill="none" stroke="midnightblue" d="M724.78,-47.63C716.2,-48.98 707.5,-50.34 699.22,-51.64"/>
<polygon fill="midnightblue" stroke="midnightblue" points="725.44,-51.07 734.78,-46.07 724.36,-44.16 725.44,-51.07"/>
</g>
<!-- Node9 -->
<g id="node9" class="node">
<title>Node9</title>
<g id="a_node9"><a xlink:href="namespacegraph__theory_1_1test.html#a39d1cd9f78ffe067260878347c9e178d" target="_top" xlink:title=" ">
<polygon fill="white" stroke="black" points="311,-0.5 311,-30.5 416,-30.5 416,-0.5 311,-0.5"/>
<text text-anchor="start" x="319" y="-18.5" font-family="Helvetica,sans-Serif" font-size="10.00">graph_theory::test</text>
<text text-anchor="middle" x="363.5" y="-7.5" font-family="Helvetica,sans-Serif" font-size="10.00">::test_trans</text>
</a>
</g>
</g>
<!-- Node1&#45;&gt;Node9 -->
<g id="edge10" class="edge">
<title>Node1&#45;&gt;Node9</title>
<path fill="none" stroke="midnightblue" d="M724.82,-34.15C640.29,-29.78 493.94,-22.2 416.32,-18.18"/>
<polygon fill="midnightblue" stroke="midnightblue" points="724.64,-37.65 734.81,-34.67 725,-30.66 724.64,-37.65"/>
</g>
<!-- Node3 -->
<g id="node3" class="node">
<title>Node3</title>
<g id="a_node3"><a xlink:href="namespacesat2.html#a7c5b410fc1eefa671c8e9531c2e29cec" target="_top" xlink:title=" ">
<polygon fill="white" stroke="black" points="476,-94 476,-113 541,-113 541,-94 476,-94"/>
<text text-anchor="middle" x="508.5" y="-101" font-family="Helvetica,sans-Serif" font-size="10.00">sat2::sat2</text>
</a>
</g>
</g>
<!-- Node2&#45;&gt;Node3 -->
<g id="edge2" class="edge">
<title>Node2&#45;&gt;Node3</title>
<path fill="none" stroke="midnightblue" d="M607.56,-72.12C585.81,-79.08 559.26,-87.58 539.28,-93.97"/>
<polygon fill="midnightblue" stroke="midnightblue" points="608.71,-75.43 617.16,-69.05 606.57,-68.76 608.71,-75.43"/>
</g>
<!-- Node8 -->
<g id="node8" class="node">
<title>Node8</title>
<g id="a_node8"><a xlink:href="namespacegraph__theory_1_1test.html#a12ae68923e728fc307296eb6e6a56466" target="_top" xlink:title=" ">
<polygon fill="white" stroke="black" points="456,-44.5 456,-74.5 561,-74.5 561,-44.5 456,-44.5"/>
<text text-anchor="start" x="464" y="-62.5" font-family="Helvetica,sans-Serif" font-size="10.00">graph_theory::test</text>
<text text-anchor="middle" x="508.5" y="-51.5" font-family="Helvetica,sans-Serif" font-size="10.00">::test_scc</text>
</a>
</g>
</g>
<!-- Node2&#45;&gt;Node8 -->
<g id="edge8" class="edge">
<title>Node2&#45;&gt;Node8</title>
<path fill="none" stroke="midnightblue" d="M586.69,-59.5C578.16,-59.5 569.45,-59.5 561.11,-59.5"/>
<polygon fill="midnightblue" stroke="midnightblue" points="586.97,-63 596.97,-59.5 586.97,-56 586.97,-63"/>
</g>
<!-- Node4 -->
<g id="node4" class="node">
<title>Node4</title>
<g id="a_node4"><a xlink:href="namespacesat2_1_1test.html#a39c93d63732b7216ede171b3589de7f2" target="_top" xlink:title=" ">
<polygon fill="white" stroke="black" points="307,-94 307,-113 420,-113 420,-94 307,-94"/>
<text text-anchor="middle" x="363.5" y="-101" font-family="Helvetica,sans-Serif" font-size="10.00">sat2::test::test_sat2</text>
</a>
</g>
</g>
<!-- Node3&#45;&gt;Node4 -->
<g id="edge3" class="edge">
<title>Node3&#45;&gt;Node4</title>
<path fill="none" stroke="midnightblue" d="M465.74,-103.5C451.46,-103.5 435.25,-103.5 420.05,-103.5"/>
<polygon fill="midnightblue" stroke="midnightblue" points="465.76,-107 475.76,-103.5 465.76,-100 465.76,-107"/>
</g>
<!-- Node5 -->
<g id="node5" class="node">
<title>Node5</title>
<g id="a_node5"><a xlink:href="test_8cpp.html#af095a232149097b5605064623a9345ac" target="_top" xlink:title=" ">
<polygon fill="white" stroke="black" points="77,-72 77,-91 124,-91 124,-72 77,-72"/>
<text text-anchor="middle" x="100.5" y="-79" font-family="Helvetica,sans-Serif" font-size="10.00">main2</text>
</a>
</g>
</g>
<!-- Node4&#45;&gt;Node5 -->
<g id="edge4" class="edge">
<title>Node4&#45;&gt;Node5</title>
<path fill="none" stroke="midnightblue" d="M296.55,-97.94C240.07,-93.18 162.03,-86.6 124.06,-83.4"/>
<polygon fill="midnightblue" stroke="midnightblue" points="296.57,-101.46 306.83,-98.81 297.16,-94.48 296.57,-101.46"/>
</g>
<!-- Node7 -->
<g id="node7" class="node">
<title>Node7</title>
<g id="a_node7"><a xlink:href="namespacegraph__theory_1_1test.html#a147e0cf4f86928e4e422c6b9198a2371" target="_top" xlink:title=" ">
<polygon fill="white" stroke="black" points="160,-44.5 160,-74.5 271,-74.5 271,-44.5 160,-44.5"/>
<text text-anchor="start" x="168" y="-62.5" font-family="Helvetica,sans-Serif" font-size="10.00">graph_theory::test</text>
<text text-anchor="middle" x="215.5" y="-51.5" font-family="Helvetica,sans-Serif" font-size="10.00">::test_graph_theory</text>
</a>
</g>
</g>
<!-- Node4&#45;&gt;Node7 -->
<g id="edge6" class="edge">
<title>Node4&#45;&gt;Node7</title>
<path fill="none" stroke="midnightblue" d="M321.17,-91.04C304.16,-85.92 284.31,-79.94 266.49,-74.57"/>
<polygon fill="midnightblue" stroke="midnightblue" points="320.24,-94.42 330.82,-93.95 322.26,-87.72 320.24,-94.42"/>
</g>
<!-- Node6 -->
<g id="node6" class="node">
<title>Node6</title>
<g id="a_node6"><a xlink:href="main_8hpp.html#a0ddf1224851353fc92bfbff6f499fa97" target="_top" xlink:title=" ">
<polygon fill="white" stroke="black" points="0,-72 0,-91 41,-91 41,-72 0,-72"/>
<text text-anchor="middle" x="20.5" y="-79" font-family="Helvetica,sans-Serif" font-size="10.00">main</text>
</a>
</g>
</g>
<!-- Node5&#45;&gt;Node6 -->
<g id="edge5" class="edge">
<title>Node5&#45;&gt;Node6</title>
<path fill="none" stroke="midnightblue" d="M66.66,-81.5C57.96,-81.5 48.84,-81.5 41.1,-81.5"/>
<polygon fill="midnightblue" stroke="midnightblue" points="66.94,-85 76.94,-81.5 66.94,-78 66.94,-85"/>
</g>
<!-- Node7&#45;&gt;Node5 -->
<g id="edge7" class="edge">
<title>Node7&#45;&gt;Node5</title>
<path fill="none" stroke="midnightblue" d="M149.93,-72.07C140.73,-73.86 131.81,-75.6 124.2,-77.08"/>
<polygon fill="midnightblue" stroke="midnightblue" points="150.84,-75.46 159.99,-70.11 149.5,-68.59 150.84,-75.46"/>
</g>
<!-- Node8&#45;&gt;Node7 -->
<g id="edge9" class="edge">
<title>Node8&#45;&gt;Node7</title>
<path fill="none" stroke="midnightblue" d="M445.76,-59.5C394.01,-59.5 320.83,-59.5 271.17,-59.5"/>
<polygon fill="midnightblue" stroke="midnightblue" points="445.81,-63 455.81,-59.5 445.81,-56 445.81,-63"/>
</g>
<!-- Node9&#45;&gt;Node7 -->
<g id="edge11" class="edge">
<title>Node9&#45;&gt;Node7</title>
<path fill="none" stroke="midnightblue" d="M302.73,-33.51C290.73,-37.13 278.24,-40.89 266.61,-44.4"/>
<polygon fill="midnightblue" stroke="midnightblue" points="304.1,-36.76 312.66,-30.52 302.08,-30.05 304.1,-36.76"/>
</g>
</g>
</svg>
