<?xml version="1.0" encoding="UTF-8" standalone="no"?>
<!DOCTYPE svg PUBLIC "-//W3C//DTD SVG 1.1//EN"
 "http://www.w3.org/Graphics/SVG/1.1/DTD/svg11.dtd">
<!-- Generated by graphviz version 2.43.0 (0)
 -->
<!-- Title: modulo_namespace::invert Pages: 1 -->
<svg width="945pt" height="88pt"
 viewBox="0.00 0.00 945.00 88.00" xmlns="http://www.w3.org/2000/svg" xmlns:xlink="http://www.w3.org/1999/xlink">
<g id="graph0" class="graph" transform="scale(1 1) rotate(0) translate(4 84)">
<title>modulo_namespace::invert</title>
<polygon fill="white" stroke="transparent" points="-4,4 -4,-84 941,-84 941,4 -4,4"/>
<!-- Node1 -->
<g id="node1" class="node">
<title>Node1</title>
<g id="a_node1"><a xlink:title=" ">
<polygon fill="#bfbfbf" stroke="black" points="788,-30 788,-49 937,-49 937,-30 788,-30"/>
<text text-anchor="middle" x="862.5" y="-37" font-family="Helvetica,sans-Serif" font-size="10.00">modulo_namespace::invert</text>
</a>
</g>
</g>
<!-- Node2 -->
<g id="node2" class="node">
<title>Node2</title>
<g id="a_node2"><a xlink:href="namespacemodulo__namespace.html#a8e6fc91a032b336ea0bbed9eabf54f69" target="_top" xlink:title="Returns .">
<polygon fill="white" stroke="black" points="601,-30 601,-49 752,-49 752,-30 601,-30"/>
<text text-anchor="middle" x="676.5" y="-37" font-family="Helvetica,sans-Serif" font-size="10.00">modulo_namespace::power</text>
</a>
</g>
</g>
<!-- Node1&#45;&gt;Node2 -->
<g id="edge1" class="edge">
<title>Node1&#45;&gt;Node2</title>
<path fill="none" stroke="midnightblue" d="M777.94,-32.78C769.32,-32.72 760.61,-32.75 752.1,-32.86"/>
<polygon fill="midnightblue" stroke="midnightblue" points="777.95,-36.28 787.99,-32.87 778.02,-29.28 777.95,-36.28"/>
</g>
<!-- Node2&#45;&gt;Node1 -->
<g id="edge2" class="edge">
<title>Node2&#45;&gt;Node1</title>
<path fill="none" stroke="midnightblue" d="M762.16,-46.23C770.79,-46.28 779.5,-46.24 787.99,-46.13"/>
<polygon fill="midnightblue" stroke="midnightblue" points="762.13,-42.73 752.1,-46.14 762.07,-49.73 762.13,-42.73"/>
</g>
<!-- Node3 -->
<g id="node3" class="node">
<title>Node3</title>
<g id="a_node3"><a xlink:href="namespacemodulo__namespace_1_1test.html#a528d9ed1db3200393555b3dc75036599" target="_top" xlink:title=" ">
<polygon fill="white" stroke="black" points="425,-49.5 425,-79.5 565,-79.5 565,-49.5 425,-49.5"/>
<text text-anchor="start" x="433" y="-67.5" font-family="Helvetica,sans-Serif" font-size="10.00">modulo_namespace::test</text>
<text text-anchor="middle" x="495" y="-56.5" font-family="Helvetica,sans-Serif" font-size="10.00">::test_power</text>
</a>
</g>
</g>
<!-- Node2&#45;&gt;Node3 -->
<g id="edge3" class="edge">
<title>Node2&#45;&gt;Node3</title>
<path fill="none" stroke="midnightblue" d="M597.02,-50.43C586.38,-51.91 575.53,-53.42 565.08,-54.88"/>
<polygon fill="midnightblue" stroke="midnightblue" points="597.71,-53.87 607.13,-49.02 596.74,-46.94 597.71,-53.87"/>
</g>
<!-- Node8 -->
<g id="node8" class="node">
<title>Node8</title>
<g id="a_node8"><a xlink:href="namespacepermutation_1_1test.html#a79866de5f43125b4ac233cdc1bae579e" target="_top" xlink:title=" ">
<polygon fill="white" stroke="black" points="441.5,-0.5 441.5,-30.5 548.5,-30.5 548.5,-0.5 441.5,-0.5"/>
<text text-anchor="start" x="449.5" y="-18.5" font-family="Helvetica,sans-Serif" font-size="10.00">permutation::test::</text>
<text text-anchor="middle" x="495" y="-7.5" font-family="Helvetica,sans-Serif" font-size="10.00">test_power</text>
</a>
</g>
</g>
<!-- Node2&#45;&gt;Node8 -->
<g id="edge8" class="edge">
<title>Node2&#45;&gt;Node8</title>
<path fill="none" stroke="midnightblue" d="M594.19,-28.63C578.69,-26.56 562.86,-24.44 548.56,-22.53"/>
<polygon fill="midnightblue" stroke="midnightblue" points="593.92,-32.12 604.3,-29.98 594.85,-25.19 593.92,-32.12"/>
</g>
<!-- Node4 -->
<g id="node4" class="node">
<title>Node4</title>
<g id="a_node4"><a xlink:href="namespacemodulo__namespace_1_1test.html#a1574d4c610506ea86664c88fc549aedf" target="_top" xlink:title=" ">
<polygon fill="white" stroke="black" points="249,-49.5 249,-79.5 389,-79.5 389,-49.5 249,-49.5"/>
<text text-anchor="start" x="257" y="-67.5" font-family="Helvetica,sans-Serif" font-size="10.00">modulo_namespace::test</text>
<text text-anchor="middle" x="319" y="-56.5" font-family="Helvetica,sans-Serif" font-size="10.00">::test_modulo</text>
</a>
</g>
</g>
<!-- Node3&#45;&gt;Node4 -->
<g id="edge4" class="edge">
<title>Node3&#45;&gt;Node4</title>
<path fill="none" stroke="midnightblue" d="M414.97,-64.5C406.38,-64.5 397.68,-64.5 389.22,-64.5"/>
<polygon fill="midnightblue" stroke="midnightblue" points="414.98,-68 424.98,-64.5 414.98,-61 414.98,-68"/>
</g>
<!-- Node5 -->
<g id="node5" class="node">
<title>Node5</title>
<g id="a_node5"><a xlink:href="test_8cpp.html#aa1c715cac916839a95e25b65b4071c4a" target="_top" xlink:title=" ">
<polygon fill="white" stroke="black" points="160,-30 160,-49 213,-49 213,-30 160,-30"/>
<text text-anchor="middle" x="186.5" y="-37" font-family="Helvetica,sans-Serif" font-size="10.00">test_all</text>
</a>
</g>
</g>
<!-- Node4&#45;&gt;Node5 -->
<g id="edge5" class="edge">
<title>Node4&#45;&gt;Node5</title>
<path fill="none" stroke="midnightblue" d="M239.07,-49.38C229.72,-47.59 220.76,-45.87 213,-44.39"/>
<polygon fill="midnightblue" stroke="midnightblue" points="238.45,-52.82 248.93,-51.27 239.77,-45.95 238.45,-52.82"/>
</g>
<!-- Node6 -->
<g id="node6" class="node">
<title>Node6</title>
<g id="a_node6"><a xlink:href="test_8cpp.html#af095a232149097b5605064623a9345ac" target="_top" xlink:title=" ">
<polygon fill="white" stroke="black" points="77,-30 77,-49 124,-49 124,-30 77,-30"/>
<text text-anchor="middle" x="100.5" y="-37" font-family="Helvetica,sans-Serif" font-size="10.00">main2</text>
</a>
</g>
</g>
<!-- Node5&#45;&gt;Node6 -->
<g id="edge6" class="edge">
<title>Node5&#45;&gt;Node6</title>
<path fill="none" stroke="midnightblue" d="M149.59,-39.5C140.96,-39.5 131.99,-39.5 124.16,-39.5"/>
<polygon fill="midnightblue" stroke="midnightblue" points="149.84,-43 159.84,-39.5 149.84,-36 149.84,-43"/>
</g>
<!-- Node7 -->
<g id="node7" class="node">
<title>Node7</title>
<g id="a_node7"><a xlink:href="main_8hpp.html#a0ddf1224851353fc92bfbff6f499fa97" target="_top" xlink:title=" ">
<polygon fill="white" stroke="black" points="0,-30 0,-49 41,-49 41,-30 0,-30"/>
<text text-anchor="middle" x="20.5" y="-37" font-family="Helvetica,sans-Serif" font-size="10.00">main</text>
</a>
</g>
</g>
<!-- Node6&#45;&gt;Node7 -->
<g id="edge7" class="edge">
<title>Node6&#45;&gt;Node7</title>
<path fill="none" stroke="midnightblue" d="M66.66,-39.5C57.96,-39.5 48.84,-39.5 41.1,-39.5"/>
<polygon fill="midnightblue" stroke="midnightblue" points="66.94,-43 76.94,-39.5 66.94,-36 66.94,-43"/>
</g>
<!-- Node9 -->
<g id="node9" class="node">
<title>Node9</title>
<g id="a_node9"><a xlink:href="namespacepermutation_1_1test.html#a35c04b3a3683be26d7eb0723d772fad4" target="_top" xlink:title=" ">
<polygon fill="white" stroke="black" points="265.5,-0.5 265.5,-30.5 372.5,-30.5 372.5,-0.5 265.5,-0.5"/>
<text text-anchor="start" x="273.5" y="-18.5" font-family="Helvetica,sans-Serif" font-size="10.00">permutation::test::</text>
<text text-anchor="middle" x="319" y="-7.5" font-family="Helvetica,sans-Serif" font-size="10.00">test_permutation</text>
</a>
</g>
</g>
<!-- Node8&#45;&gt;Node9 -->
<g id="edge9" class="edge">
<title>Node8&#45;&gt;Node9</title>
<path fill="none" stroke="midnightblue" d="M431.19,-15.5C412.05,-15.5 391.21,-15.5 372.8,-15.5"/>
<polygon fill="midnightblue" stroke="midnightblue" points="431.32,-19 441.32,-15.5 431.32,-12 431.32,-19"/>
</g>
<!-- Node9&#45;&gt;Node5 -->
<g id="edge10" class="edge">
<title>Node9&#45;&gt;Node5</title>
<path fill="none" stroke="midnightblue" d="M255.09,-27.07C240.25,-29.8 225.25,-32.56 213.17,-34.78"/>
<polygon fill="midnightblue" stroke="midnightblue" points="256.09,-30.44 265.3,-25.19 254.83,-23.56 256.09,-30.44"/>
</g>
</g>
</svg>
