<?xml version="1.0" encoding="UTF-8" standalone="no"?>
<!DOCTYPE svg PUBLIC "-//W3C//DTD SVG 1.1//EN"
 "http://www.w3.org/Graphics/SVG/1.1/DTD/svg11.dtd">
<!-- Generated by graphviz version 2.43.0 (0)
 -->
<!-- Title: linear_algebra::operator&lt;&lt; Pages: 1 -->
<svg width="478pt" height="66pt"
 viewBox="0.00 0.00 478.00 66.00" xmlns="http://www.w3.org/2000/svg" xmlns:xlink="http://www.w3.org/1999/xlink">
<g id="graph0" class="graph" transform="scale(1 1) rotate(0) translate(4 62)">
<title>linear_algebra::operator&lt;&lt;</title>
<polygon fill="white" stroke="transparent" points="-4,4 -4,-62 474,-62 474,4 -4,4"/>
<!-- Node1 -->
<g id="node1" class="node">
<title>Node1</title>
<g id="a_node1"><a xlink:title=" ">
<polygon fill="#bfbfbf" stroke="black" points="0,-19.5 0,-38.5 150,-38.5 150,-19.5 0,-19.5"/>
<text text-anchor="middle" x="75" y="-26.5" font-family="Helvetica,sans-Serif" font-size="10.00">linear_algebra::operator&lt;&lt;</text>
</a>
</g>
</g>
<!-- Node2 -->
<g id="node2" class="node">
<title>Node2</title>
<g id="a_node2"><a xlink:href="operations_8hpp.html#a915663194fec79c061edfaea61707bd0" target="_top" xlink:title=" ">
<polygon fill="white" stroke="black" points="236.5,-38.5 236.5,-57.5 265.5,-57.5 265.5,-38.5 236.5,-38.5"/>
<text text-anchor="middle" x="251" y="-45.5" font-family="Helvetica,sans-Serif" font-size="10.00">fo</text>
</a>
</g>
</g>
<!-- Node1&#45;&gt;Node2 -->
<g id="edge1" class="edge">
<title>Node1&#45;&gt;Node2</title>
<path fill="none" stroke="midnightblue" d="M150.04,-37.09C177.39,-40.07 206.48,-43.25 226.18,-45.4"/>
<polygon fill="midnightblue" stroke="midnightblue" points="226.03,-48.9 236.36,-46.51 226.79,-41.95 226.03,-48.9"/>
</g>
<!-- Node3 -->
<g id="node3" class="node">
<title>Node3</title>
<g id="a_node3"><a xlink:href="namespacedebug__tools.html#a3aa6fe2ec65b64f87ad431efde3822c7" target="_top" xlink:title=" ">
<polygon fill="white" stroke="black" points="186,-0.5 186,-19.5 316,-19.5 316,-0.5 186,-0.5"/>
<text text-anchor="middle" x="251" y="-7.5" font-family="Helvetica,sans-Serif" font-size="10.00">debug_tools::simple_tp</text>
</a>
</g>
</g>
<!-- Node1&#45;&gt;Node3 -->
<g id="edge2" class="edge">
<title>Node1&#45;&gt;Node3</title>
<path fill="none" stroke="midnightblue" d="M150.04,-20.91C158.62,-19.98 167.37,-19.02 175.94,-18.09"/>
<polygon fill="midnightblue" stroke="midnightblue" points="176.35,-21.56 185.91,-17 175.59,-14.6 176.35,-21.56"/>
</g>
<!-- Node4 -->
<g id="node4" class="node">
<title>Node4</title>
<g id="a_node4"><a xlink:href="namespacedebug__tools.html#a2b613fd4caa0fb48d04eb7e6f3bf6dff" target="_top" xlink:title=" ">
<polygon fill="white" stroke="black" points="352,-0.5 352,-19.5 470,-19.5 470,-0.5 352,-0.5"/>
<text text-anchor="middle" x="411" y="-7.5" font-family="Helvetica,sans-Serif" font-size="10.00">debug_tools::replace</text>
</a>
</g>
</g>
<!-- Node3&#45;&gt;Node4 -->
<g id="edge3" class="edge">
<title>Node3&#45;&gt;Node4</title>
<path fill="none" stroke="midnightblue" d="M316.26,-10C324.65,-10 333.26,-10 341.7,-10"/>
<polygon fill="midnightblue" stroke="midnightblue" points="341.9,-13.5 351.9,-10 341.9,-6.5 341.9,-13.5"/>
</g>
</g>
</svg>
