<?xml version="1.0" encoding="UTF-8" standalone="no"?>
<!DOCTYPE svg PUBLIC "-//W3C//DTD SVG 1.1//EN"
 "http://www.w3.org/Graphics/SVG/1.1/DTD/svg11.dtd">
<!-- Generated by graphviz version 2.43.0 (0)
 -->
<!-- Title: linear_algebra::det Pages: 1 -->
<svg width="446pt" height="28pt"
 viewBox="0.00 0.00 446.00 28.00" xmlns="http://www.w3.org/2000/svg" xmlns:xlink="http://www.w3.org/1999/xlink">
<g id="graph0" class="graph" transform="scale(1 1) rotate(0) translate(4 24)">
<title>linear_algebra::det</title>
<polygon fill="white" stroke="transparent" points="-4,4 -4,-24 442,-24 442,4 -4,4"/>
<!-- Node1 -->
<g id="node1" class="node">
<title>Node1</title>
<g id="a_node1"><a xlink:title=" ">
<polygon fill="#bfbfbf" stroke="black" points="330,-0.5 330,-19.5 438,-19.5 438,-0.5 330,-0.5"/>
<text text-anchor="middle" x="384" y="-7.5" font-family="Helvetica,sans-Serif" font-size="10.00">linear_algebra::det</text>
</a>
</g>
</g>
<!-- Node2 -->
<g id="node2" class="node">
<title>Node2</title>
<g id="a_node2"><a xlink:href="namespacelinear__algebra.html#ad15ec6af6887423cb03ff23db2d94738" target="_top" xlink:title=" ">
<polygon fill="white" stroke="black" points="173,-0.5 173,-19.5 294,-19.5 294,-0.5 173,-0.5"/>
<text text-anchor="middle" x="233.5" y="-7.5" font-family="Helvetica,sans-Serif" font-size="10.00">linear_algebra::gauss</text>
</a>
</g>
</g>
<!-- Node1&#45;&gt;Node2 -->
<g id="edge1" class="edge">
<title>Node1&#45;&gt;Node2</title>
<path fill="none" stroke="midnightblue" d="M319.62,-3.31C311.16,-3.21 302.52,-3.23 294.13,-3.37"/>
<polygon fill="midnightblue" stroke="midnightblue" points="319.75,-6.82 329.81,-3.5 319.87,0.18 319.75,-6.82"/>
</g>
<!-- Node2&#45;&gt;Node1 -->
<g id="edge2" class="edge">
<title>Node2&#45;&gt;Node1</title>
<path fill="none" stroke="midnightblue" d="M304.18,-16.74C312.79,-16.78 321.49,-16.7 329.81,-16.5"/>
<polygon fill="midnightblue" stroke="midnightblue" points="304.17,-13.24 294.13,-16.63 304.09,-20.24 304.17,-13.24"/>
</g>
<!-- Node3 -->
<g id="node3" class="node">
<title>Node3</title>
<g id="a_node3"><a xlink:href="namespacelinear__algebra.html#a2b7036bfe170c860f3c08deea3fec213" target="_top" xlink:title=" ">
<polygon fill="white" stroke="black" points="0,-0.5 0,-19.5 137,-19.5 137,-0.5 0,-0.5"/>
<text text-anchor="middle" x="68.5" y="-7.5" font-family="Helvetica,sans-Serif" font-size="10.00">linear_algebra::operator/</text>
</a>
</g>
</g>
<!-- Node2&#45;&gt;Node3 -->
<g id="edge3" class="edge">
<title>Node2&#45;&gt;Node3</title>
<path fill="none" stroke="midnightblue" d="M162.59,-10C154.19,-10 145.62,-10 137.25,-10"/>
<polygon fill="midnightblue" stroke="midnightblue" points="162.73,-13.5 172.73,-10 162.73,-6.5 162.73,-13.5"/>
</g>
</g>
</svg>
