<?xml version="1.0" encoding="UTF-8" standalone="no"?>
<!DOCTYPE svg PUBLIC "-//W3C//DTD SVG 1.1//EN"
 "http://www.w3.org/Graphics/SVG/1.1/DTD/svg11.dtd">
<!-- Generated by graphviz version 2.43.0 (0)
 -->
<!-- Title: link_cut::link Pages: 1 -->
<svg width="322pt" height="127pt"
 viewBox="0.00 0.00 322.00 127.00" xmlns="http://www.w3.org/2000/svg" xmlns:xlink="http://www.w3.org/1999/xlink">
<g id="graph0" class="graph" transform="scale(1 1) rotate(0) translate(4 123)">
<title>link_cut::link</title>
<polygon fill="white" stroke="transparent" points="-4,4 -4,-123 318,-123 318,4 -4,4"/>
<!-- Node1 -->
<g id="node1" class="node">
<title>Node1</title>
<g id="a_node1"><a xlink:title=" ">
<polygon fill="#bfbfbf" stroke="black" points="235,-50 235,-69 314,-69 314,-50 235,-50"/>
<text text-anchor="middle" x="274.5" y="-57" font-family="Helvetica,sans-Serif" font-size="10.00">link_cut::link</text>
</a>
</g>
</g>
<!-- Node2 -->
<g id="node2" class="node">
<title>Node2</title>
<g id="a_node2"><a xlink:href="$structstring__tools_1_1Trie.html#ab8f1d2a13b82d8dbaccc886df20f8371" xlink:title="Returns the exit link, the next leaf suffix.">
<polygon fill="white" stroke="black" points="92,-88.5 92,-118.5 190,-118.5 190,-88.5 92,-88.5"/>
<text text-anchor="start" x="100" y="-106.5" font-family="Helvetica,sans-Serif" font-size="10.00">string_tools::Trie</text>
<text text-anchor="middle" x="141" y="-95.5" font-family="Helvetica,sans-Serif" font-size="10.00">::exit_link</text>
</a>
</g>
</g>
<!-- Node1&#45;&gt;Node2 -->
<g id="edge1" class="edge">
<title>Node1&#45;&gt;Node2</title>
<path fill="none" stroke="midnightblue" d="M235.41,-72.24C220.29,-77.3 202.77,-83.17 187.02,-88.43"/>
<polygon fill="midnightblue" stroke="midnightblue" points="236.59,-75.54 244.97,-69.05 234.37,-68.9 236.59,-75.54"/>
</g>
<!-- Node3 -->
<g id="node3" class="node">
<title>Node3</title>
<g id="a_node3"><a xlink:href="$structstring__tools_1_1Trie.html#aa30d5277840d084371dcb2193168b4a0" xlink:title="Goes to the node for the largest suffix of the current string plus c.">
<polygon fill="white" stroke="black" points="83,-50 83,-69 199,-69 199,-50 83,-50"/>
<text text-anchor="middle" x="141" y="-57" font-family="Helvetica,sans-Serif" font-size="10.00">string_tools::Trie::go</text>
</a>
</g>
</g>
<!-- Node1&#45;&gt;Node3 -->
<g id="edge2" class="edge">
<title>Node1&#45;&gt;Node3</title>
<path fill="none" stroke="midnightblue" d="M224.62,-59.5C216.43,-59.5 207.86,-59.5 199.47,-59.5"/>
<polygon fill="midnightblue" stroke="midnightblue" points="224.76,-63 234.76,-59.5 224.76,-56 224.76,-63"/>
</g>
<!-- Node4 -->
<g id="node4" class="node">
<title>Node4</title>
<g id="a_node4"><a xlink:href="$namespacelink__cut_1_1test.html#ad63bee2821de932f5d295238e48d106f" xlink:title=" ">
<polygon fill="white" stroke="black" points="89,-0.5 89,-30.5 193,-30.5 193,-0.5 89,-0.5"/>
<text text-anchor="start" x="97" y="-18.5" font-family="Helvetica,sans-Serif" font-size="10.00">link_cut::test::test</text>
<text text-anchor="middle" x="141" y="-7.5" font-family="Helvetica,sans-Serif" font-size="10.00">_link_cut_tree</text>
</a>
</g>
</g>
<!-- Node1&#45;&gt;Node4 -->
<g id="edge3" class="edge">
<title>Node1&#45;&gt;Node4</title>
<path fill="none" stroke="midnightblue" d="M235.41,-46.76C220.29,-41.7 202.77,-35.83 187.02,-30.57"/>
<polygon fill="midnightblue" stroke="midnightblue" points="234.37,-50.1 244.97,-49.95 236.59,-43.46 234.37,-50.1"/>
</g>
<!-- Node5 -->
<g id="node5" class="node">
<title>Node5</title>
<g id="a_node5"><a xlink:href="$test_8cpp.html#af095a232149097b5605064623a9345ac" xlink:title=" ">
<polygon fill="white" stroke="black" points="0,-6 0,-25 47,-25 47,-6 0,-6"/>
<text text-anchor="middle" x="23.5" y="-13" font-family="Helvetica,sans-Serif" font-size="10.00">main2</text>
</a>
</g>
</g>
<!-- Node4&#45;&gt;Node5 -->
<g id="edge4" class="edge">
<title>Node4&#45;&gt;Node5</title>
<path fill="none" stroke="midnightblue" d="M78.37,-15.5C67.17,-15.5 56.16,-15.5 47.05,-15.5"/>
<polygon fill="midnightblue" stroke="midnightblue" points="78.67,-19 88.67,-15.5 78.67,-12 78.67,-19"/>
</g>
</g>
</svg>
