<?xml version="1.0" encoding="UTF-8" standalone="no"?>
<!DOCTYPE svg PUBLIC "-//W3C//DTD SVG 1.1//EN"
 "http://www.w3.org/Graphics/SVG/1.1/DTD/svg11.dtd">
<!-- Generated by graphviz version 2.43.0 (0)
 -->
<!-- Title: linear_algebra::gauss Pages: 1 -->
<svg width="290pt" height="78pt"
 viewBox="0.00 0.00 290.00 77.50" xmlns="http://www.w3.org/2000/svg" xmlns:xlink="http://www.w3.org/1999/xlink">
<g id="graph0" class="graph" transform="scale(1 1) rotate(0) translate(4 73.5)">
<title>linear_algebra::gauss</title>
<polygon fill="white" stroke="transparent" points="-4,4 -4,-73.5 286,-73.5 286,4 -4,4"/>
<!-- Node1 -->
<g id="node1" class="node">
<title>Node1</title>
<g id="a_node1"><a xlink:title="Returns matrix x such that &#160;and the determinant of &#160;via Gaussian elimination.">
<polygon fill="#bfbfbf" stroke="black" points="0,-50 0,-69 121,-69 121,-50 0,-50"/>
<text text-anchor="middle" x="60.5" y="-57" font-family="Helvetica,sans-Serif" font-size="10.00">linear_algebra::gauss</text>
</a>
</g>
</g>
<!-- Node2 -->
<g id="node2" class="node">
<title>Node2</title>
<g id="a_node2"><a xlink:href="namespacelinear__algebra.html#ab7a7f1a8ba225710625d5af10f317b6a" target="_top" xlink:title="Returns the determinant of matrix a.">
<polygon fill="white" stroke="black" points="165.5,-50 165.5,-69 273.5,-69 273.5,-50 165.5,-50"/>
<text text-anchor="middle" x="219.5" y="-57" font-family="Helvetica,sans-Serif" font-size="10.00">linear_algebra::det</text>
</a>
</g>
</g>
<!-- Node1&#45;&gt;Node2 -->
<g id="edge1" class="edge">
<title>Node1&#45;&gt;Node2</title>
<path fill="none" stroke="midnightblue" d="M121.3,-52.92C132.38,-52.71 143.99,-52.69 155.17,-52.86"/>
<polygon fill="midnightblue" stroke="midnightblue" points="155.22,-56.36 165.29,-53.07 155.37,-49.37 155.22,-56.36"/>
</g>
<!-- Node3 -->
<g id="node3" class="node">
<title>Node3</title>
<g id="a_node3"><a xlink:href="structlinear__algebra_1_1matrix.html#ad02294881d9dd92ee77b417d416bed33" target="_top" xlink:title="Returns true if matrix is a square matrix.">
<polygon fill="white" stroke="black" points="157,-0.5 157,-30.5 282,-30.5 282,-0.5 157,-0.5"/>
<text text-anchor="start" x="165" y="-18.5" font-family="Helvetica,sans-Serif" font-size="10.00">linear_algebra::matrix</text>
<text text-anchor="middle" x="219.5" y="-7.5" font-family="Helvetica,sans-Serif" font-size="10.00">::is_square</text>
</a>
</g>
</g>
<!-- Node1&#45;&gt;Node3 -->
<g id="edge3" class="edge">
<title>Node1&#45;&gt;Node3</title>
<path fill="none" stroke="midnightblue" d="M95.57,-49.95C112.93,-45.09 134.61,-39.01 154.91,-33.32"/>
<polygon fill="midnightblue" stroke="midnightblue" points="156.06,-36.63 164.74,-30.57 154.17,-29.89 156.06,-36.63"/>
</g>
<!-- Node2&#45;&gt;Node1 -->
<g id="edge2" class="edge">
<title>Node2&#45;&gt;Node1</title>
<path fill="none" stroke="midnightblue" d="M165.29,-65.93C154.46,-66.21 142.91,-66.31 131.6,-66.22"/>
<polygon fill="midnightblue" stroke="midnightblue" points="131.35,-62.71 121.3,-66.08 131.25,-69.71 131.35,-62.71"/>
</g>
</g>
</svg>
