<?xml version="1.0" encoding="UTF-8" standalone="no"?>
<!DOCTYPE svg PUBLIC "-//W3C//DTD SVG 1.1//EN"
 "http://www.w3.org/Graphics/SVG/1.1/DTD/svg11.dtd">
<!-- Generated by graphviz version 2.43.0 (0)
 -->
<!-- Title: linear_algebra::lin_recur Pages: 1 -->
<svg width="493pt" height="72pt"
 viewBox="0.00 0.00 493.00 71.50" xmlns="http://www.w3.org/2000/svg" xmlns:xlink="http://www.w3.org/1999/xlink">
<g id="graph0" class="graph" transform="scale(1 1) rotate(0) translate(4 67.5)">
<title>linear_algebra::lin_recur</title>
<polygon fill="white" stroke="transparent" points="-4,4 -4,-67.5 489,-67.5 489,4 -4,4"/>
<!-- Node1 -->
<g id="node1" class="node">
<title>Node1</title>
<g id="a_node1"><a xlink:title=" ">
<polygon fill="#bfbfbf" stroke="black" points="0,-0.5 0,-30.5 104,-30.5 104,-0.5 0,-0.5"/>
<text text-anchor="start" x="8" y="-18.5" font-family="Helvetica,sans-Serif" font-size="10.00">linear_algebra::lin</text>
<text text-anchor="middle" x="52" y="-7.5" font-family="Helvetica,sans-Serif" font-size="10.00">_recur</text>
</a>
</g>
</g>
<!-- Node2 -->
<g id="node2" class="node">
<title>Node2</title>
<g id="a_node2"><a xlink:href="namespacemodulo__namespace.html#a8e6fc91a032b336ea0bbed9eabf54f69" target="_top" xlink:title="Returns .">
<polygon fill="white" stroke="black" points="140,-6 140,-25 291,-25 291,-6 140,-6"/>
<text text-anchor="middle" x="215.5" y="-13" font-family="Helvetica,sans-Serif" font-size="10.00">modulo_namespace::power</text>
</a>
</g>
</g>
<!-- Node1&#45;&gt;Node2 -->
<g id="edge1" class="edge">
<title>Node1&#45;&gt;Node2</title>
<path fill="none" stroke="midnightblue" d="M104.1,-15.5C112.27,-15.5 120.91,-15.5 129.61,-15.5"/>
<polygon fill="midnightblue" stroke="midnightblue" points="129.84,-19 139.84,-15.5 129.84,-12 129.84,-19"/>
</g>
<!-- Node3 -->
<g id="node3" class="node">
<title>Node3</title>
<g id="a_node3"><a xlink:href="namespacemodulo__namespace.html#a55577c112e6d41b6314ad996f9e48842" target="_top" xlink:title=" ">
<polygon fill="white" stroke="black" points="327,-44 327,-63 485,-63 485,-44 327,-44"/>
<text text-anchor="middle" x="406" y="-51" font-family="Helvetica,sans-Serif" font-size="10.00">modulo_namespace::identity</text>
</a>
</g>
</g>
<!-- Node2&#45;&gt;Node3 -->
<g id="edge2" class="edge">
<title>Node2&#45;&gt;Node3</title>
<path fill="none" stroke="midnightblue" d="M264.07,-25.09C289.5,-30.22 321,-36.57 347.77,-41.96"/>
<polygon fill="midnightblue" stroke="midnightblue" points="347.28,-45.43 357.78,-43.98 348.66,-38.57 347.28,-45.43"/>
</g>
<!-- Node4 -->
<g id="node4" class="node">
<title>Node4</title>
<g id="a_node4"><a xlink:href="namespacemodulo__namespace.html#aac690d54b7665a90ca461724df8907c0" target="_top" xlink:title=" ">
<polygon fill="white" stroke="black" points="331.5,-6 331.5,-25 480.5,-25 480.5,-6 331.5,-6"/>
<text text-anchor="middle" x="406" y="-13" font-family="Helvetica,sans-Serif" font-size="10.00">modulo_namespace::invert</text>
</a>
</g>
</g>
<!-- Node2&#45;&gt;Node4 -->
<g id="edge3" class="edge">
<title>Node2&#45;&gt;Node4</title>
<path fill="none" stroke="midnightblue" d="M291,-8.88C300.96,-8.75 311.22,-8.72 321.32,-8.79"/>
<polygon fill="midnightblue" stroke="midnightblue" points="321.31,-12.29 331.35,-8.9 321.39,-5.29 321.31,-12.29"/>
</g>
<!-- Node4&#45;&gt;Node2 -->
<g id="edge4" class="edge">
<title>Node4&#45;&gt;Node2</title>
<path fill="none" stroke="midnightblue" d="M331.35,-22.1C321.41,-22.25 311.15,-22.28 301.04,-22.22"/>
<polygon fill="midnightblue" stroke="midnightblue" points="301.04,-18.72 291,-22.12 300.96,-25.72 301.04,-18.72"/>
</g>
</g>
</svg>
