<?xml version="1.0" encoding="UTF-8" standalone="no"?>
<!DOCTYPE svg PUBLIC "-//W3C//DTD SVG 1.1//EN"
 "http://www.w3.org/Graphics/SVG/1.1/DTD/svg11.dtd">
<!-- Generated by graphviz version 2.43.0 (0)
 -->
<!-- Title: combinatorics::fact Pages: 1 -->
<svg width="827pt" height="88pt"
 viewBox="0.00 0.00 827.00 88.00" xmlns="http://www.w3.org/2000/svg" xmlns:xlink="http://www.w3.org/1999/xlink">
<g id="graph0" class="graph" transform="scale(1 1) rotate(0) translate(4 84)">
<title>combinatorics::fact</title>
<polygon fill="white" stroke="transparent" points="-4,4 -4,-84 823,-84 823,4 -4,4"/>
<!-- Node1 -->
<g id="node1" class="node">
<title>Node1</title>
<g id="a_node1"><a xlink:title=" ">
<polygon fill="#bfbfbf" stroke="black" points="709,-30 709,-49 819,-49 819,-30 709,-30"/>
<text text-anchor="middle" x="764" y="-37" font-family="Helvetica,sans-Serif" font-size="10.00">combinatorics::fact</text>
</a>
</g>
</g>
<!-- Node2 -->
<g id="node2" class="node">
<title>Node2</title>
<g id="a_node2"><a xlink:href="namespacecombinatorics.html#a24ea271b6415a4679e019562f474d88f" target="_top" xlink:title=" ">
<polygon fill="white" stroke="black" points="547,-52 547,-71 673,-71 673,-52 547,-52"/>
<text text-anchor="middle" x="610" y="-59" font-family="Helvetica,sans-Serif" font-size="10.00">combinatorics::choose</text>
</a>
</g>
</g>
<!-- Node1&#45;&gt;Node2 -->
<g id="edge1" class="edge">
<title>Node1&#45;&gt;Node2</title>
<path fill="none" stroke="midnightblue" d="M699.04,-48.76C690.47,-50 681.68,-51.27 673.14,-52.51"/>
<polygon fill="midnightblue" stroke="midnightblue" points="699.59,-52.21 708.98,-47.32 698.58,-45.29 699.59,-52.21"/>
</g>
<!-- Node8 -->
<g id="node8" class="node">
<title>Node8</title>
<g id="a_node8"><a xlink:href="namespacecombinatorics_1_1test.html#a8936aa7ea767d4ccba752f2a5c54785f" target="_top" xlink:title=" ">
<polygon fill="white" stroke="black" points="401,-0.5 401,-30.5 511,-30.5 511,-0.5 401,-0.5"/>
<text text-anchor="start" x="409" y="-18.5" font-family="Helvetica,sans-Serif" font-size="10.00">combinatorics::test</text>
<text text-anchor="middle" x="456" y="-7.5" font-family="Helvetica,sans-Serif" font-size="10.00">::test_fact</text>
</a>
</g>
</g>
<!-- Node1&#45;&gt;Node8 -->
<g id="edge7" class="edge">
<title>Node1&#45;&gt;Node8</title>
<path fill="none" stroke="midnightblue" d="M698.91,-34.47C643.31,-30.11 563.73,-23.87 511.23,-19.75"/>
<polygon fill="midnightblue" stroke="midnightblue" points="698.75,-37.97 709,-35.26 699.3,-30.99 698.75,-37.97"/>
</g>
<!-- Node3 -->
<g id="node3" class="node">
<title>Node3</title>
<g id="a_node3"><a xlink:href="namespacecombinatorics_1_1test.html#a02b85c66d33799029d94ecfbb7c8b062" target="_top" xlink:title=" ">
<polygon fill="white" stroke="black" points="401,-49.5 401,-79.5 511,-79.5 511,-49.5 401,-49.5"/>
<text text-anchor="start" x="409" y="-67.5" font-family="Helvetica,sans-Serif" font-size="10.00">combinatorics::test</text>
<text text-anchor="middle" x="456" y="-56.5" font-family="Helvetica,sans-Serif" font-size="10.00">::test_choose</text>
</a>
</g>
</g>
<!-- Node2&#45;&gt;Node3 -->
<g id="edge2" class="edge">
<title>Node2&#45;&gt;Node3</title>
<path fill="none" stroke="midnightblue" d="M536.69,-62.93C528.09,-63.1 519.42,-63.27 511.14,-63.43"/>
<polygon fill="midnightblue" stroke="midnightblue" points="536.81,-66.43 546.74,-62.73 536.67,-59.43 536.81,-66.43"/>
</g>
<!-- Node4 -->
<g id="node4" class="node">
<title>Node4</title>
<g id="a_node4"><a xlink:href="namespacecombinatorics_1_1test.html#a28cd50807d464588cc9b5add7bed4f97" target="_top" xlink:title=" ">
<polygon fill="white" stroke="black" points="249,-24.5 249,-54.5 365,-54.5 365,-24.5 249,-24.5"/>
<text text-anchor="start" x="257" y="-42.5" font-family="Helvetica,sans-Serif" font-size="10.00">combinatorics::test</text>
<text text-anchor="middle" x="307" y="-31.5" font-family="Helvetica,sans-Serif" font-size="10.00">::test_combinatorics</text>
</a>
</g>
</g>
<!-- Node3&#45;&gt;Node4 -->
<g id="edge3" class="edge">
<title>Node3&#45;&gt;Node4</title>
<path fill="none" stroke="midnightblue" d="M390.75,-53.57C382.19,-52.12 373.47,-50.63 365.05,-49.2"/>
<polygon fill="midnightblue" stroke="midnightblue" points="390.23,-57.04 400.68,-55.26 391.41,-50.13 390.23,-57.04"/>
</g>
<!-- Node5 -->
<g id="node5" class="node">
<title>Node5</title>
<g id="a_node5"><a xlink:href="test_8cpp.html#aa1c715cac916839a95e25b65b4071c4a" target="_top" xlink:title=" ">
<polygon fill="white" stroke="black" points="160,-30 160,-49 213,-49 213,-30 160,-30"/>
<text text-anchor="middle" x="186.5" y="-37" font-family="Helvetica,sans-Serif" font-size="10.00">test_all</text>
</a>
</g>
</g>
<!-- Node4&#45;&gt;Node5 -->
<g id="edge4" class="edge">
<title>Node4&#45;&gt;Node5</title>
<path fill="none" stroke="midnightblue" d="M238.56,-39.5C229.51,-39.5 220.73,-39.5 213.07,-39.5"/>
<polygon fill="midnightblue" stroke="midnightblue" points="238.83,-43 248.83,-39.5 238.83,-36 238.83,-43"/>
</g>
<!-- Node6 -->
<g id="node6" class="node">
<title>Node6</title>
<g id="a_node6"><a xlink:href="test_8cpp.html#af095a232149097b5605064623a9345ac" target="_top" xlink:title=" ">
<polygon fill="white" stroke="black" points="77,-30 77,-49 124,-49 124,-30 77,-30"/>
<text text-anchor="middle" x="100.5" y="-37" font-family="Helvetica,sans-Serif" font-size="10.00">main2</text>
</a>
</g>
</g>
<!-- Node5&#45;&gt;Node6 -->
<g id="edge5" class="edge">
<title>Node5&#45;&gt;Node6</title>
<path fill="none" stroke="midnightblue" d="M149.59,-39.5C140.96,-39.5 131.99,-39.5 124.16,-39.5"/>
<polygon fill="midnightblue" stroke="midnightblue" points="149.84,-43 159.84,-39.5 149.84,-36 149.84,-43"/>
</g>
<!-- Node7 -->
<g id="node7" class="node">
<title>Node7</title>
<g id="a_node7"><a xlink:href="main_8hpp.html#a0ddf1224851353fc92bfbff6f499fa97" target="_top" xlink:title=" ">
<polygon fill="white" stroke="black" points="0,-30 0,-49 41,-49 41,-30 0,-30"/>
<text text-anchor="middle" x="20.5" y="-37" font-family="Helvetica,sans-Serif" font-size="10.00">main</text>
</a>
</g>
</g>
<!-- Node6&#45;&gt;Node7 -->
<g id="edge6" class="edge">
<title>Node6&#45;&gt;Node7</title>
<path fill="none" stroke="midnightblue" d="M66.66,-39.5C57.96,-39.5 48.84,-39.5 41.1,-39.5"/>
<polygon fill="midnightblue" stroke="midnightblue" points="66.94,-43 76.94,-39.5 66.94,-36 66.94,-43"/>
</g>
<!-- Node8&#45;&gt;Node4 -->
<g id="edge8" class="edge">
<title>Node8&#45;&gt;Node4</title>
<path fill="none" stroke="midnightblue" d="M390.75,-25.99C382.19,-27.39 373.47,-28.81 365.05,-30.19"/>
<polygon fill="midnightblue" stroke="midnightblue" points="391.37,-29.43 400.68,-24.37 390.25,-22.53 391.37,-29.43"/>
</g>
</g>
</svg>
