<?xml version="1.0" encoding="UTF-8" standalone="no"?>
<!DOCTYPE svg PUBLIC "-//W3C//DTD SVG 1.1//EN"
 "http://www.w3.org/Graphics/SVG/1.1/DTD/svg11.dtd">
<!-- Generated by graphviz version 2.43.0 (0)
 -->
<!-- Title: graph_theory::test_graph_theory Pages: 1 -->
<!--zoomable 343 -->
<svg id="main" version="1.1" xmlns="http://www.w3.org/2000/svg" xmlns:xlink="http://www.w3.org/1999/xlink" xml:space="preserve" onload="init(evt)">
<style type="text/css"><![CDATA[
.edge:hover path { stroke: red; }
.edge:hover polygon { stroke: red; fill: red; }
]]></style>
<script type="text/javascript"><![CDATA[
var edges = document.getElementsByTagName('g');
if (edges && edges.length) {
  for (var i=0;i<edges.length;i++) {
    if (edges[i].id.substr(0,4)=='edge') {
      edges[i].setAttribute('class','edge');
    }
  }
}
]]></script>
        <defs>
                <circle id="rim" cx="0" cy="0" r="7"/>
                <circle id="rim2" cx="0" cy="0" r="3.5"/>
                <g id="zoomPlus">
                        <use xlink:href="#rim" fill="#404040">
                                <set attributeName="fill" to="#808080" begin="zoomplus.mouseover" end="zoomplus.mouseout"/>
                        </use>
                        <path d="M-4,0h8M0,-4v8" fill="none" stroke="white" stroke-width="1.5" pointer-events="none"/>
                </g>
                <g id="zoomMin">
                        <use xlink:href="#rim" fill="#404040">
                                <set attributeName="fill" to="#808080" begin="zoomminus.mouseover" end="zoomminus.mouseout"/>
                        </use>
                        <path d="M-4,0h8" fill="none" stroke="white" stroke-width="1.5" pointer-events="none"/>
                </g>
                <g id="dirArrow">
                        <path fill="none" stroke="white" stroke-width="1.5" d="M0,-3.0v7 M-2.5,-0.5L0,-3.0L2.5,-0.5"/>
                </g>
               <g id="resetDef">
                       <use xlink:href="#rim2" fill="#404040">
                               <set attributeName="fill" to="#808080" begin="reset.mouseover" end="reset.mouseout"/>
                       </use>
               </g>
        </defs>

<script type="text/javascript">
var viewWidth = 635;
var viewHeight = 343;
var sectionId = 'dynsection-19';
</script>
<script xlink:href="svgpan.js"/>
<svg id="graph" class="graph">
<g id="viewport">
<title>graph_theory::test_graph_theory</title>
<polygon fill="white" stroke="transparent" points="-4,4 -4,-339 631,-339 631,4 -4,4"/>
<!-- Node1 -->
<g id="node1" class="node">
<title>Node1</title>
<g id="a_node1"><a xlink:title=" ">
<polygon fill="#bfbfbf" stroke="black" points="0,-145.5 0,-175.5 105,-175.5 105,-145.5 0,-145.5"/>
<text text-anchor="start" x="8" y="-163.5" font-family="Helvetica,sans-Serif" font-size="10.00">graph_theory::test</text>
<text text-anchor="middle" x="52.5" y="-152.5" font-family="Helvetica,sans-Serif" font-size="10.00">_graph_theory</text>
</a>
</g>
</g>
<!-- Node2 -->
<g id="node2" class="node">
<title>Node2</title>
<g id="a_node2"><a xlink:href="namespacegraph__theory.html#af419fd09d176890f30126a49064cbd9b" target="_top" xlink:title=" ">
<polygon fill="white" stroke="black" points="153,-304.5 153,-334.5 258,-334.5 258,-304.5 153,-304.5"/>
<text text-anchor="start" x="161" y="-322.5" font-family="Helvetica,sans-Serif" font-size="10.00">graph_theory::test</text>
<text text-anchor="middle" x="205.5" y="-311.5" font-family="Helvetica,sans-Serif" font-size="10.00">_add_edge</text>
</a>
</g>
</g>
<!-- Node1&#45;&gt;Node2 -->
<g id="edge1" class="edge">
<title>Node1&#45;&gt;Node2</title>
<path fill="none" stroke="midnightblue" d="M59.6,-175.55C71.4,-202.89 99.86,-260.98 141,-294.5 143.05,-296.17 145.22,-297.74 147.49,-299.21"/>
<polygon fill="midnightblue" stroke="midnightblue" points="146.15,-302.48 156.57,-304.42 149.64,-296.41 146.15,-302.48"/>
</g>
<!-- Node4 -->
<g id="node4" class="node">
<title>Node4</title>
<g id="a_node4"><a xlink:href="namespacegraph__theory.html#a2aea60be1c24dc82badd96e40923038b" target="_top" xlink:title=" ">
<polygon fill="white" stroke="black" points="143,-266 143,-285 268,-285 268,-266 143,-266"/>
<text text-anchor="middle" x="205.5" y="-273" font-family="Helvetica,sans-Serif" font-size="10.00">graph_theory::test_bfs</text>
</a>
</g>
</g>
<!-- Node1&#45;&gt;Node4 -->
<g id="edge3" class="edge">
<title>Node1&#45;&gt;Node4</title>
<path fill="none" stroke="midnightblue" d="M63.45,-175.86C77.99,-197.07 107.02,-235.14 141,-256.5 144.36,-258.61 147.96,-260.5 151.68,-262.18"/>
<polygon fill="midnightblue" stroke="midnightblue" points="150.53,-265.49 161.11,-265.96 153.13,-258.99 150.53,-265.49"/>
</g>
<!-- Node5 -->
<g id="node5" class="node">
<title>Node5</title>
<g id="a_node5"><a xlink:href="namespacegraph__theory.html#aeebcf017acc0533f31c46d62d0cebe72" target="_top" xlink:title=" ">
<polygon fill="white" stroke="black" points="153,-216.5 153,-246.5 258,-246.5 258,-216.5 153,-216.5"/>
<text text-anchor="start" x="161" y="-234.5" font-family="Helvetica,sans-Serif" font-size="10.00">graph_theory::test</text>
<text text-anchor="middle" x="205.5" y="-223.5" font-family="Helvetica,sans-Serif" font-size="10.00">_bipartite</text>
</a>
</g>
</g>
<!-- Node1&#45;&gt;Node5 -->
<g id="edge5" class="edge">
<title>Node1&#45;&gt;Node5</title>
<path fill="none" stroke="midnightblue" d="M79.46,-175.61C96.64,-185.31 119.81,-197.86 141,-207.5 144.8,-209.23 148.77,-210.94 152.78,-212.61"/>
<polygon fill="midnightblue" stroke="midnightblue" points="151.58,-215.9 162.17,-216.39 154.2,-209.4 151.58,-215.9"/>
</g>
<!-- Node7 -->
<g id="node7" class="node">
<title>Node7</title>
<g id="a_node7"><a xlink:href="namespacegraph__theory.html#abbe5b980d32347acbd0811f9c189d097" target="_top" xlink:title=" ">
<polygon fill="white" stroke="black" points="153,-167.5 153,-197.5 258,-197.5 258,-167.5 153,-167.5"/>
<text text-anchor="start" x="161" y="-185.5" font-family="Helvetica,sans-Serif" font-size="10.00">graph_theory::test</text>
<text text-anchor="middle" x="205.5" y="-174.5" font-family="Helvetica,sans-Serif" font-size="10.00">_max_match</text>
</a>
</g>
</g>
<!-- Node1&#45;&gt;Node7 -->
<g id="edge8" class="edge">
<title>Node1&#45;&gt;Node7</title>
<path fill="none" stroke="midnightblue" d="M105.04,-168.01C117.25,-169.79 130.38,-171.7 142.97,-173.54"/>
<polygon fill="midnightblue" stroke="midnightblue" points="142.53,-177.01 152.93,-174.99 143.54,-170.08 142.53,-177.01"/>
</g>
<!-- Node10 -->
<g id="node10" class="node">
<title>Node10</title>
<g id="a_node10"><a xlink:href="namespacegraph__theory.html#a84ac78302ab327b1a880654a74f696b3" target="_top" xlink:title=" ">
<polygon fill="white" stroke="black" points="141,-129 141,-148 270,-148 270,-129 141,-129"/>
<text text-anchor="middle" x="205.5" y="-136" font-family="Helvetica,sans-Serif" font-size="10.00">graph_theory::test_mst</text>
</a>
</g>
</g>
<!-- Node1&#45;&gt;Node10 -->
<g id="edge13" class="edge">
<title>Node1&#45;&gt;Node10</title>
<path fill="none" stroke="midnightblue" d="M105.04,-152.99C113.33,-151.78 122.05,-150.51 130.74,-149.25"/>
<polygon fill="midnightblue" stroke="midnightblue" points="131.51,-152.67 140.9,-147.77 130.5,-145.74 131.51,-152.67"/>
</g>
<!-- Node12 -->
<g id="node12" class="node">
<title>Node12</title>
<g id="a_node12"><a xlink:href="namespacegraph__theory.html#a67e1bb0651ba8b410525f0a06c154f10" target="_top" xlink:title=" ">
<polygon fill="white" stroke="black" points="142.5,-91 142.5,-110 268.5,-110 268.5,-91 142.5,-91"/>
<text text-anchor="middle" x="205.5" y="-98" font-family="Helvetica,sans-Serif" font-size="10.00">graph_theory::test_scc</text>
</a>
</g>
</g>
<!-- Node1&#45;&gt;Node12 -->
<g id="edge15" class="edge">
<title>Node1&#45;&gt;Node12</title>
<path fill="none" stroke="midnightblue" d="M83,-145.35C99.75,-137.08 121.25,-127.03 141,-119.5 146.93,-117.24 153.25,-115.07 159.51,-113.06"/>
<polygon fill="midnightblue" stroke="midnightblue" points="160.74,-116.34 169.25,-110.04 158.67,-109.66 160.74,-116.34"/>
</g>
<!-- Node15 -->
<g id="node15" class="node">
<title>Node15</title>
<g id="a_node15"><a xlink:href="namespacegraph__theory.html#ae36eab02a5882508df9bcd38fed73b1f" target="_top" xlink:title=" ">
<polygon fill="white" stroke="black" points="153,-0.5 153,-30.5 258,-30.5 258,-0.5 153,-0.5"/>
<text text-anchor="start" x="161" y="-18.5" font-family="Helvetica,sans-Serif" font-size="10.00">graph_theory::test</text>
<text text-anchor="middle" x="205.5" y="-7.5" font-family="Helvetica,sans-Serif" font-size="10.00">_shortest_dist</text>
</a>
</g>
</g>
<!-- Node1&#45;&gt;Node15 -->
<g id="edge18" class="edge">
<title>Node1&#45;&gt;Node15</title>
<path fill="none" stroke="midnightblue" d="M61.86,-145.22C75.62,-121.25 105.13,-74.56 141,-45.5 145.55,-41.81 150.63,-38.45 155.88,-35.43"/>
<polygon fill="midnightblue" stroke="midnightblue" points="157.64,-38.45 164.81,-30.65 154.34,-32.28 157.64,-38.45"/>
</g>
<!-- Node17 -->
<g id="node17" class="node">
<title>Node17</title>
<g id="a_node17"><a xlink:href="namespacegraph__theory.html#a734cad165e9d3343718dea3cab4febc3" target="_top" xlink:title=" ">
<polygon fill="white" stroke="black" points="332,-41.5 332,-71.5 437,-71.5 437,-41.5 332,-41.5"/>
<text text-anchor="start" x="340" y="-59.5" font-family="Helvetica,sans-Serif" font-size="10.00">graph_theory::test</text>
<text text-anchor="middle" x="384.5" y="-48.5" font-family="Helvetica,sans-Serif" font-size="10.00">_trans</text>
</a>
</g>
</g>
<!-- Node1&#45;&gt;Node17 -->
<g id="edge20" class="edge">
<title>Node1&#45;&gt;Node17</title>
<path fill="none" stroke="midnightblue" d="M65.19,-145.19C80.39,-126.55 108.84,-95.81 141,-81.5 198.52,-55.91 271.07,-51.62 321.77,-52.51"/>
<polygon fill="midnightblue" stroke="midnightblue" points="321.83,-56.02 331.92,-52.77 322.01,-49.02 321.83,-56.02"/>
</g>
<!-- Node3 -->
<g id="node3" class="node">
<title>Node3</title>
<g id="a_node3"><a xlink:href="namespacegraph__theory.html#a7baea0d3e99864e50ed82e6e93a88eb5" target="_top" xlink:title=" ">
<polygon fill="white" stroke="black" points="317.5,-281 317.5,-300 451.5,-300 451.5,-281 317.5,-281"/>
<text text-anchor="middle" x="384.5" y="-288" font-family="Helvetica,sans-Serif" font-size="10.00">graph_theory::add_edge</text>
</a>
</g>
</g>
<!-- Node2&#45;&gt;Node3 -->
<g id="edge2" class="edge">
<title>Node2&#45;&gt;Node3</title>
<path fill="none" stroke="midnightblue" d="M258.17,-311.03C275.99,-308.11 296.23,-304.8 315.17,-301.7"/>
<polygon fill="midnightblue" stroke="midnightblue" points="315.93,-305.12 325.24,-300.05 314.8,-298.21 315.93,-305.12"/>
</g>
<!-- Node4&#45;&gt;Node3 -->
<g id="edge4" class="edge">
<title>Node4&#45;&gt;Node3</title>
<path fill="none" stroke="midnightblue" d="M268.41,-280.75C280.91,-281.81 294.2,-282.93 307.14,-284.03"/>
<polygon fill="midnightblue" stroke="midnightblue" points="307.15,-287.54 317.41,-284.9 307.75,-280.57 307.15,-287.54"/>
</g>
<!-- Node5&#45;&gt;Node3 -->
<g id="edge6" class="edge">
<title>Node5&#45;&gt;Node3</title>
<path fill="none" stroke="midnightblue" d="M248.5,-246.67C266.2,-252.96 287.05,-260.23 306,-266.5 317.7,-270.37 330.46,-274.4 342.18,-278.02"/>
<polygon fill="midnightblue" stroke="midnightblue" points="341.15,-281.37 351.74,-280.96 343.21,-274.68 341.15,-281.37"/>
</g>
<!-- Node6 -->
<g id="node6" class="node">
<title>Node6</title>
<g id="a_node6"><a xlink:href="namespacegraph__theory.html#abc2dae699efd9d44942e1a27d801d9cb" target="_top" xlink:title=" ">
<polygon fill="white" stroke="black" points="499,-224 499,-243 627,-243 627,-224 499,-224"/>
<text text-anchor="middle" x="563" y="-231" font-family="Helvetica,sans-Serif" font-size="10.00">graph_theory::bipartite</text>
</a>
</g>
</g>
<!-- Node5&#45;&gt;Node6 -->
<g id="edge7" class="edge">
<title>Node5&#45;&gt;Node6</title>
<path fill="none" stroke="midnightblue" d="M258.14,-232.74C273.54,-233.05 290.45,-233.34 306,-233.5 367.54,-234.12 437.39,-234.07 488.57,-233.89"/>
<polygon fill="midnightblue" stroke="midnightblue" points="488.89,-237.39 498.88,-233.85 488.86,-230.39 488.89,-237.39"/>
</g>
<!-- Node7&#45;&gt;Node3 -->
<g id="edge9" class="edge">
<title>Node7&#45;&gt;Node3</title>
<path fill="none" stroke="midnightblue" d="M249.21,-197.57C256.29,-200.56 263.46,-203.9 270,-207.5 272.46,-208.85 329.85,-251.01 362.06,-274.71"/>
<polygon fill="midnightblue" stroke="midnightblue" points="360.28,-277.75 370.41,-280.86 364.43,-272.11 360.28,-277.75"/>
</g>
<!-- Node8 -->
<g id="node8" class="node">
<title>Node8</title>
<g id="a_node8"><a xlink:href="namespacegraph__theory.html#a2c4ec732b90bd1beb930f2dc68e47294" target="_top" xlink:title="Returns the size of the matching.">
<polygon fill="white" stroke="black" points="306,-167 306,-186 463,-186 463,-167 306,-167"/>
<text text-anchor="middle" x="384.5" y="-174" font-family="Helvetica,sans-Serif" font-size="10.00">graph_theory::matching_size</text>
</a>
</g>
</g>
<!-- Node7&#45;&gt;Node8 -->
<g id="edge10" class="edge">
<title>Node7&#45;&gt;Node8</title>
<path fill="none" stroke="midnightblue" d="M258.17,-180.75C269.93,-180.35 282.74,-179.92 295.53,-179.48"/>
<polygon fill="midnightblue" stroke="midnightblue" points="295.9,-182.97 305.77,-179.13 295.66,-175.98 295.9,-182.97"/>
</g>
<!-- Node9 -->
<g id="node9" class="node">
<title>Node9</title>
<g id="a_node9"><a xlink:href="namespacegraph__theory.html#a178da2acee19545ba0378a75ffea2fdb" target="_top" xlink:title=" ">
<polygon fill="white" stroke="black" points="312.5,-205 312.5,-224 456.5,-224 456.5,-205 312.5,-205"/>
<text text-anchor="middle" x="384.5" y="-212" font-family="Helvetica,sans-Serif" font-size="10.00">graph_theory::max_match</text>
</a>
</g>
</g>
<!-- Node7&#45;&gt;Node9 -->
<g id="edge11" class="edge">
<title>Node7&#45;&gt;Node9</title>
<path fill="none" stroke="midnightblue" d="M258.17,-191.84C277.81,-195.39 300.4,-199.48 320.95,-203.19"/>
<polygon fill="midnightblue" stroke="midnightblue" points="320.38,-206.65 330.84,-204.98 321.63,-199.76 320.38,-206.65"/>
</g>
<!-- Node9&#45;&gt;Node6 -->
<g id="edge12" class="edge">
<title>Node9&#45;&gt;Node6</title>
<path fill="none" stroke="midnightblue" d="M456.53,-222.15C467.12,-223.29 478.07,-224.46 488.71,-225.61"/>
<polygon fill="midnightblue" stroke="midnightblue" points="488.49,-229.11 498.8,-226.7 489.24,-222.15 488.49,-229.11"/>
</g>
<!-- Node11 -->
<g id="node11" class="node">
<title>Node11</title>
<g id="a_node11"><a xlink:href="namespacegraph__theory.html#a43f33335bd84b91252969b3b17f8b09d" target="_top" xlink:title=" ">
<polygon fill="white" stroke="black" points="332,-129 332,-148 437,-148 437,-129 332,-129"/>
<text text-anchor="middle" x="384.5" y="-136" font-family="Helvetica,sans-Serif" font-size="10.00">graph_theory::mst</text>
</a>
</g>
</g>
<!-- Node10&#45;&gt;Node11 -->
<g id="edge14" class="edge">
<title>Node10&#45;&gt;Node11</title>
<path fill="none" stroke="midnightblue" d="M270.4,-138.5C287.13,-138.5 305.13,-138.5 321.75,-138.5"/>
<polygon fill="midnightblue" stroke="midnightblue" points="321.89,-142 331.89,-138.5 321.89,-135 321.89,-142"/>
</g>
<!-- Node13 -->
<g id="node13" class="node">
<title>Node13</title>
<g id="a_node13"><a xlink:href="namespacegraph__theory.html#abf42c204d44caae5b7ea48d8261dfd9e" target="_top" xlink:title=" ">
<polygon fill="white" stroke="black" points="333.5,-91 333.5,-110 435.5,-110 435.5,-91 333.5,-91"/>
<text text-anchor="middle" x="384.5" y="-98" font-family="Helvetica,sans-Serif" font-size="10.00">graph_theory::scc</text>
</a>
</g>
</g>
<!-- Node12&#45;&gt;Node13 -->
<g id="edge16" class="edge">
<title>Node12&#45;&gt;Node13</title>
<path fill="none" stroke="midnightblue" d="M268.9,-100.5C286.54,-100.5 305.7,-100.5 323.21,-100.5"/>
<polygon fill="midnightblue" stroke="midnightblue" points="323.31,-104 333.31,-100.5 323.31,-97 323.31,-104"/>
</g>
<!-- Node14 -->
<g id="node14" class="node">
<title>Node14</title>
<g id="a_node14"><a xlink:href="namespacegraph__theory.html#af33d0502161df2d1b82be4b1e8dcaa13" target="_top" xlink:title=" ">
<polygon fill="white" stroke="black" points="507.5,-69 507.5,-88 618.5,-88 618.5,-69 507.5,-69"/>
<text text-anchor="middle" x="563" y="-76" font-family="Helvetica,sans-Serif" font-size="10.00">graph_theory::trans</text>
</a>
</g>
</g>
<!-- Node13&#45;&gt;Node14 -->
<g id="edge17" class="edge">
<title>Node13&#45;&gt;Node14</title>
<path fill="none" stroke="midnightblue" d="M435.61,-94.25C454.79,-91.86 476.94,-89.1 497.3,-86.56"/>
<polygon fill="midnightblue" stroke="midnightblue" points="497.95,-90.01 507.44,-85.3 497.08,-83.06 497.95,-90.01"/>
</g>
<!-- Node16 -->
<g id="node16" class="node">
<title>Node16</title>
<g id="a_node16"><a xlink:href="namespacegraph__theory.html#a934a24e545f14f58f25359de518e8d1d" target="_top" xlink:title=" ">
<polygon fill="white" stroke="black" points="310,-3 310,-22 459,-22 459,-3 310,-3"/>
<text text-anchor="middle" x="384.5" y="-10" font-family="Helvetica,sans-Serif" font-size="10.00">graph_theory::shortest_dist</text>
</a>
</g>
</g>
<!-- Node15&#45;&gt;Node16 -->
<g id="edge19" class="edge">
<title>Node15&#45;&gt;Node16</title>
<path fill="none" stroke="midnightblue" d="M258.17,-14.62C271.14,-14.4 285.4,-14.16 299.51,-13.92"/>
<polygon fill="midnightblue" stroke="midnightblue" points="299.79,-17.42 309.73,-13.75 299.67,-10.42 299.79,-17.42"/>
</g>
<!-- Node17&#45;&gt;Node14 -->
<g id="edge21" class="edge">
<title>Node17&#45;&gt;Node14</title>
<path fill="none" stroke="midnightblue" d="M437.03,-62.92C455.83,-65.27 477.34,-67.95 497.15,-70.42"/>
<polygon fill="midnightblue" stroke="midnightblue" points="496.98,-73.92 507.33,-71.69 497.84,-66.98 496.98,-73.92"/>
</g>
</g>
</svg>
        <g id="navigator" transform="translate(0 0)" fill="#404254">
                <rect fill="#f2f5e9" fill-opacity="0.5" stroke="#606060" stroke-width=".5" x="0" y="0" width="60" height="60"/>
                <use id="zoomplus" xlink:href="#zoomPlus" x="17" y="9" onmousedown="handleZoom(evt,'in')"/>
                <use id="zoomminus" xlink:href="#zoomMin" x="42" y="9" onmousedown="handleZoom(evt,'out')"/>
                <use id="reset" xlink:href="#resetDef" x="30" y="36" onmousedown="handleReset()"/>
                <g id="arrowUp" xlink:href="#dirArrow" transform="translate(30 24)" onmousedown="handlePan(0,-1)">
                  <use xlink:href="#rim" fill="#404040">
                        <set attributeName="fill" to="#808080" begin="arrowUp.mouseover" end="arrowUp.mouseout"/>
                  </use>
                  <path fill="none" stroke="white" stroke-width="1.5" d="M0,-3.0v7 M-2.5,-0.5L0,-3.0L2.5,-0.5"/>
                </g>
                <g id="arrowRight" xlink:href="#dirArrow" transform="rotate(90) translate(36 -43)" onmousedown="handlePan(1,0)">
                  <use xlink:href="#rim" fill="#404040">
                        <set attributeName="fill" to="#808080" begin="arrowRight.mouseover" end="arrowRight.mouseout"/>
                  </use>
                  <path fill="none" stroke="white" stroke-width="1.5" d="M0,-3.0v7 M-2.5,-0.5L0,-3.0L2.5,-0.5"/>
                </g>
                <g id="arrowDown" xlink:href="#dirArrow" transform="rotate(180) translate(-30 -48)" onmousedown="handlePan(0,1)">
                  <use xlink:href="#rim" fill="#404040">
                        <set attributeName="fill" to="#808080" begin="arrowDown.mouseover" end="arrowDown.mouseout"/>
                  </use>
                  <path fill="none" stroke="white" stroke-width="1.5" d="M0,-3.0v7 M-2.5,-0.5L0,-3.0L2.5,-0.5"/>
                </g>
                <g id="arrowLeft" xlink:href="#dirArrow" transform="rotate(270) translate(-36 17)" onmousedown="handlePan(-1,0)">
                  <use xlink:href="#rim" fill="#404040">
                        <set attributeName="fill" to="#808080" begin="arrowLeft.mouseover" end="arrowLeft.mouseout"/>
                  </use>
                  <path fill="none" stroke="white" stroke-width="1.5" d="M0,-3.0v7 M-2.5,-0.5L0,-3.0L2.5,-0.5"/>
                </g>
        </g>
        <svg viewBox="0 0 15 15" width="100%" height="30px" preserveAspectRatio="xMaxYMin meet">
         <g id="arrow_out" transform="scale(0.3 0.3)">
          <a xlink:href="namespacegraph__theory_aa2b38897f4c429325f0eb73b1137755a_cgraph_org.svg" target="_base">
           <rect id="button" ry="5" rx="5" y="6" x="6" height="38" width="38"
                fill="#f2f5e9" fill-opacity="0.5" stroke="#606060" stroke-width="1.0"/>
           <path id="arrow"
             d="M 11.500037,31.436501 C 11.940474,20.09759 22.043105,11.32322 32.158766,21.979434 L 37.068811,17.246167 C 37.068811,17.246167 37.088388,32 37.088388,32 L 22.160133,31.978069 C 22.160133,31.978069 26.997745,27.140456 26.997745,27.140456 C 18.528582,18.264221 13.291696,25.230495 11.500037,31.436501 z"
             style="fill:#404040;"/>
          </a>
         </g>
        </svg>
</svg>
