<?xml version="1.0" encoding="UTF-8" standalone="no"?>
<!DOCTYPE svg PUBLIC "-//W3C//DTD SVG 1.1//EN"
 "http://www.w3.org/Graphics/SVG/1.1/DTD/svg11.dtd">
<!-- Generated by graphviz version 2.43.0 (0)
 -->
<!-- Title: utility::map_args Pages: 1 -->
<!--zoomable 142 -->
<svg id="main" version="1.1" xmlns="http://www.w3.org/2000/svg" xmlns:xlink="http://www.w3.org/1999/xlink" xml:space="preserve" onload="init(evt)">
<style type="text/css"><![CDATA[
.edge:hover path { stroke: red; }
.edge:hover polygon { stroke: red; fill: red; }
]]></style>
<script type="text/javascript"><![CDATA[
var edges = document.getElementsByTagName('g');
if (edges && edges.length) {
  for (var i=0;i<edges.length;i++) {
    if (edges[i].id.substr(0,4)=='edge') {
      edges[i].setAttribute('class','edge');
    }
  }
}
]]></script>
        <defs>
                <circle id="rim" cx="0" cy="0" r="7"/>
                <circle id="rim2" cx="0" cy="0" r="3.5"/>
                <g id="zoomPlus">
                        <use xlink:href="#rim" fill="#404040">
                                <set attributeName="fill" to="#808080" begin="zoomplus.mouseover" end="zoomplus.mouseout"/>
                        </use>
                        <path d="M-4,0h8M0,-4v8" fill="none" stroke="white" stroke-width="1.5" pointer-events="none"/>
                </g>
                <g id="zoomMin">
                        <use xlink:href="#rim" fill="#404040">
                                <set attributeName="fill" to="#808080" begin="zoomminus.mouseover" end="zoomminus.mouseout"/>
                        </use>
                        <path d="M-4,0h8" fill="none" stroke="white" stroke-width="1.5" pointer-events="none"/>
                </g>
                <g id="dirArrow">
                        <path fill="none" stroke="white" stroke-width="1.5" d="M0,-3.0v7 M-2.5,-0.5L0,-3.0L2.5,-0.5"/>
                </g>
               <g id="resetDef">
                       <use xlink:href="#rim2" fill="#404040">
                               <set attributeName="fill" to="#808080" begin="reset.mouseover" end="reset.mouseout"/>
                       </use>
               </g>
        </defs>

<script type="text/javascript">
var viewWidth = 836;
var viewHeight = 142;
var sectionId = 'dynsection-0';
</script>
<script xlink:href="svgpan.js"/>
<svg id="graph" class="graph">
<g id="viewport">
<title>utility::map_args</title>
<polygon fill="white" stroke="transparent" points="-4,4 -4,-138.07 832,-138.07 832,4 -4,4"/>
<!-- Node1 -->
<g id="node1" class="node">
<title>Node1</title>
<g id="a_node1"><a xlink:title=" ">
<polygon fill="#bfbfbf" stroke="black" points="730,-66.5 730,-85.5 828,-85.5 828,-66.5 730,-66.5"/>
<text text-anchor="middle" x="779" y="-73.5" font-family="Helvetica,sans-Serif" font-size="10.00">utility::map_args</text>
</a>
</g>
</g>
<!-- Node2 -->
<g id="node2" class="node">
<title>Node2</title>
<g id="a_node2"><a xlink:href="structgeometry_1_1cht.html#aba1f183ba70cc4a50970ed2f127c1b6a" target="_top" xlink:title=" ">
<polygon fill="white" stroke="black" points="428,-113.5 428,-132.5 533,-132.5 533,-113.5 428,-113.5"/>
<text text-anchor="middle" x="480.5" y="-120.5" font-family="Helvetica,sans-Serif" font-size="10.00">geometry::cht::cht</text>
</a>
</g>
</g>
<!-- Node1&#45;&gt;Node2 -->
<g id="edge1" class="edge">
<title>Node1&#45;&gt;Node2</title>
<path fill="none" stroke="midnightblue" d="M757.58,-91.37C741.32,-102.6 717.47,-116.88 694,-123 640.45,-136.96 576.7,-134.56 533.09,-130.18"/>
<polygon fill="midnightblue" stroke="midnightblue" points="759.68,-94.17 765.79,-85.52 755.61,-88.48 759.68,-94.17"/>
</g>
<!-- Node3 -->
<g id="node3" class="node">
<title>Node3</title>
<g id="a_node3"><a xlink:href="namespacegeometry.html#a0cef2145f28cbec7c561075942baf6e3" target="_top" xlink:title=" ">
<polygon fill="white" stroke="black" points="589.5,-94.5 589.5,-113.5 676.5,-113.5 676.5,-94.5 589.5,-94.5"/>
<text text-anchor="middle" x="633" y="-101.5" font-family="Helvetica,sans-Serif" font-size="10.00">geometry::hull</text>
</a>
</g>
</g>
<!-- Node1&#45;&gt;Node3 -->
<g id="edge2" class="edge">
<title>Node1&#45;&gt;Node3</title>
<path fill="none" stroke="midnightblue" d="M719.82,-87.31C705.39,-90.12 690.2,-93.07 676.67,-95.7"/>
<polygon fill="midnightblue" stroke="midnightblue" points="720.5,-90.75 729.65,-85.4 719.17,-83.87 720.5,-90.75"/>
</g>
<!-- Node9 -->
<g id="node9" class="node">
<title>Node9</title>
<g id="a_node9"><a xlink:href="geometry_8hpp.html#a18b063c150d95a5ec77dab71218c4f48" target="_top" xlink:title=" ">
<polygon fill="white" stroke="black" points="589.5,-38.5 589.5,-57.5 676.5,-57.5 676.5,-38.5 589.5,-38.5"/>
<text text-anchor="middle" x="633" y="-45.5" font-family="Helvetica,sans-Serif" font-size="10.00">std::operator&lt;</text>
</a>
</g>
</g>
<!-- Node1&#45;&gt;Node9 -->
<g id="edge9" class="edge">
<title>Node1&#45;&gt;Node9</title>
<path fill="none" stroke="midnightblue" d="M719.82,-64.69C705.39,-61.88 690.2,-58.93 676.67,-56.3"/>
<polygon fill="midnightblue" stroke="midnightblue" points="719.17,-68.13 729.65,-66.6 720.5,-61.25 719.17,-68.13"/>
</g>
<!-- Node10 -->
<g id="node10" class="node">
<title>Node10</title>
<g id="a_node10"><a xlink:href="namespaceutility.html#ab69832291ff66469b755de5c5e5d6700" target="_top" xlink:title=" ">
<polygon fill="white" stroke="black" points="572,-0.5 572,-19.5 694,-19.5 694,-0.5 572,-0.5"/>
<text text-anchor="middle" x="633" y="-7.5" font-family="Helvetica,sans-Serif" font-size="10.00">utility::test_map_args</text>
</a>
</g>
</g>
<!-- Node1&#45;&gt;Node10 -->
<g id="edge11" class="edge">
<title>Node1&#45;&gt;Node10</title>
<path fill="none" stroke="midnightblue" d="M754.08,-60.89C737.62,-50.93 715.03,-38.1 694,-29 685.88,-25.49 676.89,-22.29 668.39,-19.57"/>
<polygon fill="midnightblue" stroke="midnightblue" points="752.64,-64.12 763,-66.37 756.31,-58.15 752.64,-64.12"/>
</g>
<!-- Node3&#45;&gt;Node2 -->
<g id="edge3" class="edge">
<title>Node3&#45;&gt;Node2</title>
<path fill="none" stroke="midnightblue" d="M579.18,-110.67C564.24,-112.55 548.02,-114.6 533.15,-116.48"/>
<polygon fill="midnightblue" stroke="midnightblue" points="579.79,-114.12 589.28,-109.39 578.92,-107.17 579.79,-114.12"/>
</g>
<!-- Node4 -->
<g id="node4" class="node">
<title>Node4</title>
<g id="a_node4"><a xlink:href="namespacegeometry.html#a27118bb54df18fa8cdda0a971ad58027" target="_top" xlink:title=" ">
<polygon fill="white" stroke="black" points="425,-74.5 425,-93.5 536,-93.5 536,-74.5 425,-74.5"/>
<text text-anchor="middle" x="480.5" y="-81.5" font-family="Helvetica,sans-Serif" font-size="10.00">geometry::test_hull</text>
</a>
</g>
</g>
<!-- Node3&#45;&gt;Node4 -->
<g id="edge4" class="edge">
<title>Node3&#45;&gt;Node4</title>
<path fill="none" stroke="midnightblue" d="M579.34,-97C565.36,-95.14 550.25,-93.14 536.17,-91.27"/>
<polygon fill="midnightblue" stroke="midnightblue" points="578.9,-100.47 589.28,-98.32 579.82,-93.54 578.9,-100.47"/>
</g>
<!-- Node5 -->
<g id="node5" class="node">
<title>Node5</title>
<g id="a_node5"><a xlink:href="namespacegeometry.html#aad3419586eb6065d81469c30417d5530" target="_top" xlink:title=" ">
<polygon fill="white" stroke="black" points="249,-72.5 249,-91.5 389,-91.5 389,-72.5 249,-72.5"/>
<text text-anchor="middle" x="319" y="-79.5" font-family="Helvetica,sans-Serif" font-size="10.00">geometry::test_geometry</text>
</a>
</g>
</g>
<!-- Node4&#45;&gt;Node5 -->
<g id="edge5" class="edge">
<title>Node4&#45;&gt;Node5</title>
<path fill="none" stroke="midnightblue" d="M414.52,-83.19C406.14,-83.08 397.53,-82.97 389.08,-82.87"/>
<polygon fill="midnightblue" stroke="midnightblue" points="414.57,-86.69 424.61,-83.31 414.65,-79.69 414.57,-86.69"/>
</g>
<!-- Node6 -->
<g id="node6" class="node">
<title>Node6</title>
<g id="a_node6"><a xlink:href="test_8cpp.html#aa1c715cac916839a95e25b65b4071c4a" target="_top" xlink:title=" ">
<polygon fill="white" stroke="black" points="160,-49.5 160,-68.5 213,-68.5 213,-49.5 160,-49.5"/>
<text text-anchor="middle" x="186.5" y="-56.5" font-family="Helvetica,sans-Serif" font-size="10.00">test_all</text>
</a>
</g>
</g>
<!-- Node5&#45;&gt;Node6 -->
<g id="edge6" class="edge">
<title>Node5&#45;&gt;Node6</title>
<path fill="none" stroke="midnightblue" d="M253.86,-70.7C239.45,-68.16 224.97,-65.6 213.23,-63.54"/>
<polygon fill="midnightblue" stroke="midnightblue" points="253.33,-74.16 263.79,-72.45 254.55,-67.26 253.33,-74.16"/>
</g>
<!-- Node7 -->
<g id="node7" class="node">
<title>Node7</title>
<g id="a_node7"><a xlink:href="test_8cpp.html#af095a232149097b5605064623a9345ac" target="_top" xlink:title=" ">
<polygon fill="white" stroke="black" points="77,-49.5 77,-68.5 124,-68.5 124,-49.5 77,-49.5"/>
<text text-anchor="middle" x="100.5" y="-56.5" font-family="Helvetica,sans-Serif" font-size="10.00">main2</text>
</a>
</g>
</g>
<!-- Node6&#45;&gt;Node7 -->
<g id="edge7" class="edge">
<title>Node6&#45;&gt;Node7</title>
<path fill="none" stroke="midnightblue" d="M149.59,-59C140.96,-59 131.99,-59 124.16,-59"/>
<polygon fill="midnightblue" stroke="midnightblue" points="149.84,-62.5 159.84,-59 149.84,-55.5 149.84,-62.5"/>
</g>
<!-- Node8 -->
<g id="node8" class="node">
<title>Node8</title>
<g id="a_node8"><a xlink:href="main_8hpp.html#a0ddf1224851353fc92bfbff6f499fa97" target="_top" xlink:title=" ">
<polygon fill="white" stroke="black" points="0,-49.5 0,-68.5 41,-68.5 41,-49.5 0,-49.5"/>
<text text-anchor="middle" x="20.5" y="-56.5" font-family="Helvetica,sans-Serif" font-size="10.00">main</text>
</a>
</g>
</g>
<!-- Node7&#45;&gt;Node8 -->
<g id="edge8" class="edge">
<title>Node7&#45;&gt;Node8</title>
<path fill="none" stroke="midnightblue" d="M66.66,-59C57.96,-59 48.84,-59 41.1,-59"/>
<polygon fill="midnightblue" stroke="midnightblue" points="66.94,-62.5 76.94,-59 66.94,-55.5 66.94,-62.5"/>
</g>
<!-- Node9&#45;&gt;Node9 -->
<g id="edge10" class="edge">
<title>Node9&#45;&gt;Node9</title>
<path fill="none" stroke="midnightblue" d="M660.25,-66.65C659.11,-71.94 650.03,-76 633,-76 607.05,-76 599.55,-66.57 610.5,-57.76"/>
<polygon fill="midnightblue" stroke="midnightblue" points="663.3,-64.93 655.5,-57.76 657.12,-68.23 663.3,-64.93"/>
</g>
<!-- Node11 -->
<g id="node11" class="node">
<title>Node11</title>
<g id="a_node11"><a xlink:href="namespaceutility.html#a5037ce073dfbaeaf7083a725780cdaf1" target="_top" xlink:title=" ">
<polygon fill="white" stroke="black" points="267.5,-30.5 267.5,-49.5 370.5,-49.5 370.5,-30.5 267.5,-30.5"/>
<text text-anchor="middle" x="319" y="-37.5" font-family="Helvetica,sans-Serif" font-size="10.00">utility::test_utility</text>
</a>
</g>
</g>
<!-- Node10&#45;&gt;Node11 -->
<g id="edge12" class="edge">
<title>Node10&#45;&gt;Node11</title>
<path fill="none" stroke="midnightblue" d="M561.64,-16.77C503.57,-22.35 422.56,-30.14 370.69,-35.13"/>
<polygon fill="midnightblue" stroke="midnightblue" points="562.22,-20.23 571.84,-15.78 561.55,-13.26 562.22,-20.23"/>
</g>
<!-- Node11&#45;&gt;Node6 -->
<g id="edge13" class="edge">
<title>Node11&#45;&gt;Node6</title>
<path fill="none" stroke="midnightblue" d="M257.1,-48.87C241.64,-51.12 225.86,-53.42 213.24,-55.25"/>
<polygon fill="midnightblue" stroke="midnightblue" points="257.78,-52.3 267.17,-47.4 256.77,-45.38 257.78,-52.3"/>
</g>
</g>
</svg>
        <g id="navigator" transform="translate(0 0)" fill="#404254">
                <rect fill="#f2f5e9" fill-opacity="0.5" stroke="#606060" stroke-width=".5" x="0" y="0" width="60" height="60"/>
                <use id="zoomplus" xlink:href="#zoomPlus" x="17" y="9" onmousedown="handleZoom(evt,'in')"/>
                <use id="zoomminus" xlink:href="#zoomMin" x="42" y="9" onmousedown="handleZoom(evt,'out')"/>
                <use id="reset" xlink:href="#resetDef" x="30" y="36" onmousedown="handleReset()"/>
                <g id="arrowUp" xlink:href="#dirArrow" transform="translate(30 24)" onmousedown="handlePan(0,-1)">
                  <use xlink:href="#rim" fill="#404040">
                        <set attributeName="fill" to="#808080" begin="arrowUp.mouseover" end="arrowUp.mouseout"/>
                  </use>
                  <path fill="none" stroke="white" stroke-width="1.5" d="M0,-3.0v7 M-2.5,-0.5L0,-3.0L2.5,-0.5"/>
                </g>
                <g id="arrowRight" xlink:href="#dirArrow" transform="rotate(90) translate(36 -43)" onmousedown="handlePan(1,0)">
                  <use xlink:href="#rim" fill="#404040">
                        <set attributeName="fill" to="#808080" begin="arrowRight.mouseover" end="arrowRight.mouseout"/>
                  </use>
                  <path fill="none" stroke="white" stroke-width="1.5" d="M0,-3.0v7 M-2.5,-0.5L0,-3.0L2.5,-0.5"/>
                </g>
                <g id="arrowDown" xlink:href="#dirArrow" transform="rotate(180) translate(-30 -48)" onmousedown="handlePan(0,1)">
                  <use xlink:href="#rim" fill="#404040">
                        <set attributeName="fill" to="#808080" begin="arrowDown.mouseover" end="arrowDown.mouseout"/>
                  </use>
                  <path fill="none" stroke="white" stroke-width="1.5" d="M0,-3.0v7 M-2.5,-0.5L0,-3.0L2.5,-0.5"/>
                </g>
                <g id="arrowLeft" xlink:href="#dirArrow" transform="rotate(270) translate(-36 17)" onmousedown="handlePan(-1,0)">
                  <use xlink:href="#rim" fill="#404040">
                        <set attributeName="fill" to="#808080" begin="arrowLeft.mouseover" end="arrowLeft.mouseout"/>
                  </use>
                  <path fill="none" stroke="white" stroke-width="1.5" d="M0,-3.0v7 M-2.5,-0.5L0,-3.0L2.5,-0.5"/>
                </g>
        </g>
        <svg viewBox="0 0 15 15" width="100%" height="30px" preserveAspectRatio="xMaxYMin meet">
         <g id="arrow_out" transform="scale(0.3 0.3)">
          <a xlink:href="namespaceutility_a3bd1495c0bc9744b584e2294d8cb4693_icgraph_org.svg" target="_base">
           <rect id="button" ry="5" rx="5" y="6" x="6" height="38" width="38"
                fill="#f2f5e9" fill-opacity="0.5" stroke="#606060" stroke-width="1.0"/>
           <path id="arrow"
             d="M 11.500037,31.436501 C 11.940474,20.09759 22.043105,11.32322 32.158766,21.979434 L 37.068811,17.246167 C 37.068811,17.246167 37.088388,32 37.088388,32 L 22.160133,31.978069 C 22.160133,31.978069 26.997745,27.140456 26.997745,27.140456 C 18.528582,18.264221 13.291696,25.230495 11.500037,31.436501 z"
             style="fill:#404040;"/>
          </a>
         </g>
        </svg>
</svg>
