<?xml version="1.0" encoding="UTF-8" standalone="no"?>
<!DOCTYPE svg PUBLIC "-//W3C//DTD SVG 1.1//EN"
 "http://www.w3.org/Graphics/SVG/1.1/DTD/svg11.dtd">
<!-- Generated by graphviz version 2.43.0 (0)
 -->
<!-- Title: modulo_namespace::power Pages: 1 -->
<svg width="769pt" height="127pt"
 viewBox="0.00 0.00 769.00 126.50" xmlns="http://www.w3.org/2000/svg" xmlns:xlink="http://www.w3.org/1999/xlink">
<g id="graph0" class="graph" transform="scale(1 1) rotate(0) translate(4 122.5)">
<title>modulo_namespace::power</title>
<polygon fill="white" stroke="transparent" points="-4,4 -4,-122.5 765,-122.5 765,4 -4,4"/>
<!-- Node1 -->
<g id="node1" class="node">
<title>Node1</title>
<g id="a_node1"><a xlink:title="Returns .">
<polygon fill="#bfbfbf" stroke="black" points="610,-77 610,-96 761,-96 761,-77 610,-77"/>
<text text-anchor="middle" x="685.5" y="-84" font-family="Helvetica,sans-Serif" font-size="10.00">modulo_namespace::power</text>
</a>
</g>
</g>
<!-- Node2 -->
<g id="node2" class="node">
<title>Node2</title>
<g id="a_node2"><a xlink:href="namespacemodulo__namespace.html#aac690d54b7665a90ca461724df8907c0" target="_top" xlink:title=" ">
<polygon fill="white" stroke="black" points="425,-99 425,-118 574,-118 574,-99 425,-99"/>
<text text-anchor="middle" x="499.5" y="-106" font-family="Helvetica,sans-Serif" font-size="10.00">modulo_namespace::invert</text>
</a>
</g>
</g>
<!-- Node1&#45;&gt;Node2 -->
<g id="edge1" class="edge">
<title>Node1&#45;&gt;Node2</title>
<path fill="none" stroke="midnightblue" d="M599.83,-89.89C576.97,-92.51 553.49,-95.75 535.11,-98.95"/>
<polygon fill="midnightblue" stroke="midnightblue" points="600.37,-93.35 609.93,-88.78 599.6,-86.4 600.37,-93.35"/>
</g>
<!-- Node3 -->
<g id="node3" class="node">
<title>Node3</title>
<g id="a_node3"><a xlink:href="namespacemodulo__namespace_1_1test.html#a528d9ed1db3200393555b3dc75036599" target="_top" xlink:title=" ">
<polygon fill="white" stroke="black" points="429.5,-49.5 429.5,-79.5 569.5,-79.5 569.5,-49.5 429.5,-49.5"/>
<text text-anchor="start" x="437.5" y="-67.5" font-family="Helvetica,sans-Serif" font-size="10.00">modulo_namespace::test</text>
<text text-anchor="middle" x="499.5" y="-56.5" font-family="Helvetica,sans-Serif" font-size="10.00">::test_power</text>
</a>
</g>
</g>
<!-- Node1&#45;&gt;Node3 -->
<g id="edge3" class="edge">
<title>Node1&#45;&gt;Node3</title>
<path fill="none" stroke="midnightblue" d="M599.84,-76.38C589.69,-75.16 579.42,-73.94 569.54,-72.75"/>
<polygon fill="midnightblue" stroke="midnightblue" points="599.58,-79.87 609.93,-77.58 600.41,-72.92 599.58,-79.87"/>
</g>
<!-- Node8 -->
<g id="node8" class="node">
<title>Node8</title>
<g id="a_node8"><a xlink:href="namespacepermutation_1_1test.html#a79866de5f43125b4ac233cdc1bae579e" target="_top" xlink:title=" ">
<polygon fill="white" stroke="black" points="446,-0.5 446,-30.5 553,-30.5 553,-0.5 446,-0.5"/>
<text text-anchor="start" x="454" y="-18.5" font-family="Helvetica,sans-Serif" font-size="10.00">permutation::test::</text>
<text text-anchor="middle" x="499.5" y="-7.5" font-family="Helvetica,sans-Serif" font-size="10.00">test_power</text>
</a>
</g>
</g>
<!-- Node1&#45;&gt;Node8 -->
<g id="edge8" class="edge">
<title>Node1&#45;&gt;Node8</title>
<path fill="none" stroke="midnightblue" d="M654.35,-72.84C632.3,-63.06 601.54,-49.83 574,-39.5 565.83,-36.44 557.07,-33.38 548.55,-30.53"/>
<polygon fill="midnightblue" stroke="midnightblue" points="652.98,-76.06 663.54,-76.94 655.83,-69.67 652.98,-76.06"/>
</g>
<!-- Node2&#45;&gt;Node1 -->
<g id="edge2" class="edge">
<title>Node2&#45;&gt;Node1</title>
<path fill="none" stroke="midnightblue" d="M584.4,-105.2C607.51,-102.57 631.3,-99.28 649.89,-96.05"/>
<polygon fill="midnightblue" stroke="midnightblue" points="583.76,-101.74 574.2,-106.32 584.53,-108.7 583.76,-101.74"/>
</g>
<!-- Node4 -->
<g id="node4" class="node">
<title>Node4</title>
<g id="a_node4"><a xlink:href="namespacemodulo__namespace_1_1test.html#a1574d4c610506ea86664c88fc549aedf" target="_top" xlink:title=" ">
<polygon fill="white" stroke="black" points="249,-49.5 249,-79.5 389,-79.5 389,-49.5 249,-49.5"/>
<text text-anchor="start" x="257" y="-67.5" font-family="Helvetica,sans-Serif" font-size="10.00">modulo_namespace::test</text>
<text text-anchor="middle" x="319" y="-56.5" font-family="Helvetica,sans-Serif" font-size="10.00">::test_modulo</text>
</a>
</g>
</g>
<!-- Node3&#45;&gt;Node4 -->
<g id="edge4" class="edge">
<title>Node3&#45;&gt;Node4</title>
<path fill="none" stroke="midnightblue" d="M419.46,-64.5C409.35,-64.5 399.06,-64.5 389.12,-64.5"/>
<polygon fill="midnightblue" stroke="midnightblue" points="419.49,-68 429.49,-64.5 419.49,-61 419.49,-68"/>
</g>
<!-- Node5 -->
<g id="node5" class="node">
<title>Node5</title>
<g id="a_node5"><a xlink:href="test_8cpp.html#aa1c715cac916839a95e25b65b4071c4a" target="_top" xlink:title=" ">
<polygon fill="white" stroke="black" points="160,-30 160,-49 213,-49 213,-30 160,-30"/>
<text text-anchor="middle" x="186.5" y="-37" font-family="Helvetica,sans-Serif" font-size="10.00">test_all</text>
</a>
</g>
</g>
<!-- Node4&#45;&gt;Node5 -->
<g id="edge5" class="edge">
<title>Node4&#45;&gt;Node5</title>
<path fill="none" stroke="midnightblue" d="M239.07,-49.38C229.72,-47.59 220.76,-45.87 213,-44.39"/>
<polygon fill="midnightblue" stroke="midnightblue" points="238.45,-52.82 248.93,-51.27 239.77,-45.95 238.45,-52.82"/>
</g>
<!-- Node6 -->
<g id="node6" class="node">
<title>Node6</title>
<g id="a_node6"><a xlink:href="test_8cpp.html#af095a232149097b5605064623a9345ac" target="_top" xlink:title=" ">
<polygon fill="white" stroke="black" points="77,-30 77,-49 124,-49 124,-30 77,-30"/>
<text text-anchor="middle" x="100.5" y="-37" font-family="Helvetica,sans-Serif" font-size="10.00">main2</text>
</a>
</g>
</g>
<!-- Node5&#45;&gt;Node6 -->
<g id="edge6" class="edge">
<title>Node5&#45;&gt;Node6</title>
<path fill="none" stroke="midnightblue" d="M149.59,-39.5C140.96,-39.5 131.99,-39.5 124.16,-39.5"/>
<polygon fill="midnightblue" stroke="midnightblue" points="149.84,-43 159.84,-39.5 149.84,-36 149.84,-43"/>
</g>
<!-- Node7 -->
<g id="node7" class="node">
<title>Node7</title>
<g id="a_node7"><a xlink:href="main_8hpp.html#a0ddf1224851353fc92bfbff6f499fa97" target="_top" xlink:title=" ">
<polygon fill="white" stroke="black" points="0,-30 0,-49 41,-49 41,-30 0,-30"/>
<text text-anchor="middle" x="20.5" y="-37" font-family="Helvetica,sans-Serif" font-size="10.00">main</text>
</a>
</g>
</g>
<!-- Node6&#45;&gt;Node7 -->
<g id="edge7" class="edge">
<title>Node6&#45;&gt;Node7</title>
<path fill="none" stroke="midnightblue" d="M66.66,-39.5C57.96,-39.5 48.84,-39.5 41.1,-39.5"/>
<polygon fill="midnightblue" stroke="midnightblue" points="66.94,-43 76.94,-39.5 66.94,-36 66.94,-43"/>
</g>
<!-- Node9 -->
<g id="node9" class="node">
<title>Node9</title>
<g id="a_node9"><a xlink:href="namespacepermutation_1_1test.html#a35c04b3a3683be26d7eb0723d772fad4" target="_top" xlink:title=" ">
<polygon fill="white" stroke="black" points="265.5,-0.5 265.5,-30.5 372.5,-30.5 372.5,-0.5 265.5,-0.5"/>
<text text-anchor="start" x="273.5" y="-18.5" font-family="Helvetica,sans-Serif" font-size="10.00">permutation::test::</text>
<text text-anchor="middle" x="319" y="-7.5" font-family="Helvetica,sans-Serif" font-size="10.00">test_permutation</text>
</a>
</g>
</g>
<!-- Node8&#45;&gt;Node9 -->
<g id="edge9" class="edge">
<title>Node8&#45;&gt;Node9</title>
<path fill="none" stroke="midnightblue" d="M435.65,-15.5C415.02,-15.5 392.31,-15.5 372.52,-15.5"/>
<polygon fill="midnightblue" stroke="midnightblue" points="435.91,-19 445.91,-15.5 435.91,-12 435.91,-19"/>
</g>
<!-- Node9&#45;&gt;Node5 -->
<g id="edge10" class="edge">
<title>Node9&#45;&gt;Node5</title>
<path fill="none" stroke="midnightblue" d="M255.09,-27.07C240.25,-29.8 225.25,-32.56 213.17,-34.78"/>
<polygon fill="midnightblue" stroke="midnightblue" points="256.09,-30.44 265.3,-25.19 254.83,-23.56 256.09,-30.44"/>
</g>
</g>
</svg>
