<?xml version="1.0" encoding="UTF-8" standalone="no"?>
<!DOCTYPE svg PUBLIC "-//W3C//DTD SVG 1.1//EN"
 "http://www.w3.org/Graphics/SVG/1.1/DTD/svg11.dtd">
<!-- Generated by graphviz version 2.43.0 (0)
 -->
<!-- Title: convex_hull_trick::wedge Pages: 1 -->
<!--zoomable 173 -->
<svg id="main" version="1.1" xmlns="http://www.w3.org/2000/svg" xmlns:xlink="http://www.w3.org/1999/xlink" xml:space="preserve" onload="init(evt)">
<style type="text/css"><![CDATA[
.edge:hover path { stroke: red; }
.edge:hover polygon { stroke: red; fill: red; }
]]></style>
<script type="text/javascript"><![CDATA[
var edges = document.getElementsByTagName('g');
if (edges && edges.length) {
  for (var i=0;i<edges.length;i++) {
    if (edges[i].id.substr(0,4)=='edge') {
      edges[i].setAttribute('class','edge');
    }
  }
}
]]></script>
        <defs>
                <circle id="rim" cx="0" cy="0" r="7"/>
                <circle id="rim2" cx="0" cy="0" r="3.5"/>
                <g id="zoomPlus">
                        <use xlink:href="#rim" fill="#404040">
                                <set attributeName="fill" to="#808080" begin="zoomplus.mouseover" end="zoomplus.mouseout"/>
                        </use>
                        <path d="M-4,0h8M0,-4v8" fill="none" stroke="white" stroke-width="1.5" pointer-events="none"/>
                </g>
                <g id="zoomMin">
                        <use xlink:href="#rim" fill="#404040">
                                <set attributeName="fill" to="#808080" begin="zoomminus.mouseover" end="zoomminus.mouseout"/>
                        </use>
                        <path d="M-4,0h8" fill="none" stroke="white" stroke-width="1.5" pointer-events="none"/>
                </g>
                <g id="dirArrow">
                        <path fill="none" stroke="white" stroke-width="1.5" d="M0,-3.0v7 M-2.5,-0.5L0,-3.0L2.5,-0.5"/>
                </g>
               <g id="resetDef">
                       <use xlink:href="#rim2" fill="#404040">
                               <set attributeName="fill" to="#808080" begin="reset.mouseover" end="reset.mouseout"/>
                       </use>
               </g>
        </defs>

<script type="text/javascript">
var viewWidth = 1060;
var viewHeight = 173;
var sectionId = 'dynsection-8';
</script>
<script xlink:href="svgpan.js"/>
<svg id="graph" class="graph">
<g id="viewport">
<title>convex_hull_trick::wedge</title>
<polygon fill="white" stroke="transparent" points="-4,4 -4,-169 1056,-169 1056,4 -4,4"/>
<!-- Node1 -->
<g id="node1" class="node">
<title>Node1</title>
<g id="a_node1"><a xlink:title=" ">
<polygon fill="#bfbfbf" stroke="black" points="944,-22.5 944,-52.5 1052,-52.5 1052,-22.5 944,-22.5"/>
<text text-anchor="start" x="952" y="-40.5" font-family="Helvetica,sans-Serif" font-size="10.00">convex_hull_trick::</text>
<text text-anchor="middle" x="998" y="-29.5" font-family="Helvetica,sans-Serif" font-size="10.00">wedge</text>
</a>
</g>
</g>
<!-- Node2 -->
<g id="node2" class="node">
<title>Node2</title>
<g id="a_node2"><a xlink:href="namespaceconvex__hull__trick.html#abeaee6745d46728e8edf0f80a1e92ddf" target="_top" xlink:title=" ">
<polygon fill="white" stroke="black" points="778,-48 778,-67 908,-67 908,-48 778,-48"/>
<text text-anchor="middle" x="843" y="-55" font-family="Helvetica,sans-Serif" font-size="10.00">convex_hull_trick::area</text>
</a>
</g>
</g>
<!-- Node1&#45;&gt;Node2 -->
<g id="edge1" class="edge">
<title>Node1&#45;&gt;Node2</title>
<path fill="none" stroke="midnightblue" d="M934,-45.74C925.43,-46.85 916.64,-48 908.06,-49.13"/>
<polygon fill="midnightblue" stroke="midnightblue" points="934.46,-49.21 943.92,-44.44 933.55,-42.26 934.46,-49.21"/>
</g>
<!-- Node11 -->
<g id="node11" class="node">
<title>Node11</title>
<g id="a_node11"><a xlink:href="namespaceconvex__hull__trick_1_1test.html#a84a3352ebc4eb5a1f911bb8e8d1af61d" target="_top" xlink:title=" ">
<polygon fill="white" stroke="black" points="624.5,-0.5 624.5,-30.5 732.5,-30.5 732.5,-0.5 624.5,-0.5"/>
<text text-anchor="start" x="632.5" y="-18.5" font-family="Helvetica,sans-Serif" font-size="10.00">convex_hull_trick::</text>
<text text-anchor="middle" x="678.5" y="-7.5" font-family="Helvetica,sans-Serif" font-size="10.00">test::test_wedge</text>
</a>
</g>
</g>
<!-- Node1&#45;&gt;Node11 -->
<g id="edge11" class="edge">
<title>Node1&#45;&gt;Node11</title>
<path fill="none" stroke="midnightblue" d="M933.56,-33.1C874.63,-29.02 787.89,-23.01 732.55,-19.18"/>
<polygon fill="midnightblue" stroke="midnightblue" points="933.64,-36.62 943.86,-33.82 934.12,-29.63 933.64,-36.62"/>
</g>
<!-- Node3 -->
<g id="node3" class="node">
<title>Node3</title>
<g id="a_node3"><a xlink:href="namespaceconvex__hull__trick.html#a09a415224250703a38ef6bd668e1cac5" target="_top" xlink:title="Returns whether moving through &#160;is counterclockwise.">
<polygon fill="white" stroke="black" points="615,-50 615,-69 742,-69 742,-50 615,-50"/>
<text text-anchor="middle" x="678.5" y="-57" font-family="Helvetica,sans-Serif" font-size="10.00">convex_hull_trick::ccw</text>
</a>
</g>
</g>
<!-- Node2&#45;&gt;Node3 -->
<g id="edge2" class="edge">
<title>Node2&#45;&gt;Node3</title>
<path fill="none" stroke="midnightblue" d="M767.52,-58.42C759.05,-58.52 750.49,-58.63 742.2,-58.73"/>
<polygon fill="midnightblue" stroke="midnightblue" points="767.82,-61.91 777.78,-58.29 767.73,-54.91 767.82,-61.91"/>
</g>
<!-- Node4 -->
<g id="node4" class="node">
<title>Node4</title>
<g id="a_node4"><a xlink:href="namespaceconvex__hull__trick.html#aa194f52c547fd3298f72caf6371a23ed" target="_top" xlink:title=" ">
<polygon fill="white" stroke="black" points="453,-94 453,-113 579,-113 579,-94 453,-94"/>
<text text-anchor="middle" x="516" y="-101" font-family="Helvetica,sans-Serif" font-size="10.00">convex_hull_trick::hull</text>
</a>
</g>
</g>
<!-- Node3&#45;&gt;Node4 -->
<g id="edge3" class="edge">
<title>Node3&#45;&gt;Node4</title>
<path fill="none" stroke="midnightblue" d="M632.82,-71.75C607.2,-78.77 575.51,-87.46 551.76,-93.97"/>
<polygon fill="midnightblue" stroke="midnightblue" points="633.96,-75.07 642.67,-69.05 632.1,-68.32 633.96,-75.07"/>
</g>
<!-- Node10 -->
<g id="node10" class="node">
<title>Node10</title>
<g id="a_node10"><a xlink:href="namespaceconvex__hull__trick_1_1test.html#a9b689c83ba8f830281d1aabf43efd1e4" target="_top" xlink:title=" ">
<polygon fill="white" stroke="black" points="462,-44.5 462,-74.5 570,-74.5 570,-44.5 462,-44.5"/>
<text text-anchor="start" x="470" y="-62.5" font-family="Helvetica,sans-Serif" font-size="10.00">convex_hull_trick::</text>
<text text-anchor="middle" x="516" y="-51.5" font-family="Helvetica,sans-Serif" font-size="10.00">test::test_ccw</text>
</a>
</g>
</g>
<!-- Node3&#45;&gt;Node10 -->
<g id="edge9" class="edge">
<title>Node3&#45;&gt;Node10</title>
<path fill="none" stroke="midnightblue" d="M604.83,-59.5C593.18,-59.5 581.32,-59.5 570.24,-59.5"/>
<polygon fill="midnightblue" stroke="midnightblue" points="604.99,-63 614.99,-59.5 604.99,-56 604.99,-63"/>
</g>
<!-- Node5 -->
<g id="node5" class="node">
<title>Node5</title>
<g id="a_node5"><a xlink:href="structconvex__hull__trick_1_1CHT.html#a2166ed9dd69f17fe9f4ed77fbf4d0907" target="_top" xlink:title=" ">
<polygon fill="white" stroke="black" points="309,-134.5 309,-164.5 417,-164.5 417,-134.5 309,-134.5"/>
<text text-anchor="start" x="317" y="-152.5" font-family="Helvetica,sans-Serif" font-size="10.00">convex_hull_trick::</text>
<text text-anchor="middle" x="363" y="-141.5" font-family="Helvetica,sans-Serif" font-size="10.00">CHT::CHT</text>
</a>
</g>
</g>
<!-- Node4&#45;&gt;Node5 -->
<g id="edge4" class="edge">
<title>Node4&#45;&gt;Node5</title>
<path fill="none" stroke="midnightblue" d="M474.01,-115.99C455.31,-121.68 433,-128.48 413.38,-134.46"/>
<polygon fill="midnightblue" stroke="midnightblue" points="475.17,-119.29 483.71,-113.03 473.13,-112.6 475.17,-119.29"/>
</g>
<!-- Node6 -->
<g id="node6" class="node">
<title>Node6</title>
<g id="a_node6"><a xlink:href="namespaceconvex__hull__trick_1_1test.html#a585d91f97ee3a90cbcdb2ba5bbfe94ac" target="_top" xlink:title=" ">
<polygon fill="white" stroke="black" points="309,-85.5 309,-115.5 417,-115.5 417,-85.5 309,-85.5"/>
<text text-anchor="start" x="317" y="-103.5" font-family="Helvetica,sans-Serif" font-size="10.00">convex_hull_trick::</text>
<text text-anchor="middle" x="363" y="-92.5" font-family="Helvetica,sans-Serif" font-size="10.00">test::test_hull</text>
</a>
</g>
</g>
<!-- Node4&#45;&gt;Node6 -->
<g id="edge5" class="edge">
<title>Node4&#45;&gt;Node6</title>
<path fill="none" stroke="midnightblue" d="M442.62,-102.06C433.99,-101.89 425.29,-101.72 417,-101.55"/>
<polygon fill="midnightblue" stroke="midnightblue" points="442.64,-105.56 452.71,-102.26 442.78,-98.56 442.64,-105.56"/>
</g>
<!-- Node7 -->
<g id="node7" class="node">
<title>Node7</title>
<g id="a_node7"><a xlink:href="namespaceconvex__hull__trick_1_1test.html#a05eb98d10b7444bbdc9fe64f4d99676a" target="_top" xlink:title=" ">
<polygon fill="white" stroke="black" points="160,-41.5 160,-71.5 273,-71.5 273,-41.5 160,-41.5"/>
<text text-anchor="start" x="168" y="-59.5" font-family="Helvetica,sans-Serif" font-size="10.00">convex_hull_trick::</text>
<text text-anchor="middle" x="216.5" y="-48.5" font-family="Helvetica,sans-Serif" font-size="10.00">test::test_geometry</text>
</a>
</g>
</g>
<!-- Node6&#45;&gt;Node7 -->
<g id="edge6" class="edge">
<title>Node6&#45;&gt;Node7</title>
<path fill="none" stroke="midnightblue" d="M302.84,-82.49C290.97,-78.87 278.6,-75.11 267.09,-71.6"/>
<polygon fill="midnightblue" stroke="midnightblue" points="302.09,-85.92 312.68,-85.48 304.13,-79.22 302.09,-85.92"/>
</g>
<!-- Node8 -->
<g id="node8" class="node">
<title>Node8</title>
<g id="a_node8"><a xlink:href="test_8cpp.html#af095a232149097b5605064623a9345ac" target="_top" xlink:title=" ">
<polygon fill="white" stroke="black" points="77,-47 77,-66 124,-66 124,-47 77,-47"/>
<text text-anchor="middle" x="100.5" y="-54" font-family="Helvetica,sans-Serif" font-size="10.00">main2</text>
</a>
</g>
</g>
<!-- Node7&#45;&gt;Node8 -->
<g id="edge7" class="edge">
<title>Node7&#45;&gt;Node8</title>
<path fill="none" stroke="midnightblue" d="M149.78,-56.5C140.57,-56.5 131.68,-56.5 124.09,-56.5"/>
<polygon fill="midnightblue" stroke="midnightblue" points="149.84,-60 159.84,-56.5 149.84,-53 149.84,-60"/>
</g>
<!-- Node9 -->
<g id="node9" class="node">
<title>Node9</title>
<g id="a_node9"><a xlink:href="main_8hpp.html#a0ddf1224851353fc92bfbff6f499fa97" target="_top" xlink:title=" ">
<polygon fill="white" stroke="black" points="0,-47 0,-66 41,-66 41,-47 0,-47"/>
<text text-anchor="middle" x="20.5" y="-54" font-family="Helvetica,sans-Serif" font-size="10.00">main</text>
</a>
</g>
</g>
<!-- Node8&#45;&gt;Node9 -->
<g id="edge8" class="edge">
<title>Node8&#45;&gt;Node9</title>
<path fill="none" stroke="midnightblue" d="M66.66,-56.5C57.96,-56.5 48.84,-56.5 41.1,-56.5"/>
<polygon fill="midnightblue" stroke="midnightblue" points="66.94,-60 76.94,-56.5 66.94,-53 66.94,-60"/>
</g>
<!-- Node10&#45;&gt;Node7 -->
<g id="edge10" class="edge">
<title>Node10&#45;&gt;Node7</title>
<path fill="none" stroke="midnightblue" d="M451.51,-58.86C398.5,-58.33 323.66,-57.57 273,-57.06"/>
<polygon fill="midnightblue" stroke="midnightblue" points="451.78,-62.36 461.81,-58.96 451.85,-55.36 451.78,-62.36"/>
</g>
<!-- Node11&#45;&gt;Node7 -->
<g id="edge12" class="edge">
<title>Node11&#45;&gt;Node7</title>
<path fill="none" stroke="midnightblue" d="M614.22,-20.71C569.24,-24.45 507.4,-29.66 453,-34.5 391.44,-39.98 320.87,-46.62 273.16,-51.16"/>
<polygon fill="midnightblue" stroke="midnightblue" points="614.74,-24.18 624.42,-19.86 614.16,-17.2 614.74,-24.18"/>
</g>
</g>
</svg>
        <g id="navigator" transform="translate(0 0)" fill="#404254">
                <rect fill="#f2f5e9" fill-opacity="0.5" stroke="#606060" stroke-width=".5" x="0" y="0" width="60" height="60"/>
                <use id="zoomplus" xlink:href="#zoomPlus" x="17" y="9" onmousedown="handleZoom(evt,'in')"/>
                <use id="zoomminus" xlink:href="#zoomMin" x="42" y="9" onmousedown="handleZoom(evt,'out')"/>
                <use id="reset" xlink:href="#resetDef" x="30" y="36" onmousedown="handleReset()"/>
                <g id="arrowUp" xlink:href="#dirArrow" transform="translate(30 24)" onmousedown="handlePan(0,-1)">
                  <use xlink:href="#rim" fill="#404040">
                        <set attributeName="fill" to="#808080" begin="arrowUp.mouseover" end="arrowUp.mouseout"/>
                  </use>
                  <path fill="none" stroke="white" stroke-width="1.5" d="M0,-3.0v7 M-2.5,-0.5L0,-3.0L2.5,-0.5"/>
                </g>
                <g id="arrowRight" xlink:href="#dirArrow" transform="rotate(90) translate(36 -43)" onmousedown="handlePan(1,0)">
                  <use xlink:href="#rim" fill="#404040">
                        <set attributeName="fill" to="#808080" begin="arrowRight.mouseover" end="arrowRight.mouseout"/>
                  </use>
                  <path fill="none" stroke="white" stroke-width="1.5" d="M0,-3.0v7 M-2.5,-0.5L0,-3.0L2.5,-0.5"/>
                </g>
                <g id="arrowDown" xlink:href="#dirArrow" transform="rotate(180) translate(-30 -48)" onmousedown="handlePan(0,1)">
                  <use xlink:href="#rim" fill="#404040">
                        <set attributeName="fill" to="#808080" begin="arrowDown.mouseover" end="arrowDown.mouseout"/>
                  </use>
                  <path fill="none" stroke="white" stroke-width="1.5" d="M0,-3.0v7 M-2.5,-0.5L0,-3.0L2.5,-0.5"/>
                </g>
                <g id="arrowLeft" xlink:href="#dirArrow" transform="rotate(270) translate(-36 17)" onmousedown="handlePan(-1,0)">
                  <use xlink:href="#rim" fill="#404040">
                        <set attributeName="fill" to="#808080" begin="arrowLeft.mouseover" end="arrowLeft.mouseout"/>
                  </use>
                  <path fill="none" stroke="white" stroke-width="1.5" d="M0,-3.0v7 M-2.5,-0.5L0,-3.0L2.5,-0.5"/>
                </g>
        </g>
        <svg viewBox="0 0 15 15" width="100%" height="30px" preserveAspectRatio="xMaxYMin meet">
         <g id="arrow_out" transform="scale(0.3 0.3)">
          <a xlink:href="namespaceconvex__hull__trick_a4f9b285a0e38652eb9839ac60b39e34a_icgraph_org.svg" target="_base">
           <rect id="button" ry="5" rx="5" y="6" x="6" height="38" width="38"
                fill="#f2f5e9" fill-opacity="0.5" stroke="#606060" stroke-width="1.0"/>
           <path id="arrow"
             d="M 11.500037,31.436501 C 11.940474,20.09759 22.043105,11.32322 32.158766,21.979434 L 37.068811,17.246167 C 37.068811,17.246167 37.088388,32 37.088388,32 L 22.160133,31.978069 C 22.160133,31.978069 26.997745,27.140456 26.997745,27.140456 C 18.528582,18.264221 13.291696,25.230495 11.500037,31.436501 z"
             style="fill:#404040;"/>
          </a>
         </g>
        </svg>
</svg>
