<?xml version="1.0" encoding="UTF-8" standalone="no"?>
<!DOCTYPE svg PUBLIC "-//W3C//DTD SVG 1.1//EN"
 "http://www.w3.org/Graphics/SVG/1.1/DTD/svg11.dtd">
<!-- Generated by graphviz version 2.43.0 (0)
 -->
<!-- Title: linear_algebra::operator&lt;&lt; Pages: 1 -->
<svg width="497pt" height="66pt"
 viewBox="0.00 0.00 497.00 66.00" xmlns="http://www.w3.org/2000/svg" xmlns:xlink="http://www.w3.org/1999/xlink">
<g id="graph0" class="graph" transform="scale(1 1) rotate(0) translate(4 62)">
<title>linear_algebra::operator&lt;&lt;</title>
<polygon fill="white" stroke="transparent" points="-4,4 -4,-62 493,-62 493,4 -4,4"/>
<!-- Node1 -->
<g id="node1" class="node">
<title>Node1</title>
<g id="a_node1"><a xlink:title="Print the matrix rows, line by line.">
<polygon fill="#bfbfbf" stroke="black" points="0,-19.5 0,-38.5 150,-38.5 150,-19.5 0,-19.5"/>
<text text-anchor="middle" x="75" y="-26.5" font-family="Helvetica,sans-Serif" font-size="10.00">linear_algebra::operator&lt;&lt;</text>
</a>
</g>
</g>
<!-- Node2 -->
<g id="node2" class="node">
<title>Node2</title>
<g id="a_node2"><a xlink:href="namespacedebug__tools.html#a3aa6fe2ec65b64f87ad431efde3822c7" target="_top" xlink:title=" ">
<polygon fill="white" stroke="black" points="186,-19.5 186,-38.5 316,-38.5 316,-19.5 186,-19.5"/>
<text text-anchor="middle" x="251" y="-26.5" font-family="Helvetica,sans-Serif" font-size="10.00">debug_tools::simple_tp</text>
</a>
</g>
</g>
<!-- Node1&#45;&gt;Node2 -->
<g id="edge1" class="edge">
<title>Node1&#45;&gt;Node2</title>
<path fill="none" stroke="midnightblue" d="M150.04,-29C158.53,-29 167.18,-29 175.66,-29"/>
<polygon fill="midnightblue" stroke="midnightblue" points="175.91,-32.5 185.91,-29 175.91,-25.5 175.91,-32.5"/>
</g>
<!-- Node3 -->
<g id="node3" class="node">
<title>Node3</title>
<g id="a_node3"><a xlink:href="namespacedebug__tools.html#a2b613fd4caa0fb48d04eb7e6f3bf6dff" target="_top" xlink:title=" ">
<polygon fill="white" stroke="black" points="361.5,-38.5 361.5,-57.5 479.5,-57.5 479.5,-38.5 361.5,-38.5"/>
<text text-anchor="middle" x="420.5" y="-45.5" font-family="Helvetica,sans-Serif" font-size="10.00">debug_tools::replace</text>
</a>
</g>
</g>
<!-- Node2&#45;&gt;Node3 -->
<g id="edge2" class="edge">
<title>Node2&#45;&gt;Node3</title>
<path fill="none" stroke="midnightblue" d="M316.28,-36.29C327.77,-37.59 339.77,-38.96 351.37,-40.27"/>
<polygon fill="midnightblue" stroke="midnightblue" points="351.09,-43.76 361.42,-41.41 351.88,-36.81 351.09,-43.76"/>
</g>
<!-- Node4 -->
<g id="node4" class="node">
<title>Node4</title>
<g id="a_node4"><a xlink:href="namespacedebug__tools.html#a991f9f01ab3a0e664fabf0bd17fab95c" target="_top" xlink:title=" ">
<polygon fill="white" stroke="black" points="352,-0.5 352,-19.5 489,-19.5 489,-0.5 352,-0.5"/>
<text text-anchor="middle" x="420.5" y="-7.5" font-family="Helvetica,sans-Serif" font-size="10.00">debug_tools::type_name</text>
</a>
</g>
</g>
<!-- Node2&#45;&gt;Node4 -->
<g id="edge3" class="edge">
<title>Node2&#45;&gt;Node4</title>
<path fill="none" stroke="midnightblue" d="M316.28,-21.71C324.64,-20.76 333.26,-19.78 341.81,-18.81"/>
<polygon fill="midnightblue" stroke="midnightblue" points="342.24,-22.29 351.78,-17.68 341.45,-15.33 342.24,-22.29"/>
</g>
</g>
</svg>
