<?xml version="1.0" encoding="UTF-8" standalone="no"?>
<!DOCTYPE svg PUBLIC "-//W3C//DTD SVG 1.1//EN"
 "http://www.w3.org/Graphics/SVG/1.1/DTD/svg11.dtd">
<!-- Generated by graphviz version 2.43.0 (0)
 -->
<!-- Title: modulo::power Pages: 1 -->
<!--zoomable 344 -->
<svg id="main" version="1.1" xmlns="http://www.w3.org/2000/svg" xmlns:xlink="http://www.w3.org/1999/xlink" xml:space="preserve" onload="init(evt)">
<style type="text/css"><![CDATA[
.edge:hover path { stroke: red; }
.edge:hover polygon { stroke: red; fill: red; }
]]></style>
<script type="text/javascript"><![CDATA[
var edges = document.getElementsByTagName('g');
if (edges && edges.length) {
  for (var i=0;i<edges.length;i++) {
    if (edges[i].id.substr(0,4)=='edge') {
      edges[i].setAttribute('class','edge');
    }
  }
}
]]></script>
        <defs>
                <circle id="rim" cx="0" cy="0" r="7"/>
                <circle id="rim2" cx="0" cy="0" r="3.5"/>
                <g id="zoomPlus">
                        <use xlink:href="#rim" fill="#404040">
                                <set attributeName="fill" to="#808080" begin="zoomplus.mouseover" end="zoomplus.mouseout"/>
                        </use>
                        <path d="M-4,0h8M0,-4v8" fill="none" stroke="white" stroke-width="1.5" pointer-events="none"/>
                </g>
                <g id="zoomMin">
                        <use xlink:href="#rim" fill="#404040">
                                <set attributeName="fill" to="#808080" begin="zoomminus.mouseover" end="zoomminus.mouseout"/>
                        </use>
                        <path d="M-4,0h8" fill="none" stroke="white" stroke-width="1.5" pointer-events="none"/>
                </g>
                <g id="dirArrow">
                        <path fill="none" stroke="white" stroke-width="1.5" d="M0,-3.0v7 M-2.5,-0.5L0,-3.0L2.5,-0.5"/>
                </g>
               <g id="resetDef">
                       <use xlink:href="#rim2" fill="#404040">
                               <set attributeName="fill" to="#808080" begin="reset.mouseover" end="reset.mouseout"/>
                       </use>
               </g>
        </defs>

<script type="text/javascript">
var viewWidth = 1077;
var viewHeight = 344;
var sectionId = 'dynsection-0';
</script>
<script xlink:href="svgpan.js"/>
<svg id="graph" class="graph">
<g id="viewport">
<title>modulo::power</title>
<polygon fill="white" stroke="transparent" points="-4,4 -4,-340.08 1073,-340.08 1073,4 -4,4"/>
<!-- Node1 -->
<g id="node1" class="node">
<title>Node1</title>
<g id="a_node1"><a xlink:title=" ">
<polygon fill="#bfbfbf" stroke="black" points="980,-126.5 980,-145.5 1069,-145.5 1069,-126.5 980,-126.5"/>
<text text-anchor="middle" x="1024.5" y="-133.5" font-family="Helvetica,sans-Serif" font-size="10.00">modulo::power</text>
</a>
</g>
</g>
<!-- Node2 -->
<g id="node2" class="node">
<title>Node2</title>
<g id="a_node2"><a xlink:href="number__theory_8hpp.html#a39d0e5b2564df62e404880671eb3211e" target="_top" xlink:title=" ">
<polygon fill="white" stroke="black" points="766,-297.5 766,-316.5 804,-316.5 804,-297.5 766,-297.5"/>
<text text-anchor="middle" x="785" y="-304.5" font-family="Helvetica,sans-Serif" font-size="10.00">dlog</text>
</a>
</g>
</g>
<!-- Node1&#45;&gt;Node2 -->
<g id="edge1" class="edge">
<title>Node1&#45;&gt;Node2</title>
<path fill="none" stroke="midnightblue" d="M1016.22,-155.34C1004.93,-182.71 980.62,-232.45 944,-260 901,-292.34 835.95,-302.53 804.42,-305.66"/>
<polygon fill="midnightblue" stroke="midnightblue" points="1019.6,-156.32 1020.02,-145.73 1013.09,-153.74 1019.6,-156.32"/>
</g>
<!-- Node3 -->
<g id="node3" class="node">
<title>Node3</title>
<g id="a_node3"><a xlink:href="number__theory_8hpp.html#a7aac53ce82614d79c7098a1de32ed1e7" target="_top" xlink:title=" ">
<polygon fill="white" stroke="black" points="668,-316.5 668,-335.5 730,-335.5 730,-316.5 668,-316.5"/>
<text text-anchor="middle" x="699" y="-323.5" font-family="Helvetica,sans-Serif" font-size="10.00">test_dlog</text>
</a>
</g>
</g>
<!-- Node1&#45;&gt;Node3 -->
<g id="edge24" class="edge">
<title>Node1&#45;&gt;Node3</title>
<path fill="none" stroke="midnightblue" d="M1019.42,-155.78C1011.33,-189.8 989.91,-259.18 944,-295 881.21,-343.99 780.41,-338.05 730.3,-331.22"/>
<polygon fill="midnightblue" stroke="midnightblue" points="1022.91,-156.22 1021.67,-145.69 1016.08,-154.69 1022.91,-156.22"/>
</g>
<!-- Node8 -->
<g id="node8" class="node">
<title>Node8</title>
<g id="a_node8"><a xlink:href="namespacelinear__algebra.html#a83e73169ca96c72d26f112bd55c38b02" target="_top" xlink:title=" ">
<polygon fill="white" stroke="black" points="840,-39 840,-69 944,-69 944,-39 840,-39"/>
<text text-anchor="start" x="848" y="-57" font-family="Helvetica,sans-Serif" font-size="10.00">linear_algebra::lin</text>
<text text-anchor="middle" x="892" y="-46" font-family="Helvetica,sans-Serif" font-size="10.00">_recur</text>
</a>
</g>
</g>
<!-- Node1&#45;&gt;Node8 -->
<g id="edge7" class="edge">
<title>Node1&#45;&gt;Node8</title>
<path fill="none" stroke="midnightblue" d="M1003.58,-120.3C987.87,-108.27 965.15,-91.65 944,-79 938.25,-75.56 931.95,-72.18 925.81,-69.08"/>
<polygon fill="midnightblue" stroke="midnightblue" points="1001.49,-123.11 1011.54,-126.46 1005.77,-117.57 1001.49,-123.11"/>
</g>
<!-- Node9 -->
<g id="node9" class="node">
<title>Node9</title>
<g id="a_node9"><a xlink:href="modulo_8hpp.html#ae515d341b4d4ed9e65ab11d85566dcb5" target="_top" xlink:title=" ">
<polygon fill="white" stroke="black" points="861.5,-0.5 861.5,-19.5 922.5,-19.5 922.5,-0.5 861.5,-0.5"/>
<text text-anchor="middle" x="892" y="-7.5" font-family="Helvetica,sans-Serif" font-size="10.00">operator/</text>
</a>
</g>
</g>
<!-- Node1&#45;&gt;Node9 -->
<g id="edge8" class="edge">
<title>Node1&#45;&gt;Node9</title>
<path fill="none" stroke="midnightblue" d="M1014,-117.24C1001.14,-93.57 976.06,-53.08 944,-29 937.65,-24.23 929.98,-20.55 922.54,-17.75"/>
<polygon fill="midnightblue" stroke="midnightblue" points="1010.99,-119.03 1018.75,-126.25 1017.18,-115.77 1010.99,-119.03"/>
</g>
<!-- Node10 -->
<g id="node10" class="node">
<title>Node10</title>
<g id="a_node10"><a xlink:href="number__theory_8hpp.html#a02e886c6eb18cd3b8894ea2ba9ca9784" target="_top" xlink:title=" ">
<polygon fill="white" stroke="black" points="869.5,-231.5 869.5,-250.5 914.5,-250.5 914.5,-231.5 869.5,-231.5"/>
<text text-anchor="middle" x="892" y="-238.5" font-family="Helvetica,sans-Serif" font-size="10.00">prime</text>
</a>
</g>
</g>
<!-- Node1&#45;&gt;Node10 -->
<g id="edge9" class="edge">
<title>Node1&#45;&gt;Node10</title>
<path fill="none" stroke="midnightblue" d="M1003.32,-152.24C975.82,-174.37 927.42,-213.3 905.01,-231.33"/>
<polygon fill="midnightblue" stroke="midnightblue" points="1005.86,-154.69 1011.46,-145.69 1001.47,-149.23 1005.86,-154.69"/>
</g>
<!-- Node12 -->
<g id="node12" class="node">
<title>Node12</title>
<g id="a_node12"><a xlink:href="number__theory_8hpp.html#a8a159e82910edb282085d6879d8c382d" target="_top" xlink:title=" ">
<polygon fill="white" stroke="black" points="546,-164.5 546,-183.5 632,-183.5 632,-164.5 546,-164.5"/>
<text text-anchor="middle" x="589" y="-171.5" font-family="Helvetica,sans-Serif" font-size="10.00">primitive_root</text>
</a>
</g>
</g>
<!-- Node1&#45;&gt;Node12 -->
<g id="edge23" class="edge">
<title>Node1&#45;&gt;Node12</title>
<path fill="none" stroke="midnightblue" d="M969.72,-140.71C882.38,-148.37 711.5,-163.35 632.24,-170.3"/>
<polygon fill="midnightblue" stroke="midnightblue" points="970.29,-144.18 979.95,-139.82 969.68,-137.2 970.29,-144.18"/>
</g>
<!-- Node18 -->
<g id="node18" class="node">
<title>Node18</title>
<g id="a_node18"><a xlink:href="modulo_8hpp.html#af63abc641089d55f193ed28ed00f7eaa" target="_top" xlink:title=" ">
<polygon fill="white" stroke="black" points="856.5,-88.5 856.5,-107.5 927.5,-107.5 927.5,-88.5 856.5,-88.5"/>
<text text-anchor="middle" x="892" y="-95.5" font-family="Helvetica,sans-Serif" font-size="10.00">test_power</text>
</a>
</g>
</g>
<!-- Node1&#45;&gt;Node18 -->
<g id="edge25" class="edge">
<title>Node1&#45;&gt;Node18</title>
<path fill="none" stroke="midnightblue" d="M980.95,-123.61C963.08,-118.41 942.61,-112.45 925.92,-107.59"/>
<polygon fill="midnightblue" stroke="midnightblue" points="979.99,-126.98 990.57,-126.41 981.95,-120.25 979.99,-126.98"/>
</g>
<!-- Node2&#45;&gt;Node3 -->
<g id="edge2" class="edge">
<title>Node2&#45;&gt;Node3</title>
<path fill="none" stroke="midnightblue" d="M755.83,-313.37C747.56,-315.24 738.47,-317.3 730.08,-319.2"/>
<polygon fill="midnightblue" stroke="midnightblue" points="756.79,-316.74 765.77,-311.12 755.25,-309.92 756.79,-316.74"/>
</g>
<!-- Node4 -->
<g id="node4" class="node">
<title>Node4</title>
<g id="a_node4"><a xlink:href="number__theory_8hpp.html#aed36f6b8b9706133e9b5302b1618e9ef" target="_top" xlink:title=" ">
<polygon fill="white" stroke="black" points="249,-221.5 249,-240.5 364,-240.5 364,-221.5 249,-221.5"/>
<text text-anchor="middle" x="306.5" y="-228.5" font-family="Helvetica,sans-Serif" font-size="10.00">test_number_theory</text>
</a>
</g>
</g>
<!-- Node3&#45;&gt;Node4 -->
<g id="edge3" class="edge">
<title>Node3&#45;&gt;Node4</title>
<path fill="none" stroke="midnightblue" d="M657.48,-326.99C598.88,-327.16 487.88,-322.7 400,-291 367.59,-279.31 335.03,-254.4 318.55,-240.63"/>
<polygon fill="midnightblue" stroke="midnightblue" points="657.82,-330.49 667.79,-326.91 657.76,-323.49 657.82,-330.49"/>
</g>
<!-- Node5 -->
<g id="node5" class="node">
<title>Node5</title>
<g id="a_node5"><a xlink:href="test_8cpp.html#aa1c715cac916839a95e25b65b4071c4a" target="_top" xlink:title=" ">
<polygon fill="white" stroke="black" points="160,-183.5 160,-202.5 213,-202.5 213,-183.5 160,-183.5"/>
<text text-anchor="middle" x="186.5" y="-190.5" font-family="Helvetica,sans-Serif" font-size="10.00">test_all</text>
</a>
</g>
</g>
<!-- Node4&#45;&gt;Node5 -->
<g id="edge4" class="edge">
<title>Node4&#45;&gt;Node5</title>
<path fill="none" stroke="midnightblue" d="M265.85,-218.23C248.5,-212.64 228.64,-206.25 213.26,-201.3"/>
<polygon fill="midnightblue" stroke="midnightblue" points="265.13,-221.68 275.72,-221.41 267.28,-215.01 265.13,-221.68"/>
</g>
<!-- Node6 -->
<g id="node6" class="node">
<title>Node6</title>
<g id="a_node6"><a xlink:href="test_8cpp.html#af095a232149097b5605064623a9345ac" target="_top" xlink:title=" ">
<polygon fill="white" stroke="black" points="77,-183.5 77,-202.5 124,-202.5 124,-183.5 77,-183.5"/>
<text text-anchor="middle" x="100.5" y="-190.5" font-family="Helvetica,sans-Serif" font-size="10.00">main2</text>
</a>
</g>
</g>
<!-- Node5&#45;&gt;Node6 -->
<g id="edge5" class="edge">
<title>Node5&#45;&gt;Node6</title>
<path fill="none" stroke="midnightblue" d="M149.59,-193C140.96,-193 131.99,-193 124.16,-193"/>
<polygon fill="midnightblue" stroke="midnightblue" points="149.84,-196.5 159.84,-193 149.84,-189.5 149.84,-196.5"/>
</g>
<!-- Node7 -->
<g id="node7" class="node">
<title>Node7</title>
<g id="a_node7"><a xlink:href="main_8hpp.html#a0ddf1224851353fc92bfbff6f499fa97" target="_top" xlink:title=" ">
<polygon fill="white" stroke="black" points="0,-183.5 0,-202.5 41,-202.5 41,-183.5 0,-183.5"/>
<text text-anchor="middle" x="20.5" y="-190.5" font-family="Helvetica,sans-Serif" font-size="10.00">main</text>
</a>
</g>
</g>
<!-- Node6&#45;&gt;Node7 -->
<g id="edge6" class="edge">
<title>Node6&#45;&gt;Node7</title>
<path fill="none" stroke="midnightblue" d="M66.66,-193C57.96,-193 48.84,-193 41.1,-193"/>
<polygon fill="midnightblue" stroke="midnightblue" points="66.94,-196.5 76.94,-193 66.94,-189.5 66.94,-196.5"/>
</g>
<!-- Node10&#45;&gt;Node2 -->
<g id="edge10" class="edge">
<title>Node10&#45;&gt;Node2</title>
<path fill="none" stroke="midnightblue" d="M866.85,-256.18C846.64,-268.89 818.41,-286.63 801.22,-297.44"/>
<polygon fill="midnightblue" stroke="midnightblue" points="868.9,-259.02 875.51,-250.74 865.18,-253.1 868.9,-259.02"/>
</g>
<!-- Node11 -->
<g id="node11" class="node">
<title>Node11</title>
<g id="a_node11"><a xlink:href="number__theory_8hpp.html#a8119b9949ade11ba2f554e41cc0830df" target="_top" xlink:title=" ">
<polygon fill="white" stroke="black" points="769,-202.5 769,-221.5 801,-221.5 801,-202.5 769,-202.5"/>
<text text-anchor="middle" x="785" y="-209.5" font-family="Helvetica,sans-Serif" font-size="10.00">fac</text>
</a>
</g>
</g>
<!-- Node10&#45;&gt;Node11 -->
<g id="edge11" class="edge">
<title>Node10&#45;&gt;Node11</title>
<path fill="none" stroke="midnightblue" d="M859.84,-232.39C840.42,-227.03 816.31,-220.37 801.03,-216.15"/>
<polygon fill="midnightblue" stroke="midnightblue" points="858.93,-235.77 869.5,-235.06 860.79,-229.03 858.93,-235.77"/>
</g>
<!-- Node17 -->
<g id="node17" class="node">
<title>Node17</title>
<g id="a_node17"><a xlink:href="number__theory_8hpp.html#a87d7c3ba2489977a16ec40544a918e00" target="_top" xlink:title=" ">
<polygon fill="white" stroke="black" points="554.5,-278.5 554.5,-297.5 623.5,-297.5 623.5,-278.5 554.5,-278.5"/>
<text text-anchor="middle" x="589" y="-285.5" font-family="Helvetica,sans-Serif" font-size="10.00">test_prime</text>
</a>
</g>
</g>
<!-- Node10&#45;&gt;Node17 -->
<g id="edge21" class="edge">
<title>Node10&#45;&gt;Node17</title>
<path fill="none" stroke="midnightblue" d="M859.47,-245.92C802.45,-254.83 682.68,-273.53 623.94,-282.7"/>
<polygon fill="midnightblue" stroke="midnightblue" points="860.01,-249.38 869.35,-244.38 858.93,-242.46 860.01,-249.38"/>
</g>
<!-- Node11&#45;&gt;Node12 -->
<g id="edge12" class="edge">
<title>Node11&#45;&gt;Node12</title>
<path fill="none" stroke="midnightblue" d="M759.12,-202.05C750.07,-198.76 739.69,-195.34 730,-193 697.57,-185.18 660.09,-180.31 632.07,-177.46"/>
<polygon fill="midnightblue" stroke="midnightblue" points="758.06,-205.4 768.66,-205.66 760.54,-198.85 758.06,-205.4"/>
</g>
<!-- Node14 -->
<g id="node14" class="node">
<title>Node14</title>
<g id="a_node14"><a xlink:href="number__theory_8hpp.html#afcfd3b1e3415393029bc6a496d825459" target="_top" xlink:title=" ">
<polygon fill="white" stroke="black" points="427,-240.5 427,-259.5 483,-259.5 483,-240.5 427,-240.5"/>
<text text-anchor="middle" x="455" y="-247.5" font-family="Helvetica,sans-Serif" font-size="10.00">test_fac</text>
</a>
</g>
</g>
<!-- Node11&#45;&gt;Node14 -->
<g id="edge15" class="edge">
<title>Node11&#45;&gt;Node14</title>
<path fill="none" stroke="midnightblue" d="M759.2,-222.3C750.16,-225.63 739.76,-228.98 730,-231 641.04,-249.38 532.75,-250.93 483.16,-250.52"/>
<polygon fill="midnightblue" stroke="midnightblue" points="760.65,-225.49 768.72,-218.62 758.13,-218.96 760.65,-225.49"/>
</g>
<!-- Node15 -->
<g id="node15" class="node">
<title>Node15</title>
<g id="a_node15"><a xlink:href="number__theory_8hpp.html#af0753ff92c84e6924e1fd6461e77b16f" target="_top" xlink:title=" ">
<polygon fill="white" stroke="black" points="674.5,-202.5 674.5,-221.5 723.5,-221.5 723.5,-202.5 674.5,-202.5"/>
<text text-anchor="middle" x="699" y="-209.5" font-family="Helvetica,sans-Serif" font-size="10.00">totient</text>
</a>
</g>
</g>
<!-- Node11&#45;&gt;Node15 -->
<g id="edge17" class="edge">
<title>Node11&#45;&gt;Node15</title>
<path fill="none" stroke="midnightblue" d="M758.67,-212C747.59,-212 734.67,-212 723.78,-212"/>
<polygon fill="midnightblue" stroke="midnightblue" points="758.98,-215.5 768.98,-212 758.98,-208.5 758.98,-215.5"/>
</g>
<!-- Node13 -->
<g id="node13" class="node">
<title>Node13</title>
<g id="a_node13"><a xlink:href="number__theory_8hpp.html#a0ff115471f41e78245b5dc48eaf8032f" target="_top" xlink:title=" ">
<polygon fill="white" stroke="black" points="400,-164.5 400,-183.5 510,-183.5 510,-164.5 400,-164.5"/>
<text text-anchor="middle" x="455" y="-171.5" font-family="Helvetica,sans-Serif" font-size="10.00">test_primitive_root</text>
</a>
</g>
</g>
<!-- Node12&#45;&gt;Node13 -->
<g id="edge13" class="edge">
<title>Node12&#45;&gt;Node13</title>
<path fill="none" stroke="midnightblue" d="M535.82,-174C527.43,-174 518.72,-174 510.28,-174"/>
<polygon fill="midnightblue" stroke="midnightblue" points="535.87,-177.5 545.87,-174 535.87,-170.5 535.87,-177.5"/>
</g>
<!-- Node13&#45;&gt;Node4 -->
<g id="edge14" class="edge">
<title>Node13&#45;&gt;Node4</title>
<path fill="none" stroke="midnightblue" d="M420.07,-187.2C393.17,-197.67 356.21,-212.05 332.1,-221.43"/>
<polygon fill="midnightblue" stroke="midnightblue" points="421.43,-190.43 429.48,-183.54 418.89,-183.9 421.43,-190.43"/>
</g>
<!-- Node14&#45;&gt;Node4 -->
<g id="edge16" class="edge">
<title>Node14&#45;&gt;Node4</title>
<path fill="none" stroke="midnightblue" d="M416.8,-245.18C400.88,-243.11 381.92,-240.65 364.3,-238.37"/>
<polygon fill="midnightblue" stroke="midnightblue" points="416.42,-248.66 426.79,-246.47 417.32,-241.71 416.42,-248.66"/>
</g>
<!-- Node15&#45;&gt;Node12 -->
<g id="edge18" class="edge">
<title>Node15&#45;&gt;Node12</title>
<path fill="none" stroke="midnightblue" d="M664.69,-200.28C649.4,-194.9 631.51,-188.61 617.07,-183.52"/>
<polygon fill="midnightblue" stroke="midnightblue" points="663.7,-203.64 674.3,-203.66 666.03,-197.04 663.7,-203.64"/>
</g>
<!-- Node16 -->
<g id="node16" class="node">
<title>Node16</title>
<g id="a_node16"><a xlink:href="number__theory_8hpp.html#a8ae320acad5e35d58ca5ad7adc6ddd78" target="_top" xlink:title=" ">
<polygon fill="white" stroke="black" points="552.5,-202.5 552.5,-221.5 625.5,-221.5 625.5,-202.5 552.5,-202.5"/>
<text text-anchor="middle" x="589" y="-209.5" font-family="Helvetica,sans-Serif" font-size="10.00">test_totient</text>
</a>
</g>
</g>
<!-- Node15&#45;&gt;Node16 -->
<g id="edge19" class="edge">
<title>Node15&#45;&gt;Node16</title>
<path fill="none" stroke="midnightblue" d="M664.03,-212C651.78,-212 637.93,-212 625.55,-212"/>
<polygon fill="midnightblue" stroke="midnightblue" points="664.3,-215.5 674.3,-212 664.3,-208.5 664.3,-215.5"/>
</g>
<!-- Node16&#45;&gt;Node4 -->
<g id="edge20" class="edge">
<title>Node16&#45;&gt;Node4</title>
<path fill="none" stroke="midnightblue" d="M542.24,-215.1C493.56,-218.4 416.5,-223.62 364.06,-227.17"/>
<polygon fill="midnightblue" stroke="midnightblue" points="542.73,-218.57 552.47,-214.41 542.26,-211.59 542.73,-218.57"/>
</g>
<!-- Node17&#45;&gt;Node4 -->
<g id="edge22" class="edge">
<title>Node17&#45;&gt;Node4</title>
<path fill="none" stroke="midnightblue" d="M543.88,-287.13C505.38,-285.52 448.29,-281.09 400,-269 373.39,-262.34 344.39,-249.43 326.09,-240.51"/>
<polygon fill="midnightblue" stroke="midnightblue" points="544.09,-290.64 554.22,-287.51 544.35,-283.64 544.09,-290.64"/>
</g>
<!-- Node19 -->
<g id="node19" class="node">
<title>Node19</title>
<g id="a_node19"><a xlink:href="modulo_8hpp.html#ace704e27d561de2f121af8778c37d2d4" target="_top" xlink:title=" ">
<polygon fill="white" stroke="black" points="416.5,-107.5 416.5,-126.5 493.5,-126.5 493.5,-107.5 416.5,-107.5"/>
<text text-anchor="middle" x="455" y="-114.5" font-family="Helvetica,sans-Serif" font-size="10.00">test_modulo</text>
</a>
</g>
</g>
<!-- Node18&#45;&gt;Node19 -->
<g id="edge26" class="edge">
<title>Node18&#45;&gt;Node19</title>
<path fill="none" stroke="midnightblue" d="M845.91,-99.97C759.89,-103.73 573.79,-111.86 493.8,-115.35"/>
<polygon fill="midnightblue" stroke="midnightblue" points="846.3,-103.46 856.14,-99.52 845.99,-96.46 846.3,-103.46"/>
</g>
<!-- Node19&#45;&gt;Node5 -->
<g id="edge27" class="edge">
<title>Node19&#45;&gt;Node5</title>
<path fill="none" stroke="midnightblue" d="M410.88,-129.3C354.84,-145.28 258.77,-172.67 213.09,-185.7"/>
<polygon fill="midnightblue" stroke="midnightblue" points="411.86,-132.66 420.52,-126.55 409.94,-125.93 411.86,-132.66"/>
</g>
</g>
</svg>
        <g id="navigator" transform="translate(0 0)" fill="#404254">
                <rect fill="#f2f5e9" fill-opacity="0.5" stroke="#606060" stroke-width=".5" x="0" y="0" width="60" height="60"/>
                <use id="zoomplus" xlink:href="#zoomPlus" x="17" y="9" onmousedown="handleZoom(evt,'in')"/>
                <use id="zoomminus" xlink:href="#zoomMin" x="42" y="9" onmousedown="handleZoom(evt,'out')"/>
                <use id="reset" xlink:href="#resetDef" x="30" y="36" onmousedown="handleReset()"/>
                <g id="arrowUp" xlink:href="#dirArrow" transform="translate(30 24)" onmousedown="handlePan(0,-1)">
                  <use xlink:href="#rim" fill="#404040">
                        <set attributeName="fill" to="#808080" begin="arrowUp.mouseover" end="arrowUp.mouseout"/>
                  </use>
                  <path fill="none" stroke="white" stroke-width="1.5" d="M0,-3.0v7 M-2.5,-0.5L0,-3.0L2.5,-0.5"/>
                </g>
                <g id="arrowRight" xlink:href="#dirArrow" transform="rotate(90) translate(36 -43)" onmousedown="handlePan(1,0)">
                  <use xlink:href="#rim" fill="#404040">
                        <set attributeName="fill" to="#808080" begin="arrowRight.mouseover" end="arrowRight.mouseout"/>
                  </use>
                  <path fill="none" stroke="white" stroke-width="1.5" d="M0,-3.0v7 M-2.5,-0.5L0,-3.0L2.5,-0.5"/>
                </g>
                <g id="arrowDown" xlink:href="#dirArrow" transform="rotate(180) translate(-30 -48)" onmousedown="handlePan(0,1)">
                  <use xlink:href="#rim" fill="#404040">
                        <set attributeName="fill" to="#808080" begin="arrowDown.mouseover" end="arrowDown.mouseout"/>
                  </use>
                  <path fill="none" stroke="white" stroke-width="1.5" d="M0,-3.0v7 M-2.5,-0.5L0,-3.0L2.5,-0.5"/>
                </g>
                <g id="arrowLeft" xlink:href="#dirArrow" transform="rotate(270) translate(-36 17)" onmousedown="handlePan(-1,0)">
                  <use xlink:href="#rim" fill="#404040">
                        <set attributeName="fill" to="#808080" begin="arrowLeft.mouseover" end="arrowLeft.mouseout"/>
                  </use>
                  <path fill="none" stroke="white" stroke-width="1.5" d="M0,-3.0v7 M-2.5,-0.5L0,-3.0L2.5,-0.5"/>
                </g>
        </g>
        <svg viewBox="0 0 15 15" width="100%" height="30px" preserveAspectRatio="xMaxYMin meet">
         <g id="arrow_out" transform="scale(0.3 0.3)">
          <a xlink:href="namespacemodulo_a78c1f4f324678db9d37a8dcb30e048f4_icgraph_org.svg" target="_base">
           <rect id="button" ry="5" rx="5" y="6" x="6" height="38" width="38"
                fill="#f2f5e9" fill-opacity="0.5" stroke="#606060" stroke-width="1.0"/>
           <path id="arrow"
             d="M 11.500037,31.436501 C 11.940474,20.09759 22.043105,11.32322 32.158766,21.979434 L 37.068811,17.246167 C 37.068811,17.246167 37.088388,32 37.088388,32 L 22.160133,31.978069 C 22.160133,31.978069 26.997745,27.140456 26.997745,27.140456 C 18.528582,18.264221 13.291696,25.230495 11.500037,31.436501 z"
             style="fill:#404040;"/>
          </a>
         </g>
        </svg>
</svg>
