<?xml version="1.0" encoding="UTF-8" standalone="no"?>
<!DOCTYPE svg PUBLIC "-//W3C//DTD SVG 1.1//EN"
 "http://www.w3.org/Graphics/SVG/1.1/DTD/svg11.dtd">
<!-- Generated by graphviz version 2.43.0 (0)
 -->
<!-- Title: combinatorics::fact Pages: 1 -->
<svg width="889pt" height="192pt"
 viewBox="0.00 0.00 889.00 191.50" xmlns="http://www.w3.org/2000/svg" xmlns:xlink="http://www.w3.org/1999/xlink">
<g id="graph0" class="graph" transform="scale(1 1) rotate(0) translate(4 187.5)">
<title>combinatorics::fact</title>
<polygon fill="white" stroke="transparent" points="-4,4 -4,-187.5 885,-187.5 885,4 -4,4"/>
<!-- Node1 -->
<g id="node1" class="node">
<title>Node1</title>
<g id="a_node1"><a xlink:title=" ">
<polygon fill="#bfbfbf" stroke="black" points="771,-114.5 771,-133.5 881,-133.5 881,-114.5 771,-114.5"/>
<text text-anchor="middle" x="826" y="-121.5" font-family="Helvetica,sans-Serif" font-size="10.00">combinatorics::fact</text>
</a>
</g>
</g>
<!-- Node2 -->
<g id="node2" class="node">
<title>Node2</title>
<g id="a_node2"><a xlink:href="namespacecombinatorics.html#a24ea271b6415a4679e019562f474d88f" target="_top" xlink:title=" ">
<polygon fill="white" stroke="black" points="609,-158.5 609,-177.5 735,-177.5 735,-158.5 609,-158.5"/>
<text text-anchor="middle" x="672" y="-165.5" font-family="Helvetica,sans-Serif" font-size="10.00">combinatorics::choose</text>
</a>
</g>
</g>
<!-- Node1&#45;&gt;Node2 -->
<g id="edge1" class="edge">
<title>Node1&#45;&gt;Node2</title>
<path fill="none" stroke="midnightblue" d="M782.37,-136.34C758.16,-143.35 728.31,-151.99 705.92,-158.47"/>
<polygon fill="midnightblue" stroke="midnightblue" points="783.39,-139.69 792.02,-133.55 781.44,-132.97 783.39,-139.69"/>
</g>
<!-- Node7 -->
<g id="node7" class="node">
<title>Node7</title>
<g id="a_node7"><a xlink:href="namespacecombinatorics_1_1test.html#a8936aa7ea767d4ccba752f2a5c54785f" target="_top" xlink:title=" ">
<polygon fill="white" stroke="black" points="617,-109 617,-139 727,-139 727,-109 617,-109"/>
<text text-anchor="start" x="625" y="-127" font-family="Helvetica,sans-Serif" font-size="10.00">combinatorics::test</text>
<text text-anchor="middle" x="672" y="-116" font-family="Helvetica,sans-Serif" font-size="10.00">::test_fact</text>
</a>
</g>
</g>
<!-- Node1&#45;&gt;Node7 -->
<g id="edge6" class="edge">
<title>Node1&#45;&gt;Node7</title>
<path fill="none" stroke="midnightblue" d="M760.81,-124C749.59,-124 738.01,-124 727.1,-124"/>
<polygon fill="midnightblue" stroke="midnightblue" points="760.98,-127.5 770.98,-124 760.98,-120.5 760.98,-127.5"/>
</g>
<!-- Node8 -->
<g id="node8" class="node">
<title>Node8</title>
<g id="a_node8"><a xlink:href="number__theory_8hpp.html#af0753ff92c84e6924e1fd6461e77b16f" target="_top" xlink:title="Returns the totient of the integer n.">
<polygon fill="white" stroke="black" points="647.5,-54.5 647.5,-73.5 696.5,-73.5 696.5,-54.5 647.5,-54.5"/>
<text text-anchor="middle" x="672" y="-61.5" font-family="Helvetica,sans-Serif" font-size="10.00">totient</text>
</a>
</g>
</g>
<!-- Node1&#45;&gt;Node8 -->
<g id="edge8" class="edge">
<title>Node1&#45;&gt;Node8</title>
<path fill="none" stroke="midnightblue" d="M791.33,-110.71C762.73,-99.42 722.39,-83.5 696.97,-73.46"/>
<polygon fill="midnightblue" stroke="midnightblue" points="790.33,-114.08 800.92,-114.49 792.9,-107.57 790.33,-114.08"/>
</g>
<!-- Node3 -->
<g id="node3" class="node">
<title>Node3</title>
<g id="a_node3"><a xlink:href="namespacecombinatorics_1_1test.html#a02b85c66d33799029d94ecfbb7c8b062" target="_top" xlink:title=" ">
<polygon fill="white" stroke="black" points="463,-153 463,-183 573,-183 573,-153 463,-153"/>
<text text-anchor="start" x="471" y="-171" font-family="Helvetica,sans-Serif" font-size="10.00">combinatorics::test</text>
<text text-anchor="middle" x="518" y="-160" font-family="Helvetica,sans-Serif" font-size="10.00">::test_choose</text>
</a>
</g>
</g>
<!-- Node2&#45;&gt;Node3 -->
<g id="edge2" class="edge">
<title>Node2&#45;&gt;Node3</title>
<path fill="none" stroke="midnightblue" d="M598.69,-168C590.09,-168 581.42,-168 573.14,-168"/>
<polygon fill="midnightblue" stroke="midnightblue" points="598.74,-171.5 608.74,-168 598.74,-164.5 598.74,-171.5"/>
</g>
<!-- Node4 -->
<g id="node4" class="node">
<title>Node4</title>
<g id="a_node4"><a xlink:href="namespacecombinatorics_1_1test.html#a28cd50807d464588cc9b5add7bed4f97" target="_top" xlink:title=" ">
<polygon fill="white" stroke="black" points="311,-115 311,-145 427,-145 427,-115 311,-115"/>
<text text-anchor="start" x="319" y="-133" font-family="Helvetica,sans-Serif" font-size="10.00">combinatorics::test</text>
<text text-anchor="middle" x="369" y="-122" font-family="Helvetica,sans-Serif" font-size="10.00">::test_combinatorics</text>
</a>
</g>
</g>
<!-- Node3&#45;&gt;Node4 -->
<g id="edge3" class="edge">
<title>Node3&#45;&gt;Node4</title>
<path fill="none" stroke="midnightblue" d="M452.75,-151.39C444.19,-149.18 435.47,-146.92 427.05,-144.75"/>
<polygon fill="midnightblue" stroke="midnightblue" points="452.12,-154.84 462.68,-153.96 453.87,-148.07 452.12,-154.84"/>
</g>
<!-- Node5 -->
<g id="node5" class="node">
<title>Node5</title>
<g id="a_node5"><a xlink:href="test_8cpp.html#af095a232149097b5605064623a9345ac" target="_top" xlink:title=" ">
<polygon fill="white" stroke="black" points="77,-76.5 77,-95.5 124,-95.5 124,-76.5 77,-76.5"/>
<text text-anchor="middle" x="100.5" y="-83.5" font-family="Helvetica,sans-Serif" font-size="10.00">main2</text>
</a>
</g>
</g>
<!-- Node4&#45;&gt;Node5 -->
<g id="edge4" class="edge">
<title>Node4&#45;&gt;Node5</title>
<path fill="none" stroke="midnightblue" d="M300.66,-118.88C242.8,-109.33 162.78,-96.12 124.15,-89.74"/>
<polygon fill="midnightblue" stroke="midnightblue" points="300.39,-122.39 310.83,-120.56 301.53,-115.48 300.39,-122.39"/>
</g>
<!-- Node6 -->
<g id="node6" class="node">
<title>Node6</title>
<g id="a_node6"><a xlink:href="main_8hpp.html#a0ddf1224851353fc92bfbff6f499fa97" target="_top" xlink:title=" ">
<polygon fill="white" stroke="black" points="0,-76.5 0,-95.5 41,-95.5 41,-76.5 0,-76.5"/>
<text text-anchor="middle" x="20.5" y="-83.5" font-family="Helvetica,sans-Serif" font-size="10.00">main</text>
</a>
</g>
</g>
<!-- Node5&#45;&gt;Node6 -->
<g id="edge5" class="edge">
<title>Node5&#45;&gt;Node6</title>
<path fill="none" stroke="midnightblue" d="M66.66,-86C57.96,-86 48.84,-86 41.1,-86"/>
<polygon fill="midnightblue" stroke="midnightblue" points="66.94,-89.5 76.94,-86 66.94,-82.5 66.94,-89.5"/>
</g>
<!-- Node7&#45;&gt;Node4 -->
<g id="edge7" class="edge">
<title>Node7&#45;&gt;Node4</title>
<path fill="none" stroke="midnightblue" d="M606.81,-125.28C553.48,-126.34 478.3,-127.84 427.05,-128.86"/>
<polygon fill="midnightblue" stroke="midnightblue" points="606.91,-128.78 616.84,-125.08 606.77,-121.78 606.91,-128.78"/>
</g>
<!-- Node9 -->
<g id="node9" class="node">
<title>Node9</title>
<g id="a_node9"><a xlink:href="number__theory_8hpp.html#a67527905c2b2c027c8b458902db2d05a" target="_top" xlink:title="Finds x such that a^x = b (mod M) using baby&#45;step giant&#45;step algorithm.">
<polygon fill="white" stroke="black" points="499,-76.5 499,-95.5 537,-95.5 537,-76.5 499,-76.5"/>
<text text-anchor="middle" x="518" y="-83.5" font-family="Helvetica,sans-Serif" font-size="10.00">dlog</text>
</a>
</g>
</g>
<!-- Node8&#45;&gt;Node9 -->
<g id="edge9" class="edge">
<title>Node8&#45;&gt;Node9</title>
<path fill="none" stroke="midnightblue" d="M636.97,-68.93C606.16,-73.38 561.95,-79.78 537.33,-83.35"/>
<polygon fill="midnightblue" stroke="midnightblue" points="637.85,-72.33 647.25,-67.44 636.85,-65.41 637.85,-72.33"/>
</g>
<!-- Node12 -->
<g id="node12" class="node">
<title>Node12</title>
<g id="a_node12"><a xlink:href="number__theory_8hpp.html#a6542b189f3759f43899a8b1978d58e2c" target="_top" xlink:title="Returns a primitive root modulo M.">
<polygon fill="white" stroke="black" points="475,-38.5 475,-57.5 561,-57.5 561,-38.5 475,-38.5"/>
<text text-anchor="middle" x="518" y="-45.5" font-family="Helvetica,sans-Serif" font-size="10.00">primitive_root</text>
</a>
</g>
</g>
<!-- Node8&#45;&gt;Node12 -->
<g id="edge13" class="edge">
<title>Node8&#45;&gt;Node12</title>
<path fill="none" stroke="midnightblue" d="M637.19,-60.44C614.78,-58.08 585.2,-54.97 561.24,-52.45"/>
<polygon fill="midnightblue" stroke="midnightblue" points="636.94,-63.93 647.25,-61.5 637.67,-56.97 636.94,-63.93"/>
</g>
<!-- Node14 -->
<g id="node14" class="node">
<title>Node14</title>
<g id="a_node14"><a xlink:href="test__number__theory_8hpp.html#a8ae320acad5e35d58ca5ad7adc6ddd78" target="_top" xlink:title=" ">
<polygon fill="white" stroke="black" points="332.5,-0.5 332.5,-19.5 405.5,-19.5 405.5,-0.5 332.5,-0.5"/>
<text text-anchor="middle" x="369" y="-7.5" font-family="Helvetica,sans-Serif" font-size="10.00">test_totient</text>
</a>
</g>
</g>
<!-- Node8&#45;&gt;Node14 -->
<g id="edge16" class="edge">
<title>Node8&#45;&gt;Node14</title>
<path fill="none" stroke="midnightblue" d="M639.94,-50.66C620.95,-43.07 595.98,-34.09 573,-29 515.29,-16.21 446.49,-12.02 405.62,-10.65"/>
<polygon fill="midnightblue" stroke="midnightblue" points="638.7,-53.93 649.28,-54.47 641.34,-47.45 638.7,-53.93"/>
</g>
<!-- Node10 -->
<g id="node10" class="node">
<title>Node10</title>
<g id="a_node10"><a xlink:href="test__number__theory_8hpp.html#a7aac53ce82614d79c7098a1de32ed1e7" target="_top" xlink:title=" ">
<polygon fill="white" stroke="black" points="338,-76.5 338,-95.5 400,-95.5 400,-76.5 338,-76.5"/>
<text text-anchor="middle" x="369" y="-83.5" font-family="Helvetica,sans-Serif" font-size="10.00">test_dlog</text>
</a>
</g>
</g>
<!-- Node9&#45;&gt;Node10 -->
<g id="edge10" class="edge">
<title>Node9&#45;&gt;Node10</title>
<path fill="none" stroke="midnightblue" d="M488.88,-86C463.48,-86 426.2,-86 400.18,-86"/>
<polygon fill="midnightblue" stroke="midnightblue" points="488.97,-89.5 498.97,-86 488.97,-82.5 488.97,-89.5"/>
</g>
<!-- Node11 -->
<g id="node11" class="node">
<title>Node11</title>
<g id="a_node11"><a xlink:href="test__number__theory_8hpp.html#aed36f6b8b9706133e9b5302b1618e9ef" target="_top" xlink:title=" ">
<polygon fill="white" stroke="black" points="160,-57.5 160,-76.5 275,-76.5 275,-57.5 160,-57.5"/>
<text text-anchor="middle" x="217.5" y="-64.5" font-family="Helvetica,sans-Serif" font-size="10.00">test_number_theory</text>
</a>
</g>
</g>
<!-- Node10&#45;&gt;Node11 -->
<g id="edge11" class="edge">
<title>Node10&#45;&gt;Node11</title>
<path fill="none" stroke="midnightblue" d="M327.56,-80.86C311.4,-78.81 292.5,-76.4 275.02,-74.18"/>
<polygon fill="midnightblue" stroke="midnightblue" points="327.38,-84.37 337.75,-82.16 328.27,-77.42 327.38,-84.37"/>
</g>
<!-- Node11&#45;&gt;Node5 -->
<g id="edge12" class="edge">
<title>Node11&#45;&gt;Node5</title>
<path fill="none" stroke="midnightblue" d="M149.7,-78.04C140.58,-79.54 131.78,-81 124.26,-82.24"/>
<polygon fill="midnightblue" stroke="midnightblue" points="150.38,-81.47 159.67,-76.39 149.24,-74.57 150.38,-81.47"/>
</g>
<!-- Node13 -->
<g id="node13" class="node">
<title>Node13</title>
<g id="a_node13"><a xlink:href="test__number__theory_8hpp.html#a0ff115471f41e78245b5dc48eaf8032f" target="_top" xlink:title=" ">
<polygon fill="white" stroke="black" points="314,-38.5 314,-57.5 424,-57.5 424,-38.5 314,-38.5"/>
<text text-anchor="middle" x="369" y="-45.5" font-family="Helvetica,sans-Serif" font-size="10.00">test_primitive_root</text>
</a>
</g>
</g>
<!-- Node12&#45;&gt;Node13 -->
<g id="edge14" class="edge">
<title>Node12&#45;&gt;Node13</title>
<path fill="none" stroke="midnightblue" d="M464.61,-48C451.5,-48 437.41,-48 424.22,-48"/>
<polygon fill="midnightblue" stroke="midnightblue" points="464.88,-51.5 474.88,-48 464.88,-44.5 464.88,-51.5"/>
</g>
<!-- Node13&#45;&gt;Node11 -->
<g id="edge15" class="edge">
<title>Node13&#45;&gt;Node11</title>
<path fill="none" stroke="midnightblue" d="M303.48,-56.2C294.04,-57.4 284.38,-58.63 275.12,-59.8"/>
<polygon fill="midnightblue" stroke="midnightblue" points="304.13,-59.65 313.6,-54.91 303.24,-52.7 304.13,-59.65"/>
</g>
<!-- Node14&#45;&gt;Node11 -->
<g id="edge17" class="edge">
<title>Node14&#45;&gt;Node11</title>
<path fill="none" stroke="midnightblue" d="M328.33,-22.84C322.49,-24.84 316.57,-26.93 311,-29 286.75,-38.01 259.39,-49.4 240.76,-57.36"/>
<polygon fill="midnightblue" stroke="midnightblue" points="329.63,-26.09 337.99,-19.58 327.39,-19.46 329.63,-26.09"/>
</g>
</g>
</svg>
