<?xml version="1.0" encoding="UTF-8" standalone="no"?>
<!DOCTYPE svg PUBLIC "-//W3C//DTD SVG 1.1//EN"
 "http://www.w3.org/Graphics/SVG/1.1/DTD/svg11.dtd">
<!-- Generated by graphviz version 2.43.0 (0)
 -->
<!-- Title: graph_theory::add_edge Pages: 1 -->
<!--zoomable 469 -->
<svg id="main" version="1.1" xmlns="http://www.w3.org/2000/svg" xmlns:xlink="http://www.w3.org/1999/xlink" xml:space="preserve" onload="init(evt)">
<style type="text/css"><![CDATA[
.edge:hover path { stroke: red; }
.edge:hover polygon { stroke: red; fill: red; }
]]></style>
<script type="text/javascript"><![CDATA[
var edges = document.getElementsByTagName('g');
if (edges && edges.length) {
  for (var i=0;i<edges.length;i++) {
    if (edges[i].id.substr(0,4)=='edge') {
      edges[i].setAttribute('class','edge');
    }
  }
}
]]></script>
        <defs>
                <circle id="rim" cx="0" cy="0" r="7"/>
                <circle id="rim2" cx="0" cy="0" r="3.5"/>
                <g id="zoomPlus">
                        <use xlink:href="#rim" fill="#404040">
                                <set attributeName="fill" to="#808080" begin="zoomplus.mouseover" end="zoomplus.mouseout"/>
                        </use>
                        <path d="M-4,0h8M0,-4v8" fill="none" stroke="white" stroke-width="1.5" pointer-events="none"/>
                </g>
                <g id="zoomMin">
                        <use xlink:href="#rim" fill="#404040">
                                <set attributeName="fill" to="#808080" begin="zoomminus.mouseover" end="zoomminus.mouseout"/>
                        </use>
                        <path d="M-4,0h8" fill="none" stroke="white" stroke-width="1.5" pointer-events="none"/>
                </g>
                <g id="dirArrow">
                        <path fill="none" stroke="white" stroke-width="1.5" d="M0,-3.0v7 M-2.5,-0.5L0,-3.0L2.5,-0.5"/>
                </g>
               <g id="resetDef">
                       <use xlink:href="#rim2" fill="#404040">
                               <set attributeName="fill" to="#808080" begin="reset.mouseover" end="reset.mouseout"/>
                       </use>
               </g>
        </defs>

<script type="text/javascript">
var viewWidth = 879;
var viewHeight = 469;
var sectionId = 'dynsection-0';
</script>
<script xlink:href="svgpan.js"/>
<svg id="graph" class="graph">
<g id="viewport">
<title>graph_theory::add_edge</title>
<polygon fill="white" stroke="transparent" points="-4,4 -4,-465.15 875,-465.15 875,4 -4,4"/>
<!-- Node1 -->
<g id="node1" class="node">
<title>Node1</title>
<g id="a_node1"><a xlink:title="Adds edge &#160;to graph graph.">
<polygon fill="#bfbfbf" stroke="black" points="737,-232.65 737,-251.65 871,-251.65 871,-232.65 737,-232.65"/>
<text text-anchor="middle" x="804" y="-239.65" font-family="Helvetica,sans-Serif" font-size="10.00">graph_theory::add_edge</text>
</a>
</g>
</g>
<!-- Node2 -->
<g id="node2" class="node">
<title>Node2</title>
<g id="a_node2"><a xlink:href="biconnected_8hpp.html#a789f23d7fc22d09960694892eeb41223" target="_top" xlink:title="Finds biconnected components of graph using ear decompositions.">
<polygon fill="white" stroke="black" points="588,-327.65 588,-346.65 685,-346.65 685,-327.65 588,-327.65"/>
<text text-anchor="middle" x="636.5" y="-334.65" font-family="Helvetica,sans-Serif" font-size="10.00">biconnected_ear</text>
</a>
</g>
</g>
<!-- Node1&#45;&gt;Node2 -->
<g id="edge1" class="edge">
<title>Node1&#45;&gt;Node2</title>
<path fill="none" stroke="midnightblue" d="M783.39,-258C763.51,-273.53 731.43,-297.13 701,-313.15 690.36,-318.75 678.12,-323.7 667.24,-327.63"/>
<polygon fill="midnightblue" stroke="midnightblue" points="785.7,-260.64 791.37,-251.69 781.36,-255.15 785.7,-260.64"/>
</g>
<!-- Node3 -->
<g id="node3" class="node">
<title>Node3</title>
<g id="a_node3"><a xlink:href="test__biconnected_8hpp.html#a07c975aa9b96f7bdb70155ae0c3acd17" target="_top" xlink:title=" ">
<polygon fill="white" stroke="black" points="422,-309.65 422,-328.65 522,-328.65 522,-309.65 422,-309.65"/>
<text text-anchor="middle" x="472" y="-316.65" font-family="Helvetica,sans-Serif" font-size="10.00">test_biconnected</text>
</a>
</g>
</g>
<!-- Node1&#45;&gt;Node3 -->
<g id="edge12" class="edge">
<title>Node1&#45;&gt;Node3</title>
<path fill="none" stroke="midnightblue" d="M764.41,-254.83C745.43,-260.83 722.14,-267.82 701,-273.15 639.92,-288.56 568.62,-302.27 522.23,-310.63"/>
<polygon fill="midnightblue" stroke="midnightblue" points="765.73,-258.09 774.19,-251.72 763.6,-251.42 765.73,-258.09"/>
</g>
<!-- Node8 -->
<g id="node8" class="node">
<title>Node8</title>
<g id="a_node8"><a xlink:href="namespacegraph__theory.html#aa68bcc78bd4d2bbd33ce272bbb2d5f33" target="_top" xlink:title=" ">
<polygon fill="white" stroke="black" points="572.5,-365.65 572.5,-384.65 700.5,-384.65 700.5,-365.65 572.5,-365.65"/>
<text text-anchor="middle" x="636.5" y="-372.65" font-family="Helvetica,sans-Serif" font-size="10.00">graph_theory::graph_in</text>
</a>
</g>
</g>
<!-- Node1&#45;&gt;Node8 -->
<g id="edge7" class="edge">
<title>Node1&#45;&gt;Node8</title>
<path fill="none" stroke="midnightblue" d="M791.54,-260.3C774.72,-285.48 740.96,-330.78 701,-356.15 694.98,-359.98 688.15,-363.06 681.25,-365.54"/>
<polygon fill="midnightblue" stroke="midnightblue" points="794.61,-262 797.14,-251.71 788.74,-258.18 794.61,-262"/>
</g>
<!-- Node9 -->
<g id="node9" class="node">
<title>Node9</title>
<g id="a_node9"><a xlink:href="namespacegraph__theory_1_1test.html#afca7670537e2da47c79f8e3602e96c2c" target="_top" xlink:title=" ">
<polygon fill="white" stroke="black" points="419.5,-260.15 419.5,-290.15 524.5,-290.15 524.5,-260.15 419.5,-260.15"/>
<text text-anchor="start" x="427.5" y="-278.15" font-family="Helvetica,sans-Serif" font-size="10.00">graph_theory::test</text>
<text text-anchor="middle" x="472" y="-267.15" font-family="Helvetica,sans-Serif" font-size="10.00">::test_add_edge</text>
</a>
</g>
</g>
<!-- Node1&#45;&gt;Node9 -->
<g id="edge8" class="edge">
<title>Node1&#45;&gt;Node9</title>
<path fill="none" stroke="midnightblue" d="M726.49,-249.8C664.49,-256 578.82,-264.57 524.67,-269.98"/>
<polygon fill="midnightblue" stroke="midnightblue" points="727.01,-253.27 736.62,-248.79 726.32,-246.3 727.01,-253.27"/>
</g>
<!-- Node10 -->
<g id="node10" class="node">
<title>Node10</title>
<g id="a_node10"><a xlink:href="namespacegraph__theory_1_1test.html#a89fa4a3244eff73fe109343d7e132c43" target="_top" xlink:title=" ">
<polygon fill="white" stroke="black" points="419.5,-211.15 419.5,-241.15 524.5,-241.15 524.5,-211.15 419.5,-211.15"/>
<text text-anchor="start" x="427.5" y="-229.15" font-family="Helvetica,sans-Serif" font-size="10.00">graph_theory::test</text>
<text text-anchor="middle" x="472" y="-218.15" font-family="Helvetica,sans-Serif" font-size="10.00">::test_BFS</text>
</a>
</g>
</g>
<!-- Node1&#45;&gt;Node10 -->
<g id="edge10" class="edge">
<title>Node1&#45;&gt;Node10</title>
<path fill="none" stroke="midnightblue" d="M726.49,-238.44C664.49,-235.44 578.82,-231.28 524.67,-228.66"/>
<polygon fill="midnightblue" stroke="midnightblue" points="726.46,-241.94 736.62,-238.93 726.8,-234.95 726.46,-241.94"/>
</g>
<!-- Node11 -->
<g id="node11" class="node">
<title>Node11</title>
<g id="a_node11"><a xlink:href="test__centroid_8hpp.html#a1f3c802afdfa77c5389c557f5284a486" target="_top" xlink:title=" ">
<polygon fill="white" stroke="black" points="409.5,-172.65 409.5,-191.65 534.5,-191.65 534.5,-172.65 409.5,-172.65"/>
<text text-anchor="middle" x="472" y="-179.65" font-family="Helvetica,sans-Serif" font-size="10.00">test_centroid_decomp</text>
</a>
</g>
</g>
<!-- Node1&#45;&gt;Node11 -->
<g id="edge13" class="edge">
<title>Node1&#45;&gt;Node11</title>
<path fill="none" stroke="midnightblue" d="M740.63,-230.81C678.37,-219.49 583.78,-202.29 525.32,-191.66"/>
<polygon fill="midnightblue" stroke="midnightblue" points="740.25,-234.3 750.71,-232.64 741.5,-227.41 740.25,-234.3"/>
</g>
<!-- Node12 -->
<g id="node12" class="node">
<title>Node12</title>
<g id="a_node12"><a xlink:href="namespacegraph__theory_1_1bipartite_1_1test.html#a7e5ad591c1ee6db41745438d98b39825" target="_top" xlink:title=" ">
<polygon fill="white" stroke="black" points="572.5,-126.15 572.5,-156.15 700.5,-156.15 700.5,-126.15 572.5,-126.15"/>
<text text-anchor="start" x="580.5" y="-144.15" font-family="Helvetica,sans-Serif" font-size="10.00">graph_theory::bipartite</text>
<text text-anchor="middle" x="636.5" y="-133.15" font-family="Helvetica,sans-Serif" font-size="10.00">::test::test_color2</text>
</a>
</g>
</g>
<!-- Node1&#45;&gt;Node12 -->
<g id="edge15" class="edge">
<title>Node1&#45;&gt;Node12</title>
<path fill="none" stroke="midnightblue" d="M782.45,-226.32C762.31,-211.18 730.44,-188.19 701,-171.15 691.82,-165.84 681.54,-160.67 671.98,-156.16"/>
<polygon fill="midnightblue" stroke="midnightblue" points="780.49,-229.22 790.57,-232.48 784.72,-223.65 780.49,-229.22"/>
</g>
<!-- Node14 -->
<g id="node14" class="node">
<title>Node14</title>
<g id="a_node14"><a xlink:href="namespacegraph__draw_1_1test.html#a037737d6386f4405a42dc842eb4d7436" target="_top" xlink:title=" ">
<polygon fill="white" stroke="black" points="249,-39.15 249,-69.15 372,-69.15 372,-39.15 249,-39.15"/>
<text text-anchor="start" x="257" y="-57.15" font-family="Helvetica,sans-Serif" font-size="10.00">graph_draw::test::test</text>
<text text-anchor="middle" x="310.5" y="-46.15" font-family="Helvetica,sans-Serif" font-size="10.00">_graph_draw</text>
</a>
</g>
</g>
<!-- Node1&#45;&gt;Node14 -->
<g id="edge18" class="edge">
<title>Node1&#45;&gt;Node14</title>
<path fill="none" stroke="midnightblue" d="M798.24,-222.4C787.91,-184.47 759.54,-102.1 701,-67.15 647.26,-35.07 467.78,-42.57 372.36,-49.19"/>
<polygon fill="midnightblue" stroke="midnightblue" points="794.89,-223.44 800.78,-232.25 801.67,-221.69 794.89,-223.44"/>
</g>
<!-- Node15 -->
<g id="node15" class="node">
<title>Node15</title>
<g id="a_node15"><a xlink:href="graph__view_8hpp.html#ac5d2f097a07285733e610a52b16e790b" target="_top" xlink:title=" ">
<polygon fill="white" stroke="black" points="588,-441.65 588,-460.65 685,-460.65 685,-441.65 588,-441.65"/>
<text text-anchor="middle" x="636.5" y="-448.65" font-family="Helvetica,sans-Serif" font-size="10.00">test_graph_view</text>
</a>
</g>
</g>
<!-- Node1&#45;&gt;Node15 -->
<g id="edge20" class="edge">
<title>Node1&#45;&gt;Node15</title>
<path fill="none" stroke="midnightblue" d="M797.98,-261.65C787.07,-300.11 757.5,-386.05 701,-432.15 696.27,-436.01 690.78,-439.08 685.05,-441.53"/>
<polygon fill="midnightblue" stroke="midnightblue" points="801.43,-262.29 800.68,-251.73 794.68,-260.46 801.43,-262.29"/>
</g>
<!-- Node16 -->
<g id="node16" class="node">
<title>Node16</title>
<g id="a_node16"><a xlink:href="namespacehld_1_1test.html#a2c2ea10aedda3e4e51f08d38ea3fa3f0" target="_top" xlink:title=" ">
<polygon fill="white" stroke="black" points="421.5,-0.65 421.5,-19.65 522.5,-19.65 522.5,-0.65 421.5,-0.65"/>
<text text-anchor="middle" x="472" y="-7.65" font-family="Helvetica,sans-Serif" font-size="10.00">hld::test::test_hld</text>
</a>
</g>
</g>
<!-- Node1&#45;&gt;Node16 -->
<g id="edge22" class="edge">
<title>Node1&#45;&gt;Node16</title>
<path fill="none" stroke="midnightblue" d="M799.86,-222.75C791.9,-180.45 766.67,-80.04 701,-34.15 648.63,2.44 572.31,2.58 522.65,-2.4"/>
<polygon fill="midnightblue" stroke="midnightblue" points="796.42,-223.38 801.6,-232.62 803.31,-222.17 796.42,-223.38"/>
</g>
<!-- Node17 -->
<g id="node17" class="node">
<title>Node17</title>
<g id="a_node17"><a xlink:href="namespacegraph__theory_1_1bipartite_1_1test.html#af862fd7b59fb6a9e0a396a5bd8801c3e" target="_top" xlink:title=" ">
<polygon fill="white" stroke="black" points="572,-77.15 572,-107.15 701,-107.15 701,-77.15 572,-77.15"/>
<text text-anchor="start" x="580" y="-95.15" font-family="Helvetica,sans-Serif" font-size="10.00">graph_theory::bipartite</text>
<text text-anchor="middle" x="636.5" y="-84.15" font-family="Helvetica,sans-Serif" font-size="10.00">::test::test_max_match</text>
</a>
</g>
</g>
<!-- Node1&#45;&gt;Node17 -->
<g id="edge24" class="edge">
<title>Node1&#45;&gt;Node17</title>
<path fill="none" stroke="midnightblue" d="M792.44,-223.64C776.1,-196.51 742.24,-145.96 701,-116.15 696.32,-112.77 691.1,-109.8 685.73,-107.22"/>
<polygon fill="midnightblue" stroke="midnightblue" points="789.56,-225.64 797.65,-232.49 795.6,-222.1 789.56,-225.64"/>
</g>
<!-- Node18 -->
<g id="node18" class="node">
<title>Node18</title>
<g id="a_node18"><a xlink:href="tree_8hpp.html#a3723e2fdc7693c4777b321d0619f189d" target="_top" xlink:title=" ">
<polygon fill="white" stroke="black" points="581.5,-403.65 581.5,-422.65 691.5,-422.65 691.5,-403.65 581.5,-403.65"/>
<text text-anchor="middle" x="636.5" y="-410.65" font-family="Helvetica,sans-Serif" font-size="10.00">test_tree_diameter</text>
</a>
</g>
</g>
<!-- Node1&#45;&gt;Node18 -->
<g id="edge26" class="edge">
<title>Node1&#45;&gt;Node18</title>
<path fill="none" stroke="midnightblue" d="M795.36,-261.24C781.48,-293.5 749.03,-358.74 701,-394.15 695.72,-398.04 689.64,-401.14 683.39,-403.61"/>
<polygon fill="midnightblue" stroke="midnightblue" points="798.74,-262.23 799.35,-251.66 792.28,-259.54 798.74,-262.23"/>
</g>
<!-- Node2&#45;&gt;Node3 -->
<g id="edge2" class="edge">
<title>Node2&#45;&gt;Node3</title>
<path fill="none" stroke="midnightblue" d="M577.49,-330.73C559.41,-328.72 539.65,-326.53 522.22,-324.6"/>
<polygon fill="midnightblue" stroke="midnightblue" points="577.3,-334.23 587.62,-331.85 578.07,-327.27 577.3,-334.23"/>
</g>
<!-- Node4 -->
<g id="node4" class="node">
<title>Node4</title>
<g id="a_node4"><a xlink:href="namespacegraph__theory_1_1test.html#a147e0cf4f86928e4e422c6b9198a2371" target="_top" xlink:title=" ">
<polygon fill="white" stroke="black" points="255,-235.15 255,-265.15 366,-265.15 366,-235.15 255,-235.15"/>
<text text-anchor="start" x="263" y="-253.15" font-family="Helvetica,sans-Serif" font-size="10.00">graph_theory::test</text>
<text text-anchor="middle" x="310.5" y="-242.15" font-family="Helvetica,sans-Serif" font-size="10.00">::test_graph_theory</text>
</a>
</g>
</g>
<!-- Node3&#45;&gt;Node4 -->
<g id="edge3" class="edge">
<title>Node3&#45;&gt;Node4</title>
<path fill="none" stroke="midnightblue" d="M427.67,-306.42C421.02,-304.17 414.28,-301.72 408,-299.15 383.83,-289.26 357.46,-275.66 338.4,-265.3"/>
<polygon fill="midnightblue" stroke="midnightblue" points="426.7,-309.78 437.29,-309.56 428.87,-303.13 426.7,-309.78"/>
</g>
<!-- Node5 -->
<g id="node5" class="node">
<title>Node5</title>
<g id="a_node5"><a xlink:href="test_8cpp.html#aa1c715cac916839a95e25b65b4071c4a" target="_top" xlink:title=" ">
<polygon fill="white" stroke="black" points="160,-44.65 160,-63.65 213,-63.65 213,-44.65 160,-44.65"/>
<text text-anchor="middle" x="186.5" y="-51.65" font-family="Helvetica,sans-Serif" font-size="10.00">test_all</text>
</a>
</g>
</g>
<!-- Node4&#45;&gt;Node5 -->
<g id="edge4" class="edge">
<title>Node4&#45;&gt;Node5</title>
<path fill="none" stroke="midnightblue" d="M294.71,-226.4C267.88,-183.29 212.23,-93.88 193.67,-64.07"/>
<polygon fill="midnightblue" stroke="midnightblue" points="291.87,-228.46 300.13,-235.1 297.82,-224.76 291.87,-228.46"/>
</g>
<!-- Node6 -->
<g id="node6" class="node">
<title>Node6</title>
<g id="a_node6"><a xlink:href="test_8cpp.html#af095a232149097b5605064623a9345ac" target="_top" xlink:title=" ">
<polygon fill="white" stroke="black" points="77,-44.65 77,-63.65 124,-63.65 124,-44.65 77,-44.65"/>
<text text-anchor="middle" x="100.5" y="-51.65" font-family="Helvetica,sans-Serif" font-size="10.00">main2</text>
</a>
</g>
</g>
<!-- Node5&#45;&gt;Node6 -->
<g id="edge5" class="edge">
<title>Node5&#45;&gt;Node6</title>
<path fill="none" stroke="midnightblue" d="M149.59,-54.15C140.96,-54.15 131.99,-54.15 124.16,-54.15"/>
<polygon fill="midnightblue" stroke="midnightblue" points="149.84,-57.65 159.84,-54.15 149.84,-50.65 149.84,-57.65"/>
</g>
<!-- Node7 -->
<g id="node7" class="node">
<title>Node7</title>
<g id="a_node7"><a xlink:href="main_8hpp.html#a0ddf1224851353fc92bfbff6f499fa97" target="_top" xlink:title=" ">
<polygon fill="white" stroke="black" points="0,-44.65 0,-63.65 41,-63.65 41,-44.65 0,-44.65"/>
<text text-anchor="middle" x="20.5" y="-51.65" font-family="Helvetica,sans-Serif" font-size="10.00">main</text>
</a>
</g>
</g>
<!-- Node6&#45;&gt;Node7 -->
<g id="edge6" class="edge">
<title>Node6&#45;&gt;Node7</title>
<path fill="none" stroke="midnightblue" d="M66.66,-54.15C57.96,-54.15 48.84,-54.15 41.1,-54.15"/>
<polygon fill="midnightblue" stroke="midnightblue" points="66.94,-57.65 76.94,-54.15 66.94,-50.65 66.94,-57.65"/>
</g>
<!-- Node9&#45;&gt;Node4 -->
<g id="edge9" class="edge">
<title>Node9&#45;&gt;Node4</title>
<path fill="none" stroke="midnightblue" d="M409.05,-265.44C394.87,-263.22 379.89,-260.87 366.04,-258.7"/>
<polygon fill="midnightblue" stroke="midnightblue" points="408.79,-268.94 419.21,-267.03 409.88,-262.03 408.79,-268.94"/>
</g>
<!-- Node10&#45;&gt;Node4 -->
<g id="edge11" class="edge">
<title>Node10&#45;&gt;Node4</title>
<path fill="none" stroke="midnightblue" d="M409.05,-235.47C394.87,-237.61 379.89,-239.86 366.04,-241.94"/>
<polygon fill="midnightblue" stroke="midnightblue" points="409.85,-238.89 419.21,-233.94 408.81,-231.97 409.85,-238.89"/>
</g>
<!-- Node11&#45;&gt;Node4 -->
<g id="edge14" class="edge">
<title>Node11&#45;&gt;Node4</title>
<path fill="none" stroke="midnightblue" d="M425.43,-194.85C419.51,-196.8 413.57,-198.92 408,-201.15 383.58,-210.94 357.01,-224.68 337.95,-235.12"/>
<polygon fill="midnightblue" stroke="midnightblue" points="426.82,-198.08 435.3,-191.72 424.71,-191.4 426.82,-198.08"/>
</g>
<!-- Node13 -->
<g id="node13" class="node">
<title>Node13</title>
<g id="a_node13"><a xlink:href="namespacegraph__theory_1_1bipartite_1_1test.html#aab2e93dd92c799618ead37ec7b1d93b9" target="_top" xlink:title=" ">
<polygon fill="white" stroke="black" points="408,-123.15 408,-153.15 536,-153.15 536,-123.15 408,-123.15"/>
<text text-anchor="start" x="416" y="-141.15" font-family="Helvetica,sans-Serif" font-size="10.00">graph_theory::bipartite</text>
<text text-anchor="middle" x="472" y="-130.15" font-family="Helvetica,sans-Serif" font-size="10.00">::test::test_bipartite</text>
</a>
</g>
</g>
<!-- Node12&#45;&gt;Node13 -->
<g id="edge16" class="edge">
<title>Node12&#45;&gt;Node13</title>
<path fill="none" stroke="midnightblue" d="M562.1,-139.8C553.43,-139.64 544.63,-139.47 536.12,-139.32"/>
<polygon fill="midnightblue" stroke="midnightblue" points="562.15,-143.3 572.21,-139.98 562.27,-136.3 562.15,-143.3"/>
</g>
<!-- Node13&#45;&gt;Node4 -->
<g id="edge17" class="edge">
<title>Node13&#45;&gt;Node4</title>
<path fill="none" stroke="midnightblue" d="M417.84,-157.62C414.44,-159.36 411.13,-161.21 408,-163.15 374.85,-183.74 342.43,-216.23 324.9,-235.14"/>
<polygon fill="midnightblue" stroke="midnightblue" points="419.45,-160.73 426.97,-153.27 416.44,-154.41 419.45,-160.73"/>
</g>
<!-- Node14&#45;&gt;Node5 -->
<g id="edge19" class="edge">
<title>Node14&#45;&gt;Node5</title>
<path fill="none" stroke="midnightblue" d="M238.59,-54.15C229.58,-54.15 220.86,-54.15 213.25,-54.15"/>
<polygon fill="midnightblue" stroke="midnightblue" points="238.86,-57.65 248.86,-54.15 238.86,-50.65 238.86,-57.65"/>
</g>
<!-- Node15&#45;&gt;Node4 -->
<g id="edge21" class="edge">
<title>Node15&#45;&gt;Node4</title>
<path fill="none" stroke="midnightblue" d="M577.58,-442.42C528.74,-432.83 458.88,-413.65 408,-377.15 365.47,-346.64 333.14,-291.96 319.13,-265.43"/>
<polygon fill="midnightblue" stroke="midnightblue" points="577.19,-445.91 587.67,-444.33 578.49,-439.03 577.19,-445.91"/>
</g>
<!-- Node16&#45;&gt;Node5 -->
<g id="edge23" class="edge">
<title>Node16&#45;&gt;Node5</title>
<path fill="none" stroke="midnightblue" d="M411.18,-10.43C366.05,-11.8 302.91,-16.2 249,-29.15 234.32,-32.68 218.56,-39.14 206.67,-44.61"/>
<polygon fill="midnightblue" stroke="midnightblue" points="411.48,-13.92 421.38,-10.16 411.3,-6.92 411.48,-13.92"/>
</g>
<!-- Node17&#45;&gt;Node13 -->
<g id="edge25" class="edge">
<title>Node17&#45;&gt;Node13</title>
<path fill="none" stroke="midnightblue" d="M572.38,-110.02C557.07,-114.35 540.85,-118.95 526.05,-123.13"/>
<polygon fill="midnightblue" stroke="midnightblue" points="573.62,-113.31 582.29,-107.21 571.72,-106.57 573.62,-113.31"/>
</g>
<!-- Node18&#45;&gt;Node4 -->
<g id="edge27" class="edge">
<title>Node18&#45;&gt;Node4</title>
<path fill="none" stroke="midnightblue" d="M577.35,-401.31C529.57,-389.91 461.3,-369.68 408,-338.15 374.04,-318.06 341.67,-284.63 324.41,-265.27"/>
<polygon fill="midnightblue" stroke="midnightblue" points="576.7,-404.75 587.23,-403.61 578.28,-397.93 576.7,-404.75"/>
</g>
</g>
</svg>
        <g id="navigator" transform="translate(0 0)" fill="#404254">
                <rect fill="#f2f5e9" fill-opacity="0.5" stroke="#606060" stroke-width=".5" x="0" y="0" width="60" height="60"/>
                <use id="zoomplus" xlink:href="#zoomPlus" x="17" y="9" onmousedown="handleZoom(evt,'in')"/>
                <use id="zoomminus" xlink:href="#zoomMin" x="42" y="9" onmousedown="handleZoom(evt,'out')"/>
                <use id="reset" xlink:href="#resetDef" x="30" y="36" onmousedown="handleReset()"/>
                <g id="arrowUp" xlink:href="#dirArrow" transform="translate(30 24)" onmousedown="handlePan(0,-1)">
                  <use xlink:href="#rim" fill="#404040">
                        <set attributeName="fill" to="#808080" begin="arrowUp.mouseover" end="arrowUp.mouseout"/>
                  </use>
                  <path fill="none" stroke="white" stroke-width="1.5" d="M0,-3.0v7 M-2.5,-0.5L0,-3.0L2.5,-0.5"/>
                </g>
                <g id="arrowRight" xlink:href="#dirArrow" transform="rotate(90) translate(36 -43)" onmousedown="handlePan(1,0)">
                  <use xlink:href="#rim" fill="#404040">
                        <set attributeName="fill" to="#808080" begin="arrowRight.mouseover" end="arrowRight.mouseout"/>
                  </use>
                  <path fill="none" stroke="white" stroke-width="1.5" d="M0,-3.0v7 M-2.5,-0.5L0,-3.0L2.5,-0.5"/>
                </g>
                <g id="arrowDown" xlink:href="#dirArrow" transform="rotate(180) translate(-30 -48)" onmousedown="handlePan(0,1)">
                  <use xlink:href="#rim" fill="#404040">
                        <set attributeName="fill" to="#808080" begin="arrowDown.mouseover" end="arrowDown.mouseout"/>
                  </use>
                  <path fill="none" stroke="white" stroke-width="1.5" d="M0,-3.0v7 M-2.5,-0.5L0,-3.0L2.5,-0.5"/>
                </g>
                <g id="arrowLeft" xlink:href="#dirArrow" transform="rotate(270) translate(-36 17)" onmousedown="handlePan(-1,0)">
                  <use xlink:href="#rim" fill="#404040">
                        <set attributeName="fill" to="#808080" begin="arrowLeft.mouseover" end="arrowLeft.mouseout"/>
                  </use>
                  <path fill="none" stroke="white" stroke-width="1.5" d="M0,-3.0v7 M-2.5,-0.5L0,-3.0L2.5,-0.5"/>
                </g>
        </g>
        <svg viewBox="0 0 15 15" width="100%" height="30px" preserveAspectRatio="xMaxYMin meet">
         <g id="arrow_out" transform="scale(0.3 0.3)">
          <a xlink:href="namespacegraph__theory_a2abf7b81ca97d786b3c5157c655066f1_icgraph_org.svg" target="_base">
           <rect id="button" ry="5" rx="5" y="6" x="6" height="38" width="38"
                fill="#f2f5e9" fill-opacity="0.5" stroke="#606060" stroke-width="1.0"/>
           <path id="arrow"
             d="M 11.500037,31.436501 C 11.940474,20.09759 22.043105,11.32322 32.158766,21.979434 L 37.068811,17.246167 C 37.068811,17.246167 37.088388,32 37.088388,32 L 22.160133,31.978069 C 22.160133,31.978069 26.997745,27.140456 26.997745,27.140456 C 18.528582,18.264221 13.291696,25.230495 11.500037,31.436501 z"
             style="fill:#404040;"/>
          </a>
         </g>
        </svg>
</svg>
