<?xml version="1.0" encoding="UTF-8" standalone="no"?>
<!DOCTYPE svg PUBLIC "-//W3C//DTD SVG 1.1//EN"
 "http://www.w3.org/Graphics/SVG/1.1/DTD/svg11.dtd">
<!-- Generated by graphviz version 2.43.0 (0)
 -->
<!-- Title: combinatorics::test_combinatorics Pages: 1 -->
<svg width="764pt" height="116pt"
 viewBox="0.00 0.00 764.00 115.50" xmlns="http://www.w3.org/2000/svg" xmlns:xlink="http://www.w3.org/1999/xlink">
<g id="graph0" class="graph" transform="scale(1 1) rotate(0) translate(4 111.5)">
<title>combinatorics::test_combinatorics</title>
<polygon fill="white" stroke="transparent" points="-4,4 -4,-111.5 760,-111.5 760,4 -4,4"/>
<!-- Node1 -->
<g id="node1" class="node">
<title>Node1</title>
<g id="a_node1"><a xlink:title=" ">
<polygon fill="#bfbfbf" stroke="black" points="0,-33 0,-63 110,-63 110,-33 0,-33"/>
<text text-anchor="start" x="8" y="-51" font-family="Helvetica,sans-Serif" font-size="10.00">combinatorics::test</text>
<text text-anchor="middle" x="55" y="-40" font-family="Helvetica,sans-Serif" font-size="10.00">_combinatorics</text>
</a>
</g>
</g>
<!-- Node2 -->
<g id="node2" class="node">
<title>Node2</title>
<g id="a_node2"><a xlink:href="namespacecombinatorics.html#a4bb0c0ff8e23b9dfa30bdc71206a62be" target="_top" xlink:title=" ">
<polygon fill="white" stroke="black" points="158,-77 158,-107 268,-107 268,-77 158,-77"/>
<text text-anchor="start" x="166" y="-95" font-family="Helvetica,sans-Serif" font-size="10.00">combinatorics::test</text>
<text text-anchor="middle" x="213" y="-84" font-family="Helvetica,sans-Serif" font-size="10.00">_choose</text>
</a>
</g>
</g>
<!-- Node1&#45;&gt;Node2 -->
<g id="edge1" class="edge">
<title>Node1&#45;&gt;Node2</title>
<path fill="none" stroke="midnightblue" d="M109.25,-63.02C121.98,-66.61 135.69,-70.48 148.82,-74.18"/>
<polygon fill="midnightblue" stroke="midnightblue" points="148.15,-77.63 158.73,-76.97 150.05,-70.89 148.15,-77.63"/>
</g>
<!-- Node6 -->
<g id="node6" class="node">
<title>Node6</title>
<g id="a_node6"><a xlink:href="namespacecombinatorics.html#a49a9258d4d599545b41c0425b8c34aeb" target="_top" xlink:title=" ">
<polygon fill="white" stroke="black" points="146,-38.5 146,-57.5 280,-57.5 280,-38.5 146,-38.5"/>
<text text-anchor="middle" x="213" y="-45.5" font-family="Helvetica,sans-Serif" font-size="10.00">combinatorics::test_fact</text>
</a>
</g>
</g>
<!-- Node1&#45;&gt;Node6 -->
<g id="edge6" class="edge">
<title>Node1&#45;&gt;Node6</title>
<path fill="none" stroke="midnightblue" d="M110.12,-48C118.41,-48 127.09,-48 135.75,-48"/>
<polygon fill="midnightblue" stroke="midnightblue" points="135.87,-51.5 145.87,-48 135.87,-44.5 135.87,-51.5"/>
</g>
<!-- Node7 -->
<g id="node7" class="node">
<title>Node7</title>
<g id="a_node7"><a xlink:href="namespacecombinatorics.html#a354a245ee1f57f4f0586318676040d0a" target="_top" xlink:title=" ">
<polygon fill="white" stroke="black" points="316,-0.5 316,-19.5 457,-19.5 457,-0.5 316,-0.5"/>
<text text-anchor="middle" x="386.5" y="-7.5" font-family="Helvetica,sans-Serif" font-size="10.00">combinatorics::test_perm</text>
</a>
</g>
</g>
<!-- Node1&#45;&gt;Node7 -->
<g id="edge8" class="edge">
<title>Node1&#45;&gt;Node7</title>
<path fill="none" stroke="midnightblue" d="M110.05,-35.41C121.85,-32.99 134.3,-30.69 146,-29 198.98,-21.34 259.03,-16.58 305.74,-13.75"/>
<polygon fill="midnightblue" stroke="midnightblue" points="306.03,-17.24 315.8,-13.15 305.62,-10.25 306.03,-17.24"/>
</g>
<!-- Node3 -->
<g id="node3" class="node">
<title>Node3</title>
<g id="a_node3"><a xlink:href="namespacecombinatorics.html#a1b1a7ea1cc5fc393d43d6a4c6d888876" target="_top" xlink:title=" ">
<polygon fill="white" stroke="black" points="323.5,-76.5 323.5,-95.5 449.5,-95.5 449.5,-76.5 323.5,-76.5"/>
<text text-anchor="middle" x="386.5" y="-83.5" font-family="Helvetica,sans-Serif" font-size="10.00">combinatorics::choose</text>
</a>
</g>
</g>
<!-- Node2&#45;&gt;Node3 -->
<g id="edge2" class="edge">
<title>Node2&#45;&gt;Node3</title>
<path fill="none" stroke="midnightblue" d="M268.26,-90.1C282.46,-89.61 297.98,-89.06 312.96,-88.54"/>
<polygon fill="midnightblue" stroke="midnightblue" points="313.35,-92.03 323.22,-88.18 313.1,-85.03 313.35,-92.03"/>
</g>
<!-- Node4 -->
<g id="node4" class="node">
<title>Node4</title>
<g id="a_node4"><a xlink:href="namespacecombinatorics.html#a683282a64d9be4f8df67be6138201570" target="_top" xlink:title=" ">
<polygon fill="white" stroke="black" points="493,-38.5 493,-57.5 603,-57.5 603,-38.5 493,-38.5"/>
<text text-anchor="middle" x="548" y="-45.5" font-family="Helvetica,sans-Serif" font-size="10.00">combinatorics::fact</text>
</a>
</g>
</g>
<!-- Node3&#45;&gt;Node4 -->
<g id="edge3" class="edge">
<title>Node3&#45;&gt;Node4</title>
<path fill="none" stroke="midnightblue" d="M427.75,-76.41C448.8,-71.4 474.76,-65.21 497.07,-59.89"/>
<polygon fill="midnightblue" stroke="midnightblue" points="498.12,-63.24 507.04,-57.52 496.5,-56.43 498.12,-63.24"/>
</g>
<!-- Node5 -->
<g id="node5" class="node">
<title>Node5</title>
<g id="a_node5"><a xlink:href="namespacecombinatorics.html#a162be12f51480d59189ec28dbcc2c5e2" target="_top" xlink:title=" ">
<polygon fill="white" stroke="black" points="639,-38.5 639,-57.5 756,-57.5 756,-38.5 639,-38.5"/>
<text text-anchor="middle" x="697.5" y="-45.5" font-family="Helvetica,sans-Serif" font-size="10.00">combinatorics::perm</text>
</a>
</g>
</g>
<!-- Node3&#45;&gt;Node5 -->
<g id="edge5" class="edge">
<title>Node3&#45;&gt;Node5</title>
<path fill="none" stroke="midnightblue" d="M449.96,-82.36C493.09,-79.39 551.71,-74.45 603,-67 616.59,-65.03 631.17,-62.34 644.69,-59.61"/>
<polygon fill="midnightblue" stroke="midnightblue" points="645.7,-62.97 654.79,-57.52 644.28,-56.12 645.7,-62.97"/>
</g>
<!-- Node4&#45;&gt;Node5 -->
<g id="edge4" class="edge">
<title>Node4&#45;&gt;Node5</title>
<path fill="none" stroke="midnightblue" d="M603.09,-48C611.48,-48 620.24,-48 628.88,-48"/>
<polygon fill="midnightblue" stroke="midnightblue" points="628.95,-51.5 638.95,-48 628.95,-44.5 628.95,-51.5"/>
</g>
<!-- Node6&#45;&gt;Node4 -->
<g id="edge7" class="edge">
<title>Node6&#45;&gt;Node4</title>
<path fill="none" stroke="midnightblue" d="M280.19,-48C338.97,-48 424.34,-48 482.58,-48"/>
<polygon fill="midnightblue" stroke="midnightblue" points="482.76,-51.5 492.76,-48 482.76,-44.5 482.76,-51.5"/>
</g>
<!-- Node7&#45;&gt;Node5 -->
<g id="edge9" class="edge">
<title>Node7&#45;&gt;Node5</title>
<path fill="none" stroke="midnightblue" d="M457.12,-14.14C499.44,-17.16 554.5,-21.96 603,-29 616.59,-30.97 631.17,-33.66 644.69,-36.39"/>
<polygon fill="midnightblue" stroke="midnightblue" points="644.28,-39.88 654.79,-38.48 645.7,-33.03 644.28,-39.88"/>
</g>
</g>
</svg>
