<?xml version="1.0" encoding="UTF-8" standalone="no"?>
<!DOCTYPE svg PUBLIC "-//W3C//DTD SVG 1.1//EN"
 "http://www.w3.org/Graphics/SVG/1.1/DTD/svg11.dtd">
<!-- Generated by graphviz version 2.43.0 (0)
 -->
<!-- Title: sat2::test_sat2 Pages: 1 -->
<svg width="483pt" height="28pt"
 viewBox="0.00 0.00 483.00 28.00" xmlns="http://www.w3.org/2000/svg" xmlns:xlink="http://www.w3.org/1999/xlink">
<g id="graph0" class="graph" transform="scale(1 1) rotate(0) translate(4 24)">
<title>sat2::test_sat2</title>
<polygon fill="white" stroke="transparent" points="-4,4 -4,-24 479,-24 479,4 -4,4"/>
<!-- Node1 -->
<g id="node1" class="node">
<title>Node1</title>
<g id="a_node1"><a xlink:title=" ">
<polygon fill="#bfbfbf" stroke="black" points="0,-0.5 0,-19.5 89,-19.5 89,-0.5 0,-0.5"/>
<text text-anchor="middle" x="44.5" y="-7.5" font-family="Helvetica,sans-Serif" font-size="10.00">sat2::test_sat2</text>
</a>
</g>
</g>
<!-- Node2 -->
<g id="node2" class="node">
<title>Node2</title>
<g id="a_node2"><a xlink:href="namespacesat2.html#a58a9bce79f062d77b1d07d506494b46d" target="_top" xlink:title=" ">
<polygon fill="white" stroke="black" points="125,-0.5 125,-19.5 190,-19.5 190,-0.5 125,-0.5"/>
<text text-anchor="middle" x="157.5" y="-7.5" font-family="Helvetica,sans-Serif" font-size="10.00">sat2::sat2</text>
</a>
</g>
</g>
<!-- Node1&#45;&gt;Node2 -->
<g id="edge1" class="edge">
<title>Node1&#45;&gt;Node2</title>
<path fill="none" stroke="midnightblue" d="M89.05,-10C97.42,-10 106.17,-10 114.49,-10"/>
<polygon fill="midnightblue" stroke="midnightblue" points="114.74,-13.5 124.74,-10 114.74,-6.5 114.74,-13.5"/>
</g>
<!-- Node3 -->
<g id="node3" class="node">
<title>Node3</title>
<g id="a_node3"><a xlink:href="namespacegraph__theory.html#a14c5caae4119d720412cda7748174301" target="_top" xlink:title=" ">
<polygon fill="white" stroke="black" points="226,-0.5 226,-19.5 328,-19.5 328,-0.5 226,-0.5"/>
<text text-anchor="middle" x="277" y="-7.5" font-family="Helvetica,sans-Serif" font-size="10.00">graph_theory::scc</text>
</a>
</g>
</g>
<!-- Node2&#45;&gt;Node3 -->
<g id="edge2" class="edge">
<title>Node2&#45;&gt;Node3</title>
<path fill="none" stroke="midnightblue" d="M190.3,-10C198.11,-10 206.74,-10 215.42,-10"/>
<polygon fill="midnightblue" stroke="midnightblue" points="215.59,-13.5 225.59,-10 215.59,-6.5 215.59,-13.5"/>
</g>
<!-- Node4 -->
<g id="node4" class="node">
<title>Node4</title>
<g id="a_node4"><a xlink:href="namespacegraph__theory.html#a5b4fccebd731ef29c9050b946d57c8c9" target="_top" xlink:title=" ">
<polygon fill="white" stroke="black" points="364,-0.5 364,-19.5 475,-19.5 475,-0.5 364,-0.5"/>
<text text-anchor="middle" x="419.5" y="-7.5" font-family="Helvetica,sans-Serif" font-size="10.00">graph_theory::trans</text>
</a>
</g>
</g>
<!-- Node3&#45;&gt;Node4 -->
<g id="edge3" class="edge">
<title>Node3&#45;&gt;Node4</title>
<path fill="none" stroke="midnightblue" d="M328.33,-10C336.5,-10 345.07,-10 353.53,-10"/>
<polygon fill="midnightblue" stroke="midnightblue" points="353.77,-13.5 363.77,-10 353.77,-6.5 353.77,-13.5"/>
</g>
</g>
</svg>
