<?xml version="1.0" encoding="UTF-8" standalone="no"?>
<!DOCTYPE svg PUBLIC "-//W3C//DTD SVG 1.1//EN"
 "http://www.w3.org/Graphics/SVG/1.1/DTD/svg11.dtd">
<!-- Generated by graphviz version 2.43.0 (0)
 -->
<!-- Title: modulo_namespace::mod Pages: 1 -->
<!--zoomable 104 -->
<svg id="main" version="1.1" xmlns="http://www.w3.org/2000/svg" xmlns:xlink="http://www.w3.org/1999/xlink" xml:space="preserve" onload="init(evt)">
<style type="text/css"><![CDATA[
.edge:hover path { stroke: red; }
.edge:hover polygon { stroke: red; fill: red; }
]]></style>
<script type="text/javascript"><![CDATA[
var edges = document.getElementsByTagName('g');
if (edges && edges.length) {
  for (var i=0;i<edges.length;i++) {
    if (edges[i].id.substr(0,4)=='edge') {
      edges[i].setAttribute('class','edge');
    }
  }
}
]]></script>
        <defs>
                <circle id="rim" cx="0" cy="0" r="7"/>
                <circle id="rim2" cx="0" cy="0" r="3.5"/>
                <g id="zoomPlus">
                        <use xlink:href="#rim" fill="#404040">
                                <set attributeName="fill" to="#808080" begin="zoomplus.mouseover" end="zoomplus.mouseout"/>
                        </use>
                        <path d="M-4,0h8M0,-4v8" fill="none" stroke="white" stroke-width="1.5" pointer-events="none"/>
                </g>
                <g id="zoomMin">
                        <use xlink:href="#rim" fill="#404040">
                                <set attributeName="fill" to="#808080" begin="zoomminus.mouseover" end="zoomminus.mouseout"/>
                        </use>
                        <path d="M-4,0h8" fill="none" stroke="white" stroke-width="1.5" pointer-events="none"/>
                </g>
                <g id="dirArrow">
                        <path fill="none" stroke="white" stroke-width="1.5" d="M0,-3.0v7 M-2.5,-0.5L0,-3.0L2.5,-0.5"/>
                </g>
               <g id="resetDef">
                       <use xlink:href="#rim2" fill="#404040">
                               <set attributeName="fill" to="#808080" begin="reset.mouseover" end="reset.mouseout"/>
                       </use>
               </g>
        </defs>

<script type="text/javascript">
var viewWidth = 847;
var viewHeight = 104;
var sectionId = 'dynsection-3';
</script>
<script xlink:href="svgpan.js"/>
<svg id="graph" class="graph">
<g id="viewport">
<title>modulo_namespace::mod</title>
<polygon fill="white" stroke="transparent" points="-4,4 -4,-100 843,-100 843,4 -4,4"/>
<!-- Node1 -->
<g id="node1" class="node">
<title>Node1</title>
<g id="a_node1"><a xlink:title="Returns the remainder of a divided by b as a nonnegative integer in [0, b).">
<polygon fill="#bfbfbf" stroke="black" points="696,-38.5 696,-57.5 839,-57.5 839,-38.5 696,-38.5"/>
<text text-anchor="middle" x="767.5" y="-45.5" font-family="Helvetica,sans-Serif" font-size="10.00">modulo_namespace::mod</text>
</a>
</g>
</g>
<!-- Node2 -->
<g id="node2" class="node">
<title>Node2</title>
<g id="a_node2"><a xlink:href="number__theory_8hpp.html#a67527905c2b2c027c8b458902db2d05a" target="_top" xlink:title="Finds x such that a^x = b (mod M) using baby&#45;step giant&#45;step algorithm.">
<polygon fill="white" stroke="black" points="561,-76.5 561,-95.5 599,-95.5 599,-76.5 561,-76.5"/>
<text text-anchor="middle" x="580" y="-83.5" font-family="Helvetica,sans-Serif" font-size="10.00">dlog</text>
</a>
</g>
</g>
<!-- Node1&#45;&gt;Node2 -->
<g id="edge1" class="edge">
<title>Node1&#45;&gt;Node2</title>
<path fill="none" stroke="midnightblue" d="M709.8,-59.61C672,-67.36 624.73,-77.04 599.27,-82.26"/>
<polygon fill="midnightblue" stroke="midnightblue" points="710.6,-63.02 719.69,-57.59 709.19,-56.17 710.6,-63.02"/>
</g>
<!-- Node8 -->
<g id="node8" class="node">
<title>Node8</title>
<g id="a_node8"><a xlink:href="number__theory_8hpp.html#aa6039763e84c50eb24fdee392c581898" target="_top" xlink:title="Sets x and y so that .">
<polygon fill="white" stroke="black" points="560,-38.5 560,-57.5 600,-57.5 600,-38.5 560,-38.5"/>
<text text-anchor="middle" x="580" y="-45.5" font-family="Helvetica,sans-Serif" font-size="10.00">egcd</text>
</a>
</g>
</g>
<!-- Node1&#45;&gt;Node8 -->
<g id="edge7" class="edge">
<title>Node1&#45;&gt;Node8</title>
<path fill="none" stroke="midnightblue" d="M685.66,-48C654.03,-48 620.53,-48 600.19,-48"/>
<polygon fill="midnightblue" stroke="midnightblue" points="685.84,-51.5 695.84,-48 685.84,-44.5 685.84,-51.5"/>
</g>
<!-- Node11 -->
<g id="node11" class="node">
<title>Node11</title>
<g id="a_node11"><a xlink:href="namespacemodulo__namespace.html#a0a666ddbbb5d4d02c4aee66be7577292" target="_top" xlink:title=" ">
<polygon fill="white" stroke="black" points="500,-0.5 500,-19.5 660,-19.5 660,-0.5 500,-0.5"/>
<text text-anchor="middle" x="580" y="-7.5" font-family="Helvetica,sans-Serif" font-size="10.00">modulo_namespace::mod_eq</text>
</a>
</g>
</g>
<!-- Node1&#45;&gt;Node11 -->
<g id="edge11" class="edge">
<title>Node1&#45;&gt;Node11</title>
<path fill="none" stroke="midnightblue" d="M709.83,-36.39C683.44,-30.99 652.45,-24.64 627.47,-19.52"/>
<polygon fill="midnightblue" stroke="midnightblue" points="709.19,-39.83 719.69,-38.41 710.6,-32.98 709.19,-39.83"/>
</g>
<!-- Node3 -->
<g id="node3" class="node">
<title>Node3</title>
<g id="a_node3"><a xlink:href="test__number__theory_8hpp.html#a7aac53ce82614d79c7098a1de32ed1e7" target="_top" xlink:title=" ">
<polygon fill="white" stroke="black" points="401,-76.5 401,-95.5 463,-95.5 463,-76.5 401,-76.5"/>
<text text-anchor="middle" x="432" y="-83.5" font-family="Helvetica,sans-Serif" font-size="10.00">test_dlog</text>
</a>
</g>
</g>
<!-- Node2&#45;&gt;Node3 -->
<g id="edge2" class="edge">
<title>Node2&#45;&gt;Node3</title>
<path fill="none" stroke="midnightblue" d="M550.79,-86C525.62,-86 488.86,-86 463.12,-86"/>
<polygon fill="midnightblue" stroke="midnightblue" points="550.8,-89.5 560.8,-86 550.8,-82.5 550.8,-89.5"/>
</g>
<!-- Node4 -->
<g id="node4" class="node">
<title>Node4</title>
<g id="a_node4"><a xlink:href="test__number__theory_8hpp.html#aed36f6b8b9706133e9b5302b1618e9ef" target="_top" xlink:title=" ">
<polygon fill="white" stroke="black" points="249,-76.5 249,-95.5 364,-95.5 364,-76.5 249,-76.5"/>
<text text-anchor="middle" x="306.5" y="-83.5" font-family="Helvetica,sans-Serif" font-size="10.00">test_number_theory</text>
</a>
</g>
</g>
<!-- Node3&#45;&gt;Node4 -->
<g id="edge3" class="edge">
<title>Node3&#45;&gt;Node4</title>
<path fill="none" stroke="midnightblue" d="M390.57,-86C382.2,-86 373.24,-86 364.42,-86"/>
<polygon fill="midnightblue" stroke="midnightblue" points="390.79,-89.5 400.79,-86 390.79,-82.5 390.79,-89.5"/>
</g>
<!-- Node5 -->
<g id="node5" class="node">
<title>Node5</title>
<g id="a_node5"><a xlink:href="test_8cpp.html#aa1c715cac916839a95e25b65b4071c4a" target="_top" xlink:title=" ">
<polygon fill="white" stroke="black" points="160,-76.5 160,-95.5 213,-95.5 213,-76.5 160,-76.5"/>
<text text-anchor="middle" x="186.5" y="-83.5" font-family="Helvetica,sans-Serif" font-size="10.00">test_all</text>
</a>
</g>
</g>
<!-- Node4&#45;&gt;Node5 -->
<g id="edge4" class="edge">
<title>Node4&#45;&gt;Node5</title>
<path fill="none" stroke="midnightblue" d="M238.65,-86C229.6,-86 220.81,-86 213.13,-86"/>
<polygon fill="midnightblue" stroke="midnightblue" points="238.92,-89.5 248.92,-86 238.92,-82.5 238.92,-89.5"/>
</g>
<!-- Node6 -->
<g id="node6" class="node">
<title>Node6</title>
<g id="a_node6"><a xlink:href="test_8cpp.html#af095a232149097b5605064623a9345ac" target="_top" xlink:title=" ">
<polygon fill="white" stroke="black" points="77,-76.5 77,-95.5 124,-95.5 124,-76.5 77,-76.5"/>
<text text-anchor="middle" x="100.5" y="-83.5" font-family="Helvetica,sans-Serif" font-size="10.00">main2</text>
</a>
</g>
</g>
<!-- Node5&#45;&gt;Node6 -->
<g id="edge5" class="edge">
<title>Node5&#45;&gt;Node6</title>
<path fill="none" stroke="midnightblue" d="M149.59,-86C140.96,-86 131.99,-86 124.16,-86"/>
<polygon fill="midnightblue" stroke="midnightblue" points="149.84,-89.5 159.84,-86 149.84,-82.5 149.84,-89.5"/>
</g>
<!-- Node7 -->
<g id="node7" class="node">
<title>Node7</title>
<g id="a_node7"><a xlink:href="main_8hpp.html#a0ddf1224851353fc92bfbff6f499fa97" target="_top" xlink:title=" ">
<polygon fill="white" stroke="black" points="0,-76.5 0,-95.5 41,-95.5 41,-76.5 0,-76.5"/>
<text text-anchor="middle" x="20.5" y="-83.5" font-family="Helvetica,sans-Serif" font-size="10.00">main</text>
</a>
</g>
</g>
<!-- Node6&#45;&gt;Node7 -->
<g id="edge6" class="edge">
<title>Node6&#45;&gt;Node7</title>
<path fill="none" stroke="midnightblue" d="M66.66,-86C57.96,-86 48.84,-86 41.1,-86"/>
<polygon fill="midnightblue" stroke="midnightblue" points="66.94,-89.5 76.94,-86 66.94,-82.5 66.94,-89.5"/>
</g>
<!-- Node9 -->
<g id="node9" class="node">
<title>Node9</title>
<g id="a_node9"><a xlink:href="test__number__theory_8hpp.html#ae2f84cd254fbf1373fc273141ce470ed" target="_top" xlink:title=" ">
<polygon fill="white" stroke="black" points="400,-38.5 400,-57.5 464,-57.5 464,-38.5 400,-38.5"/>
<text text-anchor="middle" x="432" y="-45.5" font-family="Helvetica,sans-Serif" font-size="10.00">test_egcd</text>
</a>
</g>
</g>
<!-- Node8&#45;&gt;Node9 -->
<g id="edge8" class="edge">
<title>Node8&#45;&gt;Node9</title>
<path fill="none" stroke="midnightblue" d="M549.66,-48C524.85,-48 489.39,-48 464.09,-48"/>
<polygon fill="midnightblue" stroke="midnightblue" points="549.91,-51.5 559.91,-48 549.91,-44.5 549.91,-51.5"/>
</g>
<!-- Node9&#45;&gt;Node4 -->
<g id="edge10" class="edge">
<title>Node9&#45;&gt;Node4</title>
<path fill="none" stroke="midnightblue" d="M390.26,-60.54C373.46,-65.7 354.3,-71.6 338.65,-76.41"/>
<polygon fill="midnightblue" stroke="midnightblue" points="391.31,-63.88 399.84,-57.59 389.25,-57.18 391.31,-63.88"/>
</g>
<!-- Node10 -->
<g id="node10" class="node">
<title>Node10</title>
<g id="a_node10"><a xlink:href="test__number__theory_8hpp.html#a1764567e56d415f536db0a4aa89e782f" target="_top" xlink:title=" ">
<polygon fill="white" stroke="black" points="274.5,-38.5 274.5,-57.5 338.5,-57.5 338.5,-38.5 274.5,-38.5"/>
<text text-anchor="middle" x="306.5" y="-45.5" font-family="Helvetica,sans-Serif" font-size="10.00">test_egcd</text>
</a>
</g>
</g>
<!-- Node9&#45;&gt;Node10 -->
<g id="edge9" class="edge">
<title>Node9&#45;&gt;Node10</title>
<path fill="none" stroke="midnightblue" d="M389.79,-48C373.1,-48 354.16,-48 338.65,-48"/>
<polygon fill="midnightblue" stroke="midnightblue" points="389.84,-51.5 399.84,-48 389.84,-44.5 389.84,-51.5"/>
</g>
</g>
</svg>
        <g id="navigator" transform="translate(0 0)" fill="#404254">
                <rect fill="#f2f5e9" fill-opacity="0.5" stroke="#606060" stroke-width=".5" x="0" y="0" width="60" height="60"/>
                <use id="zoomplus" xlink:href="#zoomPlus" x="17" y="9" onmousedown="handleZoom(evt,'in')"/>
                <use id="zoomminus" xlink:href="#zoomMin" x="42" y="9" onmousedown="handleZoom(evt,'out')"/>
                <use id="reset" xlink:href="#resetDef" x="30" y="36" onmousedown="handleReset()"/>
                <g id="arrowUp" xlink:href="#dirArrow" transform="translate(30 24)" onmousedown="handlePan(0,-1)">
                  <use xlink:href="#rim" fill="#404040">
                        <set attributeName="fill" to="#808080" begin="arrowUp.mouseover" end="arrowUp.mouseout"/>
                  </use>
                  <path fill="none" stroke="white" stroke-width="1.5" d="M0,-3.0v7 M-2.5,-0.5L0,-3.0L2.5,-0.5"/>
                </g>
                <g id="arrowRight" xlink:href="#dirArrow" transform="rotate(90) translate(36 -43)" onmousedown="handlePan(1,0)">
                  <use xlink:href="#rim" fill="#404040">
                        <set attributeName="fill" to="#808080" begin="arrowRight.mouseover" end="arrowRight.mouseout"/>
                  </use>
                  <path fill="none" stroke="white" stroke-width="1.5" d="M0,-3.0v7 M-2.5,-0.5L0,-3.0L2.5,-0.5"/>
                </g>
                <g id="arrowDown" xlink:href="#dirArrow" transform="rotate(180) translate(-30 -48)" onmousedown="handlePan(0,1)">
                  <use xlink:href="#rim" fill="#404040">
                        <set attributeName="fill" to="#808080" begin="arrowDown.mouseover" end="arrowDown.mouseout"/>
                  </use>
                  <path fill="none" stroke="white" stroke-width="1.5" d="M0,-3.0v7 M-2.5,-0.5L0,-3.0L2.5,-0.5"/>
                </g>
                <g id="arrowLeft" xlink:href="#dirArrow" transform="rotate(270) translate(-36 17)" onmousedown="handlePan(-1,0)">
                  <use xlink:href="#rim" fill="#404040">
                        <set attributeName="fill" to="#808080" begin="arrowLeft.mouseover" end="arrowLeft.mouseout"/>
                  </use>
                  <path fill="none" stroke="white" stroke-width="1.5" d="M0,-3.0v7 M-2.5,-0.5L0,-3.0L2.5,-0.5"/>
                </g>
        </g>
        <svg viewBox="0 0 15 15" width="100%" height="30px" preserveAspectRatio="xMaxYMin meet">
         <g id="arrow_out" transform="scale(0.3 0.3)">
          <a xlink:href="namespacemodulo__namespace_a2507e89fefa09a358a9de729b15dd642_icgraph_org.svg" target="_base">
           <rect id="button" ry="5" rx="5" y="6" x="6" height="38" width="38"
                fill="#f2f5e9" fill-opacity="0.5" stroke="#606060" stroke-width="1.0"/>
           <path id="arrow"
             d="M 11.500037,31.436501 C 11.940474,20.09759 22.043105,11.32322 32.158766,21.979434 L 37.068811,17.246167 C 37.068811,17.246167 37.088388,32 37.088388,32 L 22.160133,31.978069 C 22.160133,31.978069 26.997745,27.140456 26.997745,27.140456 C 18.528582,18.264221 13.291696,25.230495 11.500037,31.436501 z"
             style="fill:#404040;"/>
          </a>
         </g>
        </svg>
</svg>
