<?xml version="1.0" encoding="UTF-8" standalone="no"?>
<!DOCTYPE svg PUBLIC "-//W3C//DTD SVG 1.1//EN"
 "http://www.w3.org/Graphics/SVG/1.1/DTD/svg11.dtd">
<!-- Generated by graphviz version 2.43.0 (0)
 -->
<!-- Title: utility::sort2 Pages: 1 -->
<svg width="365pt" height="85pt"
 viewBox="0.00 0.00 365.00 85.00" xmlns="http://www.w3.org/2000/svg" xmlns:xlink="http://www.w3.org/1999/xlink">
<g id="graph0" class="graph" transform="scale(1 1) rotate(0) translate(4 81)">
<title>utility::sort2</title>
<polygon fill="white" stroke="transparent" points="-4,4 -4,-81 361,-81 361,4 -4,4"/>
<!-- Node1 -->
<g id="node1" class="node">
<title>Node1</title>
<g id="a_node1"><a xlink:title="Stable sorts a and b by func.">
<polygon fill="#bfbfbf" stroke="black" points="282,-19.5 282,-38.5 357,-38.5 357,-19.5 282,-19.5"/>
<text text-anchor="middle" x="319.5" y="-26.5" font-family="Helvetica,sans-Serif" font-size="10.00">utility::sort2</text>
</a>
</g>
</g>
<!-- Node2 -->
<g id="node2" class="node">
<title>Node2</title>
<g id="a_node2"><a xlink:href="classhld_1_1HLD.html#ace75fa88e8df29573405e9241c56baf0" target="_top" xlink:title="Calls func (could be an update or query function, for example) on each heavy chain in the path.">
<polygon fill="white" stroke="black" points="134,-38.5 134,-57.5 246,-57.5 246,-38.5 134,-38.5"/>
<text text-anchor="middle" x="190" y="-45.5" font-family="Helvetica,sans-Serif" font-size="10.00">hld::HLD::func_path</text>
</a>
</g>
</g>
<!-- Node1&#45;&gt;Node2 -->
<g id="edge1" class="edge">
<title>Node1&#45;&gt;Node2</title>
<path fill="none" stroke="midnightblue" d="M271.96,-35.93C263.55,-37.19 254.71,-38.51 246.08,-39.79"/>
<polygon fill="midnightblue" stroke="midnightblue" points="272.59,-39.38 281.96,-34.44 271.56,-32.46 272.59,-39.38"/>
</g>
<!-- Node5 -->
<g id="node5" class="node">
<title>Node5</title>
<g id="a_node5"><a xlink:href="structdsu__ds_1_1dsu.html#a11446b57ae0bf69361258cb4ee2fd212" target="_top" xlink:title="Joins the set containing x with the set containing y.">
<polygon fill="white" stroke="black" points="141,-0.5 141,-19.5 239,-19.5 239,-0.5 141,-0.5"/>
<text text-anchor="middle" x="190" y="-7.5" font-family="Helvetica,sans-Serif" font-size="10.00">dsu_ds::dsu::join</text>
</a>
</g>
</g>
<!-- Node1&#45;&gt;Node5 -->
<g id="edge4" class="edge">
<title>Node1&#45;&gt;Node5</title>
<path fill="none" stroke="midnightblue" d="M272.04,-22.08C261.43,-20.5 250.13,-18.81 239.43,-17.22"/>
<polygon fill="midnightblue" stroke="midnightblue" points="271.56,-25.54 281.96,-23.56 272.59,-18.62 271.56,-25.54"/>
</g>
<!-- Node3 -->
<g id="node3" class="node">
<title>Node3</title>
<g id="a_node3"><a xlink:href="classhld_1_1HLD.html#a89ad91fa5429a48db553da8d44849415" target="_top" xlink:title="Returns the Monoid sum over values of vertices on the path from u to v.">
<polygon fill="white" stroke="black" points="3,-57.5 3,-76.5 95,-76.5 95,-57.5 3,-57.5"/>
<text text-anchor="middle" x="49" y="-64.5" font-family="Helvetica,sans-Serif" font-size="10.00">hld::HLD::query</text>
</a>
</g>
</g>
<!-- Node2&#45;&gt;Node3 -->
<g id="edge2" class="edge">
<title>Node2&#45;&gt;Node3</title>
<path fill="none" stroke="midnightblue" d="M123.73,-56.92C114.12,-58.24 104.41,-59.56 95.33,-60.8"/>
<polygon fill="midnightblue" stroke="midnightblue" points="124.23,-60.39 133.66,-55.56 123.28,-53.45 124.23,-60.39"/>
</g>
<!-- Node4 -->
<g id="node4" class="node">
<title>Node4</title>
<g id="a_node4"><a xlink:href="classhld_1_1HLD.html#a5010452fe04b89ecba385cec7a0c183f" target="_top" xlink:title="Update the values of vertices on the path from u to v by val.">
<polygon fill="white" stroke="black" points="0,-19.5 0,-38.5 98,-38.5 98,-19.5 0,-19.5"/>
<text text-anchor="middle" x="49" y="-26.5" font-family="Helvetica,sans-Serif" font-size="10.00">hld::HLD::update</text>
</a>
</g>
</g>
<!-- Node2&#45;&gt;Node4 -->
<g id="edge3" class="edge">
<title>Node2&#45;&gt;Node4</title>
<path fill="none" stroke="midnightblue" d="M123.73,-39.08C115.2,-37.91 106.59,-36.74 98.41,-35.62"/>
<polygon fill="midnightblue" stroke="midnightblue" points="123.28,-42.55 133.66,-40.44 124.23,-35.61 123.28,-42.55"/>
</g>
</g>
</svg>
