<?xml version="1.0" encoding="UTF-8" standalone="no"?>
<!DOCTYPE svg PUBLIC "-//W3C//DTD SVG 1.1//EN"
 "http://www.w3.org/Graphics/SVG/1.1/DTD/svg11.dtd">
<!-- Generated by graphviz version 2.43.0 (0)
 -->
<!-- Title: linear_algebra::gauss Pages: 1 -->
<svg width="290pt" height="154pt"
 viewBox="0.00 0.00 290.00 153.50" xmlns="http://www.w3.org/2000/svg" xmlns:xlink="http://www.w3.org/1999/xlink">
<g id="graph0" class="graph" transform="scale(1 1) rotate(0) translate(4 149.5)">
<title>linear_algebra::gauss</title>
<polygon fill="white" stroke="transparent" points="-4,4 -4,-149.5 286,-149.5 286,4 -4,4"/>
<!-- Node1 -->
<g id="node1" class="node">
<title>Node1</title>
<g id="a_node1"><a xlink:title="Returns matrix x such that &#160;and the determinant of &#160;via Gaussian elimination.">
<polygon fill="#bfbfbf" stroke="black" points="0,-88 0,-107 121,-107 121,-88 0,-88"/>
<text text-anchor="middle" x="60.5" y="-95" font-family="Helvetica,sans-Serif" font-size="10.00">linear_algebra::gauss</text>
</a>
</g>
</g>
<!-- Node2 -->
<g id="node2" class="node">
<title>Node2</title>
<g id="a_node2"><a xlink:href="namespacetree.html#a1db5e81cd89b854831db8147ff509caa" target="_top" xlink:title=" ">
<polygon fill="white" stroke="black" points="183.5,-126 183.5,-145 255.5,-145 255.5,-126 183.5,-126"/>
<text text-anchor="middle" x="219.5" y="-133" font-family="Helvetica,sans-Serif" font-size="10.00">tree::assert</text>
</a>
</g>
</g>
<!-- Node1&#45;&gt;Node2 -->
<g id="edge1" class="edge">
<title>Node1&#45;&gt;Node2</title>
<path fill="none" stroke="midnightblue" d="M101.12,-107.09C123.19,-112.43 150.76,-119.1 173.63,-124.64"/>
<polygon fill="midnightblue" stroke="midnightblue" points="172.9,-128.06 183.44,-127.01 174.55,-121.26 172.9,-128.06"/>
</g>
<!-- Node3 -->
<g id="node3" class="node">
<title>Node3</title>
<g id="a_node3"><a xlink:href="namespacelinear__algebra.html#ab7a7f1a8ba225710625d5af10f317b6a" target="_top" xlink:title=" ">
<polygon fill="white" stroke="black" points="165.5,-88 165.5,-107 273.5,-107 273.5,-88 165.5,-88"/>
<text text-anchor="middle" x="219.5" y="-95" font-family="Helvetica,sans-Serif" font-size="10.00">linear_algebra::det</text>
</a>
</g>
</g>
<!-- Node1&#45;&gt;Node3 -->
<g id="edge2" class="edge">
<title>Node1&#45;&gt;Node3</title>
<path fill="none" stroke="midnightblue" d="M121.3,-90.92C132.38,-90.71 143.99,-90.69 155.17,-90.86"/>
<polygon fill="midnightblue" stroke="midnightblue" points="155.22,-94.36 165.29,-91.07 155.37,-87.37 155.22,-94.36"/>
</g>
<!-- Node4 -->
<g id="node4" class="node">
<title>Node4</title>
<g id="a_node4"><a xlink:href="operations_8hpp.html#a915663194fec79c061edfaea61707bd0" target="_top" xlink:title=" ">
<polygon fill="white" stroke="black" points="205,-50 205,-69 234,-69 234,-50 205,-50"/>
<text text-anchor="middle" x="219.5" y="-57" font-family="Helvetica,sans-Serif" font-size="10.00">fo</text>
</a>
</g>
</g>
<!-- Node1&#45;&gt;Node4 -->
<g id="edge4" class="edge">
<title>Node1&#45;&gt;Node4</title>
<path fill="none" stroke="midnightblue" d="M101.12,-87.91C130.71,-80.75 170.17,-71.2 194.96,-65.2"/>
<polygon fill="midnightblue" stroke="midnightblue" points="196.02,-68.54 204.92,-62.79 194.38,-61.74 196.02,-68.54"/>
</g>
<!-- Node5 -->
<g id="node5" class="node">
<title>Node5</title>
<g id="a_node5"><a xlink:href="structlinear__algebra_1_1matrix.html#ad02294881d9dd92ee77b417d416bed33" target="_top" xlink:title=" ">
<polygon fill="white" stroke="black" points="157,-0.5 157,-30.5 282,-30.5 282,-0.5 157,-0.5"/>
<text text-anchor="start" x="165" y="-18.5" font-family="Helvetica,sans-Serif" font-size="10.00">linear_algebra::matrix</text>
<text text-anchor="middle" x="219.5" y="-7.5" font-family="Helvetica,sans-Serif" font-size="10.00">::is_square</text>
</a>
</g>
</g>
<!-- Node1&#45;&gt;Node5 -->
<g id="edge5" class="edge">
<title>Node1&#45;&gt;Node5</title>
<path fill="none" stroke="midnightblue" d="M76,-87.9C94.38,-75.95 127.27,-55.31 157,-40.5 161,-38.51 165.19,-36.55 169.43,-34.66"/>
<polygon fill="midnightblue" stroke="midnightblue" points="170.95,-37.81 178.74,-30.63 168.17,-31.39 170.95,-37.81"/>
</g>
<!-- Node3&#45;&gt;Node1 -->
<g id="edge3" class="edge">
<title>Node3&#45;&gt;Node1</title>
<path fill="none" stroke="midnightblue" d="M165.29,-103.93C154.46,-104.21 142.91,-104.31 131.6,-104.22"/>
<polygon fill="midnightblue" stroke="midnightblue" points="131.35,-100.71 121.3,-104.08 131.25,-107.71 131.35,-100.71"/>
</g>
</g>
</svg>
