<?xml version="1.0" encoding="UTF-8" standalone="no"?>
<!DOCTYPE svg PUBLIC "-//W3C//DTD SVG 1.1//EN"
 "http://www.w3.org/Graphics/SVG/1.1/DTD/svg11.dtd">
<!-- Generated by graphviz version 2.43.0 (0)
 -->
<!-- Title: link_cut::find_root Pages: 1 -->
<svg width="890pt" height="118pt"
 viewBox="0.00 0.00 890.00 118.00" xmlns="http://www.w3.org/2000/svg" xmlns:xlink="http://www.w3.org/1999/xlink">
<g id="graph0" class="graph" transform="scale(1 1) rotate(0) translate(4 114)">
<title>link_cut::find_root</title>
<polygon fill="white" stroke="transparent" points="-4,4 -4,-114 886,-114 886,4 -4,4"/>
<!-- Node1 -->
<g id="node1" class="node">
<title>Node1</title>
<g id="a_node1"><a xlink:title=" ">
<polygon fill="#bfbfbf" stroke="black" points="0,-50 0,-69 104,-69 104,-50 0,-50"/>
<text text-anchor="middle" x="52" y="-57" font-family="Helvetica,sans-Serif" font-size="10.00">link_cut::find_root</text>
</a>
</g>
</g>
<!-- Node2 -->
<g id="node2" class="node">
<title>Node2</title>
<g id="a_node2"><a xlink:href="namespacelink__cut.html#ac946b39708c027e0827fa6e4f1440e71" target="_top" xlink:title=" ">
<polygon fill="white" stroke="black" points="140,-50 140,-69 234,-69 234,-50 140,-50"/>
<text text-anchor="middle" x="187" y="-57" font-family="Helvetica,sans-Serif" font-size="10.00">link_cut::access</text>
</a>
</g>
</g>
<!-- Node1&#45;&gt;Node2 -->
<g id="edge1" class="edge">
<title>Node1&#45;&gt;Node2</title>
<path fill="none" stroke="midnightblue" d="M104.04,-59.5C112.37,-59.5 121.05,-59.5 129.5,-59.5"/>
<polygon fill="midnightblue" stroke="midnightblue" points="129.67,-63 139.67,-59.5 129.67,-56 129.67,-63"/>
</g>
<!-- Node3 -->
<g id="node3" class="node">
<title>Node3</title>
<g id="a_node3"><a xlink:href="structsplay__tree_1_1SplayNode.html#a510653918c7b8181c888bbb608a9e6ee" target="_top" xlink:title=" ">
<polygon fill="white" stroke="black" points="594,-79.5 594,-109.5 720,-109.5 720,-79.5 594,-79.5"/>
<text text-anchor="start" x="602" y="-97.5" font-family="Helvetica,sans-Serif" font-size="10.00">splay_tree::SplayNode</text>
<text text-anchor="middle" x="657" y="-86.5" font-family="Helvetica,sans-Serif" font-size="10.00">::attach</text>
</a>
</g>
</g>
<!-- Node2&#45;&gt;Node3 -->
<g id="edge2" class="edge">
<title>Node2&#45;&gt;Node3</title>
<path fill="none" stroke="midnightblue" d="M222.85,-69.09C237.32,-72.67 254.36,-76.38 270,-78.5 378.61,-93.2 505.85,-95.66 583.67,-95.51"/>
<polygon fill="midnightblue" stroke="midnightblue" points="583.86,-99 593.85,-95.47 583.84,-92 583.86,-99"/>
</g>
<!-- Node5 -->
<g id="node5" class="node">
<title>Node5</title>
<g id="a_node5"><a xlink:href="namespacelink__cut.html#aa421dd91c5a7dc689972109e651b8c9a" target="_top" xlink:title=" ">
<polygon fill="white" stroke="black" points="272,-50 272,-69 394,-69 394,-50 272,-50"/>
<text text-anchor="middle" x="333" y="-57" font-family="Helvetica,sans-Serif" font-size="10.00">link_cut::detach_child</text>
</a>
</g>
</g>
<!-- Node2&#45;&gt;Node5 -->
<g id="edge4" class="edge">
<title>Node2&#45;&gt;Node5</title>
<path fill="none" stroke="midnightblue" d="M234.36,-59.5C243.11,-59.5 252.45,-59.5 261.75,-59.5"/>
<polygon fill="midnightblue" stroke="midnightblue" points="261.79,-63 271.79,-59.5 261.79,-56 261.79,-63"/>
</g>
<!-- Node6 -->
<g id="node6" class="node">
<title>Node6</title>
<g id="a_node6"><a xlink:href="structsplay__tree_1_1SplayNode.html#a34a54d6c33025f4be7b37065e584b8c5" target="_top" xlink:title=" ">
<polygon fill="white" stroke="black" points="270,-0.5 270,-30.5 396,-30.5 396,-0.5 270,-0.5"/>
<text text-anchor="start" x="278" y="-18.5" font-family="Helvetica,sans-Serif" font-size="10.00">splay_tree::SplayNode</text>
<text text-anchor="middle" x="333" y="-7.5" font-family="Helvetica,sans-Serif" font-size="10.00">::splay</text>
</a>
</g>
</g>
<!-- Node2&#45;&gt;Node6 -->
<g id="edge5" class="edge">
<title>Node2&#45;&gt;Node6</title>
<path fill="none" stroke="midnightblue" d="M219.25,-49.95C234.95,-45.15 254.52,-39.18 272.92,-33.55"/>
<polygon fill="midnightblue" stroke="midnightblue" points="274.15,-36.83 282.7,-30.57 272.11,-30.14 274.15,-36.83"/>
</g>
<!-- Node4 -->
<g id="node4" class="node">
<title>Node4</title>
<g id="a_node4"><a xlink:href="structsplay__tree_1_1SplayNode.html#a73de7d8fe94fc66a6a43427751e8a546" target="_top" xlink:title=" ">
<polygon fill="white" stroke="black" points="756,-35.5 756,-65.5 882,-65.5 882,-35.5 756,-35.5"/>
<text text-anchor="start" x="764" y="-53.5" font-family="Helvetica,sans-Serif" font-size="10.00">splay_tree::SplayNode</text>
<text text-anchor="middle" x="819" y="-42.5" font-family="Helvetica,sans-Serif" font-size="10.00">::side</text>
</a>
</g>
</g>
<!-- Node3&#45;&gt;Node4 -->
<g id="edge3" class="edge">
<title>Node3&#45;&gt;Node4</title>
<path fill="none" stroke="midnightblue" d="M712.62,-79.48C725.8,-75.85 740.01,-71.95 753.6,-68.21"/>
<polygon fill="midnightblue" stroke="midnightblue" points="754.65,-71.55 763.36,-65.53 752.79,-64.8 754.65,-71.55"/>
</g>
<!-- Node6&#45;&gt;Node4 -->
<g id="edge9" class="edge">
<title>Node6&#45;&gt;Node4</title>
<path fill="none" stroke="midnightblue" d="M396.31,-18.67C441.27,-21.07 503.41,-24.61 558,-28.5 621.44,-33.02 693.49,-39.2 745.63,-43.86"/>
<polygon fill="midnightblue" stroke="midnightblue" points="745.51,-47.36 755.78,-44.77 746.14,-40.39 745.51,-47.36"/>
</g>
<!-- Node7 -->
<g id="node7" class="node">
<title>Node7</title>
<g id="a_node7"><a xlink:href="structsplay__tree_1_1SplayNode.html#a099b6b1b7632cb57ee28bc474d86343e" target="_top" xlink:title=" ">
<polygon fill="white" stroke="black" points="432,-38.5 432,-68.5 558,-68.5 558,-38.5 432,-38.5"/>
<text text-anchor="start" x="440" y="-56.5" font-family="Helvetica,sans-Serif" font-size="10.00">splay_tree::SplayNode</text>
<text text-anchor="middle" x="495" y="-45.5" font-family="Helvetica,sans-Serif" font-size="10.00">::rotate</text>
</a>
</g>
</g>
<!-- Node6&#45;&gt;Node7 -->
<g id="edge6" class="edge">
<title>Node6&#45;&gt;Node7</title>
<path fill="none" stroke="midnightblue" d="M396.32,-30.3C404.71,-32.29 413.37,-34.35 421.91,-36.38"/>
<polygon fill="midnightblue" stroke="midnightblue" points="421.31,-39.83 431.85,-38.74 422.93,-33.02 421.31,-39.83"/>
</g>
<!-- Node7&#45;&gt;Node3 -->
<g id="edge7" class="edge">
<title>Node7&#45;&gt;Node3</title>
<path fill="none" stroke="midnightblue" d="M554.67,-68.53C565.32,-71.26 576.52,-74.13 587.43,-76.93"/>
<polygon fill="midnightblue" stroke="midnightblue" points="586.78,-80.38 597.34,-79.47 588.52,-73.59 586.78,-80.38"/>
</g>
<!-- Node7&#45;&gt;Node4 -->
<g id="edge8" class="edge">
<title>Node7&#45;&gt;Node4</title>
<path fill="none" stroke="midnightblue" d="M558.08,-52.92C611.68,-52.42 689.14,-51.7 745.55,-51.17"/>
<polygon fill="midnightblue" stroke="midnightblue" points="745.86,-54.67 755.83,-51.08 745.8,-47.67 745.86,-54.67"/>
</g>
</g>
</svg>
