<?xml version="1.0" encoding="UTF-8" standalone="no"?>
<!DOCTYPE svg PUBLIC "-//W3C//DTD SVG 1.1//EN"
 "http://www.w3.org/Graphics/SVG/1.1/DTD/svg11.dtd">
<!-- Generated by graphviz version 2.43.0 (0)
 -->
<!-- Title: graph_theory::test_max_match Pages: 1 -->
<svg width="470pt" height="104pt"
 viewBox="0.00 0.00 470.00 104.00" xmlns="http://www.w3.org/2000/svg" xmlns:xlink="http://www.w3.org/1999/xlink">
<g id="graph0" class="graph" transform="scale(1 1) rotate(0) translate(4 100)">
<title>graph_theory::test_max_match</title>
<polygon fill="white" stroke="transparent" points="-4,4 -4,-100 466,-100 466,4 -4,4"/>
<!-- Node1 -->
<g id="node1" class="node">
<title>Node1</title>
<g id="a_node1"><a xlink:title=" ">
<polygon fill="#bfbfbf" stroke="black" points="0,-33 0,-63 105,-63 105,-33 0,-33"/>
<text text-anchor="start" x="8" y="-51" font-family="Helvetica,sans-Serif" font-size="10.00">graph_theory::test</text>
<text text-anchor="middle" x="52.5" y="-40" font-family="Helvetica,sans-Serif" font-size="10.00">_max_match</text>
</a>
</g>
</g>
<!-- Node2 -->
<g id="node2" class="node">
<title>Node2</title>
<g id="a_node2"><a xlink:href="namespacegraph__theory.html#a7baea0d3e99864e50ed82e6e93a88eb5" target="_top" xlink:title=" ">
<polygon fill="white" stroke="black" points="152.5,-76.5 152.5,-95.5 286.5,-95.5 286.5,-76.5 152.5,-76.5"/>
<text text-anchor="middle" x="219.5" y="-83.5" font-family="Helvetica,sans-Serif" font-size="10.00">graph_theory::add_edge</text>
</a>
</g>
</g>
<!-- Node1&#45;&gt;Node2 -->
<g id="edge1" class="edge">
<title>Node1&#45;&gt;Node2</title>
<path fill="none" stroke="midnightblue" d="M105.25,-59.92C124.97,-64.46 147.42,-69.63 167.11,-74.16"/>
<polygon fill="midnightblue" stroke="midnightblue" points="166.59,-77.64 177.12,-76.47 168.16,-70.82 166.59,-77.64"/>
</g>
<!-- Node3 -->
<g id="node3" class="node">
<title>Node3</title>
<g id="a_node3"><a xlink:href="namespacegraph__theory.html#a2c4ec732b90bd1beb930f2dc68e47294" target="_top" xlink:title="Returns the size of the matching.">
<polygon fill="white" stroke="black" points="141,-38.5 141,-57.5 298,-57.5 298,-38.5 141,-38.5"/>
<text text-anchor="middle" x="219.5" y="-45.5" font-family="Helvetica,sans-Serif" font-size="10.00">graph_theory::matching_size</text>
</a>
</g>
</g>
<!-- Node1&#45;&gt;Node3 -->
<g id="edge2" class="edge">
<title>Node1&#45;&gt;Node3</title>
<path fill="none" stroke="midnightblue" d="M105.25,-48C113.41,-48 122.02,-48 130.72,-48"/>
<polygon fill="midnightblue" stroke="midnightblue" points="130.94,-51.5 140.94,-48 130.94,-44.5 130.94,-51.5"/>
</g>
<!-- Node4 -->
<g id="node4" class="node">
<title>Node4</title>
<g id="a_node4"><a xlink:href="namespacegraph__theory.html#a178da2acee19545ba0378a75ffea2fdb" target="_top" xlink:title=" ">
<polygon fill="white" stroke="black" points="147.5,-0.5 147.5,-19.5 291.5,-19.5 291.5,-0.5 147.5,-0.5"/>
<text text-anchor="middle" x="219.5" y="-7.5" font-family="Helvetica,sans-Serif" font-size="10.00">graph_theory::max_match</text>
</a>
</g>
</g>
<!-- Node1&#45;&gt;Node4 -->
<g id="edge3" class="edge">
<title>Node1&#45;&gt;Node4</title>
<path fill="none" stroke="midnightblue" d="M105.25,-36.08C124.97,-31.54 147.42,-26.37 167.11,-21.84"/>
<polygon fill="midnightblue" stroke="midnightblue" points="168.16,-25.18 177.12,-19.53 166.59,-18.36 168.16,-25.18"/>
</g>
<!-- Node5 -->
<g id="node5" class="node">
<title>Node5</title>
<g id="a_node5"><a xlink:href="namespacegraph__theory.html#abc2dae699efd9d44942e1a27d801d9cb" target="_top" xlink:title=" ">
<polygon fill="white" stroke="black" points="334,-0.5 334,-19.5 462,-19.5 462,-0.5 334,-0.5"/>
<text text-anchor="middle" x="398" y="-7.5" font-family="Helvetica,sans-Serif" font-size="10.00">graph_theory::bipartite</text>
</a>
</g>
</g>
<!-- Node4&#45;&gt;Node5 -->
<g id="edge4" class="edge">
<title>Node4&#45;&gt;Node5</title>
<path fill="none" stroke="midnightblue" d="M291.53,-10C302.12,-10 313.07,-10 323.71,-10"/>
<polygon fill="midnightblue" stroke="midnightblue" points="323.8,-13.5 333.8,-10 323.8,-6.5 323.8,-13.5"/>
</g>
</g>
</svg>
