<?xml version="1.0" encoding="UTF-8" standalone="no"?>
<!DOCTYPE svg PUBLIC "-//W3C//DTD SVG 1.1//EN"
 "http://www.w3.org/Graphics/SVG/1.1/DTD/svg11.dtd">
<!-- Generated by graphviz version 2.43.0 (0)
 -->
<!-- Title: modulo_namespace::test_modulo Pages: 1 -->
<!--zoomable 91 -->
<svg id="main" version="1.1" xmlns="http://www.w3.org/2000/svg" xmlns:xlink="http://www.w3.org/1999/xlink" xml:space="preserve" onload="init(evt)">
<style type="text/css"><![CDATA[
.edge:hover path { stroke: red; }
.edge:hover polygon { stroke: red; fill: red; }
]]></style>
<script type="text/javascript"><![CDATA[
var edges = document.getElementsByTagName('g');
if (edges && edges.length) {
  for (var i=0;i<edges.length;i++) {
    if (edges[i].id.substr(0,4)=='edge') {
      edges[i].setAttribute('class','edge');
    }
  }
}
]]></script>
        <defs>
                <circle id="rim" cx="0" cy="0" r="7"/>
                <circle id="rim2" cx="0" cy="0" r="3.5"/>
                <g id="zoomPlus">
                        <use xlink:href="#rim" fill="#404040">
                                <set attributeName="fill" to="#808080" begin="zoomplus.mouseover" end="zoomplus.mouseout"/>
                        </use>
                        <path d="M-4,0h8M0,-4v8" fill="none" stroke="white" stroke-width="1.5" pointer-events="none"/>
                </g>
                <g id="zoomMin">
                        <use xlink:href="#rim" fill="#404040">
                                <set attributeName="fill" to="#808080" begin="zoomminus.mouseover" end="zoomminus.mouseout"/>
                        </use>
                        <path d="M-4,0h8" fill="none" stroke="white" stroke-width="1.5" pointer-events="none"/>
                </g>
                <g id="dirArrow">
                        <path fill="none" stroke="white" stroke-width="1.5" d="M0,-3.0v7 M-2.5,-0.5L0,-3.0L2.5,-0.5"/>
                </g>
               <g id="resetDef">
                       <use xlink:href="#rim2" fill="#404040">
                               <set attributeName="fill" to="#808080" begin="reset.mouseover" end="reset.mouseout"/>
                       </use>
               </g>
        </defs>

<script type="text/javascript">
var viewWidth = 622;
var viewHeight = 91;
var sectionId = 'dynsection-6';
</script>
<script xlink:href="svgpan.js"/>
<svg id="graph" class="graph">
<g id="viewport">
<title>modulo_namespace::test_modulo</title>
<polygon fill="white" stroke="transparent" points="-4,4 -4,-87 618,-87 618,4 -4,4"/>
<!-- Node1 -->
<g id="node1" class="node">
<title>Node1</title>
<g id="a_node1"><a xlink:title=" ">
<polygon fill="#bfbfbf" stroke="black" points="0,-36 0,-66 140,-66 140,-36 0,-36"/>
<text text-anchor="start" x="8" y="-54" font-family="Helvetica,sans-Serif" font-size="10.00">modulo_namespace::test</text>
<text text-anchor="middle" x="70" y="-43" font-family="Helvetica,sans-Serif" font-size="10.00">_modulo</text>
</a>
</g>
</g>
<!-- Node2 -->
<g id="node2" class="node">
<title>Node2</title>
<g id="a_node2"><a xlink:href="namespacemodulo__namespace.html#a7a46d634f9eced7af91b153683bf8a09" target="_top" xlink:title=" ">
<polygon fill="white" stroke="black" points="176,-63.5 176,-82.5 337,-82.5 337,-63.5 176,-63.5"/>
<text text-anchor="middle" x="256.5" y="-70.5" font-family="Helvetica,sans-Serif" font-size="10.00">modulo_namespace::test_md</text>
</a>
</g>
</g>
<!-- Node1&#45;&gt;Node2 -->
<g id="edge1" class="edge">
<title>Node1&#45;&gt;Node2</title>
<path fill="none" stroke="midnightblue" d="M140.23,-59.25C148.6,-60.25 157.25,-61.28 165.87,-62.31"/>
<polygon fill="midnightblue" stroke="midnightblue" points="165.61,-65.81 175.96,-63.52 166.44,-58.86 165.61,-65.81"/>
</g>
<!-- Node3 -->
<g id="node3" class="node">
<title>Node3</title>
<g id="a_node3"><a xlink:href="namespacemodulo__namespace.html#ad997b1805adbf715af5d542dd68b9ce2" target="_top" xlink:title=" ">
<polygon fill="white" stroke="black" points="186.5,-14 186.5,-44 326.5,-44 326.5,-14 186.5,-14"/>
<text text-anchor="start" x="194.5" y="-32" font-family="Helvetica,sans-Serif" font-size="10.00">modulo_namespace::test</text>
<text text-anchor="middle" x="256.5" y="-21" font-family="Helvetica,sans-Serif" font-size="10.00">_power</text>
</a>
</g>
</g>
<!-- Node1&#45;&gt;Node3 -->
<g id="edge2" class="edge">
<title>Node1&#45;&gt;Node3</title>
<path fill="none" stroke="midnightblue" d="M140.23,-42.75C152.05,-41.34 164.41,-39.86 176.46,-38.42"/>
<polygon fill="midnightblue" stroke="midnightblue" points="176.98,-41.89 186.5,-37.23 176.16,-34.94 176.98,-41.89"/>
</g>
<!-- Node4 -->
<g id="node4" class="node">
<title>Node4</title>
<g id="a_node4"><a xlink:href="namespacemodulo__namespace.html#a8e6fc91a032b336ea0bbed9eabf54f69" target="_top" xlink:title="Returns .">
<polygon fill="white" stroke="black" points="373,-19.5 373,-38.5 524,-38.5 524,-19.5 373,-19.5"/>
<text text-anchor="middle" x="448.5" y="-26.5" font-family="Helvetica,sans-Serif" font-size="10.00">modulo_namespace::power</text>
</a>
</g>
</g>
<!-- Node3&#45;&gt;Node4 -->
<g id="edge3" class="edge">
<title>Node3&#45;&gt;Node4</title>
<path fill="none" stroke="midnightblue" d="M326.63,-29C338.4,-29 350.75,-29 362.86,-29"/>
<polygon fill="midnightblue" stroke="midnightblue" points="362.97,-32.5 372.97,-29 362.97,-25.5 362.97,-32.5"/>
</g>
<!-- Node5 -->
<g id="node5" class="node">
<title>Node5</title>
<g id="a_node5"><a xlink:href="d__compiled_8cpp.html#ac969ae49524a67aba9be0f061955ef23" target="_top" xlink:title=" ">
<polygon fill="white" stroke="black" points="560,-38.5 560,-57.5 614,-57.5 614,-38.5 560,-38.5"/>
<text text-anchor="middle" x="587" y="-45.5" font-family="Helvetica,sans-Serif" font-size="10.00">identity</text>
</a>
</g>
</g>
<!-- Node4&#45;&gt;Node5 -->
<g id="edge4" class="edge">
<title>Node4&#45;&gt;Node5</title>
<path fill="none" stroke="midnightblue" d="M518.15,-38.56C529.07,-40.08 539.98,-41.59 549.75,-42.95"/>
<polygon fill="midnightblue" stroke="midnightblue" points="549.48,-46.45 559.86,-44.36 550.44,-39.52 549.48,-46.45"/>
</g>
<!-- Node6 -->
<g id="node6" class="node">
<title>Node6</title>
<g id="a_node6"><a xlink:href="d__compiled_8cpp.html#a4cb6b7e98aadd3fa7ffc759c5e14596d" target="_top" xlink:title=" ">
<polygon fill="white" stroke="black" points="564.5,-0.5 564.5,-19.5 609.5,-19.5 609.5,-0.5 564.5,-0.5"/>
<text text-anchor="middle" x="587" y="-7.5" font-family="Helvetica,sans-Serif" font-size="10.00">invert</text>
</a>
</g>
</g>
<!-- Node4&#45;&gt;Node6 -->
<g id="edge5" class="edge">
<title>Node4&#45;&gt;Node6</title>
<path fill="none" stroke="midnightblue" d="M518.15,-19.44C530.7,-17.7 543.23,-15.95 554.04,-14.45"/>
<polygon fill="midnightblue" stroke="midnightblue" points="554.8,-17.88 564.22,-13.03 553.84,-10.94 554.8,-17.88"/>
</g>
</g>
</svg>
        <g id="navigator" transform="translate(0 0)" fill="#404254">
                <rect fill="#f2f5e9" fill-opacity="0.5" stroke="#606060" stroke-width=".5" x="0" y="0" width="60" height="60"/>
                <use id="zoomplus" xlink:href="#zoomPlus" x="17" y="9" onmousedown="handleZoom(evt,'in')"/>
                <use id="zoomminus" xlink:href="#zoomMin" x="42" y="9" onmousedown="handleZoom(evt,'out')"/>
                <use id="reset" xlink:href="#resetDef" x="30" y="36" onmousedown="handleReset()"/>
                <g id="arrowUp" xlink:href="#dirArrow" transform="translate(30 24)" onmousedown="handlePan(0,-1)">
                  <use xlink:href="#rim" fill="#404040">
                        <set attributeName="fill" to="#808080" begin="arrowUp.mouseover" end="arrowUp.mouseout"/>
                  </use>
                  <path fill="none" stroke="white" stroke-width="1.5" d="M0,-3.0v7 M-2.5,-0.5L0,-3.0L2.5,-0.5"/>
                </g>
                <g id="arrowRight" xlink:href="#dirArrow" transform="rotate(90) translate(36 -43)" onmousedown="handlePan(1,0)">
                  <use xlink:href="#rim" fill="#404040">
                        <set attributeName="fill" to="#808080" begin="arrowRight.mouseover" end="arrowRight.mouseout"/>
                  </use>
                  <path fill="none" stroke="white" stroke-width="1.5" d="M0,-3.0v7 M-2.5,-0.5L0,-3.0L2.5,-0.5"/>
                </g>
                <g id="arrowDown" xlink:href="#dirArrow" transform="rotate(180) translate(-30 -48)" onmousedown="handlePan(0,1)">
                  <use xlink:href="#rim" fill="#404040">
                        <set attributeName="fill" to="#808080" begin="arrowDown.mouseover" end="arrowDown.mouseout"/>
                  </use>
                  <path fill="none" stroke="white" stroke-width="1.5" d="M0,-3.0v7 M-2.5,-0.5L0,-3.0L2.5,-0.5"/>
                </g>
                <g id="arrowLeft" xlink:href="#dirArrow" transform="rotate(270) translate(-36 17)" onmousedown="handlePan(-1,0)">
                  <use xlink:href="#rim" fill="#404040">
                        <set attributeName="fill" to="#808080" begin="arrowLeft.mouseover" end="arrowLeft.mouseout"/>
                  </use>
                  <path fill="none" stroke="white" stroke-width="1.5" d="M0,-3.0v7 M-2.5,-0.5L0,-3.0L2.5,-0.5"/>
                </g>
        </g>
        <svg viewBox="0 0 15 15" width="100%" height="30px" preserveAspectRatio="xMaxYMin meet">
         <g id="arrow_out" transform="scale(0.3 0.3)">
          <a xlink:href="namespacemodulo__namespace_a0a6e5000e068f2fcb17d85038a64adf4_cgraph_org.svg" target="_base">
           <rect id="button" ry="5" rx="5" y="6" x="6" height="38" width="38"
                fill="#f2f5e9" fill-opacity="0.5" stroke="#606060" stroke-width="1.0"/>
           <path id="arrow"
             d="M 11.500037,31.436501 C 11.940474,20.09759 22.043105,11.32322 32.158766,21.979434 L 37.068811,17.246167 C 37.068811,17.246167 37.088388,32 37.088388,32 L 22.160133,31.978069 C 22.160133,31.978069 26.997745,27.140456 26.997745,27.140456 C 18.528582,18.264221 13.291696,25.230495 11.500037,31.436501 z"
             style="fill:#404040;"/>
          </a>
         </g>
        </svg>
</svg>
