<?xml version="1.0" encoding="UTF-8" standalone="no"?>
<!DOCTYPE svg PUBLIC "-//W3C//DTD SVG 1.1//EN"
 "http://www.w3.org/Graphics/SVG/1.1/DTD/svg11.dtd">
<!-- Generated by graphviz version 2.43.0 (0)
 -->
<!-- Title: geometry::test_hull Pages: 1 -->
<svg width="640pt" height="66pt"
 viewBox="0.00 0.00 640.00 66.00" xmlns="http://www.w3.org/2000/svg" xmlns:xlink="http://www.w3.org/1999/xlink">
<g id="graph0" class="graph" transform="scale(1 1) rotate(0) translate(4 62)">
<title>geometry::test_hull</title>
<polygon fill="white" stroke="transparent" points="-4,4 -4,-62 636,-62 636,4 -4,4"/>
<!-- Node1 -->
<g id="node1" class="node">
<title>Node1</title>
<g id="a_node1"><a xlink:title=" ">
<polygon fill="#bfbfbf" stroke="black" points="0,-19.5 0,-38.5 111,-38.5 111,-19.5 0,-19.5"/>
<text text-anchor="middle" x="55.5" y="-26.5" font-family="Helvetica,sans-Serif" font-size="10.00">geometry::test_hull</text>
</a>
</g>
</g>
<!-- Node2 -->
<g id="node2" class="node">
<title>Node2</title>
<g id="a_node2"><a xlink:href="namespacegeometry.html#acdc6602c58d77b560832434cc2e25b89" target="_top" xlink:title=" ">
<polygon fill="white" stroke="black" points="147,-19.5 147,-38.5 234,-38.5 234,-19.5 147,-19.5"/>
<text text-anchor="middle" x="190.5" y="-26.5" font-family="Helvetica,sans-Serif" font-size="10.00">geometry::hull</text>
</a>
</g>
</g>
<!-- Node1&#45;&gt;Node2 -->
<g id="edge1" class="edge">
<title>Node1&#45;&gt;Node2</title>
<path fill="none" stroke="midnightblue" d="M111.36,-29C119.81,-29 128.51,-29 136.91,-29"/>
<polygon fill="midnightblue" stroke="midnightblue" points="136.95,-32.5 146.95,-29 136.95,-25.5 136.95,-32.5"/>
</g>
<!-- Node3 -->
<g id="node3" class="node">
<title>Node3</title>
<g id="a_node3"><a xlink:href="namespacegeometry.html#a5a81e5af76081bea2b65b48e31179ec7" target="_top" xlink:title=" ">
<polygon fill="white" stroke="black" points="275,-38.5 275,-57.5 363,-57.5 363,-38.5 275,-38.5"/>
<text text-anchor="middle" x="319" y="-45.5" font-family="Helvetica,sans-Serif" font-size="10.00">geometry::ccw</text>
</a>
</g>
</g>
<!-- Node2&#45;&gt;Node3 -->
<g id="edge2" class="edge">
<title>Node2&#45;&gt;Node3</title>
<path fill="none" stroke="midnightblue" d="M234.33,-35.43C244.11,-36.9 254.63,-38.48 264.79,-40.01"/>
<polygon fill="midnightblue" stroke="midnightblue" points="264.38,-43.49 274.79,-41.51 265.42,-36.56 264.38,-43.49"/>
</g>
<!-- Node6 -->
<g id="node6" class="node">
<title>Node6</title>
<g id="a_node6"><a xlink:href="namespaceutility.html#a3bd1495c0bc9744b584e2294d8cb4693" target="_top" xlink:title=" ">
<polygon fill="white" stroke="black" points="270,-0.5 270,-19.5 368,-19.5 368,-0.5 270,-0.5"/>
<text text-anchor="middle" x="319" y="-7.5" font-family="Helvetica,sans-Serif" font-size="10.00">utility::map_args</text>
</a>
</g>
</g>
<!-- Node2&#45;&gt;Node6 -->
<g id="edge5" class="edge">
<title>Node2&#45;&gt;Node6</title>
<path fill="none" stroke="midnightblue" d="M234.33,-22.57C242.57,-21.33 251.33,-20.01 259.96,-18.72"/>
<polygon fill="midnightblue" stroke="midnightblue" points="260.63,-22.16 270,-17.21 259.59,-15.23 260.63,-22.16"/>
</g>
<!-- Node4 -->
<g id="node4" class="node">
<title>Node4</title>
<g id="a_node4"><a xlink:href="namespacegeometry.html#ab8556a4c9ecf62f348ba9d0635bf8cb3" target="_top" xlink:title=" ">
<polygon fill="white" stroke="black" points="404,-38.5 404,-57.5 495,-57.5 495,-38.5 404,-38.5"/>
<text text-anchor="middle" x="449.5" y="-45.5" font-family="Helvetica,sans-Serif" font-size="10.00">geometry::area</text>
</a>
</g>
</g>
<!-- Node3&#45;&gt;Node4 -->
<g id="edge3" class="edge">
<title>Node3&#45;&gt;Node4</title>
<path fill="none" stroke="midnightblue" d="M363.15,-48C372.99,-48 383.58,-48 393.83,-48"/>
<polygon fill="midnightblue" stroke="midnightblue" points="393.93,-51.5 403.93,-48 393.93,-44.5 393.93,-51.5"/>
</g>
<!-- Node5 -->
<g id="node5" class="node">
<title>Node5</title>
<g id="a_node5"><a xlink:href="namespacegeometry.html#aabae68a797dfbc044ca0ed89cc6cc1af" target="_top" xlink:title=" ">
<polygon fill="white" stroke="black" points="531,-38.5 531,-57.5 632,-57.5 632,-38.5 531,-38.5"/>
<text text-anchor="middle" x="581.5" y="-45.5" font-family="Helvetica,sans-Serif" font-size="10.00">geometry::wedge</text>
</a>
</g>
</g>
<!-- Node4&#45;&gt;Node5 -->
<g id="edge4" class="edge">
<title>Node4&#45;&gt;Node5</title>
<path fill="none" stroke="midnightblue" d="M495.24,-48C503.38,-48 512,-48 520.5,-48"/>
<polygon fill="midnightblue" stroke="midnightblue" points="520.78,-51.5 530.78,-48 520.78,-44.5 520.78,-51.5"/>
</g>
</g>
</svg>
