<?xml version="1.0" encoding="UTF-8" standalone="no"?>
<!DOCTYPE svg PUBLIC "-//W3C//DTD SVG 1.1//EN"
 "http://www.w3.org/Graphics/SVG/1.1/DTD/svg11.dtd">
<!-- Generated by graphviz version 2.43.0 (0)
 -->
<!-- Title: link_cut::lca Pages: 1 -->
<svg width="1001pt" height="118pt"
 viewBox="0.00 0.00 1001.00 118.00" xmlns="http://www.w3.org/2000/svg" xmlns:xlink="http://www.w3.org/1999/xlink">
<g id="graph0" class="graph" transform="scale(1 1) rotate(0) translate(4 114)">
<title>link_cut::lca</title>
<polygon fill="white" stroke="transparent" points="-4,4 -4,-114 997,-114 997,4 -4,4"/>
<!-- Node1 -->
<g id="node1" class="node">
<title>Node1</title>
<g id="a_node1"><a xlink:title=" ">
<polygon fill="#bfbfbf" stroke="black" points="0,-50 0,-69 75,-69 75,-50 0,-50"/>
<text text-anchor="middle" x="37.5" y="-57" font-family="Helvetica,sans-Serif" font-size="10.00">link_cut::lca</text>
</a>
</g>
</g>
<!-- Node2 -->
<g id="node2" class="node">
<title>Node2</title>
<g id="a_node2"><a xlink:href="namespacelink__cut.html#ac946b39708c027e0827fa6e4f1440e71" target="_top" xlink:title=" ">
<polygon fill="white" stroke="black" points="251,-50 251,-69 345,-69 345,-50 251,-50"/>
<text text-anchor="middle" x="298" y="-57" font-family="Helvetica,sans-Serif" font-size="10.00">link_cut::access</text>
</a>
</g>
</g>
<!-- Node1&#45;&gt;Node2 -->
<g id="edge1" class="edge">
<title>Node1&#45;&gt;Node2</title>
<path fill="none" stroke="midnightblue" d="M75.26,-59.5C118.43,-59.5 190.49,-59.5 240.71,-59.5"/>
<polygon fill="midnightblue" stroke="midnightblue" points="240.76,-63 250.76,-59.5 240.76,-56 240.76,-63"/>
</g>
<!-- Node8 -->
<g id="node8" class="node">
<title>Node8</title>
<g id="a_node8"><a xlink:href="namespacelink__cut.html#a3cb07576c29a6d57e510b41c59832ef4" target="_top" xlink:title=" ">
<polygon fill="white" stroke="black" points="111,-31 111,-50 215,-50 215,-31 111,-31"/>
<text text-anchor="middle" x="163" y="-38" font-family="Helvetica,sans-Serif" font-size="10.00">link_cut::find_root</text>
</a>
</g>
</g>
<!-- Node1&#45;&gt;Node8 -->
<g id="edge10" class="edge">
<title>Node1&#45;&gt;Node8</title>
<path fill="none" stroke="midnightblue" d="M75.22,-53.85C83.19,-52.62 91.83,-51.29 100.47,-49.97"/>
<polygon fill="midnightblue" stroke="midnightblue" points="101.22,-53.39 110.57,-48.41 100.15,-46.47 101.22,-53.39"/>
</g>
<!-- Node3 -->
<g id="node3" class="node">
<title>Node3</title>
<g id="a_node3"><a xlink:href="structsplay__tree_1_1SplayNode.html#a510653918c7b8181c888bbb608a9e6ee" target="_top" xlink:title=" ">
<polygon fill="white" stroke="black" points="705,-79.5 705,-109.5 831,-109.5 831,-79.5 705,-79.5"/>
<text text-anchor="start" x="713" y="-97.5" font-family="Helvetica,sans-Serif" font-size="10.00">splay_tree::SplayNode</text>
<text text-anchor="middle" x="768" y="-86.5" font-family="Helvetica,sans-Serif" font-size="10.00">::attach</text>
</a>
</g>
</g>
<!-- Node2&#45;&gt;Node3 -->
<g id="edge2" class="edge">
<title>Node2&#45;&gt;Node3</title>
<path fill="none" stroke="midnightblue" d="M333.85,-69.09C348.32,-72.67 365.36,-76.38 381,-78.5 489.61,-93.2 616.85,-95.66 694.67,-95.51"/>
<polygon fill="midnightblue" stroke="midnightblue" points="694.86,-99 704.85,-95.47 694.84,-92 694.86,-99"/>
</g>
<!-- Node5 -->
<g id="node5" class="node">
<title>Node5</title>
<g id="a_node5"><a xlink:href="namespacelink__cut.html#aa421dd91c5a7dc689972109e651b8c9a" target="_top" xlink:title=" ">
<polygon fill="white" stroke="black" points="383,-50 383,-69 505,-69 505,-50 383,-50"/>
<text text-anchor="middle" x="444" y="-57" font-family="Helvetica,sans-Serif" font-size="10.00">link_cut::detach_child</text>
</a>
</g>
</g>
<!-- Node2&#45;&gt;Node5 -->
<g id="edge4" class="edge">
<title>Node2&#45;&gt;Node5</title>
<path fill="none" stroke="midnightblue" d="M345.36,-59.5C354.11,-59.5 363.45,-59.5 372.75,-59.5"/>
<polygon fill="midnightblue" stroke="midnightblue" points="372.79,-63 382.79,-59.5 372.79,-56 372.79,-63"/>
</g>
<!-- Node6 -->
<g id="node6" class="node">
<title>Node6</title>
<g id="a_node6"><a xlink:href="structsplay__tree_1_1SplayNode.html#a34a54d6c33025f4be7b37065e584b8c5" target="_top" xlink:title=" ">
<polygon fill="white" stroke="black" points="381,-0.5 381,-30.5 507,-30.5 507,-0.5 381,-0.5"/>
<text text-anchor="start" x="389" y="-18.5" font-family="Helvetica,sans-Serif" font-size="10.00">splay_tree::SplayNode</text>
<text text-anchor="middle" x="444" y="-7.5" font-family="Helvetica,sans-Serif" font-size="10.00">::splay</text>
</a>
</g>
</g>
<!-- Node2&#45;&gt;Node6 -->
<g id="edge5" class="edge">
<title>Node2&#45;&gt;Node6</title>
<path fill="none" stroke="midnightblue" d="M330.25,-49.95C345.95,-45.15 365.52,-39.18 383.92,-33.55"/>
<polygon fill="midnightblue" stroke="midnightblue" points="385.15,-36.83 393.7,-30.57 383.11,-30.14 385.15,-36.83"/>
</g>
<!-- Node4 -->
<g id="node4" class="node">
<title>Node4</title>
<g id="a_node4"><a xlink:href="structsplay__tree_1_1SplayNode.html#a73de7d8fe94fc66a6a43427751e8a546" target="_top" xlink:title=" ">
<polygon fill="white" stroke="black" points="867,-35.5 867,-65.5 993,-65.5 993,-35.5 867,-35.5"/>
<text text-anchor="start" x="875" y="-53.5" font-family="Helvetica,sans-Serif" font-size="10.00">splay_tree::SplayNode</text>
<text text-anchor="middle" x="930" y="-42.5" font-family="Helvetica,sans-Serif" font-size="10.00">::side</text>
</a>
</g>
</g>
<!-- Node3&#45;&gt;Node4 -->
<g id="edge3" class="edge">
<title>Node3&#45;&gt;Node4</title>
<path fill="none" stroke="midnightblue" d="M823.62,-79.48C836.8,-75.85 851.01,-71.95 864.6,-68.21"/>
<polygon fill="midnightblue" stroke="midnightblue" points="865.65,-71.55 874.36,-65.53 863.79,-64.8 865.65,-71.55"/>
</g>
<!-- Node6&#45;&gt;Node4 -->
<g id="edge9" class="edge">
<title>Node6&#45;&gt;Node4</title>
<path fill="none" stroke="midnightblue" d="M507.31,-18.67C552.27,-21.07 614.41,-24.61 669,-28.5 732.44,-33.02 804.49,-39.2 856.63,-43.86"/>
<polygon fill="midnightblue" stroke="midnightblue" points="856.51,-47.36 866.78,-44.77 857.14,-40.39 856.51,-47.36"/>
</g>
<!-- Node7 -->
<g id="node7" class="node">
<title>Node7</title>
<g id="a_node7"><a xlink:href="structsplay__tree_1_1SplayNode.html#a099b6b1b7632cb57ee28bc474d86343e" target="_top" xlink:title=" ">
<polygon fill="white" stroke="black" points="543,-38.5 543,-68.5 669,-68.5 669,-38.5 543,-38.5"/>
<text text-anchor="start" x="551" y="-56.5" font-family="Helvetica,sans-Serif" font-size="10.00">splay_tree::SplayNode</text>
<text text-anchor="middle" x="606" y="-45.5" font-family="Helvetica,sans-Serif" font-size="10.00">::rotate</text>
</a>
</g>
</g>
<!-- Node6&#45;&gt;Node7 -->
<g id="edge6" class="edge">
<title>Node6&#45;&gt;Node7</title>
<path fill="none" stroke="midnightblue" d="M507.32,-30.3C515.71,-32.29 524.37,-34.35 532.91,-36.38"/>
<polygon fill="midnightblue" stroke="midnightblue" points="532.31,-39.83 542.85,-38.74 533.93,-33.02 532.31,-39.83"/>
</g>
<!-- Node7&#45;&gt;Node3 -->
<g id="edge7" class="edge">
<title>Node7&#45;&gt;Node3</title>
<path fill="none" stroke="midnightblue" d="M665.67,-68.53C676.32,-71.26 687.52,-74.13 698.43,-76.93"/>
<polygon fill="midnightblue" stroke="midnightblue" points="697.78,-80.38 708.34,-79.47 699.52,-73.59 697.78,-80.38"/>
</g>
<!-- Node7&#45;&gt;Node4 -->
<g id="edge8" class="edge">
<title>Node7&#45;&gt;Node4</title>
<path fill="none" stroke="midnightblue" d="M669.08,-52.92C722.68,-52.42 800.14,-51.7 856.55,-51.17"/>
<polygon fill="midnightblue" stroke="midnightblue" points="856.86,-54.67 866.83,-51.08 856.8,-47.67 856.86,-54.67"/>
</g>
<!-- Node8&#45;&gt;Node2 -->
<g id="edge11" class="edge">
<title>Node8&#45;&gt;Node2</title>
<path fill="none" stroke="midnightblue" d="M215.04,-47.79C223.37,-48.98 232.05,-50.22 240.5,-51.43"/>
<polygon fill="midnightblue" stroke="midnightblue" points="240.28,-54.93 250.67,-52.88 241.27,-48 240.28,-54.93"/>
</g>
</g>
</svg>
