<?xml version="1.0" encoding="UTF-8" standalone="no"?>
<!DOCTYPE svg PUBLIC "-//W3C//DTD SVG 1.1//EN"
 "http://www.w3.org/Graphics/SVG/1.1/DTD/svg11.dtd">
<!-- Generated by graphviz version 2.43.0 (0)
 -->
<!-- Title: convex_hull_trick::area Pages: 1 -->
<!--zoomable 132 -->
<svg id="main" version="1.1" xmlns="http://www.w3.org/2000/svg" xmlns:xlink="http://www.w3.org/1999/xlink" xml:space="preserve" onload="init(evt)">
<style type="text/css"><![CDATA[
.edge:hover path { stroke: red; }
.edge:hover polygon { stroke: red; fill: red; }
]]></style>
<script type="text/javascript"><![CDATA[
var edges = document.getElementsByTagName('g');
if (edges && edges.length) {
  for (var i=0;i<edges.length;i++) {
    if (edges[i].id.substr(0,4)=='edge') {
      edges[i].setAttribute('class','edge');
    }
  }
}
]]></script>
        <defs>
                <circle id="rim" cx="0" cy="0" r="7"/>
                <circle id="rim2" cx="0" cy="0" r="3.5"/>
                <g id="zoomPlus">
                        <use xlink:href="#rim" fill="#404040">
                                <set attributeName="fill" to="#808080" begin="zoomplus.mouseover" end="zoomplus.mouseout"/>
                        </use>
                        <path d="M-4,0h8M0,-4v8" fill="none" stroke="white" stroke-width="1.5" pointer-events="none"/>
                </g>
                <g id="zoomMin">
                        <use xlink:href="#rim" fill="#404040">
                                <set attributeName="fill" to="#808080" begin="zoomminus.mouseover" end="zoomminus.mouseout"/>
                        </use>
                        <path d="M-4,0h8" fill="none" stroke="white" stroke-width="1.5" pointer-events="none"/>
                </g>
                <g id="dirArrow">
                        <path fill="none" stroke="white" stroke-width="1.5" d="M0,-3.0v7 M-2.5,-0.5L0,-3.0L2.5,-0.5"/>
                </g>
               <g id="resetDef">
                       <use xlink:href="#rim2" fill="#404040">
                               <set attributeName="fill" to="#808080" begin="reset.mouseover" end="reset.mouseout"/>
                       </use>
               </g>
        </defs>

<script type="text/javascript">
var viewWidth = 916;
var viewHeight = 132;
var sectionId = 'dynsection-1';
</script>
<script xlink:href="svgpan.js"/>
<svg id="graph" class="graph">
<g id="viewport">
<title>convex_hull_trick::area</title>
<polygon fill="white" stroke="transparent" points="-4,4 -4,-128 912,-128 912,4 -4,4"/>
<!-- Node1 -->
<g id="node1" class="node">
<title>Node1</title>
<g id="a_node1"><a xlink:title=" ">
<polygon fill="#bfbfbf" stroke="black" points="778,-28 778,-47 908,-47 908,-28 778,-28"/>
<text text-anchor="middle" x="843" y="-35" font-family="Helvetica,sans-Serif" font-size="10.00">convex_hull_trick::area</text>
</a>
</g>
</g>
<!-- Node2 -->
<g id="node2" class="node">
<title>Node2</title>
<g id="a_node2"><a xlink:href="namespaceconvex__hull__trick.html#a09a415224250703a38ef6bd668e1cac5" target="_top" xlink:title="Returns whether moving through &#160;is counterclockwise.">
<polygon fill="white" stroke="black" points="615,-28 615,-47 742,-47 742,-28 615,-28"/>
<text text-anchor="middle" x="678.5" y="-35" font-family="Helvetica,sans-Serif" font-size="10.00">convex_hull_trick::ccw</text>
</a>
</g>
</g>
<!-- Node1&#45;&gt;Node2 -->
<g id="edge1" class="edge">
<title>Node1&#45;&gt;Node2</title>
<path fill="none" stroke="midnightblue" d="M767.52,-37.5C759.05,-37.5 750.49,-37.5 742.2,-37.5"/>
<polygon fill="midnightblue" stroke="midnightblue" points="767.78,-41 777.78,-37.5 767.78,-34 767.78,-41"/>
</g>
<!-- Node3 -->
<g id="node3" class="node">
<title>Node3</title>
<g id="a_node3"><a xlink:href="namespaceconvex__hull__trick.html#aa194f52c547fd3298f72caf6371a23ed" target="_top" xlink:title=" ">
<polygon fill="white" stroke="black" points="453,-50 453,-69 579,-69 579,-50 453,-50"/>
<text text-anchor="middle" x="516" y="-57" font-family="Helvetica,sans-Serif" font-size="10.00">convex_hull_trick::hull</text>
</a>
</g>
</g>
<!-- Node2&#45;&gt;Node3 -->
<g id="edge2" class="edge">
<title>Node2&#45;&gt;Node3</title>
<path fill="none" stroke="midnightblue" d="M604.93,-47.45C596.3,-48.63 587.55,-49.83 579.08,-50.99"/>
<polygon fill="midnightblue" stroke="midnightblue" points="605.55,-50.89 614.99,-46.07 604.6,-43.96 605.55,-50.89"/>
</g>
<!-- Node9 -->
<g id="node9" class="node">
<title>Node9</title>
<g id="a_node9"><a xlink:href="namespaceconvex__hull__trick_1_1test.html#a9b689c83ba8f830281d1aabf43efd1e4" target="_top" xlink:title=" ">
<polygon fill="white" stroke="black" points="462,-0.5 462,-30.5 570,-30.5 570,-0.5 462,-0.5"/>
<text text-anchor="start" x="470" y="-18.5" font-family="Helvetica,sans-Serif" font-size="10.00">convex_hull_trick::</text>
<text text-anchor="middle" x="516" y="-7.5" font-family="Helvetica,sans-Serif" font-size="10.00">test::test_ccw</text>
</a>
</g>
</g>
<!-- Node2&#45;&gt;Node9 -->
<g id="edge8" class="edge">
<title>Node2&#45;&gt;Node9</title>
<path fill="none" stroke="midnightblue" d="M604.83,-27.54C593.18,-25.94 581.32,-24.32 570.24,-22.8"/>
<polygon fill="midnightblue" stroke="midnightblue" points="604.6,-31.04 614.99,-28.93 605.55,-24.11 604.6,-31.04"/>
</g>
<!-- Node4 -->
<g id="node4" class="node">
<title>Node4</title>
<g id="a_node4"><a xlink:href="structconvex__hull__trick_1_1CHT.html#a2166ed9dd69f17fe9f4ed77fbf4d0907" target="_top" xlink:title=" ">
<polygon fill="white" stroke="black" points="309,-93.5 309,-123.5 417,-123.5 417,-93.5 309,-93.5"/>
<text text-anchor="start" x="317" y="-111.5" font-family="Helvetica,sans-Serif" font-size="10.00">convex_hull_trick::</text>
<text text-anchor="middle" x="363" y="-100.5" font-family="Helvetica,sans-Serif" font-size="10.00">CHT::CHT</text>
</a>
</g>
</g>
<!-- Node3&#45;&gt;Node4 -->
<g id="edge3" class="edge">
<title>Node3&#45;&gt;Node4</title>
<path fill="none" stroke="midnightblue" d="M475.8,-72.22C455.78,-78.72 431.29,-86.66 410.34,-93.46"/>
<polygon fill="midnightblue" stroke="midnightblue" points="477.1,-75.48 485.53,-69.06 474.94,-68.82 477.1,-75.48"/>
</g>
<!-- Node5 -->
<g id="node5" class="node">
<title>Node5</title>
<g id="a_node5"><a xlink:href="namespaceconvex__hull__trick_1_1test.html#a585d91f97ee3a90cbcdb2ba5bbfe94ac" target="_top" xlink:title=" ">
<polygon fill="white" stroke="black" points="309,-44.5 309,-74.5 417,-74.5 417,-44.5 309,-44.5"/>
<text text-anchor="start" x="317" y="-62.5" font-family="Helvetica,sans-Serif" font-size="10.00">convex_hull_trick::</text>
<text text-anchor="middle" x="363" y="-51.5" font-family="Helvetica,sans-Serif" font-size="10.00">test::test_hull</text>
</a>
</g>
</g>
<!-- Node3&#45;&gt;Node5 -->
<g id="edge4" class="edge">
<title>Node3&#45;&gt;Node5</title>
<path fill="none" stroke="midnightblue" d="M442.62,-59.5C433.99,-59.5 425.29,-59.5 417,-59.5"/>
<polygon fill="midnightblue" stroke="midnightblue" points="442.71,-63 452.71,-59.5 442.71,-56 442.71,-63"/>
</g>
<!-- Node6 -->
<g id="node6" class="node">
<title>Node6</title>
<g id="a_node6"><a xlink:href="namespaceconvex__hull__trick_1_1test.html#a05eb98d10b7444bbdc9fe64f4d99676a" target="_top" xlink:title=" ">
<polygon fill="white" stroke="black" points="160,-22.5 160,-52.5 273,-52.5 273,-22.5 160,-22.5"/>
<text text-anchor="start" x="168" y="-40.5" font-family="Helvetica,sans-Serif" font-size="10.00">convex_hull_trick::</text>
<text text-anchor="middle" x="216.5" y="-29.5" font-family="Helvetica,sans-Serif" font-size="10.00">test::test_geometry</text>
</a>
</g>
</g>
<!-- Node5&#45;&gt;Node6 -->
<g id="edge5" class="edge">
<title>Node5&#45;&gt;Node6</title>
<path fill="none" stroke="midnightblue" d="M298.7,-49.86C290.17,-48.56 281.48,-47.24 273.1,-45.96"/>
<polygon fill="midnightblue" stroke="midnightblue" points="298.19,-53.33 308.6,-51.37 299.24,-46.41 298.19,-53.33"/>
</g>
<!-- Node7 -->
<g id="node7" class="node">
<title>Node7</title>
<g id="a_node7"><a xlink:href="test_8cpp.html#af095a232149097b5605064623a9345ac" target="_top" xlink:title=" ">
<polygon fill="white" stroke="black" points="77,-28 77,-47 124,-47 124,-28 77,-28"/>
<text text-anchor="middle" x="100.5" y="-35" font-family="Helvetica,sans-Serif" font-size="10.00">main2</text>
</a>
</g>
</g>
<!-- Node6&#45;&gt;Node7 -->
<g id="edge6" class="edge">
<title>Node6&#45;&gt;Node7</title>
<path fill="none" stroke="midnightblue" d="M149.78,-37.5C140.57,-37.5 131.68,-37.5 124.09,-37.5"/>
<polygon fill="midnightblue" stroke="midnightblue" points="149.84,-41 159.84,-37.5 149.84,-34 149.84,-41"/>
</g>
<!-- Node8 -->
<g id="node8" class="node">
<title>Node8</title>
<g id="a_node8"><a xlink:href="main_8hpp.html#a0ddf1224851353fc92bfbff6f499fa97" target="_top" xlink:title=" ">
<polygon fill="white" stroke="black" points="0,-28 0,-47 41,-47 41,-28 0,-28"/>
<text text-anchor="middle" x="20.5" y="-35" font-family="Helvetica,sans-Serif" font-size="10.00">main</text>
</a>
</g>
</g>
<!-- Node7&#45;&gt;Node8 -->
<g id="edge7" class="edge">
<title>Node7&#45;&gt;Node8</title>
<path fill="none" stroke="midnightblue" d="M66.66,-37.5C57.96,-37.5 48.84,-37.5 41.1,-37.5"/>
<polygon fill="midnightblue" stroke="midnightblue" points="66.94,-41 76.94,-37.5 66.94,-34 66.94,-41"/>
</g>
<!-- Node9&#45;&gt;Node6 -->
<g id="edge9" class="edge">
<title>Node9&#45;&gt;Node6</title>
<path fill="none" stroke="midnightblue" d="M451.51,-20.19C398.5,-24.12 323.66,-29.65 273,-33.4"/>
<polygon fill="midnightblue" stroke="midnightblue" points="452.1,-23.66 461.81,-19.43 451.58,-16.68 452.1,-23.66"/>
</g>
</g>
</svg>
        <g id="navigator" transform="translate(0 0)" fill="#404254">
                <rect fill="#f2f5e9" fill-opacity="0.5" stroke="#606060" stroke-width=".5" x="0" y="0" width="60" height="60"/>
                <use id="zoomplus" xlink:href="#zoomPlus" x="17" y="9" onmousedown="handleZoom(evt,'in')"/>
                <use id="zoomminus" xlink:href="#zoomMin" x="42" y="9" onmousedown="handleZoom(evt,'out')"/>
                <use id="reset" xlink:href="#resetDef" x="30" y="36" onmousedown="handleReset()"/>
                <g id="arrowUp" xlink:href="#dirArrow" transform="translate(30 24)" onmousedown="handlePan(0,-1)">
                  <use xlink:href="#rim" fill="#404040">
                        <set attributeName="fill" to="#808080" begin="arrowUp.mouseover" end="arrowUp.mouseout"/>
                  </use>
                  <path fill="none" stroke="white" stroke-width="1.5" d="M0,-3.0v7 M-2.5,-0.5L0,-3.0L2.5,-0.5"/>
                </g>
                <g id="arrowRight" xlink:href="#dirArrow" transform="rotate(90) translate(36 -43)" onmousedown="handlePan(1,0)">
                  <use xlink:href="#rim" fill="#404040">
                        <set attributeName="fill" to="#808080" begin="arrowRight.mouseover" end="arrowRight.mouseout"/>
                  </use>
                  <path fill="none" stroke="white" stroke-width="1.5" d="M0,-3.0v7 M-2.5,-0.5L0,-3.0L2.5,-0.5"/>
                </g>
                <g id="arrowDown" xlink:href="#dirArrow" transform="rotate(180) translate(-30 -48)" onmousedown="handlePan(0,1)">
                  <use xlink:href="#rim" fill="#404040">
                        <set attributeName="fill" to="#808080" begin="arrowDown.mouseover" end="arrowDown.mouseout"/>
                  </use>
                  <path fill="none" stroke="white" stroke-width="1.5" d="M0,-3.0v7 M-2.5,-0.5L0,-3.0L2.5,-0.5"/>
                </g>
                <g id="arrowLeft" xlink:href="#dirArrow" transform="rotate(270) translate(-36 17)" onmousedown="handlePan(-1,0)">
                  <use xlink:href="#rim" fill="#404040">
                        <set attributeName="fill" to="#808080" begin="arrowLeft.mouseover" end="arrowLeft.mouseout"/>
                  </use>
                  <path fill="none" stroke="white" stroke-width="1.5" d="M0,-3.0v7 M-2.5,-0.5L0,-3.0L2.5,-0.5"/>
                </g>
        </g>
        <svg viewBox="0 0 15 15" width="100%" height="30px" preserveAspectRatio="xMaxYMin meet">
         <g id="arrow_out" transform="scale(0.3 0.3)">
          <a xlink:href="namespaceconvex__hull__trick_abeaee6745d46728e8edf0f80a1e92ddf_icgraph_org.svg" target="_base">
           <rect id="button" ry="5" rx="5" y="6" x="6" height="38" width="38"
                fill="#f2f5e9" fill-opacity="0.5" stroke="#606060" stroke-width="1.0"/>
           <path id="arrow"
             d="M 11.500037,31.436501 C 11.940474,20.09759 22.043105,11.32322 32.158766,21.979434 L 37.068811,17.246167 C 37.068811,17.246167 37.088388,32 37.088388,32 L 22.160133,31.978069 C 22.160133,31.978069 26.997745,27.140456 26.997745,27.140456 C 18.528582,18.264221 13.291696,25.230495 11.500037,31.436501 z"
             style="fill:#404040;"/>
          </a>
         </g>
        </svg>
</svg>
