<?xml version="1.0" encoding="UTF-8" standalone="no"?>
<!DOCTYPE svg PUBLIC "-//W3C//DTD SVG 1.1//EN"
 "http://www.w3.org/Graphics/SVG/1.1/DTD/svg11.dtd">
<!-- Generated by graphviz version 2.43.0 (0)
 -->
<!-- Title: string_tools::test_string Pages: 1 -->
<svg width="240pt" height="88pt"
 viewBox="0.00 0.00 240.00 88.00" xmlns="http://www.w3.org/2000/svg" xmlns:xlink="http://www.w3.org/1999/xlink">
<g id="graph0" class="graph" transform="scale(1 1) rotate(0) translate(4 84)">
<title>string_tools::test_string</title>
<polygon fill="white" stroke="transparent" points="-4,4 -4,-84 236,-84 236,4 -4,4"/>
<!-- Node1 -->
<g id="node1" class="node">
<title>Node1</title>
<g id="a_node1"><a xlink:title=" ">
<polygon fill="#bfbfbf" stroke="black" points="0,-24.5 0,-54.5 98,-54.5 98,-24.5 0,-24.5"/>
<text text-anchor="start" x="8" y="-42.5" font-family="Helvetica,sans-Serif" font-size="10.00">string_tools::test</text>
<text text-anchor="middle" x="49" y="-31.5" font-family="Helvetica,sans-Serif" font-size="10.00">_string</text>
</a>
</g>
</g>
<!-- Node2 -->
<g id="node2" class="node">
<title>Node2</title>
<g id="a_node2"><a xlink:href="namespacestring__tools.html#a770c47a8a5684f89eb297ffba5337da8" target="_top" xlink:title=" ">
<polygon fill="white" stroke="black" points="134,-49.5 134,-79.5 232,-79.5 232,-49.5 134,-49.5"/>
<text text-anchor="start" x="142" y="-67.5" font-family="Helvetica,sans-Serif" font-size="10.00">string_tools::test</text>
<text text-anchor="middle" x="183" y="-56.5" font-family="Helvetica,sans-Serif" font-size="10.00">_bytehash</text>
</a>
</g>
</g>
<!-- Node1&#45;&gt;Node2 -->
<g id="edge1" class="edge">
<title>Node1&#45;&gt;Node2</title>
<path fill="none" stroke="midnightblue" d="M98.03,-48.6C106.4,-50.18 115.19,-51.85 123.8,-53.48"/>
<polygon fill="midnightblue" stroke="midnightblue" points="123.31,-56.95 133.79,-55.37 124.61,-50.07 123.31,-56.95"/>
</g>
<!-- Node3 -->
<g id="node3" class="node">
<title>Node3</title>
<g id="a_node3"><a xlink:href="namespacestring__tools.html#a66df4130e08d7e88fb0becf94c0a9a54" target="_top" xlink:title=" ">
<polygon fill="white" stroke="black" points="134,-0.5 134,-30.5 232,-30.5 232,-0.5 134,-0.5"/>
<text text-anchor="start" x="142" y="-18.5" font-family="Helvetica,sans-Serif" font-size="10.00">string_tools::test</text>
<text text-anchor="middle" x="183" y="-7.5" font-family="Helvetica,sans-Serif" font-size="10.00">_hash_str</text>
</a>
</g>
</g>
<!-- Node1&#45;&gt;Node3 -->
<g id="edge2" class="edge">
<title>Node1&#45;&gt;Node3</title>
<path fill="none" stroke="midnightblue" d="M98.03,-30.77C106.4,-29.25 115.19,-27.65 123.8,-26.08"/>
<polygon fill="midnightblue" stroke="midnightblue" points="124.57,-29.5 133.79,-24.27 123.32,-22.61 124.57,-29.5"/>
</g>
</g>
</svg>
