<?xml version="1.0" encoding="UTF-8" standalone="no"?>
<!DOCTYPE svg PUBLIC "-//W3C//DTD SVG 1.1//EN"
 "http://www.w3.org/Graphics/SVG/1.1/DTD/svg11.dtd">
<!-- Generated by graphviz version 2.43.0 (0)
 -->
<!-- Title: utility::counting_sort Pages: 1 -->
<svg width="568pt" height="127pt"
 viewBox="0.00 0.00 568.00 127.00" xmlns="http://www.w3.org/2000/svg" xmlns:xlink="http://www.w3.org/1999/xlink">
<g id="graph0" class="graph" transform="scale(1 1) rotate(0) translate(4 123)">
<title>utility::counting_sort</title>
<polygon fill="white" stroke="transparent" points="-4,4 -4,-123 564,-123 564,4 -4,4"/>
<!-- Node1 -->
<g id="node1" class="node">
<title>Node1</title>
<g id="a_node1"><a xlink:title=" ">
<polygon fill="#bfbfbf" stroke="black" points="444,-69 444,-88 560,-88 560,-69 444,-69"/>
<text text-anchor="middle" x="502" y="-76" font-family="Helvetica,sans-Serif" font-size="10.00">utility::counting_sort</text>
</a>
</g>
</g>
<!-- Node2 -->
<g id="node2" class="node">
<title>Node2</title>
<g id="a_node2"><a xlink:href="namespacestring__tools.html#af59e7388a466fccce148991db2eb61db" target="_top" xlink:title=" ">
<polygon fill="white" stroke="black" points="301,-88.5 301,-118.5 408,-118.5 408,-88.5 301,-88.5"/>
<text text-anchor="start" x="309" y="-106.5" font-family="Helvetica,sans-Serif" font-size="10.00">string_tools::suffix</text>
<text text-anchor="middle" x="354.5" y="-95.5" font-family="Helvetica,sans-Serif" font-size="10.00">_array</text>
</a>
</g>
</g>
<!-- Node1&#45;&gt;Node2 -->
<g id="edge1" class="edge">
<title>Node1&#45;&gt;Node2</title>
<path fill="none" stroke="midnightblue" d="M435.44,-89.76C426.38,-91.32 417.16,-92.9 408.37,-94.42"/>
<polygon fill="midnightblue" stroke="midnightblue" points="436.31,-93.17 445.58,-88.02 435.13,-86.27 436.31,-93.17"/>
</g>
<!-- Node6 -->
<g id="node6" class="node">
<title>Node6</title>
<g id="a_node6"><a xlink:href="namespaceutility_1_1test.html#aa1aed4e58acebcfd6d9150b64f4ad975" target="_top" xlink:title=" ">
<polygon fill="white" stroke="black" points="307.5,-39.5 307.5,-69.5 401.5,-69.5 401.5,-39.5 307.5,-39.5"/>
<text text-anchor="start" x="315.5" y="-57.5" font-family="Helvetica,sans-Serif" font-size="10.00">utility::test::test</text>
<text text-anchor="middle" x="354.5" y="-46.5" font-family="Helvetica,sans-Serif" font-size="10.00">_counting_sort</text>
</a>
</g>
</g>
<!-- Node1&#45;&gt;Node6 -->
<g id="edge5" class="edge">
<title>Node1&#45;&gt;Node6</title>
<path fill="none" stroke="midnightblue" d="M433.95,-67.44C423.03,-65.64 411.93,-63.81 401.65,-62.11"/>
<polygon fill="midnightblue" stroke="midnightblue" points="433.48,-70.91 443.91,-69.08 434.62,-64 433.48,-70.91"/>
</g>
<!-- Node3 -->
<g id="node3" class="node">
<title>Node3</title>
<g id="a_node3"><a xlink:href="namespacestring__tools_1_1test.html#a81ed0421a8991a10c16c1fdaa0cf8cf6" target="_top" xlink:title=" ">
<polygon fill="white" stroke="black" points="160,-88.5 160,-118.5 265,-118.5 265,-88.5 160,-88.5"/>
<text text-anchor="start" x="168" y="-106.5" font-family="Helvetica,sans-Serif" font-size="10.00">string_tools::test</text>
<text text-anchor="middle" x="212.5" y="-95.5" font-family="Helvetica,sans-Serif" font-size="10.00">::test_suffix_array</text>
</a>
</g>
</g>
<!-- Node2&#45;&gt;Node3 -->
<g id="edge2" class="edge">
<title>Node2&#45;&gt;Node3</title>
<path fill="none" stroke="midnightblue" d="M290.74,-103.5C282.27,-103.5 273.65,-103.5 265.39,-103.5"/>
<polygon fill="midnightblue" stroke="midnightblue" points="290.97,-107 300.97,-103.5 290.97,-100 290.97,-107"/>
</g>
<!-- Node4 -->
<g id="node4" class="node">
<title>Node4</title>
<g id="a_node4"><a xlink:href="test_8cpp.html#af095a232149097b5605064623a9345ac" target="_top" xlink:title=" ">
<polygon fill="white" stroke="black" points="77,-50 77,-69 124,-69 124,-50 77,-50"/>
<text text-anchor="middle" x="100.5" y="-57" font-family="Helvetica,sans-Serif" font-size="10.00">main2</text>
</a>
</g>
</g>
<!-- Node3&#45;&gt;Node4 -->
<g id="edge3" class="edge">
<title>Node3&#45;&gt;Node4</title>
<path fill="none" stroke="midnightblue" d="M164.44,-84.67C150.47,-79.09 135.8,-73.22 124.14,-68.56"/>
<polygon fill="midnightblue" stroke="midnightblue" points="163.37,-88.02 173.95,-88.48 165.97,-81.52 163.37,-88.02"/>
</g>
<!-- Node5 -->
<g id="node5" class="node">
<title>Node5</title>
<g id="a_node5"><a xlink:href="main_8hpp.html#a0ddf1224851353fc92bfbff6f499fa97" target="_top" xlink:title=" ">
<polygon fill="white" stroke="black" points="0,-50 0,-69 41,-69 41,-50 0,-50"/>
<text text-anchor="middle" x="20.5" y="-57" font-family="Helvetica,sans-Serif" font-size="10.00">main</text>
</a>
</g>
</g>
<!-- Node4&#45;&gt;Node5 -->
<g id="edge4" class="edge">
<title>Node4&#45;&gt;Node5</title>
<path fill="none" stroke="midnightblue" d="M66.66,-59.5C57.96,-59.5 48.84,-59.5 41.1,-59.5"/>
<polygon fill="midnightblue" stroke="midnightblue" points="66.94,-63 76.94,-59.5 66.94,-56 66.94,-63"/>
</g>
<!-- Node6&#45;&gt;Node4 -->
<g id="edge6" class="edge">
<title>Node6&#45;&gt;Node4</title>
<path fill="none" stroke="midnightblue" d="M297.07,-55.62C242.54,-56.7 162.68,-58.29 124.06,-59.05"/>
<polygon fill="midnightblue" stroke="midnightblue" points="297.35,-59.11 307.28,-55.42 297.21,-52.12 297.35,-59.11"/>
</g>
<!-- Node7 -->
<g id="node7" class="node">
<title>Node7</title>
<g id="a_node7"><a xlink:href="namespaceutility_1_1test.html#a8aec6a2b496df7ad483a46db1649ea2c" target="_top" xlink:title=" ">
<polygon fill="white" stroke="black" points="165.5,-0.5 165.5,-30.5 259.5,-30.5 259.5,-0.5 165.5,-0.5"/>
<text text-anchor="start" x="173.5" y="-18.5" font-family="Helvetica,sans-Serif" font-size="10.00">utility::test::test</text>
<text text-anchor="middle" x="212.5" y="-7.5" font-family="Helvetica,sans-Serif" font-size="10.00">_utility</text>
</a>
</g>
</g>
<!-- Node6&#45;&gt;Node7 -->
<g id="edge7" class="edge">
<title>Node6&#45;&gt;Node7</title>
<path fill="none" stroke="midnightblue" d="M297.4,-38.87C284.88,-35.38 271.74,-31.73 259.68,-28.36"/>
<polygon fill="midnightblue" stroke="midnightblue" points="296.7,-42.31 307.27,-41.62 298.58,-35.57 296.7,-42.31"/>
</g>
<!-- Node7&#45;&gt;Node4 -->
<g id="edge8" class="edge">
<title>Node7&#45;&gt;Node4</title>
<path fill="none" stroke="midnightblue" d="M164.44,-34.33C150.47,-39.91 135.8,-45.78 124.14,-50.44"/>
<polygon fill="midnightblue" stroke="midnightblue" points="165.97,-37.48 173.95,-30.52 163.37,-30.98 165.97,-37.48"/>
</g>
</g>
</svg>
