<?xml version="1.0" encoding="UTF-8" standalone="no"?>
<!DOCTYPE svg PUBLIC "-//W3C//DTD SVG 1.1//EN"
 "http://www.w3.org/Graphics/SVG/1.1/DTD/svg11.dtd">
<!-- Generated by graphviz version 2.43.0 (0)
 -->
<!-- Title: link_cut::detach_child Pages: 1 -->
<svg width="775pt" height="230pt"
 viewBox="0.00 0.00 775.00 230.00" xmlns="http://www.w3.org/2000/svg" xmlns:xlink="http://www.w3.org/1999/xlink">
<g id="graph0" class="graph" transform="scale(1 1) rotate(0) translate(4 226)">
<title>link_cut::detach_child</title>
<polygon fill="white" stroke="transparent" points="-4,4 -4,-226 771,-226 771,4 -4,4"/>
<!-- Node1 -->
<g id="node1" class="node">
<title>Node1</title>
<g id="a_node1"><a xlink:title=" ">
<polygon fill="#bfbfbf" stroke="black" points="645,-145.5 645,-164.5 767,-164.5 767,-145.5 645,-145.5"/>
<text text-anchor="middle" x="706" y="-152.5" font-family="Helvetica,sans-Serif" font-size="10.00">link_cut::detach_child</text>
</a>
</g>
</g>
<!-- Node2 -->
<g id="node2" class="node">
<title>Node2</title>
<g id="a_node2"><a xlink:href="$namespacelink__cut.html#a35ca65f479c028ae63d97a8dc605a676" xlink:title=" ">
<polygon fill="white" stroke="black" points="515,-145.5 515,-164.5 609,-164.5 609,-145.5 515,-145.5"/>
<text text-anchor="middle" x="562" y="-152.5" font-family="Helvetica,sans-Serif" font-size="10.00">link_cut::access</text>
</a>
</g>
</g>
<!-- Node1&#45;&gt;Node2 -->
<g id="edge1" class="edge">
<title>Node1&#45;&gt;Node2</title>
<path fill="none" stroke="midnightblue" d="M634.63,-155C625.96,-155 617.27,-155 609.09,-155"/>
<polygon fill="midnightblue" stroke="midnightblue" points="634.78,-158.5 644.78,-155 634.78,-151.5 634.78,-158.5"/>
</g>
<!-- Node3 -->
<g id="node3" class="node">
<title>Node3</title>
<g id="a_node3"><a xlink:href="$namespacelink__cut.html#ab6b1e676cdcb014dd718dcef1bc009de" xlink:title=" ">
<polygon fill="white" stroke="black" points="389,-202.5 389,-221.5 465,-221.5 465,-202.5 389,-202.5"/>
<text text-anchor="middle" x="427" y="-209.5" font-family="Helvetica,sans-Serif" font-size="10.00">link_cut::cut</text>
</a>
</g>
</g>
<!-- Node2&#45;&gt;Node3 -->
<g id="edge2" class="edge">
<title>Node2&#45;&gt;Node3</title>
<path fill="none" stroke="midnightblue" d="M532.17,-169.02C516.56,-176.45 496.87,-185.54 479,-193 471.24,-196.24 462.71,-199.52 454.89,-202.43"/>
<polygon fill="midnightblue" stroke="midnightblue" points="533.8,-172.12 541.31,-164.65 530.78,-165.81 533.8,-172.12"/>
</g>
<!-- Node6 -->
<g id="node6" class="node">
<title>Node6</title>
<g id="a_node6"><a xlink:href="$namespacelink__cut.html#a06bdf6c4d130290a538a96eb2803fec3" xlink:title=" ">
<polygon fill="white" stroke="black" points="375,-164.5 375,-183.5 479,-183.5 479,-164.5 375,-164.5"/>
<text text-anchor="middle" x="427" y="-171.5" font-family="Helvetica,sans-Serif" font-size="10.00">link_cut::find_root</text>
</a>
</g>
</g>
<!-- Node2&#45;&gt;Node6 -->
<g id="edge5" class="edge">
<title>Node2&#45;&gt;Node6</title>
<path fill="none" stroke="midnightblue" d="M504.93,-163.01C496.35,-164.24 487.53,-165.5 479.06,-166.71"/>
<polygon fill="midnightblue" stroke="midnightblue" points="505.45,-166.47 514.86,-161.59 504.46,-159.54 505.45,-166.47"/>
</g>
<!-- Node7 -->
<g id="node7" class="node">
<title>Node7</title>
<g id="a_node7"><a xlink:href="$namespacelink__cut.html#ab6c3bf00e663c7eaba8f617a3d559133" xlink:title=" ">
<polygon fill="white" stroke="black" points="243.5,-126.5 243.5,-145.5 318.5,-145.5 318.5,-126.5 243.5,-126.5"/>
<text text-anchor="middle" x="281" y="-133.5" font-family="Helvetica,sans-Serif" font-size="10.00">link_cut::lca</text>
</a>
</g>
</g>
<!-- Node2&#45;&gt;Node7 -->
<g id="edge9" class="edge">
<title>Node2&#45;&gt;Node7</title>
<path fill="none" stroke="midnightblue" d="M504.92,-151.18C449.49,-147.41 366.29,-141.74 318.77,-138.5"/>
<polygon fill="midnightblue" stroke="midnightblue" points="504.71,-154.67 514.93,-151.86 505.19,-147.69 504.71,-154.67"/>
</g>
<!-- Node8 -->
<g id="node8" class="node">
<title>Node8</title>
<g id="a_node8"><a xlink:href="$namespacelink__cut.html#a4547d61253b63b606fb1d477541d454e" xlink:title=" ">
<polygon fill="white" stroke="black" points="387.5,-66.5 387.5,-85.5 466.5,-85.5 466.5,-66.5 387.5,-66.5"/>
<text text-anchor="middle" x="427" y="-73.5" font-family="Helvetica,sans-Serif" font-size="10.00">link_cut::link</text>
</a>
</g>
</g>
<!-- Node2&#45;&gt;Node8 -->
<g id="edge10" class="edge">
<title>Node2&#45;&gt;Node8</title>
<path fill="none" stroke="midnightblue" d="M536.12,-140.22C509.18,-124.22 467,-99.16 444.1,-85.56"/>
<polygon fill="midnightblue" stroke="midnightblue" points="534.57,-143.37 544.96,-145.47 538.15,-137.35 534.57,-143.37"/>
</g>
<!-- Node4 -->
<g id="node4" class="node">
<title>Node4</title>
<g id="a_node4"><a xlink:href="$namespacelink__cut_1_1test.html#ad63bee2821de932f5d295238e48d106f" xlink:title=" ">
<polygon fill="white" stroke="black" points="83,-140 83,-170 187,-170 187,-140 83,-140"/>
<text text-anchor="start" x="91" y="-158" font-family="Helvetica,sans-Serif" font-size="10.00">link_cut::test::test</text>
<text text-anchor="middle" x="135" y="-147" font-family="Helvetica,sans-Serif" font-size="10.00">_link_cut_tree</text>
</a>
</g>
</g>
<!-- Node3&#45;&gt;Node4 -->
<g id="edge3" class="edge">
<title>Node3&#45;&gt;Node4</title>
<path fill="none" stroke="midnightblue" d="M378.71,-205.35C337.42,-199.24 275.97,-189.41 223,-178 211.39,-175.5 199.01,-172.46 187.33,-169.41"/>
<polygon fill="midnightblue" stroke="midnightblue" points="378.36,-208.83 388.76,-206.82 379.37,-201.91 378.36,-208.83"/>
</g>
<!-- Node5 -->
<g id="node5" class="node">
<title>Node5</title>
<g id="a_node5"><a xlink:href="$test_8cpp.html#af095a232149097b5605064623a9345ac" xlink:title=" ">
<polygon fill="white" stroke="black" points="0,-145.5 0,-164.5 47,-164.5 47,-145.5 0,-145.5"/>
<text text-anchor="middle" x="23.5" y="-152.5" font-family="Helvetica,sans-Serif" font-size="10.00">main2</text>
</a>
</g>
</g>
<!-- Node4&#45;&gt;Node5 -->
<g id="edge4" class="edge">
<title>Node4&#45;&gt;Node5</title>
<path fill="none" stroke="midnightblue" d="M72.55,-155C63.53,-155 54.76,-155 47.24,-155"/>
<polygon fill="midnightblue" stroke="midnightblue" points="72.78,-158.5 82.78,-155 72.78,-151.5 72.78,-158.5"/>
</g>
<!-- Node6&#45;&gt;Node4 -->
<g id="edge8" class="edge">
<title>Node6&#45;&gt;Node4</title>
<path fill="none" stroke="midnightblue" d="M364.59,-169.98C311.84,-166.52 236.69,-161.6 187.15,-158.35"/>
<polygon fill="midnightblue" stroke="midnightblue" points="364.61,-173.49 374.82,-170.65 365.07,-166.5 364.61,-173.49"/>
</g>
<!-- Node6&#45;&gt;Node7 -->
<g id="edge6" class="edge">
<title>Node6&#45;&gt;Node7</title>
<path fill="none" stroke="midnightblue" d="M379.83,-161.82C359.84,-156.54 336.78,-150.46 318.08,-145.52"/>
<polygon fill="midnightblue" stroke="midnightblue" points="379.1,-165.24 389.66,-164.41 380.89,-158.48 379.1,-165.24"/>
</g>
<!-- Node7&#45;&gt;Node4 -->
<g id="edge7" class="edge">
<title>Node7&#45;&gt;Node4</title>
<path fill="none" stroke="midnightblue" d="M233.35,-142.16C218.55,-144.11 202.12,-146.28 187.04,-148.27"/>
<polygon fill="midnightblue" stroke="midnightblue" points="233.83,-145.62 243.29,-140.84 232.92,-138.68 233.83,-145.62"/>
</g>
<!-- Node8&#45;&gt;Node4 -->
<g id="edge13" class="edge">
<title>Node8&#45;&gt;Node4</title>
<path fill="none" stroke="midnightblue" d="M377.09,-82.89C335.5,-89.45 274.53,-100.75 223,-117 203.67,-123.1 182.83,-132.11 166.39,-139.83"/>
<polygon fill="midnightblue" stroke="midnightblue" points="377.87,-86.31 387.22,-81.32 376.8,-79.39 377.87,-86.31"/>
</g>
<!-- Node9 -->
<g id="node9" class="node">
<title>Node9</title>
<g id="a_node9"><a xlink:href="$structstring__tools_1_1Trie.html#ab8f1d2a13b82d8dbaccc886df20f8371" xlink:title="Returns the exit link, the next leaf suffix.">
<polygon fill="white" stroke="black" points="232,-39 232,-69 330,-69 330,-39 232,-39"/>
<text text-anchor="start" x="240" y="-57" font-family="Helvetica,sans-Serif" font-size="10.00">string_tools::Trie</text>
<text text-anchor="middle" x="281" y="-46" font-family="Helvetica,sans-Serif" font-size="10.00">::exit_link</text>
</a>
</g>
</g>
<!-- Node8&#45;&gt;Node9 -->
<g id="edge11" class="edge">
<title>Node8&#45;&gt;Node9</title>
<path fill="none" stroke="midnightblue" d="M377.2,-68.54C362.04,-66.23 345.35,-63.68 330.23,-61.37"/>
<polygon fill="midnightblue" stroke="midnightblue" points="377,-72.05 387.41,-70.1 378.05,-65.13 377,-72.05"/>
</g>
<!-- Node10 -->
<g id="node10" class="node">
<title>Node10</title>
<g id="a_node10"><a xlink:href="$structstring__tools_1_1Trie.html#aa30d5277840d084371dcb2193168b4a0" xlink:title="Goes to the node for the largest suffix of the current string plus c.">
<polygon fill="white" stroke="black" points="223,-0.5 223,-19.5 339,-19.5 339,-0.5 223,-0.5"/>
<text text-anchor="middle" x="281" y="-7.5" font-family="Helvetica,sans-Serif" font-size="10.00">string_tools::Trie::go</text>
</a>
</g>
</g>
<!-- Node8&#45;&gt;Node10 -->
<g id="edge12" class="edge">
<title>Node8&#45;&gt;Node10</title>
<path fill="none" stroke="midnightblue" d="M401.58,-61.33C384.45,-51.4 360.8,-38.44 339,-29 331.05,-25.56 322.27,-22.35 314.02,-19.59"/>
<polygon fill="midnightblue" stroke="midnightblue" points="399.98,-64.45 410.38,-66.49 403.52,-58.41 399.98,-64.45"/>
</g>
</g>
</svg>
