<?xml version="1.0" encoding="UTF-8" standalone="no"?>
<!DOCTYPE svg PUBLIC "-//W3C//DTD SVG 1.1//EN"
 "http://www.w3.org/Graphics/SVG/1.1/DTD/svg11.dtd">
<!-- Generated by graphviz version 2.43.0 (0)
 -->
<!-- Title: modulo_namespace::identity Pages: 1 -->
<svg width="874pt" height="127pt"
 viewBox="0.00 0.00 874.00 126.50" xmlns="http://www.w3.org/2000/svg" xmlns:xlink="http://www.w3.org/1999/xlink">
<g id="graph0" class="graph" transform="scale(1 1) rotate(0) translate(4 122.5)">
<title>modulo_namespace::identity</title>
<polygon fill="white" stroke="transparent" points="-4,4 -4,-122.5 870,-122.5 870,4 -4,4"/>
<!-- Node1 -->
<g id="node1" class="node">
<title>Node1</title>
<g id="a_node1"><a xlink:title=" ">
<polygon fill="#bfbfbf" stroke="black" points="708,-77 708,-96 866,-96 866,-77 708,-77"/>
<text text-anchor="middle" x="787" y="-84" font-family="Helvetica,sans-Serif" font-size="10.00">modulo_namespace::identity</text>
</a>
</g>
</g>
<!-- Node2 -->
<g id="node2" class="node">
<title>Node2</title>
<g id="a_node2"><a xlink:href="namespacemodulo__namespace.html#a8e6fc91a032b336ea0bbed9eabf54f69" target="_top" xlink:title="Returns .">
<polygon fill="white" stroke="black" points="521,-77 521,-96 672,-96 672,-77 521,-77"/>
<text text-anchor="middle" x="596.5" y="-84" font-family="Helvetica,sans-Serif" font-size="10.00">modulo_namespace::power</text>
</a>
</g>
</g>
<!-- Node1&#45;&gt;Node2 -->
<g id="edge1" class="edge">
<title>Node1&#45;&gt;Node2</title>
<path fill="none" stroke="midnightblue" d="M697.9,-86.5C689.29,-86.5 680.6,-86.5 672.14,-86.5"/>
<polygon fill="midnightblue" stroke="midnightblue" points="697.97,-90 707.97,-86.5 697.97,-83 697.97,-90"/>
</g>
<!-- Node3 -->
<g id="node3" class="node">
<title>Node3</title>
<g id="a_node3"><a xlink:href="namespacemodulo__namespace.html#aac690d54b7665a90ca461724df8907c0" target="_top" xlink:title=" ">
<polygon fill="white" stroke="black" points="336,-99 336,-118 485,-118 485,-99 336,-99"/>
<text text-anchor="middle" x="410.5" y="-106" font-family="Helvetica,sans-Serif" font-size="10.00">modulo_namespace::invert</text>
</a>
</g>
</g>
<!-- Node2&#45;&gt;Node3 -->
<g id="edge2" class="edge">
<title>Node2&#45;&gt;Node3</title>
<path fill="none" stroke="midnightblue" d="M510.83,-89.89C487.97,-92.51 464.49,-95.75 446.11,-98.95"/>
<polygon fill="midnightblue" stroke="midnightblue" points="511.37,-93.35 520.93,-88.78 510.6,-86.4 511.37,-93.35"/>
</g>
<!-- Node4 -->
<g id="node4" class="node">
<title>Node4</title>
<g id="a_node4"><a xlink:href="namespacemodulo__namespace_1_1test.html#a528d9ed1db3200393555b3dc75036599" target="_top" xlink:title=" ">
<polygon fill="white" stroke="black" points="340.5,-49.5 340.5,-79.5 480.5,-79.5 480.5,-49.5 340.5,-49.5"/>
<text text-anchor="start" x="348.5" y="-67.5" font-family="Helvetica,sans-Serif" font-size="10.00">modulo_namespace::test</text>
<text text-anchor="middle" x="410.5" y="-56.5" font-family="Helvetica,sans-Serif" font-size="10.00">::test_power</text>
</a>
</g>
</g>
<!-- Node2&#45;&gt;Node4 -->
<g id="edge4" class="edge">
<title>Node2&#45;&gt;Node4</title>
<path fill="none" stroke="midnightblue" d="M510.84,-76.38C500.69,-75.16 490.42,-73.94 480.54,-72.75"/>
<polygon fill="midnightblue" stroke="midnightblue" points="510.58,-79.87 520.93,-77.58 511.41,-72.92 510.58,-79.87"/>
</g>
<!-- Node8 -->
<g id="node8" class="node">
<title>Node8</title>
<g id="a_node8"><a xlink:href="namespacepermutation_1_1test.html#a79866de5f43125b4ac233cdc1bae579e" target="_top" xlink:title=" ">
<polygon fill="white" stroke="black" points="357,-0.5 357,-30.5 464,-30.5 464,-0.5 357,-0.5"/>
<text text-anchor="start" x="365" y="-18.5" font-family="Helvetica,sans-Serif" font-size="10.00">permutation::test::</text>
<text text-anchor="middle" x="410.5" y="-7.5" font-family="Helvetica,sans-Serif" font-size="10.00">test_power</text>
</a>
</g>
</g>
<!-- Node2&#45;&gt;Node8 -->
<g id="edge8" class="edge">
<title>Node2&#45;&gt;Node8</title>
<path fill="none" stroke="midnightblue" d="M565.35,-72.84C543.3,-63.06 512.54,-49.83 485,-39.5 476.83,-36.44 468.07,-33.38 459.55,-30.53"/>
<polygon fill="midnightblue" stroke="midnightblue" points="563.98,-76.06 574.54,-76.94 566.83,-69.67 563.98,-76.06"/>
</g>
<!-- Node3&#45;&gt;Node2 -->
<g id="edge3" class="edge">
<title>Node3&#45;&gt;Node2</title>
<path fill="none" stroke="midnightblue" d="M495.4,-105.2C518.51,-102.57 542.3,-99.28 560.89,-96.05"/>
<polygon fill="midnightblue" stroke="midnightblue" points="494.76,-101.74 485.2,-106.32 495.53,-108.7 494.76,-101.74"/>
</g>
<!-- Node5 -->
<g id="node5" class="node">
<title>Node5</title>
<g id="a_node5"><a xlink:href="namespacemodulo__namespace_1_1test.html#a1574d4c610506ea86664c88fc549aedf" target="_top" xlink:title=" ">
<polygon fill="white" stroke="black" points="160,-49.5 160,-79.5 300,-79.5 300,-49.5 160,-49.5"/>
<text text-anchor="start" x="168" y="-67.5" font-family="Helvetica,sans-Serif" font-size="10.00">modulo_namespace::test</text>
<text text-anchor="middle" x="230" y="-56.5" font-family="Helvetica,sans-Serif" font-size="10.00">::test_modulo</text>
</a>
</g>
</g>
<!-- Node4&#45;&gt;Node5 -->
<g id="edge5" class="edge">
<title>Node4&#45;&gt;Node5</title>
<path fill="none" stroke="midnightblue" d="M330.46,-64.5C320.35,-64.5 310.06,-64.5 300.12,-64.5"/>
<polygon fill="midnightblue" stroke="midnightblue" points="330.49,-68 340.49,-64.5 330.49,-61 330.49,-68"/>
</g>
<!-- Node6 -->
<g id="node6" class="node">
<title>Node6</title>
<g id="a_node6"><a xlink:href="test_8cpp.html#af095a232149097b5605064623a9345ac" target="_top" xlink:title=" ">
<polygon fill="white" stroke="black" points="77,-30 77,-49 124,-49 124,-30 77,-30"/>
<text text-anchor="middle" x="100.5" y="-37" font-family="Helvetica,sans-Serif" font-size="10.00">main2</text>
</a>
</g>
</g>
<!-- Node5&#45;&gt;Node6 -->
<g id="edge6" class="edge">
<title>Node5&#45;&gt;Node6</title>
<path fill="none" stroke="midnightblue" d="M149.81,-48.97C140.5,-47.15 131.65,-45.41 124.13,-43.94"/>
<polygon fill="midnightblue" stroke="midnightblue" points="149.17,-52.41 159.65,-50.9 150.51,-45.54 149.17,-52.41"/>
</g>
<!-- Node7 -->
<g id="node7" class="node">
<title>Node7</title>
<g id="a_node7"><a xlink:href="main_8hpp.html#a0ddf1224851353fc92bfbff6f499fa97" target="_top" xlink:title=" ">
<polygon fill="white" stroke="black" points="0,-30 0,-49 41,-49 41,-30 0,-30"/>
<text text-anchor="middle" x="20.5" y="-37" font-family="Helvetica,sans-Serif" font-size="10.00">main</text>
</a>
</g>
</g>
<!-- Node6&#45;&gt;Node7 -->
<g id="edge7" class="edge">
<title>Node6&#45;&gt;Node7</title>
<path fill="none" stroke="midnightblue" d="M66.66,-39.5C57.96,-39.5 48.84,-39.5 41.1,-39.5"/>
<polygon fill="midnightblue" stroke="midnightblue" points="66.94,-43 76.94,-39.5 66.94,-36 66.94,-43"/>
</g>
<!-- Node9 -->
<g id="node9" class="node">
<title>Node9</title>
<g id="a_node9"><a xlink:href="namespacepermutation_1_1test.html#a35c04b3a3683be26d7eb0723d772fad4" target="_top" xlink:title=" ">
<polygon fill="white" stroke="black" points="176.5,-0.5 176.5,-30.5 283.5,-30.5 283.5,-0.5 176.5,-0.5"/>
<text text-anchor="start" x="184.5" y="-18.5" font-family="Helvetica,sans-Serif" font-size="10.00">permutation::test::</text>
<text text-anchor="middle" x="230" y="-7.5" font-family="Helvetica,sans-Serif" font-size="10.00">test_permutation</text>
</a>
</g>
</g>
<!-- Node8&#45;&gt;Node9 -->
<g id="edge9" class="edge">
<title>Node8&#45;&gt;Node9</title>
<path fill="none" stroke="midnightblue" d="M346.65,-15.5C326.02,-15.5 303.31,-15.5 283.52,-15.5"/>
<polygon fill="midnightblue" stroke="midnightblue" points="346.91,-19 356.91,-15.5 346.91,-12 346.91,-19"/>
</g>
<!-- Node9&#45;&gt;Node6 -->
<g id="edge10" class="edge">
<title>Node9&#45;&gt;Node6</title>
<path fill="none" stroke="midnightblue" d="M166.48,-27.27C151.31,-30.12 136.04,-33 124.12,-35.24"/>
<polygon fill="midnightblue" stroke="midnightblue" points="167.22,-30.69 176.4,-25.4 165.93,-23.81 167.22,-30.69"/>
</g>
</g>
</svg>
