<?xml version="1.0" encoding="UTF-8" standalone="no"?>
<!DOCTYPE svg PUBLIC "-//W3C//DTD SVG 1.1//EN"
 "http://www.w3.org/Graphics/SVG/1.1/DTD/svg11.dtd">
<!-- Generated by graphviz version 2.43.0 (0)
 -->
<!-- Title: graph_theory::add_edge Pages: 1 -->
<svg width="696pt" height="166pt"
 viewBox="0.00 0.00 696.00 165.50" xmlns="http://www.w3.org/2000/svg" xmlns:xlink="http://www.w3.org/1999/xlink">
<g id="graph0" class="graph" transform="scale(1 1) rotate(0) translate(4 161.5)">
<title>graph_theory::add_edge</title>
<polygon fill="white" stroke="transparent" points="-4,4 -4,-161.5 692,-161.5 692,4 -4,4"/>
<!-- Node1 -->
<g id="node1" class="node">
<title>Node1</title>
<g id="a_node1"><a xlink:title=" ">
<polygon fill="#bfbfbf" stroke="black" points="554,-72 554,-91 688,-91 688,-72 554,-72"/>
<text text-anchor="middle" x="621" y="-79" font-family="Helvetica,sans-Serif" font-size="10.00">graph_theory::add_edge</text>
</a>
</g>
</g>
<!-- Node2 -->
<g id="node2" class="node">
<title>Node2</title>
<g id="a_node2"><a xlink:href="namespacegraph__theory.html#a305e818c99814cd465186b57c0a73f50" target="_top" xlink:title=" ">
<polygon fill="white" stroke="black" points="390,-138 390,-157 518,-157 518,-138 390,-138"/>
<text text-anchor="middle" x="454" y="-145" font-family="Helvetica,sans-Serif" font-size="10.00">graph_theory::graph_in</text>
</a>
</g>
</g>
<!-- Node1&#45;&gt;Node2 -->
<g id="edge1" class="edge">
<title>Node1&#45;&gt;Node2</title>
<path fill="none" stroke="midnightblue" d="M592.18,-95.59C571.92,-105.54 543.65,-118.77 518,-128.5 509.03,-131.9 499.16,-135.12 489.95,-137.9"/>
<polygon fill="midnightblue" stroke="midnightblue" points="593.76,-98.72 601.16,-91.14 590.65,-92.45 593.76,-98.72"/>
</g>
<!-- Node3 -->
<g id="node3" class="node">
<title>Node3</title>
<g id="a_node3"><a xlink:href="namespacegraph__theory.html#af419fd09d176890f30126a49064cbd9b" target="_top" xlink:title=" ">
<polygon fill="white" stroke="black" points="401.5,-88.5 401.5,-118.5 506.5,-118.5 506.5,-88.5 401.5,-88.5"/>
<text text-anchor="start" x="409.5" y="-106.5" font-family="Helvetica,sans-Serif" font-size="10.00">graph_theory::test</text>
<text text-anchor="middle" x="454" y="-95.5" font-family="Helvetica,sans-Serif" font-size="10.00">_add_edge</text>
</a>
</g>
</g>
<!-- Node1&#45;&gt;Node3 -->
<g id="edge2" class="edge">
<title>Node1&#45;&gt;Node3</title>
<path fill="none" stroke="midnightblue" d="M543.82,-91.66C531.25,-93.33 518.49,-95.04 506.7,-96.61"/>
<polygon fill="midnightblue" stroke="midnightblue" points="544.39,-95.11 553.84,-90.32 543.46,-88.17 544.39,-95.11"/>
</g>
<!-- Node8 -->
<g id="node8" class="node">
<title>Node8</title>
<g id="a_node8"><a xlink:href="namespacegraph__theory.html#a2aea60be1c24dc82badd96e40923038b" target="_top" xlink:title=" ">
<polygon fill="white" stroke="black" points="391.5,-50 391.5,-69 516.5,-69 516.5,-50 391.5,-50"/>
<text text-anchor="middle" x="454" y="-57" font-family="Helvetica,sans-Serif" font-size="10.00">graph_theory::test_bfs</text>
</a>
</g>
</g>
<!-- Node1&#45;&gt;Node8 -->
<g id="edge7" class="edge">
<title>Node1&#45;&gt;Node8</title>
<path fill="none" stroke="midnightblue" d="M543.67,-71.32C534.61,-70.11 525.45,-68.89 516.63,-67.72"/>
<polygon fill="midnightblue" stroke="midnightblue" points="543.46,-74.83 553.84,-72.68 544.39,-67.89 543.46,-74.83"/>
</g>
<!-- Node9 -->
<g id="node9" class="node">
<title>Node9</title>
<g id="a_node9"><a xlink:href="namespacegraph__theory.html#aeebcf017acc0533f31c46d62d0cebe72" target="_top" xlink:title=" ">
<polygon fill="white" stroke="black" points="401.5,-0.5 401.5,-30.5 506.5,-30.5 506.5,-0.5 401.5,-0.5"/>
<text text-anchor="start" x="409.5" y="-18.5" font-family="Helvetica,sans-Serif" font-size="10.00">graph_theory::test</text>
<text text-anchor="middle" x="454" y="-7.5" font-family="Helvetica,sans-Serif" font-size="10.00">_bipartite</text>
</a>
</g>
</g>
<!-- Node1&#45;&gt;Node9 -->
<g id="edge9" class="edge">
<title>Node1&#45;&gt;Node9</title>
<path fill="none" stroke="midnightblue" d="M586.56,-68.02C566.66,-60 540.9,-49.64 518,-40.5 509.91,-37.27 501.24,-33.82 492.99,-30.54"/>
<polygon fill="midnightblue" stroke="midnightblue" points="585.52,-71.37 596.11,-71.86 588.14,-64.88 585.52,-71.37"/>
</g>
<!-- Node4 -->
<g id="node4" class="node">
<title>Node4</title>
<g id="a_node4"><a xlink:href="namespacegraph__theory.html#aa2b38897f4c429325f0eb73b1137755a" target="_top" xlink:title=" ">
<polygon fill="white" stroke="black" points="249,-44.5 249,-74.5 354,-74.5 354,-44.5 249,-44.5"/>
<text text-anchor="start" x="257" y="-62.5" font-family="Helvetica,sans-Serif" font-size="10.00">graph_theory::test</text>
<text text-anchor="middle" x="301.5" y="-51.5" font-family="Helvetica,sans-Serif" font-size="10.00">_graph_theory</text>
</a>
</g>
</g>
<!-- Node3&#45;&gt;Node4 -->
<g id="edge3" class="edge">
<title>Node3&#45;&gt;Node4</title>
<path fill="none" stroke="midnightblue" d="M391.7,-85.58C379.15,-81.91 366.06,-78.08 353.9,-74.53"/>
<polygon fill="midnightblue" stroke="midnightblue" points="391.05,-89.03 401.63,-88.48 393.01,-82.32 391.05,-89.03"/>
</g>
<!-- Node5 -->
<g id="node5" class="node">
<title>Node5</title>
<g id="a_node5"><a xlink:href="test_8cpp.html#aa1c715cac916839a95e25b65b4071c4a" target="_top" xlink:title=" ">
<polygon fill="white" stroke="black" points="160,-50 160,-69 213,-69 213,-50 160,-50"/>
<text text-anchor="middle" x="186.5" y="-57" font-family="Helvetica,sans-Serif" font-size="10.00">test_all</text>
</a>
</g>
</g>
<!-- Node4&#45;&gt;Node5 -->
<g id="edge4" class="edge">
<title>Node4&#45;&gt;Node5</title>
<path fill="none" stroke="midnightblue" d="M238.72,-59.5C229.67,-59.5 220.81,-59.5 213.07,-59.5"/>
<polygon fill="midnightblue" stroke="midnightblue" points="238.96,-63 248.96,-59.5 238.96,-56 238.96,-63"/>
</g>
<!-- Node6 -->
<g id="node6" class="node">
<title>Node6</title>
<g id="a_node6"><a xlink:href="test_8cpp.html#af095a232149097b5605064623a9345ac" target="_top" xlink:title=" ">
<polygon fill="white" stroke="black" points="77,-50 77,-69 124,-69 124,-50 77,-50"/>
<text text-anchor="middle" x="100.5" y="-57" font-family="Helvetica,sans-Serif" font-size="10.00">main2</text>
</a>
</g>
</g>
<!-- Node5&#45;&gt;Node6 -->
<g id="edge5" class="edge">
<title>Node5&#45;&gt;Node6</title>
<path fill="none" stroke="midnightblue" d="M149.59,-59.5C140.96,-59.5 131.99,-59.5 124.16,-59.5"/>
<polygon fill="midnightblue" stroke="midnightblue" points="149.84,-63 159.84,-59.5 149.84,-56 149.84,-63"/>
</g>
<!-- Node7 -->
<g id="node7" class="node">
<title>Node7</title>
<g id="a_node7"><a xlink:href="main_8hpp.html#a0ddf1224851353fc92bfbff6f499fa97" target="_top" xlink:title=" ">
<polygon fill="white" stroke="black" points="0,-50 0,-69 41,-69 41,-50 0,-50"/>
<text text-anchor="middle" x="20.5" y="-57" font-family="Helvetica,sans-Serif" font-size="10.00">main</text>
</a>
</g>
</g>
<!-- Node6&#45;&gt;Node7 -->
<g id="edge6" class="edge">
<title>Node6&#45;&gt;Node7</title>
<path fill="none" stroke="midnightblue" d="M66.66,-59.5C57.96,-59.5 48.84,-59.5 41.1,-59.5"/>
<polygon fill="midnightblue" stroke="midnightblue" points="66.94,-63 76.94,-59.5 66.94,-56 66.94,-63"/>
</g>
<!-- Node8&#45;&gt;Node4 -->
<g id="edge8" class="edge">
<title>Node8&#45;&gt;Node4</title>
<path fill="none" stroke="midnightblue" d="M381.15,-59.5C372.05,-59.5 362.9,-59.5 354.21,-59.5"/>
<polygon fill="midnightblue" stroke="midnightblue" points="381.35,-63 391.35,-59.5 381.35,-56 381.35,-63"/>
</g>
<!-- Node9&#45;&gt;Node4 -->
<g id="edge10" class="edge">
<title>Node9&#45;&gt;Node4</title>
<path fill="none" stroke="midnightblue" d="M391.7,-33.42C379.15,-37.09 366.06,-40.92 353.9,-44.47"/>
<polygon fill="midnightblue" stroke="midnightblue" points="393.01,-36.68 401.63,-30.52 391.05,-29.97 393.01,-36.68"/>
</g>
</g>
</svg>
