<?xml version="1.0" encoding="UTF-8" standalone="no"?>
<!DOCTYPE svg PUBLIC "-//W3C//DTD SVG 1.1//EN"
 "http://www.w3.org/Graphics/SVG/1.1/DTD/svg11.dtd">
<!-- Generated by graphviz version 2.43.0 (0)
 -->
<!-- Title: convex_hull_trick::dot Pages: 1 -->
<svg width="613pt" height="165pt"
 viewBox="0.00 0.00 613.00 164.50" xmlns="http://www.w3.org/2000/svg" xmlns:xlink="http://www.w3.org/1999/xlink">
<g id="graph0" class="graph" transform="scale(1 1) rotate(0) translate(4 160.5)">
<title>convex_hull_trick::dot</title>
<polygon fill="white" stroke="transparent" points="-4,4 -4,-160.5 609,-160.5 609,4 -4,4"/>
<!-- Node1 -->
<g id="node1" class="node">
<title>Node1</title>
<g id="a_node1"><a xlink:title=" ">
<polygon fill="#bfbfbf" stroke="black" points="481,-77 481,-96 605,-96 605,-77 481,-77"/>
<text text-anchor="middle" x="543" y="-84" font-family="Helvetica,sans-Serif" font-size="10.00">convex_hull_trick::dot</text>
</a>
</g>
</g>
<!-- Node2 -->
<g id="node2" class="node">
<title>Node2</title>
<g id="a_node2"><a xlink:href="namespacegraph__draw.html#acb94157dfde90c9f5dc096b224ec156e" target="_top" xlink:title=" ">
<polygon fill="white" stroke="black" points="319,-137 319,-156 445,-156 445,-137 319,-137"/>
<text text-anchor="middle" x="382" y="-144" font-family="Helvetica,sans-Serif" font-size="10.00">graph_draw::show_dot</text>
</a>
</g>
</g>
<!-- Node1&#45;&gt;Node2 -->
<g id="edge1" class="edge">
<title>Node1&#45;&gt;Node2</title>
<path fill="none" stroke="midnightblue" d="M507.2,-99.63C477.36,-110.89 435.07,-126.85 408.34,-136.94"/>
<polygon fill="midnightblue" stroke="midnightblue" points="508.69,-102.81 516.81,-96.01 506.21,-96.26 508.69,-102.81"/>
</g>
<!-- Node3 -->
<g id="node3" class="node">
<title>Node3</title>
<g id="a_node3"><a xlink:href="namespacegraph__draw_1_1test.html#a037737d6386f4405a42dc842eb4d7436" target="_top" xlink:title=" ">
<polygon fill="white" stroke="black" points="160,-95.5 160,-125.5 283,-125.5 283,-95.5 160,-95.5"/>
<text text-anchor="start" x="168" y="-113.5" font-family="Helvetica,sans-Serif" font-size="10.00">graph_draw::test::test</text>
<text text-anchor="middle" x="221.5" y="-102.5" font-family="Helvetica,sans-Serif" font-size="10.00">_graph_draw</text>
</a>
</g>
</g>
<!-- Node1&#45;&gt;Node3 -->
<g id="edge10" class="edge">
<title>Node1&#45;&gt;Node3</title>
<path fill="none" stroke="midnightblue" d="M470.52,-91.87C414.21,-96.1 336.58,-101.93 283.25,-105.94"/>
<polygon fill="midnightblue" stroke="midnightblue" points="471.07,-95.34 480.78,-91.1 470.54,-88.36 471.07,-95.34"/>
</g>
<!-- Node6 -->
<g id="node6" class="node">
<title>Node6</title>
<g id="a_node6"><a xlink:href="namespaceconvex__hull__trick_1_1test.html#af431d14b14918c006bfb450ff5a69a81" target="_top" xlink:title=" ">
<polygon fill="white" stroke="black" points="328,-49.5 328,-79.5 436,-79.5 436,-49.5 328,-49.5"/>
<text text-anchor="start" x="336" y="-67.5" font-family="Helvetica,sans-Serif" font-size="10.00">convex_hull_trick::</text>
<text text-anchor="middle" x="382" y="-56.5" font-family="Helvetica,sans-Serif" font-size="10.00">test::test_cht</text>
</a>
</g>
</g>
<!-- Node1&#45;&gt;Node6 -->
<g id="edge5" class="edge">
<title>Node1&#45;&gt;Node6</title>
<path fill="none" stroke="midnightblue" d="M470.81,-76.65C459.13,-75.03 447.21,-73.38 436.08,-71.84"/>
<polygon fill="midnightblue" stroke="midnightblue" points="470.6,-80.15 480.98,-78.06 471.56,-73.22 470.6,-80.15"/>
</g>
<!-- Node8 -->
<g id="node8" class="node">
<title>Node8</title>
<g id="a_node8"><a xlink:href="namespaceconvex__hull__trick_1_1test.html#a923d7187d947f574ed2f5b54d9406f69" target="_top" xlink:title=" ">
<polygon fill="white" stroke="black" points="328,-0.5 328,-30.5 436,-30.5 436,-0.5 328,-0.5"/>
<text text-anchor="start" x="336" y="-18.5" font-family="Helvetica,sans-Serif" font-size="10.00">convex_hull_trick::</text>
<text text-anchor="middle" x="382" y="-7.5" font-family="Helvetica,sans-Serif" font-size="10.00">test::test_dot</text>
</a>
</g>
</g>
<!-- Node1&#45;&gt;Node8 -->
<g id="edge8" class="edge">
<title>Node1&#45;&gt;Node8</title>
<path fill="none" stroke="midnightblue" d="M514.15,-72.26C494.92,-62.6 468.63,-49.78 445,-39.5 438.01,-36.46 430.51,-33.39 423.22,-30.52"/>
<polygon fill="midnightblue" stroke="midnightblue" points="512.75,-75.47 523.25,-76.85 515.9,-69.22 512.75,-75.47"/>
</g>
<!-- Node2&#45;&gt;Node3 -->
<g id="edge2" class="edge">
<title>Node2&#45;&gt;Node3</title>
<path fill="none" stroke="midnightblue" d="M329.06,-134.7C314.42,-131.38 298.36,-127.73 283.26,-124.3"/>
<polygon fill="midnightblue" stroke="midnightblue" points="328.41,-138.15 338.94,-136.95 329.96,-131.32 328.41,-138.15"/>
</g>
<!-- Node4 -->
<g id="node4" class="node">
<title>Node4</title>
<g id="a_node4"><a xlink:href="test_8cpp.html#af095a232149097b5605064623a9345ac" target="_top" xlink:title=" ">
<polygon fill="white" stroke="black" points="77,-76 77,-95 124,-95 124,-76 77,-76"/>
<text text-anchor="middle" x="100.5" y="-83" font-family="Helvetica,sans-Serif" font-size="10.00">main2</text>
</a>
</g>
</g>
<!-- Node3&#45;&gt;Node4 -->
<g id="edge3" class="edge">
<title>Node3&#45;&gt;Node4</title>
<path fill="none" stroke="midnightblue" d="M150.15,-95.72C140.83,-93.76 131.88,-91.88 124.25,-90.28"/>
<polygon fill="midnightblue" stroke="midnightblue" points="149.45,-99.15 159.95,-97.78 150.89,-92.3 149.45,-99.15"/>
</g>
<!-- Node5 -->
<g id="node5" class="node">
<title>Node5</title>
<g id="a_node5"><a xlink:href="main_8hpp.html#a0ddf1224851353fc92bfbff6f499fa97" target="_top" xlink:title=" ">
<polygon fill="white" stroke="black" points="0,-76 0,-95 41,-95 41,-76 0,-76"/>
<text text-anchor="middle" x="20.5" y="-83" font-family="Helvetica,sans-Serif" font-size="10.00">main</text>
</a>
</g>
</g>
<!-- Node4&#45;&gt;Node5 -->
<g id="edge4" class="edge">
<title>Node4&#45;&gt;Node5</title>
<path fill="none" stroke="midnightblue" d="M66.66,-85.5C57.96,-85.5 48.84,-85.5 41.1,-85.5"/>
<polygon fill="midnightblue" stroke="midnightblue" points="66.94,-89 76.94,-85.5 66.94,-82 66.94,-89"/>
</g>
<!-- Node7 -->
<g id="node7" class="node">
<title>Node7</title>
<g id="a_node7"><a xlink:href="namespaceconvex__hull__trick_1_1test.html#a05eb98d10b7444bbdc9fe64f4d99676a" target="_top" xlink:title=" ">
<polygon fill="white" stroke="black" points="165,-46.5 165,-76.5 278,-76.5 278,-46.5 165,-46.5"/>
<text text-anchor="start" x="173" y="-64.5" font-family="Helvetica,sans-Serif" font-size="10.00">convex_hull_trick::</text>
<text text-anchor="middle" x="221.5" y="-53.5" font-family="Helvetica,sans-Serif" font-size="10.00">test::test_geometry</text>
</a>
</g>
</g>
<!-- Node6&#45;&gt;Node7 -->
<g id="edge6" class="edge">
<title>Node6&#45;&gt;Node7</title>
<path fill="none" stroke="midnightblue" d="M317.47,-63.3C304.41,-63.05 290.76,-62.79 278.02,-62.55"/>
<polygon fill="midnightblue" stroke="midnightblue" points="317.72,-66.8 327.78,-63.49 317.85,-59.8 317.72,-66.8"/>
</g>
<!-- Node7&#45;&gt;Node4 -->
<g id="edge7" class="edge">
<title>Node7&#45;&gt;Node4</title>
<path fill="none" stroke="midnightblue" d="M154.7,-74.77C143.72,-76.99 133.02,-79.14 124.13,-80.94"/>
<polygon fill="midnightblue" stroke="midnightblue" points="155.72,-78.14 164.83,-72.73 154.34,-71.27 155.72,-78.14"/>
</g>
<!-- Node8&#45;&gt;Node7 -->
<g id="edge9" class="edge">
<title>Node8&#45;&gt;Node7</title>
<path fill="none" stroke="midnightblue" d="M319.44,-33.37C304.5,-37.7 288.68,-42.29 274.24,-46.48"/>
<polygon fill="midnightblue" stroke="midnightblue" points="320.47,-36.71 329.1,-30.56 318.52,-29.99 320.47,-36.71"/>
</g>
</g>
</svg>
