<?xml version="1.0" encoding="UTF-8" standalone="no"?>
<!DOCTYPE svg PUBLIC "-//W3C//DTD SVG 1.1//EN"
 "http://www.w3.org/Graphics/SVG/1.1/DTD/svg11.dtd">
<!-- Generated by graphviz version 2.43.0 (0)
 -->
<!-- Title: graph_theory::scc Pages: 1 -->
<svg width="667pt" height="78pt"
 viewBox="0.00 0.00 667.00 77.50" xmlns="http://www.w3.org/2000/svg" xmlns:xlink="http://www.w3.org/1999/xlink">
<g id="graph0" class="graph" transform="scale(1 1) rotate(0) translate(4 73.5)">
<title>graph_theory::scc</title>
<polygon fill="white" stroke="transparent" points="-4,4 -4,-73.5 663,-73.5 663,4 -4,4"/>
<!-- Node1 -->
<g id="node1" class="node">
<title>Node1</title>
<g id="a_node1"><a xlink:title="Returns the strongly connected component for each vertex of the graph g.">
<polygon fill="#bfbfbf" stroke="black" points="557,-28 557,-47 659,-47 659,-28 557,-28"/>
<text text-anchor="middle" x="608" y="-35" font-family="Helvetica,sans-Serif" font-size="10.00">graph_theory::scc</text>
</a>
</g>
</g>
<!-- Node2 -->
<g id="node2" class="node">
<title>Node2</title>
<g id="a_node2"><a xlink:href="namespacesat2.html#a7c5b410fc1eefa671c8e9531c2e29cec" target="_top" xlink:title=" ">
<polygon fill="white" stroke="black" points="456,-48 456,-67 521,-67 521,-48 456,-48"/>
<text text-anchor="middle" x="488.5" y="-55" font-family="Helvetica,sans-Serif" font-size="10.00">sat2::sat2</text>
</a>
</g>
</g>
<!-- Node1&#45;&gt;Node2 -->
<g id="edge1" class="edge">
<title>Node1&#45;&gt;Node2</title>
<path fill="none" stroke="midnightblue" d="M546.83,-47.74C537.96,-49.25 529.13,-50.75 521.15,-52.11"/>
<polygon fill="midnightblue" stroke="midnightblue" points="547.56,-51.17 556.83,-46.04 546.38,-44.27 547.56,-51.17"/>
</g>
<!-- Node7 -->
<g id="node7" class="node">
<title>Node7</title>
<g id="a_node7"><a xlink:href="namespacegraph__theory_1_1test.html#a12ae68923e728fc307296eb6e6a56466" target="_top" xlink:title=" ">
<polygon fill="white" stroke="black" points="311,-0.5 311,-30.5 416,-30.5 416,-0.5 311,-0.5"/>
<text text-anchor="start" x="319" y="-18.5" font-family="Helvetica,sans-Serif" font-size="10.00">graph_theory::test</text>
<text text-anchor="middle" x="363.5" y="-7.5" font-family="Helvetica,sans-Serif" font-size="10.00">::test_scc</text>
</a>
</g>
</g>
<!-- Node1&#45;&gt;Node7 -->
<g id="edge7" class="edge">
<title>Node1&#45;&gt;Node7</title>
<path fill="none" stroke="midnightblue" d="M546.58,-32.02C506.53,-28.39 454.53,-23.67 416.35,-20.2"/>
<polygon fill="midnightblue" stroke="midnightblue" points="546.48,-35.52 556.75,-32.94 547.11,-28.55 546.48,-35.52"/>
</g>
<!-- Node3 -->
<g id="node3" class="node">
<title>Node3</title>
<g id="a_node3"><a xlink:href="namespacesat2_1_1test.html#a39c93d63732b7216ede171b3589de7f2" target="_top" xlink:title=" ">
<polygon fill="white" stroke="black" points="307,-50 307,-69 420,-69 420,-50 307,-50"/>
<text text-anchor="middle" x="363.5" y="-57" font-family="Helvetica,sans-Serif" font-size="10.00">sat2::test::test_sat2</text>
</a>
</g>
</g>
<!-- Node2&#45;&gt;Node3 -->
<g id="edge2" class="edge">
<title>Node2&#45;&gt;Node3</title>
<path fill="none" stroke="midnightblue" d="M445.81,-58.18C437.64,-58.31 428.95,-58.45 420.41,-58.59"/>
<polygon fill="midnightblue" stroke="midnightblue" points="445.88,-61.68 455.82,-58.02 445.77,-54.68 445.88,-61.68"/>
</g>
<!-- Node4 -->
<g id="node4" class="node">
<title>Node4</title>
<g id="a_node4"><a xlink:href="test_8cpp.html#af095a232149097b5605064623a9345ac" target="_top" xlink:title=" ">
<polygon fill="white" stroke="black" points="77,-28 77,-47 124,-47 124,-28 77,-28"/>
<text text-anchor="middle" x="100.5" y="-35" font-family="Helvetica,sans-Serif" font-size="10.00">main2</text>
</a>
</g>
</g>
<!-- Node3&#45;&gt;Node4 -->
<g id="edge3" class="edge">
<title>Node3&#45;&gt;Node4</title>
<path fill="none" stroke="midnightblue" d="M296.55,-53.94C240.07,-49.18 162.03,-42.6 124.06,-39.4"/>
<polygon fill="midnightblue" stroke="midnightblue" points="296.57,-57.46 306.83,-54.81 297.16,-50.48 296.57,-57.46"/>
</g>
<!-- Node6 -->
<g id="node6" class="node">
<title>Node6</title>
<g id="a_node6"><a xlink:href="namespacegraph__theory_1_1test.html#a147e0cf4f86928e4e422c6b9198a2371" target="_top" xlink:title=" ">
<polygon fill="white" stroke="black" points="160,-0.5 160,-30.5 271,-30.5 271,-0.5 160,-0.5"/>
<text text-anchor="start" x="168" y="-18.5" font-family="Helvetica,sans-Serif" font-size="10.00">graph_theory::test</text>
<text text-anchor="middle" x="215.5" y="-7.5" font-family="Helvetica,sans-Serif" font-size="10.00">::test_graph_theory</text>
</a>
</g>
</g>
<!-- Node3&#45;&gt;Node6 -->
<g id="edge5" class="edge">
<title>Node3&#45;&gt;Node6</title>
<path fill="none" stroke="midnightblue" d="M321.17,-47.04C304.16,-41.92 284.31,-35.94 266.49,-30.57"/>
<polygon fill="midnightblue" stroke="midnightblue" points="320.24,-50.42 330.82,-49.95 322.26,-43.72 320.24,-50.42"/>
</g>
<!-- Node5 -->
<g id="node5" class="node">
<title>Node5</title>
<g id="a_node5"><a xlink:href="main_8hpp.html#a0ddf1224851353fc92bfbff6f499fa97" target="_top" xlink:title=" ">
<polygon fill="white" stroke="black" points="0,-28 0,-47 41,-47 41,-28 0,-28"/>
<text text-anchor="middle" x="20.5" y="-35" font-family="Helvetica,sans-Serif" font-size="10.00">main</text>
</a>
</g>
</g>
<!-- Node4&#45;&gt;Node5 -->
<g id="edge4" class="edge">
<title>Node4&#45;&gt;Node5</title>
<path fill="none" stroke="midnightblue" d="M66.66,-37.5C57.96,-37.5 48.84,-37.5 41.1,-37.5"/>
<polygon fill="midnightblue" stroke="midnightblue" points="66.94,-41 76.94,-37.5 66.94,-34 66.94,-41"/>
</g>
<!-- Node6&#45;&gt;Node4 -->
<g id="edge6" class="edge">
<title>Node6&#45;&gt;Node4</title>
<path fill="none" stroke="midnightblue" d="M149.93,-28.07C140.73,-29.86 131.81,-31.6 124.2,-33.08"/>
<polygon fill="midnightblue" stroke="midnightblue" points="150.84,-31.46 159.99,-26.11 149.5,-24.59 150.84,-31.46"/>
</g>
<!-- Node7&#45;&gt;Node6 -->
<g id="edge8" class="edge">
<title>Node7&#45;&gt;Node6</title>
<path fill="none" stroke="midnightblue" d="M300.57,-15.5C290.8,-15.5 280.77,-15.5 271.18,-15.5"/>
<polygon fill="midnightblue" stroke="midnightblue" points="300.61,-19 310.61,-15.5 300.61,-12 300.61,-19"/>
</g>
</g>
</svg>
