<?xml version="1.0" encoding="UTF-8" standalone="no"?>
<!DOCTYPE svg PUBLIC "-//W3C//DTD SVG 1.1//EN"
 "http://www.w3.org/Graphics/SVG/1.1/DTD/svg11.dtd">
<!-- Generated by graphviz version 2.43.0 (0)
 -->
<!-- Title: modulo_namespace::power Pages: 1 -->
<svg width="353pt" height="66pt"
 viewBox="0.00 0.00 353.00 66.00" xmlns="http://www.w3.org/2000/svg" xmlns:xlink="http://www.w3.org/1999/xlink">
<g id="graph0" class="graph" transform="scale(1 1) rotate(0) translate(4 62)">
<title>modulo_namespace::power</title>
<polygon fill="white" stroke="transparent" points="-4,4 -4,-62 349,-62 349,4 -4,4"/>
<!-- Node1 -->
<g id="node1" class="node">
<title>Node1</title>
<g id="a_node1"><a xlink:title="Returns .">
<polygon fill="#bfbfbf" stroke="black" points="0,-0.5 0,-19.5 151,-19.5 151,-0.5 0,-0.5"/>
<text text-anchor="middle" x="75.5" y="-7.5" font-family="Helvetica,sans-Serif" font-size="10.00">modulo_namespace::power</text>
</a>
</g>
</g>
<!-- Node2 -->
<g id="node2" class="node">
<title>Node2</title>
<g id="a_node2"><a xlink:href="namespacemodulo__namespace.html#a55577c112e6d41b6314ad996f9e48842" target="_top" xlink:title=" ">
<polygon fill="white" stroke="black" points="187,-38.5 187,-57.5 345,-57.5 345,-38.5 187,-38.5"/>
<text text-anchor="middle" x="266" y="-45.5" font-family="Helvetica,sans-Serif" font-size="10.00">modulo_namespace::identity</text>
</a>
</g>
</g>
<!-- Node1&#45;&gt;Node2 -->
<g id="edge1" class="edge">
<title>Node1&#45;&gt;Node2</title>
<path fill="none" stroke="midnightblue" d="M124.07,-19.59C149.5,-24.72 181,-31.07 207.77,-36.46"/>
<polygon fill="midnightblue" stroke="midnightblue" points="207.28,-39.93 217.78,-38.48 208.66,-33.07 207.28,-39.93"/>
</g>
<!-- Node3 -->
<g id="node3" class="node">
<title>Node3</title>
<g id="a_node3"><a xlink:href="namespacemodulo__namespace.html#aac690d54b7665a90ca461724df8907c0" target="_top" xlink:title=" ">
<polygon fill="white" stroke="black" points="191.5,-0.5 191.5,-19.5 340.5,-19.5 340.5,-0.5 191.5,-0.5"/>
<text text-anchor="middle" x="266" y="-7.5" font-family="Helvetica,sans-Serif" font-size="10.00">modulo_namespace::invert</text>
</a>
</g>
</g>
<!-- Node1&#45;&gt;Node3 -->
<g id="edge2" class="edge">
<title>Node1&#45;&gt;Node3</title>
<path fill="none" stroke="midnightblue" d="M151,-3.38C160.96,-3.25 171.22,-3.22 181.32,-3.29"/>
<polygon fill="midnightblue" stroke="midnightblue" points="181.31,-6.79 191.35,-3.4 181.39,0.21 181.31,-6.79"/>
</g>
<!-- Node3&#45;&gt;Node1 -->
<g id="edge3" class="edge">
<title>Node3&#45;&gt;Node1</title>
<path fill="none" stroke="midnightblue" d="M191.35,-16.6C181.41,-16.75 171.15,-16.78 161.04,-16.72"/>
<polygon fill="midnightblue" stroke="midnightblue" points="161.04,-13.22 151,-16.62 160.96,-20.22 161.04,-13.22"/>
</g>
</g>
</svg>
