<?xml version="1.0" encoding="UTF-8" standalone="no"?>
<!DOCTYPE svg PUBLIC "-//W3C//DTD SVG 1.1//EN"
 "http://www.w3.org/Graphics/SVG/1.1/DTD/svg11.dtd">
<!-- Generated by graphviz version 2.43.0 (0)
 -->
<!-- Title: geometry::test_geometry Pages: 1 -->
<!--zoomable 258 -->
<svg id="main" version="1.1" xmlns="http://www.w3.org/2000/svg" xmlns:xlink="http://www.w3.org/1999/xlink" xml:space="preserve" onload="init(evt)">
<style type="text/css"><![CDATA[
.edge:hover path { stroke: red; }
.edge:hover polygon { stroke: red; fill: red; }
]]></style>
<script type="text/javascript"><![CDATA[
var edges = document.getElementsByTagName('g');
if (edges && edges.length) {
  for (var i=0;i<edges.length;i++) {
    if (edges[i].id.substr(0,4)=='edge') {
      edges[i].setAttribute('class','edge');
    }
  }
}
]]></script>
        <defs>
                <circle id="rim" cx="0" cy="0" r="7"/>
                <circle id="rim2" cx="0" cy="0" r="3.5"/>
                <g id="zoomPlus">
                        <use xlink:href="#rim" fill="#404040">
                                <set attributeName="fill" to="#808080" begin="zoomplus.mouseover" end="zoomplus.mouseout"/>
                        </use>
                        <path d="M-4,0h8M0,-4v8" fill="none" stroke="white" stroke-width="1.5" pointer-events="none"/>
                </g>
                <g id="zoomMin">
                        <use xlink:href="#rim" fill="#404040">
                                <set attributeName="fill" to="#808080" begin="zoomminus.mouseover" end="zoomminus.mouseout"/>
                        </use>
                        <path d="M-4,0h8" fill="none" stroke="white" stroke-width="1.5" pointer-events="none"/>
                </g>
                <g id="dirArrow">
                        <path fill="none" stroke="white" stroke-width="1.5" d="M0,-3.0v7 M-2.5,-0.5L0,-3.0L2.5,-0.5"/>
                </g>
               <g id="resetDef">
                       <use xlink:href="#rim2" fill="#404040">
                               <set attributeName="fill" to="#808080" begin="reset.mouseover" end="reset.mouseout"/>
                       </use>
               </g>
        </defs>

<script type="text/javascript">
var viewWidth = 950;
var viewHeight = 258;
var sectionId = 'dynsection-16';
</script>
<script xlink:href="svgpan.js"/>
<svg id="graph" class="graph">
<g id="viewport">
<title>geometry::test_geometry</title>
<polygon fill="white" stroke="transparent" points="-4,4 -4,-253.77 946,-253.77 946,4 -4,4"/>
<!-- Node1 -->
<g id="node1" class="node">
<title>Node1</title>
<g id="a_node1"><a xlink:title=" ">
<polygon fill="#bfbfbf" stroke="black" points="0,-123.75 0,-142.75 140,-142.75 140,-123.75 0,-123.75"/>
<text text-anchor="middle" x="70" y="-130.75" font-family="Helvetica,sans-Serif" font-size="10.00">geometry::test_geometry</text>
</a>
</g>
</g>
<!-- Node2 -->
<g id="node2" class="node">
<title>Node2</title>
<g id="a_node2"><a xlink:href="namespacegeometry.html#a18ead2a577ff9e1f661e55515285809b" target="_top" xlink:title=" ">
<polygon fill="white" stroke="black" points="372,-227.75 372,-246.75 484,-246.75 484,-227.75 372,-227.75"/>
<text text-anchor="middle" x="428" y="-234.75" font-family="Helvetica,sans-Serif" font-size="10.00">geometry::test_ccw</text>
</a>
</g>
</g>
<!-- Node1&#45;&gt;Node2 -->
<g id="edge1" class="edge">
<title>Node1&#45;&gt;Node2</title>
<path fill="none" stroke="midnightblue" d="M77.78,-142.85C92.75,-163.12 130.9,-209.94 176,-228.25 235.47,-252.39 309.53,-251.74 361.74,-246.84"/>
<polygon fill="midnightblue" stroke="midnightblue" points="362.29,-250.3 371.88,-245.8 361.58,-243.33 362.29,-250.3"/>
</g>
<!-- Node6 -->
<g id="node6" class="node">
<title>Node6</title>
<g id="a_node6"><a xlink:href="namespacegeometry.html#a403f2d9011246963c0e4b7a2101c5ec0" target="_top" xlink:title=" ">
<polygon fill="white" stroke="black" points="198,-199.75 198,-218.75 306,-218.75 306,-199.75 198,-199.75"/>
<text text-anchor="middle" x="252" y="-206.75" font-family="Helvetica,sans-Serif" font-size="10.00">geometry::test_cht</text>
</a>
</g>
</g>
<!-- Node1&#45;&gt;Node6 -->
<g id="edge5" class="edge">
<title>Node1&#45;&gt;Node6</title>
<path fill="none" stroke="midnightblue" d="M85.73,-142.78C105.54,-155.25 142.19,-177.03 176,-190.25 182.3,-192.71 189.03,-194.94 195.77,-196.93"/>
<polygon fill="midnightblue" stroke="midnightblue" points="195.04,-200.36 205.61,-199.68 196.92,-193.62 195.04,-200.36"/>
</g>
<!-- Node8 -->
<g id="node8" class="node">
<title>Node8</title>
<g id="a_node8"><a xlink:href="namespacegeometry.html#a9ac8131722d15a1da83d0065f1093f1e" target="_top" xlink:title=" ">
<polygon fill="white" stroke="black" points="176,-123.75 176,-142.75 328,-142.75 328,-123.75 176,-123.75"/>
<text text-anchor="middle" x="252" y="-130.75" font-family="Helvetica,sans-Serif" font-size="10.00">geometry::test_convex_min</text>
</a>
</g>
</g>
<!-- Node1&#45;&gt;Node8 -->
<g id="edge7" class="edge">
<title>Node1&#45;&gt;Node8</title>
<path fill="none" stroke="midnightblue" d="M140.08,-133.25C148.49,-133.25 157.15,-133.25 165.76,-133.25"/>
<polygon fill="midnightblue" stroke="midnightblue" points="165.82,-136.75 175.82,-133.25 165.82,-129.75 165.82,-136.75"/>
</g>
<!-- Node10 -->
<g id="node10" class="node">
<title>Node10</title>
<g id="a_node10"><a xlink:href="namespacegeometry.html#afaf01b71e2401cde2a17f7de0c7589f4" target="_top" xlink:title=" ">
<polygon fill="white" stroke="black" points="197.5,-161.75 197.5,-180.75 306.5,-180.75 306.5,-161.75 197.5,-161.75"/>
<text text-anchor="middle" x="252" y="-168.75" font-family="Helvetica,sans-Serif" font-size="10.00">geometry::test_dot</text>
</a>
</g>
</g>
<!-- Node1&#45;&gt;Node10 -->
<g id="edge9" class="edge">
<title>Node1&#45;&gt;Node10</title>
<path fill="none" stroke="midnightblue" d="M116.42,-142.84C140.6,-147.94 170.53,-154.26 196.01,-159.64"/>
<polygon fill="midnightblue" stroke="midnightblue" points="195.4,-163.09 205.91,-161.73 196.84,-156.24 195.4,-163.09"/>
</g>
<!-- Node11 -->
<g id="node11" class="node">
<title>Node11</title>
<g id="a_node11"><a xlink:href="namespacegeometry.html#a27118bb54df18fa8cdda0a971ad58027" target="_top" xlink:title=" ">
<polygon fill="white" stroke="black" points="196.5,-85.75 196.5,-104.75 307.5,-104.75 307.5,-85.75 196.5,-85.75"/>
<text text-anchor="middle" x="252" y="-92.75" font-family="Helvetica,sans-Serif" font-size="10.00">geometry::test_hull</text>
</a>
</g>
</g>
<!-- Node1&#45;&gt;Node11 -->
<g id="edge11" class="edge">
<title>Node1&#45;&gt;Node11</title>
<path fill="none" stroke="midnightblue" d="M116.42,-123.66C140.6,-118.55 170.53,-112.24 196.01,-106.85"/>
<polygon fill="midnightblue" stroke="midnightblue" points="196.84,-110.26 205.91,-104.77 195.4,-103.41 196.84,-110.26"/>
</g>
<!-- Node14 -->
<g id="node14" class="node">
<title>Node14</title>
<g id="a_node14"><a xlink:href="namespacegeometry.html#a6f5b94d51a13ddc8282f8ef617de73bb" target="_top" xlink:title=" ">
<polygon fill="white" stroke="black" points="195.5,-47.75 195.5,-66.75 308.5,-66.75 308.5,-47.75 195.5,-47.75"/>
<text text-anchor="middle" x="252" y="-54.75" font-family="Helvetica,sans-Serif" font-size="10.00">geometry::test_less</text>
</a>
</g>
</g>
<!-- Node1&#45;&gt;Node14 -->
<g id="edge15" class="edge">
<title>Node1&#45;&gt;Node14</title>
<path fill="none" stroke="midnightblue" d="M85.73,-123.71C105.54,-111.25 142.19,-89.46 176,-76.25 182.3,-73.78 189.03,-71.55 195.77,-69.56"/>
<polygon fill="midnightblue" stroke="midnightblue" points="196.92,-72.87 205.61,-66.81 195.04,-66.13 196.92,-72.87"/>
</g>
<!-- Node15 -->
<g id="node15" class="node">
<title>Node15</title>
<g id="a_node15"><a xlink:href="namespacegeometry.html#af24e139ee1704a4aa6452a7fec700995" target="_top" xlink:title=" ">
<polygon fill="white" stroke="black" points="680,-37.75 680,-56.75 805,-56.75 805,-37.75 680,-37.75"/>
<text text-anchor="middle" x="742.5" y="-44.75" font-family="Helvetica,sans-Serif" font-size="10.00">geometry::test_wedge</text>
</a>
</g>
</g>
<!-- Node1&#45;&gt;Node15 -->
<g id="edge16" class="edge">
<title>Node1&#45;&gt;Node15</title>
<path fill="none" stroke="midnightblue" d="M77.73,-123.52C92.61,-103 130.58,-55.74 176,-38.25 357.41,31.64 596.47,-11.96 695.5,-35.3"/>
<polygon fill="midnightblue" stroke="midnightblue" points="694.93,-38.77 705.48,-37.7 696.57,-31.96 694.93,-38.77"/>
</g>
<!-- Node3 -->
<g id="node3" class="node">
<title>Node3</title>
<g id="a_node3"><a xlink:href="namespacegeometry.html#a5f1383116499536e16ded93d8a011900" target="_top" xlink:title="Returns whether moving through &#160;is counterclockwise.">
<polygon fill="white" stroke="black" points="542,-104.75 542,-123.75 630,-123.75 630,-104.75 542,-104.75"/>
<text text-anchor="middle" x="586" y="-111.75" font-family="Helvetica,sans-Serif" font-size="10.00">geometry::ccw</text>
</a>
</g>
</g>
<!-- Node2&#45;&gt;Node3 -->
<g id="edge2" class="edge">
<title>Node2&#45;&gt;Node3</title>
<path fill="none" stroke="midnightblue" d="M456.55,-227.64C468.03,-222.98 481.19,-216.76 492,-209.25 524.18,-186.89 554.57,-152.41 571.4,-131.72"/>
<polygon fill="midnightblue" stroke="midnightblue" points="574.24,-133.77 577.75,-123.77 568.77,-129.4 574.24,-133.77"/>
</g>
<!-- Node4 -->
<g id="node4" class="node">
<title>Node4</title>
<g id="a_node4"><a xlink:href="namespacegeometry.html#ab8556a4c9ecf62f348ba9d0635bf8cb3" target="_top" xlink:title=" ">
<polygon fill="white" stroke="black" points="697,-89.75 697,-108.75 788,-108.75 788,-89.75 697,-89.75"/>
<text text-anchor="middle" x="742.5" y="-96.75" font-family="Helvetica,sans-Serif" font-size="10.00">geometry::area</text>
</a>
</g>
</g>
<!-- Node3&#45;&gt;Node4 -->
<g id="edge3" class="edge">
<title>Node3&#45;&gt;Node4</title>
<path fill="none" stroke="midnightblue" d="M630.04,-110.07C647.59,-108.36 668.1,-106.37 686.7,-104.57"/>
<polygon fill="midnightblue" stroke="midnightblue" points="687.2,-108.04 696.81,-103.59 686.52,-101.07 687.2,-108.04"/>
</g>
<!-- Node5 -->
<g id="node5" class="node">
<title>Node5</title>
<g id="a_node5"><a xlink:href="namespacegeometry.html#aabae68a797dfbc044ca0ed89cc6cc1af" target="_top" xlink:title=" ">
<polygon fill="white" stroke="black" points="841,-56.75 841,-75.75 942,-75.75 942,-56.75 841,-56.75"/>
<text text-anchor="middle" x="891.5" y="-63.75" font-family="Helvetica,sans-Serif" font-size="10.00">geometry::wedge</text>
</a>
</g>
</g>
<!-- Node4&#45;&gt;Node5 -->
<g id="edge4" class="edge">
<title>Node4&#45;&gt;Node5</title>
<path fill="none" stroke="midnightblue" d="M786.02,-89.7C802.32,-86.04 821.11,-81.82 838.23,-77.98"/>
<polygon fill="midnightblue" stroke="midnightblue" points="839.09,-81.38 848.08,-75.77 837.55,-74.55 839.09,-81.38"/>
</g>
<!-- Node7 -->
<g id="node7" class="node">
<title>Node7</title>
<g id="a_node7"><a xlink:href="namespacegeometry.html#a307816ea40ce680d3c4eb34968b52520" target="_top" xlink:title=" ">
<polygon fill="white" stroke="black" points="385.5,-180.75 385.5,-199.75 470.5,-199.75 470.5,-180.75 385.5,-180.75"/>
<text text-anchor="middle" x="428" y="-187.75" font-family="Helvetica,sans-Serif" font-size="10.00">geometry::dot</text>
</a>
</g>
</g>
<!-- Node6&#45;&gt;Node7 -->
<g id="edge6" class="edge">
<title>Node6&#45;&gt;Node7</title>
<path fill="none" stroke="midnightblue" d="M306.15,-203.44C328.15,-201.04 353.57,-198.26 375.41,-195.88"/>
<polygon fill="midnightblue" stroke="midnightblue" points="375.92,-199.34 385.49,-194.78 375.16,-192.39 375.92,-199.34"/>
</g>
<!-- Node9 -->
<g id="node9" class="node">
<title>Node9</title>
<g id="a_node9"><a xlink:href="namespacegeometry.html#a8143f89812fca762e08ba1a5d984c46b" target="_top" xlink:title=" ">
<polygon fill="white" stroke="black" points="364,-123.75 364,-142.75 492,-142.75 492,-123.75 364,-123.75"/>
<text text-anchor="middle" x="428" y="-130.75" font-family="Helvetica,sans-Serif" font-size="10.00">geometry::convex_min</text>
</a>
</g>
</g>
<!-- Node8&#45;&gt;Node9 -->
<g id="edge8" class="edge">
<title>Node8&#45;&gt;Node9</title>
<path fill="none" stroke="midnightblue" d="M328.05,-133.25C336.55,-133.25 345.21,-133.25 353.69,-133.25"/>
<polygon fill="midnightblue" stroke="midnightblue" points="353.92,-136.75 363.92,-133.25 353.92,-129.75 353.92,-136.75"/>
</g>
<!-- Node10&#45;&gt;Node7 -->
<g id="edge10" class="edge">
<title>Node10&#45;&gt;Node7</title>
<path fill="none" stroke="midnightblue" d="M306.63,-177.1C328.52,-179.49 353.74,-182.25 375.42,-184.61"/>
<polygon fill="midnightblue" stroke="midnightblue" points="375.11,-188.1 385.43,-185.71 375.87,-181.14 375.11,-188.1"/>
</g>
<!-- Node12 -->
<g id="node12" class="node">
<title>Node12</title>
<g id="a_node12"><a xlink:href="namespacegeometry.html#acdc6602c58d77b560832434cc2e25b89" target="_top" xlink:title=" ">
<polygon fill="white" stroke="black" points="384.5,-85.75 384.5,-104.75 471.5,-104.75 471.5,-85.75 384.5,-85.75"/>
<text text-anchor="middle" x="428" y="-92.75" font-family="Helvetica,sans-Serif" font-size="10.00">geometry::hull</text>
</a>
</g>
</g>
<!-- Node11&#45;&gt;Node12 -->
<g id="edge12" class="edge">
<title>Node11&#45;&gt;Node12</title>
<path fill="none" stroke="midnightblue" d="M307.58,-95.25C328.9,-95.25 353.26,-95.25 374.4,-95.25"/>
<polygon fill="midnightblue" stroke="midnightblue" points="374.48,-98.75 384.48,-95.25 374.48,-91.75 374.48,-98.75"/>
</g>
<!-- Node12&#45;&gt;Node3 -->
<g id="edge13" class="edge">
<title>Node12&#45;&gt;Node3</title>
<path fill="none" stroke="midnightblue" d="M471.63,-100.44C490.22,-102.7 512.21,-105.38 531.85,-107.77"/>
<polygon fill="midnightblue" stroke="midnightblue" points="531.53,-111.26 541.88,-108.99 532.38,-104.31 531.53,-111.26"/>
</g>
<!-- Node13 -->
<g id="node13" class="node">
<title>Node13</title>
<g id="a_node13"><a xlink:href="namespaceutility.html#aa705afaf267f70799bd4ec8cbf040455" target="_top" xlink:title=" ">
<polygon fill="white" stroke="black" points="528,-66.75 528,-85.75 644,-85.75 644,-66.75 528,-66.75"/>
<text text-anchor="middle" x="586" y="-73.75" font-family="Helvetica,sans-Serif" font-size="10.00">utility::key_compare</text>
</a>
</g>
</g>
<!-- Node12&#45;&gt;Node13 -->
<g id="edge14" class="edge">
<title>Node12&#45;&gt;Node13</title>
<path fill="none" stroke="midnightblue" d="M471.63,-90.05C485.84,-88.32 502.03,-86.35 517.65,-84.45"/>
<polygon fill="midnightblue" stroke="midnightblue" points="518.29,-87.9 527.8,-83.21 517.45,-80.95 518.29,-87.9"/>
</g>
<!-- Node15&#45;&gt;Node5 -->
<g id="edge17" class="edge">
<title>Node15&#45;&gt;Node5</title>
<path fill="none" stroke="midnightblue" d="M805.42,-55.25C813.78,-56.33 822.36,-57.44 830.69,-58.52"/>
<polygon fill="midnightblue" stroke="midnightblue" points="830.33,-62 840.7,-59.81 831.23,-55.06 830.33,-62"/>
</g>
</g>
</svg>
        <g id="navigator" transform="translate(0 0)" fill="#404254">
                <rect fill="#f2f5e9" fill-opacity="0.5" stroke="#606060" stroke-width=".5" x="0" y="0" width="60" height="60"/>
                <use id="zoomplus" xlink:href="#zoomPlus" x="17" y="9" onmousedown="handleZoom(evt,'in')"/>
                <use id="zoomminus" xlink:href="#zoomMin" x="42" y="9" onmousedown="handleZoom(evt,'out')"/>
                <use id="reset" xlink:href="#resetDef" x="30" y="36" onmousedown="handleReset()"/>
                <g id="arrowUp" xlink:href="#dirArrow" transform="translate(30 24)" onmousedown="handlePan(0,-1)">
                  <use xlink:href="#rim" fill="#404040">
                        <set attributeName="fill" to="#808080" begin="arrowUp.mouseover" end="arrowUp.mouseout"/>
                  </use>
                  <path fill="none" stroke="white" stroke-width="1.5" d="M0,-3.0v7 M-2.5,-0.5L0,-3.0L2.5,-0.5"/>
                </g>
                <g id="arrowRight" xlink:href="#dirArrow" transform="rotate(90) translate(36 -43)" onmousedown="handlePan(1,0)">
                  <use xlink:href="#rim" fill="#404040">
                        <set attributeName="fill" to="#808080" begin="arrowRight.mouseover" end="arrowRight.mouseout"/>
                  </use>
                  <path fill="none" stroke="white" stroke-width="1.5" d="M0,-3.0v7 M-2.5,-0.5L0,-3.0L2.5,-0.5"/>
                </g>
                <g id="arrowDown" xlink:href="#dirArrow" transform="rotate(180) translate(-30 -48)" onmousedown="handlePan(0,1)">
                  <use xlink:href="#rim" fill="#404040">
                        <set attributeName="fill" to="#808080" begin="arrowDown.mouseover" end="arrowDown.mouseout"/>
                  </use>
                  <path fill="none" stroke="white" stroke-width="1.5" d="M0,-3.0v7 M-2.5,-0.5L0,-3.0L2.5,-0.5"/>
                </g>
                <g id="arrowLeft" xlink:href="#dirArrow" transform="rotate(270) translate(-36 17)" onmousedown="handlePan(-1,0)">
                  <use xlink:href="#rim" fill="#404040">
                        <set attributeName="fill" to="#808080" begin="arrowLeft.mouseover" end="arrowLeft.mouseout"/>
                  </use>
                  <path fill="none" stroke="white" stroke-width="1.5" d="M0,-3.0v7 M-2.5,-0.5L0,-3.0L2.5,-0.5"/>
                </g>
        </g>
        <svg viewBox="0 0 15 15" width="100%" height="30px" preserveAspectRatio="xMaxYMin meet">
         <g id="arrow_out" transform="scale(0.3 0.3)">
          <a xlink:href="namespacegeometry_aad3419586eb6065d81469c30417d5530_cgraph_org.svg" target="_base">
           <rect id="button" ry="5" rx="5" y="6" x="6" height="38" width="38"
                fill="#f2f5e9" fill-opacity="0.5" stroke="#606060" stroke-width="1.0"/>
           <path id="arrow"
             d="M 11.500037,31.436501 C 11.940474,20.09759 22.043105,11.32322 32.158766,21.979434 L 37.068811,17.246167 C 37.068811,17.246167 37.088388,32 37.088388,32 L 22.160133,31.978069 C 22.160133,31.978069 26.997745,27.140456 26.997745,27.140456 C 18.528582,18.264221 13.291696,25.230495 11.500037,31.436501 z"
             style="fill:#404040;"/>
          </a>
         </g>
        </svg>
</svg>
