<?xml version="1.0" encoding="UTF-8" standalone="no"?>
<!DOCTYPE svg PUBLIC "-//W3C//DTD SVG 1.1//EN"
 "http://www.w3.org/Graphics/SVG/1.1/DTD/svg11.dtd">
<!-- Generated by graphviz version 2.43.0 (0)
 -->
<!-- Title: graph_theory::trans Pages: 1 -->
<!--zoomable 110 -->
<svg id="main" version="1.1" xmlns="http://www.w3.org/2000/svg" xmlns:xlink="http://www.w3.org/1999/xlink" xml:space="preserve" onload="init(evt)">
<style type="text/css"><![CDATA[
.edge:hover path { stroke: red; }
.edge:hover polygon { stroke: red; fill: red; }
]]></style>
<script type="text/javascript"><![CDATA[
var edges = document.getElementsByTagName('g');
if (edges && edges.length) {
  for (var i=0;i<edges.length;i++) {
    if (edges[i].id.substr(0,4)=='edge') {
      edges[i].setAttribute('class','edge');
    }
  }
}
]]></script>
        <defs>
                <circle id="rim" cx="0" cy="0" r="7"/>
                <circle id="rim2" cx="0" cy="0" r="3.5"/>
                <g id="zoomPlus">
                        <use xlink:href="#rim" fill="#404040">
                                <set attributeName="fill" to="#808080" begin="zoomplus.mouseover" end="zoomplus.mouseout"/>
                        </use>
                        <path d="M-4,0h8M0,-4v8" fill="none" stroke="white" stroke-width="1.5" pointer-events="none"/>
                </g>
                <g id="zoomMin">
                        <use xlink:href="#rim" fill="#404040">
                                <set attributeName="fill" to="#808080" begin="zoomminus.mouseover" end="zoomminus.mouseout"/>
                        </use>
                        <path d="M-4,0h8" fill="none" stroke="white" stroke-width="1.5" pointer-events="none"/>
                </g>
                <g id="dirArrow">
                        <path fill="none" stroke="white" stroke-width="1.5" d="M0,-3.0v7 M-2.5,-0.5L0,-3.0L2.5,-0.5"/>
                </g>
               <g id="resetDef">
                       <use xlink:href="#rim2" fill="#404040">
                               <set attributeName="fill" to="#808080" begin="reset.mouseover" end="reset.mouseout"/>
                       </use>
               </g>
        </defs>

<script type="text/javascript">
var viewWidth = 812;
var viewHeight = 110;
var sectionId = 'dynsection-31';
</script>
<script xlink:href="svgpan.js"/>
<svg id="graph" class="graph">
<g id="viewport">
<title>graph_theory::trans</title>
<polygon fill="white" stroke="transparent" points="-4,4 -4,-105.5 808,-105.5 808,4 -4,4"/>
<!-- Node1 -->
<g id="node1" class="node">
<title>Node1</title>
<g id="a_node1"><a xlink:title=" ">
<polygon fill="#bfbfbf" stroke="black" points="693,-28 693,-47 804,-47 804,-28 693,-28"/>
<text text-anchor="middle" x="748.5" y="-35" font-family="Helvetica,sans-Serif" font-size="10.00">graph_theory::trans</text>
</a>
</g>
</g>
<!-- Node2 -->
<g id="node2" class="node">
<title>Node2</title>
<g id="a_node2"><a xlink:href="namespacegraph__theory.html#abf42c204d44caae5b7ea48d8261dfd9e" target="_top" xlink:title=" ">
<polygon fill="white" stroke="black" points="553.5,-50 553.5,-69 655.5,-69 655.5,-50 553.5,-50"/>
<text text-anchor="middle" x="604.5" y="-57" font-family="Helvetica,sans-Serif" font-size="10.00">graph_theory::scc</text>
</a>
</g>
</g>
<!-- Node1&#45;&gt;Node2 -->
<g id="edge1" class="edge">
<title>Node1&#45;&gt;Node2</title>
<path fill="none" stroke="midnightblue" d="M682.49,-47.57C673.47,-48.97 664.31,-50.39 655.61,-51.74"/>
<polygon fill="midnightblue" stroke="midnightblue" points="683.25,-51 692.6,-46.01 682.18,-44.08 683.25,-51"/>
</g>
<!-- Node10 -->
<g id="node10" class="node">
<title>Node10</title>
<g id="a_node10"><a xlink:href="namespacegraph__theory.html#a734cad165e9d3343718dea3cab4febc3" target="_top" xlink:title=" ">
<polygon fill="white" stroke="black" points="552,-0.5 552,-30.5 657,-30.5 657,-0.5 552,-0.5"/>
<text text-anchor="start" x="560" y="-18.5" font-family="Helvetica,sans-Serif" font-size="10.00">graph_theory::test</text>
<text text-anchor="middle" x="604.5" y="-7.5" font-family="Helvetica,sans-Serif" font-size="10.00">_trans</text>
</a>
</g>
</g>
<!-- Node1&#45;&gt;Node10 -->
<g id="edge10" class="edge">
<title>Node1&#45;&gt;Node10</title>
<path fill="none" stroke="midnightblue" d="M682.46,-27.42C674.08,-26.13 665.59,-24.81 657.46,-23.55"/>
<polygon fill="midnightblue" stroke="midnightblue" points="682.18,-30.92 692.6,-28.99 683.25,-24 682.18,-30.92"/>
</g>
<!-- Node3 -->
<g id="node3" class="node">
<title>Node3</title>
<g id="a_node3"><a xlink:href="namespacesat2.html#a7c5b410fc1eefa671c8e9531c2e29cec" target="_top" xlink:title=" ">
<polygon fill="white" stroke="black" points="420.5,-82 420.5,-101 485.5,-101 485.5,-82 420.5,-82"/>
<text text-anchor="middle" x="453" y="-89" font-family="Helvetica,sans-Serif" font-size="10.00">sat2::sat2</text>
</a>
</g>
</g>
<!-- Node2&#45;&gt;Node3 -->
<g id="edge2" class="edge">
<title>Node2&#45;&gt;Node3</title>
<path fill="none" stroke="midnightblue" d="M549.14,-71.14C527.83,-75.7 504.12,-80.77 485.71,-84.71"/>
<polygon fill="midnightblue" stroke="midnightblue" points="550,-74.53 559.05,-69.01 548.54,-67.69 550,-74.53"/>
</g>
<!-- Node8 -->
<g id="node8" class="node">
<title>Node8</title>
<g id="a_node8"><a xlink:href="namespacegraph__theory.html#a67e1bb0651ba8b410525f0a06c154f10" target="_top" xlink:title=" ">
<polygon fill="white" stroke="black" points="390,-44 390,-63 516,-63 516,-44 390,-44"/>
<text text-anchor="middle" x="453" y="-51" font-family="Helvetica,sans-Serif" font-size="10.00">graph_theory::test_scc</text>
</a>
</g>
</g>
<!-- Node2&#45;&gt;Node8 -->
<g id="edge7" class="edge">
<title>Node2&#45;&gt;Node8</title>
<path fill="none" stroke="midnightblue" d="M543.31,-57.08C534.32,-56.72 525.04,-56.35 516.02,-55.99"/>
<polygon fill="midnightblue" stroke="midnightblue" points="543.17,-60.58 553.3,-57.49 543.45,-53.59 543.17,-60.58"/>
</g>
<!-- Node4 -->
<g id="node4" class="node">
<title>Node4</title>
<g id="a_node4"><a xlink:href="namespacesat2.html#a25e1814f70e51eb57308bc0dea349406" target="_top" xlink:title=" ">
<polygon fill="white" stroke="black" points="257,-82 257,-101 346,-101 346,-82 257,-82"/>
<text text-anchor="middle" x="301.5" y="-89" font-family="Helvetica,sans-Serif" font-size="10.00">sat2::test_sat2</text>
</a>
</g>
</g>
<!-- Node3&#45;&gt;Node4 -->
<g id="edge3" class="edge">
<title>Node3&#45;&gt;Node4</title>
<path fill="none" stroke="midnightblue" d="M410.24,-91.5C390.24,-91.5 366.3,-91.5 346.07,-91.5"/>
<polygon fill="midnightblue" stroke="midnightblue" points="410.29,-95 420.29,-91.5 410.29,-88 410.29,-95"/>
</g>
<!-- Node5 -->
<g id="node5" class="node">
<title>Node5</title>
<g id="a_node5"><a xlink:href="test_8cpp.html#aa1c715cac916839a95e25b65b4071c4a" target="_top" xlink:title=" ">
<polygon fill="white" stroke="black" points="160,-60 160,-79 213,-79 213,-60 160,-60"/>
<text text-anchor="middle" x="186.5" y="-67" font-family="Helvetica,sans-Serif" font-size="10.00">test_all</text>
</a>
</g>
</g>
<!-- Node4&#45;&gt;Node5 -->
<g id="edge4" class="edge">
<title>Node4&#45;&gt;Node5</title>
<path fill="none" stroke="midnightblue" d="M246.98,-81.08C235.17,-78.78 223.19,-76.45 213.11,-74.49"/>
<polygon fill="midnightblue" stroke="midnightblue" points="246.33,-84.52 256.81,-82.99 247.66,-77.65 246.33,-84.52"/>
</g>
<!-- Node6 -->
<g id="node6" class="node">
<title>Node6</title>
<g id="a_node6"><a xlink:href="test_8cpp.html#af095a232149097b5605064623a9345ac" target="_top" xlink:title=" ">
<polygon fill="white" stroke="black" points="77,-60 77,-79 124,-79 124,-60 77,-60"/>
<text text-anchor="middle" x="100.5" y="-67" font-family="Helvetica,sans-Serif" font-size="10.00">main2</text>
</a>
</g>
</g>
<!-- Node5&#45;&gt;Node6 -->
<g id="edge5" class="edge">
<title>Node5&#45;&gt;Node6</title>
<path fill="none" stroke="midnightblue" d="M149.59,-69.5C140.96,-69.5 131.99,-69.5 124.16,-69.5"/>
<polygon fill="midnightblue" stroke="midnightblue" points="149.84,-73 159.84,-69.5 149.84,-66 149.84,-73"/>
</g>
<!-- Node7 -->
<g id="node7" class="node">
<title>Node7</title>
<g id="a_node7"><a xlink:href="main_8hpp.html#a0ddf1224851353fc92bfbff6f499fa97" target="_top" xlink:title=" ">
<polygon fill="white" stroke="black" points="0,-60 0,-79 41,-79 41,-60 0,-60"/>
<text text-anchor="middle" x="20.5" y="-67" font-family="Helvetica,sans-Serif" font-size="10.00">main</text>
</a>
</g>
</g>
<!-- Node6&#45;&gt;Node7 -->
<g id="edge6" class="edge">
<title>Node6&#45;&gt;Node7</title>
<path fill="none" stroke="midnightblue" d="M66.66,-69.5C57.96,-69.5 48.84,-69.5 41.1,-69.5"/>
<polygon fill="midnightblue" stroke="midnightblue" points="66.94,-73 76.94,-69.5 66.94,-66 66.94,-73"/>
</g>
<!-- Node9 -->
<g id="node9" class="node">
<title>Node9</title>
<g id="a_node9"><a xlink:href="namespacegraph__theory.html#aa2b38897f4c429325f0eb73b1137755a" target="_top" xlink:title=" ">
<polygon fill="white" stroke="black" points="249,-32.5 249,-62.5 354,-62.5 354,-32.5 249,-32.5"/>
<text text-anchor="start" x="257" y="-50.5" font-family="Helvetica,sans-Serif" font-size="10.00">graph_theory::test</text>
<text text-anchor="middle" x="301.5" y="-39.5" font-family="Helvetica,sans-Serif" font-size="10.00">_graph_theory</text>
</a>
</g>
</g>
<!-- Node8&#45;&gt;Node9 -->
<g id="edge8" class="edge">
<title>Node8&#45;&gt;Node9</title>
<path fill="none" stroke="midnightblue" d="M379.8,-50.6C371.16,-50.26 362.48,-49.91 354.21,-49.58"/>
<polygon fill="midnightblue" stroke="midnightblue" points="379.76,-54.1 389.9,-51.01 380.05,-47.11 379.76,-54.1"/>
</g>
<!-- Node9&#45;&gt;Node5 -->
<g id="edge9" class="edge">
<title>Node9&#45;&gt;Node5</title>
<path fill="none" stroke="midnightblue" d="M239.01,-59.47C229.86,-61.25 220.89,-63 213.07,-64.52"/>
<polygon fill="midnightblue" stroke="midnightblue" points="239.81,-62.88 248.96,-57.53 238.48,-56.01 239.81,-62.88"/>
</g>
<!-- Node10&#45;&gt;Node9 -->
<g id="edge11" class="edge">
<title>Node10&#45;&gt;Node9</title>
<path fill="none" stroke="midnightblue" d="M541.41,-20.06C498.76,-23.43 440.87,-28.46 390,-34.5 378.41,-35.88 365.99,-37.58 354.25,-39.3"/>
<polygon fill="midnightblue" stroke="midnightblue" points="541.94,-23.53 551.64,-19.26 541.4,-16.55 541.94,-23.53"/>
</g>
</g>
</svg>
        <g id="navigator" transform="translate(0 0)" fill="#404254">
                <rect fill="#f2f5e9" fill-opacity="0.5" stroke="#606060" stroke-width=".5" x="0" y="0" width="60" height="60"/>
                <use id="zoomplus" xlink:href="#zoomPlus" x="17" y="9" onmousedown="handleZoom(evt,'in')"/>
                <use id="zoomminus" xlink:href="#zoomMin" x="42" y="9" onmousedown="handleZoom(evt,'out')"/>
                <use id="reset" xlink:href="#resetDef" x="30" y="36" onmousedown="handleReset()"/>
                <g id="arrowUp" xlink:href="#dirArrow" transform="translate(30 24)" onmousedown="handlePan(0,-1)">
                  <use xlink:href="#rim" fill="#404040">
                        <set attributeName="fill" to="#808080" begin="arrowUp.mouseover" end="arrowUp.mouseout"/>
                  </use>
                  <path fill="none" stroke="white" stroke-width="1.5" d="M0,-3.0v7 M-2.5,-0.5L0,-3.0L2.5,-0.5"/>
                </g>
                <g id="arrowRight" xlink:href="#dirArrow" transform="rotate(90) translate(36 -43)" onmousedown="handlePan(1,0)">
                  <use xlink:href="#rim" fill="#404040">
                        <set attributeName="fill" to="#808080" begin="arrowRight.mouseover" end="arrowRight.mouseout"/>
                  </use>
                  <path fill="none" stroke="white" stroke-width="1.5" d="M0,-3.0v7 M-2.5,-0.5L0,-3.0L2.5,-0.5"/>
                </g>
                <g id="arrowDown" xlink:href="#dirArrow" transform="rotate(180) translate(-30 -48)" onmousedown="handlePan(0,1)">
                  <use xlink:href="#rim" fill="#404040">
                        <set attributeName="fill" to="#808080" begin="arrowDown.mouseover" end="arrowDown.mouseout"/>
                  </use>
                  <path fill="none" stroke="white" stroke-width="1.5" d="M0,-3.0v7 M-2.5,-0.5L0,-3.0L2.5,-0.5"/>
                </g>
                <g id="arrowLeft" xlink:href="#dirArrow" transform="rotate(270) translate(-36 17)" onmousedown="handlePan(-1,0)">
                  <use xlink:href="#rim" fill="#404040">
                        <set attributeName="fill" to="#808080" begin="arrowLeft.mouseover" end="arrowLeft.mouseout"/>
                  </use>
                  <path fill="none" stroke="white" stroke-width="1.5" d="M0,-3.0v7 M-2.5,-0.5L0,-3.0L2.5,-0.5"/>
                </g>
        </g>
        <svg viewBox="0 0 15 15" width="100%" height="30px" preserveAspectRatio="xMaxYMin meet">
         <g id="arrow_out" transform="scale(0.3 0.3)">
          <a xlink:href="namespacegraph__theory_af33d0502161df2d1b82be4b1e8dcaa13_icgraph_org.svg" target="_base">
           <rect id="button" ry="5" rx="5" y="6" x="6" height="38" width="38"
                fill="#f2f5e9" fill-opacity="0.5" stroke="#606060" stroke-width="1.0"/>
           <path id="arrow"
             d="M 11.500037,31.436501 C 11.940474,20.09759 22.043105,11.32322 32.158766,21.979434 L 37.068811,17.246167 C 37.068811,17.246167 37.088388,32 37.088388,32 L 22.160133,31.978069 C 22.160133,31.978069 26.997745,27.140456 26.997745,27.140456 C 18.528582,18.264221 13.291696,25.230495 11.500037,31.436501 z"
             style="fill:#404040;"/>
          </a>
         </g>
        </svg>
</svg>
