<?xml version="1.0" encoding="UTF-8" standalone="no"?>
<!DOCTYPE svg PUBLIC "-//W3C//DTD SVG 1.1//EN"
 "http://www.w3.org/Graphics/SVG/1.1/DTD/svg11.dtd">
<!-- Generated by graphviz version 2.43.0 (0)
 -->
<!-- Title: linear_algebra::operator/ Pages: 1 -->
<svg width="463pt" height="78pt"
 viewBox="0.00 0.00 463.00 77.50" xmlns="http://www.w3.org/2000/svg" xmlns:xlink="http://www.w3.org/1999/xlink">
<g id="graph0" class="graph" transform="scale(1 1) rotate(0) translate(4 73.5)">
<title>linear_algebra::operator/</title>
<polygon fill="white" stroke="transparent" points="-4,4 -4,-73.5 459,-73.5 459,4 -4,4"/>
<!-- Node1 -->
<g id="node1" class="node">
<title>Node1</title>
<g id="a_node1"><a xlink:title="Returns .">
<polygon fill="#bfbfbf" stroke="black" points="0,-50 0,-69 137,-69 137,-50 0,-50"/>
<text text-anchor="middle" x="68.5" y="-57" font-family="Helvetica,sans-Serif" font-size="10.00">linear_algebra::operator/</text>
</a>
</g>
</g>
<!-- Node2 -->
<g id="node2" class="node">
<title>Node2</title>
<g id="a_node2"><a xlink:href="namespacelinear__algebra.html#aa35d330ed1d66664b874fc261902c7b5" target="_top" xlink:title="Returns matrix x such that &#160;and the determinant of &#160;via Gaussian elimination.">
<polygon fill="white" stroke="black" points="173,-50 173,-69 294,-69 294,-50 173,-50"/>
<text text-anchor="middle" x="233.5" y="-57" font-family="Helvetica,sans-Serif" font-size="10.00">linear_algebra::gauss</text>
</a>
</g>
</g>
<!-- Node1&#45;&gt;Node2 -->
<g id="edge1" class="edge">
<title>Node1&#45;&gt;Node2</title>
<path fill="none" stroke="midnightblue" d="M137.21,-59.5C145.61,-59.5 154.2,-59.5 162.63,-59.5"/>
<polygon fill="midnightblue" stroke="midnightblue" points="162.8,-63 172.8,-59.5 162.8,-56 162.8,-63"/>
</g>
<!-- Node3 -->
<g id="node3" class="node">
<title>Node3</title>
<g id="a_node3"><a xlink:href="namespacelinear__algebra.html#ab7a7f1a8ba225710625d5af10f317b6a" target="_top" xlink:title="Returns the determinant of matrix a.">
<polygon fill="white" stroke="black" points="338.5,-50 338.5,-69 446.5,-69 446.5,-50 338.5,-50"/>
<text text-anchor="middle" x="392.5" y="-57" font-family="Helvetica,sans-Serif" font-size="10.00">linear_algebra::det</text>
</a>
</g>
</g>
<!-- Node2&#45;&gt;Node3 -->
<g id="edge2" class="edge">
<title>Node2&#45;&gt;Node3</title>
<path fill="none" stroke="midnightblue" d="M294.3,-52.92C305.38,-52.71 316.99,-52.69 328.17,-52.86"/>
<polygon fill="midnightblue" stroke="midnightblue" points="328.22,-56.36 338.29,-53.07 328.37,-49.37 328.22,-56.36"/>
</g>
<!-- Node4 -->
<g id="node4" class="node">
<title>Node4</title>
<g id="a_node4"><a xlink:href="structlinear__algebra_1_1matrix.html#ad02294881d9dd92ee77b417d416bed33" target="_top" xlink:title="Returns true if matrix is a square matrix.">
<polygon fill="white" stroke="black" points="330,-0.5 330,-30.5 455,-30.5 455,-0.5 330,-0.5"/>
<text text-anchor="start" x="338" y="-18.5" font-family="Helvetica,sans-Serif" font-size="10.00">linear_algebra::matrix</text>
<text text-anchor="middle" x="392.5" y="-7.5" font-family="Helvetica,sans-Serif" font-size="10.00">::is_square</text>
</a>
</g>
</g>
<!-- Node2&#45;&gt;Node4 -->
<g id="edge4" class="edge">
<title>Node2&#45;&gt;Node4</title>
<path fill="none" stroke="midnightblue" d="M268.57,-49.95C285.93,-45.09 307.61,-39.01 327.91,-33.32"/>
<polygon fill="midnightblue" stroke="midnightblue" points="329.06,-36.63 337.74,-30.57 327.17,-29.89 329.06,-36.63"/>
</g>
<!-- Node3&#45;&gt;Node2 -->
<g id="edge3" class="edge">
<title>Node3&#45;&gt;Node2</title>
<path fill="none" stroke="midnightblue" d="M338.29,-65.93C327.46,-66.21 315.91,-66.31 304.6,-66.22"/>
<polygon fill="midnightblue" stroke="midnightblue" points="304.35,-62.71 294.3,-66.08 304.25,-69.71 304.35,-62.71"/>
</g>
</g>
</svg>
