<?xml version="1.0" encoding="UTF-8" standalone="no"?>
<!DOCTYPE svg PUBLIC "-//W3C//DTD SVG 1.1//EN"
 "http://www.w3.org/Graphics/SVG/1.1/DTD/svg11.dtd">
<!-- Generated by graphviz version 2.43.0 (0)
 -->
<!-- Title: combinatorics::perm Pages: 1 -->
<svg width="1164pt" height="230pt"
 viewBox="0.00 0.00 1164.00 229.50" xmlns="http://www.w3.org/2000/svg" xmlns:xlink="http://www.w3.org/1999/xlink">
<g id="graph0" class="graph" transform="scale(1 1) rotate(0) translate(4 225.5)">
<title>combinatorics::perm</title>
<polygon fill="white" stroke="transparent" points="-4,4 -4,-225.5 1160,-225.5 1160,4 -4,4"/>
<!-- Node1 -->
<g id="node1" class="node">
<title>Node1</title>
<g id="a_node1"><a xlink:title=" ">
<polygon fill="#bfbfbf" stroke="black" points="1039,-152.5 1039,-171.5 1156,-171.5 1156,-152.5 1039,-152.5"/>
<text text-anchor="middle" x="1097.5" y="-159.5" font-family="Helvetica,sans-Serif" font-size="10.00">combinatorics::perm</text>
</a>
</g>
</g>
<!-- Node2 -->
<g id="node2" class="node">
<title>Node2</title>
<g id="a_node2"><a xlink:href="namespacecombinatorics.html#a24ea271b6415a4679e019562f474d88f" target="_top" xlink:title=" ">
<polygon fill="white" stroke="black" points="696,-190.5 696,-209.5 822,-209.5 822,-190.5 696,-190.5"/>
<text text-anchor="middle" x="759" y="-197.5" font-family="Helvetica,sans-Serif" font-size="10.00">combinatorics::choose</text>
</a>
</g>
</g>
<!-- Node1&#45;&gt;Node2 -->
<g id="edge1" class="edge">
<title>Node1&#45;&gt;Node2</title>
<path fill="none" stroke="midnightblue" d="M1045.09,-173.62C1031.47,-176.38 1016.73,-179.08 1003,-181 941.82,-189.58 871.38,-194.55 822.15,-197.24"/>
<polygon fill="midnightblue" stroke="midnightblue" points="1046.18,-176.97 1055.26,-171.51 1044.76,-170.12 1046.18,-176.97"/>
</g>
<!-- Node8 -->
<g id="node8" class="node">
<title>Node8</title>
<g id="a_node8"><a xlink:href="namespacecombinatorics.html#a20e5a1b40f76572aa1e18b228b6e4849" target="_top" xlink:title=" ">
<polygon fill="white" stroke="black" points="877.5,-152.5 877.5,-171.5 987.5,-171.5 987.5,-152.5 877.5,-152.5"/>
<text text-anchor="middle" x="932.5" y="-159.5" font-family="Helvetica,sans-Serif" font-size="10.00">combinatorics::fact</text>
</a>
</g>
</g>
<!-- Node1&#45;&gt;Node8 -->
<g id="edge7" class="edge">
<title>Node1&#45;&gt;Node8</title>
<path fill="none" stroke="midnightblue" d="M1028.33,-162C1014.77,-162 1000.71,-162 987.7,-162"/>
<polygon fill="midnightblue" stroke="midnightblue" points="1028.57,-165.5 1038.57,-162 1028.57,-158.5 1028.57,-165.5"/>
</g>
<!-- Node17 -->
<g id="node17" class="node">
<title>Node17</title>
<g id="a_node17"><a xlink:href="namespacecombinatorics.html#a354a245ee1f57f4f0586318676040d0a" target="_top" xlink:title=" ">
<polygon fill="white" stroke="black" points="862,-114.5 862,-133.5 1003,-133.5 1003,-114.5 862,-114.5"/>
<text text-anchor="middle" x="932.5" y="-121.5" font-family="Helvetica,sans-Serif" font-size="10.00">combinatorics::test_perm</text>
</a>
</g>
</g>
<!-- Node1&#45;&gt;Node17 -->
<g id="edge21" class="edge">
<title>Node1&#45;&gt;Node17</title>
<path fill="none" stroke="midnightblue" d="M1045.47,-150.1C1022.56,-144.76 995.9,-138.55 974.34,-133.52"/>
<polygon fill="midnightblue" stroke="midnightblue" points="1044.83,-153.55 1055.37,-152.41 1046.42,-146.73 1044.83,-153.55"/>
</g>
<!-- Node3 -->
<g id="node3" class="node">
<title>Node3</title>
<g id="a_node3"><a xlink:href="namespacecombinatorics.html#a4bb0c0ff8e23b9dfa30bdc71206a62be" target="_top" xlink:title=" ">
<polygon fill="white" stroke="black" points="546,-191 546,-221 656,-221 656,-191 546,-191"/>
<text text-anchor="start" x="554" y="-209" font-family="Helvetica,sans-Serif" font-size="10.00">combinatorics::test</text>
<text text-anchor="middle" x="601" y="-198" font-family="Helvetica,sans-Serif" font-size="10.00">_choose</text>
</a>
</g>
</g>
<!-- Node2&#45;&gt;Node3 -->
<g id="edge2" class="edge">
<title>Node2&#45;&gt;Node3</title>
<path fill="none" stroke="midnightblue" d="M685.68,-202.78C675.81,-203.16 665.81,-203.55 656.33,-203.91"/>
<polygon fill="midnightblue" stroke="midnightblue" points="686.04,-206.27 695.9,-202.39 685.77,-199.28 686.04,-206.27"/>
</g>
<!-- Node4 -->
<g id="node4" class="node">
<title>Node4</title>
<g id="a_node4"><a xlink:href="namespacecombinatorics.html#a4e91bb5e7575eceb8a1727698820b896" target="_top" xlink:title=" ">
<polygon fill="white" stroke="black" points="400,-131 400,-161 510,-161 510,-131 400,-131"/>
<text text-anchor="start" x="408" y="-149" font-family="Helvetica,sans-Serif" font-size="10.00">combinatorics::test</text>
<text text-anchor="middle" x="455" y="-138" font-family="Helvetica,sans-Serif" font-size="10.00">_combinatorics</text>
</a>
</g>
</g>
<!-- Node3&#45;&gt;Node4 -->
<g id="edge3" class="edge">
<title>Node3&#45;&gt;Node4</title>
<path fill="none" stroke="midnightblue" d="M554.37,-186.99C534.26,-178.61 510.95,-168.9 492.08,-161.03"/>
<polygon fill="midnightblue" stroke="midnightblue" points="553.09,-190.24 563.66,-190.86 555.78,-183.78 553.09,-190.24"/>
</g>
<!-- Node5 -->
<g id="node5" class="node">
<title>Node5</title>
<g id="a_node5"><a xlink:href="test_8cpp.html#aa1c715cac916839a95e25b65b4071c4a" target="_top" xlink:title=" ">
<polygon fill="white" stroke="black" points="160,-76.5 160,-95.5 213,-95.5 213,-76.5 160,-76.5"/>
<text text-anchor="middle" x="186.5" y="-83.5" font-family="Helvetica,sans-Serif" font-size="10.00">test_all</text>
</a>
</g>
</g>
<!-- Node4&#45;&gt;Node5 -->
<g id="edge4" class="edge">
<title>Node4&#45;&gt;Node5</title>
<path fill="none" stroke="midnightblue" d="M389.8,-131.55C333.11,-118.78 253.39,-100.83 213.04,-91.75"/>
<polygon fill="midnightblue" stroke="midnightblue" points="389.22,-135 399.75,-133.79 390.76,-128.17 389.22,-135"/>
</g>
<!-- Node6 -->
<g id="node6" class="node">
<title>Node6</title>
<g id="a_node6"><a xlink:href="test_8cpp.html#af095a232149097b5605064623a9345ac" target="_top" xlink:title=" ">
<polygon fill="white" stroke="black" points="77,-76.5 77,-95.5 124,-95.5 124,-76.5 77,-76.5"/>
<text text-anchor="middle" x="100.5" y="-83.5" font-family="Helvetica,sans-Serif" font-size="10.00">main2</text>
</a>
</g>
</g>
<!-- Node5&#45;&gt;Node6 -->
<g id="edge5" class="edge">
<title>Node5&#45;&gt;Node6</title>
<path fill="none" stroke="midnightblue" d="M149.59,-86C140.96,-86 131.99,-86 124.16,-86"/>
<polygon fill="midnightblue" stroke="midnightblue" points="149.84,-89.5 159.84,-86 149.84,-82.5 149.84,-89.5"/>
</g>
<!-- Node7 -->
<g id="node7" class="node">
<title>Node7</title>
<g id="a_node7"><a xlink:href="main_8hpp.html#a0ddf1224851353fc92bfbff6f499fa97" target="_top" xlink:title=" ">
<polygon fill="white" stroke="black" points="0,-76.5 0,-95.5 41,-95.5 41,-76.5 0,-76.5"/>
<text text-anchor="middle" x="20.5" y="-83.5" font-family="Helvetica,sans-Serif" font-size="10.00">main</text>
</a>
</g>
</g>
<!-- Node6&#45;&gt;Node7 -->
<g id="edge6" class="edge">
<title>Node6&#45;&gt;Node7</title>
<path fill="none" stroke="midnightblue" d="M66.66,-86C57.96,-86 48.84,-86 41.1,-86"/>
<polygon fill="midnightblue" stroke="midnightblue" points="66.94,-89.5 76.94,-86 66.94,-82.5 66.94,-89.5"/>
</g>
<!-- Node8&#45;&gt;Node2 -->
<g id="edge8" class="edge">
<title>Node8&#45;&gt;Node2</title>
<path fill="none" stroke="midnightblue" d="M878.46,-173.75C854.21,-179.13 825.85,-185.41 802.97,-190.48"/>
<polygon fill="midnightblue" stroke="midnightblue" points="879.22,-177.17 888.22,-171.59 877.7,-170.34 879.22,-177.17"/>
</g>
<!-- Node9 -->
<g id="node9" class="node">
<title>Node9</title>
<g id="a_node9"><a xlink:href="namespacecombinatorics.html#a49a9258d4d599545b41c0425b8c34aeb" target="_top" xlink:title=" ">
<polygon fill="white" stroke="black" points="692,-152.5 692,-171.5 826,-171.5 826,-152.5 692,-152.5"/>
<text text-anchor="middle" x="759" y="-159.5" font-family="Helvetica,sans-Serif" font-size="10.00">combinatorics::test_fact</text>
</a>
</g>
</g>
<!-- Node8&#45;&gt;Node9 -->
<g id="edge9" class="edge">
<title>Node8&#45;&gt;Node9</title>
<path fill="none" stroke="midnightblue" d="M867.18,-162C853.8,-162 839.69,-162 826.25,-162"/>
<polygon fill="midnightblue" stroke="midnightblue" points="867.24,-165.5 877.24,-162 867.24,-158.5 867.24,-165.5"/>
</g>
<!-- Node10 -->
<g id="node10" class="node">
<title>Node10</title>
<g id="a_node10"><a xlink:href="number__theory_8hpp.html#af0753ff92c84e6924e1fd6461e77b16f" target="_top" xlink:title=" ">
<polygon fill="white" stroke="black" points="734.5,-57.5 734.5,-76.5 783.5,-76.5 783.5,-57.5 734.5,-57.5"/>
<text text-anchor="middle" x="759" y="-64.5" font-family="Helvetica,sans-Serif" font-size="10.00">totient</text>
</a>
</g>
</g>
<!-- Node8&#45;&gt;Node10 -->
<g id="edge11" class="edge">
<title>Node8&#45;&gt;Node10</title>
<path fill="none" stroke="midnightblue" d="M877.31,-149.34C872.04,-147.47 866.85,-145.36 862,-143 824.88,-124.9 787.56,-92.69 770.15,-76.64"/>
<polygon fill="midnightblue" stroke="midnightblue" points="876.25,-152.68 886.84,-152.45 878.42,-146.02 876.25,-152.68"/>
</g>
<!-- Node9&#45;&gt;Node4 -->
<g id="edge10" class="edge">
<title>Node9&#45;&gt;Node4</title>
<path fill="none" stroke="midnightblue" d="M681.59,-157.95C628.06,-155.12 557.82,-151.39 510.03,-148.86"/>
<polygon fill="midnightblue" stroke="midnightblue" points="681.55,-161.45 691.72,-158.49 681.92,-154.46 681.55,-161.45"/>
</g>
<!-- Node11 -->
<g id="node11" class="node">
<title>Node11</title>
<g id="a_node11"><a xlink:href="number__theory_8hpp.html#a67527905c2b2c027c8b458902db2d05a" target="_top" xlink:title=" ">
<polygon fill="white" stroke="black" points="582,-76.5 582,-95.5 620,-95.5 620,-76.5 582,-76.5"/>
<text text-anchor="middle" x="601" y="-83.5" font-family="Helvetica,sans-Serif" font-size="10.00">dlog</text>
</a>
</g>
</g>
<!-- Node10&#45;&gt;Node11 -->
<g id="edge12" class="edge">
<title>Node10&#45;&gt;Node11</title>
<path fill="none" stroke="midnightblue" d="M724.08,-71.13C692.12,-75.02 645.44,-80.71 620.07,-83.8"/>
<polygon fill="midnightblue" stroke="midnightblue" points="724.8,-74.57 734.31,-69.89 723.96,-67.62 724.8,-74.57"/>
</g>
<!-- Node14 -->
<g id="node14" class="node">
<title>Node14</title>
<g id="a_node14"><a xlink:href="number__theory_8hpp.html#a6542b189f3759f43899a8b1978d58e2c" target="_top" xlink:title=" ">
<polygon fill="white" stroke="black" points="558,-38.5 558,-57.5 644,-57.5 644,-38.5 558,-38.5"/>
<text text-anchor="middle" x="601" y="-45.5" font-family="Helvetica,sans-Serif" font-size="10.00">primitive_root</text>
</a>
</g>
</g>
<!-- Node10&#45;&gt;Node14 -->
<g id="edge16" class="edge">
<title>Node10&#45;&gt;Node14</title>
<path fill="none" stroke="midnightblue" d="M724.14,-62.88C700.67,-60.02 669.27,-56.19 644.18,-53.14"/>
<polygon fill="midnightblue" stroke="midnightblue" points="723.96,-66.38 734.31,-64.11 724.8,-59.43 723.96,-66.38"/>
</g>
<!-- Node16 -->
<g id="node16" class="node">
<title>Node16</title>
<g id="a_node16"><a xlink:href="number__theory_8hpp.html#a8ae320acad5e35d58ca5ad7adc6ddd78" target="_top" xlink:title=" ">
<polygon fill="white" stroke="black" points="418.5,-0.5 418.5,-19.5 491.5,-19.5 491.5,-0.5 418.5,-0.5"/>
<text text-anchor="middle" x="455" y="-7.5" font-family="Helvetica,sans-Serif" font-size="10.00">test_totient</text>
</a>
</g>
</g>
<!-- Node10&#45;&gt;Node16 -->
<g id="edge19" class="edge">
<title>Node10&#45;&gt;Node16</title>
<path fill="none" stroke="midnightblue" d="M728.19,-53.53C708.18,-45.08 681.01,-34.74 656,-29 599.57,-16.04 532.23,-11.9 491.85,-10.59"/>
<polygon fill="midnightblue" stroke="midnightblue" points="726.83,-56.75 737.4,-57.49 729.6,-50.32 726.83,-56.75"/>
</g>
<!-- Node12 -->
<g id="node12" class="node">
<title>Node12</title>
<g id="a_node12"><a xlink:href="number__theory_8hpp.html#a7aac53ce82614d79c7098a1de32ed1e7" target="_top" xlink:title=" ">
<polygon fill="white" stroke="black" points="424,-76.5 424,-95.5 486,-95.5 486,-76.5 424,-76.5"/>
<text text-anchor="middle" x="455" y="-83.5" font-family="Helvetica,sans-Serif" font-size="10.00">test_dlog</text>
</a>
</g>
</g>
<!-- Node11&#45;&gt;Node12 -->
<g id="edge13" class="edge">
<title>Node11&#45;&gt;Node12</title>
<path fill="none" stroke="midnightblue" d="M571.6,-86C546.92,-86 511.29,-86 486.12,-86"/>
<polygon fill="midnightblue" stroke="midnightblue" points="571.76,-89.5 581.76,-86 571.76,-82.5 571.76,-89.5"/>
</g>
<!-- Node13 -->
<g id="node13" class="node">
<title>Node13</title>
<g id="a_node13"><a xlink:href="number__theory_8hpp.html#aed36f6b8b9706133e9b5302b1618e9ef" target="_top" xlink:title=" ">
<polygon fill="white" stroke="black" points="249,-57.5 249,-76.5 364,-76.5 364,-57.5 249,-57.5"/>
<text text-anchor="middle" x="306.5" y="-64.5" font-family="Helvetica,sans-Serif" font-size="10.00">test_number_theory</text>
</a>
</g>
</g>
<!-- Node12&#45;&gt;Node13 -->
<g id="edge14" class="edge">
<title>Node12&#45;&gt;Node13</title>
<path fill="none" stroke="midnightblue" d="M413.51,-80.75C398.26,-78.77 380.62,-76.48 364.17,-74.35"/>
<polygon fill="midnightblue" stroke="midnightblue" points="413.28,-84.25 423.65,-82.06 414.18,-77.31 413.28,-84.25"/>
</g>
<!-- Node13&#45;&gt;Node5 -->
<g id="edge15" class="edge">
<title>Node13&#45;&gt;Node5</title>
<path fill="none" stroke="midnightblue" d="M238.94,-77.72C229.79,-79.19 220.89,-80.62 213.13,-81.87"/>
<polygon fill="midnightblue" stroke="midnightblue" points="239.6,-81.16 248.92,-76.11 238.49,-74.24 239.6,-81.16"/>
</g>
<!-- Node15 -->
<g id="node15" class="node">
<title>Node15</title>
<g id="a_node15"><a xlink:href="number__theory_8hpp.html#a0ff115471f41e78245b5dc48eaf8032f" target="_top" xlink:title=" ">
<polygon fill="white" stroke="black" points="400,-38.5 400,-57.5 510,-57.5 510,-38.5 400,-38.5"/>
<text text-anchor="middle" x="455" y="-45.5" font-family="Helvetica,sans-Serif" font-size="10.00">test_primitive_root</text>
</a>
</g>
</g>
<!-- Node14&#45;&gt;Node15 -->
<g id="edge17" class="edge">
<title>Node14&#45;&gt;Node15</title>
<path fill="none" stroke="midnightblue" d="M547.89,-48C535.62,-48 522.52,-48 510.17,-48"/>
<polygon fill="midnightblue" stroke="midnightblue" points="547.96,-51.5 557.96,-48 547.96,-44.5 547.96,-51.5"/>
</g>
<!-- Node15&#45;&gt;Node13 -->
<g id="edge18" class="edge">
<title>Node15&#45;&gt;Node13</title>
<path fill="none" stroke="midnightblue" d="M389.69,-56.34C381.25,-57.43 372.66,-58.55 364.36,-59.63"/>
<polygon fill="midnightblue" stroke="midnightblue" points="390.4,-59.78 399.87,-55.02 389.5,-52.84 390.4,-59.78"/>
</g>
<!-- Node16&#45;&gt;Node13 -->
<g id="edge20" class="edge">
<title>Node16&#45;&gt;Node13</title>
<path fill="none" stroke="midnightblue" d="M416.22,-23.02C410.76,-24.98 405.22,-27.01 400,-29 375.83,-38.21 348.46,-49.57 329.8,-57.46"/>
<polygon fill="midnightblue" stroke="midnightblue" points="417.62,-26.23 425.87,-19.59 415.28,-19.63 417.62,-26.23"/>
</g>
<!-- Node17&#45;&gt;Node4 -->
<g id="edge22" class="edge">
<title>Node17&#45;&gt;Node4</title>
<path fill="none" stroke="midnightblue" d="M851.81,-127.69C754.92,-132.17 594,-139.62 510.31,-143.49"/>
<polygon fill="midnightblue" stroke="midnightblue" points="852.02,-131.18 861.85,-127.22 851.7,-124.19 852.02,-131.18"/>
</g>
</g>
</svg>
