<?xml version="1.0" encoding="UTF-8" standalone="no"?>
<!DOCTYPE svg PUBLIC "-//W3C//DTD SVG 1.1//EN"
 "http://www.w3.org/Graphics/SVG/1.1/DTD/svg11.dtd">
<!-- Generated by graphviz version 2.43.0 (0)
 -->
<!-- Title: utility::bit_ceil Pages: 1 -->
<svg width="514pt" height="97pt"
 viewBox="0.00 0.00 514.00 96.50" xmlns="http://www.w3.org/2000/svg" xmlns:xlink="http://www.w3.org/1999/xlink">
<g id="graph0" class="graph" transform="scale(1 1) rotate(0) translate(4 92.5)">
<title>utility::bit_ceil</title>
<polygon fill="white" stroke="transparent" points="-4,4 -4,-92.5 510,-92.5 510,4 -4,4"/>
<!-- Node1 -->
<g id="node1" class="node">
<title>Node1</title>
<g id="a_node1"><a xlink:title="Return the smallest power of two that is at least x.">
<polygon fill="#bfbfbf" stroke="black" points="420,-28 420,-47 506,-47 506,-28 420,-28"/>
<text text-anchor="middle" x="463" y="-35" font-family="Helvetica,sans-Serif" font-size="10.00">utility::bit_ceil</text>
</a>
</g>
</g>
<!-- Node2 -->
<g id="node2" class="node">
<title>Node2</title>
<g id="a_node2"><a xlink:href="fft_8hpp.html#a27632dcb2490189a02cc98a2029a4be3" target="_top" xlink:title="FFT using Cooley–Tukey FFT algorithm.">
<polygon fill="white" stroke="black" points="322.5,-50 322.5,-69 351.5,-69 351.5,-50 322.5,-50"/>
<text text-anchor="middle" x="337" y="-57" font-family="Helvetica,sans-Serif" font-size="10.00">fft</text>
</a>
</g>
</g>
<!-- Node1&#45;&gt;Node2 -->
<g id="edge1" class="edge">
<title>Node1&#45;&gt;Node2</title>
<path fill="none" stroke="midnightblue" d="M409.75,-46.77C388.52,-50.54 365.73,-54.58 351.67,-57.07"/>
<polygon fill="midnightblue" stroke="midnightblue" points="410.44,-50.2 419.67,-45.01 409.22,-43.31 410.44,-50.2"/>
</g>
<!-- Node5 -->
<g id="node5" class="node">
<title>Node5</title>
<g id="a_node5"><a xlink:href="namespaceutility_1_1test.html#a1dc18cbf86fee8a275f4cc46d125f43c" target="_top" xlink:title=" ">
<polygon fill="white" stroke="black" points="290,-0.5 290,-30.5 384,-30.5 384,-0.5 290,-0.5"/>
<text text-anchor="start" x="298" y="-18.5" font-family="Helvetica,sans-Serif" font-size="10.00">utility::test::test</text>
<text text-anchor="middle" x="337" y="-7.5" font-family="Helvetica,sans-Serif" font-size="10.00">_bit_ceil</text>
</a>
</g>
</g>
<!-- Node1&#45;&gt;Node5 -->
<g id="edge5" class="edge">
<title>Node1&#45;&gt;Node5</title>
<path fill="none" stroke="midnightblue" d="M409.61,-28.21C401.23,-26.72 392.61,-25.19 384.38,-23.73"/>
<polygon fill="midnightblue" stroke="midnightblue" points="409.22,-31.69 419.67,-29.99 410.44,-24.8 409.22,-31.69"/>
</g>
<!-- Node3 -->
<g id="node3" class="node">
<title>Node3</title>
<g id="a_node3"><a xlink:href="fft_8hpp.html#ad433b30dd657e617f55a72340fcefd4a" target="_top" xlink:title=" ">
<polygon fill="white" stroke="black" points="80.5,-69 80.5,-88 120.5,-88 120.5,-69 80.5,-69"/>
<text text-anchor="middle" x="100.5" y="-76" font-family="Helvetica,sans-Serif" font-size="10.00">conv</text>
</a>
</g>
</g>
<!-- Node2&#45;&gt;Node3 -->
<g id="edge2" class="edge">
<title>Node2&#45;&gt;Node3</title>
<path fill="none" stroke="midnightblue" d="M312.5,-66.45C296.24,-70.88 274.01,-76.21 254,-78.5 206.39,-83.94 149.87,-81.69 120.84,-79.9"/>
<polygon fill="midnightblue" stroke="midnightblue" points="313.56,-69.78 322.24,-63.7 311.67,-63.05 313.56,-69.78"/>
</g>
<!-- Node4 -->
<g id="node4" class="node">
<title>Node4</title>
<g id="a_node4"><a xlink:href="fft_8hpp.html#af359fe1ab295171c84c1da7bdfc95018" target="_top" xlink:title="Returns the inverse FFT.">
<polygon fill="white" stroke="black" points="191.5,-50 191.5,-69 222.5,-69 222.5,-50 191.5,-50"/>
<text text-anchor="middle" x="207" y="-57" font-family="Helvetica,sans-Serif" font-size="10.00">ifft</text>
</a>
</g>
</g>
<!-- Node2&#45;&gt;Node4 -->
<g id="edge3" class="edge">
<title>Node2&#45;&gt;Node4</title>
<path fill="none" stroke="midnightblue" d="M312.09,-59.5C285.88,-59.5 244.65,-59.5 222.78,-59.5"/>
<polygon fill="midnightblue" stroke="midnightblue" points="312.3,-63 322.3,-59.5 312.3,-56 312.3,-63"/>
</g>
<!-- Node4&#45;&gt;Node3 -->
<g id="edge4" class="edge">
<title>Node4&#45;&gt;Node3</title>
<path fill="none" stroke="midnightblue" d="M181.38,-63.98C162.77,-67.36 137.59,-71.94 120.51,-75.04"/>
<polygon fill="midnightblue" stroke="midnightblue" points="182.26,-67.37 191.47,-62.14 181,-60.49 182.26,-67.37"/>
</g>
<!-- Node6 -->
<g id="node6" class="node">
<title>Node6</title>
<g id="a_node6"><a xlink:href="namespaceutility_1_1test.html#a8aec6a2b496df7ad483a46db1649ea2c" target="_top" xlink:title=" ">
<polygon fill="white" stroke="black" points="160,-0.5 160,-30.5 254,-30.5 254,-0.5 160,-0.5"/>
<text text-anchor="start" x="168" y="-18.5" font-family="Helvetica,sans-Serif" font-size="10.00">utility::test::test</text>
<text text-anchor="middle" x="207" y="-7.5" font-family="Helvetica,sans-Serif" font-size="10.00">_utility</text>
</a>
</g>
</g>
<!-- Node5&#45;&gt;Node6 -->
<g id="edge6" class="edge">
<title>Node5&#45;&gt;Node6</title>
<path fill="none" stroke="midnightblue" d="M279.56,-15.5C271.06,-15.5 262.39,-15.5 254.14,-15.5"/>
<polygon fill="midnightblue" stroke="midnightblue" points="279.79,-19 289.79,-15.5 279.79,-12 279.79,-19"/>
</g>
<!-- Node7 -->
<g id="node7" class="node">
<title>Node7</title>
<g id="a_node7"><a xlink:href="test_8cpp.html#af095a232149097b5605064623a9345ac" target="_top" xlink:title=" ">
<polygon fill="white" stroke="black" points="77,-6 77,-25 124,-25 124,-6 77,-6"/>
<text text-anchor="middle" x="100.5" y="-13" font-family="Helvetica,sans-Serif" font-size="10.00">main2</text>
</a>
</g>
</g>
<!-- Node6&#45;&gt;Node7 -->
<g id="edge7" class="edge">
<title>Node6&#45;&gt;Node7</title>
<path fill="none" stroke="midnightblue" d="M149.68,-15.5C140.67,-15.5 131.82,-15.5 124.22,-15.5"/>
<polygon fill="midnightblue" stroke="midnightblue" points="149.86,-19 159.86,-15.5 149.86,-12 149.86,-19"/>
</g>
<!-- Node8 -->
<g id="node8" class="node">
<title>Node8</title>
<g id="a_node8"><a xlink:href="main_8hpp.html#a0ddf1224851353fc92bfbff6f499fa97" target="_top" xlink:title=" ">
<polygon fill="white" stroke="black" points="0,-6 0,-25 41,-25 41,-6 0,-6"/>
<text text-anchor="middle" x="20.5" y="-13" font-family="Helvetica,sans-Serif" font-size="10.00">main</text>
</a>
</g>
</g>
<!-- Node7&#45;&gt;Node8 -->
<g id="edge8" class="edge">
<title>Node7&#45;&gt;Node8</title>
<path fill="none" stroke="midnightblue" d="M66.66,-15.5C57.96,-15.5 48.84,-15.5 41.1,-15.5"/>
<polygon fill="midnightblue" stroke="midnightblue" points="66.94,-19 76.94,-15.5 66.94,-12 66.94,-19"/>
</g>
</g>
</svg>
