<?xml version="1.0" encoding="UTF-8" standalone="no"?>
<!DOCTYPE svg PUBLIC "-//W3C//DTD SVG 1.1//EN"
 "http://www.w3.org/Graphics/SVG/1.1/DTD/svg11.dtd">
<!-- Generated by graphviz version 2.43.0 (0)
 -->
<!-- Title: graph_theory::add_edge Pages: 1 -->
<svg width="696pt" height="215pt"
 viewBox="0.00 0.00 696.00 214.50" xmlns="http://www.w3.org/2000/svg" xmlns:xlink="http://www.w3.org/1999/xlink">
<g id="graph0" class="graph" transform="scale(1 1) rotate(0) translate(4 210.5)">
<title>graph_theory::add_edge</title>
<polygon fill="white" stroke="transparent" points="-4,4 -4,-210.5 692,-210.5 692,4 -4,4"/>
<!-- Node1 -->
<g id="node1" class="node">
<title>Node1</title>
<g id="a_node1"><a xlink:title=" ">
<polygon fill="#bfbfbf" stroke="black" points="554,-99 554,-118 688,-118 688,-99 554,-99"/>
<text text-anchor="middle" x="621" y="-106" font-family="Helvetica,sans-Serif" font-size="10.00">graph_theory::add_edge</text>
</a>
</g>
</g>
<!-- Node2 -->
<g id="node2" class="node">
<title>Node2</title>
<g id="a_node2"><a xlink:href="namespacegraph__theory.html#a305e818c99814cd465186b57c0a73f50" target="_top" xlink:title=" ">
<polygon fill="white" stroke="black" points="390,-187 390,-206 518,-206 518,-187 390,-187"/>
<text text-anchor="middle" x="454" y="-194" font-family="Helvetica,sans-Serif" font-size="10.00">graph_theory::graph_in</text>
</a>
</g>
</g>
<!-- Node1&#45;&gt;Node2 -->
<g id="edge1" class="edge">
<title>Node1&#45;&gt;Node2</title>
<path fill="none" stroke="midnightblue" d="M600.54,-124.31C580.78,-139.7 548.78,-162.87 518,-177.5 510.26,-181.18 501.65,-184.33 493.34,-186.95"/>
<polygon fill="midnightblue" stroke="midnightblue" points="602.8,-126.98 608.47,-118.03 598.45,-121.49 602.8,-126.98"/>
</g>
<!-- Node3 -->
<g id="node3" class="node">
<title>Node3</title>
<g id="a_node3"><a xlink:href="namespacegraph__theory.html#af419fd09d176890f30126a49064cbd9b" target="_top" xlink:title=" ">
<polygon fill="white" stroke="black" points="401.5,-137.5 401.5,-167.5 506.5,-167.5 506.5,-137.5 401.5,-137.5"/>
<text text-anchor="start" x="409.5" y="-155.5" font-family="Helvetica,sans-Serif" font-size="10.00">graph_theory::test</text>
<text text-anchor="middle" x="454" y="-144.5" font-family="Helvetica,sans-Serif" font-size="10.00">_add_edge</text>
</a>
</g>
</g>
<!-- Node1&#45;&gt;Node3 -->
<g id="edge2" class="edge">
<title>Node1&#45;&gt;Node3</title>
<path fill="none" stroke="midnightblue" d="M574.26,-120.7C553.29,-126.29 528.35,-132.94 506.7,-138.71"/>
<polygon fill="midnightblue" stroke="midnightblue" points="575.44,-124.01 584.2,-118.05 573.63,-117.24 575.44,-124.01"/>
</g>
<!-- Node8 -->
<g id="node8" class="node">
<title>Node8</title>
<g id="a_node8"><a xlink:href="namespacegraph__theory.html#a2aea60be1c24dc82badd96e40923038b" target="_top" xlink:title=" ">
<polygon fill="white" stroke="black" points="391.5,-99 391.5,-118 516.5,-118 516.5,-99 391.5,-99"/>
<text text-anchor="middle" x="454" y="-106" font-family="Helvetica,sans-Serif" font-size="10.00">graph_theory::test_bfs</text>
</a>
</g>
</g>
<!-- Node1&#45;&gt;Node8 -->
<g id="edge7" class="edge">
<title>Node1&#45;&gt;Node8</title>
<path fill="none" stroke="midnightblue" d="M543.67,-108.5C534.61,-108.5 525.45,-108.5 516.63,-108.5"/>
<polygon fill="midnightblue" stroke="midnightblue" points="543.84,-112 553.84,-108.5 543.84,-105 543.84,-112"/>
</g>
<!-- Node9 -->
<g id="node9" class="node">
<title>Node9</title>
<g id="a_node9"><a xlink:href="namespacegraph__theory.html#aeebcf017acc0533f31c46d62d0cebe72" target="_top" xlink:title=" ">
<polygon fill="white" stroke="black" points="401.5,-49.5 401.5,-79.5 506.5,-79.5 506.5,-49.5 401.5,-49.5"/>
<text text-anchor="start" x="409.5" y="-67.5" font-family="Helvetica,sans-Serif" font-size="10.00">graph_theory::test</text>
<text text-anchor="middle" x="454" y="-56.5" font-family="Helvetica,sans-Serif" font-size="10.00">_bipartite</text>
</a>
</g>
</g>
<!-- Node1&#45;&gt;Node9 -->
<g id="edge9" class="edge">
<title>Node1&#45;&gt;Node9</title>
<path fill="none" stroke="midnightblue" d="M574.26,-96.3C553.29,-90.71 528.35,-84.06 506.7,-78.29"/>
<polygon fill="midnightblue" stroke="midnightblue" points="573.63,-99.76 584.2,-98.95 575.44,-92.99 573.63,-99.76"/>
</g>
<!-- Node10 -->
<g id="node10" class="node">
<title>Node10</title>
<g id="a_node10"><a xlink:href="namespacegraph__theory.html#abbe5b980d32347acbd0811f9c189d097" target="_top" xlink:title=" ">
<polygon fill="white" stroke="black" points="401.5,-0.5 401.5,-30.5 506.5,-30.5 506.5,-0.5 401.5,-0.5"/>
<text text-anchor="start" x="409.5" y="-18.5" font-family="Helvetica,sans-Serif" font-size="10.00">graph_theory::test</text>
<text text-anchor="middle" x="454" y="-7.5" font-family="Helvetica,sans-Serif" font-size="10.00">_max_match</text>
</a>
</g>
</g>
<!-- Node1&#45;&gt;Node10 -->
<g id="edge11" class="edge">
<title>Node1&#45;&gt;Node10</title>
<path fill="none" stroke="midnightblue" d="M599.23,-92.76C579.17,-78.02 547.56,-56 518,-40.5 511.23,-36.95 503.83,-33.59 496.57,-30.55"/>
<polygon fill="midnightblue" stroke="midnightblue" points="597.22,-95.63 607.34,-98.78 601.4,-90.01 597.22,-95.63"/>
</g>
<!-- Node4 -->
<g id="node4" class="node">
<title>Node4</title>
<g id="a_node4"><a xlink:href="namespacegraph__theory.html#aa2b38897f4c429325f0eb73b1137755a" target="_top" xlink:title=" ">
<polygon fill="white" stroke="black" points="249,-71.5 249,-101.5 354,-101.5 354,-71.5 249,-71.5"/>
<text text-anchor="start" x="257" y="-89.5" font-family="Helvetica,sans-Serif" font-size="10.00">graph_theory::test</text>
<text text-anchor="middle" x="301.5" y="-78.5" font-family="Helvetica,sans-Serif" font-size="10.00">_graph_theory</text>
</a>
</g>
</g>
<!-- Node3&#45;&gt;Node4 -->
<g id="edge3" class="edge">
<title>Node3&#45;&gt;Node4</title>
<path fill="none" stroke="midnightblue" d="M404.47,-133.59C399.57,-131.57 394.67,-129.52 390,-127.5 371.06,-119.31 350.12,-109.53 333.48,-101.57"/>
<polygon fill="midnightblue" stroke="midnightblue" points="403.28,-136.88 413.86,-137.4 405.91,-130.39 403.28,-136.88"/>
</g>
<!-- Node5 -->
<g id="node5" class="node">
<title>Node5</title>
<g id="a_node5"><a xlink:href="test_8cpp.html#aa1c715cac916839a95e25b65b4071c4a" target="_top" xlink:title=" ">
<polygon fill="white" stroke="black" points="160,-77 160,-96 213,-96 213,-77 160,-77"/>
<text text-anchor="middle" x="186.5" y="-84" font-family="Helvetica,sans-Serif" font-size="10.00">test_all</text>
</a>
</g>
</g>
<!-- Node4&#45;&gt;Node5 -->
<g id="edge4" class="edge">
<title>Node4&#45;&gt;Node5</title>
<path fill="none" stroke="midnightblue" d="M238.72,-86.5C229.67,-86.5 220.81,-86.5 213.07,-86.5"/>
<polygon fill="midnightblue" stroke="midnightblue" points="238.96,-90 248.96,-86.5 238.96,-83 238.96,-90"/>
</g>
<!-- Node6 -->
<g id="node6" class="node">
<title>Node6</title>
<g id="a_node6"><a xlink:href="test_8cpp.html#af095a232149097b5605064623a9345ac" target="_top" xlink:title=" ">
<polygon fill="white" stroke="black" points="77,-77 77,-96 124,-96 124,-77 77,-77"/>
<text text-anchor="middle" x="100.5" y="-84" font-family="Helvetica,sans-Serif" font-size="10.00">main2</text>
</a>
</g>
</g>
<!-- Node5&#45;&gt;Node6 -->
<g id="edge5" class="edge">
<title>Node5&#45;&gt;Node6</title>
<path fill="none" stroke="midnightblue" d="M149.59,-86.5C140.96,-86.5 131.99,-86.5 124.16,-86.5"/>
<polygon fill="midnightblue" stroke="midnightblue" points="149.84,-90 159.84,-86.5 149.84,-83 149.84,-90"/>
</g>
<!-- Node7 -->
<g id="node7" class="node">
<title>Node7</title>
<g id="a_node7"><a xlink:href="main_8hpp.html#a0ddf1224851353fc92bfbff6f499fa97" target="_top" xlink:title=" ">
<polygon fill="white" stroke="black" points="0,-77 0,-96 41,-96 41,-77 0,-77"/>
<text text-anchor="middle" x="20.5" y="-84" font-family="Helvetica,sans-Serif" font-size="10.00">main</text>
</a>
</g>
</g>
<!-- Node6&#45;&gt;Node7 -->
<g id="edge6" class="edge">
<title>Node6&#45;&gt;Node7</title>
<path fill="none" stroke="midnightblue" d="M66.66,-86.5C57.96,-86.5 48.84,-86.5 41.1,-86.5"/>
<polygon fill="midnightblue" stroke="midnightblue" points="66.94,-90 76.94,-86.5 66.94,-83 66.94,-90"/>
</g>
<!-- Node8&#45;&gt;Node4 -->
<g id="edge8" class="edge">
<title>Node8&#45;&gt;Node4</title>
<path fill="none" stroke="midnightblue" d="M381.44,-98.04C372.25,-96.7 362.99,-95.34 354.21,-94.06"/>
<polygon fill="midnightblue" stroke="midnightblue" points="380.95,-101.5 391.35,-99.49 381.96,-94.58 380.95,-101.5"/>
</g>
<!-- Node9&#45;&gt;Node4 -->
<g id="edge10" class="edge">
<title>Node9&#45;&gt;Node4</title>
<path fill="none" stroke="midnightblue" d="M391.04,-73.56C378.77,-75.35 366.02,-77.22 354.13,-78.95"/>
<polygon fill="midnightblue" stroke="midnightblue" points="391.82,-76.98 401.21,-72.07 390.81,-70.05 391.82,-76.98"/>
</g>
<!-- Node10&#45;&gt;Node4 -->
<g id="edge12" class="edge">
<title>Node10&#45;&gt;Node4</title>
<path fill="none" stroke="midnightblue" d="M403.6,-34.52C398.97,-36.48 394.38,-38.49 390,-40.5 369.26,-50.03 346.45,-62.08 329.32,-71.45"/>
<polygon fill="midnightblue" stroke="midnightblue" points="405.17,-37.66 413.07,-30.6 402.49,-31.19 405.17,-37.66"/>
</g>
</g>
</svg>
