<?xml version="1.0" encoding="UTF-8" standalone="no"?>
<!DOCTYPE svg PUBLIC "-//W3C//DTD SVG 1.1//EN"
 "http://www.w3.org/Graphics/SVG/1.1/DTD/svg11.dtd">
<!-- Generated by graphviz version 2.43.0 (0)
 -->
<!-- Title: utility::nx2 Pages: 1 -->
<svg width="592pt" height="104pt"
 viewBox="0.00 0.00 592.00 104.00" xmlns="http://www.w3.org/2000/svg" xmlns:xlink="http://www.w3.org/1999/xlink">
<g id="graph0" class="graph" transform="scale(1 1) rotate(0) translate(4 100)">
<title>utility::nx2</title>
<polygon fill="white" stroke="transparent" points="-4,4 -4,-100 588,-100 588,4 -4,4"/>
<!-- Node1 -->
<g id="node1" class="node">
<title>Node1</title>
<g id="a_node1"><a xlink:title=" ">
<polygon fill="#bfbfbf" stroke="black" points="516,-38.5 516,-57.5 584,-57.5 584,-38.5 516,-38.5"/>
<text text-anchor="middle" x="550" y="-45.5" font-family="Helvetica,sans-Serif" font-size="10.00">utility::nx2</text>
</a>
</g>
</g>
<!-- Node2 -->
<g id="node2" class="node">
<title>Node2</title>
<g id="a_node2"><a xlink:href="fft_8hpp.html#a27632dcb2490189a02cc98a2029a4be3" target="_top" xlink:title=" ">
<polygon fill="white" stroke="black" points="419.5,-76.5 419.5,-95.5 448.5,-95.5 448.5,-76.5 419.5,-76.5"/>
<text text-anchor="middle" x="434" y="-83.5" font-family="Helvetica,sans-Serif" font-size="10.00">fft</text>
</a>
</g>
</g>
<!-- Node1&#45;&gt;Node2 -->
<g id="edge1" class="edge">
<title>Node1&#45;&gt;Node2</title>
<path fill="none" stroke="midnightblue" d="M510.71,-60.76C489.25,-67.92 463.82,-76.39 448.57,-81.48"/>
<polygon fill="midnightblue" stroke="midnightblue" points="511.85,-64.07 520.23,-57.59 509.64,-57.43 511.85,-64.07"/>
</g>
<!-- Node5 -->
<g id="node5" class="node">
<title>Node5</title>
<g id="a_node5"><a xlink:href="structseg2.html#aa4a805dbfc4482dcb84d65bbc2c0da91" target="_top" xlink:title=" ">
<polygon fill="white" stroke="black" points="399.5,-38.5 399.5,-57.5 468.5,-57.5 468.5,-38.5 399.5,-38.5"/>
<text text-anchor="middle" x="434" y="-45.5" font-family="Helvetica,sans-Serif" font-size="10.00">seg2::seg2</text>
</a>
</g>
</g>
<!-- Node1&#45;&gt;Node5 -->
<g id="edge5" class="edge">
<title>Node1&#45;&gt;Node5</title>
<path fill="none" stroke="midnightblue" d="M505.65,-48C493.35,-48 480.14,-48 468.52,-48"/>
<polygon fill="midnightblue" stroke="midnightblue" points="505.72,-51.5 515.72,-48 505.72,-44.5 505.72,-51.5"/>
</g>
<!-- Node6 -->
<g id="node6" class="node">
<title>Node6</title>
<g id="a_node6"><a xlink:href="namespaceutility.html#aff688c4f151d8b34df3a40c099d8dbe8" target="_top" xlink:title=" ">
<polygon fill="white" stroke="black" points="388,-0.5 388,-19.5 480,-19.5 480,-0.5 388,-0.5"/>
<text text-anchor="middle" x="434" y="-7.5" font-family="Helvetica,sans-Serif" font-size="10.00">utility::test_nx2</text>
</a>
</g>
</g>
<!-- Node1&#45;&gt;Node6 -->
<g id="edge6" class="edge">
<title>Node1&#45;&gt;Node6</title>
<path fill="none" stroke="midnightblue" d="M510.52,-35.17C495.23,-30.08 477.93,-24.31 463.76,-19.59"/>
<polygon fill="midnightblue" stroke="midnightblue" points="509.64,-38.57 520.23,-38.41 511.85,-31.93 509.64,-38.57"/>
</g>
<!-- Node3 -->
<g id="node3" class="node">
<title>Node3</title>
<g id="a_node3"><a xlink:href="fft_8hpp.html#ad433b30dd657e617f55a72340fcefd4a" target="_top" xlink:title=" ">
<polygon fill="white" stroke="black" points="166.5,-76.5 166.5,-95.5 206.5,-95.5 206.5,-76.5 166.5,-76.5"/>
<text text-anchor="middle" x="186.5" y="-83.5" font-family="Helvetica,sans-Serif" font-size="10.00">conv</text>
</a>
</g>
</g>
<!-- Node2&#45;&gt;Node3 -->
<g id="edge2" class="edge">
<title>Node2&#45;&gt;Node3</title>
<path fill="none" stroke="midnightblue" d="M409.28,-86C360.72,-86 250.84,-86 206.54,-86"/>
<polygon fill="midnightblue" stroke="midnightblue" points="409.45,-89.5 419.45,-86 409.45,-82.5 409.45,-89.5"/>
</g>
<!-- Node4 -->
<g id="node4" class="node">
<title>Node4</title>
<g id="a_node4"><a xlink:href="fft_8hpp.html#af359fe1ab295171c84c1da7bdfc95018" target="_top" xlink:title=" ">
<polygon fill="white" stroke="black" points="285,-57.5 285,-76.5 316,-76.5 316,-57.5 285,-57.5"/>
<text text-anchor="middle" x="300.5" y="-64.5" font-family="Helvetica,sans-Serif" font-size="10.00">ifft</text>
</a>
</g>
</g>
<!-- Node2&#45;&gt;Node4 -->
<g id="edge3" class="edge">
<title>Node2&#45;&gt;Node4</title>
<path fill="none" stroke="midnightblue" d="M409.23,-82.57C382.08,-78.64 338.51,-72.35 316,-69.1"/>
<polygon fill="midnightblue" stroke="midnightblue" points="409.02,-86.07 419.42,-84.04 410.03,-79.14 409.02,-86.07"/>
</g>
<!-- Node4&#45;&gt;Node3 -->
<g id="edge4" class="edge">
<title>Node4&#45;&gt;Node3</title>
<path fill="none" stroke="midnightblue" d="M274.98,-71.16C254.43,-74.65 225.52,-79.55 206.65,-82.75"/>
<polygon fill="midnightblue" stroke="midnightblue" points="275.58,-74.61 284.86,-69.48 274.41,-67.71 275.58,-74.61"/>
</g>
<!-- Node7 -->
<g id="node7" class="node">
<title>Node7</title>
<g id="a_node7"><a xlink:href="namespaceutility.html#a5037ce073dfbaeaf7083a725780cdaf1" target="_top" xlink:title=" ">
<polygon fill="white" stroke="black" points="249,-0.5 249,-19.5 352,-19.5 352,-0.5 249,-0.5"/>
<text text-anchor="middle" x="300.5" y="-7.5" font-family="Helvetica,sans-Serif" font-size="10.00">utility::test_utility</text>
</a>
</g>
</g>
<!-- Node6&#45;&gt;Node7 -->
<g id="edge7" class="edge">
<title>Node6&#45;&gt;Node7</title>
<path fill="none" stroke="midnightblue" d="M377.63,-10C369.21,-10 360.56,-10 352.25,-10"/>
<polygon fill="midnightblue" stroke="midnightblue" points="377.75,-13.5 387.75,-10 377.75,-6.5 377.75,-13.5"/>
</g>
<!-- Node8 -->
<g id="node8" class="node">
<title>Node8</title>
<g id="a_node8"><a xlink:href="test_8cpp.html#aa1c715cac916839a95e25b65b4071c4a" target="_top" xlink:title=" ">
<polygon fill="white" stroke="black" points="160,-0.5 160,-19.5 213,-19.5 213,-0.5 160,-0.5"/>
<text text-anchor="middle" x="186.5" y="-7.5" font-family="Helvetica,sans-Serif" font-size="10.00">test_all</text>
</a>
</g>
</g>
<!-- Node7&#45;&gt;Node8 -->
<g id="edge8" class="edge">
<title>Node7&#45;&gt;Node8</title>
<path fill="none" stroke="midnightblue" d="M238.56,-10C229.55,-10 220.72,-10 213,-10"/>
<polygon fill="midnightblue" stroke="midnightblue" points="238.74,-13.5 248.74,-10 238.74,-6.5 238.74,-13.5"/>
</g>
<!-- Node9 -->
<g id="node9" class="node">
<title>Node9</title>
<g id="a_node9"><a xlink:href="test_8cpp.html#af095a232149097b5605064623a9345ac" target="_top" xlink:title=" ">
<polygon fill="white" stroke="black" points="77,-0.5 77,-19.5 124,-19.5 124,-0.5 77,-0.5"/>
<text text-anchor="middle" x="100.5" y="-7.5" font-family="Helvetica,sans-Serif" font-size="10.00">main2</text>
</a>
</g>
</g>
<!-- Node8&#45;&gt;Node9 -->
<g id="edge9" class="edge">
<title>Node8&#45;&gt;Node9</title>
<path fill="none" stroke="midnightblue" d="M149.59,-10C140.96,-10 131.99,-10 124.16,-10"/>
<polygon fill="midnightblue" stroke="midnightblue" points="149.84,-13.5 159.84,-10 149.84,-6.5 149.84,-13.5"/>
</g>
<!-- Node10 -->
<g id="node10" class="node">
<title>Node10</title>
<g id="a_node10"><a xlink:href="main_8hpp.html#a0ddf1224851353fc92bfbff6f499fa97" target="_top" xlink:title=" ">
<polygon fill="white" stroke="black" points="0,-0.5 0,-19.5 41,-19.5 41,-0.5 0,-0.5"/>
<text text-anchor="middle" x="20.5" y="-7.5" font-family="Helvetica,sans-Serif" font-size="10.00">main</text>
</a>
</g>
</g>
<!-- Node9&#45;&gt;Node10 -->
<g id="edge10" class="edge">
<title>Node9&#45;&gt;Node10</title>
<path fill="none" stroke="midnightblue" d="M66.66,-10C57.96,-10 48.84,-10 41.1,-10"/>
<polygon fill="midnightblue" stroke="midnightblue" points="66.94,-13.5 76.94,-10 66.94,-6.5 66.94,-13.5"/>
</g>
</g>
</svg>
