<?xml version="1.0" encoding="UTF-8" standalone="no"?>
<!DOCTYPE svg PUBLIC "-//W3C//DTD SVG 1.1//EN"
 "http://www.w3.org/Graphics/SVG/1.1/DTD/svg11.dtd">
<!-- Generated by graphviz version 2.43.0 (0)
 -->
<!-- Title: utility::key_compare Pages: 1 -->
<svg width="828pt" height="158pt"
 viewBox="0.00 0.00 828.00 158.00" xmlns="http://www.w3.org/2000/svg" xmlns:xlink="http://www.w3.org/1999/xlink">
<g id="graph0" class="graph" transform="scale(1 1) rotate(0) translate(4 154)">
<title>utility::key_compare</title>
<polygon fill="white" stroke="transparent" points="-4,4 -4,-154 824,-154 824,4 -4,4"/>
<!-- Node1 -->
<g id="node1" class="node">
<title>Node1</title>
<g id="a_node1"><a xlink:title=" ">
<polygon fill="#bfbfbf" stroke="black" points="704,-69 704,-88 820,-88 820,-69 704,-69"/>
<text text-anchor="middle" x="762" y="-76" font-family="Helvetica,sans-Serif" font-size="10.00">utility::key_compare</text>
</a>
</g>
</g>
<!-- Node2 -->
<g id="node2" class="node">
<title>Node2</title>
<g id="a_node2"><a xlink:href="structconvex__hull__trick_1_1CHT.html#a2166ed9dd69f17fe9f4ed77fbf4d0907" target="_top" xlink:title=" ">
<polygon fill="white" stroke="black" points="398,-119.5 398,-149.5 506,-149.5 506,-119.5 398,-119.5"/>
<text text-anchor="start" x="406" y="-137.5" font-family="Helvetica,sans-Serif" font-size="10.00">convex_hull_trick::</text>
<text text-anchor="middle" x="452" y="-126.5" font-family="Helvetica,sans-Serif" font-size="10.00">CHT::CHT</text>
</a>
</g>
</g>
<!-- Node1&#45;&gt;Node2 -->
<g id="edge1" class="edge">
<title>Node1&#45;&gt;Node2</title>
<path fill="none" stroke="midnightblue" d="M732.97,-92.58C714.89,-100.99 690.61,-111.07 668,-116.5 613.91,-129.49 550.23,-133.47 506.28,-134.52"/>
<polygon fill="midnightblue" stroke="midnightblue" points="734.81,-95.58 742.33,-88.11 731.8,-89.26 734.81,-95.58"/>
</g>
<!-- Node3 -->
<g id="node3" class="node">
<title>Node3</title>
<g id="a_node3"><a xlink:href="namespaceconvex__hull__trick.html#a564910060ca4728c5efc347bb67c8aaa" target="_top" xlink:title=" ">
<polygon fill="white" stroke="black" points="542,-88 542,-107 668,-107 668,-88 542,-88"/>
<text text-anchor="middle" x="605" y="-95" font-family="Helvetica,sans-Serif" font-size="10.00">convex_hull_trick::hull</text>
</a>
</g>
</g>
<!-- Node1&#45;&gt;Node3 -->
<g id="edge2" class="edge">
<title>Node1&#45;&gt;Node3</title>
<path fill="none" stroke="midnightblue" d="M693.57,-86.77C685.16,-87.8 676.58,-88.85 668.25,-89.87"/>
<polygon fill="midnightblue" stroke="midnightblue" points="694.22,-90.21 703.72,-85.52 693.37,-83.26 694.22,-90.21"/>
</g>
<!-- Node9 -->
<g id="node9" class="node">
<title>Node9</title>
<g id="a_node9"><a xlink:href="cht_8hpp.html#a18b063c150d95a5ec77dab71218c4f48" target="_top" xlink:title=" ">
<polygon fill="white" stroke="black" points="561.5,-50 561.5,-69 648.5,-69 648.5,-50 561.5,-50"/>
<text text-anchor="middle" x="605" y="-57" font-family="Helvetica,sans-Serif" font-size="10.00">std::operator&lt;</text>
</a>
</g>
</g>
<!-- Node1&#45;&gt;Node9 -->
<g id="edge9" class="edge">
<title>Node1&#45;&gt;Node9</title>
<path fill="none" stroke="midnightblue" d="M693.74,-70.26C678.38,-68.37 662.48,-66.42 648.5,-64.71"/>
<polygon fill="midnightblue" stroke="midnightblue" points="693.37,-73.74 703.72,-71.48 694.22,-66.79 693.37,-73.74"/>
</g>
<!-- Node10 -->
<g id="node10" class="node">
<title>Node10</title>
<g id="a_node10"><a xlink:href="namespaceutility_1_1test.html#a027d0f534d798b71531e664ed33a7318" target="_top" xlink:title=" ">
<polygon fill="white" stroke="black" points="558,-0.5 558,-30.5 652,-30.5 652,-0.5 558,-0.5"/>
<text text-anchor="start" x="566" y="-18.5" font-family="Helvetica,sans-Serif" font-size="10.00">utility::test::test</text>
<text text-anchor="middle" x="605" y="-7.5" font-family="Helvetica,sans-Serif" font-size="10.00">_key_compare</text>
</a>
</g>
</g>
<!-- Node1&#45;&gt;Node10 -->
<g id="edge10" class="edge">
<title>Node1&#45;&gt;Node10</title>
<path fill="none" stroke="midnightblue" d="M728.32,-65.1C710.5,-57.81 688.04,-48.64 668,-40.5 660.04,-37.27 651.5,-33.82 643.39,-30.54"/>
<polygon fill="midnightblue" stroke="midnightblue" points="727.12,-68.39 737.7,-68.94 729.77,-61.92 727.12,-68.39"/>
</g>
<!-- Node3&#45;&gt;Node2 -->
<g id="edge3" class="edge">
<title>Node3&#45;&gt;Node2</title>
<path fill="none" stroke="midnightblue" d="M555.14,-109.47C539.53,-113.3 522.17,-117.55 506.27,-121.45"/>
<polygon fill="midnightblue" stroke="midnightblue" points="556.23,-112.81 565.11,-107.03 554.57,-106.01 556.23,-112.81"/>
</g>
<!-- Node4 -->
<g id="node4" class="node">
<title>Node4</title>
<g id="a_node4"><a xlink:href="namespaceconvex__hull__trick_1_1test.html#a585d91f97ee3a90cbcdb2ba5bbfe94ac" target="_top" xlink:title=" ">
<polygon fill="white" stroke="black" points="398,-69.5 398,-99.5 506,-99.5 506,-69.5 398,-69.5"/>
<text text-anchor="start" x="406" y="-87.5" font-family="Helvetica,sans-Serif" font-size="10.00">convex_hull_trick::</text>
<text text-anchor="middle" x="452" y="-76.5" font-family="Helvetica,sans-Serif" font-size="10.00">test::test_hull</text>
</a>
</g>
</g>
<!-- Node3&#45;&gt;Node4 -->
<g id="edge4" class="edge">
<title>Node3&#45;&gt;Node4</title>
<path fill="none" stroke="midnightblue" d="M531.62,-91.27C522.99,-90.53 514.29,-89.78 506,-89.06"/>
<polygon fill="midnightblue" stroke="midnightblue" points="531.45,-94.77 541.71,-92.14 532.05,-87.79 531.45,-94.77"/>
</g>
<!-- Node5 -->
<g id="node5" class="node">
<title>Node5</title>
<g id="a_node5"><a xlink:href="namespaceconvex__hull__trick_1_1test.html#a05eb98d10b7444bbdc9fe64f4d99676a" target="_top" xlink:title=" ">
<polygon fill="white" stroke="black" points="249,-68.5 249,-98.5 362,-98.5 362,-68.5 249,-68.5"/>
<text text-anchor="start" x="257" y="-86.5" font-family="Helvetica,sans-Serif" font-size="10.00">convex_hull_trick::</text>
<text text-anchor="middle" x="305.5" y="-75.5" font-family="Helvetica,sans-Serif" font-size="10.00">test::test_geometry</text>
</a>
</g>
</g>
<!-- Node4&#45;&gt;Node5 -->
<g id="edge5" class="edge">
<title>Node4&#45;&gt;Node5</title>
<path fill="none" stroke="midnightblue" d="M387.42,-84.06C378.98,-84 370.39,-83.94 362.1,-83.88"/>
<polygon fill="midnightblue" stroke="midnightblue" points="387.58,-87.56 397.6,-84.13 387.63,-80.56 387.58,-87.56"/>
</g>
<!-- Node6 -->
<g id="node6" class="node">
<title>Node6</title>
<g id="a_node6"><a xlink:href="test_8cpp.html#aa1c715cac916839a95e25b65b4071c4a" target="_top" xlink:title=" ">
<polygon fill="white" stroke="black" points="160,-46 160,-65 213,-65 213,-46 160,-46"/>
<text text-anchor="middle" x="186.5" y="-53" font-family="Helvetica,sans-Serif" font-size="10.00">test_all</text>
</a>
</g>
</g>
<!-- Node5&#45;&gt;Node6 -->
<g id="edge6" class="edge">
<title>Node5&#45;&gt;Node6</title>
<path fill="none" stroke="midnightblue" d="M238.81,-67.78C229.7,-65.6 220.82,-63.47 213.09,-61.62"/>
<polygon fill="midnightblue" stroke="midnightblue" points="238.2,-71.23 248.74,-70.16 239.83,-64.42 238.2,-71.23"/>
</g>
<!-- Node7 -->
<g id="node7" class="node">
<title>Node7</title>
<g id="a_node7"><a xlink:href="test_8cpp.html#af095a232149097b5605064623a9345ac" target="_top" xlink:title=" ">
<polygon fill="white" stroke="black" points="77,-46 77,-65 124,-65 124,-46 77,-46"/>
<text text-anchor="middle" x="100.5" y="-53" font-family="Helvetica,sans-Serif" font-size="10.00">main2</text>
</a>
</g>
</g>
<!-- Node6&#45;&gt;Node7 -->
<g id="edge7" class="edge">
<title>Node6&#45;&gt;Node7</title>
<path fill="none" stroke="midnightblue" d="M149.59,-55.5C140.96,-55.5 131.99,-55.5 124.16,-55.5"/>
<polygon fill="midnightblue" stroke="midnightblue" points="149.84,-59 159.84,-55.5 149.84,-52 149.84,-59"/>
</g>
<!-- Node8 -->
<g id="node8" class="node">
<title>Node8</title>
<g id="a_node8"><a xlink:href="main_8hpp.html#a0ddf1224851353fc92bfbff6f499fa97" target="_top" xlink:title=" ">
<polygon fill="white" stroke="black" points="0,-46 0,-65 41,-65 41,-46 0,-46"/>
<text text-anchor="middle" x="20.5" y="-53" font-family="Helvetica,sans-Serif" font-size="10.00">main</text>
</a>
</g>
</g>
<!-- Node7&#45;&gt;Node8 -->
<g id="edge8" class="edge">
<title>Node7&#45;&gt;Node8</title>
<path fill="none" stroke="midnightblue" d="M66.66,-55.5C57.96,-55.5 48.84,-55.5 41.1,-55.5"/>
<polygon fill="midnightblue" stroke="midnightblue" points="66.94,-59 76.94,-55.5 66.94,-52 66.94,-59"/>
</g>
<!-- Node11 -->
<g id="node11" class="node">
<title>Node11</title>
<g id="a_node11"><a xlink:href="namespaceutility_1_1test.html#a8aec6a2b496df7ad483a46db1649ea2c" target="_top" xlink:title=" ">
<polygon fill="white" stroke="black" points="258.5,-16.5 258.5,-46.5 352.5,-46.5 352.5,-16.5 258.5,-16.5"/>
<text text-anchor="start" x="266.5" y="-34.5" font-family="Helvetica,sans-Serif" font-size="10.00">utility::test::test</text>
<text text-anchor="middle" x="305.5" y="-23.5" font-family="Helvetica,sans-Serif" font-size="10.00">_utility</text>
</a>
</g>
</g>
<!-- Node10&#45;&gt;Node11 -->
<g id="edge11" class="edge">
<title>Node10&#45;&gt;Node11</title>
<path fill="none" stroke="midnightblue" d="M547.66,-18.53C491.21,-21.57 405.36,-26.18 352.77,-29.01"/>
<polygon fill="midnightblue" stroke="midnightblue" points="548.04,-22.01 557.84,-17.98 547.67,-15.02 548.04,-22.01"/>
</g>
<!-- Node11&#45;&gt;Node6 -->
<g id="edge12" class="edge">
<title>Node11&#45;&gt;Node6</title>
<path fill="none" stroke="midnightblue" d="M248.44,-43C236.11,-45.53 223.64,-48.09 213.21,-50.23"/>
<polygon fill="midnightblue" stroke="midnightblue" points="249.17,-46.42 258.26,-40.99 247.76,-39.57 249.17,-46.42"/>
</g>
</g>
</svg>
