<?xml version="1.0" encoding="UTF-8" standalone="no"?>
<!DOCTYPE svg PUBLIC "-//W3C//DTD SVG 1.1//EN"
 "http://www.w3.org/Graphics/SVG/1.1/DTD/svg11.dtd">
<!-- Generated by graphviz version 2.43.0 (0)
 -->
<!-- Title: linear_algebra::identity Pages: 1 -->
<!--zoomable 553 -->
<svg id="main" version="1.1" xmlns="http://www.w3.org/2000/svg" xmlns:xlink="http://www.w3.org/1999/xlink" xml:space="preserve" onload="init(evt)">
<style type="text/css"><![CDATA[
.edge:hover path { stroke: red; }
.edge:hover polygon { stroke: red; fill: red; }
]]></style>
<script type="text/javascript"><![CDATA[
var edges = document.getElementsByTagName('g');
if (edges && edges.length) {
  for (var i=0;i<edges.length;i++) {
    if (edges[i].id.substr(0,4)=='edge') {
      edges[i].setAttribute('class','edge');
    }
  }
}
]]></script>
        <defs>
                <circle id="rim" cx="0" cy="0" r="7"/>
                <circle id="rim2" cx="0" cy="0" r="3.5"/>
                <g id="zoomPlus">
                        <use xlink:href="#rim" fill="#404040">
                                <set attributeName="fill" to="#808080" begin="zoomplus.mouseover" end="zoomplus.mouseout"/>
                        </use>
                        <path d="M-4,0h8M0,-4v8" fill="none" stroke="white" stroke-width="1.5" pointer-events="none"/>
                </g>
                <g id="zoomMin">
                        <use xlink:href="#rim" fill="#404040">
                                <set attributeName="fill" to="#808080" begin="zoomminus.mouseover" end="zoomminus.mouseout"/>
                        </use>
                        <path d="M-4,0h8" fill="none" stroke="white" stroke-width="1.5" pointer-events="none"/>
                </g>
                <g id="dirArrow">
                        <path fill="none" stroke="white" stroke-width="1.5" d="M0,-3.0v7 M-2.5,-0.5L0,-3.0L2.5,-0.5"/>
                </g>
               <g id="resetDef">
                       <use xlink:href="#rim2" fill="#404040">
                               <set attributeName="fill" to="#808080" begin="reset.mouseover" end="reset.mouseout"/>
                       </use>
               </g>
        </defs>

<script type="text/javascript">
var viewWidth = 1021;
var viewHeight = 553;
var sectionId = 'dynsection-5';
</script>
<script xlink:href="svgpan.js"/>
<svg id="graph" class="graph">
<g id="viewport">
<title>linear_algebra::identity</title>
<polygon fill="white" stroke="transparent" points="-4,4 -4,-549 1017,-549 1017,4 -4,4"/>
<!-- Node1 -->
<g id="node1" class="node">
<title>Node1</title>
<g id="a_node1"><a xlink:title=" ">
<polygon fill="#bfbfbf" stroke="black" points="883,-263 883,-282 1013,-282 1013,-263 883,-263"/>
<text text-anchor="middle" x="948" y="-270" font-family="Helvetica,sans-Serif" font-size="10.00">linear_algebra::identity</text>
</a>
</g>
</g>
<!-- Node2 -->
<g id="node2" class="node">
<title>Node2</title>
<g id="a_node2"><a xlink:href="classsegment__tree_1_1SegmentTree.html#ad8b2ae5fb114f861e0dcc0fb5d370b8f" target="_top" xlink:title=" ">
<polygon fill="white" stroke="black" points="692.5,-514.5 692.5,-544.5 846.5,-544.5 846.5,-514.5 692.5,-514.5"/>
<text text-anchor="start" x="700.5" y="-532.5" font-family="Helvetica,sans-Serif" font-size="10.00">segment_tree::SegmentTree</text>
<text text-anchor="middle" x="769.5" y="-521.5" font-family="Helvetica,sans-Serif" font-size="10.00">::build</text>
</a>
</g>
</g>
<!-- Node1&#45;&gt;Node2 -->
<g id="edge1" class="edge">
<title>Node1&#45;&gt;Node2</title>
<path fill="none" stroke="midnightblue" d="M944.18,-292.23C936.75,-336.88 912.51,-446.32 847,-505.5 843.18,-508.95 838.86,-511.91 834.28,-514.44"/>
<polygon fill="midnightblue" stroke="midnightblue" points="947.67,-292.54 945.75,-282.13 940.75,-291.47 947.67,-292.54"/>
</g>
<!-- Node3 -->
<g id="node3" class="node">
<title>Node3</title>
<g id="a_node3"><a xlink:href="classsparse__table_1_1DisjointSparseTable.html#aef1bf29d0fe4ca8fa924001bf90fde22" target="_top" xlink:title=" ">
<polygon fill="white" stroke="black" points="692,-465.5 692,-495.5 847,-495.5 847,-465.5 692,-465.5"/>
<text text-anchor="start" x="700" y="-483.5" font-family="Helvetica,sans-Serif" font-size="10.00">sparse_table::DisjointSparse</text>
<text text-anchor="middle" x="769.5" y="-472.5" font-family="Helvetica,sans-Serif" font-size="10.00">Table::DisjointSparseTable</text>
</a>
</g>
</g>
<!-- Node1&#45;&gt;Node3 -->
<g id="edge2" class="edge">
<title>Node1&#45;&gt;Node3</title>
<path fill="none" stroke="midnightblue" d="M941.02,-291.86C928.95,-327.93 898.36,-405.78 847,-450.5 840.01,-456.59 831.63,-461.52 823.03,-465.49"/>
<polygon fill="midnightblue" stroke="midnightblue" points="944.43,-292.69 944.18,-282.09 937.77,-290.54 944.43,-292.69"/>
</g>
<!-- Node4 -->
<g id="node4" class="node">
<title>Node4</title>
<g id="a_node4"><a xlink:href="classsegment__tree_1_1SegmentTree.html#a800501714b462945aca69aef474dbfbc" target="_top" xlink:title=" ">
<polygon fill="white" stroke="black" points="692.5,-377.5 692.5,-407.5 846.5,-407.5 846.5,-377.5 692.5,-377.5"/>
<text text-anchor="start" x="700.5" y="-395.5" font-family="Helvetica,sans-Serif" font-size="10.00">segment_tree::SegmentTree</text>
<text text-anchor="middle" x="769.5" y="-384.5" font-family="Helvetica,sans-Serif" font-size="10.00">::down</text>
</a>
</g>
</g>
<!-- Node1&#45;&gt;Node4 -->
<g id="edge3" class="edge">
<title>Node1&#45;&gt;Node4</title>
<path fill="none" stroke="midnightblue" d="M931.76,-289.52C913.31,-309.28 880.53,-341.79 847,-362.5 837.65,-368.27 827.01,-373.29 816.69,-377.48"/>
<polygon fill="midnightblue" stroke="midnightblue" points="934.34,-291.88 938.53,-282.14 929.19,-287.14 934.34,-291.88"/>
</g>
<!-- Node5 -->
<g id="node5" class="node">
<title>Node5</title>
<g id="a_node5"><a xlink:href="classsegment__tree_1_1SegmentTree.html#aee0899b7aed45c73f0142ce425937fde" target="_top" xlink:title=" ">
<polygon fill="white" stroke="black" points="502,-411.5 502,-441.5 656,-441.5 656,-411.5 502,-411.5"/>
<text text-anchor="start" x="510" y="-429.5" font-family="Helvetica,sans-Serif" font-size="10.00">segment_tree::SegmentTree</text>
<text text-anchor="middle" x="579" y="-418.5" font-family="Helvetica,sans-Serif" font-size="10.00">::query</text>
</a>
</g>
</g>
<!-- Node1&#45;&gt;Node5 -->
<g id="edge21" class="edge">
<title>Node1&#45;&gt;Node5</title>
<path fill="none" stroke="midnightblue" d="M940.21,-292.04C927.65,-324.81 897.38,-389.95 847,-417.5 788.81,-449.32 712.32,-448.4 656.13,-441.39"/>
<polygon fill="midnightblue" stroke="midnightblue" points="943.64,-292.86 943.8,-282.27 937.07,-290.45 943.64,-292.86"/>
</g>
<!-- Node7 -->
<g id="node7" class="node">
<title>Node7</title>
<g id="a_node7"><a xlink:href="classsegment__tree_1_1SegmentTree.html#a5207ffe18417463bef339fd6d3183b5c" target="_top" xlink:title=" ">
<polygon fill="white" stroke="black" points="502,-343.5 502,-373.5 656,-373.5 656,-343.5 502,-343.5"/>
<text text-anchor="start" x="510" y="-361.5" font-family="Helvetica,sans-Serif" font-size="10.00">segment_tree::SegmentTree</text>
<text text-anchor="middle" x="579" y="-350.5" font-family="Helvetica,sans-Serif" font-size="10.00">::update</text>
</a>
</g>
</g>
<!-- Node1&#45;&gt;Node7 -->
<g id="edge24" class="edge">
<title>Node1&#45;&gt;Node7</title>
<path fill="none" stroke="midnightblue" d="M925.84,-288.01C906.39,-301.4 876.21,-320.04 847,-329.5 784.79,-349.64 710.6,-356.42 656.24,-358.43"/>
<polygon fill="midnightblue" stroke="midnightblue" points="928.07,-290.72 934.23,-282.1 924.04,-285 928.07,-290.72"/>
</g>
<!-- Node9 -->
<g id="node9" class="node">
<title>Node9</title>
<g id="a_node9"><a xlink:href="namespacelinear__algebra.html#ac5881f67135c45bc7c2b2a3de9cec5da" target="_top" xlink:title="Returns inverse of the matrix.">
<polygon fill="white" stroke="black" points="709,-301 709,-320 830,-320 830,-301 709,-301"/>
<text text-anchor="middle" x="769.5" y="-308" font-family="Helvetica,sans-Serif" font-size="10.00">linear_algebra::invert</text>
</a>
</g>
</g>
<!-- Node1&#45;&gt;Node9 -->
<g id="edge8" class="edge">
<title>Node1&#45;&gt;Node9</title>
<path fill="none" stroke="midnightblue" d="M892.41,-284.25C867.46,-289.63 838.27,-295.91 814.72,-300.98"/>
<polygon fill="midnightblue" stroke="midnightblue" points="893.42,-287.62 902.46,-282.09 891.95,-280.77 893.42,-287.62"/>
</g>
<!-- Node10 -->
<g id="node10" class="node">
<title>Node10</title>
<g id="a_node10"><a xlink:href="namespacelinear__algebra_1_1test.html#a8104ca6c18938c522aa7a1225170aab1" target="_top" xlink:title=" ">
<polygon fill="white" stroke="black" points="523.5,-257.5 523.5,-287.5 634.5,-287.5 634.5,-257.5 523.5,-257.5"/>
<text text-anchor="start" x="531.5" y="-275.5" font-family="Helvetica,sans-Serif" font-size="10.00">linear_algebra::test</text>
<text text-anchor="middle" x="579" y="-264.5" font-family="Helvetica,sans-Serif" font-size="10.00">::test_invert_impl</text>
</a>
</g>
</g>
<!-- Node1&#45;&gt;Node10 -->
<g id="edge22" class="edge">
<title>Node1&#45;&gt;Node10</title>
<path fill="none" stroke="midnightblue" d="M872.5,-272.5C802,-272.5 697.82,-272.5 634.69,-272.5"/>
<polygon fill="midnightblue" stroke="midnightblue" points="872.65,-276 882.65,-272.5 872.65,-269 872.65,-276"/>
</g>
<!-- Node15 -->
<g id="node15" class="node">
<title>Node15</title>
<g id="a_node15"><a xlink:href="namespaceutility.html#aed2adcc88a8abb68fe298905798fa8ae" target="_top" xlink:title=" ">
<polygon fill="white" stroke="black" points="705,-225 705,-244 834,-244 834,-225 705,-225"/>
<text text-anchor="middle" x="769.5" y="-232" font-family="Helvetica,sans-Serif" font-size="10.00">utility::iterator_identity</text>
</a>
</g>
</g>
<!-- Node1&#45;&gt;Node15 -->
<g id="edge14" class="edge">
<title>Node1&#45;&gt;Node15</title>
<path fill="none" stroke="midnightblue" d="M892.41,-260.75C867.46,-255.37 838.27,-249.09 814.72,-244.02"/>
<polygon fill="midnightblue" stroke="midnightblue" points="891.95,-264.23 902.46,-262.91 893.42,-257.38 891.95,-264.23"/>
</g>
<!-- Node16 -->
<g id="node16" class="node">
<title>Node16</title>
<g id="a_node16"><a xlink:href="classBIT.html#a495d58c744095867ad69123897c60700" target="_top" xlink:title="Returns sum of Monoid over elements in [0, r)">
<polygon fill="white" stroke="black" points="737,-187 737,-206 802,-206 802,-187 737,-187"/>
<text text-anchor="middle" x="769.5" y="-194" font-family="Helvetica,sans-Serif" font-size="10.00">BIT::query</text>
</a>
</g>
</g>
<!-- Node1&#45;&gt;Node16 -->
<g id="edge15" class="edge">
<title>Node1&#45;&gt;Node16</title>
<path fill="none" stroke="midnightblue" d="M924.5,-257.28C904.8,-244.55 875.03,-226.72 847,-215.5 832.64,-209.75 816.06,-205.38 802,-202.28"/>
<polygon fill="midnightblue" stroke="midnightblue" points="922.77,-260.33 933.05,-262.89 926.62,-254.48 922.77,-260.33"/>
</g>
<!-- Node18 -->
<g id="node18" class="node">
<title>Node18</title>
<g id="a_node18"><a xlink:href="classsparse__table_1_1SparseTable.html#a0ad8b0233da443f1f842b27183f05265" target="_top" xlink:title=" ">
<polygon fill="white" stroke="black" points="698,-137.5 698,-167.5 841,-167.5 841,-137.5 698,-137.5"/>
<text text-anchor="start" x="706" y="-155.5" font-family="Helvetica,sans-Serif" font-size="10.00">sparse_table::SparseTable</text>
<text text-anchor="middle" x="769.5" y="-144.5" font-family="Helvetica,sans-Serif" font-size="10.00">::query</text>
</a>
</g>
</g>
<!-- Node1&#45;&gt;Node18 -->
<g id="edge18" class="edge">
<title>Node1&#45;&gt;Node18</title>
<path fill="none" stroke="midnightblue" d="M933,-255.12C915.12,-233.98 882.25,-198.52 847,-177.5 840.64,-173.71 833.63,-170.41 826.52,-167.57"/>
<polygon fill="midnightblue" stroke="midnightblue" points="930.43,-257.5 939.5,-262.96 935.82,-253.03 930.43,-257.5"/>
</g>
<!-- Node19 -->
<g id="node19" class="node">
<title>Node19</title>
<g id="a_node19"><a xlink:href="classsparse__table_1_1DisjointSparseTable.html#a771c763802ff4f1679749951ae94393e" target="_top" xlink:title=" ">
<polygon fill="white" stroke="black" points="692,-88.5 692,-118.5 847,-118.5 847,-88.5 692,-88.5"/>
<text text-anchor="start" x="700" y="-106.5" font-family="Helvetica,sans-Serif" font-size="10.00">sparse_table::DisjointSparse</text>
<text text-anchor="middle" x="769.5" y="-95.5" font-family="Helvetica,sans-Serif" font-size="10.00">Table::query</text>
</a>
</g>
</g>
<!-- Node1&#45;&gt;Node19 -->
<g id="edge19" class="edge">
<title>Node1&#45;&gt;Node19</title>
<path fill="none" stroke="midnightblue" d="M938.92,-253.47C924.81,-222.49 892.77,-161.26 847,-127.5 842.41,-124.11 837.32,-121.19 832.02,-118.68"/>
<polygon fill="midnightblue" stroke="midnightblue" points="935.77,-254.99 943.01,-262.73 942.17,-252.17 935.77,-254.99"/>
</g>
<!-- Node20 -->
<g id="node20" class="node">
<title>Node20</title>
<g id="a_node20"><a xlink:href="classhld_1_1HLD.html#a89ad91fa5429a48db553da8d44849415" target="_top" xlink:title="Returns the Monoid sum over values of vertices on the path from u to v.">
<polygon fill="white" stroke="black" points="723.5,-50 723.5,-69 815.5,-69 815.5,-50 723.5,-50"/>
<text text-anchor="middle" x="769.5" y="-57" font-family="Helvetica,sans-Serif" font-size="10.00">hld::HLD::query</text>
</a>
</g>
</g>
<!-- Node1&#45;&gt;Node20 -->
<g id="edge20" class="edge">
<title>Node1&#45;&gt;Node20</title>
<path fill="none" stroke="midnightblue" d="M942.57,-252.63C932.7,-213.08 905.01,-124.38 847,-78.5 838.09,-71.45 826.92,-66.98 815.88,-64.15"/>
<polygon fill="midnightblue" stroke="midnightblue" points="939.23,-253.69 944.94,-262.61 946.04,-252.07 939.23,-253.69"/>
</g>
<!-- Node21 -->
<g id="node21" class="node">
<title>Node21</title>
<g id="a_node21"><a xlink:href="namespacesparse__table_1_1test.html#a274f88cabaff31f12dbb19ed28eb1bb7" target="_top" xlink:title=" ">
<polygon fill="white" stroke="black" points="701.5,-0.5 701.5,-30.5 837.5,-30.5 837.5,-0.5 701.5,-0.5"/>
<text text-anchor="start" x="709.5" y="-18.5" font-family="Helvetica,sans-Serif" font-size="10.00">sparse_table::test</text>
<text text-anchor="middle" x="769.5" y="-7.5" font-family="Helvetica,sans-Serif" font-size="10.00">::test_sparse_table_impl</text>
</a>
</g>
</g>
<!-- Node1&#45;&gt;Node21 -->
<g id="edge23" class="edge">
<title>Node1&#45;&gt;Node21</title>
<path fill="none" stroke="midnightblue" d="M944.1,-252.9C936.51,-208.56 911.96,-99.8 847,-40.5 842.77,-36.64 837.93,-33.37 832.79,-30.61"/>
<polygon fill="midnightblue" stroke="midnightblue" points="940.67,-253.62 945.71,-262.94 947.58,-252.51 940.67,-253.62"/>
</g>
<!-- Node4&#45;&gt;Node5 -->
<g id="edge4" class="edge">
<title>Node4&#45;&gt;Node5</title>
<path fill="none" stroke="midnightblue" d="M682.49,-408.01C673.69,-409.6 664.79,-411.21 656.1,-412.77"/>
<polygon fill="midnightblue" stroke="midnightblue" points="683.15,-411.45 692.37,-406.23 681.91,-404.56 683.15,-411.45"/>
</g>
<!-- Node4&#45;&gt;Node7 -->
<g id="edge6" class="edge">
<title>Node4&#45;&gt;Node7</title>
<path fill="none" stroke="midnightblue" d="M682.49,-376.99C673.69,-375.4 664.79,-373.79 656.1,-372.23"/>
<polygon fill="midnightblue" stroke="midnightblue" points="681.91,-380.44 692.37,-378.77 683.15,-373.55 681.91,-380.44"/>
</g>
<!-- Node6 -->
<g id="node6" class="node">
<title>Node6</title>
<g id="a_node6"><a xlink:href="classsegment__tree_1_1SegmentTree.html#ad39bd604bb4dc65a3204865f578f6fd9" target="_top" xlink:title=" ">
<polygon fill="white" stroke="black" points="312,-411.5 312,-441.5 466,-441.5 466,-411.5 312,-411.5"/>
<text text-anchor="start" x="320" y="-429.5" font-family="Helvetica,sans-Serif" font-size="10.00">segment_tree::SegmentTree</text>
<text text-anchor="middle" x="389" y="-418.5" font-family="Helvetica,sans-Serif" font-size="10.00">::query</text>
</a>
</g>
</g>
<!-- Node5&#45;&gt;Node6 -->
<g id="edge5" class="edge">
<title>Node5&#45;&gt;Node6</title>
<path fill="none" stroke="midnightblue" d="M491.58,-426.5C483.14,-426.5 474.63,-426.5 466.3,-426.5"/>
<polygon fill="midnightblue" stroke="midnightblue" points="491.8,-430 501.8,-426.5 491.8,-423 491.8,-430"/>
</g>
<!-- Node8 -->
<g id="node8" class="node">
<title>Node8</title>
<g id="a_node8"><a xlink:href="classsegment__tree_1_1SegmentTree.html#ad2375790875e1231b39795e93d61e176" target="_top" xlink:title=" ">
<polygon fill="white" stroke="black" points="312,-343.5 312,-373.5 466,-373.5 466,-343.5 312,-343.5"/>
<text text-anchor="start" x="320" y="-361.5" font-family="Helvetica,sans-Serif" font-size="10.00">segment_tree::SegmentTree</text>
<text text-anchor="middle" x="389" y="-350.5" font-family="Helvetica,sans-Serif" font-size="10.00">::update</text>
</a>
</g>
</g>
<!-- Node7&#45;&gt;Node8 -->
<g id="edge7" class="edge">
<title>Node7&#45;&gt;Node8</title>
<path fill="none" stroke="midnightblue" d="M491.58,-358.5C483.14,-358.5 474.63,-358.5 466.3,-358.5"/>
<polygon fill="midnightblue" stroke="midnightblue" points="491.8,-362 501.8,-358.5 491.8,-355 491.8,-362"/>
</g>
<!-- Node9&#45;&gt;Node10 -->
<g id="edge9" class="edge">
<title>Node9&#45;&gt;Node10</title>
<path fill="none" stroke="midnightblue" d="M711.12,-298.93C686.79,-294.03 658.57,-288.34 634.56,-283.5"/>
<polygon fill="midnightblue" stroke="midnightblue" points="710.44,-302.37 720.93,-300.91 711.82,-295.5 710.44,-302.37"/>
</g>
<!-- Node11 -->
<g id="node11" class="node">
<title>Node11</title>
<g id="a_node11"><a xlink:href="namespacelinear__algebra_1_1test.html#a58d68feee7c76f77519389051a942161" target="_top" xlink:title=" ">
<polygon fill="white" stroke="black" points="333.5,-253.5 333.5,-283.5 444.5,-283.5 444.5,-253.5 333.5,-253.5"/>
<text text-anchor="start" x="341.5" y="-271.5" font-family="Helvetica,sans-Serif" font-size="10.00">linear_algebra::test</text>
<text text-anchor="middle" x="389" y="-260.5" font-family="Helvetica,sans-Serif" font-size="10.00">::test_invert</text>
</a>
</g>
</g>
<!-- Node10&#45;&gt;Node11 -->
<g id="edge10" class="edge">
<title>Node10&#45;&gt;Node11</title>
<path fill="none" stroke="midnightblue" d="M513.31,-271.12C490.99,-270.65 466.22,-270.12 444.77,-269.67"/>
<polygon fill="midnightblue" stroke="midnightblue" points="513.3,-274.62 523.37,-271.34 513.45,-267.63 513.3,-274.62"/>
</g>
<!-- Node12 -->
<g id="node12" class="node">
<title>Node12</title>
<g id="a_node12"><a xlink:href="namespacelinear__algebra_1_1test.html#aec6af708eda9aa2982dcba2a651f4bf9" target="_top" xlink:title=" ">
<polygon fill="white" stroke="black" points="160,-251.5 160,-281.5 276,-281.5 276,-251.5 160,-251.5"/>
<text text-anchor="start" x="168" y="-269.5" font-family="Helvetica,sans-Serif" font-size="10.00">linear_algebra::test</text>
<text text-anchor="middle" x="218" y="-258.5" font-family="Helvetica,sans-Serif" font-size="10.00">::test_linear_algebra</text>
</a>
</g>
</g>
<!-- Node11&#45;&gt;Node12 -->
<g id="edge11" class="edge">
<title>Node11&#45;&gt;Node12</title>
<path fill="none" stroke="midnightblue" d="M323.13,-267.73C307.67,-267.55 291.29,-267.36 276.21,-267.18"/>
<polygon fill="midnightblue" stroke="midnightblue" points="323.09,-271.23 333.13,-267.85 323.17,-264.23 323.09,-271.23"/>
</g>
<!-- Node13 -->
<g id="node13" class="node">
<title>Node13</title>
<g id="a_node13"><a xlink:href="test_8cpp.html#af095a232149097b5605064623a9345ac" target="_top" xlink:title=" ">
<polygon fill="white" stroke="black" points="77,-227 77,-246 124,-246 124,-227 77,-227"/>
<text text-anchor="middle" x="100.5" y="-234" font-family="Helvetica,sans-Serif" font-size="10.00">main2</text>
</a>
</g>
</g>
<!-- Node12&#45;&gt;Node13 -->
<g id="edge12" class="edge">
<title>Node12&#45;&gt;Node13</title>
<path fill="none" stroke="midnightblue" d="M150.11,-249.13C140.77,-246.7 131.75,-244.36 124.08,-242.36"/>
<polygon fill="midnightblue" stroke="midnightblue" points="149.37,-252.55 159.93,-251.68 151.13,-245.77 149.37,-252.55"/>
</g>
<!-- Node14 -->
<g id="node14" class="node">
<title>Node14</title>
<g id="a_node14"><a xlink:href="main_8hpp.html#a0ddf1224851353fc92bfbff6f499fa97" target="_top" xlink:title=" ">
<polygon fill="white" stroke="black" points="0,-227 0,-246 41,-246 41,-227 0,-227"/>
<text text-anchor="middle" x="20.5" y="-234" font-family="Helvetica,sans-Serif" font-size="10.00">main</text>
</a>
</g>
</g>
<!-- Node13&#45;&gt;Node14 -->
<g id="edge13" class="edge">
<title>Node13&#45;&gt;Node14</title>
<path fill="none" stroke="midnightblue" d="M66.66,-236.5C57.96,-236.5 48.84,-236.5 41.1,-236.5"/>
<polygon fill="midnightblue" stroke="midnightblue" points="66.94,-240 76.94,-236.5 66.94,-233 66.94,-240"/>
</g>
<!-- Node17 -->
<g id="node17" class="node">
<title>Node17</title>
<g id="a_node17"><a xlink:href="test__bit_8hpp.html#af86f570cf0a5201c700ffeec06aec7f6" target="_top" xlink:title=" ">
<polygon fill="white" stroke="black" points="191.5,-205 191.5,-224 244.5,-224 244.5,-205 191.5,-205"/>
<text text-anchor="middle" x="218" y="-212" font-family="Helvetica,sans-Serif" font-size="10.00">test_bit</text>
</a>
</g>
</g>
<!-- Node16&#45;&gt;Node17 -->
<g id="edge16" class="edge">
<title>Node16&#45;&gt;Node17</title>
<path fill="none" stroke="midnightblue" d="M726.79,-197.87C618.68,-201.41 331.74,-210.81 244.51,-213.66"/>
<polygon fill="midnightblue" stroke="midnightblue" points="727.1,-201.36 736.98,-197.53 726.87,-194.36 727.1,-201.36"/>
</g>
<!-- Node17&#45;&gt;Node13 -->
<g id="edge17" class="edge">
<title>Node17&#45;&gt;Node13</title>
<path fill="none" stroke="midnightblue" d="M181.46,-221.27C162.86,-224.81 140.62,-229.05 124.32,-232.15"/>
<polygon fill="midnightblue" stroke="midnightblue" points="182.2,-224.69 191.37,-219.38 180.89,-217.82 182.2,-224.69"/>
</g>
</g>
</svg>
        <g id="navigator" transform="translate(0 0)" fill="#404254">
                <rect fill="#f2f5e9" fill-opacity="0.5" stroke="#606060" stroke-width=".5" x="0" y="0" width="60" height="60"/>
                <use id="zoomplus" xlink:href="#zoomPlus" x="17" y="9" onmousedown="handleZoom(evt,'in')"/>
                <use id="zoomminus" xlink:href="#zoomMin" x="42" y="9" onmousedown="handleZoom(evt,'out')"/>
                <use id="reset" xlink:href="#resetDef" x="30" y="36" onmousedown="handleReset()"/>
                <g id="arrowUp" xlink:href="#dirArrow" transform="translate(30 24)" onmousedown="handlePan(0,-1)">
                  <use xlink:href="#rim" fill="#404040">
                        <set attributeName="fill" to="#808080" begin="arrowUp.mouseover" end="arrowUp.mouseout"/>
                  </use>
                  <path fill="none" stroke="white" stroke-width="1.5" d="M0,-3.0v7 M-2.5,-0.5L0,-3.0L2.5,-0.5"/>
                </g>
                <g id="arrowRight" xlink:href="#dirArrow" transform="rotate(90) translate(36 -43)" onmousedown="handlePan(1,0)">
                  <use xlink:href="#rim" fill="#404040">
                        <set attributeName="fill" to="#808080" begin="arrowRight.mouseover" end="arrowRight.mouseout"/>
                  </use>
                  <path fill="none" stroke="white" stroke-width="1.5" d="M0,-3.0v7 M-2.5,-0.5L0,-3.0L2.5,-0.5"/>
                </g>
                <g id="arrowDown" xlink:href="#dirArrow" transform="rotate(180) translate(-30 -48)" onmousedown="handlePan(0,1)">
                  <use xlink:href="#rim" fill="#404040">
                        <set attributeName="fill" to="#808080" begin="arrowDown.mouseover" end="arrowDown.mouseout"/>
                  </use>
                  <path fill="none" stroke="white" stroke-width="1.5" d="M0,-3.0v7 M-2.5,-0.5L0,-3.0L2.5,-0.5"/>
                </g>
                <g id="arrowLeft" xlink:href="#dirArrow" transform="rotate(270) translate(-36 17)" onmousedown="handlePan(-1,0)">
                  <use xlink:href="#rim" fill="#404040">
                        <set attributeName="fill" to="#808080" begin="arrowLeft.mouseover" end="arrowLeft.mouseout"/>
                  </use>
                  <path fill="none" stroke="white" stroke-width="1.5" d="M0,-3.0v7 M-2.5,-0.5L0,-3.0L2.5,-0.5"/>
                </g>
        </g>
        <svg viewBox="0 0 15 15" width="100%" height="30px" preserveAspectRatio="xMaxYMin meet">
         <g id="arrow_out" transform="scale(0.3 0.3)">
          <a xlink:href="namespacelinear__algebra_aac11793366a8aa7d2396775fdb1ba8ca_icgraph_org.svg" target="_base">
           <rect id="button" ry="5" rx="5" y="6" x="6" height="38" width="38"
                fill="#f2f5e9" fill-opacity="0.5" stroke="#606060" stroke-width="1.0"/>
           <path id="arrow"
             d="M 11.500037,31.436501 C 11.940474,20.09759 22.043105,11.32322 32.158766,21.979434 L 37.068811,17.246167 C 37.068811,17.246167 37.088388,32 37.088388,32 L 22.160133,31.978069 C 22.160133,31.978069 26.997745,27.140456 26.997745,27.140456 C 18.528582,18.264221 13.291696,25.230495 11.500037,31.436501 z"
             style="fill:#404040;"/>
          </a>
         </g>
        </svg>
</svg>
