<?xml version="1.0" encoding="UTF-8" standalone="no"?>
<!DOCTYPE svg PUBLIC "-//W3C//DTD SVG 1.1//EN"
 "http://www.w3.org/Graphics/SVG/1.1/DTD/svg11.dtd">
<!-- Generated by graphviz version 2.43.0 (0)
 -->
<!-- Title: utility::test_utility Pages: 1 -->
<svg width="435pt" height="230pt"
 viewBox="0.00 0.00 435.00 230.00" xmlns="http://www.w3.org/2000/svg" xmlns:xlink="http://www.w3.org/1999/xlink">
<g id="graph0" class="graph" transform="scale(1 1) rotate(0) translate(4 226)">
<title>utility::test_utility</title>
<polygon fill="white" stroke="transparent" points="-4,4 -4,-226 431,-226 431,4 -4,4"/>
<!-- Node1 -->
<g id="node1" class="node">
<title>Node1</title>
<g id="a_node1"><a xlink:title=" ">
<polygon fill="#bfbfbf" stroke="black" points="0,-104.5 0,-123.5 103,-123.5 103,-104.5 0,-104.5"/>
<text text-anchor="middle" x="51.5" y="-111.5" font-family="Helvetica,sans-Serif" font-size="10.00">utility::test_utility</text>
</a>
</g>
</g>
<!-- Node2 -->
<g id="node2" class="node">
<title>Node2</title>
<g id="a_node2"><a xlink:href="namespaceutility.html#a46672014ead1e91eeafec896f61036db" target="_top" xlink:title=" ">
<polygon fill="white" stroke="black" points="161,-202.5 161,-221.5 245,-221.5 245,-202.5 161,-202.5"/>
<text text-anchor="middle" x="203" y="-209.5" font-family="Helvetica,sans-Serif" font-size="10.00">utility::test_ar</text>
</a>
</g>
</g>
<!-- Node1&#45;&gt;Node2 -->
<g id="edge1" class="edge">
<title>Node1&#45;&gt;Node2</title>
<path fill="none" stroke="midnightblue" d="M60.31,-123.5C74.36,-140 105.58,-174.02 139,-193 142.91,-195.22 147.1,-197.2 151.39,-198.97"/>
<polygon fill="midnightblue" stroke="midnightblue" points="150.31,-202.3 160.9,-202.52 152.75,-195.75 150.31,-202.3"/>
</g>
<!-- Node3 -->
<g id="node3" class="node">
<title>Node3</title>
<g id="a_node3"><a xlink:href="namespaceutility.html#ab69832291ff66469b755de5c5e5d6700" target="_top" xlink:title=" ">
<polygon fill="white" stroke="black" points="142,-164.5 142,-183.5 264,-183.5 264,-164.5 142,-164.5"/>
<text text-anchor="middle" x="203" y="-171.5" font-family="Helvetica,sans-Serif" font-size="10.00">utility::test_map_args</text>
</a>
</g>
</g>
<!-- Node1&#45;&gt;Node3 -->
<g id="edge2" class="edge">
<title>Node1&#45;&gt;Node3</title>
<path fill="none" stroke="midnightblue" d="M70.71,-123.61C87.98,-132.49 114.81,-145.68 139,-155 144.88,-157.26 151.14,-159.43 157.36,-161.45"/>
<polygon fill="midnightblue" stroke="midnightblue" points="156.44,-164.82 167.02,-164.47 158.52,-158.14 156.44,-164.82"/>
</g>
<!-- Node5 -->
<g id="node5" class="node">
<title>Node5</title>
<g id="a_node5"><a xlink:href="namespaceutility.html#ad358004e1f554321202b4e29f8470c5e" target="_top" xlink:title=" ">
<polygon fill="white" stroke="black" points="139,-126.5 139,-145.5 267,-145.5 267,-126.5 139,-126.5"/>
<text text-anchor="middle" x="203" y="-133.5" font-family="Helvetica,sans-Serif" font-size="10.00">utility::test_next_comb</text>
</a>
</g>
</g>
<!-- Node1&#45;&gt;Node5 -->
<g id="edge4" class="edge">
<title>Node1&#45;&gt;Node5</title>
<path fill="none" stroke="midnightblue" d="M103.11,-121.45C111.39,-122.67 120.12,-123.95 128.81,-125.23"/>
<polygon fill="midnightblue" stroke="midnightblue" points="128.57,-128.73 138.98,-126.73 129.59,-121.81 128.57,-128.73"/>
</g>
<!-- Node7 -->
<g id="node7" class="node">
<title>Node7</title>
<g id="a_node7"><a xlink:href="namespaceutility.html#afec0dcf698aef9d3f51eb06de4dce70d" target="_top" xlink:title=" ">
<polygon fill="white" stroke="black" points="155,-77 155,-107 251,-107 251,-77 155,-77"/>
<text text-anchor="start" x="163" y="-95" font-family="Helvetica,sans-Serif" font-size="10.00">utility::test_next</text>
<text text-anchor="middle" x="203" y="-84" font-family="Helvetica,sans-Serif" font-size="10.00">_pow_of_2</text>
</a>
</g>
</g>
<!-- Node1&#45;&gt;Node7 -->
<g id="edge6" class="edge">
<title>Node1&#45;&gt;Node7</title>
<path fill="none" stroke="midnightblue" d="M103.11,-106.55C116.48,-104.58 131,-102.45 144.69,-100.43"/>
<polygon fill="midnightblue" stroke="midnightblue" points="145.58,-103.84 154.97,-98.92 144.56,-96.91 145.58,-103.84"/>
</g>
<!-- Node9 -->
<g id="node9" class="node">
<title>Node9</title>
<g id="a_node9"><a xlink:href="namespaceutility.html#a393602f329243516ab6a008f905aa82d" target="_top" xlink:title=" ">
<polygon fill="white" stroke="black" points="155.5,-38.5 155.5,-57.5 250.5,-57.5 250.5,-38.5 155.5,-38.5"/>
<text text-anchor="middle" x="203" y="-45.5" font-family="Helvetica,sans-Serif" font-size="10.00">utility::test_uniq</text>
</a>
</g>
</g>
<!-- Node1&#45;&gt;Node9 -->
<g id="edge8" class="edge">
<title>Node1&#45;&gt;Node9</title>
<path fill="none" stroke="midnightblue" d="M67.96,-104.33C84.91,-94.05 113.13,-77.79 139,-67 144.47,-64.72 150.31,-62.58 156.15,-60.62"/>
<polygon fill="midnightblue" stroke="midnightblue" points="157.44,-63.88 165.9,-57.5 155.31,-57.21 157.44,-63.88"/>
</g>
<!-- Node11 -->
<g id="node11" class="node">
<title>Node11</title>
<g id="a_node11"><a xlink:href="namespaceutility.html#a2f611269d39535446ae5f89e3de27d9b" target="_top" xlink:title=" ">
<polygon fill="white" stroke="black" points="155.5,-0.5 155.5,-19.5 250.5,-19.5 250.5,-0.5 155.5,-0.5"/>
<text text-anchor="middle" x="203" y="-7.5" font-family="Helvetica,sans-Serif" font-size="10.00">utility::test_with</text>
</a>
</g>
</g>
<!-- Node1&#45;&gt;Node11 -->
<g id="edge10" class="edge">
<title>Node1&#45;&gt;Node11</title>
<path fill="none" stroke="midnightblue" d="M59.71,-104.31C73.28,-86.72 104.4,-49.5 139,-29 142.65,-26.84 146.56,-24.9 150.59,-23.18"/>
<polygon fill="midnightblue" stroke="midnightblue" points="152.05,-26.37 160.12,-19.51 149.53,-19.83 152.05,-26.37"/>
</g>
<!-- Node4 -->
<g id="node4" class="node">
<title>Node4</title>
<g id="a_node4"><a xlink:href="namespaceutility.html#a3bd1495c0bc9744b584e2294d8cb4693" target="_top" xlink:title=" ">
<polygon fill="white" stroke="black" points="316,-164.5 316,-183.5 414,-183.5 414,-164.5 316,-164.5"/>
<text text-anchor="middle" x="365" y="-171.5" font-family="Helvetica,sans-Serif" font-size="10.00">utility::map_args</text>
</a>
</g>
</g>
<!-- Node3&#45;&gt;Node4 -->
<g id="edge3" class="edge">
<title>Node3&#45;&gt;Node4</title>
<path fill="none" stroke="midnightblue" d="M264.03,-174C277.67,-174 292.14,-174 305.7,-174"/>
<polygon fill="midnightblue" stroke="midnightblue" points="305.87,-177.5 315.87,-174 305.87,-170.5 305.87,-177.5"/>
</g>
<!-- Node6 -->
<g id="node6" class="node">
<title>Node6</title>
<g id="a_node6"><a xlink:href="namespaceutility.html#a7cd324d23686536d1d4eeb92afb61ed4" target="_top" xlink:title=" ">
<polygon fill="white" stroke="black" points="313,-126.5 313,-145.5 417,-145.5 417,-126.5 313,-126.5"/>
<text text-anchor="middle" x="365" y="-133.5" font-family="Helvetica,sans-Serif" font-size="10.00">utility::next_comb</text>
</a>
</g>
</g>
<!-- Node5&#45;&gt;Node6 -->
<g id="edge5" class="edge">
<title>Node5&#45;&gt;Node6</title>
<path fill="none" stroke="midnightblue" d="M267.24,-136C278.92,-136 291.11,-136 302.74,-136"/>
<polygon fill="midnightblue" stroke="midnightblue" points="302.79,-139.5 312.79,-136 302.79,-132.5 302.79,-139.5"/>
</g>
<!-- Node8 -->
<g id="node8" class="node">
<title>Node8</title>
<g id="a_node8"><a xlink:href="namespaceutility.html#ab7607d20f1e0cd61af5d3f58bf2faa06" target="_top" xlink:title=" ">
<polygon fill="white" stroke="black" points="303,-82.5 303,-101.5 427,-101.5 427,-82.5 303,-82.5"/>
<text text-anchor="middle" x="365" y="-89.5" font-family="Helvetica,sans-Serif" font-size="10.00">utility::next_pow_of_2</text>
</a>
</g>
</g>
<!-- Node7&#45;&gt;Node8 -->
<g id="edge7" class="edge">
<title>Node7&#45;&gt;Node8</title>
<path fill="none" stroke="midnightblue" d="M251.14,-92C264.19,-92 278.66,-92 292.76,-92"/>
<polygon fill="midnightblue" stroke="midnightblue" points="292.94,-95.5 302.94,-92 292.94,-88.5 292.94,-95.5"/>
</g>
<!-- Node10 -->
<g id="node10" class="node">
<title>Node10</title>
<g id="a_node10"><a xlink:href="namespaceutility.html#a531cc980b5de78f0c2f36ae3210cb9cf" target="_top" xlink:title=" ">
<polygon fill="white" stroke="black" points="329.5,-38.5 329.5,-57.5 400.5,-57.5 400.5,-38.5 329.5,-38.5"/>
<text text-anchor="middle" x="365" y="-45.5" font-family="Helvetica,sans-Serif" font-size="10.00">utility::uniq</text>
</a>
</g>
</g>
<!-- Node9&#45;&gt;Node10 -->
<g id="edge9" class="edge">
<title>Node9&#45;&gt;Node10</title>
<path fill="none" stroke="midnightblue" d="M250.71,-48C272.35,-48 297.94,-48 319.33,-48"/>
<polygon fill="midnightblue" stroke="midnightblue" points="319.45,-51.5 329.45,-48 319.45,-44.5 319.45,-51.5"/>
</g>
</g>
</svg>
