<?xml version="1.0" encoding="UTF-8" standalone="no"?>
<!DOCTYPE svg PUBLIC "-//W3C//DTD SVG 1.1//EN"
 "http://www.w3.org/Graphics/SVG/1.1/DTD/svg11.dtd">
<!-- Generated by graphviz version 2.43.0 (0)
 -->
<!-- Title: graph_theory::add_edge Pages: 1 -->
<!--zoomable 286 -->
<svg id="main" version="1.1" xmlns="http://www.w3.org/2000/svg" xmlns:xlink="http://www.w3.org/1999/xlink" xml:space="preserve" onload="init(evt)">
<style type="text/css"><![CDATA[
.edge:hover path { stroke: red; }
.edge:hover polygon { stroke: red; fill: red; }
]]></style>
<script type="text/javascript"><![CDATA[
var edges = document.getElementsByTagName('g');
if (edges && edges.length) {
  for (var i=0;i<edges.length;i++) {
    if (edges[i].id.substr(0,4)=='edge') {
      edges[i].setAttribute('class','edge');
    }
  }
}
]]></script>
        <defs>
                <circle id="rim" cx="0" cy="0" r="7"/>
                <circle id="rim2" cx="0" cy="0" r="3.5"/>
                <g id="zoomPlus">
                        <use xlink:href="#rim" fill="#404040">
                                <set attributeName="fill" to="#808080" begin="zoomplus.mouseover" end="zoomplus.mouseout"/>
                        </use>
                        <path d="M-4,0h8M0,-4v8" fill="none" stroke="white" stroke-width="1.5" pointer-events="none"/>
                </g>
                <g id="zoomMin">
                        <use xlink:href="#rim" fill="#404040">
                                <set attributeName="fill" to="#808080" begin="zoomminus.mouseover" end="zoomminus.mouseout"/>
                        </use>
                        <path d="M-4,0h8" fill="none" stroke="white" stroke-width="1.5" pointer-events="none"/>
                </g>
                <g id="dirArrow">
                        <path fill="none" stroke="white" stroke-width="1.5" d="M0,-3.0v7 M-2.5,-0.5L0,-3.0L2.5,-0.5"/>
                </g>
               <g id="resetDef">
                       <use xlink:href="#rim2" fill="#404040">
                               <set attributeName="fill" to="#808080" begin="reset.mouseover" end="reset.mouseout"/>
                       </use>
               </g>
        </defs>

<script type="text/javascript">
var viewWidth = 696;
var viewHeight = 286;
var sectionId = 'dynsection-0';
</script>
<script xlink:href="svgpan.js"/>
<svg id="graph" class="graph">
<g id="viewport">
<title>graph_theory::add_edge</title>
<polygon fill="white" stroke="transparent" points="-4,4 -4,-282.03 692,-282.03 692,4 -4,4"/>
<!-- Node1 -->
<g id="node1" class="node">
<title>Node1</title>
<g id="a_node1"><a xlink:title=" ">
<polygon fill="#bfbfbf" stroke="black" points="554,-126.53 554,-145.53 688,-145.53 688,-126.53 554,-126.53"/>
<text text-anchor="middle" x="621" y="-133.53" font-family="Helvetica,sans-Serif" font-size="10.00">graph_theory::add_edge</text>
</a>
</g>
</g>
<!-- Node2 -->
<g id="node2" class="node">
<title>Node2</title>
<g id="a_node2"><a xlink:href="namespacegraph__theory.html#a305e818c99814cd465186b57c0a73f50" target="_top" xlink:title=" ">
<polygon fill="white" stroke="black" points="390,-258.53 390,-277.53 518,-277.53 518,-258.53 390,-258.53"/>
<text text-anchor="middle" x="454" y="-265.53" font-family="Helvetica,sans-Serif" font-size="10.00">graph_theory::graph_in</text>
</a>
</g>
</g>
<!-- Node1&#45;&gt;Node2 -->
<g id="edge1" class="edge">
<title>Node1&#45;&gt;Node2</title>
<path fill="none" stroke="midnightblue" d="M608.24,-154.37C591.28,-179.38 557.59,-223.94 518,-249.03 511.92,-252.88 505.02,-255.98 498.06,-258.48"/>
<polygon fill="midnightblue" stroke="midnightblue" points="611.3,-156.09 613.9,-145.82 605.46,-152.23 611.3,-156.09"/>
</g>
<!-- Node3 -->
<g id="node3" class="node">
<title>Node3</title>
<g id="a_node3"><a xlink:href="namespacegraph__theory.html#af419fd09d176890f30126a49064cbd9b" target="_top" xlink:title=" ">
<polygon fill="white" stroke="black" points="401.5,-209.03 401.5,-239.03 506.5,-239.03 506.5,-209.03 401.5,-209.03"/>
<text text-anchor="start" x="409.5" y="-227.03" font-family="Helvetica,sans-Serif" font-size="10.00">graph_theory::test</text>
<text text-anchor="middle" x="454" y="-216.03" font-family="Helvetica,sans-Serif" font-size="10.00">_add_edge</text>
</a>
</g>
</g>
<!-- Node1&#45;&gt;Node3 -->
<g id="edge2" class="edge">
<title>Node1&#45;&gt;Node3</title>
<path fill="none" stroke="midnightblue" d="M597.77,-151.34C577.53,-164.89 546.55,-184.68 518,-199.03 511.06,-202.51 503.51,-205.86 496.13,-208.92"/>
<polygon fill="midnightblue" stroke="midnightblue" points="599.94,-154.1 606.26,-145.6 596.02,-148.3 599.94,-154.1"/>
</g>
<!-- Node8 -->
<g id="node8" class="node">
<title>Node8</title>
<g id="a_node8"><a xlink:href="namespacegraph__theory.html#a2aea60be1c24dc82badd96e40923038b" target="_top" xlink:title=" ">
<polygon fill="white" stroke="black" points="391.5,-170.53 391.5,-189.53 516.5,-189.53 516.5,-170.53 391.5,-170.53"/>
<text text-anchor="middle" x="454" y="-177.53" font-family="Helvetica,sans-Serif" font-size="10.00">graph_theory::test_bfs</text>
</a>
</g>
</g>
<!-- Node1&#45;&gt;Node8 -->
<g id="edge7" class="edge">
<title>Node1&#45;&gt;Node8</title>
<path fill="none" stroke="midnightblue" d="M574.42,-148.18C548.02,-155.22 515.26,-163.96 490.73,-170.5"/>
<polygon fill="midnightblue" stroke="midnightblue" points="575.44,-151.53 584.2,-145.57 573.63,-144.77 575.44,-151.53"/>
</g>
<!-- Node9 -->
<g id="node9" class="node">
<title>Node9</title>
<g id="a_node9"><a xlink:href="namespacegraph__theory.html#aeebcf017acc0533f31c46d62d0cebe72" target="_top" xlink:title=" ">
<polygon fill="white" stroke="black" points="401.5,-121.03 401.5,-151.03 506.5,-151.03 506.5,-121.03 401.5,-121.03"/>
<text text-anchor="start" x="409.5" y="-139.03" font-family="Helvetica,sans-Serif" font-size="10.00">graph_theory::test</text>
<text text-anchor="middle" x="454" y="-128.03" font-family="Helvetica,sans-Serif" font-size="10.00">_bipartite</text>
</a>
</g>
</g>
<!-- Node1&#45;&gt;Node9 -->
<g id="edge9" class="edge">
<title>Node1&#45;&gt;Node9</title>
<path fill="none" stroke="midnightblue" d="M543.82,-136.03C531.25,-136.03 518.49,-136.03 506.7,-136.03"/>
<polygon fill="midnightblue" stroke="midnightblue" points="543.84,-139.53 553.84,-136.03 543.84,-132.53 543.84,-139.53"/>
</g>
<!-- Node10 -->
<g id="node10" class="node">
<title>Node10</title>
<g id="a_node10"><a xlink:href="hld_8hpp.html#a0f8ebd0629dcb0e21fdf73d137fce723" target="_top" xlink:title=" ">
<polygon fill="white" stroke="black" points="273.5,-33.53 273.5,-52.53 329.5,-52.53 329.5,-33.53 273.5,-33.53"/>
<text text-anchor="middle" x="301.5" y="-40.53" font-family="Helvetica,sans-Serif" font-size="10.00">test_hld</text>
</a>
</g>
</g>
<!-- Node1&#45;&gt;Node10 -->
<g id="edge11" class="edge">
<title>Node1&#45;&gt;Node10</title>
<path fill="none" stroke="midnightblue" d="M611.15,-117.17C596.46,-88.41 564.04,-34.66 518,-13.03 451.33,18.3 361.19,-15.5 322.02,-33.39"/>
<polygon fill="midnightblue" stroke="midnightblue" points="608.04,-118.78 615.6,-126.21 614.32,-115.69 608.04,-118.78"/>
</g>
<!-- Node11 -->
<g id="node11" class="node">
<title>Node11</title>
<g id="a_node11"><a xlink:href="namespacegraph__theory.html#abbe5b980d32347acbd0811f9c189d097" target="_top" xlink:title=" ">
<polygon fill="white" stroke="black" points="401.5,-72.03 401.5,-102.03 506.5,-102.03 506.5,-72.03 401.5,-72.03"/>
<text text-anchor="start" x="409.5" y="-90.03" font-family="Helvetica,sans-Serif" font-size="10.00">graph_theory::test</text>
<text text-anchor="middle" x="454" y="-79.03" font-family="Helvetica,sans-Serif" font-size="10.00">_max_match</text>
</a>
</g>
</g>
<!-- Node1&#45;&gt;Node11 -->
<g id="edge13" class="edge">
<title>Node1&#45;&gt;Node11</title>
<path fill="none" stroke="midnightblue" d="M578.06,-123.57C556.02,-117.03 528.84,-108.95 505.63,-102.06"/>
<polygon fill="midnightblue" stroke="midnightblue" points="577.21,-126.97 587.79,-126.46 579.2,-120.26 577.21,-126.97"/>
</g>
<!-- Node12 -->
<g id="node12" class="node">
<title>Node12</title>
<g id="a_node12"><a xlink:href="namespacegraph__theory.html#aa96a8c7fd5bf97d564842e0a0312db5e" target="_top" xlink:title=" ">
<polygon fill="white" stroke="black" points="401.5,-23.03 401.5,-53.03 506.5,-53.03 506.5,-23.03 401.5,-23.03"/>
<text text-anchor="start" x="409.5" y="-41.03" font-family="Helvetica,sans-Serif" font-size="10.00">graph_theory::test</text>
<text text-anchor="middle" x="454" y="-30.03" font-family="Helvetica,sans-Serif" font-size="10.00">_tree_diameter</text>
</a>
</g>
</g>
<!-- Node1&#45;&gt;Node12 -->
<g id="edge15" class="edge">
<title>Node1&#45;&gt;Node12</title>
<path fill="none" stroke="midnightblue" d="M600.73,-120.05C580.9,-104.14 548.64,-79.74 518,-63.03 511.39,-59.42 504.15,-56.05 497,-53.03"/>
<polygon fill="midnightblue" stroke="midnightblue" points="598.71,-122.92 608.68,-126.5 603.12,-117.48 598.71,-122.92"/>
</g>
<!-- Node4 -->
<g id="node4" class="node">
<title>Node4</title>
<g id="a_node4"><a xlink:href="namespacegraph__theory.html#aa2b38897f4c429325f0eb73b1137755a" target="_top" xlink:title=" ">
<polygon fill="white" stroke="black" points="249,-96.03 249,-126.03 354,-126.03 354,-96.03 249,-96.03"/>
<text text-anchor="start" x="257" y="-114.03" font-family="Helvetica,sans-Serif" font-size="10.00">graph_theory::test</text>
<text text-anchor="middle" x="301.5" y="-103.03" font-family="Helvetica,sans-Serif" font-size="10.00">_graph_theory</text>
</a>
</g>
</g>
<!-- Node3&#45;&gt;Node4 -->
<g id="edge3" class="edge">
<title>Node3&#45;&gt;Node4</title>
<path fill="none" stroke="midnightblue" d="M399.09,-204.41C395.94,-202.73 392.89,-200.93 390,-199.03 358.88,-178.51 329.86,-145.53 314.32,-126.31"/>
<polygon fill="midnightblue" stroke="midnightblue" points="397.61,-207.59 408.13,-208.89 400.72,-201.32 397.61,-207.59"/>
</g>
<!-- Node5 -->
<g id="node5" class="node">
<title>Node5</title>
<g id="a_node5"><a xlink:href="test_8cpp.html#aa1c715cac916839a95e25b65b4071c4a" target="_top" xlink:title=" ">
<polygon fill="white" stroke="black" points="160,-55.53 160,-74.53 213,-74.53 213,-55.53 160,-55.53"/>
<text text-anchor="middle" x="186.5" y="-62.53" font-family="Helvetica,sans-Serif" font-size="10.00">test_all</text>
</a>
</g>
</g>
<!-- Node4&#45;&gt;Node5 -->
<g id="edge4" class="edge">
<title>Node4&#45;&gt;Node5</title>
<path fill="none" stroke="midnightblue" d="M253.98,-92.09C239.21,-86.08 223.51,-79.69 211.08,-74.62"/>
<polygon fill="midnightblue" stroke="midnightblue" points="252.92,-95.43 263.5,-95.96 255.56,-88.95 252.92,-95.43"/>
</g>
<!-- Node6 -->
<g id="node6" class="node">
<title>Node6</title>
<g id="a_node6"><a xlink:href="test_8cpp.html#af095a232149097b5605064623a9345ac" target="_top" xlink:title=" ">
<polygon fill="white" stroke="black" points="77,-55.53 77,-74.53 124,-74.53 124,-55.53 77,-55.53"/>
<text text-anchor="middle" x="100.5" y="-62.53" font-family="Helvetica,sans-Serif" font-size="10.00">main2</text>
</a>
</g>
</g>
<!-- Node5&#45;&gt;Node6 -->
<g id="edge5" class="edge">
<title>Node5&#45;&gt;Node6</title>
<path fill="none" stroke="midnightblue" d="M149.59,-65.03C140.96,-65.03 131.99,-65.03 124.16,-65.03"/>
<polygon fill="midnightblue" stroke="midnightblue" points="149.84,-68.53 159.84,-65.03 149.84,-61.53 149.84,-68.53"/>
</g>
<!-- Node7 -->
<g id="node7" class="node">
<title>Node7</title>
<g id="a_node7"><a xlink:href="main_8hpp.html#a0ddf1224851353fc92bfbff6f499fa97" target="_top" xlink:title=" ">
<polygon fill="white" stroke="black" points="0,-55.53 0,-74.53 41,-74.53 41,-55.53 0,-55.53"/>
<text text-anchor="middle" x="20.5" y="-62.53" font-family="Helvetica,sans-Serif" font-size="10.00">main</text>
</a>
</g>
</g>
<!-- Node6&#45;&gt;Node7 -->
<g id="edge6" class="edge">
<title>Node6&#45;&gt;Node7</title>
<path fill="none" stroke="midnightblue" d="M66.66,-65.03C57.96,-65.03 48.84,-65.03 41.1,-65.03"/>
<polygon fill="midnightblue" stroke="midnightblue" points="66.94,-68.53 76.94,-65.03 66.94,-61.53 66.94,-68.53"/>
</g>
<!-- Node8&#45;&gt;Node4 -->
<g id="edge8" class="edge">
<title>Node8&#45;&gt;Node4</title>
<path fill="none" stroke="midnightblue" d="M406.67,-167.37C400.99,-165.43 395.31,-163.31 390,-161.03 367.18,-151.21 342.75,-136.9 325.52,-126.1"/>
<polygon fill="midnightblue" stroke="midnightblue" points="405.59,-170.7 416.19,-170.45 407.75,-164.04 405.59,-170.7"/>
</g>
<!-- Node9&#45;&gt;Node4 -->
<g id="edge10" class="edge">
<title>Node9&#45;&gt;Node4</title>
<path fill="none" stroke="midnightblue" d="M391.04,-125.73C378.77,-123.7 366.02,-121.58 354.13,-119.6"/>
<polygon fill="midnightblue" stroke="midnightblue" points="390.77,-129.24 401.21,-127.42 391.92,-122.33 390.77,-129.24"/>
</g>
<!-- Node10&#45;&gt;Node5 -->
<g id="edge12" class="edge">
<title>Node10&#45;&gt;Node5</title>
<path fill="none" stroke="midnightblue" d="M263.56,-50.22C247.08,-53.43 228.07,-57.13 213.18,-60.03"/>
<polygon fill="midnightblue" stroke="midnightblue" points="264.29,-53.64 273.43,-48.3 262.95,-46.77 264.29,-53.64"/>
</g>
<!-- Node11&#45;&gt;Node4 -->
<g id="edge14" class="edge">
<title>Node11&#45;&gt;Node4</title>
<path fill="none" stroke="midnightblue" d="M391.04,-96.91C378.77,-98.86 366.02,-100.9 354.13,-102.79"/>
<polygon fill="midnightblue" stroke="midnightblue" points="391.88,-100.32 401.21,-95.29 390.78,-93.4 391.88,-100.32"/>
</g>
<!-- Node12&#45;&gt;Node4 -->
<g id="edge16" class="edge">
<title>Node12&#45;&gt;Node4</title>
<path fill="none" stroke="midnightblue" d="M403.36,-57.05C398.81,-59 394.3,-61 390,-63.03 368.68,-73.06 345.32,-85.98 328.1,-95.89"/>
<polygon fill="midnightblue" stroke="midnightblue" points="404.81,-60.24 412.69,-53.16 402.11,-53.78 404.81,-60.24"/>
</g>
</g>
</svg>
        <g id="navigator" transform="translate(0 0)" fill="#404254">
                <rect fill="#f2f5e9" fill-opacity="0.5" stroke="#606060" stroke-width=".5" x="0" y="0" width="60" height="60"/>
                <use id="zoomplus" xlink:href="#zoomPlus" x="17" y="9" onmousedown="handleZoom(evt,'in')"/>
                <use id="zoomminus" xlink:href="#zoomMin" x="42" y="9" onmousedown="handleZoom(evt,'out')"/>
                <use id="reset" xlink:href="#resetDef" x="30" y="36" onmousedown="handleReset()"/>
                <g id="arrowUp" xlink:href="#dirArrow" transform="translate(30 24)" onmousedown="handlePan(0,-1)">
                  <use xlink:href="#rim" fill="#404040">
                        <set attributeName="fill" to="#808080" begin="arrowUp.mouseover" end="arrowUp.mouseout"/>
                  </use>
                  <path fill="none" stroke="white" stroke-width="1.5" d="M0,-3.0v7 M-2.5,-0.5L0,-3.0L2.5,-0.5"/>
                </g>
                <g id="arrowRight" xlink:href="#dirArrow" transform="rotate(90) translate(36 -43)" onmousedown="handlePan(1,0)">
                  <use xlink:href="#rim" fill="#404040">
                        <set attributeName="fill" to="#808080" begin="arrowRight.mouseover" end="arrowRight.mouseout"/>
                  </use>
                  <path fill="none" stroke="white" stroke-width="1.5" d="M0,-3.0v7 M-2.5,-0.5L0,-3.0L2.5,-0.5"/>
                </g>
                <g id="arrowDown" xlink:href="#dirArrow" transform="rotate(180) translate(-30 -48)" onmousedown="handlePan(0,1)">
                  <use xlink:href="#rim" fill="#404040">
                        <set attributeName="fill" to="#808080" begin="arrowDown.mouseover" end="arrowDown.mouseout"/>
                  </use>
                  <path fill="none" stroke="white" stroke-width="1.5" d="M0,-3.0v7 M-2.5,-0.5L0,-3.0L2.5,-0.5"/>
                </g>
                <g id="arrowLeft" xlink:href="#dirArrow" transform="rotate(270) translate(-36 17)" onmousedown="handlePan(-1,0)">
                  <use xlink:href="#rim" fill="#404040">
                        <set attributeName="fill" to="#808080" begin="arrowLeft.mouseover" end="arrowLeft.mouseout"/>
                  </use>
                  <path fill="none" stroke="white" stroke-width="1.5" d="M0,-3.0v7 M-2.5,-0.5L0,-3.0L2.5,-0.5"/>
                </g>
        </g>
        <svg viewBox="0 0 15 15" width="100%" height="30px" preserveAspectRatio="xMaxYMin meet">
         <g id="arrow_out" transform="scale(0.3 0.3)">
          <a xlink:href="namespacegraph__theory_a7baea0d3e99864e50ed82e6e93a88eb5_icgraph_org.svg" target="_base">
           <rect id="button" ry="5" rx="5" y="6" x="6" height="38" width="38"
                fill="#f2f5e9" fill-opacity="0.5" stroke="#606060" stroke-width="1.0"/>
           <path id="arrow"
             d="M 11.500037,31.436501 C 11.940474,20.09759 22.043105,11.32322 32.158766,21.979434 L 37.068811,17.246167 C 37.068811,17.246167 37.088388,32 37.088388,32 L 22.160133,31.978069 C 22.160133,31.978069 26.997745,27.140456 26.997745,27.140456 C 18.528582,18.264221 13.291696,25.230495 11.500037,31.436501 z"
             style="fill:#404040;"/>
          </a>
         </g>
        </svg>
</svg>
