<?xml version="1.0" encoding="UTF-8" standalone="no"?>
<!DOCTYPE svg PUBLIC "-//W3C//DTD SVG 1.1//EN"
 "http://www.w3.org/Graphics/SVG/1.1/DTD/svg11.dtd">
<!-- Generated by graphviz version 2.43.0 (0)
 -->
<!-- Title: test_dlog Pages: 1 -->
<svg width="1003pt" height="172pt"
 viewBox="0.00 0.00 1003.00 171.72" xmlns="http://www.w3.org/2000/svg" xmlns:xlink="http://www.w3.org/1999/xlink">
<g id="graph0" class="graph" transform="scale(1 1) rotate(0) translate(4 167.72)">
<title>test_dlog</title>
<polygon fill="white" stroke="transparent" points="-4,4 -4,-167.72 999,-167.72 999,4 -4,4"/>
<!-- Node1 -->
<g id="node1" class="node">
<title>Node1</title>
<g id="a_node1"><a xlink:title=" ">
<polygon fill="#bfbfbf" stroke="black" points="0,-30.22 0,-49.22 62,-49.22 62,-30.22 0,-30.22"/>
<text text-anchor="middle" x="31" y="-37.22" font-family="Helvetica,sans-Serif" font-size="10.00">test_dlog</text>
</a>
</g>
</g>
<!-- Node2 -->
<g id="node2" class="node">
<title>Node2</title>
<g id="a_node2"><a xlink:href="number__theory_8hpp.html#a67527905c2b2c027c8b458902db2d05a" target="_top" xlink:title="Finds x such that a^x = b (mod M) using baby&#45;step giant&#45;step algorithm. a and M must be coprime.">
<polygon fill="white" stroke="black" points="98,-87.22 98,-106.22 136,-106.22 136,-87.22 98,-87.22"/>
<text text-anchor="middle" x="117" y="-94.22" font-family="Helvetica,sans-Serif" font-size="10.00">dlog</text>
</a>
</g>
</g>
<!-- Node1&#45;&gt;Node2 -->
<g id="edge1" class="edge">
<title>Node1&#45;&gt;Node2</title>
<path fill="none" stroke="midnightblue" d="M46.25,-49.39C59.12,-58.12 78.28,-71.12 93.26,-81.29"/>
<polygon fill="midnightblue" stroke="midnightblue" points="91.72,-84.47 101.96,-87.19 95.65,-78.68 91.72,-84.47"/>
</g>
<!-- Node4 -->
<g id="node4" class="node">
<title>Node4</title>
<g id="a_node4"><a xlink:href="namespacemodulo__namespace.html#a8e6fc91a032b336ea0bbed9eabf54f69" target="_top" xlink:title="Returns .">
<polygon fill="white" stroke="black" points="650,-68.22 650,-87.22 801,-87.22 801,-68.22 650,-68.22"/>
<text text-anchor="middle" x="725.5" y="-75.22" font-family="Helvetica,sans-Serif" font-size="10.00">modulo_namespace::power</text>
</a>
</g>
</g>
<!-- Node1&#45;&gt;Node4 -->
<g id="edge13" class="edge">
<title>Node1&#45;&gt;Node4</title>
<path fill="none" stroke="midnightblue" d="M62.02,-30.81C102.58,-19.58 177.33,-1.72 242.5,-1.72 242.5,-1.72 242.5,-1.72 407,-1.72 499.39,-1.72 525.31,5.16 614,-20.72 646.27,-30.14 680.18,-49.19 701.78,-62.67"/>
<polygon fill="midnightblue" stroke="midnightblue" points="699.93,-65.65 710.25,-68.07 703.69,-59.74 699.93,-65.65"/>
</g>
<!-- Node3 -->
<g id="node3" class="node">
<title>Node3</title>
<g id="a_node3"><a xlink:href="namespacemodulo__namespace.html#a2507e89fefa09a358a9de729b15dd642" target="_top" xlink:title="Returns the remainder of a divided by b as a nonnegative integer in [0, b).">
<polygon fill="white" stroke="black" points="172,-144.22 172,-163.22 315,-163.22 315,-144.22 172,-144.22"/>
<text text-anchor="middle" x="243.5" y="-151.22" font-family="Helvetica,sans-Serif" font-size="10.00">modulo_namespace::mod</text>
</a>
</g>
</g>
<!-- Node2&#45;&gt;Node3 -->
<g id="edge2" class="edge">
<title>Node2&#45;&gt;Node3</title>
<path fill="none" stroke="midnightblue" d="M131.74,-106.29C142.38,-113.4 157.67,-123 172,-129.72 180.86,-133.87 190.65,-137.67 200.04,-140.96"/>
<polygon fill="midnightblue" stroke="midnightblue" points="199.03,-144.31 209.62,-144.19 201.27,-137.68 199.03,-144.31"/>
</g>
<!-- Node2&#45;&gt;Node4 -->
<g id="edge3" class="edge">
<title>Node2&#45;&gt;Node4</title>
<path fill="none" stroke="midnightblue" d="M136.06,-97.83C200.89,-101.56 427.82,-112.61 614,-96.72 632.16,-95.17 651.81,-92.21 669.44,-89.08"/>
<polygon fill="midnightblue" stroke="midnightblue" points="670.36,-92.47 679.56,-87.23 669.1,-85.59 670.36,-92.47"/>
</g>
<!-- Node7 -->
<g id="node7" class="node">
<title>Node7</title>
<g id="a_node7"><a xlink:href="number__theory_8hpp.html#af0753ff92c84e6924e1fd6461e77b16f" target="_top" xlink:title="Returns the totient of the integer n.">
<polygon fill="white" stroke="black" points="219,-68.22 219,-87.22 268,-87.22 268,-68.22 219,-68.22"/>
<text text-anchor="middle" x="243.5" y="-75.22" font-family="Helvetica,sans-Serif" font-size="10.00">totient</text>
</a>
</g>
</g>
<!-- Node2&#45;&gt;Node7 -->
<g id="edge7" class="edge">
<title>Node2&#45;&gt;Node7</title>
<path fill="none" stroke="midnightblue" d="M136.1,-93.96C155.14,-91.05 185.52,-86.42 208.95,-82.84"/>
<polygon fill="midnightblue" stroke="midnightblue" points="209.48,-86.3 218.84,-81.33 208.42,-79.38 209.48,-86.3"/>
</g>
<!-- Node5 -->
<g id="node5" class="node">
<title>Node5</title>
<g id="a_node5"><a xlink:href="namespacemodulo__namespace.html#a55577c112e6d41b6314ad996f9e48842" target="_top" xlink:title=" ">
<polygon fill="white" stroke="black" points="837,-106.22 837,-125.22 995,-125.22 995,-106.22 837,-106.22"/>
<text text-anchor="middle" x="916" y="-113.22" font-family="Helvetica,sans-Serif" font-size="10.00">modulo_namespace::identity</text>
</a>
</g>
</g>
<!-- Node4&#45;&gt;Node5 -->
<g id="edge4" class="edge">
<title>Node4&#45;&gt;Node5</title>
<path fill="none" stroke="midnightblue" d="M774.07,-87.31C799.5,-92.44 831,-98.79 857.77,-104.18"/>
<polygon fill="midnightblue" stroke="midnightblue" points="857.28,-107.65 867.78,-106.2 858.66,-100.79 857.28,-107.65"/>
</g>
<!-- Node6 -->
<g id="node6" class="node">
<title>Node6</title>
<g id="a_node6"><a xlink:href="namespacemodulo__namespace.html#aac690d54b7665a90ca461724df8907c0" target="_top" xlink:title=" ">
<polygon fill="white" stroke="black" points="841.5,-68.22 841.5,-87.22 990.5,-87.22 990.5,-68.22 841.5,-68.22"/>
<text text-anchor="middle" x="916" y="-75.22" font-family="Helvetica,sans-Serif" font-size="10.00">modulo_namespace::invert</text>
</a>
</g>
</g>
<!-- Node4&#45;&gt;Node6 -->
<g id="edge5" class="edge">
<title>Node4&#45;&gt;Node6</title>
<path fill="none" stroke="midnightblue" d="M801,-71.1C810.96,-70.97 821.22,-70.93 831.32,-71.01"/>
<polygon fill="midnightblue" stroke="midnightblue" points="831.31,-74.51 841.35,-71.11 831.39,-67.51 831.31,-74.51"/>
</g>
<!-- Node6&#45;&gt;Node4 -->
<g id="edge6" class="edge">
<title>Node6&#45;&gt;Node4</title>
<path fill="none" stroke="midnightblue" d="M841.35,-84.32C831.41,-84.47 821.15,-84.5 811.04,-84.44"/>
<polygon fill="midnightblue" stroke="midnightblue" points="811.04,-80.94 801,-84.34 810.96,-87.94 811.04,-80.94"/>
</g>
<!-- Node8 -->
<g id="node8" class="node">
<title>Node8</title>
<g id="a_node8"><a xlink:href="number__theory_8hpp.html#a8119b9949ade11ba2f554e41cc0830df" target="_top" xlink:title="Returns the factorization of n.">
<polygon fill="white" stroke="black" points="390,-68.22 390,-87.22 422,-87.22 422,-68.22 390,-68.22"/>
<text text-anchor="middle" x="406" y="-75.22" font-family="Helvetica,sans-Serif" font-size="10.00">fac</text>
</a>
</g>
</g>
<!-- Node7&#45;&gt;Node8 -->
<g id="edge8" class="edge">
<title>Node7&#45;&gt;Node8</title>
<path fill="none" stroke="midnightblue" d="M268.18,-77.72C298,-77.72 349.03,-77.72 379.63,-77.72"/>
<polygon fill="midnightblue" stroke="midnightblue" points="379.9,-81.22 389.9,-77.72 379.9,-74.22 379.9,-81.22"/>
</g>
<!-- Node10 -->
<g id="node10" class="node">
<title>Node10</title>
<g id="a_node10"><a xlink:href="namespacecombinatorics.html#a20e5a1b40f76572aa1e18b228b6e4849" target="_top" xlink:title=" ">
<polygon fill="white" stroke="black" points="351,-30.22 351,-49.22 461,-49.22 461,-30.22 351,-30.22"/>
<text text-anchor="middle" x="406" y="-37.22" font-family="Helvetica,sans-Serif" font-size="10.00">combinatorics::fact</text>
</a>
</g>
</g>
<!-- Node7&#45;&gt;Node10 -->
<g id="edge11" class="edge">
<title>Node7&#45;&gt;Node10</title>
<path fill="none" stroke="midnightblue" d="M268.18,-72.11C290.88,-66.74 325.86,-58.46 354.77,-51.61"/>
<polygon fill="midnightblue" stroke="midnightblue" points="355.79,-54.97 364.72,-49.26 354.18,-48.15 355.79,-54.97"/>
</g>
<!-- Node9 -->
<g id="node9" class="node">
<title>Node9</title>
<g id="a_node9"><a xlink:href="number__theory_8hpp.html#a02e886c6eb18cd3b8894ea2ba9ca9784" target="_top" xlink:title="Return whether integer n &gt;= 2 is prime.">
<polygon fill="white" stroke="black" points="533,-68.22 533,-87.22 578,-87.22 578,-68.22 533,-68.22"/>
<text text-anchor="middle" x="555.5" y="-75.22" font-family="Helvetica,sans-Serif" font-size="10.00">prime</text>
</a>
</g>
</g>
<!-- Node8&#45;&gt;Node9 -->
<g id="edge9" class="edge">
<title>Node8&#45;&gt;Node9</title>
<path fill="none" stroke="midnightblue" d="M422.23,-77.72C445.8,-77.72 491.63,-77.72 522.66,-77.72"/>
<polygon fill="midnightblue" stroke="midnightblue" points="522.95,-81.22 532.95,-77.72 522.95,-74.22 522.95,-81.22"/>
</g>
<!-- Node9&#45;&gt;Node4 -->
<g id="edge10" class="edge">
<title>Node9&#45;&gt;Node4</title>
<path fill="none" stroke="midnightblue" d="M578.12,-77.72C594.02,-77.72 616.76,-77.72 639.58,-77.72"/>
<polygon fill="midnightblue" stroke="midnightblue" points="639.7,-81.22 649.7,-77.72 639.7,-74.22 639.7,-81.22"/>
</g>
<!-- Node11 -->
<g id="node11" class="node">
<title>Node11</title>
<g id="a_node11"><a xlink:href="namespacecombinatorics.html#a7c355be8fa586494f280768dc777dede" target="_top" xlink:title=" ">
<polygon fill="white" stroke="black" points="497,-30.22 497,-49.22 614,-49.22 614,-30.22 497,-30.22"/>
<text text-anchor="middle" x="555.5" y="-37.22" font-family="Helvetica,sans-Serif" font-size="10.00">combinatorics::perm</text>
</a>
</g>
</g>
<!-- Node10&#45;&gt;Node11 -->
<g id="edge12" class="edge">
<title>Node10&#45;&gt;Node11</title>
<path fill="none" stroke="midnightblue" d="M461.09,-39.72C469.48,-39.72 478.24,-39.72 486.88,-39.72"/>
<polygon fill="midnightblue" stroke="midnightblue" points="486.95,-43.22 496.95,-39.72 486.95,-36.22 486.95,-43.22"/>
</g>
</g>
</svg>
