<?xml version="1.0" encoding="UTF-8" standalone="no"?>
<!DOCTYPE svg PUBLIC "-//W3C//DTD SVG 1.1//EN"
 "http://www.w3.org/Graphics/SVG/1.1/DTD/svg11.dtd">
<!-- Generated by graphviz version 2.43.0 (0)
 -->
<!-- Title: totient Pages: 1 -->
<svg width="543pt" height="66pt"
 viewBox="0.00 0.00 543.00 66.00" xmlns="http://www.w3.org/2000/svg" xmlns:xlink="http://www.w3.org/1999/xlink">
<g id="graph0" class="graph" transform="scale(1 1) rotate(0) translate(4 62)">
<title>totient</title>
<polygon fill="white" stroke="transparent" points="-4,4 -4,-62 539,-62 539,4 -4,4"/>
<!-- Node1 -->
<g id="node1" class="node">
<title>Node1</title>
<g id="a_node1"><a xlink:title=" ">
<polygon fill="#bfbfbf" stroke="black" points="0,-19.5 0,-38.5 49,-38.5 49,-19.5 0,-19.5"/>
<text text-anchor="middle" x="24.5" y="-26.5" font-family="Helvetica,sans-Serif" font-size="10.00">totient</text>
</a>
</g>
</g>
<!-- Node2 -->
<g id="node2" class="node">
<title>Node2</title>
<g id="a_node2"><a xlink:href="number__theory_8hpp.html#a8119b9949ade11ba2f554e41cc0830df" target="_top" xlink:title=" ">
<polygon fill="white" stroke="black" points="124,-38.5 124,-57.5 156,-57.5 156,-38.5 124,-38.5"/>
<text text-anchor="middle" x="140" y="-45.5" font-family="Helvetica,sans-Serif" font-size="10.00">fac</text>
</a>
</g>
</g>
<!-- Node1&#45;&gt;Node2 -->
<g id="edge1" class="edge">
<title>Node1&#45;&gt;Node2</title>
<path fill="none" stroke="midnightblue" d="M49.02,-32.94C67.97,-36.11 94.57,-40.56 113.93,-43.8"/>
<polygon fill="midnightblue" stroke="midnightblue" points="113.4,-47.26 123.84,-45.46 114.56,-40.36 113.4,-47.26"/>
</g>
<!-- Node5 -->
<g id="node5" class="node">
<title>Node5</title>
<g id="a_node5"><a xlink:href="namespacecombinatorics.html#a20e5a1b40f76572aa1e18b228b6e4849" target="_top" xlink:title=" ">
<polygon fill="white" stroke="black" points="85,-0.5 85,-19.5 195,-19.5 195,-0.5 85,-0.5"/>
<text text-anchor="middle" x="140" y="-7.5" font-family="Helvetica,sans-Serif" font-size="10.00">combinatorics::fact</text>
</a>
</g>
</g>
<!-- Node1&#45;&gt;Node5 -->
<g id="edge4" class="edge">
<title>Node1&#45;&gt;Node5</title>
<path fill="none" stroke="midnightblue" d="M49.02,-25.06C56.65,-23.79 65.51,-22.3 74.65,-20.77"/>
<polygon fill="midnightblue" stroke="midnightblue" points="75.33,-24.21 84.62,-19.1 74.18,-17.3 75.33,-24.21"/>
</g>
<!-- Node3 -->
<g id="node3" class="node">
<title>Node3</title>
<g id="a_node3"><a xlink:href="number__theory_8hpp.html#a02e886c6eb18cd3b8894ea2ba9ca9784" target="_top" xlink:title=" ">
<polygon fill="white" stroke="black" points="267,-38.5 267,-57.5 312,-57.5 312,-38.5 267,-38.5"/>
<text text-anchor="middle" x="289.5" y="-45.5" font-family="Helvetica,sans-Serif" font-size="10.00">prime</text>
</a>
</g>
</g>
<!-- Node2&#45;&gt;Node3 -->
<g id="edge2" class="edge">
<title>Node2&#45;&gt;Node3</title>
<path fill="none" stroke="midnightblue" d="M156.23,-48C179.8,-48 225.63,-48 256.66,-48"/>
<polygon fill="midnightblue" stroke="midnightblue" points="256.95,-51.5 266.95,-48 256.95,-44.5 256.95,-51.5"/>
</g>
<!-- Node4 -->
<g id="node4" class="node">
<title>Node4</title>
<g id="a_node4"><a xlink:href="namespacemodulo__namespace.html#ae945155bea2750e68757ebc9c05ae356" target="_top" xlink:title=" ">
<polygon fill="white" stroke="black" points="384,-38.5 384,-57.5 535,-57.5 535,-38.5 384,-38.5"/>
<text text-anchor="middle" x="459.5" y="-45.5" font-family="Helvetica,sans-Serif" font-size="10.00">modulo_namespace::power</text>
</a>
</g>
</g>
<!-- Node3&#45;&gt;Node4 -->
<g id="edge3" class="edge">
<title>Node3&#45;&gt;Node4</title>
<path fill="none" stroke="midnightblue" d="M312.12,-48C328.02,-48 350.76,-48 373.58,-48"/>
<polygon fill="midnightblue" stroke="midnightblue" points="373.7,-51.5 383.7,-48 373.7,-44.5 373.7,-51.5"/>
</g>
<!-- Node6 -->
<g id="node6" class="node">
<title>Node6</title>
<g id="a_node6"><a xlink:href="namespacecombinatorics.html#a7c355be8fa586494f280768dc777dede" target="_top" xlink:title=" ">
<polygon fill="white" stroke="black" points="231,-0.5 231,-19.5 348,-19.5 348,-0.5 231,-0.5"/>
<text text-anchor="middle" x="289.5" y="-7.5" font-family="Helvetica,sans-Serif" font-size="10.00">combinatorics::perm</text>
</a>
</g>
</g>
<!-- Node5&#45;&gt;Node6 -->
<g id="edge5" class="edge">
<title>Node5&#45;&gt;Node6</title>
<path fill="none" stroke="midnightblue" d="M195.09,-10C203.48,-10 212.24,-10 220.88,-10"/>
<polygon fill="midnightblue" stroke="midnightblue" points="220.95,-13.5 230.95,-10 220.95,-6.5 220.95,-13.5"/>
</g>
</g>
</svg>
