<?xml version="1.0" encoding="UTF-8" standalone="no"?>
<!DOCTYPE svg PUBLIC "-//W3C//DTD SVG 1.1//EN"
 "http://www.w3.org/Graphics/SVG/1.1/DTD/svg11.dtd">
<!-- Generated by graphviz version 2.43.0 (0)
 -->
<!-- Title: fac Pages: 1 -->
<svg width="502pt" height="66pt"
 viewBox="0.00 0.00 502.00 66.00" xmlns="http://www.w3.org/2000/svg" xmlns:xlink="http://www.w3.org/1999/xlink">
<g id="graph0" class="graph" transform="scale(1 1) rotate(0) translate(4 62)">
<title>fac</title>
<polygon fill="white" stroke="transparent" points="-4,4 -4,-62 498,-62 498,4 -4,4"/>
<!-- Node1 -->
<g id="node1" class="node">
<title>Node1</title>
<g id="a_node1"><a xlink:title="Returns the factorization of n.">
<polygon fill="#bfbfbf" stroke="black" points="0,-0.5 0,-19.5 32,-19.5 32,-0.5 0,-0.5"/>
<text text-anchor="middle" x="16" y="-7.5" font-family="Helvetica,sans-Serif" font-size="10.00">fac</text>
</a>
</g>
</g>
<!-- Node2 -->
<g id="node2" class="node">
<title>Node2</title>
<g id="a_node2"><a xlink:href="number__theory_8hpp.html#a02e886c6eb18cd3b8894ea2ba9ca9784" target="_top" xlink:title="Return whether integer n &gt;= 2 is prime.">
<polygon fill="white" stroke="black" points="68,-0.5 68,-19.5 113,-19.5 113,-0.5 68,-0.5"/>
<text text-anchor="middle" x="90.5" y="-7.5" font-family="Helvetica,sans-Serif" font-size="10.00">prime</text>
</a>
</g>
</g>
<!-- Node1&#45;&gt;Node2 -->
<g id="edge1" class="edge">
<title>Node1&#45;&gt;Node2</title>
<path fill="none" stroke="midnightblue" d="M32.02,-10C39.47,-10 48.78,-10 57.71,-10"/>
<polygon fill="midnightblue" stroke="midnightblue" points="57.9,-13.5 67.9,-10 57.9,-6.5 57.9,-13.5"/>
</g>
<!-- Node3 -->
<g id="node3" class="node">
<title>Node3</title>
<g id="a_node3"><a xlink:href="namespacemodulo__namespace.html#a8e6fc91a032b336ea0bbed9eabf54f69" target="_top" xlink:title="Returns .">
<polygon fill="white" stroke="black" points="149,-0.5 149,-19.5 300,-19.5 300,-0.5 149,-0.5"/>
<text text-anchor="middle" x="224.5" y="-7.5" font-family="Helvetica,sans-Serif" font-size="10.00">modulo_namespace::power</text>
</a>
</g>
</g>
<!-- Node2&#45;&gt;Node3 -->
<g id="edge2" class="edge">
<title>Node2&#45;&gt;Node3</title>
<path fill="none" stroke="midnightblue" d="M113,-10C120.48,-10 129.39,-10 138.86,-10"/>
<polygon fill="midnightblue" stroke="midnightblue" points="138.89,-13.5 148.89,-10 138.89,-6.5 138.89,-13.5"/>
</g>
<!-- Node4 -->
<g id="node4" class="node">
<title>Node4</title>
<g id="a_node4"><a xlink:href="namespacemodulo__namespace.html#a55577c112e6d41b6314ad996f9e48842" target="_top" xlink:title=" ">
<polygon fill="white" stroke="black" points="336,-38.5 336,-57.5 494,-57.5 494,-38.5 336,-38.5"/>
<text text-anchor="middle" x="415" y="-45.5" font-family="Helvetica,sans-Serif" font-size="10.00">modulo_namespace::identity</text>
</a>
</g>
</g>
<!-- Node3&#45;&gt;Node4 -->
<g id="edge3" class="edge">
<title>Node3&#45;&gt;Node4</title>
<path fill="none" stroke="midnightblue" d="M273.07,-19.59C298.5,-24.72 330,-31.07 356.77,-36.46"/>
<polygon fill="midnightblue" stroke="midnightblue" points="356.28,-39.93 366.78,-38.48 357.66,-33.07 356.28,-39.93"/>
</g>
<!-- Node5 -->
<g id="node5" class="node">
<title>Node5</title>
<g id="a_node5"><a xlink:href="namespacemodulo__namespace.html#aac690d54b7665a90ca461724df8907c0" target="_top" xlink:title=" ">
<polygon fill="white" stroke="black" points="340.5,-0.5 340.5,-19.5 489.5,-19.5 489.5,-0.5 340.5,-0.5"/>
<text text-anchor="middle" x="415" y="-7.5" font-family="Helvetica,sans-Serif" font-size="10.00">modulo_namespace::invert</text>
</a>
</g>
</g>
<!-- Node3&#45;&gt;Node5 -->
<g id="edge4" class="edge">
<title>Node3&#45;&gt;Node5</title>
<path fill="none" stroke="midnightblue" d="M300,-3.38C309.96,-3.25 320.22,-3.22 330.32,-3.29"/>
<polygon fill="midnightblue" stroke="midnightblue" points="330.31,-6.79 340.35,-3.4 330.39,0.21 330.31,-6.79"/>
</g>
<!-- Node5&#45;&gt;Node3 -->
<g id="edge5" class="edge">
<title>Node5&#45;&gt;Node3</title>
<path fill="none" stroke="midnightblue" d="M340.35,-16.6C330.41,-16.75 320.15,-16.78 310.04,-16.72"/>
<polygon fill="midnightblue" stroke="midnightblue" points="310.04,-13.22 300,-16.62 309.96,-20.22 310.04,-13.22"/>
</g>
</g>
</svg>
