<?xml version="1.0" encoding="UTF-8" standalone="no"?>
<!DOCTYPE svg PUBLIC "-//W3C//DTD SVG 1.1//EN"
 "http://www.w3.org/Graphics/SVG/1.1/DTD/svg11.dtd">
<!-- Generated by graphviz version 2.43.0 (0)
 -->
<!-- Title: test_number_theory Pages: 1 -->
<svg width="982pt" height="332pt"
 viewBox="0.00 0.00 982.00 332.00" xmlns="http://www.w3.org/2000/svg" xmlns:xlink="http://www.w3.org/1999/xlink">
<g id="graph0" class="graph" transform="scale(1 1) rotate(0) translate(4 328)">
<title>test_number_theory</title>
<polygon fill="white" stroke="transparent" points="-4,4 -4,-328 978,-328 978,4 -4,4"/>
<!-- Node1 -->
<g id="node1" class="node">
<title>Node1</title>
<g id="a_node1"><a xlink:title=" ">
<polygon fill="#bfbfbf" stroke="black" points="0,-171.5 0,-190.5 115,-190.5 115,-171.5 0,-171.5"/>
<text text-anchor="middle" x="57.5" y="-178.5" font-family="Helvetica,sans-Serif" font-size="10.00">test_number_theory</text>
</a>
</g>
</g>
<!-- Node2 -->
<g id="node2" class="node">
<title>Node2</title>
<g id="a_node2"><a xlink:href="number__theory_8hpp.html#a3e935b9aca6e9dfa6b0a8ef9a4c7e153" target="_top" xlink:title=" ">
<polygon fill="white" stroke="black" points="166.5,-304.5 166.5,-323.5 245.5,-323.5 245.5,-304.5 166.5,-304.5"/>
<text text-anchor="middle" x="206" y="-311.5" font-family="Helvetica,sans-Serif" font-size="10.00">test_divisors</text>
</a>
</g>
</g>
<!-- Node1&#45;&gt;Node2 -->
<g id="edge1" class="edge">
<title>Node1&#45;&gt;Node2</title>
<path fill="none" stroke="midnightblue" d="M64.53,-190.71C77.84,-211.45 111.66,-260.55 151,-290 156.12,-293.83 161.95,-297.22 167.84,-300.16"/>
<polygon fill="midnightblue" stroke="midnightblue" points="166.5,-303.39 177.05,-304.39 169.42,-297.04 166.5,-303.39"/>
</g>
<!-- Node4 -->
<g id="node4" class="node">
<title>Node4</title>
<g id="a_node4"><a xlink:href="number__theory_8hpp.html#a7aac53ce82614d79c7098a1de32ed1e7" target="_top" xlink:title=" ">
<polygon fill="white" stroke="black" points="175,-114.5 175,-133.5 237,-133.5 237,-114.5 175,-114.5"/>
<text text-anchor="middle" x="206" y="-121.5" font-family="Helvetica,sans-Serif" font-size="10.00">test_dlog</text>
</a>
</g>
</g>
<!-- Node1&#45;&gt;Node4 -->
<g id="edge3" class="edge">
<title>Node1&#45;&gt;Node4</title>
<path fill="none" stroke="midnightblue" d="M83.02,-171.46C107.11,-162.09 144.06,-147.71 170.98,-137.24"/>
<polygon fill="midnightblue" stroke="midnightblue" points="172.35,-140.46 180.4,-133.57 169.81,-133.94 172.35,-140.46"/>
</g>
<!-- Node12 -->
<g id="node12" class="node">
<title>Node12</title>
<g id="a_node12"><a xlink:href="number__theory_8hpp.html#ae2f84cd254fbf1373fc273141ce470ed" target="_top" xlink:title=" ">
<polygon fill="white" stroke="black" points="174,-57.5 174,-76.5 238,-76.5 238,-57.5 174,-57.5"/>
<text text-anchor="middle" x="206" y="-64.5" font-family="Helvetica,sans-Serif" font-size="10.00">test_egcd</text>
</a>
</g>
</g>
<!-- Node1&#45;&gt;Node12 -->
<g id="edge13" class="edge">
<title>Node1&#45;&gt;Node12</title>
<path fill="none" stroke="midnightblue" d="M69.67,-171.36C86.84,-156.66 120.9,-127.91 151,-105 161.06,-97.35 172.47,-89.24 182.2,-82.48"/>
<polygon fill="midnightblue" stroke="midnightblue" points="184.33,-85.27 190.58,-76.72 180.36,-79.5 184.33,-85.27"/>
</g>
<!-- Node14 -->
<g id="node14" class="node">
<title>Node14</title>
<g id="a_node14"><a xlink:href="number__theory_8hpp.html#afcfd3b1e3415393029bc6a496d825459" target="_top" xlink:title=" ">
<polygon fill="white" stroke="black" points="425.5,-266.5 425.5,-285.5 481.5,-285.5 481.5,-266.5 425.5,-266.5"/>
<text text-anchor="middle" x="453.5" y="-273.5" font-family="Helvetica,sans-Serif" font-size="10.00">test_fac</text>
</a>
</g>
</g>
<!-- Node1&#45;&gt;Node14 -->
<g id="edge15" class="edge">
<title>Node1&#45;&gt;Node14</title>
<path fill="none" stroke="midnightblue" d="M78.28,-190.53C96.72,-199.07 125.19,-211.39 151,-219 251.59,-248.64 280.04,-242.09 383,-262 393.51,-264.03 404.91,-266.3 415.37,-268.41"/>
<polygon fill="midnightblue" stroke="midnightblue" points="414.96,-271.9 425.45,-270.45 416.35,-265.04 414.96,-271.9"/>
</g>
<!-- Node15 -->
<g id="node15" class="node">
<title>Node15</title>
<g id="a_node15"><a xlink:href="number__theory_8hpp.html#a87d7c3ba2489977a16ec40544a918e00" target="_top" xlink:title=" ">
<polygon fill="white" stroke="black" points="419,-304.5 419,-323.5 488,-323.5 488,-304.5 419,-304.5"/>
<text text-anchor="middle" x="453.5" y="-311.5" font-family="Helvetica,sans-Serif" font-size="10.00">test_prime</text>
</a>
</g>
</g>
<!-- Node1&#45;&gt;Node15 -->
<g id="edge17" class="edge">
<title>Node1&#45;&gt;Node15</title>
<path fill="none" stroke="midnightblue" d="M69.31,-190.64C85.76,-204.77 118.57,-230.95 151,-245 247.79,-286.93 280.53,-269.97 383,-295 391.47,-297.07 400.48,-299.42 409.11,-301.75"/>
<polygon fill="midnightblue" stroke="midnightblue" points="408.44,-305.19 419.01,-304.45 410.29,-298.44 408.44,-305.19"/>
</g>
<!-- Node16 -->
<g id="node16" class="node">
<title>Node16</title>
<g id="a_node16"><a xlink:href="number__theory_8hpp.html#a0ff115471f41e78245b5dc48eaf8032f" target="_top" xlink:title=" ">
<polygon fill="white" stroke="black" points="151,-190.5 151,-209.5 261,-209.5 261,-190.5 151,-190.5"/>
<text text-anchor="middle" x="206" y="-197.5" font-family="Helvetica,sans-Serif" font-size="10.00">test_primitive_root</text>
</a>
</g>
</g>
<!-- Node1&#45;&gt;Node16 -->
<g id="edge19" class="edge">
<title>Node1&#45;&gt;Node16</title>
<path fill="none" stroke="midnightblue" d="M115.14,-188.35C123.59,-189.44 132.35,-190.58 140.94,-191.69"/>
<polygon fill="midnightblue" stroke="midnightblue" points="140.55,-195.17 150.92,-192.99 141.45,-188.23 140.55,-195.17"/>
</g>
<!-- Node18 -->
<g id="node18" class="node">
<title>Node18</title>
<g id="a_node18"><a xlink:href="number__theory_8hpp.html#a8956d5feae5d2dd01656f6f960d568c7" target="_top" xlink:title=" ">
<polygon fill="white" stroke="black" points="172.5,-10.5 172.5,-29.5 239.5,-29.5 239.5,-10.5 172.5,-10.5"/>
<text text-anchor="middle" x="206" y="-17.5" font-family="Helvetica,sans-Serif" font-size="10.00">test_sieve</text>
</a>
</g>
</g>
<!-- Node1&#45;&gt;Node18 -->
<g id="edge24" class="edge">
<title>Node1&#45;&gt;Node18</title>
<path fill="none" stroke="midnightblue" d="M63.06,-171.45C74.75,-147.84 107.89,-85.86 151,-48 157.08,-42.66 164.36,-38.01 171.58,-34.11"/>
<polygon fill="midnightblue" stroke="midnightblue" points="173.22,-37.2 180.59,-29.58 170.08,-30.94 173.22,-37.2"/>
</g>
<!-- Node20 -->
<g id="node20" class="node">
<title>Node20</title>
<g id="a_node20"><a xlink:href="number__theory_8hpp.html#a8ae320acad5e35d58ca5ad7adc6ddd78" target="_top" xlink:title=" ">
<polygon fill="white" stroke="black" points="303.5,-152.5 303.5,-171.5 376.5,-171.5 376.5,-152.5 303.5,-152.5"/>
<text text-anchor="middle" x="340" y="-159.5" font-family="Helvetica,sans-Serif" font-size="10.00">test_totient</text>
</a>
</g>
</g>
<!-- Node1&#45;&gt;Node20 -->
<g id="edge26" class="edge">
<title>Node1&#45;&gt;Node20</title>
<path fill="none" stroke="midnightblue" d="M115.26,-177.16C167.61,-173.61 244.36,-168.41 292.98,-165.12"/>
<polygon fill="midnightblue" stroke="midnightblue" points="293.47,-168.59 303.21,-164.42 293,-161.61 293.47,-168.59"/>
</g>
<!-- Node3 -->
<g id="node3" class="node">
<title>Node3</title>
<g id="a_node3"><a xlink:href="number__theory_8hpp.html#af88afa289696363eee6d6caed35edfb5" target="_top" xlink:title=" ">
<polygon fill="white" stroke="black" points="312.5,-304.5 312.5,-323.5 367.5,-323.5 367.5,-304.5 312.5,-304.5"/>
<text text-anchor="middle" x="340" y="-311.5" font-family="Helvetica,sans-Serif" font-size="10.00">divisors</text>
</a>
</g>
</g>
<!-- Node2&#45;&gt;Node3 -->
<g id="edge2" class="edge">
<title>Node2&#45;&gt;Node3</title>
<path fill="none" stroke="midnightblue" d="M245.53,-314C263.31,-314 284.31,-314 301.9,-314"/>
<polygon fill="midnightblue" stroke="midnightblue" points="302.35,-317.5 312.35,-314 302.35,-310.5 302.35,-317.5"/>
</g>
<!-- Node5 -->
<g id="node5" class="node">
<title>Node5</title>
<g id="a_node5"><a xlink:href="number__theory_8hpp.html#a67527905c2b2c027c8b458902db2d05a" target="_top" xlink:title=" ">
<polygon fill="white" stroke="black" points="321,-114.5 321,-133.5 359,-133.5 359,-114.5 321,-114.5"/>
<text text-anchor="middle" x="340" y="-121.5" font-family="Helvetica,sans-Serif" font-size="10.00">dlog</text>
</a>
</g>
</g>
<!-- Node4&#45;&gt;Node5 -->
<g id="edge4" class="edge">
<title>Node4&#45;&gt;Node5</title>
<path fill="none" stroke="midnightblue" d="M237.28,-124C259.29,-124 288.88,-124 310.47,-124"/>
<polygon fill="midnightblue" stroke="midnightblue" points="310.66,-127.5 320.66,-124 310.66,-120.5 310.66,-127.5"/>
</g>
<!-- Node6 -->
<g id="node6" class="node">
<title>Node6</title>
<g id="a_node6"><a xlink:href="namespacemodulo__namespace.html#ae945155bea2750e68757ebc9c05ae356" target="_top" xlink:title=" ">
<polygon fill="white" stroke="black" points="823,-152.5 823,-171.5 974,-171.5 974,-152.5 823,-152.5"/>
<text text-anchor="middle" x="898.5" y="-159.5" font-family="Helvetica,sans-Serif" font-size="10.00">modulo_namespace::power</text>
</a>
</g>
</g>
<!-- Node4&#45;&gt;Node6 -->
<g id="edge12" class="edge">
<title>Node4&#45;&gt;Node6</title>
<path fill="none" stroke="midnightblue" d="M237,-116.31C283.04,-105.21 374.01,-86 452.5,-86 452.5,-86 452.5,-86 580,-86 686.4,-86 807.49,-126.87 864.5,-148.67"/>
<polygon fill="midnightblue" stroke="midnightblue" points="863.47,-152.02 874.06,-152.37 866.01,-145.5 863.47,-152.02"/>
</g>
<!-- Node5&#45;&gt;Node6 -->
<g id="edge5" class="edge">
<title>Node5&#45;&gt;Node6</title>
<path fill="none" stroke="midnightblue" d="M359.33,-123.94C420.29,-123.94 621.7,-125.34 787,-143 804.23,-144.84 822.84,-147.7 839.79,-150.64"/>
<polygon fill="midnightblue" stroke="midnightblue" points="839.64,-154.17 850.09,-152.48 840.86,-147.28 839.64,-154.17"/>
</g>
<!-- Node7 -->
<g id="node7" class="node">
<title>Node7</title>
<g id="a_node7"><a xlink:href="number__theory_8hpp.html#af0753ff92c84e6924e1fd6461e77b16f" target="_top" xlink:title=" ">
<polygon fill="white" stroke="black" points="429,-152.5 429,-171.5 478,-171.5 478,-152.5 429,-152.5"/>
<text text-anchor="middle" x="453.5" y="-159.5" font-family="Helvetica,sans-Serif" font-size="10.00">totient</text>
</a>
</g>
</g>
<!-- Node5&#45;&gt;Node7 -->
<g id="edge6" class="edge">
<title>Node5&#45;&gt;Node7</title>
<path fill="none" stroke="midnightblue" d="M359.41,-130.27C375.6,-135.79 399.57,-143.96 419.13,-150.63"/>
<polygon fill="midnightblue" stroke="midnightblue" points="418.02,-153.95 428.61,-153.86 420.27,-147.32 418.02,-153.95"/>
</g>
<!-- Node8 -->
<g id="node8" class="node">
<title>Node8</title>
<g id="a_node8"><a xlink:href="number__theory_8hpp.html#a8119b9949ade11ba2f554e41cc0830df" target="_top" xlink:title=" ">
<polygon fill="white" stroke="black" points="563,-228.5 563,-247.5 595,-247.5 595,-228.5 563,-228.5"/>
<text text-anchor="middle" x="579" y="-235.5" font-family="Helvetica,sans-Serif" font-size="10.00">fac</text>
</a>
</g>
</g>
<!-- Node7&#45;&gt;Node8 -->
<g id="edge7" class="edge">
<title>Node7&#45;&gt;Node8</title>
<path fill="none" stroke="midnightblue" d="M470.14,-171.63C491.32,-184.66 529.31,-208.04 554.09,-223.28"/>
<polygon fill="midnightblue" stroke="midnightblue" points="552.52,-226.43 562.87,-228.69 556.19,-220.47 552.52,-226.43"/>
</g>
<!-- Node10 -->
<g id="node10" class="node">
<title>Node10</title>
<g id="a_node10"><a xlink:href="namespacecombinatorics.html#a20e5a1b40f76572aa1e18b228b6e4849" target="_top" xlink:title=" ">
<polygon fill="white" stroke="black" points="524,-152.5 524,-171.5 634,-171.5 634,-152.5 524,-152.5"/>
<text text-anchor="middle" x="579" y="-159.5" font-family="Helvetica,sans-Serif" font-size="10.00">combinatorics::fact</text>
</a>
</g>
</g>
<!-- Node7&#45;&gt;Node10 -->
<g id="edge10" class="edge">
<title>Node7&#45;&gt;Node10</title>
<path fill="none" stroke="midnightblue" d="M478.02,-162C488.29,-162 500.89,-162 513.64,-162"/>
<polygon fill="midnightblue" stroke="midnightblue" points="513.85,-165.5 523.85,-162 513.85,-158.5 513.85,-165.5"/>
</g>
<!-- Node9 -->
<g id="node9" class="node">
<title>Node9</title>
<g id="a_node9"><a xlink:href="number__theory_8hpp.html#a02e886c6eb18cd3b8894ea2ba9ca9784" target="_top" xlink:title=" ">
<polygon fill="white" stroke="black" points="706,-228.5 706,-247.5 751,-247.5 751,-228.5 706,-228.5"/>
<text text-anchor="middle" x="728.5" y="-235.5" font-family="Helvetica,sans-Serif" font-size="10.00">prime</text>
</a>
</g>
</g>
<!-- Node8&#45;&gt;Node9 -->
<g id="edge8" class="edge">
<title>Node8&#45;&gt;Node9</title>
<path fill="none" stroke="midnightblue" d="M595.23,-238C618.8,-238 664.63,-238 695.66,-238"/>
<polygon fill="midnightblue" stroke="midnightblue" points="695.95,-241.5 705.95,-238 695.95,-234.5 695.95,-241.5"/>
</g>
<!-- Node9&#45;&gt;Node6 -->
<g id="edge9" class="edge">
<title>Node9&#45;&gt;Node6</title>
<path fill="none" stroke="midnightblue" d="M751.17,-229.22C761.98,-224.77 775.23,-219.22 787,-214 814.85,-201.64 846.26,-186.77 868.46,-176.1"/>
<polygon fill="midnightblue" stroke="midnightblue" points="870.17,-179.16 877.66,-171.66 867.13,-172.85 870.17,-179.16"/>
</g>
<!-- Node11 -->
<g id="node11" class="node">
<title>Node11</title>
<g id="a_node11"><a xlink:href="namespacecombinatorics.html#a7c355be8fa586494f280768dc777dede" target="_top" xlink:title=" ">
<polygon fill="white" stroke="black" points="670,-152.5 670,-171.5 787,-171.5 787,-152.5 670,-152.5"/>
<text text-anchor="middle" x="728.5" y="-159.5" font-family="Helvetica,sans-Serif" font-size="10.00">combinatorics::perm</text>
</a>
</g>
</g>
<!-- Node10&#45;&gt;Node11 -->
<g id="edge11" class="edge">
<title>Node10&#45;&gt;Node11</title>
<path fill="none" stroke="midnightblue" d="M634.09,-162C642.48,-162 651.24,-162 659.88,-162"/>
<polygon fill="midnightblue" stroke="midnightblue" points="659.95,-165.5 669.95,-162 659.95,-158.5 659.95,-165.5"/>
</g>
<!-- Node13 -->
<g id="node13" class="node">
<title>Node13</title>
<g id="a_node13"><a xlink:href="number__theory_8hpp.html#aa6039763e84c50eb24fdee392c581898" target="_top" xlink:title=" ">
<polygon fill="white" stroke="black" points="320,-38.5 320,-57.5 360,-57.5 360,-38.5 320,-38.5"/>
<text text-anchor="middle" x="340" y="-45.5" font-family="Helvetica,sans-Serif" font-size="10.00">egcd</text>
</a>
</g>
</g>
<!-- Node12&#45;&gt;Node13 -->
<g id="edge14" class="edge">
<title>Node12&#45;&gt;Node13</title>
<path fill="none" stroke="midnightblue" d="M238.28,-62.5C259.94,-59.38 288.56,-55.26 309.75,-52.21"/>
<polygon fill="midnightblue" stroke="midnightblue" points="310.39,-55.65 319.79,-50.76 309.4,-48.73 310.39,-55.65"/>
</g>
<!-- Node14&#45;&gt;Node8 -->
<g id="edge16" class="edge">
<title>Node14&#45;&gt;Node8</title>
<path fill="none" stroke="midnightblue" d="M481.6,-267.66C502.98,-261.08 532.56,-251.98 553.29,-245.6"/>
<polygon fill="midnightblue" stroke="midnightblue" points="554.44,-248.91 562.96,-242.63 552.38,-242.22 554.44,-248.91"/>
</g>
<!-- Node15&#45;&gt;Node9 -->
<g id="edge18" class="edge">
<title>Node15&#45;&gt;Node9</title>
<path fill="none" stroke="midnightblue" d="M488.25,-304.6C541.48,-289.79 644.19,-261.19 695.99,-246.77"/>
<polygon fill="midnightblue" stroke="midnightblue" points="696.95,-250.14 705.64,-244.08 695.07,-243.39 696.95,-250.14"/>
</g>
<!-- Node17 -->
<g id="node17" class="node">
<title>Node17</title>
<g id="a_node17"><a xlink:href="number__theory_8hpp.html#a6542b189f3759f43899a8b1978d58e2c" target="_top" xlink:title=" ">
<polygon fill="white" stroke="black" points="297,-190.5 297,-209.5 383,-209.5 383,-190.5 297,-190.5"/>
<text text-anchor="middle" x="340" y="-197.5" font-family="Helvetica,sans-Serif" font-size="10.00">primitive_root</text>
</a>
</g>
</g>
<!-- Node16&#45;&gt;Node17 -->
<g id="edge20" class="edge">
<title>Node16&#45;&gt;Node17</title>
<path fill="none" stroke="midnightblue" d="M261.07,-200C269.57,-200 278.35,-200 286.81,-200"/>
<polygon fill="midnightblue" stroke="midnightblue" points="286.93,-203.5 296.93,-200 286.93,-196.5 286.93,-203.5"/>
</g>
<!-- Node17&#45;&gt;Node6 -->
<g id="edge22" class="edge">
<title>Node17&#45;&gt;Node6</title>
<path fill="none" stroke="midnightblue" d="M383.25,-199.99C462.61,-199.58 639.23,-196.79 787,-181 804.23,-179.16 822.84,-176.3 839.79,-173.36"/>
<polygon fill="midnightblue" stroke="midnightblue" points="840.86,-176.72 850.09,-171.52 839.64,-169.83 840.86,-176.72"/>
</g>
<!-- Node17&#45;&gt;Node7 -->
<g id="edge23" class="edge">
<title>Node17&#45;&gt;Node7</title>
<path fill="none" stroke="midnightblue" d="M369.14,-190.41C384.42,-185.2 403.4,-178.73 419.39,-173.29"/>
<polygon fill="midnightblue" stroke="midnightblue" points="420.56,-176.58 428.9,-170.04 418.3,-169.96 420.56,-176.58"/>
</g>
<!-- Node17&#45;&gt;Node8 -->
<g id="edge21" class="edge">
<title>Node17&#45;&gt;Node8</title>
<path fill="none" stroke="midnightblue" d="M383.06,-207.77C394.69,-209.86 407.33,-212.07 419,-214 466.06,-221.77 521.13,-229.86 552.55,-234.38"/>
<polygon fill="midnightblue" stroke="midnightblue" points="552.23,-237.87 562.63,-235.82 553.23,-230.94 552.23,-237.87"/>
</g>
<!-- Node19 -->
<g id="node19" class="node">
<title>Node19</title>
<g id="a_node19"><a xlink:href="number__theory_8hpp.html#a08a5d3143912e850f2a0e799c20b7944" target="_top" xlink:title=" ">
<polygon fill="white" stroke="black" points="318.5,-0.5 318.5,-19.5 361.5,-19.5 361.5,-0.5 318.5,-0.5"/>
<text text-anchor="middle" x="340" y="-7.5" font-family="Helvetica,sans-Serif" font-size="10.00">sieve</text>
</a>
</g>
</g>
<!-- Node18&#45;&gt;Node19 -->
<g id="edge25" class="edge">
<title>Node18&#45;&gt;Node19</title>
<path fill="none" stroke="midnightblue" d="M239.63,-17.53C260.56,-15.94 287.58,-13.9 308.15,-12.34"/>
<polygon fill="midnightblue" stroke="midnightblue" points="308.55,-15.82 318.26,-11.57 308.02,-8.84 308.55,-15.82"/>
</g>
<!-- Node20&#45;&gt;Node7 -->
<g id="edge27" class="edge">
<title>Node20&#45;&gt;Node7</title>
<path fill="none" stroke="midnightblue" d="M376.59,-162C390.06,-162 405.36,-162 418.67,-162"/>
<polygon fill="midnightblue" stroke="midnightblue" points="418.85,-165.5 428.85,-162 418.85,-158.5 418.85,-165.5"/>
</g>
</g>
</svg>
