<?xml version="1.0" encoding="UTF-8" standalone="no"?>
<!DOCTYPE svg PUBLIC "-//W3C//DTD SVG 1.1//EN"
 "http://www.w3.org/Graphics/SVG/1.1/DTD/svg11.dtd">
<!-- Generated by graphviz version 2.43.0 (0)
 -->
<!-- Title: test_totient Pages: 1 -->
<svg width="623pt" height="66pt"
 viewBox="0.00 0.00 623.00 66.00" xmlns="http://www.w3.org/2000/svg" xmlns:xlink="http://www.w3.org/1999/xlink">
<g id="graph0" class="graph" transform="scale(1 1) rotate(0) translate(4 62)">
<title>test_totient</title>
<polygon fill="white" stroke="transparent" points="-4,4 -4,-62 619,-62 619,4 -4,4"/>
<!-- Node1 -->
<g id="node1" class="node">
<title>Node1</title>
<g id="a_node1"><a xlink:title=" ">
<polygon fill="#bfbfbf" stroke="black" points="0,-19.5 0,-38.5 73,-38.5 73,-19.5 0,-19.5"/>
<text text-anchor="middle" x="36.5" y="-26.5" font-family="Helvetica,sans-Serif" font-size="10.00">test_totient</text>
</a>
</g>
</g>
<!-- Node2 -->
<g id="node2" class="node">
<title>Node2</title>
<g id="a_node2"><a xlink:href="number__theory_8hpp.html#af0753ff92c84e6924e1fd6461e77b16f" target="_top" xlink:title=" ">
<polygon fill="white" stroke="black" points="109,-19.5 109,-38.5 158,-38.5 158,-19.5 109,-19.5"/>
<text text-anchor="middle" x="133.5" y="-26.5" font-family="Helvetica,sans-Serif" font-size="10.00">totient</text>
</a>
</g>
</g>
<!-- Node1&#45;&gt;Node2 -->
<g id="edge1" class="edge">
<title>Node1&#45;&gt;Node2</title>
<path fill="none" stroke="midnightblue" d="M73.14,-29C81.51,-29 90.4,-29 98.69,-29"/>
<polygon fill="midnightblue" stroke="midnightblue" points="98.77,-32.5 108.77,-29 98.77,-25.5 98.77,-32.5"/>
</g>
<!-- Node3 -->
<g id="node3" class="node">
<title>Node3</title>
<g id="a_node3"><a xlink:href="number__theory_8hpp.html#a8119b9949ade11ba2f554e41cc0830df" target="_top" xlink:title=" ">
<polygon fill="white" stroke="black" points="233,-38.5 233,-57.5 265,-57.5 265,-38.5 233,-38.5"/>
<text text-anchor="middle" x="249" y="-45.5" font-family="Helvetica,sans-Serif" font-size="10.00">fac</text>
</a>
</g>
</g>
<!-- Node2&#45;&gt;Node3 -->
<g id="edge2" class="edge">
<title>Node2&#45;&gt;Node3</title>
<path fill="none" stroke="midnightblue" d="M158.02,-32.94C176.97,-36.11 203.57,-40.56 222.93,-43.8"/>
<polygon fill="midnightblue" stroke="midnightblue" points="222.4,-47.26 232.84,-45.46 223.56,-40.36 222.4,-47.26"/>
</g>
<!-- Node6 -->
<g id="node6" class="node">
<title>Node6</title>
<g id="a_node6"><a xlink:href="namespacecombinatorics.html#a683282a64d9be4f8df67be6138201570" target="_top" xlink:title=" ">
<polygon fill="white" stroke="black" points="194,-0.5 194,-19.5 304,-19.5 304,-0.5 194,-0.5"/>
<text text-anchor="middle" x="249" y="-7.5" font-family="Helvetica,sans-Serif" font-size="10.00">combinatorics::fact</text>
</a>
</g>
</g>
<!-- Node2&#45;&gt;Node6 -->
<g id="edge5" class="edge">
<title>Node2&#45;&gt;Node6</title>
<path fill="none" stroke="midnightblue" d="M158.02,-25.06C165.65,-23.79 174.51,-22.3 183.65,-20.77"/>
<polygon fill="midnightblue" stroke="midnightblue" points="184.33,-24.21 193.62,-19.1 183.18,-17.3 184.33,-24.21"/>
</g>
<!-- Node4 -->
<g id="node4" class="node">
<title>Node4</title>
<g id="a_node4"><a xlink:href="number__theory_8hpp.html#a02e886c6eb18cd3b8894ea2ba9ca9784" target="_top" xlink:title=" ">
<polygon fill="white" stroke="black" points="376,-38.5 376,-57.5 421,-57.5 421,-38.5 376,-38.5"/>
<text text-anchor="middle" x="398.5" y="-45.5" font-family="Helvetica,sans-Serif" font-size="10.00">prime</text>
</a>
</g>
</g>
<!-- Node3&#45;&gt;Node4 -->
<g id="edge3" class="edge">
<title>Node3&#45;&gt;Node4</title>
<path fill="none" stroke="midnightblue" d="M265.23,-48C288.8,-48 334.63,-48 365.66,-48"/>
<polygon fill="midnightblue" stroke="midnightblue" points="365.95,-51.5 375.95,-48 365.95,-44.5 365.95,-51.5"/>
</g>
<!-- Node5 -->
<g id="node5" class="node">
<title>Node5</title>
<g id="a_node5"><a xlink:href="namespacemodulo__name.html#a85a6e6e258a516f6597323242c3c5eca" target="_top" xlink:title=" ">
<polygon fill="white" stroke="black" points="493,-38.5 493,-57.5 615,-57.5 615,-38.5 493,-38.5"/>
<text text-anchor="middle" x="554" y="-45.5" font-family="Helvetica,sans-Serif" font-size="10.00">modulo_name::power</text>
</a>
</g>
</g>
<!-- Node4&#45;&gt;Node5 -->
<g id="edge4" class="edge">
<title>Node4&#45;&gt;Node5</title>
<path fill="none" stroke="midnightblue" d="M421.17,-48C437.29,-48 460.27,-48 482.54,-48"/>
<polygon fill="midnightblue" stroke="midnightblue" points="482.7,-51.5 492.7,-48 482.7,-44.5 482.7,-51.5"/>
</g>
<!-- Node7 -->
<g id="node7" class="node">
<title>Node7</title>
<g id="a_node7"><a xlink:href="namespacecombinatorics.html#a162be12f51480d59189ec28dbcc2c5e2" target="_top" xlink:title=" ">
<polygon fill="white" stroke="black" points="340,-0.5 340,-19.5 457,-19.5 457,-0.5 340,-0.5"/>
<text text-anchor="middle" x="398.5" y="-7.5" font-family="Helvetica,sans-Serif" font-size="10.00">combinatorics::perm</text>
</a>
</g>
</g>
<!-- Node6&#45;&gt;Node7 -->
<g id="edge6" class="edge">
<title>Node6&#45;&gt;Node7</title>
<path fill="none" stroke="midnightblue" d="M304.09,-10C312.48,-10 321.24,-10 329.88,-10"/>
<polygon fill="midnightblue" stroke="midnightblue" points="329.95,-13.5 339.95,-10 329.95,-6.5 329.95,-13.5"/>
</g>
</g>
</svg>
