<?xml version="1.0" encoding="UTF-8" standalone="no"?>
<!DOCTYPE svg PUBLIC "-//W3C//DTD SVG 1.1//EN"
 "http://www.w3.org/Graphics/SVG/1.1/DTD/svg11.dtd">
<!-- Generated by graphviz version 2.43.0 (0)
 -->
<!-- Title: test_number_theory Pages: 1 -->
<svg width="1146pt" height="370pt"
 viewBox="0.00 0.00 1146.00 370.00" xmlns="http://www.w3.org/2000/svg" xmlns:xlink="http://www.w3.org/1999/xlink">
<g id="graph0" class="graph" transform="scale(1 1) rotate(0) translate(4 366)">
<title>test_number_theory</title>
<polygon fill="white" stroke="transparent" points="-4,4 -4,-366 1142,-366 1142,4 -4,4"/>
<!-- Node1 -->
<g id="node1" class="node">
<title>Node1</title>
<g id="a_node1"><a xlink:title=" ">
<polygon fill="#bfbfbf" stroke="black" points="0,-171.5 0,-190.5 115,-190.5 115,-171.5 0,-171.5"/>
<text text-anchor="middle" x="57.5" y="-178.5" font-family="Helvetica,sans-Serif" font-size="10.00">test_number_theory</text>
</a>
</g>
</g>
<!-- Node2 -->
<g id="node2" class="node">
<title>Node2</title>
<g id="a_node2"><a xlink:href="number__theory_8hpp.html#a3e935b9aca6e9dfa6b0a8ef9a4c7e153" target="_top" xlink:title=" ">
<polygon fill="white" stroke="black" points="166.5,-332.5 166.5,-351.5 245.5,-351.5 245.5,-332.5 166.5,-332.5"/>
<text text-anchor="middle" x="206" y="-339.5" font-family="Helvetica,sans-Serif" font-size="10.00">test_divisors</text>
</a>
</g>
</g>
<!-- Node1&#45;&gt;Node2 -->
<g id="edge1" class="edge">
<title>Node1&#45;&gt;Node2</title>
<path fill="none" stroke="midnightblue" d="M63.06,-190.55C74.75,-214.16 107.89,-276.14 151,-314 157.08,-319.34 164.36,-323.99 171.58,-327.89"/>
<polygon fill="midnightblue" stroke="midnightblue" points="170.08,-331.06 180.59,-332.42 173.22,-324.8 170.08,-331.06"/>
</g>
<!-- Node4 -->
<g id="node4" class="node">
<title>Node4</title>
<g id="a_node4"><a xlink:href="number__theory_8hpp.html#a7aac53ce82614d79c7098a1de32ed1e7" target="_top" xlink:title=" ">
<polygon fill="white" stroke="black" points="175,-228.5 175,-247.5 237,-247.5 237,-228.5 175,-228.5"/>
<text text-anchor="middle" x="206" y="-235.5" font-family="Helvetica,sans-Serif" font-size="10.00">test_dlog</text>
</a>
</g>
</g>
<!-- Node1&#45;&gt;Node4 -->
<g id="edge3" class="edge">
<title>Node1&#45;&gt;Node4</title>
<path fill="none" stroke="midnightblue" d="M83.02,-190.54C107.11,-199.91 144.06,-214.29 170.98,-224.76"/>
<polygon fill="midnightblue" stroke="midnightblue" points="169.81,-228.06 180.4,-228.43 172.35,-221.54 169.81,-228.06"/>
</g>
<!-- Node15 -->
<g id="node15" class="node">
<title>Node15</title>
<g id="a_node15"><a xlink:href="number__theory_8hpp.html#ae2f84cd254fbf1373fc273141ce470ed" target="_top" xlink:title=" ">
<polygon fill="white" stroke="black" points="174,-285.5 174,-304.5 238,-304.5 238,-285.5 174,-285.5"/>
<text text-anchor="middle" x="206" y="-292.5" font-family="Helvetica,sans-Serif" font-size="10.00">test_egcd</text>
</a>
</g>
</g>
<!-- Node1&#45;&gt;Node15 -->
<g id="edge16" class="edge">
<title>Node1&#45;&gt;Node15</title>
<path fill="none" stroke="midnightblue" d="M69.67,-190.64C86.84,-205.34 120.9,-234.09 151,-257 161.06,-264.65 172.47,-272.76 182.2,-279.52"/>
<polygon fill="midnightblue" stroke="midnightblue" points="180.36,-282.5 190.58,-285.28 184.33,-276.73 180.36,-282.5"/>
</g>
<!-- Node17 -->
<g id="node17" class="node">
<title>Node17</title>
<g id="a_node17"><a xlink:href="number__theory_8hpp.html#afcfd3b1e3415393029bc6a496d825459" target="_top" xlink:title=" ">
<polygon fill="white" stroke="black" points="462.5,-76.5 462.5,-95.5 518.5,-95.5 518.5,-76.5 462.5,-76.5"/>
<text text-anchor="middle" x="490.5" y="-83.5" font-family="Helvetica,sans-Serif" font-size="10.00">test_fac</text>
</a>
</g>
</g>
<!-- Node1&#45;&gt;Node17 -->
<g id="edge19" class="edge">
<title>Node1&#45;&gt;Node17</title>
<path fill="none" stroke="midnightblue" d="M78.25,-171.37C96.67,-162.76 125.13,-150.39 151,-143 257.98,-112.43 388.96,-96.13 452.03,-89.55"/>
<polygon fill="midnightblue" stroke="midnightblue" points="452.69,-93 462.28,-88.5 451.98,-86.04 452.69,-93"/>
</g>
<!-- Node18 -->
<g id="node18" class="node">
<title>Node18</title>
<g id="a_node18"><a xlink:href="number__theory_8hpp.html#a87d7c3ba2489977a16ec40544a918e00" target="_top" xlink:title=" ">
<polygon fill="white" stroke="black" points="618.5,-57.5 618.5,-76.5 687.5,-76.5 687.5,-57.5 618.5,-57.5"/>
<text text-anchor="middle" x="653" y="-64.5" font-family="Helvetica,sans-Serif" font-size="10.00">test_prime</text>
</a>
</g>
</g>
<!-- Node1&#45;&gt;Node18 -->
<g id="edge21" class="edge">
<title>Node1&#45;&gt;Node18</title>
<path fill="none" stroke="midnightblue" d="M68.36,-171.46C84.31,-156.61 117.4,-128.22 151,-114 308.69,-47.29 518.58,-55.18 608.31,-62.54"/>
<polygon fill="midnightblue" stroke="midnightblue" points="608.13,-66.04 618.4,-63.41 608.73,-59.06 608.13,-66.04"/>
</g>
<!-- Node19 -->
<g id="node19" class="node">
<title>Node19</title>
<g id="a_node19"><a xlink:href="number__theory_8hpp.html#a0ff115471f41e78245b5dc48eaf8032f" target="_top" xlink:title=" ">
<polygon fill="white" stroke="black" points="151,-152.5 151,-171.5 261,-171.5 261,-152.5 151,-152.5"/>
<text text-anchor="middle" x="206" y="-159.5" font-family="Helvetica,sans-Serif" font-size="10.00">test_primitive_root</text>
</a>
</g>
</g>
<!-- Node1&#45;&gt;Node19 -->
<g id="edge23" class="edge">
<title>Node1&#45;&gt;Node19</title>
<path fill="none" stroke="midnightblue" d="M115.14,-173.65C123.59,-172.56 132.35,-171.42 140.94,-170.31"/>
<polygon fill="midnightblue" stroke="midnightblue" points="141.45,-173.77 150.92,-169.01 140.55,-166.83 141.45,-173.77"/>
</g>
<!-- Node21 -->
<g id="node21" class="node">
<title>Node21</title>
<g id="a_node21"><a xlink:href="number__theory_8hpp.html#a8956d5feae5d2dd01656f6f960d568c7" target="_top" xlink:title=" ">
<polygon fill="white" stroke="black" points="172.5,-0.5 172.5,-19.5 239.5,-19.5 239.5,-0.5 172.5,-0.5"/>
<text text-anchor="middle" x="206" y="-7.5" font-family="Helvetica,sans-Serif" font-size="10.00">test_sieve</text>
</a>
</g>
</g>
<!-- Node1&#45;&gt;Node21 -->
<g id="edge28" class="edge">
<title>Node1&#45;&gt;Node21</title>
<path fill="none" stroke="midnightblue" d="M62.18,-171.4C72.46,-145.75 103.82,-74.86 151,-34 155.47,-30.13 160.67,-26.78 166.04,-23.92"/>
<polygon fill="midnightblue" stroke="midnightblue" points="167.63,-27.04 175.13,-19.56 164.6,-20.73 167.63,-27.04"/>
</g>
<!-- Node23 -->
<g id="node23" class="node">
<title>Node23</title>
<g id="a_node23"><a xlink:href="number__theory_8hpp.html#a8ae320acad5e35d58ca5ad7adc6ddd78" target="_top" xlink:title=" ">
<polygon fill="white" stroke="black" points="303.5,-190.5 303.5,-209.5 376.5,-209.5 376.5,-190.5 303.5,-190.5"/>
<text text-anchor="middle" x="340" y="-197.5" font-family="Helvetica,sans-Serif" font-size="10.00">test_totient</text>
</a>
</g>
</g>
<!-- Node1&#45;&gt;Node23 -->
<g id="edge30" class="edge">
<title>Node1&#45;&gt;Node23</title>
<path fill="none" stroke="midnightblue" d="M115.26,-184.84C167.61,-188.39 244.36,-193.59 292.98,-196.88"/>
<polygon fill="midnightblue" stroke="midnightblue" points="293,-200.39 303.21,-197.58 293.47,-193.41 293,-200.39"/>
</g>
<!-- Node3 -->
<g id="node3" class="node">
<title>Node3</title>
<g id="a_node3"><a xlink:href="number__theory_8hpp.html#af88afa289696363eee6d6caed35edfb5" target="_top" xlink:title="Return all divisors of x in sorted order.">
<polygon fill="white" stroke="black" points="312.5,-342.5 312.5,-361.5 367.5,-361.5 367.5,-342.5 312.5,-342.5"/>
<text text-anchor="middle" x="340" y="-349.5" font-family="Helvetica,sans-Serif" font-size="10.00">divisors</text>
</a>
</g>
</g>
<!-- Node2&#45;&gt;Node3 -->
<g id="edge2" class="edge">
<title>Node2&#45;&gt;Node3</title>
<path fill="none" stroke="midnightblue" d="M245.53,-344.92C263.31,-346.27 284.31,-347.86 301.9,-349.19"/>
<polygon fill="midnightblue" stroke="midnightblue" points="302.12,-352.72 312.35,-349.98 302.65,-345.74 302.12,-352.72"/>
</g>
<!-- Node5 -->
<g id="node5" class="node">
<title>Node5</title>
<g id="a_node5"><a xlink:href="number__theory_8hpp.html#a67527905c2b2c027c8b458902db2d05a" target="_top" xlink:title="Finds x such that a^x = b (mod M) using baby&#45;step giant&#45;step algorithm. a and M must be coprime.">
<polygon fill="white" stroke="black" points="321,-228.5 321,-247.5 359,-247.5 359,-228.5 321,-228.5"/>
<text text-anchor="middle" x="340" y="-235.5" font-family="Helvetica,sans-Serif" font-size="10.00">dlog</text>
</a>
</g>
</g>
<!-- Node4&#45;&gt;Node5 -->
<g id="edge4" class="edge">
<title>Node4&#45;&gt;Node5</title>
<path fill="none" stroke="midnightblue" d="M237.28,-238C259.29,-238 288.88,-238 310.47,-238"/>
<polygon fill="midnightblue" stroke="midnightblue" points="310.66,-241.5 320.66,-238 310.66,-234.5 310.66,-241.5"/>
</g>
<!-- Node7 -->
<g id="node7" class="node">
<title>Node7</title>
<g id="a_node7"><a xlink:href="namespacemodulo__namespace.html#a8e6fc91a032b336ea0bbed9eabf54f69" target="_top" xlink:title="Returns .">
<polygon fill="white" stroke="black" points="897,-171.5 897,-190.5 1048,-190.5 1048,-171.5 897,-171.5"/>
<text text-anchor="middle" x="972.5" y="-178.5" font-family="Helvetica,sans-Serif" font-size="10.00">modulo_namespace::power</text>
</a>
</g>
</g>
<!-- Node4&#45;&gt;Node7 -->
<g id="edge15" class="edge">
<title>Node4&#45;&gt;Node7</title>
<path fill="none" stroke="midnightblue" d="M237.26,-245.25C254.65,-249.2 276.96,-253.9 297,-257 381.96,-270.12 403.53,-276 489.5,-276 489.5,-276 489.5,-276 654,-276 747.38,-276 772.7,-270.38 861,-240 893.03,-228.98 926.99,-209.53 948.67,-195.99"/>
<polygon fill="midnightblue" stroke="midnightblue" points="950.61,-198.9 957.17,-190.59 946.85,-193 950.61,-198.9"/>
</g>
<!-- Node6 -->
<g id="node6" class="node">
<title>Node6</title>
<g id="a_node6"><a xlink:href="namespacemodulo__namespace.html#a2507e89fefa09a358a9de729b15dd642" target="_top" xlink:title="Returns the remainder of a divided by b as a nonnegative integer in [0, b).">
<polygon fill="white" stroke="black" points="419,-304.5 419,-323.5 562,-323.5 562,-304.5 419,-304.5"/>
<text text-anchor="middle" x="490.5" y="-311.5" font-family="Helvetica,sans-Serif" font-size="10.00">modulo_namespace::mod</text>
</a>
</g>
</g>
<!-- Node5&#45;&gt;Node6 -->
<g id="edge5" class="edge">
<title>Node5&#45;&gt;Node6</title>
<path fill="none" stroke="midnightblue" d="M359.21,-247.32C384.79,-260.41 431.58,-284.36 461.57,-299.71"/>
<polygon fill="midnightblue" stroke="midnightblue" points="460.18,-302.92 470.67,-304.36 463.37,-296.69 460.18,-302.92"/>
</g>
<!-- Node5&#45;&gt;Node7 -->
<g id="edge6" class="edge">
<title>Node5&#45;&gt;Node7</title>
<path fill="none" stroke="midnightblue" d="M359.17,-239.25C426.44,-243.47 667.38,-255.01 861,-219 888.67,-213.85 918.81,-203.12 940.61,-194.37"/>
<polygon fill="midnightblue" stroke="midnightblue" points="942.08,-197.55 950,-190.52 939.42,-191.08 942.08,-197.55"/>
</g>
<!-- Node10 -->
<g id="node10" class="node">
<title>Node10</title>
<g id="a_node10"><a xlink:href="number__theory_8hpp.html#af0753ff92c84e6924e1fd6461e77b16f" target="_top" xlink:title="Returns the totient of the integer n.">
<polygon fill="white" stroke="black" points="466,-190.5 466,-209.5 515,-209.5 515,-190.5 466,-190.5"/>
<text text-anchor="middle" x="490.5" y="-197.5" font-family="Helvetica,sans-Serif" font-size="10.00">totient</text>
</a>
</g>
</g>
<!-- Node5&#45;&gt;Node10 -->
<g id="edge9" class="edge">
<title>Node5&#45;&gt;Node10</title>
<path fill="none" stroke="midnightblue" d="M359.21,-233.34C383.18,-227.21 425.78,-216.3 455.73,-208.64"/>
<polygon fill="midnightblue" stroke="midnightblue" points="456.92,-211.95 465.74,-206.08 455.19,-205.17 456.92,-211.95"/>
</g>
<!-- Node8 -->
<g id="node8" class="node">
<title>Node8</title>
<g id="a_node8"><a xlink:href="d__compiled_8cpp.html#ac969ae49524a67aba9be0f061955ef23" target="_top" xlink:title=" ">
<polygon fill="white" stroke="black" points="1084,-190.5 1084,-209.5 1138,-209.5 1138,-190.5 1084,-190.5"/>
<text text-anchor="middle" x="1111" y="-197.5" font-family="Helvetica,sans-Serif" font-size="10.00">identity</text>
</a>
</g>
</g>
<!-- Node7&#45;&gt;Node8 -->
<g id="edge7" class="edge">
<title>Node7&#45;&gt;Node8</title>
<path fill="none" stroke="midnightblue" d="M1042.15,-190.56C1053.07,-192.08 1063.98,-193.59 1073.75,-194.95"/>
<polygon fill="midnightblue" stroke="midnightblue" points="1073.48,-198.45 1083.86,-196.36 1074.44,-191.52 1073.48,-198.45"/>
</g>
<!-- Node9 -->
<g id="node9" class="node">
<title>Node9</title>
<g id="a_node9"><a xlink:href="d__compiled_8cpp.html#a4cb6b7e98aadd3fa7ffc759c5e14596d" target="_top" xlink:title=" ">
<polygon fill="white" stroke="black" points="1088.5,-152.5 1088.5,-171.5 1133.5,-171.5 1133.5,-152.5 1088.5,-152.5"/>
<text text-anchor="middle" x="1111" y="-159.5" font-family="Helvetica,sans-Serif" font-size="10.00">invert</text>
</a>
</g>
</g>
<!-- Node7&#45;&gt;Node9 -->
<g id="edge8" class="edge">
<title>Node7&#45;&gt;Node9</title>
<path fill="none" stroke="midnightblue" d="M1042.15,-171.44C1054.7,-169.7 1067.23,-167.95 1078.04,-166.45"/>
<polygon fill="midnightblue" stroke="midnightblue" points="1078.8,-169.88 1088.22,-165.03 1077.84,-162.94 1078.8,-169.88"/>
</g>
<!-- Node11 -->
<g id="node11" class="node">
<title>Node11</title>
<g id="a_node11"><a xlink:href="number__theory_8hpp.html#a8119b9949ade11ba2f554e41cc0830df" target="_top" xlink:title="Returns the factorization of n.">
<polygon fill="white" stroke="black" points="637,-152.5 637,-171.5 669,-171.5 669,-152.5 637,-152.5"/>
<text text-anchor="middle" x="653" y="-159.5" font-family="Helvetica,sans-Serif" font-size="10.00">fac</text>
</a>
</g>
</g>
<!-- Node10&#45;&gt;Node11 -->
<g id="edge10" class="edge">
<title>Node10&#45;&gt;Node11</title>
<path fill="none" stroke="midnightblue" d="M515.18,-194.39C545.14,-187.3 596.48,-175.15 627.03,-167.91"/>
<polygon fill="midnightblue" stroke="midnightblue" points="627.98,-171.28 636.9,-165.57 626.36,-164.47 627.98,-171.28"/>
</g>
<!-- Node13 -->
<g id="node13" class="node">
<title>Node13</title>
<g id="a_node13"><a xlink:href="namespacecombinatorics.html#a20e5a1b40f76572aa1e18b228b6e4849" target="_top" xlink:title=" ">
<polygon fill="white" stroke="black" points="598,-190.5 598,-209.5 708,-209.5 708,-190.5 598,-190.5"/>
<text text-anchor="middle" x="653" y="-197.5" font-family="Helvetica,sans-Serif" font-size="10.00">combinatorics::fact</text>
</a>
</g>
</g>
<!-- Node10&#45;&gt;Node13 -->
<g id="edge13" class="edge">
<title>Node10&#45;&gt;Node13</title>
<path fill="none" stroke="midnightblue" d="M515.18,-200C534.35,-200 562.28,-200 587.91,-200"/>
<polygon fill="midnightblue" stroke="midnightblue" points="587.97,-203.5 597.97,-200 587.97,-196.5 587.97,-203.5"/>
</g>
<!-- Node12 -->
<g id="node12" class="node">
<title>Node12</title>
<g id="a_node12"><a xlink:href="number__theory_8hpp.html#a02e886c6eb18cd3b8894ea2ba9ca9784" target="_top" xlink:title="Return whether integer n &gt;= 2 is prime.">
<polygon fill="white" stroke="black" points="780,-76.5 780,-95.5 825,-95.5 825,-76.5 780,-76.5"/>
<text text-anchor="middle" x="802.5" y="-83.5" font-family="Helvetica,sans-Serif" font-size="10.00">prime</text>
</a>
</g>
</g>
<!-- Node11&#45;&gt;Node12 -->
<g id="edge11" class="edge">
<title>Node11&#45;&gt;Node12</title>
<path fill="none" stroke="midnightblue" d="M669.23,-154.15C693.91,-141.44 743,-116.14 773.93,-100.2"/>
<polygon fill="midnightblue" stroke="midnightblue" points="775.62,-103.27 782.91,-95.58 772.41,-97.05 775.62,-103.27"/>
</g>
<!-- Node12&#45;&gt;Node7 -->
<g id="edge12" class="edge">
<title>Node12&#45;&gt;Node7</title>
<path fill="none" stroke="midnightblue" d="M825.21,-94.02C836.15,-98.32 849.51,-103.97 861,-110 893.3,-126.95 928.38,-150.44 950.15,-165.68"/>
<polygon fill="midnightblue" stroke="midnightblue" points="948.16,-168.56 958.35,-171.47 952.2,-162.84 948.16,-168.56"/>
</g>
<!-- Node14 -->
<g id="node14" class="node">
<title>Node14</title>
<g id="a_node14"><a xlink:href="namespacecombinatorics.html#a7c355be8fa586494f280768dc777dede" target="_top" xlink:title=" ">
<polygon fill="white" stroke="black" points="744,-190.5 744,-209.5 861,-209.5 861,-190.5 744,-190.5"/>
<text text-anchor="middle" x="802.5" y="-197.5" font-family="Helvetica,sans-Serif" font-size="10.00">combinatorics::perm</text>
</a>
</g>
</g>
<!-- Node13&#45;&gt;Node14 -->
<g id="edge14" class="edge">
<title>Node13&#45;&gt;Node14</title>
<path fill="none" stroke="midnightblue" d="M708.09,-200C716.48,-200 725.24,-200 733.88,-200"/>
<polygon fill="midnightblue" stroke="midnightblue" points="733.95,-203.5 743.95,-200 733.95,-196.5 733.95,-203.5"/>
</g>
<!-- Node16 -->
<g id="node16" class="node">
<title>Node16</title>
<g id="a_node16"><a xlink:href="number__theory_8hpp.html#aa6039763e84c50eb24fdee392c581898" target="_top" xlink:title="Sets x and y so that .">
<polygon fill="white" stroke="black" points="320,-304.5 320,-323.5 360,-323.5 360,-304.5 320,-304.5"/>
<text text-anchor="middle" x="340" y="-311.5" font-family="Helvetica,sans-Serif" font-size="10.00">egcd</text>
</a>
</g>
</g>
<!-- Node15&#45;&gt;Node16 -->
<g id="edge17" class="edge">
<title>Node15&#45;&gt;Node16</title>
<path fill="none" stroke="midnightblue" d="M238.28,-299.5C259.94,-302.62 288.56,-306.74 309.75,-309.79"/>
<polygon fill="midnightblue" stroke="midnightblue" points="309.4,-313.27 319.79,-311.24 310.39,-306.35 309.4,-313.27"/>
</g>
<!-- Node16&#45;&gt;Node6 -->
<g id="edge18" class="edge">
<title>Node16&#45;&gt;Node6</title>
<path fill="none" stroke="midnightblue" d="M360.11,-314C372.8,-314 390.41,-314 408.56,-314"/>
<polygon fill="midnightblue" stroke="midnightblue" points="408.68,-317.5 418.68,-314 408.67,-310.5 408.68,-317.5"/>
</g>
<!-- Node17&#45;&gt;Node11 -->
<g id="edge20" class="edge">
<title>Node17&#45;&gt;Node11</title>
<path fill="none" stroke="midnightblue" d="M511.83,-95.63C541.21,-109.54 595.48,-135.24 627.19,-150.25"/>
<polygon fill="midnightblue" stroke="midnightblue" points="626.09,-153.6 636.63,-154.72 629.09,-147.28 626.09,-153.6"/>
</g>
<!-- Node18&#45;&gt;Node12 -->
<g id="edge22" class="edge">
<title>Node18&#45;&gt;Node12</title>
<path fill="none" stroke="midnightblue" d="M687.84,-71.36C712.44,-74.53 745.51,-78.79 769.64,-81.9"/>
<polygon fill="midnightblue" stroke="midnightblue" points="769.34,-85.39 779.7,-83.19 770.23,-78.44 769.34,-85.39"/>
</g>
<!-- Node20 -->
<g id="node20" class="node">
<title>Node20</title>
<g id="a_node20"><a xlink:href="number__theory_8hpp.html#a6542b189f3759f43899a8b1978d58e2c" target="_top" xlink:title="Returns a primitive root modulo M.">
<polygon fill="white" stroke="black" points="297,-152.5 297,-171.5 383,-171.5 383,-152.5 297,-152.5"/>
<text text-anchor="middle" x="340" y="-159.5" font-family="Helvetica,sans-Serif" font-size="10.00">primitive_root</text>
</a>
</g>
</g>
<!-- Node19&#45;&gt;Node20 -->
<g id="edge24" class="edge">
<title>Node19&#45;&gt;Node20</title>
<path fill="none" stroke="midnightblue" d="M261.07,-162C269.57,-162 278.35,-162 286.81,-162"/>
<polygon fill="midnightblue" stroke="midnightblue" points="286.93,-165.5 296.93,-162 286.93,-158.5 286.93,-165.5"/>
</g>
<!-- Node20&#45;&gt;Node7 -->
<g id="edge26" class="edge">
<title>Node20&#45;&gt;Node7</title>
<path fill="none" stroke="midnightblue" d="M383.24,-157.92C434.12,-153.22 522.22,-145.8 598,-143 646.86,-141.2 659.24,-139.5 708,-143 777.95,-148.02 857.54,-160.44 910.77,-169.72"/>
<polygon fill="midnightblue" stroke="midnightblue" points="910.27,-173.18 920.73,-171.47 911.49,-166.29 910.27,-173.18"/>
</g>
<!-- Node20&#45;&gt;Node10 -->
<g id="edge27" class="edge">
<title>Node20&#45;&gt;Node10</title>
<path fill="none" stroke="midnightblue" d="M378.47,-171.59C402.42,-177.72 433.2,-185.59 456.28,-191.5"/>
<polygon fill="midnightblue" stroke="midnightblue" points="455.41,-194.89 465.97,-193.98 457.15,-188.11 455.41,-194.89"/>
</g>
<!-- Node20&#45;&gt;Node11 -->
<g id="edge25" class="edge">
<title>Node20&#45;&gt;Node11</title>
<path fill="none" stroke="midnightblue" d="M383.27,-162C448.85,-162 573.14,-162 626.55,-162"/>
<polygon fill="midnightblue" stroke="midnightblue" points="626.83,-165.5 636.83,-162 626.83,-158.5 626.83,-165.5"/>
</g>
<!-- Node22 -->
<g id="node22" class="node">
<title>Node22</title>
<g id="a_node22"><a xlink:href="number__theory_8hpp.html#ae8dd217fd3a3de037c6a1031aef548aa" target="_top" xlink:title="Linear time prime sieve.">
<polygon fill="white" stroke="black" points="318.5,-0.5 318.5,-19.5 361.5,-19.5 361.5,-0.5 318.5,-0.5"/>
<text text-anchor="middle" x="340" y="-7.5" font-family="Helvetica,sans-Serif" font-size="10.00">sieve</text>
</a>
</g>
</g>
<!-- Node21&#45;&gt;Node22 -->
<g id="edge29" class="edge">
<title>Node21&#45;&gt;Node22</title>
<path fill="none" stroke="midnightblue" d="M239.63,-10C260.56,-10 287.58,-10 308.15,-10"/>
<polygon fill="midnightblue" stroke="midnightblue" points="308.26,-13.5 318.26,-10 308.26,-6.5 308.26,-13.5"/>
</g>
<!-- Node23&#45;&gt;Node10 -->
<g id="edge31" class="edge">
<title>Node23&#45;&gt;Node10</title>
<path fill="none" stroke="midnightblue" d="M376.57,-200C400.53,-200 431.94,-200 455.56,-200"/>
<polygon fill="midnightblue" stroke="midnightblue" points="455.8,-203.5 465.8,-200 455.8,-196.5 455.8,-203.5"/>
</g>
</g>
</svg>
