<?xml version="1.0" encoding="UTF-8" standalone="no"?>
<!DOCTYPE svg PUBLIC "-//W3C//DTD SVG 1.1//EN"
 "http://www.w3.org/Graphics/SVG/1.1/DTD/svg11.dtd">
<!-- Generated by graphviz version 2.43.0 (0)
 -->
<!-- Title: test_number_theory Pages: 1 -->
<svg width="731pt" height="256pt"
 viewBox="0.00 0.00 731.00 256.00" xmlns="http://www.w3.org/2000/svg" xmlns:xlink="http://www.w3.org/1999/xlink">
<g id="graph0" class="graph" transform="scale(1 1) rotate(0) translate(4 252)">
<title>test_number_theory</title>
<polygon fill="white" stroke="transparent" points="-4,4 -4,-252 727,-252 727,4 -4,4"/>
<!-- Node1 -->
<g id="node1" class="node">
<title>Node1</title>
<g id="a_node1"><a xlink:title=" ">
<polygon fill="#bfbfbf" stroke="black" points="0,-133.5 0,-152.5 115,-152.5 115,-133.5 0,-133.5"/>
<text text-anchor="middle" x="57.5" y="-140.5" font-family="Helvetica,sans-Serif" font-size="10.00">test_number_theory</text>
</a>
</g>
</g>
<!-- Node2 -->
<g id="node2" class="node">
<title>Node2</title>
<g id="a_node2"><a xlink:href="number__theory_8hpp.html#a3e935b9aca6e9dfa6b0a8ef9a4c7e153" target="_top" xlink:title=" ">
<polygon fill="white" stroke="black" points="166.5,-228.5 166.5,-247.5 245.5,-247.5 245.5,-228.5 166.5,-228.5"/>
<text text-anchor="middle" x="206" y="-235.5" font-family="Helvetica,sans-Serif" font-size="10.00">test_divisors</text>
</a>
</g>
</g>
<!-- Node1&#45;&gt;Node2 -->
<g id="edge1" class="edge">
<title>Node1&#45;&gt;Node2</title>
<path fill="none" stroke="midnightblue" d="M69.28,-152.65C85.94,-167.23 119.33,-195.17 151,-214 157.16,-217.66 163.98,-221.12 170.64,-224.2"/>
<polygon fill="midnightblue" stroke="midnightblue" points="169.63,-227.58 180.19,-228.43 172.47,-221.18 169.63,-227.58"/>
</g>
<!-- Node4 -->
<g id="node4" class="node">
<title>Node4</title>
<g id="a_node4"><a xlink:href="number__theory_8hpp.html#a7aac53ce82614d79c7098a1de32ed1e7" target="_top" xlink:title=" ">
<polygon fill="white" stroke="black" points="422.5,-0.5 422.5,-19.5 484.5,-19.5 484.5,-0.5 422.5,-0.5"/>
<text text-anchor="middle" x="453.5" y="-7.5" font-family="Helvetica,sans-Serif" font-size="10.00">test_dlog</text>
</a>
</g>
</g>
<!-- Node1&#45;&gt;Node4 -->
<g id="edge3" class="edge">
<title>Node1&#45;&gt;Node4</title>
<path fill="none" stroke="midnightblue" d="M67.12,-133.26C82.31,-116.78 115.6,-83.55 151,-67 238.18,-26.24 352.46,-14.62 412.18,-11.31"/>
<polygon fill="midnightblue" stroke="midnightblue" points="412.51,-14.8 422.33,-10.8 412.16,-7.81 412.51,-14.8"/>
</g>
<!-- Node6 -->
<g id="node6" class="node">
<title>Node6</title>
<g id="a_node6"><a xlink:href="number__theory_8hpp.html#afcfd3b1e3415393029bc6a496d825459" target="_top" xlink:title=" ">
<polygon fill="white" stroke="black" points="312,-152.5 312,-171.5 368,-171.5 368,-152.5 312,-152.5"/>
<text text-anchor="middle" x="340" y="-159.5" font-family="Helvetica,sans-Serif" font-size="10.00">test_fac</text>
</a>
</g>
</g>
<!-- Node1&#45;&gt;Node6 -->
<g id="edge5" class="edge">
<title>Node1&#45;&gt;Node6</title>
<path fill="none" stroke="midnightblue" d="M115.26,-146.84C170.78,-150.61 253.73,-156.22 301.48,-159.46"/>
<polygon fill="midnightblue" stroke="midnightblue" points="301.47,-162.97 311.69,-160.15 301.95,-155.98 301.47,-162.97"/>
</g>
<!-- Node9 -->
<g id="node9" class="node">
<title>Node9</title>
<g id="a_node9"><a xlink:href="number__theory_8hpp.html#a87d7c3ba2489977a16ec40544a918e00" target="_top" xlink:title=" ">
<polygon fill="white" stroke="black" points="419,-190.5 419,-209.5 488,-209.5 488,-190.5 419,-190.5"/>
<text text-anchor="middle" x="453.5" y="-197.5" font-family="Helvetica,sans-Serif" font-size="10.00">test_prime</text>
</a>
</g>
</g>
<!-- Node1&#45;&gt;Node9 -->
<g id="edge9" class="edge">
<title>Node1&#45;&gt;Node9</title>
<path fill="none" stroke="midnightblue" d="M90.78,-152.6C108.43,-157.54 130.77,-163.29 151,-167 241.88,-183.67 349.82,-192.99 408.74,-197.21"/>
<polygon fill="midnightblue" stroke="midnightblue" points="408.59,-200.7 418.81,-197.91 409.08,-193.72 408.59,-200.7"/>
</g>
<!-- Node10 -->
<g id="node10" class="node">
<title>Node10</title>
<g id="a_node10"><a xlink:href="number__theory_8hpp.html#a0ff115471f41e78245b5dc48eaf8032f" target="_top" xlink:title=" ">
<polygon fill="white" stroke="black" points="151,-76.5 151,-95.5 261,-95.5 261,-76.5 151,-76.5"/>
<text text-anchor="middle" x="206" y="-83.5" font-family="Helvetica,sans-Serif" font-size="10.00">test_primitive_root</text>
</a>
</g>
</g>
<!-- Node1&#45;&gt;Node10 -->
<g id="edge11" class="edge">
<title>Node1&#45;&gt;Node10</title>
<path fill="none" stroke="midnightblue" d="M83.02,-133.46C107.11,-124.09 144.06,-109.71 170.98,-99.24"/>
<polygon fill="midnightblue" stroke="midnightblue" points="172.35,-102.46 180.4,-95.57 169.81,-95.94 172.35,-102.46"/>
</g>
<!-- Node15 -->
<g id="node15" class="node">
<title>Node15</title>
<g id="a_node15"><a xlink:href="number__theory_8hpp.html#a8ae320acad5e35d58ca5ad7adc6ddd78" target="_top" xlink:title=" ">
<polygon fill="white" stroke="black" points="303.5,-114.5 303.5,-133.5 376.5,-133.5 376.5,-114.5 303.5,-114.5"/>
<text text-anchor="middle" x="340" y="-121.5" font-family="Helvetica,sans-Serif" font-size="10.00">test_totient</text>
</a>
</g>
</g>
<!-- Node1&#45;&gt;Node15 -->
<g id="edge19" class="edge">
<title>Node1&#45;&gt;Node15</title>
<path fill="none" stroke="midnightblue" d="M115.26,-139.16C167.61,-135.61 244.36,-130.41 292.98,-127.12"/>
<polygon fill="midnightblue" stroke="midnightblue" points="293.47,-130.59 303.21,-126.42 293,-123.61 293.47,-130.59"/>
</g>
<!-- Node3 -->
<g id="node3" class="node">
<title>Node3</title>
<g id="a_node3"><a xlink:href="number__theory_8hpp.html#af88afa289696363eee6d6caed35edfb5" target="_top" xlink:title=" ">
<polygon fill="white" stroke="black" points="312.5,-228.5 312.5,-247.5 367.5,-247.5 367.5,-228.5 312.5,-228.5"/>
<text text-anchor="middle" x="340" y="-235.5" font-family="Helvetica,sans-Serif" font-size="10.00">divisors</text>
</a>
</g>
</g>
<!-- Node2&#45;&gt;Node3 -->
<g id="edge2" class="edge">
<title>Node2&#45;&gt;Node3</title>
<path fill="none" stroke="midnightblue" d="M245.53,-238C263.31,-238 284.31,-238 301.9,-238"/>
<polygon fill="midnightblue" stroke="midnightblue" points="302.35,-241.5 312.35,-238 302.35,-234.5 302.35,-241.5"/>
</g>
<!-- Node5 -->
<g id="node5" class="node">
<title>Node5</title>
<g id="a_node5"><a xlink:href="modulo_8hpp.html#a18e6bf3063c827da07de67653546a850" target="_top" xlink:title=" ">
<polygon fill="white" stroke="black" points="676,-38.5 676,-57.5 723,-57.5 723,-38.5 676,-38.5"/>
<text text-anchor="middle" x="699.5" y="-45.5" font-family="Helvetica,sans-Serif" font-size="10.00">power</text>
</a>
</g>
</g>
<!-- Node4&#45;&gt;Node5 -->
<g id="edge4" class="edge">
<title>Node4&#45;&gt;Node5</title>
<path fill="none" stroke="midnightblue" d="M484.53,-12.89C521.34,-16.67 585.55,-23.99 640,-34 648.47,-35.56 657.55,-37.56 665.98,-39.57"/>
<polygon fill="midnightblue" stroke="midnightblue" points="665.29,-43 675.84,-41.98 666.96,-36.21 665.29,-43"/>
</g>
<!-- Node7 -->
<g id="node7" class="node">
<title>Node7</title>
<g id="a_node7"><a xlink:href="number__theory_8hpp.html#a8119b9949ade11ba2f554e41cc0830df" target="_top" xlink:title=" ">
<polygon fill="white" stroke="black" points="525.5,-133.5 525.5,-152.5 557.5,-152.5 557.5,-133.5 525.5,-133.5"/>
<text text-anchor="middle" x="541.5" y="-140.5" font-family="Helvetica,sans-Serif" font-size="10.00">fac</text>
</a>
</g>
</g>
<!-- Node6&#45;&gt;Node7 -->
<g id="edge6" class="edge">
<title>Node6&#45;&gt;Node7</title>
<path fill="none" stroke="midnightblue" d="M368.32,-159.4C407.08,-155.71 477.47,-149 515.13,-145.42"/>
<polygon fill="midnightblue" stroke="midnightblue" points="515.64,-148.88 525.26,-144.45 514.98,-141.92 515.64,-148.88"/>
</g>
<!-- Node8 -->
<g id="node8" class="node">
<title>Node8</title>
<g id="a_node8"><a xlink:href="number__theory_8hpp.html#a02e886c6eb18cd3b8894ea2ba9ca9784" target="_top" xlink:title=" ">
<polygon fill="white" stroke="black" points="595,-133.5 595,-152.5 640,-152.5 640,-133.5 595,-133.5"/>
<text text-anchor="middle" x="617.5" y="-140.5" font-family="Helvetica,sans-Serif" font-size="10.00">prime</text>
</a>
</g>
</g>
<!-- Node7&#45;&gt;Node8 -->
<g id="edge7" class="edge">
<title>Node7&#45;&gt;Node8</title>
<path fill="none" stroke="midnightblue" d="M557.83,-143C565.58,-143 575.29,-143 584.57,-143"/>
<polygon fill="midnightblue" stroke="midnightblue" points="584.73,-146.5 594.73,-143 584.73,-139.5 584.73,-146.5"/>
</g>
<!-- Node8&#45;&gt;Node5 -->
<g id="edge8" class="edge">
<title>Node8&#45;&gt;Node5</title>
<path fill="none" stroke="midnightblue" d="M630.26,-133.33C633.53,-130.45 637.01,-127.2 640,-124 657.3,-105.49 674.7,-82.14 685.97,-66.24"/>
<polygon fill="midnightblue" stroke="midnightblue" points="688.98,-68.03 691.85,-57.83 683.25,-64.02 688.98,-68.03"/>
</g>
<!-- Node9&#45;&gt;Node8 -->
<g id="edge10" class="edge">
<title>Node9&#45;&gt;Node8</title>
<path fill="none" stroke="midnightblue" d="M481.62,-190.46C510.1,-180.44 554.86,-164.69 584.92,-154.11"/>
<polygon fill="midnightblue" stroke="midnightblue" points="586.23,-157.36 594.5,-150.74 583.91,-150.76 586.23,-157.36"/>
</g>
<!-- Node11 -->
<g id="node11" class="node">
<title>Node11</title>
<g id="a_node11"><a xlink:href="number__theory_8hpp.html#a8a159e82910edb282085d6879d8c382d" target="_top" xlink:title=" ">
<polygon fill="white" stroke="black" points="297,-76.5 297,-95.5 383,-95.5 383,-76.5 297,-76.5"/>
<text text-anchor="middle" x="340" y="-83.5" font-family="Helvetica,sans-Serif" font-size="10.00">primitive_root</text>
</a>
</g>
</g>
<!-- Node10&#45;&gt;Node11 -->
<g id="edge12" class="edge">
<title>Node10&#45;&gt;Node11</title>
<path fill="none" stroke="midnightblue" d="M261.07,-86C269.57,-86 278.35,-86 286.81,-86"/>
<polygon fill="midnightblue" stroke="midnightblue" points="286.93,-89.5 296.93,-86 286.93,-82.5 286.93,-89.5"/>
</g>
<!-- Node11&#45;&gt;Node5 -->
<g id="edge14" class="edge">
<title>Node11&#45;&gt;Node5</title>
<path fill="none" stroke="midnightblue" d="M383.06,-81.53C455.1,-73.87 600.59,-58.41 665.7,-51.49"/>
<polygon fill="midnightblue" stroke="midnightblue" points="666.23,-54.95 675.8,-50.41 665.49,-47.99 666.23,-54.95"/>
</g>
<!-- Node11&#45;&gt;Node7 -->
<g id="edge13" class="edge">
<title>Node11&#45;&gt;Node7</title>
<path fill="none" stroke="midnightblue" d="M383.24,-85.97C413.4,-87.25 454.39,-91.67 488,-105 500.78,-110.07 513.32,-118.96 522.94,-126.86"/>
<polygon fill="midnightblue" stroke="midnightblue" points="520.71,-129.56 530.57,-133.44 525.28,-124.26 520.71,-129.56"/>
</g>
<!-- Node12 -->
<g id="node12" class="node">
<title>Node12</title>
<g id="a_node12"><a xlink:href="number__theory_8hpp.html#af0753ff92c84e6924e1fd6461e77b16f" target="_top" xlink:title=" ">
<polygon fill="white" stroke="black" points="429,-114.5 429,-133.5 478,-133.5 478,-114.5 429,-114.5"/>
<text text-anchor="middle" x="453.5" y="-121.5" font-family="Helvetica,sans-Serif" font-size="10.00">totient</text>
</a>
</g>
</g>
<!-- Node11&#45;&gt;Node12 -->
<g id="edge15" class="edge">
<title>Node11&#45;&gt;Node12</title>
<path fill="none" stroke="midnightblue" d="M369.14,-95.59C384.42,-100.8 403.4,-107.27 419.39,-112.71"/>
<polygon fill="midnightblue" stroke="midnightblue" points="418.3,-116.04 428.9,-115.96 420.56,-109.42 418.3,-116.04"/>
</g>
<!-- Node12&#45;&gt;Node7 -->
<g id="edge16" class="edge">
<title>Node12&#45;&gt;Node7</title>
<path fill="none" stroke="midnightblue" d="M478.46,-129.29C489.95,-131.83 503.71,-134.87 515.36,-137.44"/>
<polygon fill="midnightblue" stroke="midnightblue" points="514.8,-140.91 525.32,-139.65 516.31,-134.07 514.8,-140.91"/>
</g>
<!-- Node13 -->
<g id="node13" class="node">
<title>Node13</title>
<g id="a_node13"><a xlink:href="combinatorics_8hpp.html#aed30b4e386e3e22247cd9d6aecc1e88f" target="_top" xlink:title=" ">
<polygon fill="white" stroke="black" points="524,-95.5 524,-114.5 559,-114.5 559,-95.5 524,-95.5"/>
<text text-anchor="middle" x="541.5" y="-102.5" font-family="Helvetica,sans-Serif" font-size="10.00">fact</text>
</a>
</g>
</g>
<!-- Node12&#45;&gt;Node13 -->
<g id="edge17" class="edge">
<title>Node12&#45;&gt;Node13</title>
<path fill="none" stroke="midnightblue" d="M478.46,-118.71C489.49,-116.27 502.62,-113.37 513.96,-110.86"/>
<polygon fill="midnightblue" stroke="midnightblue" points="514.74,-114.28 523.75,-108.7 513.23,-107.44 514.74,-114.28"/>
</g>
<!-- Node14 -->
<g id="node14" class="node">
<title>Node14</title>
<g id="a_node14"><a xlink:href="combinatorics_8hpp.html#ada068dc4f9ea18a98ff58cb8b0be93c9" target="_top" xlink:title=" ">
<polygon fill="white" stroke="black" points="596.5,-95.5 596.5,-114.5 638.5,-114.5 638.5,-95.5 596.5,-95.5"/>
<text text-anchor="middle" x="617.5" y="-102.5" font-family="Helvetica,sans-Serif" font-size="10.00">perm</text>
</a>
</g>
</g>
<!-- Node13&#45;&gt;Node14 -->
<g id="edge18" class="edge">
<title>Node13&#45;&gt;Node14</title>
<path fill="none" stroke="midnightblue" d="M559.29,-105C567.29,-105 577.09,-105 586.32,-105"/>
<polygon fill="midnightblue" stroke="midnightblue" points="586.35,-108.5 596.35,-105 586.35,-101.5 586.35,-108.5"/>
</g>
<!-- Node15&#45;&gt;Node12 -->
<g id="edge20" class="edge">
<title>Node15&#45;&gt;Node12</title>
<path fill="none" stroke="midnightblue" d="M376.59,-124C390.06,-124 405.36,-124 418.67,-124"/>
<polygon fill="midnightblue" stroke="midnightblue" points="418.85,-127.5 428.85,-124 418.85,-120.5 418.85,-127.5"/>
</g>
</g>
</svg>
