<?xml version="1.0" encoding="UTF-8" standalone="no"?>
<!DOCTYPE svg PUBLIC "-//W3C//DTD SVG 1.1//EN"
 "http://www.w3.org/Graphics/SVG/1.1/DTD/svg11.dtd">
<!-- Generated by graphviz version 2.43.0 (0)
 -->
<!-- Title: test_fac Pages: 1 -->
<svg width="490pt" height="66pt"
 viewBox="0.00 0.00 490.00 66.00" xmlns="http://www.w3.org/2000/svg" xmlns:xlink="http://www.w3.org/1999/xlink">
<g id="graph0" class="graph" transform="scale(1 1) rotate(0) translate(4 62)">
<title>test_fac</title>
<polygon fill="white" stroke="transparent" points="-4,4 -4,-62 486,-62 486,4 -4,4"/>
<!-- Node1 -->
<g id="node1" class="node">
<title>Node1</title>
<g id="a_node1"><a xlink:title=" ">
<polygon fill="#bfbfbf" stroke="black" points="0,-19.5 0,-38.5 56,-38.5 56,-19.5 0,-19.5"/>
<text text-anchor="middle" x="28" y="-26.5" font-family="Helvetica,sans-Serif" font-size="10.00">test_fac</text>
</a>
</g>
</g>
<!-- Node2 -->
<g id="node2" class="node">
<title>Node2</title>
<g id="a_node2"><a xlink:href="number__theory_8hpp.html#a8119b9949ade11ba2f554e41cc0830df" target="_top" xlink:title="Returns the factorization of n.">
<polygon fill="white" stroke="black" points="92,-19.5 92,-38.5 124,-38.5 124,-19.5 92,-19.5"/>
<text text-anchor="middle" x="108" y="-26.5" font-family="Helvetica,sans-Serif" font-size="10.00">fac</text>
</a>
</g>
</g>
<!-- Node1&#45;&gt;Node2 -->
<g id="edge1" class="edge">
<title>Node1&#45;&gt;Node2</title>
<path fill="none" stroke="midnightblue" d="M56.28,-29C64.59,-29 73.68,-29 81.84,-29"/>
<polygon fill="midnightblue" stroke="midnightblue" points="81.89,-32.5 91.89,-29 81.89,-25.5 81.89,-32.5"/>
</g>
<!-- Node3 -->
<g id="node3" class="node">
<title>Node3</title>
<g id="a_node3"><a xlink:href="number__theory_8hpp.html#a02e886c6eb18cd3b8894ea2ba9ca9784" target="_top" xlink:title="Return whether integer n &gt;= 2 is prime.">
<polygon fill="white" stroke="black" points="160,-19.5 160,-38.5 205,-38.5 205,-19.5 160,-19.5"/>
<text text-anchor="middle" x="182.5" y="-26.5" font-family="Helvetica,sans-Serif" font-size="10.00">prime</text>
</a>
</g>
</g>
<!-- Node2&#45;&gt;Node3 -->
<g id="edge2" class="edge">
<title>Node2&#45;&gt;Node3</title>
<path fill="none" stroke="midnightblue" d="M124.02,-29C131.47,-29 140.78,-29 149.71,-29"/>
<polygon fill="midnightblue" stroke="midnightblue" points="149.9,-32.5 159.9,-29 149.9,-25.5 149.9,-32.5"/>
</g>
<!-- Node4 -->
<g id="node4" class="node">
<title>Node4</title>
<g id="a_node4"><a xlink:href="namespacemodulo__namespace.html#a8e6fc91a032b336ea0bbed9eabf54f69" target="_top" xlink:title="Returns .">
<polygon fill="white" stroke="black" points="241,-19.5 241,-38.5 392,-38.5 392,-19.5 241,-19.5"/>
<text text-anchor="middle" x="316.5" y="-26.5" font-family="Helvetica,sans-Serif" font-size="10.00">modulo_namespace::power</text>
</a>
</g>
</g>
<!-- Node3&#45;&gt;Node4 -->
<g id="edge3" class="edge">
<title>Node3&#45;&gt;Node4</title>
<path fill="none" stroke="midnightblue" d="M205,-29C212.48,-29 221.39,-29 230.86,-29"/>
<polygon fill="midnightblue" stroke="midnightblue" points="230.89,-32.5 240.89,-29 230.89,-25.5 230.89,-32.5"/>
</g>
<!-- Node5 -->
<g id="node5" class="node">
<title>Node5</title>
<g id="a_node5"><a xlink:href="d__compiled_8cpp.html#ac969ae49524a67aba9be0f061955ef23" target="_top" xlink:title=" ">
<polygon fill="white" stroke="black" points="428,-38.5 428,-57.5 482,-57.5 482,-38.5 428,-38.5"/>
<text text-anchor="middle" x="455" y="-45.5" font-family="Helvetica,sans-Serif" font-size="10.00">identity</text>
</a>
</g>
</g>
<!-- Node4&#45;&gt;Node5 -->
<g id="edge4" class="edge">
<title>Node4&#45;&gt;Node5</title>
<path fill="none" stroke="midnightblue" d="M386.15,-38.56C397.07,-40.08 407.98,-41.59 417.75,-42.95"/>
<polygon fill="midnightblue" stroke="midnightblue" points="417.48,-46.45 427.86,-44.36 418.44,-39.52 417.48,-46.45"/>
</g>
<!-- Node6 -->
<g id="node6" class="node">
<title>Node6</title>
<g id="a_node6"><a xlink:href="d__compiled_8cpp.html#a4cb6b7e98aadd3fa7ffc759c5e14596d" target="_top" xlink:title=" ">
<polygon fill="white" stroke="black" points="432.5,-0.5 432.5,-19.5 477.5,-19.5 477.5,-0.5 432.5,-0.5"/>
<text text-anchor="middle" x="455" y="-7.5" font-family="Helvetica,sans-Serif" font-size="10.00">invert</text>
</a>
</g>
</g>
<!-- Node4&#45;&gt;Node6 -->
<g id="edge5" class="edge">
<title>Node4&#45;&gt;Node6</title>
<path fill="none" stroke="midnightblue" d="M386.15,-19.44C398.7,-17.7 411.23,-15.95 422.04,-14.45"/>
<polygon fill="midnightblue" stroke="midnightblue" points="422.8,-17.88 432.22,-13.03 421.84,-10.94 422.8,-17.88"/>
</g>
</g>
</svg>
