<?xml version="1.0" encoding="UTF-8" standalone="no"?>
<!DOCTYPE svg PUBLIC "-//W3C//DTD SVG 1.1//EN"
 "http://www.w3.org/Graphics/SVG/1.1/DTD/svg11.dtd">
<!-- Generated by graphviz version 2.43.0 (0)
 -->
<!-- Title: divisors Pages: 1 -->
<svg width="171pt" height="66pt"
 viewBox="0.00 0.00 171.00 66.00" xmlns="http://www.w3.org/2000/svg" xmlns:xlink="http://www.w3.org/1999/xlink">
<g id="graph0" class="graph" transform="scale(1 1) rotate(0) translate(4 62)">
<title>divisors</title>
<polygon fill="white" stroke="transparent" points="-4,4 -4,-62 167,-62 167,4 -4,4"/>
<!-- Node1 -->
<g id="node1" class="node">
<title>Node1</title>
<g id="a_node1"><a xlink:title="Return all divisors of x in sorted order.">
<polygon fill="#bfbfbf" stroke="black" points="0,-19.5 0,-38.5 55,-38.5 55,-19.5 0,-19.5"/>
<text text-anchor="middle" x="27.5" y="-26.5" font-family="Helvetica,sans-Serif" font-size="10.00">divisors</text>
</a>
</g>
</g>
<!-- Node2 -->
<g id="node2" class="node">
<title>Node2</title>
<g id="a_node2"><a xlink:href="namespacetree.html#a1db5e81cd89b854831db8147ff509caa" target="_top" xlink:title=" ">
<polygon fill="white" stroke="black" points="91,-38.5 91,-57.5 163,-57.5 163,-38.5 91,-38.5"/>
<text text-anchor="middle" x="127" y="-45.5" font-family="Helvetica,sans-Serif" font-size="10.00">tree::assert</text>
</a>
</g>
</g>
<!-- Node1&#45;&gt;Node2 -->
<g id="edge1" class="edge">
<title>Node1&#45;&gt;Node2</title>
<path fill="none" stroke="midnightblue" d="M55.14,-34.19C63.17,-35.76 72.22,-37.52 81.09,-39.25"/>
<polygon fill="midnightblue" stroke="midnightblue" points="80.49,-42.7 90.97,-41.17 81.83,-35.83 80.49,-42.7"/>
</g>
<!-- Node3 -->
<g id="node3" class="node">
<title>Node3</title>
<g id="a_node3"><a xlink:href="operations_8hpp.html#a915663194fec79c061edfaea61707bd0" target="_top" xlink:title=" ">
<polygon fill="white" stroke="black" points="112.5,-0.5 112.5,-19.5 141.5,-19.5 141.5,-0.5 112.5,-0.5"/>
<text text-anchor="middle" x="127" y="-7.5" font-family="Helvetica,sans-Serif" font-size="10.00">fo</text>
</a>
</g>
</g>
<!-- Node1&#45;&gt;Node3 -->
<g id="edge2" class="edge">
<title>Node1&#45;&gt;Node3</title>
<path fill="none" stroke="midnightblue" d="M55.14,-23.81C69.88,-20.94 88.04,-17.4 102.28,-14.62"/>
<polygon fill="midnightblue" stroke="midnightblue" points="103.14,-18.02 112.29,-12.67 101.8,-11.15 103.14,-18.02"/>
</g>
</g>
</svg>
