<?xml version="1.0" encoding="UTF-8" standalone="no"?>
<!DOCTYPE svg PUBLIC "-//W3C//DTD SVG 1.1//EN"
 "http://www.w3.org/Graphics/SVG/1.1/DTD/svg11.dtd">
<!-- Generated by graphviz version 2.43.0 (0)
 -->
<!-- Title: prime Pages: 1 -->
<svg width="798pt" height="142pt"
 viewBox="0.00 0.00 798.00 142.00" xmlns="http://www.w3.org/2000/svg" xmlns:xlink="http://www.w3.org/1999/xlink">
<g id="graph0" class="graph" transform="scale(1 1) rotate(0) translate(4 138)">
<title>prime</title>
<polygon fill="white" stroke="transparent" points="-4,4 -4,-138 794,-138 794,4 -4,4"/>
<!-- Node1 -->
<g id="node1" class="node">
<title>Node1</title>
<g id="a_node1"><a xlink:title=" ">
<polygon fill="#bfbfbf" stroke="black" points="745,-57.5 745,-76.5 790,-76.5 790,-57.5 745,-57.5"/>
<text text-anchor="middle" x="767.5" y="-64.5" font-family="Helvetica,sans-Serif" font-size="10.00">prime</text>
</a>
</g>
</g>
<!-- Node2 -->
<g id="node2" class="node">
<title>Node2</title>
<g id="a_node2"><a xlink:href="number__theory_8hpp.html#a7fe167e7a6ffd6127f342baf3169d9e9" target="_top" xlink:title=" ">
<polygon fill="white" stroke="black" points="671,-95.5 671,-114.5 709,-114.5 709,-95.5 671,-95.5"/>
<text text-anchor="middle" x="690" y="-102.5" font-family="Helvetica,sans-Serif" font-size="10.00">dlog</text>
</a>
</g>
</g>
<!-- Node1&#45;&gt;Node2 -->
<g id="edge1" class="edge">
<title>Node1&#45;&gt;Node2</title>
<path fill="none" stroke="midnightblue" d="M738.4,-81.14C728.57,-86.09 717.79,-91.51 709.01,-95.94"/>
<polygon fill="midnightblue" stroke="midnightblue" points="740.09,-84.21 747.45,-76.59 736.94,-77.96 740.09,-84.21"/>
</g>
<!-- Node3 -->
<g id="node3" class="node">
<title>Node3</title>
<g id="a_node3"><a xlink:href="number__theory_8hpp.html#a8119b9949ade11ba2f554e41cc0830df" target="_top" xlink:title=" ">
<polygon fill="white" stroke="black" points="674,-57.5 674,-76.5 706,-76.5 706,-57.5 674,-57.5"/>
<text text-anchor="middle" x="690" y="-64.5" font-family="Helvetica,sans-Serif" font-size="10.00">fac</text>
</a>
</g>
</g>
<!-- Node1&#45;&gt;Node3 -->
<g id="edge2" class="edge">
<title>Node1&#45;&gt;Node3</title>
<path fill="none" stroke="midnightblue" d="M734.66,-67C724.75,-67 714.29,-67 706.09,-67"/>
<polygon fill="midnightblue" stroke="midnightblue" points="734.66,-70.5 744.66,-67 734.66,-63.5 734.66,-70.5"/>
</g>
<!-- Node12 -->
<g id="node12" class="node">
<title>Node12</title>
<g id="a_node12"><a xlink:href="number__theory_8hpp.html#a87d7c3ba2489977a16ec40544a918e00" target="_top" xlink:title=" ">
<polygon fill="white" stroke="black" points="331.5,-0.5 331.5,-19.5 400.5,-19.5 400.5,-0.5 331.5,-0.5"/>
<text text-anchor="middle" x="366" y="-7.5" font-family="Helvetica,sans-Serif" font-size="10.00">test_prime</text>
</a>
</g>
</g>
<!-- Node1&#45;&gt;Node12 -->
<g id="edge14" class="edge">
<title>Node1&#45;&gt;Node12</title>
<path fill="none" stroke="midnightblue" d="M735.23,-56.24C726.75,-53.44 717.56,-50.51 709,-48 676.42,-38.45 668.52,-34.45 635,-29 551.44,-15.42 451.65,-11.55 400.65,-10.44"/>
<polygon fill="midnightblue" stroke="midnightblue" points="734.17,-59.58 744.77,-59.43 736.39,-52.94 734.17,-59.58"/>
</g>
<!-- Node4 -->
<g id="node4" class="node">
<title>Node4</title>
<g id="a_node4"><a xlink:href="number__theory_8hpp.html#a8a159e82910edb282085d6879d8c382d" target="_top" xlink:title=" ">
<polygon fill="white" stroke="black" points="457,-76.5 457,-95.5 543,-95.5 543,-76.5 457,-76.5"/>
<text text-anchor="middle" x="500" y="-83.5" font-family="Helvetica,sans-Serif" font-size="10.00">primitive_root</text>
</a>
</g>
</g>
<!-- Node3&#45;&gt;Node4 -->
<g id="edge3" class="edge">
<title>Node3&#45;&gt;Node4</title>
<path fill="none" stroke="midnightblue" d="M663.61,-69.57C632.73,-72.69 580.17,-78 543.18,-81.74"/>
<polygon fill="midnightblue" stroke="midnightblue" points="664.34,-73.01 673.93,-68.52 663.63,-66.05 664.34,-73.01"/>
</g>
<!-- Node9 -->
<g id="node9" class="node">
<title>Node9</title>
<g id="a_node9"><a xlink:href="number__theory_8hpp.html#afcfd3b1e3415393029bc6a496d825459" target="_top" xlink:title=" ">
<polygon fill="white" stroke="black" points="579,-38.5 579,-57.5 635,-57.5 635,-38.5 579,-38.5"/>
<text text-anchor="middle" x="607" y="-45.5" font-family="Helvetica,sans-Serif" font-size="10.00">test_fac</text>
</a>
</g>
</g>
<!-- Node3&#45;&gt;Node9 -->
<g id="edge8" class="edge">
<title>Node3&#45;&gt;Node9</title>
<path fill="none" stroke="midnightblue" d="M663.82,-61.09C654.77,-58.97 644.52,-56.57 635.3,-54.4"/>
<polygon fill="midnightblue" stroke="midnightblue" points="663.23,-64.55 673.76,-63.43 664.83,-57.73 663.23,-64.55"/>
</g>
<!-- Node10 -->
<g id="node10" class="node">
<title>Node10</title>
<g id="a_node10"><a xlink:href="number__theory_8hpp.html#af0753ff92c84e6924e1fd6461e77b16f" target="_top" xlink:title=" ">
<polygon fill="white" stroke="black" points="582.5,-114.5 582.5,-133.5 631.5,-133.5 631.5,-114.5 582.5,-114.5"/>
<text text-anchor="middle" x="607" y="-121.5" font-family="Helvetica,sans-Serif" font-size="10.00">totient</text>
</a>
</g>
</g>
<!-- Node3&#45;&gt;Node10 -->
<g id="edge10" class="edge">
<title>Node3&#45;&gt;Node10</title>
<path fill="none" stroke="midnightblue" d="M666.84,-82.59C652.35,-92.79 633.88,-105.79 621.54,-114.47"/>
<polygon fill="midnightblue" stroke="midnightblue" points="669.1,-85.29 675.26,-76.67 665.07,-79.56 669.1,-85.29"/>
</g>
<!-- Node5 -->
<g id="node5" class="node">
<title>Node5</title>
<g id="a_node5"><a xlink:href="number__theory_8hpp.html#a0ff115471f41e78245b5dc48eaf8032f" target="_top" xlink:title=" ">
<polygon fill="white" stroke="black" points="311,-76.5 311,-95.5 421,-95.5 421,-76.5 311,-76.5"/>
<text text-anchor="middle" x="366" y="-83.5" font-family="Helvetica,sans-Serif" font-size="10.00">test_primitive_root</text>
</a>
</g>
</g>
<!-- Node4&#45;&gt;Node5 -->
<g id="edge4" class="edge">
<title>Node4&#45;&gt;Node5</title>
<path fill="none" stroke="midnightblue" d="M446.82,-86C438.43,-86 429.72,-86 421.28,-86"/>
<polygon fill="midnightblue" stroke="midnightblue" points="446.87,-89.5 456.87,-86 446.87,-82.5 446.87,-89.5"/>
</g>
<!-- Node6 -->
<g id="node6" class="node">
<title>Node6</title>
<g id="a_node6"><a xlink:href="number__theory_8hpp.html#aed36f6b8b9706133e9b5302b1618e9ef" target="_top" xlink:title=" ">
<polygon fill="white" stroke="black" points="160,-57.5 160,-76.5 275,-76.5 275,-57.5 160,-57.5"/>
<text text-anchor="middle" x="217.5" y="-64.5" font-family="Helvetica,sans-Serif" font-size="10.00">test_number_theory</text>
</a>
</g>
</g>
<!-- Node5&#45;&gt;Node6 -->
<g id="edge5" class="edge">
<title>Node5&#45;&gt;Node6</title>
<path fill="none" stroke="midnightblue" d="M300.69,-77.66C292.25,-76.57 283.66,-75.45 275.36,-74.37"/>
<polygon fill="midnightblue" stroke="midnightblue" points="300.5,-81.16 310.87,-78.98 301.4,-74.22 300.5,-81.16"/>
</g>
<!-- Node7 -->
<g id="node7" class="node">
<title>Node7</title>
<g id="a_node7"><a xlink:href="test_8cpp.html#af095a232149097b5605064623a9345ac" target="_top" xlink:title=" ">
<polygon fill="white" stroke="black" points="77,-57.5 77,-76.5 124,-76.5 124,-57.5 77,-57.5"/>
<text text-anchor="middle" x="100.5" y="-64.5" font-family="Helvetica,sans-Serif" font-size="10.00">main2</text>
</a>
</g>
</g>
<!-- Node6&#45;&gt;Node7 -->
<g id="edge6" class="edge">
<title>Node6&#45;&gt;Node7</title>
<path fill="none" stroke="midnightblue" d="M149.41,-67C140.39,-67 131.7,-67 124.26,-67"/>
<polygon fill="midnightblue" stroke="midnightblue" points="149.67,-70.5 159.67,-67 149.67,-63.5 149.67,-70.5"/>
</g>
<!-- Node8 -->
<g id="node8" class="node">
<title>Node8</title>
<g id="a_node8"><a xlink:href="main_8hpp.html#a0ddf1224851353fc92bfbff6f499fa97" target="_top" xlink:title=" ">
<polygon fill="white" stroke="black" points="0,-57.5 0,-76.5 41,-76.5 41,-57.5 0,-57.5"/>
<text text-anchor="middle" x="20.5" y="-64.5" font-family="Helvetica,sans-Serif" font-size="10.00">main</text>
</a>
</g>
</g>
<!-- Node7&#45;&gt;Node8 -->
<g id="edge7" class="edge">
<title>Node7&#45;&gt;Node8</title>
<path fill="none" stroke="midnightblue" d="M66.66,-67C57.96,-67 48.84,-67 41.1,-67"/>
<polygon fill="midnightblue" stroke="midnightblue" points="66.94,-70.5 76.94,-67 66.94,-63.5 66.94,-70.5"/>
</g>
<!-- Node9&#45;&gt;Node6 -->
<g id="edge9" class="edge">
<title>Node9&#45;&gt;Node6</title>
<path fill="none" stroke="midnightblue" d="M568.49,-49.84C500.3,-53.18 355.69,-60.27 275.33,-64.21"/>
<polygon fill="midnightblue" stroke="midnightblue" points="568.94,-53.32 578.75,-49.34 568.59,-46.33 568.94,-53.32"/>
</g>
<!-- Node10&#45;&gt;Node4 -->
<g id="edge11" class="edge">
<title>Node10&#45;&gt;Node4</title>
<path fill="none" stroke="midnightblue" d="M572.75,-111.97C558.12,-106.67 541.18,-100.54 527.44,-95.57"/>
<polygon fill="midnightblue" stroke="midnightblue" points="571.84,-115.36 582.44,-115.47 574.22,-108.78 571.84,-115.36"/>
</g>
<!-- Node11 -->
<g id="node11" class="node">
<title>Node11</title>
<g id="a_node11"><a xlink:href="number__theory_8hpp.html#a8ae320acad5e35d58ca5ad7adc6ddd78" target="_top" xlink:title=" ">
<polygon fill="white" stroke="black" points="463.5,-114.5 463.5,-133.5 536.5,-133.5 536.5,-114.5 463.5,-114.5"/>
<text text-anchor="middle" x="500" y="-121.5" font-family="Helvetica,sans-Serif" font-size="10.00">test_totient</text>
</a>
</g>
</g>
<!-- Node10&#45;&gt;Node11 -->
<g id="edge12" class="edge">
<title>Node10&#45;&gt;Node11</title>
<path fill="none" stroke="midnightblue" d="M572.12,-124C560.85,-124 548.27,-124 536.86,-124"/>
<polygon fill="midnightblue" stroke="midnightblue" points="572.44,-127.5 582.44,-124 572.44,-120.5 572.44,-127.5"/>
</g>
<!-- Node11&#45;&gt;Node6 -->
<g id="edge13" class="edge">
<title>Node11&#45;&gt;Node6</title>
<path fill="none" stroke="midnightblue" d="M453.12,-123.05C414.66,-121.38 358.56,-116.9 311,-105 284.39,-98.34 255.39,-85.43 237.09,-76.51"/>
<polygon fill="midnightblue" stroke="midnightblue" points="453.35,-126.56 463.48,-123.45 453.62,-119.57 453.35,-126.56"/>
</g>
<!-- Node12&#45;&gt;Node6 -->
<g id="edge15" class="edge">
<title>Node12&#45;&gt;Node6</title>
<path fill="none" stroke="midnightblue" d="M331.07,-23.2C304.17,-33.67 267.21,-48.05 243.1,-57.43"/>
<polygon fill="midnightblue" stroke="midnightblue" points="332.43,-26.43 340.48,-19.54 329.89,-19.9 332.43,-26.43"/>
</g>
</g>
</svg>
