<?xml version="1.0" encoding="UTF-8" standalone="no"?>
<!DOCTYPE svg PUBLIC "-//W3C//DTD SVG 1.1//EN"
 "http://www.w3.org/Graphics/SVG/1.1/DTD/svg11.dtd">
<!-- Generated by graphviz version 2.43.0 (0)
 -->
<!-- Title: divisors Pages: 1 -->
<svg width="412pt" height="28pt"
 viewBox="0.00 0.00 412.00 28.00" xmlns="http://www.w3.org/2000/svg" xmlns:xlink="http://www.w3.org/1999/xlink">
<g id="graph0" class="graph" transform="scale(1 1) rotate(0) translate(4 24)">
<title>divisors</title>
<polygon fill="white" stroke="transparent" points="-4,4 -4,-24 408,-24 408,4 -4,4"/>
<!-- Node1 -->
<g id="node1" class="node">
<title>Node1</title>
<g id="a_node1"><a xlink:title="Return all divisors of x in sorted order.">
<polygon fill="#bfbfbf" stroke="black" points="349,-0.5 349,-19.5 404,-19.5 404,-0.5 349,-0.5"/>
<text text-anchor="middle" x="376.5" y="-7.5" font-family="Helvetica,sans-Serif" font-size="10.00">divisors</text>
</a>
</g>
</g>
<!-- Node2 -->
<g id="node2" class="node">
<title>Node2</title>
<g id="a_node2"><a xlink:href="$test__number__theory_8hpp.html#a3e935b9aca6e9dfa6b0a8ef9a4c7e153" xlink:title=" ">
<polygon fill="white" stroke="black" points="234,-0.5 234,-19.5 313,-19.5 313,-0.5 234,-0.5"/>
<text text-anchor="middle" x="273.5" y="-7.5" font-family="Helvetica,sans-Serif" font-size="10.00">test_divisors</text>
</a>
</g>
</g>
<!-- Node1&#45;&gt;Node2 -->
<g id="edge1" class="edge">
<title>Node1&#45;&gt;Node2</title>
<path fill="none" stroke="midnightblue" d="M338.73,-10C330.37,-10 321.45,-10 313.02,-10"/>
<polygon fill="midnightblue" stroke="midnightblue" points="338.96,-13.5 348.96,-10 338.96,-6.5 338.96,-13.5"/>
</g>
<!-- Node3 -->
<g id="node3" class="node">
<title>Node3</title>
<g id="a_node3"><a xlink:href="$test__number__theory_8hpp.html#aed36f6b8b9706133e9b5302b1618e9ef" xlink:title=" ">
<polygon fill="white" stroke="black" points="83,-0.5 83,-19.5 198,-19.5 198,-0.5 83,-0.5"/>
<text text-anchor="middle" x="140.5" y="-7.5" font-family="Helvetica,sans-Serif" font-size="10.00">test_number_theory</text>
</a>
</g>
</g>
<!-- Node2&#45;&gt;Node3 -->
<g id="edge2" class="edge">
<title>Node2&#45;&gt;Node3</title>
<path fill="none" stroke="midnightblue" d="M223.67,-10C215.39,-10 206.73,-10 198.27,-10"/>
<polygon fill="midnightblue" stroke="midnightblue" points="223.9,-13.5 233.9,-10 223.9,-6.5 223.9,-13.5"/>
</g>
<!-- Node4 -->
<g id="node4" class="node">
<title>Node4</title>
<g id="a_node4"><a xlink:href="$test_8cpp.html#af095a232149097b5605064623a9345ac" xlink:title=" ">
<polygon fill="white" stroke="black" points="0,-0.5 0,-19.5 47,-19.5 47,-0.5 0,-0.5"/>
<text text-anchor="middle" x="23.5" y="-7.5" font-family="Helvetica,sans-Serif" font-size="10.00">main2</text>
</a>
</g>
</g>
<!-- Node3&#45;&gt;Node4 -->
<g id="edge3" class="edge">
<title>Node3&#45;&gt;Node4</title>
<path fill="none" stroke="midnightblue" d="M72.41,-10C63.39,-10 54.7,-10 47.26,-10"/>
<polygon fill="midnightblue" stroke="midnightblue" points="72.67,-13.5 82.67,-10 72.67,-6.5 72.67,-13.5"/>
</g>
</g>
</svg>
