<?xml version="1.0" encoding="UTF-8" standalone="no"?>
<!DOCTYPE svg PUBLIC "-//W3C//DTD SVG 1.1//EN"
 "http://www.w3.org/Graphics/SVG/1.1/DTD/svg11.dtd">
<!-- Generated by graphviz version 2.43.0 (0)
 -->
<!-- Title: totient Pages: 1 -->
<svg width="725pt" height="66pt"
 viewBox="0.00 0.00 725.00 66.00" xmlns="http://www.w3.org/2000/svg" xmlns:xlink="http://www.w3.org/1999/xlink">
<g id="graph0" class="graph" transform="scale(1 1) rotate(0) translate(4 62)">
<title>totient</title>
<polygon fill="white" stroke="transparent" points="-4,4 -4,-62 721,-62 721,4 -4,4"/>
<!-- Node1 -->
<g id="node1" class="node">
<title>Node1</title>
<g id="a_node1"><a xlink:title=" ">
<polygon fill="#bfbfbf" stroke="black" points="668,-19.5 668,-38.5 717,-38.5 717,-19.5 668,-19.5"/>
<text text-anchor="middle" x="692.5" y="-26.5" font-family="Helvetica,sans-Serif" font-size="10.00">totient</text>
</a>
</g>
</g>
<!-- Node2 -->
<g id="node2" class="node">
<title>Node2</title>
<g id="a_node2"><a xlink:href="number__theory_8hpp.html#a8a159e82910edb282085d6879d8c382d" target="_top" xlink:title=" ">
<polygon fill="white" stroke="black" points="546,-38.5 546,-57.5 632,-57.5 632,-38.5 546,-38.5"/>
<text text-anchor="middle" x="589" y="-45.5" font-family="Helvetica,sans-Serif" font-size="10.00">primitive_root</text>
</a>
</g>
</g>
<!-- Node1&#45;&gt;Node2 -->
<g id="edge1" class="edge">
<title>Node1&#45;&gt;Node2</title>
<path fill="none" stroke="midnightblue" d="M657.94,-35.28C649.68,-36.83 640.73,-38.5 632.13,-40.11"/>
<polygon fill="midnightblue" stroke="midnightblue" points="658.77,-38.69 667.96,-33.41 657.49,-31.81 658.77,-38.69"/>
</g>
<!-- Node8 -->
<g id="node8" class="node">
<title>Node8</title>
<g id="a_node8"><a xlink:href="number__theory_8hpp.html#a8ae320acad5e35d58ca5ad7adc6ddd78" target="_top" xlink:title=" ">
<polygon fill="white" stroke="black" points="418.5,-0.5 418.5,-19.5 491.5,-19.5 491.5,-0.5 418.5,-0.5"/>
<text text-anchor="middle" x="455" y="-7.5" font-family="Helvetica,sans-Serif" font-size="10.00">test_totient</text>
</a>
</g>
</g>
<!-- Node1&#45;&gt;Node8 -->
<g id="edge7" class="edge">
<title>Node1&#45;&gt;Node8</title>
<path fill="none" stroke="midnightblue" d="M657.4,-26.25C613.27,-22.69 536.72,-16.51 491.78,-12.89"/>
<polygon fill="midnightblue" stroke="midnightblue" points="657.37,-29.76 667.62,-27.07 657.94,-22.78 657.37,-29.76"/>
</g>
<!-- Node3 -->
<g id="node3" class="node">
<title>Node3</title>
<g id="a_node3"><a xlink:href="number__theory_8hpp.html#a0ff115471f41e78245b5dc48eaf8032f" target="_top" xlink:title=" ">
<polygon fill="white" stroke="black" points="400,-38.5 400,-57.5 510,-57.5 510,-38.5 400,-38.5"/>
<text text-anchor="middle" x="455" y="-45.5" font-family="Helvetica,sans-Serif" font-size="10.00">test_primitive_root</text>
</a>
</g>
</g>
<!-- Node2&#45;&gt;Node3 -->
<g id="edge2" class="edge">
<title>Node2&#45;&gt;Node3</title>
<path fill="none" stroke="midnightblue" d="M535.82,-48C527.43,-48 518.72,-48 510.28,-48"/>
<polygon fill="midnightblue" stroke="midnightblue" points="535.87,-51.5 545.87,-48 535.87,-44.5 535.87,-51.5"/>
</g>
<!-- Node4 -->
<g id="node4" class="node">
<title>Node4</title>
<g id="a_node4"><a xlink:href="number__theory_8hpp.html#aed36f6b8b9706133e9b5302b1618e9ef" target="_top" xlink:title=" ">
<polygon fill="white" stroke="black" points="249,-19.5 249,-38.5 364,-38.5 364,-19.5 249,-19.5"/>
<text text-anchor="middle" x="306.5" y="-26.5" font-family="Helvetica,sans-Serif" font-size="10.00">test_number_theory</text>
</a>
</g>
</g>
<!-- Node3&#45;&gt;Node4 -->
<g id="edge3" class="edge">
<title>Node3&#45;&gt;Node4</title>
<path fill="none" stroke="midnightblue" d="M389.69,-39.66C381.25,-38.57 372.66,-37.45 364.36,-36.37"/>
<polygon fill="midnightblue" stroke="midnightblue" points="389.5,-43.16 399.87,-40.98 390.4,-36.22 389.5,-43.16"/>
</g>
<!-- Node5 -->
<g id="node5" class="node">
<title>Node5</title>
<g id="a_node5"><a xlink:href="test_8cpp.html#aa1c715cac916839a95e25b65b4071c4a" target="_top" xlink:title=" ">
<polygon fill="white" stroke="black" points="160,-19.5 160,-38.5 213,-38.5 213,-19.5 160,-19.5"/>
<text text-anchor="middle" x="186.5" y="-26.5" font-family="Helvetica,sans-Serif" font-size="10.00">test_all</text>
</a>
</g>
</g>
<!-- Node4&#45;&gt;Node5 -->
<g id="edge4" class="edge">
<title>Node4&#45;&gt;Node5</title>
<path fill="none" stroke="midnightblue" d="M238.65,-29C229.6,-29 220.81,-29 213.13,-29"/>
<polygon fill="midnightblue" stroke="midnightblue" points="238.92,-32.5 248.92,-29 238.92,-25.5 238.92,-32.5"/>
</g>
<!-- Node6 -->
<g id="node6" class="node">
<title>Node6</title>
<g id="a_node6"><a xlink:href="test_8cpp.html#af095a232149097b5605064623a9345ac" target="_top" xlink:title=" ">
<polygon fill="white" stroke="black" points="77,-19.5 77,-38.5 124,-38.5 124,-19.5 77,-19.5"/>
<text text-anchor="middle" x="100.5" y="-26.5" font-family="Helvetica,sans-Serif" font-size="10.00">main2</text>
</a>
</g>
</g>
<!-- Node5&#45;&gt;Node6 -->
<g id="edge5" class="edge">
<title>Node5&#45;&gt;Node6</title>
<path fill="none" stroke="midnightblue" d="M149.59,-29C140.96,-29 131.99,-29 124.16,-29"/>
<polygon fill="midnightblue" stroke="midnightblue" points="149.84,-32.5 159.84,-29 149.84,-25.5 149.84,-32.5"/>
</g>
<!-- Node7 -->
<g id="node7" class="node">
<title>Node7</title>
<g id="a_node7"><a xlink:href="main_8hpp.html#a0ddf1224851353fc92bfbff6f499fa97" target="_top" xlink:title=" ">
<polygon fill="white" stroke="black" points="0,-19.5 0,-38.5 41,-38.5 41,-19.5 0,-19.5"/>
<text text-anchor="middle" x="20.5" y="-26.5" font-family="Helvetica,sans-Serif" font-size="10.00">main</text>
</a>
</g>
</g>
<!-- Node6&#45;&gt;Node7 -->
<g id="edge6" class="edge">
<title>Node6&#45;&gt;Node7</title>
<path fill="none" stroke="midnightblue" d="M66.66,-29C57.96,-29 48.84,-29 41.1,-29"/>
<polygon fill="midnightblue" stroke="midnightblue" points="66.94,-32.5 76.94,-29 66.94,-25.5 66.94,-32.5"/>
</g>
<!-- Node8&#45;&gt;Node4 -->
<g id="edge8" class="edge">
<title>Node8&#45;&gt;Node4</title>
<path fill="none" stroke="midnightblue" d="M407.88,-15.98C393.98,-17.78 378.58,-19.78 364.09,-21.66"/>
<polygon fill="midnightblue" stroke="midnightblue" points="408.7,-19.41 418.16,-14.65 407.79,-12.46 408.7,-19.41"/>
</g>
</g>
</svg>
