<?xml version="1.0" encoding="UTF-8" standalone="no"?>
<!DOCTYPE svg PUBLIC "-//W3C//DTD SVG 1.1//EN"
 "http://www.w3.org/Graphics/SVG/1.1/DTD/svg11.dtd">
<!-- Generated by graphviz version 2.43.0 (0)
 -->
<!-- Title: primitive_root Pages: 1 -->
<svg width="603pt" height="85pt"
 viewBox="0.00 0.00 603.00 85.00" xmlns="http://www.w3.org/2000/svg" xmlns:xlink="http://www.w3.org/1999/xlink">
<g id="graph0" class="graph" transform="scale(1 1) rotate(0) translate(4 81)">
<title>primitive_root</title>
<polygon fill="white" stroke="transparent" points="-4,4 -4,-81 599,-81 599,4 -4,4"/>
<!-- Node1 -->
<g id="node1" class="node">
<title>Node1</title>
<g id="a_node1"><a xlink:title=" ">
<polygon fill="#bfbfbf" stroke="black" points="0,-38.5 0,-57.5 86,-57.5 86,-38.5 0,-38.5"/>
<text text-anchor="middle" x="43" y="-45.5" font-family="Helvetica,sans-Serif" font-size="10.00">primitive_root</text>
</a>
</g>
</g>
<!-- Node2 -->
<g id="node2" class="node">
<title>Node2</title>
<g id="a_node2"><a xlink:href="number__theory_8hpp.html#a8119b9949ade11ba2f554e41cc0830df" target="_top" xlink:title=" ">
<polygon fill="white" stroke="black" points="246,-38.5 246,-57.5 278,-57.5 278,-38.5 246,-38.5"/>
<text text-anchor="middle" x="262" y="-45.5" font-family="Helvetica,sans-Serif" font-size="10.00">fac</text>
</a>
</g>
</g>
<!-- Node1&#45;&gt;Node2 -->
<g id="edge1" class="edge">
<title>Node1&#45;&gt;Node2</title>
<path fill="none" stroke="midnightblue" d="M86.1,-48C130.33,-48 198.48,-48 235.29,-48"/>
<polygon fill="midnightblue" stroke="midnightblue" points="235.65,-51.5 245.65,-48 235.65,-44.5 235.65,-51.5"/>
</g>
<!-- Node4 -->
<g id="node4" class="node">
<title>Node4</title>
<g id="a_node4"><a xlink:href="namespacemodulo.html#a78c1f4f324678db9d37a8dcb30e048f4" target="_top" xlink:title=" ">
<polygon fill="white" stroke="black" points="506,-57.5 506,-76.5 595,-76.5 595,-57.5 506,-57.5"/>
<text text-anchor="middle" x="550.5" y="-64.5" font-family="Helvetica,sans-Serif" font-size="10.00">modulo::power</text>
</a>
</g>
</g>
<!-- Node1&#45;&gt;Node4 -->
<g id="edge4" class="edge">
<title>Node1&#45;&gt;Node4</title>
<path fill="none" stroke="midnightblue" d="M86.37,-56.55C97.89,-58.61 110.39,-60.62 122,-62 255.5,-77.85 414.08,-73.78 495.43,-70.04"/>
<polygon fill="midnightblue" stroke="midnightblue" points="496.09,-73.51 505.91,-69.54 495.76,-66.52 496.09,-73.51"/>
</g>
<!-- Node5 -->
<g id="node5" class="node">
<title>Node5</title>
<g id="a_node5"><a xlink:href="number__theory_8hpp.html#af0753ff92c84e6924e1fd6461e77b16f" target="_top" xlink:title=" ">
<polygon fill="white" stroke="black" points="122,-0.5 122,-19.5 171,-19.5 171,-0.5 122,-0.5"/>
<text text-anchor="middle" x="146.5" y="-7.5" font-family="Helvetica,sans-Serif" font-size="10.00">totient</text>
</a>
</g>
</g>
<!-- Node1&#45;&gt;Node5 -->
<g id="edge5" class="edge">
<title>Node1&#45;&gt;Node5</title>
<path fill="none" stroke="midnightblue" d="M69.61,-38.41C82.56,-33.56 98.43,-27.62 112.3,-22.43"/>
<polygon fill="midnightblue" stroke="midnightblue" points="113.84,-25.59 121.98,-18.8 111.39,-19.03 113.84,-25.59"/>
</g>
<!-- Node3 -->
<g id="node3" class="node">
<title>Node3</title>
<g id="a_node3"><a xlink:href="number__theory_8hpp.html#a02e886c6eb18cd3b8894ea2ba9ca9784" target="_top" xlink:title=" ">
<polygon fill="white" stroke="black" points="389,-38.5 389,-57.5 434,-57.5 434,-38.5 389,-38.5"/>
<text text-anchor="middle" x="411.5" y="-45.5" font-family="Helvetica,sans-Serif" font-size="10.00">prime</text>
</a>
</g>
</g>
<!-- Node2&#45;&gt;Node3 -->
<g id="edge2" class="edge">
<title>Node2&#45;&gt;Node3</title>
<path fill="none" stroke="midnightblue" d="M278.23,-48C301.8,-48 347.63,-48 378.66,-48"/>
<polygon fill="midnightblue" stroke="midnightblue" points="378.95,-51.5 388.95,-48 378.95,-44.5 378.95,-51.5"/>
</g>
<!-- Node3&#45;&gt;Node4 -->
<g id="edge3" class="edge">
<title>Node3&#45;&gt;Node4</title>
<path fill="none" stroke="midnightblue" d="M434.21,-51.01C450.75,-53.31 474.27,-56.57 495.76,-59.55"/>
<polygon fill="midnightblue" stroke="midnightblue" points="495.39,-63.03 505.78,-60.94 496.35,-56.1 495.39,-63.03"/>
</g>
<!-- Node5&#45;&gt;Node2 -->
<g id="edge6" class="edge">
<title>Node5&#45;&gt;Node2</title>
<path fill="none" stroke="midnightblue" d="M171.02,-17.87C190.06,-24.25 216.81,-33.21 236.19,-39.69"/>
<polygon fill="midnightblue" stroke="midnightblue" points="235.25,-43.07 245.84,-42.93 237.47,-36.43 235.25,-43.07"/>
</g>
<!-- Node6 -->
<g id="node6" class="node">
<title>Node6</title>
<g id="a_node6"><a xlink:href="namespacecombinatorics.html#a683282a64d9be4f8df67be6138201570" target="_top" xlink:title=" ">
<polygon fill="white" stroke="black" points="207,-0.5 207,-19.5 317,-19.5 317,-0.5 207,-0.5"/>
<text text-anchor="middle" x="262" y="-7.5" font-family="Helvetica,sans-Serif" font-size="10.00">combinatorics::fact</text>
</a>
</g>
</g>
<!-- Node5&#45;&gt;Node6 -->
<g id="edge7" class="edge">
<title>Node5&#45;&gt;Node6</title>
<path fill="none" stroke="midnightblue" d="M171.02,-10C178.57,-10 187.32,-10 196.36,-10"/>
<polygon fill="midnightblue" stroke="midnightblue" points="196.62,-13.5 206.62,-10 196.62,-6.5 196.62,-13.5"/>
</g>
<!-- Node7 -->
<g id="node7" class="node">
<title>Node7</title>
<g id="a_node7"><a xlink:href="namespacecombinatorics.html#a162be12f51480d59189ec28dbcc2c5e2" target="_top" xlink:title=" ">
<polygon fill="white" stroke="black" points="353,-0.5 353,-19.5 470,-19.5 470,-0.5 353,-0.5"/>
<text text-anchor="middle" x="411.5" y="-7.5" font-family="Helvetica,sans-Serif" font-size="10.00">combinatorics::perm</text>
</a>
</g>
</g>
<!-- Node6&#45;&gt;Node7 -->
<g id="edge8" class="edge">
<title>Node6&#45;&gt;Node7</title>
<path fill="none" stroke="midnightblue" d="M317.09,-10C325.48,-10 334.24,-10 342.88,-10"/>
<polygon fill="midnightblue" stroke="midnightblue" points="342.95,-13.5 352.95,-10 342.95,-6.5 342.95,-13.5"/>
</g>
</g>
</svg>
