<?xml version="1.0" encoding="UTF-8" standalone="no"?>
<!DOCTYPE svg PUBLIC "-//W3C//DTD SVG 1.1//EN"
 "http://www.w3.org/Graphics/SVG/1.1/DTD/svg11.dtd">
<!-- Generated by graphviz version 2.43.0 (0)
 -->
<!-- Title: test_dlog Pages: 1 -->
<svg width="715pt" height="113pt"
 viewBox="0.00 0.00 715.00 113.44" xmlns="http://www.w3.org/2000/svg" xmlns:xlink="http://www.w3.org/1999/xlink">
<g id="graph0" class="graph" transform="scale(1 1) rotate(0) translate(4 109.44)">
<title>test_dlog</title>
<polygon fill="white" stroke="transparent" points="-4,4 -4,-109.44 711,-109.44 711,4 -4,4"/>
<!-- Node1 -->
<g id="node1" class="node">
<title>Node1</title>
<g id="a_node1"><a xlink:title=" ">
<polygon fill="#bfbfbf" stroke="black" points="0,-30.22 0,-49.22 62,-49.22 62,-30.22 0,-30.22"/>
<text text-anchor="middle" x="31" y="-37.22" font-family="Helvetica,sans-Serif" font-size="10.00">test_dlog</text>
</a>
</g>
</g>
<!-- Node2 -->
<g id="node2" class="node">
<title>Node2</title>
<g id="a_node2"><a xlink:href="number__theory_8hpp.html#a67527905c2b2c027c8b458902db2d05a" target="_top" xlink:title=" ">
<polygon fill="white" stroke="black" points="98,-49.22 98,-68.22 136,-68.22 136,-49.22 98,-49.22"/>
<text text-anchor="middle" x="117" y="-56.22" font-family="Helvetica,sans-Serif" font-size="10.00">dlog</text>
</a>
</g>
</g>
<!-- Node1&#45;&gt;Node2 -->
<g id="edge1" class="edge">
<title>Node1&#45;&gt;Node2</title>
<path fill="none" stroke="midnightblue" d="M62.33,-46.58C70.65,-48.46 79.64,-50.5 87.84,-52.35"/>
<polygon fill="midnightblue" stroke="midnightblue" points="87.17,-55.79 97.7,-54.58 88.71,-48.96 87.17,-55.79"/>
</g>
<!-- Node3 -->
<g id="node3" class="node">
<title>Node3</title>
<g id="a_node3"><a xlink:href="namespacemodulo__namespace.html#ae945155bea2750e68757ebc9c05ae356" target="_top" xlink:title=" ">
<polygon fill="white" stroke="black" points="556,-68.22 556,-87.22 707,-87.22 707,-68.22 556,-68.22"/>
<text text-anchor="middle" x="631.5" y="-75.22" font-family="Helvetica,sans-Serif" font-size="10.00">modulo_namespace::power</text>
</a>
</g>
</g>
<!-- Node1&#45;&gt;Node3 -->
<g id="edge9" class="edge">
<title>Node1&#45;&gt;Node3</title>
<path fill="none" stroke="midnightblue" d="M57.07,-30.13C88.8,-18.87 145.38,-1.72 195.5,-1.72 195.5,-1.72 195.5,-1.72 313,-1.72 405.39,-1.72 431.31,5.16 520,-20.72 552.27,-30.14 586.18,-49.19 607.78,-62.67"/>
<polygon fill="midnightblue" stroke="midnightblue" points="605.93,-65.65 616.25,-68.07 609.69,-59.74 605.93,-65.65"/>
</g>
<!-- Node2&#45;&gt;Node3 -->
<g id="edge2" class="edge">
<title>Node2&#45;&gt;Node3</title>
<path fill="none" stroke="midnightblue" d="M136.08,-65.63C162.27,-75.18 212.49,-91.8 257,-96.72 373.18,-109.55 403.53,-106.66 520,-96.72 538.16,-95.17 557.81,-92.21 575.44,-89.08"/>
<polygon fill="midnightblue" stroke="midnightblue" points="576.36,-92.47 585.56,-87.23 575.1,-85.59 576.36,-92.47"/>
</g>
<!-- Node4 -->
<g id="node4" class="node">
<title>Node4</title>
<g id="a_node4"><a xlink:href="number__theory_8hpp.html#af0753ff92c84e6924e1fd6461e77b16f" target="_top" xlink:title=" ">
<polygon fill="white" stroke="black" points="172,-49.22 172,-68.22 221,-68.22 221,-49.22 172,-49.22"/>
<text text-anchor="middle" x="196.5" y="-56.22" font-family="Helvetica,sans-Serif" font-size="10.00">totient</text>
</a>
</g>
</g>
<!-- Node2&#45;&gt;Node4 -->
<g id="edge3" class="edge">
<title>Node2&#45;&gt;Node4</title>
<path fill="none" stroke="midnightblue" d="M136.37,-58.72C144.02,-58.72 153.16,-58.72 161.94,-58.72"/>
<polygon fill="midnightblue" stroke="midnightblue" points="161.97,-62.22 171.97,-58.72 161.97,-55.22 161.97,-62.22"/>
</g>
<!-- Node5 -->
<g id="node5" class="node">
<title>Node5</title>
<g id="a_node5"><a xlink:href="number__theory_8hpp.html#a8119b9949ade11ba2f554e41cc0830df" target="_top" xlink:title=" ">
<polygon fill="white" stroke="black" points="296,-68.22 296,-87.22 328,-87.22 328,-68.22 296,-68.22"/>
<text text-anchor="middle" x="312" y="-75.22" font-family="Helvetica,sans-Serif" font-size="10.00">fac</text>
</a>
</g>
</g>
<!-- Node4&#45;&gt;Node5 -->
<g id="edge4" class="edge">
<title>Node4&#45;&gt;Node5</title>
<path fill="none" stroke="midnightblue" d="M221.02,-62.66C239.97,-65.83 266.57,-70.28 285.93,-73.52"/>
<polygon fill="midnightblue" stroke="midnightblue" points="285.4,-76.98 295.84,-75.18 286.56,-70.08 285.4,-76.98"/>
</g>
<!-- Node7 -->
<g id="node7" class="node">
<title>Node7</title>
<g id="a_node7"><a xlink:href="namespacecombinatorics.html#a20e5a1b40f76572aa1e18b228b6e4849" target="_top" xlink:title=" ">
<polygon fill="white" stroke="black" points="257,-30.22 257,-49.22 367,-49.22 367,-30.22 257,-30.22"/>
<text text-anchor="middle" x="312" y="-37.22" font-family="Helvetica,sans-Serif" font-size="10.00">combinatorics::fact</text>
</a>
</g>
</g>
<!-- Node4&#45;&gt;Node7 -->
<g id="edge7" class="edge">
<title>Node4&#45;&gt;Node7</title>
<path fill="none" stroke="midnightblue" d="M221.02,-54.78C228.65,-53.51 237.51,-52.02 246.65,-50.49"/>
<polygon fill="midnightblue" stroke="midnightblue" points="247.33,-53.93 256.62,-48.82 246.18,-47.02 247.33,-53.93"/>
</g>
<!-- Node6 -->
<g id="node6" class="node">
<title>Node6</title>
<g id="a_node6"><a xlink:href="number__theory_8hpp.html#a02e886c6eb18cd3b8894ea2ba9ca9784" target="_top" xlink:title=" ">
<polygon fill="white" stroke="black" points="439,-68.22 439,-87.22 484,-87.22 484,-68.22 439,-68.22"/>
<text text-anchor="middle" x="461.5" y="-75.22" font-family="Helvetica,sans-Serif" font-size="10.00">prime</text>
</a>
</g>
</g>
<!-- Node5&#45;&gt;Node6 -->
<g id="edge5" class="edge">
<title>Node5&#45;&gt;Node6</title>
<path fill="none" stroke="midnightblue" d="M328.23,-77.72C351.8,-77.72 397.63,-77.72 428.66,-77.72"/>
<polygon fill="midnightblue" stroke="midnightblue" points="428.95,-81.22 438.95,-77.72 428.95,-74.22 428.95,-81.22"/>
</g>
<!-- Node6&#45;&gt;Node3 -->
<g id="edge6" class="edge">
<title>Node6&#45;&gt;Node3</title>
<path fill="none" stroke="midnightblue" d="M484.12,-77.72C500.02,-77.72 522.76,-77.72 545.58,-77.72"/>
<polygon fill="midnightblue" stroke="midnightblue" points="545.7,-81.22 555.7,-77.72 545.7,-74.22 545.7,-81.22"/>
</g>
<!-- Node8 -->
<g id="node8" class="node">
<title>Node8</title>
<g id="a_node8"><a xlink:href="namespacecombinatorics.html#a7c355be8fa586494f280768dc777dede" target="_top" xlink:title=" ">
<polygon fill="white" stroke="black" points="403,-30.22 403,-49.22 520,-49.22 520,-30.22 403,-30.22"/>
<text text-anchor="middle" x="461.5" y="-37.22" font-family="Helvetica,sans-Serif" font-size="10.00">combinatorics::perm</text>
</a>
</g>
</g>
<!-- Node7&#45;&gt;Node8 -->
<g id="edge8" class="edge">
<title>Node7&#45;&gt;Node8</title>
<path fill="none" stroke="midnightblue" d="M367.09,-39.72C375.48,-39.72 384.24,-39.72 392.88,-39.72"/>
<polygon fill="midnightblue" stroke="midnightblue" points="392.95,-43.22 402.95,-39.72 392.95,-36.22 392.95,-43.22"/>
</g>
</g>
</svg>
