<?xml version="1.0" encoding="UTF-8" standalone="no"?>
<!DOCTYPE svg PUBLIC "-//W3C//DTD SVG 1.1//EN"
 "http://www.w3.org/Graphics/SVG/1.1/DTD/svg11.dtd">
<!-- Generated by graphviz version 2.43.0 (0)
 -->
<!-- Title: prime Pages: 1 -->
<svg width="918pt" height="161pt"
 viewBox="0.00 0.00 918.00 161.00" xmlns="http://www.w3.org/2000/svg" xmlns:xlink="http://www.w3.org/1999/xlink">
<g id="graph0" class="graph" transform="scale(1 1) rotate(0) translate(4 157)">
<title>prime</title>
<polygon fill="white" stroke="transparent" points="-4,4 -4,-157 914,-157 914,4 -4,4"/>
<!-- Node1 -->
<g id="node1" class="node">
<title>Node1</title>
<g id="a_node1"><a xlink:title="Return whether integer n &gt;= 2 is prime.">
<polygon fill="#bfbfbf" stroke="black" points="865,-19.5 865,-38.5 910,-38.5 910,-19.5 865,-19.5"/>
<text text-anchor="middle" x="887.5" y="-26.5" font-family="Helvetica,sans-Serif" font-size="10.00">prime</text>
</a>
</g>
</g>
<!-- Node2 -->
<g id="node2" class="node">
<title>Node2</title>
<g id="a_node2"><a xlink:href="number__theory_8hpp.html#a2be64a5779e00fe36e74d3496e92e64b" target="_top" xlink:title="Returns the factorization of n.">
<polygon fill="white" stroke="black" points="778.5,-47.5 778.5,-66.5 810.5,-66.5 810.5,-47.5 778.5,-47.5"/>
<text text-anchor="middle" x="794.5" y="-54.5" font-family="Helvetica,sans-Serif" font-size="10.00">fac</text>
</a>
</g>
</g>
<!-- Node1&#45;&gt;Node2 -->
<g id="edge1" class="edge">
<title>Node1&#45;&gt;Node2</title>
<path fill="none" stroke="midnightblue" d="M854.99,-38.7C839.97,-43.32 822.7,-48.63 810.65,-52.34"/>
<polygon fill="midnightblue" stroke="midnightblue" points="856.41,-41.92 864.93,-35.64 854.35,-35.23 856.41,-41.92"/>
</g>
<!-- Node14 -->
<g id="node14" class="node">
<title>Node14</title>
<g id="a_node14"><a xlink:href="test__number__theory_8hpp.html#a87d7c3ba2489977a16ec40544a918e00" target="_top" xlink:title=" ">
<polygon fill="white" stroke="black" points="760,-0.5 760,-19.5 829,-19.5 829,-0.5 760,-0.5"/>
<text text-anchor="middle" x="794.5" y="-7.5" font-family="Helvetica,sans-Serif" font-size="10.00">test_prime</text>
</a>
</g>
</g>
<!-- Node1&#45;&gt;Node14 -->
<g id="edge17" class="edge">
<title>Node1&#45;&gt;Node14</title>
<path fill="none" stroke="midnightblue" d="M855.1,-22.44C846.68,-20.69 837.54,-18.78 829.01,-17"/>
<polygon fill="midnightblue" stroke="midnightblue" points="854.43,-25.88 864.93,-24.5 855.86,-19.03 854.43,-25.88"/>
</g>
<!-- Node3 -->
<g id="node3" class="node">
<title>Node3</title>
<g id="a_node3"><a xlink:href="number__theory_8hpp.html#a6542b189f3759f43899a8b1978d58e2c" target="_top" xlink:title="Returns a primitive root modulo M.">
<polygon fill="white" stroke="black" points="546,-57.5 546,-76.5 632,-76.5 632,-57.5 546,-57.5"/>
<text text-anchor="middle" x="589" y="-64.5" font-family="Helvetica,sans-Serif" font-size="10.00">primitive_root</text>
</a>
</g>
</g>
<!-- Node2&#45;&gt;Node3 -->
<g id="edge2" class="edge">
<title>Node2&#45;&gt;Node3</title>
<path fill="none" stroke="midnightblue" d="M768.15,-58.25C734.07,-59.92 673.05,-62.92 632.05,-64.93"/>
<polygon fill="midnightblue" stroke="midnightblue" points="768.39,-61.74 778.2,-57.75 768.04,-54.75 768.39,-61.74"/>
</g>
<!-- Node9 -->
<g id="node9" class="node">
<title>Node9</title>
<g id="a_node9"><a xlink:href="test__number__theory_8hpp.html#afcfd3b1e3415393029bc6a496d825459" target="_top" xlink:title=" ">
<polygon fill="white" stroke="black" points="668,-19.5 668,-38.5 724,-38.5 724,-19.5 668,-19.5"/>
<text text-anchor="middle" x="696" y="-26.5" font-family="Helvetica,sans-Serif" font-size="10.00">test_fac</text>
</a>
</g>
</g>
<!-- Node2&#45;&gt;Node9 -->
<g id="edge8" class="edge">
<title>Node2&#45;&gt;Node9</title>
<path fill="none" stroke="midnightblue" d="M768.71,-49.81C755.03,-45.84 738.03,-40.9 724.01,-36.84"/>
<polygon fill="midnightblue" stroke="midnightblue" points="767.84,-53.2 778.42,-52.62 769.79,-46.48 767.84,-53.2"/>
</g>
<!-- Node10 -->
<g id="node10" class="node">
<title>Node10</title>
<g id="a_node10"><a xlink:href="number__theory_8hpp.html#af0753ff92c84e6924e1fd6461e77b16f" target="_top" xlink:title="Returns the totient of the integer n.">
<polygon fill="white" stroke="black" points="671.5,-95.5 671.5,-114.5 720.5,-114.5 720.5,-95.5 671.5,-95.5"/>
<text text-anchor="middle" x="696" y="-102.5" font-family="Helvetica,sans-Serif" font-size="10.00">totient</text>
</a>
</g>
</g>
<!-- Node2&#45;&gt;Node10 -->
<g id="edge10" class="edge">
<title>Node2&#45;&gt;Node10</title>
<path fill="none" stroke="midnightblue" d="M769.43,-68.97C753.02,-77.14 731.58,-87.8 716.3,-95.4"/>
<polygon fill="midnightblue" stroke="midnightblue" points="771.03,-72.09 778.42,-64.5 767.91,-65.82 771.03,-72.09"/>
</g>
<!-- Node4 -->
<g id="node4" class="node">
<title>Node4</title>
<g id="a_node4"><a xlink:href="test__number__theory_8hpp.html#a0ff115471f41e78245b5dc48eaf8032f" target="_top" xlink:title=" ">
<polygon fill="white" stroke="black" points="400,-57.5 400,-76.5 510,-76.5 510,-57.5 400,-57.5"/>
<text text-anchor="middle" x="455" y="-64.5" font-family="Helvetica,sans-Serif" font-size="10.00">test_primitive_root</text>
</a>
</g>
</g>
<!-- Node3&#45;&gt;Node4 -->
<g id="edge3" class="edge">
<title>Node3&#45;&gt;Node4</title>
<path fill="none" stroke="midnightblue" d="M535.82,-67C527.43,-67 518.72,-67 510.28,-67"/>
<polygon fill="midnightblue" stroke="midnightblue" points="535.87,-70.5 545.87,-67 535.87,-63.5 535.87,-70.5"/>
</g>
<!-- Node5 -->
<g id="node5" class="node">
<title>Node5</title>
<g id="a_node5"><a xlink:href="test__number__theory_8hpp.html#aed36f6b8b9706133e9b5302b1618e9ef" target="_top" xlink:title=" ">
<polygon fill="white" stroke="black" points="249,-57.5 249,-76.5 364,-76.5 364,-57.5 249,-57.5"/>
<text text-anchor="middle" x="306.5" y="-64.5" font-family="Helvetica,sans-Serif" font-size="10.00">test_number_theory</text>
</a>
</g>
</g>
<!-- Node4&#45;&gt;Node5 -->
<g id="edge4" class="edge">
<title>Node4&#45;&gt;Node5</title>
<path fill="none" stroke="midnightblue" d="M389.69,-67C381.25,-67 372.66,-67 364.36,-67"/>
<polygon fill="midnightblue" stroke="midnightblue" points="389.87,-70.5 399.87,-67 389.87,-63.5 389.87,-70.5"/>
</g>
<!-- Node6 -->
<g id="node6" class="node">
<title>Node6</title>
<g id="a_node6"><a xlink:href="test_8cpp.html#aa1c715cac916839a95e25b65b4071c4a" target="_top" xlink:title=" ">
<polygon fill="white" stroke="black" points="160,-57.5 160,-76.5 213,-76.5 213,-57.5 160,-57.5"/>
<text text-anchor="middle" x="186.5" y="-64.5" font-family="Helvetica,sans-Serif" font-size="10.00">test_all</text>
</a>
</g>
</g>
<!-- Node5&#45;&gt;Node6 -->
<g id="edge5" class="edge">
<title>Node5&#45;&gt;Node6</title>
<path fill="none" stroke="midnightblue" d="M238.65,-67C229.6,-67 220.81,-67 213.13,-67"/>
<polygon fill="midnightblue" stroke="midnightblue" points="238.92,-70.5 248.92,-67 238.92,-63.5 238.92,-70.5"/>
</g>
<!-- Node7 -->
<g id="node7" class="node">
<title>Node7</title>
<g id="a_node7"><a xlink:href="test_8cpp.html#af095a232149097b5605064623a9345ac" target="_top" xlink:title=" ">
<polygon fill="white" stroke="black" points="77,-57.5 77,-76.5 124,-76.5 124,-57.5 77,-57.5"/>
<text text-anchor="middle" x="100.5" y="-64.5" font-family="Helvetica,sans-Serif" font-size="10.00">main2</text>
</a>
</g>
</g>
<!-- Node6&#45;&gt;Node7 -->
<g id="edge6" class="edge">
<title>Node6&#45;&gt;Node7</title>
<path fill="none" stroke="midnightblue" d="M149.59,-67C140.96,-67 131.99,-67 124.16,-67"/>
<polygon fill="midnightblue" stroke="midnightblue" points="149.84,-70.5 159.84,-67 149.84,-63.5 149.84,-70.5"/>
</g>
<!-- Node8 -->
<g id="node8" class="node">
<title>Node8</title>
<g id="a_node8"><a xlink:href="main_8hpp.html#a0ddf1224851353fc92bfbff6f499fa97" target="_top" xlink:title=" ">
<polygon fill="white" stroke="black" points="0,-57.5 0,-76.5 41,-76.5 41,-57.5 0,-57.5"/>
<text text-anchor="middle" x="20.5" y="-64.5" font-family="Helvetica,sans-Serif" font-size="10.00">main</text>
</a>
</g>
</g>
<!-- Node7&#45;&gt;Node8 -->
<g id="edge7" class="edge">
<title>Node7&#45;&gt;Node8</title>
<path fill="none" stroke="midnightblue" d="M66.66,-67C57.96,-67 48.84,-67 41.1,-67"/>
<polygon fill="midnightblue" stroke="midnightblue" points="66.94,-70.5 76.94,-67 66.94,-63.5 66.94,-70.5"/>
</g>
<!-- Node9&#45;&gt;Node5 -->
<g id="edge9" class="edge">
<title>Node9&#45;&gt;Node5</title>
<path fill="none" stroke="midnightblue" d="M657.44,-29.76C601.23,-31.27 491.99,-35.65 400,-48 382.78,-50.31 363.96,-53.97 347.82,-57.46"/>
<polygon fill="midnightblue" stroke="midnightblue" points="657.72,-33.25 667.63,-29.5 657.54,-26.25 657.72,-33.25"/>
</g>
<!-- Node10&#45;&gt;Node3 -->
<g id="edge14" class="edge">
<title>Node10&#45;&gt;Node3</title>
<path fill="none" stroke="midnightblue" d="M661.75,-92.97C647.12,-87.67 630.18,-81.54 616.44,-76.57"/>
<polygon fill="midnightblue" stroke="midnightblue" points="660.84,-96.36 671.44,-96.47 663.22,-89.78 660.84,-96.36"/>
</g>
<!-- Node11 -->
<g id="node11" class="node">
<title>Node11</title>
<g id="a_node11"><a xlink:href="number__theory_8hpp.html#a67527905c2b2c027c8b458902db2d05a" target="_top" xlink:title="Finds x such that a^x = b (mod M) using baby&#45;step giant&#45;step algorithm.">
<polygon fill="white" stroke="black" points="570,-95.5 570,-114.5 608,-114.5 608,-95.5 570,-95.5"/>
<text text-anchor="middle" x="589" y="-102.5" font-family="Helvetica,sans-Serif" font-size="10.00">dlog</text>
</a>
</g>
</g>
<!-- Node10&#45;&gt;Node11 -->
<g id="edge11" class="edge">
<title>Node10&#45;&gt;Node11</title>
<path fill="none" stroke="midnightblue" d="M661.01,-105C643.47,-105 622.78,-105 608.27,-105"/>
<polygon fill="midnightblue" stroke="midnightblue" points="661.44,-108.5 671.44,-105 661.44,-101.5 661.44,-108.5"/>
</g>
<!-- Node13 -->
<g id="node13" class="node">
<title>Node13</title>
<g id="a_node13"><a xlink:href="test__number__theory_8hpp.html#a8ae320acad5e35d58ca5ad7adc6ddd78" target="_top" xlink:title=" ">
<polygon fill="white" stroke="black" points="418.5,-133.5 418.5,-152.5 491.5,-152.5 491.5,-133.5 418.5,-133.5"/>
<text text-anchor="middle" x="455" y="-140.5" font-family="Helvetica,sans-Serif" font-size="10.00">test_totient</text>
</a>
</g>
</g>
<!-- Node10&#45;&gt;Node13 -->
<g id="edge15" class="edge">
<title>Node10&#45;&gt;Node13</title>
<path fill="none" stroke="midnightblue" d="M661.51,-116.36C652.05,-119.22 641.7,-122.03 632,-124 583.96,-133.75 527.46,-138.73 491.69,-141.09"/>
<polygon fill="midnightblue" stroke="midnightblue" points="662.84,-119.61 671.33,-113.27 660.74,-112.93 662.84,-119.61"/>
</g>
<!-- Node12 -->
<g id="node12" class="node">
<title>Node12</title>
<g id="a_node12"><a xlink:href="test__number__theory_8hpp.html#a7aac53ce82614d79c7098a1de32ed1e7" target="_top" xlink:title=" ">
<polygon fill="white" stroke="black" points="424,-95.5 424,-114.5 486,-114.5 486,-95.5 424,-95.5"/>
<text text-anchor="middle" x="455" y="-102.5" font-family="Helvetica,sans-Serif" font-size="10.00">test_dlog</text>
</a>
</g>
</g>
<!-- Node11&#45;&gt;Node12 -->
<g id="edge12" class="edge">
<title>Node11&#45;&gt;Node12</title>
<path fill="none" stroke="midnightblue" d="M559.74,-105C538.11,-105 508.35,-105 486.25,-105"/>
<polygon fill="midnightblue" stroke="midnightblue" points="559.92,-108.5 569.92,-105 559.92,-101.5 559.92,-108.5"/>
</g>
<!-- Node12&#45;&gt;Node5 -->
<g id="edge13" class="edge">
<title>Node12&#45;&gt;Node5</title>
<path fill="none" stroke="midnightblue" d="M413.74,-94.56C392.04,-88.93 365.45,-82.03 344.3,-76.55"/>
<polygon fill="midnightblue" stroke="midnightblue" points="413.09,-98 423.65,-97.13 414.84,-91.23 413.09,-98"/>
</g>
<!-- Node13&#45;&gt;Node5 -->
<g id="edge16" class="edge">
<title>Node13&#45;&gt;Node5</title>
<path fill="none" stroke="midnightblue" d="M413.71,-129.9C409.03,-128.06 404.37,-126.08 400,-124 370.55,-109.94 338.66,-88.85 321.08,-76.66"/>
<polygon fill="midnightblue" stroke="midnightblue" points="412.67,-133.25 423.27,-133.46 415.12,-126.69 412.67,-133.25"/>
</g>
<!-- Node14&#45;&gt;Node5 -->
<g id="edge18" class="edge">
<title>Node14&#45;&gt;Node5</title>
<path fill="none" stroke="midnightblue" d="M749.59,-8.03C676.22,-5.74 524.47,-5.31 400,-33 374.78,-38.61 347.13,-49.43 328.69,-57.36"/>
<polygon fill="midnightblue" stroke="midnightblue" points="749.72,-11.54 759.84,-8.38 749.96,-4.54 749.72,-11.54"/>
</g>
</g>
</svg>
