<?xml version="1.0" encoding="UTF-8" standalone="no"?>
<!DOCTYPE svg PUBLIC "-//W3C//DTD SVG 1.1//EN"
 "http://www.w3.org/Graphics/SVG/1.1/DTD/svg11.dtd">
<!-- Generated by graphviz version 2.43.0 (0)
 -->
<!-- Title: /home/ram/OmniTemplate/operations.hpp Pages: 1 -->
<!--zoomable 218 -->
<svg id="main" version="1.1" xmlns="http://www.w3.org/2000/svg" xmlns:xlink="http://www.w3.org/1999/xlink" xml:space="preserve" onload="init(evt)">
<style type="text/css"><![CDATA[
.edge:hover path { stroke: red; }
.edge:hover polygon { stroke: red; fill: red; }
]]></style>
<script type="text/javascript"><![CDATA[
var edges = document.getElementsByTagName('g');
if (edges && edges.length) {
  for (var i=0;i<edges.length;i++) {
    if (edges[i].id.substr(0,4)=='edge') {
      edges[i].setAttribute('class','edge');
    }
  }
}
]]></script>
        <defs>
                <circle id="rim" cx="0" cy="0" r="7"/>
                <circle id="rim2" cx="0" cy="0" r="3.5"/>
                <g id="zoomPlus">
                        <use xlink:href="#rim" fill="#404040">
                                <set attributeName="fill" to="#808080" begin="zoomplus.mouseover" end="zoomplus.mouseout"/>
                        </use>
                        <path d="M-4,0h8M0,-4v8" fill="none" stroke="white" stroke-width="1.5" pointer-events="none"/>
                </g>
                <g id="zoomMin">
                        <use xlink:href="#rim" fill="#404040">
                                <set attributeName="fill" to="#808080" begin="zoomminus.mouseover" end="zoomminus.mouseout"/>
                        </use>
                        <path d="M-4,0h8" fill="none" stroke="white" stroke-width="1.5" pointer-events="none"/>
                </g>
                <g id="dirArrow">
                        <path fill="none" stroke="white" stroke-width="1.5" d="M0,-3.0v7 M-2.5,-0.5L0,-3.0L2.5,-0.5"/>
                </g>
               <g id="resetDef">
                       <use xlink:href="#rim2" fill="#404040">
                               <set attributeName="fill" to="#808080" begin="reset.mouseover" end="reset.mouseout"/>
                       </use>
               </g>
        </defs>

<script type="text/javascript">
var viewWidth = 689;
var viewHeight = 218;
var sectionId = 'dynsection-0';
</script>
<script xlink:href="svgpan.js"/>
<svg id="graph" class="graph">
<g id="viewport">
<title>/home/ram/OmniTemplate/operations.hpp</title>
<polygon fill="white" stroke="transparent" points="-4,4 -4,-214 684.5,-214 684.5,4 -4,4"/>
<!-- Node1 -->
<g id="node1" class="node">
<title>Node1</title>
<g id="a_node1"><a xlink:title=" ">
<polygon fill="#bfbfbf" stroke="black" points="481.5,-179.5 481.5,-209.5 625.5,-209.5 625.5,-179.5 481.5,-179.5"/>
<text text-anchor="start" x="489.5" y="-197.5" font-family="Helvetica,sans-Serif" font-size="10.00">/home/ram/OmniTemplate</text>
<text text-anchor="middle" x="553.5" y="-186.5" font-family="Helvetica,sans-Serif" font-size="10.00">/operations.hpp</text>
</a>
</g>
</g>
<!-- Node2 -->
<g id="node2" class="node">
<title>Node2</title>
<g id="a_node2"><a xlink:href="range_8hpp.html" target="_top" xlink:title=" ">
<polygon fill="white" stroke="black" points="521,-123.5 521,-142.5 586,-142.5 586,-123.5 521,-123.5"/>
<text text-anchor="middle" x="553.5" y="-130.5" font-family="Helvetica,sans-Serif" font-size="10.00">range.hpp</text>
</a>
</g>
</g>
<!-- Node1&#45;&gt;Node2 -->
<g id="edge1" class="edge">
<title>Node1&#45;&gt;Node2</title>
<path fill="none" stroke="midnightblue" d="M553.5,-179.4C553.5,-171.47 553.5,-161.46 553.5,-152.86"/>
<polygon fill="midnightblue" stroke="midnightblue" points="557,-152.66 553.5,-142.66 550,-152.66 557,-152.66"/>
</g>
<!-- Node3 -->
<g id="node3" class="node">
<title>Node3</title>
<g id="a_node3"><a xlink:href="core_8hpp.html" target="_top" xlink:title=" ">
<polygon fill="white" stroke="black" points="440,-67.5 440,-86.5 499,-86.5 499,-67.5 440,-67.5"/>
<text text-anchor="middle" x="469.5" y="-74.5" font-family="Helvetica,sans-Serif" font-size="10.00">core.hpp</text>
</a>
</g>
</g>
<!-- Node2&#45;&gt;Node3 -->
<g id="edge2" class="edge">
<title>Node2&#45;&gt;Node3</title>
<path fill="none" stroke="midnightblue" d="M534.89,-123.32C520.33,-115.11 500.55,-102.6 486.44,-92.81"/>
<polygon fill="midnightblue" stroke="midnightblue" points="488.26,-89.81 478.09,-86.83 484.19,-95.5 488.26,-89.81"/>
</g>
<!-- Node3&#45;&gt;Node1 -->
<g id="edge12" class="edge">
<title>Node3&#45;&gt;Node1</title>
<path fill="none" stroke="midnightblue" d="M474.62,-86.63C482.23,-99.29 497.18,-123.51 511.5,-143 518.56,-152.61 526.86,-162.8 534.21,-171.48"/>
<polygon fill="midnightblue" stroke="midnightblue" points="531.73,-173.97 540.9,-179.29 537.05,-169.41 531.73,-173.97"/>
</g>
<!-- Node3&#45;&gt;Node2 -->
<g id="edge13" class="edge">
<title>Node3&#45;&gt;Node2</title>
<path fill="none" stroke="midnightblue" d="M488.07,-86.65C502.71,-94.91 522.64,-107.52 536.78,-117.34"/>
<polygon fill="midnightblue" stroke="midnightblue" points="534.95,-120.34 545.12,-123.32 539.03,-114.65 534.95,-120.34"/>
</g>
<!-- Node4 -->
<g id="node4" class="node">
<title>Node4</title>
<g id="a_node4"><a xlink:title=" ">
<polygon fill="white" stroke="#bfbfbf" points="428,-6 428,-25 511,-25 511,-6 428,-6"/>
<text text-anchor="middle" x="469.5" y="-13" font-family="Helvetica,sans-Serif" font-size="10.00">bits/stdc++.h</text>
</a>
</g>
</g>
<!-- Node3&#45;&gt;Node4 -->
<g id="edge3" class="edge">
<title>Node3&#45;&gt;Node4</title>
<path fill="none" stroke="midnightblue" d="M469.5,-67.48C469.5,-59.08 469.5,-45.98 469.5,-35.16"/>
<polygon fill="midnightblue" stroke="midnightblue" points="473,-35.01 469.5,-25.01 466,-35.01 473,-35.01"/>
</g>
<!-- Node5 -->
<g id="node5" class="node">
<title>Node5</title>
<g id="a_node5"><a xlink:title=" ">
<polygon fill="white" stroke="#bfbfbf" points="0,-6 0,-25 121,-25 121,-6 0,-6"/>
<text text-anchor="middle" x="60.5" y="-13" font-family="Helvetica,sans-Serif" font-size="10.00">experimental/iterator</text>
</a>
</g>
</g>
<!-- Node3&#45;&gt;Node5 -->
<g id="edge4" class="edge">
<title>Node3&#45;&gt;Node5</title>
<path fill="none" stroke="midnightblue" d="M439.83,-72.84C380.61,-66.35 243.65,-50.52 129.5,-31 122.77,-29.85 115.7,-28.51 108.75,-27.12"/>
<polygon fill="midnightblue" stroke="midnightblue" points="109.22,-23.65 98.72,-25.07 107.82,-30.5 109.22,-23.65"/>
</g>
<!-- Node6 -->
<g id="node6" class="node">
<title>Node6</title>
<g id="a_node6"><a xlink:title=" ">
<polygon fill="white" stroke="#bfbfbf" points="139,-0.5 139,-30.5 256,-30.5 256,-0.5 139,-0.5"/>
<text text-anchor="start" x="147" y="-18.5" font-family="Helvetica,sans-Serif" font-size="10.00">experimental/source</text>
<text text-anchor="middle" x="197.5" y="-7.5" font-family="Helvetica,sans-Serif" font-size="10.00">_location</text>
</a>
</g>
</g>
<!-- Node3&#45;&gt;Node6 -->
<g id="edge5" class="edge">
<title>Node3&#45;&gt;Node6</title>
<path fill="none" stroke="midnightblue" d="M439.87,-69.52C398.44,-60.46 321.98,-43.73 265.98,-31.48"/>
<polygon fill="midnightblue" stroke="midnightblue" points="266.65,-28.04 256.13,-29.33 265.15,-34.88 266.65,-28.04"/>
</g>
<!-- Node7 -->
<g id="node7" class="node">
<title>Node7</title>
<g id="a_node7"><a xlink:href="my__int_8hpp.html" target="_top" xlink:title=" ">
<polygon fill="white" stroke="black" points="274,-6 274,-25 345,-25 345,-6 274,-6"/>
<text text-anchor="middle" x="309.5" y="-13" font-family="Helvetica,sans-Serif" font-size="10.00">my_int.hpp</text>
</a>
</g>
</g>
<!-- Node3&#45;&gt;Node7 -->
<g id="edge6" class="edge">
<title>Node3&#45;&gt;Node7</title>
<path fill="none" stroke="midnightblue" d="M441.68,-67.48C412.26,-57.36 366.44,-40.4 337.12,-28.85"/>
<polygon fill="midnightblue" stroke="midnightblue" points="338.07,-25.46 327.48,-25.01 335.48,-31.96 338.07,-25.46"/>
</g>
<!-- Node8 -->
<g id="node8" class="node">
<title>Node8</title>
<g id="a_node8"><a xlink:href="io_8hpp.html" target="_top" xlink:title=" ">
<polygon fill="white" stroke="black" points="363,-6 363,-25 410,-25 410,-6 363,-6"/>
<text text-anchor="middle" x="386.5" y="-13" font-family="Helvetica,sans-Serif" font-size="10.00">io.hpp</text>
</a>
</g>
</g>
<!-- Node3&#45;&gt;Node8 -->
<g id="edge8" class="edge">
<title>Node3&#45;&gt;Node8</title>
<path fill="none" stroke="midnightblue" d="M457.61,-67.48C444.3,-57.93 422.5,-42.31 406.54,-30.87"/>
<polygon fill="midnightblue" stroke="midnightblue" points="408.54,-27.99 398.37,-25.01 404.46,-33.68 408.54,-27.99"/>
</g>
<!-- Node9 -->
<g id="node9" class="node">
<title>Node9</title>
<g id="a_node9"><a xlink:href="debug_8hpp.html" target="_top" xlink:title=" ">
<polygon fill="white" stroke="black" points="612.5,-6 612.5,-25 680.5,-25 680.5,-6 612.5,-6"/>
<text text-anchor="middle" x="646.5" y="-13" font-family="Helvetica,sans-Serif" font-size="10.00">debug.hpp</text>
</a>
</g>
</g>
<!-- Node3&#45;&gt;Node9 -->
<g id="edge9" class="edge">
<title>Node3&#45;&gt;Node9</title>
<path fill="none" stroke="midnightblue" d="M495.19,-67.38C522.17,-58.33 565.82,-43.68 603.5,-31 606.07,-30.13 608.73,-29.24 611.4,-28.34"/>
<polygon fill="midnightblue" stroke="midnightblue" points="612.68,-31.6 621.04,-25.09 610.44,-24.97 612.68,-31.6"/>
</g>
<!-- Node10 -->
<g id="node10" class="node">
<title>Node10</title>
<g id="a_node10"><a xlink:href="utility_8hpp.html" target="_top" xlink:title=" ">
<polygon fill="white" stroke="black" points="529,-6 529,-25 594,-25 594,-6 529,-6"/>
<text text-anchor="middle" x="561.5" y="-13" font-family="Helvetica,sans-Serif" font-size="10.00">utility.hpp</text>
</a>
</g>
</g>
<!-- Node3&#45;&gt;Node10 -->
<g id="edge14" class="edge">
<title>Node3&#45;&gt;Node10</title>
<path fill="none" stroke="midnightblue" d="M482.68,-67.48C497.57,-57.84 522.04,-42.02 539.77,-30.55"/>
<polygon fill="midnightblue" stroke="midnightblue" points="541.85,-33.38 548.34,-25.01 538.05,-27.5 541.85,-33.38"/>
</g>
<!-- Node7&#45;&gt;Node3 -->
<g id="edge7" class="edge">
<title>Node7&#45;&gt;Node3</title>
<path fill="none" stroke="midnightblue" d="M337.28,-25.01C366.68,-35.12 412.49,-52.07 441.84,-63.63"/>
<polygon fill="midnightblue" stroke="midnightblue" points="440.89,-67.02 451.48,-67.48 443.48,-60.52 440.89,-67.02"/>
</g>
<!-- Node9&#45;&gt;Node1 -->
<g id="edge10" class="edge">
<title>Node9&#45;&gt;Node1</title>
<path fill="none" stroke="midnightblue" d="M644.02,-25.21C637.78,-46.37 620.15,-101.73 595.5,-143 589.47,-153.09 581.49,-163.24 574.11,-171.77"/>
<polygon fill="midnightblue" stroke="midnightblue" points="571.35,-169.6 567.29,-179.39 576.57,-174.27 571.35,-169.6"/>
</g>
<!-- Node9&#45;&gt;Node2 -->
<g id="edge11" class="edge">
<title>Node9&#45;&gt;Node2</title>
<path fill="none" stroke="midnightblue" d="M639.43,-25.28C623.94,-44.52 586.79,-90.66 566.79,-115.5"/>
<polygon fill="midnightblue" stroke="midnightblue" points="564.04,-113.33 560.49,-123.32 569.49,-117.72 564.04,-113.33"/>
</g>
<!-- Node10&#45;&gt;Node2 -->
<g id="edge15" class="edge">
<title>Node10&#45;&gt;Node2</title>
<path fill="none" stroke="midnightblue" d="M560.89,-25.28C559.6,-43.94 556.56,-87.87 554.8,-113.16"/>
<polygon fill="midnightblue" stroke="midnightblue" points="551.3,-113.1 554.1,-123.32 558.28,-113.58 551.3,-113.1"/>
</g>
</g>
</svg>
        <g id="navigator" transform="translate(0 0)" fill="#404254">
                <rect fill="#f2f5e9" fill-opacity="0.5" stroke="#606060" stroke-width=".5" x="0" y="0" width="60" height="60"/>
                <use id="zoomplus" xlink:href="#zoomPlus" x="17" y="9" onmousedown="handleZoom(evt,'in')"/>
                <use id="zoomminus" xlink:href="#zoomMin" x="42" y="9" onmousedown="handleZoom(evt,'out')"/>
                <use id="reset" xlink:href="#resetDef" x="30" y="36" onmousedown="handleReset()"/>
                <g id="arrowUp" xlink:href="#dirArrow" transform="translate(30 24)" onmousedown="handlePan(0,-1)">
                  <use xlink:href="#rim" fill="#404040">
                        <set attributeName="fill" to="#808080" begin="arrowUp.mouseover" end="arrowUp.mouseout"/>
                  </use>
                  <path fill="none" stroke="white" stroke-width="1.5" d="M0,-3.0v7 M-2.5,-0.5L0,-3.0L2.5,-0.5"/>
                </g>
                <g id="arrowRight" xlink:href="#dirArrow" transform="rotate(90) translate(36 -43)" onmousedown="handlePan(1,0)">
                  <use xlink:href="#rim" fill="#404040">
                        <set attributeName="fill" to="#808080" begin="arrowRight.mouseover" end="arrowRight.mouseout"/>
                  </use>
                  <path fill="none" stroke="white" stroke-width="1.5" d="M0,-3.0v7 M-2.5,-0.5L0,-3.0L2.5,-0.5"/>
                </g>
                <g id="arrowDown" xlink:href="#dirArrow" transform="rotate(180) translate(-30 -48)" onmousedown="handlePan(0,1)">
                  <use xlink:href="#rim" fill="#404040">
                        <set attributeName="fill" to="#808080" begin="arrowDown.mouseover" end="arrowDown.mouseout"/>
                  </use>
                  <path fill="none" stroke="white" stroke-width="1.5" d="M0,-3.0v7 M-2.5,-0.5L0,-3.0L2.5,-0.5"/>
                </g>
                <g id="arrowLeft" xlink:href="#dirArrow" transform="rotate(270) translate(-36 17)" onmousedown="handlePan(-1,0)">
                  <use xlink:href="#rim" fill="#404040">
                        <set attributeName="fill" to="#808080" begin="arrowLeft.mouseover" end="arrowLeft.mouseout"/>
                  </use>
                  <path fill="none" stroke="white" stroke-width="1.5" d="M0,-3.0v7 M-2.5,-0.5L0,-3.0L2.5,-0.5"/>
                </g>
        </g>
        <svg viewBox="0 0 15 15" width="100%" height="30px" preserveAspectRatio="xMaxYMin meet">
         <g id="arrow_out" transform="scale(0.3 0.3)">
          <a xlink:href="operations_8hpp__incl_org.svg" target="_base">
           <rect id="button" ry="5" rx="5" y="6" x="6" height="38" width="38"
                fill="#f2f5e9" fill-opacity="0.5" stroke="#606060" stroke-width="1.0"/>
           <path id="arrow"
             d="M 11.500037,31.436501 C 11.940474,20.09759 22.043105,11.32322 32.158766,21.979434 L 37.068811,17.246167 C 37.068811,17.246167 37.088388,32 37.088388,32 L 22.160133,31.978069 C 22.160133,31.978069 26.997745,27.140456 26.997745,27.140456 C 18.528582,18.264221 13.291696,25.230495 11.500037,31.436501 z"
             style="fill:#404040;"/>
          </a>
         </g>
        </svg>
</svg>
