<?xml version="1.0" encoding="UTF-8" standalone="no"?>
<!DOCTYPE svg PUBLIC "-//W3C//DTD SVG 1.1//EN"
 "http://www.w3.org/Graphics/SVG/1.1/DTD/svg11.dtd">
<!-- Generated by graphviz version 2.43.0 (0)
 -->
<!-- Title: /home/ram/OmniTemplate/operations.hpp Pages: 1 -->
<!--zoomable 441 -->
<svg id="main" version="1.1" xmlns="http://www.w3.org/2000/svg" xmlns:xlink="http://www.w3.org/1999/xlink" xml:space="preserve" onload="init(evt)">
<style type="text/css"><![CDATA[
.edge:hover path { stroke: red; }
.edge:hover polygon { stroke: red; fill: red; }
]]></style>
<script type="text/javascript"><![CDATA[
var edges = document.getElementsByTagName('g');
if (edges && edges.length) {
  for (var i=0;i<edges.length;i++) {
    if (edges[i].id.substr(0,4)=='edge') {
      edges[i].setAttribute('class','edge');
    }
  }
}
]]></script>
        <defs>
                <circle id="rim" cx="0" cy="0" r="7"/>
                <circle id="rim2" cx="0" cy="0" r="3.5"/>
                <g id="zoomPlus">
                        <use xlink:href="#rim" fill="#404040">
                                <set attributeName="fill" to="#808080" begin="zoomplus.mouseover" end="zoomplus.mouseout"/>
                        </use>
                        <path d="M-4,0h8M0,-4v8" fill="none" stroke="white" stroke-width="1.5" pointer-events="none"/>
                </g>
                <g id="zoomMin">
                        <use xlink:href="#rim" fill="#404040">
                                <set attributeName="fill" to="#808080" begin="zoomminus.mouseover" end="zoomminus.mouseout"/>
                        </use>
                        <path d="M-4,0h8" fill="none" stroke="white" stroke-width="1.5" pointer-events="none"/>
                </g>
                <g id="dirArrow">
                        <path fill="none" stroke="white" stroke-width="1.5" d="M0,-3.0v7 M-2.5,-0.5L0,-3.0L2.5,-0.5"/>
                </g>
               <g id="resetDef">
                       <use xlink:href="#rim2" fill="#404040">
                               <set attributeName="fill" to="#808080" begin="reset.mouseover" end="reset.mouseout"/>
                       </use>
               </g>
        </defs>

<script type="text/javascript">
var viewWidth = 2410;
var viewHeight = 441;
var sectionId = 'dynsection-1';
</script>
<script xlink:href="svgpan.js"/>
<svg id="graph" class="graph">
<g id="viewport">
<title>/home/ram/OmniTemplate/operations.hpp</title>
<polygon fill="white" stroke="transparent" points="-4,4 -4,-437 2405.62,-437 2405.62,4 -4,4"/>
<!-- Node1 -->
<g id="node1" class="node">
<title>Node1</title>
<g id="a_node1"><a xlink:title=" ">
<polygon fill="#bfbfbf" stroke="black" points="562,-402.5 562,-432.5 706,-432.5 706,-402.5 562,-402.5"/>
<text text-anchor="start" x="570" y="-420.5" font-family="Helvetica,sans-Serif" font-size="10.00">/home/ram/OmniTemplate</text>
<text text-anchor="middle" x="634" y="-409.5" font-family="Helvetica,sans-Serif" font-size="10.00">/operations.hpp</text>
</a>
</g>
</g>
<!-- Node2 -->
<g id="node2" class="node">
<title>Node2</title>
<g id="a_node2"><a xlink:href="core_8hpp.html" target="_top" xlink:title=" ">
<polygon fill="white" stroke="black" points="988,-335.5 988,-365.5 1132,-365.5 1132,-335.5 988,-335.5"/>
<text text-anchor="start" x="996" y="-353.5" font-family="Helvetica,sans-Serif" font-size="10.00">/home/ram/OmniTemplate</text>
<text text-anchor="middle" x="1060" y="-342.5" font-family="Helvetica,sans-Serif" font-size="10.00">/core.hpp</text>
</a>
</g>
</g>
<!-- Node1&#45;&gt;Node2 -->
<g id="edge1" class="edge">
<title>Node1&#45;&gt;Node2</title>
<path fill="none" stroke="midnightblue" d="M716.63,-403.89C795.34,-391.88 912.65,-373.98 987.74,-362.53"/>
<polygon fill="midnightblue" stroke="midnightblue" points="715.62,-400.51 706.27,-405.47 716.68,-407.43 715.62,-400.51"/>
</g>
<!-- Node3 -->
<g id="node3" class="node">
<title>Node3</title>
<g id="a_node3"><a xlink:href="2sat_8hpp.html" target="_top" xlink:title=" ">
<polygon fill="white" stroke="black" points="538,-134.5 538,-164.5 682,-164.5 682,-134.5 538,-134.5"/>
<text text-anchor="start" x="546" y="-152.5" font-family="Helvetica,sans-Serif" font-size="10.00">/home/ram/OmniTemplate</text>
<text text-anchor="middle" x="610" y="-141.5" font-family="Helvetica,sans-Serif" font-size="10.00">/2sat.hpp</text>
</a>
</g>
</g>
<!-- Node2&#45;&gt;Node3 -->
<g id="edge2" class="edge">
<title>Node2&#45;&gt;Node3</title>
<path fill="none" stroke="midnightblue" d="M977.78,-340.35C930.74,-333.11 871.44,-320.49 822,-299 800.88,-289.82 677.64,-200.12 629.37,-164.74"/>
<polygon fill="midnightblue" stroke="midnightblue" points="977.53,-343.85 987.93,-341.86 978.56,-336.93 977.53,-343.85"/>
</g>
<!-- Node4 -->
<g id="node4" class="node">
<title>Node4</title>
<g id="a_node4"><a xlink:href="template_8hpp.html" target="_top" xlink:title=" ">
<polygon fill="white" stroke="black" points="1181,-67.5 1181,-97.5 1325,-97.5 1325,-67.5 1181,-67.5"/>
<text text-anchor="start" x="1189" y="-85.5" font-family="Helvetica,sans-Serif" font-size="10.00">/home/ram/OmniTemplate</text>
<text text-anchor="middle" x="1253" y="-74.5" font-family="Helvetica,sans-Serif" font-size="10.00">/template.hpp</text>
</a>
</g>
</g>
<!-- Node2&#45;&gt;Node4 -->
<g id="edge51" class="edge">
<title>Node2&#45;&gt;Node4</title>
<path fill="none" stroke="midnightblue" d="M1142.6,-349.26C1414.35,-348.06 2265.7,-340.96 2306,-299 2379.48,-222.48 2588.14,-276.78 1987,-134 1862.73,-104.48 1484.63,-90.26 1325.16,-85.46"/>
<polygon fill="midnightblue" stroke="midnightblue" points="1142.39,-345.76 1132.4,-349.3 1142.42,-352.76 1142.39,-345.76"/>
</g>
<!-- Node6 -->
<g id="node6" class="node">
<title>Node6</title>
<g id="a_node6"><a xlink:href="my__int_8hpp.html" target="_top" xlink:title=" ">
<polygon fill="white" stroke="black" points="1991,-268.5 1991,-298.5 2135,-298.5 2135,-268.5 1991,-268.5"/>
<text text-anchor="start" x="1999" y="-286.5" font-family="Helvetica,sans-Serif" font-size="10.00">/home/ram/OmniTemplate</text>
<text text-anchor="middle" x="2063" y="-275.5" font-family="Helvetica,sans-Serif" font-size="10.00">/my_int.hpp</text>
</a>
</g>
</g>
<!-- Node2&#45;&gt;Node6 -->
<g id="edge5" class="edge">
<title>Node2&#45;&gt;Node6</title>
<path fill="none" stroke="midnightblue" d="M1142.37,-348.27C1302.78,-345.17 1667.8,-334.54 1973,-299 1978.82,-298.32 1984.85,-297.49 1990.92,-296.57"/>
<polygon fill="midnightblue" stroke="midnightblue" points="1142.04,-344.77 1132.1,-348.46 1142.17,-351.77 1142.04,-344.77"/>
</g>
<!-- Node7 -->
<g id="node7" class="node">
<title>Node7</title>
<g id="a_node7"><a xlink:href="range_8hpp.html" target="_top" xlink:title=" ">
<polygon fill="white" stroke="black" points="86,-268.5 86,-298.5 230,-298.5 230,-268.5 86,-268.5"/>
<text text-anchor="start" x="94" y="-286.5" font-family="Helvetica,sans-Serif" font-size="10.00">/home/ram/OmniTemplate</text>
<text text-anchor="middle" x="158" y="-275.5" font-family="Helvetica,sans-Serif" font-size="10.00">/range.hpp</text>
</a>
</g>
</g>
<!-- Node2&#45;&gt;Node7 -->
<g id="edge7" class="edge">
<title>Node2&#45;&gt;Node7</title>
<path fill="none" stroke="midnightblue" d="M977.53,-347.43C828.6,-342.93 505.42,-330.08 235,-299 233.5,-298.83 231.98,-298.65 230.45,-298.46"/>
<polygon fill="midnightblue" stroke="midnightblue" points="977.85,-350.94 987.95,-347.74 978.06,-343.94 977.85,-350.94"/>
</g>
<!-- Node10 -->
<g id="node10" class="node">
<title>Node10</title>
<g id="a_node10"><a xlink:href="graph__theory_8hpp.html" target="_top" xlink:title=" ">
<polygon fill="white" stroke="black" points="524,-201.5 524,-231.5 668,-231.5 668,-201.5 524,-201.5"/>
<text text-anchor="start" x="532" y="-219.5" font-family="Helvetica,sans-Serif" font-size="10.00">/home/ram/OmniTemplate</text>
<text text-anchor="middle" x="596" y="-208.5" font-family="Helvetica,sans-Serif" font-size="10.00">/graph_theory.hpp</text>
</a>
</g>
</g>
<!-- Node2&#45;&gt;Node10 -->
<g id="edge15" class="edge">
<title>Node2&#45;&gt;Node10</title>
<path fill="none" stroke="midnightblue" d="M977.56,-348.11C906.87,-344.41 803.52,-332.94 720,-299 698.17,-290.13 696.56,-281.13 677,-268 658.01,-255.26 635.96,-241.58 619.66,-231.67"/>
<polygon fill="midnightblue" stroke="midnightblue" points="977.59,-351.62 987.74,-348.6 977.92,-344.62 977.59,-351.62"/>
</g>
<!-- Node11 -->
<g id="node11" class="node">
<title>Node11</title>
<g id="a_node11"><a xlink:href="dsu_8hpp.html" target="_top" xlink:title=" ">
<polygon fill="white" stroke="black" points="362,-268.5 362,-298.5 506,-298.5 506,-268.5 362,-268.5"/>
<text text-anchor="start" x="370" y="-286.5" font-family="Helvetica,sans-Serif" font-size="10.00">/home/ram/OmniTemplate</text>
<text text-anchor="middle" x="434" y="-275.5" font-family="Helvetica,sans-Serif" font-size="10.00">/dsu.hpp</text>
</a>
</g>
</g>
<!-- Node2&#45;&gt;Node11 -->
<g id="edge18" class="edge">
<title>Node2&#45;&gt;Node11</title>
<path fill="none" stroke="midnightblue" d="M977.85,-344.07C870.96,-336.5 678.51,-321.17 515,-299 512.17,-298.62 509.29,-298.2 506.38,-297.77"/>
<polygon fill="midnightblue" stroke="midnightblue" points="977.71,-347.57 987.93,-344.78 978.2,-340.58 977.71,-347.57"/>
</g>
<!-- Node12 -->
<g id="node12" class="node">
<title>Node12</title>
<g id="a_node12"><a xlink:href="linear__algebra_8hpp.html" target="_top" xlink:title=" ">
<polygon fill="white" stroke="black" points="524,-268.5 524,-298.5 668,-298.5 668,-268.5 524,-268.5"/>
<text text-anchor="start" x="532" y="-286.5" font-family="Helvetica,sans-Serif" font-size="10.00">/home/ram/OmniTemplate</text>
<text text-anchor="middle" x="596" y="-275.5" font-family="Helvetica,sans-Serif" font-size="10.00">/linear_algebra.hpp</text>
</a>
</g>
</g>
<!-- Node2&#45;&gt;Node12 -->
<g id="edge21" class="edge">
<title>Node2&#45;&gt;Node12</title>
<path fill="none" stroke="midnightblue" d="M977.71,-339.33C901.06,-329.66 783.65,-314.36 682,-299 677.51,-298.32 672.89,-297.6 668.23,-296.86"/>
<polygon fill="midnightblue" stroke="midnightblue" points="977.42,-342.82 987.78,-340.6 978.3,-335.88 977.42,-342.82"/>
</g>
<!-- Node13 -->
<g id="node13" class="node">
<title>Node13</title>
<g id="a_node13"><a xlink:href="big__integer_8hpp.html" target="_top" xlink:title=" ">
<polygon fill="white" stroke="black" points="262,-134.5 262,-164.5 406,-164.5 406,-134.5 262,-134.5"/>
<text text-anchor="start" x="270" y="-152.5" font-family="Helvetica,sans-Serif" font-size="10.00">/home/ram/OmniTemplate</text>
<text text-anchor="middle" x="334" y="-141.5" font-family="Helvetica,sans-Serif" font-size="10.00">/big_integer.hpp</text>
</a>
</g>
</g>
<!-- Node2&#45;&gt;Node13 -->
<g id="edge24" class="edge">
<title>Node2&#45;&gt;Node13</title>
<path fill="none" stroke="midnightblue" d="M977.76,-349.36C801.06,-348.26 397.54,-341.12 353,-299 315.8,-263.82 324.6,-194.85 330.63,-164.92"/>
<polygon fill="midnightblue" stroke="midnightblue" points="977.77,-352.86 987.79,-349.42 977.81,-345.86 977.77,-352.86"/>
</g>
<!-- Node14 -->
<g id="node14" class="node">
<title>Node14</title>
<g id="a_node14"><a xlink:href="combinatorics_8hpp.html" target="_top" xlink:title=" ">
<polygon fill="white" stroke="black" points="700,-134.5 700,-164.5 844,-164.5 844,-134.5 700,-134.5"/>
<text text-anchor="start" x="708" y="-152.5" font-family="Helvetica,sans-Serif" font-size="10.00">/home/ram/OmniTemplate</text>
<text text-anchor="middle" x="772" y="-141.5" font-family="Helvetica,sans-Serif" font-size="10.00">/combinatorics.hpp</text>
</a>
</g>
</g>
<!-- Node2&#45;&gt;Node14 -->
<g id="edge26" class="edge">
<title>Node2&#45;&gt;Node14</title>
<path fill="none" stroke="midnightblue" d="M977.82,-344.28C937.75,-338.19 890.83,-325.44 856,-299 809.52,-263.72 784.83,-194.8 775.92,-164.91"/>
<polygon fill="midnightblue" stroke="midnightblue" points="977.46,-347.76 987.85,-345.68 978.43,-340.83 977.46,-347.76"/>
</g>
<!-- Node15 -->
<g id="node15" class="node">
<title>Node15</title>
<g id="a_node15"><a xlink:href="coroutine_8hpp.html" target="_top" xlink:title=" ">
<polygon fill="white" stroke="black" points="862,-134.5 862,-164.5 1006,-164.5 1006,-134.5 862,-134.5"/>
<text text-anchor="start" x="870" y="-152.5" font-family="Helvetica,sans-Serif" font-size="10.00">/home/ram/OmniTemplate</text>
<text text-anchor="middle" x="934" y="-141.5" font-family="Helvetica,sans-Serif" font-size="10.00">/coroutine.hpp</text>
</a>
</g>
</g>
<!-- Node2&#45;&gt;Node15 -->
<g id="edge28" class="edge">
<title>Node2&#45;&gt;Node15</title>
<path fill="none" stroke="midnightblue" d="M982.48,-332.65C929.09,-316.55 862.04,-286.39 829,-232 821.85,-220.22 821.67,-212.66 829,-201 839.87,-183.7 858.51,-172.2 877.09,-164.6"/>
<polygon fill="midnightblue" stroke="midnightblue" points="981.7,-336.07 992.28,-335.49 983.65,-329.34 981.7,-336.07"/>
</g>
<!-- Node16 -->
<g id="node16" class="node">
<title>Node16</title>
<g id="a_node16"><a xlink:href="fft_8hpp.html" target="_top" xlink:title=" ">
<polygon fill="white" stroke="black" points="838,-201.5 838,-231.5 982,-231.5 982,-201.5 838,-201.5"/>
<text text-anchor="start" x="846" y="-219.5" font-family="Helvetica,sans-Serif" font-size="10.00">/home/ram/OmniTemplate</text>
<text text-anchor="middle" x="910" y="-208.5" font-family="Helvetica,sans-Serif" font-size="10.00">/fft.hpp</text>
</a>
</g>
</g>
<!-- Node2&#45;&gt;Node16 -->
<g id="edge30" class="edge">
<title>Node2&#45;&gt;Node16</title>
<path fill="none" stroke="midnightblue" d="M1033.11,-329.15C1021.5,-320.15 1007.89,-309.28 996,-299 969.87,-276.39 941,-248.36 924.24,-231.75"/>
<polygon fill="midnightblue" stroke="midnightblue" points="1031.1,-332.02 1041.16,-335.35 1035.37,-326.47 1031.1,-332.02"/>
</g>
<!-- Node17 -->
<g id="node17" class="node">
<title>Node17</title>
<g id="a_node17"><a xlink:href="geometry_8hpp.html" target="_top" xlink:title=" ">
<polygon fill="white" stroke="black" points="1062,-134.5 1062,-164.5 1206,-164.5 1206,-134.5 1062,-134.5"/>
<text text-anchor="start" x="1070" y="-152.5" font-family="Helvetica,sans-Serif" font-size="10.00">/home/ram/OmniTemplate</text>
<text text-anchor="middle" x="1134" y="-141.5" font-family="Helvetica,sans-Serif" font-size="10.00">/geometry.hpp</text>
</a>
</g>
</g>
<!-- Node2&#45;&gt;Node17 -->
<g id="edge32" class="edge">
<title>Node2&#45;&gt;Node17</title>
<path fill="none" stroke="midnightblue" d="M1045.53,-326.46C1028.18,-295.6 1004.36,-240.2 1029,-201 1039.87,-183.7 1058.51,-172.2 1077.09,-164.6"/>
<polygon fill="midnightblue" stroke="midnightblue" points="1042.57,-328.33 1050.64,-335.2 1048.61,-324.8 1042.57,-328.33"/>
</g>
<!-- Node18 -->
<g id="node18" class="node">
<title>Node18</title>
<g id="a_node18"><a xlink:href="main_8hpp.html" target="_top" xlink:title=" ">
<polygon fill="white" stroke="black" points="1038,-201.5 1038,-231.5 1182,-231.5 1182,-201.5 1038,-201.5"/>
<text text-anchor="start" x="1046" y="-219.5" font-family="Helvetica,sans-Serif" font-size="10.00">/home/ram/OmniTemplate</text>
<text text-anchor="middle" x="1110" y="-208.5" font-family="Helvetica,sans-Serif" font-size="10.00">/main.hpp</text>
</a>
</g>
</g>
<!-- Node2&#45;&gt;Node18 -->
<g id="edge34" class="edge">
<title>Node2&#45;&gt;Node18</title>
<path fill="none" stroke="midnightblue" d="M1068.99,-325.75C1079.4,-298.29 1096.18,-253.99 1104.69,-231.52"/>
<polygon fill="midnightblue" stroke="midnightblue" points="1065.62,-324.78 1065.35,-335.37 1072.17,-327.26 1065.62,-324.78"/>
</g>
<!-- Node19 -->
<g id="node19" class="node">
<title>Node19</title>
<g id="a_node19"><a xlink:href="modulo_8hpp.html" target="_top" xlink:title=" ">
<polygon fill="white" stroke="black" points="1138,-268.5 1138,-298.5 1282,-298.5 1282,-268.5 1138,-268.5"/>
<text text-anchor="start" x="1146" y="-286.5" font-family="Helvetica,sans-Serif" font-size="10.00">/home/ram/OmniTemplate</text>
<text text-anchor="middle" x="1210" y="-275.5" font-family="Helvetica,sans-Serif" font-size="10.00">/modulo.hpp</text>
</a>
</g>
</g>
<!-- Node2&#45;&gt;Node19 -->
<g id="edge36" class="edge">
<title>Node2&#45;&gt;Node19</title>
<path fill="none" stroke="midnightblue" d="M1101.75,-331.41C1125.7,-321.03 1155.32,-308.2 1177.52,-298.58"/>
<polygon fill="midnightblue" stroke="midnightblue" points="1100.33,-328.21 1092.55,-335.4 1103.11,-334.63 1100.33,-328.21"/>
</g>
<!-- Node20 -->
<g id="node20" class="node">
<title>Node20</title>
<g id="a_node20"><a xlink:href="number__theory_8hpp.html" target="_top" xlink:title=" ">
<polygon fill="white" stroke="black" points="1238,-201.5 1238,-231.5 1382,-231.5 1382,-201.5 1238,-201.5"/>
<text text-anchor="start" x="1246" y="-219.5" font-family="Helvetica,sans-Serif" font-size="10.00">/home/ram/OmniTemplate</text>
<text text-anchor="middle" x="1310" y="-208.5" font-family="Helvetica,sans-Serif" font-size="10.00">/number_theory.hpp</text>
</a>
</g>
</g>
<!-- Node2&#45;&gt;Node20 -->
<g id="edge40" class="edge">
<title>Node2&#45;&gt;Node20</title>
<path fill="none" stroke="midnightblue" d="M1142.32,-340.82C1199.86,-333.07 1270.01,-319.7 1291,-299 1309,-281.25 1311.31,-249.98 1310.94,-231.76"/>
<polygon fill="midnightblue" stroke="midnightblue" points="1141.57,-337.39 1132.11,-342.15 1142.48,-344.33 1141.57,-337.39"/>
</g>
<!-- Node21 -->
<g id="node21" class="node">
<title>Node21</title>
<g id="a_node21"><a xlink:href="persistent_8hpp.html" target="_top" xlink:title=" ">
<polygon fill="white" stroke="black" points="1338,-134.5 1338,-164.5 1482,-164.5 1482,-134.5 1338,-134.5"/>
<text text-anchor="start" x="1346" y="-152.5" font-family="Helvetica,sans-Serif" font-size="10.00">/home/ram/OmniTemplate</text>
<text text-anchor="middle" x="1410" y="-141.5" font-family="Helvetica,sans-Serif" font-size="10.00">/persistent.hpp</text>
</a>
</g>
</g>
<!-- Node2&#45;&gt;Node21 -->
<g id="edge41" class="edge">
<title>Node2&#45;&gt;Node21</title>
<path fill="none" stroke="midnightblue" d="M1142.02,-343.58C1192.99,-337.4 1258.72,-324.78 1312,-299 1353.44,-278.95 1367.01,-271.29 1391,-232 1403.87,-210.92 1408.03,-181.9 1409.37,-164.78"/>
<polygon fill="midnightblue" stroke="midnightblue" points="1141.56,-340.11 1132.03,-344.73 1142.37,-347.06 1141.56,-340.11"/>
</g>
<!-- Node22 -->
<g id="node22" class="node">
<title>Node22</title>
<g id="a_node22"><a xlink:href="queue_8hpp.html" target="_top" xlink:title=" ">
<polygon fill="white" stroke="black" points="1438,-201.5 1438,-231.5 1582,-231.5 1582,-201.5 1438,-201.5"/>
<text text-anchor="start" x="1446" y="-219.5" font-family="Helvetica,sans-Serif" font-size="10.00">/home/ram/OmniTemplate</text>
<text text-anchor="middle" x="1510" y="-208.5" font-family="Helvetica,sans-Serif" font-size="10.00">/queue.hpp</text>
</a>
</g>
</g>
<!-- Node2&#45;&gt;Node22 -->
<g id="edge43" class="edge">
<title>Node2&#45;&gt;Node22</title>
<path fill="none" stroke="midnightblue" d="M1142.42,-343.93C1234.11,-336.71 1375.71,-322.22 1424,-299 1456.63,-283.31 1485.04,-250.67 1499.61,-231.81"/>
<polygon fill="midnightblue" stroke="midnightblue" points="1142.02,-340.45 1132.32,-344.71 1142.57,-347.43 1142.02,-340.45"/>
</g>
<!-- Node23 -->
<g id="node23" class="node">
<title>Node23</title>
<g id="a_node23"><a xlink:href="segment__tree_8hpp.html" target="_top" xlink:title=" ">
<polygon fill="white" stroke="black" points="1538,-134.5 1538,-164.5 1682,-164.5 1682,-134.5 1538,-134.5"/>
<text text-anchor="start" x="1546" y="-152.5" font-family="Helvetica,sans-Serif" font-size="10.00">/home/ram/OmniTemplate</text>
<text text-anchor="middle" x="1610" y="-141.5" font-family="Helvetica,sans-Serif" font-size="10.00">/segment_tree.hpp</text>
</a>
</g>
</g>
<!-- Node2&#45;&gt;Node23 -->
<g id="edge45" class="edge">
<title>Node2&#45;&gt;Node23</title>
<path fill="none" stroke="midnightblue" d="M1142.58,-347.17C1224.28,-342.99 1352.12,-331.34 1458,-299 1521.3,-279.67 1550.08,-284.02 1591,-232 1606.45,-212.36 1609.72,-182.32 1610.2,-164.72"/>
<polygon fill="midnightblue" stroke="midnightblue" points="1142.17,-343.69 1132.35,-347.67 1142.51,-350.68 1142.17,-343.69"/>
</g>
<!-- Node24 -->
<g id="node24" class="node">
<title>Node24</title>
<g id="a_node24"><a xlink:href="splay__tree_8hpp.html" target="_top" xlink:title=" ">
<polygon fill="white" stroke="black" points="1638,-201.5 1638,-231.5 1782,-231.5 1782,-201.5 1638,-201.5"/>
<text text-anchor="start" x="1646" y="-219.5" font-family="Helvetica,sans-Serif" font-size="10.00">/home/ram/OmniTemplate</text>
<text text-anchor="middle" x="1710" y="-208.5" font-family="Helvetica,sans-Serif" font-size="10.00">/splay_tree.hpp</text>
</a>
</g>
</g>
<!-- Node2&#45;&gt;Node24 -->
<g id="edge47" class="edge">
<title>Node2&#45;&gt;Node24</title>
<path fill="none" stroke="midnightblue" d="M1142.43,-346.18C1267.5,-340.35 1498.93,-326.21 1577,-299 1600.98,-290.64 1603.41,-281.38 1625,-268 1645.28,-255.43 1668.6,-241.62 1685.67,-231.63"/>
<polygon fill="midnightblue" stroke="midnightblue" points="1141.96,-342.7 1132.14,-346.65 1142.29,-349.69 1141.96,-342.7"/>
</g>
<!-- Node25 -->
<g id="node25" class="node">
<title>Node25</title>
<g id="a_node25"><a xlink:href="string_8hpp.html" target="_top" xlink:title=" ">
<polygon fill="white" stroke="black" points="1738,-134.5 1738,-164.5 1882,-164.5 1882,-134.5 1738,-134.5"/>
<text text-anchor="start" x="1746" y="-152.5" font-family="Helvetica,sans-Serif" font-size="10.00">/home/ram/OmniTemplate</text>
<text text-anchor="middle" x="1810" y="-141.5" font-family="Helvetica,sans-Serif" font-size="10.00">/string.hpp</text>
</a>
</g>
</g>
<!-- Node2&#45;&gt;Node25 -->
<g id="edge49" class="edge">
<title>Node2&#45;&gt;Node25</title>
<path fill="none" stroke="midnightblue" d="M1142.31,-347.32C1275.18,-342.92 1530.59,-330.55 1615,-299 1637.07,-290.75 1636.73,-278.13 1658,-268 1713.29,-241.67 1748.47,-276.06 1791,-232 1808.56,-213.81 1811.03,-182.7 1810.8,-164.63"/>
<polygon fill="midnightblue" stroke="midnightblue" points="1142.06,-343.83 1132.18,-347.65 1142.28,-350.83 1142.06,-343.83"/>
</g>
<!-- Node26 -->
<g id="node26" class="node">
<title>Node26</title>
<g id="a_node26"><a xlink:href="time_8hpp.html" target="_top" xlink:title=" ">
<polygon fill="white" stroke="black" points="1667,-268.5 1667,-298.5 1811,-298.5 1811,-268.5 1667,-268.5"/>
<text text-anchor="start" x="1675" y="-286.5" font-family="Helvetica,sans-Serif" font-size="10.00">/home/ram/OmniTemplate</text>
<text text-anchor="middle" x="1739" y="-275.5" font-family="Helvetica,sans-Serif" font-size="10.00">/time.hpp</text>
</a>
</g>
</g>
<!-- Node2&#45;&gt;Node26 -->
<g id="edge52" class="edge">
<title>Node2&#45;&gt;Node26</title>
<path fill="none" stroke="midnightblue" d="M1142.43,-344.63C1257.17,-337.35 1471.41,-322 1653,-299 1657.51,-298.43 1662.14,-297.79 1666.8,-297.11"/>
<polygon fill="midnightblue" stroke="midnightblue" points="1142.08,-341.14 1132.32,-345.26 1142.52,-348.13 1142.08,-341.14"/>
</g>
<!-- Node27 -->
<g id="node27" class="node">
<title>Node27</title>
<g id="a_node27"><a xlink:href="tree_8hpp.html" target="_top" xlink:title=" ">
<polygon fill="white" stroke="black" points="1829,-268.5 1829,-298.5 1973,-298.5 1973,-268.5 1829,-268.5"/>
<text text-anchor="start" x="1837" y="-286.5" font-family="Helvetica,sans-Serif" font-size="10.00">/home/ram/OmniTemplate</text>
<text text-anchor="middle" x="1901" y="-275.5" font-family="Helvetica,sans-Serif" font-size="10.00">/tree.hpp</text>
</a>
</g>
</g>
<!-- Node2&#45;&gt;Node27 -->
<g id="edge54" class="edge">
<title>Node2&#45;&gt;Node27</title>
<path fill="none" stroke="midnightblue" d="M1142.23,-347.02C1281.95,-342.14 1574.46,-329.04 1820,-299 1822.84,-298.65 1825.72,-298.27 1828.64,-297.86"/>
<polygon fill="midnightblue" stroke="midnightblue" points="1141.9,-343.53 1132.03,-347.37 1142.14,-350.53 1141.9,-343.53"/>
</g>
<!-- Node28 -->
<g id="node28" class="node">
<title>Node28</title>
<g id="a_node28"><a xlink:href="treap_8hpp.html" target="_top" xlink:title=" ">
<polygon fill="white" stroke="black" points="2153,-268.5 2153,-298.5 2297,-298.5 2297,-268.5 2153,-268.5"/>
<text text-anchor="start" x="2161" y="-286.5" font-family="Helvetica,sans-Serif" font-size="10.00">/home/ram/OmniTemplate</text>
<text text-anchor="middle" x="2225" y="-275.5" font-family="Helvetica,sans-Serif" font-size="10.00">/treap.hpp</text>
</a>
</g>
</g>
<!-- Node2&#45;&gt;Node28 -->
<g id="edge56" class="edge">
<title>Node2&#45;&gt;Node28</title>
<path fill="none" stroke="midnightblue" d="M1142.25,-349.33C1323.67,-348.14 1771.68,-340.82 2144,-299 2146.84,-298.68 2149.73,-298.32 2152.65,-297.94"/>
<polygon fill="midnightblue" stroke="midnightblue" points="1142.22,-345.83 1132.24,-349.39 1142.27,-352.83 1142.22,-345.83"/>
</g>
<!-- Node3&#45;&gt;Node4 -->
<g id="edge3" class="edge">
<title>Node3&#45;&gt;Node4</title>
<path fill="none" stroke="midnightblue" d="M692.36,-133.89C873.72,-109.93 1075.7,-94.9 1180.92,-87.95"/>
<polygon fill="midnightblue" stroke="midnightblue" points="691.82,-130.43 682.37,-135.22 692.75,-137.37 691.82,-130.43"/>
</g>
<!-- Node5 -->
<g id="node5" class="node">
<title>Node5</title>
<g id="a_node5"><a xlink:href="test_8cpp.html" target="_top" xlink:title=" ">
<polygon fill="white" stroke="black" points="1181,-0.5 1181,-30.5 1325,-30.5 1325,-0.5 1181,-0.5"/>
<text text-anchor="start" x="1189" y="-18.5" font-family="Helvetica,sans-Serif" font-size="10.00">/home/ram/OmniTemplate</text>
<text text-anchor="middle" x="1253" y="-7.5" font-family="Helvetica,sans-Serif" font-size="10.00">/test.cpp</text>
</a>
</g>
</g>
<!-- Node4&#45;&gt;Node5 -->
<g id="edge4" class="edge">
<title>Node4&#45;&gt;Node5</title>
<path fill="none" stroke="midnightblue" d="M1253,-57.11C1253,-48.15 1253,-38.32 1253,-30.58"/>
<polygon fill="midnightblue" stroke="midnightblue" points="1249.5,-57.4 1253,-67.4 1256.5,-57.4 1249.5,-57.4"/>
</g>
<!-- Node6&#45;&gt;Node2 -->
<g id="edge6" class="edge">
<title>Node6&#45;&gt;Node2</title>
<path fill="none" stroke="midnightblue" d="M1984.93,-299.68C1664.69,-336.29 1287.32,-346.07 1132.05,-348.63"/>
<polygon fill="midnightblue" stroke="midnightblue" points="1985.33,-303.16 1994.86,-298.53 1984.52,-296.2 1985.33,-303.16"/>
</g>
<!-- Node7&#45;&gt;Node1 -->
<g id="edge10" class="edge">
<title>Node7&#45;&gt;Node1</title>
<path fill="none" stroke="midnightblue" d="M218.42,-301.25C313.23,-327.55 495.23,-378.02 583.51,-402.5"/>
<polygon fill="midnightblue" stroke="midnightblue" points="219.26,-297.86 208.69,-298.56 217.39,-304.6 219.26,-297.86"/>
</g>
<!-- Node7&#45;&gt;Node2 -->
<g id="edge11" class="edge">
<title>Node7&#45;&gt;Node2</title>
<path fill="none" stroke="midnightblue" d="M240.31,-297.39C244.6,-297.98 248.85,-298.52 253,-299 523.39,-330.07 846.53,-342.93 987.91,-347.43"/>
<polygon fill="midnightblue" stroke="midnightblue" points="240.63,-293.9 230.23,-295.95 239.63,-300.83 240.63,-293.9"/>
</g>
<!-- Node8 -->
<g id="node8" class="node">
<title>Node8</title>
<g id="a_node8"><a xlink:href="debug_8hpp.html" target="_top" xlink:title=" ">
<polygon fill="white" stroke="black" points="162,-201.5 162,-231.5 306,-231.5 306,-201.5 162,-201.5"/>
<text text-anchor="start" x="170" y="-219.5" font-family="Helvetica,sans-Serif" font-size="10.00">/home/ram/OmniTemplate</text>
<text text-anchor="middle" x="234" y="-208.5" font-family="Helvetica,sans-Serif" font-size="10.00">/debug.hpp</text>
</a>
</g>
</g>
<!-- Node7&#45;&gt;Node8 -->
<g id="edge8" class="edge">
<title>Node7&#45;&gt;Node8</title>
<path fill="none" stroke="midnightblue" d="M182.11,-261.88C193.66,-252.01 207.19,-240.43 217.54,-231.58"/>
<polygon fill="midnightblue" stroke="midnightblue" points="179.82,-259.24 174.49,-268.4 184.37,-264.56 179.82,-259.24"/>
</g>
<!-- Node9 -->
<g id="node9" class="node">
<title>Node9</title>
<g id="a_node9"><a xlink:href="utility_8hpp.html" target="_top" xlink:title=" ">
<polygon fill="white" stroke="black" points="0,-201.5 0,-231.5 144,-231.5 144,-201.5 0,-201.5"/>
<text text-anchor="start" x="8" y="-219.5" font-family="Helvetica,sans-Serif" font-size="10.00">/home/ram/OmniTemplate</text>
<text text-anchor="middle" x="72" y="-208.5" font-family="Helvetica,sans-Serif" font-size="10.00">/utility.hpp</text>
</a>
</g>
</g>
<!-- Node7&#45;&gt;Node9 -->
<g id="edge12" class="edge">
<title>Node7&#45;&gt;Node9</title>
<path fill="none" stroke="midnightblue" d="M131.1,-262.17C117.95,-252.23 102.45,-240.51 90.62,-231.58"/>
<polygon fill="midnightblue" stroke="midnightblue" points="129.25,-265.16 139.34,-268.4 133.47,-259.57 129.25,-265.16"/>
</g>
<!-- Node8&#45;&gt;Node2 -->
<g id="edge9" class="edge">
<title>Node8&#45;&gt;Node2</title>
<path fill="none" stroke="midnightblue" d="M250.21,-239.88C265.7,-259.3 290.96,-286.26 320,-299 380.11,-325.36 813.81,-341.76 987.93,-347.35"/>
<polygon fill="midnightblue" stroke="midnightblue" points="252.87,-237.6 243.99,-231.82 247.33,-241.87 252.87,-237.6"/>
</g>
<!-- Node9&#45;&gt;Node2 -->
<g id="edge13" class="edge">
<title>Node9&#45;&gt;Node2</title>
<path fill="none" stroke="midnightblue" d="M152.08,-234.2C180.61,-242.06 212.27,-253.07 239,-268 257.14,-278.13 254.82,-291.01 274,-299 338.85,-326 806.07,-342.19 987.88,-347.53"/>
<polygon fill="midnightblue" stroke="midnightblue" points="152.7,-230.74 142.14,-231.55 150.9,-237.51 152.7,-230.74"/>
</g>
<!-- Node9&#45;&gt;Node4 -->
<g id="edge14" class="edge">
<title>Node9&#45;&gt;Node4</title>
<path fill="none" stroke="midnightblue" d="M104.43,-196.41C139.66,-176.76 198.26,-147.21 253,-134 429.16,-91.49 981.71,-84.73 1180.69,-83.68"/>
<polygon fill="midnightblue" stroke="midnightblue" points="102.55,-193.45 95.56,-201.42 105.99,-199.55 102.55,-193.45"/>
</g>
<!-- Node10&#45;&gt;Node3 -->
<g id="edge16" class="edge">
<title>Node10&#45;&gt;Node3</title>
<path fill="none" stroke="midnightblue" d="M601.19,-191.4C603.14,-182.37 605.28,-172.41 606.97,-164.58"/>
<polygon fill="midnightblue" stroke="midnightblue" points="597.72,-190.88 599.04,-201.4 604.56,-192.36 597.72,-190.88"/>
</g>
<!-- Node10&#45;&gt;Node4 -->
<g id="edge17" class="edge">
<title>Node10&#45;&gt;Node4</title>
<path fill="none" stroke="midnightblue" d="M561.55,-195.58C536.58,-178.71 510.23,-154.13 529,-134 572.83,-87.01 1006.55,-82.84 1180.94,-83.09"/>
<polygon fill="midnightblue" stroke="midnightblue" points="559.95,-198.72 570.25,-201.21 563.76,-192.84 559.95,-198.72"/>
</g>
<!-- Node11&#45;&gt;Node4 -->
<g id="edge20" class="edge">
<title>Node11&#45;&gt;Node4</title>
<path fill="none" stroke="midnightblue" d="M437.69,-258.41C444.32,-224.29 461.73,-162.85 504,-134 559.04,-96.44 1004.1,-86.66 1180.94,-84.25"/>
<polygon fill="midnightblue" stroke="midnightblue" points="434.21,-257.99 435.9,-268.45 441.1,-259.22 434.21,-257.99"/>
</g>
<!-- Node11&#45;&gt;Node10 -->
<g id="edge19" class="edge">
<title>Node11&#45;&gt;Node10</title>
<path fill="none" stroke="midnightblue" d="M478.75,-264.54C504.67,-254.14 536.84,-241.24 560.92,-231.58"/>
<polygon fill="midnightblue" stroke="midnightblue" points="477.13,-261.42 469.15,-268.4 479.74,-267.92 477.13,-261.42"/>
</g>
<!-- Node12&#45;&gt;Node4 -->
<g id="edge23" class="edge">
<title>Node12&#45;&gt;Node4</title>
<path fill="none" stroke="midnightblue" d="M548.24,-263.45C535.11,-255.74 522.45,-245.42 515,-232 505.92,-215.63 502.96,-149.4 518,-134 563.66,-87.24 1004.86,-82.96 1180.96,-83.13"/>
<polygon fill="midnightblue" stroke="midnightblue" points="546.88,-266.69 557.34,-268.37 550.21,-260.54 546.88,-266.69"/>
</g>
<!-- Node12&#45;&gt;Node10 -->
<g id="edge22" class="edge">
<title>Node12&#45;&gt;Node10</title>
<path fill="none" stroke="midnightblue" d="M596,-258.11C596,-249.15 596,-239.32 596,-231.58"/>
<polygon fill="midnightblue" stroke="midnightblue" points="592.5,-258.4 596,-268.4 599.5,-258.4 592.5,-258.4"/>
</g>
<!-- Node13&#45;&gt;Node4 -->
<g id="edge25" class="edge">
<title>Node13&#45;&gt;Node4</title>
<path fill="none" stroke="midnightblue" d="M416.16,-134.45C417.45,-134.3 418.73,-134.15 420,-134 700.34,-101.96 1036.23,-89.44 1180.91,-85.29"/>
<polygon fill="midnightblue" stroke="midnightblue" points="415.64,-130.99 406.18,-135.76 416.55,-137.93 415.64,-130.99"/>
</g>
<!-- Node14&#45;&gt;Node4 -->
<g id="edge27" class="edge">
<title>Node14&#45;&gt;Node4</title>
<path fill="none" stroke="midnightblue" d="M854.5,-133.82C974.6,-115.69 1102.93,-100.34 1180.95,-91.46"/>
<polygon fill="midnightblue" stroke="midnightblue" points="853.75,-130.39 844.39,-135.35 854.8,-137.31 853.75,-130.39"/>
</g>
<!-- Node15&#45;&gt;Node4 -->
<g id="edge29" class="edge">
<title>Node15&#45;&gt;Node4</title>
<path fill="none" stroke="midnightblue" d="M1012.77,-132.45C1065.29,-121.75 1133.66,-107.82 1184.02,-97.55"/>
<polygon fill="midnightblue" stroke="midnightblue" points="1011.93,-129.05 1002.83,-134.48 1013.32,-135.91 1011.93,-129.05"/>
</g>
<!-- Node16&#45;&gt;Node4 -->
<g id="edge31" class="edge">
<title>Node16&#45;&gt;Node4</title>
<path fill="none" stroke="midnightblue" d="M953.85,-197.21C973.16,-188.46 995.78,-177.22 1015,-165 1033.39,-153.31 1033.53,-143.79 1053,-134 1093,-113.89 1141.62,-101.38 1180.9,-93.84"/>
<polygon fill="midnightblue" stroke="midnightblue" points="952.37,-194.04 944.66,-201.31 955.22,-200.43 952.37,-194.04"/>
</g>
<!-- Node17&#45;&gt;Node4 -->
<g id="edge33" class="edge">
<title>Node17&#45;&gt;Node4</title>
<path fill="none" stroke="midnightblue" d="M1168.65,-129.57C1187.37,-119.35 1210.09,-106.94 1227.23,-97.58"/>
<polygon fill="midnightblue" stroke="midnightblue" points="1166.92,-126.53 1159.82,-134.4 1170.28,-132.67 1166.92,-126.53"/>
</g>
<!-- Node18&#45;&gt;Node4 -->
<g id="edge35" class="edge">
<title>Node18&#45;&gt;Node4</title>
<path fill="none" stroke="midnightblue" d="M1165.22,-197.42C1182.78,-189.59 1201.2,-178.96 1215,-165 1233.98,-145.79 1244.66,-115.32 1249.59,-97.59"/>
<polygon fill="midnightblue" stroke="midnightblue" points="1163.45,-194.37 1155.59,-201.48 1166.17,-200.82 1163.45,-194.37"/>
</g>
<!-- Node19&#45;&gt;Node4 -->
<g id="edge39" class="edge">
<title>Node19&#45;&gt;Node4</title>
<path fill="none" stroke="midnightblue" d="M1215.31,-258.54C1218.98,-242.27 1224.08,-220.28 1229,-201 1233.11,-184.91 1235.37,-181.2 1239,-165 1244.24,-141.61 1248.6,-114.05 1251,-97.72"/>
<polygon fill="midnightblue" stroke="midnightblue" points="1211.89,-257.8 1213.12,-268.32 1218.72,-259.33 1211.89,-257.8"/>
</g>
<!-- Node19&#45;&gt;Node20 -->
<g id="edge37" class="edge">
<title>Node19&#45;&gt;Node20</title>
<path fill="none" stroke="midnightblue" d="M1240.41,-262.73C1255.88,-252.68 1274.33,-240.68 1288.34,-231.58"/>
<polygon fill="midnightblue" stroke="midnightblue" points="1238.18,-260.01 1231.7,-268.4 1241.99,-265.88 1238.18,-260.01"/>
</g>
<!-- Node20&#45;&gt;Node4 -->
<g id="edge38" class="edge">
<title>Node20&#45;&gt;Node4</title>
<path fill="none" stroke="midnightblue" d="M1304.83,-191.23C1300.82,-174.66 1294.52,-152.45 1286,-134 1280.03,-121.07 1271.09,-107.62 1264.02,-97.86"/>
<polygon fill="midnightblue" stroke="midnightblue" points="1301.47,-192.25 1307.12,-201.2 1308.29,-190.67 1301.47,-192.25"/>
</g>
<!-- Node21&#45;&gt;Node4 -->
<g id="edge42" class="edge">
<title>Node21&#45;&gt;Node4</title>
<path fill="none" stroke="midnightblue" d="M1366.63,-130.54C1341.51,-120.14 1310.34,-107.24 1287,-97.58"/>
<polygon fill="midnightblue" stroke="midnightblue" points="1365.36,-133.8 1375.93,-134.4 1368.03,-127.34 1365.36,-133.8"/>
</g>
<!-- Node22&#45;&gt;Node4 -->
<g id="edge44" class="edge">
<title>Node22&#45;&gt;Node4</title>
<path fill="none" stroke="midnightblue" d="M1510.86,-191.05C1510.13,-172.86 1506.02,-148.72 1491,-134 1467.77,-111.23 1386.36,-97.58 1325.18,-90.32"/>
<polygon fill="midnightblue" stroke="midnightblue" points="1507.36,-191.25 1510.96,-201.22 1514.36,-191.19 1507.36,-191.25"/>
</g>
<!-- Node23&#45;&gt;Node4 -->
<g id="edge46" class="edge">
<title>Node23&#45;&gt;Node4</title>
<path fill="none" stroke="midnightblue" d="M1527.74,-133.52C1466.53,-122.38 1383.78,-107.31 1325.14,-96.63"/>
<polygon fill="midnightblue" stroke="midnightblue" points="1527.29,-137 1537.76,-135.35 1528.54,-130.11 1527.29,-137"/>
</g>
<!-- Node24&#45;&gt;Node4 -->
<g id="edge48" class="edge">
<title>Node24&#45;&gt;Node4</title>
<path fill="none" stroke="midnightblue" d="M1711.26,-191.22C1710.8,-172.74 1706.86,-148.15 1691,-134 1664.26,-110.15 1442.3,-94.17 1325.01,-87.31"/>
<polygon fill="midnightblue" stroke="midnightblue" points="1707.76,-191.25 1711.2,-201.27 1714.76,-191.29 1707.76,-191.25"/>
</g>
<!-- Node25&#45;&gt;Node4 -->
<g id="edge50" class="edge">
<title>Node25&#45;&gt;Node4</title>
<path fill="none" stroke="midnightblue" d="M1727.82,-134.54C1726.54,-134.35 1725.27,-134.17 1724,-134 1583.26,-114.61 1417.99,-98.39 1325.38,-89.9"/>
<polygon fill="midnightblue" stroke="midnightblue" points="1727.38,-138.01 1737.79,-136 1728.4,-131.08 1727.38,-138.01"/>
</g>
<!-- Node26&#45;&gt;Node4 -->
<g id="edge53" class="edge">
<title>Node26&#45;&gt;Node4</title>
<path fill="none" stroke="midnightblue" d="M1782.33,-264.28C1841.75,-236.87 1936.27,-183 1891,-134 1853.25,-93.15 1484.18,-85.31 1325.22,-83.83"/>
<polygon fill="midnightblue" stroke="midnightblue" points="1780.79,-261.14 1773.13,-268.45 1783.68,-267.51 1780.79,-261.14"/>
</g>
<!-- Node27&#45;&gt;Node4 -->
<g id="edge55" class="edge">
<title>Node27&#45;&gt;Node4</title>
<path fill="none" stroke="midnightblue" d="M1911.75,-258.81C1924.73,-226.19 1941.2,-167.69 1910,-134 1870.92,-91.8 1487.72,-84.74 1325.23,-83.65"/>
<polygon fill="midnightblue" stroke="midnightblue" points="1908.36,-257.85 1907.72,-268.42 1914.81,-260.55 1908.36,-257.85"/>
</g>
<!-- Node28&#45;&gt;Node4 -->
<g id="edge57" class="edge">
<title>Node28&#45;&gt;Node4</title>
<path fill="none" stroke="midnightblue" d="M2195.88,-262.83C2144.82,-229.52 2034.69,-162.81 1931,-134 1818.62,-102.77 1475.7,-89.66 1325.15,-85.31"/>
<polygon fill="midnightblue" stroke="midnightblue" points="2194.14,-265.88 2204.42,-268.46 2197.99,-260.03 2194.14,-265.88"/>
</g>
</g>
</svg>
        <g id="navigator" transform="translate(0 0)" fill="#404254">
                <rect fill="#f2f5e9" fill-opacity="0.5" stroke="#606060" stroke-width=".5" x="0" y="0" width="60" height="60"/>
                <use id="zoomplus" xlink:href="#zoomPlus" x="17" y="9" onmousedown="handleZoom(evt,'in')"/>
                <use id="zoomminus" xlink:href="#zoomMin" x="42" y="9" onmousedown="handleZoom(evt,'out')"/>
                <use id="reset" xlink:href="#resetDef" x="30" y="36" onmousedown="handleReset()"/>
                <g id="arrowUp" xlink:href="#dirArrow" transform="translate(30 24)" onmousedown="handlePan(0,-1)">
                  <use xlink:href="#rim" fill="#404040">
                        <set attributeName="fill" to="#808080" begin="arrowUp.mouseover" end="arrowUp.mouseout"/>
                  </use>
                  <path fill="none" stroke="white" stroke-width="1.5" d="M0,-3.0v7 M-2.5,-0.5L0,-3.0L2.5,-0.5"/>
                </g>
                <g id="arrowRight" xlink:href="#dirArrow" transform="rotate(90) translate(36 -43)" onmousedown="handlePan(1,0)">
                  <use xlink:href="#rim" fill="#404040">
                        <set attributeName="fill" to="#808080" begin="arrowRight.mouseover" end="arrowRight.mouseout"/>
                  </use>
                  <path fill="none" stroke="white" stroke-width="1.5" d="M0,-3.0v7 M-2.5,-0.5L0,-3.0L2.5,-0.5"/>
                </g>
                <g id="arrowDown" xlink:href="#dirArrow" transform="rotate(180) translate(-30 -48)" onmousedown="handlePan(0,1)">
                  <use xlink:href="#rim" fill="#404040">
                        <set attributeName="fill" to="#808080" begin="arrowDown.mouseover" end="arrowDown.mouseout"/>
                  </use>
                  <path fill="none" stroke="white" stroke-width="1.5" d="M0,-3.0v7 M-2.5,-0.5L0,-3.0L2.5,-0.5"/>
                </g>
                <g id="arrowLeft" xlink:href="#dirArrow" transform="rotate(270) translate(-36 17)" onmousedown="handlePan(-1,0)">
                  <use xlink:href="#rim" fill="#404040">
                        <set attributeName="fill" to="#808080" begin="arrowLeft.mouseover" end="arrowLeft.mouseout"/>
                  </use>
                  <path fill="none" stroke="white" stroke-width="1.5" d="M0,-3.0v7 M-2.5,-0.5L0,-3.0L2.5,-0.5"/>
                </g>
        </g>
        <svg viewBox="0 0 15 15" width="100%" height="30px" preserveAspectRatio="xMaxYMin meet">
         <g id="arrow_out" transform="scale(0.3 0.3)">
          <a xlink:href="operations_8hpp__dep__incl_org.svg" target="_base">
           <rect id="button" ry="5" rx="5" y="6" x="6" height="38" width="38"
                fill="#f2f5e9" fill-opacity="0.5" stroke="#606060" stroke-width="1.0"/>
           <path id="arrow"
             d="M 11.500037,31.436501 C 11.940474,20.09759 22.043105,11.32322 32.158766,21.979434 L 37.068811,17.246167 C 37.068811,17.246167 37.088388,32 37.088388,32 L 22.160133,31.978069 C 22.160133,31.978069 26.997745,27.140456 26.997745,27.140456 C 18.528582,18.264221 13.291696,25.230495 11.500037,31.436501 z"
             style="fill:#404040;"/>
          </a>
         </g>
        </svg>
</svg>
