<?xml version="1.0" encoding="UTF-8" standalone="no"?>
<!DOCTYPE svg PUBLIC "-//W3C//DTD SVG 1.1//EN"
 "http://www.w3.org/Graphics/SVG/1.1/DTD/svg11.dtd">
<!-- Generated by graphviz version 2.43.0 (0)
 -->
<!-- Title: /home/ram/OmniTemplate/src/core/operations.hpp Pages: 1 -->
<svg width="1910pt" height="274pt"
 viewBox="0.00 0.00 1909.93 274.00" xmlns="http://www.w3.org/2000/svg" xmlns:xlink="http://www.w3.org/1999/xlink">
<g id="graph0" class="graph" transform="scale(1 1) rotate(0) translate(4 270)">
<title>/home/ram/OmniTemplate/src/core/operations.hpp</title>
<polygon fill="white" stroke="transparent" points="-4,4 -4,-270 1905.93,-270 1905.93,4 -4,4"/>
<!-- Node1 -->
<g id="node1" class="node">
<title>Node1</title>
<g id="a_node1"><a xlink:title=" ">
<polygon fill="#bfbfbf" stroke="black" points="1268,-235.5 1268,-265.5 1412,-265.5 1412,-235.5 1268,-235.5"/>
<text text-anchor="start" x="1276" y="-253.5" font-family="Helvetica,sans-Serif" font-size="10.00">/home/ram/OmniTemplate</text>
<text text-anchor="middle" x="1340" y="-242.5" font-family="Helvetica,sans-Serif" font-size="10.00">/src/core/operations.hpp</text>
</a>
</g>
</g>
<!-- Node2 -->
<g id="node2" class="node">
<title>Node2</title>
<g id="a_node2"><a xlink:href="range_8hpp.html" target="_top" xlink:title=" ">
<polygon fill="white" stroke="black" points="1307.5,-179.5 1307.5,-198.5 1372.5,-198.5 1372.5,-179.5 1307.5,-179.5"/>
<text text-anchor="middle" x="1340" y="-186.5" font-family="Helvetica,sans-Serif" font-size="10.00">range.hpp</text>
</a>
</g>
</g>
<!-- Node1&#45;&gt;Node2 -->
<g id="edge1" class="edge">
<title>Node1&#45;&gt;Node2</title>
<path fill="none" stroke="midnightblue" d="M1340,-235.4C1340,-227.47 1340,-217.46 1340,-208.86"/>
<polygon fill="midnightblue" stroke="midnightblue" points="1343.5,-208.66 1340,-198.66 1336.5,-208.66 1343.5,-208.66"/>
</g>
<!-- Node3 -->
<g id="node3" class="node">
<title>Node3</title>
<g id="a_node3"><a xlink:href="core_2all_8hpp.html" target="_top" xlink:title=" ">
<polygon fill="white" stroke="black" points="937,-123.5 937,-142.5 1011,-142.5 1011,-123.5 937,-123.5"/>
<text text-anchor="middle" x="974" y="-130.5" font-family="Helvetica,sans-Serif" font-size="10.00">core/all.hpp</text>
</a>
</g>
</g>
<!-- Node2&#45;&gt;Node3 -->
<g id="edge2" class="edge">
<title>Node2&#45;&gt;Node3</title>
<path fill="none" stroke="midnightblue" d="M1307.44,-183.76C1242.47,-174.69 1097,-153.28 1021.44,-141.72"/>
<polygon fill="midnightblue" stroke="midnightblue" points="1021.67,-138.22 1011.26,-140.16 1020.61,-145.14 1021.67,-138.22"/>
</g>
<!-- Node3&#45;&gt;Node1 -->
<g id="edge30" class="edge">
<title>Node3&#45;&gt;Node1</title>
<path fill="none" stroke="midnightblue" d="M1001.07,-142.54C1061.06,-161.47 1206.15,-207.26 1285.66,-232.35"/>
<polygon fill="midnightblue" stroke="midnightblue" points="1284.9,-235.78 1295.49,-235.45 1287,-229.11 1284.9,-235.78"/>
</g>
<!-- Node3&#45;&gt;Node2 -->
<g id="edge31" class="edge">
<title>Node3&#45;&gt;Node2</title>
<path fill="none" stroke="midnightblue" d="M1011.1,-138.87C1079.56,-148.48 1224.96,-169.9 1297.36,-181.01"/>
<polygon fill="midnightblue" stroke="midnightblue" points="1297.07,-184.51 1307.49,-182.58 1298.14,-177.59 1297.07,-184.51"/>
</g>
<!-- Node4 -->
<g id="node4" class="node">
<title>Node4</title>
<g id="a_node4"><a xlink:title=" ">
<polygon fill="white" stroke="#bfbfbf" points="0,-62 0,-81 64,-81 64,-62 0,-62"/>
<text text-anchor="middle" x="32" y="-69" font-family="Helvetica,sans-Serif" font-size="10.00">algorithm</text>
</a>
</g>
</g>
<!-- Node3&#45;&gt;Node4 -->
<g id="edge3" class="edge">
<title>Node3&#45;&gt;Node4</title>
<path fill="none" stroke="midnightblue" d="M936.85,-131.58C789.04,-129.67 242.5,-120.46 73,-87 69.49,-86.31 65.87,-85.37 62.3,-84.31"/>
<polygon fill="midnightblue" stroke="midnightblue" points="63.12,-80.89 52.53,-81.07 60.92,-87.54 63.12,-80.89"/>
</g>
<!-- Node5 -->
<g id="node5" class="node">
<title>Node5</title>
<g id="a_node5"><a xlink:title=" ">
<polygon fill="white" stroke="#bfbfbf" points="82,-62 82,-81 126,-81 126,-62 82,-62"/>
<text text-anchor="middle" x="104" y="-69" font-family="Helvetica,sans-Serif" font-size="10.00">bitset</text>
</a>
</g>
</g>
<!-- Node3&#45;&gt;Node5 -->
<g id="edge4" class="edge">
<title>Node3&#45;&gt;Node5</title>
<path fill="none" stroke="midnightblue" d="M936.68,-131.89C794.94,-131.17 290.11,-125.87 135,-87 133.01,-86.5 131,-85.87 129,-85.16"/>
<polygon fill="midnightblue" stroke="midnightblue" points="129.91,-81.75 119.34,-81.09 127.19,-88.2 129.91,-81.75"/>
</g>
<!-- Node6 -->
<g id="node6" class="node">
<title>Node6</title>
<g id="a_node6"><a xlink:title=" ">
<polygon fill="white" stroke="#bfbfbf" points="144,-62 144,-81 196,-81 196,-62 144,-62"/>
<text text-anchor="middle" x="170" y="-69" font-family="Helvetica,sans-Serif" font-size="10.00">cassert</text>
</a>
</g>
</g>
<!-- Node3&#45;&gt;Node6 -->
<g id="edge5" class="edge">
<title>Node3&#45;&gt;Node6</title>
<path fill="none" stroke="midnightblue" d="M936.67,-131.46C802.73,-129.27 346.75,-119.53 205,-87 202.33,-86.39 199.6,-85.59 196.9,-84.68"/>
<polygon fill="midnightblue" stroke="midnightblue" points="198.02,-81.36 187.43,-81.06 195.52,-87.9 198.02,-81.36"/>
</g>
<!-- Node7 -->
<g id="node7" class="node">
<title>Node7</title>
<g id="a_node7"><a xlink:title=" ">
<polygon fill="white" stroke="#bfbfbf" points="214,-62 214,-81 264,-81 264,-62 214,-62"/>
<text text-anchor="middle" x="239" y="-69" font-family="Helvetica,sans-Serif" font-size="10.00">chrono</text>
</a>
</g>
</g>
<!-- Node3&#45;&gt;Node7 -->
<g id="edge6" class="edge">
<title>Node3&#45;&gt;Node7</title>
<path fill="none" stroke="midnightblue" d="M936.95,-131.27C811.14,-128.54 400.98,-117.45 273,-87 270.49,-86.4 267.92,-85.63 265.39,-84.76"/>
<polygon fill="midnightblue" stroke="midnightblue" points="266.5,-81.44 255.91,-81.05 263.94,-87.96 266.5,-81.44"/>
</g>
<!-- Node8 -->
<g id="node8" class="node">
<title>Node8</title>
<g id="a_node8"><a xlink:title=" ">
<polygon fill="white" stroke="#bfbfbf" points="282,-62 282,-81 332,-81 332,-62 282,-62"/>
<text text-anchor="middle" x="307" y="-69" font-family="Helvetica,sans-Serif" font-size="10.00">climits</text>
</a>
</g>
</g>
<!-- Node3&#45;&gt;Node8 -->
<g id="edge7" class="edge">
<title>Node3&#45;&gt;Node8</title>
<path fill="none" stroke="midnightblue" d="M936.91,-130.97C819.23,-127.47 455.32,-114.62 341,-87 338.49,-86.39 335.93,-85.62 333.39,-84.74"/>
<polygon fill="midnightblue" stroke="midnightblue" points="334.5,-81.42 323.92,-81.02 331.94,-87.94 334.5,-81.42"/>
</g>
<!-- Node9 -->
<g id="node9" class="node">
<title>Node9</title>
<g id="a_node9"><a xlink:title=" ">
<polygon fill="white" stroke="#bfbfbf" points="350.5,-62 350.5,-81 409.5,-81 409.5,-62 350.5,-62"/>
<text text-anchor="middle" x="380" y="-69" font-family="Helvetica,sans-Serif" font-size="10.00">complex</text>
</a>
</g>
</g>
<!-- Node3&#45;&gt;Node9 -->
<g id="edge8" class="edge">
<title>Node3&#45;&gt;Node9</title>
<path fill="none" stroke="midnightblue" d="M936.7,-132.6C846.42,-133.26 609.5,-130.36 418,-87 415,-86.32 411.92,-85.45 408.87,-84.48"/>
<polygon fill="midnightblue" stroke="midnightblue" points="409.99,-81.16 399.39,-81.11 407.65,-87.76 409.99,-81.16"/>
</g>
<!-- Node10 -->
<g id="node10" class="node">
<title>Node10</title>
<g id="a_node10"><a xlink:title=" ">
<polygon fill="white" stroke="#bfbfbf" points="427.5,-62 427.5,-81 482.5,-81 482.5,-62 427.5,-62"/>
<text text-anchor="middle" x="455" y="-69" font-family="Helvetica,sans-Serif" font-size="10.00">fstream</text>
</a>
</g>
</g>
<!-- Node3&#45;&gt;Node10 -->
<g id="edge9" class="edge">
<title>Node3&#45;&gt;Node10</title>
<path fill="none" stroke="midnightblue" d="M936.74,-132.17C854.88,-131.77 653.67,-126.45 491,-87 488.33,-86.35 485.6,-85.54 482.89,-84.64"/>
<polygon fill="midnightblue" stroke="midnightblue" points="483.94,-81.3 473.35,-81.08 481.49,-87.86 483.94,-81.3"/>
</g>
<!-- Node11 -->
<g id="node11" class="node">
<title>Node11</title>
<g id="a_node11"><a xlink:title=" ">
<polygon fill="white" stroke="#bfbfbf" points="500.5,-62 500.5,-81 565.5,-81 565.5,-62 500.5,-62"/>
<text text-anchor="middle" x="533" y="-69" font-family="Helvetica,sans-Serif" font-size="10.00">functional</text>
</a>
</g>
</g>
<!-- Node3&#45;&gt;Node11 -->
<g id="edge10" class="edge">
<title>Node3&#45;&gt;Node11</title>
<path fill="none" stroke="midnightblue" d="M936.97,-130.54C865.96,-127.15 706.06,-116.63 575,-87 571.59,-86.23 568.06,-85.27 564.58,-84.23"/>
<polygon fill="midnightblue" stroke="midnightblue" points="565.56,-80.87 554.97,-81.1 563.4,-87.52 565.56,-80.87"/>
</g>
<!-- Node12 -->
<g id="node12" class="node">
<title>Node12</title>
<g id="a_node12"><a xlink:title=" ">
<polygon fill="white" stroke="#bfbfbf" points="584,-62 584,-81 644,-81 644,-62 584,-62"/>
<text text-anchor="middle" x="614" y="-69" font-family="Helvetica,sans-Serif" font-size="10.00">iostream</text>
</a>
</g>
</g>
<!-- Node3&#45;&gt;Node12 -->
<g id="edge11" class="edge">
<title>Node3&#45;&gt;Node12</title>
<path fill="none" stroke="midnightblue" d="M936.91,-129.42C876.62,-124.65 753.93,-112.52 653,-87 650.01,-86.25 646.94,-85.34 643.89,-84.36"/>
<polygon fill="midnightblue" stroke="midnightblue" points="644.98,-81.03 634.38,-81.02 642.66,-87.63 644.98,-81.03"/>
</g>
<!-- Node13 -->
<g id="node13" class="node">
<title>Node13</title>
<g id="a_node13"><a xlink:title=" ">
<polygon fill="white" stroke="#bfbfbf" points="662,-62 662,-81 700,-81 700,-62 662,-62"/>
<text text-anchor="middle" x="681" y="-69" font-family="Helvetica,sans-Serif" font-size="10.00">map</text>
</a>
</g>
</g>
<!-- Node3&#45;&gt;Node13 -->
<g id="edge12" class="edge">
<title>Node3&#45;&gt;Node13</title>
<path fill="none" stroke="midnightblue" d="M936.69,-129.32C884.57,-124.76 787.55,-113.29 709,-87 707.57,-86.52 706.13,-85.98 704.69,-85.39"/>
<polygon fill="midnightblue" stroke="midnightblue" points="705.99,-82.14 695.45,-81.06 703.02,-88.47 705.99,-82.14"/>
</g>
<!-- Node14 -->
<g id="node14" class="node">
<title>Node14</title>
<g id="a_node14"><a xlink:title=" ">
<polygon fill="white" stroke="#bfbfbf" points="718,-62 718,-81 774,-81 774,-62 718,-62"/>
<text text-anchor="middle" x="746" y="-69" font-family="Helvetica,sans-Serif" font-size="10.00">numeric</text>
</a>
</g>
</g>
<!-- Node3&#45;&gt;Node14 -->
<g id="edge13" class="edge">
<title>Node3&#45;&gt;Node14</title>
<path fill="none" stroke="midnightblue" d="M936.97,-124.9C898.18,-117.09 835.68,-103.44 783,-87 780.58,-86.24 778.09,-85.41 775.61,-84.53"/>
<polygon fill="midnightblue" stroke="midnightblue" points="776.76,-81.22 766.17,-81 774.31,-87.78 776.76,-81.22"/>
</g>
<!-- Node15 -->
<g id="node15" class="node">
<title>Node15</title>
<g id="a_node15"><a xlink:title=" ">
<polygon fill="white" stroke="#bfbfbf" points="792.5,-62 792.5,-81 839.5,-81 839.5,-62 792.5,-62"/>
<text text-anchor="middle" x="816" y="-69" font-family="Helvetica,sans-Serif" font-size="10.00">queue</text>
</a>
</g>
</g>
<!-- Node3&#45;&gt;Node15 -->
<g id="edge14" class="edge">
<title>Node3&#45;&gt;Node15</title>
<path fill="none" stroke="midnightblue" d="M948.43,-123.37C923.03,-114.66 883.06,-100.6 849,-87 847.4,-86.36 845.77,-85.69 844.12,-85.01"/>
<polygon fill="midnightblue" stroke="midnightblue" points="845.32,-81.72 834.75,-81.01 842.57,-88.15 845.32,-81.72"/>
</g>
<!-- Node16 -->
<g id="node16" class="node">
<title>Node16</title>
<g id="a_node16"><a xlink:title=" ">
<polygon fill="white" stroke="#bfbfbf" points="858,-62 858,-81 912,-81 912,-62 858,-62"/>
<text text-anchor="middle" x="885" y="-69" font-family="Helvetica,sans-Serif" font-size="10.00">random</text>
</a>
</g>
</g>
<!-- Node3&#45;&gt;Node16 -->
<g id="edge15" class="edge">
<title>Node3&#45;&gt;Node16</title>
<path fill="none" stroke="midnightblue" d="M961.25,-123.48C946.97,-113.93 923.6,-98.31 906.49,-86.87"/>
<polygon fill="midnightblue" stroke="midnightblue" points="907.99,-83.66 897.73,-81.01 904.1,-89.48 907.99,-83.66"/>
</g>
<!-- Node17 -->
<g id="node17" class="node">
<title>Node17</title>
<g id="a_node17"><a xlink:title=" ">
<polygon fill="white" stroke="#bfbfbf" points="930,-62 930,-81 962,-81 962,-62 930,-62"/>
<text text-anchor="middle" x="946" y="-69" font-family="Helvetica,sans-Serif" font-size="10.00">set</text>
</a>
</g>
</g>
<!-- Node3&#45;&gt;Node17 -->
<g id="edge16" class="edge">
<title>Node3&#45;&gt;Node17</title>
<path fill="none" stroke="midnightblue" d="M969.99,-123.48C965.91,-114.82 959.48,-101.15 954.3,-90.15"/>
<polygon fill="midnightblue" stroke="midnightblue" points="957.43,-88.57 950,-81.01 951.1,-91.55 957.43,-88.57"/>
</g>
<!-- Node18 -->
<g id="node18" class="node">
<title>Node18</title>
<g id="a_node18"><a xlink:title=" ">
<polygon fill="white" stroke="#bfbfbf" points="980.5,-62 980.5,-81 1023.5,-81 1023.5,-62 980.5,-62"/>
<text text-anchor="middle" x="1002" y="-69" font-family="Helvetica,sans-Serif" font-size="10.00">stack</text>
</a>
</g>
</g>
<!-- Node3&#45;&gt;Node18 -->
<g id="edge17" class="edge">
<title>Node3&#45;&gt;Node18</title>
<path fill="none" stroke="midnightblue" d="M978.01,-123.48C982.09,-114.82 988.52,-101.15 993.7,-90.15"/>
<polygon fill="midnightblue" stroke="midnightblue" points="996.9,-91.55 998,-81.01 990.57,-88.57 996.9,-91.55"/>
</g>
<!-- Node19 -->
<g id="node19" class="node">
<title>Node19</title>
<g id="a_node19"><a xlink:title=" ">
<polygon fill="white" stroke="#bfbfbf" points="1042,-62 1042,-81 1090,-81 1090,-62 1042,-62"/>
<text text-anchor="middle" x="1066" y="-69" font-family="Helvetica,sans-Serif" font-size="10.00">thread</text>
</a>
</g>
</g>
<!-- Node3&#45;&gt;Node19 -->
<g id="edge18" class="edge">
<title>Node3&#45;&gt;Node19</title>
<path fill="none" stroke="midnightblue" d="M987.18,-123.48C1002.07,-113.84 1026.54,-98.02 1044.27,-86.55"/>
<polygon fill="midnightblue" stroke="midnightblue" points="1046.35,-89.38 1052.84,-81.01 1042.55,-83.5 1046.35,-89.38"/>
</g>
<!-- Node20 -->
<g id="node20" class="node">
<title>Node20</title>
<g id="a_node20"><a xlink:title=" ">
<polygon fill="white" stroke="#bfbfbf" points="1108.5,-62 1108.5,-81 1177.5,-81 1177.5,-62 1108.5,-62"/>
<text text-anchor="middle" x="1143" y="-69" font-family="Helvetica,sans-Serif" font-size="10.00">type_traits</text>
</a>
</g>
</g>
<!-- Node3&#45;&gt;Node20 -->
<g id="edge19" class="edge">
<title>Node3&#45;&gt;Node20</title>
<path fill="none" stroke="midnightblue" d="M998.21,-123.48C1027.33,-113.22 1076.37,-95.96 1109.2,-84.4"/>
<polygon fill="midnightblue" stroke="midnightblue" points="1110.56,-87.63 1118.83,-81.01 1108.24,-81.03 1110.56,-87.63"/>
</g>
<!-- Node21 -->
<g id="node21" class="node">
<title>Node21</title>
<g id="a_node21"><a xlink:title=" ">
<polygon fill="white" stroke="#bfbfbf" points="1196,-62 1196,-81 1282,-81 1282,-62 1196,-62"/>
<text text-anchor="middle" x="1239" y="-69" font-family="Helvetica,sans-Serif" font-size="10.00">unordered_set</text>
</a>
</g>
</g>
<!-- Node3&#45;&gt;Node21 -->
<g id="edge20" class="edge">
<title>Node3&#45;&gt;Node21</title>
<path fill="none" stroke="midnightblue" d="M1011.1,-124.91C1053.73,-116.58 1125.69,-102.01 1187,-87 1191.15,-85.98 1195.47,-84.87 1199.76,-83.73"/>
<polygon fill="midnightblue" stroke="midnightblue" points="1200.93,-87.04 1209.66,-81.03 1199.09,-80.28 1200.93,-87.04"/>
</g>
<!-- Node22 -->
<g id="node22" class="node">
<title>Node22</title>
<g id="a_node22"><a xlink:title=" ">
<polygon fill="white" stroke="#bfbfbf" points="1300.5,-62 1300.5,-81 1345.5,-81 1345.5,-62 1300.5,-62"/>
<text text-anchor="middle" x="1323" y="-69" font-family="Helvetica,sans-Serif" font-size="10.00">utility</text>
</a>
</g>
</g>
<!-- Node3&#45;&gt;Node22 -->
<g id="edge21" class="edge">
<title>Node3&#45;&gt;Node22</title>
<path fill="none" stroke="midnightblue" d="M1011.33,-130.14C1071.34,-126.38 1192.53,-115.66 1291,-87 1292.93,-86.44 1294.9,-85.78 1296.86,-85.06"/>
<polygon fill="midnightblue" stroke="midnightblue" points="1298.51,-88.16 1306.4,-81.1 1295.82,-81.7 1298.51,-88.16"/>
</g>
<!-- Node23 -->
<g id="node23" class="node">
<title>Node23</title>
<g id="a_node23"><a xlink:title=" ">
<polygon fill="white" stroke="#bfbfbf" points="1363.5,-62 1363.5,-81 1410.5,-81 1410.5,-62 1363.5,-62"/>
<text text-anchor="middle" x="1387" y="-69" font-family="Helvetica,sans-Serif" font-size="10.00">vector</text>
</a>
</g>
</g>
<!-- Node3&#45;&gt;Node23 -->
<g id="edge22" class="edge">
<title>Node3&#45;&gt;Node23</title>
<path fill="none" stroke="midnightblue" d="M1011.24,-131.38C1080.28,-129.4 1232.28,-121.16 1355,-87 1357.15,-86.4 1359.34,-85.68 1361.51,-84.88"/>
<polygon fill="midnightblue" stroke="midnightblue" points="1362.87,-88.1 1370.76,-81.03 1360.18,-81.64 1362.87,-88.1"/>
</g>
<!-- Node24 -->
<g id="node24" class="node">
<title>Node24</title>
<g id="a_node24"><a xlink:title=" ">
<polygon fill="white" stroke="#bfbfbf" points="1428.5,-56.5 1428.5,-86.5 1545.5,-86.5 1545.5,-56.5 1428.5,-56.5"/>
<text text-anchor="start" x="1436.5" y="-74.5" font-family="Helvetica,sans-Serif" font-size="10.00">experimental/source</text>
<text text-anchor="middle" x="1487" y="-63.5" font-family="Helvetica,sans-Serif" font-size="10.00">_location</text>
</a>
</g>
</g>
<!-- Node3&#45;&gt;Node24 -->
<g id="edge23" class="edge">
<title>Node3&#45;&gt;Node24</title>
<path fill="none" stroke="midnightblue" d="M1011.19,-129.67C1086.29,-124.66 1261.59,-111.41 1417.97,-87.22"/>
<polygon fill="midnightblue" stroke="midnightblue" points="1418.91,-90.61 1428.24,-85.61 1417.82,-83.7 1418.91,-90.61"/>
</g>
<!-- Node25 -->
<g id="node25" class="node">
<title>Node25</title>
<g id="a_node25"><a xlink:title=" ">
<polygon fill="white" stroke="#bfbfbf" points="1563.5,-62 1563.5,-81 1684.5,-81 1684.5,-62 1563.5,-62"/>
<text text-anchor="middle" x="1624" y="-69" font-family="Helvetica,sans-Serif" font-size="10.00">experimental/iterator</text>
</a>
</g>
</g>
<!-- Node3&#45;&gt;Node25 -->
<g id="edge24" class="edge">
<title>Node3&#45;&gt;Node25</title>
<path fill="none" stroke="midnightblue" d="M1011.23,-130.79C1103.67,-127.43 1350.95,-116.22 1555,-87 1562.41,-85.94 1570.23,-84.56 1577.82,-83.07"/>
<polygon fill="midnightblue" stroke="midnightblue" points="1578.53,-86.49 1587.63,-81.07 1577.13,-79.64 1578.53,-86.49"/>
</g>
<!-- Node26 -->
<g id="node26" class="node">
<title>Node26</title>
<g id="a_node26"><a xlink:href="debug_8hpp.html" target="_top" xlink:title=" ">
<polygon fill="white" stroke="black" points="1798,-0.5 1798,-19.5 1866,-19.5 1866,-0.5 1798,-0.5"/>
<text text-anchor="middle" x="1832" y="-7.5" font-family="Helvetica,sans-Serif" font-size="10.00">debug.hpp</text>
</a>
</g>
</g>
<!-- Node3&#45;&gt;Node26 -->
<g id="edge25" class="edge">
<title>Node3&#45;&gt;Node26</title>
<path fill="none" stroke="midnightblue" d="M1011.24,-130.98C1149.68,-127.01 1630.07,-111.58 1694,-87 1714.67,-79.05 1714.11,-67.56 1733,-56 1754.22,-43.02 1779.81,-31.48 1799.67,-23.34"/>
<polygon fill="midnightblue" stroke="midnightblue" points="1801.21,-26.49 1809.19,-19.51 1798.6,-19.99 1801.21,-26.49"/>
</g>
<!-- Node27 -->
<g id="node27" class="node">
<title>Node27</title>
<g id="a_node27"><a xlink:href="io_8hpp.html" target="_top" xlink:title=" ">
<polygon fill="white" stroke="black" points="1741.5,-62 1741.5,-81 1788.5,-81 1788.5,-62 1741.5,-62"/>
<text text-anchor="middle" x="1765" y="-69" font-family="Helvetica,sans-Serif" font-size="10.00">io.hpp</text>
</a>
</g>
</g>
<!-- Node3&#45;&gt;Node27 -->
<g id="edge28" class="edge">
<title>Node3&#45;&gt;Node27</title>
<path fill="none" stroke="midnightblue" d="M1011.43,-131.27C1143.63,-128.45 1588.09,-116.91 1727,-87 1730.08,-86.34 1733.23,-85.47 1736.35,-84.48"/>
<polygon fill="midnightblue" stroke="midnightblue" points="1737.76,-87.69 1746.01,-81.04 1735.42,-81.09 1737.76,-87.69"/>
</g>
<!-- Node28 -->
<g id="node28" class="node">
<title>Node28</title>
<g id="a_node28"><a xlink:href="utility_8hpp.html" target="_top" xlink:title=" ">
<polygon fill="white" stroke="black" points="1806.5,-62 1806.5,-81 1871.5,-81 1871.5,-62 1806.5,-62"/>
<text text-anchor="middle" x="1839" y="-69" font-family="Helvetica,sans-Serif" font-size="10.00">utility.hpp</text>
</a>
</g>
</g>
<!-- Node3&#45;&gt;Node28 -->
<g id="edge32" class="edge">
<title>Node3&#45;&gt;Node28</title>
<path fill="none" stroke="midnightblue" d="M1011.02,-131.38C1150.51,-128.82 1644.16,-117.74 1798,-87 1801.51,-86.3 1805.13,-85.36 1808.7,-84.29"/>
<polygon fill="midnightblue" stroke="midnightblue" points="1810.08,-87.52 1818.47,-81.05 1807.87,-80.88 1810.08,-87.52"/>
</g>
<!-- Node26&#45;&gt;Node1 -->
<g id="edge26" class="edge">
<title>Node26&#45;&gt;Node1</title>
<path fill="none" stroke="midnightblue" d="M1853.81,-19.55C1868.94,-26.78 1887.95,-38.74 1897,-56 1903.39,-68.2 1903.66,-74.94 1897,-87 1874.41,-127.91 1851.18,-125.12 1808,-143 1678.76,-196.53 1517.76,-225.65 1422.24,-239.36"/>
<polygon fill="midnightblue" stroke="midnightblue" points="1421.47,-235.93 1412.06,-240.8 1422.45,-242.86 1421.47,-235.93"/>
</g>
<!-- Node26&#45;&gt;Node2 -->
<g id="edge27" class="edge">
<title>Node26&#45;&gt;Node2</title>
<path fill="none" stroke="midnightblue" d="M1844.77,-19.6C1864.78,-34.12 1899.41,-64.13 1881,-87 1818.62,-164.5 1499.73,-182.75 1382.94,-186.86"/>
<polygon fill="midnightblue" stroke="midnightblue" points="1382.48,-183.37 1372.6,-187.2 1382.71,-190.37 1382.48,-183.37"/>
</g>
<!-- Node27&#45;&gt;Node26 -->
<g id="edge29" class="edge">
<title>Node27&#45;&gt;Node26</title>
<path fill="none" stroke="midnightblue" d="M1774.6,-61.98C1785.05,-52.7 1801.97,-37.67 1814.74,-26.33"/>
<polygon fill="midnightblue" stroke="midnightblue" points="1817.27,-28.77 1822.42,-19.51 1812.62,-23.53 1817.27,-28.77"/>
</g>
<!-- Node28&#45;&gt;Node2 -->
<g id="edge33" class="edge">
<title>Node28&#45;&gt;Node2</title>
<path fill="none" stroke="midnightblue" d="M1816.17,-81.13C1810.3,-83.2 1803.95,-85.3 1798,-87 1647.1,-130.15 1463.78,-165.58 1382.42,-180.45"/>
<polygon fill="midnightblue" stroke="midnightblue" points="1381.76,-177.01 1372.55,-182.25 1383.01,-183.9 1381.76,-177.01"/>
</g>
</g>
</svg>
