<?xml version="1.0" encoding="UTF-8" standalone="no"?>
<!DOCTYPE svg PUBLIC "-//W3C//DTD SVG 1.1//EN"
 "http://www.w3.org/Graphics/SVG/1.1/DTD/svg11.dtd">
<!-- Generated by graphviz version 2.43.0 (0)
 -->
<!-- Title: /home/ram/OmniTemplate/operations.hpp Pages: 1 -->
<!--zoomable 575 -->
<svg id="main" version="1.1" xmlns="http://www.w3.org/2000/svg" xmlns:xlink="http://www.w3.org/1999/xlink" xml:space="preserve" onload="init(evt)">
<style type="text/css"><![CDATA[
.edge:hover path { stroke: red; }
.edge:hover polygon { stroke: red; fill: red; }
]]></style>
<script type="text/javascript"><![CDATA[
var edges = document.getElementsByTagName('g');
if (edges && edges.length) {
  for (var i=0;i<edges.length;i++) {
    if (edges[i].id.substr(0,4)=='edge') {
      edges[i].setAttribute('class','edge');
    }
  }
}
]]></script>
        <defs>
                <circle id="rim" cx="0" cy="0" r="7"/>
                <circle id="rim2" cx="0" cy="0" r="3.5"/>
                <g id="zoomPlus">
                        <use xlink:href="#rim" fill="#404040">
                                <set attributeName="fill" to="#808080" begin="zoomplus.mouseover" end="zoomplus.mouseout"/>
                        </use>
                        <path d="M-4,0h8M0,-4v8" fill="none" stroke="white" stroke-width="1.5" pointer-events="none"/>
                </g>
                <g id="zoomMin">
                        <use xlink:href="#rim" fill="#404040">
                                <set attributeName="fill" to="#808080" begin="zoomminus.mouseover" end="zoomminus.mouseout"/>
                        </use>
                        <path d="M-4,0h8" fill="none" stroke="white" stroke-width="1.5" pointer-events="none"/>
                </g>
                <g id="dirArrow">
                        <path fill="none" stroke="white" stroke-width="1.5" d="M0,-3.0v7 M-2.5,-0.5L0,-3.0L2.5,-0.5"/>
                </g>
               <g id="resetDef">
                       <use xlink:href="#rim2" fill="#404040">
                               <set attributeName="fill" to="#808080" begin="reset.mouseover" end="reset.mouseout"/>
                       </use>
               </g>
        </defs>

<script type="text/javascript">
var viewWidth = 2018;
var viewHeight = 575;
var sectionId = 'dynsection-1';
</script>
<script xlink:href="svgpan.js"/>
<svg id="graph" class="graph">
<g id="viewport">
<title>/home/ram/OmniTemplate/operations.hpp</title>
<polygon fill="white" stroke="transparent" points="-4,4 -4,-571 2014,-571 2014,4 -4,4"/>
<!-- Node1 -->
<g id="node1" class="node">
<title>Node1</title>
<g id="a_node1"><a xlink:title=" ">
<polygon fill="#bfbfbf" stroke="black" points="316,-536.5 316,-566.5 460,-566.5 460,-536.5 316,-536.5"/>
<text text-anchor="start" x="324" y="-554.5" font-family="Helvetica,sans-Serif" font-size="10.00">/home/ram/OmniTemplate</text>
<text text-anchor="middle" x="388" y="-543.5" font-family="Helvetica,sans-Serif" font-size="10.00">/operations.hpp</text>
</a>
</g>
</g>
<!-- Node2 -->
<g id="node2" class="node">
<title>Node2</title>
<g id="a_node2"><a xlink:href="debug_8hpp.html" target="_top" xlink:title=" ">
<polygon fill="white" stroke="black" points="316,-469.5 316,-499.5 460,-499.5 460,-469.5 316,-469.5"/>
<text text-anchor="start" x="324" y="-487.5" font-family="Helvetica,sans-Serif" font-size="10.00">/home/ram/OmniTemplate</text>
<text text-anchor="middle" x="388" y="-476.5" font-family="Helvetica,sans-Serif" font-size="10.00">/debug.hpp</text>
</a>
</g>
</g>
<!-- Node1&#45;&gt;Node2 -->
<g id="edge1" class="edge">
<title>Node1&#45;&gt;Node2</title>
<path fill="none" stroke="midnightblue" d="M388,-526.11C388,-517.15 388,-507.32 388,-499.58"/>
<polygon fill="midnightblue" stroke="midnightblue" points="384.5,-526.4 388,-536.4 391.5,-526.4 384.5,-526.4"/>
</g>
<!-- Node3 -->
<g id="node3" class="node">
<title>Node3</title>
<g id="a_node3"><a xlink:href="core_8hpp.html" target="_top" xlink:title=" ">
<polygon fill="white" stroke="black" points="776,-402.5 776,-432.5 920,-432.5 920,-402.5 776,-402.5"/>
<text text-anchor="start" x="784" y="-420.5" font-family="Helvetica,sans-Serif" font-size="10.00">/home/ram/OmniTemplate</text>
<text text-anchor="middle" x="848" y="-409.5" font-family="Helvetica,sans-Serif" font-size="10.00">/core.hpp</text>
</a>
</g>
</g>
<!-- Node1&#45;&gt;Node3 -->
<g id="edge62" class="edge">
<title>Node1&#45;&gt;Node3</title>
<path fill="none" stroke="midnightblue" d="M446.46,-533.72C538.04,-507.45 713.66,-457.05 799.02,-432.56"/>
<polygon fill="midnightblue" stroke="midnightblue" points="445.44,-530.38 436.79,-536.5 447.37,-537.1 445.44,-530.38"/>
</g>
<!-- Node2&#45;&gt;Node3 -->
<g id="edge2" class="edge">
<title>Node2&#45;&gt;Node3</title>
<path fill="none" stroke="midnightblue" d="M470.22,-471.88C557.19,-459.59 693.05,-440.39 775.96,-428.68"/>
<polygon fill="midnightblue" stroke="midnightblue" points="469.54,-468.44 460.13,-473.31 470.52,-475.37 469.54,-468.44"/>
</g>
<!-- Node4 -->
<g id="node4" class="node">
<title>Node4</title>
<g id="a_node4"><a xlink:href="2sat_8hpp.html" target="_top" xlink:title=" ">
<polygon fill="white" stroke="black" points="238,-134.5 238,-164.5 382,-164.5 382,-134.5 238,-134.5"/>
<text text-anchor="start" x="246" y="-152.5" font-family="Helvetica,sans-Serif" font-size="10.00">/home/ram/OmniTemplate</text>
<text text-anchor="middle" x="310" y="-141.5" font-family="Helvetica,sans-Serif" font-size="10.00">/2sat.hpp</text>
</a>
</g>
</g>
<!-- Node3&#45;&gt;Node4 -->
<g id="edge3" class="edge">
<title>Node3&#45;&gt;Node4</title>
<path fill="none" stroke="midnightblue" d="M765.8,-412.8C660.03,-407 482.9,-393.47 424,-366 405.76,-357.5 408.07,-345.66 391,-335 352.7,-311.08 328.66,-330.18 296,-299 263.15,-267.63 251.31,-243.63 267,-201 272.25,-186.74 283.52,-173.76 293.2,-164.53"/>
<polygon fill="midnightblue" stroke="midnightblue" points="765.63,-416.3 775.8,-413.34 766.01,-409.31 765.63,-416.3"/>
</g>
<!-- Node5 -->
<g id="node5" class="node">
<title>Node5</title>
<g id="a_node5"><a xlink:href="template_8hpp.html" target="_top" xlink:title=" ">
<polygon fill="white" stroke="black" points="890,-67.5 890,-97.5 1034,-97.5 1034,-67.5 890,-67.5"/>
<text text-anchor="start" x="898" y="-85.5" font-family="Helvetica,sans-Serif" font-size="10.00">/home/ram/OmniTemplate</text>
<text text-anchor="middle" x="962" y="-74.5" font-family="Helvetica,sans-Serif" font-size="10.00">/template.hpp</text>
</a>
</g>
</g>
<!-- Node3&#45;&gt;Node5 -->
<g id="edge57" class="edge">
<title>Node3&#45;&gt;Node5</title>
<path fill="none" stroke="midnightblue" d="M765.72,-415.1C606.59,-411.64 268.78,-400.3 229,-366 200.83,-341.71 210,-321.69 210,-284.5 210,-284.5 210,-284.5 210,-215.5 210,-178.31 200.68,-158.11 229,-134 278.54,-91.83 714.59,-84.8 889.69,-83.68"/>
<polygon fill="midnightblue" stroke="midnightblue" points="765.86,-418.61 775.94,-415.32 766.01,-411.61 765.86,-418.61"/>
</g>
<!-- Node7 -->
<g id="node7" class="node">
<title>Node7</title>
<g id="a_node7"><a xlink:href="my__int_8hpp.html" target="_top" xlink:title=" ">
<polygon fill="white" stroke="black" points="238,-335.5 238,-365.5 382,-365.5 382,-335.5 238,-335.5"/>
<text text-anchor="start" x="246" y="-353.5" font-family="Helvetica,sans-Serif" font-size="10.00">/home/ram/OmniTemplate</text>
<text text-anchor="middle" x="310" y="-342.5" font-family="Helvetica,sans-Serif" font-size="10.00">/my_int.hpp</text>
</a>
</g>
</g>
<!-- Node3&#45;&gt;Node7 -->
<g id="edge6" class="edge">
<title>Node3&#45;&gt;Node7</title>
<path fill="none" stroke="midnightblue" d="M765.72,-409.33C673.22,-400.53 518.9,-384.47 387,-366 385.35,-365.77 383.68,-365.53 382.01,-365.29"/>
<polygon fill="midnightblue" stroke="midnightblue" points="765.57,-412.83 775.86,-410.29 766.23,-405.86 765.57,-412.83"/>
</g>
<!-- Node8 -->
<g id="node8" class="node">
<title>Node8</title>
<g id="a_node8"><a xlink:href="range_8hpp.html" target="_top" xlink:title=" ">
<polygon fill="white" stroke="black" points="0,-335.5 0,-365.5 144,-365.5 144,-335.5 0,-335.5"/>
<text text-anchor="start" x="8" y="-353.5" font-family="Helvetica,sans-Serif" font-size="10.00">/home/ram/OmniTemplate</text>
<text text-anchor="middle" x="72" y="-342.5" font-family="Helvetica,sans-Serif" font-size="10.00">/range.hpp</text>
</a>
</g>
</g>
<!-- Node3&#45;&gt;Node8 -->
<g id="edge8" class="edge">
<title>Node3&#45;&gt;Node8</title>
<path fill="none" stroke="midnightblue" d="M765.57,-413.24C634.44,-407.28 370.76,-392.75 149,-366 147.5,-365.82 145.98,-365.63 144.45,-365.43"/>
<polygon fill="midnightblue" stroke="midnightblue" points="765.78,-416.75 775.93,-413.7 766.09,-409.76 765.78,-416.75"/>
</g>
<!-- Node10 -->
<g id="node10" class="node">
<title>Node10</title>
<g id="a_node10"><a xlink:href="graph__theory_8hpp.html" target="_top" xlink:title=" ">
<polygon fill="white" stroke="black" points="276,-201.5 276,-231.5 420,-231.5 420,-201.5 276,-201.5"/>
<text text-anchor="start" x="284" y="-219.5" font-family="Helvetica,sans-Serif" font-size="10.00">/home/ram/OmniTemplate</text>
<text text-anchor="middle" x="348" y="-208.5" font-family="Helvetica,sans-Serif" font-size="10.00">/graph_theory.hpp</text>
</a>
</g>
</g>
<!-- Node3&#45;&gt;Node10 -->
<g id="edge15" class="edge">
<title>Node3&#45;&gt;Node10</title>
<path fill="none" stroke="midnightblue" d="M765.81,-411.72C692.51,-405.86 582.89,-393.11 491,-366 459.53,-356.71 454.67,-346.67 424,-335 372.36,-315.35 337.93,-343.37 305,-299 288.79,-277.16 313.07,-248.39 331.21,-231.52"/>
<polygon fill="midnightblue" stroke="midnightblue" points="765.67,-415.22 775.91,-412.51 766.21,-408.24 765.67,-415.22"/>
</g>
<!-- Node11 -->
<g id="node11" class="node">
<title>Node11</title>
<g id="a_node11"><a xlink:href="dsu_8hpp.html" target="_top" xlink:title=" ">
<polygon fill="white" stroke="black" points="314,-268.5 314,-298.5 458,-298.5 458,-268.5 314,-268.5"/>
<text text-anchor="start" x="322" y="-286.5" font-family="Helvetica,sans-Serif" font-size="10.00">/home/ram/OmniTemplate</text>
<text text-anchor="middle" x="386" y="-275.5" font-family="Helvetica,sans-Serif" font-size="10.00">/dsu.hpp</text>
</a>
</g>
</g>
<!-- Node3&#45;&gt;Node11 -->
<g id="edge18" class="edge">
<title>Node3&#45;&gt;Node11</title>
<path fill="none" stroke="midnightblue" d="M765.95,-406.23C711.14,-398.17 637.84,-385.1 575,-366 515.34,-347.87 449.2,-316.59 413.13,-298.51"/>
<polygon fill="midnightblue" stroke="midnightblue" points="765.56,-409.71 775.96,-407.67 766.56,-402.78 765.56,-409.71"/>
</g>
<!-- Node12 -->
<g id="node12" class="node">
<title>Node12</title>
<g id="a_node12"><a xlink:href="linear__algebra_8hpp.html" target="_top" xlink:title=" ">
<polygon fill="white" stroke="black" points="476,-268.5 476,-298.5 620,-298.5 620,-268.5 476,-268.5"/>
<text text-anchor="start" x="484" y="-286.5" font-family="Helvetica,sans-Serif" font-size="10.00">/home/ram/OmniTemplate</text>
<text text-anchor="middle" x="548" y="-275.5" font-family="Helvetica,sans-Serif" font-size="10.00">/linear_algebra.hpp</text>
</a>
</g>
</g>
<!-- Node3&#45;&gt;Node12 -->
<g id="edge21" class="edge">
<title>Node3&#45;&gt;Node12</title>
<path fill="none" stroke="midnightblue" d="M766,-412.52C718.36,-407.01 658.87,-394.42 613,-366 586.08,-349.32 565.59,-317.36 555.32,-298.81"/>
<polygon fill="midnightblue" stroke="midnightblue" points="765.66,-416 775.98,-413.59 766.41,-409.04 765.66,-416"/>
</g>
<!-- Node13 -->
<g id="node13" class="node">
<title>Node13</title>
<g id="a_node13"><a xlink:href="modulo_8hpp.html" target="_top" xlink:title=" ">
<polygon fill="white" stroke="black" points="622,-335.5 622,-365.5 766,-365.5 766,-335.5 622,-335.5"/>
<text text-anchor="start" x="630" y="-353.5" font-family="Helvetica,sans-Serif" font-size="10.00">/home/ram/OmniTemplate</text>
<text text-anchor="middle" x="694" y="-342.5" font-family="Helvetica,sans-Serif" font-size="10.00">/modulo.hpp</text>
</a>
</g>
</g>
<!-- Node3&#45;&gt;Node13 -->
<g id="edge24" class="edge">
<title>Node3&#45;&gt;Node13</title>
<path fill="none" stroke="midnightblue" d="M805.13,-398.41C780.55,-388.03 750.14,-375.2 727.35,-365.58"/>
<polygon fill="midnightblue" stroke="midnightblue" points="804.01,-401.73 814.58,-402.4 806.73,-395.28 804.01,-401.73"/>
</g>
<!-- Node14 -->
<g id="node14" class="node">
<title>Node14</title>
<g id="a_node14"><a xlink:href="number__theory_8hpp.html" target="_top" xlink:title=" ">
<polygon fill="white" stroke="black" points="676,-268.5 676,-298.5 820,-298.5 820,-268.5 676,-268.5"/>
<text text-anchor="start" x="684" y="-286.5" font-family="Helvetica,sans-Serif" font-size="10.00">/home/ram/OmniTemplate</text>
<text text-anchor="middle" x="748" y="-275.5" font-family="Helvetica,sans-Serif" font-size="10.00">/number_theory.hpp</text>
</a>
</g>
</g>
<!-- Node3&#45;&gt;Node14 -->
<g id="edge44" class="edge">
<title>Node3&#45;&gt;Node14</title>
<path fill="none" stroke="midnightblue" d="M831.1,-394.19C810.39,-366.86 775.94,-321.38 758.62,-298.52"/>
<polygon fill="midnightblue" stroke="midnightblue" points="828.47,-396.52 837.3,-402.37 834.05,-392.29 828.47,-396.52"/>
</g>
<!-- Node15 -->
<g id="node15" class="node">
<title>Node15</title>
<g id="a_node15"><a xlink:href="big__integer_8hpp.html" target="_top" xlink:title=" ">
<polygon fill="white" stroke="black" points="590,-201.5 590,-231.5 734,-231.5 734,-201.5 590,-201.5"/>
<text text-anchor="start" x="598" y="-219.5" font-family="Helvetica,sans-Serif" font-size="10.00">/home/ram/OmniTemplate</text>
<text text-anchor="middle" x="662" y="-208.5" font-family="Helvetica,sans-Serif" font-size="10.00">/big_integer.hpp</text>
</a>
</g>
</g>
<!-- Node3&#45;&gt;Node15 -->
<g id="edge29" class="edge">
<title>Node3&#45;&gt;Node15</title>
<path fill="none" stroke="midnightblue" d="M852.24,-392.34C856.44,-360.08 858.56,-302.94 829,-268 816.28,-252.97 773.42,-240.18 734.3,-231.23"/>
<polygon fill="midnightblue" stroke="midnightblue" points="848.78,-391.86 850.78,-402.26 855.7,-392.88 848.78,-391.86"/>
</g>
<!-- Node16 -->
<g id="node16" class="node">
<title>Node16</title>
<g id="a_node16"><a xlink:href="combinatorics_8hpp.html" target="_top" xlink:title=" ">
<polygon fill="white" stroke="black" points="690,-134.5 690,-164.5 834,-164.5 834,-134.5 690,-134.5"/>
<text text-anchor="start" x="698" y="-152.5" font-family="Helvetica,sans-Serif" font-size="10.00">/home/ram/OmniTemplate</text>
<text text-anchor="middle" x="762" y="-141.5" font-family="Helvetica,sans-Serif" font-size="10.00">/combinatorics.hpp</text>
</a>
</g>
</g>
<!-- Node3&#45;&gt;Node16 -->
<g id="edge31" class="edge">
<title>Node3&#45;&gt;Node16</title>
<path fill="none" stroke="midnightblue" d="M859.35,-393.21C862.85,-384.84 866.25,-375.19 868,-366 870.58,-352.47 869.71,-348.67 868,-335 864.19,-304.52 870.13,-292.04 851,-268 829.22,-240.63 802.52,-259.59 781,-232 765.63,-212.3 762.34,-182.28 761.83,-164.7"/>
<polygon fill="midnightblue" stroke="midnightblue" points="856.15,-391.79 855.28,-402.35 862.54,-394.64 856.15,-391.79"/>
</g>
<!-- Node17 -->
<g id="node17" class="node">
<title>Node17</title>
<g id="a_node17"><a xlink:href="coroutine_8hpp.html" target="_top" xlink:title=" ">
<polygon fill="white" stroke="black" points="790,-201.5 790,-231.5 934,-231.5 934,-201.5 790,-201.5"/>
<text text-anchor="start" x="798" y="-219.5" font-family="Helvetica,sans-Serif" font-size="10.00">/home/ram/OmniTemplate</text>
<text text-anchor="middle" x="862" y="-208.5" font-family="Helvetica,sans-Serif" font-size="10.00">/coroutine.hpp</text>
</a>
</g>
</g>
<!-- Node3&#45;&gt;Node17 -->
<g id="edge33" class="edge">
<title>Node3&#45;&gt;Node17</title>
<path fill="none" stroke="midnightblue" d="M877.21,-395.76C886.27,-387.63 895.15,-377.48 900,-366 916.96,-325.88 913.81,-309.31 900,-268 895.41,-254.26 885.45,-241.27 876.88,-231.9"/>
<polygon fill="midnightblue" stroke="midnightblue" points="874.72,-393.28 869.3,-402.38 879.21,-398.65 874.72,-393.28"/>
</g>
<!-- Node18 -->
<g id="node18" class="node">
<title>Node18</title>
<g id="a_node18"><a xlink:href="fft_8hpp.html" target="_top" xlink:title=" ">
<polygon fill="white" stroke="black" points="890,-134.5 890,-164.5 1034,-164.5 1034,-134.5 890,-134.5"/>
<text text-anchor="start" x="898" y="-152.5" font-family="Helvetica,sans-Serif" font-size="10.00">/home/ram/OmniTemplate</text>
<text text-anchor="middle" x="962" y="-141.5" font-family="Helvetica,sans-Serif" font-size="10.00">/fft.hpp</text>
</a>
</g>
</g>
<!-- Node3&#45;&gt;Node18 -->
<g id="edge35" class="edge">
<title>Node3&#45;&gt;Node18</title>
<path fill="none" stroke="midnightblue" d="M885.62,-396.87C897.66,-388.83 909.95,-378.46 918,-366 960.58,-300.09 963.15,-201.13 962.51,-164.65"/>
<polygon fill="midnightblue" stroke="midnightblue" points="883.56,-394.03 876.95,-402.31 887.28,-399.96 883.56,-394.03"/>
</g>
<!-- Node19 -->
<g id="node19" class="node">
<title>Node19</title>
<g id="a_node19"><a xlink:href="geometry_8hpp.html" target="_top" xlink:title=" ">
<polygon fill="white" stroke="black" points="990,-201.5 990,-231.5 1134,-231.5 1134,-201.5 990,-201.5"/>
<text text-anchor="start" x="998" y="-219.5" font-family="Helvetica,sans-Serif" font-size="10.00">/home/ram/OmniTemplate</text>
<text text-anchor="middle" x="1062" y="-208.5" font-family="Helvetica,sans-Serif" font-size="10.00">/geometry.hpp</text>
</a>
</g>
</g>
<!-- Node3&#45;&gt;Node19 -->
<g id="edge37" class="edge">
<title>Node3&#45;&gt;Node19</title>
<path fill="none" stroke="midnightblue" d="M920.54,-398.99C940.38,-391.43 960.62,-380.81 976,-366 1010.26,-333.01 993.76,-308.31 1019,-268 1027.31,-254.73 1038.93,-241.3 1047.99,-231.64"/>
<polygon fill="midnightblue" stroke="midnightblue" points="919.1,-395.79 910.86,-402.46 921.46,-402.38 919.1,-395.79"/>
</g>
<!-- Node20 -->
<g id="node20" class="node">
<title>Node20</title>
<g id="a_node20"><a xlink:href="main_8hpp.html" target="_top" xlink:title=" ">
<polygon fill="white" stroke="black" points="1028,-268.5 1028,-298.5 1172,-298.5 1172,-268.5 1028,-268.5"/>
<text text-anchor="start" x="1036" y="-286.5" font-family="Helvetica,sans-Serif" font-size="10.00">/home/ram/OmniTemplate</text>
<text text-anchor="middle" x="1100" y="-275.5" font-family="Helvetica,sans-Serif" font-size="10.00">/main.hpp</text>
</a>
</g>
</g>
<!-- Node3&#45;&gt;Node20 -->
<g id="edge39" class="edge">
<title>Node3&#45;&gt;Node20</title>
<path fill="none" stroke="midnightblue" d="M929.39,-399.81C957.38,-392.01 988.15,-381.04 1014,-366 1044.94,-348 1073.55,-316.82 1088.7,-298.69"/>
<polygon fill="midnightblue" stroke="midnightblue" points="928.37,-396.46 919.62,-402.43 930.19,-403.22 928.37,-396.46"/>
</g>
<!-- Node21 -->
<g id="node21" class="node">
<title>Node21</title>
<g id="a_node21"><a xlink:href="time_8hpp.html" target="_top" xlink:title=" ">
<polygon fill="white" stroke="black" points="1066,-335.5 1066,-365.5 1210,-365.5 1210,-335.5 1066,-335.5"/>
<text text-anchor="start" x="1074" y="-353.5" font-family="Helvetica,sans-Serif" font-size="10.00">/home/ram/OmniTemplate</text>
<text text-anchor="middle" x="1138" y="-342.5" font-family="Helvetica,sans-Serif" font-size="10.00">/time.hpp</text>
</a>
</g>
</g>
<!-- Node3&#45;&gt;Node21 -->
<g id="edge41" class="edge">
<title>Node3&#45;&gt;Node21</title>
<path fill="none" stroke="midnightblue" d="M920.49,-400.25C968.02,-389.6 1029.56,-375.81 1075.04,-365.61"/>
<polygon fill="midnightblue" stroke="midnightblue" points="919.56,-396.87 910.57,-402.48 921.09,-403.7 919.56,-396.87"/>
</g>
<!-- Node22 -->
<g id="node22" class="node">
<title>Node22</title>
<g id="a_node22"><a xlink:href="permutation_8hpp.html" target="_top" xlink:title=" ">
<polygon fill="white" stroke="black" points="1166,-134.5 1166,-164.5 1310,-164.5 1310,-134.5 1166,-134.5"/>
<text text-anchor="start" x="1174" y="-152.5" font-family="Helvetica,sans-Serif" font-size="10.00">/home/ram/OmniTemplate</text>
<text text-anchor="middle" x="1238" y="-141.5" font-family="Helvetica,sans-Serif" font-size="10.00">/permutation.hpp</text>
</a>
</g>
</g>
<!-- Node3&#45;&gt;Node22 -->
<g id="edge45" class="edge">
<title>Node3&#45;&gt;Node22</title>
<path fill="none" stroke="midnightblue" d="M930.12,-416.81C1027.22,-415.29 1180.54,-406.32 1219,-366 1272.79,-309.6 1251.86,-203.05 1242,-164.7"/>
<polygon fill="midnightblue" stroke="midnightblue" points="929.98,-413.31 920.03,-416.94 930.07,-420.31 929.98,-413.31"/>
</g>
<!-- Node23 -->
<g id="node23" class="node">
<title>Node23</title>
<g id="a_node23"><a xlink:href="persistent_8hpp.html" target="_top" xlink:title=" ">
<polygon fill="white" stroke="black" points="1266,-201.5 1266,-231.5 1410,-231.5 1410,-201.5 1266,-201.5"/>
<text text-anchor="start" x="1274" y="-219.5" font-family="Helvetica,sans-Serif" font-size="10.00">/home/ram/OmniTemplate</text>
<text text-anchor="middle" x="1338" y="-208.5" font-family="Helvetica,sans-Serif" font-size="10.00">/persistent.hpp</text>
</a>
</g>
</g>
<!-- Node3&#45;&gt;Node23 -->
<g id="edge47" class="edge">
<title>Node3&#45;&gt;Node23</title>
<path fill="none" stroke="midnightblue" d="M930.09,-414.73C1032.6,-411.08 1200.75,-399.96 1252,-366 1301.18,-333.42 1325.73,-262.4 1334.33,-231.9"/>
<polygon fill="midnightblue" stroke="midnightblue" points="929.95,-411.23 920.08,-415.07 930.19,-418.23 929.95,-411.23"/>
</g>
<!-- Node24 -->
<g id="node24" class="node">
<title>Node24</title>
<g id="a_node24"><a xlink:href="queue_8hpp.html" target="_top" xlink:title=" ">
<polygon fill="white" stroke="black" points="1366,-134.5 1366,-164.5 1510,-164.5 1510,-134.5 1366,-134.5"/>
<text text-anchor="start" x="1374" y="-152.5" font-family="Helvetica,sans-Serif" font-size="10.00">/home/ram/OmniTemplate</text>
<text text-anchor="middle" x="1438" y="-141.5" font-family="Helvetica,sans-Serif" font-size="10.00">/queue.hpp</text>
</a>
</g>
</g>
<!-- Node3&#45;&gt;Node24 -->
<g id="edge49" class="edge">
<title>Node3&#45;&gt;Node24</title>
<path fill="none" stroke="midnightblue" d="M930.23,-413.19C1038.09,-407.77 1220.73,-394.62 1281,-366 1319.61,-347.66 1397.96,-269.21 1419,-232 1431.16,-210.5 1435.55,-181.61 1437.12,-164.63"/>
<polygon fill="midnightblue" stroke="midnightblue" points="929.85,-409.7 920.03,-413.69 930.19,-416.69 929.85,-409.7"/>
</g>
<!-- Node25 -->
<g id="node25" class="node">
<title>Node25</title>
<g id="a_node25"><a xlink:href="segment__tree_8hpp.html" target="_top" xlink:title=" ">
<polygon fill="white" stroke="black" points="1404,-268.5 1404,-298.5 1548,-298.5 1548,-268.5 1404,-268.5"/>
<text text-anchor="start" x="1412" y="-286.5" font-family="Helvetica,sans-Serif" font-size="10.00">/home/ram/OmniTemplate</text>
<text text-anchor="middle" x="1476" y="-275.5" font-family="Helvetica,sans-Serif" font-size="10.00">/segment_tree.hpp</text>
</a>
</g>
</g>
<!-- Node3&#45;&gt;Node25 -->
<g id="edge51" class="edge">
<title>Node3&#45;&gt;Node25</title>
<path fill="none" stroke="midnightblue" d="M930.56,-415.35C1061.51,-412.45 1310.18,-402.19 1390,-366 1423.16,-350.96 1451.58,-317.76 1465.96,-298.7"/>
<polygon fill="midnightblue" stroke="midnightblue" points="930.11,-411.86 920.19,-415.57 930.26,-418.86 930.11,-411.86"/>
</g>
<!-- Node26 -->
<g id="node26" class="node">
<title>Node26</title>
<g id="a_node26"><a xlink:href="splay__tree_8hpp.html" target="_top" xlink:title=" ">
<polygon fill="white" stroke="black" points="1504,-201.5 1504,-231.5 1648,-231.5 1648,-201.5 1504,-201.5"/>
<text text-anchor="start" x="1512" y="-219.5" font-family="Helvetica,sans-Serif" font-size="10.00">/home/ram/OmniTemplate</text>
<text text-anchor="middle" x="1576" y="-208.5" font-family="Helvetica,sans-Serif" font-size="10.00">/splay_tree.hpp</text>
</a>
</g>
</g>
<!-- Node3&#45;&gt;Node26 -->
<g id="edge53" class="edge">
<title>Node3&#45;&gt;Node26</title>
<path fill="none" stroke="midnightblue" d="M930.24,-413.16C1066.81,-406.97 1334.33,-391.92 1425,-366 1488.26,-347.91 1516.4,-350.77 1557,-299 1572.42,-279.34 1575.7,-249.31 1576.19,-231.71"/>
<polygon fill="midnightblue" stroke="midnightblue" points="930.07,-409.66 920.23,-413.61 930.38,-416.66 930.07,-409.66"/>
</g>
<!-- Node27 -->
<g id="node27" class="node">
<title>Node27</title>
<g id="a_node27"><a xlink:href="string_8hpp.html" target="_top" xlink:title=" ">
<polygon fill="white" stroke="black" points="1604,-134.5 1604,-164.5 1748,-164.5 1748,-134.5 1604,-134.5"/>
<text text-anchor="start" x="1612" y="-152.5" font-family="Helvetica,sans-Serif" font-size="10.00">/home/ram/OmniTemplate</text>
<text text-anchor="middle" x="1676" y="-141.5" font-family="Helvetica,sans-Serif" font-size="10.00">/string.hpp</text>
</a>
</g>
</g>
<!-- Node3&#45;&gt;Node27 -->
<g id="edge55" class="edge">
<title>Node3&#45;&gt;Node27</title>
<path fill="none" stroke="midnightblue" d="M930.59,-415.52C1079.4,-412.83 1386.33,-402.86 1486,-366 1576.56,-332.51 1606.68,-314.41 1657,-232 1669.87,-210.92 1674.03,-181.9 1675.37,-164.78"/>
<polygon fill="midnightblue" stroke="midnightblue" points="930.09,-412.02 920.16,-415.7 930.22,-419.02 930.09,-412.02"/>
</g>
<!-- Node28 -->
<g id="node28" class="node">
<title>Node28</title>
<g id="a_node28"><a xlink:href="treap_8hpp.html" target="_top" xlink:title=" ">
<polygon fill="white" stroke="black" points="1704,-335.5 1704,-365.5 1848,-365.5 1848,-335.5 1704,-335.5"/>
<text text-anchor="start" x="1712" y="-353.5" font-family="Helvetica,sans-Serif" font-size="10.00">/home/ram/OmniTemplate</text>
<text text-anchor="middle" x="1776" y="-342.5" font-family="Helvetica,sans-Serif" font-size="10.00">/treap.hpp</text>
</a>
</g>
</g>
<!-- Node3&#45;&gt;Node28 -->
<g id="edge58" class="edge">
<title>Node3&#45;&gt;Node28</title>
<path fill="none" stroke="midnightblue" d="M930.14,-414.49C1081.07,-410.16 1412.47,-397.63 1690,-366 1694.51,-365.49 1699.15,-364.89 1703.82,-364.25"/>
<polygon fill="midnightblue" stroke="midnightblue" points="929.93,-411 920.03,-414.78 930.12,-418 929.93,-411"/>
</g>
<!-- Node29 -->
<g id="node29" class="node">
<title>Node29</title>
<g id="a_node29"><a xlink:href="tree_8hpp.html" target="_top" xlink:title=" ">
<polygon fill="white" stroke="black" points="1866,-335.5 1866,-365.5 2010,-365.5 2010,-335.5 1866,-335.5"/>
<text text-anchor="start" x="1874" y="-353.5" font-family="Helvetica,sans-Serif" font-size="10.00">/home/ram/OmniTemplate</text>
<text text-anchor="middle" x="1938" y="-342.5" font-family="Helvetica,sans-Serif" font-size="10.00">/tree.hpp</text>
</a>
</g>
</g>
<!-- Node3&#45;&gt;Node29 -->
<g id="edge60" class="edge">
<title>Node3&#45;&gt;Node29</title>
<path fill="none" stroke="midnightblue" d="M930.14,-415.92C1102.48,-413.93 1514.21,-405.1 1857,-366 1859.84,-365.68 1862.73,-365.31 1865.64,-364.92"/>
<polygon fill="midnightblue" stroke="midnightblue" points="930.09,-412.42 920.13,-416.03 930.17,-419.42 930.09,-412.42"/>
</g>
<!-- Node4&#45;&gt;Node5 -->
<g id="edge4" class="edge">
<title>Node4&#45;&gt;Node5</title>
<path fill="none" stroke="midnightblue" d="M392.17,-134.5C393.46,-134.33 394.73,-134.16 396,-134 572.86,-111.24 782.13,-95.44 889.88,-88.12"/>
<polygon fill="midnightblue" stroke="midnightblue" points="391.62,-131.05 382.2,-135.91 392.59,-137.98 391.62,-131.05"/>
</g>
<!-- Node6 -->
<g id="node6" class="node">
<title>Node6</title>
<g id="a_node6"><a xlink:href="test_8cpp.html" target="_top" xlink:title=" ">
<polygon fill="white" stroke="black" points="890,-0.5 890,-30.5 1034,-30.5 1034,-0.5 890,-0.5"/>
<text text-anchor="start" x="898" y="-18.5" font-family="Helvetica,sans-Serif" font-size="10.00">/home/ram/OmniTemplate</text>
<text text-anchor="middle" x="962" y="-7.5" font-family="Helvetica,sans-Serif" font-size="10.00">/test.cpp</text>
</a>
</g>
</g>
<!-- Node5&#45;&gt;Node6 -->
<g id="edge5" class="edge">
<title>Node5&#45;&gt;Node6</title>
<path fill="none" stroke="midnightblue" d="M962,-57.11C962,-48.15 962,-38.32 962,-30.58"/>
<polygon fill="midnightblue" stroke="midnightblue" points="958.5,-57.4 962,-67.4 965.5,-57.4 958.5,-57.4"/>
</g>
<!-- Node7&#45;&gt;Node3 -->
<g id="edge7" class="edge">
<title>Node7&#45;&gt;Node3</title>
<path fill="none" stroke="midnightblue" d="M392.34,-364.15C396.63,-364.8 400.87,-365.42 405,-366 535.59,-384.29 688.15,-400.21 775.95,-409.06"/>
<polygon fill="midnightblue" stroke="midnightblue" points="392.7,-360.66 382.28,-362.59 391.63,-367.58 392.7,-360.66"/>
</g>
<!-- Node8&#45;&gt;Node1 -->
<g id="edge9" class="edge">
<title>Node8&#45;&gt;Node1</title>
<path fill="none" stroke="midnightblue" d="M103.01,-371.18C147.94,-399.67 233.77,-454.03 307,-500 326.65,-512.33 349.03,-526.28 365.28,-536.39"/>
<polygon fill="midnightblue" stroke="midnightblue" points="104.65,-368.07 94.33,-365.67 100.9,-373.99 104.65,-368.07"/>
</g>
<!-- Node8&#45;&gt;Node2 -->
<g id="edge10" class="edge">
<title>Node8&#45;&gt;Node2</title>
<path fill="none" stroke="midnightblue" d="M133.1,-368.43C162.77,-377.31 198.69,-389.03 230,-402 279.04,-422.32 333.51,-452.13 363.97,-469.5"/>
<polygon fill="midnightblue" stroke="midnightblue" points="133.88,-365.01 123.3,-365.53 131.89,-371.73 133.88,-365.01"/>
</g>
<!-- Node8&#45;&gt;Node3 -->
<g id="edge11" class="edge">
<title>Node8&#45;&gt;Node3</title>
<path fill="none" stroke="midnightblue" d="M154.32,-364.34C158.61,-364.94 162.86,-365.5 167,-366 388.35,-392.7 651.48,-407.23 775.99,-413.2"/>
<polygon fill="midnightblue" stroke="midnightblue" points="154.64,-360.85 144.24,-362.87 153.63,-367.78 154.64,-360.85"/>
</g>
<!-- Node9 -->
<g id="node9" class="node">
<title>Node9</title>
<g id="a_node9"><a xlink:href="utility_8hpp.html" target="_top" xlink:title=" ">
<polygon fill="white" stroke="black" points="38,-268.5 38,-298.5 182,-298.5 182,-268.5 38,-268.5"/>
<text text-anchor="start" x="46" y="-286.5" font-family="Helvetica,sans-Serif" font-size="10.00">/home/ram/OmniTemplate</text>
<text text-anchor="middle" x="110" y="-275.5" font-family="Helvetica,sans-Serif" font-size="10.00">/utility.hpp</text>
</a>
</g>
</g>
<!-- Node8&#45;&gt;Node9 -->
<g id="edge12" class="edge">
<title>Node8&#45;&gt;Node9</title>
<path fill="none" stroke="midnightblue" d="M85.4,-326.58C90.86,-317.24 96.99,-306.75 101.77,-298.58"/>
<polygon fill="midnightblue" stroke="midnightblue" points="82.27,-325 80.25,-335.4 88.31,-328.53 82.27,-325"/>
</g>
<!-- Node9&#45;&gt;Node3 -->
<g id="edge13" class="edge">
<title>Node9&#45;&gt;Node3</title>
<path fill="none" stroke="midnightblue" d="M129.74,-306.27C150.01,-328.02 180.68,-359.2 196,-366 298.08,-411.33 628.37,-416.81 775.79,-416.92"/>
<polygon fill="midnightblue" stroke="midnightblue" points="132.15,-303.71 122.79,-298.74 127.01,-308.46 132.15,-303.71"/>
</g>
<!-- Node9&#45;&gt;Node5 -->
<g id="edge14" class="edge">
<title>Node9&#45;&gt;Node5</title>
<path fill="none" stroke="midnightblue" d="M116.14,-258.68C126.34,-224.45 150.36,-162.35 196,-134 254.02,-97.96 710.32,-87.26 889.82,-84.42"/>
<polygon fill="midnightblue" stroke="midnightblue" points="112.76,-257.77 113.4,-268.35 119.49,-259.68 112.76,-257.77"/>
</g>
<!-- Node10&#45;&gt;Node4 -->
<g id="edge16" class="edge">
<title>Node10&#45;&gt;Node4</title>
<path fill="none" stroke="midnightblue" d="M334.6,-192.58C329.14,-183.24 323.01,-172.75 318.23,-164.58"/>
<polygon fill="midnightblue" stroke="midnightblue" points="331.69,-194.53 339.75,-201.4 337.73,-191 331.69,-194.53"/>
</g>
<!-- Node10&#45;&gt;Node5 -->
<g id="edge17" class="edge">
<title>Node10&#45;&gt;Node5</title>
<path fill="none" stroke="midnightblue" d="M367.77,-193.79C388.05,-172.08 418.74,-140.94 434,-134 513.42,-97.87 764.58,-87.56 889.7,-84.64"/>
<polygon fill="midnightblue" stroke="midnightblue" points="365.04,-191.58 360.81,-201.3 370.17,-196.34 365.04,-191.58"/>
</g>
<!-- Node11&#45;&gt;Node5 -->
<g id="edge20" class="edge">
<title>Node11&#45;&gt;Node5</title>
<path fill="none" stroke="midnightblue" d="M405.65,-260.87C413.24,-252.14 421.82,-241.82 429,-232 459.27,-190.58 446.54,-161.27 490,-134 554.92,-93.27 774.67,-85.07 889.99,-83.63"/>
<polygon fill="midnightblue" stroke="midnightblue" points="403.01,-258.57 399.01,-268.38 408.25,-263.2 403.01,-258.57"/>
</g>
<!-- Node11&#45;&gt;Node10 -->
<g id="edge19" class="edge">
<title>Node11&#45;&gt;Node10</title>
<path fill="none" stroke="midnightblue" d="M372.6,-259.58C367.14,-250.24 361.01,-239.75 356.23,-231.58"/>
<polygon fill="midnightblue" stroke="midnightblue" points="369.69,-261.53 377.75,-268.4 375.73,-258 369.69,-261.53"/>
</g>
<!-- Node12&#45;&gt;Node5 -->
<g id="edge23" class="edge">
<title>Node12&#45;&gt;Node5</title>
<path fill="none" stroke="midnightblue" d="M526.54,-260.44C519.91,-252.19 513.44,-242.3 510,-232 496.19,-190.69 480.96,-166.46 510,-134 534.84,-106.23 768.77,-91.96 889.95,-86.37"/>
<polygon fill="midnightblue" stroke="midnightblue" points="523.95,-262.8 533.12,-268.1 529.26,-258.24 523.95,-262.8"/>
</g>
<!-- Node12&#45;&gt;Node10 -->
<g id="edge22" class="edge">
<title>Node12&#45;&gt;Node10</title>
<path fill="none" stroke="midnightblue" d="M494.85,-265.23C462.5,-254.71 421.69,-241.45 391.31,-231.58"/>
<polygon fill="midnightblue" stroke="midnightblue" points="494.01,-268.63 504.6,-268.4 496.17,-261.98 494.01,-268.63"/>
</g>
<!-- Node13&#45;&gt;Node5 -->
<g id="edge28" class="edge">
<title>Node13&#45;&gt;Node5</title>
<path fill="none" stroke="midnightblue" d="M679.15,-326.87C667.02,-309.47 648.7,-285.51 629,-268 606.32,-247.85 585.75,-258.51 571,-232 548.86,-192.19 564.58,-161.36 601,-134 645.27,-100.74 797.71,-89.35 889.74,-85.48"/>
<polygon fill="midnightblue" stroke="midnightblue" points="676.38,-329.02 684.91,-335.31 682.17,-325.08 676.38,-329.02"/>
</g>
<!-- Node13&#45;&gt;Node12 -->
<g id="edge25" class="edge">
<title>Node13&#45;&gt;Node12</title>
<path fill="none" stroke="midnightblue" d="M653.05,-331.27C629.8,-320.92 601.13,-308.15 579.62,-298.58"/>
<polygon fill="midnightblue" stroke="midnightblue" points="651.76,-334.53 662.32,-335.4 654.61,-328.13 651.76,-334.53"/>
</g>
<!-- Node13&#45;&gt;Node14 -->
<g id="edge26" class="edge">
<title>Node13&#45;&gt;Node14</title>
<path fill="none" stroke="midnightblue" d="M712.32,-327.45C720.25,-317.9 729.3,-307 736.31,-298.58"/>
<polygon fill="midnightblue" stroke="midnightblue" points="709.42,-325.47 705.72,-335.4 714.8,-329.94 709.42,-325.47"/>
</g>
<!-- Node14&#45;&gt;Node5 -->
<g id="edge27" class="edge">
<title>Node14&#45;&gt;Node5</title>
<path fill="none" stroke="midnightblue" d="M666.09,-267.3C629.36,-258.65 591.86,-246.62 581,-232 572.79,-220.94 575.17,-213.48 581,-201 600.62,-158.98 618.88,-153.41 661,-134 734.27,-100.24 826.85,-88.78 889.86,-85.03"/>
<polygon fill="midnightblue" stroke="midnightblue" points="665.37,-270.72 675.89,-269.53 666.92,-263.9 665.37,-270.72"/>
</g>
<!-- Node15&#45;&gt;Node5 -->
<g id="edge30" class="edge">
<title>Node15&#45;&gt;Node5</title>
<path fill="none" stroke="midnightblue" d="M661,-191.23C661.63,-172.93 665.66,-148.57 681,-134 710.38,-106.09 816.85,-93.23 889.96,-87.58"/>
<polygon fill="midnightblue" stroke="midnightblue" points="657.5,-191.43 660.97,-201.45 664.5,-191.46 657.5,-191.43"/>
</g>
<!-- Node16&#45;&gt;Node5 -->
<g id="edge32" class="edge">
<title>Node16&#45;&gt;Node5</title>
<path fill="none" stroke="midnightblue" d="M815.15,-131.23C847.5,-120.71 888.31,-107.45 918.69,-97.58"/>
<polygon fill="midnightblue" stroke="midnightblue" points="813.83,-127.98 805.4,-134.4 815.99,-134.63 813.83,-127.98"/>
</g>
<!-- Node17&#45;&gt;Node5 -->
<g id="edge34" class="edge">
<title>Node17&#45;&gt;Node5</title>
<path fill="none" stroke="midnightblue" d="M862.84,-191.06C864.52,-173.72 869.07,-150.67 881,-134 892.48,-117.96 910.79,-105.92 927.1,-97.63"/>
<polygon fill="midnightblue" stroke="midnightblue" points="859.31,-191.28 862.1,-201.5 866.29,-191.77 859.31,-191.28"/>
</g>
<!-- Node18&#45;&gt;Node5 -->
<g id="edge36" class="edge">
<title>Node18&#45;&gt;Node5</title>
<path fill="none" stroke="midnightblue" d="M962,-124.11C962,-115.15 962,-105.32 962,-97.58"/>
<polygon fill="midnightblue" stroke="midnightblue" points="958.5,-124.4 962,-134.4 965.5,-124.4 958.5,-124.4"/>
</g>
<!-- Node19&#45;&gt;Node5 -->
<g id="edge38" class="edge">
<title>Node19&#45;&gt;Node5</title>
<path fill="none" stroke="midnightblue" d="M1061.16,-191.06C1059.48,-173.72 1054.93,-150.67 1043,-134 1031.52,-117.96 1013.21,-105.92 996.9,-97.63"/>
<polygon fill="midnightblue" stroke="midnightblue" points="1057.71,-191.77 1061.9,-201.5 1064.69,-191.28 1057.71,-191.77"/>
</g>
<!-- Node20&#45;&gt;Node5 -->
<g id="edge40" class="edge">
<title>Node20&#45;&gt;Node5</title>
<path fill="none" stroke="midnightblue" d="M1124,-261.14C1131.59,-252.88 1139.02,-242.81 1143,-232 1147.76,-219.07 1148.83,-213.48 1143,-201 1117.56,-146.52 1052.88,-114.16 1008.15,-97.61"/>
<polygon fill="midnightblue" stroke="midnightblue" points="1121.31,-258.89 1116.8,-268.47 1126.3,-263.8 1121.31,-258.89"/>
</g>
<!-- Node21&#45;&gt;Node5 -->
<g id="edge43" class="edge">
<title>Node21&#45;&gt;Node5</title>
<path fill="none" stroke="midnightblue" d="M1162,-328.14C1169.59,-319.88 1177.02,-309.81 1181,-299 1185.76,-286.07 1183.27,-281.59 1181,-268 1170.04,-202.32 1166.8,-174.57 1114,-134 1090.85,-116.21 1061.12,-104.52 1034.1,-96.91"/>
<polygon fill="midnightblue" stroke="midnightblue" points="1159.31,-325.89 1154.8,-335.47 1164.3,-330.8 1159.31,-325.89"/>
</g>
<!-- Node21&#45;&gt;Node20 -->
<g id="edge42" class="edge">
<title>Node21&#45;&gt;Node20</title>
<path fill="none" stroke="midnightblue" d="M1124.6,-326.58C1119.14,-317.24 1113.01,-306.75 1108.23,-298.58"/>
<polygon fill="midnightblue" stroke="midnightblue" points="1121.69,-328.53 1129.75,-335.4 1127.73,-325 1121.69,-328.53"/>
</g>
<!-- Node22&#45;&gt;Node5 -->
<g id="edge46" class="edge">
<title>Node22&#45;&gt;Node5</title>
<path fill="none" stroke="midnightblue" d="M1168.44,-132.12C1123.28,-121.48 1065.02,-107.76 1021.92,-97.61"/>
<polygon fill="midnightblue" stroke="midnightblue" points="1167.92,-135.59 1178.45,-134.48 1169.52,-128.78 1167.92,-135.59"/>
</g>
<!-- Node23&#45;&gt;Node5 -->
<g id="edge48" class="edge">
<title>Node23&#45;&gt;Node5</title>
<path fill="none" stroke="midnightblue" d="M1339.16,-191.33C1338.64,-172.91 1334.68,-148.35 1319,-134 1278.54,-96.97 1126.17,-86.97 1034.07,-84.35"/>
<polygon fill="midnightblue" stroke="midnightblue" points="1335.66,-191.33 1339.13,-201.34 1342.66,-191.35 1335.66,-191.33"/>
</g>
<!-- Node24&#45;&gt;Node5 -->
<g id="edge50" class="edge">
<title>Node24&#45;&gt;Node5</title>
<path fill="none" stroke="midnightblue" d="M1355.82,-134.57C1354.54,-134.38 1353.26,-134.19 1352,-134 1241.42,-117.53 1112.74,-101.46 1034.35,-92.03"/>
<polygon fill="midnightblue" stroke="midnightblue" points="1355.35,-138.04 1365.77,-136.12 1356.42,-131.13 1355.35,-138.04"/>
</g>
<!-- Node25&#45;&gt;Node5 -->
<g id="edge52" class="edge">
<title>Node25&#45;&gt;Node5</title>
<path fill="none" stroke="midnightblue" d="M1479.27,-258.47C1482.09,-241.85 1487,-219.48 1495,-201 1502.64,-183.35 1513.43,-183.4 1519,-165 1522.99,-151.81 1528.29,-144.17 1519,-134 1486.91,-98.87 1177.46,-87.93 1034.16,-84.73"/>
<polygon fill="midnightblue" stroke="midnightblue" points="1475.8,-258.05 1477.71,-268.47 1482.71,-259.13 1475.8,-258.05"/>
</g>
<!-- Node26&#45;&gt;Node5 -->
<g id="edge54" class="edge">
<title>Node26&#45;&gt;Node5</title>
<path fill="none" stroke="midnightblue" d="M1575.79,-191.26C1574.22,-172.6 1568.81,-147.73 1552,-134 1512.69,-101.89 1182.87,-89.27 1034.19,-85.18"/>
<polygon fill="midnightblue" stroke="midnightblue" points="1572.3,-191.61 1576.32,-201.41 1579.29,-191.24 1572.3,-191.61"/>
</g>
<!-- Node27&#45;&gt;Node5 -->
<g id="edge56" class="edge">
<title>Node27&#45;&gt;Node5</title>
<path fill="none" stroke="midnightblue" d="M1593.83,-134.49C1592.55,-134.32 1591.27,-134.16 1590,-134 1389.46,-109.08 1151.3,-93.83 1034.26,-87.27"/>
<polygon fill="midnightblue" stroke="midnightblue" points="1593.42,-137.96 1603.81,-135.86 1594.38,-131.03 1593.42,-137.96"/>
</g>
<!-- Node28&#45;&gt;Node5 -->
<g id="edge59" class="edge">
<title>Node28&#45;&gt;Node5</title>
<path fill="none" stroke="midnightblue" d="M1782.61,-325.66C1793.4,-280.96 1808.76,-184.51 1757,-134 1705.93,-84.17 1220.54,-81.86 1034.28,-82.84"/>
<polygon fill="midnightblue" stroke="midnightblue" points="1779.22,-324.81 1780.14,-335.37 1786,-326.54 1779.22,-324.81"/>
</g>
<!-- Node29&#45;&gt;Node5 -->
<g id="edge61" class="edge">
<title>Node29&#45;&gt;Node5</title>
<path fill="none" stroke="midnightblue" d="M1928.92,-325.85C1909.7,-279.47 1860.06,-177.33 1781,-134 1716.43,-98.61 1221.97,-87.44 1034.1,-84.46"/>
<polygon fill="midnightblue" stroke="midnightblue" points="1925.77,-327.4 1932.76,-335.37 1932.26,-324.78 1925.77,-327.4"/>
</g>
</g>
</svg>
        <g id="navigator" transform="translate(0 0)" fill="#404254">
                <rect fill="#f2f5e9" fill-opacity="0.5" stroke="#606060" stroke-width=".5" x="0" y="0" width="60" height="60"/>
                <use id="zoomplus" xlink:href="#zoomPlus" x="17" y="9" onmousedown="handleZoom(evt,'in')"/>
                <use id="zoomminus" xlink:href="#zoomMin" x="42" y="9" onmousedown="handleZoom(evt,'out')"/>
                <use id="reset" xlink:href="#resetDef" x="30" y="36" onmousedown="handleReset()"/>
                <g id="arrowUp" xlink:href="#dirArrow" transform="translate(30 24)" onmousedown="handlePan(0,-1)">
                  <use xlink:href="#rim" fill="#404040">
                        <set attributeName="fill" to="#808080" begin="arrowUp.mouseover" end="arrowUp.mouseout"/>
                  </use>
                  <path fill="none" stroke="white" stroke-width="1.5" d="M0,-3.0v7 M-2.5,-0.5L0,-3.0L2.5,-0.5"/>
                </g>
                <g id="arrowRight" xlink:href="#dirArrow" transform="rotate(90) translate(36 -43)" onmousedown="handlePan(1,0)">
                  <use xlink:href="#rim" fill="#404040">
                        <set attributeName="fill" to="#808080" begin="arrowRight.mouseover" end="arrowRight.mouseout"/>
                  </use>
                  <path fill="none" stroke="white" stroke-width="1.5" d="M0,-3.0v7 M-2.5,-0.5L0,-3.0L2.5,-0.5"/>
                </g>
                <g id="arrowDown" xlink:href="#dirArrow" transform="rotate(180) translate(-30 -48)" onmousedown="handlePan(0,1)">
                  <use xlink:href="#rim" fill="#404040">
                        <set attributeName="fill" to="#808080" begin="arrowDown.mouseover" end="arrowDown.mouseout"/>
                  </use>
                  <path fill="none" stroke="white" stroke-width="1.5" d="M0,-3.0v7 M-2.5,-0.5L0,-3.0L2.5,-0.5"/>
                </g>
                <g id="arrowLeft" xlink:href="#dirArrow" transform="rotate(270) translate(-36 17)" onmousedown="handlePan(-1,0)">
                  <use xlink:href="#rim" fill="#404040">
                        <set attributeName="fill" to="#808080" begin="arrowLeft.mouseover" end="arrowLeft.mouseout"/>
                  </use>
                  <path fill="none" stroke="white" stroke-width="1.5" d="M0,-3.0v7 M-2.5,-0.5L0,-3.0L2.5,-0.5"/>
                </g>
        </g>
        <svg viewBox="0 0 15 15" width="100%" height="30px" preserveAspectRatio="xMaxYMin meet">
         <g id="arrow_out" transform="scale(0.3 0.3)">
          <a xlink:href="operations_8hpp__dep__incl_org.svg" target="_base">
           <rect id="button" ry="5" rx="5" y="6" x="6" height="38" width="38"
                fill="#f2f5e9" fill-opacity="0.5" stroke="#606060" stroke-width="1.0"/>
           <path id="arrow"
             d="M 11.500037,31.436501 C 11.940474,20.09759 22.043105,11.32322 32.158766,21.979434 L 37.068811,17.246167 C 37.068811,17.246167 37.088388,32 37.088388,32 L 22.160133,31.978069 C 22.160133,31.978069 26.997745,27.140456 26.997745,27.140456 C 18.528582,18.264221 13.291696,25.230495 11.500037,31.436501 z"
             style="fill:#404040;"/>
          </a>
         </g>
        </svg>
</svg>
