<?xml version="1.0" encoding="UTF-8" standalone="no"?>
<!DOCTYPE svg PUBLIC "-//W3C//DTD SVG 1.1//EN"
 "http://www.w3.org/Graphics/SVG/1.1/DTD/svg11.dtd">
<!-- Generated by graphviz version 2.43.0 (0)
 -->
<!-- Title: /home/ram/OmniTemplate/src/core/operations.hpp Pages: 1 -->
<svg width="590pt" height="274pt"
 viewBox="0.00 0.00 589.50 274.00" xmlns="http://www.w3.org/2000/svg" xmlns:xlink="http://www.w3.org/1999/xlink">
<g id="graph0" class="graph" transform="scale(1 1) rotate(0) translate(4 270)">
<title>/home/ram/OmniTemplate/src/core/operations.hpp</title>
<polygon fill="white" stroke="transparent" points="-4,4 -4,-270 585.5,-270 585.5,4 -4,4"/>
<!-- Node1 -->
<g id="node1" class="node">
<title>Node1</title>
<g id="a_node1"><a xlink:title=" ">
<polygon fill="#bfbfbf" stroke="black" points="437.5,-235.5 437.5,-265.5 581.5,-265.5 581.5,-235.5 437.5,-235.5"/>
<text text-anchor="start" x="445.5" y="-253.5" font-family="Helvetica,sans-Serif" font-size="10.00">/home/ram/OmniTemplate</text>
<text text-anchor="middle" x="509.5" y="-242.5" font-family="Helvetica,sans-Serif" font-size="10.00">/src/core/operations.hpp</text>
</a>
</g>
</g>
<!-- Node2 -->
<g id="node2" class="node">
<title>Node2</title>
<g id="a_node2"><a xlink:href="range_8hpp.html" target="_top" xlink:title=" ">
<polygon fill="white" stroke="black" points="477,-179.5 477,-198.5 542,-198.5 542,-179.5 477,-179.5"/>
<text text-anchor="middle" x="509.5" y="-186.5" font-family="Helvetica,sans-Serif" font-size="10.00">range.hpp</text>
</a>
</g>
</g>
<!-- Node1&#45;&gt;Node2 -->
<g id="edge1" class="edge">
<title>Node1&#45;&gt;Node2</title>
<path fill="none" stroke="midnightblue" d="M509.5,-235.4C509.5,-227.47 509.5,-217.46 509.5,-208.86"/>
<polygon fill="midnightblue" stroke="midnightblue" points="513,-208.66 509.5,-198.66 506,-208.66 513,-208.66"/>
</g>
<!-- Node3 -->
<g id="node3" class="node">
<title>Node3</title>
<g id="a_node3"><a xlink:href="core_2all_8hpp.html" target="_top" xlink:title=" ">
<polygon fill="white" stroke="black" points="409.5,-123.5 409.5,-142.5 483.5,-142.5 483.5,-123.5 409.5,-123.5"/>
<text text-anchor="middle" x="446.5" y="-130.5" font-family="Helvetica,sans-Serif" font-size="10.00">core/all.hpp</text>
</a>
</g>
</g>
<!-- Node2&#45;&gt;Node3 -->
<g id="edge2" class="edge">
<title>Node2&#45;&gt;Node3</title>
<path fill="none" stroke="midnightblue" d="M494.26,-179.32C483.33,-171.42 469.11,-159.55 458.88,-149.94"/>
<polygon fill="midnightblue" stroke="midnightblue" points="461.24,-147.35 451.66,-142.83 456.33,-152.34 461.24,-147.35"/>
</g>
<!-- Node3&#45;&gt;Node1 -->
<g id="edge11" class="edge">
<title>Node3&#45;&gt;Node1</title>
<path fill="none" stroke="midnightblue" d="M448.23,-142.84C451.01,-155.76 457.21,-180.3 467.5,-199 473.08,-209.14 480.85,-219.19 488.18,-227.61"/>
<polygon fill="midnightblue" stroke="midnightblue" points="485.69,-230.08 495,-235.15 490.88,-225.38 485.69,-230.08"/>
</g>
<!-- Node3&#45;&gt;Node2 -->
<g id="edge12" class="edge">
<title>Node3&#45;&gt;Node2</title>
<path fill="none" stroke="midnightblue" d="M461.84,-142.75C472.74,-150.64 486.86,-162.43 497.06,-172"/>
<polygon fill="midnightblue" stroke="midnightblue" points="494.68,-174.57 504.26,-179.08 499.59,-169.58 494.68,-174.57"/>
</g>
<!-- Node4 -->
<g id="node4" class="node">
<title>Node4</title>
<g id="a_node4"><a xlink:title=" ">
<polygon fill="white" stroke="#bfbfbf" points="0,-62 0,-81 83,-81 83,-62 0,-62"/>
<text text-anchor="middle" x="41.5" y="-69" font-family="Helvetica,sans-Serif" font-size="10.00">bits/stdc++.h</text>
</a>
</g>
</g>
<!-- Node3&#45;&gt;Node4 -->
<g id="edge3" class="edge">
<title>Node3&#45;&gt;Node4</title>
<path fill="none" stroke="midnightblue" d="M409.39,-129.22C344.45,-123.92 206.17,-110.74 91.5,-87 87.05,-86.08 82.42,-84.96 77.85,-83.76"/>
<polygon fill="midnightblue" stroke="midnightblue" points="78.61,-80.33 68.03,-81.03 76.73,-87.08 78.61,-80.33"/>
</g>
<!-- Node5 -->
<g id="node5" class="node">
<title>Node5</title>
<g id="a_node5"><a xlink:title=" ">
<polygon fill="white" stroke="#bfbfbf" points="101,-62 101,-81 222,-81 222,-62 101,-62"/>
<text text-anchor="middle" x="161.5" y="-69" font-family="Helvetica,sans-Serif" font-size="10.00">experimental/iterator</text>
</a>
</g>
</g>
<!-- Node3&#45;&gt;Node5 -->
<g id="edge4" class="edge">
<title>Node3&#45;&gt;Node5</title>
<path fill="none" stroke="midnightblue" d="M409.42,-124.3C366.39,-115.35 293.3,-100.14 230.5,-87 224.45,-85.73 218.09,-84.4 211.8,-83.08"/>
<polygon fill="midnightblue" stroke="midnightblue" points="212.5,-79.65 202,-81.02 211.06,-86.5 212.5,-79.65"/>
</g>
<!-- Node6 -->
<g id="node6" class="node">
<title>Node6</title>
<g id="a_node6"><a xlink:title=" ">
<polygon fill="white" stroke="#bfbfbf" points="240,-56.5 240,-86.5 357,-86.5 357,-56.5 240,-56.5"/>
<text text-anchor="start" x="248" y="-74.5" font-family="Helvetica,sans-Serif" font-size="10.00">experimental/source</text>
<text text-anchor="middle" x="298.5" y="-63.5" font-family="Helvetica,sans-Serif" font-size="10.00">_location</text>
</a>
</g>
</g>
<!-- Node3&#45;&gt;Node6 -->
<g id="edge5" class="edge">
<title>Node3&#45;&gt;Node6</title>
<path fill="none" stroke="midnightblue" d="M425.3,-123.48C403.85,-114.85 370.05,-101.26 342.74,-90.29"/>
<polygon fill="midnightblue" stroke="midnightblue" points="343.96,-87.01 333.38,-86.52 341.35,-93.5 343.96,-87.01"/>
</g>
<!-- Node7 -->
<g id="node7" class="node">
<title>Node7</title>
<g id="a_node7"><a xlink:href="io_8hpp.html" target="_top" xlink:title=" ">
<polygon fill="white" stroke="black" points="375,-62 375,-81 422,-81 422,-62 375,-62"/>
<text text-anchor="middle" x="398.5" y="-69" font-family="Helvetica,sans-Serif" font-size="10.00">io.hpp</text>
</a>
</g>
</g>
<!-- Node3&#45;&gt;Node7 -->
<g id="edge6" class="edge">
<title>Node3&#45;&gt;Node7</title>
<path fill="none" stroke="midnightblue" d="M439.62,-123.48C432.35,-114.46 420.7,-100.02 411.66,-88.81"/>
<polygon fill="midnightblue" stroke="midnightblue" points="414.37,-86.59 405.36,-81.01 408.92,-90.99 414.37,-86.59"/>
</g>
<!-- Node8 -->
<g id="node8" class="node">
<title>Node8</title>
<g id="a_node8"><a xlink:href="debug_8hpp.html" target="_top" xlink:title=" ">
<polygon fill="white" stroke="black" points="477.5,-0.5 477.5,-19.5 545.5,-19.5 545.5,-0.5 477.5,-0.5"/>
<text text-anchor="middle" x="511.5" y="-7.5" font-family="Helvetica,sans-Serif" font-size="10.00">debug.hpp</text>
</a>
</g>
</g>
<!-- Node3&#45;&gt;Node8 -->
<g id="edge10" class="edge">
<title>Node3&#45;&gt;Node8</title>
<path fill="none" stroke="midnightblue" d="M447.85,-123.04C450.36,-108.27 456.71,-78.22 469.5,-56 475.8,-45.05 485.24,-34.62 493.58,-26.56"/>
<polygon fill="midnightblue" stroke="midnightblue" points="496.12,-28.98 501.09,-19.62 491.37,-23.83 496.12,-28.98"/>
</g>
<!-- Node9 -->
<g id="node9" class="node">
<title>Node9</title>
<g id="a_node9"><a xlink:href="utility_8hpp.html" target="_top" xlink:title=" ">
<polygon fill="white" stroke="black" points="479,-62 479,-81 544,-81 544,-62 479,-62"/>
<text text-anchor="middle" x="511.5" y="-69" font-family="Helvetica,sans-Serif" font-size="10.00">utility.hpp</text>
</a>
</g>
</g>
<!-- Node3&#45;&gt;Node9 -->
<g id="edge13" class="edge">
<title>Node3&#45;&gt;Node9</title>
<path fill="none" stroke="midnightblue" d="M455.81,-123.48C465.95,-114.2 482.36,-99.17 494.75,-87.83"/>
<polygon fill="midnightblue" stroke="midnightblue" points="497.19,-90.34 502.2,-81.01 492.46,-85.18 497.19,-90.34"/>
</g>
<!-- Node7&#45;&gt;Node8 -->
<g id="edge7" class="edge">
<title>Node7&#45;&gt;Node8</title>
<path fill="none" stroke="midnightblue" d="M414.69,-61.98C433.4,-52.12 464.42,-35.79 486.3,-24.27"/>
<polygon fill="midnightblue" stroke="midnightblue" points="488.12,-27.27 495.34,-19.51 484.86,-21.07 488.12,-27.27"/>
</g>
<!-- Node8&#45;&gt;Node1 -->
<g id="edge8" class="edge">
<title>Node8&#45;&gt;Node1</title>
<path fill="none" stroke="midnightblue" d="M529.89,-19.53C543.6,-27 561.31,-39.29 569.5,-56 575.56,-68.37 570.66,-73.27 569.5,-87 565.26,-137.31 571.32,-153 550.5,-199 545.77,-209.45 538.34,-219.55 531.1,-227.94"/>
<polygon fill="midnightblue" stroke="midnightblue" points="528.44,-225.66 524.31,-235.42 533.62,-230.37 528.44,-225.66"/>
</g>
<!-- Node8&#45;&gt;Node2 -->
<g id="edge9" class="edge">
<title>Node8&#45;&gt;Node2</title>
<path fill="none" stroke="midnightblue" d="M523.04,-19.51C532.98,-27.62 546.62,-40.82 552.5,-56 568.24,-96.64 540.3,-145.71 522.53,-171.04"/>
<polygon fill="midnightblue" stroke="midnightblue" points="519.61,-169.1 516.54,-179.24 525.26,-173.23 519.61,-169.1"/>
</g>
<!-- Node9&#45;&gt;Node2 -->
<g id="edge14" class="edge">
<title>Node9&#45;&gt;Node2</title>
<path fill="none" stroke="midnightblue" d="M511.35,-81.28C511.02,-99.94 510.26,-143.87 509.83,-169.16"/>
<polygon fill="midnightblue" stroke="midnightblue" points="506.32,-169.26 509.65,-179.32 513.32,-169.38 506.32,-169.26"/>
</g>
</g>
</svg>
