<?xml version="1.0" encoding="UTF-8" standalone="no"?>
<!DOCTYPE svg PUBLIC "-//W3C//DTD SVG 1.1//EN"
 "http://www.w3.org/Graphics/SVG/1.1/DTD/svg11.dtd">
<!-- Generated by graphviz version 2.43.0 (0)
 -->
<!-- Title: /home/ram/OmniTemplate/polynomial.hpp Pages: 1 -->
<svg width="764pt" height="374pt"
 viewBox="0.00 0.00 764.00 374.00" xmlns="http://www.w3.org/2000/svg" xmlns:xlink="http://www.w3.org/1999/xlink">
<g id="graph0" class="graph" transform="scale(1 1) rotate(0) translate(4 370)">
<title>/home/ram/OmniTemplate/polynomial.hpp</title>
<polygon fill="white" stroke="transparent" points="-4,4 -4,-370 760,-370 760,4 -4,4"/>
<!-- Node1 -->
<g id="node1" class="node">
<title>Node1</title>
<g id="a_node1"><a xlink:title=" ">
<polygon fill="#bfbfbf" stroke="black" points="612,-335.5 612,-365.5 756,-365.5 756,-335.5 612,-335.5"/>
<text text-anchor="start" x="620" y="-353.5" font-family="Helvetica,sans-Serif" font-size="10.00">/home/ram/OmniTemplate</text>
<text text-anchor="middle" x="684" y="-342.5" font-family="Helvetica,sans-Serif" font-size="10.00">/polynomial.hpp</text>
</a>
</g>
</g>
<!-- Node2 -->
<g id="node2" class="node">
<title>Node2</title>
<g id="a_node2"><a xlink:href="linear__algebra_8hpp.html" target="_top" xlink:title=" ">
<polygon fill="white" stroke="black" points="562,-268.5 562,-298.5 706,-298.5 706,-268.5 562,-268.5"/>
<text text-anchor="start" x="570" y="-286.5" font-family="Helvetica,sans-Serif" font-size="10.00">/home/ram/OmniTemplate</text>
<text text-anchor="middle" x="634" y="-275.5" font-family="Helvetica,sans-Serif" font-size="10.00">/linear_algebra.hpp</text>
</a>
</g>
</g>
<!-- Node1&#45;&gt;Node2 -->
<g id="edge1" class="edge">
<title>Node1&#45;&gt;Node2</title>
<path fill="none" stroke="midnightblue" d="M667.04,-327.45C659.69,-317.9 651.31,-307 644.83,-298.58"/>
<polygon fill="midnightblue" stroke="midnightblue" points="664.28,-329.6 673.15,-335.4 669.83,-325.34 664.28,-329.6"/>
</g>
<!-- Node5 -->
<g id="node5" class="node">
<title>Node5</title>
<g id="a_node5"><a xlink:href="template_8hpp.html" target="_top" xlink:title=" ">
<polygon fill="white" stroke="black" points="524,-67.5 524,-97.5 668,-97.5 668,-67.5 524,-67.5"/>
<text text-anchor="start" x="532" y="-85.5" font-family="Helvetica,sans-Serif" font-size="10.00">/home/ram/OmniTemplate</text>
<text text-anchor="middle" x="596" y="-74.5" font-family="Helvetica,sans-Serif" font-size="10.00">/template.hpp</text>
</a>
</g>
</g>
<!-- Node1&#45;&gt;Node5 -->
<g id="edge13" class="edge">
<title>Node1&#45;&gt;Node5</title>
<path fill="none" stroke="midnightblue" d="M701.41,-327.09C706.88,-318.75 712.21,-308.89 715,-299 728.52,-251.12 725.4,-176.26 695,-134 682.77,-117.01 663.13,-105.35 644.55,-97.55"/>
<polygon fill="midnightblue" stroke="midnightblue" points="698.4,-325.29 695.54,-335.49 704.14,-329.3 698.4,-325.29"/>
</g>
<!-- Node3 -->
<g id="node3" class="node">
<title>Node3</title>
<g id="a_node3"><a xlink:href="graph__theory_8hpp.html" target="_top" xlink:title=" ">
<polygon fill="white" stroke="black" points="281,-201.5 281,-231.5 425,-231.5 425,-201.5 281,-201.5"/>
<text text-anchor="start" x="289" y="-219.5" font-family="Helvetica,sans-Serif" font-size="10.00">/home/ram/OmniTemplate</text>
<text text-anchor="middle" x="353" y="-208.5" font-family="Helvetica,sans-Serif" font-size="10.00">/graph_theory.hpp</text>
</a>
</g>
</g>
<!-- Node2&#45;&gt;Node3 -->
<g id="edge2" class="edge">
<title>Node2&#45;&gt;Node3</title>
<path fill="none" stroke="midnightblue" d="M563.47,-266.19C517.45,-255.54 457.98,-241.78 414,-231.61"/>
<polygon fill="midnightblue" stroke="midnightblue" points="562.84,-269.63 573.37,-268.48 564.42,-262.81 562.84,-269.63"/>
</g>
<!-- Node2&#45;&gt;Node5 -->
<g id="edge12" class="edge">
<title>Node2&#45;&gt;Node5</title>
<path fill="none" stroke="midnightblue" d="M651.07,-259.59C671.36,-229.33 699.78,-175.05 677,-134 667.83,-117.48 650.77,-105.66 634.66,-97.63"/>
<polygon fill="midnightblue" stroke="midnightblue" points="647.94,-257.97 645.1,-268.18 653.68,-261.97 647.94,-257.97"/>
</g>
<!-- Node4 -->
<g id="node4" class="node">
<title>Node4</title>
<g id="a_node4"><a xlink:href="2sat_8hpp.html" target="_top" xlink:title=" ">
<polygon fill="white" stroke="black" points="0,-134.5 0,-164.5 144,-164.5 144,-134.5 0,-134.5"/>
<text text-anchor="start" x="8" y="-152.5" font-family="Helvetica,sans-Serif" font-size="10.00">/home/ram/OmniTemplate</text>
<text text-anchor="middle" x="72" y="-141.5" font-family="Helvetica,sans-Serif" font-size="10.00">/2sat.hpp</text>
</a>
</g>
</g>
<!-- Node3&#45;&gt;Node4 -->
<g id="edge3" class="edge">
<title>Node3&#45;&gt;Node4</title>
<path fill="none" stroke="midnightblue" d="M282.47,-199.19C236.45,-188.54 176.98,-174.78 133,-164.61"/>
<polygon fill="midnightblue" stroke="midnightblue" points="281.84,-202.63 292.37,-201.48 283.42,-195.81 281.84,-202.63"/>
</g>
<!-- Node3&#45;&gt;Node5 -->
<g id="edge11" class="edge">
<title>Node3&#45;&gt;Node5</title>
<path fill="none" stroke="midnightblue" d="M270.71,-202.05C216.57,-189.74 160.84,-168.16 191,-134 212.63,-109.5 413.45,-94.09 523.93,-87.38"/>
<polygon fill="midnightblue" stroke="midnightblue" points="270.26,-205.54 280.78,-204.25 271.75,-198.7 270.26,-205.54"/>
</g>
<!-- Node8 -->
<g id="node8" class="node">
<title>Node8</title>
<g id="a_node8"><a xlink:href="d_8cpp.html" target="_top" xlink:title=" ">
<polygon fill="white" stroke="black" points="200,-134.5 200,-164.5 344,-164.5 344,-134.5 200,-134.5"/>
<text text-anchor="start" x="208" y="-152.5" font-family="Helvetica,sans-Serif" font-size="10.00">/home/ram/OmniTemplate</text>
<text text-anchor="middle" x="272" y="-141.5" font-family="Helvetica,sans-Serif" font-size="10.00">/d.cpp</text>
</a>
</g>
</g>
<!-- Node3&#45;&gt;Node8 -->
<g id="edge7" class="edge">
<title>Node3&#45;&gt;Node8</title>
<path fill="none" stroke="midnightblue" d="M327.31,-194.88C315,-185.01 300.57,-173.43 289.54,-164.58"/>
<polygon fill="midnightblue" stroke="midnightblue" points="325.43,-197.87 335.42,-201.4 329.82,-192.41 325.43,-197.87"/>
</g>
<!-- Node9 -->
<g id="node9" class="node">
<title>Node9</title>
<g id="a_node9"><a xlink:href="flow_8cpp.html" target="_top" xlink:title=" ">
<polygon fill="white" stroke="black" points="362,-134.5 362,-164.5 506,-164.5 506,-134.5 362,-134.5"/>
<text text-anchor="start" x="370" y="-152.5" font-family="Helvetica,sans-Serif" font-size="10.00">/home/ram/OmniTemplate</text>
<text text-anchor="middle" x="434" y="-141.5" font-family="Helvetica,sans-Serif" font-size="10.00">/flow.cpp</text>
</a>
</g>
</g>
<!-- Node3&#45;&gt;Node9 -->
<g id="edge8" class="edge">
<title>Node3&#45;&gt;Node9</title>
<path fill="none" stroke="midnightblue" d="M378.69,-194.88C391,-185.01 405.43,-173.43 416.46,-164.58"/>
<polygon fill="midnightblue" stroke="midnightblue" points="376.18,-192.41 370.58,-201.4 380.57,-197.87 376.18,-192.41"/>
</g>
<!-- Node10 -->
<g id="node10" class="node">
<title>Node10</title>
<g id="a_node10"><a xlink:href="hld_8hpp.html" target="_top" xlink:title=" ">
<polygon fill="white" stroke="black" points="524,-134.5 524,-164.5 668,-164.5 668,-134.5 524,-134.5"/>
<text text-anchor="start" x="532" y="-152.5" font-family="Helvetica,sans-Serif" font-size="10.00">/home/ram/OmniTemplate</text>
<text text-anchor="middle" x="596" y="-141.5" font-family="Helvetica,sans-Serif" font-size="10.00">/hld.hpp</text>
</a>
</g>
</g>
<!-- Node3&#45;&gt;Node10 -->
<g id="edge9" class="edge">
<title>Node3&#45;&gt;Node10</title>
<path fill="none" stroke="midnightblue" d="M415.25,-198.85C454.86,-188.25 505.61,-174.68 543.25,-164.61"/>
<polygon fill="midnightblue" stroke="midnightblue" points="414.18,-195.51 405.43,-201.48 415.99,-202.27 414.18,-195.51"/>
</g>
<!-- Node4&#45;&gt;Node5 -->
<g id="edge4" class="edge">
<title>Node4&#45;&gt;Node5</title>
<path fill="none" stroke="midnightblue" d="M154.18,-134.55C155.46,-134.36 156.74,-134.18 158,-134 286.46,-115.78 436.82,-99.55 523.77,-90.66"/>
<polygon fill="midnightblue" stroke="midnightblue" points="153.59,-131.1 144.22,-136.04 154.63,-138.02 153.59,-131.1"/>
</g>
<!-- Node6 -->
<g id="node6" class="node">
<title>Node6</title>
<g id="a_node6"><a xlink:href="program_8cpp.html" target="_top" xlink:title=" ">
<polygon fill="white" stroke="black" points="443,-0.5 443,-30.5 587,-30.5 587,-0.5 443,-0.5"/>
<text text-anchor="start" x="451" y="-18.5" font-family="Helvetica,sans-Serif" font-size="10.00">/home/ram/OmniTemplate</text>
<text text-anchor="middle" x="515" y="-7.5" font-family="Helvetica,sans-Serif" font-size="10.00">/program.cpp</text>
</a>
</g>
</g>
<!-- Node5&#45;&gt;Node6 -->
<g id="edge5" class="edge">
<title>Node5&#45;&gt;Node6</title>
<path fill="none" stroke="midnightblue" d="M570.31,-60.88C558,-51.01 543.57,-39.43 532.54,-30.58"/>
<polygon fill="midnightblue" stroke="midnightblue" points="568.43,-63.87 578.42,-67.4 572.82,-58.41 568.43,-63.87"/>
</g>
<!-- Node7 -->
<g id="node7" class="node">
<title>Node7</title>
<g id="a_node7"><a xlink:href="test_8cpp.html" target="_top" xlink:title=" ">
<polygon fill="white" stroke="black" points="605,-0.5 605,-30.5 749,-30.5 749,-0.5 605,-0.5"/>
<text text-anchor="start" x="613" y="-18.5" font-family="Helvetica,sans-Serif" font-size="10.00">/home/ram/OmniTemplate</text>
<text text-anchor="middle" x="677" y="-7.5" font-family="Helvetica,sans-Serif" font-size="10.00">/test.cpp</text>
</a>
</g>
</g>
<!-- Node5&#45;&gt;Node7 -->
<g id="edge6" class="edge">
<title>Node5&#45;&gt;Node7</title>
<path fill="none" stroke="midnightblue" d="M621.69,-60.88C634,-51.01 648.43,-39.43 659.46,-30.58"/>
<polygon fill="midnightblue" stroke="midnightblue" points="619.18,-58.41 613.58,-67.4 623.57,-63.87 619.18,-58.41"/>
</g>
<!-- Node10&#45;&gt;Node5 -->
<g id="edge10" class="edge">
<title>Node10&#45;&gt;Node5</title>
<path fill="none" stroke="midnightblue" d="M596,-124.11C596,-115.15 596,-105.32 596,-97.58"/>
<polygon fill="midnightblue" stroke="midnightblue" points="592.5,-124.4 596,-134.4 599.5,-124.4 592.5,-124.4"/>
</g>
</g>
</svg>
