<?xml version="1.0" encoding="UTF-8" standalone="no"?>
<!DOCTYPE svg PUBLIC "-//W3C//DTD SVG 1.1//EN"
 "http://www.w3.org/Graphics/SVG/1.1/DTD/svg11.dtd">
<!-- Generated by graphviz version 2.43.0 (0)
 -->
<!-- Title: test_minqueue Pages: 1 -->
<svg width="455pt" height="156pt"
 viewBox="0.00 0.00 455.00 156.00" xmlns="http://www.w3.org/2000/svg" xmlns:xlink="http://www.w3.org/1999/xlink">
<g id="graph0" class="graph" transform="scale(1 1) rotate(0) translate(4 152)">
<title>test_minqueue</title>
<polygon fill="white" stroke="transparent" points="-4,4 -4,-152 451,-152 451,4 -4,4"/>
<!-- Node1 -->
<g id="node1" class="node">
<title>Node1</title>
<g id="a_node1"><a xlink:title=" ">
<polygon fill="#bfbfbf" stroke="black" points="0,-55 0,-74 89,-74 89,-55 0,-55"/>
<text text-anchor="middle" x="44.5" y="-62" font-family="Helvetica,sans-Serif" font-size="10.00">test_minqueue</text>
</a>
</g>
</g>
<!-- Node2 -->
<g id="node2" class="node">
<title>Node2</title>
<g id="a_node2"><a xlink:href="classMinQueue.html#aa050a922fde794170ad24d639f42df36" target="_top" xlink:title=" ">
<polygon fill="white" stroke="black" points="151,-99 151,-118 242,-118 242,-99 151,-99"/>
<text text-anchor="middle" x="196.5" y="-106" font-family="Helvetica,sans-Serif" font-size="10.00">MinQueue::min</text>
</a>
</g>
</g>
<!-- Node1&#45;&gt;Node2 -->
<g id="edge1" class="edge">
<title>Node1&#45;&gt;Node2</title>
<path fill="none" stroke="midnightblue" d="M76.8,-74.08C91.43,-78.53 109.09,-83.84 125,-88.5 133.61,-91.02 142.82,-93.67 151.65,-96.18"/>
<polygon fill="midnightblue" stroke="midnightblue" points="150.83,-99.59 161.4,-98.95 152.74,-92.85 150.83,-99.59"/>
</g>
<!-- Node5 -->
<g id="node5" class="node">
<title>Node5</title>
<g id="a_node5"><a xlink:href="classQueueAdaptor.html#a81ec309acaf4e8ad47e49d2fbffb0000" target="_top" xlink:title=" ">
<polygon fill="white" stroke="black" points="125,-49.5 125,-79.5 268,-79.5 268,-49.5 125,-49.5"/>
<text text-anchor="start" x="133" y="-67.5" font-family="Helvetica,sans-Serif" font-size="10.00">QueueAdaptor&lt; MinStack</text>
<text text-anchor="middle" x="196.5" y="-56.5" font-family="Helvetica,sans-Serif" font-size="10.00">&lt; T &gt; &gt;::pop</text>
</a>
</g>
</g>
<!-- Node1&#45;&gt;Node5 -->
<g id="edge5" class="edge">
<title>Node1&#45;&gt;Node5</title>
<path fill="none" stroke="midnightblue" d="M89.29,-64.5C97.31,-64.5 105.9,-64.5 114.61,-64.5"/>
<polygon fill="midnightblue" stroke="midnightblue" points="114.85,-68 124.85,-64.5 114.85,-61 114.85,-68"/>
</g>
<!-- Node6 -->
<g id="node6" class="node">
<title>Node6</title>
<g id="a_node6"><a xlink:href="classQueueAdaptor.html#ad0f545cec9fdfb5cdda40a51c9ff8648" target="_top" xlink:title=" ">
<polygon fill="white" stroke="black" points="125,-0.5 125,-30.5 268,-30.5 268,-0.5 125,-0.5"/>
<text text-anchor="start" x="133" y="-18.5" font-family="Helvetica,sans-Serif" font-size="10.00">QueueAdaptor&lt; MinStack</text>
<text text-anchor="middle" x="196.5" y="-7.5" font-family="Helvetica,sans-Serif" font-size="10.00">&lt; T &gt; &gt;::push</text>
</a>
</g>
</g>
<!-- Node1&#45;&gt;Node6 -->
<g id="edge6" class="edge">
<title>Node1&#45;&gt;Node6</title>
<path fill="none" stroke="midnightblue" d="M74.78,-54.94C93.27,-48.89 117.76,-40.89 139.85,-33.68"/>
<polygon fill="midnightblue" stroke="midnightblue" points="141.05,-36.97 149.47,-30.54 138.88,-30.32 141.05,-36.97"/>
</g>
<!-- Node2&#45;&gt;Node2 -->
<g id="edge4" class="edge">
<title>Node2&#45;&gt;Node2</title>
<path fill="none" stroke="midnightblue" d="M173.07,-118.26C161.68,-127.07 169.48,-136.5 196.5,-136.5 214.23,-136.5 223.69,-132.44 224.87,-127.15"/>
<polygon fill="midnightblue" stroke="midnightblue" points="227.84,-125.3 219.93,-118.26 221.73,-128.7 227.84,-125.3"/>
</g>
<!-- Node3 -->
<g id="node3" class="node">
<title>Node3</title>
<g id="a_node3"><a xlink:href="classQueueAdaptor.html#a93327b413fb302d9f9b533a21179d39f" target="_top" xlink:title=" ">
<polygon fill="white" stroke="black" points="304,-117.5 304,-147.5 447,-147.5 447,-117.5 304,-117.5"/>
<text text-anchor="start" x="312" y="-135.5" font-family="Helvetica,sans-Serif" font-size="10.00">QueueAdaptor&lt; MinStack</text>
<text text-anchor="middle" x="375.5" y="-124.5" font-family="Helvetica,sans-Serif" font-size="10.00">&lt; T &gt; &gt;::get_left</text>
</a>
</g>
</g>
<!-- Node2&#45;&gt;Node3 -->
<g id="edge2" class="edge">
<title>Node2&#45;&gt;Node3</title>
<path fill="none" stroke="midnightblue" d="M242.16,-114.56C257.75,-116.67 275.75,-119.11 293.37,-121.5"/>
<polygon fill="midnightblue" stroke="midnightblue" points="293.29,-125.02 303.67,-122.9 294.23,-118.08 293.29,-125.02"/>
</g>
<!-- Node4 -->
<g id="node4" class="node">
<title>Node4</title>
<g id="a_node4"><a xlink:href="classQueueAdaptor.html#a9434246f808b040616e5bffb304fce43" target="_top" xlink:title=" ">
<polygon fill="white" stroke="black" points="304,-68.5 304,-98.5 447,-98.5 447,-68.5 304,-68.5"/>
<text text-anchor="start" x="312" y="-86.5" font-family="Helvetica,sans-Serif" font-size="10.00">QueueAdaptor&lt; MinStack</text>
<text text-anchor="middle" x="375.5" y="-75.5" font-family="Helvetica,sans-Serif" font-size="10.00">&lt; T &gt; &gt;::get_right</text>
</a>
</g>
</g>
<!-- Node2&#45;&gt;Node4 -->
<g id="edge3" class="edge">
<title>Node2&#45;&gt;Node4</title>
<path fill="none" stroke="midnightblue" d="M242.16,-102.19C257.75,-99.99 275.75,-97.45 293.37,-94.96"/>
<polygon fill="midnightblue" stroke="midnightblue" points="294.26,-98.37 303.67,-93.5 293.28,-91.44 294.26,-98.37"/>
</g>
</g>
</svg>
