<?xml version="1.0" encoding="UTF-8" standalone="no"?>
<!DOCTYPE svg PUBLIC "-//W3C//DTD SVG 1.1//EN"
 "http://www.w3.org/Graphics/SVG/1.1/DTD/svg11.dtd">
<!-- Generated by graphviz version 2.43.0 (0)
 -->
<!-- Title: test_minstack Pages: 1 -->
<svg width="221pt" height="66pt"
 viewBox="0.00 0.00 221.00 66.00" xmlns="http://www.w3.org/2000/svg" xmlns:xlink="http://www.w3.org/1999/xlink">
<g id="graph0" class="graph" transform="scale(1 1) rotate(0) translate(4 62)">
<title>test_minstack</title>
<polygon fill="white" stroke="transparent" points="-4,4 -4,-62 217,-62 217,4 -4,4"/>
<!-- Node1 -->
<g id="node1" class="node">
<title>Node1</title>
<g id="a_node1"><a xlink:title=" ">
<polygon fill="#bfbfbf" stroke="black" points="0,-19.5 0,-38.5 86,-38.5 86,-19.5 0,-19.5"/>
<text text-anchor="middle" x="43" y="-26.5" font-family="Helvetica,sans-Serif" font-size="10.00">test_minstack</text>
</a>
</g>
</g>
<!-- Node2 -->
<g id="node2" class="node">
<title>Node2</title>
<g id="a_node2"><a xlink:href="classMinStack.html#abb4c7ff623765a0c24f2091a27855310" target="_top" xlink:title=" ">
<polygon fill="white" stroke="black" points="124.5,-38.5 124.5,-57.5 210.5,-57.5 210.5,-38.5 124.5,-38.5"/>
<text text-anchor="middle" x="167.5" y="-45.5" font-family="Helvetica,sans-Serif" font-size="10.00">MinStack::min</text>
</a>
</g>
</g>
<!-- Node1&#45;&gt;Node2 -->
<g id="edge1" class="edge">
<title>Node1&#45;&gt;Node2</title>
<path fill="none" stroke="midnightblue" d="M86.16,-35.54C95.2,-36.94 104.87,-38.44 114.25,-39.9"/>
<polygon fill="midnightblue" stroke="midnightblue" points="113.85,-43.38 124.26,-41.45 114.92,-36.46 113.85,-43.38"/>
</g>
<!-- Node3 -->
<g id="node3" class="node">
<title>Node3</title>
<g id="a_node3"><a xlink:href="classMinStack.html#a85a56f030b69fd1b4191f8318b6b9d28" target="_top" xlink:title=" ">
<polygon fill="white" stroke="black" points="122,-0.5 122,-19.5 213,-19.5 213,-0.5 122,-0.5"/>
<text text-anchor="middle" x="167.5" y="-7.5" font-family="Helvetica,sans-Serif" font-size="10.00">MinStack::push</text>
</a>
</g>
</g>
<!-- Node1&#45;&gt;Node3 -->
<g id="edge2" class="edge">
<title>Node1&#45;&gt;Node3</title>
<path fill="none" stroke="midnightblue" d="M86.16,-22.46C94.42,-21.18 103.19,-19.82 111.79,-18.49"/>
<polygon fill="midnightblue" stroke="midnightblue" points="112.41,-21.93 121.76,-16.94 111.34,-15.01 112.41,-21.93"/>
</g>
</g>
</svg>
