<?xml version="1.0" encoding="UTF-8" standalone="no"?>
<!DOCTYPE svg PUBLIC "-//W3C//DTD SVG 1.1//EN"
 "http://www.w3.org/Graphics/SVG/1.1/DTD/svg11.dtd">
<!-- Generated by graphviz version 2.43.0 (0)
 -->
<!-- Title: test_queue Pages: 1 -->
<svg width="581pt" height="385pt"
 viewBox="0.00 0.00 581.00 384.50" xmlns="http://www.w3.org/2000/svg" xmlns:xlink="http://www.w3.org/1999/xlink">
<g id="graph0" class="graph" transform="scale(1 1) rotate(0) translate(4 380.5)">
<title>test_queue</title>
<polygon fill="white" stroke="transparent" points="-4,4 -4,-380.5 577,-380.5 577,4 -4,4"/>
<!-- Node1 -->
<g id="node1" class="node">
<title>Node1</title>
<g id="a_node1"><a xlink:title=" ">
<polygon fill="#bfbfbf" stroke="black" points="0,-171.5 0,-190.5 71,-190.5 71,-171.5 0,-171.5"/>
<text text-anchor="middle" x="35.5" y="-178.5" font-family="Helvetica,sans-Serif" font-size="10.00">test_queue</text>
</a>
</g>
</g>
<!-- Node2 -->
<g id="node2" class="node">
<title>Node2</title>
<g id="a_node2"><a xlink:href="queue_8hpp.html#ade8983381de2dd15dd63f80934f01827" target="_top" xlink:title=" ">
<polygon fill="white" stroke="black" points="116.5,-258.5 116.5,-277.5 205.5,-277.5 205.5,-258.5 116.5,-258.5"/>
<text text-anchor="middle" x="161" y="-265.5" font-family="Helvetica,sans-Serif" font-size="10.00">test_minqueue</text>
</a>
</g>
</g>
<!-- Node1&#45;&gt;Node2 -->
<g id="edge1" class="edge">
<title>Node1&#45;&gt;Node2</title>
<path fill="none" stroke="midnightblue" d="M50.19,-190.64C71.42,-205.6 112.51,-234.54 137.96,-252.47"/>
<polygon fill="midnightblue" stroke="midnightblue" points="136.06,-255.42 146.25,-258.31 140.09,-249.69 136.06,-255.42"/>
</g>
<!-- Node8 -->
<g id="node8" class="node">
<title>Node8</title>
<g id="a_node8"><a xlink:href="queue_8hpp.html#a10088901e62ea354d6ae3d8cd9575a05" target="_top" xlink:title=" ">
<polygon fill="white" stroke="black" points="118,-38.5 118,-57.5 204,-57.5 204,-38.5 118,-38.5"/>
<text text-anchor="middle" x="161" y="-45.5" font-family="Helvetica,sans-Serif" font-size="10.00">test_minstack</text>
</a>
</g>
</g>
<!-- Node1&#45;&gt;Node8 -->
<g id="edge8" class="edge">
<title>Node1&#45;&gt;Node8</title>
<path fill="none" stroke="midnightblue" d="M45.38,-171.43C66.02,-149.21 117.46,-93.81 143.84,-65.4"/>
<polygon fill="midnightblue" stroke="midnightblue" points="146.63,-67.55 150.87,-57.84 141.5,-62.78 146.63,-67.55"/>
</g>
<!-- Node11 -->
<g id="node11" class="node">
<title>Node11</title>
<g id="a_node11"><a xlink:href="queue_8hpp.html#a3582140b7324e0ea0a09e7b49aff5da4" target="_top" xlink:title=" ">
<polygon fill="white" stroke="black" points="107,-171.5 107,-190.5 215,-190.5 215,-171.5 107,-171.5"/>
<text text-anchor="middle" x="161" y="-178.5" font-family="Helvetica,sans-Serif" font-size="10.00">test_queueadaptor</text>
</a>
</g>
</g>
<!-- Node1&#45;&gt;Node11 -->
<g id="edge11" class="edge">
<title>Node1&#45;&gt;Node11</title>
<path fill="none" stroke="midnightblue" d="M71.23,-181C79.13,-181 87.76,-181 96.44,-181"/>
<polygon fill="midnightblue" stroke="midnightblue" points="96.61,-184.5 106.61,-181 96.61,-177.5 96.61,-184.5"/>
</g>
<!-- Node3 -->
<g id="node3" class="node">
<title>Node3</title>
<g id="a_node3"><a xlink:href="classMinQueue.html#aa050a922fde794170ad24d639f42df36" target="_top" xlink:title=" ">
<polygon fill="white" stroke="black" points="277,-327.5 277,-346.5 368,-346.5 368,-327.5 277,-327.5"/>
<text text-anchor="middle" x="322.5" y="-334.5" font-family="Helvetica,sans-Serif" font-size="10.00">MinQueue::min</text>
</a>
</g>
</g>
<!-- Node2&#45;&gt;Node3 -->
<g id="edge2" class="edge">
<title>Node2&#45;&gt;Node3</title>
<path fill="none" stroke="midnightblue" d="M176.55,-277.67C193.72,-288.73 223.43,-306.75 251,-318 256.85,-320.39 263.1,-322.57 269.37,-324.53"/>
<polygon fill="midnightblue" stroke="midnightblue" points="268.6,-327.95 279.18,-327.43 270.58,-321.24 268.6,-327.95"/>
</g>
<!-- Node6 -->
<g id="node6" class="node">
<title>Node6</title>
<g id="a_node6"><a xlink:href="classQueueAdaptor.html#a81ec309acaf4e8ad47e49d2fbffb0000" target="_top" xlink:title=" ">
<polygon fill="white" stroke="black" points="251,-229 251,-259 394,-259 394,-229 251,-229"/>
<text text-anchor="start" x="259" y="-247" font-family="Helvetica,sans-Serif" font-size="10.00">QueueAdaptor&lt; MinStack</text>
<text text-anchor="middle" x="322.5" y="-236" font-family="Helvetica,sans-Serif" font-size="10.00">&lt; T &gt; &gt;::pop</text>
</a>
</g>
</g>
<!-- Node2&#45;&gt;Node6 -->
<g id="edge6" class="edge">
<title>Node2&#45;&gt;Node6</title>
<path fill="none" stroke="midnightblue" d="M205.58,-261.44C216.54,-259.79 228.64,-257.97 240.78,-256.15"/>
<polygon fill="midnightblue" stroke="midnightblue" points="241.59,-259.56 250.96,-254.61 240.55,-252.64 241.59,-259.56"/>
</g>
<!-- Node7 -->
<g id="node7" class="node">
<title>Node7</title>
<g id="a_node7"><a xlink:href="classQueueAdaptor.html#ad0f545cec9fdfb5cdda40a51c9ff8648" target="_top" xlink:title=" ">
<polygon fill="white" stroke="black" points="251,-278 251,-308 394,-308 394,-278 251,-278"/>
<text text-anchor="start" x="259" y="-296" font-family="Helvetica,sans-Serif" font-size="10.00">QueueAdaptor&lt; MinStack</text>
<text text-anchor="middle" x="322.5" y="-285" font-family="Helvetica,sans-Serif" font-size="10.00">&lt; T &gt; &gt;::push</text>
</a>
</g>
</g>
<!-- Node2&#45;&gt;Node7 -->
<g id="edge7" class="edge">
<title>Node2&#45;&gt;Node7</title>
<path fill="none" stroke="midnightblue" d="M205.58,-274.83C216.54,-276.55 228.64,-278.45 240.78,-280.35"/>
<polygon fill="midnightblue" stroke="midnightblue" points="240.54,-283.85 250.96,-281.94 241.62,-276.94 240.54,-283.85"/>
</g>
<!-- Node3&#45;&gt;Node3 -->
<g id="edge5" class="edge">
<title>Node3&#45;&gt;Node3</title>
<path fill="none" stroke="midnightblue" d="M297.84,-346.76C285.84,-355.57 294.06,-365 322.5,-365 341.61,-365 351.59,-360.74 352.44,-355.27"/>
<polygon fill="midnightblue" stroke="midnightblue" points="355.4,-353.41 347.16,-346.76 349.45,-357.1 355.4,-353.41"/>
</g>
<!-- Node4 -->
<g id="node4" class="node">
<title>Node4</title>
<g id="a_node4"><a xlink:href="classQueueAdaptor.html#a93327b413fb302d9f9b533a21179d39f" target="_top" xlink:title=" ">
<polygon fill="white" stroke="black" points="430,-346 430,-376 573,-376 573,-346 430,-346"/>
<text text-anchor="start" x="438" y="-364" font-family="Helvetica,sans-Serif" font-size="10.00">QueueAdaptor&lt; MinStack</text>
<text text-anchor="middle" x="501.5" y="-353" font-family="Helvetica,sans-Serif" font-size="10.00">&lt; T &gt; &gt;::get_left</text>
</a>
</g>
</g>
<!-- Node3&#45;&gt;Node4 -->
<g id="edge3" class="edge">
<title>Node3&#45;&gt;Node4</title>
<path fill="none" stroke="midnightblue" d="M368.16,-343.06C383.75,-345.17 401.75,-347.61 419.37,-350"/>
<polygon fill="midnightblue" stroke="midnightblue" points="419.29,-353.52 429.67,-351.4 420.23,-346.58 419.29,-353.52"/>
</g>
<!-- Node5 -->
<g id="node5" class="node">
<title>Node5</title>
<g id="a_node5"><a xlink:href="classQueueAdaptor.html#a9434246f808b040616e5bffb304fce43" target="_top" xlink:title=" ">
<polygon fill="white" stroke="black" points="430,-297 430,-327 573,-327 573,-297 430,-297"/>
<text text-anchor="start" x="438" y="-315" font-family="Helvetica,sans-Serif" font-size="10.00">QueueAdaptor&lt; MinStack</text>
<text text-anchor="middle" x="501.5" y="-304" font-family="Helvetica,sans-Serif" font-size="10.00">&lt; T &gt; &gt;::get_right</text>
</a>
</g>
</g>
<!-- Node3&#45;&gt;Node5 -->
<g id="edge4" class="edge">
<title>Node3&#45;&gt;Node5</title>
<path fill="none" stroke="midnightblue" d="M368.16,-330.69C383.75,-328.49 401.75,-325.95 419.37,-323.46"/>
<polygon fill="midnightblue" stroke="midnightblue" points="420.26,-326.87 429.67,-322 419.28,-319.94 420.26,-326.87"/>
</g>
<!-- Node9 -->
<g id="node9" class="node">
<title>Node9</title>
<g id="a_node9"><a xlink:href="classMinStack.html#abb4c7ff623765a0c24f2091a27855310" target="_top" xlink:title=" ">
<polygon fill="white" stroke="black" points="279.5,-0.5 279.5,-19.5 365.5,-19.5 365.5,-0.5 279.5,-0.5"/>
<text text-anchor="middle" x="322.5" y="-7.5" font-family="Helvetica,sans-Serif" font-size="10.00">MinStack::min</text>
</a>
</g>
</g>
<!-- Node8&#45;&gt;Node9 -->
<g id="edge9" class="edge">
<title>Node8&#45;&gt;Node9</title>
<path fill="none" stroke="midnightblue" d="M202.25,-38.41C223.3,-33.4 249.26,-27.21 271.57,-21.89"/>
<polygon fill="midnightblue" stroke="midnightblue" points="272.62,-25.24 281.54,-19.52 271,-18.43 272.62,-25.24"/>
</g>
<!-- Node10 -->
<g id="node10" class="node">
<title>Node10</title>
<g id="a_node10"><a xlink:href="classMinStack.html#a85a56f030b69fd1b4191f8318b6b9d28" target="_top" xlink:title=" ">
<polygon fill="white" stroke="black" points="277,-38.5 277,-57.5 368,-57.5 368,-38.5 277,-38.5"/>
<text text-anchor="middle" x="322.5" y="-45.5" font-family="Helvetica,sans-Serif" font-size="10.00">MinStack::push</text>
</a>
</g>
</g>
<!-- Node8&#45;&gt;Node10 -->
<g id="edge10" class="edge">
<title>Node8&#45;&gt;Node10</title>
<path fill="none" stroke="midnightblue" d="M204.32,-48C223.43,-48 246.24,-48 266.64,-48"/>
<polygon fill="midnightblue" stroke="midnightblue" points="266.74,-51.5 276.74,-48 266.74,-44.5 266.74,-51.5"/>
</g>
<!-- Node11&#45;&gt;Node6 -->
<g id="edge15" class="edge">
<title>Node11&#45;&gt;Node6</title>
<path fill="none" stroke="midnightblue" d="M183.43,-190.6C201.36,-198.52 227.68,-209.9 251,-219 256.5,-221.15 262.28,-223.32 268.05,-225.44"/>
<polygon fill="midnightblue" stroke="midnightblue" points="267.12,-228.83 277.72,-228.96 269.51,-222.25 267.12,-228.83"/>
</g>
<!-- Node11&#45;&gt;Node7 -->
<g id="edge16" class="edge">
<title>Node11&#45;&gt;Node7</title>
<path fill="none" stroke="midnightblue" d="M169.25,-190.64C183.2,-208.53 215.52,-247.05 251,-269 253.75,-270.7 256.63,-272.3 259.6,-273.8"/>
<polygon fill="midnightblue" stroke="midnightblue" points="258.15,-276.98 268.7,-277.99 261.09,-270.63 258.15,-276.98"/>
</g>
<!-- Node12 -->
<g id="node12" class="node">
<title>Node12</title>
<g id="a_node12"><a xlink:href="classQueueAdaptor.html#a7140ad57c092adb529df4212bbf62f92" target="_top" xlink:title=" ">
<polygon fill="white" stroke="black" points="264.5,-76.5 264.5,-95.5 380.5,-95.5 380.5,-76.5 264.5,-76.5"/>
<text text-anchor="middle" x="322.5" y="-83.5" font-family="Helvetica,sans-Serif" font-size="10.00">QueueAdaptor::back</text>
</a>
</g>
</g>
<!-- Node11&#45;&gt;Node12 -->
<g id="edge12" class="edge">
<title>Node11&#45;&gt;Node12</title>
<path fill="none" stroke="midnightblue" d="M170.59,-171.27C185.39,-155.1 217.39,-122.71 251,-105 255.33,-102.72 259.95,-100.69 264.69,-98.9"/>
<polygon fill="midnightblue" stroke="midnightblue" points="266.18,-102.09 274.5,-95.53 263.91,-95.47 266.18,-102.09"/>
</g>
<!-- Node13 -->
<g id="node13" class="node">
<title>Node13</title>
<g id="a_node13"><a xlink:href="classQueueAdaptor.html#a526c084a248a28ebec26d5934546f63d" target="_top" xlink:title=" ">
<polygon fill="white" stroke="black" points="260.5,-190.5 260.5,-209.5 384.5,-209.5 384.5,-190.5 260.5,-190.5"/>
<text text-anchor="middle" x="322.5" y="-197.5" font-family="Helvetica,sans-Serif" font-size="10.00">QueueAdaptor::empty</text>
</a>
</g>
</g>
<!-- Node11&#45;&gt;Node13 -->
<g id="edge13" class="edge">
<title>Node11&#45;&gt;Node13</title>
<path fill="none" stroke="midnightblue" d="M215.11,-187.33C226.33,-188.66 238.33,-190.09 250.1,-191.49"/>
<polygon fill="midnightblue" stroke="midnightblue" points="250,-195.01 260.35,-192.72 250.83,-188.06 250,-195.01"/>
</g>
<!-- Node14 -->
<g id="node14" class="node">
<title>Node14</title>
<g id="a_node14"><a xlink:href="classQueueAdaptor.html#ad3da3b616f21aa04d52328583eed51ed" target="_top" xlink:title=" ">
<polygon fill="white" stroke="black" points="264.5,-152.5 264.5,-171.5 380.5,-171.5 380.5,-152.5 264.5,-152.5"/>
<text text-anchor="middle" x="322.5" y="-159.5" font-family="Helvetica,sans-Serif" font-size="10.00">QueueAdaptor::front</text>
</a>
</g>
</g>
<!-- Node11&#45;&gt;Node14 -->
<g id="edge14" class="edge">
<title>Node11&#45;&gt;Node14</title>
<path fill="none" stroke="midnightblue" d="M215.11,-174.67C227.55,-173.19 240.97,-171.59 253.95,-170.05"/>
<polygon fill="midnightblue" stroke="midnightblue" points="254.72,-173.48 264.24,-168.82 253.89,-166.53 254.72,-173.48"/>
</g>
<!-- Node15 -->
<g id="node15" class="node">
<title>Node15</title>
<g id="a_node15"><a xlink:href="classQueueAdaptor.html#ac5d740b880e456d5a44cdba1f5acf2c1" target="_top" xlink:title=" ">
<polygon fill="white" stroke="black" points="266.5,-114.5 266.5,-133.5 378.5,-133.5 378.5,-114.5 266.5,-114.5"/>
<text text-anchor="middle" x="322.5" y="-121.5" font-family="Helvetica,sans-Serif" font-size="10.00">QueueAdaptor::size</text>
</a>
</g>
</g>
<!-- Node11&#45;&gt;Node15 -->
<g id="edge17" class="edge">
<title>Node11&#45;&gt;Node15</title>
<path fill="none" stroke="midnightblue" d="M182.18,-171.42C200.02,-163.19 226.87,-151.36 251,-143 257.84,-140.63 265.13,-138.38 272.33,-136.3"/>
<polygon fill="midnightblue" stroke="midnightblue" points="273.36,-139.65 282.05,-133.59 271.47,-132.91 273.36,-139.65"/>
</g>
</g>
</svg>
