<?xml version="1.0" encoding="UTF-8" standalone="no"?>
<!DOCTYPE svg PUBLIC "-//W3C//DTD SVG 1.1//EN"
 "http://www.w3.org/Graphics/SVG/1.1/DTD/svg11.dtd">
<!-- Generated by graphviz version 2.43.0 (0)
 -->
<!-- Title: rev Pages: 1 -->
<svg width="148pt" height="104pt"
 viewBox="0.00 0.00 148.00 104.00" xmlns="http://www.w3.org/2000/svg" xmlns:xlink="http://www.w3.org/1999/xlink">
<g id="graph0" class="graph" transform="scale(1 1) rotate(0) translate(4 100)">
<title>rev</title>
<polygon fill="white" stroke="transparent" points="-4,4 -4,-100 144,-100 144,4 -4,4"/>
<!-- Node1 -->
<g id="node1" class="node">
<title>Node1</title>
<g id="a_node1"><a xlink:title=" ">
<polygon fill="#bfbfbf" stroke="black" points="108,-38.5 108,-57.5 140,-57.5 140,-38.5 108,-38.5"/>
<text text-anchor="middle" x="124" y="-45.5" font-family="Helvetica,sans-Serif" font-size="10.00">rev</text>
</a>
</g>
</g>
<!-- Node2 -->
<g id="node2" class="node">
<title>Node2</title>
<g id="a_node2"><a xlink:href="structtree_1_1no.html#af0fdce790d620d5787ac8efe7642ce70" target="_top" xlink:title=" ">
<polygon fill="white" stroke="black" points="0,-76.5 0,-95.5 72,-95.5 72,-76.5 0,-76.5"/>
<text text-anchor="middle" x="36" y="-83.5" font-family="Helvetica,sans-Serif" font-size="10.00">tree::no::dp</text>
</a>
</g>
</g>
<!-- Node1&#45;&gt;Node2 -->
<g id="edge1" class="edge">
<title>Node1&#45;&gt;Node2</title>
<path fill="none" stroke="midnightblue" d="M98.25,-58.94C85.76,-64.46 70.74,-71.09 58.7,-76.41"/>
<polygon fill="midnightblue" stroke="midnightblue" points="99.89,-62.04 107.62,-54.79 97.06,-55.63 99.89,-62.04"/>
</g>
<!-- Node3 -->
<g id="node3" class="node">
<title>Node3</title>
<g id="a_node3"><a xlink:href="namespacetree.html#ad6fb77bc640502f7cfbc3b49c7891419" target="_top" xlink:title=" ">
<polygon fill="white" stroke="black" points="8,-38.5 8,-57.5 64,-57.5 64,-38.5 8,-38.5"/>
<text text-anchor="middle" x="36" y="-45.5" font-family="Helvetica,sans-Serif" font-size="10.00">tree::lca</text>
</a>
</g>
</g>
<!-- Node1&#45;&gt;Node3 -->
<g id="edge2" class="edge">
<title>Node1&#45;&gt;Node3</title>
<path fill="none" stroke="midnightblue" d="M97.41,-48C86.9,-48 74.72,-48 64.07,-48"/>
<polygon fill="midnightblue" stroke="midnightblue" points="97.62,-51.5 107.62,-48 97.62,-44.5 97.62,-51.5"/>
</g>
<!-- Node4 -->
<g id="node4" class="node">
<title>Node4</title>
<g id="a_node4"><a xlink:href="structseg.html#a71b2f9f35c3edacf1a431f8ab6b1b952" target="_top" xlink:title=" ">
<polygon fill="white" stroke="black" points="7.5,-0.5 7.5,-19.5 64.5,-19.5 64.5,-0.5 7.5,-0.5"/>
<text text-anchor="middle" x="36" y="-7.5" font-family="Helvetica,sans-Serif" font-size="10.00">seg::seg</text>
</a>
</g>
</g>
<!-- Node1&#45;&gt;Node4 -->
<g id="edge3" class="edge">
<title>Node1&#45;&gt;Node4</title>
<path fill="none" stroke="midnightblue" d="M98.25,-37.06C85.76,-31.54 70.74,-24.91 58.7,-19.59"/>
<polygon fill="midnightblue" stroke="midnightblue" points="97.06,-40.37 107.62,-41.21 99.89,-33.96 97.06,-40.37"/>
</g>
</g>
</svg>
