<?xml version="1.0" encoding="UTF-8" standalone="no"?>
<!DOCTYPE svg PUBLIC "-//W3C//DTD SVG 1.1//EN"
 "http://www.w3.org/Graphics/SVG/1.1/DTD/svg11.dtd">
<!-- Generated by graphviz version 2.43.0 (0)
 -->
<!-- Title: /home/ram/OmniTemplate/range.hpp Pages: 1 -->
<svg width="606pt" height="274pt"
 viewBox="0.00 0.00 606.07 274.00" xmlns="http://www.w3.org/2000/svg" xmlns:xlink="http://www.w3.org/1999/xlink">
<g id="graph0" class="graph" transform="scale(1 1) rotate(0) translate(4 270)">
<title>/home/ram/OmniTemplate/range.hpp</title>
<polygon fill="white" stroke="transparent" points="-4,4 -4,-270 602.07,-270 602.07,4 -4,4"/>
<!-- Node1 -->
<g id="node1" class="node">
<title>Node1</title>
<g id="a_node1"><a xlink:title=" ">
<polygon fill="#bfbfbf" stroke="black" points="248,-235.5 248,-265.5 392,-265.5 392,-235.5 248,-235.5"/>
<text text-anchor="start" x="256" y="-253.5" font-family="Helvetica,sans-Serif" font-size="10.00">/home/ram/OmniTemplate</text>
<text text-anchor="middle" x="320" y="-242.5" font-family="Helvetica,sans-Serif" font-size="10.00">/range.hpp</text>
</a>
</g>
</g>
<!-- Node2 -->
<g id="node2" class="node">
<title>Node2</title>
<g id="a_node2"><a xlink:href="core_8hpp.html" target="_top" xlink:title=" ">
<polygon fill="white" stroke="black" points="290.5,-179.5 290.5,-198.5 349.5,-198.5 349.5,-179.5 290.5,-179.5"/>
<text text-anchor="middle" x="320" y="-186.5" font-family="Helvetica,sans-Serif" font-size="10.00">core.hpp</text>
</a>
</g>
</g>
<!-- Node1&#45;&gt;Node2 -->
<g id="edge1" class="edge">
<title>Node1&#45;&gt;Node2</title>
<path fill="none" stroke="midnightblue" d="M314.16,-235.4C313.13,-227.38 312.97,-217.23 313.69,-208.57"/>
<polygon fill="midnightblue" stroke="midnightblue" points="317.16,-209.04 315.07,-198.66 310.23,-208.08 317.16,-209.04"/>
</g>
<!-- Node2&#45;&gt;Node1 -->
<g id="edge12" class="edge">
<title>Node2&#45;&gt;Node1</title>
<path fill="none" stroke="midnightblue" d="M324.93,-198.66C326.43,-205.65 327.01,-215.86 326.64,-225.29"/>
<polygon fill="midnightblue" stroke="midnightblue" points="323.14,-225.15 325.84,-235.4 330.12,-225.71 323.14,-225.15"/>
</g>
<!-- Node3 -->
<g id="node3" class="node">
<title>Node3</title>
<g id="a_node3"><a xlink:title=" ">
<polygon fill="white" stroke="#bfbfbf" points="101.5,-118 101.5,-137 184.5,-137 184.5,-118 101.5,-118"/>
<text text-anchor="middle" x="143" y="-125" font-family="Helvetica,sans-Serif" font-size="10.00">bits/stdc++.h</text>
</a>
</g>
</g>
<!-- Node2&#45;&gt;Node3 -->
<g id="edge2" class="edge">
<title>Node2&#45;&gt;Node3</title>
<path fill="none" stroke="midnightblue" d="M294.64,-179.48C264.02,-169.18 212.34,-151.81 177.95,-140.25"/>
<polygon fill="midnightblue" stroke="midnightblue" points="178.91,-136.88 168.31,-137.01 176.68,-143.51 178.91,-136.88"/>
</g>
<!-- Node4 -->
<g id="node4" class="node">
<title>Node4</title>
<g id="a_node4"><a xlink:title=" ">
<polygon fill="white" stroke="#bfbfbf" points="202.5,-118 202.5,-137 323.5,-137 323.5,-118 202.5,-118"/>
<text text-anchor="middle" x="263" y="-125" font-family="Helvetica,sans-Serif" font-size="10.00">experimental/iterator</text>
</a>
</g>
</g>
<!-- Node2&#45;&gt;Node4 -->
<g id="edge3" class="edge">
<title>Node2&#45;&gt;Node4</title>
<path fill="none" stroke="midnightblue" d="M311.83,-179.48C303.11,-170.37 289.1,-155.74 278.31,-144.48"/>
<polygon fill="midnightblue" stroke="midnightblue" points="280.6,-141.81 271.15,-137.01 275.54,-146.65 280.6,-141.81"/>
</g>
<!-- Node5 -->
<g id="node5" class="node">
<title>Node5</title>
<g id="a_node5"><a xlink:title=" ">
<polygon fill="white" stroke="#bfbfbf" points="341.5,-112.5 341.5,-142.5 458.5,-142.5 458.5,-112.5 341.5,-112.5"/>
<text text-anchor="start" x="349.5" y="-130.5" font-family="Helvetica,sans-Serif" font-size="10.00">experimental/source</text>
<text text-anchor="middle" x="400" y="-119.5" font-family="Helvetica,sans-Serif" font-size="10.00">_location</text>
</a>
</g>
</g>
<!-- Node2&#45;&gt;Node5 -->
<g id="edge4" class="edge">
<title>Node2&#45;&gt;Node5</title>
<path fill="none" stroke="midnightblue" d="M331.46,-179.48C342.2,-171.49 358.65,-159.25 372.75,-148.77"/>
<polygon fill="midnightblue" stroke="midnightblue" points="375.21,-151.3 381.15,-142.52 371.03,-145.68 375.21,-151.3"/>
</g>
<!-- Node6 -->
<g id="node6" class="node">
<title>Node6</title>
<g id="a_node6"><a xlink:href="io_8hpp.html" target="_top" xlink:title=" ">
<polygon fill="white" stroke="black" points="36.5,-118 36.5,-137 83.5,-137 83.5,-118 36.5,-118"/>
<text text-anchor="middle" x="60" y="-125" font-family="Helvetica,sans-Serif" font-size="10.00">io.hpp</text>
</a>
</g>
</g>
<!-- Node2&#45;&gt;Node6 -->
<g id="edge5" class="edge">
<title>Node2&#45;&gt;Node6</title>
<path fill="none" stroke="midnightblue" d="M290.3,-184.37C246.25,-178.48 161.35,-165.23 92,-143 90.13,-142.4 88.22,-141.72 86.31,-140.99"/>
<polygon fill="midnightblue" stroke="midnightblue" points="87.56,-137.72 76.98,-137.07 84.85,-144.17 87.56,-137.72"/>
</g>
<!-- Node7 -->
<g id="node7" class="node">
<title>Node7</title>
<g id="a_node7"><a xlink:href="debug_8hpp.html" target="_top" xlink:title=" ">
<polygon fill="white" stroke="black" points="0,-56.5 0,-75.5 68,-75.5 68,-56.5 0,-56.5"/>
<text text-anchor="middle" x="34" y="-63.5" font-family="Helvetica,sans-Serif" font-size="10.00">debug.hpp</text>
</a>
</g>
</g>
<!-- Node2&#45;&gt;Node7 -->
<g id="edge10" class="edge">
<title>Node2&#45;&gt;Node7</title>
<path fill="none" stroke="midnightblue" d="M290.41,-188.1C222.9,-187.63 60.77,-182.35 27,-143 13.42,-127.18 19.18,-102.1 25.63,-85.11"/>
<polygon fill="midnightblue" stroke="midnightblue" points="28.92,-86.32 29.57,-75.74 22.47,-83.6 28.92,-86.32"/>
</g>
<!-- Node8 -->
<g id="node8" class="node">
<title>Node8</title>
<g id="a_node8"><a xlink:href="operations_8hpp.html" target="_top" xlink:title=" ">
<polygon fill="white" stroke="black" points="442.5,-0.5 442.5,-19.5 531.5,-19.5 531.5,-0.5 442.5,-0.5"/>
<text text-anchor="middle" x="487" y="-7.5" font-family="Helvetica,sans-Serif" font-size="10.00">operations.hpp</text>
</a>
</g>
</g>
<!-- Node2&#45;&gt;Node8 -->
<g id="edge11" class="edge">
<title>Node2&#45;&gt;Node8</title>
<path fill="none" stroke="midnightblue" d="M349.72,-187.86C383.73,-185.97 438.53,-177.34 468,-143 495.43,-111.04 493.47,-57.84 490.04,-29.73"/>
<polygon fill="midnightblue" stroke="midnightblue" points="493.48,-29.07 488.61,-19.66 486.55,-30.05 493.48,-29.07"/>
</g>
<!-- Node9 -->
<g id="node9" class="node">
<title>Node9</title>
<g id="a_node9"><a xlink:href="utility_8hpp.html" target="_top" xlink:title=" ">
<polygon fill="white" stroke="black" points="515.5,-118 515.5,-137 580.5,-137 580.5,-118 515.5,-118"/>
<text text-anchor="middle" x="548" y="-125" font-family="Helvetica,sans-Serif" font-size="10.00">utility.hpp</text>
</a>
</g>
</g>
<!-- Node2&#45;&gt;Node9 -->
<g id="edge13" class="edge">
<title>Node2&#45;&gt;Node9</title>
<path fill="none" stroke="midnightblue" d="M349.6,-181.17C385.55,-172.76 447.97,-157.76 501,-143 504.39,-142.06 507.91,-141.04 511.43,-140"/>
<polygon fill="midnightblue" stroke="midnightblue" points="512.67,-143.28 521.23,-137.04 510.65,-136.58 512.67,-143.28"/>
</g>
<!-- Node6&#45;&gt;Node7 -->
<g id="edge6" class="edge">
<title>Node6&#45;&gt;Node7</title>
<path fill="none" stroke="midnightblue" d="M56.27,-117.98C52.53,-109.4 46.64,-95.93 41.86,-84.98"/>
<polygon fill="midnightblue" stroke="midnightblue" points="44.93,-83.27 37.72,-75.51 38.52,-86.07 44.93,-83.27"/>
</g>
<!-- Node7&#45;&gt;Node1 -->
<g id="edge9" class="edge">
<title>Node7&#45;&gt;Node1</title>
<path fill="none" stroke="midnightblue" d="M27.56,-75.83C17.38,-90.94 0.2,-122.15 15,-143 65.16,-213.65 165.85,-237.81 237.82,-245.87"/>
<polygon fill="midnightblue" stroke="midnightblue" points="237.47,-249.35 247.77,-246.9 238.19,-242.39 237.47,-249.35"/>
</g>
<!-- Node7&#45;&gt;Node8 -->
<g id="edge7" class="edge">
<title>Node7&#45;&gt;Node8</title>
<path fill="none" stroke="midnightblue" d="M68.05,-60.94C145.97,-51.65 337.82,-28.78 432.44,-17.5"/>
<polygon fill="midnightblue" stroke="midnightblue" points="432.87,-20.98 442.38,-16.32 432.04,-14.03 432.87,-20.98"/>
</g>
<!-- Node8&#45;&gt;Node1 -->
<g id="edge8" class="edge">
<title>Node8&#45;&gt;Node1</title>
<path fill="none" stroke="midnightblue" d="M502.95,-19.51C539.39,-40.07 623.12,-94.34 590,-143 548.22,-204.39 465.07,-230.39 402.03,-241.41"/>
<polygon fill="midnightblue" stroke="midnightblue" points="401.39,-237.97 392.09,-243.05 402.53,-244.87 401.39,-237.97"/>
</g>
<!-- Node9&#45;&gt;Node1 -->
<g id="edge14" class="edge">
<title>Node9&#45;&gt;Node1</title>
<path fill="none" stroke="midnightblue" d="M531.81,-137.09C495.26,-156.49 405.65,-204.04 355.49,-230.67"/>
<polygon fill="midnightblue" stroke="midnightblue" points="353.79,-227.6 346.6,-235.38 357.07,-233.79 353.79,-227.6"/>
</g>
</g>
</svg>
