<?xml version="1.0" encoding="UTF-8" standalone="no"?>
<!DOCTYPE svg PUBLIC "-//W3C//DTD SVG 1.1//EN"
 "http://www.w3.org/Graphics/SVG/1.1/DTD/svg11.dtd">
<!-- Generated by graphviz version 2.43.0 (0)
 -->
<!-- Title: /home/ram/OmniTemplate/src/core/range.hpp Pages: 1 -->
<!--zoomable 274 -->
<svg id="main" version="1.1" xmlns="http://www.w3.org/2000/svg" xmlns:xlink="http://www.w3.org/1999/xlink" xml:space="preserve" onload="init(evt)">
<style type="text/css"><![CDATA[
.edge:hover path { stroke: red; }
.edge:hover polygon { stroke: red; fill: red; }
]]></style>
<script type="text/javascript"><![CDATA[
var edges = document.getElementsByTagName('g');
if (edges && edges.length) {
  for (var i=0;i<edges.length;i++) {
    if (edges[i].id.substr(0,4)=='edge') {
      edges[i].setAttribute('class','edge');
    }
  }
}
]]></script>
        <defs>
                <circle id="rim" cx="0" cy="0" r="7"/>
                <circle id="rim2" cx="0" cy="0" r="3.5"/>
                <g id="zoomPlus">
                        <use xlink:href="#rim" fill="#404040">
                                <set attributeName="fill" to="#808080" begin="zoomplus.mouseover" end="zoomplus.mouseout"/>
                        </use>
                        <path d="M-4,0h8M0,-4v8" fill="none" stroke="white" stroke-width="1.5" pointer-events="none"/>
                </g>
                <g id="zoomMin">
                        <use xlink:href="#rim" fill="#404040">
                                <set attributeName="fill" to="#808080" begin="zoomminus.mouseover" end="zoomminus.mouseout"/>
                        </use>
                        <path d="M-4,0h8" fill="none" stroke="white" stroke-width="1.5" pointer-events="none"/>
                </g>
                <g id="dirArrow">
                        <path fill="none" stroke="white" stroke-width="1.5" d="M0,-3.0v7 M-2.5,-0.5L0,-3.0L2.5,-0.5"/>
                </g>
               <g id="resetDef">
                       <use xlink:href="#rim2" fill="#404040">
                               <set attributeName="fill" to="#808080" begin="reset.mouseover" end="reset.mouseout"/>
                       </use>
               </g>
        </defs>

<script type="text/javascript">
var viewWidth = 1898;
var viewHeight = 274;
var sectionId = 'dynsection-0';
</script>
<script xlink:href="svgpan.js"/>
<svg id="graph" class="graph">
<g id="viewport">
<title>/home/ram/OmniTemplate/src/core/range.hpp</title>
<polygon fill="white" stroke="transparent" points="-4,4 -4,-270 1894.43,-270 1894.43,4 -4,4"/>
<!-- Node1 -->
<g id="node1" class="node">
<title>Node1</title>
<g id="a_node1"><a xlink:title=" ">
<polygon fill="#bfbfbf" stroke="black" points="1744,-235.5 1744,-265.5 1888,-265.5 1888,-235.5 1744,-235.5"/>
<text text-anchor="start" x="1752" y="-253.5" font-family="Helvetica,sans-Serif" font-size="10.00">/home/ram/OmniTemplate</text>
<text text-anchor="middle" x="1816" y="-242.5" font-family="Helvetica,sans-Serif" font-size="10.00">/src/core/range.hpp</text>
</a>
</g>
</g>
<!-- Node2 -->
<g id="node2" class="node">
<title>Node2</title>
<g id="a_node2"><a xlink:href="core_2all_8hpp.html" target="_top" xlink:title=" ">
<polygon fill="white" stroke="black" points="920,-179.5 920,-198.5 994,-198.5 994,-179.5 920,-179.5"/>
<text text-anchor="middle" x="957" y="-186.5" font-family="Helvetica,sans-Serif" font-size="10.00">core/all.hpp</text>
</a>
</g>
</g>
<!-- Node1&#45;&gt;Node2 -->
<g id="edge1" class="edge">
<title>Node1&#45;&gt;Node2</title>
<path fill="none" stroke="midnightblue" d="M1743.65,-244.76C1572.53,-233.18 1146.9,-203.69 1004.33,-193.51"/>
<polygon fill="midnightblue" stroke="midnightblue" points="1004.39,-190.01 994.16,-192.79 1003.89,-196.99 1004.39,-190.01"/>
</g>
<!-- Node2&#45;&gt;Node1 -->
<g id="edge30" class="edge">
<title>Node2&#45;&gt;Node1</title>
<path fill="none" stroke="midnightblue" d="M994.21,-192.38C1123.15,-200.99 1552.22,-230.68 1733.79,-243.51"/>
<polygon fill="midnightblue" stroke="midnightblue" points="1733.59,-247.01 1743.82,-244.22 1734.09,-240.02 1733.59,-247.01"/>
</g>
<!-- Node3 -->
<g id="node3" class="node">
<title>Node3</title>
<g id="a_node3"><a xlink:title=" ">
<polygon fill="white" stroke="#bfbfbf" points="1563,-118 1563,-137 1627,-137 1627,-118 1563,-118"/>
<text text-anchor="middle" x="1595" y="-125" font-family="Helvetica,sans-Serif" font-size="10.00">algorithm</text>
</a>
</g>
</g>
<!-- Node2&#45;&gt;Node3 -->
<g id="edge2" class="edge">
<title>Node2&#45;&gt;Node3</title>
<path fill="none" stroke="midnightblue" d="M994.08,-188.48C1088.44,-189.01 1344.94,-186.02 1553,-143 1556.51,-142.28 1560.12,-141.34 1563.69,-140.29"/>
<polygon fill="midnightblue" stroke="midnightblue" points="1565.06,-143.52 1573.5,-137.11 1562.91,-136.86 1565.06,-143.52"/>
</g>
<!-- Node4 -->
<g id="node4" class="node">
<title>Node4</title>
<g id="a_node4"><a xlink:title=" ">
<polygon fill="white" stroke="#bfbfbf" points="1645,-118 1645,-137 1697,-137 1697,-118 1645,-118"/>
<text text-anchor="middle" x="1671" y="-125" font-family="Helvetica,sans-Serif" font-size="10.00">cassert</text>
</a>
</g>
</g>
<!-- Node2&#45;&gt;Node4 -->
<g id="edge3" class="edge">
<title>Node2&#45;&gt;Node4</title>
<path fill="none" stroke="midnightblue" d="M994.15,-187.13C1117.46,-183.99 1512.33,-171.89 1636,-143 1638.67,-142.38 1641.4,-141.57 1644.1,-140.66"/>
<polygon fill="midnightblue" stroke="midnightblue" points="1645.48,-143.88 1653.57,-137.03 1642.98,-137.34 1645.48,-143.88"/>
</g>
<!-- Node5 -->
<g id="node5" class="node">
<title>Node5</title>
<g id="a_node5"><a xlink:title=" ">
<polygon fill="white" stroke="#bfbfbf" points="1715,-118 1715,-137 1765,-137 1765,-118 1715,-118"/>
<text text-anchor="middle" x="1740" y="-125" font-family="Helvetica,sans-Serif" font-size="10.00">chrono</text>
</a>
</g>
</g>
<!-- Node2&#45;&gt;Node5 -->
<g id="edge4" class="edge">
<title>Node2&#45;&gt;Node5</title>
<path fill="none" stroke="midnightblue" d="M994.27,-187.44C1125.91,-185.22 1568.43,-175.44 1706,-143 1708.51,-142.41 1711.08,-141.64 1713.61,-140.77"/>
<polygon fill="midnightblue" stroke="midnightblue" points="1715.06,-143.97 1723.09,-137.06 1712.5,-137.45 1715.06,-143.97"/>
</g>
<!-- Node6 -->
<g id="node6" class="node">
<title>Node6</title>
<g id="a_node6"><a xlink:title=" ">
<polygon fill="white" stroke="#bfbfbf" points="0,-118 0,-137 50,-137 50,-118 0,-118"/>
<text text-anchor="middle" x="25" y="-125" font-family="Helvetica,sans-Serif" font-size="10.00">climits</text>
</a>
</g>
</g>
<!-- Node2&#45;&gt;Node6 -->
<g id="edge5" class="edge">
<title>Node2&#45;&gt;Node6</title>
<path fill="none" stroke="midnightblue" d="M919.91,-187.88C772.34,-187.11 226.79,-181.69 59,-143 56.48,-142.42 53.92,-141.66 51.38,-140.8"/>
<polygon fill="midnightblue" stroke="midnightblue" points="52.49,-137.48 41.9,-137.09 49.94,-144 52.49,-137.48"/>
</g>
<!-- Node7 -->
<g id="node7" class="node">
<title>Node7</title>
<g id="a_node7"><a xlink:title=" ">
<polygon fill="white" stroke="#bfbfbf" points="68.5,-118 68.5,-137 127.5,-137 127.5,-118 68.5,-118"/>
<text text-anchor="middle" x="98" y="-125" font-family="Helvetica,sans-Serif" font-size="10.00">complex</text>
</a>
</g>
</g>
<!-- Node2&#45;&gt;Node7 -->
<g id="edge6" class="edge">
<title>Node2&#45;&gt;Node7</title>
<path fill="none" stroke="midnightblue" d="M919.61,-187.48C779.9,-185.31 288.71,-175.49 136,-143 132.92,-142.35 129.76,-141.48 126.65,-140.49"/>
<polygon fill="midnightblue" stroke="midnightblue" points="127.58,-137.11 116.98,-137.06 125.23,-143.71 127.58,-137.11"/>
</g>
<!-- Node8 -->
<g id="node8" class="node">
<title>Node8</title>
<g id="a_node8"><a xlink:title=" ">
<polygon fill="white" stroke="#bfbfbf" points="145.5,-118 145.5,-137 200.5,-137 200.5,-118 145.5,-118"/>
<text text-anchor="middle" x="173" y="-125" font-family="Helvetica,sans-Serif" font-size="10.00">fstream</text>
</a>
</g>
</g>
<!-- Node2&#45;&gt;Node8 -->
<g id="edge7" class="edge">
<title>Node2&#45;&gt;Node8</title>
<path fill="none" stroke="midnightblue" d="M919.8,-187.34C788.41,-184.78 346.71,-174.01 209,-143 206.17,-142.36 203.26,-141.53 200.4,-140.58"/>
<polygon fill="midnightblue" stroke="midnightblue" points="201.54,-137.27 190.95,-137.05 199.09,-143.83 201.54,-137.27"/>
</g>
<!-- Node9 -->
<g id="node9" class="node">
<title>Node9</title>
<g id="a_node9"><a xlink:title=" ">
<polygon fill="white" stroke="#bfbfbf" points="218.5,-118 218.5,-137 283.5,-137 283.5,-118 218.5,-118"/>
<text text-anchor="middle" x="251" y="-125" font-family="Helvetica,sans-Serif" font-size="10.00">functional</text>
</a>
</g>
</g>
<!-- Node2&#45;&gt;Node9 -->
<g id="edge8" class="edge">
<title>Node2&#45;&gt;Node9</title>
<path fill="none" stroke="midnightblue" d="M919.88,-186.78C798.54,-182.58 414.45,-167.62 293,-143 289.49,-142.29 285.88,-141.36 282.3,-140.31"/>
<polygon fill="midnightblue" stroke="midnightblue" points="283.09,-136.89 272.49,-137.14 280.93,-143.55 283.09,-136.89"/>
</g>
<!-- Node10 -->
<g id="node10" class="node">
<title>Node10</title>
<g id="a_node10"><a xlink:title=" ">
<polygon fill="white" stroke="#bfbfbf" points="302,-118 302,-137 362,-137 362,-118 302,-118"/>
<text text-anchor="middle" x="332" y="-125" font-family="Helvetica,sans-Serif" font-size="10.00">iostream</text>
</a>
</g>
</g>
<!-- Node2&#45;&gt;Node10 -->
<g id="edge9" class="edge">
<title>Node2&#45;&gt;Node10</title>
<path fill="none" stroke="midnightblue" d="M919.8,-188.71C826.32,-189.73 574.55,-187.73 371,-143 367.92,-142.32 364.77,-141.46 361.64,-140.49"/>
<polygon fill="midnightblue" stroke="midnightblue" points="362.51,-137.08 351.92,-137.12 360.23,-143.7 362.51,-137.08"/>
</g>
<!-- Node11 -->
<g id="node11" class="node">
<title>Node11</title>
<g id="a_node11"><a xlink:title=" ">
<polygon fill="white" stroke="#bfbfbf" points="380,-118 380,-137 418,-137 418,-118 380,-118"/>
<text text-anchor="middle" x="399" y="-125" font-family="Helvetica,sans-Serif" font-size="10.00">map</text>
</a>
</g>
</g>
<!-- Node2&#45;&gt;Node11 -->
<g id="edge10" class="edge">
<title>Node2&#45;&gt;Node11</title>
<path fill="none" stroke="midnightblue" d="M919.72,-186.73C815,-182.86 519.82,-169.82 427,-143 425.34,-142.52 423.66,-141.94 421.99,-141.28"/>
<polygon fill="midnightblue" stroke="midnightblue" points="423.34,-138.05 412.79,-137.01 420.39,-144.4 423.34,-138.05"/>
</g>
<!-- Node12 -->
<g id="node12" class="node">
<title>Node12</title>
<g id="a_node12"><a xlink:title=" ">
<polygon fill="white" stroke="#bfbfbf" points="436,-118 436,-137 492,-137 492,-118 436,-118"/>
<text text-anchor="middle" x="464" y="-125" font-family="Helvetica,sans-Serif" font-size="10.00">numeric</text>
</a>
</g>
</g>
<!-- Node2&#45;&gt;Node12 -->
<g id="edge11" class="edge">
<title>Node2&#45;&gt;Node12</title>
<path fill="none" stroke="midnightblue" d="M919.78,-187.77C841.27,-186.53 653.37,-179.63 501,-143 498.17,-142.32 495.27,-141.47 492.39,-140.52"/>
<polygon fill="midnightblue" stroke="midnightblue" points="493.47,-137.19 482.88,-137.05 491.07,-143.77 493.47,-137.19"/>
</g>
<!-- Node13 -->
<g id="node13" class="node">
<title>Node13</title>
<g id="a_node13"><a xlink:title=" ">
<polygon fill="white" stroke="#bfbfbf" points="510.5,-118 510.5,-137 557.5,-137 557.5,-118 510.5,-118"/>
<text text-anchor="middle" x="534" y="-125" font-family="Helvetica,sans-Serif" font-size="10.00">queue</text>
</a>
</g>
</g>
<!-- Node2&#45;&gt;Node13 -->
<g id="edge12" class="edge">
<title>Node2&#45;&gt;Node13</title>
<path fill="none" stroke="midnightblue" d="M919.75,-187.38C849.53,-185.41 693.31,-177.2 567,-143 564.71,-142.38 562.37,-141.62 560.05,-140.79"/>
<polygon fill="midnightblue" stroke="midnightblue" points="561.36,-137.54 550.77,-137.03 558.73,-144.03 561.36,-137.54"/>
</g>
<!-- Node14 -->
<g id="node14" class="node">
<title>Node14</title>
<g id="a_node14"><a xlink:title=" ">
<polygon fill="white" stroke="#bfbfbf" points="576,-118 576,-137 630,-137 630,-118 576,-118"/>
<text text-anchor="middle" x="603" y="-125" font-family="Helvetica,sans-Serif" font-size="10.00">random</text>
</a>
</g>
</g>
<!-- Node2&#45;&gt;Node14 -->
<g id="edge13" class="edge">
<title>Node2&#45;&gt;Node14</title>
<path fill="none" stroke="midnightblue" d="M919.69,-185.66C859.68,-181.24 738.37,-169.62 639,-143 636.49,-142.33 633.93,-141.53 631.38,-140.66"/>
<polygon fill="midnightblue" stroke="midnightblue" points="632.36,-137.29 621.76,-137.06 629.9,-143.84 632.36,-137.29"/>
</g>
<!-- Node15 -->
<g id="node15" class="node">
<title>Node15</title>
<g id="a_node15"><a xlink:title=" ">
<polygon fill="white" stroke="#bfbfbf" points="648,-118 648,-137 680,-137 680,-118 648,-118"/>
<text text-anchor="middle" x="664" y="-125" font-family="Helvetica,sans-Serif" font-size="10.00">set</text>
</a>
</g>
</g>
<!-- Node2&#45;&gt;Node15 -->
<g id="edge14" class="edge">
<title>Node2&#45;&gt;Node15</title>
<path fill="none" stroke="midnightblue" d="M919.97,-185.98C867.26,-182.17 768.22,-171.56 689,-143 687.96,-142.63 686.92,-142.21 685.87,-141.76"/>
<polygon fill="midnightblue" stroke="midnightblue" points="687.3,-138.55 676.8,-137.1 684.1,-144.78 687.3,-138.55"/>
</g>
<!-- Node16 -->
<g id="node16" class="node">
<title>Node16</title>
<g id="a_node16"><a xlink:title=" ">
<polygon fill="white" stroke="#bfbfbf" points="698.5,-118 698.5,-137 741.5,-137 741.5,-118 698.5,-118"/>
<text text-anchor="middle" x="720" y="-125" font-family="Helvetica,sans-Serif" font-size="10.00">stack</text>
</a>
</g>
</g>
<!-- Node2&#45;&gt;Node16 -->
<g id="edge15" class="edge">
<title>Node2&#45;&gt;Node16</title>
<path fill="none" stroke="midnightblue" d="M919.86,-182.45C878.09,-175.62 808.56,-162.48 751,-143 749.34,-142.44 747.64,-141.81 745.95,-141.14"/>
<polygon fill="midnightblue" stroke="midnightblue" points="747.02,-137.79 736.45,-137.02 744.23,-144.21 747.02,-137.79"/>
</g>
<!-- Node17 -->
<g id="node17" class="node">
<title>Node17</title>
<g id="a_node17"><a xlink:title=" ">
<polygon fill="white" stroke="#bfbfbf" points="760,-118 760,-137 808,-137 808,-118 760,-118"/>
<text text-anchor="middle" x="784" y="-125" font-family="Helvetica,sans-Serif" font-size="10.00">thread</text>
</a>
</g>
</g>
<!-- Node2&#45;&gt;Node17 -->
<g id="edge16" class="edge">
<title>Node2&#45;&gt;Node17</title>
<path fill="none" stroke="midnightblue" d="M927.47,-179.47C898.92,-171.01 854.6,-157.26 817,-143 815.39,-142.39 813.75,-141.74 812.09,-141.08"/>
<polygon fill="midnightblue" stroke="midnightblue" points="813.28,-137.78 802.71,-137.12 810.56,-144.23 813.28,-137.78"/>
</g>
<!-- Node18 -->
<g id="node18" class="node">
<title>Node18</title>
<g id="a_node18"><a xlink:title=" ">
<polygon fill="white" stroke="#bfbfbf" points="826.5,-118 826.5,-137 895.5,-137 895.5,-118 826.5,-118"/>
<text text-anchor="middle" x="861" y="-125" font-family="Helvetica,sans-Serif" font-size="10.00">type_traits</text>
</a>
</g>
</g>
<!-- Node2&#45;&gt;Node18 -->
<g id="edge17" class="edge">
<title>Node2&#45;&gt;Node18</title>
<path fill="none" stroke="midnightblue" d="M943.25,-179.48C927.63,-169.8 901.94,-153.87 883.42,-142.39"/>
<polygon fill="midnightblue" stroke="midnightblue" points="885.07,-139.3 874.73,-137.01 881.38,-145.25 885.07,-139.3"/>
</g>
<!-- Node19 -->
<g id="node19" class="node">
<title>Node19</title>
<g id="a_node19"><a xlink:title=" ">
<polygon fill="white" stroke="#bfbfbf" points="914,-118 914,-137 1000,-137 1000,-118 914,-118"/>
<text text-anchor="middle" x="957" y="-125" font-family="Helvetica,sans-Serif" font-size="10.00">unordered_set</text>
</a>
</g>
</g>
<!-- Node2&#45;&gt;Node19 -->
<g id="edge18" class="edge">
<title>Node2&#45;&gt;Node19</title>
<path fill="none" stroke="midnightblue" d="M957,-179.48C957,-171.08 957,-157.98 957,-147.16"/>
<polygon fill="midnightblue" stroke="midnightblue" points="960.5,-147.01 957,-137.01 953.5,-147.01 960.5,-147.01"/>
</g>
<!-- Node20 -->
<g id="node20" class="node">
<title>Node20</title>
<g id="a_node20"><a xlink:title=" ">
<polygon fill="white" stroke="#bfbfbf" points="1018.5,-118 1018.5,-137 1063.5,-137 1063.5,-118 1018.5,-118"/>
<text text-anchor="middle" x="1041" y="-125" font-family="Helvetica,sans-Serif" font-size="10.00">utility</text>
</a>
</g>
</g>
<!-- Node2&#45;&gt;Node20 -->
<g id="edge19" class="edge">
<title>Node2&#45;&gt;Node20</title>
<path fill="none" stroke="midnightblue" d="M969.04,-179.48C982.51,-169.93 1004.57,-154.31 1020.72,-142.87"/>
<polygon fill="midnightblue" stroke="midnightblue" points="1022.85,-145.65 1028.99,-137.01 1018.8,-139.93 1022.85,-145.65"/>
</g>
<!-- Node21 -->
<g id="node21" class="node">
<title>Node21</title>
<g id="a_node21"><a xlink:title=" ">
<polygon fill="white" stroke="#bfbfbf" points="1081.5,-118 1081.5,-137 1128.5,-137 1128.5,-118 1081.5,-118"/>
<text text-anchor="middle" x="1105" y="-125" font-family="Helvetica,sans-Serif" font-size="10.00">vector</text>
</a>
</g>
</g>
<!-- Node2&#45;&gt;Node21 -->
<g id="edge20" class="edge">
<title>Node2&#45;&gt;Node21</title>
<path fill="none" stroke="midnightblue" d="M979.59,-179.48C1002.85,-170.62 1040.12,-156.23 1072,-143 1073.41,-142.42 1074.85,-141.81 1076.3,-141.19"/>
<polygon fill="midnightblue" stroke="midnightblue" points="1078.07,-144.24 1085.86,-137.07 1075.29,-137.82 1078.07,-144.24"/>
</g>
<!-- Node22 -->
<g id="node22" class="node">
<title>Node22</title>
<g id="a_node22"><a xlink:title=" ">
<polygon fill="white" stroke="#bfbfbf" points="1146.5,-118 1146.5,-137 1267.5,-137 1267.5,-118 1146.5,-118"/>
<text text-anchor="middle" x="1207" y="-125" font-family="Helvetica,sans-Serif" font-size="10.00">experimental/iterator</text>
</a>
</g>
</g>
<!-- Node2&#45;&gt;Node22 -->
<g id="edge21" class="edge">
<title>Node2&#45;&gt;Node22</title>
<path fill="none" stroke="midnightblue" d="M992.82,-179.48C1037.19,-168.92 1112.84,-150.91 1161.33,-139.37"/>
<polygon fill="midnightblue" stroke="midnightblue" points="1162.33,-142.73 1171.25,-137.01 1160.71,-135.92 1162.33,-142.73"/>
</g>
<!-- Node23 -->
<g id="node23" class="node">
<title>Node23</title>
<g id="a_node23"><a xlink:title=" ">
<polygon fill="white" stroke="#bfbfbf" points="1285.5,-112.5 1285.5,-142.5 1402.5,-142.5 1402.5,-112.5 1285.5,-112.5"/>
<text text-anchor="start" x="1293.5" y="-130.5" font-family="Helvetica,sans-Serif" font-size="10.00">experimental/source</text>
<text text-anchor="middle" x="1344" y="-119.5" font-family="Helvetica,sans-Serif" font-size="10.00">_location</text>
</a>
</g>
</g>
<!-- Node2&#45;&gt;Node23 -->
<g id="edge22" class="edge">
<title>Node2&#45;&gt;Node23</title>
<path fill="none" stroke="midnightblue" d="M994.46,-183.58C1052.39,-176.55 1167.42,-161.85 1275.36,-143.03"/>
<polygon fill="midnightblue" stroke="midnightblue" points="1276.2,-146.44 1285.45,-141.26 1274.99,-139.54 1276.2,-146.44"/>
</g>
<!-- Node24 -->
<g id="node24" class="node">
<title>Node24</title>
<g id="a_node24"><a xlink:href="debug_8hpp.html" target="_top" xlink:title=" ">
<polygon fill="white" stroke="black" points="1487,-56.5 1487,-75.5 1555,-75.5 1555,-56.5 1487,-56.5"/>
<text text-anchor="middle" x="1521" y="-63.5" font-family="Helvetica,sans-Serif" font-size="10.00">debug.hpp</text>
</a>
</g>
</g>
<!-- Node2&#45;&gt;Node24 -->
<g id="edge23" class="edge">
<title>Node2&#45;&gt;Node24</title>
<path fill="none" stroke="midnightblue" d="M994.3,-187.8C1094.11,-186.77 1365.09,-180.49 1445,-143 1472.91,-129.91 1496.45,-102.06 1509.63,-83.96"/>
<polygon fill="midnightblue" stroke="midnightblue" points="1512.68,-85.71 1515.55,-75.51 1506.95,-81.69 1512.68,-85.71"/>
</g>
<!-- Node25 -->
<g id="node25" class="node">
<title>Node25</title>
<g id="a_node25"><a xlink:href="operations_8hpp.html" target="_top" xlink:title=" ">
<polygon fill="white" stroke="black" points="1476.5,-0.5 1476.5,-19.5 1565.5,-19.5 1565.5,-0.5 1476.5,-0.5"/>
<text text-anchor="middle" x="1521" y="-7.5" font-family="Helvetica,sans-Serif" font-size="10.00">operations.hpp</text>
</a>
</g>
</g>
<!-- Node2&#45;&gt;Node25 -->
<g id="edge29" class="edge">
<title>Node2&#45;&gt;Node25</title>
<path fill="none" stroke="midnightblue" d="M994.03,-188.05C1089.16,-187.6 1339.67,-182.59 1411,-143 1453.67,-119.32 1446.21,-93.03 1478,-56 1486.54,-46.06 1496.63,-35.44 1504.9,-27.02"/>
<polygon fill="midnightblue" stroke="midnightblue" points="1507.59,-29.27 1512.15,-19.7 1502.62,-24.34 1507.59,-29.27"/>
</g>
<!-- Node26 -->
<g id="node26" class="node">
<title>Node26</title>
<g id="a_node26"><a xlink:href="io_8hpp.html" target="_top" xlink:title=" ">
<polygon fill="white" stroke="black" points="1497.5,-118 1497.5,-137 1544.5,-137 1544.5,-118 1497.5,-118"/>
<text text-anchor="middle" x="1521" y="-125" font-family="Helvetica,sans-Serif" font-size="10.00">io.hpp</text>
</a>
</g>
</g>
<!-- Node2&#45;&gt;Node26 -->
<g id="edge27" class="edge">
<title>Node2&#45;&gt;Node26</title>
<path fill="none" stroke="midnightblue" d="M994.21,-188.35C1081.02,-188.41 1303.19,-184.14 1483,-143 1486,-142.31 1489.08,-141.44 1492.13,-140.46"/>
<polygon fill="midnightblue" stroke="midnightblue" points="1493.35,-143.74 1501.6,-137.1 1491.01,-137.15 1493.35,-143.74"/>
</g>
<!-- Node27 -->
<g id="node27" class="node">
<title>Node27</title>
<g id="a_node27"><a xlink:href="utility_8hpp.html" target="_top" xlink:title=" ">
<polygon fill="white" stroke="black" points="1783.5,-118 1783.5,-137 1848.5,-137 1848.5,-118 1783.5,-118"/>
<text text-anchor="middle" x="1816" y="-125" font-family="Helvetica,sans-Serif" font-size="10.00">utility.hpp</text>
</a>
</g>
</g>
<!-- Node2&#45;&gt;Node27 -->
<g id="edge31" class="edge">
<title>Node2&#45;&gt;Node27</title>
<path fill="none" stroke="midnightblue" d="M994.18,-187.32C1133.09,-184.56 1621.53,-172.91 1774,-143 1777.7,-142.27 1781.52,-141.3 1785.27,-140.19"/>
<polygon fill="midnightblue" stroke="midnightblue" points="1786.52,-143.47 1794.95,-137.05 1784.36,-136.81 1786.52,-143.47"/>
</g>
<!-- Node24&#45;&gt;Node1 -->
<g id="edge26" class="edge">
<title>Node24&#45;&gt;Node1</title>
<path fill="none" stroke="midnightblue" d="M1555.18,-66.18C1632.67,-65.13 1818,-67.43 1857,-112 1885.81,-144.93 1855.78,-197.41 1834.09,-227.1"/>
<polygon fill="midnightblue" stroke="midnightblue" points="1831.22,-225.1 1827.98,-235.19 1836.8,-229.32 1831.22,-225.1"/>
</g>
<!-- Node24&#45;&gt;Node25 -->
<g id="edge24" class="edge">
<title>Node24&#45;&gt;Node25</title>
<path fill="none" stroke="midnightblue" d="M1521,-56.08C1521,-49.01 1521,-38.86 1521,-29.99"/>
<polygon fill="midnightblue" stroke="midnightblue" points="1524.5,-29.75 1521,-19.75 1517.5,-29.75 1524.5,-29.75"/>
</g>
<!-- Node25&#45;&gt;Node1 -->
<g id="edge25" class="edge">
<title>Node25&#45;&gt;Node1</title>
<path fill="none" stroke="midnightblue" d="M1565.57,-16.96C1652.44,-29.58 1839.23,-62.03 1877,-112 1900.37,-142.92 1888.46,-164.4 1871,-199 1865.16,-210.57 1855.49,-220.81 1845.87,-228.99"/>
<polygon fill="midnightblue" stroke="midnightblue" points="1843.52,-226.39 1837.89,-235.36 1847.89,-231.86 1843.52,-226.39"/>
</g>
<!-- Node26&#45;&gt;Node24 -->
<g id="edge28" class="edge">
<title>Node26&#45;&gt;Node24</title>
<path fill="none" stroke="midnightblue" d="M1521,-117.98C1521,-109.58 1521,-96.48 1521,-85.66"/>
<polygon fill="midnightblue" stroke="midnightblue" points="1524.5,-85.51 1521,-75.51 1517.5,-85.51 1524.5,-85.51"/>
</g>
<!-- Node27&#45;&gt;Node1 -->
<g id="edge32" class="edge">
<title>Node27&#45;&gt;Node1</title>
<path fill="none" stroke="midnightblue" d="M1816,-137.05C1816,-155.08 1816,-197.56 1816,-224.84"/>
<polygon fill="midnightblue" stroke="midnightblue" points="1812.5,-225.14 1816,-235.14 1819.5,-225.14 1812.5,-225.14"/>
</g>
</g>
</svg>
        <g id="navigator" transform="translate(0 0)" fill="#404254">
                <rect fill="#f2f5e9" fill-opacity="0.5" stroke="#606060" stroke-width=".5" x="0" y="0" width="60" height="60"/>
                <use id="zoomplus" xlink:href="#zoomPlus" x="17" y="9" onmousedown="handleZoom(evt,'in')"/>
                <use id="zoomminus" xlink:href="#zoomMin" x="42" y="9" onmousedown="handleZoom(evt,'out')"/>
                <use id="reset" xlink:href="#resetDef" x="30" y="36" onmousedown="handleReset()"/>
                <g id="arrowUp" xlink:href="#dirArrow" transform="translate(30 24)" onmousedown="handlePan(0,-1)">
                  <use xlink:href="#rim" fill="#404040">
                        <set attributeName="fill" to="#808080" begin="arrowUp.mouseover" end="arrowUp.mouseout"/>
                  </use>
                  <path fill="none" stroke="white" stroke-width="1.5" d="M0,-3.0v7 M-2.5,-0.5L0,-3.0L2.5,-0.5"/>
                </g>
                <g id="arrowRight" xlink:href="#dirArrow" transform="rotate(90) translate(36 -43)" onmousedown="handlePan(1,0)">
                  <use xlink:href="#rim" fill="#404040">
                        <set attributeName="fill" to="#808080" begin="arrowRight.mouseover" end="arrowRight.mouseout"/>
                  </use>
                  <path fill="none" stroke="white" stroke-width="1.5" d="M0,-3.0v7 M-2.5,-0.5L0,-3.0L2.5,-0.5"/>
                </g>
                <g id="arrowDown" xlink:href="#dirArrow" transform="rotate(180) translate(-30 -48)" onmousedown="handlePan(0,1)">
                  <use xlink:href="#rim" fill="#404040">
                        <set attributeName="fill" to="#808080" begin="arrowDown.mouseover" end="arrowDown.mouseout"/>
                  </use>
                  <path fill="none" stroke="white" stroke-width="1.5" d="M0,-3.0v7 M-2.5,-0.5L0,-3.0L2.5,-0.5"/>
                </g>
                <g id="arrowLeft" xlink:href="#dirArrow" transform="rotate(270) translate(-36 17)" onmousedown="handlePan(-1,0)">
                  <use xlink:href="#rim" fill="#404040">
                        <set attributeName="fill" to="#808080" begin="arrowLeft.mouseover" end="arrowLeft.mouseout"/>
                  </use>
                  <path fill="none" stroke="white" stroke-width="1.5" d="M0,-3.0v7 M-2.5,-0.5L0,-3.0L2.5,-0.5"/>
                </g>
        </g>
        <svg viewBox="0 0 15 15" width="100%" height="30px" preserveAspectRatio="xMaxYMin meet">
         <g id="arrow_out" transform="scale(0.3 0.3)">
          <a xlink:href="range_8hpp__incl_org.svg" target="_base">
           <rect id="button" ry="5" rx="5" y="6" x="6" height="38" width="38"
                fill="#f2f5e9" fill-opacity="0.5" stroke="#606060" stroke-width="1.0"/>
           <path id="arrow"
             d="M 11.500037,31.436501 C 11.940474,20.09759 22.043105,11.32322 32.158766,21.979434 L 37.068811,17.246167 C 37.068811,17.246167 37.088388,32 37.088388,32 L 22.160133,31.978069 C 22.160133,31.978069 26.997745,27.140456 26.997745,27.140456 C 18.528582,18.264221 13.291696,25.230495 11.500037,31.436501 z"
             style="fill:#404040;"/>
          </a>
         </g>
        </svg>
</svg>
