<?xml version="1.0" encoding="UTF-8" standalone="no"?>
<!DOCTYPE svg PUBLIC "-//W3C//DTD SVG 1.1//EN"
 "http://www.w3.org/Graphics/SVG/1.1/DTD/svg11.dtd">
<!-- Generated by graphviz version 2.43.0 (0)
 -->
<!-- Title: /home/ram/OmniTemplate/range.hpp Pages: 1 -->
<!--zoomable 642 -->
<svg id="main" version="1.1" xmlns="http://www.w3.org/2000/svg" xmlns:xlink="http://www.w3.org/1999/xlink" xml:space="preserve" onload="init(evt)">
<style type="text/css"><![CDATA[
.edge:hover path { stroke: red; }
.edge:hover polygon { stroke: red; fill: red; }
]]></style>
<script type="text/javascript"><![CDATA[
var edges = document.getElementsByTagName('g');
if (edges && edges.length) {
  for (var i=0;i<edges.length;i++) {
    if (edges[i].id.substr(0,4)=='edge') {
      edges[i].setAttribute('class','edge');
    }
  }
}
]]></script>
        <defs>
                <circle id="rim" cx="0" cy="0" r="7"/>
                <circle id="rim2" cx="0" cy="0" r="3.5"/>
                <g id="zoomPlus">
                        <use xlink:href="#rim" fill="#404040">
                                <set attributeName="fill" to="#808080" begin="zoomplus.mouseover" end="zoomplus.mouseout"/>
                        </use>
                        <path d="M-4,0h8M0,-4v8" fill="none" stroke="white" stroke-width="1.5" pointer-events="none"/>
                </g>
                <g id="zoomMin">
                        <use xlink:href="#rim" fill="#404040">
                                <set attributeName="fill" to="#808080" begin="zoomminus.mouseover" end="zoomminus.mouseout"/>
                        </use>
                        <path d="M-4,0h8" fill="none" stroke="white" stroke-width="1.5" pointer-events="none"/>
                </g>
                <g id="dirArrow">
                        <path fill="none" stroke="white" stroke-width="1.5" d="M0,-3.0v7 M-2.5,-0.5L0,-3.0L2.5,-0.5"/>
                </g>
               <g id="resetDef">
                       <use xlink:href="#rim2" fill="#404040">
                               <set attributeName="fill" to="#808080" begin="reset.mouseover" end="reset.mouseout"/>
                       </use>
               </g>
        </defs>

<script type="text/javascript">
var viewWidth = 1960;
var viewHeight = 642;
var sectionId = 'dynsection-1';
</script>
<script xlink:href="svgpan.js"/>
<svg id="graph" class="graph">
<g id="viewport">
<title>/home/ram/OmniTemplate/range.hpp</title>
<polygon fill="white" stroke="transparent" points="-4,4 -4,-638 1956,-638 1956,4 -4,4"/>
<!-- Node1 -->
<g id="node1" class="node">
<title>Node1</title>
<g id="a_node1"><a xlink:title=" ">
<polygon fill="#bfbfbf" stroke="black" points="1099,-603.5 1099,-633.5 1243,-633.5 1243,-603.5 1099,-603.5"/>
<text text-anchor="start" x="1107" y="-621.5" font-family="Helvetica,sans-Serif" font-size="10.00">/home/ram/OmniTemplate</text>
<text text-anchor="middle" x="1171" y="-610.5" font-family="Helvetica,sans-Serif" font-size="10.00">/range.hpp</text>
</a>
</g>
</g>
<!-- Node2 -->
<g id="node2" class="node">
<title>Node2</title>
<g id="a_node2"><a xlink:href="operations_8hpp.html" target="_top" xlink:title=" ">
<polygon fill="white" stroke="black" points="1099,-536.5 1099,-566.5 1243,-566.5 1243,-536.5 1099,-536.5"/>
<text text-anchor="start" x="1107" y="-554.5" font-family="Helvetica,sans-Serif" font-size="10.00">/home/ram/OmniTemplate</text>
<text text-anchor="middle" x="1171" y="-543.5" font-family="Helvetica,sans-Serif" font-size="10.00">/operations.hpp</text>
</a>
</g>
</g>
<!-- Node1&#45;&gt;Node2 -->
<g id="edge1" class="edge">
<title>Node1&#45;&gt;Node2</title>
<path fill="none" stroke="midnightblue" d="M1171,-593.11C1171,-584.15 1171,-574.32 1171,-566.58"/>
<polygon fill="midnightblue" stroke="midnightblue" points="1167.5,-593.4 1171,-603.4 1174.5,-593.4 1167.5,-593.4"/>
</g>
<!-- Node3 -->
<g id="node3" class="node">
<title>Node3</title>
<g id="a_node3"><a xlink:href="debug_8hpp.html" target="_top" xlink:title=" ">
<polygon fill="white" stroke="black" points="1137,-469.5 1137,-499.5 1281,-499.5 1281,-469.5 1137,-469.5"/>
<text text-anchor="start" x="1145" y="-487.5" font-family="Helvetica,sans-Serif" font-size="10.00">/home/ram/OmniTemplate</text>
<text text-anchor="middle" x="1209" y="-476.5" font-family="Helvetica,sans-Serif" font-size="10.00">/debug.hpp</text>
</a>
</g>
</g>
<!-- Node1&#45;&gt;Node3 -->
<g id="edge60" class="edge">
<title>Node1&#45;&gt;Node3</title>
<path fill="none" stroke="midnightblue" d="M1218.76,-598.45C1231.89,-590.74 1244.55,-580.42 1252,-567 1264.96,-543.64 1242.72,-516.07 1225.68,-499.73"/>
<polygon fill="midnightblue" stroke="midnightblue" points="1216.79,-595.54 1209.66,-603.37 1220.12,-601.69 1216.79,-595.54"/>
</g>
<!-- Node4 -->
<g id="node4" class="node">
<title>Node4</title>
<g id="a_node4"><a xlink:href="core_8hpp.html" target="_top" xlink:title=" ">
<polygon fill="white" stroke="black" points="990,-402.5 990,-432.5 1134,-432.5 1134,-402.5 990,-402.5"/>
<text text-anchor="start" x="998" y="-420.5" font-family="Helvetica,sans-Serif" font-size="10.00">/home/ram/OmniTemplate</text>
<text text-anchor="middle" x="1062" y="-409.5" font-family="Helvetica,sans-Serif" font-size="10.00">/core.hpp</text>
</a>
</g>
</g>
<!-- Node1&#45;&gt;Node4 -->
<g id="edge61" class="edge">
<title>Node1&#45;&gt;Node4</title>
<path fill="none" stroke="midnightblue" d="M1117.98,-598.56C1103.84,-590.69 1090.06,-580.24 1081,-567 1052.12,-524.77 1050.99,-460.71 1056.07,-432.58"/>
<polygon fill="midnightblue" stroke="midnightblue" points="1116.78,-601.88 1127.27,-603.37 1119.99,-595.66 1116.78,-601.88"/>
</g>
<!-- Node31 -->
<g id="node31" class="node">
<title>Node31</title>
<g id="a_node31"><a xlink:href="utility_8hpp.html" target="_top" xlink:title=" ">
<polygon fill="white" stroke="black" points="1419,-469.5 1419,-499.5 1563,-499.5 1563,-469.5 1419,-469.5"/>
<text text-anchor="start" x="1427" y="-487.5" font-family="Helvetica,sans-Serif" font-size="10.00">/home/ram/OmniTemplate</text>
<text text-anchor="middle" x="1491" y="-476.5" font-family="Helvetica,sans-Serif" font-size="10.00">/utility.hpp</text>
</a>
</g>
</g>
<!-- Node1&#45;&gt;Node31 -->
<g id="edge62" class="edge">
<title>Node1&#45;&gt;Node31</title>
<path fill="none" stroke="midnightblue" d="M1214.41,-599.59C1278.82,-573.02 1398.39,-523.7 1456.92,-499.56"/>
<polygon fill="midnightblue" stroke="midnightblue" points="1212.85,-596.45 1204.94,-603.5 1215.52,-602.92 1212.85,-596.45"/>
</g>
<!-- Node2&#45;&gt;Node3 -->
<g id="edge2" class="edge">
<title>Node2&#45;&gt;Node3</title>
<path fill="none" stroke="midnightblue" d="M1184.4,-527.58C1189.86,-518.24 1195.99,-507.75 1200.77,-499.58"/>
<polygon fill="midnightblue" stroke="midnightblue" points="1181.27,-526 1179.25,-536.4 1187.31,-529.53 1181.27,-526"/>
</g>
<!-- Node2&#45;&gt;Node4 -->
<g id="edge59" class="edge">
<title>Node2&#45;&gt;Node4</title>
<path fill="none" stroke="midnightblue" d="M1152.3,-528.77C1144.71,-519.89 1135.89,-509.5 1128,-500 1108.57,-476.61 1086.41,-449.05 1073.34,-432.72"/>
<polygon fill="midnightblue" stroke="midnightblue" points="1149.69,-531.11 1158.86,-536.43 1155.01,-526.56 1149.69,-531.11"/>
</g>
<!-- Node3&#45;&gt;Node4 -->
<g id="edge3" class="edge">
<title>Node3&#45;&gt;Node4</title>
<path fill="none" stroke="midnightblue" d="M1167.77,-465.27C1144.36,-454.92 1115.49,-442.15 1093.83,-432.58"/>
<polygon fill="midnightblue" stroke="midnightblue" points="1166.54,-468.55 1177.1,-469.4 1169.37,-462.15 1166.54,-468.55"/>
</g>
<!-- Node4&#45;&gt;Node1 -->
<g id="edge7" class="edge">
<title>Node4&#45;&gt;Node1</title>
<path fill="none" stroke="midnightblue" d="M1067,-442.62C1069.54,-473.98 1073.17,-529.23 1099,-567 1110.04,-583.14 1128.11,-595.13 1143.51,-603.37"/>
<polygon fill="midnightblue" stroke="midnightblue" points="1070.48,-442.24 1066.11,-432.58 1063.51,-442.85 1070.48,-442.24"/>
</g>
<!-- Node5 -->
<g id="node5" class="node">
<title>Node5</title>
<g id="a_node5"><a xlink:href="2sat_8hpp.html" target="_top" xlink:title=" ">
<polygon fill="white" stroke="black" points="152,-134.5 152,-164.5 296,-164.5 296,-134.5 152,-134.5"/>
<text text-anchor="start" x="160" y="-152.5" font-family="Helvetica,sans-Serif" font-size="10.00">/home/ram/OmniTemplate</text>
<text text-anchor="middle" x="224" y="-141.5" font-family="Helvetica,sans-Serif" font-size="10.00">/2sat.hpp</text>
</a>
</g>
</g>
<!-- Node4&#45;&gt;Node5 -->
<g id="edge4" class="edge">
<title>Node4&#45;&gt;Node5</title>
<path fill="none" stroke="midnightblue" d="M979.82,-415.93C815.26,-413.97 450.93,-405.18 333,-366 280.82,-348.67 256.13,-346.82 229,-299 204.3,-255.47 214.17,-192.64 220.39,-164.75"/>
<polygon fill="midnightblue" stroke="midnightblue" points="979.85,-419.43 989.89,-416.05 979.93,-412.44 979.85,-419.43"/>
</g>
<!-- Node6 -->
<g id="node6" class="node">
<title>Node6</title>
<g id="a_node6"><a xlink:href="template_8hpp.html" target="_top" xlink:title=" ">
<polygon fill="white" stroke="black" points="885,-67.5 885,-97.5 1029,-97.5 1029,-67.5 885,-67.5"/>
<text text-anchor="start" x="893" y="-85.5" font-family="Helvetica,sans-Serif" font-size="10.00">/home/ram/OmniTemplate</text>
<text text-anchor="middle" x="957" y="-74.5" font-family="Helvetica,sans-Serif" font-size="10.00">/template.hpp</text>
</a>
</g>
</g>
<!-- Node4&#45;&gt;Node6 -->
<g id="edge54" class="edge">
<title>Node4&#45;&gt;Node6</title>
<path fill="none" stroke="midnightblue" d="M1144.33,-415.67C1313.74,-413.21 1689.21,-403.52 1733,-366 1761.24,-341.8 1752,-321.69 1752,-284.5 1752,-284.5 1752,-284.5 1752,-215.5 1752,-159.87 1708.44,-155.18 1657,-134 1544.96,-87.88 1184.55,-82.94 1029.27,-83.03"/>
<polygon fill="midnightblue" stroke="midnightblue" points="1144.16,-412.17 1134.21,-415.81 1144.26,-419.17 1144.16,-412.17"/>
</g>
<!-- Node8 -->
<g id="node8" class="node">
<title>Node8</title>
<g id="a_node8"><a xlink:href="graph__theory_8hpp.html" target="_top" xlink:title=" ">
<polygon fill="white" stroke="black" points="52,-201.5 52,-231.5 196,-231.5 196,-201.5 52,-201.5"/>
<text text-anchor="start" x="60" y="-219.5" font-family="Helvetica,sans-Serif" font-size="10.00">/home/ram/OmniTemplate</text>
<text text-anchor="middle" x="124" y="-208.5" font-family="Helvetica,sans-Serif" font-size="10.00">/graph_theory.hpp</text>
</a>
</g>
</g>
<!-- Node4&#45;&gt;Node8 -->
<g id="edge8" class="edge">
<title>Node4&#45;&gt;Node8</title>
<path fill="none" stroke="midnightblue" d="M979.88,-416.53C776.14,-415.94 259.34,-410.06 196,-366 156.95,-338.84 174.43,-310.46 153,-268 146.71,-255.54 138.78,-241.84 132.8,-231.86"/>
<polygon fill="midnightblue" stroke="midnightblue" points="979.92,-420.03 989.92,-416.56 979.93,-413.03 979.92,-420.03"/>
</g>
<!-- Node9 -->
<g id="node9" class="node">
<title>Node9</title>
<g id="a_node9"><a xlink:href="dsu_8hpp.html" target="_top" xlink:title=" ">
<polygon fill="white" stroke="black" points="0,-268.5 0,-298.5 144,-298.5 144,-268.5 0,-268.5"/>
<text text-anchor="start" x="8" y="-286.5" font-family="Helvetica,sans-Serif" font-size="10.00">/home/ram/OmniTemplate</text>
<text text-anchor="middle" x="72" y="-275.5" font-family="Helvetica,sans-Serif" font-size="10.00">/dsu.hpp</text>
</a>
</g>
</g>
<!-- Node4&#45;&gt;Node9 -->
<g id="edge11" class="edge">
<title>Node4&#45;&gt;Node9</title>
<path fill="none" stroke="midnightblue" d="M979.47,-415.12C770.58,-411.18 232.21,-398 158,-366 124.38,-351.5 95.93,-317.76 81.72,-298.55"/>
<polygon fill="midnightblue" stroke="midnightblue" points="979.7,-418.63 989.76,-415.31 979.83,-411.63 979.7,-418.63"/>
</g>
<!-- Node10 -->
<g id="node10" class="node">
<title>Node10</title>
<g id="a_node10"><a xlink:href="linear__algebra_8hpp.html" target="_top" xlink:title=" ">
<polygon fill="white" stroke="black" points="238,-268.5 238,-298.5 382,-298.5 382,-268.5 238,-268.5"/>
<text text-anchor="start" x="246" y="-286.5" font-family="Helvetica,sans-Serif" font-size="10.00">/home/ram/OmniTemplate</text>
<text text-anchor="middle" x="310" y="-275.5" font-family="Helvetica,sans-Serif" font-size="10.00">/linear_algebra.hpp</text>
</a>
</g>
</g>
<!-- Node4&#45;&gt;Node10 -->
<g id="edge14" class="edge">
<title>Node4&#45;&gt;Node10</title>
<path fill="none" stroke="midnightblue" d="M979.76,-414.43C807.46,-409.52 420.16,-395.35 368,-366 341.21,-350.93 323.74,-317.74 315.51,-298.69"/>
<polygon fill="midnightblue" stroke="midnightblue" points="979.7,-417.93 989.8,-414.71 979.9,-410.93 979.7,-417.93"/>
</g>
<!-- Node11 -->
<g id="node11" class="node">
<title>Node11</title>
<g id="a_node11"><a xlink:href="modulo_8hpp.html" target="_top" xlink:title=" ">
<polygon fill="white" stroke="black" points="377,-335.5 377,-365.5 521,-365.5 521,-335.5 377,-335.5"/>
<text text-anchor="start" x="385" y="-353.5" font-family="Helvetica,sans-Serif" font-size="10.00">/home/ram/OmniTemplate</text>
<text text-anchor="middle" x="449" y="-342.5" font-family="Helvetica,sans-Serif" font-size="10.00">/modulo.hpp</text>
</a>
</g>
</g>
<!-- Node4&#45;&gt;Node11 -->
<g id="edge17" class="edge">
<title>Node4&#45;&gt;Node11</title>
<path fill="none" stroke="midnightblue" d="M979.66,-409.51C878.39,-400.65 701.31,-384.31 550,-366 540.68,-364.87 530.89,-363.59 521.22,-362.26"/>
<polygon fill="midnightblue" stroke="midnightblue" points="979.55,-413.01 989.82,-410.39 980.16,-406.04 979.55,-413.01"/>
</g>
<!-- Node12 -->
<g id="node12" class="node">
<title>Node12</title>
<g id="a_node12"><a xlink:href="number__theory_8hpp.html" target="_top" xlink:title=" ">
<polygon fill="white" stroke="black" points="438,-268.5 438,-298.5 582,-298.5 582,-268.5 438,-268.5"/>
<text text-anchor="start" x="446" y="-286.5" font-family="Helvetica,sans-Serif" font-size="10.00">/home/ram/OmniTemplate</text>
<text text-anchor="middle" x="510" y="-275.5" font-family="Helvetica,sans-Serif" font-size="10.00">/number_theory.hpp</text>
</a>
</g>
</g>
<!-- Node4&#45;&gt;Node12 -->
<g id="edge40" class="edge">
<title>Node4&#45;&gt;Node12</title>
<path fill="none" stroke="midnightblue" d="M979.48,-413.87C864.36,-409.13 662.23,-396.63 596,-366 562.95,-350.71 534.49,-317.61 520.07,-298.63"/>
<polygon fill="midnightblue" stroke="midnightblue" points="979.52,-417.37 989.66,-414.28 979.8,-410.38 979.52,-417.37"/>
</g>
<!-- Node13 -->
<g id="node13" class="node">
<title>Node13</title>
<g id="a_node13"><a xlink:href="big__integer_8hpp.html" target="_top" xlink:title=" ">
<polygon fill="white" stroke="black" points="428,-201.5 428,-231.5 572,-231.5 572,-201.5 428,-201.5"/>
<text text-anchor="start" x="436" y="-219.5" font-family="Helvetica,sans-Serif" font-size="10.00">/home/ram/OmniTemplate</text>
<text text-anchor="middle" x="500" y="-208.5" font-family="Helvetica,sans-Serif" font-size="10.00">/big_integer.hpp</text>
</a>
</g>
</g>
<!-- Node4&#45;&gt;Node13 -->
<g id="edge22" class="edge">
<title>Node4&#45;&gt;Node13</title>
<path fill="none" stroke="midnightblue" d="M979.71,-416.29C871.02,-414.44 687.15,-405.36 634,-366 595.77,-337.7 623.03,-303.16 591,-268 576.4,-251.97 555.49,-239.87 537.4,-231.54"/>
<polygon fill="midnightblue" stroke="midnightblue" points="979.93,-419.8 989.99,-416.45 980.04,-412.8 979.93,-419.8"/>
</g>
<!-- Node14 -->
<g id="node14" class="node">
<title>Node14</title>
<g id="a_node14"><a xlink:href="bit_8hpp.html" target="_top" xlink:title=" ">
<polygon fill="white" stroke="black" points="1780,-335.5 1780,-365.5 1924,-365.5 1924,-335.5 1780,-335.5"/>
<text text-anchor="start" x="1788" y="-353.5" font-family="Helvetica,sans-Serif" font-size="10.00">/home/ram/OmniTemplate</text>
<text text-anchor="middle" x="1852" y="-342.5" font-family="Helvetica,sans-Serif" font-size="10.00">/bit.hpp</text>
</a>
</g>
</g>
<!-- Node4&#45;&gt;Node14 -->
<g id="edge24" class="edge">
<title>Node4&#45;&gt;Node14</title>
<path fill="none" stroke="midnightblue" d="M1144.18,-413.15C1275.81,-407.22 1541.89,-392.87 1766,-366 1770.51,-365.46 1775.14,-364.85 1779.81,-364.19"/>
<polygon fill="midnightblue" stroke="midnightblue" points="1144.01,-409.66 1134.17,-413.6 1144.32,-416.65 1144.01,-409.66"/>
</g>
<!-- Node15 -->
<g id="node15" class="node">
<title>Node15</title>
<g id="a_node15"><a xlink:href="combinatorics_8hpp.html" target="_top" xlink:title=" ">
<polygon fill="white" stroke="black" points="528,-134.5 528,-164.5 672,-164.5 672,-134.5 528,-134.5"/>
<text text-anchor="start" x="536" y="-152.5" font-family="Helvetica,sans-Serif" font-size="10.00">/home/ram/OmniTemplate</text>
<text text-anchor="middle" x="600" y="-141.5" font-family="Helvetica,sans-Serif" font-size="10.00">/combinatorics.hpp</text>
</a>
</g>
</g>
<!-- Node4&#45;&gt;Node15 -->
<g id="edge26" class="edge">
<title>Node4&#45;&gt;Node15</title>
<path fill="none" stroke="midnightblue" d="M979.73,-413.97C884.66,-409.58 735.45,-397.71 690,-366 620.51,-317.51 604.5,-204.56 600.96,-164.72"/>
<polygon fill="midnightblue" stroke="midnightblue" points="979.76,-417.47 989.9,-414.42 980.07,-410.48 979.76,-417.47"/>
</g>
<!-- Node16 -->
<g id="node16" class="node">
<title>Node16</title>
<g id="a_node16"><a xlink:href="coroutine_8hpp.html" target="_top" xlink:title=" ">
<polygon fill="white" stroke="black" points="628,-201.5 628,-231.5 772,-231.5 772,-201.5 628,-201.5"/>
<text text-anchor="start" x="636" y="-219.5" font-family="Helvetica,sans-Serif" font-size="10.00">/home/ram/OmniTemplate</text>
<text text-anchor="middle" x="700" y="-208.5" font-family="Helvetica,sans-Serif" font-size="10.00">/coroutine.hpp</text>
</a>
</g>
</g>
<!-- Node4&#45;&gt;Node16 -->
<g id="edge28" class="edge">
<title>Node4&#45;&gt;Node16</title>
<path fill="none" stroke="midnightblue" d="M979.43,-416.21C886.97,-413.97 745.41,-404.18 710,-366 675.38,-328.68 688.12,-260.86 695.83,-231.58"/>
<polygon fill="midnightblue" stroke="midnightblue" points="979.54,-419.71 989.61,-416.43 979.69,-412.71 979.54,-419.71"/>
</g>
<!-- Node17 -->
<g id="node17" class="node">
<title>Node17</title>
<g id="a_node17"><a xlink:href="fft_8hpp.html" target="_top" xlink:title=" ">
<polygon fill="white" stroke="black" points="728,-134.5 728,-164.5 872,-164.5 872,-134.5 728,-134.5"/>
<text text-anchor="start" x="736" y="-152.5" font-family="Helvetica,sans-Serif" font-size="10.00">/home/ram/OmniTemplate</text>
<text text-anchor="middle" x="800" y="-141.5" font-family="Helvetica,sans-Serif" font-size="10.00">/fft.hpp</text>
</a>
</g>
</g>
<!-- Node4&#45;&gt;Node17 -->
<g id="edge30" class="edge">
<title>Node4&#45;&gt;Node17</title>
<path fill="none" stroke="midnightblue" d="M979.42,-411.69C911.69,-405.82 823.45,-393.08 801,-366 775.69,-335.47 791.61,-207.72 797.84,-164.7"/>
<polygon fill="midnightblue" stroke="midnightblue" points="979.43,-415.2 989.68,-412.54 980,-408.22 979.43,-415.2"/>
</g>
<!-- Node18 -->
<g id="node18" class="node">
<title>Node18</title>
<g id="a_node18"><a xlink:href="geometry_8hpp.html" target="_top" xlink:title=" ">
<polygon fill="white" stroke="black" points="828,-201.5 828,-231.5 972,-231.5 972,-201.5 828,-201.5"/>
<text text-anchor="start" x="836" y="-219.5" font-family="Helvetica,sans-Serif" font-size="10.00">/home/ram/OmniTemplate</text>
<text text-anchor="middle" x="900" y="-208.5" font-family="Helvetica,sans-Serif" font-size="10.00">/geometry.hpp</text>
</a>
</g>
</g>
<!-- Node4&#45;&gt;Node18 -->
<g id="edge32" class="edge">
<title>Node4&#45;&gt;Node18</title>
<path fill="none" stroke="midnightblue" d="M979.66,-411.06C914.58,-404.85 831.28,-391.96 810,-366 797.73,-351.03 806.08,-288.01 819,-268 829.52,-251.71 847.34,-239.76 863.6,-231.59"/>
<polygon fill="midnightblue" stroke="midnightblue" points="979.66,-414.58 989.94,-412.01 980.3,-407.61 979.66,-414.58"/>
</g>
<!-- Node19 -->
<g id="node19" class="node">
<title>Node19</title>
<g id="a_node19"><a xlink:href="main_8hpp.html" target="_top" xlink:title=" ">
<polygon fill="white" stroke="black" points="828,-268.5 828,-298.5 972,-298.5 972,-268.5 828,-268.5"/>
<text text-anchor="start" x="836" y="-286.5" font-family="Helvetica,sans-Serif" font-size="10.00">/home/ram/OmniTemplate</text>
<text text-anchor="middle" x="900" y="-275.5" font-family="Helvetica,sans-Serif" font-size="10.00">/main.hpp</text>
</a>
</g>
</g>
<!-- Node4&#45;&gt;Node19 -->
<g id="edge34" class="edge">
<title>Node4&#45;&gt;Node19</title>
<path fill="none" stroke="midnightblue" d="M979.5,-410.33C917.21,-403.75 839.12,-390.74 819,-366 810.31,-355.31 812.31,-347.05 819,-335 828.17,-318.48 845.23,-306.66 861.34,-298.63"/>
<polygon fill="midnightblue" stroke="midnightblue" points="979.44,-413.84 989.75,-411.37 980.15,-406.88 979.44,-413.84"/>
</g>
<!-- Node20 -->
<g id="node20" class="node">
<title>Node20</title>
<g id="a_node20"><a xlink:href="time_8hpp.html" target="_top" xlink:title=" ">
<polygon fill="white" stroke="black" points="828,-335.5 828,-365.5 972,-365.5 972,-335.5 828,-335.5"/>
<text text-anchor="start" x="836" y="-353.5" font-family="Helvetica,sans-Serif" font-size="10.00">/home/ram/OmniTemplate</text>
<text text-anchor="middle" x="900" y="-342.5" font-family="Helvetica,sans-Serif" font-size="10.00">/time.hpp</text>
</a>
</g>
</g>
<!-- Node4&#45;&gt;Node20 -->
<g id="edge36" class="edge">
<title>Node4&#45;&gt;Node20</title>
<path fill="none" stroke="midnightblue" d="M1017.25,-398.54C991.33,-388.14 959.16,-375.24 935.08,-365.58"/>
<polygon fill="midnightblue" stroke="midnightblue" points="1016.26,-401.92 1026.85,-402.4 1018.87,-395.42 1016.26,-401.92"/>
</g>
<!-- Node21 -->
<g id="node21" class="node">
<title>Node21</title>
<g id="a_node21"><a xlink:href="my__int_8hpp.html" target="_top" xlink:title=" ">
<polygon fill="white" stroke="black" points="990,-335.5 990,-365.5 1134,-365.5 1134,-335.5 990,-335.5"/>
<text text-anchor="start" x="998" y="-353.5" font-family="Helvetica,sans-Serif" font-size="10.00">/home/ram/OmniTemplate</text>
<text text-anchor="middle" x="1062" y="-342.5" font-family="Helvetica,sans-Serif" font-size="10.00">/my_int.hpp</text>
</a>
</g>
</g>
<!-- Node4&#45;&gt;Node21 -->
<g id="edge39" class="edge">
<title>Node4&#45;&gt;Node21</title>
<path fill="none" stroke="midnightblue" d="M1062,-392.11C1062,-383.15 1062,-373.32 1062,-365.58"/>
<polygon fill="midnightblue" stroke="midnightblue" points="1058.5,-392.4 1062,-402.4 1065.5,-392.4 1058.5,-392.4"/>
</g>
<!-- Node22 -->
<g id="node22" class="node">
<title>Node22</title>
<g id="a_node22"><a xlink:href="permutation_8hpp.html" target="_top" xlink:title=" ">
<polygon fill="white" stroke="black" points="1004,-134.5 1004,-164.5 1148,-164.5 1148,-134.5 1004,-134.5"/>
<text text-anchor="start" x="1012" y="-152.5" font-family="Helvetica,sans-Serif" font-size="10.00">/home/ram/OmniTemplate</text>
<text text-anchor="middle" x="1076" y="-141.5" font-family="Helvetica,sans-Serif" font-size="10.00">/permutation.hpp</text>
</a>
</g>
</g>
<!-- Node4&#45;&gt;Node22 -->
<g id="edge41" class="edge">
<title>Node4&#45;&gt;Node22</title>
<path fill="none" stroke="midnightblue" d="M1109.76,-397.45C1122.89,-389.74 1135.55,-379.42 1143,-366 1149.69,-353.95 1149.16,-347.32 1143,-335 1131.07,-311.15 1108.42,-322.04 1095,-299 1069.63,-255.43 1071.8,-192.61 1074.34,-164.74"/>
<polygon fill="midnightblue" stroke="midnightblue" points="1107.79,-394.54 1100.66,-402.37 1111.12,-400.69 1107.79,-394.54"/>
</g>
<!-- Node23 -->
<g id="node23" class="node">
<title>Node23</title>
<g id="a_node23"><a xlink:href="persistent_8hpp.html" target="_top" xlink:title=" ">
<polygon fill="white" stroke="black" points="1104,-268.5 1104,-298.5 1248,-298.5 1248,-268.5 1104,-268.5"/>
<text text-anchor="start" x="1112" y="-286.5" font-family="Helvetica,sans-Serif" font-size="10.00">/home/ram/OmniTemplate</text>
<text text-anchor="middle" x="1176" y="-275.5" font-family="Helvetica,sans-Serif" font-size="10.00">/persistent.hpp</text>
</a>
</g>
</g>
<!-- Node4&#45;&gt;Node23 -->
<g id="edge43" class="edge">
<title>Node4&#45;&gt;Node23</title>
<path fill="none" stroke="midnightblue" d="M1136.02,-398.36C1151.79,-390.95 1166.53,-380.56 1176,-366 1189.2,-345.72 1184.76,-316.17 1180.36,-298.78"/>
<polygon fill="midnightblue" stroke="midnightblue" points="1134.45,-395.23 1126.65,-402.39 1137.22,-401.66 1134.45,-395.23"/>
</g>
<!-- Node24 -->
<g id="node24" class="node">
<title>Node24</title>
<g id="a_node24"><a xlink:href="queue_8hpp.html" target="_top" xlink:title=" ">
<polygon fill="white" stroke="black" points="1204,-201.5 1204,-231.5 1348,-231.5 1348,-201.5 1204,-201.5"/>
<text text-anchor="start" x="1212" y="-219.5" font-family="Helvetica,sans-Serif" font-size="10.00">/home/ram/OmniTemplate</text>
<text text-anchor="middle" x="1276" y="-208.5" font-family="Helvetica,sans-Serif" font-size="10.00">/queue.hpp</text>
</a>
</g>
</g>
<!-- Node4&#45;&gt;Node24 -->
<g id="edge45" class="edge">
<title>Node4&#45;&gt;Node24</title>
<path fill="none" stroke="midnightblue" d="M1124.14,-399.19C1147.2,-391.15 1172.87,-380.17 1194,-366 1227.95,-343.23 1237.7,-335.03 1257,-299 1268.66,-277.23 1273.22,-248.43 1274.96,-231.54"/>
<polygon fill="midnightblue" stroke="midnightblue" points="1122.79,-395.95 1114.44,-402.46 1125.03,-402.59 1122.79,-395.95"/>
</g>
<!-- Node25 -->
<g id="node25" class="node">
<title>Node25</title>
<g id="a_node25"><a xlink:href="seg__old_8hpp.html" target="_top" xlink:title=" ">
<polygon fill="white" stroke="black" points="1266,-335.5 1266,-365.5 1410,-365.5 1410,-335.5 1266,-335.5"/>
<text text-anchor="start" x="1274" y="-353.5" font-family="Helvetica,sans-Serif" font-size="10.00">/home/ram/OmniTemplate</text>
<text text-anchor="middle" x="1338" y="-342.5" font-family="Helvetica,sans-Serif" font-size="10.00">/seg_old.hpp</text>
</a>
</g>
</g>
<!-- Node4&#45;&gt;Node25 -->
<g id="edge47" class="edge">
<title>Node4&#45;&gt;Node25</title>
<path fill="none" stroke="midnightblue" d="M1131.56,-400.12C1176.72,-389.48 1234.98,-375.76 1278.08,-365.61"/>
<polygon fill="midnightblue" stroke="midnightblue" points="1130.48,-396.78 1121.55,-402.48 1132.08,-403.59 1130.48,-396.78"/>
</g>
<!-- Node26 -->
<g id="node26" class="node">
<title>Node26</title>
<g id="a_node26"><a xlink:href="segment__tree_8hpp.html" target="_top" xlink:title=" ">
<polygon fill="white" stroke="black" points="1242,-134.5 1242,-164.5 1386,-164.5 1386,-134.5 1242,-134.5"/>
<text text-anchor="start" x="1250" y="-152.5" font-family="Helvetica,sans-Serif" font-size="10.00">/home/ram/OmniTemplate</text>
<text text-anchor="middle" x="1314" y="-141.5" font-family="Helvetica,sans-Serif" font-size="10.00">/segment_tree.hpp</text>
</a>
</g>
</g>
<!-- Node4&#45;&gt;Node26 -->
<g id="edge48" class="edge">
<title>Node4&#45;&gt;Node26</title>
<path fill="none" stroke="midnightblue" d="M1144.3,-416.83C1238.45,-415.24 1384.15,-406.13 1419,-366 1428.03,-355.6 1422.99,-348.19 1419,-335 1413.43,-316.6 1403.86,-316.07 1395,-299 1373.47,-257.54 1380.92,-241.12 1357,-201 1348.98,-187.55 1337.35,-174.14 1328.2,-164.52"/>
<polygon fill="midnightblue" stroke="midnightblue" points="1144.17,-413.33 1134.22,-416.97 1144.27,-420.33 1144.17,-413.33"/>
</g>
<!-- Node27 -->
<g id="node27" class="node">
<title>Node27</title>
<g id="a_node27"><a xlink:href="splay__tree_8hpp.html" target="_top" xlink:title=" ">
<polygon fill="white" stroke="black" points="1404,-268.5 1404,-298.5 1548,-298.5 1548,-268.5 1404,-268.5"/>
<text text-anchor="start" x="1412" y="-286.5" font-family="Helvetica,sans-Serif" font-size="10.00">/home/ram/OmniTemplate</text>
<text text-anchor="middle" x="1476" y="-275.5" font-family="Helvetica,sans-Serif" font-size="10.00">/splay_tree.hpp</text>
</a>
</g>
</g>
<!-- Node4&#45;&gt;Node27 -->
<g id="edge50" class="edge">
<title>Node4&#45;&gt;Node27</title>
<path fill="none" stroke="midnightblue" d="M1144.14,-416.11C1244.66,-413.93 1407.07,-404.35 1452,-366 1471.63,-349.24 1475.64,-317.31 1476.21,-298.78"/>
<polygon fill="midnightblue" stroke="midnightblue" points="1143.94,-412.61 1134.01,-416.31 1144.08,-419.61 1143.94,-412.61"/>
</g>
<!-- Node28 -->
<g id="node28" class="node">
<title>Node28</title>
<g id="a_node28"><a xlink:href="string_8hpp.html" target="_top" xlink:title=" ">
<polygon fill="white" stroke="black" points="1442,-201.5 1442,-231.5 1586,-231.5 1586,-201.5 1442,-201.5"/>
<text text-anchor="start" x="1450" y="-219.5" font-family="Helvetica,sans-Serif" font-size="10.00">/home/ram/OmniTemplate</text>
<text text-anchor="middle" x="1514" y="-208.5" font-family="Helvetica,sans-Serif" font-size="10.00">/string.hpp</text>
</a>
</g>
</g>
<!-- Node4&#45;&gt;Node28 -->
<g id="edge52" class="edge">
<title>Node4&#45;&gt;Node28</title>
<path fill="none" stroke="midnightblue" d="M1144.26,-411.86C1247.26,-405.13 1417.21,-390.66 1475,-366 1518.29,-347.53 1536.83,-341.52 1557,-299 1562.9,-286.55 1561.76,-280.93 1557,-268 1551.75,-253.74 1540.48,-240.76 1530.8,-231.53"/>
<polygon fill="midnightblue" stroke="midnightblue" points="1143.95,-408.38 1134.2,-412.51 1144.4,-415.36 1143.95,-408.38"/>
</g>
<!-- Node29 -->
<g id="node29" class="node">
<title>Node29</title>
<g id="a_node29"><a xlink:href="treap_8hpp.html" target="_top" xlink:title=" ">
<polygon fill="white" stroke="black" points="1480,-134.5 1480,-164.5 1624,-164.5 1624,-134.5 1480,-134.5"/>
<text text-anchor="start" x="1488" y="-152.5" font-family="Helvetica,sans-Serif" font-size="10.00">/home/ram/OmniTemplate</text>
<text text-anchor="middle" x="1552" y="-141.5" font-family="Helvetica,sans-Serif" font-size="10.00">/treap.hpp</text>
</a>
</g>
</g>
<!-- Node4&#45;&gt;Node29 -->
<g id="edge55" class="edge">
<title>Node4&#45;&gt;Node29</title>
<path fill="none" stroke="midnightblue" d="M1144.46,-414.65C1257.7,-410.88 1454.46,-399.56 1517,-366 1577.72,-333.41 1584.11,-300.05 1595,-232 1597.18,-218.4 1599.76,-213.93 1595,-201 1589.75,-186.74 1578.48,-173.76 1568.8,-164.53"/>
<polygon fill="midnightblue" stroke="midnightblue" points="1144.32,-411.15 1134.44,-414.97 1144.55,-418.15 1144.32,-411.15"/>
</g>
<!-- Node30 -->
<g id="node30" class="node">
<title>Node30</title>
<g id="a_node30"><a xlink:href="tree_8hpp.html" target="_top" xlink:title=" ">
<polygon fill="white" stroke="black" points="1580,-335.5 1580,-365.5 1724,-365.5 1724,-335.5 1580,-335.5"/>
<text text-anchor="start" x="1588" y="-353.5" font-family="Helvetica,sans-Serif" font-size="10.00">/home/ram/OmniTemplate</text>
<text text-anchor="middle" x="1652" y="-342.5" font-family="Helvetica,sans-Serif" font-size="10.00">/tree.hpp</text>
</a>
</g>
</g>
<!-- Node4&#45;&gt;Node30 -->
<g id="edge57" class="edge">
<title>Node4&#45;&gt;Node30</title>
<path fill="none" stroke="midnightblue" d="M1144.41,-409.95C1244.37,-401.62 1417.91,-385.88 1566,-366 1570.5,-365.4 1575.13,-364.73 1579.79,-364.04"/>
<polygon fill="midnightblue" stroke="midnightblue" points="1144.05,-406.47 1134.37,-410.79 1144.63,-413.45 1144.05,-406.47"/>
</g>
<!-- Node5&#45;&gt;Node6 -->
<g id="edge5" class="edge">
<title>Node5&#45;&gt;Node6</title>
<path fill="none" stroke="midnightblue" d="M306.17,-134.48C307.45,-134.32 308.73,-134.16 310,-134 517.99,-108.4 765.29,-93.34 884.98,-87.02"/>
<polygon fill="midnightblue" stroke="midnightblue" points="305.63,-131.03 296.19,-135.85 306.57,-137.96 305.63,-131.03"/>
</g>
<!-- Node7 -->
<g id="node7" class="node">
<title>Node7</title>
<g id="a_node7"><a xlink:href="test_8cpp.html" target="_top" xlink:title=" ">
<polygon fill="white" stroke="black" points="885,-0.5 885,-30.5 1029,-30.5 1029,-0.5 885,-0.5"/>
<text text-anchor="start" x="893" y="-18.5" font-family="Helvetica,sans-Serif" font-size="10.00">/home/ram/OmniTemplate</text>
<text text-anchor="middle" x="957" y="-7.5" font-family="Helvetica,sans-Serif" font-size="10.00">/test.cpp</text>
</a>
</g>
</g>
<!-- Node6&#45;&gt;Node7 -->
<g id="edge6" class="edge">
<title>Node6&#45;&gt;Node7</title>
<path fill="none" stroke="midnightblue" d="M957,-57.11C957,-48.15 957,-38.32 957,-30.58"/>
<polygon fill="midnightblue" stroke="midnightblue" points="953.5,-57.4 957,-67.4 960.5,-57.4 953.5,-57.4"/>
</g>
<!-- Node8&#45;&gt;Node5 -->
<g id="edge9" class="edge">
<title>Node8&#45;&gt;Node5</title>
<path fill="none" stroke="midnightblue" d="M154.41,-195.73C169.88,-185.68 188.33,-173.68 202.34,-164.58"/>
<polygon fill="midnightblue" stroke="midnightblue" points="152.18,-193.01 145.7,-201.4 155.99,-198.88 152.18,-193.01"/>
</g>
<!-- Node8&#45;&gt;Node6 -->
<g id="edge10" class="edge">
<title>Node8&#45;&gt;Node6</title>
<path fill="none" stroke="midnightblue" d="M122.53,-191.3C122.84,-172.66 126.68,-147.8 143,-134 198.92,-86.72 696.03,-82.88 884.76,-83.14"/>
<polygon fill="midnightblue" stroke="midnightblue" points="119.03,-191.49 122.69,-201.43 126.03,-191.38 119.03,-191.49"/>
</g>
<!-- Node9&#45;&gt;Node6 -->
<g id="edge13" class="edge">
<title>Node9&#45;&gt;Node6</title>
<path fill="none" stroke="midnightblue" d="M54.48,-259.83C43.91,-243.23 34.05,-220.32 43,-201 62.35,-159.22 79.28,-151.16 122,-134 191.78,-105.97 695.25,-90.24 884.95,-85.25"/>
<polygon fill="midnightblue" stroke="midnightblue" points="51.78,-262.08 60.32,-268.35 57.55,-258.12 51.78,-262.08"/>
</g>
<!-- Node9&#45;&gt;Node8 -->
<g id="edge12" class="edge">
<title>Node9&#45;&gt;Node8</title>
<path fill="none" stroke="midnightblue" d="M89.64,-260.45C97.28,-250.9 106,-240 112.74,-231.58"/>
<polygon fill="midnightblue" stroke="midnightblue" points="86.8,-258.4 83.28,-268.4 92.26,-262.77 86.8,-258.4"/>
</g>
<!-- Node10&#45;&gt;Node6 -->
<g id="edge16" class="edge">
<title>Node10&#45;&gt;Node6</title>
<path fill="none" stroke="midnightblue" d="M308.35,-258C307.58,-224.35 311.84,-164.55 348,-134 388.22,-100.02 732.22,-88.37 884.72,-84.86"/>
<polygon fill="midnightblue" stroke="midnightblue" points="304.87,-258.47 308.77,-268.32 311.87,-258.19 304.87,-258.47"/>
</g>
<!-- Node10&#45;&gt;Node8 -->
<g id="edge15" class="edge">
<title>Node10&#45;&gt;Node8</title>
<path fill="none" stroke="midnightblue" d="M260.19,-265.09C230.16,-254.6 192.41,-241.41 164.28,-231.58"/>
<polygon fill="midnightblue" stroke="midnightblue" points="259.05,-268.4 269.64,-268.4 261.36,-261.79 259.05,-268.4"/>
</g>
<!-- Node11&#45;&gt;Node6 -->
<g id="edge21" class="edge">
<title>Node11&#45;&gt;Node6</title>
<path fill="none" stroke="midnightblue" d="M437.28,-326.08C415.89,-279.73 377.89,-177.06 437,-134 472.42,-108.2 750.68,-92.57 884.97,-86.46"/>
<polygon fill="midnightblue" stroke="midnightblue" points="434.22,-327.8 441.68,-335.33 440.54,-324.79 434.22,-327.8"/>
</g>
<!-- Node11&#45;&gt;Node10 -->
<g id="edge18" class="edge">
<title>Node11&#45;&gt;Node10</title>
<path fill="none" stroke="midnightblue" d="M409.72,-331.13C387.63,-320.8 360.49,-308.11 340.1,-298.58"/>
<polygon fill="midnightblue" stroke="midnightblue" points="408.3,-334.33 418.84,-335.4 411.26,-327.99 408.3,-334.33"/>
</g>
<!-- Node11&#45;&gt;Node12 -->
<g id="edge19" class="edge">
<title>Node11&#45;&gt;Node12</title>
<path fill="none" stroke="midnightblue" d="M469.15,-328.02C478.24,-318.34 488.72,-307.17 496.79,-298.58"/>
<polygon fill="midnightblue" stroke="midnightblue" points="466.53,-325.71 462.24,-335.4 471.63,-330.5 466.53,-325.71"/>
</g>
<!-- Node12&#45;&gt;Node6 -->
<g id="edge20" class="edge">
<title>Node12&#45;&gt;Node6</title>
<path fill="none" stroke="midnightblue" d="M454.96,-263.86C440.77,-256.28 427.2,-245.92 419,-232 390.48,-183.55 447.29,-156.08 499,-134 566.69,-105.1 773.68,-91.66 884.76,-86.38"/>
<polygon fill="midnightblue" stroke="midnightblue" points="453.81,-267.2 464.33,-268.46 456.89,-260.91 453.81,-267.2"/>
</g>
<!-- Node13&#45;&gt;Node6 -->
<g id="edge23" class="edge">
<title>Node13&#45;&gt;Node6</title>
<path fill="none" stroke="midnightblue" d="M498.74,-191.22C499.2,-172.74 503.14,-148.15 519,-134 545.74,-110.15 767.7,-94.17 884.99,-87.31"/>
<polygon fill="midnightblue" stroke="midnightblue" points="495.24,-191.29 498.8,-201.27 502.24,-191.25 495.24,-191.29"/>
</g>
<!-- Node14&#45;&gt;Node6 -->
<g id="edge25" class="edge">
<title>Node14&#45;&gt;Node6</title>
<path fill="none" stroke="midnightblue" d="M1850.41,-325.4C1845.96,-279.43 1829.13,-179.71 1766,-134 1707.12,-91.37 1216.26,-84.66 1029.1,-83.65"/>
<polygon fill="midnightblue" stroke="midnightblue" points="1846.93,-325.7 1851.26,-335.37 1853.9,-325.11 1846.93,-325.7"/>
</g>
<!-- Node15&#45;&gt;Node6 -->
<g id="edge27" class="edge">
<title>Node15&#45;&gt;Node6</title>
<path fill="none" stroke="midnightblue" d="M682.26,-133.52C743.47,-122.38 826.22,-107.31 884.86,-96.63"/>
<polygon fill="midnightblue" stroke="midnightblue" points="681.46,-130.11 672.24,-135.35 682.71,-137 681.46,-130.11"/>
</g>
<!-- Node16&#45;&gt;Node6 -->
<g id="edge29" class="edge">
<title>Node16&#45;&gt;Node6</title>
<path fill="none" stroke="midnightblue" d="M699.14,-191.05C699.87,-172.86 703.98,-148.72 719,-134 742.23,-111.23 823.64,-97.58 884.82,-90.32"/>
<polygon fill="midnightblue" stroke="midnightblue" points="695.64,-191.19 699.04,-201.22 702.64,-191.25 695.64,-191.19"/>
</g>
<!-- Node17&#45;&gt;Node6 -->
<g id="edge31" class="edge">
<title>Node17&#45;&gt;Node6</title>
<path fill="none" stroke="midnightblue" d="M843.37,-130.54C868.49,-120.14 899.66,-107.24 923,-97.58"/>
<polygon fill="midnightblue" stroke="midnightblue" points="841.97,-127.34 834.07,-134.4 844.64,-133.8 841.97,-127.34"/>
</g>
<!-- Node18&#45;&gt;Node6 -->
<g id="edge33" class="edge">
<title>Node18&#45;&gt;Node6</title>
<path fill="none" stroke="midnightblue" d="M905.17,-191.23C909.18,-174.66 915.48,-152.45 924,-134 929.97,-121.07 938.91,-107.62 945.98,-97.86"/>
<polygon fill="midnightblue" stroke="midnightblue" points="901.71,-190.67 902.88,-201.2 908.53,-192.25 901.71,-190.67"/>
</g>
<!-- Node19&#45;&gt;Node6 -->
<g id="edge35" class="edge">
<title>Node19&#45;&gt;Node6</title>
<path fill="none" stroke="midnightblue" d="M947.76,-263.45C960.89,-255.74 973.55,-245.42 981,-232 996.02,-204.94 970.36,-194.8 962,-165 955.57,-142.07 955.43,-114.14 956.09,-97.64"/>
<polygon fill="midnightblue" stroke="midnightblue" points="945.79,-260.54 938.66,-268.37 949.12,-266.69 945.79,-260.54"/>
</g>
<!-- Node20&#45;&gt;Node6 -->
<g id="edge38" class="edge">
<title>Node20&#45;&gt;Node6</title>
<path fill="none" stroke="midnightblue" d="M943.35,-330.63C957.18,-322.68 971.38,-312.17 981,-299 999.12,-274.19 994.19,-262.48 998,-232 1004.33,-181.31 978.39,-123.6 964.81,-97.56"/>
<polygon fill="midnightblue" stroke="midnightblue" points="941.5,-327.65 934.36,-335.48 944.82,-333.81 941.5,-327.65"/>
</g>
<!-- Node20&#45;&gt;Node19 -->
<g id="edge37" class="edge">
<title>Node20&#45;&gt;Node19</title>
<path fill="none" stroke="midnightblue" d="M900,-325.11C900,-316.15 900,-306.32 900,-298.58"/>
<polygon fill="midnightblue" stroke="midnightblue" points="896.5,-325.4 900,-335.4 903.5,-325.4 896.5,-325.4"/>
</g>
<!-- Node22&#45;&gt;Node6 -->
<g id="edge42" class="edge">
<title>Node22&#45;&gt;Node6</title>
<path fill="none" stroke="midnightblue" d="M1041.35,-129.57C1022.63,-119.35 999.91,-106.94 982.77,-97.58"/>
<polygon fill="midnightblue" stroke="midnightblue" points="1039.72,-132.67 1050.18,-134.4 1043.08,-126.53 1039.72,-132.67"/>
</g>
<!-- Node23&#45;&gt;Node6 -->
<g id="edge44" class="edge">
<title>Node23&#45;&gt;Node6</title>
<path fill="none" stroke="midnightblue" d="M1180.48,-258.14C1184.95,-225.64 1187.36,-168.25 1157,-134 1139.95,-114.77 1079.18,-101.23 1029.05,-93.05"/>
<polygon fill="midnightblue" stroke="midnightblue" points="1177,-257.72 1178.93,-268.13 1183.92,-258.79 1177,-257.72"/>
</g>
<!-- Node24&#45;&gt;Node6 -->
<g id="edge46" class="edge">
<title>Node24&#45;&gt;Node6</title>
<path fill="none" stroke="midnightblue" d="M1258.78,-193.47C1242.93,-174.75 1217.73,-148.65 1190,-134 1140.04,-107.61 1077.12,-95.01 1029.26,-88.99"/>
<polygon fill="midnightblue" stroke="midnightblue" points="1256.12,-195.75 1265.18,-201.24 1261.52,-191.29 1256.12,-195.75"/>
</g>
<!-- Node26&#45;&gt;Node6 -->
<g id="edge49" class="edge">
<title>Node26&#45;&gt;Node6</title>
<path fill="none" stroke="midnightblue" d="M1231.74,-133.52C1170.53,-122.38 1087.78,-107.31 1029.14,-96.63"/>
<polygon fill="midnightblue" stroke="midnightblue" points="1231.29,-137 1241.76,-135.35 1232.54,-130.11 1231.29,-137"/>
</g>
<!-- Node27&#45;&gt;Node6 -->
<g id="edge51" class="edge">
<title>Node27&#45;&gt;Node6</title>
<path fill="none" stroke="midnightblue" d="M1454.8,-260.88C1447.23,-252.36 1439.08,-242.19 1433,-232 1409.08,-191.88 1431.97,-162.56 1395,-134 1339.43,-91.06 1138.48,-83.73 1029.12,-83.03"/>
<polygon fill="midnightblue" stroke="midnightblue" points="1452.45,-263.49 1461.8,-268.48 1457.6,-258.75 1452.45,-263.49"/>
</g>
<!-- Node28&#45;&gt;Node6 -->
<g id="edge53" class="edge">
<title>Node28&#45;&gt;Node6</title>
<path fill="none" stroke="midnightblue" d="M1494.22,-193.82C1473.92,-172.14 1443.22,-141.03 1428,-134 1358.85,-102.06 1143.14,-89.9 1029.19,-85.62"/>
<polygon fill="midnightblue" stroke="midnightblue" points="1491.81,-196.37 1501.18,-201.32 1496.94,-191.61 1491.81,-196.37"/>
</g>
<!-- Node29&#45;&gt;Node6 -->
<g id="edge56" class="edge">
<title>Node29&#45;&gt;Node6</title>
<path fill="none" stroke="midnightblue" d="M1469.83,-134.52C1468.54,-134.34 1467.27,-134.17 1466,-134 1310.87,-113.25 1128.08,-97.14 1029.25,-89.11"/>
<polygon fill="midnightblue" stroke="midnightblue" points="1469.4,-138 1479.79,-135.96 1470.39,-131.07 1469.4,-138"/>
</g>
<!-- Node30&#45;&gt;Node6 -->
<g id="edge58" class="edge">
<title>Node30&#45;&gt;Node6</title>
<path fill="none" stroke="midnightblue" d="M1658.63,-325.43C1669.33,-280.7 1684.37,-184.69 1633,-134 1590.72,-92.28 1194.75,-84.96 1029.21,-83.72"/>
<polygon fill="midnightblue" stroke="midnightblue" points="1655.17,-324.85 1656.11,-335.4 1661.95,-326.56 1655.17,-324.85"/>
</g>
<!-- Node31&#45;&gt;Node4 -->
<g id="edge63" class="edge">
<title>Node31&#45;&gt;Node4</title>
<path fill="none" stroke="midnightblue" d="M1408.74,-471.04C1329.28,-459 1210.12,-440.94 1134.23,-429.44"/>
<polygon fill="midnightblue" stroke="midnightblue" points="1408.3,-474.51 1418.71,-472.55 1409.35,-467.59 1408.3,-474.51"/>
</g>
<!-- Node31&#45;&gt;Node6 -->
<g id="edge65" class="edge">
<title>Node31&#45;&gt;Node6</title>
<path fill="none" stroke="midnightblue" d="M1573.15,-476.89C1705.69,-463.94 1952,-429.39 1952,-351.5 1952,-351.5 1952,-351.5 1952,-215.5 1952,-136.49 1870.19,-154.94 1794,-134 1650.91,-94.67 1204.88,-85.95 1029.17,-84.04"/>
<polygon fill="midnightblue" stroke="midnightblue" points="1572.65,-473.42 1563.03,-477.86 1573.32,-480.39 1572.65,-473.42"/>
</g>
<!-- Node31&#45;&gt;Node14 -->
<g id="edge64" class="edge">
<title>Node31&#45;&gt;Node14</title>
<path fill="none" stroke="midnightblue" d="M1539.08,-465.92C1611.53,-439.43 1747.25,-389.8 1813.56,-365.56"/>
<polygon fill="midnightblue" stroke="midnightblue" points="1537.48,-462.78 1529.29,-469.5 1539.89,-469.35 1537.48,-462.78"/>
</g>
</g>
</svg>
        <g id="navigator" transform="translate(0 0)" fill="#404254">
                <rect fill="#f2f5e9" fill-opacity="0.5" stroke="#606060" stroke-width=".5" x="0" y="0" width="60" height="60"/>
                <use id="zoomplus" xlink:href="#zoomPlus" x="17" y="9" onmousedown="handleZoom(evt,'in')"/>
                <use id="zoomminus" xlink:href="#zoomMin" x="42" y="9" onmousedown="handleZoom(evt,'out')"/>
                <use id="reset" xlink:href="#resetDef" x="30" y="36" onmousedown="handleReset()"/>
                <g id="arrowUp" xlink:href="#dirArrow" transform="translate(30 24)" onmousedown="handlePan(0,-1)">
                  <use xlink:href="#rim" fill="#404040">
                        <set attributeName="fill" to="#808080" begin="arrowUp.mouseover" end="arrowUp.mouseout"/>
                  </use>
                  <path fill="none" stroke="white" stroke-width="1.5" d="M0,-3.0v7 M-2.5,-0.5L0,-3.0L2.5,-0.5"/>
                </g>
                <g id="arrowRight" xlink:href="#dirArrow" transform="rotate(90) translate(36 -43)" onmousedown="handlePan(1,0)">
                  <use xlink:href="#rim" fill="#404040">
                        <set attributeName="fill" to="#808080" begin="arrowRight.mouseover" end="arrowRight.mouseout"/>
                  </use>
                  <path fill="none" stroke="white" stroke-width="1.5" d="M0,-3.0v7 M-2.5,-0.5L0,-3.0L2.5,-0.5"/>
                </g>
                <g id="arrowDown" xlink:href="#dirArrow" transform="rotate(180) translate(-30 -48)" onmousedown="handlePan(0,1)">
                  <use xlink:href="#rim" fill="#404040">
                        <set attributeName="fill" to="#808080" begin="arrowDown.mouseover" end="arrowDown.mouseout"/>
                  </use>
                  <path fill="none" stroke="white" stroke-width="1.5" d="M0,-3.0v7 M-2.5,-0.5L0,-3.0L2.5,-0.5"/>
                </g>
                <g id="arrowLeft" xlink:href="#dirArrow" transform="rotate(270) translate(-36 17)" onmousedown="handlePan(-1,0)">
                  <use xlink:href="#rim" fill="#404040">
                        <set attributeName="fill" to="#808080" begin="arrowLeft.mouseover" end="arrowLeft.mouseout"/>
                  </use>
                  <path fill="none" stroke="white" stroke-width="1.5" d="M0,-3.0v7 M-2.5,-0.5L0,-3.0L2.5,-0.5"/>
                </g>
        </g>
        <svg viewBox="0 0 15 15" width="100%" height="30px" preserveAspectRatio="xMaxYMin meet">
         <g id="arrow_out" transform="scale(0.3 0.3)">
          <a xlink:href="range_8hpp__dep__incl_org.svg" target="_base">
           <rect id="button" ry="5" rx="5" y="6" x="6" height="38" width="38"
                fill="#f2f5e9" fill-opacity="0.5" stroke="#606060" stroke-width="1.0"/>
           <path id="arrow"
             d="M 11.500037,31.436501 C 11.940474,20.09759 22.043105,11.32322 32.158766,21.979434 L 37.068811,17.246167 C 37.068811,17.246167 37.088388,32 37.088388,32 L 22.160133,31.978069 C 22.160133,31.978069 26.997745,27.140456 26.997745,27.140456 C 18.528582,18.264221 13.291696,25.230495 11.500037,31.436501 z"
             style="fill:#404040;"/>
          </a>
         </g>
        </svg>
</svg>
