<?xml version="1.0" encoding="UTF-8" standalone="no"?>
<!DOCTYPE svg PUBLIC "-//W3C//DTD SVG 1.1//EN"
 "http://www.w3.org/Graphics/SVG/1.1/DTD/svg11.dtd">
<!-- Generated by graphviz version 2.43.0 (0)
 -->
<!-- Title: /home/ram/OmniTemplate/range.hpp Pages: 1 -->
<svg width="796pt" height="162pt"
 viewBox="0.00 0.00 796.00 162.00" xmlns="http://www.w3.org/2000/svg" xmlns:xlink="http://www.w3.org/1999/xlink">
<g id="graph0" class="graph" transform="scale(1 1) rotate(0) translate(4 158)">
<title>/home/ram/OmniTemplate/range.hpp</title>
<polygon fill="white" stroke="transparent" points="-4,4 -4,-158 792,-158 792,4 -4,4"/>
<!-- Node1 -->
<g id="node1" class="node">
<title>Node1</title>
<g id="a_node1"><a xlink:title=" ">
<polygon fill="#bfbfbf" stroke="black" points="415.5,-123.5 415.5,-153.5 559.5,-153.5 559.5,-123.5 415.5,-123.5"/>
<text text-anchor="start" x="423.5" y="-141.5" font-family="Helvetica,sans-Serif" font-size="10.00">/home/ram/OmniTemplate</text>
<text text-anchor="middle" x="487.5" y="-130.5" font-family="Helvetica,sans-Serif" font-size="10.00">/range.hpp</text>
</a>
</g>
</g>
<!-- Node2 -->
<g id="node2" class="node">
<title>Node2</title>
<g id="a_node2"><a xlink:href="core_8hpp.html" target="_top" xlink:title=" ">
<polygon fill="white" stroke="black" points="458,-67.5 458,-86.5 517,-86.5 517,-67.5 458,-67.5"/>
<text text-anchor="middle" x="487.5" y="-74.5" font-family="Helvetica,sans-Serif" font-size="10.00">core.hpp</text>
</a>
</g>
</g>
<!-- Node1&#45;&gt;Node2 -->
<g id="edge1" class="edge">
<title>Node1&#45;&gt;Node2</title>
<path fill="none" stroke="midnightblue" d="M481.66,-123.4C480.63,-115.38 480.47,-105.23 481.19,-96.57"/>
<polygon fill="midnightblue" stroke="midnightblue" points="484.66,-97.04 482.57,-86.66 477.73,-96.08 484.66,-97.04"/>
</g>
<!-- Node2&#45;&gt;Node1 -->
<g id="edge11" class="edge">
<title>Node2&#45;&gt;Node1</title>
<path fill="none" stroke="midnightblue" d="M492.43,-86.66C493.93,-93.65 494.51,-103.86 494.14,-113.29"/>
<polygon fill="midnightblue" stroke="midnightblue" points="490.64,-113.15 493.34,-123.4 497.62,-113.71 490.64,-113.15"/>
</g>
<!-- Node3 -->
<g id="node3" class="node">
<title>Node3</title>
<g id="a_node3"><a xlink:title=" ">
<polygon fill="white" stroke="#bfbfbf" points="0,-6 0,-25 83,-25 83,-6 0,-6"/>
<text text-anchor="middle" x="41.5" y="-13" font-family="Helvetica,sans-Serif" font-size="10.00">bits/stdc++.h</text>
</a>
</g>
</g>
<!-- Node2&#45;&gt;Node3 -->
<g id="edge2" class="edge">
<title>Node2&#45;&gt;Node3</title>
<path fill="none" stroke="midnightblue" d="M457.93,-74.35C391.74,-70.3 226.85,-58.11 91.5,-31 86.99,-30.1 82.3,-28.98 77.68,-27.77"/>
<polygon fill="midnightblue" stroke="midnightblue" points="78.33,-24.32 67.76,-25.02 76.46,-31.07 78.33,-24.32"/>
</g>
<!-- Node4 -->
<g id="node4" class="node">
<title>Node4</title>
<g id="a_node4"><a xlink:title=" ">
<polygon fill="white" stroke="#bfbfbf" points="101,-6 101,-25 222,-25 222,-6 101,-6"/>
<text text-anchor="middle" x="161.5" y="-13" font-family="Helvetica,sans-Serif" font-size="10.00">experimental/iterator</text>
</a>
</g>
</g>
<!-- Node2&#45;&gt;Node4 -->
<g id="edge3" class="edge">
<title>Node2&#45;&gt;Node4</title>
<path fill="none" stroke="midnightblue" d="M457.76,-71.13C409.83,-63.2 312.57,-46.8 230.5,-31 224.19,-29.78 217.57,-28.46 211.02,-27.12"/>
<polygon fill="midnightblue" stroke="midnightblue" points="211.36,-23.61 200.86,-25.01 209.94,-30.47 211.36,-23.61"/>
</g>
<!-- Node5 -->
<g id="node5" class="node">
<title>Node5</title>
<g id="a_node5"><a xlink:title=" ">
<polygon fill="white" stroke="#bfbfbf" points="240,-0.5 240,-30.5 357,-30.5 357,-0.5 240,-0.5"/>
<text text-anchor="start" x="248" y="-18.5" font-family="Helvetica,sans-Serif" font-size="10.00">experimental/source</text>
<text text-anchor="middle" x="298.5" y="-7.5" font-family="Helvetica,sans-Serif" font-size="10.00">_location</text>
</a>
</g>
</g>
<!-- Node2&#45;&gt;Node5 -->
<g id="edge4" class="edge">
<title>Node2&#45;&gt;Node5</title>
<path fill="none" stroke="midnightblue" d="M460.42,-67.48C432.43,-58.66 387.98,-44.67 352.72,-33.57"/>
<polygon fill="midnightblue" stroke="midnightblue" points="353.63,-30.19 343.04,-30.52 351.53,-36.86 353.63,-30.19"/>
</g>
<!-- Node6 -->
<g id="node6" class="node">
<title>Node6</title>
<g id="a_node6"><a xlink:href="my__int_8hpp.html" target="_top" xlink:title=" ">
<polygon fill="white" stroke="black" points="375,-6 375,-25 446,-25 446,-6 375,-6"/>
<text text-anchor="middle" x="410.5" y="-13" font-family="Helvetica,sans-Serif" font-size="10.00">my_int.hpp</text>
</a>
</g>
</g>
<!-- Node2&#45;&gt;Node6 -->
<g id="edge5" class="edge">
<title>Node2&#45;&gt;Node6</title>
<path fill="none" stroke="midnightblue" d="M471.57,-67.48C457.54,-58.2 437.73,-43.17 424.35,-31.83"/>
<polygon fill="midnightblue" stroke="midnightblue" points="426.43,-29 416.61,-25.01 421.8,-34.25 426.43,-29"/>
</g>
<!-- Node7 -->
<g id="node7" class="node">
<title>Node7</title>
<g id="a_node7"><a xlink:href="io_8hpp.html" target="_top" xlink:title=" ">
<polygon fill="white" stroke="black" points="464,-6 464,-25 511,-25 511,-6 464,-6"/>
<text text-anchor="middle" x="487.5" y="-13" font-family="Helvetica,sans-Serif" font-size="10.00">io.hpp</text>
</a>
</g>
</g>
<!-- Node2&#45;&gt;Node7 -->
<g id="edge7" class="edge">
<title>Node2&#45;&gt;Node7</title>
<path fill="none" stroke="midnightblue" d="M482.6,-67.48C480.77,-59.08 480.3,-45.98 481.19,-35.16"/>
<polygon fill="midnightblue" stroke="midnightblue" points="484.69,-35.4 482.6,-25.01 477.75,-34.43 484.69,-35.4"/>
</g>
<!-- Node8 -->
<g id="node8" class="node">
<title>Node8</title>
<g id="a_node8"><a xlink:href="operations_8hpp.html" target="_top" xlink:title=" ">
<polygon fill="white" stroke="black" points="699,-6 699,-25 788,-25 788,-6 699,-6"/>
<text text-anchor="middle" x="743.5" y="-13" font-family="Helvetica,sans-Serif" font-size="10.00">operations.hpp</text>
</a>
</g>
</g>
<!-- Node2&#45;&gt;Node8 -->
<g id="edge9" class="edge">
<title>Node2&#45;&gt;Node8</title>
<path fill="none" stroke="midnightblue" d="M517.19,-69.89C556.83,-61.63 629.18,-46.18 690.5,-31 694.67,-29.97 699.01,-28.85 703.33,-27.71"/>
<polygon fill="midnightblue" stroke="midnightblue" points="704.55,-31.01 713.3,-25.04 702.73,-24.25 704.55,-31.01"/>
</g>
<!-- Node9 -->
<g id="node9" class="node">
<title>Node9</title>
<g id="a_node9"><a xlink:href="debug_8hpp.html" target="_top" xlink:title=" ">
<polygon fill="white" stroke="black" points="529.5,-6 529.5,-25 597.5,-25 597.5,-6 529.5,-6"/>
<text text-anchor="middle" x="563.5" y="-13" font-family="Helvetica,sans-Serif" font-size="10.00">debug.hpp</text>
</a>
</g>
</g>
<!-- Node2&#45;&gt;Node9 -->
<g id="edge12" class="edge">
<title>Node2&#45;&gt;Node9</title>
<path fill="none" stroke="midnightblue" d="M498.39,-67.48C510.47,-58.02 530.17,-42.6 544.74,-31.19"/>
<polygon fill="midnightblue" stroke="midnightblue" points="546.91,-33.93 552.63,-25.01 542.6,-28.42 546.91,-33.93"/>
</g>
<!-- Node10 -->
<g id="node10" class="node">
<title>Node10</title>
<g id="a_node10"><a xlink:href="utility_8hpp.html" target="_top" xlink:title=" ">
<polygon fill="white" stroke="black" points="616,-6 616,-25 681,-25 681,-6 616,-6"/>
<text text-anchor="middle" x="648.5" y="-13" font-family="Helvetica,sans-Serif" font-size="10.00">utility.hpp</text>
</a>
</g>
</g>
<!-- Node2&#45;&gt;Node10 -->
<g id="edge13" class="edge">
<title>Node2&#45;&gt;Node10</title>
<path fill="none" stroke="midnightblue" d="M505.67,-67.48C531.17,-57.22 577.68,-39.96 610.78,-28.4"/>
<polygon fill="midnightblue" stroke="midnightblue" points="612.27,-31.59 620.58,-25.01 609.98,-24.97 612.27,-31.59"/>
</g>
<!-- Node6&#45;&gt;Node2 -->
<g id="edge6" class="edge">
<title>Node6&#45;&gt;Node2</title>
<path fill="none" stroke="midnightblue" d="M426.41,-25.01C440.43,-34.28 460.24,-49.31 473.63,-60.65"/>
<polygon fill="midnightblue" stroke="midnightblue" points="471.55,-63.49 481.37,-67.48 476.18,-58.24 471.55,-63.49"/>
</g>
<!-- Node7&#45;&gt;Node2 -->
<g id="edge8" class="edge">
<title>Node7&#45;&gt;Node2</title>
<path fill="none" stroke="midnightblue" d="M492.4,-25.01C494.23,-33.4 494.7,-46.5 493.82,-57.32"/>
<polygon fill="midnightblue" stroke="midnightblue" points="490.31,-57.09 492.4,-67.48 497.25,-58.05 490.31,-57.09"/>
</g>
<!-- Node8&#45;&gt;Node1 -->
<g id="edge10" class="edge">
<title>Node8&#45;&gt;Node1</title>
<path fill="none" stroke="midnightblue" d="M725.32,-25.09C684.12,-44.57 582.84,-92.44 526.65,-119"/>
<polygon fill="midnightblue" stroke="midnightblue" points="524.91,-115.95 517.37,-123.38 527.9,-122.27 524.91,-115.95"/>
</g>
<!-- Node10&#45;&gt;Node2 -->
<g id="edge14" class="edge">
<title>Node10&#45;&gt;Node2</title>
<path fill="none" stroke="midnightblue" d="M630.37,-25.01C604.89,-35.25 558.39,-52.52 525.28,-64.08"/>
<polygon fill="midnightblue" stroke="midnightblue" points="523.77,-60.9 515.47,-67.48 526.06,-67.51 523.77,-60.9"/>
</g>
</g>
</svg>
