<?xml version="1.0" encoding="UTF-8" standalone="no"?>
<!DOCTYPE svg PUBLIC "-//W3C//DTD SVG 1.1//EN"
 "http://www.w3.org/Graphics/SVG/1.1/DTD/svg11.dtd">
<!-- Generated by graphviz version 2.43.0 (0)
 -->
<!-- Title: rev Pages: 1 -->
<!--zoomable 168 -->
<svg id="main" version="1.1" xmlns="http://www.w3.org/2000/svg" xmlns:xlink="http://www.w3.org/1999/xlink" xml:space="preserve" onload="init(evt)">
<style type="text/css"><![CDATA[
.edge:hover path { stroke: red; }
.edge:hover polygon { stroke: red; fill: red; }
]]></style>
<script type="text/javascript"><![CDATA[
var edges = document.getElementsByTagName('g');
if (edges && edges.length) {
  for (var i=0;i<edges.length;i++) {
    if (edges[i].id.substr(0,4)=='edge') {
      edges[i].setAttribute('class','edge');
    }
  }
}
]]></script>
        <defs>
                <circle id="rim" cx="0" cy="0" r="7"/>
                <circle id="rim2" cx="0" cy="0" r="3.5"/>
                <g id="zoomPlus">
                        <use xlink:href="#rim" fill="#404040">
                                <set attributeName="fill" to="#808080" begin="zoomplus.mouseover" end="zoomplus.mouseout"/>
                        </use>
                        <path d="M-4,0h8M0,-4v8" fill="none" stroke="white" stroke-width="1.5" pointer-events="none"/>
                </g>
                <g id="zoomMin">
                        <use xlink:href="#rim" fill="#404040">
                                <set attributeName="fill" to="#808080" begin="zoomminus.mouseover" end="zoomminus.mouseout"/>
                        </use>
                        <path d="M-4,0h8" fill="none" stroke="white" stroke-width="1.5" pointer-events="none"/>
                </g>
                <g id="dirArrow">
                        <path fill="none" stroke="white" stroke-width="1.5" d="M0,-3.0v7 M-2.5,-0.5L0,-3.0L2.5,-0.5"/>
                </g>
               <g id="resetDef">
                       <use xlink:href="#rim2" fill="#404040">
                               <set attributeName="fill" to="#808080" begin="reset.mouseover" end="reset.mouseout"/>
                       </use>
               </g>
        </defs>

<script type="text/javascript">
var viewWidth = 808;
var viewHeight = 168;
var sectionId = 'dynsection-5';
</script>
<script xlink:href="svgpan.js"/>
<svg id="graph" class="graph">
<g id="viewport">
<title>rev</title>
<polygon fill="white" stroke="transparent" points="-4,4 -4,-164.38 804,-164.38 804,4 -4,4"/>
<!-- Node1 -->
<g id="node1" class="node">
<title>Node1</title>
<g id="a_node1"><a xlink:title=" ">
<polygon fill="#bfbfbf" stroke="black" points="768,-64.88 768,-83.88 800,-83.88 800,-64.88 768,-64.88"/>
<text text-anchor="middle" x="784" y="-71.88" font-family="Helvetica,sans-Serif" font-size="10.00">rev</text>
</a>
</g>
</g>
<!-- Node2 -->
<g id="node2" class="node">
<title>Node2</title>
<g id="a_node2"><a xlink:href="biconnected_8hpp.html#a72476443ae31ddf840e52f4a47f79055" target="_top" xlink:title=" ">
<polygon fill="white" stroke="black" points="630.5,-140.88 630.5,-159.88 706.5,-159.88 706.5,-140.88 630.5,-140.88"/>
<text text-anchor="middle" x="668.5" y="-147.88" font-family="Helvetica,sans-Serif" font-size="10.00">biconnected</text>
</a>
</g>
</g>
<!-- Node1&#45;&gt;Node2 -->
<g id="edge1" class="edge">
<title>Node1&#45;&gt;Node2</title>
<path fill="none" stroke="midnightblue" d="M769.25,-91.85C759.77,-102.97 746.32,-116.98 732,-126.38 722.96,-132.31 712.24,-137.1 702.26,-140.79"/>
<polygon fill="midnightblue" stroke="midnightblue" points="772.03,-93.99 775.68,-84.05 766.62,-89.54 772.03,-93.99"/>
</g>
<!-- Node7 -->
<g id="node7" class="node">
<title>Node7</title>
<g id="a_node7"><a xlink:href="centroid_8hpp.html#a3831178b7f165ffd952602f1ec4ba6a4" target="_top" xlink:title="Centroid decomposition of a tree.">
<polygon fill="white" stroke="black" points="468,-102.88 468,-121.88 569,-121.88 569,-102.88 468,-102.88"/>
<text text-anchor="middle" x="518.5" y="-109.88" font-family="Helvetica,sans-Serif" font-size="10.00">centroid_decomp</text>
</a>
</g>
</g>
<!-- Node1&#45;&gt;Node7 -->
<g id="edge6" class="edge">
<title>Node1&#45;&gt;Node7</title>
<path fill="none" stroke="midnightblue" d="M758.31,-85.09C750.09,-88.25 740.78,-91.39 732,-93.38 677.09,-105.82 612.47,-110.19 569.03,-111.68"/>
<polygon fill="midnightblue" stroke="midnightblue" points="759.74,-88.29 767.7,-81.3 757.12,-81.8 759.74,-88.29"/>
</g>
<!-- Node9 -->
<g id="node9" class="node">
<title>Node9</title>
<g id="a_node9"><a xlink:href="structtree_1_1no.html#af0fdce790d620d5787ac8efe7642ce70" target="_top" xlink:title=" ">
<polygon fill="white" stroke="black" points="632.5,-26.88 632.5,-45.88 704.5,-45.88 704.5,-26.88 632.5,-26.88"/>
<text text-anchor="middle" x="668.5" y="-33.88" font-family="Helvetica,sans-Serif" font-size="10.00">tree::no::dp</text>
</a>
</g>
</g>
<!-- Node1&#45;&gt;Node9 -->
<g id="edge9" class="edge">
<title>Node1&#45;&gt;Node9</title>
<path fill="none" stroke="midnightblue" d="M758.39,-64.86C750.05,-61.73 740.65,-58.3 732,-55.38 722.44,-52.15 711.97,-48.87 702.38,-45.96"/>
<polygon fill="midnightblue" stroke="midnightblue" points="757.32,-68.2 767.91,-68.48 759.81,-61.66 757.32,-68.2"/>
</g>
<!-- Node10 -->
<g id="node10" class="node">
<title>Node10</title>
<g id="a_node10"><a xlink:href="namespacetree.html#ad6fb77bc640502f7cfbc3b49c7891419" target="_top" xlink:title=" ">
<polygon fill="white" stroke="black" points="490.5,-7.88 490.5,-26.88 546.5,-26.88 546.5,-7.88 490.5,-7.88"/>
<text text-anchor="middle" x="518.5" y="-14.88" font-family="Helvetica,sans-Serif" font-size="10.00">tree::lca</text>
</a>
</g>
</g>
<!-- Node1&#45;&gt;Node10 -->
<g id="edge13" class="edge">
<title>Node1&#45;&gt;Node10</title>
<path fill="none" stroke="midnightblue" d="M772.69,-56.3C763.85,-42.78 749.73,-25.31 732,-17.38 670.54,10.1 588.71,-1.6 546.79,-10.58"/>
<polygon fill="midnightblue" stroke="midnightblue" points="769.74,-58.18 777.95,-64.87 775.7,-54.52 769.74,-58.18"/>
</g>
<!-- Node11 -->
<g id="node11" class="node">
<title>Node11</title>
<g id="a_node11"><a xlink:href="namespacegraph__theory.html#a1fa8a9b42e79b9ce10e89e4659164f8d" target="_top" xlink:title="Given a searcher object, returns an array containing the size of each subtree.">
<polygon fill="white" stroke="black" points="605,-64.88 605,-83.88 732,-83.88 732,-64.88 605,-64.88"/>
<text text-anchor="middle" x="668.5" y="-71.88" font-family="Helvetica,sans-Serif" font-size="10.00">graph_theory::get_size</text>
</a>
</g>
</g>
<!-- Node1&#45;&gt;Node11 -->
<g id="edge11" class="edge">
<title>Node1&#45;&gt;Node11</title>
<path fill="none" stroke="midnightblue" d="M757.68,-74.38C750.01,-74.38 741.21,-74.38 732.21,-74.38"/>
<polygon fill="midnightblue" stroke="midnightblue" points="757.69,-77.88 767.69,-74.38 757.69,-70.88 757.69,-77.88"/>
</g>
<!-- Node3 -->
<g id="node3" class="node">
<title>Node3</title>
<g id="a_node3"><a xlink:href="test__biconnected_8hpp.html#a07c975aa9b96f7bdb70155ae0c3acd17" target="_top" xlink:title=" ">
<polygon fill="white" stroke="black" points="319.5,-140.88 319.5,-159.88 419.5,-159.88 419.5,-140.88 319.5,-140.88"/>
<text text-anchor="middle" x="369.5" y="-147.88" font-family="Helvetica,sans-Serif" font-size="10.00">test_biconnected</text>
</a>
</g>
</g>
<!-- Node2&#45;&gt;Node3 -->
<g id="edge2" class="edge">
<title>Node2&#45;&gt;Node3</title>
<path fill="none" stroke="midnightblue" d="M620.33,-150.38C565.46,-150.38 475.29,-150.38 419.6,-150.38"/>
<polygon fill="midnightblue" stroke="midnightblue" points="620.49,-153.88 630.49,-150.38 620.49,-146.88 620.49,-153.88"/>
</g>
<!-- Node4 -->
<g id="node4" class="node">
<title>Node4</title>
<g id="a_node4"><a xlink:href="namespacegraph__theory_1_1test.html#a147e0cf4f86928e4e422c6b9198a2371" target="_top" xlink:title=" ">
<polygon fill="white" stroke="black" points="160,-116.38 160,-146.38 271,-146.38 271,-116.38 160,-116.38"/>
<text text-anchor="start" x="168" y="-134.38" font-family="Helvetica,sans-Serif" font-size="10.00">graph_theory::test</text>
<text text-anchor="middle" x="215.5" y="-123.38" font-family="Helvetica,sans-Serif" font-size="10.00">::test_graph_theory</text>
</a>
</g>
</g>
<!-- Node3&#45;&gt;Node4 -->
<g id="edge3" class="edge">
<title>Node3&#45;&gt;Node4</title>
<path fill="none" stroke="midnightblue" d="M308.87,-142.93C296.43,-141.37 283.37,-139.74 271.12,-138.21"/>
<polygon fill="midnightblue" stroke="midnightblue" points="308.79,-146.44 319.15,-144.21 309.66,-139.5 308.79,-146.44"/>
</g>
<!-- Node5 -->
<g id="node5" class="node">
<title>Node5</title>
<g id="a_node5"><a xlink:href="test_8cpp.html#af095a232149097b5605064623a9345ac" target="_top" xlink:title=" ">
<polygon fill="white" stroke="black" points="77,-121.88 77,-140.88 124,-140.88 124,-121.88 77,-121.88"/>
<text text-anchor="middle" x="100.5" y="-128.88" font-family="Helvetica,sans-Serif" font-size="10.00">main2</text>
</a>
</g>
</g>
<!-- Node4&#45;&gt;Node5 -->
<g id="edge4" class="edge">
<title>Node4&#45;&gt;Node5</title>
<path fill="none" stroke="midnightblue" d="M149.93,-131.38C140.73,-131.38 131.81,-131.38 124.2,-131.38"/>
<polygon fill="midnightblue" stroke="midnightblue" points="149.99,-134.88 159.99,-131.38 149.99,-127.88 149.99,-134.88"/>
</g>
<!-- Node6 -->
<g id="node6" class="node">
<title>Node6</title>
<g id="a_node6"><a xlink:href="main_8hpp.html#a0ddf1224851353fc92bfbff6f499fa97" target="_top" xlink:title=" ">
<polygon fill="white" stroke="black" points="0,-121.88 0,-140.88 41,-140.88 41,-121.88 0,-121.88"/>
<text text-anchor="middle" x="20.5" y="-128.88" font-family="Helvetica,sans-Serif" font-size="10.00">main</text>
</a>
</g>
</g>
<!-- Node5&#45;&gt;Node6 -->
<g id="edge5" class="edge">
<title>Node5&#45;&gt;Node6</title>
<path fill="none" stroke="midnightblue" d="M66.66,-131.38C57.96,-131.38 48.84,-131.38 41.1,-131.38"/>
<polygon fill="midnightblue" stroke="midnightblue" points="66.94,-134.88 76.94,-131.38 66.94,-127.88 66.94,-134.88"/>
</g>
<!-- Node8 -->
<g id="node8" class="node">
<title>Node8</title>
<g id="a_node8"><a xlink:href="test__centroid_8hpp.html#a1f3c802afdfa77c5389c557f5284a486" target="_top" xlink:title=" ">
<polygon fill="white" stroke="black" points="307,-102.88 307,-121.88 432,-121.88 432,-102.88 307,-102.88"/>
<text text-anchor="middle" x="369.5" y="-109.88" font-family="Helvetica,sans-Serif" font-size="10.00">test_centroid_decomp</text>
</a>
</g>
</g>
<!-- Node7&#45;&gt;Node8 -->
<g id="edge7" class="edge">
<title>Node7&#45;&gt;Node8</title>
<path fill="none" stroke="midnightblue" d="M457.65,-112.38C449.27,-112.38 440.63,-112.38 432.21,-112.38"/>
<polygon fill="midnightblue" stroke="midnightblue" points="457.73,-115.88 467.73,-112.38 457.73,-108.88 457.73,-115.88"/>
</g>
<!-- Node8&#45;&gt;Node4 -->
<g id="edge8" class="edge">
<title>Node8&#45;&gt;Node4</title>
<path fill="none" stroke="midnightblue" d="M296.74,-121.35C288.23,-122.41 279.65,-123.49 271.43,-124.51"/>
<polygon fill="midnightblue" stroke="midnightblue" points="297.19,-124.82 306.68,-120.11 296.32,-117.87 297.19,-124.82"/>
</g>
<!-- Node9&#45;&gt;Node10 -->
<g id="edge10" class="edge">
<title>Node9&#45;&gt;Node10</title>
<path fill="none" stroke="midnightblue" d="M622.23,-30.57C597.64,-27.41 568.03,-23.61 546.93,-20.9"/>
<polygon fill="midnightblue" stroke="midnightblue" points="622.06,-34.07 632.43,-31.88 622.95,-27.13 622.06,-34.07"/>
</g>
<!-- Node11&#45;&gt;Node7 -->
<g id="edge12" class="edge">
<title>Node11&#45;&gt;Node7</title>
<path fill="none" stroke="midnightblue" d="M620.33,-86.49C599.71,-91.78 575.89,-97.9 556.58,-102.86"/>
<polygon fill="midnightblue" stroke="midnightblue" points="621.34,-89.85 630.15,-83.97 619.6,-83.07 621.34,-89.85"/>
</g>
</g>
</svg>
        <g id="navigator" transform="translate(0 0)" fill="#404254">
                <rect fill="#f2f5e9" fill-opacity="0.5" stroke="#606060" stroke-width=".5" x="0" y="0" width="60" height="60"/>
                <use id="zoomplus" xlink:href="#zoomPlus" x="17" y="9" onmousedown="handleZoom(evt,'in')"/>
                <use id="zoomminus" xlink:href="#zoomMin" x="42" y="9" onmousedown="handleZoom(evt,'out')"/>
                <use id="reset" xlink:href="#resetDef" x="30" y="36" onmousedown="handleReset()"/>
                <g id="arrowUp" xlink:href="#dirArrow" transform="translate(30 24)" onmousedown="handlePan(0,-1)">
                  <use xlink:href="#rim" fill="#404040">
                        <set attributeName="fill" to="#808080" begin="arrowUp.mouseover" end="arrowUp.mouseout"/>
                  </use>
                  <path fill="none" stroke="white" stroke-width="1.5" d="M0,-3.0v7 M-2.5,-0.5L0,-3.0L2.5,-0.5"/>
                </g>
                <g id="arrowRight" xlink:href="#dirArrow" transform="rotate(90) translate(36 -43)" onmousedown="handlePan(1,0)">
                  <use xlink:href="#rim" fill="#404040">
                        <set attributeName="fill" to="#808080" begin="arrowRight.mouseover" end="arrowRight.mouseout"/>
                  </use>
                  <path fill="none" stroke="white" stroke-width="1.5" d="M0,-3.0v7 M-2.5,-0.5L0,-3.0L2.5,-0.5"/>
                </g>
                <g id="arrowDown" xlink:href="#dirArrow" transform="rotate(180) translate(-30 -48)" onmousedown="handlePan(0,1)">
                  <use xlink:href="#rim" fill="#404040">
                        <set attributeName="fill" to="#808080" begin="arrowDown.mouseover" end="arrowDown.mouseout"/>
                  </use>
                  <path fill="none" stroke="white" stroke-width="1.5" d="M0,-3.0v7 M-2.5,-0.5L0,-3.0L2.5,-0.5"/>
                </g>
                <g id="arrowLeft" xlink:href="#dirArrow" transform="rotate(270) translate(-36 17)" onmousedown="handlePan(-1,0)">
                  <use xlink:href="#rim" fill="#404040">
                        <set attributeName="fill" to="#808080" begin="arrowLeft.mouseover" end="arrowLeft.mouseout"/>
                  </use>
                  <path fill="none" stroke="white" stroke-width="1.5" d="M0,-3.0v7 M-2.5,-0.5L0,-3.0L2.5,-0.5"/>
                </g>
        </g>
        <svg viewBox="0 0 15 15" width="100%" height="30px" preserveAspectRatio="xMaxYMin meet">
         <g id="arrow_out" transform="scale(0.3 0.3)">
          <a xlink:href="range_8hpp_a438bd5fc0a79e42a6a2abb632203f925_icgraph_org.svg" target="_base">
           <rect id="button" ry="5" rx="5" y="6" x="6" height="38" width="38"
                fill="#f2f5e9" fill-opacity="0.5" stroke="#606060" stroke-width="1.0"/>
           <path id="arrow"
             d="M 11.500037,31.436501 C 11.940474,20.09759 22.043105,11.32322 32.158766,21.979434 L 37.068811,17.246167 C 37.068811,17.246167 37.088388,32 37.088388,32 L 22.160133,31.978069 C 22.160133,31.978069 26.997745,27.140456 26.997745,27.140456 C 18.528582,18.264221 13.291696,25.230495 11.500037,31.436501 z"
             style="fill:#404040;"/>
          </a>
         </g>
        </svg>
</svg>
