<?xml version="1.0" encoding="UTF-8" standalone="no"?>
<!DOCTYPE svg PUBLIC "-//W3C//DTD SVG 1.1//EN"
 "http://www.w3.org/Graphics/SVG/1.1/DTD/svg11.dtd">
<!-- Generated by graphviz version 2.43.0 (0)
 -->
<!-- Title: up_inv Pages: 1 -->
<svg width="122pt" height="66pt"
 viewBox="0.00 0.00 122.00 66.00" xmlns="http://www.w3.org/2000/svg" xmlns:xlink="http://www.w3.org/1999/xlink">
<g id="graph0" class="graph" transform="scale(1 1) rotate(0) translate(4 62)">
<title>up_inv</title>
<polygon fill="white" stroke="transparent" points="-4,4 -4,-62 118,-62 118,4 -4,4"/>
<!-- Node1 -->
<g id="node1" class="node">
<title>Node1</title>
<g id="a_node1"><a xlink:title=" ">
<polygon fill="#bfbfbf" stroke="black" points="0,-19.5 0,-38.5 49,-38.5 49,-19.5 0,-19.5"/>
<text text-anchor="middle" x="24.5" y="-26.5" font-family="Helvetica,sans-Serif" font-size="10.00">up_inv</text>
</a>
</g>
</g>
<!-- Node2 -->
<g id="node2" class="node">
<title>Node2</title>
<g id="a_node2"><a xlink:href="seg__old_8hpp.html#ae93006ee49e9655fd20f39aaf5743581" target="_top" xlink:title=" ">
<polygon fill="white" stroke="black" points="85,-38.5 85,-57.5 114,-57.5 114,-38.5 85,-38.5"/>
<text text-anchor="middle" x="99.5" y="-45.5" font-family="Helvetica,sans-Serif" font-size="10.00">gl</text>
</a>
</g>
</g>
<!-- Node1&#45;&gt;Node2 -->
<g id="edge1" class="edge">
<title>Node1&#45;&gt;Node2</title>
<path fill="none" stroke="midnightblue" d="M49.4,-35.22C57.71,-37.38 67,-39.8 75.25,-41.95"/>
<polygon fill="midnightblue" stroke="midnightblue" points="74.43,-45.35 84.99,-44.48 76.19,-38.58 74.43,-45.35"/>
</g>
<!-- Node3 -->
<g id="node3" class="node">
<title>Node3</title>
<g id="a_node3"><a xlink:href="seg__old_8hpp.html#a2747683868ad04194c67440ba2aea330" target="_top" xlink:title=" ">
<polygon fill="white" stroke="black" points="85,-0.5 85,-19.5 114,-19.5 114,-0.5 85,-0.5"/>
<text text-anchor="middle" x="99.5" y="-7.5" font-family="Helvetica,sans-Serif" font-size="10.00">gr</text>
</a>
</g>
</g>
<!-- Node1&#45;&gt;Node3 -->
<g id="edge2" class="edge">
<title>Node1&#45;&gt;Node3</title>
<path fill="none" stroke="midnightblue" d="M49.4,-22.78C57.71,-20.62 67,-18.2 75.25,-16.05"/>
<polygon fill="midnightblue" stroke="midnightblue" points="76.19,-19.42 84.99,-13.52 74.43,-12.65 76.19,-19.42"/>
</g>
</g>
</svg>
