<?xml version="1.0" encoding="UTF-8" standalone="no"?>
<!DOCTYPE svg PUBLIC "-//W3C//DTD SVG 1.1//EN"
 "http://www.w3.org/Graphics/SVG/1.1/DTD/svg11.dtd">
<!-- Generated by graphviz version 2.43.0 (0)
 -->
<!-- Title: /home/ram/OmniTemplate/segment_tree.hpp Pages: 1 -->
<svg width="852pt" height="218pt"
 viewBox="0.00 0.00 852.00 218.00" xmlns="http://www.w3.org/2000/svg" xmlns:xlink="http://www.w3.org/1999/xlink">
<g id="graph0" class="graph" transform="scale(1 1) rotate(0) translate(4 214)">
<title>/home/ram/OmniTemplate/segment_tree.hpp</title>
<polygon fill="white" stroke="transparent" points="-4,4 -4,-214 848,-214 848,4 -4,4"/>
<!-- Node1 -->
<g id="node1" class="node">
<title>Node1</title>
<g id="a_node1"><a xlink:title=" ">
<polygon fill="#bfbfbf" stroke="black" points="415.5,-179.5 415.5,-209.5 559.5,-209.5 559.5,-179.5 415.5,-179.5"/>
<text text-anchor="start" x="423.5" y="-197.5" font-family="Helvetica,sans-Serif" font-size="10.00">/home/ram/OmniTemplate</text>
<text text-anchor="middle" x="487.5" y="-186.5" font-family="Helvetica,sans-Serif" font-size="10.00">/segment_tree.hpp</text>
</a>
</g>
</g>
<!-- Node2 -->
<g id="node2" class="node">
<title>Node2</title>
<g id="a_node2"><a xlink:href="core_8hpp.html" target="_top" xlink:title=" ">
<polygon fill="white" stroke="black" points="458,-123.5 458,-142.5 517,-142.5 517,-123.5 458,-123.5"/>
<text text-anchor="middle" x="487.5" y="-130.5" font-family="Helvetica,sans-Serif" font-size="10.00">core.hpp</text>
</a>
</g>
</g>
<!-- Node1&#45;&gt;Node2 -->
<g id="edge1" class="edge">
<title>Node1&#45;&gt;Node2</title>
<path fill="none" stroke="midnightblue" d="M487.5,-179.4C487.5,-171.47 487.5,-161.46 487.5,-152.86"/>
<polygon fill="midnightblue" stroke="midnightblue" points="491,-152.66 487.5,-142.66 484,-152.66 491,-152.66"/>
</g>
<!-- Node3 -->
<g id="node3" class="node">
<title>Node3</title>
<g id="a_node3"><a xlink:title=" ">
<polygon fill="white" stroke="#bfbfbf" points="0,-62 0,-81 83,-81 83,-62 0,-62"/>
<text text-anchor="middle" x="41.5" y="-69" font-family="Helvetica,sans-Serif" font-size="10.00">bits/stdc++.h</text>
</a>
</g>
</g>
<!-- Node2&#45;&gt;Node3 -->
<g id="edge2" class="edge">
<title>Node2&#45;&gt;Node3</title>
<path fill="none" stroke="midnightblue" d="M457.51,-130.26C391.19,-126.06 227.24,-113.64 92.5,-87 87.78,-86.07 82.86,-84.91 78.03,-83.66"/>
<polygon fill="midnightblue" stroke="midnightblue" points="78.87,-80.26 68.3,-81.01 77.02,-87.02 78.87,-80.26"/>
</g>
<!-- Node4 -->
<g id="node4" class="node">
<title>Node4</title>
<g id="a_node4"><a xlink:title=" ">
<polygon fill="white" stroke="#bfbfbf" points="101,-62 101,-81 222,-81 222,-62 101,-62"/>
<text text-anchor="middle" x="161.5" y="-69" font-family="Helvetica,sans-Serif" font-size="10.00">experimental/iterator</text>
</a>
</g>
</g>
<!-- Node2&#45;&gt;Node4 -->
<g id="edge3" class="edge">
<title>Node2&#45;&gt;Node4</title>
<path fill="none" stroke="midnightblue" d="M457.88,-127.09C410.15,-119.12 313.27,-102.65 231.5,-87 225.18,-85.79 218.55,-84.48 211.99,-83.15"/>
<polygon fill="midnightblue" stroke="midnightblue" points="212.3,-79.64 201.81,-81.07 210.9,-86.5 212.3,-79.64"/>
</g>
<!-- Node5 -->
<g id="node5" class="node">
<title>Node5</title>
<g id="a_node5"><a xlink:title=" ">
<polygon fill="white" stroke="#bfbfbf" points="240,-56.5 240,-86.5 357,-86.5 357,-56.5 240,-56.5"/>
<text text-anchor="start" x="248" y="-74.5" font-family="Helvetica,sans-Serif" font-size="10.00">experimental/source</text>
<text text-anchor="middle" x="298.5" y="-63.5" font-family="Helvetica,sans-Serif" font-size="10.00">_location</text>
</a>
</g>
</g>
<!-- Node2&#45;&gt;Node5 -->
<g id="edge4" class="edge">
<title>Node2&#45;&gt;Node5</title>
<path fill="none" stroke="midnightblue" d="M460.42,-123.48C432.43,-114.66 387.98,-100.67 352.72,-89.57"/>
<polygon fill="midnightblue" stroke="midnightblue" points="353.63,-86.19 343.04,-86.52 351.53,-92.86 353.63,-86.19"/>
</g>
<!-- Node6 -->
<g id="node6" class="node">
<title>Node6</title>
<g id="a_node6"><a xlink:href="my__int_8hpp.html" target="_top" xlink:title=" ">
<polygon fill="white" stroke="black" points="375,-62 375,-81 446,-81 446,-62 375,-62"/>
<text text-anchor="middle" x="410.5" y="-69" font-family="Helvetica,sans-Serif" font-size="10.00">my_int.hpp</text>
</a>
</g>
</g>
<!-- Node2&#45;&gt;Node6 -->
<g id="edge5" class="edge">
<title>Node2&#45;&gt;Node6</title>
<path fill="none" stroke="midnightblue" d="M471.57,-123.48C457.54,-114.2 437.73,-99.17 424.35,-87.83"/>
<polygon fill="midnightblue" stroke="midnightblue" points="426.43,-85 416.61,-81.01 421.8,-90.25 426.43,-85"/>
</g>
<!-- Node7 -->
<g id="node7" class="node">
<title>Node7</title>
<g id="a_node7"><a xlink:href="io_8hpp.html" target="_top" xlink:title=" ">
<polygon fill="white" stroke="black" points="464,-62 464,-81 511,-81 511,-62 464,-62"/>
<text text-anchor="middle" x="487.5" y="-69" font-family="Helvetica,sans-Serif" font-size="10.00">io.hpp</text>
</a>
</g>
</g>
<!-- Node2&#45;&gt;Node7 -->
<g id="edge7" class="edge">
<title>Node2&#45;&gt;Node7</title>
<path fill="none" stroke="midnightblue" d="M482.6,-123.48C480.77,-115.08 480.3,-101.98 481.19,-91.16"/>
<polygon fill="midnightblue" stroke="midnightblue" points="484.69,-91.4 482.6,-81.01 477.75,-90.43 484.69,-91.4"/>
</g>
<!-- Node8 -->
<g id="node8" class="node">
<title>Node8</title>
<g id="a_node8"><a xlink:href="operations_8hpp.html" target="_top" xlink:title=" ">
<polygon fill="white" stroke="black" points="529,-62 529,-81 618,-81 618,-62 529,-62"/>
<text text-anchor="middle" x="573.5" y="-69" font-family="Helvetica,sans-Serif" font-size="10.00">operations.hpp</text>
</a>
</g>
</g>
<!-- Node2&#45;&gt;Node8 -->
<g id="edge9" class="edge">
<title>Node2&#45;&gt;Node8</title>
<path fill="none" stroke="midnightblue" d="M499.82,-123.48C513.62,-113.93 536.2,-98.31 552.73,-86.87"/>
<polygon fill="midnightblue" stroke="midnightblue" points="554.97,-89.58 561.2,-81.01 550.99,-83.82 554.97,-89.58"/>
</g>
<!-- Node9 -->
<g id="node9" class="node">
<title>Node9</title>
<g id="a_node9"><a xlink:href="range_8hpp.html" target="_top" xlink:title=" ">
<polygon fill="white" stroke="black" points="623,-0.5 623,-19.5 688,-19.5 688,-0.5 623,-0.5"/>
<text text-anchor="middle" x="655.5" y="-7.5" font-family="Helvetica,sans-Serif" font-size="10.00">range.hpp</text>
</a>
</g>
</g>
<!-- Node2&#45;&gt;Node9 -->
<g id="edge12" class="edge">
<title>Node2&#45;&gt;Node9</title>
<path fill="none" stroke="midnightblue" d="M517.06,-129.05C546.39,-124.69 590.49,-113.86 618.5,-87 634.4,-71.75 641.33,-46.7 646.37,-29.56"/>
<polygon fill="midnightblue" stroke="midnightblue" points="649.84,-30.2 649.49,-19.62 643.16,-28.11 649.84,-30.2"/>
</g>
<!-- Node10 -->
<g id="node10" class="node">
<title>Node10</title>
<g id="a_node10"><a xlink:href="debug_8hpp.html" target="_top" xlink:title=" ">
<polygon fill="white" stroke="black" points="692.5,-62 692.5,-81 760.5,-81 760.5,-62 692.5,-62"/>
<text text-anchor="middle" x="726.5" y="-69" font-family="Helvetica,sans-Serif" font-size="10.00">debug.hpp</text>
</a>
</g>
</g>
<!-- Node2&#45;&gt;Node10 -->
<g id="edge13" class="edge">
<title>Node2&#45;&gt;Node10</title>
<path fill="none" stroke="midnightblue" d="M517.09,-125.63C554.75,-117.38 621.74,-102.24 678.5,-87 682.07,-86.04 685.78,-85 689.49,-83.93"/>
<polygon fill="midnightblue" stroke="midnightblue" points="690.57,-87.26 699.17,-81.08 688.59,-80.55 690.57,-87.26"/>
</g>
<!-- Node11 -->
<g id="node11" class="node">
<title>Node11</title>
<g id="a_node11"><a xlink:href="utility_8hpp.html" target="_top" xlink:title=" ">
<polygon fill="white" stroke="black" points="779,-62 779,-81 844,-81 844,-62 779,-62"/>
<text text-anchor="middle" x="811.5" y="-69" font-family="Helvetica,sans-Serif" font-size="10.00">utility.hpp</text>
</a>
</g>
</g>
<!-- Node2&#45;&gt;Node11 -->
<g id="edge14" class="edge">
<title>Node2&#45;&gt;Node11</title>
<path fill="none" stroke="midnightblue" d="M517.28,-128.34C567.95,-122.34 673.21,-108.86 760.5,-87 763.82,-86.17 767.25,-85.19 770.7,-84.14"/>
<polygon fill="midnightblue" stroke="midnightblue" points="771.92,-87.42 780.39,-81.06 769.8,-80.75 771.92,-87.42"/>
</g>
<!-- Node6&#45;&gt;Node2 -->
<g id="edge6" class="edge">
<title>Node6&#45;&gt;Node2</title>
<path fill="none" stroke="midnightblue" d="M426.41,-81.01C440.43,-90.28 460.24,-105.31 473.63,-116.65"/>
<polygon fill="midnightblue" stroke="midnightblue" points="471.55,-119.49 481.37,-123.48 476.18,-114.24 471.55,-119.49"/>
</g>
<!-- Node7&#45;&gt;Node2 -->
<g id="edge8" class="edge">
<title>Node7&#45;&gt;Node2</title>
<path fill="none" stroke="midnightblue" d="M492.4,-81.01C494.23,-89.4 494.7,-102.5 493.82,-113.32"/>
<polygon fill="midnightblue" stroke="midnightblue" points="490.31,-113.09 492.4,-123.48 497.25,-114.05 490.31,-113.09"/>
</g>
<!-- Node8&#45;&gt;Node9 -->
<g id="edge10" class="edge">
<title>Node8&#45;&gt;Node9</title>
<path fill="none" stroke="midnightblue" d="M585.25,-61.98C598.28,-52.52 619.54,-37.1 635.26,-25.69"/>
<polygon fill="midnightblue" stroke="midnightblue" points="637.73,-28.21 643.77,-19.51 633.62,-22.55 637.73,-28.21"/>
</g>
<!-- Node9&#45;&gt;Node2 -->
<g id="edge11" class="edge">
<title>Node9&#45;&gt;Node2</title>
<path fill="none" stroke="midnightblue" d="M660.01,-19.62C661.93,-35.25 655.89,-68.41 636.5,-87 607.4,-114.9 560.93,-125.5 527.48,-129.53"/>
<polygon fill="midnightblue" stroke="midnightblue" points="526.7,-126.1 517.12,-130.62 527.43,-133.06 526.7,-126.1"/>
</g>
<!-- Node11&#45;&gt;Node2 -->
<g id="edge15" class="edge">
<title>Node11&#45;&gt;Node2</title>
<path fill="none" stroke="midnightblue" d="M797.71,-81.06C791.79,-83.22 784.94,-85.39 778.5,-87 690.44,-109.05 584.08,-122.58 527.36,-128.49"/>
<polygon fill="midnightblue" stroke="midnightblue" points="526.96,-125.02 517.36,-129.51 527.67,-131.98 526.96,-125.02"/>
</g>
</g>
</svg>
