<?xml version="1.0" encoding="UTF-8" standalone="no"?>
<!DOCTYPE svg PUBLIC "-//W3C//DTD SVG 1.1//EN"
 "http://www.w3.org/Graphics/SVG/1.1/DTD/svg11.dtd">
<!-- Generated by graphviz version 2.43.0 (0)
 -->
<!-- Title: operator&lt;&lt; Pages: 1 -->
<svg width="270pt" height="66pt"
 viewBox="0.00 0.00 270.00 66.00" xmlns="http://www.w3.org/2000/svg" xmlns:xlink="http://www.w3.org/1999/xlink">
<g id="graph0" class="graph" transform="scale(1 1) rotate(0) translate(4 62)">
<title>operator&lt;&lt;</title>
<polygon fill="white" stroke="transparent" points="-4,4 -4,-62 266,-62 266,4 -4,4"/>
<!-- Node1 -->
<g id="node1" class="node">
<title>Node1</title>
<g id="a_node1"><a xlink:title=" ">
<polygon fill="#bfbfbf" stroke="black" points="0,-19.5 0,-38.5 74,-38.5 74,-19.5 0,-19.5"/>
<text text-anchor="middle" x="37" y="-26.5" font-family="Helvetica,sans-Serif" font-size="10.00">operator&lt;&lt;</text>
</a>
</g>
</g>
<!-- Node2 -->
<g id="node2" class="node">
<title>Node2</title>
<g id="a_node2"><a xlink:href="structseg.html#a2eeb3a79f56b3825b357682187ae61b9" target="_top" xlink:title=" ">
<polygon fill="white" stroke="black" points="110,-19.5 110,-38.5 160,-38.5 160,-19.5 110,-19.5"/>
<text text-anchor="middle" x="135" y="-26.5" font-family="Helvetica,sans-Serif" font-size="10.00">seg::gt</text>
</a>
</g>
</g>
<!-- Node1&#45;&gt;Node2 -->
<g id="edge1" class="edge">
<title>Node1&#45;&gt;Node2</title>
<path fill="none" stroke="midnightblue" d="M74.02,-29C82.4,-29 91.3,-29 99.61,-29"/>
<polygon fill="midnightblue" stroke="midnightblue" points="99.73,-32.5 109.73,-29 99.73,-25.5 99.73,-32.5"/>
</g>
<!-- Node3 -->
<g id="node3" class="node">
<title>Node3</title>
<g id="a_node3"><a xlink:href="structseg.html#a47c33b5e0170ed5349eb68520ee245c6" target="_top" xlink:title=" ">
<polygon fill="white" stroke="black" points="196,-38.5 196,-57.5 262,-57.5 262,-38.5 196,-38.5"/>
<text text-anchor="middle" x="229" y="-45.5" font-family="Helvetica,sans-Serif" font-size="10.00">seg::down</text>
</a>
</g>
</g>
<!-- Node2&#45;&gt;Node3 -->
<g id="edge2" class="edge">
<title>Node2&#45;&gt;Node3</title>
<path fill="none" stroke="midnightblue" d="M160.17,-33.99C168.06,-35.62 177.07,-37.48 185.88,-39.3"/>
<polygon fill="midnightblue" stroke="midnightblue" points="185.18,-42.73 195.69,-41.33 186.6,-35.88 185.18,-42.73"/>
</g>
<!-- Node4 -->
<g id="node4" class="node">
<title>Node4</title>
<g id="a_node4"><a xlink:href="structseg.html#abe9e9d5eca61fc8414635dd7f6c2cce3" target="_top" xlink:title=" ">
<polygon fill="white" stroke="black" points="202.5,-0.5 202.5,-19.5 255.5,-19.5 255.5,-0.5 202.5,-0.5"/>
<text text-anchor="middle" x="229" y="-7.5" font-family="Helvetica,sans-Serif" font-size="10.00">seg::fix</text>
</a>
</g>
</g>
<!-- Node2&#45;&gt;Node4 -->
<g id="edge3" class="edge">
<title>Node2&#45;&gt;Node4</title>
<path fill="none" stroke="midnightblue" d="M160.17,-24.01C170.02,-21.97 181.6,-19.58 192.37,-17.36"/>
<polygon fill="midnightblue" stroke="midnightblue" points="193.3,-20.74 202.38,-15.29 191.88,-13.89 193.3,-20.74"/>
</g>
</g>
</svg>
