<?xml version="1.0" encoding="UTF-8" standalone="no"?>
<!DOCTYPE svg PUBLIC "-//W3C//DTD SVG 1.1//EN"
 "http://www.w3.org/Graphics/SVG/1.1/DTD/svg11.dtd">
<!-- Generated by graphviz version 2.43.0 (0)
 -->
<!-- Title: Subgraph&lt; Graph, Pred &gt;::iterator Pages: 1 -->
<svg width="139pt" height="163pt"
 viewBox="0.00 0.00 139.00 163.00" xmlns="http://www.w3.org/2000/svg" xmlns:xlink="http://www.w3.org/1999/xlink">
<g id="graph0" class="graph" transform="scale(1 1) rotate(0) translate(4 159)">
<title>Subgraph&lt; Graph, Pred &gt;::iterator</title>
<polygon fill="white" stroke="transparent" points="-4,4 -4,-159 135,-159 135,4 -4,4"/>
<!-- Node1 -->
<g id="node1" class="node">
<title>Node1</title>
<g id="a_node1"><a xlink:title=" ">
<polygon fill="#bfbfbf" stroke="black" points="0,-0.5 0,-30.5 131,-30.5 131,-0.5 0,-0.5"/>
<text text-anchor="start" x="8" y="-18.5" font-family="Helvetica,sans-Serif" font-size="10.00">Subgraph&lt; Graph, Pred</text>
<text text-anchor="middle" x="65.5" y="-7.5" font-family="Helvetica,sans-Serif" font-size="10.00"> &gt;::iterator</text>
</a>
</g>
</g>
<!-- Node2 -->
<g id="node2" class="node">
<title>Node2</title>
<g id="a_node2"><a xlink:href="structit__base.html" target="_top" xlink:title=" ">
<polygon fill="white" stroke="black" points="25.5,-68.5 25.5,-87.5 105.5,-87.5 105.5,-68.5 25.5,-68.5"/>
<text text-anchor="middle" x="65.5" y="-75.5" font-family="Helvetica,sans-Serif" font-size="10.00">it_base&lt; ll &gt;</text>
</a>
</g>
</g>
<!-- Node2&#45;&gt;Node1 -->
<g id="edge1" class="edge">
<title>Node2&#45;&gt;Node1</title>
<path fill="none" stroke="midnightblue" d="M65.5,-58.22C65.5,-49.36 65.5,-38.96 65.5,-30.76"/>
<polygon fill="midnightblue" stroke="midnightblue" points="62,-58.33 65.5,-68.33 69,-58.33 62,-58.33"/>
</g>
<!-- Node3 -->
<g id="node3" class="node">
<title>Node3</title>
<g id="a_node3"><a xlink:href="structit__base.html" target="_top" xlink:title=" ">
<polygon fill="white" stroke="black" points="25.5,-135.5 25.5,-154.5 105.5,-154.5 105.5,-135.5 25.5,-135.5"/>
<text text-anchor="middle" x="65.5" y="-142.5" font-family="Helvetica,sans-Serif" font-size="10.00">it_base&lt; T &gt;</text>
</a>
</g>
</g>
<!-- Node3&#45;&gt;Node2 -->
<g id="edge2" class="edge">
<title>Node3&#45;&gt;Node2</title>
<path fill="none" stroke="orange" stroke-dasharray="5,2" d="M65.5,-125.04C65.5,-112.67 65.5,-97.12 65.5,-87.63"/>
<polygon fill="orange" stroke="orange" points="62,-125.23 65.5,-135.23 69,-125.23 62,-125.23"/>
<text text-anchor="middle" x="81.5" y="-109" font-family="Helvetica,sans-Serif" font-size="10.00"> &lt; ll &gt;</text>
</g>
</g>
</svg>
