<?xml version="1.0" encoding="UTF-8" standalone="no"?>
<!DOCTYPE svg PUBLIC "-//W3C//DTD SVG 1.1//EN"
 "http://www.w3.org/Graphics/SVG/1.1/DTD/svg11.dtd">
<!-- Generated by graphviz version 2.43.0 (0)
 -->
<!-- Title: string_tools::Trie::go Pages: 1 -->
<svg width="392pt" height="57pt"
 viewBox="0.00 0.00 392.00 57.00" xmlns="http://www.w3.org/2000/svg" xmlns:xlink="http://www.w3.org/1999/xlink">
<g id="graph0" class="graph" transform="scale(1 1) rotate(0) translate(4 53)">
<title>string_tools::Trie::go</title>
<polygon fill="white" stroke="transparent" points="-4,4 -4,-53 388,-53 388,4 -4,4"/>
<!-- Node1 -->
<g id="node1" class="node">
<title>Node1</title>
<g id="a_node1"><a xlink:title="Goes to the node for the largest suffix of the current string plus c.">
<polygon fill="#bfbfbf" stroke="black" points="268,-6 268,-25 384,-25 384,-6 268,-6"/>
<text text-anchor="middle" x="326" y="-13" font-family="Helvetica,sans-Serif" font-size="10.00">string_tools::Trie::go</text>
</a>
</g>
</g>
<!-- Node1&#45;&gt;Node1 -->
<g id="edge1" class="edge">
<title>Node1&#45;&gt;Node1</title>
<path fill="none" stroke="midnightblue" d="M352.51,-34.15C351.4,-39.44 342.56,-43.5 326,-43.5 300.76,-43.5 293.47,-34.07 304.11,-25.26"/>
<polygon fill="midnightblue" stroke="midnightblue" points="355.6,-32.52 347.89,-25.26 349.39,-35.74 355.6,-32.52"/>
</g>
<!-- Node2 -->
<g id="node2" class="node">
<title>Node2</title>
<g id="a_node2"><a xlink:href="structstring__tools_1_1Trie.html#ad0189e6ff15f4d305addadb7e011b80b" target="_top" xlink:title="returns the suffix link">
<polygon fill="white" stroke="black" points="134,-0.5 134,-30.5 232,-30.5 232,-0.5 134,-0.5"/>
<text text-anchor="start" x="142" y="-18.5" font-family="Helvetica,sans-Serif" font-size="10.00">string_tools::Trie</text>
<text text-anchor="middle" x="183" y="-7.5" font-family="Helvetica,sans-Serif" font-size="10.00">::link</text>
</a>
</g>
</g>
<!-- Node1&#45;&gt;Node2 -->
<g id="edge2" class="edge">
<title>Node1&#45;&gt;Node2</title>
<path fill="none" stroke="midnightblue" d="M257.37,-8.75C248.9,-8.73 240.37,-8.83 232.28,-9.06"/>
<polygon fill="midnightblue" stroke="midnightblue" points="257.62,-12.26 267.65,-8.86 257.68,-5.26 257.62,-12.26"/>
</g>
<!-- Node2&#45;&gt;Node1 -->
<g id="edge4" class="edge">
<title>Node2&#45;&gt;Node1</title>
<path fill="none" stroke="midnightblue" d="M242.33,-22.16C250.7,-22.28 259.3,-22.28 267.65,-22.14"/>
<polygon fill="midnightblue" stroke="midnightblue" points="242.35,-18.66 232.28,-21.94 242.2,-25.66 242.35,-18.66"/>
</g>
<!-- Node2&#45;&gt;Node2 -->
<g id="edge5" class="edge">
<title>Node2&#45;&gt;Node2</title>
<path fill="none" stroke="midnightblue" d="M206.81,-40.96C203.86,-45.68 195.92,-49 183,-49 161.8,-49 154.02,-40.06 159.65,-30.66"/>
<polygon fill="midnightblue" stroke="midnightblue" points="210.29,-40.49 206.35,-30.66 203.3,-40.8 210.29,-40.49"/>
</g>
<!-- Node3 -->
<g id="node3" class="node">
<title>Node3</title>
<g id="a_node3"><a xlink:href="structstring__tools_1_1Trie.html#ab8f1d2a13b82d8dbaccc886df20f8371" target="_top" xlink:title="Returns the exit link, the next leaf suffix.">
<polygon fill="white" stroke="black" points="0,-0.5 0,-30.5 98,-30.5 98,-0.5 0,-0.5"/>
<text text-anchor="start" x="8" y="-18.5" font-family="Helvetica,sans-Serif" font-size="10.00">string_tools::Trie</text>
<text text-anchor="middle" x="49" y="-7.5" font-family="Helvetica,sans-Serif" font-size="10.00">::exit_link</text>
</a>
</g>
</g>
<!-- Node2&#45;&gt;Node3 -->
<g id="edge3" class="edge">
<title>Node2&#45;&gt;Node3</title>
<path fill="none" stroke="midnightblue" d="M123.71,-15.5C115.19,-15.5 106.5,-15.5 98.21,-15.5"/>
<polygon fill="midnightblue" stroke="midnightblue" points="123.97,-19 133.97,-15.5 123.97,-12 123.97,-19"/>
</g>
</g>
</svg>
