<?xml version="1.0" encoding="UTF-8" standalone="no"?>
<!DOCTYPE svg PUBLIC "-//W3C//DTD SVG 1.1//EN"
 "http://www.w3.org/Graphics/SVG/1.1/DTD/svg11.dtd">
<!-- Generated by graphviz version 2.43.0 (0)
 -->
<!-- Title: treap&lt; Key, Data &gt; Pages: 1 -->
<svg width="145pt" height="97pt"
 viewBox="0.00 0.00 145.00 97.00" xmlns="http://www.w3.org/2000/svg" xmlns:xlink="http://www.w3.org/1999/xlink">
<g id="graph0" class="graph" transform="scale(1 1) rotate(0) translate(4 93)">
<title>treap&lt; Key, Data &gt;</title>
<polygon fill="white" stroke="transparent" points="-4,4 -4,-93 141,-93 141,4 -4,4"/>
<!-- Node1 -->
<g id="node1" class="node">
<title>Node1</title>
<g id="a_node1"><a xlink:title=" ">
<polygon fill="#bfbfbf" stroke="black" points="0,-1.5 0,-20.5 112,-20.5 112,-1.5 0,-1.5"/>
<text text-anchor="middle" x="56" y="-8.5" font-family="Helvetica,sans-Serif" font-size="10.00">treap&lt; Key, Data &gt;</text>
</a>
</g>
</g>
<!-- Node1&#45;&gt;Node1 -->
<g id="edge2" class="edge">
<title>Node1&#45;&gt;Node1</title>
<path fill="none" stroke="#9a32cd" stroke-dasharray="5,2" d="M122.4,-15.67C127.12,-14.61 130,-13.05 130,-11 130,-7.71 122.62,-5.7 112.15,-4.95"/>
<polygon fill="#9a32cd" stroke="#9a32cd" points="121.59,-12.25 112.15,-17.05 122.52,-19.19 121.59,-12.25"/>
<text text-anchor="middle" x="133.5" y="-14" font-family="Helvetica,sans-Serif" font-size="10.00"> l</text>
<text text-anchor="middle" x="133.5" y="-3" font-family="Helvetica,sans-Serif" font-size="10.00">r</text>
</g>
<!-- Node2 -->
<g id="node2" class="node">
<title>Node2</title>
<g id="a_node2"><a xlink:href="structll.html" target="_top" xlink:title=" ">
<polygon fill="white" stroke="black" points="41.5,-69.5 41.5,-88.5 70.5,-88.5 70.5,-69.5 41.5,-69.5"/>
<text text-anchor="middle" x="56" y="-76.5" font-family="Helvetica,sans-Serif" font-size="10.00">ll</text>
</a>
</g>
</g>
<!-- Node2&#45;&gt;Node1 -->
<g id="edge1" class="edge">
<title>Node2&#45;&gt;Node1</title>
<path fill="none" stroke="#9a32cd" stroke-dasharray="5,2" d="M56,-59.04C56,-46.47 56,-30.56 56,-20.84"/>
<polygon fill="#9a32cd" stroke="#9a32cd" points="52.5,-59.37 56,-69.37 59.5,-59.37 52.5,-59.37"/>
<text text-anchor="middle" x="64" y="-43" font-family="Helvetica,sans-Serif" font-size="10.00"> pri</text>
</g>
</g>
</svg>
