<?xml version="1.0" encoding="UTF-8" standalone="no"?>
<!DOCTYPE svg PUBLIC "-//W3C//DTD SVG 1.1//EN"
 "http://www.w3.org/Graphics/SVG/1.1/DTD/svg11.dtd">
<!-- Generated by graphviz version 2.43.0 (0)
 -->
<!-- Title: splay_tree::SplayTree::erase Pages: 1 -->
<svg width="934pt" height="99pt"
 viewBox="0.00 0.00 934.00 99.00" xmlns="http://www.w3.org/2000/svg" xmlns:xlink="http://www.w3.org/1999/xlink">
<g id="graph0" class="graph" transform="scale(1 1) rotate(0) translate(4 95)">
<title>splay_tree::SplayTree::erase</title>
<polygon fill="white" stroke="transparent" points="-4,4 -4,-95 930,-95 930,4 -4,4"/>
<!-- Node1 -->
<g id="node1" class="node">
<title>Node1</title>
<g id="a_node1"><a xlink:title=" ">
<polygon fill="#bfbfbf" stroke="black" points="0,-0.5 0,-30.5 121,-30.5 121,-0.5 0,-0.5"/>
<text text-anchor="start" x="8" y="-18.5" font-family="Helvetica,sans-Serif" font-size="10.00">splay_tree::SplayTree</text>
<text text-anchor="middle" x="60.5" y="-7.5" font-family="Helvetica,sans-Serif" font-size="10.00">::erase</text>
</a>
</g>
</g>
<!-- Node2 -->
<g id="node2" class="node">
<title>Node2</title>
<g id="a_node2"><a xlink:href="structsplay__tree_1_1SplayTree.html#a21a513a7ac2715f280d2a89b3890722a" target="_top" xlink:title=" ">
<polygon fill="white" stroke="black" points="157,-22.5 157,-52.5 278,-52.5 278,-22.5 157,-22.5"/>
<text text-anchor="start" x="165" y="-40.5" font-family="Helvetica,sans-Serif" font-size="10.00">splay_tree::SplayTree</text>
<text text-anchor="middle" x="217.5" y="-29.5" font-family="Helvetica,sans-Serif" font-size="10.00">::join</text>
</a>
</g>
</g>
<!-- Node1&#45;&gt;Node2 -->
<g id="edge1" class="edge">
<title>Node1&#45;&gt;Node2</title>
<path fill="none" stroke="midnightblue" d="M121.43,-24.01C129.82,-25.2 138.49,-26.43 147.04,-27.64"/>
<polygon fill="midnightblue" stroke="midnightblue" points="146.6,-31.11 156.99,-29.05 147.58,-24.18 146.6,-31.11"/>
</g>
<!-- Node3 -->
<g id="node3" class="node">
<title>Node3</title>
<g id="a_node3"><a xlink:href="structsplay__tree_1_1SplayNode.html#a34a54d6c33025f4be7b37065e584b8c5" target="_top" xlink:title=" ">
<polygon fill="white" stroke="black" points="314,-0.5 314,-30.5 440,-30.5 440,-0.5 314,-0.5"/>
<text text-anchor="start" x="322" y="-18.5" font-family="Helvetica,sans-Serif" font-size="10.00">splay_tree::SplayNode</text>
<text text-anchor="middle" x="377" y="-7.5" font-family="Helvetica,sans-Serif" font-size="10.00">::splay</text>
</a>
</g>
</g>
<!-- Node1&#45;&gt;Node3 -->
<g id="edge8" class="edge">
<title>Node1&#45;&gt;Node3</title>
<path fill="none" stroke="midnightblue" d="M121.1,-13.34C132.99,-12.99 145.39,-12.68 157,-12.5 210.77,-11.66 224.23,-11.68 278,-12.5 286.32,-12.63 295.03,-12.82 303.69,-13.04"/>
<polygon fill="midnightblue" stroke="midnightblue" points="303.7,-16.54 313.8,-13.31 303.89,-9.54 303.7,-16.54"/>
</g>
<!-- Node2&#45;&gt;Node3 -->
<g id="edge2" class="edge">
<title>Node2&#45;&gt;Node3</title>
<path fill="none" stroke="midnightblue" d="M278.04,-29.18C286.43,-28.01 295.13,-26.8 303.73,-25.59"/>
<polygon fill="midnightblue" stroke="midnightblue" points="304.33,-29.05 313.75,-24.2 303.36,-22.11 304.33,-29.05"/>
</g>
<!-- Node4 -->
<g id="node4" class="node">
<title>Node4</title>
<g id="a_node4"><a xlink:href="structsplay__tree_1_1SplayNode.html#a099b6b1b7632cb57ee28bc474d86343e" target="_top" xlink:title=" ">
<polygon fill="white" stroke="black" points="476,-22.5 476,-52.5 602,-52.5 602,-22.5 476,-22.5"/>
<text text-anchor="start" x="484" y="-40.5" font-family="Helvetica,sans-Serif" font-size="10.00">splay_tree::SplayNode</text>
<text text-anchor="middle" x="539" y="-29.5" font-family="Helvetica,sans-Serif" font-size="10.00">::rotate</text>
</a>
</g>
</g>
<!-- Node3&#45;&gt;Node4 -->
<g id="edge3" class="edge">
<title>Node3&#45;&gt;Node4</title>
<path fill="none" stroke="midnightblue" d="M440.32,-24.07C448.71,-25.22 457.37,-26.41 465.91,-27.59"/>
<polygon fill="midnightblue" stroke="midnightblue" points="465.47,-31.06 475.85,-28.95 466.42,-24.12 465.47,-31.06"/>
</g>
<!-- Node6 -->
<g id="node6" class="node">
<title>Node6</title>
<g id="a_node6"><a xlink:href="structsplay__tree_1_1SplayNode.html#a73de7d8fe94fc66a6a43427751e8a546" target="_top" xlink:title=" ">
<polygon fill="white" stroke="black" points="800,-16.5 800,-46.5 926,-46.5 926,-16.5 800,-16.5"/>
<text text-anchor="start" x="808" y="-34.5" font-family="Helvetica,sans-Serif" font-size="10.00">splay_tree::SplayNode</text>
<text text-anchor="middle" x="863" y="-23.5" font-family="Helvetica,sans-Serif" font-size="10.00">::side</text>
</a>
</g>
</g>
<!-- Node3&#45;&gt;Node6 -->
<g id="edge7" class="edge">
<title>Node3&#45;&gt;Node6</title>
<path fill="none" stroke="midnightblue" d="M440.2,-13.31C452.09,-12.97 464.43,-12.68 476,-12.5 531.99,-11.64 546.04,-10.46 602,-12.5 665.5,-14.82 737.54,-20.31 789.67,-24.79"/>
<polygon fill="midnightblue" stroke="midnightblue" points="789.55,-28.3 799.82,-25.68 790.16,-21.32 789.55,-28.3"/>
</g>
<!-- Node5 -->
<g id="node5" class="node">
<title>Node5</title>
<g id="a_node5"><a xlink:href="structsplay__tree_1_1SplayNode.html#a510653918c7b8181c888bbb608a9e6ee" target="_top" xlink:title=" ">
<polygon fill="white" stroke="black" points="638,-60.5 638,-90.5 764,-90.5 764,-60.5 638,-60.5"/>
<text text-anchor="start" x="646" y="-78.5" font-family="Helvetica,sans-Serif" font-size="10.00">splay_tree::SplayNode</text>
<text text-anchor="middle" x="701" y="-67.5" font-family="Helvetica,sans-Serif" font-size="10.00">::attach</text>
</a>
</g>
</g>
<!-- Node4&#45;&gt;Node5 -->
<g id="edge4" class="edge">
<title>Node4&#45;&gt;Node5</title>
<path fill="none" stroke="midnightblue" d="M602.32,-52.3C610.71,-54.29 619.37,-56.35 627.91,-58.38"/>
<polygon fill="midnightblue" stroke="midnightblue" points="627.31,-61.83 637.85,-60.74 628.93,-55.02 627.31,-61.83"/>
</g>
<!-- Node4&#45;&gt;Node6 -->
<g id="edge6" class="edge">
<title>Node4&#45;&gt;Node6</title>
<path fill="none" stroke="midnightblue" d="M602.08,-36.34C655.68,-35.34 733.14,-33.9 789.55,-32.85"/>
<polygon fill="midnightblue" stroke="midnightblue" points="789.9,-36.34 799.83,-32.66 789.77,-29.35 789.9,-36.34"/>
</g>
<!-- Node5&#45;&gt;Node6 -->
<g id="edge5" class="edge">
<title>Node5&#45;&gt;Node6</title>
<path fill="none" stroke="midnightblue" d="M756.62,-60.48C769.8,-56.85 784.01,-52.95 797.6,-49.21"/>
<polygon fill="midnightblue" stroke="midnightblue" points="798.65,-52.55 807.36,-46.53 796.79,-45.8 798.65,-52.55"/>
</g>
</g>
</svg>
