<?xml version="1.0" encoding="UTF-8" standalone="no"?>
<!DOCTYPE svg PUBLIC "-//W3C//DTD SVG 1.1//EN"
 "http://www.w3.org/Graphics/SVG/1.1/DTD/svg11.dtd">
<!-- Generated by graphviz version 2.43.0 (0)
 -->
<!-- Title: splay_tree::SplayNode::rotate Pages: 1 -->
<!--zoomable 290 -->
<svg id="main" version="1.1" xmlns="http://www.w3.org/2000/svg" xmlns:xlink="http://www.w3.org/1999/xlink" xml:space="preserve" onload="init(evt)">
<style type="text/css"><![CDATA[
.edge:hover path { stroke: red; }
.edge:hover polygon { stroke: red; fill: red; }
]]></style>
<script type="text/javascript"><![CDATA[
var edges = document.getElementsByTagName('g');
if (edges && edges.length) {
  for (var i=0;i<edges.length;i++) {
    if (edges[i].id.substr(0,4)=='edge') {
      edges[i].setAttribute('class','edge');
    }
  }
}
]]></script>
        <defs>
                <circle id="rim" cx="0" cy="0" r="7"/>
                <circle id="rim2" cx="0" cy="0" r="3.5"/>
                <g id="zoomPlus">
                        <use xlink:href="#rim" fill="#404040">
                                <set attributeName="fill" to="#808080" begin="zoomplus.mouseover" end="zoomplus.mouseout"/>
                        </use>
                        <path d="M-4,0h8M0,-4v8" fill="none" stroke="white" stroke-width="1.5" pointer-events="none"/>
                </g>
                <g id="zoomMin">
                        <use xlink:href="#rim" fill="#404040">
                                <set attributeName="fill" to="#808080" begin="zoomminus.mouseover" end="zoomminus.mouseout"/>
                        </use>
                        <path d="M-4,0h8" fill="none" stroke="white" stroke-width="1.5" pointer-events="none"/>
                </g>
                <g id="dirArrow">
                        <path fill="none" stroke="white" stroke-width="1.5" d="M0,-3.0v7 M-2.5,-0.5L0,-3.0L2.5,-0.5"/>
                </g>
               <g id="resetDef">
                       <use xlink:href="#rim2" fill="#404040">
                               <set attributeName="fill" to="#808080" begin="reset.mouseover" end="reset.mouseout"/>
                       </use>
               </g>
        </defs>

<script type="text/javascript">
var viewWidth = 1189;
var viewHeight = 290;
var sectionId = 'dynsection-5';
</script>
<script xlink:href="svgpan.js"/>
<svg id="graph" class="graph">
<g id="viewport">
<title>splay_tree::SplayNode::rotate</title>
<polygon fill="white" stroke="transparent" points="-4,4 -4,-285.5 1185,-285.5 1185,4 -4,4"/>
<!-- Node1 -->
<g id="node1" class="node">
<title>Node1</title>
<g id="a_node1"><a xlink:title=" ">
<polygon fill="#bfbfbf" stroke="black" points="1055,-98.5 1055,-128.5 1181,-128.5 1181,-98.5 1055,-98.5"/>
<text text-anchor="start" x="1063" y="-116.5" font-family="Helvetica,sans-Serif" font-size="10.00">splay_tree::SplayNode</text>
<text text-anchor="middle" x="1118" y="-105.5" font-family="Helvetica,sans-Serif" font-size="10.00">::rotate</text>
</a>
</g>
</g>
<!-- Node2 -->
<g id="node2" class="node">
<title>Node2</title>
<g id="a_node2"><a xlink:href="structsplay__tree_1_1SplayNode.html#a34a54d6c33025f4be7b37065e584b8c5" target="_top" xlink:title=" ">
<polygon fill="white" stroke="black" points="893,-98.5 893,-128.5 1019,-128.5 1019,-98.5 893,-98.5"/>
<text text-anchor="start" x="901" y="-116.5" font-family="Helvetica,sans-Serif" font-size="10.00">splay_tree::SplayNode</text>
<text text-anchor="middle" x="956" y="-105.5" font-family="Helvetica,sans-Serif" font-size="10.00">::splay</text>
</a>
</g>
</g>
<!-- Node1&#45;&gt;Node2 -->
<g id="edge1" class="edge">
<title>Node1&#45;&gt;Node2</title>
<path fill="none" stroke="midnightblue" d="M1044.45,-113.5C1036,-113.5 1027.44,-113.5 1019.15,-113.5"/>
<polygon fill="midnightblue" stroke="midnightblue" points="1044.68,-117 1054.68,-113.5 1044.68,-110 1044.68,-117"/>
</g>
<!-- Node3 -->
<g id="node3" class="node">
<title>Node3</title>
<g id="a_node3"><a xlink:href="link__cut_8hpp.html#a6d130eaad5cd2a8cec8a77c0932abb29" target="_top" xlink:title=" ">
<polygon fill="white" stroke="black" points="769,-186 769,-205 819,-205 819,-186 769,-186"/>
<text text-anchor="middle" x="794" y="-193" font-family="Helvetica,sans-Serif" font-size="10.00">access</text>
</a>
</g>
</g>
<!-- Node2&#45;&gt;Node3 -->
<g id="edge2" class="edge">
<title>Node2&#45;&gt;Node3</title>
<path fill="none" stroke="midnightblue" d="M923.35,-134.04C904.51,-145.81 879.88,-160.4 857,-171.5 844.85,-177.4 830.86,-182.92 819.24,-187.17"/>
<polygon fill="midnightblue" stroke="midnightblue" points="925.25,-136.98 931.84,-128.69 921.51,-131.06 925.25,-136.98"/>
</g>
<!-- Node12 -->
<g id="node12" class="node">
<title>Node12</title>
<g id="a_node12"><a xlink:href="structsplay__tree_1_1SplayTree.html#a967e320e3d33cad8b0a9c30cd51ed924" target="_top" xlink:title=" ">
<polygon fill="white" stroke="black" points="574,-98.5 574,-128.5 695,-128.5 695,-98.5 574,-98.5"/>
<text text-anchor="start" x="582" y="-116.5" font-family="Helvetica,sans-Serif" font-size="10.00">splay_tree::SplayTree</text>
<text text-anchor="middle" x="634.5" y="-105.5" font-family="Helvetica,sans-Serif" font-size="10.00">::erase</text>
</a>
</g>
</g>
<!-- Node2&#45;&gt;Node12 -->
<g id="edge15" class="edge">
<title>Node2&#45;&gt;Node12</title>
<path fill="none" stroke="midnightblue" d="M893.6,-130.92C881.56,-133.66 868.96,-136.06 857,-137.5 801.4,-144.21 786.58,-144.38 731,-137.5 716.07,-135.65 700.12,-132.24 685.61,-128.56"/>
<polygon fill="midnightblue" stroke="midnightblue" points="894.63,-134.27 903.55,-128.56 893.01,-127.46 894.63,-134.27"/>
</g>
<!-- Node14 -->
<g id="node14" class="node">
<title>Node14</title>
<g id="a_node14"><a xlink:href="structsplay__tree_1_1SplayTree.html#a80ab90fbd7be1405ae05399b0fc2f2f1" target="_top" xlink:title=" ">
<polygon fill="white" stroke="black" points="733.5,-49.5 733.5,-79.5 854.5,-79.5 854.5,-49.5 733.5,-49.5"/>
<text text-anchor="start" x="741.5" y="-67.5" font-family="Helvetica,sans-Serif" font-size="10.00">splay_tree::SplayTree</text>
<text text-anchor="middle" x="794" y="-56.5" font-family="Helvetica,sans-Serif" font-size="10.00">::insert</text>
</a>
</g>
</g>
<!-- Node2&#45;&gt;Node14 -->
<g id="edge18" class="edge">
<title>Node2&#45;&gt;Node14</title>
<path fill="none" stroke="midnightblue" d="M895.86,-95.39C878.85,-90.18 860.48,-84.55 844.15,-79.55"/>
<polygon fill="midnightblue" stroke="midnightblue" points="895.1,-98.82 905.69,-98.4 897.15,-92.12 895.1,-98.82"/>
</g>
<!-- Node16 -->
<g id="node16" class="node">
<title>Node16</title>
<g id="a_node16"><a xlink:href="structsplay__tree_1_1SplayTree.html#a21a513a7ac2715f280d2a89b3890722a" target="_top" xlink:title=" ">
<polygon fill="white" stroke="black" points="733.5,-98.5 733.5,-128.5 854.5,-128.5 854.5,-98.5 733.5,-98.5"/>
<text text-anchor="start" x="741.5" y="-116.5" font-family="Helvetica,sans-Serif" font-size="10.00">splay_tree::SplayTree</text>
<text text-anchor="middle" x="794" y="-105.5" font-family="Helvetica,sans-Serif" font-size="10.00">::join</text>
</a>
</g>
</g>
<!-- Node2&#45;&gt;Node16 -->
<g id="edge21" class="edge">
<title>Node2&#45;&gt;Node16</title>
<path fill="none" stroke="midnightblue" d="M882.58,-113.5C873.19,-113.5 863.67,-113.5 854.53,-113.5"/>
<polygon fill="midnightblue" stroke="midnightblue" points="882.68,-117 892.68,-113.5 882.68,-110 882.68,-117"/>
</g>
<!-- Node17 -->
<g id="node17" class="node">
<title>Node17</title>
<g id="a_node17"><a xlink:href="structsplay__tree_1_1SplayNode.html#a82d47b54b62b9e59f594af8db601fc05" target="_top" xlink:title=" ">
<polygon fill="white" stroke="black" points="731,-0.5 731,-30.5 857,-30.5 857,-0.5 731,-0.5"/>
<text text-anchor="start" x="739" y="-18.5" font-family="Helvetica,sans-Serif" font-size="10.00">splay_tree::SplayNode</text>
<text text-anchor="middle" x="794" y="-7.5" font-family="Helvetica,sans-Serif" font-size="10.00">::split</text>
</a>
</g>
</g>
<!-- Node2&#45;&gt;Node17 -->
<g id="edge23" class="edge">
<title>Node2&#45;&gt;Node17</title>
<path fill="none" stroke="midnightblue" d="M930.34,-91.81C911.29,-75.83 883.73,-54.38 857,-39.5 851.15,-36.24 844.77,-33.23 838.4,-30.52"/>
<polygon fill="midnightblue" stroke="midnightblue" points="928.08,-94.48 937.96,-98.29 932.61,-89.14 928.08,-94.48"/>
</g>
<!-- Node4 -->
<g id="node4" class="node">
<title>Node4</title>
<g id="a_node4"><a xlink:href="link__cut_8hpp.html#aee90268d7b5985314517951d6e69543c" target="_top" xlink:title=" ">
<polygon fill="white" stroke="black" points="447.5,-262 447.5,-281 479.5,-281 479.5,-262 447.5,-262"/>
<text text-anchor="middle" x="463.5" y="-269" font-family="Helvetica,sans-Serif" font-size="10.00">cut</text>
</a>
</g>
</g>
<!-- Node3&#45;&gt;Node4 -->
<g id="edge3" class="edge">
<title>Node3&#45;&gt;Node4</title>
<path fill="none" stroke="midnightblue" d="M772.69,-210.97C753.71,-224.5 724.02,-243.38 695,-252.5 617.05,-277 517.37,-274.56 479.77,-272.52"/>
<polygon fill="midnightblue" stroke="midnightblue" points="774.85,-213.73 780.86,-205 770.72,-208.07 774.85,-213.73"/>
</g>
<!-- Node9 -->
<g id="node9" class="node">
<title>Node9</title>
<g id="a_node9"><a xlink:href="link__cut_8hpp.html#af2023ad828dc7b552bfb5c19b197e8a8" target="_top" xlink:title=" ">
<polygon fill="white" stroke="black" points="604.5,-224 604.5,-243 664.5,-243 664.5,-224 604.5,-224"/>
<text text-anchor="middle" x="634.5" y="-231" font-family="Helvetica,sans-Serif" font-size="10.00">find_root</text>
</a>
</g>
</g>
<!-- Node3&#45;&gt;Node9 -->
<g id="edge8" class="edge">
<title>Node3&#45;&gt;Node9</title>
<path fill="none" stroke="midnightblue" d="M758.93,-203.72C730.8,-210.51 691.29,-220.04 664.61,-226.48"/>
<polygon fill="midnightblue" stroke="midnightblue" points="759.84,-207.1 768.74,-201.35 758.19,-200.3 759.84,-207.1"/>
</g>
<!-- Node10 -->
<g id="node10" class="node">
<title>Node10</title>
<g id="a_node10"><a xlink:href="link__cut_8hpp.html#a9cc2d4090d8e477ad393975565bb9cc4" target="_top" xlink:title=" ">
<polygon fill="white" stroke="black" points="448,-186 448,-205 479,-205 479,-186 448,-186"/>
<text text-anchor="middle" x="463.5" y="-193" font-family="Helvetica,sans-Serif" font-size="10.00">lca</text>
</a>
</g>
</g>
<!-- Node3&#45;&gt;Node10 -->
<g id="edge12" class="edge">
<title>Node3&#45;&gt;Node10</title>
<path fill="none" stroke="midnightblue" d="M758.67,-195.5C687.84,-195.5 528.06,-195.5 479.06,-195.5"/>
<polygon fill="midnightblue" stroke="midnightblue" points="758.84,-199 768.84,-195.5 758.84,-192 758.84,-199"/>
</g>
<!-- Node11 -->
<g id="node11" class="node">
<title>Node11</title>
<g id="a_node11"><a xlink:href="link__cut_8hpp.html#a6f35606505d7f40059acd4d66875d81d" target="_top" xlink:title=" ">
<polygon fill="white" stroke="black" points="446,-148 446,-167 481,-167 481,-148 446,-148"/>
<text text-anchor="middle" x="463.5" y="-155" font-family="Helvetica,sans-Serif" font-size="10.00">link</text>
</a>
</g>
</g>
<!-- Node3&#45;&gt;Node11 -->
<g id="edge13" class="edge">
<title>Node3&#45;&gt;Node11</title>
<path fill="none" stroke="midnightblue" d="M758.82,-191.55C689.1,-183.48 532.72,-165.39 481.27,-159.44"/>
<polygon fill="midnightblue" stroke="midnightblue" points="758.51,-195.03 768.84,-192.71 759.31,-188.08 758.51,-195.03"/>
</g>
<!-- Node5 -->
<g id="node5" class="node">
<title>Node5</title>
<g id="a_node5"><a xlink:href="link__cut_8hpp.html#a343a0ee0a29d19210e328e8f6bc5dfd3" target="_top" xlink:title=" ">
<polygon fill="white" stroke="black" points="249,-186 249,-205 353,-205 353,-186 249,-186"/>
<text text-anchor="middle" x="301" y="-193" font-family="Helvetica,sans-Serif" font-size="10.00">test_link_cut_tree</text>
</a>
</g>
</g>
<!-- Node4&#45;&gt;Node5 -->
<g id="edge4" class="edge">
<title>Node4&#45;&gt;Node5</title>
<path fill="none" stroke="midnightblue" d="M437.73,-264.91C423.23,-260.69 404.73,-254.66 389,-247.5 361.93,-235.18 332.69,-216.46 315.94,-205.17"/>
<polygon fill="midnightblue" stroke="midnightblue" points="436.92,-268.32 447.49,-267.66 438.81,-261.58 436.92,-268.32"/>
</g>
<!-- Node6 -->
<g id="node6" class="node">
<title>Node6</title>
<g id="a_node6"><a xlink:href="test_8cpp.html#aa1c715cac916839a95e25b65b4071c4a" target="_top" xlink:title=" ">
<polygon fill="white" stroke="black" points="160,-145 160,-164 213,-164 213,-145 160,-145"/>
<text text-anchor="middle" x="186.5" y="-152" font-family="Helvetica,sans-Serif" font-size="10.00">test_all</text>
</a>
</g>
</g>
<!-- Node5&#45;&gt;Node6 -->
<g id="edge5" class="edge">
<title>Node5&#45;&gt;Node6</title>
<path fill="none" stroke="midnightblue" d="M264.46,-182.55C247.78,-176.47 228.27,-169.36 213.06,-163.82"/>
<polygon fill="midnightblue" stroke="midnightblue" points="263.31,-185.85 273.91,-185.99 265.71,-179.28 263.31,-185.85"/>
</g>
<!-- Node7 -->
<g id="node7" class="node">
<title>Node7</title>
<g id="a_node7"><a xlink:href="test_8cpp.html#af095a232149097b5605064623a9345ac" target="_top" xlink:title=" ">
<polygon fill="white" stroke="black" points="77,-145 77,-164 124,-164 124,-145 77,-145"/>
<text text-anchor="middle" x="100.5" y="-152" font-family="Helvetica,sans-Serif" font-size="10.00">main2</text>
</a>
</g>
</g>
<!-- Node6&#45;&gt;Node7 -->
<g id="edge6" class="edge">
<title>Node6&#45;&gt;Node7</title>
<path fill="none" stroke="midnightblue" d="M149.59,-154.5C140.96,-154.5 131.99,-154.5 124.16,-154.5"/>
<polygon fill="midnightblue" stroke="midnightblue" points="149.84,-158 159.84,-154.5 149.84,-151 149.84,-158"/>
</g>
<!-- Node8 -->
<g id="node8" class="node">
<title>Node8</title>
<g id="a_node8"><a xlink:href="main_8hpp.html#a0ddf1224851353fc92bfbff6f499fa97" target="_top" xlink:title=" ">
<polygon fill="white" stroke="black" points="0,-145 0,-164 41,-164 41,-145 0,-145"/>
<text text-anchor="middle" x="20.5" y="-152" font-family="Helvetica,sans-Serif" font-size="10.00">main</text>
</a>
</g>
</g>
<!-- Node7&#45;&gt;Node8 -->
<g id="edge7" class="edge">
<title>Node7&#45;&gt;Node8</title>
<path fill="none" stroke="midnightblue" d="M66.66,-154.5C57.96,-154.5 48.84,-154.5 41.1,-154.5"/>
<polygon fill="midnightblue" stroke="midnightblue" points="66.94,-158 76.94,-154.5 66.94,-151 66.94,-158"/>
</g>
<!-- Node9&#45;&gt;Node5 -->
<g id="edge11" class="edge">
<title>Node9&#45;&gt;Node5</title>
<path fill="none" stroke="midnightblue" d="M594.32,-232.12C545.88,-230.02 461.01,-225.11 389,-214.5 372.94,-212.13 355.42,-208.51 340.34,-205.06"/>
<polygon fill="midnightblue" stroke="midnightblue" points="594.24,-235.61 604.37,-232.53 594.53,-228.62 594.24,-235.61"/>
</g>
<!-- Node9&#45;&gt;Node10 -->
<g id="edge9" class="edge">
<title>Node9&#45;&gt;Node10</title>
<path fill="none" stroke="midnightblue" d="M594.55,-224.74C557.77,-216.47 504.58,-204.51 479.14,-198.79"/>
<polygon fill="midnightblue" stroke="midnightblue" points="593.92,-228.19 604.45,-226.97 595.46,-221.36 593.92,-228.19"/>
</g>
<!-- Node10&#45;&gt;Node5 -->
<g id="edge10" class="edge">
<title>Node10&#45;&gt;Node5</title>
<path fill="none" stroke="midnightblue" d="M437.95,-195.5C415.5,-195.5 381.58,-195.5 353.24,-195.5"/>
<polygon fill="midnightblue" stroke="midnightblue" points="437.97,-199 447.97,-195.5 437.97,-192 437.97,-199"/>
</g>
<!-- Node11&#45;&gt;Node5 -->
<g id="edge14" class="edge">
<title>Node11&#45;&gt;Node5</title>
<path fill="none" stroke="midnightblue" d="M435.88,-163.8C410.37,-169.84 371.52,-179.04 342.24,-185.97"/>
<polygon fill="midnightblue" stroke="midnightblue" points="437,-167.13 445.93,-161.42 435.39,-160.32 437,-167.13"/>
</g>
<!-- Node13 -->
<g id="node13" class="node">
<title>Node13</title>
<g id="a_node13"><a xlink:href="namespacesplay__tree.html#a3a9f2936a5b68efebc1499fa476ac89f" target="_top" xlink:title=" ">
<polygon fill="white" stroke="black" points="389,-104 389,-123 538,-123 538,-104 389,-104"/>
<text text-anchor="middle" x="463.5" y="-111" font-family="Helvetica,sans-Serif" font-size="10.00">splay_tree::test_splay_tree</text>
</a>
</g>
</g>
<!-- Node12&#45;&gt;Node13 -->
<g id="edge16" class="edge">
<title>Node12&#45;&gt;Node13</title>
<path fill="none" stroke="midnightblue" d="M563.71,-113.5C555.25,-113.5 546.58,-113.5 538.06,-113.5"/>
<polygon fill="midnightblue" stroke="midnightblue" points="563.92,-117 573.92,-113.5 563.92,-110 563.92,-117"/>
</g>
<!-- Node13&#45;&gt;Node6 -->
<g id="edge17" class="edge">
<title>Node13&#45;&gt;Node6</title>
<path fill="none" stroke="midnightblue" d="M388.81,-124.49C330.55,-133.17 252.65,-144.79 213,-150.7"/>
<polygon fill="midnightblue" stroke="midnightblue" points="389.34,-127.95 398.72,-123.01 388.31,-121.02 389.34,-127.95"/>
</g>
<!-- Node14&#45;&gt;Node13 -->
<g id="edge20" class="edge">
<title>Node14&#45;&gt;Node13</title>
<path fill="none" stroke="midnightblue" d="M723.14,-70.09C679.99,-74.05 623.58,-80.15 574,-88.5 549.58,-92.61 522.44,-98.8 501.29,-103.99"/>
<polygon fill="midnightblue" stroke="midnightblue" points="723.61,-73.56 733.26,-69.17 722.98,-66.59 723.61,-73.56"/>
</g>
<!-- Node15 -->
<g id="node15" class="node">
<title>Node15</title>
<g id="a_node15"><a xlink:href="structsplay__tree_1_1SplayTree.html#a2bf075a9e6a46e3f9b61e7b00b546707" target="_top" xlink:title=" ">
<polygon fill="white" stroke="black" points="574,-10.5 574,-40.5 695,-40.5 695,-10.5 574,-10.5"/>
<text text-anchor="start" x="582" y="-28.5" font-family="Helvetica,sans-Serif" font-size="10.00">splay_tree::SplayTree</text>
<text text-anchor="middle" x="634.5" y="-17.5" font-family="Helvetica,sans-Serif" font-size="10.00">::insert</text>
</a>
</g>
</g>
<!-- Node14&#45;&gt;Node15 -->
<g id="edge19" class="edge">
<title>Node14&#45;&gt;Node15</title>
<path fill="none" stroke="midnightblue" d="M723.64,-47.33C714.13,-44.97 704.44,-42.57 695.13,-40.27"/>
<polygon fill="midnightblue" stroke="midnightblue" points="722.91,-50.75 733.46,-49.76 724.59,-43.95 722.91,-50.75"/>
</g>
<!-- Node16&#45;&gt;Node12 -->
<g id="edge22" class="edge">
<title>Node16&#45;&gt;Node12</title>
<path fill="none" stroke="midnightblue" d="M723.34,-113.5C713.93,-113.5 704.34,-113.5 695.13,-113.5"/>
<polygon fill="midnightblue" stroke="midnightblue" points="723.46,-117 733.46,-113.5 723.46,-110 723.46,-117"/>
</g>
</g>
</svg>
        <g id="navigator" transform="translate(0 0)" fill="#404254">
                <rect fill="#f2f5e9" fill-opacity="0.5" stroke="#606060" stroke-width=".5" x="0" y="0" width="60" height="60"/>
                <use id="zoomplus" xlink:href="#zoomPlus" x="17" y="9" onmousedown="handleZoom(evt,'in')"/>
                <use id="zoomminus" xlink:href="#zoomMin" x="42" y="9" onmousedown="handleZoom(evt,'out')"/>
                <use id="reset" xlink:href="#resetDef" x="30" y="36" onmousedown="handleReset()"/>
                <g id="arrowUp" xlink:href="#dirArrow" transform="translate(30 24)" onmousedown="handlePan(0,-1)">
                  <use xlink:href="#rim" fill="#404040">
                        <set attributeName="fill" to="#808080" begin="arrowUp.mouseover" end="arrowUp.mouseout"/>
                  </use>
                  <path fill="none" stroke="white" stroke-width="1.5" d="M0,-3.0v7 M-2.5,-0.5L0,-3.0L2.5,-0.5"/>
                </g>
                <g id="arrowRight" xlink:href="#dirArrow" transform="rotate(90) translate(36 -43)" onmousedown="handlePan(1,0)">
                  <use xlink:href="#rim" fill="#404040">
                        <set attributeName="fill" to="#808080" begin="arrowRight.mouseover" end="arrowRight.mouseout"/>
                  </use>
                  <path fill="none" stroke="white" stroke-width="1.5" d="M0,-3.0v7 M-2.5,-0.5L0,-3.0L2.5,-0.5"/>
                </g>
                <g id="arrowDown" xlink:href="#dirArrow" transform="rotate(180) translate(-30 -48)" onmousedown="handlePan(0,1)">
                  <use xlink:href="#rim" fill="#404040">
                        <set attributeName="fill" to="#808080" begin="arrowDown.mouseover" end="arrowDown.mouseout"/>
                  </use>
                  <path fill="none" stroke="white" stroke-width="1.5" d="M0,-3.0v7 M-2.5,-0.5L0,-3.0L2.5,-0.5"/>
                </g>
                <g id="arrowLeft" xlink:href="#dirArrow" transform="rotate(270) translate(-36 17)" onmousedown="handlePan(-1,0)">
                  <use xlink:href="#rim" fill="#404040">
                        <set attributeName="fill" to="#808080" begin="arrowLeft.mouseover" end="arrowLeft.mouseout"/>
                  </use>
                  <path fill="none" stroke="white" stroke-width="1.5" d="M0,-3.0v7 M-2.5,-0.5L0,-3.0L2.5,-0.5"/>
                </g>
        </g>
        <svg viewBox="0 0 15 15" width="100%" height="30px" preserveAspectRatio="xMaxYMin meet">
         <g id="arrow_out" transform="scale(0.3 0.3)">
          <a xlink:href="structsplay__tree_1_1SplayNode_a099b6b1b7632cb57ee28bc474d86343e_icgraph_org.svg" target="_base">
           <rect id="button" ry="5" rx="5" y="6" x="6" height="38" width="38"
                fill="#f2f5e9" fill-opacity="0.5" stroke="#606060" stroke-width="1.0"/>
           <path id="arrow"
             d="M 11.500037,31.436501 C 11.940474,20.09759 22.043105,11.32322 32.158766,21.979434 L 37.068811,17.246167 C 37.068811,17.246167 37.088388,32 37.088388,32 L 22.160133,31.978069 C 22.160133,31.978069 26.997745,27.140456 26.997745,27.140456 C 18.528582,18.264221 13.291696,25.230495 11.500037,31.436501 z"
             style="fill:#404040;"/>
          </a>
         </g>
        </svg>
</svg>
