<?xml version="1.0" encoding="UTF-8" standalone="no"?>
<!DOCTYPE svg PUBLIC "-//W3C//DTD SVG 1.1//EN"
 "http://www.w3.org/Graphics/SVG/1.1/DTD/svg11.dtd">
<!-- Generated by graphviz version 2.43.0 (0)
 -->
<!-- Title: SplayTree&lt; T &gt;::Node Pages: 1 -->
<svg width="330pt" height="173pt"
 viewBox="0.00 0.00 330.00 173.00" xmlns="http://www.w3.org/2000/svg" xmlns:xlink="http://www.w3.org/1999/xlink">
<g id="graph0" class="graph" transform="scale(1 1) rotate(0) translate(4 169)">
<title>SplayTree&lt; T &gt;::Node</title>
<polygon fill="white" stroke="transparent" points="-4,4 -4,-169 326,-169 326,4 -4,4"/>
<!-- Node1 -->
<g id="node1" class="node">
<title>Node1</title>
<g id="a_node1"><a xlink:title=" ">
<polygon fill="#bfbfbf" stroke="black" points="0,-78.5 0,-97.5 124,-97.5 124,-78.5 0,-78.5"/>
<text text-anchor="middle" x="62" y="-85.5" font-family="Helvetica,sans-Serif" font-size="10.00">SplayTree&lt; T &gt;::Node</text>
</a>
</g>
</g>
<!-- Node1&#45;&gt;Node1 -->
<g id="edge1" class="edge">
<title>Node1&#45;&gt;Node1</title>
<path fill="none" stroke="#9a32cd" stroke-dasharray="5,2" d="M134.03,-92.35C138.99,-91.35 142,-89.9 142,-88 142,-85.03 134.66,-83.16 124.05,-82.4"/>
<polygon fill="#9a32cd" stroke="#9a32cd" points="133.54,-88.88 124.05,-93.6 134.41,-95.83 133.54,-88.88"/>
<text text-anchor="middle" x="159.5" y="-85.5" font-family="Helvetica,sans-Serif" font-size="10.00"> parent</text>
</g>
<!-- Node2 -->
<g id="node2" class="node">
<title>Node2</title>
<g id="a_node2"><a xlink:title=" ">
<polygon fill="white" stroke="#bfbfbf" points="73,-0.5 73,-30.5 195,-30.5 195,-0.5 73,-0.5"/>
<text text-anchor="start" x="81" y="-18.5" font-family="Helvetica,sans-Serif" font-size="10.00">std::array&lt; SplayTree</text>
<text text-anchor="middle" x="134" y="-7.5" font-family="Helvetica,sans-Serif" font-size="10.00">::Node *, 2 &gt;</text>
</a>
</g>
</g>
<!-- Node1&#45;&gt;Node2 -->
<g id="edge3" class="edge">
<title>Node1&#45;&gt;Node2</title>
<path fill="none" stroke="#9a32cd" stroke-dasharray="5,2" d="M56,-68.26C55.02,-61.71 55.32,-54.6 59,-49 64.14,-41.17 71.61,-35.22 79.88,-30.7"/>
<polygon fill="#9a32cd" stroke="#9a32cd" points="52.71,-69.52 58.49,-78.4 59.51,-67.85 52.71,-69.52"/>
<text text-anchor="middle" x="83.5" y="-52" font-family="Helvetica,sans-Serif" font-size="10.00"> elements</text>
</g>
<!-- Node2&#45;&gt;Node1 -->
<g id="edge2" class="edge">
<title>Node2&#45;&gt;Node1</title>
<path fill="none" stroke="#9a32cd" stroke-dasharray="5,2" d="M125.33,-39.98C121.94,-47 117.52,-54.33 112,-60 104.29,-67.92 93.76,-74.07 84.35,-78.5"/>
<polygon fill="#9a32cd" stroke="#9a32cd" points="128.55,-41.34 129.32,-30.78 122.13,-38.56 128.55,-41.34"/>
<text text-anchor="middle" x="133.5" y="-52" font-family="Helvetica,sans-Serif" font-size="10.00"> child</text>
</g>
<!-- Node3 -->
<g id="node3" class="node">
<title>Node3</title>
<g id="a_node3"><a xlink:title="STL class.">
<polygon fill="white" stroke="#bfbfbf" points="195,-78.5 195,-97.5 287,-97.5 287,-78.5 195,-78.5"/>
<text text-anchor="middle" x="241" y="-85.5" font-family="Helvetica,sans-Serif" font-size="10.00">std::array&lt; T &gt;</text>
</a>
</g>
</g>
<!-- Node3&#45;&gt;Node2 -->
<g id="edge4" class="edge">
<title>Node3&#45;&gt;Node2</title>
<path fill="none" stroke="orange" stroke-dasharray="5,2" d="M219.45,-72.8C200.8,-60.51 173.96,-42.83 155.36,-30.58"/>
<polygon fill="orange" stroke="orange" points="217.6,-75.78 227.88,-78.36 221.45,-69.93 217.6,-75.78"/>
<text text-anchor="middle" x="259.5" y="-52" font-family="Helvetica,sans-Serif" font-size="10.00"> &lt; SplayTree::Node *, 2 &gt;</text>
</g>
<!-- Node4 -->
<g id="node4" class="node">
<title>Node4</title>
<g id="a_node4"><a xlink:title=" ">
<polygon fill="white" stroke="#bfbfbf" points="226.5,-145.5 226.5,-164.5 255.5,-164.5 255.5,-145.5 226.5,-145.5"/>
<text text-anchor="middle" x="241" y="-152.5" font-family="Helvetica,sans-Serif" font-size="10.00">T</text>
</a>
</g>
</g>
<!-- Node4&#45;&gt;Node3 -->
<g id="edge5" class="edge">
<title>Node4&#45;&gt;Node3</title>
<path fill="none" stroke="#9a32cd" stroke-dasharray="5,2" d="M241,-135.04C241,-122.67 241,-107.12 241,-97.63"/>
<polygon fill="#9a32cd" stroke="#9a32cd" points="237.5,-135.23 241,-145.23 244.5,-135.23 237.5,-135.23"/>
<text text-anchor="middle" x="265.5" y="-119" font-family="Helvetica,sans-Serif" font-size="10.00"> elements</text>
</g>
</g>
</svg>
