<?xml version="1.0" encoding="UTF-8" standalone="no"?>
<!DOCTYPE svg PUBLIC "-//W3C//DTD SVG 1.1//EN"
 "http://www.w3.org/Graphics/SVG/1.1/DTD/svg11.dtd">
<!-- Generated by graphviz version 2.43.0 (0)
 -->
<!-- Title: splay_tree::SplayTree&lt; T &gt;::iterator Pages: 1 -->
<svg width="647pt" height="164pt"
 viewBox="0.00 0.00 647.00 164.00" xmlns="http://www.w3.org/2000/svg" xmlns:xlink="http://www.w3.org/1999/xlink">
<g id="graph0" class="graph" transform="scale(1 1) rotate(0) translate(4 160)">
<title>splay_tree::SplayTree&lt; T &gt;::iterator</title>
<polygon fill="white" stroke="transparent" points="-4,4 -4,-160 643,-160 643,4 -4,4"/>
<!-- Node1 -->
<g id="node1" class="node">
<title>Node1</title>
<g id="a_node1"><a xlink:title="Splay tree node.">
<polygon fill="#bfbfbf" stroke="black" points="516,-118 516,-148 637,-148 637,-118 516,-118"/>
<text text-anchor="start" x="524" y="-136" font-family="Helvetica,sans-Serif" font-size="10.00">splay_tree::SplayTree</text>
<text text-anchor="middle" x="576.5" y="-125" font-family="Helvetica,sans-Serif" font-size="10.00">&lt; T &gt;::iterator</text>
</a>
</g>
</g>
<!-- Node2 -->
<g id="node2" class="node">
<title>Node2</title>
<g id="a_node2"><a xlink:href="structit__base.html" target="_top" xlink:title=" ">
<polygon fill="white" stroke="black" points="251,-136.5 251,-155.5 331,-155.5 331,-136.5 251,-136.5"/>
<text text-anchor="middle" x="291" y="-143.5" font-family="Helvetica,sans-Serif" font-size="10.00">it_base&lt; T &gt;</text>
</a>
</g>
</g>
<!-- Node2&#45;&gt;Node1 -->
<g id="edge1" class="edge">
<title>Node2&#45;&gt;Node1</title>
<path fill="none" stroke="midnightblue" d="M341.37,-143.74C389.89,-141.51 463.99,-138.11 515.79,-135.74"/>
<polygon fill="midnightblue" stroke="midnightblue" points="340.95,-140.25 331.12,-144.21 341.27,-147.24 340.95,-140.25"/>
</g>
<!-- Node3 -->
<g id="node3" class="node">
<title>Node3</title>
<g id="a_node3"><a xlink:href="structsplay__tree_1_1SplayNode.html" target="_top" xlink:title=" ">
<polygon fill="white" stroke="black" points="228,-57 228,-87 354,-87 354,-57 228,-57"/>
<text text-anchor="start" x="236" y="-75" font-family="Helvetica,sans-Serif" font-size="10.00">splay_tree::SplayNode</text>
<text text-anchor="middle" x="291" y="-64" font-family="Helvetica,sans-Serif" font-size="10.00">&lt; T, has_link_cut &gt;</text>
</a>
</g>
</g>
<!-- Node3&#45;&gt;Node1 -->
<g id="edge2" class="edge">
<title>Node3&#45;&gt;Node1</title>
<path fill="none" stroke="#9a32cd" stroke-dasharray="5,2" d="M364.02,-87.5C411,-97.6 471.58,-110.64 515.86,-120.17"/>
<polygon fill="#9a32cd" stroke="#9a32cd" points="364.73,-84.07 354.22,-85.39 363.26,-90.91 364.73,-84.07"/>
<text text-anchor="middle" x="434" y="-117" font-family="Helvetica,sans-Serif" font-size="10.00"> node</text>
</g>
<!-- Node3&#45;&gt;Node3 -->
<g id="edge4" class="edge">
<title>Node3&#45;&gt;Node3</title>
<path fill="none" stroke="#9a32cd" stroke-dasharray="5,2" d="M272.52,-97.46C274.81,-102.18 280.97,-105.5 291,-105.5 307.45,-105.5 313.49,-96.56 309.12,-87.16"/>
<polygon fill="#9a32cd" stroke="#9a32cd" points="276.03,-97.27 272.88,-87.16 269.03,-97.03 276.03,-97.27"/>
<text text-anchor="middle" x="291" y="-108.5" font-family="Helvetica,sans-Serif" font-size="10.00"> parent</text>
</g>
<!-- Node5 -->
<g id="node5" class="node">
<title>Node5</title>
<g id="a_node5"><a xlink:title=" ">
<polygon fill="white" stroke="#bfbfbf" points="514,-37 514,-67 639,-67 639,-37 514,-37"/>
<text text-anchor="start" x="522" y="-55" font-family="Helvetica,sans-Serif" font-size="10.00">std::array&lt; splay_tree</text>
<text text-anchor="middle" x="576.5" y="-44" font-family="Helvetica,sans-Serif" font-size="10.00">::SplayNode *, 2 &gt;</text>
</a>
</g>
</g>
<!-- Node3&#45;&gt;Node5 -->
<g id="edge6" class="edge">
<title>Node3&#45;&gt;Node5</title>
<path fill="none" stroke="#9a32cd" stroke-dasharray="5,2" d="M351.21,-54.66C358.17,-53.16 365.21,-51.88 372,-51 419.3,-44.89 473.31,-45.51 513.79,-47.45"/>
<polygon fill="#9a32cd" stroke="#9a32cd" points="350.06,-51.33 341.11,-56.99 351.64,-58.15 350.06,-51.33"/>
<text text-anchor="middle" x="434" y="-54" font-family="Helvetica,sans-Serif" font-size="10.00"> elements</text>
</g>
<!-- Node4 -->
<g id="node4" class="node">
<title>Node4</title>
<g id="a_node4"><a xlink:title=" ">
<polygon fill="white" stroke="#bfbfbf" points="0,-51.5 0,-92.5 143,-92.5 143,-51.5 0,-51.5"/>
<text text-anchor="start" x="8" y="-80.5" font-family="Helvetica,sans-Serif" font-size="10.00">conditional_t&lt; false</text>
<text text-anchor="start" x="8" y="-69.5" font-family="Helvetica,sans-Serif" font-size="10.00"> , PathParent&lt; SplayNode</text>
<text text-anchor="middle" x="71.5" y="-58.5" font-family="Helvetica,sans-Serif" font-size="10.00">&lt; T, false &gt; &gt;, Empty &gt;</text>
</a>
</g>
</g>
<!-- Node4&#45;&gt;Node3 -->
<g id="edge3" class="edge">
<title>Node4&#45;&gt;Node3</title>
<path fill="none" stroke="midnightblue" d="M153.18,-72C177.84,-72 204.56,-72 227.8,-72"/>
<polygon fill="midnightblue" stroke="midnightblue" points="153.12,-68.5 143.12,-72 153.12,-75.5 153.12,-68.5"/>
</g>
<!-- Node5&#45;&gt;Node3 -->
<g id="edge5" class="edge">
<title>Node5&#45;&gt;Node3</title>
<path fill="none" stroke="#9a32cd" stroke-dasharray="5,2" d="M503.77,-63.2C501.15,-63.49 498.55,-63.76 496,-64 448.54,-68.5 394.64,-70.48 354.17,-71.34"/>
<polygon fill="#9a32cd" stroke="#9a32cd" points="504.44,-66.64 513.95,-61.98 503.61,-59.69 504.44,-66.64"/>
<text text-anchor="middle" x="434" y="-73" font-family="Helvetica,sans-Serif" font-size="10.00"> child</text>
</g>
<!-- Node6 -->
<g id="node6" class="node">
<title>Node6</title>
<g id="a_node6"><a xlink:title="STL class.">
<polygon fill="white" stroke="#bfbfbf" points="245,-0.5 245,-19.5 337,-19.5 337,-0.5 245,-0.5"/>
<text text-anchor="middle" x="291" y="-7.5" font-family="Helvetica,sans-Serif" font-size="10.00">std::array&lt; T &gt;</text>
</a>
</g>
</g>
<!-- Node6&#45;&gt;Node5 -->
<g id="edge7" class="edge">
<title>Node6&#45;&gt;Node5</title>
<path fill="none" stroke="orange" stroke-dasharray="5,2" d="M347.27,-8.27C388.67,-8.11 446.46,-10.29 496,-21 512.22,-24.5 529.46,-30.88 543.73,-36.94"/>
<polygon fill="orange" stroke="orange" points="347.08,-4.78 337.11,-8.36 347.14,-11.78 347.08,-4.78"/>
<text text-anchor="start" x="372" y="-35" font-family="Helvetica,sans-Serif" font-size="10.00"> &lt; splay_tree::SplayNode</text>
<text text-anchor="middle" x="434" y="-24" font-family="Helvetica,sans-Serif" font-size="10.00"> *, 2 &gt;</text>
</g>
<!-- Node7 -->
<g id="node7" class="node">
<title>Node7</title>
<g id="a_node7"><a xlink:title=" ">
<polygon fill="white" stroke="#bfbfbf" points="57,-8.5 57,-27.5 86,-27.5 86,-8.5 57,-8.5"/>
<text text-anchor="middle" x="71.5" y="-15.5" font-family="Helvetica,sans-Serif" font-size="10.00">T</text>
</a>
</g>
</g>
<!-- Node7&#45;&gt;Node3 -->
<g id="edge9" class="edge">
<title>Node7&#45;&gt;Node3</title>
<path fill="none" stroke="#9a32cd" stroke-dasharray="5,2" d="M96.19,-23.88C127.91,-31.76 185.29,-46 229.41,-56.96"/>
<polygon fill="#9a32cd" stroke="#9a32cd" points="96.65,-20.39 86.11,-21.38 94.97,-27.18 96.65,-20.39"/>
<text text-anchor="middle" x="185.5" y="-55" font-family="Helvetica,sans-Serif" font-size="10.00"> value</text>
</g>
<!-- Node7&#45;&gt;Node6 -->
<g id="edge8" class="edge">
<title>Node7&#45;&gt;Node6</title>
<path fill="none" stroke="#9a32cd" stroke-dasharray="5,2" d="M96.36,-16.44C114.17,-15.32 139.1,-13.87 161,-13 188.87,-11.89 220.14,-11.15 244.91,-10.68"/>
<polygon fill="#9a32cd" stroke="#9a32cd" points="96.05,-12.95 86.29,-17.08 96.49,-19.94 96.05,-12.95"/>
<text text-anchor="middle" x="185.5" y="-16" font-family="Helvetica,sans-Serif" font-size="10.00"> elements</text>
</g>
</g>
</svg>
