<?xml version="1.0" encoding="UTF-8" standalone="no"?>
<!DOCTYPE svg PUBLIC "-//W3C//DTD SVG 1.1//EN"
 "http://www.w3.org/Graphics/SVG/1.1/DTD/svg11.dtd">
<!-- Generated by graphviz version 2.43.0 (0)
 -->
<!-- Title: hash_str Pages: 1 -->
<svg width="156pt" height="240pt"
 viewBox="0.00 0.00 156.00 240.00" xmlns="http://www.w3.org/2000/svg" xmlns:xlink="http://www.w3.org/1999/xlink">
<g id="graph0" class="graph" transform="scale(1 1) rotate(0) translate(4 236)">
<title>hash_str</title>
<polygon fill="white" stroke="transparent" points="-4,4 -4,-236 152,-236 152,4 -4,4"/>
<!-- Node1 -->
<g id="node1" class="node">
<title>Node1</title>
<g id="a_node1"><a xlink:title=" ">
<polygon fill="#bfbfbf" stroke="black" points="28,-0.5 28,-19.5 86,-19.5 86,-0.5 28,-0.5"/>
<text text-anchor="middle" x="57" y="-7.5" font-family="Helvetica,sans-Serif" font-size="10.00">hash_str</text>
</a>
</g>
</g>
<!-- Node2 -->
<g id="node2" class="node">
<title>Node2</title>
<g id="a_node2"><a xlink:title=" ">
<polygon fill="white" stroke="#bfbfbf" points="3.5,-78.5 3.5,-97.5 110.5,-97.5 110.5,-78.5 3.5,-78.5"/>
<text text-anchor="middle" x="57" y="-85.5" font-family="Helvetica,sans-Serif" font-size="10.00">std::vector&lt; md &gt;</text>
</a>
</g>
</g>
<!-- Node2&#45;&gt;Node1 -->
<g id="edge1" class="edge">
<title>Node2&#45;&gt;Node1</title>
<path fill="none" stroke="#9a32cd" stroke-dasharray="5,2" d="M57,-68.22C57,-52.7 57,-31.36 57,-19.62"/>
<polygon fill="#9a32cd" stroke="#9a32cd" points="53.5,-68.28 57,-78.28 60.5,-68.28 53.5,-68.28"/>
<text text-anchor="middle" x="62" y="-52" font-family="Helvetica,sans-Serif" font-size="10.00"> h</text>
<text text-anchor="middle" x="62" y="-41" font-family="Helvetica,sans-Serif" font-size="10.00">p</text>
</g>
<!-- Node3 -->
<g id="node3" class="node">
<title>Node3</title>
<g id="a_node3"><a xlink:href="structmd.html" target="_top" xlink:title=" ">
<polygon fill="white" stroke="black" points="0,-145.5 0,-164.5 32,-164.5 32,-145.5 0,-145.5"/>
<text text-anchor="middle" x="16" y="-152.5" font-family="Helvetica,sans-Serif" font-size="10.00">md</text>
</a>
</g>
</g>
<!-- Node3&#45;&gt;Node2 -->
<g id="edge2" class="edge">
<title>Node3&#45;&gt;Node2</title>
<path fill="none" stroke="#9a32cd" stroke-dasharray="5,2" d="M18,-135.29C19.3,-128.83 21.45,-121.77 25,-116 29.49,-108.69 36.64,-102.39 43.05,-97.71"/>
<polygon fill="#9a32cd" stroke="#9a32cd" points="14.53,-134.85 16.51,-145.26 21.45,-135.89 14.53,-134.85"/>
<text text-anchor="middle" x="49.5" y="-119" font-family="Helvetica,sans-Serif" font-size="10.00"> elements</text>
</g>
<!-- Node4 -->
<g id="node4" class="node">
<title>Node4</title>
<g id="a_node4"><a xlink:href="structll.html" target="_top" xlink:title=" ">
<polygon fill="white" stroke="black" points="1.5,-212.5 1.5,-231.5 30.5,-231.5 30.5,-212.5 1.5,-212.5"/>
<text text-anchor="middle" x="16" y="-219.5" font-family="Helvetica,sans-Serif" font-size="10.00">ll</text>
</a>
</g>
</g>
<!-- Node4&#45;&gt;Node3 -->
<g id="edge3" class="edge">
<title>Node4&#45;&gt;Node3</title>
<path fill="none" stroke="#9a32cd" stroke-dasharray="5,2" d="M16,-202.04C16,-189.67 16,-174.12 16,-164.63"/>
<polygon fill="#9a32cd" stroke="#9a32cd" points="12.5,-202.23 16,-212.23 19.5,-202.23 12.5,-202.23"/>
<text text-anchor="middle" x="21" y="-186" font-family="Helvetica,sans-Serif" font-size="10.00"> x</text>
</g>
<!-- Node5 -->
<g id="node5" class="node">
<title>Node5</title>
<g id="a_node5"><a xlink:title="STL class.">
<polygon fill="white" stroke="#bfbfbf" points="50.5,-145.5 50.5,-164.5 147.5,-164.5 147.5,-145.5 50.5,-145.5"/>
<text text-anchor="middle" x="99" y="-152.5" font-family="Helvetica,sans-Serif" font-size="10.00">std::vector&lt; T &gt;</text>
</a>
</g>
</g>
<!-- Node5&#45;&gt;Node2 -->
<g id="edge4" class="edge">
<title>Node5&#45;&gt;Node2</title>
<path fill="none" stroke="orange" stroke-dasharray="5,2" d="M87.71,-136.53C79.58,-123.95 68.96,-107.51 62.57,-97.63"/>
<polygon fill="orange" stroke="orange" points="84.97,-138.73 93.34,-145.23 90.85,-134.94 84.97,-138.73"/>
<text text-anchor="middle" x="102" y="-119" font-family="Helvetica,sans-Serif" font-size="10.00"> &lt; md &gt;</text>
</g>
<!-- Node6 -->
<g id="node6" class="node">
<title>Node6</title>
<g id="a_node6"><a xlink:title=" ">
<polygon fill="white" stroke="#bfbfbf" points="84.5,-212.5 84.5,-231.5 113.5,-231.5 113.5,-212.5 84.5,-212.5"/>
<text text-anchor="middle" x="99" y="-219.5" font-family="Helvetica,sans-Serif" font-size="10.00">T</text>
</a>
</g>
</g>
<!-- Node6&#45;&gt;Node5 -->
<g id="edge5" class="edge">
<title>Node6&#45;&gt;Node5</title>
<path fill="none" stroke="#9a32cd" stroke-dasharray="5,2" d="M99,-202.04C99,-189.67 99,-174.12 99,-164.63"/>
<polygon fill="#9a32cd" stroke="#9a32cd" points="95.5,-202.23 99,-212.23 102.5,-202.23 95.5,-202.23"/>
<text text-anchor="middle" x="123.5" y="-186" font-family="Helvetica,sans-Serif" font-size="10.00"> elements</text>
</g>
</g>
</svg>
