<?xml version="1.0" encoding="UTF-8" standalone="no"?>
<!DOCTYPE svg PUBLIC "-//W3C//DTD SVG 1.1//EN"
 "http://www.w3.org/Graphics/SVG/1.1/DTD/svg11.dtd">
<!-- Generated by graphviz version 2.43.0 (0)
 -->
<!-- Title: string_tools::hash_str Pages: 1 -->
<svg width="177pt" height="240pt"
 viewBox="0.00 0.00 176.50 240.00" xmlns="http://www.w3.org/2000/svg" xmlns:xlink="http://www.w3.org/1999/xlink">
<g id="graph0" class="graph" transform="scale(1 1) rotate(0) translate(4 236)">
<title>string_tools::hash_str</title>
<polygon fill="white" stroke="transparent" points="-4,4 -4,-236 172.5,-236 172.5,4 -4,4"/>
<!-- Node1 -->
<g id="node1" class="node">
<title>Node1</title>
<g id="a_node1"><a xlink:title=" ">
<polygon fill="#bfbfbf" stroke="black" points="12,-0.5 12,-19.5 133,-19.5 133,-0.5 12,-0.5"/>
<text text-anchor="middle" x="72.5" y="-7.5" font-family="Helvetica,sans-Serif" font-size="10.00">string_tools::hash_str</text>
</a>
</g>
</g>
<!-- Node2 -->
<g id="node2" class="node">
<title>Node2</title>
<g id="a_node2"><a xlink:title=" ">
<polygon fill="white" stroke="#bfbfbf" points="8.5,-78.5 8.5,-97.5 136.5,-97.5 136.5,-78.5 8.5,-78.5"/>
<text text-anchor="middle" x="72.5" y="-85.5" font-family="Helvetica,sans-Serif" font-size="10.00">std::vector&lt; modulo &gt;</text>
</a>
</g>
</g>
<!-- Node2&#45;&gt;Node1 -->
<g id="edge1" class="edge">
<title>Node2&#45;&gt;Node1</title>
<path fill="none" stroke="#9a32cd" stroke-dasharray="5,2" d="M72.5,-68.22C72.5,-52.7 72.5,-31.36 72.5,-19.62"/>
<polygon fill="#9a32cd" stroke="#9a32cd" points="69,-68.28 72.5,-78.28 76,-68.28 69,-68.28"/>
<text text-anchor="middle" x="77.5" y="-52" font-family="Helvetica,sans-Serif" font-size="10.00"> h</text>
<text text-anchor="middle" x="77.5" y="-41" font-family="Helvetica,sans-Serif" font-size="10.00">p</text>
</g>
<!-- Node3 -->
<g id="node3" class="node">
<title>Node3</title>
<g id="a_node3"><a xlink:href="structmodulo.html" target="_top" xlink:title=" ">
<polygon fill="white" stroke="black" points="0,-145.5 0,-164.5 53,-164.5 53,-145.5 0,-145.5"/>
<text text-anchor="middle" x="26.5" y="-152.5" font-family="Helvetica,sans-Serif" font-size="10.00">modulo</text>
</a>
</g>
</g>
<!-- Node3&#45;&gt;Node2 -->
<g id="edge2" class="edge">
<title>Node3&#45;&gt;Node2</title>
<path fill="none" stroke="#9a32cd" stroke-dasharray="5,2" d="M32.28,-135.82C34.84,-129.24 38.25,-121.97 42.5,-116 47.45,-109.03 54.5,-102.58 60.52,-97.72"/>
<polygon fill="#9a32cd" stroke="#9a32cd" points="28.96,-134.71 28.95,-145.3 35.57,-137.02 28.96,-134.71"/>
<text text-anchor="middle" x="67" y="-119" font-family="Helvetica,sans-Serif" font-size="10.00"> elements</text>
</g>
<!-- Node4 -->
<g id="node4" class="node">
<title>Node4</title>
<g id="a_node4"><a xlink:href="structll.html" target="_top" xlink:title=" ">
<polygon fill="white" stroke="black" points="12,-212.5 12,-231.5 41,-231.5 41,-212.5 12,-212.5"/>
<text text-anchor="middle" x="26.5" y="-219.5" font-family="Helvetica,sans-Serif" font-size="10.00">ll</text>
</a>
</g>
</g>
<!-- Node4&#45;&gt;Node3 -->
<g id="edge3" class="edge">
<title>Node4&#45;&gt;Node3</title>
<path fill="none" stroke="#9a32cd" stroke-dasharray="5,2" d="M26.5,-202.04C26.5,-189.67 26.5,-174.12 26.5,-164.63"/>
<polygon fill="#9a32cd" stroke="#9a32cd" points="23,-202.23 26.5,-212.23 30,-202.23 23,-202.23"/>
<text text-anchor="middle" x="31.5" y="-186" font-family="Helvetica,sans-Serif" font-size="10.00"> x</text>
</g>
<!-- Node5 -->
<g id="node5" class="node">
<title>Node5</title>
<g id="a_node5"><a xlink:title="STL class.">
<polygon fill="white" stroke="#bfbfbf" points="71,-145.5 71,-164.5 168,-164.5 168,-145.5 71,-145.5"/>
<text text-anchor="middle" x="119.5" y="-152.5" font-family="Helvetica,sans-Serif" font-size="10.00">std::vector&lt; T &gt;</text>
</a>
</g>
</g>
<!-- Node5&#45;&gt;Node2 -->
<g id="edge4" class="edge">
<title>Node5&#45;&gt;Node2</title>
<path fill="none" stroke="orange" stroke-dasharray="5,2" d="M107.14,-136.9C98.01,-124.27 85.95,-107.6 78.74,-97.63"/>
<polygon fill="orange" stroke="orange" points="104.47,-139.18 113.16,-145.23 110.14,-135.08 104.47,-139.18"/>
<text text-anchor="middle" x="130" y="-119" font-family="Helvetica,sans-Serif" font-size="10.00"> &lt; modulo &gt;</text>
</g>
<!-- Node6 -->
<g id="node6" class="node">
<title>Node6</title>
<g id="a_node6"><a xlink:title=" ">
<polygon fill="white" stroke="#bfbfbf" points="105,-212.5 105,-231.5 134,-231.5 134,-212.5 105,-212.5"/>
<text text-anchor="middle" x="119.5" y="-219.5" font-family="Helvetica,sans-Serif" font-size="10.00">T</text>
</a>
</g>
</g>
<!-- Node6&#45;&gt;Node5 -->
<g id="edge5" class="edge">
<title>Node6&#45;&gt;Node5</title>
<path fill="none" stroke="#9a32cd" stroke-dasharray="5,2" d="M119.5,-202.04C119.5,-189.67 119.5,-174.12 119.5,-164.63"/>
<polygon fill="#9a32cd" stroke="#9a32cd" points="116,-202.23 119.5,-212.23 123,-202.23 116,-202.23"/>
<text text-anchor="middle" x="144" y="-186" font-family="Helvetica,sans-Serif" font-size="10.00"> elements</text>
</g>
</g>
</svg>
