<?xml version="1.0" encoding="UTF-8" standalone="no"?>
<!DOCTYPE svg PUBLIC "-//W3C//DTD SVG 1.1//EN"
 "http://www.w3.org/Graphics/SVG/1.1/DTD/svg11.dtd">
<!-- Generated by graphviz version 2.43.0 (0)
 -->
<!-- Title: splay_tree::SplayNode::splay Pages: 1 -->
<svg width="620pt" height="99pt"
 viewBox="0.00 0.00 620.00 99.00" xmlns="http://www.w3.org/2000/svg" xmlns:xlink="http://www.w3.org/1999/xlink">
<g id="graph0" class="graph" transform="scale(1 1) rotate(0) translate(4 95)">
<title>splay_tree::SplayNode::splay</title>
<polygon fill="white" stroke="transparent" points="-4,4 -4,-95 616,-95 616,4 -4,4"/>
<!-- Node1 -->
<g id="node1" class="node">
<title>Node1</title>
<g id="a_node1"><a xlink:title=" ">
<polygon fill="#bfbfbf" stroke="black" points="0,-0.5 0,-30.5 126,-30.5 126,-0.5 0,-0.5"/>
<text text-anchor="start" x="8" y="-18.5" font-family="Helvetica,sans-Serif" font-size="10.00">splay_tree::SplayNode</text>
<text text-anchor="middle" x="63" y="-7.5" font-family="Helvetica,sans-Serif" font-size="10.00">::splay</text>
</a>
</g>
</g>
<!-- Node2 -->
<g id="node2" class="node">
<title>Node2</title>
<g id="a_node2"><a xlink:href="structsplay__tree_1_1SplayNode.html#a099b6b1b7632cb57ee28bc474d86343e" target="_top" xlink:title=" ">
<polygon fill="white" stroke="black" points="162,-22.5 162,-52.5 288,-52.5 288,-22.5 162,-22.5"/>
<text text-anchor="start" x="170" y="-40.5" font-family="Helvetica,sans-Serif" font-size="10.00">splay_tree::SplayNode</text>
<text text-anchor="middle" x="225" y="-29.5" font-family="Helvetica,sans-Serif" font-size="10.00">::rotate</text>
</a>
</g>
</g>
<!-- Node1&#45;&gt;Node2 -->
<g id="edge1" class="edge">
<title>Node1&#45;&gt;Node2</title>
<path fill="none" stroke="midnightblue" d="M126.32,-24.07C134.71,-25.22 143.37,-26.41 151.91,-27.59"/>
<polygon fill="midnightblue" stroke="midnightblue" points="151.47,-31.06 161.85,-28.95 152.42,-24.12 151.47,-31.06"/>
</g>
<!-- Node4 -->
<g id="node4" class="node">
<title>Node4</title>
<g id="a_node4"><a xlink:href="structsplay__tree_1_1SplayNode.html#a73de7d8fe94fc66a6a43427751e8a546" target="_top" xlink:title=" ">
<polygon fill="white" stroke="black" points="486,-16.5 486,-46.5 612,-46.5 612,-16.5 486,-16.5"/>
<text text-anchor="start" x="494" y="-34.5" font-family="Helvetica,sans-Serif" font-size="10.00">splay_tree::SplayNode</text>
<text text-anchor="middle" x="549" y="-23.5" font-family="Helvetica,sans-Serif" font-size="10.00">::side</text>
</a>
</g>
</g>
<!-- Node1&#45;&gt;Node4 -->
<g id="edge5" class="edge">
<title>Node1&#45;&gt;Node4</title>
<path fill="none" stroke="midnightblue" d="M126.2,-13.31C138.09,-12.97 150.43,-12.68 162,-12.5 217.99,-11.64 232.04,-10.46 288,-12.5 351.5,-14.82 423.54,-20.31 475.67,-24.79"/>
<polygon fill="midnightblue" stroke="midnightblue" points="475.55,-28.3 485.82,-25.68 476.16,-21.32 475.55,-28.3"/>
</g>
<!-- Node3 -->
<g id="node3" class="node">
<title>Node3</title>
<g id="a_node3"><a xlink:href="structsplay__tree_1_1SplayNode.html#a510653918c7b8181c888bbb608a9e6ee" target="_top" xlink:title=" ">
<polygon fill="white" stroke="black" points="324,-60.5 324,-90.5 450,-90.5 450,-60.5 324,-60.5"/>
<text text-anchor="start" x="332" y="-78.5" font-family="Helvetica,sans-Serif" font-size="10.00">splay_tree::SplayNode</text>
<text text-anchor="middle" x="387" y="-67.5" font-family="Helvetica,sans-Serif" font-size="10.00">::attach</text>
</a>
</g>
</g>
<!-- Node2&#45;&gt;Node3 -->
<g id="edge2" class="edge">
<title>Node2&#45;&gt;Node3</title>
<path fill="none" stroke="midnightblue" d="M288.32,-52.3C296.71,-54.29 305.37,-56.35 313.91,-58.38"/>
<polygon fill="midnightblue" stroke="midnightblue" points="313.31,-61.83 323.85,-60.74 314.93,-55.02 313.31,-61.83"/>
</g>
<!-- Node2&#45;&gt;Node4 -->
<g id="edge4" class="edge">
<title>Node2&#45;&gt;Node4</title>
<path fill="none" stroke="midnightblue" d="M288.08,-36.34C341.68,-35.34 419.14,-33.9 475.55,-32.85"/>
<polygon fill="midnightblue" stroke="midnightblue" points="475.9,-36.34 485.83,-32.66 475.77,-29.35 475.9,-36.34"/>
</g>
<!-- Node3&#45;&gt;Node4 -->
<g id="edge3" class="edge">
<title>Node3&#45;&gt;Node4</title>
<path fill="none" stroke="midnightblue" d="M442.62,-60.48C455.8,-56.85 470.01,-52.95 483.6,-49.21"/>
<polygon fill="midnightblue" stroke="midnightblue" points="484.65,-52.55 493.36,-46.53 482.79,-45.8 484.65,-52.55"/>
</g>
</g>
</svg>
