<?xml version="1.0" encoding="UTF-8" standalone="no"?>
<!DOCTYPE svg PUBLIC "-//W3C//DTD SVG 1.1//EN"
 "http://www.w3.org/Graphics/SVG/1.1/DTD/svg11.dtd">
<!-- Generated by graphviz version 2.43.0 (0)
 -->
<!-- Title: splay_tree::SplayTree&lt; T &gt;::iterator Pages: 1 -->
<svg width="641pt" height="164pt"
 viewBox="0.00 0.00 641.00 164.00" xmlns="http://www.w3.org/2000/svg" xmlns:xlink="http://www.w3.org/1999/xlink">
<g id="graph0" class="graph" transform="scale(1 1) rotate(0) translate(4 160)">
<title>splay_tree::SplayTree&lt; T &gt;::iterator</title>
<polygon fill="white" stroke="transparent" points="-4,4 -4,-160 637,-160 637,4 -4,4"/>
<!-- Node1 -->
<g id="node1" class="node">
<title>Node1</title>
<g id="a_node1"><a xlink:title="Splay tree node.">
<polygon fill="#bfbfbf" stroke="black" points="510,-118 510,-148 631,-148 631,-118 510,-118"/>
<text text-anchor="start" x="518" y="-136" font-family="Helvetica,sans-Serif" font-size="10.00">splay_tree::SplayTree</text>
<text text-anchor="middle" x="570.5" y="-125" font-family="Helvetica,sans-Serif" font-size="10.00">&lt; T &gt;::iterator</text>
</a>
</g>
</g>
<!-- Node2 -->
<g id="node2" class="node">
<title>Node2</title>
<g id="a_node2"><a xlink:href="structit__base.html" target="_top" xlink:title=" ">
<polygon fill="white" stroke="black" points="245,-136.5 245,-155.5 325,-155.5 325,-136.5 245,-136.5"/>
<text text-anchor="middle" x="285" y="-143.5" font-family="Helvetica,sans-Serif" font-size="10.00">it_base&lt; T &gt;</text>
</a>
</g>
</g>
<!-- Node2&#45;&gt;Node1 -->
<g id="edge1" class="edge">
<title>Node2&#45;&gt;Node1</title>
<path fill="none" stroke="midnightblue" d="M335.37,-143.74C383.89,-141.51 457.99,-138.11 509.79,-135.74"/>
<polygon fill="midnightblue" stroke="midnightblue" points="334.95,-140.25 325.12,-144.21 335.27,-147.24 334.95,-140.25"/>
</g>
<!-- Node3 -->
<g id="node3" class="node">
<title>Node3</title>
<g id="a_node3"><a xlink:href="structsplay__tree_1_1SplayNode.html" target="_top" xlink:title=" ">
<polygon fill="white" stroke="black" points="222,-57 222,-87 348,-87 348,-57 222,-57"/>
<text text-anchor="start" x="230" y="-75" font-family="Helvetica,sans-Serif" font-size="10.00">splay_tree::SplayNode</text>
<text text-anchor="middle" x="285" y="-64" font-family="Helvetica,sans-Serif" font-size="10.00">&lt; T, has_link_cut &gt;</text>
</a>
</g>
</g>
<!-- Node3&#45;&gt;Node1 -->
<g id="edge2" class="edge">
<title>Node3&#45;&gt;Node1</title>
<path fill="none" stroke="#9a32cd" stroke-dasharray="5,2" d="M358.02,-87.5C405,-97.6 465.58,-110.64 509.86,-120.17"/>
<polygon fill="#9a32cd" stroke="#9a32cd" points="358.73,-84.07 348.22,-85.39 357.26,-90.91 358.73,-84.07"/>
<text text-anchor="middle" x="428" y="-117" font-family="Helvetica,sans-Serif" font-size="10.00"> node</text>
</g>
<!-- Node3&#45;&gt;Node3 -->
<g id="edge4" class="edge">
<title>Node3&#45;&gt;Node3</title>
<path fill="none" stroke="#9a32cd" stroke-dasharray="5,2" d="M266.52,-97.46C268.81,-102.18 274.97,-105.5 285,-105.5 301.45,-105.5 307.49,-96.56 303.12,-87.16"/>
<polygon fill="#9a32cd" stroke="#9a32cd" points="270.03,-97.27 266.88,-87.16 263.03,-97.03 270.03,-97.27"/>
<text text-anchor="middle" x="285" y="-108.5" font-family="Helvetica,sans-Serif" font-size="10.00"> parent</text>
</g>
<!-- Node5 -->
<g id="node5" class="node">
<title>Node5</title>
<g id="a_node5"><a xlink:title=" ">
<polygon fill="white" stroke="#bfbfbf" points="508,-37 508,-67 633,-67 633,-37 508,-37"/>
<text text-anchor="start" x="516" y="-55" font-family="Helvetica,sans-Serif" font-size="10.00">std::array&lt; splay_tree</text>
<text text-anchor="middle" x="570.5" y="-44" font-family="Helvetica,sans-Serif" font-size="10.00">::SplayNode *, 2 &gt;</text>
</a>
</g>
</g>
<!-- Node3&#45;&gt;Node5 -->
<g id="edge6" class="edge">
<title>Node3&#45;&gt;Node5</title>
<path fill="none" stroke="#9a32cd" stroke-dasharray="5,2" d="M345.21,-54.66C352.17,-53.16 359.21,-51.88 366,-51 413.3,-44.89 467.31,-45.51 507.79,-47.45"/>
<polygon fill="#9a32cd" stroke="#9a32cd" points="344.06,-51.33 335.11,-56.99 345.64,-58.15 344.06,-51.33"/>
<text text-anchor="middle" x="428" y="-54" font-family="Helvetica,sans-Serif" font-size="10.00"> elements</text>
</g>
<!-- Node4 -->
<g id="node4" class="node">
<title>Node4</title>
<g id="a_node4"><a xlink:title=" ">
<polygon fill="white" stroke="#bfbfbf" points="0,-51.5 0,-92.5 137,-92.5 137,-51.5 0,-51.5"/>
<text text-anchor="start" x="8" y="-80.5" font-family="Helvetica,sans-Serif" font-size="10.00">conditional_t&lt; false,</text>
<text text-anchor="start" x="8" y="-69.5" font-family="Helvetica,sans-Serif" font-size="10.00"> PathParent&lt; SplayNode</text>
<text text-anchor="middle" x="68.5" y="-58.5" font-family="Helvetica,sans-Serif" font-size="10.00">&lt; T, false &gt; &gt;, Empty &gt;</text>
</a>
</g>
</g>
<!-- Node4&#45;&gt;Node3 -->
<g id="edge3" class="edge">
<title>Node4&#45;&gt;Node3</title>
<path fill="none" stroke="midnightblue" d="M147.09,-72C171.68,-72 198.52,-72 221.87,-72"/>
<polygon fill="midnightblue" stroke="midnightblue" points="147.07,-68.5 137.07,-72 147.07,-75.5 147.07,-68.5"/>
</g>
<!-- Node5&#45;&gt;Node3 -->
<g id="edge5" class="edge">
<title>Node5&#45;&gt;Node3</title>
<path fill="none" stroke="#9a32cd" stroke-dasharray="5,2" d="M497.77,-63.2C495.15,-63.49 492.55,-63.76 490,-64 442.54,-68.5 388.64,-70.48 348.17,-71.34"/>
<polygon fill="#9a32cd" stroke="#9a32cd" points="498.44,-66.64 507.95,-61.98 497.61,-59.69 498.44,-66.64"/>
<text text-anchor="middle" x="428" y="-73" font-family="Helvetica,sans-Serif" font-size="10.00"> child</text>
</g>
<!-- Node6 -->
<g id="node6" class="node">
<title>Node6</title>
<g id="a_node6"><a xlink:title="STL class.">
<polygon fill="white" stroke="#bfbfbf" points="239,-0.5 239,-19.5 331,-19.5 331,-0.5 239,-0.5"/>
<text text-anchor="middle" x="285" y="-7.5" font-family="Helvetica,sans-Serif" font-size="10.00">std::array&lt; T &gt;</text>
</a>
</g>
</g>
<!-- Node6&#45;&gt;Node5 -->
<g id="edge7" class="edge">
<title>Node6&#45;&gt;Node5</title>
<path fill="none" stroke="orange" stroke-dasharray="5,2" d="M341.27,-8.27C382.67,-8.11 440.46,-10.29 490,-21 506.22,-24.5 523.46,-30.88 537.73,-36.94"/>
<polygon fill="orange" stroke="orange" points="341.08,-4.78 331.11,-8.36 341.14,-11.78 341.08,-4.78"/>
<text text-anchor="start" x="366" y="-35" font-family="Helvetica,sans-Serif" font-size="10.00"> &lt; splay_tree::SplayNode</text>
<text text-anchor="middle" x="428" y="-24" font-family="Helvetica,sans-Serif" font-size="10.00"> *, 2 &gt;</text>
</g>
<!-- Node7 -->
<g id="node7" class="node">
<title>Node7</title>
<g id="a_node7"><a xlink:title=" ">
<polygon fill="white" stroke="#bfbfbf" points="54,-8.5 54,-27.5 83,-27.5 83,-8.5 54,-8.5"/>
<text text-anchor="middle" x="68.5" y="-15.5" font-family="Helvetica,sans-Serif" font-size="10.00">T</text>
</a>
</g>
</g>
<!-- Node7&#45;&gt;Node3 -->
<g id="edge9" class="edge">
<title>Node7&#45;&gt;Node3</title>
<path fill="none" stroke="#9a32cd" stroke-dasharray="5,2" d="M93.21,-23.97C124.5,-31.85 180.68,-45.99 224,-56.89"/>
<polygon fill="#9a32cd" stroke="#9a32cd" points="93.8,-20.51 83.24,-21.46 92.09,-27.3 93.8,-20.51"/>
<text text-anchor="middle" x="179.5" y="-55" font-family="Helvetica,sans-Serif" font-size="10.00"> value</text>
</g>
<!-- Node7&#45;&gt;Node6 -->
<g id="edge8" class="edge">
<title>Node7&#45;&gt;Node6</title>
<path fill="none" stroke="#9a32cd" stroke-dasharray="5,2" d="M93.34,-16.38C110.49,-15.27 134.16,-13.85 155,-13 182.87,-11.86 214.14,-11.12 238.91,-10.66"/>
<polygon fill="#9a32cd" stroke="#9a32cd" points="92.86,-12.9 83.12,-17.06 93.32,-19.89 92.86,-12.9"/>
<text text-anchor="middle" x="179.5" y="-16" font-family="Helvetica,sans-Serif" font-size="10.00"> elements</text>
</g>
</g>
</svg>
