<?xml version="1.0" encoding="UTF-8" standalone="no"?>
<!DOCTYPE svg PUBLIC "-//W3C//DTD SVG 1.1//EN"
 "http://www.w3.org/Graphics/SVG/1.1/DTD/svg11.dtd">
<!-- Generated by graphviz version 2.43.0 (0)
 -->
<!-- Title: it_base&lt; T &gt; Pages: 1 -->
<svg width="230pt" height="84pt"
 viewBox="0.00 0.00 230.00 84.00" xmlns="http://www.w3.org/2000/svg" xmlns:xlink="http://www.w3.org/1999/xlink">
<g id="graph0" class="graph" transform="scale(1 1) rotate(0) translate(4 80)">
<title>it_base&lt; T &gt;</title>
<polygon fill="white" stroke="transparent" points="-4,4 -4,-80 226,-80 226,4 -4,4"/>
<!-- Node1 -->
<g id="node1" class="node">
<title>Node1</title>
<g id="a_node1"><a xlink:title=" ">
<polygon fill="#bfbfbf" stroke="black" points="55,-56.5 55,-75.5 135,-75.5 135,-56.5 55,-56.5"/>
<text text-anchor="middle" x="95" y="-63.5" font-family="Helvetica,sans-Serif" font-size="10.00">it_base&lt; T &gt;</text>
</a>
</g>
</g>
<!-- Node2 -->
<g id="node2" class="node">
<title>Node2</title>
<g id="a_node2"><a xlink:href="structint__it.html" target="_top" xlink:title=" ">
<polygon fill="white" stroke="black" points="0,-0.5 0,-19.5 70,-19.5 70,-0.5 0,-0.5"/>
<text text-anchor="middle" x="35" y="-7.5" font-family="Helvetica,sans-Serif" font-size="10.00">int_it&lt; T &gt;</text>
</a>
</g>
</g>
<!-- Node1&#45;&gt;Node2 -->
<g id="edge1" class="edge">
<title>Node1&#45;&gt;Node2</title>
<path fill="none" stroke="midnightblue" d="M77.82,-49.54C67.12,-39.91 53.74,-27.87 44.82,-19.83"/>
<polygon fill="midnightblue" stroke="midnightblue" points="75.59,-52.24 85.36,-56.32 80.27,-47.03 75.59,-52.24"/>
</g>
<!-- Node3 -->
<g id="node3" class="node">
<title>Node3</title>
<g id="a_node3"><a xlink:href="structSplayTree_1_1iterator.html" target="_top" xlink:title=" ">
<polygon fill="white" stroke="black" points="88,-0.5 88,-19.5 222,-19.5 222,-0.5 88,-0.5"/>
<text text-anchor="middle" x="155" y="-7.5" font-family="Helvetica,sans-Serif" font-size="10.00">SplayTree&lt; T &gt;::iterator</text>
</a>
</g>
</g>
<!-- Node1&#45;&gt;Node3 -->
<g id="edge2" class="edge">
<title>Node1&#45;&gt;Node3</title>
<path fill="none" stroke="midnightblue" d="M112.18,-49.54C122.88,-39.91 136.26,-27.87 145.18,-19.83"/>
<polygon fill="midnightblue" stroke="midnightblue" points="109.73,-47.03 104.64,-56.32 114.41,-52.24 109.73,-47.03"/>
</g>
</g>
</svg>
