<?xml version="1.0" encoding="UTF-8" standalone="no"?>
<!DOCTYPE svg PUBLIC "-//W3C//DTD SVG 1.1//EN"
 "http://www.w3.org/Graphics/SVG/1.1/DTD/svg11.dtd">
<!-- Generated by graphviz version 2.43.0 (0)
 -->
<!-- Title: segment_tree::SegmentTree&lt; T, Query, Update, has_lazy, has_ptr, has_pers, base &gt;::NodeExp Pages: 1 -->
<svg width="527pt" height="61pt"
 viewBox="0.00 0.00 527.00 61.00" xmlns="http://www.w3.org/2000/svg" xmlns:xlink="http://www.w3.org/1999/xlink">
<g id="graph0" class="graph" transform="scale(1 1) rotate(0) translate(4 57)">
<title>segment_tree::SegmentTree&lt; T, Query, Update, has_lazy, has_ptr, has_pers, base &gt;::NodeExp</title>
<polygon fill="white" stroke="transparent" points="-4,4 -4,-57 523,-57 523,4 -4,4"/>
<!-- Node1 -->
<g id="node1" class="node">
<title>Node1</title>
<g id="a_node1"><a xlink:title=" ">
<polygon fill="#bfbfbf" stroke="black" points="365,-0.5 365,-52.5 519,-52.5 519,-0.5 365,-0.5"/>
<text text-anchor="start" x="373" y="-40.5" font-family="Helvetica,sans-Serif" font-size="10.00">segment_tree::SegmentTree</text>
<text text-anchor="start" x="373" y="-29.5" font-family="Helvetica,sans-Serif" font-size="10.00">&lt; T, Query, Update, has</text>
<text text-anchor="start" x="373" y="-18.5" font-family="Helvetica,sans-Serif" font-size="10.00">_lazy, has_ptr, has_pers,</text>
<text text-anchor="middle" x="442" y="-7.5" font-family="Helvetica,sans-Serif" font-size="10.00"> base &gt;::NodeExp</text>
</a>
</g>
</g>
<!-- Node2 -->
<g id="node2" class="node">
<title>Node2</title>
<g id="a_node2"><a xlink:href="structsegment__tree_1_1SegmentTree_1_1NodeCore.html" target="_top" xlink:title=" ">
<polygon fill="white" stroke="black" points="175,-0.5 175,-52.5 329,-52.5 329,-0.5 175,-0.5"/>
<text text-anchor="start" x="183" y="-40.5" font-family="Helvetica,sans-Serif" font-size="10.00">segment_tree::SegmentTree</text>
<text text-anchor="start" x="183" y="-29.5" font-family="Helvetica,sans-Serif" font-size="10.00">&lt; T, Query, Update, has</text>
<text text-anchor="start" x="183" y="-18.5" font-family="Helvetica,sans-Serif" font-size="10.00">_lazy, has_ptr, has_pers,</text>
<text text-anchor="middle" x="252" y="-7.5" font-family="Helvetica,sans-Serif" font-size="10.00"> base &gt;::NodeCore</text>
</a>
</g>
</g>
<!-- Node2&#45;&gt;Node1 -->
<g id="edge1" class="edge">
<title>Node2&#45;&gt;Node1</title>
<path fill="none" stroke="midnightblue" d="M339.42,-26.5C347.86,-26.5 356.37,-26.5 364.7,-26.5"/>
<polygon fill="midnightblue" stroke="midnightblue" points="339.2,-23 329.2,-26.5 339.2,-30 339.2,-23"/>
</g>
<!-- Node3 -->
<g id="node3" class="node">
<title>Node3</title>
<g id="a_node3"><a xlink:title=" ">
<polygon fill="white" stroke="#bfbfbf" points="0,-11.5 0,-41.5 139,-41.5 139,-11.5 0,-11.5"/>
<text text-anchor="start" x="8" y="-29.5" font-family="Helvetica,sans-Serif" font-size="10.00">conditional_t&lt; has</text>
<text text-anchor="middle" x="69.5" y="-18.5" font-family="Helvetica,sans-Serif" font-size="10.00">_lazy, LazyPart, Empty &gt;</text>
</a>
</g>
</g>
<!-- Node3&#45;&gt;Node2 -->
<g id="edge2" class="edge">
<title>Node3&#45;&gt;Node2</title>
<path fill="none" stroke="midnightblue" d="M149.47,-26.5C157.92,-26.5 166.5,-26.5 174.91,-26.5"/>
<polygon fill="midnightblue" stroke="midnightblue" points="149.25,-23 139.25,-26.5 149.25,-30 149.25,-23"/>
</g>
</g>
</svg>
