<?xml version="1.0" encoding="UTF-8" standalone="no"?>
<!DOCTYPE svg PUBLIC "-//W3C//DTD SVG 1.1//EN"
 "http://www.w3.org/Graphics/SVG/1.1/DTD/svg11.dtd">
<!-- Generated by graphviz version 2.43.0 (0)
 -->
<!-- Title: graph_theory::GraphAdj::add_edge Pages: 1 -->
<!--zoomable 364 -->
<svg id="main" version="1.1" xmlns="http://www.w3.org/2000/svg" xmlns:xlink="http://www.w3.org/1999/xlink" xml:space="preserve" onload="init(evt)">
<style type="text/css"><![CDATA[
.edge:hover path { stroke: red; }
.edge:hover polygon { stroke: red; fill: red; }
]]></style>
<script type="text/javascript"><![CDATA[
var edges = document.getElementsByTagName('g');
if (edges && edges.length) {
  for (var i=0;i<edges.length;i++) {
    if (edges[i].id.substr(0,4)=='edge') {
      edges[i].setAttribute('class','edge');
    }
  }
}
]]></script>
        <defs>
                <circle id="rim" cx="0" cy="0" r="7"/>
                <circle id="rim2" cx="0" cy="0" r="3.5"/>
                <g id="zoomPlus">
                        <use xlink:href="#rim" fill="#404040">
                                <set attributeName="fill" to="#808080" begin="zoomplus.mouseover" end="zoomplus.mouseout"/>
                        </use>
                        <path d="M-4,0h8M0,-4v8" fill="none" stroke="white" stroke-width="1.5" pointer-events="none"/>
                </g>
                <g id="zoomMin">
                        <use xlink:href="#rim" fill="#404040">
                                <set attributeName="fill" to="#808080" begin="zoomminus.mouseover" end="zoomminus.mouseout"/>
                        </use>
                        <path d="M-4,0h8" fill="none" stroke="white" stroke-width="1.5" pointer-events="none"/>
                </g>
                <g id="dirArrow">
                        <path fill="none" stroke="white" stroke-width="1.5" d="M0,-3.0v7 M-2.5,-0.5L0,-3.0L2.5,-0.5"/>
                </g>
               <g id="resetDef">
                       <use xlink:href="#rim2" fill="#404040">
                               <set attributeName="fill" to="#808080" begin="reset.mouseover" end="reset.mouseout"/>
                       </use>
               </g>
        </defs>

<script type="text/javascript">
var viewWidth = 789;
var viewHeight = 364;
var sectionId = 'dynsection-2';
</script>
<script xlink:href="svgpan.js"/>
<svg id="graph" class="graph">
<g id="viewport">
<title>graph_theory::GraphAdj::add_edge</title>
<polygon fill="white" stroke="transparent" points="-4,4 -4,-360.26 785,-360.26 785,4 -4,4"/>
<!-- Node1 -->
<g id="node1" class="node">
<title>Node1</title>
<g id="a_node1"><a xlink:title=" ">
<polygon fill="#bfbfbf" stroke="black" points="650,-145.76 650,-175.76 781,-175.76 781,-145.76 650,-145.76"/>
<text text-anchor="start" x="658" y="-163.76" font-family="Helvetica,sans-Serif" font-size="10.00">graph_theory::GraphAdj</text>
<text text-anchor="middle" x="715.5" y="-152.76" font-family="Helvetica,sans-Serif" font-size="10.00">::add_edge</text>
</a>
</g>
</g>
<!-- Node2 -->
<g id="node2" class="node">
<title>Node2</title>
<g id="a_node2"><a xlink:href="biconnected_8hpp.html#a789f23d7fc22d09960694892eeb41223" target="_top" xlink:title="Finds biconnected components of graph using ear decompositions.">
<polygon fill="white" stroke="black" points="500,-151.26 500,-170.26 597,-170.26 597,-151.26 500,-151.26"/>
<text text-anchor="middle" x="548.5" y="-158.26" font-family="Helvetica,sans-Serif" font-size="10.00">biconnected_ear</text>
</a>
</g>
</g>
<!-- Node1&#45;&gt;Node2 -->
<g id="edge1" class="edge">
<title>Node1&#45;&gt;Node2</title>
<path fill="none" stroke="midnightblue" d="M639.4,-160.76C625.05,-160.76 610.41,-160.76 597.22,-160.76"/>
<polygon fill="midnightblue" stroke="midnightblue" points="639.76,-164.26 649.76,-160.76 639.76,-157.26 639.76,-164.26"/>
</g>
<!-- Node7 -->
<g id="node7" class="node">
<title>Node7</title>
<g id="a_node7"><a xlink:href="structgraph__theory_1_1GraphAdj.html#a63eca6a610102ccb3d716c5a9ac88f08" target="_top" xlink:title=" ">
<polygon fill="white" stroke="black" points="483,-227.76 483,-257.76 614,-257.76 614,-227.76 483,-227.76"/>
<text text-anchor="start" x="491" y="-245.76" font-family="Helvetica,sans-Serif" font-size="10.00">graph_theory::GraphAdj</text>
<text text-anchor="middle" x="548.5" y="-234.76" font-family="Helvetica,sans-Serif" font-size="10.00">::read</text>
</a>
</g>
</g>
<!-- Node1&#45;&gt;Node7 -->
<g id="edge6" class="edge">
<title>Node1&#45;&gt;Node7</title>
<path fill="none" stroke="midnightblue" d="M681.54,-181.07C662.23,-192.56 637.16,-206.77 614,-217.76 606.73,-221.2 598.85,-224.56 591.17,-227.64"/>
<polygon fill="midnightblue" stroke="midnightblue" points="683.48,-183.99 690.25,-175.84 679.88,-177.99 683.48,-183.99"/>
</g>
<!-- Node9 -->
<g id="node9" class="node">
<title>Node9</title>
<g id="a_node9"><a xlink:href="namespacegraph__theory_1_1test.html#afca7670537e2da47c79f8e3602e96c2c" target="_top" xlink:title=" ">
<polygon fill="white" stroke="black" points="330.5,-110.76 330.5,-140.76 435.5,-140.76 435.5,-110.76 330.5,-110.76"/>
<text text-anchor="start" x="338.5" y="-128.76" font-family="Helvetica,sans-Serif" font-size="10.00">graph_theory::test</text>
<text text-anchor="middle" x="383" y="-117.76" font-family="Helvetica,sans-Serif" font-size="10.00">::test_add_edge</text>
</a>
</g>
</g>
<!-- Node1&#45;&gt;Node9 -->
<g id="edge8" class="edge">
<title>Node1&#45;&gt;Node9</title>
<path fill="none" stroke="midnightblue" d="M639.71,-145.62C631.06,-144.16 622.35,-142.83 614,-141.76 553.06,-133.9 482.51,-129.72 435.78,-127.62"/>
<polygon fill="midnightblue" stroke="midnightblue" points="639.35,-149.11 649.8,-147.37 640.55,-142.21 639.35,-149.11"/>
</g>
<!-- Node10 -->
<g id="node10" class="node">
<title>Node10</title>
<g id="a_node10"><a xlink:href="namespacegraph__theory_1_1test.html#a89fa4a3244eff73fe109343d7e132c43" target="_top" xlink:title=" ">
<polygon fill="white" stroke="black" points="330.5,-61.76 330.5,-91.76 435.5,-91.76 435.5,-61.76 330.5,-61.76"/>
<text text-anchor="start" x="338.5" y="-79.76" font-family="Helvetica,sans-Serif" font-size="10.00">graph_theory::test</text>
<text text-anchor="middle" x="383" y="-68.76" font-family="Helvetica,sans-Serif" font-size="10.00">::test_BFS</text>
</a>
</g>
</g>
<!-- Node1&#45;&gt;Node10 -->
<g id="edge10" class="edge">
<title>Node1&#45;&gt;Node10</title>
<path fill="none" stroke="midnightblue" d="M663.68,-142.33C647.87,-136.93 630.32,-131.28 614,-126.76 553.35,-109.96 482.44,-95.28 435.56,-86.25"/>
<polygon fill="midnightblue" stroke="midnightblue" points="662.67,-145.68 673.26,-145.64 664.95,-139.07 662.67,-145.68"/>
</g>
<!-- Node11 -->
<g id="node11" class="node">
<title>Node11</title>
<g id="a_node11"><a xlink:href="test__centroid_8hpp.html#a1f3c802afdfa77c5389c557f5284a486" target="_top" xlink:title=" ">
<polygon fill="white" stroke="black" points="320.5,-23.26 320.5,-42.26 445.5,-42.26 445.5,-23.26 320.5,-23.26"/>
<text text-anchor="middle" x="383" y="-30.26" font-family="Helvetica,sans-Serif" font-size="10.00">test_centroid_decomp</text>
</a>
</g>
</g>
<!-- Node1&#45;&gt;Node11 -->
<g id="edge12" class="edge">
<title>Node1&#45;&gt;Node11</title>
<path fill="none" stroke="midnightblue" d="M688.31,-139.37C668.85,-124.42 641.08,-105.02 614,-92.76 558.36,-67.57 490.18,-51.45 442.56,-42.34"/>
<polygon fill="midnightblue" stroke="midnightblue" points="686.34,-142.28 696.38,-145.68 690.65,-136.76 686.34,-142.28"/>
</g>
<!-- Node12 -->
<g id="node12" class="node">
<title>Node12</title>
<g id="a_node12"><a xlink:href="namespacegraph__theory_1_1bipartite_1_1test.html#a7e5ad591c1ee6db41745438d98b39825" target="_top" xlink:title=" ">
<polygon fill="white" stroke="black" points="484.5,-276.76 484.5,-306.76 612.5,-306.76 612.5,-276.76 484.5,-276.76"/>
<text text-anchor="start" x="492.5" y="-294.76" font-family="Helvetica,sans-Serif" font-size="10.00">graph_theory::bipartite</text>
<text text-anchor="middle" x="548.5" y="-283.76" font-family="Helvetica,sans-Serif" font-size="10.00">::test::test_color2</text>
</a>
</g>
</g>
<!-- Node1&#45;&gt;Node12 -->
<g id="edge14" class="edge">
<title>Node1&#45;&gt;Node12</title>
<path fill="none" stroke="midnightblue" d="M697.74,-184.16C679.53,-208.09 648.41,-244.89 614,-267.76 608.92,-271.13 603.31,-274.11 597.58,-276.72"/>
<polygon fill="midnightblue" stroke="midnightblue" points="700.67,-186.08 703.85,-175.98 695.06,-181.9 700.67,-186.08"/>
</g>
<!-- Node14 -->
<g id="node14" class="node">
<title>Node14</title>
<g id="a_node14"><a xlink:href="namespacegraph__draw_1_1test.html#a037737d6386f4405a42dc842eb4d7436" target="_top" xlink:title=" ">
<polygon fill="white" stroke="black" points="160,-20.76 160,-50.76 283,-50.76 283,-20.76 160,-20.76"/>
<text text-anchor="start" x="168" y="-38.76" font-family="Helvetica,sans-Serif" font-size="10.00">graph_draw::test::test</text>
<text text-anchor="middle" x="221.5" y="-27.76" font-family="Helvetica,sans-Serif" font-size="10.00">_graph_draw</text>
</a>
</g>
</g>
<!-- Node1&#45;&gt;Node14 -->
<g id="edge17" class="edge">
<title>Node1&#45;&gt;Node14</title>
<path fill="none" stroke="midnightblue" d="M700.09,-136.92C682.96,-110.75 651.86,-69.55 614,-47.76 499.62,18.09 450.15,1 319,-13.76 305.85,-15.24 291.88,-17.82 278.78,-20.7"/>
<polygon fill="midnightblue" stroke="midnightblue" points="697.23,-138.95 705.56,-145.5 703.13,-135.18 697.23,-138.95"/>
</g>
<!-- Node15 -->
<g id="node15" class="node">
<title>Node15</title>
<g id="a_node15"><a xlink:href="graph__view_8hpp.html#ac5d2f097a07285733e610a52b16e790b" target="_top" xlink:title=" ">
<polygon fill="white" stroke="black" points="500,-189.26 500,-208.26 597,-208.26 597,-189.26 500,-189.26"/>
<text text-anchor="middle" x="548.5" y="-196.26" font-family="Helvetica,sans-Serif" font-size="10.00">test_graph_view</text>
</a>
</g>
</g>
<!-- Node1&#45;&gt;Node15 -->
<g id="edge19" class="edge">
<title>Node1&#45;&gt;Node15</title>
<path fill="none" stroke="midnightblue" d="M639.89,-177.94C623,-181.83 605.67,-185.82 590.75,-189.26"/>
<polygon fill="midnightblue" stroke="midnightblue" points="640.8,-181.32 649.76,-175.67 639.23,-174.5 640.8,-181.32"/>
</g>
<!-- Node16 -->
<g id="node16" class="node">
<title>Node16</title>
<g id="a_node16"><a xlink:href="namespacegraph__theory_1_1bipartite_1_1test.html#af862fd7b59fb6a9e0a396a5bd8801c3e" target="_top" xlink:title=" ">
<polygon fill="white" stroke="black" points="484,-325.76 484,-355.76 613,-355.76 613,-325.76 484,-325.76"/>
<text text-anchor="start" x="492" y="-343.76" font-family="Helvetica,sans-Serif" font-size="10.00">graph_theory::bipartite</text>
<text text-anchor="middle" x="548.5" y="-332.76" font-family="Helvetica,sans-Serif" font-size="10.00">::test::test_max_match</text>
</a>
</g>
</g>
<!-- Node1&#45;&gt;Node16 -->
<g id="edge21" class="edge">
<title>Node1&#45;&gt;Node16</title>
<path fill="none" stroke="midnightblue" d="M704.74,-185.14C689.95,-219.17 658.78,-280.74 614,-316.76 609.72,-320.2 604.89,-323.18 599.86,-325.76"/>
<polygon fill="midnightblue" stroke="midnightblue" points="707.97,-186.5 708.63,-175.93 701.52,-183.77 707.97,-186.5"/>
</g>
<!-- Node3 -->
<g id="node3" class="node">
<title>Node3</title>
<g id="a_node3"><a xlink:href="test__biconnected_8hpp.html#a07c975aa9b96f7bdb70155ae0c3acd17" target="_top" xlink:title=" ">
<polygon fill="white" stroke="black" points="333,-160.26 333,-179.26 433,-179.26 433,-160.26 333,-160.26"/>
<text text-anchor="middle" x="383" y="-167.26" font-family="Helvetica,sans-Serif" font-size="10.00">test_biconnected</text>
</a>
</g>
</g>
<!-- Node2&#45;&gt;Node3 -->
<g id="edge2" class="edge">
<title>Node2&#45;&gt;Node3</title>
<path fill="none" stroke="midnightblue" d="M489.72,-163.94C471.26,-164.95 451,-166.07 433.21,-167.05"/>
<polygon fill="midnightblue" stroke="midnightblue" points="489.98,-167.43 499.77,-163.38 489.59,-160.44 489.98,-167.43"/>
</g>
<!-- Node4 -->
<g id="node4" class="node">
<title>Node4</title>
<g id="a_node4"><a xlink:href="namespacegraph__theory_1_1test.html#a147e0cf4f86928e4e422c6b9198a2371" target="_top" xlink:title=" ">
<polygon fill="white" stroke="black" points="166,-110.76 166,-140.76 277,-140.76 277,-110.76 166,-110.76"/>
<text text-anchor="start" x="174" y="-128.76" font-family="Helvetica,sans-Serif" font-size="10.00">graph_theory::test</text>
<text text-anchor="middle" x="221.5" y="-117.76" font-family="Helvetica,sans-Serif" font-size="10.00">::test_graph_theory</text>
</a>
</g>
</g>
<!-- Node3&#45;&gt;Node4 -->
<g id="edge3" class="edge">
<title>Node3&#45;&gt;Node4</title>
<path fill="none" stroke="midnightblue" d="M337.63,-157.52C318.88,-152.34 296.85,-146.27 277.11,-140.82"/>
<polygon fill="midnightblue" stroke="midnightblue" points="336.82,-160.92 347.39,-160.21 338.68,-154.18 336.82,-160.92"/>
</g>
<!-- Node5 -->
<g id="node5" class="node">
<title>Node5</title>
<g id="a_node5"><a xlink:href="test_8cpp.html#af095a232149097b5605064623a9345ac" target="_top" xlink:title=" ">
<polygon fill="white" stroke="black" points="77,-50.26 77,-69.26 124,-69.26 124,-50.26 77,-50.26"/>
<text text-anchor="middle" x="100.5" y="-57.26" font-family="Helvetica,sans-Serif" font-size="10.00">main2</text>
</a>
</g>
</g>
<!-- Node4&#45;&gt;Node5 -->
<g id="edge4" class="edge">
<title>Node4&#45;&gt;Node5</title>
<path fill="none" stroke="midnightblue" d="M184.22,-105.63C162.47,-93.57 135.8,-78.78 118.73,-69.31"/>
<polygon fill="midnightblue" stroke="midnightblue" points="182.76,-108.83 193.2,-110.62 186.15,-102.7 182.76,-108.83"/>
</g>
<!-- Node6 -->
<g id="node6" class="node">
<title>Node6</title>
<g id="a_node6"><a xlink:href="main_8hpp.html#a0ddf1224851353fc92bfbff6f499fa97" target="_top" xlink:title=" ">
<polygon fill="white" stroke="black" points="0,-50.26 0,-69.26 41,-69.26 41,-50.26 0,-50.26"/>
<text text-anchor="middle" x="20.5" y="-57.26" font-family="Helvetica,sans-Serif" font-size="10.00">main</text>
</a>
</g>
</g>
<!-- Node5&#45;&gt;Node6 -->
<g id="edge5" class="edge">
<title>Node5&#45;&gt;Node6</title>
<path fill="none" stroke="midnightblue" d="M66.66,-59.76C57.96,-59.76 48.84,-59.76 41.1,-59.76"/>
<polygon fill="midnightblue" stroke="midnightblue" points="66.94,-63.26 76.94,-59.76 66.94,-56.26 66.94,-63.26"/>
</g>
<!-- Node8 -->
<g id="node8" class="node">
<title>Node8</title>
<g id="a_node8"><a xlink:href="namespacegraph__theory.html#aa68bcc78bd4d2bbd33ce272bbb2d5f33" target="_top" xlink:title="Reads 1&#45;indexed list of edges into graph g.">
<polygon fill="white" stroke="black" points="319,-236.26 319,-255.26 447,-255.26 447,-236.26 319,-236.26"/>
<text text-anchor="middle" x="383" y="-243.26" font-family="Helvetica,sans-Serif" font-size="10.00">graph_theory::graph_in</text>
</a>
</g>
</g>
<!-- Node7&#45;&gt;Node8 -->
<g id="edge7" class="edge">
<title>Node7&#45;&gt;Node8</title>
<path fill="none" stroke="midnightblue" d="M472.84,-244.13C464.23,-244.28 455.52,-244.44 447.08,-244.6"/>
<polygon fill="midnightblue" stroke="midnightblue" points="472.95,-247.63 482.88,-243.94 472.82,-240.63 472.95,-247.63"/>
</g>
<!-- Node9&#45;&gt;Node4 -->
<g id="edge9" class="edge">
<title>Node9&#45;&gt;Node4</title>
<path fill="none" stroke="midnightblue" d="M320.05,-125.76C305.87,-125.76 290.89,-125.76 277.04,-125.76"/>
<polygon fill="midnightblue" stroke="midnightblue" points="320.21,-129.26 330.21,-125.76 320.21,-122.26 320.21,-129.26"/>
</g>
<!-- Node10&#45;&gt;Node4 -->
<g id="edge11" class="edge">
<title>Node10&#45;&gt;Node4</title>
<path fill="none" stroke="midnightblue" d="M323.04,-94.87C306.08,-100.08 287.78,-105.7 271.49,-110.71"/>
<polygon fill="midnightblue" stroke="midnightblue" points="324.31,-98.14 332.84,-91.86 322.26,-91.45 324.31,-98.14"/>
</g>
<!-- Node11&#45;&gt;Node4 -->
<g id="edge13" class="edge">
<title>Node11&#45;&gt;Node4</title>
<path fill="none" stroke="midnightblue" d="M332.73,-45.71C328,-47.52 323.35,-49.53 319,-51.76 287.81,-67.74 256.49,-94.11 238.33,-110.68"/>
<polygon fill="midnightblue" stroke="midnightblue" points="334.22,-48.9 342.49,-42.28 331.9,-42.29 334.22,-48.9"/>
</g>
<!-- Node13 -->
<g id="node13" class="node">
<title>Node13</title>
<g id="a_node13"><a xlink:href="namespacegraph__theory_1_1bipartite_1_1test.html#aab2e93dd92c799618ead37ec7b1d93b9" target="_top" xlink:title=" ">
<polygon fill="white" stroke="black" points="319,-276.76 319,-306.76 447,-306.76 447,-276.76 319,-276.76"/>
<text text-anchor="start" x="327" y="-294.76" font-family="Helvetica,sans-Serif" font-size="10.00">graph_theory::bipartite</text>
<text text-anchor="middle" x="383" y="-283.76" font-family="Helvetica,sans-Serif" font-size="10.00">::test::test_bipartite</text>
</a>
</g>
</g>
<!-- Node12&#45;&gt;Node13 -->
<g id="edge15" class="edge">
<title>Node12&#45;&gt;Node13</title>
<path fill="none" stroke="midnightblue" d="M474.15,-291.76C465.11,-291.76 455.92,-291.76 447.05,-291.76"/>
<polygon fill="midnightblue" stroke="midnightblue" points="474.29,-295.26 484.29,-291.76 474.29,-288.26 474.29,-295.26"/>
</g>
<!-- Node13&#45;&gt;Node4 -->
<g id="edge16" class="edge">
<title>Node13&#45;&gt;Node4</title>
<path fill="none" stroke="midnightblue" d="M328.91,-271.71C325.42,-269.58 322.08,-267.27 319,-264.76 275.3,-229.1 242.87,-168.74 229.38,-140.79"/>
<polygon fill="midnightblue" stroke="midnightblue" points="327.37,-274.85 337.82,-276.61 330.75,-268.72 327.37,-274.85"/>
</g>
<!-- Node14&#45;&gt;Node5 -->
<g id="edge18" class="edge">
<title>Node14&#45;&gt;Node5</title>
<path fill="none" stroke="midnightblue" d="M150.15,-49.95C140.83,-51.83 131.88,-53.63 124.25,-55.17"/>
<polygon fill="midnightblue" stroke="midnightblue" points="150.84,-53.38 159.95,-47.97 149.46,-46.51 150.84,-53.38"/>
</g>
<!-- Node15&#45;&gt;Node4 -->
<g id="edge20" class="edge">
<title>Node15&#45;&gt;Node4</title>
<path fill="none" stroke="midnightblue" d="M489.81,-204.52C442.7,-207.28 375,-206.76 319,-188.76 288.14,-178.84 257.7,-156.24 239.5,-140.99"/>
<polygon fill="midnightblue" stroke="midnightblue" points="490.08,-208.01 499.83,-203.86 489.62,-201.02 490.08,-208.01"/>
</g>
<!-- Node16&#45;&gt;Node13 -->
<g id="edge22" class="edge">
<title>Node16&#45;&gt;Node13</title>
<path fill="none" stroke="midnightblue" d="M487.06,-322.64C469.68,-317.43 450.92,-311.81 434.22,-306.81"/>
<polygon fill="midnightblue" stroke="midnightblue" points="486.53,-326.14 497.11,-325.66 488.54,-319.43 486.53,-326.14"/>
</g>
</g>
</svg>
        <g id="navigator" transform="translate(0 0)" fill="#404254">
                <rect fill="#f2f5e9" fill-opacity="0.5" stroke="#606060" stroke-width=".5" x="0" y="0" width="60" height="60"/>
                <use id="zoomplus" xlink:href="#zoomPlus" x="17" y="9" onmousedown="handleZoom(evt,'in')"/>
                <use id="zoomminus" xlink:href="#zoomMin" x="42" y="9" onmousedown="handleZoom(evt,'out')"/>
                <use id="reset" xlink:href="#resetDef" x="30" y="36" onmousedown="handleReset()"/>
                <g id="arrowUp" xlink:href="#dirArrow" transform="translate(30 24)" onmousedown="handlePan(0,-1)">
                  <use xlink:href="#rim" fill="#404040">
                        <set attributeName="fill" to="#808080" begin="arrowUp.mouseover" end="arrowUp.mouseout"/>
                  </use>
                  <path fill="none" stroke="white" stroke-width="1.5" d="M0,-3.0v7 M-2.5,-0.5L0,-3.0L2.5,-0.5"/>
                </g>
                <g id="arrowRight" xlink:href="#dirArrow" transform="rotate(90) translate(36 -43)" onmousedown="handlePan(1,0)">
                  <use xlink:href="#rim" fill="#404040">
                        <set attributeName="fill" to="#808080" begin="arrowRight.mouseover" end="arrowRight.mouseout"/>
                  </use>
                  <path fill="none" stroke="white" stroke-width="1.5" d="M0,-3.0v7 M-2.5,-0.5L0,-3.0L2.5,-0.5"/>
                </g>
                <g id="arrowDown" xlink:href="#dirArrow" transform="rotate(180) translate(-30 -48)" onmousedown="handlePan(0,1)">
                  <use xlink:href="#rim" fill="#404040">
                        <set attributeName="fill" to="#808080" begin="arrowDown.mouseover" end="arrowDown.mouseout"/>
                  </use>
                  <path fill="none" stroke="white" stroke-width="1.5" d="M0,-3.0v7 M-2.5,-0.5L0,-3.0L2.5,-0.5"/>
                </g>
                <g id="arrowLeft" xlink:href="#dirArrow" transform="rotate(270) translate(-36 17)" onmousedown="handlePan(-1,0)">
                  <use xlink:href="#rim" fill="#404040">
                        <set attributeName="fill" to="#808080" begin="arrowLeft.mouseover" end="arrowLeft.mouseout"/>
                  </use>
                  <path fill="none" stroke="white" stroke-width="1.5" d="M0,-3.0v7 M-2.5,-0.5L0,-3.0L2.5,-0.5"/>
                </g>
        </g>
        <svg viewBox="0 0 15 15" width="100%" height="30px" preserveAspectRatio="xMaxYMin meet">
         <g id="arrow_out" transform="scale(0.3 0.3)">
          <a xlink:href="structgraph__theory_1_1GraphAdj_a1893210e27b58b19ec5cbf36a5aeb951_icgraph_org.svg" target="_base">
           <rect id="button" ry="5" rx="5" y="6" x="6" height="38" width="38"
                fill="#f2f5e9" fill-opacity="0.5" stroke="#606060" stroke-width="1.0"/>
           <path id="arrow"
             d="M 11.500037,31.436501 C 11.940474,20.09759 22.043105,11.32322 32.158766,21.979434 L 37.068811,17.246167 C 37.068811,17.246167 37.088388,32 37.088388,32 L 22.160133,31.978069 C 22.160133,31.978069 26.997745,27.140456 26.997745,27.140456 C 18.528582,18.264221 13.291696,25.230495 11.500037,31.436501 z"
             style="fill:#404040;"/>
          </a>
         </g>
        </svg>
</svg>
