<?xml version="1.0" encoding="UTF-8" standalone="no"?>
<!DOCTYPE svg PUBLIC "-//W3C//DTD SVG 1.1//EN"
 "http://www.w3.org/Graphics/SVG/1.1/DTD/svg11.dtd">
<!-- Generated by graphviz version 2.43.0 (0)
 -->
<!-- Title: SplayTree::splay Pages: 1 -->
<!--zoomable 118 -->
<svg id="main" version="1.1" xmlns="http://www.w3.org/2000/svg" xmlns:xlink="http://www.w3.org/1999/xlink" xml:space="preserve" onload="init(evt)">
<style type="text/css"><![CDATA[
.edge:hover path { stroke: red; }
.edge:hover polygon { stroke: red; fill: red; }
]]></style>
<script type="text/javascript"><![CDATA[
var edges = document.getElementsByTagName('g');
if (edges && edges.length) {
  for (var i=0;i<edges.length;i++) {
    if (edges[i].id.substr(0,4)=='edge') {
      edges[i].setAttribute('class','edge');
    }
  }
}
]]></script>
        <defs>
                <circle id="rim" cx="0" cy="0" r="7"/>
                <circle id="rim2" cx="0" cy="0" r="3.5"/>
                <g id="zoomPlus">
                        <use xlink:href="#rim" fill="#404040">
                                <set attributeName="fill" to="#808080" begin="zoomplus.mouseover" end="zoomplus.mouseout"/>
                        </use>
                        <path d="M-4,0h8M0,-4v8" fill="none" stroke="white" stroke-width="1.5" pointer-events="none"/>
                </g>
                <g id="zoomMin">
                        <use xlink:href="#rim" fill="#404040">
                                <set attributeName="fill" to="#808080" begin="zoomminus.mouseover" end="zoomminus.mouseout"/>
                        </use>
                        <path d="M-4,0h8" fill="none" stroke="white" stroke-width="1.5" pointer-events="none"/>
                </g>
                <g id="dirArrow">
                        <path fill="none" stroke="white" stroke-width="1.5" d="M0,-3.0v7 M-2.5,-0.5L0,-3.0L2.5,-0.5"/>
                </g>
               <g id="resetDef">
                       <use xlink:href="#rim2" fill="#404040">
                               <set attributeName="fill" to="#808080" begin="reset.mouseover" end="reset.mouseout"/>
                       </use>
               </g>
        </defs>

<script type="text/javascript">
var viewWidth = 742;
var viewHeight = 118;
var sectionId = 'dynsection-25';
</script>
<script xlink:href="svgpan.js"/>
<svg id="graph" class="graph">
<g id="viewport">
<title>SplayTree::splay</title>
<polygon fill="white" stroke="transparent" points="-4,4 -4,-113.68 738,-113.68 738,4 -4,4"/>
<!-- Node1 -->
<g id="node1" class="node">
<title>Node1</title>
<g id="a_node1"><a xlink:title=" ">
<polygon fill="#bfbfbf" stroke="black" points="638,-57.5 638,-76.5 734,-76.5 734,-57.5 638,-57.5"/>
<text text-anchor="middle" x="686" y="-64.5" font-family="Helvetica,sans-Serif" font-size="10.00">SplayTree::splay</text>
</a>
</g>
</g>
<!-- Node2 -->
<g id="node2" class="node">
<title>Node2</title>
<g id="a_node2"><a xlink:href="structSplayTree.html#a31e65260a6cc94aab86c6a3def846830" target="_top" xlink:title=" ">
<polygon fill="white" stroke="black" points="377.5,-76.5 377.5,-95.5 474.5,-95.5 474.5,-76.5 377.5,-76.5"/>
<text text-anchor="middle" x="426" y="-83.5" font-family="Helvetica,sans-Serif" font-size="10.00">SplayTree::erase</text>
</a>
</g>
</g>
<!-- Node1&#45;&gt;Node2 -->
<g id="edge1" class="edge">
<title>Node1&#45;&gt;Node2</title>
<path fill="none" stroke="midnightblue" d="M660.76,-81.47C644.71,-90.19 622.84,-100.46 602,-105 552.73,-115.74 494.28,-104.74 458.94,-95.57"/>
<polygon fill="midnightblue" stroke="midnightblue" points="662.48,-84.52 669.49,-76.57 659.06,-78.41 662.48,-84.52"/>
</g>
<!-- Node7 -->
<g id="node7" class="node">
<title>Node7</title>
<g id="a_node7"><a xlink:href="structSplayTree.html#a68ee8070ca751318c345c2ec728b6003" target="_top" xlink:title=" ">
<polygon fill="white" stroke="black" points="377,-38.5 377,-57.5 475,-57.5 475,-38.5 377,-38.5"/>
<text text-anchor="middle" x="426" y="-45.5" font-family="Helvetica,sans-Serif" font-size="10.00">SplayTree::insert</text>
</a>
</g>
</g>
<!-- Node1&#45;&gt;Node7 -->
<g id="edge6" class="edge">
<title>Node1&#45;&gt;Node7</title>
<path fill="none" stroke="midnightblue" d="M627.89,-62.79C582.01,-59.42 518.29,-54.72 475.01,-51.54"/>
<polygon fill="midnightblue" stroke="midnightblue" points="627.75,-66.29 637.98,-63.54 628.26,-59.31 627.75,-66.29"/>
</g>
<!-- Node8 -->
<g id="node8" class="node">
<title>Node8</title>
<g id="a_node8"><a xlink:href="structSplayTree.html#a17f97eb4546fb9a2c182c5f6b2061395" target="_top" xlink:title=" ">
<polygon fill="white" stroke="black" points="512.5,-76.5 512.5,-95.5 600.5,-95.5 600.5,-76.5 512.5,-76.5"/>
<text text-anchor="middle" x="556.5" y="-83.5" font-family="Helvetica,sans-Serif" font-size="10.00">SplayTree::join</text>
</a>
</g>
</g>
<!-- Node1&#45;&gt;Node8 -->
<g id="edge8" class="edge">
<title>Node1&#45;&gt;Node8</title>
<path fill="none" stroke="midnightblue" d="M627.72,-75.54C618.62,-76.89 609.33,-78.28 600.62,-79.57"/>
<polygon fill="midnightblue" stroke="midnightblue" points="628.51,-78.96 637.89,-74.02 627.48,-72.03 628.51,-78.96"/>
</g>
<!-- Node9 -->
<g id="node9" class="node">
<title>Node9</title>
<g id="a_node9"><a xlink:href="structSplayTree.html#a0fce64ec0ca10d1774cd24d4c98edf1c" target="_top" xlink:title=" ">
<polygon fill="white" stroke="black" points="511,-0.5 511,-19.5 602,-19.5 602,-0.5 511,-0.5"/>
<text text-anchor="middle" x="556.5" y="-7.5" font-family="Helvetica,sans-Serif" font-size="10.00">SplayTree::split</text>
</a>
</g>
</g>
<!-- Node1&#45;&gt;Node9 -->
<g id="edge10" class="edge">
<title>Node1&#45;&gt;Node9</title>
<path fill="none" stroke="midnightblue" d="M654.23,-53.24C630.93,-42.83 599.53,-28.79 578.91,-19.57"/>
<polygon fill="midnightblue" stroke="midnightblue" points="653.1,-56.57 663.66,-57.46 655.96,-50.18 653.1,-56.57"/>
</g>
<!-- Node3 -->
<g id="node3" class="node">
<title>Node3</title>
<g id="a_node3"><a xlink:href="splay__tree_8hpp.html#a453119e81bfa8f9fc72104639b907497" target="_top" xlink:title=" ">
<polygon fill="white" stroke="black" points="249,-57.5 249,-76.5 341,-76.5 341,-57.5 249,-57.5"/>
<text text-anchor="middle" x="295" y="-64.5" font-family="Helvetica,sans-Serif" font-size="10.00">test_splay_tree</text>
</a>
</g>
</g>
<!-- Node2&#45;&gt;Node3 -->
<g id="edge2" class="edge">
<title>Node2&#45;&gt;Node3</title>
<path fill="none" stroke="midnightblue" d="M367.25,-77.49C358.56,-76.21 349.71,-74.91 341.33,-73.68"/>
<polygon fill="midnightblue" stroke="midnightblue" points="366.93,-80.98 377.33,-78.98 367.95,-74.06 366.93,-80.98"/>
</g>
<!-- Node4 -->
<g id="node4" class="node">
<title>Node4</title>
<g id="a_node4"><a xlink:href="test_8cpp.html#aa1c715cac916839a95e25b65b4071c4a" target="_top" xlink:title=" ">
<polygon fill="white" stroke="black" points="160,-57.5 160,-76.5 213,-76.5 213,-57.5 160,-57.5"/>
<text text-anchor="middle" x="186.5" y="-64.5" font-family="Helvetica,sans-Serif" font-size="10.00">test_all</text>
</a>
</g>
</g>
<!-- Node3&#45;&gt;Node4 -->
<g id="edge3" class="edge">
<title>Node3&#45;&gt;Node4</title>
<path fill="none" stroke="midnightblue" d="M238.71,-67C229.73,-67 220.82,-67 213.02,-67"/>
<polygon fill="midnightblue" stroke="midnightblue" points="238.83,-70.5 248.83,-67 238.83,-63.5 238.83,-70.5"/>
</g>
<!-- Node5 -->
<g id="node5" class="node">
<title>Node5</title>
<g id="a_node5"><a xlink:href="test_8cpp.html#af095a232149097b5605064623a9345ac" target="_top" xlink:title=" ">
<polygon fill="white" stroke="black" points="77,-57.5 77,-76.5 124,-76.5 124,-57.5 77,-57.5"/>
<text text-anchor="middle" x="100.5" y="-64.5" font-family="Helvetica,sans-Serif" font-size="10.00">main2</text>
</a>
</g>
</g>
<!-- Node4&#45;&gt;Node5 -->
<g id="edge4" class="edge">
<title>Node4&#45;&gt;Node5</title>
<path fill="none" stroke="midnightblue" d="M149.59,-67C140.96,-67 131.99,-67 124.16,-67"/>
<polygon fill="midnightblue" stroke="midnightblue" points="149.84,-70.5 159.84,-67 149.84,-63.5 149.84,-70.5"/>
</g>
<!-- Node6 -->
<g id="node6" class="node">
<title>Node6</title>
<g id="a_node6"><a xlink:href="main_8hpp.html#a0ddf1224851353fc92bfbff6f499fa97" target="_top" xlink:title=" ">
<polygon fill="white" stroke="black" points="0,-57.5 0,-76.5 41,-76.5 41,-57.5 0,-57.5"/>
<text text-anchor="middle" x="20.5" y="-64.5" font-family="Helvetica,sans-Serif" font-size="10.00">main</text>
</a>
</g>
</g>
<!-- Node5&#45;&gt;Node6 -->
<g id="edge5" class="edge">
<title>Node5&#45;&gt;Node6</title>
<path fill="none" stroke="midnightblue" d="M66.66,-67C57.96,-67 48.84,-67 41.1,-67"/>
<polygon fill="midnightblue" stroke="midnightblue" points="66.94,-70.5 76.94,-67 66.94,-63.5 66.94,-70.5"/>
</g>
<!-- Node7&#45;&gt;Node3 -->
<g id="edge7" class="edge">
<title>Node7&#45;&gt;Node3</title>
<path fill="none" stroke="midnightblue" d="M366.91,-56.56C358.24,-57.83 349.42,-59.13 341.08,-60.36"/>
<polygon fill="midnightblue" stroke="midnightblue" points="367.58,-59.99 376.97,-55.07 366.56,-53.07 367.58,-59.99"/>
</g>
<!-- Node8&#45;&gt;Node2 -->
<g id="edge9" class="edge">
<title>Node8&#45;&gt;Node2</title>
<path fill="none" stroke="midnightblue" d="M502.21,-86C493.08,-86 483.65,-86 474.67,-86"/>
<polygon fill="midnightblue" stroke="midnightblue" points="502.35,-89.5 512.35,-86 502.35,-82.5 502.35,-89.5"/>
</g>
</g>
</svg>
        <g id="navigator" transform="translate(0 0)" fill="#404254">
                <rect fill="#f2f5e9" fill-opacity="0.5" stroke="#606060" stroke-width=".5" x="0" y="0" width="60" height="60"/>
                <use id="zoomplus" xlink:href="#zoomPlus" x="17" y="9" onmousedown="handleZoom(evt,'in')"/>
                <use id="zoomminus" xlink:href="#zoomMin" x="42" y="9" onmousedown="handleZoom(evt,'out')"/>
                <use id="reset" xlink:href="#resetDef" x="30" y="36" onmousedown="handleReset()"/>
                <g id="arrowUp" xlink:href="#dirArrow" transform="translate(30 24)" onmousedown="handlePan(0,-1)">
                  <use xlink:href="#rim" fill="#404040">
                        <set attributeName="fill" to="#808080" begin="arrowUp.mouseover" end="arrowUp.mouseout"/>
                  </use>
                  <path fill="none" stroke="white" stroke-width="1.5" d="M0,-3.0v7 M-2.5,-0.5L0,-3.0L2.5,-0.5"/>
                </g>
                <g id="arrowRight" xlink:href="#dirArrow" transform="rotate(90) translate(36 -43)" onmousedown="handlePan(1,0)">
                  <use xlink:href="#rim" fill="#404040">
                        <set attributeName="fill" to="#808080" begin="arrowRight.mouseover" end="arrowRight.mouseout"/>
                  </use>
                  <path fill="none" stroke="white" stroke-width="1.5" d="M0,-3.0v7 M-2.5,-0.5L0,-3.0L2.5,-0.5"/>
                </g>
                <g id="arrowDown" xlink:href="#dirArrow" transform="rotate(180) translate(-30 -48)" onmousedown="handlePan(0,1)">
                  <use xlink:href="#rim" fill="#404040">
                        <set attributeName="fill" to="#808080" begin="arrowDown.mouseover" end="arrowDown.mouseout"/>
                  </use>
                  <path fill="none" stroke="white" stroke-width="1.5" d="M0,-3.0v7 M-2.5,-0.5L0,-3.0L2.5,-0.5"/>
                </g>
                <g id="arrowLeft" xlink:href="#dirArrow" transform="rotate(270) translate(-36 17)" onmousedown="handlePan(-1,0)">
                  <use xlink:href="#rim" fill="#404040">
                        <set attributeName="fill" to="#808080" begin="arrowLeft.mouseover" end="arrowLeft.mouseout"/>
                  </use>
                  <path fill="none" stroke="white" stroke-width="1.5" d="M0,-3.0v7 M-2.5,-0.5L0,-3.0L2.5,-0.5"/>
                </g>
        </g>
        <svg viewBox="0 0 15 15" width="100%" height="30px" preserveAspectRatio="xMaxYMin meet">
         <g id="arrow_out" transform="scale(0.3 0.3)">
          <a xlink:href="structSplayTree_a88e940e01fba29d4f1eec8b8b5fb2cea_icgraph_org.svg" target="_base">
           <rect id="button" ry="5" rx="5" y="6" x="6" height="38" width="38"
                fill="#f2f5e9" fill-opacity="0.5" stroke="#606060" stroke-width="1.0"/>
           <path id="arrow"
             d="M 11.500037,31.436501 C 11.940474,20.09759 22.043105,11.32322 32.158766,21.979434 L 37.068811,17.246167 C 37.068811,17.246167 37.088388,32 37.088388,32 L 22.160133,31.978069 C 22.160133,31.978069 26.997745,27.140456 26.997745,27.140456 C 18.528582,18.264221 13.291696,25.230495 11.500037,31.436501 z"
             style="fill:#404040;"/>
          </a>
         </g>
        </svg>
</svg>
