<?xml version="1.0" encoding="UTF-8" standalone="no"?>
<!DOCTYPE svg PUBLIC "-//W3C//DTD SVG 1.1//EN"
 "http://www.w3.org/Graphics/SVG/1.1/DTD/svg11.dtd">
<!-- Generated by graphviz version 2.43.0 (0)
 -->
<!-- Title: string_tools::Trie::link Pages: 1 -->
<svg width="392pt" height="57pt"
 viewBox="0.00 0.00 392.00 57.00" xmlns="http://www.w3.org/2000/svg" xmlns:xlink="http://www.w3.org/1999/xlink">
<g id="graph0" class="graph" transform="scale(1 1) rotate(0) translate(4 53)">
<title>string_tools::Trie::link</title>
<polygon fill="white" stroke="transparent" points="-4,4 -4,-53 388,-53 388,4 -4,4"/>
<!-- Node1 -->
<g id="node1" class="node">
<title>Node1</title>
<g id="a_node1"><a xlink:title="returns the suffix link">
<polygon fill="#bfbfbf" stroke="black" points="0,-0.5 0,-30.5 98,-30.5 98,-0.5 0,-0.5"/>
<text text-anchor="start" x="8" y="-18.5" font-family="Helvetica,sans-Serif" font-size="10.00">string_tools::Trie</text>
<text text-anchor="middle" x="49" y="-7.5" font-family="Helvetica,sans-Serif" font-size="10.00">::link</text>
</a>
</g>
</g>
<!-- Node1&#45;&gt;Node1 -->
<g id="edge5" class="edge">
<title>Node1&#45;&gt;Node1</title>
<path fill="none" stroke="midnightblue" d="M24.25,-30.66C18.29,-40.06 26.54,-49 49,-49 62.69,-49 71.1,-45.68 74.23,-40.96"/>
<polygon fill="midnightblue" stroke="midnightblue" points="77.71,-40.48 73.75,-30.66 70.72,-40.81 77.71,-40.48"/>
</g>
<!-- Node2 -->
<g id="node2" class="node">
<title>Node2</title>
<g id="a_node2"><a xlink:href="structstring__tools_1_1Trie.html#aa30d5277840d084371dcb2193168b4a0" target="_top" xlink:title="Goes to the node for the largest suffix of the current string plus c.">
<polygon fill="white" stroke="black" points="134,-6 134,-25 250,-25 250,-6 134,-6"/>
<text text-anchor="middle" x="192" y="-13" font-family="Helvetica,sans-Serif" font-size="10.00">string_tools::Trie::go</text>
</a>
</g>
</g>
<!-- Node1&#45;&gt;Node2 -->
<g id="edge1" class="edge">
<title>Node1&#45;&gt;Node2</title>
<path fill="none" stroke="midnightblue" d="M98.13,-9.06C106.39,-8.82 115.1,-8.72 123.75,-8.76"/>
<polygon fill="midnightblue" stroke="midnightblue" points="123.81,-12.26 133.84,-8.86 123.88,-5.26 123.81,-12.26"/>
</g>
<!-- Node2&#45;&gt;Node1 -->
<g id="edge3" class="edge">
<title>Node2&#45;&gt;Node1</title>
<path fill="none" stroke="midnightblue" d="M133.84,-22.14C125.42,-22.28 116.73,-22.29 108.28,-22.16"/>
<polygon fill="midnightblue" stroke="midnightblue" points="108.2,-18.66 98.13,-21.94 108.05,-25.66 108.2,-18.66"/>
</g>
<!-- Node2&#45;&gt;Node2 -->
<g id="edge2" class="edge">
<title>Node2&#45;&gt;Node2</title>
<path fill="none" stroke="midnightblue" d="M170.11,-25.26C159.47,-34.07 166.76,-43.5 192,-43.5 208.56,-43.5 217.4,-39.44 218.51,-34.15"/>
<polygon fill="midnightblue" stroke="midnightblue" points="221.6,-32.52 213.89,-25.26 215.39,-35.74 221.6,-32.52"/>
</g>
<!-- Node3 -->
<g id="node3" class="node">
<title>Node3</title>
<g id="a_node3"><a xlink:href="structstring__tools_1_1Trie.html#ad3ba1336804cc5520df5c870e806e26b" target="_top" xlink:title="Returns the child corresponding to the character c.">
<polygon fill="white" stroke="black" points="286,-0.5 286,-30.5 384,-30.5 384,-0.5 286,-0.5"/>
<text text-anchor="start" x="294" y="-18.5" font-family="Helvetica,sans-Serif" font-size="10.00">string_tools::Trie</text>
<text text-anchor="middle" x="335" y="-7.5" font-family="Helvetica,sans-Serif" font-size="10.00">::next</text>
</a>
</g>
</g>
<!-- Node2&#45;&gt;Node3 -->
<g id="edge4" class="edge">
<title>Node2&#45;&gt;Node3</title>
<path fill="none" stroke="midnightblue" d="M250.35,-15.5C258.7,-15.5 267.3,-15.5 275.67,-15.5"/>
<polygon fill="midnightblue" stroke="midnightblue" points="275.72,-19 285.72,-15.5 275.72,-12 275.72,-19"/>
</g>
</g>
</svg>
