<?xml version="1.0" encoding="UTF-8" standalone="no"?>
<!DOCTYPE svg PUBLIC "-//W3C//DTD SVG 1.1//EN"
 "http://www.w3.org/Graphics/SVG/1.1/DTD/svg11.dtd">
<!-- Generated by graphviz version 2.43.0 (0)
 -->
<!-- Title: SplayTree::side Pages: 1 -->
<svg width="1051pt" height="142pt"
 viewBox="0.00 0.00 1051.00 142.00" xmlns="http://www.w3.org/2000/svg" xmlns:xlink="http://www.w3.org/1999/xlink">
<g id="graph0" class="graph" transform="scale(1 1) rotate(0) translate(4 138)">
<title>SplayTree::side</title>
<polygon fill="white" stroke="transparent" points="-4,4 -4,-138 1047,-138 1047,4 -4,4"/>
<!-- Node1 -->
<g id="node1" class="node">
<title>Node1</title>
<g id="a_node1"><a xlink:title=" ">
<polygon fill="#bfbfbf" stroke="black" points="953,-76.5 953,-95.5 1043,-95.5 1043,-76.5 953,-76.5"/>
<text text-anchor="middle" x="998" y="-83.5" font-family="Helvetica,sans-Serif" font-size="10.00">SplayTree::side</text>
</a>
</g>
</g>
<!-- Node2 -->
<g id="node2" class="node">
<title>Node2</title>
<g id="a_node2"><a xlink:href="structSplayTree.html#a8410ea1b66aeee0e07f11ec02dae2fa6" target="_top" xlink:title=" ">
<polygon fill="white" stroke="black" points="816,-114.5 816,-133.5 917,-133.5 917,-114.5 816,-114.5"/>
<text text-anchor="middle" x="866.5" y="-121.5" font-family="Helvetica,sans-Serif" font-size="10.00">SplayTree::attach</text>
</a>
</g>
</g>
<!-- Node1&#45;&gt;Node2 -->
<g id="edge1" class="edge">
<title>Node1&#45;&gt;Node2</title>
<path fill="none" stroke="midnightblue" d="M954.28,-98.54C936.66,-103.7 916.58,-109.6 900.17,-114.41"/>
<polygon fill="midnightblue" stroke="midnightblue" points="955.71,-101.76 964.32,-95.59 953.74,-95.05 955.71,-101.76"/>
</g>
<!-- Node3 -->
<g id="node3" class="node">
<title>Node3</title>
<g id="a_node3"><a xlink:href="structSplayTree.html#a167b770118895382687c93f9715a6879" target="_top" xlink:title=" ">
<polygon fill="white" stroke="black" points="681,-76.5 681,-95.5 780,-95.5 780,-76.5 681,-76.5"/>
<text text-anchor="middle" x="730.5" y="-83.5" font-family="Helvetica,sans-Serif" font-size="10.00">SplayTree::rotate</text>
</a>
</g>
</g>
<!-- Node1&#45;&gt;Node3 -->
<g id="edge13" class="edge">
<title>Node1&#45;&gt;Node3</title>
<path fill="none" stroke="midnightblue" d="M942.72,-86C895.02,-86 826.23,-86 780.25,-86"/>
<polygon fill="midnightblue" stroke="midnightblue" points="942.86,-89.5 952.86,-86 942.86,-82.5 942.86,-89.5"/>
</g>
<!-- Node4 -->
<g id="node4" class="node">
<title>Node4</title>
<g id="a_node4"><a xlink:href="structSplayTree.html#a88e940e01fba29d4f1eec8b8b5fb2cea" target="_top" xlink:title=" ">
<polygon fill="white" stroke="black" points="549,-57.5 549,-76.5 645,-76.5 645,-57.5 549,-57.5"/>
<text text-anchor="middle" x="597" y="-64.5" font-family="Helvetica,sans-Serif" font-size="10.00">SplayTree::splay</text>
</a>
</g>
</g>
<!-- Node1&#45;&gt;Node4 -->
<g id="edge14" class="edge">
<title>Node1&#45;&gt;Node4</title>
<path fill="none" stroke="midnightblue" d="M942.45,-79.89C898.62,-75.31 835.44,-69.42 780,-67 734.23,-65 681.92,-65.27 645.16,-65.87"/>
<polygon fill="midnightblue" stroke="midnightblue" points="942.29,-83.4 952.61,-80.97 943.03,-76.44 942.29,-83.4"/>
</g>
<!-- Node2&#45;&gt;Node3 -->
<g id="edge2" class="edge">
<title>Node2&#45;&gt;Node3</title>
<path fill="none" stroke="midnightblue" d="M822.06,-111.68C803.65,-106.46 782.52,-100.47 765.3,-95.59"/>
<polygon fill="midnightblue" stroke="midnightblue" points="821.11,-115.05 831.69,-114.41 823.02,-108.32 821.11,-115.05"/>
</g>
<!-- Node3&#45;&gt;Node4 -->
<g id="edge3" class="edge">
<title>Node3&#45;&gt;Node4</title>
<path fill="none" stroke="midnightblue" d="M670.88,-77.53C662.25,-76.28 653.44,-75.01 645.08,-73.8"/>
<polygon fill="midnightblue" stroke="midnightblue" points="670.51,-81.01 680.91,-78.98 671.51,-74.08 670.51,-81.01"/>
</g>
<!-- Node5 -->
<g id="node5" class="node">
<title>Node5</title>
<g id="a_node5"><a xlink:href="structSplayTree.html#a31e65260a6cc94aab86c6a3def846830" target="_top" xlink:title=" ">
<polygon fill="white" stroke="black" points="288.5,-76.5 288.5,-95.5 385.5,-95.5 385.5,-76.5 288.5,-76.5"/>
<text text-anchor="middle" x="337" y="-83.5" font-family="Helvetica,sans-Serif" font-size="10.00">SplayTree::erase</text>
</a>
</g>
</g>
<!-- Node4&#45;&gt;Node5 -->
<g id="edge4" class="edge">
<title>Node4&#45;&gt;Node5</title>
<path fill="none" stroke="midnightblue" d="M571.76,-81.47C555.71,-90.19 533.84,-100.46 513,-105 463.73,-115.74 405.28,-104.74 369.94,-95.57"/>
<polygon fill="midnightblue" stroke="midnightblue" points="573.48,-84.52 580.49,-76.57 570.06,-78.41 573.48,-84.52"/>
</g>
<!-- Node9 -->
<g id="node9" class="node">
<title>Node9</title>
<g id="a_node9"><a xlink:href="structSplayTree.html#a68ee8070ca751318c345c2ec728b6003" target="_top" xlink:title=" ">
<polygon fill="white" stroke="black" points="288,-38.5 288,-57.5 386,-57.5 386,-38.5 288,-38.5"/>
<text text-anchor="middle" x="337" y="-45.5" font-family="Helvetica,sans-Serif" font-size="10.00">SplayTree::insert</text>
</a>
</g>
</g>
<!-- Node4&#45;&gt;Node9 -->
<g id="edge8" class="edge">
<title>Node4&#45;&gt;Node9</title>
<path fill="none" stroke="midnightblue" d="M538.89,-62.79C493.01,-59.42 429.29,-54.72 386.01,-51.54"/>
<polygon fill="midnightblue" stroke="midnightblue" points="538.75,-66.29 548.98,-63.54 539.26,-59.31 538.75,-66.29"/>
</g>
<!-- Node10 -->
<g id="node10" class="node">
<title>Node10</title>
<g id="a_node10"><a xlink:href="structSplayTree.html#a17f97eb4546fb9a2c182c5f6b2061395" target="_top" xlink:title=" ">
<polygon fill="white" stroke="black" points="423.5,-76.5 423.5,-95.5 511.5,-95.5 511.5,-76.5 423.5,-76.5"/>
<text text-anchor="middle" x="467.5" y="-83.5" font-family="Helvetica,sans-Serif" font-size="10.00">SplayTree::join</text>
</a>
</g>
</g>
<!-- Node4&#45;&gt;Node10 -->
<g id="edge10" class="edge">
<title>Node4&#45;&gt;Node10</title>
<path fill="none" stroke="midnightblue" d="M538.72,-75.54C529.62,-76.89 520.33,-78.28 511.62,-79.57"/>
<polygon fill="midnightblue" stroke="midnightblue" points="539.51,-78.96 548.89,-74.02 538.48,-72.03 539.51,-78.96"/>
</g>
<!-- Node11 -->
<g id="node11" class="node">
<title>Node11</title>
<g id="a_node11"><a xlink:href="structSplayTree.html#a0fce64ec0ca10d1774cd24d4c98edf1c" target="_top" xlink:title=" ">
<polygon fill="white" stroke="black" points="422,-0.5 422,-19.5 513,-19.5 513,-0.5 422,-0.5"/>
<text text-anchor="middle" x="467.5" y="-7.5" font-family="Helvetica,sans-Serif" font-size="10.00">SplayTree::split</text>
</a>
</g>
</g>
<!-- Node4&#45;&gt;Node11 -->
<g id="edge12" class="edge">
<title>Node4&#45;&gt;Node11</title>
<path fill="none" stroke="midnightblue" d="M565.23,-53.24C541.93,-42.83 510.53,-28.79 489.91,-19.57"/>
<polygon fill="midnightblue" stroke="midnightblue" points="564.1,-56.57 574.66,-57.46 566.96,-50.18 564.1,-56.57"/>
</g>
<!-- Node6 -->
<g id="node6" class="node">
<title>Node6</title>
<g id="a_node6"><a xlink:href="splay__tree_8hpp.html#a453119e81bfa8f9fc72104639b907497" target="_top" xlink:title=" ">
<polygon fill="white" stroke="black" points="160,-57.5 160,-76.5 252,-76.5 252,-57.5 160,-57.5"/>
<text text-anchor="middle" x="206" y="-64.5" font-family="Helvetica,sans-Serif" font-size="10.00">test_splay_tree</text>
</a>
</g>
</g>
<!-- Node5&#45;&gt;Node6 -->
<g id="edge5" class="edge">
<title>Node5&#45;&gt;Node6</title>
<path fill="none" stroke="midnightblue" d="M278.25,-77.49C269.56,-76.21 260.71,-74.91 252.33,-73.68"/>
<polygon fill="midnightblue" stroke="midnightblue" points="277.93,-80.98 288.33,-78.98 278.95,-74.06 277.93,-80.98"/>
</g>
<!-- Node7 -->
<g id="node7" class="node">
<title>Node7</title>
<g id="a_node7"><a xlink:href="test_8cpp.html#af095a232149097b5605064623a9345ac" target="_top" xlink:title=" ">
<polygon fill="white" stroke="black" points="77,-57.5 77,-76.5 124,-76.5 124,-57.5 77,-57.5"/>
<text text-anchor="middle" x="100.5" y="-64.5" font-family="Helvetica,sans-Serif" font-size="10.00">main2</text>
</a>
</g>
</g>
<!-- Node6&#45;&gt;Node7 -->
<g id="edge6" class="edge">
<title>Node6&#45;&gt;Node7</title>
<path fill="none" stroke="midnightblue" d="M149.66,-67C140.59,-67 131.66,-67 124.01,-67"/>
<polygon fill="midnightblue" stroke="midnightblue" points="149.9,-70.5 159.9,-67 149.9,-63.5 149.9,-70.5"/>
</g>
<!-- Node8 -->
<g id="node8" class="node">
<title>Node8</title>
<g id="a_node8"><a xlink:href="main_8hpp.html#a0ddf1224851353fc92bfbff6f499fa97" target="_top" xlink:title=" ">
<polygon fill="white" stroke="black" points="0,-57.5 0,-76.5 41,-76.5 41,-57.5 0,-57.5"/>
<text text-anchor="middle" x="20.5" y="-64.5" font-family="Helvetica,sans-Serif" font-size="10.00">main</text>
</a>
</g>
</g>
<!-- Node7&#45;&gt;Node8 -->
<g id="edge7" class="edge">
<title>Node7&#45;&gt;Node8</title>
<path fill="none" stroke="midnightblue" d="M66.66,-67C57.96,-67 48.84,-67 41.1,-67"/>
<polygon fill="midnightblue" stroke="midnightblue" points="66.94,-70.5 76.94,-67 66.94,-63.5 66.94,-70.5"/>
</g>
<!-- Node9&#45;&gt;Node6 -->
<g id="edge9" class="edge">
<title>Node9&#45;&gt;Node6</title>
<path fill="none" stroke="midnightblue" d="M277.91,-56.56C269.24,-57.83 260.42,-59.13 252.08,-60.36"/>
<polygon fill="midnightblue" stroke="midnightblue" points="278.58,-59.99 287.97,-55.07 277.56,-53.07 278.58,-59.99"/>
</g>
<!-- Node10&#45;&gt;Node5 -->
<g id="edge11" class="edge">
<title>Node10&#45;&gt;Node5</title>
<path fill="none" stroke="midnightblue" d="M413.21,-86C404.08,-86 394.65,-86 385.67,-86"/>
<polygon fill="midnightblue" stroke="midnightblue" points="413.35,-89.5 423.35,-86 413.35,-82.5 413.35,-89.5"/>
</g>
</g>
</svg>
