<?xml version="1.0" encoding="UTF-8" standalone="no"?>
<!DOCTYPE svg PUBLIC "-//W3C//DTD SVG 1.1//EN"
 "http://www.w3.org/Graphics/SVG/1.1/DTD/svg11.dtd">
<!-- Generated by graphviz version 2.43.0 (0)
 -->
<!-- Title: it_base&lt; T &gt; Pages: 1 -->
<svg width="328pt" height="152pt"
 viewBox="0.00 0.00 328.00 152.00" xmlns="http://www.w3.org/2000/svg" xmlns:xlink="http://www.w3.org/1999/xlink">
<g id="graph0" class="graph" transform="scale(1 1) rotate(0) translate(4 148)">
<title>it_base&lt; T &gt;</title>
<polygon fill="white" stroke="transparent" points="-4,4 -4,-148 324,-148 324,4 -4,4"/>
<!-- Node1 -->
<g id="node1" class="node">
<title>Node1</title>
<g id="a_node1"><a xlink:title=" ">
<polygon fill="#bfbfbf" stroke="black" points="115,-124.5 115,-143.5 195,-143.5 195,-124.5 115,-124.5"/>
<text text-anchor="middle" x="155" y="-131.5" font-family="Helvetica,sans-Serif" font-size="10.00">it_base&lt; T &gt;</text>
</a>
</g>
</g>
<!-- Node2 -->
<g id="node2" class="node">
<title>Node2</title>
<g id="a_node2"><a xlink:href="structint__it.html" target="_top" xlink:title=" ">
<polygon fill="white" stroke="black" points="0,-57.5 0,-76.5 70,-76.5 70,-57.5 0,-57.5"/>
<text text-anchor="middle" x="35" y="-64.5" font-family="Helvetica,sans-Serif" font-size="10.00">int_it&lt; T &gt;</text>
</a>
</g>
</g>
<!-- Node1&#45;&gt;Node2 -->
<g id="edge1" class="edge">
<title>Node1&#45;&gt;Node2</title>
<path fill="none" stroke="midnightblue" d="M130,-119.46C106.21,-106.57 71.13,-87.57 50.93,-76.63"/>
<polygon fill="midnightblue" stroke="midnightblue" points="128.36,-122.55 138.82,-124.23 131.69,-116.39 128.36,-122.55"/>
</g>
<!-- Node3 -->
<g id="node3" class="node">
<title>Node3</title>
<g id="a_node3"><a xlink:href="structSplayTree_1_1iterator.html" target="_top" xlink:title=" ">
<polygon fill="white" stroke="black" points="88,-57.5 88,-76.5 222,-76.5 222,-57.5 88,-57.5"/>
<text text-anchor="middle" x="155" y="-64.5" font-family="Helvetica,sans-Serif" font-size="10.00">SplayTree&lt; T &gt;::iterator</text>
</a>
</g>
</g>
<!-- Node1&#45;&gt;Node3 -->
<g id="edge2" class="edge">
<title>Node1&#45;&gt;Node3</title>
<path fill="none" stroke="midnightblue" d="M155,-114.04C155,-101.67 155,-86.12 155,-76.63"/>
<polygon fill="midnightblue" stroke="midnightblue" points="151.5,-114.23 155,-124.23 158.5,-114.23 151.5,-114.23"/>
</g>
<!-- Node4 -->
<g id="node4" class="node">
<title>Node4</title>
<g id="a_node4"><a xlink:href="structit__base.html" target="_top" xlink:title=" ">
<polygon fill="white" stroke="black" points="240,-57.5 240,-76.5 320,-76.5 320,-57.5 240,-57.5"/>
<text text-anchor="middle" x="280" y="-64.5" font-family="Helvetica,sans-Serif" font-size="10.00">it_base&lt; ll &gt;</text>
</a>
</g>
</g>
<!-- Node1&#45;&gt;Node4 -->
<g id="edge3" class="edge">
<title>Node1&#45;&gt;Node4</title>
<path fill="none" stroke="orange" stroke-dasharray="5,2" d="M180.76,-119.6C205.52,-106.73 242.19,-87.66 263.33,-76.67"/>
<polygon fill="orange" stroke="orange" points="178.86,-116.65 171.6,-124.37 182.09,-122.86 178.86,-116.65"/>
<text text-anchor="middle" x="240" y="-98" font-family="Helvetica,sans-Serif" font-size="10.00"> &lt; ll &gt;</text>
</g>
<!-- Node5 -->
<g id="node5" class="node">
<title>Node5</title>
<g id="a_node5"><a xlink:href="structsearch__it.html" target="_top" xlink:title=" ">
<polygon fill="white" stroke="black" points="249.5,-0.5 249.5,-19.5 310.5,-19.5 310.5,-0.5 249.5,-0.5"/>
<text text-anchor="middle" x="280" y="-7.5" font-family="Helvetica,sans-Serif" font-size="10.00">search_it</text>
</a>
</g>
</g>
<!-- Node4&#45;&gt;Node5 -->
<g id="edge4" class="edge">
<title>Node4&#45;&gt;Node5</title>
<path fill="none" stroke="midnightblue" d="M280,-47.12C280,-37.82 280,-27.06 280,-19.71"/>
<polygon fill="midnightblue" stroke="midnightblue" points="276.5,-47.41 280,-57.41 283.5,-47.41 276.5,-47.41"/>
</g>
</g>
</svg>
