<?xml version="1.0" encoding="UTF-8" standalone="no"?>
<!DOCTYPE svg PUBLIC "-//W3C//DTD SVG 1.1//EN"
 "http://www.w3.org/Graphics/SVG/1.1/DTD/svg11.dtd">
<!-- Generated by graphviz version 2.43.0 (0)
 -->
<!-- Title: SplayTree&lt; T &gt;::Node Pages: 1 -->
<svg width="185pt" height="106pt"
 viewBox="0.00 0.00 185.00 106.00" xmlns="http://www.w3.org/2000/svg" xmlns:xlink="http://www.w3.org/1999/xlink">
<g id="graph0" class="graph" transform="scale(1 1) rotate(0) translate(4 102)">
<title>SplayTree&lt; T &gt;::Node</title>
<polygon fill="white" stroke="transparent" points="-4,4 -4,-102 181,-102 181,4 -4,4"/>
<!-- Node1 -->
<g id="node1" class="node">
<title>Node1</title>
<g id="a_node1"><a xlink:title=" ">
<polygon fill="#bfbfbf" stroke="black" points="0,-78.5 0,-97.5 124,-97.5 124,-78.5 0,-78.5"/>
<text text-anchor="middle" x="62" y="-85.5" font-family="Helvetica,sans-Serif" font-size="10.00">SplayTree&lt; T &gt;::Node</text>
</a>
</g>
</g>
<!-- Node1&#45;&gt;Node1 -->
<g id="edge1" class="edge">
<title>Node1&#45;&gt;Node1</title>
<path fill="none" stroke="#9a32cd" stroke-dasharray="5,2" d="M134.03,-92.35C138.99,-91.35 142,-89.9 142,-88 142,-85.03 134.66,-83.16 124.05,-82.4"/>
<polygon fill="#9a32cd" stroke="#9a32cd" points="133.54,-88.88 124.05,-93.6 134.41,-95.83 133.54,-88.88"/>
<text text-anchor="middle" x="159.5" y="-85.5" font-family="Helvetica,sans-Serif" font-size="10.00"> parent</text>
</g>
<!-- Node2 -->
<g id="node2" class="node">
<title>Node2</title>
<g id="a_node2"><a xlink:title=" ">
<polygon fill="white" stroke="#bfbfbf" points="1,-0.5 1,-30.5 123,-30.5 123,-0.5 1,-0.5"/>
<text text-anchor="start" x="9" y="-18.5" font-family="Helvetica,sans-Serif" font-size="10.00">std::array&lt; SplayTree</text>
<text text-anchor="middle" x="62" y="-7.5" font-family="Helvetica,sans-Serif" font-size="10.00">::Node *, 2 &gt;</text>
</a>
</g>
</g>
<!-- Node1&#45;&gt;Node2 -->
<g id="edge3" class="edge">
<title>Node1&#45;&gt;Node2</title>
<path fill="none" stroke="#9a32cd" stroke-dasharray="5,2" d="M33.57,-72.38C29.31,-68.92 25.52,-64.8 23,-60 17.21,-48.95 25.99,-38.48 36.67,-30.58"/>
<polygon fill="#9a32cd" stroke="#9a32cd" points="31.88,-75.47 42.11,-78.26 35.85,-69.71 31.88,-75.47"/>
<text text-anchor="middle" x="47.5" y="-52" font-family="Helvetica,sans-Serif" font-size="10.00"> elements</text>
</g>
<!-- Node2&#45;&gt;Node1 -->
<g id="edge2" class="edge">
<title>Node2&#45;&gt;Node1</title>
<path fill="none" stroke="#9a32cd" stroke-dasharray="5,2" d="M74.61,-40.26C76.61,-46.62 77.58,-53.53 76,-60 74.4,-66.57 70.9,-73.32 67.8,-78.42"/>
<polygon fill="#9a32cd" stroke="#9a32cd" points="77.8,-38.81 70.8,-30.85 71.31,-41.43 77.8,-38.81"/>
<text text-anchor="middle" x="89.5" y="-52" font-family="Helvetica,sans-Serif" font-size="10.00"> child</text>
</g>
</g>
</svg>
