<?xml version="1.0" encoding="UTF-8" standalone="no"?>
<!DOCTYPE svg PUBLIC "-//W3C//DTD SVG 1.1//EN"
 "http://www.w3.org/Graphics/SVG/1.1/DTD/svg11.dtd">
<!-- Generated by graphviz version 2.43.0 (0)
 -->
<!-- Title: SplayTree::join Pages: 1 -->
<svg width="626pt" height="85pt"
 viewBox="0.00 0.00 626.00 85.00" xmlns="http://www.w3.org/2000/svg" xmlns:xlink="http://www.w3.org/1999/xlink">
<g id="graph0" class="graph" transform="scale(1 1) rotate(0) translate(4 81)">
<title>SplayTree::join</title>
<polygon fill="white" stroke="transparent" points="-4,4 -4,-81 622,-81 622,4 -4,4"/>
<!-- Node1 -->
<g id="node1" class="node">
<title>Node1</title>
<g id="a_node1"><a xlink:title=" ">
<polygon fill="#bfbfbf" stroke="black" points="0,-0.5 0,-19.5 88,-19.5 88,-0.5 0,-0.5"/>
<text text-anchor="middle" x="44" y="-7.5" font-family="Helvetica,sans-Serif" font-size="10.00">SplayTree::join</text>
</a>
</g>
</g>
<!-- Node2 -->
<g id="node2" class="node">
<title>Node2</title>
<g id="a_node2"><a xlink:href="structSplayTree.html#a88e940e01fba29d4f1eec8b8b5fb2cea" target="_top" xlink:title=" ">
<polygon fill="white" stroke="black" points="124,-0.5 124,-19.5 220,-19.5 220,-0.5 124,-0.5"/>
<text text-anchor="middle" x="172" y="-7.5" font-family="Helvetica,sans-Serif" font-size="10.00">SplayTree::splay</text>
</a>
</g>
</g>
<!-- Node1&#45;&gt;Node2 -->
<g id="edge1" class="edge">
<title>Node1&#45;&gt;Node2</title>
<path fill="none" stroke="midnightblue" d="M88.01,-10C96.31,-10 105.13,-10 113.8,-10"/>
<polygon fill="midnightblue" stroke="midnightblue" points="113.87,-13.5 123.87,-10 113.87,-6.5 113.87,-13.5"/>
</g>
<!-- Node3 -->
<g id="node3" class="node">
<title>Node3</title>
<g id="a_node3"><a xlink:href="structSplayTree.html#a167b770118895382687c93f9715a6879" target="_top" xlink:title=" ">
<polygon fill="white" stroke="black" points="256,-19.5 256,-38.5 355,-38.5 355,-19.5 256,-19.5"/>
<text text-anchor="middle" x="305.5" y="-26.5" font-family="Helvetica,sans-Serif" font-size="10.00">SplayTree::rotate</text>
</a>
</g>
</g>
<!-- Node2&#45;&gt;Node3 -->
<g id="edge2" class="edge">
<title>Node2&#45;&gt;Node3</title>
<path fill="none" stroke="midnightblue" d="M220.1,-16.81C228.47,-18.01 237.28,-19.29 245.92,-20.54"/>
<polygon fill="midnightblue" stroke="midnightblue" points="245.56,-24.02 255.95,-21.99 246.56,-17.09 245.56,-24.02"/>
</g>
<!-- Node5 -->
<g id="node5" class="node">
<title>Node5</title>
<g id="a_node5"><a xlink:href="structSplayTree.html#a06fae4dd156688ed46976373f21fbb26" target="_top" xlink:title=" ">
<polygon fill="white" stroke="black" points="528,-19.5 528,-38.5 618,-38.5 618,-19.5 528,-19.5"/>
<text text-anchor="middle" x="573" y="-26.5" font-family="Helvetica,sans-Serif" font-size="10.00">SplayTree::side</text>
</a>
</g>
</g>
<!-- Node2&#45;&gt;Node5 -->
<g id="edge6" class="edge">
<title>Node2&#45;&gt;Node5</title>
<path fill="none" stroke="midnightblue" d="M220.16,-8.87C256.92,-8.27 309.23,-8 355,-10 410.44,-12.42 473.62,-18.31 517.45,-22.89"/>
<polygon fill="midnightblue" stroke="midnightblue" points="517.29,-26.4 527.61,-23.97 518.03,-19.44 517.29,-26.4"/>
</g>
<!-- Node4 -->
<g id="node4" class="node">
<title>Node4</title>
<g id="a_node4"><a xlink:href="structSplayTree.html#a8410ea1b66aeee0e07f11ec02dae2fa6" target="_top" xlink:title=" ">
<polygon fill="white" stroke="black" points="391,-57.5 391,-76.5 492,-76.5 492,-57.5 391,-57.5"/>
<text text-anchor="middle" x="441.5" y="-64.5" font-family="Helvetica,sans-Serif" font-size="10.00">SplayTree::attach</text>
</a>
</g>
</g>
<!-- Node3&#45;&gt;Node4 -->
<g id="edge3" class="edge">
<title>Node3&#45;&gt;Node4</title>
<path fill="none" stroke="midnightblue" d="M340.31,-38.59C357.53,-43.47 378.66,-49.46 397.07,-54.68"/>
<polygon fill="midnightblue" stroke="midnightblue" points="396.12,-58.05 406.7,-57.41 398.03,-51.32 396.12,-58.05"/>
</g>
<!-- Node3&#45;&gt;Node5 -->
<g id="edge5" class="edge">
<title>Node3&#45;&gt;Node5</title>
<path fill="none" stroke="midnightblue" d="M355.2,-29C401.08,-29 469.73,-29 517.44,-29"/>
<polygon fill="midnightblue" stroke="midnightblue" points="517.58,-32.5 527.58,-29 517.58,-25.5 517.58,-32.5"/>
</g>
<!-- Node4&#45;&gt;Node5 -->
<g id="edge4" class="edge">
<title>Node4&#45;&gt;Node5</title>
<path fill="none" stroke="midnightblue" d="M475.18,-57.41C491.59,-52.6 511.68,-46.7 529.29,-41.53"/>
<polygon fill="midnightblue" stroke="midnightblue" points="530.72,-44.76 539.33,-38.59 528.75,-38.04 530.72,-44.76"/>
</g>
</g>
</svg>
