<?xml version="1.0" encoding="UTF-8" standalone="no"?>
<!DOCTYPE svg PUBLIC "-//W3C//DTD SVG 1.1//EN"
 "http://www.w3.org/Graphics/SVG/1.1/DTD/svg11.dtd">
<!-- Generated by graphviz version 2.43.0 (0)
 -->
<!-- Title: SplayTree&lt; T &gt;::iterator Pages: 1 -->
<svg width="308pt" height="106pt"
 viewBox="0.00 0.00 308.00 106.00" xmlns="http://www.w3.org/2000/svg" xmlns:xlink="http://www.w3.org/1999/xlink">
<g id="graph0" class="graph" transform="scale(1 1) rotate(0) translate(4 102)">
<title>SplayTree&lt; T &gt;::iterator</title>
<polygon fill="white" stroke="transparent" points="-4,4 -4,-102 304,-102 304,4 -4,4"/>
<!-- Node1 -->
<g id="node1" class="node">
<title>Node1</title>
<g id="a_node1"><a xlink:title=" ">
<polygon fill="#bfbfbf" stroke="black" points="0,-6 0,-25 134,-25 134,-6 0,-6"/>
<text text-anchor="middle" x="67" y="-13" font-family="Helvetica,sans-Serif" font-size="10.00">SplayTree&lt; T &gt;::iterator</text>
</a>
</g>
</g>
<!-- Node2 -->
<g id="node2" class="node">
<title>Node2</title>
<g id="a_node2"><a xlink:href="structit__base.html" target="_top" xlink:title=" ">
<polygon fill="white" stroke="black" points="25,-78.5 25,-97.5 105,-97.5 105,-78.5 25,-78.5"/>
<text text-anchor="middle" x="65" y="-85.5" font-family="Helvetica,sans-Serif" font-size="10.00">it_base&lt; T &gt;</text>
</a>
</g>
</g>
<!-- Node2&#45;&gt;Node1 -->
<g id="edge1" class="edge">
<title>Node2&#45;&gt;Node1</title>
<path fill="none" stroke="midnightblue" d="M65.53,-68.36C65.92,-54.4 66.45,-35.93 66.75,-25.22"/>
<polygon fill="midnightblue" stroke="midnightblue" points="62.03,-68.26 65.25,-78.36 69.03,-68.46 62.03,-68.26"/>
</g>
<!-- Node3 -->
<g id="node3" class="node">
<title>Node3</title>
<g id="a_node3"><a xlink:href="structSplayTree_1_1Node.html" target="_top" xlink:title=" ">
<polygon fill="white" stroke="black" points="123,-78.5 123,-97.5 247,-97.5 247,-78.5 123,-78.5"/>
<text text-anchor="middle" x="185" y="-85.5" font-family="Helvetica,sans-Serif" font-size="10.00">SplayTree&lt; T &gt;::Node</text>
</a>
</g>
</g>
<!-- Node3&#45;&gt;Node1 -->
<g id="edge2" class="edge">
<title>Node3&#45;&gt;Node1</title>
<path fill="none" stroke="#9a32cd" stroke-dasharray="5,2" d="M161.42,-73.24C154.22,-69.01 146.27,-64.33 139,-60 118.8,-47.97 95.53,-33.87 81.04,-25.05"/>
<polygon fill="#9a32cd" stroke="#9a32cd" points="159.66,-76.26 170.06,-78.29 163.19,-70.22 159.66,-76.26"/>
<text text-anchor="middle" x="153" y="-52" font-family="Helvetica,sans-Serif" font-size="10.00"> node</text>
</g>
<!-- Node3&#45;&gt;Node3 -->
<g id="edge3" class="edge">
<title>Node3&#45;&gt;Node3</title>
<path fill="none" stroke="#9a32cd" stroke-dasharray="5,2" d="M257.03,-92.35C261.99,-91.35 265,-89.9 265,-88 265,-85.03 257.66,-83.16 247.05,-82.4"/>
<polygon fill="#9a32cd" stroke="#9a32cd" points="256.54,-88.88 247.05,-93.6 257.41,-95.83 256.54,-88.88"/>
<text text-anchor="middle" x="282.5" y="-85.5" font-family="Helvetica,sans-Serif" font-size="10.00"> parent</text>
</g>
<!-- Node4 -->
<g id="node4" class="node">
<title>Node4</title>
<g id="a_node4"><a xlink:title=" ">
<polygon fill="white" stroke="#bfbfbf" points="157,-0.5 157,-30.5 279,-30.5 279,-0.5 157,-0.5"/>
<text text-anchor="start" x="165" y="-18.5" font-family="Helvetica,sans-Serif" font-size="10.00">std::array&lt; SplayTree</text>
<text text-anchor="middle" x="218" y="-7.5" font-family="Helvetica,sans-Serif" font-size="10.00">::Node *, 2 &gt;</text>
</a>
</g>
</g>
<!-- Node3&#45;&gt;Node4 -->
<g id="edge5" class="edge">
<title>Node3&#45;&gt;Node4</title>
<path fill="none" stroke="#9a32cd" stroke-dasharray="5,2" d="M173.64,-68.93C171.02,-62.46 169.82,-55.23 173,-49 176.77,-41.62 183.09,-35.53 189.81,-30.7"/>
<polygon fill="#9a32cd" stroke="#9a32cd" points="170.76,-70.98 178.49,-78.23 176.96,-67.74 170.76,-70.98"/>
<text text-anchor="middle" x="197.5" y="-52" font-family="Helvetica,sans-Serif" font-size="10.00"> elements</text>
</g>
<!-- Node4&#45;&gt;Node3 -->
<g id="edge4" class="edge">
<title>Node4&#45;&gt;Node3</title>
<path fill="none" stroke="#9a32cd" stroke-dasharray="5,2" d="M227.96,-40.44C229.26,-47.06 229.2,-54.06 226,-60 221.63,-68.1 213.65,-74.17 205.89,-78.49"/>
<polygon fill="#9a32cd" stroke="#9a32cd" points="231.23,-39.15 225.04,-30.55 224.51,-41.13 231.23,-39.15"/>
<text text-anchor="middle" x="241.5" y="-52" font-family="Helvetica,sans-Serif" font-size="10.00"> child</text>
</g>
</g>
</svg>
