<?xml version="1.0" encoding="UTF-8" standalone="no"?>
<!DOCTYPE svg PUBLIC "-//W3C//DTD SVG 1.1//EN"
 "http://www.w3.org/Graphics/SVG/1.1/DTD/svg11.dtd">
<!-- Generated by graphviz version 2.43.0 (0)
 -->
<!-- Title: splay_tree::SplayTree::side Pages: 1 -->
<svg width="1348pt" height="172pt"
 viewBox="0.00 0.00 1348.00 172.00" xmlns="http://www.w3.org/2000/svg" xmlns:xlink="http://www.w3.org/1999/xlink">
<g id="graph0" class="graph" transform="scale(1 1) rotate(0) translate(4 168)">
<title>splay_tree::SplayTree::side</title>
<polygon fill="white" stroke="transparent" points="-4,4 -4,-168 1344,-168 1344,4 -4,4"/>
<!-- Node1 -->
<g id="node1" class="node">
<title>Node1</title>
<g id="a_node1"><a xlink:title=" ">
<polygon fill="#bfbfbf" stroke="black" points="1219,-89.5 1219,-119.5 1340,-119.5 1340,-89.5 1219,-89.5"/>
<text text-anchor="start" x="1227" y="-107.5" font-family="Helvetica,sans-Serif" font-size="10.00">splay_tree::SplayTree</text>
<text text-anchor="middle" x="1279.5" y="-96.5" font-family="Helvetica,sans-Serif" font-size="10.00">::side</text>
</a>
</g>
</g>
<!-- Node2 -->
<g id="node2" class="node">
<title>Node2</title>
<g id="a_node2"><a xlink:href="structsplay__tree_1_1SplayTree.html#ac91c4a1fa163994e18084f90e0921b08" target="_top" xlink:title=" ">
<polygon fill="white" stroke="black" points="1062,-133.5 1062,-163.5 1183,-163.5 1183,-133.5 1062,-133.5"/>
<text text-anchor="start" x="1070" y="-151.5" font-family="Helvetica,sans-Serif" font-size="10.00">splay_tree::SplayTree</text>
<text text-anchor="middle" x="1122.5" y="-140.5" font-family="Helvetica,sans-Serif" font-size="10.00">::attach</text>
</a>
</g>
</g>
<!-- Node1&#45;&gt;Node2 -->
<g id="edge1" class="edge">
<title>Node1&#45;&gt;Node2</title>
<path fill="none" stroke="midnightblue" d="M1215.75,-122.31C1202.71,-126.02 1189.08,-129.88 1176.43,-133.47"/>
<polygon fill="midnightblue" stroke="midnightblue" points="1216.93,-125.62 1225.59,-119.52 1215.02,-118.88 1216.93,-125.62"/>
</g>
<!-- Node3 -->
<g id="node3" class="node">
<title>Node3</title>
<g id="a_node3"><a xlink:href="structsplay__tree_1_1SplayTree.html#a5e9b38d0cd5740cf94899eddbcbca05e" target="_top" xlink:title=" ">
<polygon fill="white" stroke="black" points="905,-95.5 905,-125.5 1026,-125.5 1026,-95.5 905,-95.5"/>
<text text-anchor="start" x="913" y="-113.5" font-family="Helvetica,sans-Serif" font-size="10.00">splay_tree::SplayTree</text>
<text text-anchor="middle" x="965.5" y="-102.5" font-family="Helvetica,sans-Serif" font-size="10.00">::rotate</text>
</a>
</g>
</g>
<!-- Node1&#45;&gt;Node3 -->
<g id="edge15" class="edge">
<title>Node1&#45;&gt;Node3</title>
<path fill="none" stroke="midnightblue" d="M1208.37,-105.85C1153.51,-106.9 1078.05,-108.35 1026.09,-109.35"/>
<polygon fill="midnightblue" stroke="midnightblue" points="1208.78,-109.34 1218.71,-105.65 1208.65,-102.34 1208.78,-109.34"/>
</g>
<!-- Node4 -->
<g id="node4" class="node">
<title>Node4</title>
<g id="a_node4"><a xlink:href="structsplay__tree_1_1SplayTree.html#a3db8f486eeed38868355ebc740ae893e" target="_top" xlink:title=" ">
<polygon fill="white" stroke="black" points="748,-73.5 748,-103.5 869,-103.5 869,-73.5 748,-73.5"/>
<text text-anchor="start" x="756" y="-91.5" font-family="Helvetica,sans-Serif" font-size="10.00">splay_tree::SplayTree</text>
<text text-anchor="middle" x="808.5" y="-80.5" font-family="Helvetica,sans-Serif" font-size="10.00">::splay</text>
</a>
</g>
</g>
<!-- Node1&#45;&gt;Node4 -->
<g id="edge16" class="edge">
<title>Node1&#45;&gt;Node4</title>
<path fill="none" stroke="midnightblue" d="M1208.7,-97.83C1158.05,-93.34 1087.85,-87.82 1026,-85.5 972.26,-83.48 958.77,-84.66 905,-85.5 893.39,-85.68 880.99,-85.99 869.1,-86.34"/>
<polygon fill="midnightblue" stroke="midnightblue" points="1208.61,-101.34 1218.88,-98.74 1209.23,-94.37 1208.61,-101.34"/>
</g>
<!-- Node2&#45;&gt;Node3 -->
<g id="edge2" class="edge">
<title>Node2&#45;&gt;Node3</title>
<path fill="none" stroke="midnightblue" d="M1051.62,-131.37C1043.07,-129.27 1034.39,-127.14 1026.01,-125.09"/>
<polygon fill="midnightblue" stroke="midnightblue" points="1051.03,-134.83 1061.57,-133.81 1052.69,-128.03 1051.03,-134.83"/>
</g>
<!-- Node3&#45;&gt;Node4 -->
<g id="edge3" class="edge">
<title>Node3&#45;&gt;Node4</title>
<path fill="none" stroke="midnightblue" d="M894.62,-100.58C886.07,-99.37 877.39,-98.14 869.01,-96.95"/>
<polygon fill="midnightblue" stroke="midnightblue" points="894.18,-104.05 904.57,-101.99 895.16,-97.12 894.18,-104.05"/>
</g>
<!-- Node5 -->
<g id="node5" class="node">
<title>Node5</title>
<g id="a_node5"><a xlink:href="structsplay__tree_1_1SplayTree.html#a967e320e3d33cad8b0a9c30cd51ed924" target="_top" xlink:title=" ">
<polygon fill="white" stroke="black" points="434,-118.5 434,-148.5 555,-148.5 555,-118.5 434,-118.5"/>
<text text-anchor="start" x="442" y="-136.5" font-family="Helvetica,sans-Serif" font-size="10.00">splay_tree::SplayTree</text>
<text text-anchor="middle" x="494.5" y="-125.5" font-family="Helvetica,sans-Serif" font-size="10.00">::erase</text>
</a>
</g>
</g>
<!-- Node4&#45;&gt;Node5 -->
<g id="edge4" class="edge">
<title>Node4&#45;&gt;Node5</title>
<path fill="none" stroke="midnightblue" d="M777.08,-109.28C759.04,-120.33 735.21,-132.79 712,-138.5 660.16,-151.25 599.22,-148.32 555.22,-143.18"/>
<polygon fill="midnightblue" stroke="midnightblue" points="779.38,-111.97 785.96,-103.67 775.64,-106.05 779.38,-111.97"/>
</g>
<!-- Node10 -->
<g id="node10" class="node">
<title>Node10</title>
<g id="a_node10"><a xlink:href="structsplay__tree_1_1SplayTree.html#a80ab90fbd7be1405ae05399b0fc2f2f1" target="_top" xlink:title=" ">
<polygon fill="white" stroke="black" points="591,-49.5 591,-79.5 712,-79.5 712,-49.5 591,-49.5"/>
<text text-anchor="start" x="599" y="-67.5" font-family="Helvetica,sans-Serif" font-size="10.00">splay_tree::SplayTree</text>
<text text-anchor="middle" x="651.5" y="-56.5" font-family="Helvetica,sans-Serif" font-size="10.00">::insert</text>
</a>
</g>
</g>
<!-- Node4&#45;&gt;Node10 -->
<g id="edge9" class="edge">
<title>Node4&#45;&gt;Node10</title>
<path fill="none" stroke="midnightblue" d="M737.62,-77.68C729.07,-76.36 720.39,-75.01 712.01,-73.71"/>
<polygon fill="midnightblue" stroke="midnightblue" points="737.16,-81.15 747.57,-79.22 738.23,-74.23 737.16,-81.15"/>
</g>
<!-- Node12 -->
<g id="node12" class="node">
<title>Node12</title>
<g id="a_node12"><a xlink:href="structsplay__tree_1_1SplayTree.html#a21a513a7ac2715f280d2a89b3890722a" target="_top" xlink:title=" ">
<polygon fill="white" stroke="black" points="591,-98.5 591,-128.5 712,-128.5 712,-98.5 591,-98.5"/>
<text text-anchor="start" x="599" y="-116.5" font-family="Helvetica,sans-Serif" font-size="10.00">splay_tree::SplayTree</text>
<text text-anchor="middle" x="651.5" y="-105.5" font-family="Helvetica,sans-Serif" font-size="10.00">::join</text>
</a>
</g>
</g>
<!-- Node4&#45;&gt;Node12 -->
<g id="edge12" class="edge">
<title>Node4&#45;&gt;Node12</title>
<path fill="none" stroke="midnightblue" d="M737.62,-99.77C729.07,-101.15 720.39,-102.55 712.01,-103.9"/>
<polygon fill="midnightblue" stroke="midnightblue" points="738.26,-103.21 747.57,-98.17 737.14,-96.3 738.26,-103.21"/>
</g>
<!-- Node13 -->
<g id="node13" class="node">
<title>Node13</title>
<g id="a_node13"><a xlink:href="structsplay__tree_1_1SplayTree.html#a70d72238898de04e4524586a060609b2" target="_top" xlink:title=" ">
<polygon fill="white" stroke="black" points="591,-0.5 591,-30.5 712,-30.5 712,-0.5 591,-0.5"/>
<text text-anchor="start" x="599" y="-18.5" font-family="Helvetica,sans-Serif" font-size="10.00">splay_tree::SplayTree</text>
<text text-anchor="middle" x="651.5" y="-7.5" font-family="Helvetica,sans-Serif" font-size="10.00">::split</text>
</a>
</g>
</g>
<!-- Node4&#45;&gt;Node13 -->
<g id="edge14" class="edge">
<title>Node4&#45;&gt;Node13</title>
<path fill="none" stroke="midnightblue" d="M770.51,-68.53C752.96,-59.31 731.59,-48.45 712,-39.5 705.42,-36.49 698.34,-33.46 691.44,-30.62"/>
<polygon fill="midnightblue" stroke="midnightblue" points="769.35,-71.88 779.83,-73.46 772.63,-65.69 769.35,-71.88"/>
</g>
<!-- Node6 -->
<g id="node6" class="node">
<title>Node6</title>
<g id="a_node6"><a xlink:href="namespacesplay__tree.html#a3a9f2936a5b68efebc1499fa476ac89f" target="_top" xlink:title=" ">
<polygon fill="white" stroke="black" points="249,-102 249,-121 398,-121 398,-102 249,-102"/>
<text text-anchor="middle" x="323.5" y="-109" font-family="Helvetica,sans-Serif" font-size="10.00">splay_tree::test_splay_tree</text>
</a>
</g>
</g>
<!-- Node5&#45;&gt;Node6 -->
<g id="edge5" class="edge">
<title>Node5&#45;&gt;Node6</title>
<path fill="none" stroke="midnightblue" d="M423.91,-124.44C415.28,-123.32 406.44,-122.17 397.76,-121.04"/>
<polygon fill="midnightblue" stroke="midnightblue" points="423.55,-127.92 433.92,-125.74 424.45,-120.98 423.55,-127.92"/>
</g>
<!-- Node7 -->
<g id="node7" class="node">
<title>Node7</title>
<g id="a_node7"><a xlink:href="test_8cpp.html#aa1c715cac916839a95e25b65b4071c4a" target="_top" xlink:title=" ">
<polygon fill="white" stroke="black" points="160,-102 160,-121 213,-121 213,-102 160,-102"/>
<text text-anchor="middle" x="186.5" y="-109" font-family="Helvetica,sans-Serif" font-size="10.00">test_all</text>
</a>
</g>
</g>
<!-- Node6&#45;&gt;Node7 -->
<g id="edge6" class="edge">
<title>Node6&#45;&gt;Node7</title>
<path fill="none" stroke="midnightblue" d="M238.58,-111.5C229.39,-111.5 220.64,-111.5 213.05,-111.5"/>
<polygon fill="midnightblue" stroke="midnightblue" points="238.68,-115 248.68,-111.5 238.68,-108 238.68,-115"/>
</g>
<!-- Node8 -->
<g id="node8" class="node">
<title>Node8</title>
<g id="a_node8"><a xlink:href="test_8cpp.html#af095a232149097b5605064623a9345ac" target="_top" xlink:title=" ">
<polygon fill="white" stroke="black" points="77,-102 77,-121 124,-121 124,-102 77,-102"/>
<text text-anchor="middle" x="100.5" y="-109" font-family="Helvetica,sans-Serif" font-size="10.00">main2</text>
</a>
</g>
</g>
<!-- Node7&#45;&gt;Node8 -->
<g id="edge7" class="edge">
<title>Node7&#45;&gt;Node8</title>
<path fill="none" stroke="midnightblue" d="M149.59,-111.5C140.96,-111.5 131.99,-111.5 124.16,-111.5"/>
<polygon fill="midnightblue" stroke="midnightblue" points="149.84,-115 159.84,-111.5 149.84,-108 149.84,-115"/>
</g>
<!-- Node9 -->
<g id="node9" class="node">
<title>Node9</title>
<g id="a_node9"><a xlink:href="main_8hpp.html#a0ddf1224851353fc92bfbff6f499fa97" target="_top" xlink:title=" ">
<polygon fill="white" stroke="black" points="0,-102 0,-121 41,-121 41,-102 0,-102"/>
<text text-anchor="middle" x="20.5" y="-109" font-family="Helvetica,sans-Serif" font-size="10.00">main</text>
</a>
</g>
</g>
<!-- Node8&#45;&gt;Node9 -->
<g id="edge8" class="edge">
<title>Node8&#45;&gt;Node9</title>
<path fill="none" stroke="midnightblue" d="M66.66,-111.5C57.96,-111.5 48.84,-111.5 41.1,-111.5"/>
<polygon fill="midnightblue" stroke="midnightblue" points="66.94,-115 76.94,-111.5 66.94,-108 66.94,-115"/>
</g>
<!-- Node10&#45;&gt;Node6 -->
<g id="edge11" class="edge">
<title>Node10&#45;&gt;Node6</title>
<path fill="none" stroke="midnightblue" d="M580.48,-74.6C524.24,-82.7 445.82,-94.01 390.64,-101.96"/>
<polygon fill="midnightblue" stroke="midnightblue" points="581.31,-78.01 590.71,-73.12 580.31,-71.08 581.31,-78.01"/>
</g>
<!-- Node11 -->
<g id="node11" class="node">
<title>Node11</title>
<g id="a_node11"><a xlink:href="structsplay__tree_1_1SplayTree.html#a2bf075a9e6a46e3f9b61e7b00b546707" target="_top" xlink:title=" ">
<polygon fill="white" stroke="black" points="434,-30.5 434,-60.5 555,-60.5 555,-30.5 434,-30.5"/>
<text text-anchor="start" x="442" y="-48.5" font-family="Helvetica,sans-Serif" font-size="10.00">splay_tree::SplayTree</text>
<text text-anchor="middle" x="494.5" y="-37.5" font-family="Helvetica,sans-Serif" font-size="10.00">::insert</text>
</a>
</g>
</g>
<!-- Node10&#45;&gt;Node11 -->
<g id="edge10" class="edge">
<title>Node10&#45;&gt;Node11</title>
<path fill="none" stroke="midnightblue" d="M580.62,-55.93C572.07,-54.89 563.39,-53.82 555.01,-52.8"/>
<polygon fill="midnightblue" stroke="midnightblue" points="580.22,-59.41 590.57,-57.15 581.07,-52.46 580.22,-59.41"/>
</g>
<!-- Node12&#45;&gt;Node5 -->
<g id="edge13" class="edge">
<title>Node12&#45;&gt;Node5</title>
<path fill="none" stroke="midnightblue" d="M580.62,-122.52C572.07,-123.62 563.39,-124.74 555.01,-125.82"/>
<polygon fill="midnightblue" stroke="midnightblue" points="581.1,-125.98 590.57,-121.23 580.21,-119.04 581.1,-125.98"/>
</g>
</g>
</svg>
