<?xml version="1.0" encoding="UTF-8" standalone="no"?>
<!DOCTYPE svg PUBLIC "-//W3C//DTD SVG 1.1//EN"
 "http://www.w3.org/Graphics/SVG/1.1/DTD/svg11.dtd">
<!-- Generated by graphviz version 2.43.0 (0)
 -->
<!-- Title: geometry::cht::cht Pages: 1 -->
<svg width="652pt" height="104pt"
 viewBox="0.00 0.00 652.00 104.00" xmlns="http://www.w3.org/2000/svg" xmlns:xlink="http://www.w3.org/1999/xlink">
<g id="graph0" class="graph" transform="scale(1 1) rotate(0) translate(4 100)">
<title>geometry::cht::cht</title>
<polygon fill="white" stroke="transparent" points="-4,4 -4,-100 648,-100 648,4 -4,4"/>
<!-- Node1 -->
<g id="node1" class="node">
<title>Node1</title>
<g id="a_node1"><a xlink:title=" ">
<polygon fill="#bfbfbf" stroke="black" points="0,-38.5 0,-57.5 105,-57.5 105,-38.5 0,-38.5"/>
<text text-anchor="middle" x="52.5" y="-45.5" font-family="Helvetica,sans-Serif" font-size="10.00">geometry::cht::cht</text>
</a>
</g>
</g>
<!-- Node2 -->
<g id="node2" class="node">
<title>Node2</title>
<g id="a_node2"><a xlink:href="namespacegeometry.html#acdc6602c58d77b560832434cc2e25b89" target="_top" xlink:title=" ">
<polygon fill="white" stroke="black" points="141,-76.5 141,-95.5 228,-95.5 228,-76.5 141,-76.5"/>
<text text-anchor="middle" x="184.5" y="-83.5" font-family="Helvetica,sans-Serif" font-size="10.00">geometry::hull</text>
</a>
</g>
</g>
<!-- Node1&#45;&gt;Node2 -->
<g id="edge1" class="edge">
<title>Node1&#45;&gt;Node2</title>
<path fill="none" stroke="midnightblue" d="M86.3,-57.59C102.78,-62.4 122.94,-68.3 140.63,-73.47"/>
<polygon fill="midnightblue" stroke="midnightblue" points="140.13,-76.97 150.71,-76.41 142.09,-70.25 140.13,-76.97"/>
</g>
<!-- Node6 -->
<g id="node6" class="node">
<title>Node6</title>
<g id="a_node6"><a xlink:href="namespaceutility.html#aa705afaf267f70799bd4ec8cbf040455" target="_top" xlink:title=" ">
<polygon fill="white" stroke="black" points="264,-38.5 264,-57.5 380,-57.5 380,-38.5 264,-38.5"/>
<text text-anchor="middle" x="322" y="-45.5" font-family="Helvetica,sans-Serif" font-size="10.00">utility::key_compare</text>
</a>
</g>
</g>
<!-- Node1&#45;&gt;Node6 -->
<g id="edge6" class="edge">
<title>Node1&#45;&gt;Node6</title>
<path fill="none" stroke="midnightblue" d="M105.08,-48C147.28,-48 207.3,-48 253.36,-48"/>
<polygon fill="midnightblue" stroke="midnightblue" points="253.55,-51.5 263.55,-48 253.55,-44.5 253.55,-51.5"/>
</g>
<!-- Node7 -->
<g id="node7" class="node">
<title>Node7</title>
<g id="a_node7"><a xlink:href="namespaceutility.html#a531cc980b5de78f0c2f36ae3210cb9cf" target="_top" xlink:title=" ">
<polygon fill="white" stroke="black" points="149,-0.5 149,-19.5 220,-19.5 220,-0.5 149,-0.5"/>
<text text-anchor="middle" x="184.5" y="-7.5" font-family="Helvetica,sans-Serif" font-size="10.00">utility::uniq</text>
</a>
</g>
</g>
<!-- Node1&#45;&gt;Node7 -->
<g id="edge7" class="edge">
<title>Node1&#45;&gt;Node7</title>
<path fill="none" stroke="midnightblue" d="M86.3,-38.41C102.78,-33.6 122.94,-27.7 140.63,-22.53"/>
<polygon fill="midnightblue" stroke="midnightblue" points="142.09,-25.75 150.71,-19.59 140.13,-19.03 142.09,-25.75"/>
</g>
<!-- Node3 -->
<g id="node3" class="node">
<title>Node3</title>
<g id="a_node3"><a xlink:href="namespacegeometry.html#a5f1383116499536e16ded93d8a011900" target="_top" xlink:title="Returns whether moving through &#160;is counterclockwise.">
<polygon fill="white" stroke="black" points="278,-76.5 278,-95.5 366,-95.5 366,-76.5 278,-76.5"/>
<text text-anchor="middle" x="322" y="-83.5" font-family="Helvetica,sans-Serif" font-size="10.00">geometry::ccw</text>
</a>
</g>
</g>
<!-- Node2&#45;&gt;Node3 -->
<g id="edge2" class="edge">
<title>Node2&#45;&gt;Node3</title>
<path fill="none" stroke="midnightblue" d="M228,-86C240.49,-86 254.32,-86 267.42,-86"/>
<polygon fill="midnightblue" stroke="midnightblue" points="267.72,-89.5 277.72,-86 267.72,-82.5 267.72,-89.5"/>
</g>
<!-- Node2&#45;&gt;Node6 -->
<g id="edge5" class="edge">
<title>Node2&#45;&gt;Node6</title>
<path fill="none" stroke="midnightblue" d="M219.69,-76.41C237.1,-71.53 258.47,-65.54 277.09,-60.32"/>
<polygon fill="midnightblue" stroke="midnightblue" points="278.14,-63.66 286.82,-57.59 276.24,-56.92 278.14,-63.66"/>
</g>
<!-- Node4 -->
<g id="node4" class="node">
<title>Node4</title>
<g id="a_node4"><a xlink:href="namespacegeometry.html#ab8556a4c9ecf62f348ba9d0635bf8cb3" target="_top" xlink:title=" ">
<polygon fill="white" stroke="black" points="416,-76.5 416,-95.5 507,-95.5 507,-76.5 416,-76.5"/>
<text text-anchor="middle" x="461.5" y="-83.5" font-family="Helvetica,sans-Serif" font-size="10.00">geometry::area</text>
</a>
</g>
</g>
<!-- Node3&#45;&gt;Node4 -->
<g id="edge3" class="edge">
<title>Node3&#45;&gt;Node4</title>
<path fill="none" stroke="midnightblue" d="M366.13,-86C378.56,-86 392.29,-86 405.34,-86"/>
<polygon fill="midnightblue" stroke="midnightblue" points="405.63,-89.5 415.63,-86 405.63,-82.5 405.63,-89.5"/>
</g>
<!-- Node5 -->
<g id="node5" class="node">
<title>Node5</title>
<g id="a_node5"><a xlink:href="namespacegeometry.html#aabae68a797dfbc044ca0ed89cc6cc1af" target="_top" xlink:title=" ">
<polygon fill="white" stroke="black" points="543,-76.5 543,-95.5 644,-95.5 644,-76.5 543,-76.5"/>
<text text-anchor="middle" x="593.5" y="-83.5" font-family="Helvetica,sans-Serif" font-size="10.00">geometry::wedge</text>
</a>
</g>
</g>
<!-- Node4&#45;&gt;Node5 -->
<g id="edge4" class="edge">
<title>Node4&#45;&gt;Node5</title>
<path fill="none" stroke="midnightblue" d="M507.24,-86C515.38,-86 524,-86 532.5,-86"/>
<polygon fill="midnightblue" stroke="midnightblue" points="532.78,-89.5 542.78,-86 532.78,-82.5 532.78,-89.5"/>
</g>
</g>
</svg>
