<?xml version="1.0" encoding="UTF-8" standalone="no"?>
<!DOCTYPE svg PUBLIC "-//W3C//DTD SVG 1.1//EN"
 "http://www.w3.org/Graphics/SVG/1.1/DTD/svg11.dtd">
<!-- Generated by graphviz version 2.43.0 (0)
 -->
<!-- Title: graph_theory::GeneralSearch&lt; Searcher &gt; Pages: 1 -->
<svg width="342pt" height="174pt"
 viewBox="0.00 0.00 342.00 174.00" xmlns="http://www.w3.org/2000/svg" xmlns:xlink="http://www.w3.org/1999/xlink">
<g id="graph0" class="graph" transform="scale(1 1) rotate(0) translate(4 170)">
<title>graph_theory::GeneralSearch&lt; Searcher &gt;</title>
<polygon fill="white" stroke="transparent" points="-4,4 -4,-170 338,-170 338,4 -4,4"/>
<!-- Node1 -->
<g id="node1" class="node">
<title>Node1</title>
<g id="a_node1"><a xlink:title=" ">
<polygon fill="#bfbfbf" stroke="black" points="88,-135.5 88,-165.5 246,-165.5 246,-135.5 88,-135.5"/>
<text text-anchor="start" x="96" y="-153.5" font-family="Helvetica,sans-Serif" font-size="10.00">graph_theory::GeneralSearch</text>
<text text-anchor="middle" x="167" y="-142.5" font-family="Helvetica,sans-Serif" font-size="10.00">&lt; Searcher &gt;</text>
</a>
</g>
</g>
<!-- Node2 -->
<g id="node2" class="node">
<title>Node2</title>
<g id="a_node2"><a xlink:href="structgraph__theory_1_1GeneralSearch.html" target="_top" xlink:title=" ">
<polygon fill="white" stroke="black" points="0,-57.5 0,-87.5 158,-87.5 158,-57.5 0,-57.5"/>
<text text-anchor="start" x="8" y="-75.5" font-family="Helvetica,sans-Serif" font-size="10.00">graph_theory::GeneralSearch</text>
<text text-anchor="middle" x="79" y="-64.5" font-family="Helvetica,sans-Serif" font-size="10.00">&lt; BFS &gt;</text>
</a>
</g>
</g>
<!-- Node1&#45;&gt;Node2 -->
<g id="edge1" class="edge">
<title>Node1&#45;&gt;Node2</title>
<path fill="none" stroke="orange" stroke-dasharray="5,2" d="M142.56,-128.39C127.55,-115.43 108.73,-99.18 95.48,-87.73"/>
<polygon fill="orange" stroke="orange" points="140.59,-131.32 150.45,-135.2 145.17,-126.02 140.59,-131.32"/>
<text text-anchor="middle" x="151.5" y="-109" font-family="Helvetica,sans-Serif" font-size="10.00"> &lt; BFS &gt;</text>
</g>
<!-- Node4 -->
<g id="node4" class="node">
<title>Node4</title>
<g id="a_node4"><a xlink:href="structgraph__theory_1_1GeneralSearch.html" target="_top" xlink:title=" ">
<polygon fill="white" stroke="black" points="176,-57.5 176,-87.5 334,-87.5 334,-57.5 176,-57.5"/>
<text text-anchor="start" x="184" y="-75.5" font-family="Helvetica,sans-Serif" font-size="10.00">graph_theory::GeneralSearch</text>
<text text-anchor="middle" x="255" y="-64.5" font-family="Helvetica,sans-Serif" font-size="10.00">&lt; DFS &gt;</text>
</a>
</g>
</g>
<!-- Node1&#45;&gt;Node4 -->
<g id="edge3" class="edge">
<title>Node1&#45;&gt;Node4</title>
<path fill="none" stroke="orange" stroke-dasharray="5,2" d="M191.44,-128.39C206.45,-115.43 225.27,-99.18 238.52,-87.73"/>
<polygon fill="orange" stroke="orange" points="188.83,-126.02 183.55,-135.2 193.41,-131.32 188.83,-126.02"/>
<text text-anchor="middle" x="240" y="-109" font-family="Helvetica,sans-Serif" font-size="10.00"> &lt; DFS &gt;</text>
</g>
<!-- Node3 -->
<g id="node3" class="node">
<title>Node3</title>
<g id="a_node3"><a xlink:href="structgraph__theory_1_1BFS.html" target="_top" xlink:title=" ">
<polygon fill="white" stroke="black" points="26.5,-0.5 26.5,-19.5 131.5,-19.5 131.5,-0.5 26.5,-0.5"/>
<text text-anchor="middle" x="79" y="-7.5" font-family="Helvetica,sans-Serif" font-size="10.00">graph_theory::BFS</text>
</a>
</g>
</g>
<!-- Node2&#45;&gt;Node3 -->
<g id="edge2" class="edge">
<title>Node2&#45;&gt;Node3</title>
<path fill="none" stroke="midnightblue" d="M79,-47.35C79,-37.51 79,-26.78 79,-19.54"/>
<polygon fill="midnightblue" stroke="midnightblue" points="75.5,-47.47 79,-57.47 82.5,-47.47 75.5,-47.47"/>
</g>
<!-- Node5 -->
<g id="node5" class="node">
<title>Node5</title>
<g id="a_node5"><a xlink:href="structgraph__theory_1_1DFS.html" target="_top" xlink:title=" ">
<polygon fill="white" stroke="black" points="202,-0.5 202,-19.5 308,-19.5 308,-0.5 202,-0.5"/>
<text text-anchor="middle" x="255" y="-7.5" font-family="Helvetica,sans-Serif" font-size="10.00">graph_theory::DFS</text>
</a>
</g>
</g>
<!-- Node4&#45;&gt;Node5 -->
<g id="edge4" class="edge">
<title>Node4&#45;&gt;Node5</title>
<path fill="none" stroke="midnightblue" d="M255,-47.35C255,-37.51 255,-26.78 255,-19.54"/>
<polygon fill="midnightblue" stroke="midnightblue" points="251.5,-47.47 255,-57.47 258.5,-47.47 251.5,-47.47"/>
</g>
</g>
</svg>
