<?xml version="1.0" encoding="UTF-8" standalone="no"?>
<!DOCTYPE svg PUBLIC "-//W3C//DTD SVG 1.1//EN"
 "http://www.w3.org/Graphics/SVG/1.1/DTD/svg11.dtd">
<!-- Generated by graphviz version 2.43.0 (0)
 -->
<!-- Title: pers&lt; T &gt; Pages: 1 -->
<svg width="173pt" height="240pt"
 viewBox="0.00 0.00 172.50 240.00" xmlns="http://www.w3.org/2000/svg" xmlns:xlink="http://www.w3.org/1999/xlink">
<g id="graph0" class="graph" transform="scale(1 1) rotate(0) translate(4 236)">
<title>pers&lt; T &gt;</title>
<polygon fill="white" stroke="transparent" points="-4,4 -4,-236 168.5,-236 168.5,4 -4,4"/>
<!-- Node1 -->
<g id="node1" class="node">
<title>Node1</title>
<g id="a_node1"><a xlink:title=" ">
<polygon fill="#bfbfbf" stroke="black" points="25.5,-0.5 25.5,-19.5 91.5,-19.5 91.5,-0.5 25.5,-0.5"/>
<text text-anchor="middle" x="58.5" y="-7.5" font-family="Helvetica,sans-Serif" font-size="10.00">pers&lt; T &gt;</text>
</a>
</g>
</g>
<!-- Node2 -->
<g id="node2" class="node">
<title>Node2</title>
<g id="a_node2"><a xlink:title=" ">
<polygon fill="white" stroke="#bfbfbf" points="0,-67.5 0,-97.5 117,-97.5 117,-67.5 0,-67.5"/>
<text text-anchor="start" x="8" y="-85.5" font-family="Helvetica,sans-Serif" font-size="10.00">std::set&lt; event, first</text>
<text text-anchor="middle" x="58.5" y="-74.5" font-family="Helvetica,sans-Serif" font-size="10.00">_cmp &gt;</text>
</a>
</g>
</g>
<!-- Node2&#45;&gt;Node1 -->
<g id="edge1" class="edge">
<title>Node2&#45;&gt;Node1</title>
<path fill="none" stroke="#9a32cd" stroke-dasharray="5,2" d="M58.5,-57.09C58.5,-44.21 58.5,-29.2 58.5,-19.89"/>
<polygon fill="#9a32cd" stroke="#9a32cd" points="55,-57.23 58.5,-67.23 62,-57.23 55,-57.23"/>
<text text-anchor="middle" x="63" y="-41" font-family="Helvetica,sans-Serif" font-size="10.00"> s</text>
</g>
<!-- Node3 -->
<g id="node3" class="node">
<title>Node3</title>
<g id="a_node3"><a xlink:title="STL class.">
<polygon fill="white" stroke="#bfbfbf" points="17.5,-145.5 17.5,-164.5 99.5,-164.5 99.5,-145.5 17.5,-145.5"/>
<text text-anchor="middle" x="58.5" y="-152.5" font-family="Helvetica,sans-Serif" font-size="10.00">std::set&lt; K &gt;</text>
</a>
</g>
</g>
<!-- Node3&#45;&gt;Node2 -->
<g id="edge2" class="edge">
<title>Node3&#45;&gt;Node2</title>
<path fill="none" stroke="orange" stroke-dasharray="5,2" d="M58.5,-135.24C58.5,-123.41 58.5,-108.38 58.5,-97.58"/>
<polygon fill="orange" stroke="orange" points="55,-135.36 58.5,-145.36 62,-135.36 55,-135.36"/>
<text text-anchor="middle" x="111.5" y="-119" font-family="Helvetica,sans-Serif" font-size="10.00"> &lt; event, first_cmp &gt;</text>
</g>
<!-- Node4 -->
<g id="node4" class="node">
<title>Node4</title>
<g id="a_node4"><a xlink:title=" ">
<polygon fill="white" stroke="#bfbfbf" points="44,-212.5 44,-231.5 73,-231.5 73,-212.5 44,-212.5"/>
<text text-anchor="middle" x="58.5" y="-219.5" font-family="Helvetica,sans-Serif" font-size="10.00">K</text>
</a>
</g>
</g>
<!-- Node4&#45;&gt;Node3 -->
<g id="edge3" class="edge">
<title>Node4&#45;&gt;Node3</title>
<path fill="none" stroke="#9a32cd" stroke-dasharray="5,2" d="M58.5,-202.04C58.5,-189.67 58.5,-174.12 58.5,-164.63"/>
<polygon fill="#9a32cd" stroke="#9a32cd" points="55,-202.23 58.5,-212.23 62,-202.23 55,-202.23"/>
<text text-anchor="middle" x="71.5" y="-186" font-family="Helvetica,sans-Serif" font-size="10.00"> keys</text>
</g>
</g>
</svg>
