<?xml version="1.0" encoding="UTF-8" standalone="no"?>
<!DOCTYPE svg PUBLIC "-//W3C//DTD SVG 1.1//EN"
 "http://www.w3.org/Graphics/SVG/1.1/DTD/svg11.dtd">
<!-- Generated by graphviz version 2.43.0 (0)
 -->
<!-- Title: bigint::BigInt Pages: 1 -->
<svg width="149pt" height="229pt"
 viewBox="0.00 0.00 148.50 229.00" xmlns="http://www.w3.org/2000/svg" xmlns:xlink="http://www.w3.org/1999/xlink">
<g id="graph0" class="graph" transform="scale(1 1) rotate(0) translate(4 225)">
<title>bigint::BigInt</title>
<polygon fill="white" stroke="transparent" points="-4,4 -4,-225 144.5,-225 144.5,4 -4,4"/>
<!-- Node1 -->
<g id="node1" class="node">
<title>Node1</title>
<g id="a_node1"><a xlink:title=" ">
<polygon fill="#bfbfbf" stroke="black" points="29,-0.5 29,-19.5 108,-19.5 108,-0.5 29,-0.5"/>
<text text-anchor="middle" x="68.5" y="-7.5" font-family="Helvetica,sans-Serif" font-size="10.00">bigint::BigInt</text>
</a>
</g>
</g>
<!-- Node2 -->
<g id="node2" class="node">
<title>Node2</title>
<g id="a_node2"><a xlink:title=" ">
<polygon fill="white" stroke="#bfbfbf" points="0,-67.5 0,-86.5 137,-86.5 137,-67.5 0,-67.5"/>
<text text-anchor="middle" x="68.5" y="-74.5" font-family="Helvetica,sans-Serif" font-size="10.00">std::vector&lt; DigitType &gt;</text>
</a>
</g>
</g>
<!-- Node2&#45;&gt;Node1 -->
<g id="edge1" class="edge">
<title>Node2&#45;&gt;Node1</title>
<path fill="none" stroke="#9a32cd" stroke-dasharray="5,2" d="M68.5,-57.04C68.5,-44.67 68.5,-29.12 68.5,-19.63"/>
<polygon fill="#9a32cd" stroke="#9a32cd" points="65,-57.23 68.5,-67.23 72,-57.23 65,-57.23"/>
<text text-anchor="middle" x="84" y="-41" font-family="Helvetica,sans-Serif" font-size="10.00"> digits</text>
</g>
<!-- Node3 -->
<g id="node3" class="node">
<title>Node3</title>
<g id="a_node3"><a xlink:title="STL class.">
<polygon fill="white" stroke="#bfbfbf" points="20,-134.5 20,-153.5 117,-153.5 117,-134.5 20,-134.5"/>
<text text-anchor="middle" x="68.5" y="-141.5" font-family="Helvetica,sans-Serif" font-size="10.00">std::vector&lt; T &gt;</text>
</a>
</g>
</g>
<!-- Node3&#45;&gt;Node2 -->
<g id="edge2" class="edge">
<title>Node3&#45;&gt;Node2</title>
<path fill="none" stroke="orange" stroke-dasharray="5,2" d="M68.5,-124.04C68.5,-111.67 68.5,-96.12 68.5,-86.63"/>
<polygon fill="orange" stroke="orange" points="65,-124.23 68.5,-134.23 72,-124.23 65,-124.23"/>
<text text-anchor="middle" x="104.5" y="-108" font-family="Helvetica,sans-Serif" font-size="10.00"> &lt; DigitType &gt;</text>
</g>
<!-- Node4 -->
<g id="node4" class="node">
<title>Node4</title>
<g id="a_node4"><a xlink:title=" ">
<polygon fill="white" stroke="#bfbfbf" points="54,-201.5 54,-220.5 83,-220.5 83,-201.5 54,-201.5"/>
<text text-anchor="middle" x="68.5" y="-208.5" font-family="Helvetica,sans-Serif" font-size="10.00">T</text>
</a>
</g>
</g>
<!-- Node4&#45;&gt;Node3 -->
<g id="edge3" class="edge">
<title>Node4&#45;&gt;Node3</title>
<path fill="none" stroke="#9a32cd" stroke-dasharray="5,2" d="M68.5,-191.04C68.5,-178.67 68.5,-163.12 68.5,-153.63"/>
<polygon fill="#9a32cd" stroke="#9a32cd" points="65,-191.23 68.5,-201.23 72,-191.23 65,-191.23"/>
<text text-anchor="middle" x="93" y="-175" font-family="Helvetica,sans-Serif" font-size="10.00"> elements</text>
</g>
</g>
</svg>
