<?xml version="1.0" encoding="UTF-8" standalone="no"?>
<!DOCTYPE svg PUBLIC "-//W3C//DTD SVG 1.1//EN"
 "http://www.w3.org/Graphics/SVG/1.1/DTD/svg11.dtd">
<!-- Generated by graphviz version 2.43.0 (0)
 -->
<!-- Title: splay_tree::SplayNode::attach Pages: 1 -->
<svg width="1319pt" height="307pt"
 viewBox="0.00 0.00 1319.00 306.50" xmlns="http://www.w3.org/2000/svg" xmlns:xlink="http://www.w3.org/1999/xlink">
<g id="graph0" class="graph" transform="scale(1 1) rotate(0) translate(4 302.5)">
<title>splay_tree::SplayNode::attach</title>
<polygon fill="white" stroke="transparent" points="-4,4 -4,-302.5 1315,-302.5 1315,4 -4,4"/>
<!-- Node1 -->
<g id="node1" class="node">
<title>Node1</title>
<g id="a_node1"><a xlink:title=" ">
<polygon fill="#bfbfbf" stroke="black" points="1185,-197.5 1185,-227.5 1311,-227.5 1311,-197.5 1185,-197.5"/>
<text text-anchor="start" x="1193" y="-215.5" font-family="Helvetica,sans-Serif" font-size="10.00">splay_tree::SplayNode</text>
<text text-anchor="middle" x="1248" y="-204.5" font-family="Helvetica,sans-Serif" font-size="10.00">::attach</text>
</a>
</g>
</g>
<!-- Node2 -->
<g id="node2" class="node">
<title>Node2</title>
<g id="a_node2"><a xlink:href="namespacelink__cut.html#ac946b39708c027e0827fa6e4f1440e71" target="_top" xlink:title=" ">
<polygon fill="white" stroke="black" points="715,-203 715,-222 809,-222 809,-203 715,-203"/>
<text text-anchor="middle" x="762" y="-210" font-family="Helvetica,sans-Serif" font-size="10.00">link_cut::access</text>
</a>
</g>
</g>
<!-- Node1&#45;&gt;Node2 -->
<g id="edge1" class="edge">
<title>Node1&#45;&gt;Node2</title>
<path fill="none" stroke="midnightblue" d="M1174.61,-212.5C1073.68,-212.5 893.62,-212.5 809.14,-212.5"/>
<polygon fill="midnightblue" stroke="midnightblue" points="1174.72,-216 1184.72,-212.5 1174.72,-209 1174.72,-216"/>
</g>
<!-- Node10 -->
<g id="node10" class="node">
<title>Node10</title>
<g id="a_node10"><a xlink:href="namespacelink__cut.html#a4547d61253b63b606fb1d477541d454e" target="_top" xlink:title=" ">
<polygon fill="white" stroke="black" points="563,-279 563,-298 642,-298 642,-279 563,-279"/>
<text text-anchor="middle" x="602.5" y="-286" font-family="Helvetica,sans-Serif" font-size="10.00">link_cut::link</text>
</a>
</g>
</g>
<!-- Node1&#45;&gt;Node10 -->
<g id="edge14" class="edge">
<title>Node1&#45;&gt;Node10</title>
<path fill="none" stroke="midnightblue" d="M1174.71,-223.07C1166.05,-224.26 1157.33,-225.43 1149,-226.5 959.21,-250.84 731.63,-275.13 642.24,-284.48"/>
<polygon fill="midnightblue" stroke="midnightblue" points="1175.4,-226.5 1184.83,-221.66 1174.44,-219.57 1175.4,-226.5"/>
</g>
<!-- Node11 -->
<g id="node11" class="node">
<title>Node11</title>
<g id="a_node11"><a xlink:href="structsplay__tree_1_1SplayNode.html#a099b6b1b7632cb57ee28bc474d86343e" target="_top" xlink:title=" ">
<polygon fill="white" stroke="black" points="1023,-153.5 1023,-183.5 1149,-183.5 1149,-153.5 1023,-153.5"/>
<text text-anchor="start" x="1031" y="-171.5" font-family="Helvetica,sans-Serif" font-size="10.00">splay_tree::SplayNode</text>
<text text-anchor="middle" x="1086" y="-160.5" font-family="Helvetica,sans-Serif" font-size="10.00">::rotate</text>
</a>
</g>
</g>
<!-- Node1&#45;&gt;Node11 -->
<g id="edge15" class="edge">
<title>Node1&#45;&gt;Node11</title>
<path fill="none" stroke="midnightblue" d="M1182.63,-194.8C1169.04,-191.06 1154.83,-187.15 1141.64,-183.53"/>
<polygon fill="midnightblue" stroke="midnightblue" points="1181.81,-198.2 1192.38,-197.48 1183.67,-191.45 1181.81,-198.2"/>
</g>
<!-- Node3 -->
<g id="node3" class="node">
<title>Node3</title>
<g id="a_node3"><a xlink:href="namespacelink__cut.html#ab6b1e676cdcb014dd718dcef1bc009de" target="_top" xlink:title=" ">
<polygon fill="white" stroke="black" points="409.5,-165 409.5,-184 485.5,-184 485.5,-165 409.5,-165"/>
<text text-anchor="middle" x="447.5" y="-172" font-family="Helvetica,sans-Serif" font-size="10.00">link_cut::cut</text>
</a>
</g>
</g>
<!-- Node2&#45;&gt;Node3 -->
<g id="edge2" class="edge">
<title>Node2&#45;&gt;Node3</title>
<path fill="none" stroke="midnightblue" d="M706.68,-200.93C692.51,-198.2 677.22,-195.5 663,-193.5 601.18,-184.79 528.73,-179.36 485.83,-176.64"/>
<polygon fill="midnightblue" stroke="midnightblue" points="706.28,-204.42 716.77,-202.92 707.63,-197.55 706.28,-204.42"/>
</g>
<!-- Node8 -->
<g id="node8" class="node">
<title>Node8</title>
<g id="a_node8"><a xlink:href="namespacelink__cut.html#a3cb07576c29a6d57e510b41c59832ef4" target="_top" xlink:title=" ">
<polygon fill="white" stroke="black" points="550.5,-203 550.5,-222 654.5,-222 654.5,-203 550.5,-203"/>
<text text-anchor="middle" x="602.5" y="-210" font-family="Helvetica,sans-Serif" font-size="10.00">link_cut::find_root</text>
</a>
</g>
</g>
<!-- Node2&#45;&gt;Node8 -->
<g id="edge7" class="edge">
<title>Node2&#45;&gt;Node8</title>
<path fill="none" stroke="midnightblue" d="M704.16,-212.5C687.94,-212.5 670.38,-212.5 654.53,-212.5"/>
<polygon fill="midnightblue" stroke="midnightblue" points="704.6,-216 714.6,-212.5 704.6,-209 704.6,-216"/>
</g>
<!-- Node9 -->
<g id="node9" class="node">
<title>Node9</title>
<g id="a_node9"><a xlink:href="namespacelink__cut.html#a87ccf88a6b91bcd10ae30fcfcd4b2b9d" target="_top" xlink:title=" ">
<polygon fill="white" stroke="black" points="410,-241 410,-260 485,-260 485,-241 410,-241"/>
<text text-anchor="middle" x="447.5" y="-248" font-family="Helvetica,sans-Serif" font-size="10.00">link_cut::lca</text>
</a>
</g>
</g>
<!-- Node2&#45;&gt;Node9 -->
<g id="edge11" class="edge">
<title>Node2&#45;&gt;Node9</title>
<path fill="none" stroke="midnightblue" d="M706.68,-224.07C692.51,-226.8 677.22,-229.5 663,-231.5 600.81,-240.26 527.86,-245.7 485.07,-248.41"/>
<polygon fill="midnightblue" stroke="midnightblue" points="707.63,-227.45 716.77,-222.08 706.28,-220.58 707.63,-227.45"/>
</g>
<!-- Node2&#45;&gt;Node10 -->
<g id="edge12" class="edge">
<title>Node2&#45;&gt;Node10</title>
<path fill="none" stroke="midnightblue" d="M735.38,-227.04C715.82,-237.91 688.06,-252.84 663,-264.5 651.99,-269.62 639.57,-274.73 628.94,-278.92"/>
<polygon fill="midnightblue" stroke="midnightblue" points="737.26,-230 744.28,-222.06 733.84,-223.89 737.26,-230"/>
</g>
<!-- Node4 -->
<g id="node4" class="node">
<title>Node4</title>
<g id="a_node4"><a xlink:href="namespacelink__cut_1_1test.html#ad63bee2821de932f5d295238e48d106f" target="_top" xlink:title=" ">
<polygon fill="white" stroke="black" points="249,-197.5 249,-227.5 353,-227.5 353,-197.5 249,-197.5"/>
<text text-anchor="start" x="257" y="-215.5" font-family="Helvetica,sans-Serif" font-size="10.00">link_cut::test::test</text>
<text text-anchor="middle" x="301" y="-204.5" font-family="Helvetica,sans-Serif" font-size="10.00">_link_cut_tree</text>
</a>
</g>
</g>
<!-- Node3&#45;&gt;Node4 -->
<g id="edge3" class="edge">
<title>Node3&#45;&gt;Node4</title>
<path fill="none" stroke="midnightblue" d="M400,-186.73C385.07,-190.66 368.44,-195.03 353.19,-199.04"/>
<polygon fill="midnightblue" stroke="midnightblue" points="401.26,-190.02 410.04,-184.09 399.48,-183.25 401.26,-190.02"/>
</g>
<!-- Node5 -->
<g id="node5" class="node">
<title>Node5</title>
<g id="a_node5"><a xlink:href="test_8cpp.html#aa1c715cac916839a95e25b65b4071c4a" target="_top" xlink:title=" ">
<polygon fill="white" stroke="black" points="160,-140 160,-159 213,-159 213,-140 160,-140"/>
<text text-anchor="middle" x="186.5" y="-147" font-family="Helvetica,sans-Serif" font-size="10.00">test_all</text>
</a>
</g>
</g>
<!-- Node4&#45;&gt;Node5 -->
<g id="edge4" class="edge">
<title>Node4&#45;&gt;Node5</title>
<path fill="none" stroke="midnightblue" d="M264.25,-192.48C244.38,-181.35 220.56,-168.01 204.78,-159.18"/>
<polygon fill="midnightblue" stroke="midnightblue" points="262.62,-195.58 273.05,-197.41 266.04,-189.47 262.62,-195.58"/>
</g>
<!-- Node6 -->
<g id="node6" class="node">
<title>Node6</title>
<g id="a_node6"><a xlink:href="test_8cpp.html#af095a232149097b5605064623a9345ac" target="_top" xlink:title=" ">
<polygon fill="white" stroke="black" points="77,-140 77,-159 124,-159 124,-140 77,-140"/>
<text text-anchor="middle" x="100.5" y="-147" font-family="Helvetica,sans-Serif" font-size="10.00">main2</text>
</a>
</g>
</g>
<!-- Node5&#45;&gt;Node6 -->
<g id="edge5" class="edge">
<title>Node5&#45;&gt;Node6</title>
<path fill="none" stroke="midnightblue" d="M149.59,-149.5C140.96,-149.5 131.99,-149.5 124.16,-149.5"/>
<polygon fill="midnightblue" stroke="midnightblue" points="149.84,-153 159.84,-149.5 149.84,-146 149.84,-153"/>
</g>
<!-- Node7 -->
<g id="node7" class="node">
<title>Node7</title>
<g id="a_node7"><a xlink:href="main_8hpp.html#a0ddf1224851353fc92bfbff6f499fa97" target="_top" xlink:title=" ">
<polygon fill="white" stroke="black" points="0,-140 0,-159 41,-159 41,-140 0,-140"/>
<text text-anchor="middle" x="20.5" y="-147" font-family="Helvetica,sans-Serif" font-size="10.00">main</text>
</a>
</g>
</g>
<!-- Node6&#45;&gt;Node7 -->
<g id="edge6" class="edge">
<title>Node6&#45;&gt;Node7</title>
<path fill="none" stroke="midnightblue" d="M66.66,-149.5C57.96,-149.5 48.84,-149.5 41.1,-149.5"/>
<polygon fill="midnightblue" stroke="midnightblue" points="66.94,-153 76.94,-149.5 66.94,-146 66.94,-153"/>
</g>
<!-- Node8&#45;&gt;Node4 -->
<g id="edge10" class="edge">
<title>Node8&#45;&gt;Node4</title>
<path fill="none" stroke="midnightblue" d="M540.02,-212.5C484.88,-212.5 404.92,-212.5 353.19,-212.5"/>
<polygon fill="midnightblue" stroke="midnightblue" points="540.35,-216 550.35,-212.5 540.35,-209 540.35,-216"/>
</g>
<!-- Node8&#45;&gt;Node9 -->
<g id="edge8" class="edge">
<title>Node8&#45;&gt;Node9</title>
<path fill="none" stroke="midnightblue" d="M553.09,-224.52C531.13,-229.98 505.6,-236.32 485.25,-241.37"/>
<polygon fill="midnightblue" stroke="midnightblue" points="554.03,-227.9 562.89,-222.09 552.34,-221.1 554.03,-227.9"/>
</g>
<!-- Node9&#45;&gt;Node4 -->
<g id="edge9" class="edge">
<title>Node9&#45;&gt;Node4</title>
<path fill="none" stroke="midnightblue" d="M400,-238.27C385.07,-234.34 368.44,-229.97 353.19,-225.96"/>
<polygon fill="midnightblue" stroke="midnightblue" points="399.48,-241.75 410.04,-240.91 401.26,-234.98 399.48,-241.75"/>
</g>
<!-- Node10&#45;&gt;Node4 -->
<g id="edge13" class="edge">
<title>Node10&#45;&gt;Node4</title>
<path fill="none" stroke="midnightblue" d="M552.56,-290.78C508.56,-291.29 442.77,-288.19 389,-269.5 362.39,-260.25 335.91,-241.11 319.27,-227.56"/>
<polygon fill="midnightblue" stroke="midnightblue" points="552.77,-294.28 562.71,-290.59 552.65,-287.28 552.77,-294.28"/>
</g>
<!-- Node12 -->
<g id="node12" class="node">
<title>Node12</title>
<g id="a_node12"><a xlink:href="structsplay__tree_1_1SplayNode.html#a34a54d6c33025f4be7b37065e584b8c5" target="_top" xlink:title=" ">
<polygon fill="white" stroke="black" points="861,-113.5 861,-143.5 987,-143.5 987,-113.5 861,-113.5"/>
<text text-anchor="start" x="869" y="-131.5" font-family="Helvetica,sans-Serif" font-size="10.00">splay_tree::SplayNode</text>
<text text-anchor="middle" x="924" y="-120.5" font-family="Helvetica,sans-Serif" font-size="10.00">::splay</text>
</a>
</g>
</g>
<!-- Node11&#45;&gt;Node12 -->
<g id="edge16" class="edge">
<title>Node11&#45;&gt;Node12</title>
<path fill="none" stroke="midnightblue" d="M1015.07,-151.02C1005.08,-148.52 994.88,-145.97 985.1,-143.53"/>
<polygon fill="midnightblue" stroke="midnightblue" points="1014.42,-154.46 1024.97,-153.49 1016.11,-147.67 1014.42,-154.46"/>
</g>
<!-- Node12&#45;&gt;Node2 -->
<g id="edge17" class="edge">
<title>Node12&#45;&gt;Node2</title>
<path fill="none" stroke="midnightblue" d="M885.13,-148.38C852.42,-165.55 806.58,-189.62 781.39,-202.85"/>
<polygon fill="midnightblue" stroke="midnightblue" points="887.17,-151.26 894.4,-143.52 883.91,-145.07 887.17,-151.26"/>
</g>
<!-- Node13 -->
<g id="node13" class="node">
<title>Node13</title>
<g id="a_node13"><a xlink:href="structsplay__tree_1_1SplayTree.html#a967e320e3d33cad8b0a9c30cd51ed924" target="_top" xlink:title=" ">
<polygon fill="white" stroke="black" points="542,-27.5 542,-57.5 663,-57.5 663,-27.5 542,-27.5"/>
<text text-anchor="start" x="550" y="-45.5" font-family="Helvetica,sans-Serif" font-size="10.00">splay_tree::SplayTree</text>
<text text-anchor="middle" x="602.5" y="-34.5" font-family="Helvetica,sans-Serif" font-size="10.00">::erase</text>
</a>
</g>
</g>
<!-- Node12&#45;&gt;Node13 -->
<g id="edge18" class="edge">
<title>Node12&#45;&gt;Node13</title>
<path fill="none" stroke="midnightblue" d="M889.68,-108.22C871.22,-97.84 847.52,-85.87 825,-78.5 771.87,-61.1 708.7,-51.9 663.45,-47.17"/>
<polygon fill="midnightblue" stroke="midnightblue" points="888.13,-111.37 898.55,-113.31 891.62,-105.3 888.13,-111.37"/>
</g>
<!-- Node15 -->
<g id="node15" class="node">
<title>Node15</title>
<g id="a_node15"><a xlink:href="structsplay__tree_1_1SplayTree.html#a80ab90fbd7be1405ae05399b0fc2f2f1" target="_top" xlink:title=" ">
<polygon fill="white" stroke="black" points="701.5,-137.5 701.5,-167.5 822.5,-167.5 822.5,-137.5 701.5,-137.5"/>
<text text-anchor="start" x="709.5" y="-155.5" font-family="Helvetica,sans-Serif" font-size="10.00">splay_tree::SplayTree</text>
<text text-anchor="middle" x="762" y="-144.5" font-family="Helvetica,sans-Serif" font-size="10.00">::insert</text>
</a>
</g>
</g>
<!-- Node12&#45;&gt;Node15 -->
<g id="edge21" class="edge">
<title>Node12&#45;&gt;Node15</title>
<path fill="none" stroke="midnightblue" d="M850.58,-139.36C841.19,-140.77 831.67,-142.2 822.53,-143.57"/>
<polygon fill="midnightblue" stroke="midnightblue" points="851.31,-142.79 860.68,-137.85 850.27,-135.87 851.31,-142.79"/>
</g>
<!-- Node17 -->
<g id="node17" class="node">
<title>Node17</title>
<g id="a_node17"><a xlink:href="structsplay__tree_1_1SplayTree.html#a21a513a7ac2715f280d2a89b3890722a" target="_top" xlink:title=" ">
<polygon fill="white" stroke="black" points="701.5,-0.5 701.5,-30.5 822.5,-30.5 822.5,-0.5 701.5,-0.5"/>
<text text-anchor="start" x="709.5" y="-18.5" font-family="Helvetica,sans-Serif" font-size="10.00">splay_tree::SplayTree</text>
<text text-anchor="middle" x="762" y="-7.5" font-family="Helvetica,sans-Serif" font-size="10.00">::join</text>
</a>
</g>
</g>
<!-- Node12&#45;&gt;Node17 -->
<g id="edge24" class="edge">
<title>Node12&#45;&gt;Node17</title>
<path fill="none" stroke="midnightblue" d="M900.37,-106.45C881.3,-88.6 852.76,-63.56 825,-45.5 816.58,-40.02 807.01,-34.91 797.95,-30.51"/>
<polygon fill="midnightblue" stroke="midnightblue" points="898.01,-109.04 907.68,-113.38 902.83,-103.96 898.01,-109.04"/>
</g>
<!-- Node18 -->
<g id="node18" class="node">
<title>Node18</title>
<g id="a_node18"><a xlink:href="structsplay__tree_1_1SplayNode.html#a82d47b54b62b9e59f594af8db601fc05" target="_top" xlink:title=" ">
<polygon fill="white" stroke="black" points="699,-88.5 699,-118.5 825,-118.5 825,-88.5 699,-88.5"/>
<text text-anchor="start" x="707" y="-106.5" font-family="Helvetica,sans-Serif" font-size="10.00">splay_tree::SplayNode</text>
<text text-anchor="middle" x="762" y="-95.5" font-family="Helvetica,sans-Serif" font-size="10.00">::split</text>
</a>
</g>
</g>
<!-- Node12&#45;&gt;Node18 -->
<g id="edge26" class="edge">
<title>Node12&#45;&gt;Node18</title>
<path fill="none" stroke="midnightblue" d="M850.73,-117.21C842.19,-115.87 833.53,-114.52 825.15,-113.21"/>
<polygon fill="midnightblue" stroke="midnightblue" points="850.26,-120.68 860.68,-118.76 851.34,-113.76 850.26,-120.68"/>
</g>
<!-- Node14 -->
<g id="node14" class="node">
<title>Node14</title>
<g id="a_node14"><a xlink:href="namespacesplay__tree_1_1test.html#a5aa5fd954b1cb0fb099a2310d2801e9e" target="_top" xlink:title=" ">
<polygon fill="white" stroke="black" points="389,-71.5 389,-101.5 506,-101.5 506,-71.5 389,-71.5"/>
<text text-anchor="start" x="397" y="-89.5" font-family="Helvetica,sans-Serif" font-size="10.00">splay_tree::test::test</text>
<text text-anchor="middle" x="447.5" y="-78.5" font-family="Helvetica,sans-Serif" font-size="10.00">_splay_tree</text>
</a>
</g>
</g>
<!-- Node13&#45;&gt;Node14 -->
<g id="edge19" class="edge">
<title>Node13&#45;&gt;Node14</title>
<path fill="none" stroke="midnightblue" d="M539.56,-60.31C526.69,-64.02 513.24,-67.88 500.75,-71.47"/>
<polygon fill="midnightblue" stroke="midnightblue" points="540.63,-63.65 549.27,-57.52 538.7,-56.92 540.63,-63.65"/>
</g>
<!-- Node14&#45;&gt;Node5 -->
<g id="edge20" class="edge">
<title>Node14&#45;&gt;Node5</title>
<path fill="none" stroke="midnightblue" d="M378.81,-102.97C324.6,-116.15 251.52,-133.93 213.27,-143.23"/>
<polygon fill="midnightblue" stroke="midnightblue" points="379.81,-106.32 388.7,-100.56 378.15,-99.52 379.81,-106.32"/>
</g>
<!-- Node15&#45;&gt;Node14 -->
<g id="edge23" class="edge">
<title>Node15&#45;&gt;Node14</title>
<path fill="none" stroke="midnightblue" d="M711.51,-133.41C707.24,-131.5 703.02,-129.52 699,-127.5 682.25,-119.08 680.81,-111.37 663,-105.5 611.87,-88.64 550.39,-84.74 506.39,-84.55"/>
<polygon fill="midnightblue" stroke="midnightblue" points="710.31,-136.7 720.88,-137.45 713.08,-130.28 710.31,-136.7"/>
</g>
<!-- Node16 -->
<g id="node16" class="node">
<title>Node16</title>
<g id="a_node16"><a xlink:href="structsplay__tree_1_1SplayTree.html#a2bf075a9e6a46e3f9b61e7b00b546707" target="_top" xlink:title=" ">
<polygon fill="white" stroke="black" points="542,-115.5 542,-145.5 663,-145.5 663,-115.5 542,-115.5"/>
<text text-anchor="start" x="550" y="-133.5" font-family="Helvetica,sans-Serif" font-size="10.00">splay_tree::SplayTree</text>
<text text-anchor="middle" x="602.5" y="-122.5" font-family="Helvetica,sans-Serif" font-size="10.00">::insert</text>
</a>
</g>
</g>
<!-- Node15&#45;&gt;Node16 -->
<g id="edge22" class="edge">
<title>Node15&#45;&gt;Node16</title>
<path fill="none" stroke="midnightblue" d="M691.34,-142.77C681.93,-141.46 672.34,-140.12 663.13,-138.83"/>
<polygon fill="midnightblue" stroke="midnightblue" points="691.07,-146.27 701.46,-144.18 692.04,-139.33 691.07,-146.27"/>
</g>
<!-- Node17&#45;&gt;Node13 -->
<g id="edge25" class="edge">
<title>Node17&#45;&gt;Node13</title>
<path fill="none" stroke="midnightblue" d="M691.34,-27.44C681.93,-29.06 672.34,-30.7 663.13,-32.28"/>
<polygon fill="midnightblue" stroke="midnightblue" points="692.19,-30.85 701.46,-25.71 691.01,-23.95 692.19,-30.85"/>
</g>
</g>
</svg>
