<?xml version="1.0" encoding="UTF-8" standalone="no"?>
<!DOCTYPE svg PUBLIC "-//W3C//DTD SVG 1.1//EN"
 "http://www.w3.org/Graphics/SVG/1.1/DTD/svg11.dtd">
<!-- Generated by graphviz version 2.43.0 (0)
 -->
<!-- Title: SplayTree&lt; T &gt; Pages: 1 -->
<svg width="240pt" height="106pt"
 viewBox="0.00 0.00 240.00 106.00" xmlns="http://www.w3.org/2000/svg" xmlns:xlink="http://www.w3.org/1999/xlink">
<g id="graph0" class="graph" transform="scale(1 1) rotate(0) translate(4 102)">
<title>SplayTree&lt; T &gt;</title>
<polygon fill="white" stroke="transparent" points="-4,4 -4,-102 236,-102 236,4 -4,4"/>
<!-- Node1 -->
<g id="node1" class="node">
<title>Node1</title>
<g id="a_node1"><a xlink:title=" ">
<polygon fill="#bfbfbf" stroke="black" points="0,-6 0,-25 92,-25 92,-6 0,-6"/>
<text text-anchor="middle" x="46" y="-13" font-family="Helvetica,sans-Serif" font-size="10.00">SplayTree&lt; T &gt;</text>
</a>
</g>
</g>
<!-- Node2 -->
<g id="node2" class="node">
<title>Node2</title>
<g id="a_node2"><a xlink:href="structSplayTree_1_1Node.html" target="_top" xlink:title=" ">
<polygon fill="white" stroke="black" points="37,-78.5 37,-97.5 161,-97.5 161,-78.5 37,-78.5"/>
<text text-anchor="middle" x="99" y="-85.5" font-family="Helvetica,sans-Serif" font-size="10.00">SplayTree&lt; T &gt;::Node</text>
</a>
</g>
</g>
<!-- Node2&#45;&gt;Node1 -->
<g id="edge1" class="edge">
<title>Node2&#45;&gt;Node1</title>
<path fill="none" stroke="#9a32cd" stroke-dasharray="5,2" d="M68.21,-73.39C62.77,-69.75 57.68,-65.31 54,-60 46.83,-49.65 45.56,-34.71 45.58,-25.31"/>
<polygon fill="#9a32cd" stroke="#9a32cd" points="66.49,-76.44 76.89,-78.47 70.03,-70.4 66.49,-76.44"/>
<text text-anchor="middle" x="65.5" y="-52" font-family="Helvetica,sans-Serif" font-size="10.00"> root</text>
</g>
<!-- Node2&#45;&gt;Node2 -->
<g id="edge2" class="edge">
<title>Node2&#45;&gt;Node2</title>
<path fill="none" stroke="#9a32cd" stroke-dasharray="5,2" d="M171.03,-92.35C175.99,-91.35 179,-89.9 179,-88 179,-85.03 171.66,-83.16 161.05,-82.4"/>
<polygon fill="#9a32cd" stroke="#9a32cd" points="170.54,-88.88 161.05,-93.6 171.41,-95.83 170.54,-88.88"/>
<text text-anchor="middle" x="196.5" y="-85.5" font-family="Helvetica,sans-Serif" font-size="10.00"> parent</text>
</g>
<!-- Node3 -->
<g id="node3" class="node">
<title>Node3</title>
<g id="a_node3"><a xlink:title=" ">
<polygon fill="white" stroke="#bfbfbf" points="110,-0.5 110,-30.5 232,-30.5 232,-0.5 110,-0.5"/>
<text text-anchor="start" x="118" y="-18.5" font-family="Helvetica,sans-Serif" font-size="10.00">std::array&lt; SplayTree</text>
<text text-anchor="middle" x="171" y="-7.5" font-family="Helvetica,sans-Serif" font-size="10.00">::Node *, 2 &gt;</text>
</a>
</g>
</g>
<!-- Node2&#45;&gt;Node3 -->
<g id="edge4" class="edge">
<title>Node2&#45;&gt;Node3</title>
<path fill="none" stroke="#9a32cd" stroke-dasharray="5,2" d="M93,-68.26C92.02,-61.71 92.32,-54.6 96,-49 101.14,-41.17 108.61,-35.22 116.88,-30.7"/>
<polygon fill="#9a32cd" stroke="#9a32cd" points="89.71,-69.52 95.49,-78.4 96.51,-67.85 89.71,-69.52"/>
<text text-anchor="middle" x="120.5" y="-52" font-family="Helvetica,sans-Serif" font-size="10.00"> elements</text>
</g>
<!-- Node3&#45;&gt;Node2 -->
<g id="edge3" class="edge">
<title>Node3&#45;&gt;Node2</title>
<path fill="none" stroke="#9a32cd" stroke-dasharray="5,2" d="M162.33,-39.98C158.94,-47 154.52,-54.33 149,-60 141.29,-67.92 130.76,-74.07 121.35,-78.5"/>
<polygon fill="#9a32cd" stroke="#9a32cd" points="165.55,-41.34 166.32,-30.78 159.13,-38.56 165.55,-41.34"/>
<text text-anchor="middle" x="170.5" y="-52" font-family="Helvetica,sans-Serif" font-size="10.00"> child</text>
</g>
</g>
</svg>
