<?xml version="1.0" encoding="UTF-8" standalone="no"?>
<!DOCTYPE svg PUBLIC "-//W3C//DTD SVG 1.1//EN"
 "http://www.w3.org/Graphics/SVG/1.1/DTD/svg11.dtd">
<!-- Generated by graphviz version 2.43.0 (0)
 -->
<!-- Title: graph_theory::DFS&lt; Graph &gt; Pages: 1 -->
<!--zoomable 176 -->
<svg id="main" version="1.1" xmlns="http://www.w3.org/2000/svg" xmlns:xlink="http://www.w3.org/1999/xlink" xml:space="preserve" onload="init(evt)">
<style type="text/css"><![CDATA[
.edge:hover path { stroke: red; }
.edge:hover polygon { stroke: red; fill: red; }
]]></style>
<script type="text/javascript"><![CDATA[
var edges = document.getElementsByTagName('g');
if (edges && edges.length) {
  for (var i=0;i<edges.length;i++) {
    if (edges[i].id.substr(0,4)=='edge') {
      edges[i].setAttribute('class','edge');
    }
  }
}
]]></script>
        <defs>
                <circle id="rim" cx="0" cy="0" r="7"/>
                <circle id="rim2" cx="0" cy="0" r="3.5"/>
                <g id="zoomPlus">
                        <use xlink:href="#rim" fill="#404040">
                                <set attributeName="fill" to="#808080" begin="zoomplus.mouseover" end="zoomplus.mouseout"/>
                        </use>
                        <path d="M-4,0h8M0,-4v8" fill="none" stroke="white" stroke-width="1.5" pointer-events="none"/>
                </g>
                <g id="zoomMin">
                        <use xlink:href="#rim" fill="#404040">
                                <set attributeName="fill" to="#808080" begin="zoomminus.mouseover" end="zoomminus.mouseout"/>
                        </use>
                        <path d="M-4,0h8" fill="none" stroke="white" stroke-width="1.5" pointer-events="none"/>
                </g>
                <g id="dirArrow">
                        <path fill="none" stroke="white" stroke-width="1.5" d="M0,-3.0v7 M-2.5,-0.5L0,-3.0L2.5,-0.5"/>
                </g>
               <g id="resetDef">
                       <use xlink:href="#rim2" fill="#404040">
                               <set attributeName="fill" to="#808080" begin="reset.mouseover" end="reset.mouseout"/>
                       </use>
               </g>
        </defs>

<script type="text/javascript">
var viewWidth = 1263;
var viewHeight = 176;
var sectionId = 'dynsection-1';
</script>
<script xlink:href="svgpan.js"/>
<svg id="graph" class="graph">
<g id="viewport">
<title>graph_theory::DFS&lt; Graph &gt;</title>
<polygon fill="white" stroke="transparent" points="-4,4 -4,-172.48 1259,-172.48 1259,4 -4,4"/>
<!-- Node1 -->
<g id="node1" class="node">
<title>Node1</title>
<g id="a_node1"><a xlink:title="Depth&#45;first search.">
<polygon fill="#bfbfbf" stroke="black" points="1141,-105.48 1141,-135.48 1255,-135.48 1255,-105.48 1141,-105.48"/>
<text text-anchor="start" x="1149" y="-123.48" font-family="Helvetica,sans-Serif" font-size="10.00">graph_theory::DFS&lt;</text>
<text text-anchor="middle" x="1198" y="-112.48" font-family="Helvetica,sans-Serif" font-size="10.00"> Graph &gt;</text>
</a>
</g>
</g>
<!-- Node2 -->
<g id="node2" class="node">
<title>Node2</title>
<g id="a_node2"><a xlink:href="structgraph__theory_1_1GeneralSearch.html" target="_top" xlink:title=" ">
<polygon fill="white" stroke="black" points="927,-105.48 927,-135.48 1104,-135.48 1104,-105.48 927,-105.48"/>
<text text-anchor="start" x="935" y="-123.48" font-family="Helvetica,sans-Serif" font-size="10.00">graph_theory::GeneralSearch</text>
<text text-anchor="middle" x="1015.5" y="-112.48" font-family="Helvetica,sans-Serif" font-size="10.00">&lt; DFS&lt; GraphAdj &gt;, GraphAdj &gt;</text>
</a>
</g>
</g>
<!-- Node2&#45;&gt;Node1 -->
<g id="edge1" class="edge">
<title>Node2&#45;&gt;Node1</title>
<path fill="none" stroke="midnightblue" d="M1114.34,-120.48C1123.39,-120.48 1132.33,-120.48 1140.81,-120.48"/>
<polygon fill="midnightblue" stroke="midnightblue" points="1114.11,-116.98 1104.11,-120.48 1114.11,-123.98 1114.11,-116.98"/>
</g>
<!-- Node3 -->
<g id="node3" class="node">
<title>Node3</title>
<g id="a_node3"><a xlink:title=" ">
<polygon fill="white" stroke="#bfbfbf" points="303.5,-110.98 303.5,-129.98 400.5,-129.98 400.5,-110.98 303.5,-110.98"/>
<text text-anchor="middle" x="352" y="-117.98" font-family="Helvetica,sans-Serif" font-size="10.00">std::vector&lt; ll &gt;</text>
</a>
</g>
</g>
<!-- Node3&#45;&gt;Node2 -->
<g id="edge2" class="edge">
<title>Node3&#45;&gt;Node2</title>
<path fill="none" stroke="#9a32cd" stroke-dasharray="5,2" d="M410.68,-120.48C526.82,-120.48 789.44,-120.48 926.9,-120.48"/>
<polygon fill="#9a32cd" stroke="#9a32cd" points="410.57,-116.98 400.57,-120.48 410.57,-123.98 410.57,-116.98"/>
<text text-anchor="middle" x="690" y="-134.48" font-family="Helvetica,sans-Serif" font-size="10.00"> parent</text>
<text text-anchor="middle" x="690" y="-123.48" font-family="Helvetica,sans-Serif" font-size="10.00">distance</text>
</g>
<!-- Node8 -->
<g id="node8" class="node">
<title>Node8</title>
<g id="a_node8"><a xlink:title=" ">
<polygon fill="white" stroke="#bfbfbf" points="526.5,-148.98 526.5,-167.98 617.5,-167.98 617.5,-148.98 526.5,-148.98"/>
<text text-anchor="middle" x="572" y="-155.98" font-family="Helvetica,sans-Serif" font-size="10.00">GraphAdj_Base</text>
</a>
</g>
</g>
<!-- Node3&#45;&gt;Node8 -->
<g id="edge8" class="edge">
<title>Node3&#45;&gt;Node8</title>
<path fill="none" stroke="#9a32cd" stroke-dasharray="5,2" d="M410.49,-130.5C446.67,-136.81 492.66,-144.83 526.13,-150.66"/>
<polygon fill="#9a32cd" stroke="#9a32cd" points="411.02,-127.04 400.57,-128.77 409.82,-133.94 411.02,-127.04"/>
<text text-anchor="middle" x="450.5" y="-143.48" font-family="Helvetica,sans-Serif" font-size="10.00"> elements</text>
</g>
<!-- Node9 -->
<g id="node9" class="node">
<title>Node9</title>
<g id="a_node9"><a xlink:href="structgraph__theory_1_1GeneralSearch.html" target="_top" xlink:title="Generalized graph searcher/visitor.">
<polygon fill="white" stroke="black" points="493,-40.48 493,-70.48 651,-70.48 651,-40.48 493,-40.48"/>
<text text-anchor="start" x="501" y="-58.48" font-family="Helvetica,sans-Serif" font-size="10.00">graph_theory::GeneralSearch</text>
<text text-anchor="middle" x="572" y="-47.48" font-family="Helvetica,sans-Serif" font-size="10.00">&lt; Searcher, Graph &gt;</text>
</a>
</g>
</g>
<!-- Node3&#45;&gt;Node9 -->
<g id="edge11" class="edge">
<title>Node3&#45;&gt;Node9</title>
<path fill="none" stroke="#9a32cd" stroke-dasharray="5,2" d="M378.15,-106.05C391.91,-98.68 409.48,-90.1 426,-84.48 447.27,-77.25 470.94,-71.57 492.88,-67.24"/>
<polygon fill="#9a32cd" stroke="#9a32cd" points="376.37,-103.03 369.29,-110.91 379.74,-109.17 376.37,-103.03"/>
<text text-anchor="middle" x="450.5" y="-98.48" font-family="Helvetica,sans-Serif" font-size="10.00"> parent</text>
<text text-anchor="middle" x="450.5" y="-87.48" font-family="Helvetica,sans-Serif" font-size="10.00">distance</text>
</g>
<!-- Node4 -->
<g id="node4" class="node">
<title>Node4</title>
<g id="a_node4"><a xlink:href="structll.html" target="_top" xlink:title=" ">
<polygon fill="white" stroke="black" points="148,-53.98 148,-72.98 177,-72.98 177,-53.98 148,-53.98"/>
<text text-anchor="middle" x="162.5" y="-60.98" font-family="Helvetica,sans-Serif" font-size="10.00">ll</text>
</a>
</g>
</g>
<!-- Node4&#45;&gt;Node3 -->
<g id="edge3" class="edge">
<title>Node4&#45;&gt;Node3</title>
<path fill="none" stroke="#9a32cd" stroke-dasharray="5,2" d="M187.26,-59.94C211.25,-57.43 248.83,-56.49 278,-69.48 288.34,-74.08 287.08,-80.52 296,-87.48 307.41,-96.39 321.41,-104.76 332.44,-110.84"/>
<polygon fill="#9a32cd" stroke="#9a32cd" points="186.78,-56.47 177.27,-61.15 187.62,-63.42 186.78,-56.47"/>
<text text-anchor="middle" x="253.5" y="-72.48" font-family="Helvetica,sans-Serif" font-size="10.00"> elements</text>
</g>
<!-- Node11 -->
<g id="node11" class="node">
<title>Node11</title>
<g id="a_node11"><a xlink:title=" ">
<polygon fill="white" stroke="#bfbfbf" points="304,-5.98 304,-24.98 400,-24.98 400,-5.98 304,-5.98"/>
<text text-anchor="middle" x="352" y="-12.98" font-family="Helvetica,sans-Serif" font-size="10.00">std::deque&lt; ll &gt;</text>
</a>
</g>
</g>
<!-- Node4&#45;&gt;Node11 -->
<g id="edge15" class="edge">
<title>Node4&#45;&gt;Node11</title>
<path fill="none" stroke="#9a32cd" stroke-dasharray="5,2" d="M186.31,-52.12C198.68,-46.37 214.38,-39.74 229,-35.48 253.21,-28.43 280.9,-23.64 303.77,-20.52"/>
<polygon fill="#9a32cd" stroke="#9a32cd" points="184.71,-49 177.2,-56.47 187.73,-55.32 184.71,-49"/>
<text text-anchor="middle" x="253.5" y="-38.48" font-family="Helvetica,sans-Serif" font-size="10.00"> elements</text>
</g>
<!-- Node5 -->
<g id="node5" class="node">
<title>Node5</title>
<g id="a_node5"><a xlink:title="STL class.">
<polygon fill="white" stroke="#bfbfbf" points="114,-97.98 114,-116.98 211,-116.98 211,-97.98 114,-97.98"/>
<text text-anchor="middle" x="162.5" y="-104.98" font-family="Helvetica,sans-Serif" font-size="10.00">std::vector&lt; T &gt;</text>
</a>
</g>
</g>
<!-- Node5&#45;&gt;Node3 -->
<g id="edge4" class="edge">
<title>Node5&#45;&gt;Node3</title>
<path fill="none" stroke="orange" stroke-dasharray="5,2" d="M221.23,-113.84C223.86,-114.07 226.46,-114.28 229,-114.48 253.52,-116.39 280.87,-117.81 303.45,-118.78"/>
<polygon fill="orange" stroke="orange" points="221.33,-110.33 211.05,-112.89 220.68,-117.3 221.33,-110.33"/>
<text text-anchor="middle" x="253.5" y="-119.48" font-family="Helvetica,sans-Serif" font-size="10.00"> &lt; ll &gt;</text>
</g>
<!-- Node5&#45;&gt;Node8 -->
<g id="edge9" class="edge">
<title>Node5&#45;&gt;Node8</title>
<path fill="none" stroke="orange" stroke-dasharray="5,2" d="M194.87,-120.64C205.54,-124.67 217.64,-128.75 229,-131.48 333.37,-156.61 460.32,-159.74 526.3,-159.39"/>
<polygon fill="orange" stroke="orange" points="196.13,-117.37 185.54,-117 193.58,-123.9 196.13,-117.37"/>
<text text-anchor="middle" x="352" y="-158.48" font-family="Helvetica,sans-Serif" font-size="10.00"> &lt; vector&lt; ll &gt; &gt;</text>
</g>
<!-- Node10 -->
<g id="node10" class="node">
<title>Node10</title>
<g id="a_node10"><a xlink:title=" ">
<polygon fill="white" stroke="#bfbfbf" points="296,-58.98 296,-77.98 408,-77.98 408,-58.98 296,-58.98"/>
<text text-anchor="middle" x="352" y="-65.98" font-family="Helvetica,sans-Serif" font-size="10.00">std::vector&lt; char &gt;</text>
</a>
</g>
</g>
<!-- Node5&#45;&gt;Node10 -->
<g id="edge13" class="edge">
<title>Node5&#45;&gt;Node10</title>
<path fill="none" stroke="orange" stroke-dasharray="5,2" d="M219.22,-95.89C246.66,-90.19 279.33,-83.39 305.28,-77.99"/>
<polygon fill="orange" stroke="orange" points="218.45,-92.48 209.37,-97.94 219.87,-99.33 218.45,-92.48"/>
<text text-anchor="middle" x="253.5" y="-96.48" font-family="Helvetica,sans-Serif" font-size="10.00"> &lt; char &gt;</text>
</g>
<!-- Node6 -->
<g id="node6" class="node">
<title>Node6</title>
<g id="a_node6"><a xlink:title=" ">
<polygon fill="white" stroke="#bfbfbf" points="0,-40.98 0,-59.98 29,-59.98 29,-40.98 0,-40.98"/>
<text text-anchor="middle" x="14.5" y="-47.98" font-family="Helvetica,sans-Serif" font-size="10.00">T</text>
</a>
</g>
</g>
<!-- Node6&#45;&gt;Node5 -->
<g id="edge5" class="edge">
<title>Node6&#45;&gt;Node5</title>
<path fill="none" stroke="#9a32cd" stroke-dasharray="5,2" d="M38.62,-59.51C65.5,-70 109.67,-87.25 137.09,-97.95"/>
<polygon fill="#9a32cd" stroke="#9a32cd" points="39.82,-56.22 29.24,-55.84 37.28,-62.74 39.82,-56.22"/>
<text text-anchor="middle" x="71.5" y="-83.48" font-family="Helvetica,sans-Serif" font-size="10.00"> elements</text>
</g>
<!-- Node12 -->
<g id="node12" class="node">
<title>Node12</title>
<g id="a_node12"><a xlink:title="STL class.">
<polygon fill="white" stroke="#bfbfbf" points="114.5,-2.98 114.5,-21.98 210.5,-21.98 210.5,-2.98 114.5,-2.98"/>
<text text-anchor="middle" x="162.5" y="-9.98" font-family="Helvetica,sans-Serif" font-size="10.00">std::deque&lt; T &gt;</text>
</a>
</g>
</g>
<!-- Node6&#45;&gt;Node12 -->
<g id="edge17" class="edge">
<title>Node6&#45;&gt;Node12</title>
<path fill="none" stroke="#9a32cd" stroke-dasharray="5,2" d="M39.22,-44.31C62.37,-38.28 97.92,-29.03 124.74,-22.05"/>
<polygon fill="#9a32cd" stroke="#9a32cd" points="38.03,-41 29.24,-46.91 39.79,-47.78 38.03,-41"/>
<text text-anchor="middle" x="71.5" y="-45.48" font-family="Helvetica,sans-Serif" font-size="10.00"> elements</text>
</g>
<!-- Node7 -->
<g id="node7" class="node">
<title>Node7</title>
<g id="a_node7"><a xlink:href="structgraph__theory_1_1GraphAdj.html" target="_top" xlink:title=" ">
<polygon fill="white" stroke="black" points="729,-148.98 729,-167.98 860,-167.98 860,-148.98 729,-148.98"/>
<text text-anchor="middle" x="794.5" y="-155.98" font-family="Helvetica,sans-Serif" font-size="10.00">graph_theory::GraphAdj</text>
</a>
</g>
</g>
<!-- Node7&#45;&gt;Node2 -->
<g id="edge6" class="edge">
<title>Node7&#45;&gt;Node2</title>
<path fill="none" stroke="#9a32cd" stroke-dasharray="5,2" d="M860.62,-147.18C881.74,-143.52 905.51,-139.39 927.93,-135.5"/>
<polygon fill="#9a32cd" stroke="#9a32cd" points="859.73,-143.78 850.48,-148.94 860.93,-150.68 859.73,-143.78"/>
<text text-anchor="middle" x="893.5" y="-146.48" font-family="Helvetica,sans-Serif" font-size="10.00"> graph</text>
</g>
<!-- Node8&#45;&gt;Node7 -->
<g id="edge7" class="edge">
<title>Node8&#45;&gt;Node7</title>
<path fill="none" stroke="midnightblue" d="M627.7,-158.48C658.35,-158.48 696.75,-158.48 728.88,-158.48"/>
<polygon fill="midnightblue" stroke="midnightblue" points="627.62,-154.98 617.62,-158.48 627.62,-161.98 627.62,-154.98"/>
</g>
<!-- Node9&#45;&gt;Node2 -->
<g id="edge10" class="edge">
<title>Node9&#45;&gt;Node2</title>
<path fill="none" stroke="orange" stroke-dasharray="5,2" d="M661.07,-61.44C718.05,-66.02 793.71,-73.46 860,-84.48 892.74,-89.93 928.89,-98.22 957.98,-105.48"/>
<polygon fill="orange" stroke="orange" points="661.26,-57.95 651.01,-60.65 660.71,-64.92 661.26,-57.95"/>
<text text-anchor="start" x="742" y="-98.48" font-family="Helvetica,sans-Serif" font-size="10.00"> &lt; DFS&lt; GraphAdj &gt;,</text>
<text text-anchor="middle" x="794.5" y="-87.48" font-family="Helvetica,sans-Serif" font-size="10.00"> GraphAdj &gt;</text>
</g>
<!-- Node10&#45;&gt;Node9 -->
<g id="edge12" class="edge">
<title>Node10&#45;&gt;Node9</title>
<path fill="none" stroke="#9a32cd" stroke-dasharray="5,2" d="M394.56,-56.4C404.76,-53.94 415.7,-51.73 426,-50.48 447.63,-47.86 471.2,-47.57 492.92,-48.35"/>
<polygon fill="#9a32cd" stroke="#9a32cd" points="393.5,-53.05 384.67,-58.9 395.22,-59.84 393.5,-53.05"/>
<text text-anchor="middle" x="450.5" y="-53.48" font-family="Helvetica,sans-Serif" font-size="10.00"> visited</text>
</g>
<!-- Node11&#45;&gt;Node9 -->
<g id="edge14" class="edge">
<title>Node11&#45;&gt;Node9</title>
<path fill="none" stroke="#9a32cd" stroke-dasharray="5,2" d="M410.2,-22.97C430.7,-25.91 453.94,-29.52 475,-33.48 485.92,-35.54 497.49,-37.97 508.66,-40.45"/>
<polygon fill="#9a32cd" stroke="#9a32cd" points="410.46,-19.47 400.07,-21.55 409.48,-26.41 410.46,-19.47"/>
<text text-anchor="middle" x="450.5" y="-36.48" font-family="Helvetica,sans-Serif" font-size="10.00"> queue</text>
</g>
<!-- Node12&#45;&gt;Node11 -->
<g id="edge16" class="edge">
<title>Node12&#45;&gt;Node11</title>
<path fill="none" stroke="orange" stroke-dasharray="5,2" d="M220.74,-2.3C223.53,-1.99 226.29,-1.71 229,-1.48 250.7,0.33 256.32,0.58 278,-1.48 288.02,-2.43 298.71,-4.11 308.73,-5.97"/>
<polygon fill="orange" stroke="orange" points="220.08,1.14 210.61,-3.61 220.97,-5.8 220.08,1.14"/>
<text text-anchor="middle" x="253.5" y="-4.48" font-family="Helvetica,sans-Serif" font-size="10.00"> &lt; ll &gt;</text>
</g>
</g>
</svg>
        <g id="navigator" transform="translate(0 0)" fill="#404254">
                <rect fill="#f2f5e9" fill-opacity="0.5" stroke="#606060" stroke-width=".5" x="0" y="0" width="60" height="60"/>
                <use id="zoomplus" xlink:href="#zoomPlus" x="17" y="9" onmousedown="handleZoom(evt,'in')"/>
                <use id="zoomminus" xlink:href="#zoomMin" x="42" y="9" onmousedown="handleZoom(evt,'out')"/>
                <use id="reset" xlink:href="#resetDef" x="30" y="36" onmousedown="handleReset()"/>
                <g id="arrowUp" xlink:href="#dirArrow" transform="translate(30 24)" onmousedown="handlePan(0,-1)">
                  <use xlink:href="#rim" fill="#404040">
                        <set attributeName="fill" to="#808080" begin="arrowUp.mouseover" end="arrowUp.mouseout"/>
                  </use>
                  <path fill="none" stroke="white" stroke-width="1.5" d="M0,-3.0v7 M-2.5,-0.5L0,-3.0L2.5,-0.5"/>
                </g>
                <g id="arrowRight" xlink:href="#dirArrow" transform="rotate(90) translate(36 -43)" onmousedown="handlePan(1,0)">
                  <use xlink:href="#rim" fill="#404040">
                        <set attributeName="fill" to="#808080" begin="arrowRight.mouseover" end="arrowRight.mouseout"/>
                  </use>
                  <path fill="none" stroke="white" stroke-width="1.5" d="M0,-3.0v7 M-2.5,-0.5L0,-3.0L2.5,-0.5"/>
                </g>
                <g id="arrowDown" xlink:href="#dirArrow" transform="rotate(180) translate(-30 -48)" onmousedown="handlePan(0,1)">
                  <use xlink:href="#rim" fill="#404040">
                        <set attributeName="fill" to="#808080" begin="arrowDown.mouseover" end="arrowDown.mouseout"/>
                  </use>
                  <path fill="none" stroke="white" stroke-width="1.5" d="M0,-3.0v7 M-2.5,-0.5L0,-3.0L2.5,-0.5"/>
                </g>
                <g id="arrowLeft" xlink:href="#dirArrow" transform="rotate(270) translate(-36 17)" onmousedown="handlePan(-1,0)">
                  <use xlink:href="#rim" fill="#404040">
                        <set attributeName="fill" to="#808080" begin="arrowLeft.mouseover" end="arrowLeft.mouseout"/>
                  </use>
                  <path fill="none" stroke="white" stroke-width="1.5" d="M0,-3.0v7 M-2.5,-0.5L0,-3.0L2.5,-0.5"/>
                </g>
        </g>
        <svg viewBox="0 0 15 15" width="100%" height="30px" preserveAspectRatio="xMaxYMin meet">
         <g id="arrow_out" transform="scale(0.3 0.3)">
          <a xlink:href="structgraph__theory_1_1DFS__coll__graph_org.svg" target="_base">
           <rect id="button" ry="5" rx="5" y="6" x="6" height="38" width="38"
                fill="#f2f5e9" fill-opacity="0.5" stroke="#606060" stroke-width="1.0"/>
           <path id="arrow"
             d="M 11.500037,31.436501 C 11.940474,20.09759 22.043105,11.32322 32.158766,21.979434 L 37.068811,17.246167 C 37.068811,17.246167 37.088388,32 37.088388,32 L 22.160133,31.978069 C 22.160133,31.978069 26.997745,27.140456 26.997745,27.140456 C 18.528582,18.264221 13.291696,25.230495 11.500037,31.436501 z"
             style="fill:#404040;"/>
          </a>
         </g>
        </svg>
</svg>
