<?xml version="1.0" encoding="UTF-8" standalone="no"?>
<!DOCTYPE svg PUBLIC "-//W3C//DTD SVG 1.1//EN"
 "http://www.w3.org/Graphics/SVG/1.1/DTD/svg11.dtd">
<!-- Generated by graphviz version 2.43.0 (0)
 -->
<!-- Title: splay_tree::SplayTree::rotate Pages: 1 -->
<svg width="443pt" height="61pt"
 viewBox="0.00 0.00 443.00 61.00" xmlns="http://www.w3.org/2000/svg" xmlns:xlink="http://www.w3.org/1999/xlink">
<g id="graph0" class="graph" transform="scale(1 1) rotate(0) translate(4 57)">
<title>splay_tree::SplayTree::rotate</title>
<polygon fill="white" stroke="transparent" points="-4,4 -4,-57 439,-57 439,4 -4,4"/>
<!-- Node1 -->
<g id="node1" class="node">
<title>Node1</title>
<g id="a_node1"><a xlink:title=" ">
<polygon fill="#bfbfbf" stroke="black" points="0,-0.5 0,-30.5 121,-30.5 121,-0.5 0,-0.5"/>
<text text-anchor="start" x="8" y="-18.5" font-family="Helvetica,sans-Serif" font-size="10.00">splay_tree::SplayTree</text>
<text text-anchor="middle" x="60.5" y="-7.5" font-family="Helvetica,sans-Serif" font-size="10.00">::rotate</text>
</a>
</g>
</g>
<!-- Node2 -->
<g id="node2" class="node">
<title>Node2</title>
<g id="a_node2"><a xlink:href="structsplay__tree_1_1SplayTree.html#ac91c4a1fa163994e18084f90e0921b08" target="_top" xlink:title=" ">
<polygon fill="white" stroke="black" points="157,-22.5 157,-52.5 278,-52.5 278,-22.5 157,-22.5"/>
<text text-anchor="start" x="165" y="-40.5" font-family="Helvetica,sans-Serif" font-size="10.00">splay_tree::SplayTree</text>
<text text-anchor="middle" x="217.5" y="-29.5" font-family="Helvetica,sans-Serif" font-size="10.00">::attach</text>
</a>
</g>
</g>
<!-- Node1&#45;&gt;Node2 -->
<g id="edge1" class="edge">
<title>Node1&#45;&gt;Node2</title>
<path fill="none" stroke="midnightblue" d="M121.43,-24.01C129.82,-25.2 138.49,-26.43 147.04,-27.64"/>
<polygon fill="midnightblue" stroke="midnightblue" points="146.6,-31.11 156.99,-29.05 147.58,-24.18 146.6,-31.11"/>
</g>
<!-- Node3 -->
<g id="node3" class="node">
<title>Node3</title>
<g id="a_node3"><a xlink:href="structsplay__tree_1_1SplayTree.html#a12959724650bbd9fcf143c22ca674a9e" target="_top" xlink:title=" ">
<polygon fill="white" stroke="black" points="314,-0.5 314,-30.5 435,-30.5 435,-0.5 314,-0.5"/>
<text text-anchor="start" x="322" y="-18.5" font-family="Helvetica,sans-Serif" font-size="10.00">splay_tree::SplayTree</text>
<text text-anchor="middle" x="374.5" y="-7.5" font-family="Helvetica,sans-Serif" font-size="10.00">::side</text>
</a>
</g>
</g>
<!-- Node1&#45;&gt;Node3 -->
<g id="edge3" class="edge">
<title>Node1&#45;&gt;Node3</title>
<path fill="none" stroke="midnightblue" d="M121.1,-14.06C132.99,-13.83 145.39,-13.62 157,-13.5 210.77,-12.94 224.23,-12.94 278,-13.5 286.34,-13.59 295.1,-13.72 303.77,-13.87"/>
<polygon fill="midnightblue" stroke="midnightblue" points="303.84,-17.37 313.9,-14.06 303.97,-10.37 303.84,-17.37"/>
</g>
<!-- Node2&#45;&gt;Node3 -->
<g id="edge2" class="edge">
<title>Node2&#45;&gt;Node3</title>
<path fill="none" stroke="midnightblue" d="M278.43,-28.99C286.82,-27.8 295.49,-26.57 304.04,-25.36"/>
<polygon fill="midnightblue" stroke="midnightblue" points="304.58,-28.82 313.99,-23.95 303.6,-21.89 304.58,-28.82"/>
</g>
</g>
</svg>
