<?xml version="1.0" encoding="UTF-8" standalone="no"?>
<!DOCTYPE svg PUBLIC "-//W3C//DTD SVG 1.1//EN"
 "http://www.w3.org/Graphics/SVG/1.1/DTD/svg11.dtd">
<!-- Generated by graphviz version 2.43.0 (0)
 -->
<!-- Title: splay_tree::SplayTree&lt; T &gt; Pages: 1 -->
<!--zoomable 136 -->
<svg id="main" version="1.1" xmlns="http://www.w3.org/2000/svg" xmlns:xlink="http://www.w3.org/1999/xlink" xml:space="preserve" onload="init(evt)">
<style type="text/css"><![CDATA[
.edge:hover path { stroke: red; }
.edge:hover polygon { stroke: red; fill: red; }
]]></style>
<script type="text/javascript"><![CDATA[
var edges = document.getElementsByTagName('g');
if (edges && edges.length) {
  for (var i=0;i<edges.length;i++) {
    if (edges[i].id.substr(0,4)=='edge') {
      edges[i].setAttribute('class','edge');
    }
  }
}
]]></script>
        <defs>
                <circle id="rim" cx="0" cy="0" r="7"/>
                <circle id="rim2" cx="0" cy="0" r="3.5"/>
                <g id="zoomPlus">
                        <use xlink:href="#rim" fill="#404040">
                                <set attributeName="fill" to="#808080" begin="zoomplus.mouseover" end="zoomplus.mouseout"/>
                        </use>
                        <path d="M-4,0h8M0,-4v8" fill="none" stroke="white" stroke-width="1.5" pointer-events="none"/>
                </g>
                <g id="zoomMin">
                        <use xlink:href="#rim" fill="#404040">
                                <set attributeName="fill" to="#808080" begin="zoomminus.mouseover" end="zoomminus.mouseout"/>
                        </use>
                        <path d="M-4,0h8" fill="none" stroke="white" stroke-width="1.5" pointer-events="none"/>
                </g>
                <g id="dirArrow">
                        <path fill="none" stroke="white" stroke-width="1.5" d="M0,-3.0v7 M-2.5,-0.5L0,-3.0L2.5,-0.5"/>
                </g>
               <g id="resetDef">
                       <use xlink:href="#rim2" fill="#404040">
                               <set attributeName="fill" to="#808080" begin="reset.mouseover" end="reset.mouseout"/>
                       </use>
               </g>
        </defs>

<script type="text/javascript">
var viewWidth = 665;
var viewHeight = 136;
var sectionId = 'dynsection-0';
</script>
<script xlink:href="svgpan.js"/>
<svg id="graph" class="graph">
<g id="viewport">
<title>splay_tree::SplayTree&lt; T &gt;</title>
<polygon fill="white" stroke="transparent" points="-4,4 -4,-132 661,-132 661,4 -4,4"/>
<!-- Node1 -->
<g id="node1" class="node">
<title>Node1</title>
<g id="a_node1"><a xlink:title=" ">
<polygon fill="#bfbfbf" stroke="black" points="508,-108.5 508,-127.5 657,-127.5 657,-108.5 508,-108.5"/>
<text text-anchor="middle" x="582.5" y="-115.5" font-family="Helvetica,sans-Serif" font-size="10.00">splay_tree::SplayTree&lt; T &gt;</text>
</a>
</g>
</g>
<!-- Node2 -->
<g id="node2" class="node">
<title>Node2</title>
<g id="a_node2"><a xlink:href="structsplay__tree_1_1SplayNode.html" target="_top" xlink:title=" ">
<polygon fill="white" stroke="black" points="222,-67 222,-97 348,-97 348,-67 222,-67"/>
<text text-anchor="start" x="230" y="-85" font-family="Helvetica,sans-Serif" font-size="10.00">splay_tree::SplayNode</text>
<text text-anchor="middle" x="285" y="-74" font-family="Helvetica,sans-Serif" font-size="10.00">&lt; T, has_link_cut &gt;</text>
</a>
</g>
</g>
<!-- Node2&#45;&gt;Node1 -->
<g id="edge1" class="edge">
<title>Node2&#45;&gt;Node1</title>
<path fill="none" stroke="#9a32cd" stroke-dasharray="5,2" d="M358.37,-90.82C403.77,-96.35 462.14,-103.46 507.79,-109.02"/>
<polygon fill="#9a32cd" stroke="#9a32cd" points="358.66,-87.33 348.31,-89.59 357.81,-94.27 358.66,-87.33"/>
<text text-anchor="middle" x="428" y="-109" font-family="Helvetica,sans-Serif" font-size="10.00"> root</text>
</g>
<!-- Node2&#45;&gt;Node2 -->
<g id="edge3" class="edge">
<title>Node2&#45;&gt;Node2</title>
<path fill="none" stroke="#9a32cd" stroke-dasharray="5,2" d="M266.52,-107.46C268.81,-112.18 274.97,-115.5 285,-115.5 301.45,-115.5 307.49,-106.56 303.12,-97.16"/>
<polygon fill="#9a32cd" stroke="#9a32cd" points="270.03,-107.27 266.88,-97.16 263.03,-107.03 270.03,-107.27"/>
<text text-anchor="middle" x="285" y="-118.5" font-family="Helvetica,sans-Serif" font-size="10.00"> parent</text>
</g>
<!-- Node4 -->
<g id="node4" class="node">
<title>Node4</title>
<g id="a_node4"><a xlink:title=" ">
<polygon fill="white" stroke="#bfbfbf" points="520,-35 520,-65 645,-65 645,-35 520,-35"/>
<text text-anchor="start" x="528" y="-53" font-family="Helvetica,sans-Serif" font-size="10.00">std::array&lt; splay_tree</text>
<text text-anchor="middle" x="582.5" y="-42" font-family="Helvetica,sans-Serif" font-size="10.00">::SplayNode *, 2 &gt;</text>
</a>
</g>
</g>
<!-- Node2&#45;&gt;Node4 -->
<g id="edge5" class="edge">
<title>Node2&#45;&gt;Node4</title>
<path fill="none" stroke="#9a32cd" stroke-dasharray="5,2" d="M358.32,-75.49C397.35,-71.83 446.35,-67 490,-62 499.55,-60.91 509.65,-59.67 519.52,-58.41"/>
<polygon fill="#9a32cd" stroke="#9a32cd" points="357.73,-72.03 348.1,-76.44 358.38,-79 357.73,-72.03"/>
<text text-anchor="middle" x="428" y="-78" font-family="Helvetica,sans-Serif" font-size="10.00"> elements</text>
</g>
<!-- Node3 -->
<g id="node3" class="node">
<title>Node3</title>
<g id="a_node3"><a xlink:title=" ">
<polygon fill="white" stroke="#bfbfbf" points="0,-61.5 0,-102.5 137,-102.5 137,-61.5 0,-61.5"/>
<text text-anchor="start" x="8" y="-90.5" font-family="Helvetica,sans-Serif" font-size="10.00">conditional_t&lt; false,</text>
<text text-anchor="start" x="8" y="-79.5" font-family="Helvetica,sans-Serif" font-size="10.00"> PathParent&lt; SplayNode</text>
<text text-anchor="middle" x="68.5" y="-68.5" font-family="Helvetica,sans-Serif" font-size="10.00">&lt; T, false &gt; &gt;, Empty &gt;</text>
</a>
</g>
</g>
<!-- Node3&#45;&gt;Node2 -->
<g id="edge2" class="edge">
<title>Node3&#45;&gt;Node2</title>
<path fill="none" stroke="midnightblue" d="M147.09,-82C171.68,-82 198.52,-82 221.87,-82"/>
<polygon fill="midnightblue" stroke="midnightblue" points="147.07,-78.5 137.07,-82 147.07,-85.5 147.07,-78.5"/>
</g>
<!-- Node4&#45;&gt;Node2 -->
<g id="edge4" class="edge">
<title>Node4&#45;&gt;Node2</title>
<path fill="none" stroke="#9a32cd" stroke-dasharray="5,2" d="M509.45,-43.84C467.28,-41.84 413.2,-42.06 366,-51 349.32,-54.16 331.63,-60.65 317.14,-66.88"/>
<polygon fill="#9a32cd" stroke="#9a32cd" points="509.45,-47.34 519.62,-44.37 509.82,-40.35 509.45,-47.34"/>
<text text-anchor="middle" x="428" y="-54" font-family="Helvetica,sans-Serif" font-size="10.00"> child</text>
</g>
<!-- Node5 -->
<g id="node5" class="node">
<title>Node5</title>
<g id="a_node5"><a xlink:title="STL class.">
<polygon fill="white" stroke="#bfbfbf" points="239,-0.5 239,-19.5 331,-19.5 331,-0.5 239,-0.5"/>
<text text-anchor="middle" x="285" y="-7.5" font-family="Helvetica,sans-Serif" font-size="10.00">std::array&lt; T &gt;</text>
</a>
</g>
</g>
<!-- Node5&#45;&gt;Node4 -->
<g id="edge6" class="edge">
<title>Node5&#45;&gt;Node4</title>
<path fill="none" stroke="orange" stroke-dasharray="5,2" d="M341.16,-7.28C382.5,-6.36 440.28,-7.43 490,-17 509.57,-20.77 530.54,-28.07 547.46,-34.85"/>
<polygon fill="orange" stroke="orange" points="340.92,-3.79 331.02,-7.56 341.11,-10.79 340.92,-3.79"/>
<text text-anchor="start" x="366" y="-31" font-family="Helvetica,sans-Serif" font-size="10.00"> &lt; splay_tree::SplayNode</text>
<text text-anchor="middle" x="428" y="-20" font-family="Helvetica,sans-Serif" font-size="10.00"> *, 2 &gt;</text>
</g>
<!-- Node6 -->
<g id="node6" class="node">
<title>Node6</title>
<g id="a_node6"><a xlink:title=" ">
<polygon fill="white" stroke="#bfbfbf" points="54,-18.5 54,-37.5 83,-37.5 83,-18.5 54,-18.5"/>
<text text-anchor="middle" x="68.5" y="-25.5" font-family="Helvetica,sans-Serif" font-size="10.00">T</text>
</a>
</g>
</g>
<!-- Node6&#45;&gt;Node2 -->
<g id="edge8" class="edge">
<title>Node6&#45;&gt;Node2</title>
<path fill="none" stroke="#9a32cd" stroke-dasharray="5,2" d="M93.21,-33.97C124.5,-41.85 180.68,-55.99 224,-66.89"/>
<polygon fill="#9a32cd" stroke="#9a32cd" points="93.8,-30.51 83.24,-31.46 92.09,-37.3 93.8,-30.51"/>
<text text-anchor="middle" x="179.5" y="-65" font-family="Helvetica,sans-Serif" font-size="10.00"> value</text>
</g>
<!-- Node6&#45;&gt;Node5 -->
<g id="edge7" class="edge">
<title>Node6&#45;&gt;Node5</title>
<path fill="none" stroke="#9a32cd" stroke-dasharray="5,2" d="M93.48,-25.99C128.56,-23.04 194.49,-17.51 238.83,-13.79"/>
<polygon fill="#9a32cd" stroke="#9a32cd" points="92.92,-22.52 83.24,-26.85 93.5,-29.5 92.92,-22.52"/>
<text text-anchor="middle" x="179.5" y="-24" font-family="Helvetica,sans-Serif" font-size="10.00"> elements</text>
</g>
</g>
</svg>
        <g id="navigator" transform="translate(0 0)" fill="#404254">
                <rect fill="#f2f5e9" fill-opacity="0.5" stroke="#606060" stroke-width=".5" x="0" y="0" width="60" height="60"/>
                <use id="zoomplus" xlink:href="#zoomPlus" x="17" y="9" onmousedown="handleZoom(evt,'in')"/>
                <use id="zoomminus" xlink:href="#zoomMin" x="42" y="9" onmousedown="handleZoom(evt,'out')"/>
                <use id="reset" xlink:href="#resetDef" x="30" y="36" onmousedown="handleReset()"/>
                <g id="arrowUp" xlink:href="#dirArrow" transform="translate(30 24)" onmousedown="handlePan(0,-1)">
                  <use xlink:href="#rim" fill="#404040">
                        <set attributeName="fill" to="#808080" begin="arrowUp.mouseover" end="arrowUp.mouseout"/>
                  </use>
                  <path fill="none" stroke="white" stroke-width="1.5" d="M0,-3.0v7 M-2.5,-0.5L0,-3.0L2.5,-0.5"/>
                </g>
                <g id="arrowRight" xlink:href="#dirArrow" transform="rotate(90) translate(36 -43)" onmousedown="handlePan(1,0)">
                  <use xlink:href="#rim" fill="#404040">
                        <set attributeName="fill" to="#808080" begin="arrowRight.mouseover" end="arrowRight.mouseout"/>
                  </use>
                  <path fill="none" stroke="white" stroke-width="1.5" d="M0,-3.0v7 M-2.5,-0.5L0,-3.0L2.5,-0.5"/>
                </g>
                <g id="arrowDown" xlink:href="#dirArrow" transform="rotate(180) translate(-30 -48)" onmousedown="handlePan(0,1)">
                  <use xlink:href="#rim" fill="#404040">
                        <set attributeName="fill" to="#808080" begin="arrowDown.mouseover" end="arrowDown.mouseout"/>
                  </use>
                  <path fill="none" stroke="white" stroke-width="1.5" d="M0,-3.0v7 M-2.5,-0.5L0,-3.0L2.5,-0.5"/>
                </g>
                <g id="arrowLeft" xlink:href="#dirArrow" transform="rotate(270) translate(-36 17)" onmousedown="handlePan(-1,0)">
                  <use xlink:href="#rim" fill="#404040">
                        <set attributeName="fill" to="#808080" begin="arrowLeft.mouseover" end="arrowLeft.mouseout"/>
                  </use>
                  <path fill="none" stroke="white" stroke-width="1.5" d="M0,-3.0v7 M-2.5,-0.5L0,-3.0L2.5,-0.5"/>
                </g>
        </g>
        <svg viewBox="0 0 15 15" width="100%" height="30px" preserveAspectRatio="xMaxYMin meet">
         <g id="arrow_out" transform="scale(0.3 0.3)">
          <a xlink:href="structsplay__tree_1_1SplayTree__coll__graph_org.svg" target="_base">
           <rect id="button" ry="5" rx="5" y="6" x="6" height="38" width="38"
                fill="#f2f5e9" fill-opacity="0.5" stroke="#606060" stroke-width="1.0"/>
           <path id="arrow"
             d="M 11.500037,31.436501 C 11.940474,20.09759 22.043105,11.32322 32.158766,21.979434 L 37.068811,17.246167 C 37.068811,17.246167 37.088388,32 37.088388,32 L 22.160133,31.978069 C 22.160133,31.978069 26.997745,27.140456 26.997745,27.140456 C 18.528582,18.264221 13.291696,25.230495 11.500037,31.436501 z"
             style="fill:#404040;"/>
          </a>
         </g>
        </svg>
</svg>
