<?xml version="1.0" encoding="UTF-8" standalone="no"?>
<!DOCTYPE svg PUBLIC "-//W3C//DTD SVG 1.1//EN"
 "http://www.w3.org/Graphics/SVG/1.1/DTD/svg11.dtd">
<!-- Generated by graphviz version 2.43.0 (0)
 -->
<!-- Title: seg2::up Pages: 1 -->
<svg width="239pt" height="256pt"
 viewBox="0.00 0.00 239.00 256.00" xmlns="http://www.w3.org/2000/svg" xmlns:xlink="http://www.w3.org/1999/xlink">
<g id="graph0" class="graph" transform="scale(1 1) rotate(0) translate(4 252)">
<title>seg2::up</title>
<polygon fill="white" stroke="transparent" points="-4,4 -4,-252 235,-252 235,4 -4,4"/>
<!-- Node1 -->
<g id="node1" class="node">
<title>Node1</title>
<g id="a_node1"><a xlink:title=" ">
<polygon fill="#bfbfbf" stroke="black" points="0,-114.5 0,-133.5 58,-133.5 58,-114.5 0,-114.5"/>
<text text-anchor="middle" x="29" y="-121.5" font-family="Helvetica,sans-Serif" font-size="10.00">seg2::up</text>
</a>
</g>
</g>
<!-- Node2 -->
<g id="node2" class="node">
<title>Node2</title>
<g id="a_node2"><a xlink:href="structseg2.html#afdf227899a92d38834ddc9caa6de2c2f" target="_top" xlink:title=" ">
<polygon fill="white" stroke="black" points="100,-228.5 100,-247.5 160,-247.5 160,-228.5 100,-228.5"/>
<text text-anchor="middle" x="130" y="-235.5" font-family="Helvetica,sans-Serif" font-size="10.00">seg2::dis</text>
</a>
</g>
</g>
<!-- Node1&#45;&gt;Node2 -->
<g id="edge1" class="edge">
<title>Node1&#45;&gt;Node2</title>
<path fill="none" stroke="midnightblue" d="M35.39,-133.77C45.35,-151.26 68.02,-188.46 94,-214 97.07,-217.02 100.57,-219.92 104.14,-222.58"/>
<polygon fill="midnightblue" stroke="midnightblue" points="102.21,-225.5 112.41,-228.35 106.21,-219.76 102.21,-225.5"/>
</g>
<!-- Node3 -->
<g id="node3" class="node">
<title>Node3</title>
<g id="a_node3"><a xlink:href="structseg2.html#a33fb24e03fa2b90f3dabac5c485b7b01" target="_top" xlink:title=" ">
<polygon fill="white" stroke="black" points="94,-114.5 94,-133.5 166,-133.5 166,-114.5 94,-114.5"/>
<text text-anchor="middle" x="130" y="-121.5" font-family="Helvetica,sans-Serif" font-size="10.00">seg2::down</text>
</a>
</g>
</g>
<!-- Node1&#45;&gt;Node3 -->
<g id="edge2" class="edge">
<title>Node1&#45;&gt;Node3</title>
<path fill="none" stroke="midnightblue" d="M58.1,-124C66.08,-124 74.96,-124 83.68,-124"/>
<polygon fill="midnightblue" stroke="midnightblue" points="83.76,-127.5 93.76,-124 83.76,-120.5 83.76,-127.5"/>
</g>
<!-- Node4 -->
<g id="node4" class="node">
<title>Node4</title>
<g id="a_node4"><a xlink:href="seg__old_8hpp.html#ae93006ee49e9655fd20f39aaf5743581" target="_top" xlink:title=" ">
<polygon fill="white" stroke="black" points="202,-152.5 202,-171.5 231,-171.5 231,-152.5 202,-152.5"/>
<text text-anchor="middle" x="216.5" y="-159.5" font-family="Helvetica,sans-Serif" font-size="10.00">gl</text>
</a>
</g>
</g>
<!-- Node1&#45;&gt;Node4 -->
<g id="edge5" class="edge">
<title>Node1&#45;&gt;Node4</title>
<path fill="none" stroke="midnightblue" d="M36.95,-133.57C47.5,-147.16 68.97,-171.47 94,-181 126.79,-193.49 167.56,-182.11 192.54,-172.36"/>
<polygon fill="midnightblue" stroke="midnightblue" points="194,-175.55 201.91,-168.49 191.33,-169.08 194,-175.55"/>
</g>
<!-- Node5 -->
<g id="node5" class="node">
<title>Node5</title>
<g id="a_node5"><a xlink:href="seg__old_8hpp.html#a2747683868ad04194c67440ba2aea330" target="_top" xlink:title=" ">
<polygon fill="white" stroke="black" points="202,-114.5 202,-133.5 231,-133.5 231,-114.5 202,-114.5"/>
<text text-anchor="middle" x="216.5" y="-121.5" font-family="Helvetica,sans-Serif" font-size="10.00">gr</text>
</a>
</g>
</g>
<!-- Node1&#45;&gt;Node5 -->
<g id="edge6" class="edge">
<title>Node1&#45;&gt;Node5</title>
<path fill="none" stroke="midnightblue" d="M55.77,-114.5C67.3,-110.74 81.15,-106.87 94,-105 125.67,-100.4 134.54,-99.17 166,-105 174.88,-106.65 184.22,-109.82 192.37,-113.11"/>
<polygon fill="midnightblue" stroke="midnightblue" points="191.04,-116.35 201.61,-117.09 193.8,-109.92 191.04,-116.35"/>
</g>
<!-- Node6 -->
<g id="node6" class="node">
<title>Node6</title>
<g id="a_node6"><a xlink:href="structseg2.html#a58ad2a794b63e208c386987ba7e0ac9d" target="_top" xlink:title=" ">
<polygon fill="white" stroke="black" points="97.5,-38.5 97.5,-57.5 162.5,-57.5 162.5,-38.5 97.5,-38.5"/>
<text text-anchor="middle" x="130" y="-45.5" font-family="Helvetica,sans-Serif" font-size="10.00">seg2::mid</text>
</a>
</g>
</g>
<!-- Node1&#45;&gt;Node6 -->
<g id="edge7" class="edge">
<title>Node1&#45;&gt;Node6</title>
<path fill="none" stroke="midnightblue" d="M41.57,-114.12C54.22,-103.44 75.19,-86.05 94,-72 97.82,-69.14 101.95,-66.2 105.98,-63.39"/>
<polygon fill="midnightblue" stroke="midnightblue" points="108.24,-66.09 114.51,-57.55 104.28,-60.31 108.24,-66.09"/>
</g>
<!-- Node7 -->
<g id="node7" class="node">
<title>Node7</title>
<g id="a_node7"><a xlink:href="structseg2.html#afbcc6d580ba32864d8a170fdf360dadd" target="_top" xlink:title=" ">
<polygon fill="white" stroke="black" points="96,-0.5 96,-19.5 164,-19.5 164,-0.5 96,-0.5"/>
<text text-anchor="middle" x="130" y="-7.5" font-family="Helvetica,sans-Serif" font-size="10.00">seg2::over</text>
</a>
</g>
</g>
<!-- Node1&#45;&gt;Node7 -->
<g id="edge8" class="edge">
<title>Node1&#45;&gt;Node7</title>
<path fill="none" stroke="midnightblue" d="M34.56,-114.26C43.64,-95.7 65.6,-54.81 94,-29 95.5,-27.64 97.11,-26.34 98.79,-25.11"/>
<polygon fill="midnightblue" stroke="midnightblue" points="101,-27.85 107.56,-19.52 97.24,-21.95 101,-27.85"/>
</g>
<!-- Node8 -->
<g id="node8" class="node">
<title>Node8</title>
<g id="a_node8"><a xlink:href="seg__old_8hpp.html#aee065d5582449ca9f96b80c630882b7a" target="_top" xlink:title=" ">
<polygon fill="white" stroke="black" points="105.5,-152.5 105.5,-171.5 154.5,-171.5 154.5,-152.5 105.5,-152.5"/>
<text text-anchor="middle" x="130" y="-159.5" font-family="Helvetica,sans-Serif" font-size="10.00">up_inv</text>
</a>
</g>
</g>
<!-- Node1&#45;&gt;Node8 -->
<g id="edge9" class="edge">
<title>Node1&#45;&gt;Node8</title>
<path fill="none" stroke="midnightblue" d="M54.98,-133.59C67.43,-138.37 82.64,-144.2 96.03,-149.34"/>
<polygon fill="midnightblue" stroke="midnightblue" points="94.8,-152.62 105.39,-152.94 97.31,-146.09 94.8,-152.62"/>
</g>
<!-- Node3&#45;&gt;Node4 -->
<g id="edge3" class="edge">
<title>Node3&#45;&gt;Node4</title>
<path fill="none" stroke="midnightblue" d="M152.32,-133.59C164.59,-139.11 180.01,-146.04 192.54,-151.68"/>
<polygon fill="midnightblue" stroke="midnightblue" points="191.3,-154.96 201.86,-155.87 194.17,-148.57 191.3,-154.96"/>
</g>
<!-- Node3&#45;&gt;Node5 -->
<g id="edge4" class="edge">
<title>Node3&#45;&gt;Node5</title>
<path fill="none" stroke="midnightblue" d="M166.35,-124C174.83,-124 183.7,-124 191.52,-124"/>
<polygon fill="midnightblue" stroke="midnightblue" points="191.75,-127.5 201.75,-124 191.75,-120.5 191.75,-127.5"/>
</g>
<!-- Node8&#45;&gt;Node4 -->
<g id="edge10" class="edge">
<title>Node8&#45;&gt;Node4</title>
<path fill="none" stroke="midnightblue" d="M154.54,-162C166.08,-162 179.97,-162 191.57,-162"/>
<polygon fill="midnightblue" stroke="midnightblue" points="191.84,-165.5 201.84,-162 191.84,-158.5 191.84,-165.5"/>
</g>
<!-- Node8&#45;&gt;Node5 -->
<g id="edge11" class="edge">
<title>Node8&#45;&gt;Node5</title>
<path fill="none" stroke="midnightblue" d="M152.32,-152.41C164.59,-146.89 180.01,-139.96 192.54,-134.32"/>
<polygon fill="midnightblue" stroke="midnightblue" points="194.17,-137.43 201.86,-130.13 191.3,-131.04 194.17,-137.43"/>
</g>
</g>
</svg>
