<?xml version="1.0" encoding="UTF-8" standalone="no"?>
<!DOCTYPE svg PUBLIC "-//W3C//DTD SVG 1.1//EN"
 "http://www.w3.org/Graphics/SVG/1.1/DTD/svg11.dtd">
<!-- Generated by graphviz version 2.43.0 (0)
 -->
<!-- Title: splay_tree::SplayNode&lt; T, has_link_cut &gt; Pages: 1 -->
<svg width="641pt" height="112pt"
 viewBox="0.00 0.00 641.00 112.00" xmlns="http://www.w3.org/2000/svg" xmlns:xlink="http://www.w3.org/1999/xlink">
<g id="graph0" class="graph" transform="scale(1 1) rotate(0) translate(4 108)">
<title>splay_tree::SplayNode&lt; T, has_link_cut &gt;</title>
<polygon fill="white" stroke="transparent" points="-4,4 -4,-108 637,-108 637,4 -4,4"/>
<!-- Node1 -->
<g id="node1" class="node">
<title>Node1</title>
<g id="a_node1"><a xlink:title=" ">
<polygon fill="#bfbfbf" stroke="black" points="222,-6 222,-36 348,-36 348,-6 222,-6"/>
<text text-anchor="start" x="230" y="-24" font-family="Helvetica,sans-Serif" font-size="10.00">splay_tree::SplayNode</text>
<text text-anchor="middle" x="285" y="-13" font-family="Helvetica,sans-Serif" font-size="10.00">&lt; T, has_link_cut &gt;</text>
</a>
</g>
</g>
<!-- Node1&#45;&gt;Node1 -->
<g id="edge2" class="edge">
<title>Node1&#45;&gt;Node1</title>
<path fill="none" stroke="#9a32cd" stroke-dasharray="5,2" d="M266.52,-46.46C268.81,-51.18 274.97,-54.5 285,-54.5 301.45,-54.5 307.49,-45.56 303.12,-36.16"/>
<polygon fill="#9a32cd" stroke="#9a32cd" points="270.03,-46.27 266.88,-36.16 263.03,-46.03 270.03,-46.27"/>
<text text-anchor="middle" x="285" y="-57.5" font-family="Helvetica,sans-Serif" font-size="10.00"> parent</text>
</g>
<!-- Node3 -->
<g id="node3" class="node">
<title>Node3</title>
<g id="a_node3"><a xlink:title=" ">
<polygon fill="white" stroke="#bfbfbf" points="508,-40 508,-70 633,-70 633,-40 508,-40"/>
<text text-anchor="start" x="516" y="-58" font-family="Helvetica,sans-Serif" font-size="10.00">std::array&lt; splay_tree</text>
<text text-anchor="middle" x="570.5" y="-47" font-family="Helvetica,sans-Serif" font-size="10.00">::SplayNode *, 2 &gt;</text>
</a>
</g>
</g>
<!-- Node1&#45;&gt;Node3 -->
<g id="edge4" class="edge">
<title>Node1&#45;&gt;Node3</title>
<path fill="none" stroke="#9a32cd" stroke-dasharray="5,2" d="M358.39,-32C360.96,-32.34 363.5,-32.68 366,-33 413.58,-39.14 467.57,-44.92 507.98,-49.01"/>
<polygon fill="#9a32cd" stroke="#9a32cd" points="358.8,-28.52 348.42,-30.62 357.84,-35.45 358.8,-28.52"/>
<text text-anchor="middle" x="428" y="-50" font-family="Helvetica,sans-Serif" font-size="10.00"> elements</text>
</g>
<!-- Node2 -->
<g id="node2" class="node">
<title>Node2</title>
<g id="a_node2"><a xlink:title=" ">
<polygon fill="white" stroke="#bfbfbf" points="0,-0.5 0,-41.5 137,-41.5 137,-0.5 0,-0.5"/>
<text text-anchor="start" x="8" y="-29.5" font-family="Helvetica,sans-Serif" font-size="10.00">conditional_t&lt; false,</text>
<text text-anchor="start" x="8" y="-18.5" font-family="Helvetica,sans-Serif" font-size="10.00"> PathParent&lt; SplayNode</text>
<text text-anchor="middle" x="68.5" y="-7.5" font-family="Helvetica,sans-Serif" font-size="10.00">&lt; T, false &gt; &gt;, Empty &gt;</text>
</a>
</g>
</g>
<!-- Node2&#45;&gt;Node1 -->
<g id="edge1" class="edge">
<title>Node2&#45;&gt;Node1</title>
<path fill="none" stroke="midnightblue" d="M147.09,-21C171.68,-21 198.52,-21 221.87,-21"/>
<polygon fill="midnightblue" stroke="midnightblue" points="147.07,-17.5 137.07,-21 147.07,-24.5 147.07,-17.5"/>
</g>
<!-- Node3&#45;&gt;Node1 -->
<g id="edge3" class="edge">
<title>Node3&#45;&gt;Node1</title>
<path fill="none" stroke="#9a32cd" stroke-dasharray="5,2" d="M531.48,-35.7C518.64,-30.15 504.01,-24.83 490,-22 443.13,-12.54 388.96,-12.78 348.23,-15.12"/>
<polygon fill="#9a32cd" stroke="#9a32cd" points="530.36,-39.03 540.91,-39.96 533.24,-32.65 530.36,-39.03"/>
<text text-anchor="middle" x="428" y="-25" font-family="Helvetica,sans-Serif" font-size="10.00"> child</text>
</g>
<!-- Node4 -->
<g id="node4" class="node">
<title>Node4</title>
<g id="a_node4"><a xlink:title="STL class.">
<polygon fill="white" stroke="#bfbfbf" points="239,-84.5 239,-103.5 331,-103.5 331,-84.5 239,-84.5"/>
<text text-anchor="middle" x="285" y="-91.5" font-family="Helvetica,sans-Serif" font-size="10.00">std::array&lt; T &gt;</text>
</a>
</g>
</g>
<!-- Node4&#45;&gt;Node3 -->
<g id="edge5" class="edge">
<title>Node4&#45;&gt;Node3</title>
<path fill="none" stroke="orange" stroke-dasharray="5,2" d="M341.4,-86.38C389.22,-79.8 458.22,-70.31 507.8,-63.49"/>
<polygon fill="orange" stroke="orange" points="340.66,-82.95 331.23,-87.78 341.62,-89.88 340.66,-82.95"/>
<text text-anchor="start" x="366" y="-96" font-family="Helvetica,sans-Serif" font-size="10.00"> &lt; splay_tree::SplayNode</text>
<text text-anchor="middle" x="428" y="-85" font-family="Helvetica,sans-Serif" font-size="10.00"> *, 2 &gt;</text>
</g>
<!-- Node5 -->
<g id="node5" class="node">
<title>Node5</title>
<g id="a_node5"><a xlink:title=" ">
<polygon fill="white" stroke="#bfbfbf" points="54,-69.5 54,-88.5 83,-88.5 83,-69.5 54,-69.5"/>
<text text-anchor="middle" x="68.5" y="-76.5" font-family="Helvetica,sans-Serif" font-size="10.00">T</text>
</a>
</g>
</g>
<!-- Node5&#45;&gt;Node1 -->
<g id="edge7" class="edge">
<title>Node5&#45;&gt;Node1</title>
<path fill="none" stroke="#9a32cd" stroke-dasharray="5,2" d="M93.12,-72.61C125.44,-63.87 184.42,-47.93 228.3,-36.06"/>
<polygon fill="#9a32cd" stroke="#9a32cd" points="91.98,-69.29 83.24,-75.28 93.81,-76.05 91.98,-69.29"/>
<text text-anchor="middle" x="179.5" y="-59" font-family="Helvetica,sans-Serif" font-size="10.00"> value</text>
</g>
<!-- Node5&#45;&gt;Node4 -->
<g id="edge6" class="edge">
<title>Node5&#45;&gt;Node4</title>
<path fill="none" stroke="#9a32cd" stroke-dasharray="5,2" d="M93.48,-80.68C128.56,-83.13 194.49,-87.74 238.83,-90.84"/>
<polygon fill="#9a32cd" stroke="#9a32cd" points="93.46,-77.17 83.24,-79.96 92.98,-84.15 93.46,-77.17"/>
<text text-anchor="middle" x="179.5" y="-91" font-family="Helvetica,sans-Serif" font-size="10.00"> elements</text>
</g>
</g>
</svg>
