<?xml version="1.0" encoding="UTF-8" standalone="no"?>
<!DOCTYPE svg PUBLIC "-//W3C//DTD SVG 1.1//EN"
 "http://www.w3.org/Graphics/SVG/1.1/DTD/svg11.dtd">
<!-- Generated by graphviz version 2.43.0 (0)
 -->
<!-- Title: graph_theory::DFS Pages: 1 -->
<svg width="369pt" height="386pt"
 viewBox="0.00 0.00 369.00 386.00" xmlns="http://www.w3.org/2000/svg" xmlns:xlink="http://www.w3.org/1999/xlink">
<g id="graph0" class="graph" transform="scale(1 1) rotate(0) translate(4 382)">
<title>graph_theory::DFS</title>
<polygon fill="white" stroke="transparent" points="-4,4 -4,-382 365,-382 365,4 -4,4"/>
<!-- Node1 -->
<g id="node1" class="node">
<title>Node1</title>
<g id="a_node1"><a xlink:title=" ">
<polygon fill="#bfbfbf" stroke="black" points="129,-0.5 129,-19.5 235,-19.5 235,-0.5 129,-0.5"/>
<text text-anchor="middle" x="182" y="-7.5" font-family="Helvetica,sans-Serif" font-size="10.00">graph_theory::DFS</text>
</a>
</g>
</g>
<!-- Node2 -->
<g id="node2" class="node">
<title>Node2</title>
<g id="a_node2"><a xlink:href="structgraph__theory_1_1GeneralSearch.html" target="_top" xlink:title=" ">
<polygon fill="white" stroke="black" points="103,-57.5 103,-87.5 261,-87.5 261,-57.5 103,-57.5"/>
<text text-anchor="start" x="111" y="-75.5" font-family="Helvetica,sans-Serif" font-size="10.00">graph_theory::GeneralSearch</text>
<text text-anchor="middle" x="182" y="-64.5" font-family="Helvetica,sans-Serif" font-size="10.00">&lt; DFS &gt;</text>
</a>
</g>
</g>
<!-- Node2&#45;&gt;Node1 -->
<g id="edge1" class="edge">
<title>Node2&#45;&gt;Node1</title>
<path fill="none" stroke="midnightblue" d="M182,-47.35C182,-37.51 182,-26.78 182,-19.54"/>
<polygon fill="midnightblue" stroke="midnightblue" points="178.5,-47.47 182,-57.47 185.5,-47.47 178.5,-47.47"/>
</g>
<!-- Node3 -->
<g id="node3" class="node">
<title>Node3</title>
<g id="a_node3"><a xlink:href="structgraph__theory_1_1GeneralSearch.html" target="_top" xlink:title=" ">
<polygon fill="white" stroke="black" points="103,-135.5 103,-165.5 261,-165.5 261,-135.5 103,-135.5"/>
<text text-anchor="start" x="111" y="-153.5" font-family="Helvetica,sans-Serif" font-size="10.00">graph_theory::GeneralSearch</text>
<text text-anchor="middle" x="182" y="-142.5" font-family="Helvetica,sans-Serif" font-size="10.00">&lt; Searcher &gt;</text>
</a>
</g>
</g>
<!-- Node3&#45;&gt;Node2 -->
<g id="edge2" class="edge">
<title>Node3&#45;&gt;Node2</title>
<path fill="none" stroke="orange" stroke-dasharray="5,2" d="M182,-125.09C182,-112.76 182,-98.22 182,-87.73"/>
<polygon fill="orange" stroke="orange" points="178.5,-125.2 182,-135.2 185.5,-125.21 178.5,-125.2"/>
<text text-anchor="middle" x="205" y="-109" font-family="Helvetica,sans-Serif" font-size="10.00"> &lt; DFS &gt;</text>
</g>
<!-- Node4 -->
<g id="node4" class="node">
<title>Node4</title>
<g id="a_node4"><a xlink:title=" ">
<polygon fill="white" stroke="#bfbfbf" points="133.5,-224.5 133.5,-243.5 230.5,-243.5 230.5,-224.5 133.5,-224.5"/>
<text text-anchor="middle" x="182" y="-231.5" font-family="Helvetica,sans-Serif" font-size="10.00">std::vector&lt; ll &gt;</text>
</a>
</g>
</g>
<!-- Node4&#45;&gt;Node3 -->
<g id="edge3" class="edge">
<title>Node4&#45;&gt;Node3</title>
<path fill="none" stroke="#9a32cd" stroke-dasharray="5,2" d="M182,-214.23C182,-199.41 182,-179.05 182,-165.6"/>
<polygon fill="#9a32cd" stroke="#9a32cd" points="178.5,-214.28 182,-224.28 185.5,-214.28 178.5,-214.28"/>
<text text-anchor="middle" x="203" y="-198" font-family="Helvetica,sans-Serif" font-size="10.00"> parent</text>
<text text-anchor="middle" x="203" y="-187" font-family="Helvetica,sans-Serif" font-size="10.00">distance</text>
</g>
<!-- Node5 -->
<g id="node5" class="node">
<title>Node5</title>
<g id="a_node5"><a xlink:href="structll.html" target="_top" xlink:title=" ">
<polygon fill="white" stroke="black" points="132.5,-291.5 132.5,-310.5 161.5,-310.5 161.5,-291.5 132.5,-291.5"/>
<text text-anchor="middle" x="147" y="-298.5" font-family="Helvetica,sans-Serif" font-size="10.00">ll</text>
</a>
</g>
</g>
<!-- Node5&#45;&gt;Node4 -->
<g id="edge4" class="edge">
<title>Node5&#45;&gt;Node4</title>
<path fill="none" stroke="#9a32cd" stroke-dasharray="5,2" d="M149.96,-281.51C151.48,-275.08 153.72,-267.98 157,-262 160.81,-255.06 166.8,-248.5 171.96,-243.59"/>
<polygon fill="#9a32cd" stroke="#9a32cd" points="146.51,-280.92 148.04,-291.41 153.38,-282.25 146.51,-280.92"/>
<text text-anchor="middle" x="181.5" y="-265" font-family="Helvetica,sans-Serif" font-size="10.00"> elements</text>
</g>
<!-- Node9 -->
<g id="node9" class="node">
<title>Node9</title>
<g id="a_node9"><a xlink:title=" ">
<polygon fill="white" stroke="#bfbfbf" points="19,-224.5 19,-243.5 115,-243.5 115,-224.5 19,-224.5"/>
<text text-anchor="middle" x="67" y="-231.5" font-family="Helvetica,sans-Serif" font-size="10.00">std::deque&lt; ll &gt;</text>
</a>
</g>
</g>
<!-- Node5&#45;&gt;Node9 -->
<g id="edge11" class="edge">
<title>Node5&#45;&gt;Node9</title>
<path fill="none" stroke="#9a32cd" stroke-dasharray="5,2" d="M123.26,-288.83C115.15,-284.46 106.3,-279.05 99,-273 88.5,-264.31 78.77,-251.87 72.86,-243.62"/>
<polygon fill="#9a32cd" stroke="#9a32cd" points="121.79,-292.01 132.28,-293.44 124.97,-285.77 121.79,-292.01"/>
<text text-anchor="middle" x="123.5" y="-265" font-family="Helvetica,sans-Serif" font-size="10.00"> elements</text>
</g>
<!-- Node6 -->
<g id="node6" class="node">
<title>Node6</title>
<g id="a_node6"><a xlink:title="STL class.">
<polygon fill="white" stroke="#bfbfbf" points="188.5,-291.5 188.5,-310.5 285.5,-310.5 285.5,-291.5 188.5,-291.5"/>
<text text-anchor="middle" x="237" y="-298.5" font-family="Helvetica,sans-Serif" font-size="10.00">std::vector&lt; T &gt;</text>
</a>
</g>
</g>
<!-- Node6&#45;&gt;Node4 -->
<g id="edge5" class="edge">
<title>Node6&#45;&gt;Node4</title>
<path fill="none" stroke="orange" stroke-dasharray="5,2" d="M223.92,-283.65C218.44,-276.9 211.98,-269.02 206,-262 200.79,-255.89 194.79,-249.14 190.1,-243.92"/>
<polygon fill="orange" stroke="orange" points="221.21,-285.87 230.21,-291.46 226.66,-281.48 221.21,-285.87"/>
<text text-anchor="middle" x="230" y="-265" font-family="Helvetica,sans-Serif" font-size="10.00"> &lt; ll &gt;</text>
</g>
<!-- Node8 -->
<g id="node8" class="node">
<title>Node8</title>
<g id="a_node8"><a xlink:title=" ">
<polygon fill="white" stroke="#bfbfbf" points="249,-224.5 249,-243.5 349,-243.5 349,-224.5 249,-224.5"/>
<text text-anchor="middle" x="299" y="-231.5" font-family="Helvetica,sans-Serif" font-size="10.00">std::vector&lt; vl &gt;</text>
</a>
</g>
</g>
<!-- Node6&#45;&gt;Node8 -->
<g id="edge8" class="edge">
<title>Node6&#45;&gt;Node8</title>
<path fill="none" stroke="#9a32cd" stroke-dasharray="5,2" d="M252.26,-284C264.42,-271.25 280.98,-253.89 290.77,-243.63"/>
<polygon fill="#9a32cd" stroke="#9a32cd" points="249.73,-281.58 245.36,-291.23 254.8,-286.41 249.73,-281.58"/>
<text text-anchor="middle" x="295.5" y="-265" font-family="Helvetica,sans-Serif" font-size="10.00"> elements</text>
</g>
<!-- Node6&#45;&gt;Node8 -->
<g id="edge9" class="edge">
<title>Node6&#45;&gt;Node8</title>
<path fill="none" stroke="orange" stroke-dasharray="5,2" d="M295.76,-292.79C306.79,-288.7 317.04,-282.45 324,-273 331.21,-263.21 320.7,-251.45 311.18,-243.63"/>
<polygon fill="orange" stroke="orange" points="294.42,-289.54 285.92,-295.87 296.51,-296.22 294.42,-289.54"/>
<text text-anchor="middle" x="343.5" y="-265" font-family="Helvetica,sans-Serif" font-size="10.00"> &lt; vl &gt;</text>
</g>
<!-- Node7 -->
<g id="node7" class="node">
<title>Node7</title>
<g id="a_node7"><a xlink:title=" ">
<polygon fill="white" stroke="#bfbfbf" points="114.5,-358.5 114.5,-377.5 143.5,-377.5 143.5,-358.5 114.5,-358.5"/>
<text text-anchor="middle" x="129" y="-365.5" font-family="Helvetica,sans-Serif" font-size="10.00">T</text>
</a>
</g>
</g>
<!-- Node7&#45;&gt;Node6 -->
<g id="edge6" class="edge">
<title>Node7&#45;&gt;Node6</title>
<path fill="none" stroke="#9a32cd" stroke-dasharray="5,2" d="M152.36,-352.94C173.75,-340.07 204.72,-321.43 222.67,-310.63"/>
<polygon fill="#9a32cd" stroke="#9a32cd" points="150.33,-350.08 143.57,-358.23 153.94,-356.08 150.33,-350.08"/>
<text text-anchor="middle" x="213.5" y="-332" font-family="Helvetica,sans-Serif" font-size="10.00"> elements</text>
</g>
<!-- Node10 -->
<g id="node10" class="node">
<title>Node10</title>
<g id="a_node10"><a xlink:title="STL class.">
<polygon fill="white" stroke="#bfbfbf" points="0,-291.5 0,-310.5 96,-310.5 96,-291.5 0,-291.5"/>
<text text-anchor="middle" x="48" y="-298.5" font-family="Helvetica,sans-Serif" font-size="10.00">std::deque&lt; T &gt;</text>
</a>
</g>
</g>
<!-- Node7&#45;&gt;Node10 -->
<g id="edge13" class="edge">
<title>Node7&#45;&gt;Node10</title>
<path fill="none" stroke="#9a32cd" stroke-dasharray="5,2" d="M109.95,-351.71C93.99,-338.91 71.79,-321.09 58.75,-310.63"/>
<polygon fill="#9a32cd" stroke="#9a32cd" points="108.09,-354.7 118.08,-358.23 112.47,-349.25 108.09,-354.7"/>
<text text-anchor="middle" x="117.5" y="-332" font-family="Helvetica,sans-Serif" font-size="10.00"> elements</text>
</g>
<!-- Node8&#45;&gt;Node3 -->
<g id="edge7" class="edge">
<title>Node8&#45;&gt;Node3</title>
<path fill="none" stroke="#9a32cd" stroke-dasharray="5,2" d="M278.06,-218.42C256.6,-203.47 223.44,-180.37 202.24,-165.6"/>
<polygon fill="#9a32cd" stroke="#9a32cd" points="276.27,-221.43 286.48,-224.28 280.27,-215.69 276.27,-221.43"/>
<text text-anchor="middle" x="272.5" y="-192.5" font-family="Helvetica,sans-Serif" font-size="10.00"> graph</text>
</g>
<!-- Node9&#45;&gt;Node3 -->
<g id="edge10" class="edge">
<title>Node9&#45;&gt;Node3</title>
<path fill="none" stroke="#9a32cd" stroke-dasharray="5,2" d="M87.58,-218.42C108.67,-203.47 141.26,-180.37 162.11,-165.6"/>
<polygon fill="#9a32cd" stroke="#9a32cd" points="85.44,-215.64 79.31,-224.28 89.49,-221.35 85.44,-215.64"/>
<text text-anchor="middle" x="139" y="-192.5" font-family="Helvetica,sans-Serif" font-size="10.00"> q</text>
</g>
<!-- Node10&#45;&gt;Node9 -->
<g id="edge12" class="edge">
<title>Node10&#45;&gt;Node9</title>
<path fill="none" stroke="orange" stroke-dasharray="5,2" d="M33.08,-283.23C28.97,-276.58 26.5,-268.89 30,-262 33.96,-254.2 41.35,-248.12 48.49,-243.72"/>
<polygon fill="orange" stroke="orange" points="30.47,-285.59 39.28,-291.48 36.07,-281.39 30.47,-285.59"/>
<text text-anchor="middle" x="46" y="-265" font-family="Helvetica,sans-Serif" font-size="10.00"> &lt; ll &gt;</text>
</g>
</g>
</svg>
