<?xml version="1.0" encoding="UTF-8" standalone="no"?>
<!DOCTYPE svg PUBLIC "-//W3C//DTD SVG 1.1//EN"
 "http://www.w3.org/Graphics/SVG/1.1/DTD/svg11.dtd">
<!-- Generated by graphviz version 2.43.0 (0)
 -->
<!-- Title: splay_tree::SplayTree::insert Pages: 1 -->
<svg width="491pt" height="53pt"
 viewBox="0.00 0.00 491.00 52.50" xmlns="http://www.w3.org/2000/svg" xmlns:xlink="http://www.w3.org/1999/xlink">
<g id="graph0" class="graph" transform="scale(1 1) rotate(0) translate(4 48.5)">
<title>splay_tree::SplayTree::insert</title>
<polygon fill="white" stroke="transparent" points="-4,4 -4,-48.5 487,-48.5 487,4 -4,4"/>
<!-- Node1 -->
<g id="node1" class="node">
<title>Node1</title>
<g id="a_node1"><a xlink:title=" ">
<polygon fill="#bfbfbf" stroke="black" points="0,-0.5 0,-30.5 121,-30.5 121,-0.5 0,-0.5"/>
<text text-anchor="start" x="8" y="-18.5" font-family="Helvetica,sans-Serif" font-size="10.00">splay_tree::SplayTree</text>
<text text-anchor="middle" x="60.5" y="-7.5" font-family="Helvetica,sans-Serif" font-size="10.00">::insert</text>
</a>
</g>
</g>
<!-- Node2 -->
<g id="node2" class="node">
<title>Node2</title>
<g id="a_node2"><a xlink:href="treap_8hpp.html#ad45b31cb3a5a560af114abfcbce83936" target="_top" xlink:title="inserts Node x into treap">
<polygon fill="white" stroke="black" points="157,-6 157,-25 201,-25 201,-6 157,-6"/>
<text text-anchor="middle" x="179" y="-13" font-family="Helvetica,sans-Serif" font-size="10.00">insert</text>
</a>
</g>
</g>
<!-- Node1&#45;&gt;Node2 -->
<g id="edge1" class="edge">
<title>Node1&#45;&gt;Node2</title>
<path fill="none" stroke="midnightblue" d="M121.12,-15.5C129.97,-15.5 138.78,-15.5 146.73,-15.5"/>
<polygon fill="midnightblue" stroke="midnightblue" points="146.96,-19 156.96,-15.5 146.96,-12 146.96,-19"/>
</g>
<!-- Node3 -->
<g id="node3" class="node">
<title>Node3</title>
<g id="a_node3"><a xlink:href="treap_8hpp.html#ab4b19e3c8f0a975627a7261ed3e2c29b" target="_top" xlink:title=" ">
<polygon fill="white" stroke="black" points="237,-25 237,-44 275,-44 275,-25 237,-25"/>
<text text-anchor="middle" x="256" y="-32" font-family="Helvetica,sans-Serif" font-size="10.00">split</text>
</a>
</g>
</g>
<!-- Node2&#45;&gt;Node3 -->
<g id="edge2" class="edge">
<title>Node2&#45;&gt;Node3</title>
<path fill="none" stroke="midnightblue" d="M201.29,-20.89C209.3,-22.92 218.52,-25.26 227.04,-27.42"/>
<polygon fill="midnightblue" stroke="midnightblue" points="226.4,-30.87 236.96,-29.93 228.12,-24.08 226.4,-30.87"/>
</g>
<!-- Node4 -->
<g id="node4" class="node">
<title>Node4</title>
<g id="a_node4"><a xlink:href="treap_8hpp.html#a9321be3a55db4ee924a0e968e12734a2" target="_top" xlink:title=" ">
<polygon fill="white" stroke="black" points="311,-6 311,-25 388,-25 388,-6 311,-6"/>
<text text-anchor="middle" x="349.5" y="-13" font-family="Helvetica,sans-Serif" font-size="10.00">update_data</text>
</a>
</g>
</g>
<!-- Node2&#45;&gt;Node4 -->
<g id="edge5" class="edge">
<title>Node2&#45;&gt;Node4</title>
<path fill="none" stroke="midnightblue" d="M201.34,-15.5C226.11,-15.5 267.74,-15.5 300.41,-15.5"/>
<polygon fill="midnightblue" stroke="midnightblue" points="300.68,-19 310.68,-15.5 300.68,-12 300.68,-19"/>
</g>
<!-- Node3&#45;&gt;Node4 -->
<g id="edge3" class="edge">
<title>Node3&#45;&gt;Node4</title>
<path fill="none" stroke="midnightblue" d="M275.08,-30.75C282.57,-29.19 291.66,-27.3 300.85,-25.4"/>
<polygon fill="midnightblue" stroke="midnightblue" points="301.7,-28.79 310.78,-23.33 300.28,-21.94 301.7,-28.79"/>
</g>
<!-- Node5 -->
<g id="node5" class="node">
<title>Node5</title>
<g id="a_node5"><a xlink:href="treap_8hpp.html#a88d816c35d3a703c27719dabc1631d79" target="_top" xlink:title=" ">
<polygon fill="white" stroke="black" points="424,-6 424,-25 483,-25 483,-6 424,-6"/>
<text text-anchor="middle" x="453.5" y="-13" font-family="Helvetica,sans-Serif" font-size="10.00">get_data</text>
</a>
</g>
</g>
<!-- Node4&#45;&gt;Node5 -->
<g id="edge4" class="edge">
<title>Node4&#45;&gt;Node5</title>
<path fill="none" stroke="midnightblue" d="M388.19,-15.5C396.49,-15.5 405.3,-15.5 413.64,-15.5"/>
<polygon fill="midnightblue" stroke="midnightblue" points="413.89,-19 423.89,-15.5 413.89,-12 413.89,-19"/>
</g>
</g>
</svg>
