<?xml version="1.0" encoding="UTF-8" standalone="no"?>
<!DOCTYPE svg PUBLIC "-//W3C//DTD SVG 1.1//EN"
 "http://www.w3.org/Graphics/SVG/1.1/DTD/svg11.dtd">
<!-- Generated by graphviz version 2.43.0 (0)
 -->
<!-- Title: splay_tree::SplayTree::find Pages: 1 -->
<svg width="369pt" height="106pt"
 viewBox="0.00 0.00 369.00 106.00" xmlns="http://www.w3.org/2000/svg" xmlns:xlink="http://www.w3.org/1999/xlink">
<g id="graph0" class="graph" transform="scale(1 1) rotate(0) translate(4 102)">
<title>splay_tree::SplayTree::find</title>
<polygon fill="white" stroke="transparent" points="-4,4 -4,-102 365,-102 365,4 -4,4"/>
<!-- Node1 -->
<g id="node1" class="node">
<title>Node1</title>
<g id="a_node1"><a xlink:title=" ">
<polygon fill="#bfbfbf" stroke="black" points="240,-24.5 240,-54.5 361,-54.5 361,-24.5 240,-24.5"/>
<text text-anchor="start" x="248" y="-42.5" font-family="Helvetica,sans-Serif" font-size="10.00">splay_tree::SplayTree</text>
<text text-anchor="middle" x="300.5" y="-31.5" font-family="Helvetica,sans-Serif" font-size="10.00">::find</text>
</a>
</g>
</g>
<!-- Node2 -->
<g id="node2" class="node">
<title>Node2</title>
<g id="a_node2"><a xlink:href="$structsplay__tree_1_1SplayTree.html#a3c4ae0ba499f4f13a60602ca082365fc" xlink:title="Erases the node with key key from the splay tree.">
<polygon fill="white" stroke="black" points="83,-49.5 83,-79.5 204,-79.5 204,-49.5 83,-49.5"/>
<text text-anchor="start" x="91" y="-67.5" font-family="Helvetica,sans-Serif" font-size="10.00">splay_tree::SplayTree</text>
<text text-anchor="middle" x="143.5" y="-56.5" font-family="Helvetica,sans-Serif" font-size="10.00">::erase</text>
</a>
</g>
</g>
<!-- Node1&#45;&gt;Node2 -->
<g id="edge1" class="edge">
<title>Node1&#45;&gt;Node2</title>
<path fill="none" stroke="midnightblue" d="M229.62,-50.77C221.07,-52.15 212.39,-53.55 204.01,-54.9"/>
<polygon fill="midnightblue" stroke="midnightblue" points="230.26,-54.21 239.57,-49.17 229.14,-47.3 230.26,-54.21"/>
</g>
<!-- Node3 -->
<g id="node3" class="node">
<title>Node3</title>
<g id="a_node3"><a xlink:href="$namespacesplay__tree_1_1test.html#a5aa5fd954b1cb0fb099a2310d2801e9e" xlink:title=" ">
<polygon fill="white" stroke="black" points="85,-0.5 85,-30.5 202,-30.5 202,-0.5 85,-0.5"/>
<text text-anchor="start" x="93" y="-18.5" font-family="Helvetica,sans-Serif" font-size="10.00">splay_tree::test::test</text>
<text text-anchor="middle" x="143.5" y="-7.5" font-family="Helvetica,sans-Serif" font-size="10.00">_splay_tree</text>
</a>
</g>
</g>
<!-- Node1&#45;&gt;Node3 -->
<g id="edge3" class="edge">
<title>Node1&#45;&gt;Node3</title>
<path fill="none" stroke="midnightblue" d="M229.4,-28.65C220.31,-27.24 211.09,-25.81 202.23,-24.44"/>
<polygon fill="midnightblue" stroke="midnightblue" points="229.16,-32.15 239.57,-30.22 230.23,-25.23 229.16,-32.15"/>
</g>
<!-- Node2&#45;&gt;Node2 -->
<g id="edge2" class="edge">
<title>Node2&#45;&gt;Node2</title>
<path fill="none" stroke="midnightblue" d="M164.82,-89.96C162.18,-94.68 155.07,-98 143.5,-98 124.52,-98 117.54,-89.06 122.59,-79.66"/>
<polygon fill="midnightblue" stroke="midnightblue" points="168.31,-89.51 164.41,-79.66 161.31,-89.79 168.31,-89.51"/>
</g>
<!-- Node4 -->
<g id="node4" class="node">
<title>Node4</title>
<g id="a_node4"><a xlink:href="$test_8cpp.html#af095a232149097b5605064623a9345ac" xlink:title=" ">
<polygon fill="white" stroke="black" points="0,-6 0,-25 47,-25 47,-6 0,-6"/>
<text text-anchor="middle" x="23.5" y="-13" font-family="Helvetica,sans-Serif" font-size="10.00">main2</text>
</a>
</g>
</g>
<!-- Node3&#45;&gt;Node4 -->
<g id="edge4" class="edge">
<title>Node3&#45;&gt;Node4</title>
<path fill="none" stroke="midnightblue" d="M74.82,-15.5C64.82,-15.5 55.16,-15.5 47.03,-15.5"/>
<polygon fill="midnightblue" stroke="midnightblue" points="74.88,-19 84.88,-15.5 74.88,-12 74.88,-19"/>
</g>
</g>
</svg>
