<?xml version="1.0" encoding="UTF-8" standalone="no"?>
<!DOCTYPE svg PUBLIC "-//W3C//DTD SVG 1.1//EN"
 "http://www.w3.org/Graphics/SVG/1.1/DTD/svg11.dtd">
<!-- Generated by graphviz version 2.43.0 (0)
 -->
<!-- Title: splay_tree::SplayNode::rotate Pages: 1 -->
<svg width="991pt" height="331pt"
 viewBox="0.00 0.00 991.00 330.50" xmlns="http://www.w3.org/2000/svg" xmlns:xlink="http://www.w3.org/1999/xlink">
<g id="graph0" class="graph" transform="scale(1 1) rotate(0) translate(4 326.5)">
<title>splay_tree::SplayNode::rotate</title>
<polygon fill="white" stroke="transparent" points="-4,4 -4,-326.5 987,-326.5 987,4 -4,4"/>
<!-- Node1 -->
<g id="node1" class="node">
<title>Node1</title>
<g id="a_node1"><a xlink:title=" ">
<polygon fill="#bfbfbf" stroke="black" points="857,-98.5 857,-128.5 983,-128.5 983,-98.5 857,-98.5"/>
<text text-anchor="start" x="865" y="-116.5" font-family="Helvetica,sans-Serif" font-size="10.00">splay_tree::SplayNode</text>
<text text-anchor="middle" x="920" y="-105.5" font-family="Helvetica,sans-Serif" font-size="10.00">::rotate</text>
</a>
</g>
</g>
<!-- Node2 -->
<g id="node2" class="node">
<title>Node2</title>
<g id="a_node2"><a xlink:href="$structsplay__tree_1_1SplayNode.html#a34a54d6c33025f4be7b37065e584b8c5" xlink:title=" ">
<polygon fill="white" stroke="black" points="695,-98.5 695,-128.5 821,-128.5 821,-98.5 695,-98.5"/>
<text text-anchor="start" x="703" y="-116.5" font-family="Helvetica,sans-Serif" font-size="10.00">splay_tree::SplayNode</text>
<text text-anchor="middle" x="758" y="-105.5" font-family="Helvetica,sans-Serif" font-size="10.00">::splay</text>
</a>
</g>
</g>
<!-- Node1&#45;&gt;Node2 -->
<g id="edge1" class="edge">
<title>Node1&#45;&gt;Node2</title>
<path fill="none" stroke="midnightblue" d="M846.45,-113.5C838,-113.5 829.44,-113.5 821.15,-113.5"/>
<polygon fill="midnightblue" stroke="midnightblue" points="846.68,-117 856.68,-113.5 846.68,-110 846.68,-117"/>
</g>
<!-- Node3 -->
<g id="node3" class="node">
<title>Node3</title>
<g id="a_node3"><a xlink:href="$namespacelink__cut.html#a35ca65f479c028ae63d97a8dc605a676" xlink:title=" ">
<polygon fill="white" stroke="black" points="549,-208 549,-227 643,-227 643,-208 549,-208"/>
<text text-anchor="middle" x="596" y="-215" font-family="Helvetica,sans-Serif" font-size="10.00">link_cut::access</text>
</a>
</g>
</g>
<!-- Node2&#45;&gt;Node3 -->
<g id="edge2" class="edge">
<title>Node2&#45;&gt;Node3</title>
<path fill="none" stroke="midnightblue" d="M724.98,-134.31C690.54,-156.7 637.27,-191.33 611.69,-207.95"/>
<polygon fill="midnightblue" stroke="midnightblue" points="727.26,-137.01 733.73,-128.62 723.44,-131.14 727.26,-137.01"/>
</g>
<!-- Node12 -->
<g id="node12" class="node">
<title>Node12</title>
<g id="a_node12"><a xlink:href="$structsplay__tree_1_1SplayTree.html#a967e320e3d33cad8b0a9c30cd51ed924" xlink:title=" ">
<polygon fill="white" stroke="black" points="376,-98.5 376,-128.5 497,-128.5 497,-98.5 376,-98.5"/>
<text text-anchor="start" x="384" y="-116.5" font-family="Helvetica,sans-Serif" font-size="10.00">splay_tree::SplayTree</text>
<text text-anchor="middle" x="436.5" y="-105.5" font-family="Helvetica,sans-Serif" font-size="10.00">::erase</text>
</a>
</g>
</g>
<!-- Node2&#45;&gt;Node12 -->
<g id="edge15" class="edge">
<title>Node2&#45;&gt;Node12</title>
<path fill="none" stroke="midnightblue" d="M695.6,-130.92C683.56,-133.66 670.96,-136.06 659,-137.5 603.4,-144.21 588.58,-144.38 533,-137.5 518.07,-135.65 502.12,-132.24 487.61,-128.56"/>
<polygon fill="midnightblue" stroke="midnightblue" points="696.63,-134.27 705.55,-128.56 695.01,-127.46 696.63,-134.27"/>
</g>
<!-- Node14 -->
<g id="node14" class="node">
<title>Node14</title>
<g id="a_node14"><a xlink:href="$structsplay__tree_1_1SplayTree.html#a80ab90fbd7be1405ae05399b0fc2f2f1" xlink:title=" ">
<polygon fill="white" stroke="black" points="535.5,-49.5 535.5,-79.5 656.5,-79.5 656.5,-49.5 535.5,-49.5"/>
<text text-anchor="start" x="543.5" y="-67.5" font-family="Helvetica,sans-Serif" font-size="10.00">splay_tree::SplayTree</text>
<text text-anchor="middle" x="596" y="-56.5" font-family="Helvetica,sans-Serif" font-size="10.00">::insert</text>
</a>
</g>
</g>
<!-- Node2&#45;&gt;Node14 -->
<g id="edge18" class="edge">
<title>Node2&#45;&gt;Node14</title>
<path fill="none" stroke="midnightblue" d="M697.86,-95.39C680.85,-90.18 662.48,-84.55 646.15,-79.55"/>
<polygon fill="midnightblue" stroke="midnightblue" points="697.1,-98.82 707.69,-98.4 699.15,-92.12 697.1,-98.82"/>
</g>
<!-- Node16 -->
<g id="node16" class="node">
<title>Node16</title>
<g id="a_node16"><a xlink:href="$structsplay__tree_1_1SplayTree.html#a21a513a7ac2715f280d2a89b3890722a" xlink:title=" ">
<polygon fill="white" stroke="black" points="535.5,-98.5 535.5,-128.5 656.5,-128.5 656.5,-98.5 535.5,-98.5"/>
<text text-anchor="start" x="543.5" y="-116.5" font-family="Helvetica,sans-Serif" font-size="10.00">splay_tree::SplayTree</text>
<text text-anchor="middle" x="596" y="-105.5" font-family="Helvetica,sans-Serif" font-size="10.00">::join</text>
</a>
</g>
</g>
<!-- Node2&#45;&gt;Node16 -->
<g id="edge21" class="edge">
<title>Node2&#45;&gt;Node16</title>
<path fill="none" stroke="midnightblue" d="M684.58,-113.5C675.19,-113.5 665.67,-113.5 656.53,-113.5"/>
<polygon fill="midnightblue" stroke="midnightblue" points="684.68,-117 694.68,-113.5 684.68,-110 684.68,-117"/>
</g>
<!-- Node17 -->
<g id="node17" class="node">
<title>Node17</title>
<g id="a_node17"><a xlink:href="$structsplay__tree_1_1SplayNode.html#a82d47b54b62b9e59f594af8db601fc05" xlink:title=" ">
<polygon fill="white" stroke="black" points="533,-0.5 533,-30.5 659,-30.5 659,-0.5 533,-0.5"/>
<text text-anchor="start" x="541" y="-18.5" font-family="Helvetica,sans-Serif" font-size="10.00">splay_tree::SplayNode</text>
<text text-anchor="middle" x="596" y="-7.5" font-family="Helvetica,sans-Serif" font-size="10.00">::split</text>
</a>
</g>
</g>
<!-- Node2&#45;&gt;Node17 -->
<g id="edge23" class="edge">
<title>Node2&#45;&gt;Node17</title>
<path fill="none" stroke="midnightblue" d="M732.34,-91.81C713.29,-75.83 685.73,-54.38 659,-39.5 653.15,-36.24 646.77,-33.23 640.4,-30.52"/>
<polygon fill="midnightblue" stroke="midnightblue" points="730.08,-94.48 739.96,-98.29 734.61,-89.14 730.08,-94.48"/>
</g>
<!-- Node4 -->
<g id="node4" class="node">
<title>Node4</title>
<g id="a_node4"><a xlink:href="$namespacelink__cut.html#ab6b1e676cdcb014dd718dcef1bc009de" xlink:title=" ">
<polygon fill="white" stroke="black" points="243.5,-303 243.5,-322 319.5,-322 319.5,-303 243.5,-303"/>
<text text-anchor="middle" x="281.5" y="-310" font-family="Helvetica,sans-Serif" font-size="10.00">link_cut::cut</text>
</a>
</g>
</g>
<!-- Node3&#45;&gt;Node4 -->
<g id="edge3" class="edge">
<title>Node3&#45;&gt;Node4</title>
<path fill="none" stroke="midnightblue" d="M573.83,-232.78C554.68,-245.85 525.24,-264.16 497,-274.5 437.16,-296.42 363.17,-305.94 319.57,-309.9"/>
<polygon fill="midnightblue" stroke="midnightblue" points="575.9,-235.6 582.11,-227.01 571.9,-229.86 575.9,-235.6"/>
</g>
<!-- Node7 -->
<g id="node7" class="node">
<title>Node7</title>
<g id="a_node7"><a xlink:href="$namespacelink__cut.html#a06bdf6c4d130290a538a96eb2803fec3" xlink:title=" ">
<polygon fill="white" stroke="black" points="384.5,-246 384.5,-265 488.5,-265 488.5,-246 384.5,-246"/>
<text text-anchor="middle" x="436.5" y="-253" font-family="Helvetica,sans-Serif" font-size="10.00">link_cut::find_root</text>
</a>
</g>
</g>
<!-- Node3&#45;&gt;Node7 -->
<g id="edge6" class="edge">
<title>Node3&#45;&gt;Node7</title>
<path fill="none" stroke="midnightblue" d="M545.4,-229.47C523.32,-234.79 497.7,-240.98 476.96,-245.98"/>
<polygon fill="midnightblue" stroke="midnightblue" points="546.36,-232.84 555.26,-227.09 544.71,-226.03 546.36,-232.84"/>
</g>
<!-- Node8 -->
<g id="node8" class="node">
<title>Node8</title>
<g id="a_node8"><a xlink:href="$namespacelink__cut.html#ab6c3bf00e663c7eaba8f617a3d559133" xlink:title=" ">
<polygon fill="white" stroke="black" points="244,-227 244,-246 319,-246 319,-227 244,-227"/>
<text text-anchor="middle" x="281.5" y="-234" font-family="Helvetica,sans-Serif" font-size="10.00">link_cut::lca</text>
</a>
</g>
</g>
<!-- Node3&#45;&gt;Node8 -->
<g id="edge10" class="edge">
<title>Node3&#45;&gt;Node8</title>
<path fill="none" stroke="midnightblue" d="M538.62,-220.93C474.93,-224.8 373.12,-230.99 319.04,-234.28"/>
<polygon fill="midnightblue" stroke="midnightblue" points="539.12,-224.4 548.89,-220.3 538.7,-217.42 539.12,-224.4"/>
</g>
<!-- Node9 -->
<g id="node9" class="node">
<title>Node9</title>
<g id="a_node9"><a xlink:href="$namespacelink__cut.html#a4547d61253b63b606fb1d477541d454e" xlink:title=" ">
<polygon fill="white" stroke="black" points="397,-169 397,-188 476,-188 476,-169 397,-169"/>
<text text-anchor="middle" x="436.5" y="-176" font-family="Helvetica,sans-Serif" font-size="10.00">link_cut::link</text>
</a>
</g>
</g>
<!-- Node3&#45;&gt;Node9 -->
<g id="edge11" class="edge">
<title>Node3&#45;&gt;Node9</title>
<path fill="none" stroke="midnightblue" d="M546.67,-205.53C523.95,-199.91 497.22,-193.29 475.9,-188.01"/>
<polygon fill="midnightblue" stroke="midnightblue" points="545.92,-208.95 556.47,-207.96 547.61,-202.16 545.92,-208.95"/>
</g>
<!-- Node5 -->
<g id="node5" class="node">
<title>Node5</title>
<g id="a_node5"><a xlink:href="$namespacelink__cut_1_1test.html#ad63bee2821de932f5d295238e48d106f" xlink:title=" ">
<polygon fill="white" stroke="black" points="83,-221.5 83,-251.5 187,-251.5 187,-221.5 83,-221.5"/>
<text text-anchor="start" x="91" y="-239.5" font-family="Helvetica,sans-Serif" font-size="10.00">link_cut::test::test</text>
<text text-anchor="middle" x="135" y="-228.5" font-family="Helvetica,sans-Serif" font-size="10.00">_link_cut_tree</text>
</a>
</g>
</g>
<!-- Node4&#45;&gt;Node5 -->
<g id="edge4" class="edge">
<title>Node4&#45;&gt;Node5</title>
<path fill="none" stroke="midnightblue" d="M246.06,-299.07C238.38,-295.81 230.33,-292.2 223,-288.5 200.69,-277.25 176.36,-262.48 159.12,-251.56"/>
<polygon fill="midnightblue" stroke="midnightblue" points="244.95,-302.4 255.53,-302.98 247.62,-295.93 244.95,-302.4"/>
</g>
<!-- Node6 -->
<g id="node6" class="node">
<title>Node6</title>
<g id="a_node6"><a xlink:href="$test_8cpp.html#af095a232149097b5605064623a9345ac" xlink:title=" ">
<polygon fill="white" stroke="black" points="0,-142 0,-161 47,-161 47,-142 0,-142"/>
<text text-anchor="middle" x="23.5" y="-149" font-family="Helvetica,sans-Serif" font-size="10.00">main2</text>
</a>
</g>
</g>
<!-- Node5&#45;&gt;Node6 -->
<g id="edge5" class="edge">
<title>Node5&#45;&gt;Node6</title>
<path fill="none" stroke="midnightblue" d="M106.55,-215.19C84.18,-197.82 53.63,-174.12 36.83,-161.07"/>
<polygon fill="midnightblue" stroke="midnightblue" points="104.63,-218.13 114.68,-221.5 108.92,-212.6 104.63,-218.13"/>
</g>
<!-- Node7&#45;&gt;Node5 -->
<g id="edge9" class="edge">
<title>Node7&#45;&gt;Node5</title>
<path fill="none" stroke="midnightblue" d="M374.04,-258.98C331.51,-260.54 273.66,-260.97 223,-255.5 211.32,-254.24 198.9,-252.05 187.22,-249.6"/>
<polygon fill="midnightblue" stroke="midnightblue" points="374.39,-262.47 384.24,-258.57 374.11,-255.47 374.39,-262.47"/>
</g>
<!-- Node7&#45;&gt;Node8 -->
<g id="edge7" class="edge">
<title>Node7&#45;&gt;Node8</title>
<path fill="none" stroke="midnightblue" d="M374.02,-247.86C355.54,-245.57 335.84,-243.12 319.47,-241.09"/>
<polygon fill="midnightblue" stroke="midnightblue" points="373.77,-251.36 384.13,-249.12 374.64,-244.41 373.77,-251.36"/>
</g>
<!-- Node8&#45;&gt;Node5 -->
<g id="edge8" class="edge">
<title>Node8&#45;&gt;Node5</title>
<path fill="none" stroke="midnightblue" d="M233.26,-236.5C218.52,-236.5 202.21,-236.5 187.22,-236.5"/>
<polygon fill="midnightblue" stroke="midnightblue" points="233.66,-240 243.66,-236.5 233.66,-233 233.66,-240"/>
</g>
<!-- Node9&#45;&gt;Node5 -->
<g id="edge14" class="edge">
<title>Node9&#45;&gt;Node5</title>
<path fill="none" stroke="midnightblue" d="M386.71,-186.98C343.58,-194.58 279,-206.25 223,-217.5 211.33,-219.84 198.81,-222.5 187,-225.06"/>
<polygon fill="midnightblue" stroke="midnightblue" points="387.41,-190.41 396.65,-185.23 386.19,-183.51 387.41,-190.41"/>
</g>
<!-- Node10 -->
<g id="node10" class="node">
<title>Node10</title>
<g id="a_node10"><a xlink:href="$structstring__tools_1_1Trie.html#ab8f1d2a13b82d8dbaccc886df20f8371" xlink:title="Returns the exit link, the next leaf suffix.">
<polygon fill="white" stroke="black" points="232.5,-139.5 232.5,-169.5 330.5,-169.5 330.5,-139.5 232.5,-139.5"/>
<text text-anchor="start" x="240.5" y="-157.5" font-family="Helvetica,sans-Serif" font-size="10.00">string_tools::Trie</text>
<text text-anchor="middle" x="281.5" y="-146.5" font-family="Helvetica,sans-Serif" font-size="10.00">::exit_link</text>
</a>
</g>
</g>
<!-- Node9&#45;&gt;Node10 -->
<g id="edge12" class="edge">
<title>Node9&#45;&gt;Node10</title>
<path fill="none" stroke="midnightblue" d="M386.91,-170.88C368.95,-168.06 348.62,-164.87 330.69,-162.06"/>
<polygon fill="midnightblue" stroke="midnightblue" points="386.47,-174.35 396.89,-172.44 387.55,-167.44 386.47,-174.35"/>
</g>
<!-- Node11 -->
<g id="node11" class="node">
<title>Node11</title>
<g id="a_node11"><a xlink:href="$structstring__tools_1_1Trie.html#aa30d5277840d084371dcb2193168b4a0" xlink:title="Goes to the node for the largest suffix of the current string plus c.">
<polygon fill="white" stroke="black" points="223.5,-101 223.5,-120 339.5,-120 339.5,-101 223.5,-101"/>
<text text-anchor="middle" x="281.5" y="-108" font-family="Helvetica,sans-Serif" font-size="10.00">string_tools::Trie::go</text>
</a>
</g>
</g>
<!-- Node9&#45;&gt;Node11 -->
<g id="edge13" class="edge">
<title>Node9&#45;&gt;Node11</title>
<path fill="none" stroke="midnightblue" d="M409.73,-163.9C390.8,-153.51 364.26,-139.66 340,-129.5 331.85,-126.09 322.86,-122.87 314.46,-120.09"/>
<polygon fill="midnightblue" stroke="midnightblue" points="408.19,-167.04 418.63,-168.83 411.58,-160.92 408.19,-167.04"/>
</g>
<!-- Node13 -->
<g id="node13" class="node">
<title>Node13</title>
<g id="a_node13"><a xlink:href="$namespacesplay__tree_1_1test.html#a5aa5fd954b1cb0fb099a2310d2801e9e" xlink:title=" ">
<polygon fill="white" stroke="black" points="223,-51.5 223,-81.5 340,-81.5 340,-51.5 223,-51.5"/>
<text text-anchor="start" x="231" y="-69.5" font-family="Helvetica,sans-Serif" font-size="10.00">splay_tree::test::test</text>
<text text-anchor="middle" x="281.5" y="-58.5" font-family="Helvetica,sans-Serif" font-size="10.00">_splay_tree</text>
</a>
</g>
</g>
<!-- Node12&#45;&gt;Node13 -->
<g id="edge16" class="edge">
<title>Node12&#45;&gt;Node13</title>
<path fill="none" stroke="midnightblue" d="M376.95,-95.51C361.91,-90.89 345.89,-85.97 331.39,-81.52"/>
<polygon fill="midnightblue" stroke="midnightblue" points="376.08,-98.91 386.67,-98.5 378.14,-92.22 376.08,-98.91"/>
</g>
<!-- Node13&#45;&gt;Node6 -->
<g id="edge17" class="edge">
<title>Node13&#45;&gt;Node6</title>
<path fill="none" stroke="midnightblue" d="M225.63,-84.72C170.05,-103.17 86.79,-130.82 47.11,-143.99"/>
<polygon fill="midnightblue" stroke="midnightblue" points="226.93,-87.97 235.32,-81.5 224.73,-81.33 226.93,-87.97"/>
</g>
<!-- Node14&#45;&gt;Node13 -->
<g id="edge20" class="edge">
<title>Node14&#45;&gt;Node13</title>
<path fill="none" stroke="midnightblue" d="M525.35,-64.95C469.65,-65.3 392.49,-65.8 340.21,-66.13"/>
<polygon fill="midnightblue" stroke="midnightblue" points="525.51,-68.44 535.49,-64.88 525.46,-61.45 525.51,-68.44"/>
</g>
<!-- Node15 -->
<g id="node15" class="node">
<title>Node15</title>
<g id="a_node15"><a xlink:href="$structsplay__tree_1_1SplayTree.html#a2bf075a9e6a46e3f9b61e7b00b546707" xlink:title=" ">
<polygon fill="white" stroke="black" points="376,-7.5 376,-37.5 497,-37.5 497,-7.5 376,-7.5"/>
<text text-anchor="start" x="384" y="-25.5" font-family="Helvetica,sans-Serif" font-size="10.00">splay_tree::SplayTree</text>
<text text-anchor="middle" x="436.5" y="-14.5" font-family="Helvetica,sans-Serif" font-size="10.00">::insert</text>
</a>
</g>
</g>
<!-- Node14&#45;&gt;Node15 -->
<g id="edge19" class="edge">
<title>Node14&#45;&gt;Node15</title>
<path fill="none" stroke="midnightblue" d="M528.89,-46.87C517.22,-43.76 505.16,-40.54 493.79,-37.51"/>
<polygon fill="midnightblue" stroke="midnightblue" points="528.02,-50.26 538.58,-49.46 529.82,-43.5 528.02,-50.26"/>
</g>
<!-- Node16&#45;&gt;Node12 -->
<g id="edge22" class="edge">
<title>Node16&#45;&gt;Node12</title>
<path fill="none" stroke="midnightblue" d="M525.34,-113.5C515.93,-113.5 506.34,-113.5 497.13,-113.5"/>
<polygon fill="midnightblue" stroke="midnightblue" points="525.46,-117 535.46,-113.5 525.46,-110 525.46,-117"/>
</g>
</g>
</svg>
