<?xml version="1.0" encoding="UTF-8" standalone="no"?>
<!DOCTYPE svg PUBLIC "-//W3C//DTD SVG 1.1//EN"
 "http://www.w3.org/Graphics/SVG/1.1/DTD/svg11.dtd">
<!-- Generated by graphviz version 2.43.0 (0)
 -->
<!-- Title: dsu_ds::dsu Pages: 1 -->
<svg width="153pt" height="240pt"
 viewBox="0.00 0.00 152.50 240.00" xmlns="http://www.w3.org/2000/svg" xmlns:xlink="http://www.w3.org/1999/xlink">
<g id="graph0" class="graph" transform="scale(1 1) rotate(0) translate(4 236)">
<title>dsu_ds::dsu</title>
<polygon fill="white" stroke="transparent" points="-4,4 -4,-236 148.5,-236 148.5,4 -4,4"/>
<!-- Node1 -->
<g id="node1" class="node">
<title>Node1</title>
<g id="a_node1"><a xlink:title=" ">
<polygon fill="#bfbfbf" stroke="black" points="15.5,-0.5 15.5,-19.5 89.5,-19.5 89.5,-0.5 15.5,-0.5"/>
<text text-anchor="middle" x="52.5" y="-7.5" font-family="Helvetica,sans-Serif" font-size="10.00">dsu_ds::dsu</text>
</a>
</g>
</g>
<!-- Node2 -->
<g id="node2" class="node">
<title>Node2</title>
<g id="a_node2"><a xlink:title=" ">
<polygon fill="white" stroke="#bfbfbf" points="4,-78.5 4,-97.5 101,-97.5 101,-78.5 4,-78.5"/>
<text text-anchor="middle" x="52.5" y="-85.5" font-family="Helvetica,sans-Serif" font-size="10.00">std::vector&lt; ll &gt;</text>
</a>
</g>
</g>
<!-- Node2&#45;&gt;Node1 -->
<g id="edge1" class="edge">
<title>Node2&#45;&gt;Node1</title>
<path fill="none" stroke="#9a32cd" stroke-dasharray="5,2" d="M52.5,-68.22C52.5,-52.7 52.5,-31.36 52.5,-19.62"/>
<polygon fill="#9a32cd" stroke="#9a32cd" points="49,-68.28 52.5,-78.28 56,-68.28 49,-68.28"/>
<text text-anchor="middle" x="57.5" y="-52" font-family="Helvetica,sans-Serif" font-size="10.00"> p</text>
<text text-anchor="middle" x="57.5" y="-41" font-family="Helvetica,sans-Serif" font-size="10.00">s</text>
</g>
<!-- Node3 -->
<g id="node3" class="node">
<title>Node3</title>
<g id="a_node3"><a xlink:href="structll.html" target="_top" xlink:title=" ">
<polygon fill="white" stroke="black" points="0,-145.5 0,-164.5 29,-164.5 29,-145.5 0,-145.5"/>
<text text-anchor="middle" x="14.5" y="-152.5" font-family="Helvetica,sans-Serif" font-size="10.00">ll</text>
</a>
</g>
</g>
<!-- Node3&#45;&gt;Node2 -->
<g id="edge2" class="edge">
<title>Node3&#45;&gt;Node2</title>
<path fill="none" stroke="#9a32cd" stroke-dasharray="5,2" d="M14.25,-134.86C14.87,-128.53 16.34,-121.67 19.5,-116 23.68,-108.5 30.84,-102.25 37.43,-97.66"/>
<polygon fill="#9a32cd" stroke="#9a32cd" points="10.73,-135.17 13.88,-145.29 17.73,-135.42 10.73,-135.17"/>
<text text-anchor="middle" x="44" y="-119" font-family="Helvetica,sans-Serif" font-size="10.00"> elements</text>
</g>
<!-- Node4 -->
<g id="node4" class="node">
<title>Node4</title>
<g id="a_node4"><a xlink:title="STL class.">
<polygon fill="white" stroke="#bfbfbf" points="47,-145.5 47,-164.5 144,-164.5 144,-145.5 47,-145.5"/>
<text text-anchor="middle" x="95.5" y="-152.5" font-family="Helvetica,sans-Serif" font-size="10.00">std::vector&lt; T &gt;</text>
</a>
</g>
</g>
<!-- Node4&#45;&gt;Node2 -->
<g id="edge3" class="edge">
<title>Node4&#45;&gt;Node2</title>
<path fill="none" stroke="orange" stroke-dasharray="5,2" d="M83.95,-136.53C75.62,-123.95 64.74,-107.51 58.21,-97.63"/>
<polygon fill="orange" stroke="orange" points="81.26,-138.82 89.7,-145.23 87.1,-134.96 81.26,-138.82"/>
<text text-anchor="middle" x="92.5" y="-119" font-family="Helvetica,sans-Serif" font-size="10.00"> &lt; ll &gt;</text>
</g>
<!-- Node5 -->
<g id="node5" class="node">
<title>Node5</title>
<g id="a_node5"><a xlink:title=" ">
<polygon fill="white" stroke="#bfbfbf" points="81,-212.5 81,-231.5 110,-231.5 110,-212.5 81,-212.5"/>
<text text-anchor="middle" x="95.5" y="-219.5" font-family="Helvetica,sans-Serif" font-size="10.00">T</text>
</a>
</g>
</g>
<!-- Node5&#45;&gt;Node4 -->
<g id="edge4" class="edge">
<title>Node5&#45;&gt;Node4</title>
<path fill="none" stroke="#9a32cd" stroke-dasharray="5,2" d="M95.5,-202.04C95.5,-189.67 95.5,-174.12 95.5,-164.63"/>
<polygon fill="#9a32cd" stroke="#9a32cd" points="92,-202.23 95.5,-212.23 99,-202.23 92,-202.23"/>
<text text-anchor="middle" x="120" y="-186" font-family="Helvetica,sans-Serif" font-size="10.00"> elements</text>
</g>
</g>
</svg>
