<?xml version="1.0" encoding="UTF-8" standalone="no"?>
<!DOCTYPE svg PUBLIC "-//W3C//DTD SVG 1.1//EN"
 "http://www.w3.org/Graphics/SVG/1.1/DTD/svg11.dtd">
<!-- Generated by graphviz version 2.43.0 (0)
 -->
<!-- Title: splay_tree::SplayNode::split Pages: 1 -->
<svg width="782pt" height="99pt"
 viewBox="0.00 0.00 782.00 99.00" xmlns="http://www.w3.org/2000/svg" xmlns:xlink="http://www.w3.org/1999/xlink">
<g id="graph0" class="graph" transform="scale(1 1) rotate(0) translate(4 95)">
<title>splay_tree::SplayNode::split</title>
<polygon fill="white" stroke="transparent" points="-4,4 -4,-95 778,-95 778,4 -4,4"/>
<!-- Node1 -->
<g id="node1" class="node">
<title>Node1</title>
<g id="a_node1"><a xlink:title=" ">
<polygon fill="#bfbfbf" stroke="black" points="0,-0.5 0,-30.5 126,-30.5 126,-0.5 0,-0.5"/>
<text text-anchor="start" x="8" y="-18.5" font-family="Helvetica,sans-Serif" font-size="10.00">splay_tree::SplayNode</text>
<text text-anchor="middle" x="63" y="-7.5" font-family="Helvetica,sans-Serif" font-size="10.00">::split</text>
</a>
</g>
</g>
<!-- Node2 -->
<g id="node2" class="node">
<title>Node2</title>
<g id="a_node2"><a xlink:href="structsplay__tree_1_1SplayNode.html#a34a54d6c33025f4be7b37065e584b8c5" target="_top" xlink:title=" ">
<polygon fill="white" stroke="black" points="162,-0.5 162,-30.5 288,-30.5 288,-0.5 162,-0.5"/>
<text text-anchor="start" x="170" y="-18.5" font-family="Helvetica,sans-Serif" font-size="10.00">splay_tree::SplayNode</text>
<text text-anchor="middle" x="225" y="-7.5" font-family="Helvetica,sans-Serif" font-size="10.00">::splay</text>
</a>
</g>
</g>
<!-- Node1&#45;&gt;Node2 -->
<g id="edge1" class="edge">
<title>Node1&#45;&gt;Node2</title>
<path fill="none" stroke="midnightblue" d="M126.32,-15.5C134.62,-15.5 143.18,-15.5 151.63,-15.5"/>
<polygon fill="midnightblue" stroke="midnightblue" points="151.85,-19 161.85,-15.5 151.85,-12 151.85,-19"/>
</g>
<!-- Node3 -->
<g id="node3" class="node">
<title>Node3</title>
<g id="a_node3"><a xlink:href="structsplay__tree_1_1SplayNode.html#a099b6b1b7632cb57ee28bc474d86343e" target="_top" xlink:title=" ">
<polygon fill="white" stroke="black" points="324,-22.5 324,-52.5 450,-52.5 450,-22.5 324,-22.5"/>
<text text-anchor="start" x="332" y="-40.5" font-family="Helvetica,sans-Serif" font-size="10.00">splay_tree::SplayNode</text>
<text text-anchor="middle" x="387" y="-29.5" font-family="Helvetica,sans-Serif" font-size="10.00">::rotate</text>
</a>
</g>
</g>
<!-- Node2&#45;&gt;Node3 -->
<g id="edge2" class="edge">
<title>Node2&#45;&gt;Node3</title>
<path fill="none" stroke="midnightblue" d="M288.32,-24.07C296.71,-25.22 305.37,-26.41 313.91,-27.59"/>
<polygon fill="midnightblue" stroke="midnightblue" points="313.47,-31.06 323.85,-28.95 314.42,-24.12 313.47,-31.06"/>
</g>
<!-- Node5 -->
<g id="node5" class="node">
<title>Node5</title>
<g id="a_node5"><a xlink:href="structsplay__tree_1_1SplayNode.html#a73de7d8fe94fc66a6a43427751e8a546" target="_top" xlink:title=" ">
<polygon fill="white" stroke="black" points="648,-16.5 648,-46.5 774,-46.5 774,-16.5 648,-16.5"/>
<text text-anchor="start" x="656" y="-34.5" font-family="Helvetica,sans-Serif" font-size="10.00">splay_tree::SplayNode</text>
<text text-anchor="middle" x="711" y="-23.5" font-family="Helvetica,sans-Serif" font-size="10.00">::side</text>
</a>
</g>
</g>
<!-- Node2&#45;&gt;Node5 -->
<g id="edge6" class="edge">
<title>Node2&#45;&gt;Node5</title>
<path fill="none" stroke="midnightblue" d="M288.2,-13.31C300.09,-12.97 312.43,-12.68 324,-12.5 379.99,-11.64 394.04,-10.46 450,-12.5 513.5,-14.82 585.54,-20.31 637.67,-24.79"/>
<polygon fill="midnightblue" stroke="midnightblue" points="637.55,-28.3 647.82,-25.68 638.16,-21.32 637.55,-28.3"/>
</g>
<!-- Node4 -->
<g id="node4" class="node">
<title>Node4</title>
<g id="a_node4"><a xlink:href="structsplay__tree_1_1SplayNode.html#a510653918c7b8181c888bbb608a9e6ee" target="_top" xlink:title=" ">
<polygon fill="white" stroke="black" points="486,-60.5 486,-90.5 612,-90.5 612,-60.5 486,-60.5"/>
<text text-anchor="start" x="494" y="-78.5" font-family="Helvetica,sans-Serif" font-size="10.00">splay_tree::SplayNode</text>
<text text-anchor="middle" x="549" y="-67.5" font-family="Helvetica,sans-Serif" font-size="10.00">::attach</text>
</a>
</g>
</g>
<!-- Node3&#45;&gt;Node4 -->
<g id="edge3" class="edge">
<title>Node3&#45;&gt;Node4</title>
<path fill="none" stroke="midnightblue" d="M450.32,-52.3C458.71,-54.29 467.37,-56.35 475.91,-58.38"/>
<polygon fill="midnightblue" stroke="midnightblue" points="475.31,-61.83 485.85,-60.74 476.93,-55.02 475.31,-61.83"/>
</g>
<!-- Node3&#45;&gt;Node5 -->
<g id="edge5" class="edge">
<title>Node3&#45;&gt;Node5</title>
<path fill="none" stroke="midnightblue" d="M450.08,-36.34C503.68,-35.34 581.14,-33.9 637.55,-32.85"/>
<polygon fill="midnightblue" stroke="midnightblue" points="637.9,-36.34 647.83,-32.66 637.77,-29.35 637.9,-36.34"/>
</g>
<!-- Node4&#45;&gt;Node5 -->
<g id="edge4" class="edge">
<title>Node4&#45;&gt;Node5</title>
<path fill="none" stroke="midnightblue" d="M604.62,-60.48C617.8,-56.85 632.01,-52.95 645.6,-49.21"/>
<polygon fill="midnightblue" stroke="midnightblue" points="646.65,-52.55 655.36,-46.53 644.79,-45.8 646.65,-52.55"/>
</g>
</g>
</svg>
