<?xml version="1.0" encoding="UTF-8" standalone="no"?>
<!DOCTYPE svg PUBLIC "-//W3C//DTD SVG 1.1//EN"
 "http://www.w3.org/Graphics/SVG/1.1/DTD/svg11.dtd">
<!-- Generated by graphviz version 2.43.0 (0)
 -->
<!-- Title: graph_theory::gsearch Pages: 1 -->
<svg width="403pt" height="251pt"
 viewBox="0.00 0.00 403.00 251.00" xmlns="http://www.w3.org/2000/svg" xmlns:xlink="http://www.w3.org/1999/xlink">
<g id="graph0" class="graph" transform="scale(1 1) rotate(0) translate(4 247)">
<title>graph_theory::gsearch</title>
<polygon fill="white" stroke="transparent" points="-4,4 -4,-247 399,-247 399,4 -4,4"/>
<!-- Node1 -->
<g id="node1" class="node">
<title>Node1</title>
<g id="a_node1"><a xlink:title=" ">
<polygon fill="#bfbfbf" stroke="black" points="101.5,-0.5 101.5,-19.5 226.5,-19.5 226.5,-0.5 101.5,-0.5"/>
<text text-anchor="middle" x="164" y="-7.5" font-family="Helvetica,sans-Serif" font-size="10.00">graph_theory::gsearch</text>
</a>
</g>
</g>
<!-- Node2 -->
<g id="node2" class="node">
<title>Node2</title>
<g id="a_node2"><a xlink:href="structll.html" target="_top" xlink:title=" ">
<polygon fill="white" stroke="black" points="133.5,-156.5 133.5,-175.5 162.5,-175.5 162.5,-156.5 133.5,-156.5"/>
<text text-anchor="middle" x="148" y="-163.5" font-family="Helvetica,sans-Serif" font-size="10.00">ll</text>
</a>
</g>
</g>
<!-- Node2&#45;&gt;Node1 -->
<g id="edge1" class="edge">
<title>Node2&#45;&gt;Node1</title>
<path fill="none" stroke="#9a32cd" stroke-dasharray="5,2" d="M149.98,-145.98C153.47,-112.37 160.6,-43.76 163.1,-19.63"/>
<polygon fill="#9a32cd" stroke="#9a32cd" points="146.46,-145.97 148.91,-156.28 153.42,-146.69 146.46,-145.97"/>
<text text-anchor="middle" x="160" y="-96.5" font-family="Helvetica,sans-Serif" font-size="10.00"> n</text>
</g>
<!-- Node3 -->
<g id="node3" class="node">
<title>Node3</title>
<g id="a_node3"><a xlink:title=" ">
<polygon fill="white" stroke="#bfbfbf" points="176.5,-89.5 176.5,-108.5 273.5,-108.5 273.5,-89.5 176.5,-89.5"/>
<text text-anchor="middle" x="225" y="-96.5" font-family="Helvetica,sans-Serif" font-size="10.00">std::vector&lt; ll &gt;</text>
</a>
</g>
</g>
<!-- Node2&#45;&gt;Node3 -->
<g id="edge3" class="edge">
<title>Node2&#45;&gt;Node3</title>
<path fill="none" stroke="#9a32cd" stroke-dasharray="5,2" d="M165.4,-149.78C173.45,-142.79 183.17,-134.42 192,-127 199.37,-120.81 207.76,-113.94 214.24,-108.68"/>
<polygon fill="#9a32cd" stroke="#9a32cd" points="162.96,-147.27 157.72,-156.47 167.56,-152.54 162.96,-147.27"/>
<text text-anchor="middle" x="216.5" y="-130" font-family="Helvetica,sans-Serif" font-size="10.00"> elements</text>
</g>
<!-- Node7 -->
<g id="node7" class="node">
<title>Node7</title>
<g id="a_node7"><a xlink:title=" ">
<polygon fill="white" stroke="#bfbfbf" points="16,-89.5 16,-108.5 112,-108.5 112,-89.5 16,-89.5"/>
<text text-anchor="middle" x="64" y="-96.5" font-family="Helvetica,sans-Serif" font-size="10.00">std::deque&lt; ll &gt;</text>
</a>
</g>
</g>
<!-- Node2&#45;&gt;Node7 -->
<g id="edge10" class="edge">
<title>Node2&#45;&gt;Node7</title>
<path fill="none" stroke="#9a32cd" stroke-dasharray="5,2" d="M123.34,-158.63C110.74,-154.4 95.82,-147.79 85,-138 76.06,-129.91 70.09,-117.09 66.87,-108.61"/>
<polygon fill="#9a32cd" stroke="#9a32cd" points="122.65,-162.07 133.24,-161.63 124.69,-155.38 122.65,-162.07"/>
<text text-anchor="middle" x="109.5" y="-130" font-family="Helvetica,sans-Serif" font-size="10.00"> elements</text>
</g>
<!-- Node3&#45;&gt;Node1 -->
<g id="edge2" class="edge">
<title>Node3&#45;&gt;Node1</title>
<path fill="none" stroke="#9a32cd" stroke-dasharray="5,2" d="M213.08,-80.99C200.15,-62.56 180.03,-33.87 170.05,-19.62"/>
<polygon fill="#9a32cd" stroke="#9a32cd" points="210.32,-83.16 218.93,-89.34 216.05,-79.14 210.32,-83.16"/>
<text text-anchor="middle" x="210" y="-63" font-family="Helvetica,sans-Serif" font-size="10.00"> p</text>
<text text-anchor="middle" x="210" y="-52" font-family="Helvetica,sans-Serif" font-size="10.00">d</text>
<text text-anchor="middle" x="210" y="-41" font-family="Helvetica,sans-Serif" font-size="10.00">v</text>
</g>
<!-- Node4 -->
<g id="node4" class="node">
<title>Node4</title>
<g id="a_node4"><a xlink:title="STL class.">
<polygon fill="white" stroke="#bfbfbf" points="231.5,-156.5 231.5,-175.5 328.5,-175.5 328.5,-156.5 231.5,-156.5"/>
<text text-anchor="middle" x="280" y="-163.5" font-family="Helvetica,sans-Serif" font-size="10.00">std::vector&lt; T &gt;</text>
</a>
</g>
</g>
<!-- Node4&#45;&gt;Node3 -->
<g id="edge4" class="edge">
<title>Node4&#45;&gt;Node3</title>
<path fill="none" stroke="orange" stroke-dasharray="5,2" d="M264.02,-149.01C260.63,-145.45 257.14,-141.65 254,-138 245.68,-128.3 236.87,-116.52 231.18,-108.67"/>
<polygon fill="orange" stroke="orange" points="261.58,-151.52 271.07,-156.24 266.6,-146.64 261.58,-151.52"/>
<text text-anchor="middle" x="270" y="-130" font-family="Helvetica,sans-Serif" font-size="10.00"> &lt; ll &gt;</text>
</g>
<!-- Node6 -->
<g id="node6" class="node">
<title>Node6</title>
<g id="a_node6"><a xlink:title=" ">
<polygon fill="white" stroke="#bfbfbf" points="292,-89.5 292,-108.5 392,-108.5 392,-89.5 292,-89.5"/>
<text text-anchor="middle" x="342" y="-96.5" font-family="Helvetica,sans-Serif" font-size="10.00">std::vector&lt; vl &gt;</text>
</a>
</g>
</g>
<!-- Node4&#45;&gt;Node6 -->
<g id="edge7" class="edge">
<title>Node4&#45;&gt;Node6</title>
<path fill="none" stroke="#9a32cd" stroke-dasharray="5,2" d="M291.73,-147.9C296.72,-141.11 302.81,-133.4 309,-127 315.48,-120.29 323.58,-113.65 330.13,-108.63"/>
<polygon fill="#9a32cd" stroke="#9a32cd" points="288.63,-146.22 285.7,-156.4 294.34,-150.27 288.63,-146.22"/>
<text text-anchor="middle" x="333.5" y="-130" font-family="Helvetica,sans-Serif" font-size="10.00"> elements</text>
</g>
<!-- Node4&#45;&gt;Node6 -->
<g id="edge8" class="edge">
<title>Node4&#45;&gt;Node6</title>
<path fill="none" stroke="orange" stroke-dasharray="5,2" d="M338.24,-154.14C345.99,-150.27 352.98,-145.05 358,-138 364.48,-128.9 357.12,-116.78 350.38,-108.7"/>
<polygon fill="orange" stroke="orange" points="336.72,-150.99 328.86,-158.09 339.44,-157.44 336.72,-150.99"/>
<text text-anchor="middle" x="377.5" y="-130" font-family="Helvetica,sans-Serif" font-size="10.00"> &lt; vl &gt;</text>
</g>
<!-- Node5 -->
<g id="node5" class="node">
<title>Node5</title>
<g id="a_node5"><a xlink:title=" ">
<polygon fill="white" stroke="#bfbfbf" points="126.5,-223.5 126.5,-242.5 155.5,-242.5 155.5,-223.5 126.5,-223.5"/>
<text text-anchor="middle" x="141" y="-230.5" font-family="Helvetica,sans-Serif" font-size="10.00">T</text>
</a>
</g>
</g>
<!-- Node5&#45;&gt;Node4 -->
<g id="edge5" class="edge">
<title>Node5&#45;&gt;Node4</title>
<path fill="none" stroke="#9a32cd" stroke-dasharray="5,2" d="M164.89,-220.83C192.33,-207.99 236.78,-187.21 261.65,-175.58"/>
<polygon fill="#9a32cd" stroke="#9a32cd" points="163.19,-217.76 155.61,-225.17 166.15,-224.1 163.19,-217.76"/>
<text text-anchor="middle" x="242.5" y="-197" font-family="Helvetica,sans-Serif" font-size="10.00"> elements</text>
</g>
<!-- Node8 -->
<g id="node8" class="node">
<title>Node8</title>
<g id="a_node8"><a xlink:title="STL class.">
<polygon fill="white" stroke="#bfbfbf" points="0,-156.5 0,-175.5 96,-175.5 96,-156.5 0,-156.5"/>
<text text-anchor="middle" x="48" y="-163.5" font-family="Helvetica,sans-Serif" font-size="10.00">std::deque&lt; T &gt;</text>
</a>
</g>
</g>
<!-- Node5&#45;&gt;Node8 -->
<g id="edge12" class="edge">
<title>Node5&#45;&gt;Node8</title>
<path fill="none" stroke="#9a32cd" stroke-dasharray="5,2" d="M120.14,-217.42C101.75,-204.57 75.59,-186.28 60.34,-175.63"/>
<polygon fill="#9a32cd" stroke="#9a32cd" points="118.26,-220.37 128.46,-223.23 122.27,-214.64 118.26,-220.37"/>
<text text-anchor="middle" x="125.5" y="-197" font-family="Helvetica,sans-Serif" font-size="10.00"> elements</text>
</g>
<!-- Node6&#45;&gt;Node1 -->
<g id="edge6" class="edge">
<title>Node6&#45;&gt;Node1</title>
<path fill="none" stroke="#9a32cd" stroke-dasharray="5,2" d="M315.45,-85.02C278.54,-66.99 212.75,-34.83 181.46,-19.53"/>
<polygon fill="#9a32cd" stroke="#9a32cd" points="314.09,-88.25 324.61,-89.5 317.16,-81.96 314.09,-88.25"/>
<text text-anchor="middle" x="289" y="-52" font-family="Helvetica,sans-Serif" font-size="10.00"> g</text>
</g>
<!-- Node7&#45;&gt;Node1 -->
<g id="edge9" class="edge">
<title>Node7&#45;&gt;Node1</title>
<path fill="none" stroke="#9a32cd" stroke-dasharray="5,2" d="M78.52,-81.87C90.22,-69.28 107.4,-51.68 124,-38 132.14,-31.28 141.96,-24.64 149.83,-19.62"/>
<polygon fill="#9a32cd" stroke="#9a32cd" points="75.86,-79.59 71.68,-89.33 81.02,-84.32 75.86,-79.59"/>
<text text-anchor="middle" x="129" y="-52" font-family="Helvetica,sans-Serif" font-size="10.00"> q</text>
</g>
<!-- Node8&#45;&gt;Node7 -->
<g id="edge11" class="edge">
<title>Node8&#45;&gt;Node7</title>
<path fill="none" stroke="orange" stroke-dasharray="5,2" d="M33.06,-148.04C29.07,-141.46 26.68,-133.87 30,-127 33.74,-119.26 40.89,-113.06 47.67,-108.56"/>
<polygon fill="orange" stroke="orange" points="30.35,-150.27 39.11,-156.23 35.98,-146.11 30.35,-150.27"/>
<text text-anchor="middle" x="46" y="-130" font-family="Helvetica,sans-Serif" font-size="10.00"> &lt; ll &gt;</text>
</g>
</g>
</svg>
