<?xml version="1.0" encoding="UTF-8" standalone="no"?>
<!DOCTYPE svg PUBLIC "-//W3C//DTD SVG 1.1//EN"
 "http://www.w3.org/Graphics/SVG/1.1/DTD/svg11.dtd">
<!-- Generated by graphviz version 2.43.0 (0)
 -->
<!-- Title: splay_tree::SplayNode::attach Pages: 1 -->
<svg width="1230pt" height="307pt"
 viewBox="0.00 0.00 1230.00 306.50" xmlns="http://www.w3.org/2000/svg" xmlns:xlink="http://www.w3.org/1999/xlink">
<g id="graph0" class="graph" transform="scale(1 1) rotate(0) translate(4 302.5)">
<title>splay_tree::SplayNode::attach</title>
<polygon fill="white" stroke="transparent" points="-4,4 -4,-302.5 1226,-302.5 1226,4 -4,4"/>
<!-- Node1 -->
<g id="node1" class="node">
<title>Node1</title>
<g id="a_node1"><a xlink:title=" ">
<polygon fill="#bfbfbf" stroke="black" points="1096,-197.5 1096,-227.5 1222,-227.5 1222,-197.5 1096,-197.5"/>
<text text-anchor="start" x="1104" y="-215.5" font-family="Helvetica,sans-Serif" font-size="10.00">splay_tree::SplayNode</text>
<text text-anchor="middle" x="1159" y="-204.5" font-family="Helvetica,sans-Serif" font-size="10.00">::attach</text>
</a>
</g>
</g>
<!-- Node2 -->
<g id="node2" class="node">
<title>Node2</title>
<g id="a_node2"><a xlink:href="namespacelink__cut.html#ac946b39708c027e0827fa6e4f1440e71" target="_top" xlink:title=" ">
<polygon fill="white" stroke="black" points="626,-203 626,-222 720,-222 720,-203 626,-203"/>
<text text-anchor="middle" x="673" y="-210" font-family="Helvetica,sans-Serif" font-size="10.00">link_cut::access</text>
</a>
</g>
</g>
<!-- Node1&#45;&gt;Node2 -->
<g id="edge1" class="edge">
<title>Node1&#45;&gt;Node2</title>
<path fill="none" stroke="midnightblue" d="M1085.61,-212.5C984.68,-212.5 804.62,-212.5 720.14,-212.5"/>
<polygon fill="midnightblue" stroke="midnightblue" points="1085.72,-216 1095.72,-212.5 1085.72,-209 1085.72,-216"/>
</g>
<!-- Node9 -->
<g id="node9" class="node">
<title>Node9</title>
<g id="a_node9"><a xlink:href="namespacelink__cut.html#a4547d61253b63b606fb1d477541d454e" target="_top" xlink:title=" ">
<polygon fill="white" stroke="black" points="474,-279 474,-298 553,-298 553,-279 474,-279"/>
<text text-anchor="middle" x="513.5" y="-286" font-family="Helvetica,sans-Serif" font-size="10.00">link_cut::link</text>
</a>
</g>
</g>
<!-- Node1&#45;&gt;Node9 -->
<g id="edge13" class="edge">
<title>Node1&#45;&gt;Node9</title>
<path fill="none" stroke="midnightblue" d="M1085.71,-223.07C1077.05,-224.26 1068.33,-225.43 1060,-226.5 870.21,-250.84 642.63,-275.13 553.24,-284.48"/>
<polygon fill="midnightblue" stroke="midnightblue" points="1086.4,-226.5 1095.83,-221.66 1085.44,-219.57 1086.4,-226.5"/>
</g>
<!-- Node10 -->
<g id="node10" class="node">
<title>Node10</title>
<g id="a_node10"><a xlink:href="structsplay__tree_1_1SplayNode.html#a099b6b1b7632cb57ee28bc474d86343e" target="_top" xlink:title=" ">
<polygon fill="white" stroke="black" points="934,-153.5 934,-183.5 1060,-183.5 1060,-153.5 934,-153.5"/>
<text text-anchor="start" x="942" y="-171.5" font-family="Helvetica,sans-Serif" font-size="10.00">splay_tree::SplayNode</text>
<text text-anchor="middle" x="997" y="-160.5" font-family="Helvetica,sans-Serif" font-size="10.00">::rotate</text>
</a>
</g>
</g>
<!-- Node1&#45;&gt;Node10 -->
<g id="edge14" class="edge">
<title>Node1&#45;&gt;Node10</title>
<path fill="none" stroke="midnightblue" d="M1093.63,-194.8C1080.04,-191.06 1065.83,-187.15 1052.64,-183.53"/>
<polygon fill="midnightblue" stroke="midnightblue" points="1092.81,-198.2 1103.38,-197.48 1094.67,-191.45 1092.81,-198.2"/>
</g>
<!-- Node3 -->
<g id="node3" class="node">
<title>Node3</title>
<g id="a_node3"><a xlink:href="namespacelink__cut.html#ab6b1e676cdcb014dd718dcef1bc009de" target="_top" xlink:title=" ">
<polygon fill="white" stroke="black" points="320.5,-165 320.5,-184 396.5,-184 396.5,-165 320.5,-165"/>
<text text-anchor="middle" x="358.5" y="-172" font-family="Helvetica,sans-Serif" font-size="10.00">link_cut::cut</text>
</a>
</g>
</g>
<!-- Node2&#45;&gt;Node3 -->
<g id="edge2" class="edge">
<title>Node2&#45;&gt;Node3</title>
<path fill="none" stroke="midnightblue" d="M617.68,-200.93C603.51,-198.2 588.22,-195.5 574,-193.5 512.18,-184.79 439.73,-179.36 396.83,-176.64"/>
<polygon fill="midnightblue" stroke="midnightblue" points="617.28,-204.42 627.77,-202.92 618.63,-197.55 617.28,-204.42"/>
</g>
<!-- Node7 -->
<g id="node7" class="node">
<title>Node7</title>
<g id="a_node7"><a xlink:href="namespacelink__cut.html#a3cb07576c29a6d57e510b41c59832ef4" target="_top" xlink:title=" ">
<polygon fill="white" stroke="black" points="461.5,-203 461.5,-222 565.5,-222 565.5,-203 461.5,-203"/>
<text text-anchor="middle" x="513.5" y="-210" font-family="Helvetica,sans-Serif" font-size="10.00">link_cut::find_root</text>
</a>
</g>
</g>
<!-- Node2&#45;&gt;Node7 -->
<g id="edge6" class="edge">
<title>Node2&#45;&gt;Node7</title>
<path fill="none" stroke="midnightblue" d="M615.16,-212.5C598.94,-212.5 581.38,-212.5 565.53,-212.5"/>
<polygon fill="midnightblue" stroke="midnightblue" points="615.6,-216 625.6,-212.5 615.6,-209 615.6,-216"/>
</g>
<!-- Node8 -->
<g id="node8" class="node">
<title>Node8</title>
<g id="a_node8"><a xlink:href="namespacelink__cut.html#a87ccf88a6b91bcd10ae30fcfcd4b2b9d" target="_top" xlink:title=" ">
<polygon fill="white" stroke="black" points="321,-241 321,-260 396,-260 396,-241 321,-241"/>
<text text-anchor="middle" x="358.5" y="-248" font-family="Helvetica,sans-Serif" font-size="10.00">link_cut::lca</text>
</a>
</g>
</g>
<!-- Node2&#45;&gt;Node8 -->
<g id="edge10" class="edge">
<title>Node2&#45;&gt;Node8</title>
<path fill="none" stroke="midnightblue" d="M617.68,-224.07C603.51,-226.8 588.22,-229.5 574,-231.5 511.81,-240.26 438.86,-245.7 396.07,-248.41"/>
<polygon fill="midnightblue" stroke="midnightblue" points="618.63,-227.45 627.77,-222.08 617.28,-220.58 618.63,-227.45"/>
</g>
<!-- Node2&#45;&gt;Node9 -->
<g id="edge11" class="edge">
<title>Node2&#45;&gt;Node9</title>
<path fill="none" stroke="midnightblue" d="M646.38,-227.04C626.82,-237.91 599.06,-252.84 574,-264.5 562.99,-269.62 550.57,-274.73 539.94,-278.92"/>
<polygon fill="midnightblue" stroke="midnightblue" points="648.26,-230 655.28,-222.06 644.84,-223.89 648.26,-230"/>
</g>
<!-- Node4 -->
<g id="node4" class="node">
<title>Node4</title>
<g id="a_node4"><a xlink:href="namespacelink__cut_1_1test.html#ad63bee2821de932f5d295238e48d106f" target="_top" xlink:title=" ">
<polygon fill="white" stroke="black" points="160,-197.5 160,-227.5 264,-227.5 264,-197.5 160,-197.5"/>
<text text-anchor="start" x="168" y="-215.5" font-family="Helvetica,sans-Serif" font-size="10.00">link_cut::test::test</text>
<text text-anchor="middle" x="212" y="-204.5" font-family="Helvetica,sans-Serif" font-size="10.00">_link_cut_tree</text>
</a>
</g>
</g>
<!-- Node3&#45;&gt;Node4 -->
<g id="edge3" class="edge">
<title>Node3&#45;&gt;Node4</title>
<path fill="none" stroke="midnightblue" d="M311,-186.73C296.07,-190.66 279.44,-195.03 264.19,-199.04"/>
<polygon fill="midnightblue" stroke="midnightblue" points="312.26,-190.02 321.04,-184.09 310.48,-183.25 312.26,-190.02"/>
</g>
<!-- Node5 -->
<g id="node5" class="node">
<title>Node5</title>
<g id="a_node5"><a xlink:href="test_8cpp.html#af095a232149097b5605064623a9345ac" target="_top" xlink:title=" ">
<polygon fill="white" stroke="black" points="77,-140 77,-159 124,-159 124,-140 77,-140"/>
<text text-anchor="middle" x="100.5" y="-147" font-family="Helvetica,sans-Serif" font-size="10.00">main2</text>
</a>
</g>
</g>
<!-- Node4&#45;&gt;Node5 -->
<g id="edge4" class="edge">
<title>Node4&#45;&gt;Node5</title>
<path fill="none" stroke="midnightblue" d="M175.94,-192.33C156.65,-181.23 133.61,-167.97 118.32,-159.18"/>
<polygon fill="midnightblue" stroke="midnightblue" points="174.36,-195.46 184.77,-197.41 177.85,-189.39 174.36,-195.46"/>
</g>
<!-- Node6 -->
<g id="node6" class="node">
<title>Node6</title>
<g id="a_node6"><a xlink:href="main_8hpp.html#a0ddf1224851353fc92bfbff6f499fa97" target="_top" xlink:title=" ">
<polygon fill="white" stroke="black" points="0,-140 0,-159 41,-159 41,-140 0,-140"/>
<text text-anchor="middle" x="20.5" y="-147" font-family="Helvetica,sans-Serif" font-size="10.00">main</text>
</a>
</g>
</g>
<!-- Node5&#45;&gt;Node6 -->
<g id="edge5" class="edge">
<title>Node5&#45;&gt;Node6</title>
<path fill="none" stroke="midnightblue" d="M66.66,-149.5C57.96,-149.5 48.84,-149.5 41.1,-149.5"/>
<polygon fill="midnightblue" stroke="midnightblue" points="66.94,-153 76.94,-149.5 66.94,-146 66.94,-153"/>
</g>
<!-- Node7&#45;&gt;Node4 -->
<g id="edge9" class="edge">
<title>Node7&#45;&gt;Node4</title>
<path fill="none" stroke="midnightblue" d="M451.02,-212.5C395.88,-212.5 315.92,-212.5 264.19,-212.5"/>
<polygon fill="midnightblue" stroke="midnightblue" points="451.35,-216 461.35,-212.5 451.35,-209 451.35,-216"/>
</g>
<!-- Node7&#45;&gt;Node8 -->
<g id="edge7" class="edge">
<title>Node7&#45;&gt;Node8</title>
<path fill="none" stroke="midnightblue" d="M464.09,-224.52C442.13,-229.98 416.6,-236.32 396.25,-241.37"/>
<polygon fill="midnightblue" stroke="midnightblue" points="465.03,-227.9 473.89,-222.09 463.34,-221.1 465.03,-227.9"/>
</g>
<!-- Node8&#45;&gt;Node4 -->
<g id="edge8" class="edge">
<title>Node8&#45;&gt;Node4</title>
<path fill="none" stroke="midnightblue" d="M311,-238.27C296.07,-234.34 279.44,-229.97 264.19,-225.96"/>
<polygon fill="midnightblue" stroke="midnightblue" points="310.48,-241.75 321.04,-240.91 312.26,-234.98 310.48,-241.75"/>
</g>
<!-- Node9&#45;&gt;Node4 -->
<g id="edge12" class="edge">
<title>Node9&#45;&gt;Node4</title>
<path fill="none" stroke="midnightblue" d="M463.56,-290.78C419.56,-291.29 353.77,-288.19 300,-269.5 273.39,-260.25 246.91,-241.11 230.27,-227.56"/>
<polygon fill="midnightblue" stroke="midnightblue" points="463.77,-294.28 473.71,-290.59 463.65,-287.28 463.77,-294.28"/>
</g>
<!-- Node11 -->
<g id="node11" class="node">
<title>Node11</title>
<g id="a_node11"><a xlink:href="structsplay__tree_1_1SplayNode.html#a34a54d6c33025f4be7b37065e584b8c5" target="_top" xlink:title=" ">
<polygon fill="white" stroke="black" points="772,-113.5 772,-143.5 898,-143.5 898,-113.5 772,-113.5"/>
<text text-anchor="start" x="780" y="-131.5" font-family="Helvetica,sans-Serif" font-size="10.00">splay_tree::SplayNode</text>
<text text-anchor="middle" x="835" y="-120.5" font-family="Helvetica,sans-Serif" font-size="10.00">::splay</text>
</a>
</g>
</g>
<!-- Node10&#45;&gt;Node11 -->
<g id="edge15" class="edge">
<title>Node10&#45;&gt;Node11</title>
<path fill="none" stroke="midnightblue" d="M926.07,-151.02C916.08,-148.52 905.88,-145.97 896.1,-143.53"/>
<polygon fill="midnightblue" stroke="midnightblue" points="925.42,-154.46 935.97,-153.49 927.11,-147.67 925.42,-154.46"/>
</g>
<!-- Node11&#45;&gt;Node2 -->
<g id="edge16" class="edge">
<title>Node11&#45;&gt;Node2</title>
<path fill="none" stroke="midnightblue" d="M796.13,-148.38C763.42,-165.55 717.58,-189.62 692.39,-202.85"/>
<polygon fill="midnightblue" stroke="midnightblue" points="798.17,-151.26 805.4,-143.52 794.91,-145.07 798.17,-151.26"/>
</g>
<!-- Node12 -->
<g id="node12" class="node">
<title>Node12</title>
<g id="a_node12"><a xlink:href="structsplay__tree_1_1SplayTree.html#a967e320e3d33cad8b0a9c30cd51ed924" target="_top" xlink:title=" ">
<polygon fill="white" stroke="black" points="453,-27.5 453,-57.5 574,-57.5 574,-27.5 453,-27.5"/>
<text text-anchor="start" x="461" y="-45.5" font-family="Helvetica,sans-Serif" font-size="10.00">splay_tree::SplayTree</text>
<text text-anchor="middle" x="513.5" y="-34.5" font-family="Helvetica,sans-Serif" font-size="10.00">::erase</text>
</a>
</g>
</g>
<!-- Node11&#45;&gt;Node12 -->
<g id="edge17" class="edge">
<title>Node11&#45;&gt;Node12</title>
<path fill="none" stroke="midnightblue" d="M800.68,-108.22C782.22,-97.84 758.52,-85.87 736,-78.5 682.87,-61.1 619.7,-51.9 574.45,-47.17"/>
<polygon fill="midnightblue" stroke="midnightblue" points="799.13,-111.37 809.55,-113.31 802.62,-105.3 799.13,-111.37"/>
</g>
<!-- Node14 -->
<g id="node14" class="node">
<title>Node14</title>
<g id="a_node14"><a xlink:href="structsplay__tree_1_1SplayTree.html#a80ab90fbd7be1405ae05399b0fc2f2f1" target="_top" xlink:title=" ">
<polygon fill="white" stroke="black" points="612.5,-137.5 612.5,-167.5 733.5,-167.5 733.5,-137.5 612.5,-137.5"/>
<text text-anchor="start" x="620.5" y="-155.5" font-family="Helvetica,sans-Serif" font-size="10.00">splay_tree::SplayTree</text>
<text text-anchor="middle" x="673" y="-144.5" font-family="Helvetica,sans-Serif" font-size="10.00">::insert</text>
</a>
</g>
</g>
<!-- Node11&#45;&gt;Node14 -->
<g id="edge20" class="edge">
<title>Node11&#45;&gt;Node14</title>
<path fill="none" stroke="midnightblue" d="M761.58,-139.36C752.19,-140.77 742.67,-142.2 733.53,-143.57"/>
<polygon fill="midnightblue" stroke="midnightblue" points="762.31,-142.79 771.68,-137.85 761.27,-135.87 762.31,-142.79"/>
</g>
<!-- Node16 -->
<g id="node16" class="node">
<title>Node16</title>
<g id="a_node16"><a xlink:href="structsplay__tree_1_1SplayTree.html#a21a513a7ac2715f280d2a89b3890722a" target="_top" xlink:title=" ">
<polygon fill="white" stroke="black" points="612.5,-0.5 612.5,-30.5 733.5,-30.5 733.5,-0.5 612.5,-0.5"/>
<text text-anchor="start" x="620.5" y="-18.5" font-family="Helvetica,sans-Serif" font-size="10.00">splay_tree::SplayTree</text>
<text text-anchor="middle" x="673" y="-7.5" font-family="Helvetica,sans-Serif" font-size="10.00">::join</text>
</a>
</g>
</g>
<!-- Node11&#45;&gt;Node16 -->
<g id="edge23" class="edge">
<title>Node11&#45;&gt;Node16</title>
<path fill="none" stroke="midnightblue" d="M811.37,-106.45C792.3,-88.6 763.76,-63.56 736,-45.5 727.58,-40.02 718.01,-34.91 708.95,-30.51"/>
<polygon fill="midnightblue" stroke="midnightblue" points="809.01,-109.04 818.68,-113.38 813.83,-103.96 809.01,-109.04"/>
</g>
<!-- Node17 -->
<g id="node17" class="node">
<title>Node17</title>
<g id="a_node17"><a xlink:href="structsplay__tree_1_1SplayNode.html#a82d47b54b62b9e59f594af8db601fc05" target="_top" xlink:title=" ">
<polygon fill="white" stroke="black" points="610,-88.5 610,-118.5 736,-118.5 736,-88.5 610,-88.5"/>
<text text-anchor="start" x="618" y="-106.5" font-family="Helvetica,sans-Serif" font-size="10.00">splay_tree::SplayNode</text>
<text text-anchor="middle" x="673" y="-95.5" font-family="Helvetica,sans-Serif" font-size="10.00">::split</text>
</a>
</g>
</g>
<!-- Node11&#45;&gt;Node17 -->
<g id="edge25" class="edge">
<title>Node11&#45;&gt;Node17</title>
<path fill="none" stroke="midnightblue" d="M761.73,-117.21C753.19,-115.87 744.53,-114.52 736.15,-113.21"/>
<polygon fill="midnightblue" stroke="midnightblue" points="761.26,-120.68 771.68,-118.76 762.34,-113.76 761.26,-120.68"/>
</g>
<!-- Node13 -->
<g id="node13" class="node">
<title>Node13</title>
<g id="a_node13"><a xlink:href="namespacesplay__tree_1_1test.html#a5aa5fd954b1cb0fb099a2310d2801e9e" target="_top" xlink:title=" ">
<polygon fill="white" stroke="black" points="300,-71.5 300,-101.5 417,-101.5 417,-71.5 300,-71.5"/>
<text text-anchor="start" x="308" y="-89.5" font-family="Helvetica,sans-Serif" font-size="10.00">splay_tree::test::test</text>
<text text-anchor="middle" x="358.5" y="-78.5" font-family="Helvetica,sans-Serif" font-size="10.00">_splay_tree</text>
</a>
</g>
</g>
<!-- Node12&#45;&gt;Node13 -->
<g id="edge18" class="edge">
<title>Node12&#45;&gt;Node13</title>
<path fill="none" stroke="midnightblue" d="M450.56,-60.31C437.69,-64.02 424.24,-67.88 411.75,-71.47"/>
<polygon fill="midnightblue" stroke="midnightblue" points="451.63,-63.65 460.27,-57.52 449.7,-56.92 451.63,-63.65"/>
</g>
<!-- Node13&#45;&gt;Node5 -->
<g id="edge19" class="edge">
<title>Node13&#45;&gt;Node5</title>
<path fill="none" stroke="midnightblue" d="M289.73,-103.18C234.94,-116.66 161.08,-134.84 124.29,-143.89"/>
<polygon fill="midnightblue" stroke="midnightblue" points="290.86,-106.51 299.73,-100.72 289.18,-99.71 290.86,-106.51"/>
</g>
<!-- Node14&#45;&gt;Node13 -->
<g id="edge22" class="edge">
<title>Node14&#45;&gt;Node13</title>
<path fill="none" stroke="midnightblue" d="M622.51,-133.41C618.24,-131.5 614.02,-129.52 610,-127.5 593.25,-119.08 591.81,-111.37 574,-105.5 522.87,-88.64 461.39,-84.74 417.39,-84.55"/>
<polygon fill="midnightblue" stroke="midnightblue" points="621.31,-136.7 631.88,-137.45 624.08,-130.28 621.31,-136.7"/>
</g>
<!-- Node15 -->
<g id="node15" class="node">
<title>Node15</title>
<g id="a_node15"><a xlink:href="structsplay__tree_1_1SplayTree.html#a2bf075a9e6a46e3f9b61e7b00b546707" target="_top" xlink:title=" ">
<polygon fill="white" stroke="black" points="453,-115.5 453,-145.5 574,-145.5 574,-115.5 453,-115.5"/>
<text text-anchor="start" x="461" y="-133.5" font-family="Helvetica,sans-Serif" font-size="10.00">splay_tree::SplayTree</text>
<text text-anchor="middle" x="513.5" y="-122.5" font-family="Helvetica,sans-Serif" font-size="10.00">::insert</text>
</a>
</g>
</g>
<!-- Node14&#45;&gt;Node15 -->
<g id="edge21" class="edge">
<title>Node14&#45;&gt;Node15</title>
<path fill="none" stroke="midnightblue" d="M602.34,-142.77C592.93,-141.46 583.34,-140.12 574.13,-138.83"/>
<polygon fill="midnightblue" stroke="midnightblue" points="602.07,-146.27 612.46,-144.18 603.04,-139.33 602.07,-146.27"/>
</g>
<!-- Node16&#45;&gt;Node12 -->
<g id="edge24" class="edge">
<title>Node16&#45;&gt;Node12</title>
<path fill="none" stroke="midnightblue" d="M602.34,-27.44C592.93,-29.06 583.34,-30.7 574.13,-32.28"/>
<polygon fill="midnightblue" stroke="midnightblue" points="603.19,-30.85 612.46,-25.71 602.01,-23.95 603.19,-30.85"/>
</g>
</g>
</svg>
