<?xml version="1.0" encoding="UTF-8" standalone="no"?>
<!DOCTYPE svg PUBLIC "-//W3C//DTD SVG 1.1//EN"
 "http://www.w3.org/Graphics/SVG/1.1/DTD/svg11.dtd">
<!-- Generated by graphviz version 2.43.0 (0)
 -->
<!-- Title: graph_theory::GeneralSearch&lt; Searcher, Graph &gt; Pages: 1 -->
<svg width="281pt" height="251pt"
 viewBox="0.00 0.00 280.50 251.00" xmlns="http://www.w3.org/2000/svg" xmlns:xlink="http://www.w3.org/1999/xlink">
<g id="graph0" class="graph" transform="scale(1 1) rotate(0) translate(4 247)">
<title>graph_theory::GeneralSearch&lt; Searcher, Graph &gt;</title>
<polygon fill="white" stroke="transparent" points="-4,4 -4,-247 276.5,-247 276.5,4 -4,4"/>
<!-- Node1 -->
<g id="node1" class="node">
<title>Node1</title>
<g id="a_node1"><a xlink:title=" ">
<polygon fill="#bfbfbf" stroke="black" points="41.5,-0.5 41.5,-30.5 199.5,-30.5 199.5,-0.5 41.5,-0.5"/>
<text text-anchor="start" x="49.5" y="-18.5" font-family="Helvetica,sans-Serif" font-size="10.00">graph_theory::GeneralSearch</text>
<text text-anchor="middle" x="120.5" y="-7.5" font-family="Helvetica,sans-Serif" font-size="10.00">&lt; Searcher, Graph &gt;</text>
</a>
</g>
</g>
<!-- Node2 -->
<g id="node2" class="node">
<title>Node2</title>
<g id="a_node2"><a xlink:title=" ">
<polygon fill="white" stroke="#bfbfbf" points="15,-89.5 15,-108.5 112,-108.5 112,-89.5 15,-89.5"/>
<text text-anchor="middle" x="63.5" y="-96.5" font-family="Helvetica,sans-Serif" font-size="10.00">std::vector&lt; ll &gt;</text>
</a>
</g>
</g>
<!-- Node2&#45;&gt;Node1 -->
<g id="edge1" class="edge">
<title>Node2&#45;&gt;Node1</title>
<path fill="none" stroke="#9a32cd" stroke-dasharray="5,2" d="M75.43,-80.95C85.87,-66.01 100.86,-44.58 110.64,-30.6"/>
<polygon fill="#9a32cd" stroke="#9a32cd" points="72.46,-79.08 69.6,-89.28 78.2,-83.09 72.46,-79.08"/>
<text text-anchor="middle" x="118.5" y="-63" font-family="Helvetica,sans-Serif" font-size="10.00"> parent</text>
<text text-anchor="middle" x="118.5" y="-52" font-family="Helvetica,sans-Serif" font-size="10.00">distance</text>
</g>
<!-- Node3 -->
<g id="node3" class="node">
<title>Node3</title>
<g id="a_node3"><a xlink:href="structll.html" target="_top" xlink:title=" ">
<polygon fill="white" stroke="black" points="124,-156.5 124,-175.5 153,-175.5 153,-156.5 124,-156.5"/>
<text text-anchor="middle" x="138.5" y="-163.5" font-family="Helvetica,sans-Serif" font-size="10.00">ll</text>
</a>
</g>
</g>
<!-- Node3&#45;&gt;Node2 -->
<g id="edge2" class="edge">
<title>Node3&#45;&gt;Node2</title>
<path fill="none" stroke="#9a32cd" stroke-dasharray="5,2" d="M116.18,-150.73C110.57,-146.82 104.67,-142.43 99.5,-138 88.74,-128.77 77.73,-116.68 70.76,-108.64"/>
<polygon fill="#9a32cd" stroke="#9a32cd" points="114.38,-153.73 124.64,-156.41 118.29,-147.93 114.38,-153.73"/>
<text text-anchor="middle" x="124" y="-130" font-family="Helvetica,sans-Serif" font-size="10.00"> elements</text>
</g>
<!-- Node6 -->
<g id="node6" class="node">
<title>Node6</title>
<g id="a_node6"><a xlink:title=" ">
<polygon fill="white" stroke="#bfbfbf" points="130.5,-89.5 130.5,-108.5 226.5,-108.5 226.5,-89.5 130.5,-89.5"/>
<text text-anchor="middle" x="178.5" y="-96.5" font-family="Helvetica,sans-Serif" font-size="10.00">std::deque&lt; ll &gt;</text>
</a>
</g>
</g>
<!-- Node3&#45;&gt;Node6 -->
<g id="edge6" class="edge">
<title>Node3&#45;&gt;Node6</title>
<path fill="none" stroke="#9a32cd" stroke-dasharray="5,2" d="M147.21,-147.1C150.53,-140.64 154.49,-133.38 158.5,-127 162.47,-120.68 167.47,-113.93 171.48,-108.76"/>
<polygon fill="#9a32cd" stroke="#9a32cd" points="143.93,-145.83 142.59,-156.34 150.19,-148.96 143.93,-145.83"/>
<text text-anchor="middle" x="183" y="-130" font-family="Helvetica,sans-Serif" font-size="10.00"> elements</text>
</g>
<!-- Node4 -->
<g id="node4" class="node">
<title>Node4</title>
<g id="a_node4"><a xlink:title="STL class.">
<polygon fill="white" stroke="#bfbfbf" points="0,-156.5 0,-175.5 97,-175.5 97,-156.5 0,-156.5"/>
<text text-anchor="middle" x="48.5" y="-163.5" font-family="Helvetica,sans-Serif" font-size="10.00">std::vector&lt; T &gt;</text>
</a>
</g>
</g>
<!-- Node4&#45;&gt;Node2 -->
<g id="edge3" class="edge">
<title>Node4&#45;&gt;Node2</title>
<path fill="none" stroke="orange" stroke-dasharray="5,2" d="M34.09,-147.57C30.47,-141.09 28.39,-133.69 31.5,-127 35.05,-119.35 41.96,-113.09 48.44,-108.53"/>
<polygon fill="orange" stroke="orange" points="31.5,-149.99 40.07,-156.21 37.26,-146 31.5,-149.99"/>
<text text-anchor="middle" x="47.5" y="-130" font-family="Helvetica,sans-Serif" font-size="10.00"> &lt; ll &gt;</text>
</g>
<!-- Node5 -->
<g id="node5" class="node">
<title>Node5</title>
<g id="a_node5"><a xlink:title=" ">
<polygon fill="white" stroke="#bfbfbf" points="115,-223.5 115,-242.5 144,-242.5 144,-223.5 115,-223.5"/>
<text text-anchor="middle" x="129.5" y="-230.5" font-family="Helvetica,sans-Serif" font-size="10.00">T</text>
</a>
</g>
</g>
<!-- Node5&#45;&gt;Node4 -->
<g id="edge4" class="edge">
<title>Node5&#45;&gt;Node4</title>
<path fill="none" stroke="#9a32cd" stroke-dasharray="5,2" d="M110.45,-216.71C94.49,-203.91 72.29,-186.09 59.25,-175.63"/>
<polygon fill="#9a32cd" stroke="#9a32cd" points="108.59,-219.7 118.58,-223.23 112.97,-214.25 108.59,-219.7"/>
<text text-anchor="middle" x="119" y="-197" font-family="Helvetica,sans-Serif" font-size="10.00"> elements</text>
</g>
<!-- Node7 -->
<g id="node7" class="node">
<title>Node7</title>
<g id="a_node7"><a xlink:title="STL class.">
<polygon fill="white" stroke="#bfbfbf" points="176.5,-156.5 176.5,-175.5 272.5,-175.5 272.5,-156.5 176.5,-156.5"/>
<text text-anchor="middle" x="224.5" y="-163.5" font-family="Helvetica,sans-Serif" font-size="10.00">std::deque&lt; T &gt;</text>
</a>
</g>
</g>
<!-- Node5&#45;&gt;Node7 -->
<g id="edge8" class="edge">
<title>Node5&#45;&gt;Node7</title>
<path fill="none" stroke="#9a32cd" stroke-dasharray="5,2" d="M150.81,-217.42C169.59,-204.57 196.32,-186.28 211.89,-175.63"/>
<polygon fill="#9a32cd" stroke="#9a32cd" points="148.59,-214.7 142.31,-223.23 152.54,-220.48 148.59,-214.7"/>
<text text-anchor="middle" x="207" y="-197" font-family="Helvetica,sans-Serif" font-size="10.00"> elements</text>
</g>
<!-- Node6&#45;&gt;Node1 -->
<g id="edge5" class="edge">
<title>Node6&#45;&gt;Node1</title>
<path fill="none" stroke="#9a32cd" stroke-dasharray="5,2" d="M166.36,-80.95C155.74,-66.01 140.48,-44.58 130.53,-30.6"/>
<polygon fill="#9a32cd" stroke="#9a32cd" points="163.64,-83.16 172.29,-89.28 169.35,-79.1 163.64,-83.16"/>
<text text-anchor="middle" x="174.5" y="-57.5" font-family="Helvetica,sans-Serif" font-size="10.00"> queue</text>
</g>
<!-- Node7&#45;&gt;Node6 -->
<g id="edge7" class="edge">
<title>Node7&#45;&gt;Node6</title>
<path fill="none" stroke="orange" stroke-dasharray="5,2" d="M218.13,-146.87C215.38,-140.3 211.8,-133.02 207.5,-127 202.54,-120.06 195.58,-113.51 189.72,-108.6"/>
<polygon fill="orange" stroke="orange" points="214.91,-148.24 221.75,-156.33 221.45,-145.74 214.91,-148.24"/>
<text text-anchor="middle" x="229.5" y="-130" font-family="Helvetica,sans-Serif" font-size="10.00"> &lt; ll &gt;</text>
</g>
</g>
</svg>
