<?xml version="1.0" encoding="UTF-8" standalone="no"?>
<!DOCTYPE svg PUBLIC "-//W3C//DTD SVG 1.1//EN"
 "http://www.w3.org/Graphics/SVG/1.1/DTD/svg11.dtd">
<!-- Generated by graphviz version 2.43.0 (0)
 -->
<!-- Title: segment_tree::SegmentTree&lt; T, Query, Update, has_lazy, has_ptr, has_pers, base &gt;::NodeCore Pages: 1 -->
<svg width="206pt" height="139pt"
 viewBox="0.00 0.00 205.50 139.00" xmlns="http://www.w3.org/2000/svg" xmlns:xlink="http://www.w3.org/1999/xlink">
<g id="graph0" class="graph" transform="scale(1 1) rotate(0) translate(4 135)">
<title>segment_tree::SegmentTree&lt; T, Query, Update, has_lazy, has_ptr, has_pers, base &gt;::NodeCore</title>
<polygon fill="white" stroke="transparent" points="-4,4 -4,-135 201.5,-135 201.5,4 -4,4"/>
<!-- Node1 -->
<g id="node1" class="node">
<title>Node1</title>
<g id="a_node1"><a xlink:title=" ">
<polygon fill="#bfbfbf" stroke="black" points="43.5,-0.5 43.5,-52.5 197.5,-52.5 197.5,-0.5 43.5,-0.5"/>
<text text-anchor="start" x="51.5" y="-40.5" font-family="Helvetica,sans-Serif" font-size="10.00">segment_tree::SegmentTree</text>
<text text-anchor="start" x="51.5" y="-29.5" font-family="Helvetica,sans-Serif" font-size="10.00">&lt; T, Query, Update, has</text>
<text text-anchor="start" x="51.5" y="-18.5" font-family="Helvetica,sans-Serif" font-size="10.00">_lazy, has_ptr, has_pers,</text>
<text text-anchor="middle" x="120.5" y="-7.5" font-family="Helvetica,sans-Serif" font-size="10.00"> base &gt;::NodeCore</text>
</a>
</g>
</g>
<!-- Node2 -->
<g id="node2" class="node">
<title>Node2</title>
<g id="a_node2"><a xlink:title=" ">
<polygon fill="white" stroke="#bfbfbf" points="0,-100.5 0,-130.5 139,-130.5 139,-100.5 0,-100.5"/>
<text text-anchor="start" x="8" y="-118.5" font-family="Helvetica,sans-Serif" font-size="10.00">conditional_t&lt; has</text>
<text text-anchor="middle" x="69.5" y="-107.5" font-family="Helvetica,sans-Serif" font-size="10.00">_lazy, LazyPart, Empty &gt;</text>
</a>
</g>
</g>
<!-- Node2&#45;&gt;Node1 -->
<g id="edge1" class="edge">
<title>Node2&#45;&gt;Node1</title>
<path fill="none" stroke="midnightblue" d="M83.12,-91.27C90.07,-79.4 98.55,-64.95 105.67,-52.8"/>
<polygon fill="midnightblue" stroke="midnightblue" points="79.96,-89.74 77.92,-100.13 86,-93.28 79.96,-89.74"/>
</g>
<!-- Node3 -->
<g id="node3" class="node">
<title>Node3</title>
<g id="a_node3"><a xlink:title=" ">
<polygon fill="white" stroke="#bfbfbf" points="157,-106 157,-125 186,-125 186,-106 157,-106"/>
<text text-anchor="middle" x="171.5" y="-113" font-family="Helvetica,sans-Serif" font-size="10.00">T</text>
</a>
</g>
</g>
<!-- Node3&#45;&gt;Node1 -->
<g id="edge2" class="edge">
<title>Node3&#45;&gt;Node1</title>
<path fill="none" stroke="#9a32cd" stroke-dasharray="5,2" d="M161.33,-97.16C153.86,-84.41 143.6,-66.91 135.23,-52.63"/>
<polygon fill="#9a32cd" stroke="#9a32cd" points="158.35,-98.98 166.42,-105.84 164.39,-95.44 158.35,-98.98"/>
<text text-anchor="middle" x="167" y="-74" font-family="Helvetica,sans-Serif" font-size="10.00"> qsum</text>
</g>
</g>
</svg>
