<?xml version="1.0" encoding="UTF-8" standalone="no"?>
<!DOCTYPE svg PUBLIC "-//W3C//DTD SVG 1.1//EN"
 "http://www.w3.org/Graphics/SVG/1.1/DTD/svg11.dtd">
<!-- Generated by graphviz version 2.43.0 (0)
 -->
<!-- Title: SegmentTree&lt; T, Query, Update, has_lazy, has_ptr, has_pers, base &gt;::NodeExp Pages: 1 -->
<svg width="855pt" height="114pt"
 viewBox="0.00 0.00 855.00 113.50" xmlns="http://www.w3.org/2000/svg" xmlns:xlink="http://www.w3.org/1999/xlink">
<g id="graph0" class="graph" transform="scale(1 1) rotate(0) translate(4 109.5)">
<title>SegmentTree&lt; T, Query, Update, has_lazy, has_ptr, has_pers, base &gt;::NodeExp</title>
<polygon fill="white" stroke="transparent" points="-4,4 -4,-109.5 851,-109.5 851,4 -4,4"/>
<!-- Node1 -->
<g id="node1" class="node">
<title>Node1</title>
<g id="a_node1"><a xlink:title=" ">
<polygon fill="#bfbfbf" stroke="black" points="488,-0.5 488,-52.5 624,-52.5 624,-0.5 488,-0.5"/>
<text text-anchor="start" x="496" y="-40.5" font-family="Helvetica,sans-Serif" font-size="10.00">SegmentTree&lt; T, Query,</text>
<text text-anchor="start" x="496" y="-29.5" font-family="Helvetica,sans-Serif" font-size="10.00"> Update, has_lazy, has</text>
<text text-anchor="start" x="496" y="-18.5" font-family="Helvetica,sans-Serif" font-size="10.00">_ptr, has_pers, base &gt;</text>
<text text-anchor="middle" x="556" y="-7.5" font-family="Helvetica,sans-Serif" font-size="10.00">::NodeExp</text>
</a>
</g>
</g>
<!-- Node5 -->
<g id="node5" class="node">
<title>Node5</title>
<g id="a_node5"><a xlink:title=" ">
<polygon fill="white" stroke="#bfbfbf" points="709,-45.5 709,-75.5 847,-75.5 847,-45.5 709,-45.5"/>
<text text-anchor="start" x="717" y="-63.5" font-family="Helvetica,sans-Serif" font-size="10.00">std::array&lt; SegmentTree</text>
<text text-anchor="middle" x="778" y="-52.5" font-family="Helvetica,sans-Serif" font-size="10.00">::NodeExp *, base &gt;</text>
</a>
</g>
</g>
<!-- Node1&#45;&gt;Node5 -->
<g id="edge5" class="edge">
<title>Node1&#45;&gt;Node5</title>
<path fill="none" stroke="#9a32cd" stroke-dasharray="5,2" d="M634.1,-38.41C658.39,-42.17 685.05,-46.29 708.69,-49.94"/>
<polygon fill="#9a32cd" stroke="#9a32cd" points="634.62,-34.95 624.2,-36.89 633.55,-41.87 634.62,-34.95"/>
<text text-anchor="middle" x="666.5" y="-50.5" font-family="Helvetica,sans-Serif" font-size="10.00"> elements</text>
</g>
<!-- Node2 -->
<g id="node2" class="node">
<title>Node2</title>
<g id="a_node2"><a xlink:href="structSegmentTree_1_1NodeCore.html" target="_top" xlink:title=" ">
<polygon fill="white" stroke="black" points="224,-0.5 224,-52.5 360,-52.5 360,-0.5 224,-0.5"/>
<text text-anchor="start" x="232" y="-40.5" font-family="Helvetica,sans-Serif" font-size="10.00">SegmentTree&lt; T, Query,</text>
<text text-anchor="start" x="232" y="-29.5" font-family="Helvetica,sans-Serif" font-size="10.00"> Update, has_lazy, has</text>
<text text-anchor="start" x="232" y="-18.5" font-family="Helvetica,sans-Serif" font-size="10.00">_ptr, has_pers, base &gt;</text>
<text text-anchor="middle" x="292" y="-7.5" font-family="Helvetica,sans-Serif" font-size="10.00">::NodeCore</text>
</a>
</g>
</g>
<!-- Node2&#45;&gt;Node1 -->
<g id="edge1" class="edge">
<title>Node2&#45;&gt;Node1</title>
<path fill="none" stroke="midnightblue" d="M370.43,-26.5C407.63,-26.5 451.79,-26.5 487.59,-26.5"/>
<polygon fill="midnightblue" stroke="midnightblue" points="370.13,-23 360.13,-26.5 370.13,-30 370.13,-23"/>
</g>
<!-- Node3 -->
<g id="node3" class="node">
<title>Node3</title>
<g id="a_node3"><a xlink:title=" ">
<polygon fill="white" stroke="#bfbfbf" points="0,-7.5 0,-37.5 139,-37.5 139,-7.5 0,-7.5"/>
<text text-anchor="start" x="8" y="-25.5" font-family="Helvetica,sans-Serif" font-size="10.00">conditional_t&lt; has</text>
<text text-anchor="middle" x="69.5" y="-14.5" font-family="Helvetica,sans-Serif" font-size="10.00">_lazy, LazyPart, Empty &gt;</text>
</a>
</g>
</g>
<!-- Node3&#45;&gt;Node2 -->
<g id="edge2" class="edge">
<title>Node3&#45;&gt;Node2</title>
<path fill="none" stroke="midnightblue" d="M149.37,-23.93C173.8,-24.37 200.46,-24.86 224,-25.28"/>
<polygon fill="midnightblue" stroke="midnightblue" points="149.12,-20.43 139.06,-23.74 148.99,-27.42 149.12,-20.43"/>
</g>
<!-- Node4 -->
<g id="node4" class="node">
<title>Node4</title>
<g id="a_node4"><a xlink:title=" ">
<polygon fill="white" stroke="#bfbfbf" points="55,-68 55,-87 84,-87 84,-68 55,-68"/>
<text text-anchor="middle" x="69.5" y="-75" font-family="Helvetica,sans-Serif" font-size="10.00">T</text>
</a>
</g>
</g>
<!-- Node4&#45;&gt;Node2 -->
<g id="edge3" class="edge">
<title>Node4&#45;&gt;Node2</title>
<path fill="none" stroke="#9a32cd" stroke-dasharray="5,2" d="M94.11,-71.65C111.49,-67.37 135.69,-61.47 157,-56.5 178.71,-51.44 202.43,-46.07 223.81,-41.3"/>
<polygon fill="#9a32cd" stroke="#9a32cd" points="93.13,-68.28 84.26,-74.08 94.81,-75.08 93.13,-68.28"/>
<text text-anchor="middle" x="181.5" y="-59.5" font-family="Helvetica,sans-Serif" font-size="10.00"> qsum</text>
</g>
<!-- Node6 -->
<g id="node6" class="node">
<title>Node6</title>
<g id="a_node6"><a xlink:title="STL class.">
<polygon fill="white" stroke="#bfbfbf" points="378,-80 378,-99 470,-99 470,-80 378,-80"/>
<text text-anchor="middle" x="424" y="-87" font-family="Helvetica,sans-Serif" font-size="10.00">std::array&lt; T &gt;</text>
</a>
</g>
</g>
<!-- Node4&#45;&gt;Node6 -->
<g id="edge7" class="edge">
<title>Node4&#45;&gt;Node6</title>
<path fill="none" stroke="#9a32cd" stroke-dasharray="5,2" d="M94.38,-78.31C152.57,-80.29 302.41,-85.39 377.99,-87.97"/>
<polygon fill="#9a32cd" stroke="#9a32cd" points="94.43,-74.81 84.32,-77.97 94.19,-81.81 94.43,-74.81"/>
<text text-anchor="middle" x="181.5" y="-84.5" font-family="Helvetica,sans-Serif" font-size="10.00"> elements</text>
</g>
<!-- Node5&#45;&gt;Node1 -->
<g id="edge4" class="edge">
<title>Node5&#45;&gt;Node1</title>
<path fill="none" stroke="#9a32cd" stroke-dasharray="5,2" d="M736.54,-41.55C722.45,-35.87 706.32,-30.4 691,-27.5 669.51,-23.44 645.74,-22.22 624.25,-22.31"/>
<polygon fill="#9a32cd" stroke="#9a32cd" points="735.36,-44.85 745.94,-45.47 738.06,-38.39 735.36,-44.85"/>
<text text-anchor="middle" x="666.5" y="-30.5" font-family="Helvetica,sans-Serif" font-size="10.00"> child</text>
</g>
<!-- Node6&#45;&gt;Node5 -->
<g id="edge6" class="edge">
<title>Node6&#45;&gt;Node5</title>
<path fill="none" stroke="orange" stroke-dasharray="5,2" d="M480.64,-84.92C542.51,-79.82 642.46,-71.58 708.95,-66.11"/>
<polygon fill="orange" stroke="orange" points="479.98,-81.46 470.3,-85.77 480.55,-88.44 479.98,-81.46"/>
<text text-anchor="start" x="492" y="-97.5" font-family="Helvetica,sans-Serif" font-size="10.00"> &lt; SegmentTree::NodeExp</text>
<text text-anchor="middle" x="556" y="-86.5" font-family="Helvetica,sans-Serif" font-size="10.00"> *, base &gt;</text>
</g>
</g>
</svg>
