<?xml version="1.0" encoding="UTF-8" standalone="no"?>
<!DOCTYPE svg PUBLIC "-//W3C//DTD SVG 1.1//EN"
 "http://www.w3.org/Graphics/SVG/1.1/DTD/svg11.dtd">
<!-- Generated by graphviz version 2.43.0 (0)
 -->
<!-- Title: seg2&lt; Op, No_T, T, No &gt; Pages: 1 -->
<svg width="194pt" height="139pt"
 viewBox="0.00 0.00 194.00 139.00" xmlns="http://www.w3.org/2000/svg" xmlns:xlink="http://www.w3.org/1999/xlink">
<g id="graph0" class="graph" transform="scale(1 1) rotate(0) translate(4 135)">
<title>seg2&lt; Op, No_T, T, No &gt;</title>
<polygon fill="white" stroke="transparent" points="-4,4 -4,-135 190,-135 190,4 -4,4"/>
<!-- Node1 -->
<g id="node1" class="node">
<title>Node1</title>
<g id="a_node1"><a xlink:title=" ">
<polygon fill="#bfbfbf" stroke="black" points="48,-0.5 48,-19.5 186,-19.5 186,-0.5 48,-0.5"/>
<text text-anchor="middle" x="117" y="-7.5" font-family="Helvetica,sans-Serif" font-size="10.00">seg2&lt; Op, No_T, T, No &gt;</text>
</a>
</g>
</g>
<!-- Node2 -->
<g id="node2" class="node">
<title>Node2</title>
<g id="a_node2"><a xlink:title=" ">
<polygon fill="white" stroke="#bfbfbf" points="0,-89.5 0,-130.5 134,-130.5 134,-89.5 0,-89.5"/>
<text text-anchor="start" x="8" y="-118.5" font-family="Helvetica,sans-Serif" font-size="10.00">seg_base&lt; mypers &lt;no</text>
<text text-anchor="start" x="8" y="-107.5" font-family="Helvetica,sans-Serif" font-size="10.00">_v&lt;decltype (identity</text>
<text text-anchor="middle" x="67" y="-96.5" font-family="Helvetica,sans-Serif" font-size="10.00">(plus&lt;ll&gt; {})) &gt;&gt; &gt;</text>
</a>
</g>
</g>
<!-- Node2&#45;&gt;Node1 -->
<g id="edge1" class="edge">
<title>Node2&#45;&gt;Node1</title>
<path fill="none" stroke="midnightblue" d="M81.72,-80.16C92.25,-59.52 105.73,-33.1 112.58,-19.67"/>
<polygon fill="midnightblue" stroke="midnightblue" points="78.55,-78.67 77.12,-89.17 84.78,-81.85 78.55,-78.67"/>
</g>
<!-- Node3 -->
<g id="node3" class="node">
<title>Node3</title>
<g id="a_node3"><a xlink:href="structll.html" target="_top" xlink:title=" ">
<polygon fill="white" stroke="black" points="152.5,-100.5 152.5,-119.5 181.5,-119.5 181.5,-100.5 152.5,-100.5"/>
<text text-anchor="middle" x="167" y="-107.5" font-family="Helvetica,sans-Serif" font-size="10.00">ll</text>
</a>
</g>
</g>
<!-- Node3&#45;&gt;Node1 -->
<g id="edge2" class="edge">
<title>Node3&#45;&gt;Node1</title>
<path fill="none" stroke="#9a32cd" stroke-dasharray="5,2" d="M158.01,-91.38C147.2,-70.2 129.5,-35.51 121.36,-19.54"/>
<polygon fill="#9a32cd" stroke="#9a32cd" points="154.9,-92.99 162.56,-100.3 161.14,-89.8 154.9,-92.99"/>
<text text-anchor="middle" x="149.5" y="-63" font-family="Helvetica,sans-Serif" font-size="10.00"> l</text>
<text text-anchor="middle" x="149.5" y="-52" font-family="Helvetica,sans-Serif" font-size="10.00">n</text>
<text text-anchor="middle" x="149.5" y="-41" font-family="Helvetica,sans-Serif" font-size="10.00">r</text>
</g>
</g>
</svg>
