<?xml version="1.0" encoding="UTF-8" standalone="no"?>
<!DOCTYPE svg PUBLIC "-//W3C//DTD SVG 1.1//EN"
 "http://www.w3.org/Graphics/SVG/1.1/DTD/svg11.dtd">
<!-- Generated by graphviz version 2.43.0 (0)
 -->
<!-- Title: convex_hull_trick::CHT Pages: 1 -->
<svg width="204pt" height="229pt"
 viewBox="0.00 0.00 204.00 229.00" xmlns="http://www.w3.org/2000/svg" xmlns:xlink="http://www.w3.org/1999/xlink">
<g id="graph0" class="graph" transform="scale(1 1) rotate(0) translate(4 225)">
<title>convex_hull_trick::CHT</title>
<polygon fill="white" stroke="transparent" points="-4,4 -4,-225 200,-225 200,4 -4,4"/>
<!-- Node1 -->
<g id="node1" class="node">
<title>Node1</title>
<g id="a_node1"><a xlink:title="Convex&#45;hull trick.">
<polygon fill="#bfbfbf" stroke="black" points="12,-0.5 12,-19.5 140,-19.5 140,-0.5 12,-0.5"/>
<text text-anchor="middle" x="76" y="-7.5" font-family="Helvetica,sans-Serif" font-size="10.00">convex_hull_trick::CHT</text>
</a>
</g>
</g>
<!-- Node2 -->
<g id="node2" class="node">
<title>Node2</title>
<g id="a_node2"><a xlink:title=" ">
<polygon fill="white" stroke="#bfbfbf" points="18,-67.5 18,-86.5 134,-86.5 134,-67.5 18,-67.5"/>
<text text-anchor="middle" x="76" y="-74.5" font-family="Helvetica,sans-Serif" font-size="10.00">std::vector&lt; point &gt;</text>
</a>
</g>
</g>
<!-- Node2&#45;&gt;Node1 -->
<g id="edge1" class="edge">
<title>Node2&#45;&gt;Node1</title>
<path fill="none" stroke="#9a32cd" stroke-dasharray="5,2" d="M76,-57.04C76,-44.67 76,-29.12 76,-19.63"/>
<polygon fill="#9a32cd" stroke="#9a32cd" points="72.5,-57.23 76,-67.23 79.5,-57.23 72.5,-57.23"/>
<text text-anchor="middle" x="89.5" y="-41" font-family="Helvetica,sans-Serif" font-size="10.00"> lines</text>
</g>
<!-- Node3 -->
<g id="node3" class="node">
<title>Node3</title>
<g id="a_node3"><a xlink:title="STL class.">
<polygon fill="white" stroke="#bfbfbf" points="0,-134.5 0,-153.5 80,-153.5 80,-134.5 0,-134.5"/>
<text text-anchor="middle" x="40" y="-141.5" font-family="Helvetica,sans-Serif" font-size="10.00">std::complex</text>
</a>
</g>
</g>
<!-- Node3&#45;&gt;Node2 -->
<g id="edge2" class="edge">
<title>Node3&#45;&gt;Node2</title>
<path fill="none" stroke="#9a32cd" stroke-dasharray="5,2" d="M47.8,-125.15C50.79,-118.69 54.37,-111.42 58,-105 61.55,-98.72 66.05,-91.97 69.66,-86.79"/>
<polygon fill="#9a32cd" stroke="#9a32cd" points="44.57,-123.81 43.66,-134.37 50.95,-126.68 44.57,-123.81"/>
<text text-anchor="middle" x="82.5" y="-108" font-family="Helvetica,sans-Serif" font-size="10.00"> elements</text>
</g>
<!-- Node4 -->
<g id="node4" class="node">
<title>Node4</title>
<g id="a_node4"><a xlink:title="STL class.">
<polygon fill="white" stroke="#bfbfbf" points="98.5,-134.5 98.5,-153.5 195.5,-153.5 195.5,-134.5 98.5,-134.5"/>
<text text-anchor="middle" x="147" y="-141.5" font-family="Helvetica,sans-Serif" font-size="10.00">std::vector&lt; T &gt;</text>
</a>
</g>
</g>
<!-- Node4&#45;&gt;Node2 -->
<g id="edge3" class="edge">
<title>Node4&#45;&gt;Node2</title>
<path fill="none" stroke="orange" stroke-dasharray="5,2" d="M130.55,-127.06C123.38,-120.2 114.84,-112.13 107,-105 100.14,-98.76 92.25,-91.89 86.15,-86.65"/>
<polygon fill="orange" stroke="orange" points="128.57,-130.02 138.21,-134.44 133.43,-124.98 128.57,-130.02"/>
<text text-anchor="middle" x="143.5" y="-108" font-family="Helvetica,sans-Serif" font-size="10.00"> &lt; point &gt;</text>
</g>
<!-- Node5 -->
<g id="node5" class="node">
<title>Node5</title>
<g id="a_node5"><a xlink:title=" ">
<polygon fill="white" stroke="#bfbfbf" points="132.5,-201.5 132.5,-220.5 161.5,-220.5 161.5,-201.5 132.5,-201.5"/>
<text text-anchor="middle" x="147" y="-208.5" font-family="Helvetica,sans-Serif" font-size="10.00">T</text>
</a>
</g>
</g>
<!-- Node5&#45;&gt;Node4 -->
<g id="edge4" class="edge">
<title>Node5&#45;&gt;Node4</title>
<path fill="none" stroke="#9a32cd" stroke-dasharray="5,2" d="M147,-191.04C147,-178.67 147,-163.12 147,-153.63"/>
<polygon fill="#9a32cd" stroke="#9a32cd" points="143.5,-191.23 147,-201.23 150.5,-191.23 143.5,-191.23"/>
<text text-anchor="middle" x="171.5" y="-175" font-family="Helvetica,sans-Serif" font-size="10.00"> elements</text>
</g>
</g>
</svg>
