<?xml version="1.0" encoding="UTF-8" standalone="no"?>
<!DOCTYPE svg PUBLIC "-//W3C//DTD SVG 1.1//EN"
 "http://www.w3.org/Graphics/SVG/1.1/DTD/svg11.dtd">
<!-- Generated by graphviz version 2.43.0 (0)
 -->
<!-- Title: dsu_ds::dsu::join Pages: 1 -->
<svg width="240pt" height="84pt"
 viewBox="0.00 0.00 240.00 84.00" xmlns="http://www.w3.org/2000/svg" xmlns:xlink="http://www.w3.org/1999/xlink">
<g id="graph0" class="graph" transform="scale(1 1) rotate(0) translate(4 80)">
<title>dsu_ds::dsu::join</title>
<polygon fill="white" stroke="transparent" points="-4,4 -4,-80 236,-80 236,4 -4,4"/>
<!-- Node1 -->
<g id="node1" class="node">
<title>Node1</title>
<g id="a_node1"><a xlink:title="Joins the set containing x with the set containing y.">
<polygon fill="#bfbfbf" stroke="black" points="0,-19.5 0,-38.5 98,-38.5 98,-19.5 0,-19.5"/>
<text text-anchor="middle" x="49" y="-26.5" font-family="Helvetica,sans-Serif" font-size="10.00">dsu_ds::dsu::join</text>
</a>
</g>
</g>
<!-- Node2 -->
<g id="node2" class="node">
<title>Node2</title>
<g id="a_node2"><a xlink:href="structdsu__ds_1_1dsu.html#a5a58bd229ccd7eac0892b762d178981c" target="_top" xlink:title="Returns the representative element of x.">
<polygon fill="white" stroke="black" points="134,-38.5 134,-57.5 232,-57.5 232,-38.5 134,-38.5"/>
<text text-anchor="middle" x="183" y="-45.5" font-family="Helvetica,sans-Serif" font-size="10.00">dsu_ds::dsu::find</text>
</a>
</g>
</g>
<!-- Node1&#45;&gt;Node2 -->
<g id="edge1" class="edge">
<title>Node1&#45;&gt;Node2</title>
<path fill="none" stroke="midnightblue" d="M98.03,-35.91C106.4,-37.12 115.19,-38.38 123.8,-39.62"/>
<polygon fill="midnightblue" stroke="midnightblue" points="123.39,-43.1 133.79,-41.06 124.39,-36.17 123.39,-43.1"/>
</g>
<!-- Node3 -->
<g id="node3" class="node">
<title>Node3</title>
<g id="a_node3"><a xlink:href="namespaceutility.html#aa72cfb348ae79fd2bdb5ded63cd36ef2" target="_top" xlink:title=" ">
<polygon fill="white" stroke="black" points="142,-0.5 142,-19.5 224,-19.5 224,-0.5 142,-0.5"/>
<text text-anchor="middle" x="183" y="-7.5" font-family="Helvetica,sans-Serif" font-size="10.00">utility::swap2</text>
</a>
</g>
</g>
<!-- Node1&#45;&gt;Node3 -->
<g id="edge3" class="edge">
<title>Node1&#45;&gt;Node3</title>
<path fill="none" stroke="midnightblue" d="M98.03,-22.09C108.98,-20.51 120.64,-18.83 131.68,-17.24"/>
<polygon fill="midnightblue" stroke="midnightblue" points="132.21,-20.7 141.61,-15.81 131.21,-13.77 132.21,-20.7"/>
</g>
<!-- Node2&#45;&gt;Node2 -->
<g id="edge2" class="edge">
<title>Node2&#45;&gt;Node2</title>
<path fill="none" stroke="midnightblue" d="M162.35,-57.76C152.3,-66.57 159.18,-76 183,-76 198.26,-76 206.57,-72.13 207.93,-67.03"/>
<polygon fill="midnightblue" stroke="midnightblue" points="211.02,-65.37 203.65,-57.76 204.66,-68.3 211.02,-65.37"/>
</g>
</g>
</svg>
