<?xml version="1.0" encoding="UTF-8" standalone="no"?>
<!DOCTYPE svg PUBLIC "-//W3C//DTD SVG 1.1//EN"
 "http://www.w3.org/Graphics/SVG/1.1/DTD/svg11.dtd">
<!-- Generated by graphviz version 2.43.0 (0)
 -->
<!-- Title: /home/ram/OmniTemplate/template.hpp Pages: 1 -->
<svg width="1644pt" height="554pt"
 viewBox="0.00 0.00 1643.50 554.00" xmlns="http://www.w3.org/2000/svg" xmlns:xlink="http://www.w3.org/1999/xlink">
<g id="graph0" class="graph" transform="scale(1 1) rotate(0) translate(4 550)">
<title>/home/ram/OmniTemplate/template.hpp</title>
<polygon fill="white" stroke="transparent" points="-4,4 -4,-550 1639.5,-550 1639.5,4 -4,4"/>
<!-- Node1 -->
<g id="node1" class="node">
<title>Node1</title>
<g id="a_node1"><a xlink:title=" ">
<polygon fill="#bfbfbf" stroke="black" points="788.5,-515.5 788.5,-545.5 932.5,-545.5 932.5,-515.5 788.5,-515.5"/>
<text text-anchor="start" x="796.5" y="-533.5" font-family="Helvetica,sans-Serif" font-size="10.00">/home/ram/OmniTemplate</text>
<text text-anchor="middle" x="860.5" y="-522.5" font-family="Helvetica,sans-Serif" font-size="10.00">/template.hpp</text>
</a>
</g>
</g>
<!-- Node2 -->
<g id="node2" class="node">
<title>Node2</title>
<g id="a_node2"><a xlink:href="2sat_8hpp.html" target="_top" xlink:title=" ">
<polygon fill="white" stroke="black" points="361,-459.5 361,-478.5 420,-478.5 420,-459.5 361,-459.5"/>
<text text-anchor="middle" x="390.5" y="-466.5" font-family="Helvetica,sans-Serif" font-size="10.00">2sat.hpp</text>
</a>
</g>
</g>
<!-- Node1&#45;&gt;Node2 -->
<g id="edge1" class="edge">
<title>Node1&#45;&gt;Node2</title>
<path fill="none" stroke="midnightblue" d="M788.26,-522.8C703.32,-514.49 558.21,-498.95 434.5,-479 433.06,-478.77 431.59,-478.52 430.11,-478.26"/>
<polygon fill="midnightblue" stroke="midnightblue" points="430.73,-474.82 420.26,-476.44 429.46,-481.7 430.73,-474.82"/>
</g>
<!-- Node3 -->
<g id="node3" class="node">
<title>Node3</title>
<g id="a_node3"><a xlink:href="core_8hpp.html" target="_top" xlink:title=" ">
<polygon fill="white" stroke="black" points="955,-235.5 955,-254.5 1014,-254.5 1014,-235.5 955,-235.5"/>
<text text-anchor="middle" x="984.5" y="-242.5" font-family="Helvetica,sans-Serif" font-size="10.00">core.hpp</text>
</a>
</g>
</g>
<!-- Node1&#45;&gt;Node3 -->
<g id="edge34" class="edge">
<title>Node1&#45;&gt;Node3</title>
<path fill="none" stroke="midnightblue" d="M932.79,-527.5C1088.69,-522.66 1446.21,-508.45 1492.5,-479 1520.55,-461.16 1529.5,-447.24 1529.5,-414 1529.5,-414 1529.5,-414 1529.5,-356 1529.5,-325.9 1533.79,-310.06 1510.5,-291 1473.14,-260.43 1141.05,-249.7 1024.62,-246.86"/>
<polygon fill="midnightblue" stroke="midnightblue" points="1024.44,-243.35 1014.36,-246.61 1024.27,-250.35 1024.44,-243.35"/>
</g>
<!-- Node11 -->
<g id="node11" class="node">
<title>Node11</title>
<g id="a_node11"><a xlink:href="utility_8hpp.html" target="_top" xlink:title=" ">
<polygon fill="white" stroke="black" points="1491,-174 1491,-193 1556,-193 1556,-174 1491,-174"/>
<text text-anchor="middle" x="1523.5" y="-181" font-family="Helvetica,sans-Serif" font-size="10.00">utility.hpp</text>
</a>
</g>
</g>
<!-- Node1&#45;&gt;Node11 -->
<g id="edge81" class="edge">
<title>Node1&#45;&gt;Node11</title>
<path fill="none" stroke="midnightblue" d="M932.65,-527.08C1100.94,-521.05 1509.53,-504 1566.5,-479 1605.08,-462.07 1635.5,-456.13 1635.5,-414 1635.5,-414 1635.5,-414 1635.5,-300 1635.5,-251.83 1584.66,-216.14 1551.49,-197.98"/>
<polygon fill="midnightblue" stroke="midnightblue" points="1552.73,-194.67 1542.25,-193.12 1549.47,-200.87 1552.73,-194.67"/>
</g>
<!-- Node12 -->
<g id="node12" class="node">
<title>Node12</title>
<g id="a_node12"><a xlink:href="graph__theory_8hpp.html" target="_top" xlink:title=" ">
<polygon fill="white" stroke="black" points="281,-403.5 281,-422.5 382,-422.5 382,-403.5 281,-403.5"/>
<text text-anchor="middle" x="331.5" y="-410.5" font-family="Helvetica,sans-Serif" font-size="10.00">graph_theory.hpp</text>
</a>
</g>
</g>
<!-- Node1&#45;&gt;Node12 -->
<g id="edge42" class="edge">
<title>Node1&#45;&gt;Node12</title>
<path fill="none" stroke="midnightblue" d="M788.45,-526.73C656.07,-521 384.6,-506.08 351.5,-479 337.95,-467.92 333.39,-447.88 331.95,-432.97"/>
<polygon fill="midnightblue" stroke="midnightblue" points="335.43,-432.58 331.36,-422.8 328.44,-432.99 335.43,-432.58"/>
</g>
<!-- Node13 -->
<g id="node13" class="node">
<title>Node13</title>
<g id="a_node13"><a xlink:href="dsu_8hpp.html" target="_top" xlink:title=" ">
<polygon fill="white" stroke="black" points="164,-347.5 164,-366.5 219,-366.5 219,-347.5 164,-347.5"/>
<text text-anchor="middle" x="191.5" y="-354.5" font-family="Helvetica,sans-Serif" font-size="10.00">dsu.hpp</text>
</a>
</g>
</g>
<!-- Node1&#45;&gt;Node13 -->
<g id="edge37" class="edge">
<title>Node1&#45;&gt;Node13</title>
<path fill="none" stroke="midnightblue" d="M788.35,-529.77C655.66,-529.18 378.73,-522.56 294.5,-479 249.32,-455.64 215.8,-403.17 200.57,-375.64"/>
<polygon fill="midnightblue" stroke="midnightblue" points="203.6,-373.89 195.8,-366.72 197.43,-377.19 203.6,-373.89"/>
</g>
<!-- Node14 -->
<g id="node14" class="node">
<title>Node14</title>
<g id="a_node14"><a xlink:href="linear__algebra_8hpp.html" target="_top" xlink:title=" ">
<polygon fill="white" stroke="black" points="237,-347.5 237,-366.5 344,-366.5 344,-347.5 237,-347.5"/>
<text text-anchor="middle" x="290.5" y="-354.5" font-family="Helvetica,sans-Serif" font-size="10.00">linear_algebra.hpp</text>
</a>
</g>
</g>
<!-- Node1&#45;&gt;Node14 -->
<g id="edge48" class="edge">
<title>Node1&#45;&gt;Node14</title>
<path fill="none" stroke="midnightblue" d="M788.1,-528.07C663.46,-524.69 414.07,-513.7 334.5,-479 300.16,-464.03 286.85,-457.18 271.5,-423 264.52,-407.47 271.52,-388.7 278.92,-375.34"/>
<polygon fill="midnightblue" stroke="midnightblue" points="281.98,-377.04 284.18,-366.68 275.99,-373.41 281.98,-377.04"/>
</g>
<!-- Node15 -->
<g id="node15" class="node">
<title>Node15</title>
<g id="a_node15"><a xlink:href="modulo_8hpp.html" target="_top" xlink:title=" ">
<polygon fill="white" stroke="black" points="808.5,-291.5 808.5,-310.5 882.5,-310.5 882.5,-291.5 808.5,-291.5"/>
<text text-anchor="middle" x="845.5" y="-298.5" font-family="Helvetica,sans-Serif" font-size="10.00">modulo.hpp</text>
</a>
</g>
</g>
<!-- Node1&#45;&gt;Node15 -->
<g id="edge57" class="edge">
<title>Node1&#45;&gt;Node15</title>
<path fill="none" stroke="midnightblue" d="M853.73,-515.28C849.36,-505.36 844.04,-491.67 841.5,-479 829.97,-421.45 832.34,-405.47 837.5,-347 838.28,-338.2 839.89,-328.54 841.47,-320.43"/>
<polygon fill="midnightblue" stroke="midnightblue" points="844.91,-321.07 843.51,-310.57 838.06,-319.65 844.91,-321.07"/>
</g>
<!-- Node16 -->
<g id="node16" class="node">
<title>Node16</title>
<g id="a_node16"><a xlink:href="polynomial_8hpp.html" target="_top" xlink:title=" ">
<polygon fill="white" stroke="black" points="214.5,-291.5 214.5,-310.5 306.5,-310.5 306.5,-291.5 214.5,-291.5"/>
<text text-anchor="middle" x="260.5" y="-298.5" font-family="Helvetica,sans-Serif" font-size="10.00">polynomial.hpp</text>
</a>
</g>
</g>
<!-- Node1&#45;&gt;Node16 -->
<g id="edge66" class="edge">
<title>Node1&#45;&gt;Node16</title>
<path fill="none" stroke="midnightblue" d="M788.46,-529.64C650.53,-528.89 354.71,-522.13 263.5,-479 194.72,-446.48 112.51,-410.45 154.5,-347 165.92,-329.74 185.44,-319.08 204.63,-312.51"/>
<polygon fill="midnightblue" stroke="midnightblue" points="205.78,-315.82 214.3,-309.51 203.71,-309.13 205.78,-315.82"/>
</g>
<!-- Node17 -->
<g id="node17" class="node">
<title>Node17</title>
<g id="a_node17"><a xlink:href="big__integer_8hpp.html" target="_top" xlink:title=" ">
<polygon fill="white" stroke="black" points="1409.5,-291.5 1409.5,-310.5 1501.5,-310.5 1501.5,-291.5 1409.5,-291.5"/>
<text text-anchor="middle" x="1455.5" y="-298.5" font-family="Helvetica,sans-Serif" font-size="10.00">big_integer.hpp</text>
</a>
</g>
</g>
<!-- Node1&#45;&gt;Node17 -->
<g id="edge27" class="edge">
<title>Node1&#45;&gt;Node17</title>
<path fill="none" stroke="midnightblue" d="M932.55,-528.9C1086.32,-526.86 1435.63,-517.95 1471.5,-479 1512.21,-434.79 1481.71,-355.39 1464.79,-319.94"/>
<polygon fill="midnightblue" stroke="midnightblue" points="1467.84,-318.21 1460.26,-310.81 1461.57,-321.32 1467.84,-318.21"/>
</g>
<!-- Node18 -->
<g id="node18" class="node">
<title>Node18</title>
<g id="a_node18"><a xlink:href="bit_8hpp.html" target="_top" xlink:title=" ">
<polygon fill="white" stroke="black" points="1557.5,-291.5 1557.5,-310.5 1607.5,-310.5 1607.5,-291.5 1557.5,-291.5"/>
<text text-anchor="middle" x="1582.5" y="-298.5" font-family="Helvetica,sans-Serif" font-size="10.00">bit.hpp</text>
</a>
</g>
</g>
<!-- Node1&#45;&gt;Node18 -->
<g id="edge29" class="edge">
<title>Node1&#45;&gt;Node18</title>
<path fill="none" stroke="midnightblue" d="M932.79,-528.95C1099.1,-527.03 1498.12,-518.31 1543.5,-479 1589.64,-439.03 1588.25,-357.99 1584.86,-321.08"/>
<polygon fill="midnightblue" stroke="midnightblue" points="1588.3,-320.33 1583.75,-310.76 1581.34,-321.07 1588.3,-320.33"/>
</g>
<!-- Node19 -->
<g id="node19" class="node">
<title>Node19</title>
<g id="a_node19"><a xlink:href="combinatorics_8hpp.html" target="_top" xlink:title=" ">
<polygon fill="white" stroke="black" points="0,-403.5 0,-422.5 107,-422.5 107,-403.5 0,-403.5"/>
<text text-anchor="middle" x="53.5" y="-410.5" font-family="Helvetica,sans-Serif" font-size="10.00">combinatorics.hpp</text>
</a>
</g>
</g>
<!-- Node1&#45;&gt;Node19 -->
<g id="edge32" class="edge">
<title>Node1&#45;&gt;Node19</title>
<path fill="none" stroke="midnightblue" d="M788.2,-527.35C614.09,-521.78 181.43,-505.44 121.5,-479 98.02,-468.64 77.74,-446.5 65.58,-430.95"/>
<polygon fill="midnightblue" stroke="midnightblue" points="68.2,-428.6 59.4,-422.7 62.59,-432.8 68.2,-428.6"/>
</g>
<!-- Node20 -->
<g id="node20" class="node">
<title>Node20</title>
<g id="a_node20"><a xlink:href="coroutine_8hpp.html" target="_top" xlink:title=" ">
<polygon fill="white" stroke="black" points="439,-347.5 439,-366.5 522,-366.5 522,-347.5 439,-347.5"/>
<text text-anchor="middle" x="480.5" y="-354.5" font-family="Helvetica,sans-Serif" font-size="10.00">coroutine.hpp</text>
</a>
</g>
</g>
<!-- Node1&#45;&gt;Node20 -->
<g id="edge35" class="edge">
<title>Node1&#45;&gt;Node20</title>
<path fill="none" stroke="midnightblue" d="M788.41,-525.19C681.95,-518.08 492.98,-502.32 472.5,-479 447.47,-450.5 461.63,-402.18 472.22,-376.06"/>
<polygon fill="midnightblue" stroke="midnightblue" points="475.54,-377.2 476.28,-366.63 469.11,-374.43 475.54,-377.2"/>
</g>
<!-- Node21 -->
<g id="node21" class="node">
<title>Node21</title>
<g id="a_node21"><a xlink:href="fft_8hpp.html" target="_top" xlink:title=" ">
<polygon fill="white" stroke="black" points="511,-291.5 511,-310.5 560,-310.5 560,-291.5 511,-291.5"/>
<text text-anchor="middle" x="535.5" y="-298.5" font-family="Helvetica,sans-Serif" font-size="10.00">fft.hpp</text>
</a>
</g>
</g>
<!-- Node1&#45;&gt;Node21 -->
<g id="edge38" class="edge">
<title>Node1&#45;&gt;Node21</title>
<path fill="none" stroke="midnightblue" d="M788.44,-522.65C712.38,-514.51 598.23,-499.41 559.5,-479 528.91,-462.88 518.44,-455.06 505.5,-423 495.3,-397.72 521.36,-392.68 530.5,-367 535.78,-352.16 536.8,-334.23 536.63,-320.97"/>
<polygon fill="midnightblue" stroke="midnightblue" points="540.11,-320.57 536.25,-310.71 533.12,-320.83 540.11,-320.57"/>
</g>
<!-- Node22 -->
<g id="node22" class="node">
<title>Node22</title>
<g id="a_node22"><a xlink:href="geometry_8hpp.html" target="_top" xlink:title=" ">
<polygon fill="white" stroke="black" points="515,-403.5 515,-422.5 598,-422.5 598,-403.5 515,-403.5"/>
<text text-anchor="middle" x="556.5" y="-410.5" font-family="Helvetica,sans-Serif" font-size="10.00">geometry.hpp</text>
</a>
</g>
</g>
<!-- Node1&#45;&gt;Node22 -->
<g id="edge40" class="edge">
<title>Node1&#45;&gt;Node22</title>
<path fill="none" stroke="midnightblue" d="M788.42,-525.28C714.52,-519.49 606.18,-506.51 575.5,-479 562.52,-467.37 558.21,-447.42 556.87,-432.68"/>
<polygon fill="midnightblue" stroke="midnightblue" points="560.36,-432.45 556.33,-422.65 553.37,-432.82 560.36,-432.45"/>
</g>
<!-- Node23 -->
<g id="node23" class="node">
<title>Node23</title>
<g id="a_node23"><a xlink:href="hld_8hpp.html" target="_top" xlink:title=" ">
<polygon fill="white" stroke="black" points="585,-459.5 585,-478.5 638,-478.5 638,-459.5 585,-459.5"/>
<text text-anchor="middle" x="611.5" y="-466.5" font-family="Helvetica,sans-Serif" font-size="10.00">hld.hpp</text>
</a>
</g>
</g>
<!-- Node1&#45;&gt;Node23 -->
<g id="edge43" class="edge">
<title>Node1&#45;&gt;Node23</title>
<path fill="none" stroke="midnightblue" d="M801.81,-515.47C754.19,-504.1 688.55,-488.41 648.13,-478.75"/>
<polygon fill="midnightblue" stroke="midnightblue" points="648.71,-475.29 638.17,-476.37 647.09,-482.1 648.71,-475.29"/>
</g>
<!-- Node24 -->
<g id="node24" class="node">
<title>Node24</title>
<g id="a_node24"><a xlink:href="sparse__table_8hpp.html" target="_top" xlink:title=" ">
<polygon fill="white" stroke="black" points="692.5,-403.5 692.5,-422.5 792.5,-422.5 792.5,-403.5 692.5,-403.5"/>
<text text-anchor="middle" x="742.5" y="-410.5" font-family="Helvetica,sans-Serif" font-size="10.00">sparse_table.hpp</text>
</a>
</g>
</g>
<!-- Node1&#45;&gt;Node24 -->
<g id="edge72" class="edge">
<title>Node1&#45;&gt;Node24</title>
<path fill="none" stroke="midnightblue" d="M827.61,-515.46C810.44,-506.87 790.04,-494.54 775.5,-479 762.96,-465.6 754.04,-446.52 748.66,-432.5"/>
<polygon fill="midnightblue" stroke="midnightblue" points="751.9,-431.17 745.23,-422.94 745.31,-433.53 751.9,-431.17"/>
</g>
<!-- Node25 -->
<g id="node25" class="node">
<title>Node25</title>
<g id="a_node25"><a xlink:href="link__cut_8hpp.html" target="_top" xlink:title=" ">
<polygon fill="white" stroke="black" points="855.5,-459.5 855.5,-478.5 931.5,-478.5 931.5,-459.5 855.5,-459.5"/>
<text text-anchor="middle" x="893.5" y="-466.5" font-family="Helvetica,sans-Serif" font-size="10.00">link_cut.hpp</text>
</a>
</g>
</g>
<!-- Node1&#45;&gt;Node25 -->
<g id="edge49" class="edge">
<title>Node1&#45;&gt;Node25</title>
<path fill="none" stroke="midnightblue" d="M868.32,-515.4C872.97,-507.02 878.9,-496.33 883.84,-487.42"/>
<polygon fill="midnightblue" stroke="midnightblue" points="886.91,-489.1 888.7,-478.66 880.79,-485.71 886.91,-489.1"/>
</g>
<!-- Node26 -->
<g id="node26" class="node">
<title>Node26</title>
<g id="a_node26"><a xlink:href="splay__tree_8hpp.html" target="_top" xlink:title=" ">
<polygon fill="white" stroke="black" points="925,-403.5 925,-422.5 1014,-422.5 1014,-403.5 925,-403.5"/>
<text text-anchor="middle" x="969.5" y="-410.5" font-family="Helvetica,sans-Serif" font-size="10.00">splay_tree.hpp</text>
</a>
</g>
</g>
<!-- Node1&#45;&gt;Node26 -->
<g id="edge73" class="edge">
<title>Node1&#45;&gt;Node26</title>
<path fill="none" stroke="midnightblue" d="M891.74,-515.35C907.98,-506.73 927.17,-494.4 940.5,-479 952.12,-465.59 959.83,-446.77 964.36,-432.83"/>
<polygon fill="midnightblue" stroke="midnightblue" points="967.82,-433.48 967.32,-422.89 961.11,-431.47 967.82,-433.48"/>
</g>
<!-- Node27 -->
<g id="node27" class="node">
<title>Node27</title>
<g id="a_node27"><a xlink:href="main_8hpp.html" target="_top" xlink:title=" ">
<polygon fill="white" stroke="black" points="987.5,-459.5 987.5,-478.5 1049.5,-478.5 1049.5,-459.5 987.5,-459.5"/>
<text text-anchor="middle" x="1018.5" y="-466.5" font-family="Helvetica,sans-Serif" font-size="10.00">main.hpp</text>
</a>
</g>
</g>
<!-- Node1&#45;&gt;Node27 -->
<g id="edge53" class="edge">
<title>Node1&#45;&gt;Node27</title>
<path fill="none" stroke="midnightblue" d="M897.94,-515.4C924.69,-505.33 960.32,-491.91 985.9,-482.28"/>
<polygon fill="midnightblue" stroke="midnightblue" points="987.38,-485.46 995.51,-478.66 984.92,-478.91 987.38,-485.46"/>
</g>
<!-- Node28 -->
<g id="node28" class="node">
<title>Node28</title>
<g id="a_node28"><a xlink:href="time_8hpp.html" target="_top" xlink:title=" ">
<polygon fill="white" stroke="black" points="1070.5,-403.5 1070.5,-422.5 1130.5,-422.5 1130.5,-403.5 1070.5,-403.5"/>
<text text-anchor="middle" x="1100.5" y="-410.5" font-family="Helvetica,sans-Serif" font-size="10.00">time.hpp</text>
</a>
</g>
</g>
<!-- Node1&#45;&gt;Node28 -->
<g id="edge76" class="edge">
<title>Node1&#45;&gt;Node28</title>
<path fill="none" stroke="midnightblue" d="M932.8,-523.99C972.91,-517.94 1021.92,-505.3 1058.5,-479 1074.83,-467.26 1086.42,-447.03 1093.23,-432.25"/>
<polygon fill="midnightblue" stroke="midnightblue" points="1096.62,-433.22 1097.35,-422.65 1090.19,-430.46 1096.62,-433.22"/>
</g>
<!-- Node29 -->
<g id="node29" class="node">
<title>Node29</title>
<g id="a_node29"><a xlink:href="number__theory_8hpp.html" target="_top" xlink:title=" ">
<polygon fill="white" stroke="black" points="846.5,-347.5 846.5,-366.5 956.5,-366.5 956.5,-347.5 846.5,-347.5"/>
<text text-anchor="middle" x="901.5" y="-354.5" font-family="Helvetica,sans-Serif" font-size="10.00">number_theory.hpp</text>
</a>
</g>
</g>
<!-- Node1&#45;&gt;Node29 -->
<g id="edge58" class="edge">
<title>Node1&#45;&gt;Node29</title>
<path fill="none" stroke="midnightblue" d="M853.99,-515.36C848.27,-501.05 841.57,-478.35 846.5,-459 854.67,-426.91 875.34,-394 888.88,-374.81"/>
<polygon fill="midnightblue" stroke="midnightblue" points="891.84,-376.7 894.87,-366.56 886.17,-372.59 891.84,-376.7"/>
</g>
<!-- Node30 -->
<g id="node30" class="node">
<title>Node30</title>
<g id="a_node30"><a xlink:href="permutation_8hpp.html" target="_top" xlink:title=" ">
<polygon fill="white" stroke="black" points="654.5,-347.5 654.5,-366.5 752.5,-366.5 752.5,-347.5 654.5,-347.5"/>
<text text-anchor="middle" x="703.5" y="-354.5" font-family="Helvetica,sans-Serif" font-size="10.00">permutation.hpp</text>
</a>
</g>
</g>
<!-- Node1&#45;&gt;Node30 -->
<g id="edge61" class="edge">
<title>Node1&#45;&gt;Node30</title>
<path fill="none" stroke="midnightblue" d="M809.54,-515.47C766.51,-500.51 708.09,-472.05 683.5,-423 675.84,-407.71 683.25,-388.92 691.13,-375.48"/>
<polygon fill="midnightblue" stroke="midnightblue" points="694.27,-377.06 696.74,-366.76 688.38,-373.27 694.27,-377.06"/>
</g>
<!-- Node31 -->
<g id="node31" class="node">
<title>Node31</title>
<g id="a_node31"><a xlink:href="persistent_8hpp.html" target="_top" xlink:title=" ">
<polygon fill="white" stroke="black" points="1164.5,-347.5 1164.5,-366.5 1250.5,-366.5 1250.5,-347.5 1164.5,-347.5"/>
<text text-anchor="middle" x="1207.5" y="-354.5" font-family="Helvetica,sans-Serif" font-size="10.00">persistent.hpp</text>
</a>
</g>
</g>
<!-- Node1&#45;&gt;Node31 -->
<g id="edge64" class="edge">
<title>Node1&#45;&gt;Node31</title>
<path fill="none" stroke="midnightblue" d="M932.72,-530.04C1026.66,-529.02 1183.11,-520.86 1219.5,-479 1244.56,-450.17 1228.19,-401.63 1216.45,-375.66"/>
<polygon fill="midnightblue" stroke="midnightblue" points="1219.59,-374.12 1212.12,-366.6 1213.27,-377.14 1219.59,-374.12"/>
</g>
<!-- Node32 -->
<g id="node32" class="node">
<title>Node32</title>
<g id="a_node32"><a xlink:href="queue_8hpp.html" target="_top" xlink:title=" ">
<polygon fill="white" stroke="black" points="1208.5,-291.5 1208.5,-310.5 1276.5,-310.5 1276.5,-291.5 1208.5,-291.5"/>
<text text-anchor="middle" x="1242.5" y="-298.5" font-family="Helvetica,sans-Serif" font-size="10.00">queue.hpp</text>
</a>
</g>
</g>
<!-- Node1&#45;&gt;Node32 -->
<g id="edge67" class="edge">
<title>Node1&#45;&gt;Node32</title>
<path fill="none" stroke="midnightblue" d="M932.72,-529.67C1030.26,-528.3 1196.81,-519.84 1239.5,-479 1282.37,-437.98 1270.16,-405.37 1259.5,-347 1257.81,-337.76 1254.33,-327.95 1250.95,-319.85"/>
<polygon fill="midnightblue" stroke="midnightblue" points="1254.13,-318.4 1246.87,-310.69 1247.74,-321.25 1254.13,-318.4"/>
</g>
<!-- Node33 -->
<g id="node33" class="node">
<title>Node33</title>
<g id="a_node33"><a xlink:href="segment__tree_8hpp.html" target="_top" xlink:title=" ">
<polygon fill="white" stroke="black" points="1106,-459.5 1106,-478.5 1211,-478.5 1211,-459.5 1106,-459.5"/>
<text text-anchor="middle" x="1158.5" y="-466.5" font-family="Helvetica,sans-Serif" font-size="10.00">segment_tree.hpp</text>
</a>
</g>
</g>
<!-- Node1&#45;&gt;Node33 -->
<g id="edge69" class="edge">
<title>Node1&#45;&gt;Node33</title>
<path fill="none" stroke="midnightblue" d="M930.74,-515.47C984.4,-504.76 1057.18,-490.23 1105.88,-480.51"/>
<polygon fill="midnightblue" stroke="midnightblue" points="1106.78,-483.9 1115.9,-478.51 1105.4,-477.03 1106.78,-483.9"/>
</g>
<!-- Node34 -->
<g id="node34" class="node">
<title>Node34</title>
<g id="a_node34"><a xlink:href="string_8hpp.html" target="_top" xlink:title=" ">
<polygon fill="white" stroke="black" points="1305,-403.5 1305,-422.5 1370,-422.5 1370,-403.5 1305,-403.5"/>
<text text-anchor="middle" x="1337.5" y="-410.5" font-family="Helvetica,sans-Serif" font-size="10.00">string.hpp</text>
</a>
</g>
</g>
<!-- Node1&#45;&gt;Node34 -->
<g id="edge74" class="edge">
<title>Node1&#45;&gt;Node34</title>
<path fill="none" stroke="midnightblue" d="M932.5,-528.07C1039.05,-524.79 1232.47,-514.05 1291.5,-479 1309.66,-468.22 1322.52,-447.16 1329.95,-431.93"/>
<polygon fill="midnightblue" stroke="midnightblue" points="1333.28,-433.07 1334.22,-422.51 1326.9,-430.18 1333.28,-433.07"/>
</g>
<!-- Node35 -->
<g id="node35" class="node">
<title>Node35</title>
<g id="a_node35"><a xlink:href="treap_8hpp.html" target="_top" xlink:title=" ">
<polygon fill="white" stroke="black" points="1345,-347.5 1345,-366.5 1408,-366.5 1408,-347.5 1345,-347.5"/>
<text text-anchor="middle" x="1376.5" y="-354.5" font-family="Helvetica,sans-Serif" font-size="10.00">treap.hpp</text>
</a>
</g>
</g>
<!-- Node1&#45;&gt;Node35 -->
<g id="edge77" class="edge">
<title>Node1&#45;&gt;Node35</title>
<path fill="none" stroke="midnightblue" d="M932.56,-526.89C1043.33,-521.99 1249.66,-509.04 1316.5,-479 1350.37,-463.78 1363.42,-456.93 1378.5,-423 1384.95,-408.49 1383.71,-390.31 1381.28,-376.87"/>
<polygon fill="midnightblue" stroke="midnightblue" points="1384.65,-375.9 1379.11,-366.87 1377.81,-377.39 1384.65,-375.9"/>
</g>
<!-- Node36 -->
<g id="node36" class="node">
<title>Node36</title>
<g id="a_node36"><a xlink:href="tree_8hpp.html" target="_top" xlink:title=" ">
<polygon fill="white" stroke="black" points="1406,-459.5 1406,-478.5 1463,-478.5 1463,-459.5 1406,-459.5"/>
<text text-anchor="middle" x="1434.5" y="-466.5" font-family="Helvetica,sans-Serif" font-size="10.00">tree.hpp</text>
</a>
</g>
</g>
<!-- Node1&#45;&gt;Node36 -->
<g id="edge79" class="edge">
<title>Node1&#45;&gt;Node36</title>
<path fill="none" stroke="midnightblue" d="M932.53,-525.21C1034.93,-518.52 1228.3,-503.76 1391.5,-479 1392.96,-478.78 1394.45,-478.54 1395.95,-478.29"/>
<polygon fill="midnightblue" stroke="midnightblue" points="1396.7,-481.71 1405.9,-476.45 1395.43,-474.82 1396.7,-481.71"/>
</g>
<!-- Node2&#45;&gt;Node3 -->
<g id="edge2" class="edge">
<title>Node2&#45;&gt;Node3</title>
<path fill="none" stroke="midnightblue" d="M391.63,-459.18C396.17,-428.02 416.26,-323.3 484.5,-291 565.8,-252.52 841.05,-246.84 944.64,-246.08"/>
<polygon fill="midnightblue" stroke="midnightblue" points="944.71,-249.58 954.69,-246.02 944.67,-242.58 944.71,-249.58"/>
</g>
<!-- Node2&#45;&gt;Node12 -->
<g id="edge17" class="edge">
<title>Node2&#45;&gt;Node12</title>
<path fill="none" stroke="midnightblue" d="M381.02,-459.32C372.3,-451.34 359.16,-439.31 348.6,-429.65"/>
<polygon fill="midnightblue" stroke="midnightblue" points="350.89,-427 341.15,-422.83 346.17,-432.17 350.89,-427"/>
</g>
<!-- Node4 -->
<g id="node4" class="node">
<title>Node4</title>
<g id="a_node4"><a xlink:title=" ">
<polygon fill="white" stroke="#bfbfbf" points="1065,-174 1065,-193 1148,-193 1148,-174 1065,-174"/>
<text text-anchor="middle" x="1106.5" y="-181" font-family="Helvetica,sans-Serif" font-size="10.00">bits/stdc++.h</text>
</a>
</g>
</g>
<!-- Node3&#45;&gt;Node4 -->
<g id="edge3" class="edge">
<title>Node3&#45;&gt;Node4</title>
<path fill="none" stroke="midnightblue" d="M1001.98,-235.48C1022.36,-225.53 1056.28,-208.99 1079.92,-197.46"/>
<polygon fill="midnightblue" stroke="midnightblue" points="1081.6,-200.54 1089.05,-193.01 1078.53,-194.25 1081.6,-200.54"/>
</g>
<!-- Node5 -->
<g id="node5" class="node">
<title>Node5</title>
<g id="a_node5"><a xlink:title=" ">
<polygon fill="white" stroke="#bfbfbf" points="1166,-174 1166,-193 1287,-193 1287,-174 1166,-174"/>
<text text-anchor="middle" x="1226.5" y="-181" font-family="Helvetica,sans-Serif" font-size="10.00">experimental/iterator</text>
</a>
</g>
</g>
<!-- Node3&#45;&gt;Node5 -->
<g id="edge4" class="edge">
<title>Node3&#45;&gt;Node5</title>
<path fill="none" stroke="midnightblue" d="M1014.17,-236.7C1056.12,-226.39 1133.08,-207.47 1181.92,-195.46"/>
<polygon fill="midnightblue" stroke="midnightblue" points="1183.02,-198.8 1191.89,-193.01 1181.35,-192 1183.02,-198.8"/>
</g>
<!-- Node6 -->
<g id="node6" class="node">
<title>Node6</title>
<g id="a_node6"><a xlink:title=" ">
<polygon fill="white" stroke="#bfbfbf" points="1305,-168.5 1305,-198.5 1422,-198.5 1422,-168.5 1305,-168.5"/>
<text text-anchor="start" x="1313" y="-186.5" font-family="Helvetica,sans-Serif" font-size="10.00">experimental/source</text>
<text text-anchor="middle" x="1363.5" y="-175.5" font-family="Helvetica,sans-Serif" font-size="10.00">_location</text>
</a>
</g>
</g>
<!-- Node3&#45;&gt;Node6 -->
<g id="edge5" class="edge">
<title>Node3&#45;&gt;Node6</title>
<path fill="none" stroke="midnightblue" d="M1014.19,-240.37C1068.02,-233.65 1185.51,-218.32 1295.05,-199"/>
<polygon fill="midnightblue" stroke="midnightblue" points="1295.71,-202.44 1304.94,-197.24 1294.48,-195.55 1295.71,-202.44"/>
</g>
<!-- Node7 -->
<g id="node7" class="node">
<title>Node7</title>
<g id="a_node7"><a xlink:href="io_8hpp.html" target="_top" xlink:title=" ">
<polygon fill="white" stroke="black" points="961,-174 961,-193 1008,-193 1008,-174 961,-174"/>
<text text-anchor="middle" x="984.5" y="-181" font-family="Helvetica,sans-Serif" font-size="10.00">io.hpp</text>
</a>
</g>
</g>
<!-- Node3&#45;&gt;Node7 -->
<g id="edge6" class="edge">
<title>Node3&#45;&gt;Node7</title>
<path fill="none" stroke="midnightblue" d="M984.5,-235.48C984.5,-227.08 984.5,-213.98 984.5,-203.16"/>
<polygon fill="midnightblue" stroke="midnightblue" points="988,-203.01 984.5,-193.01 981,-203.01 988,-203.01"/>
</g>
<!-- Node8 -->
<g id="node8" class="node">
<title>Node8</title>
<g id="a_node8"><a xlink:href="debug_8hpp.html" target="_top" xlink:title=" ">
<polygon fill="white" stroke="black" points="931.5,-112.5 931.5,-131.5 999.5,-131.5 999.5,-112.5 931.5,-112.5"/>
<text text-anchor="middle" x="965.5" y="-119.5" font-family="Helvetica,sans-Serif" font-size="10.00">debug.hpp</text>
</a>
</g>
</g>
<!-- Node3&#45;&gt;Node8 -->
<g id="edge12" class="edge">
<title>Node3&#45;&gt;Node8</title>
<path fill="none" stroke="midnightblue" d="M975.48,-235.34C967.43,-226.93 956.2,-213.36 951.5,-199 945.19,-179.73 951.21,-156.73 957.2,-141.11"/>
<polygon fill="midnightblue" stroke="midnightblue" points="960.54,-142.19 961.19,-131.62 954.09,-139.48 960.54,-142.19"/>
</g>
<!-- Node9 -->
<g id="node9" class="node">
<title>Node9</title>
<g id="a_node9"><a xlink:href="operations_8hpp.html" target="_top" xlink:title=" ">
<polygon fill="white" stroke="black" points="976,-56.5 976,-75.5 1065,-75.5 1065,-56.5 976,-56.5"/>
<text text-anchor="middle" x="1020.5" y="-63.5" font-family="Helvetica,sans-Serif" font-size="10.00">operations.hpp</text>
</a>
</g>
</g>
<!-- Node3&#45;&gt;Node9 -->
<g id="edge13" class="edge">
<title>Node3&#45;&gt;Node9</title>
<path fill="none" stroke="midnightblue" d="M993.15,-235.25C1000.9,-226.78 1011.74,-213.18 1016.5,-199 1029.48,-160.38 1026.37,-111.77 1023.25,-85.65"/>
<polygon fill="midnightblue" stroke="midnightblue" points="1026.7,-85.09 1021.92,-75.64 1019.77,-86.01 1026.7,-85.09"/>
</g>
<!-- Node10 -->
<g id="node10" class="node">
<title>Node10</title>
<g id="a_node10"><a xlink:href="range_8hpp.html" target="_top" xlink:title=" ">
<polygon fill="white" stroke="black" points="915,-0.5 915,-19.5 980,-19.5 980,-0.5 915,-0.5"/>
<text text-anchor="middle" x="947.5" y="-7.5" font-family="Helvetica,sans-Serif" font-size="10.00">range.hpp</text>
</a>
</g>
</g>
<!-- Node3&#45;&gt;Node10 -->
<g id="edge14" class="edge">
<title>Node3&#45;&gt;Node10</title>
<path fill="none" stroke="midnightblue" d="M968.43,-235.49C957.6,-226.98 944.65,-213.16 936.5,-199 920.79,-171.72 918.68,-163.05 913.5,-132 907.32,-94.97 921.27,-52.03 933.59,-28.55"/>
<polygon fill="midnightblue" stroke="midnightblue" points="936.71,-30.17 938.71,-19.76 930.66,-26.64 936.71,-30.17"/>
</g>
<!-- Node3&#45;&gt;Node11 -->
<g id="edge15" class="edge">
<title>Node3&#45;&gt;Node11</title>
<path fill="none" stroke="midnightblue" d="M1014.05,-241.58C1085.64,-235.58 1274,-219.08 1430.5,-199 1446.99,-196.88 1465.05,-194.16 1480.84,-191.65"/>
<polygon fill="midnightblue" stroke="midnightblue" points="1481.54,-195.08 1490.85,-190.03 1480.42,-188.17 1481.54,-195.08"/>
</g>
<!-- Node7&#45;&gt;Node8 -->
<g id="edge7" class="edge">
<title>Node7&#45;&gt;Node8</title>
<path fill="none" stroke="midnightblue" d="M981.78,-173.98C979.07,-165.49 974.83,-152.2 971.35,-141.32"/>
<polygon fill="midnightblue" stroke="midnightblue" points="974.59,-139.97 968.22,-131.51 967.93,-142.1 974.59,-139.97"/>
</g>
<!-- Node8&#45;&gt;Node9 -->
<g id="edge8" class="edge">
<title>Node8&#45;&gt;Node9</title>
<path fill="none" stroke="midnightblue" d="M974.58,-112.08C982.67,-104.14 994.7,-92.34 1004.41,-82.8"/>
<polygon fill="midnightblue" stroke="midnightblue" points="1006.9,-85.25 1011.59,-75.75 1002,-80.26 1006.9,-85.25"/>
</g>
<!-- Node8&#45;&gt;Node10 -->
<g id="edge11" class="edge">
<title>Node8&#45;&gt;Node10</title>
<path fill="none" stroke="midnightblue" d="M964.09,-112.37C961.18,-94.62 954.48,-53.67 950.54,-29.6"/>
<polygon fill="midnightblue" stroke="midnightblue" points="953.97,-28.89 948.91,-19.59 947.07,-30.03 953.97,-28.89"/>
</g>
<!-- Node9&#45;&gt;Node10 -->
<g id="edge9" class="edge">
<title>Node9&#45;&gt;Node10</title>
<path fill="none" stroke="midnightblue" d="M1008.77,-56.32C997.66,-48.11 980.76,-35.6 967.52,-25.81"/>
<polygon fill="midnightblue" stroke="midnightblue" points="969.56,-22.97 959.44,-19.83 965.4,-28.59 969.56,-22.97"/>
</g>
<!-- Node10&#45;&gt;Node3 -->
<g id="edge10" class="edge">
<title>Node10&#45;&gt;Node3</title>
<path fill="none" stroke="midnightblue" d="M948.13,-19.76C943.67,-39.63 924.44,-89.68 931.5,-132 936.68,-163.05 938.79,-171.72 954.5,-199 960.49,-209.4 969.06,-219.61 975.8,-227.68"/>
<polygon fill="midnightblue" stroke="midnightblue" points="973.15,-229.97 982.2,-235.49 978.57,-225.53 973.15,-229.97"/>
</g>
<!-- Node11&#45;&gt;Node10 -->
<g id="edge16" class="edge">
<title>Node11&#45;&gt;Node10</title>
<path fill="none" stroke="midnightblue" d="M1494.94,-174C1399.94,-145.71 1094.49,-54.76 986.1,-22.49"/>
<polygon fill="midnightblue" stroke="midnightblue" points="986.82,-19.06 976.24,-19.56 984.82,-25.76 986.82,-19.06"/>
</g>
<!-- Node12&#45;&gt;Node3 -->
<g id="edge18" class="edge">
<title>Node12&#45;&gt;Node3</title>
<path fill="none" stroke="midnightblue" d="M335.48,-403.49C347.93,-377.09 385.86,-297.93 396.5,-291 442.25,-261.21 819.91,-249.82 944.67,-246.85"/>
<polygon fill="midnightblue" stroke="midnightblue" points="945,-250.35 954.92,-246.61 944.84,-243.35 945,-250.35"/>
</g>
<!-- Node12&#45;&gt;Node13 -->
<g id="edge19" class="edge">
<title>Node12&#45;&gt;Node13</title>
<path fill="none" stroke="midnightblue" d="M309.32,-403.44C286.07,-394.48 249.35,-380.31 223.08,-370.18"/>
<polygon fill="midnightblue" stroke="midnightblue" points="224.17,-366.85 213.58,-366.52 221.65,-373.38 224.17,-366.85"/>
</g>
<!-- Node12&#45;&gt;Node14 -->
<g id="edge21" class="edge">
<title>Node12&#45;&gt;Node14</title>
<path fill="none" stroke="midnightblue" d="M324.73,-403.08C318.94,-395.46 310.44,-384.26 303.36,-374.94"/>
<polygon fill="midnightblue" stroke="midnightblue" points="305.98,-372.6 297.14,-366.75 300.4,-376.83 305.98,-372.6"/>
</g>
<!-- Node13&#45;&gt;Node3 -->
<g id="edge20" class="edge">
<title>Node13&#45;&gt;Node3</title>
<path fill="none" stroke="midnightblue" d="M190.41,-347.21C189.19,-332.95 189.19,-304.97 205.5,-291 261.9,-242.7 793.03,-244.13 944.41,-245.53"/>
<polygon fill="midnightblue" stroke="midnightblue" points="944.61,-249.03 954.64,-245.63 944.68,-242.03 944.61,-249.03"/>
</g>
<!-- Node14&#45;&gt;Node3 -->
<g id="edge22" class="edge">
<title>Node14&#45;&gt;Node3</title>
<path fill="none" stroke="midnightblue" d="M296.4,-347.31C306.92,-332.67 330.43,-303.44 358.5,-291 464.02,-244.22 823.61,-244.05 944.49,-245.38"/>
<polygon fill="midnightblue" stroke="midnightblue" points="944.73,-248.88 954.77,-245.5 944.81,-241.88 944.73,-248.88"/>
</g>
<!-- Node14&#45;&gt;Node15 -->
<g id="edge23" class="edge">
<title>Node14&#45;&gt;Node15</title>
<path fill="none" stroke="midnightblue" d="M344.22,-350.77C452.58,-340.23 695.73,-316.57 798.36,-306.59"/>
<polygon fill="midnightblue" stroke="midnightblue" points="798.82,-310.06 808.43,-305.61 798.14,-303.09 798.82,-310.06"/>
</g>
<!-- Node14&#45;&gt;Node16 -->
<g id="edge25" class="edge">
<title>Node14&#45;&gt;Node16</title>
<path fill="none" stroke="midnightblue" d="M285.55,-347.08C281.4,-339.61 275.35,-328.72 270.23,-319.52"/>
<polygon fill="midnightblue" stroke="midnightblue" points="273.28,-317.79 265.36,-310.75 267.16,-321.19 273.28,-317.79"/>
</g>
<!-- Node15&#45;&gt;Node3 -->
<g id="edge24" class="edge">
<title>Node15&#45;&gt;Node3</title>
<path fill="none" stroke="midnightblue" d="M867.52,-291.44C890.6,-282.48 927.06,-268.31 953.14,-258.18"/>
<polygon fill="midnightblue" stroke="midnightblue" points="954.52,-261.4 962.58,-254.52 951.99,-254.88 954.52,-261.4"/>
</g>
<!-- Node16&#45;&gt;Node3 -->
<g id="edge26" class="edge">
<title>Node16&#45;&gt;Node3</title>
<path fill="none" stroke="midnightblue" d="M306.64,-292.69C311.31,-292.07 316,-291.49 320.5,-291 556.52,-265.34 841.44,-251.88 944.7,-247.57"/>
<polygon fill="midnightblue" stroke="midnightblue" points="945.13,-251.05 954.97,-247.14 944.84,-244.06 945.13,-251.05"/>
</g>
<!-- Node17&#45;&gt;Node3 -->
<g id="edge28" class="edge">
<title>Node17&#45;&gt;Node3</title>
<path fill="none" stroke="midnightblue" d="M1409.34,-292.89C1404.67,-292.22 1399.99,-291.58 1395.5,-291 1259.64,-273.38 1097.9,-257.02 1024.4,-249.84"/>
<polygon fill="midnightblue" stroke="midnightblue" points="1024.5,-246.33 1014.2,-248.84 1023.82,-253.3 1024.5,-246.33"/>
</g>
<!-- Node18&#45;&gt;Node3 -->
<g id="edge30" class="edge">
<title>Node18&#45;&gt;Node3</title>
<path fill="none" stroke="midnightblue" d="M1557.43,-293.65C1552.82,-292.64 1548.03,-291.7 1543.5,-291 1350.3,-261.1 1116.26,-250.42 1024.31,-247.2"/>
<polygon fill="midnightblue" stroke="midnightblue" points="1024.19,-243.7 1014.07,-246.86 1023.95,-250.69 1024.19,-243.7"/>
</g>
<!-- Node18&#45;&gt;Node11 -->
<g id="edge31" class="edge">
<title>Node18&#45;&gt;Node11</title>
<path fill="none" stroke="midnightblue" d="M1578.07,-291.32C1568.46,-272.51 1545.54,-227.65 1532.67,-202.46"/>
<polygon fill="midnightblue" stroke="midnightblue" points="1535.65,-200.6 1527.99,-193.28 1529.42,-203.78 1535.65,-200.6"/>
</g>
<!-- Node19&#45;&gt;Node3 -->
<g id="edge33" class="edge">
<title>Node19&#45;&gt;Node3</title>
<path fill="none" stroke="midnightblue" d="M59.65,-403.35C76.97,-379.81 128.94,-314.82 190.5,-291 261.08,-263.69 793.11,-250.15 944.45,-246.83"/>
<polygon fill="midnightblue" stroke="midnightblue" points="944.75,-250.32 954.68,-246.61 944.6,-243.32 944.75,-250.32"/>
</g>
<!-- Node20&#45;&gt;Node3 -->
<g id="edge36" class="edge">
<title>Node20&#45;&gt;Node3</title>
<path fill="none" stroke="midnightblue" d="M480.49,-347.17C481,-332.86 484.29,-304.79 501.5,-291 535.76,-263.54 834.76,-250.96 944.41,-247.23"/>
<polygon fill="midnightblue" stroke="midnightblue" points="944.84,-250.72 954.72,-246.89 944.61,-243.73 944.84,-250.72"/>
</g>
<!-- Node21&#45;&gt;Node3 -->
<g id="edge39" class="edge">
<title>Node21&#45;&gt;Node3</title>
<path fill="none" stroke="midnightblue" d="M560.17,-293.85C564.91,-292.8 569.84,-291.79 574.5,-291 709.25,-268.14 870.97,-254.35 944.55,-248.82"/>
<polygon fill="midnightblue" stroke="midnightblue" points="945.04,-252.29 954.75,-248.06 944.52,-245.31 945.04,-252.29"/>
</g>
<!-- Node22&#45;&gt;Node3 -->
<g id="edge41" class="edge">
<title>Node22&#45;&gt;Node3</title>
<path fill="none" stroke="midnightblue" d="M557.61,-403.5C561.05,-380.9 573.75,-319.19 612.5,-291 664.77,-252.98 860.03,-246.87 944.8,-246.04"/>
<polygon fill="midnightblue" stroke="midnightblue" points="944.84,-249.54 954.82,-245.96 944.79,-242.54 944.84,-249.54"/>
</g>
<!-- Node23&#45;&gt;Node3 -->
<g id="edge44" class="edge">
<title>Node23&#45;&gt;Node3</title>
<path fill="none" stroke="midnightblue" d="M611.81,-459.44C612.98,-438.24 618.6,-382.46 645.5,-347 674.43,-308.86 692.76,-308.02 737.5,-291 807.48,-264.38 894.76,-253.22 944.61,-248.76"/>
<polygon fill="midnightblue" stroke="midnightblue" points="945,-252.24 954.66,-247.91 944.4,-245.27 945,-252.24"/>
</g>
<!-- Node23&#45;&gt;Node12 -->
<g id="edge45" class="edge">
<title>Node23&#45;&gt;Node12</title>
<path fill="none" stroke="midnightblue" d="M584.91,-462.87C539.35,-454.09 445.54,-435.99 385.72,-424.46"/>
<polygon fill="midnightblue" stroke="midnightblue" points="386.18,-420.98 375.69,-422.52 384.85,-427.85 386.18,-420.98"/>
</g>
<!-- Node23&#45;&gt;Node24 -->
<g id="edge46" class="edge">
<title>Node23&#45;&gt;Node24</title>
<path fill="none" stroke="midnightblue" d="M632.26,-459.44C653.82,-450.56 687.76,-436.56 712.29,-426.45"/>
<polygon fill="midnightblue" stroke="midnightblue" points="713.93,-429.56 721.84,-422.52 711.26,-423.09 713.93,-429.56"/>
</g>
<!-- Node24&#45;&gt;Node3 -->
<g id="edge47" class="edge">
<title>Node24&#45;&gt;Node3</title>
<path fill="none" stroke="midnightblue" d="M746.38,-403.24C758.43,-376.08 794.71,-294.91 799.5,-291 840.96,-257.16 903.97,-248.12 944.7,-246.05"/>
<polygon fill="midnightblue" stroke="midnightblue" points="944.94,-249.55 954.8,-245.66 944.67,-242.55 944.94,-249.55"/>
</g>
<!-- Node25&#45;&gt;Node3 -->
<g id="edge50" class="edge">
<title>Node25&#45;&gt;Node3</title>
<path fill="none" stroke="midnightblue" d="M894.72,-459.22C896.93,-445.93 902.61,-420.44 915.5,-403 931.78,-380.98 951.16,-390.33 965.5,-367 985.11,-335.11 986.73,-289.86 985.84,-264.71"/>
<polygon fill="midnightblue" stroke="midnightblue" points="989.33,-264.48 985.3,-254.68 982.34,-264.86 989.33,-264.48"/>
</g>
<!-- Node25&#45;&gt;Node26 -->
<g id="edge51" class="edge">
<title>Node25&#45;&gt;Node26</title>
<path fill="none" stroke="midnightblue" d="M905.71,-459.32C917.28,-451.11 934.88,-438.6 948.66,-428.81"/>
<polygon fill="midnightblue" stroke="midnightblue" points="950.94,-431.48 957.07,-422.83 946.89,-425.77 950.94,-431.48"/>
</g>
<!-- Node26&#45;&gt;Node3 -->
<g id="edge52" class="edge">
<title>Node26&#45;&gt;Node3</title>
<path fill="none" stroke="midnightblue" d="M977.17,-403.46C984.28,-394.93 994.35,-381.09 998.5,-367 1008.04,-334.6 1003.57,-324.39 998.5,-291 997.13,-282 994.31,-272.33 991.55,-264.26"/>
<polygon fill="midnightblue" stroke="midnightblue" points="994.81,-262.98 988.1,-254.78 988.23,-265.37 994.81,-262.98"/>
</g>
<!-- Node27&#45;&gt;Node3 -->
<g id="edge54" class="edge">
<title>Node27&#45;&gt;Node3</title>
<path fill="none" stroke="midnightblue" d="M1020.12,-459.2C1024.6,-432.82 1035.49,-352.36 1014.5,-291 1010.97,-280.69 1004.48,-270.48 998.43,-262.4"/>
<polygon fill="midnightblue" stroke="midnightblue" points="1001.17,-260.22 992.21,-254.56 995.69,-264.57 1001.17,-260.22"/>
</g>
<!-- Node27&#45;&gt;Node28 -->
<g id="edge55" class="edge">
<title>Node27&#45;&gt;Node28</title>
<path fill="none" stroke="midnightblue" d="M1031.67,-459.32C1044.35,-450.98 1063.73,-438.21 1078.71,-428.35"/>
<polygon fill="midnightblue" stroke="midnightblue" points="1080.93,-431.08 1087.36,-422.65 1077.08,-425.23 1080.93,-431.08"/>
</g>
<!-- Node28&#45;&gt;Node3 -->
<g id="edge56" class="edge">
<title>Node28&#45;&gt;Node3</title>
<path fill="none" stroke="midnightblue" d="M1101.04,-403.34C1101.92,-381.91 1101.35,-325.64 1074.5,-291 1061.95,-274.81 1042.01,-264.01 1024.08,-257.06"/>
<polygon fill="midnightblue" stroke="midnightblue" points="1024.99,-253.66 1014.39,-253.58 1022.62,-260.25 1024.99,-253.66"/>
</g>
<!-- Node29&#45;&gt;Node3 -->
<g id="edge59" class="edge">
<title>Node29&#45;&gt;Node3</title>
<path fill="none" stroke="midnightblue" d="M908.01,-347.37C921.77,-329.14 954,-286.43 971.92,-262.68"/>
<polygon fill="midnightblue" stroke="midnightblue" points="974.79,-264.68 978.02,-254.59 969.2,-260.47 974.79,-264.68"/>
</g>
<!-- Node29&#45;&gt;Node15 -->
<g id="edge60" class="edge">
<title>Node29&#45;&gt;Node15</title>
<path fill="none" stroke="midnightblue" d="M892.5,-347.32C884.31,-339.42 871.99,-327.55 862.03,-317.94"/>
<polygon fill="midnightblue" stroke="midnightblue" points="864.29,-315.26 854.66,-310.83 859.43,-320.29 864.29,-315.26"/>
</g>
<!-- Node30&#45;&gt;Node3 -->
<g id="edge62" class="edge">
<title>Node30&#45;&gt;Node3</title>
<path fill="none" stroke="midnightblue" d="M709.31,-347.23C719.23,-333.01 740.88,-305.07 766.5,-291 823.22,-259.84 899.01,-250.19 944.66,-247.24"/>
<polygon fill="midnightblue" stroke="midnightblue" points="944.97,-250.73 954.75,-246.67 944.57,-243.74 944.97,-250.73"/>
</g>
<!-- Node30&#45;&gt;Node15 -->
<g id="edge63" class="edge">
<title>Node30&#45;&gt;Node15</title>
<path fill="none" stroke="midnightblue" d="M726,-347.44C749.58,-338.48 786.82,-324.31 813.46,-314.18"/>
<polygon fill="midnightblue" stroke="midnightblue" points="815,-317.34 823.1,-310.52 812.51,-310.8 815,-317.34"/>
</g>
<!-- Node31&#45;&gt;Node3 -->
<g id="edge65" class="edge">
<title>Node31&#45;&gt;Node3</title>
<path fill="none" stroke="midnightblue" d="M1202.36,-347.39C1193.54,-333.39 1174.19,-305.78 1150.5,-291 1111.53,-266.69 1059.46,-255.35 1024.1,-250.17"/>
<polygon fill="midnightblue" stroke="midnightblue" points="1024.53,-246.69 1014.15,-248.8 1023.58,-253.63 1024.53,-246.69"/>
</g>
<!-- Node32&#45;&gt;Node3 -->
<g id="edge68" class="edge">
<title>Node32&#45;&gt;Node3</title>
<path fill="none" stroke="midnightblue" d="M1208.24,-292.83C1160.54,-282.84 1074.31,-264.8 1023.97,-254.26"/>
<polygon fill="midnightblue" stroke="midnightblue" points="1024.6,-250.82 1014.1,-252.2 1023.17,-257.67 1024.6,-250.82"/>
</g>
<!-- Node33&#45;&gt;Node3 -->
<g id="edge70" class="edge">
<title>Node33&#45;&gt;Node3</title>
<path fill="none" stroke="midnightblue" d="M1157.88,-459.28C1155.4,-430.96 1143.79,-340.6 1094.5,-291 1075.5,-271.88 1047.23,-260.55 1024.12,-254.05"/>
<polygon fill="midnightblue" stroke="midnightblue" points="1024.8,-250.61 1014.24,-251.46 1023.03,-257.38 1024.8,-250.61"/>
</g>
<!-- Node33&#45;&gt;Node28 -->
<g id="edge71" class="edge">
<title>Node33&#45;&gt;Node28</title>
<path fill="none" stroke="midnightblue" d="M1149.18,-459.32C1140.61,-451.34 1127.69,-439.31 1117.31,-429.65"/>
<polygon fill="midnightblue" stroke="midnightblue" points="1119.69,-427.09 1109.99,-422.83 1114.92,-432.21 1119.69,-427.09"/>
</g>
<!-- Node34&#45;&gt;Node3 -->
<g id="edge75" class="edge">
<title>Node34&#45;&gt;Node3</title>
<path fill="none" stroke="midnightblue" d="M1336.59,-403.25C1333.74,-380.58 1322.81,-319.75 1285.5,-291 1245.36,-260.06 1096.39,-250.22 1024.21,-247.23"/>
<polygon fill="midnightblue" stroke="midnightblue" points="1024.26,-243.73 1014.14,-246.84 1023.99,-250.73 1024.26,-243.73"/>
</g>
<!-- Node35&#45;&gt;Node3 -->
<g id="edge78" class="edge">
<title>Node35&#45;&gt;Node3</title>
<path fill="none" stroke="midnightblue" d="M1371.56,-347.04C1363.04,-332.53 1344.1,-304.19 1319.5,-291 1269.18,-264.02 1101.79,-252.05 1024.39,-247.87"/>
<polygon fill="midnightblue" stroke="midnightblue" points="1024.25,-244.36 1014.08,-247.33 1023.89,-251.35 1024.25,-244.36"/>
</g>
<!-- Node36&#45;&gt;Node3 -->
<g id="edge80" class="edge">
<title>Node36&#45;&gt;Node3</title>
<path fill="none" stroke="midnightblue" d="M1435.27,-459.39C1436.72,-438.56 1437.99,-384.37 1416.5,-347 1396.64,-312.46 1383.21,-306.49 1346.5,-291 1289.12,-266.79 1106.25,-253.22 1024.57,-248.23"/>
<polygon fill="midnightblue" stroke="midnightblue" points="1024.39,-244.71 1014.2,-247.61 1023.98,-251.7 1024.39,-244.71"/>
</g>
</g>
</svg>
