<?xml version="1.0" encoding="UTF-8" standalone="no"?>
<!DOCTYPE svg PUBLIC "-//W3C//DTD SVG 1.1//EN"
 "http://www.w3.org/Graphics/SVG/1.1/DTD/svg11.dtd">
<!-- Generated by graphviz version 2.43.0 (0)
 -->
<!-- Title: /home/ram/OmniTemplate/template.hpp Pages: 1 -->
<svg width="1350pt" height="386pt"
 viewBox="0.00 0.00 1350.00 386.00" xmlns="http://www.w3.org/2000/svg" xmlns:xlink="http://www.w3.org/1999/xlink">
<g id="graph0" class="graph" transform="scale(1 1) rotate(0) translate(4 382)">
<title>/home/ram/OmniTemplate/template.hpp</title>
<polygon fill="white" stroke="transparent" points="-4,4 -4,-382 1346,-382 1346,4 -4,4"/>
<!-- Node1 -->
<g id="node1" class="node">
<title>Node1</title>
<g id="a_node1"><a xlink:title=" ">
<polygon fill="#bfbfbf" stroke="black" points="600.5,-347.5 600.5,-377.5 744.5,-377.5 744.5,-347.5 600.5,-347.5"/>
<text text-anchor="start" x="608.5" y="-365.5" font-family="Helvetica,sans-Serif" font-size="10.00">/home/ram/OmniTemplate</text>
<text text-anchor="middle" x="672.5" y="-354.5" font-family="Helvetica,sans-Serif" font-size="10.00">/template.hpp</text>
</a>
</g>
</g>
<!-- Node2 -->
<g id="node2" class="node">
<title>Node2</title>
<g id="a_node2"><a xlink:href="big__integer_8hpp.html" target="_top" xlink:title=" ">
<polygon fill="white" stroke="black" points="1160.5,-235.5 1160.5,-254.5 1252.5,-254.5 1252.5,-235.5 1160.5,-235.5"/>
<text text-anchor="middle" x="1206.5" y="-242.5" font-family="Helvetica,sans-Serif" font-size="10.00">big_integer.hpp</text>
</a>
</g>
</g>
<!-- Node1&#45;&gt;Node2 -->
<g id="edge1" class="edge">
<title>Node1&#45;&gt;Node2</title>
<path fill="none" stroke="midnightblue" d="M744.59,-360.13C885.64,-356.69 1187.17,-345.36 1218.5,-311 1230.06,-298.32 1224.02,-278.28 1217,-263.81"/>
<polygon fill="midnightblue" stroke="midnightblue" points="1220,-261.99 1212.19,-254.83 1213.83,-265.3 1220,-261.99"/>
</g>
<!-- Node3 -->
<g id="node3" class="node">
<title>Node3</title>
<g id="a_node3"><a xlink:href="core_8hpp.html" target="_top" xlink:title=" ">
<polygon fill="white" stroke="black" points="677,-123.5 677,-142.5 736,-142.5 736,-123.5 677,-123.5"/>
<text text-anchor="middle" x="706.5" y="-130.5" font-family="Helvetica,sans-Serif" font-size="10.00">core.hpp</text>
</a>
</g>
</g>
<!-- Node1&#45;&gt;Node3 -->
<g id="edge19" class="edge">
<title>Node1&#45;&gt;Node3</title>
<path fill="none" stroke="midnightblue" d="M744.62,-359.66C878.93,-355.48 1156.46,-343.04 1185.5,-311 1191.47,-304.41 1189.87,-298.74 1185.5,-291 1161.76,-249 1044.87,-195.42 999.5,-179 912.71,-147.6 803.73,-138.11 746.24,-135.24"/>
<polygon fill="midnightblue" stroke="midnightblue" points="746.27,-131.74 736.12,-134.78 745.95,-138.73 746.27,-131.74"/>
</g>
<!-- Node12 -->
<g id="node12" class="node">
<title>Node12</title>
<g id="a_node12"><a xlink:href="utility_8hpp.html" target="_top" xlink:title=" ">
<polygon fill="white" stroke="black" points="1277,-62 1277,-81 1342,-81 1342,-62 1277,-62"/>
<text text-anchor="middle" x="1309.5" y="-69" font-family="Helvetica,sans-Serif" font-size="10.00">utility.hpp</text>
</a>
</g>
</g>
<!-- Node1&#45;&gt;Node12 -->
<g id="edge47" class="edge">
<title>Node1&#45;&gt;Node12</title>
<path fill="none" stroke="midnightblue" d="M744.72,-360.75C880.33,-358.46 1167.56,-349.1 1258.5,-311 1299.49,-293.82 1334.5,-290.45 1334.5,-246 1334.5,-246 1334.5,-246 1334.5,-188 1334.5,-152.91 1323.34,-113.16 1315.94,-90.63"/>
<polygon fill="midnightblue" stroke="midnightblue" points="1319.21,-89.39 1312.67,-81.06 1312.58,-91.65 1319.21,-89.39"/>
</g>
<!-- Node13 -->
<g id="node13" class="node">
<title>Node13</title>
<g id="a_node13"><a xlink:href="combinatorics_8hpp.html" target="_top" xlink:title=" ">
<polygon fill="white" stroke="black" points="1199,-179.5 1199,-198.5 1306,-198.5 1306,-179.5 1199,-179.5"/>
<text text-anchor="middle" x="1252.5" y="-186.5" font-family="Helvetica,sans-Serif" font-size="10.00">combinatorics.hpp</text>
</a>
</g>
</g>
<!-- Node1&#45;&gt;Node13 -->
<g id="edge17" class="edge">
<title>Node1&#45;&gt;Node13</title>
<path fill="none" stroke="midnightblue" d="M744.57,-359.03C887.43,-353.55 1196.19,-338.64 1235.5,-311 1264.7,-290.47 1265.02,-270.53 1261.5,-235 1260.63,-226.17 1258.81,-216.51 1257.03,-208.4"/>
<polygon fill="midnightblue" stroke="midnightblue" points="1260.42,-207.49 1254.73,-198.55 1253.6,-209.08 1260.42,-207.49"/>
</g>
<!-- Node14 -->
<g id="node14" class="node">
<title>Node14</title>
<g id="a_node14"><a xlink:href="coroutine_8hpp.html" target="_top" xlink:title=" ">
<polygon fill="white" stroke="black" points="0,-235.5 0,-254.5 83,-254.5 83,-235.5 0,-235.5"/>
<text text-anchor="middle" x="41.5" y="-242.5" font-family="Helvetica,sans-Serif" font-size="10.00">coroutine.hpp</text>
</a>
</g>
</g>
<!-- Node1&#45;&gt;Node14 -->
<g id="edge20" class="edge">
<title>Node1&#45;&gt;Node14</title>
<path fill="none" stroke="midnightblue" d="M600.28,-361.84C465.94,-361.4 183.45,-355.05 97.5,-311 76.86,-300.42 60.62,-278.67 51.05,-263.25"/>
<polygon fill="midnightblue" stroke="midnightblue" points="54.06,-261.47 45.98,-254.62 48.03,-265.01 54.06,-261.47"/>
</g>
<!-- Node15 -->
<g id="node15" class="node">
<title>Node15</title>
<g id="a_node15"><a xlink:href="dsu_8hpp.html" target="_top" xlink:title=" ">
<polygon fill="white" stroke="black" points="104,-179.5 104,-198.5 159,-198.5 159,-179.5 104,-179.5"/>
<text text-anchor="middle" x="131.5" y="-186.5" font-family="Helvetica,sans-Serif" font-size="10.00">dsu.hpp</text>
</a>
</g>
</g>
<!-- Node1&#45;&gt;Node15 -->
<g id="edge22" class="edge">
<title>Node1&#45;&gt;Node15</title>
<path fill="none" stroke="midnightblue" d="M600.23,-357.51C490.2,-350.77 286.22,-335.4 217.5,-311 174.17,-295.61 152.52,-295.37 130.5,-255 122.81,-240.91 123.97,-222.42 126.53,-208.77"/>
<polygon fill="midnightblue" stroke="midnightblue" points="130.02,-209.16 128.83,-198.63 123.2,-207.61 130.02,-209.16"/>
</g>
<!-- Node16 -->
<g id="node16" class="node">
<title>Node16</title>
<g id="a_node16"><a xlink:href="fft_8hpp.html" target="_top" xlink:title=" ">
<polygon fill="white" stroke="black" points="382,-179.5 382,-198.5 431,-198.5 431,-179.5 382,-179.5"/>
<text text-anchor="middle" x="406.5" y="-186.5" font-family="Helvetica,sans-Serif" font-size="10.00">fft.hpp</text>
</a>
</g>
</g>
<!-- Node1&#45;&gt;Node16 -->
<g id="edge24" class="edge">
<title>Node1&#45;&gt;Node16</title>
<path fill="none" stroke="midnightblue" d="M600.49,-354.39C552.58,-347.67 489.2,-334.9 437.5,-311 400.38,-293.84 382.59,-291.67 364.5,-255 355.62,-237 371.4,-217.88 386.08,-205.08"/>
<polygon fill="midnightblue" stroke="midnightblue" points="388.42,-207.69 393.96,-198.66 384,-202.26 388.42,-207.69"/>
</g>
<!-- Node17 -->
<g id="node17" class="node">
<title>Node17</title>
<g id="a_node17"><a xlink:href="geometry_8hpp.html" target="_top" xlink:title=" ">
<polygon fill="white" stroke="black" points="374,-235.5 374,-254.5 457,-254.5 457,-235.5 374,-235.5"/>
<text text-anchor="middle" x="415.5" y="-242.5" font-family="Helvetica,sans-Serif" font-size="10.00">geometry.hpp</text>
</a>
</g>
</g>
<!-- Node1&#45;&gt;Node17 -->
<g id="edge26" class="edge">
<title>Node1&#45;&gt;Node17</title>
<path fill="none" stroke="midnightblue" d="M600.49,-357.27C556.81,-351.73 501.73,-339.18 460.5,-311 443.38,-299.3 430.79,-278.76 423.35,-263.9"/>
<polygon fill="midnightblue" stroke="midnightblue" points="426.44,-262.26 419.03,-254.69 420.11,-265.23 426.44,-262.26"/>
</g>
<!-- Node18 -->
<g id="node18" class="node">
<title>Node18</title>
<g id="a_node18"><a xlink:href="graph__theory_8hpp.html" target="_top" xlink:title=" ">
<polygon fill="white" stroke="black" points="140,-235.5 140,-254.5 241,-254.5 241,-235.5 140,-235.5"/>
<text text-anchor="middle" x="190.5" y="-242.5" font-family="Helvetica,sans-Serif" font-size="10.00">graph_theory.hpp</text>
</a>
</g>
</g>
<!-- Node1&#45;&gt;Node18 -->
<g id="edge28" class="edge">
<title>Node1&#45;&gt;Node18</title>
<path fill="none" stroke="midnightblue" d="M600.25,-359.49C494.39,-355.48 303.24,-343.79 243.5,-311 223.81,-300.2 208.61,-278.82 199.64,-263.53"/>
<polygon fill="midnightblue" stroke="midnightblue" points="202.56,-261.59 194.65,-254.53 196.44,-264.98 202.56,-261.59"/>
</g>
<!-- Node19 -->
<g id="node19" class="node">
<title>Node19</title>
<g id="a_node19"><a xlink:href="linear__algebra_8hpp.html" target="_top" xlink:title=" ">
<polygon fill="white" stroke="black" points="216,-179.5 216,-198.5 323,-198.5 323,-179.5 216,-179.5"/>
<text text-anchor="middle" x="269.5" y="-186.5" font-family="Helvetica,sans-Serif" font-size="10.00">linear_algebra.hpp</text>
</a>
</g>
</g>
<!-- Node1&#45;&gt;Node19 -->
<g id="edge33" class="edge">
<title>Node1&#45;&gt;Node19</title>
<path fill="none" stroke="midnightblue" d="M600.43,-357.24C492.25,-350.11 298.19,-334.24 276.5,-311 250.75,-283.41 257.65,-235.08 264.08,-208.62"/>
<polygon fill="midnightblue" stroke="midnightblue" points="267.52,-209.3 266.72,-198.74 260.76,-207.5 267.52,-209.3"/>
</g>
<!-- Node20 -->
<g id="node20" class="node">
<title>Node20</title>
<g id="a_node20"><a xlink:href="modulo_8hpp.html" target="_top" xlink:title=" ">
<polygon fill="white" stroke="black" points="475.5,-235.5 475.5,-254.5 549.5,-254.5 549.5,-235.5 475.5,-235.5"/>
<text text-anchor="middle" x="512.5" y="-242.5" font-family="Helvetica,sans-Serif" font-size="10.00">modulo.hpp</text>
</a>
</g>
</g>
<!-- Node1&#45;&gt;Node20 -->
<g id="edge34" class="edge">
<title>Node1&#45;&gt;Node20</title>
<path fill="none" stroke="midnightblue" d="M600.43,-353.08C548.52,-345.36 484.86,-331.9 468.5,-311 455.63,-294.55 473.94,-274.5 490.72,-261.05"/>
<polygon fill="midnightblue" stroke="midnightblue" points="493.29,-263.49 499.17,-254.68 489.08,-257.9 493.29,-263.49"/>
</g>
<!-- Node21 -->
<g id="node21" class="node">
<title>Node21</title>
<g id="a_node21"><a xlink:href="number__theory_8hpp.html" target="_top" xlink:title=" ">
<polygon fill="white" stroke="black" points="477.5,-291.5 477.5,-310.5 587.5,-310.5 587.5,-291.5 477.5,-291.5"/>
<text text-anchor="middle" x="532.5" y="-298.5" font-family="Helvetica,sans-Serif" font-size="10.00">number_theory.hpp</text>
</a>
</g>
</g>
<!-- Node1&#45;&gt;Node21 -->
<g id="edge36" class="edge">
<title>Node1&#45;&gt;Node21</title>
<path fill="none" stroke="midnightblue" d="M639.32,-347.4C615.94,-337.46 584.89,-324.26 562.29,-314.66"/>
<polygon fill="midnightblue" stroke="midnightblue" points="563.44,-311.35 552.87,-310.66 560.71,-317.79 563.44,-311.35"/>
</g>
<!-- Node22 -->
<g id="node22" class="node">
<title>Node22</title>
<g id="a_node22"><a xlink:href="persistent_8hpp.html" target="_top" xlink:title=" ">
<polygon fill="white" stroke="black" points="567.5,-179.5 567.5,-198.5 653.5,-198.5 653.5,-179.5 567.5,-179.5"/>
<text text-anchor="middle" x="610.5" y="-186.5" font-family="Helvetica,sans-Serif" font-size="10.00">persistent.hpp</text>
</a>
</g>
</g>
<!-- Node1&#45;&gt;Node22 -->
<g id="edge39" class="edge">
<title>Node1&#45;&gt;Node22</title>
<path fill="none" stroke="midnightblue" d="M667.43,-347.47C656.26,-316.57 629.55,-242.69 617.1,-208.25"/>
<polygon fill="midnightblue" stroke="midnightblue" points="620.29,-206.77 613.59,-198.56 613.7,-209.15 620.29,-206.77"/>
</g>
<!-- Node23 -->
<g id="node23" class="node">
<title>Node23</title>
<g id="a_node23"><a xlink:href="string_8hpp.html" target="_top" xlink:title=" ">
<polygon fill="white" stroke="black" points="644,-235.5 644,-254.5 709,-254.5 709,-235.5 644,-235.5"/>
<text text-anchor="middle" x="676.5" y="-242.5" font-family="Helvetica,sans-Serif" font-size="10.00">string.hpp</text>
</a>
</g>
</g>
<!-- Node1&#45;&gt;Node23 -->
<g id="edge41" class="edge">
<title>Node1&#45;&gt;Node23</title>
<path fill="none" stroke="midnightblue" d="M672.99,-347.34C673.71,-326.62 675.04,-288.02 675.85,-264.9"/>
<polygon fill="midnightblue" stroke="midnightblue" points="679.35,-264.78 676.2,-254.67 672.36,-264.54 679.35,-264.78"/>
</g>
<!-- Node24 -->
<g id="node24" class="node">
<title>Node24</title>
<g id="a_node24"><a xlink:href="time_8hpp.html" target="_top" xlink:title=" ">
<polygon fill="white" stroke="black" points="709.5,-179.5 709.5,-198.5 769.5,-198.5 769.5,-179.5 709.5,-179.5"/>
<text text-anchor="middle" x="739.5" y="-186.5" font-family="Helvetica,sans-Serif" font-size="10.00">time.hpp</text>
</a>
</g>
</g>
<!-- Node1&#45;&gt;Node24 -->
<g id="edge43" class="edge">
<title>Node1&#45;&gt;Node24</title>
<path fill="none" stroke="midnightblue" d="M678.95,-347.17C688.01,-326.84 704.81,-288.4 717.5,-255 723.38,-239.51 729.37,-221.67 733.61,-208.6"/>
<polygon fill="midnightblue" stroke="midnightblue" points="736.99,-209.5 736.71,-198.9 730.33,-207.36 736.99,-209.5"/>
</g>
<!-- Node25 -->
<g id="node25" class="node">
<title>Node25</title>
<g id="a_node25"><a xlink:href="tree_8hpp.html" target="_top" xlink:title=" ">
<polygon fill="white" stroke="black" points="766,-235.5 766,-254.5 823,-254.5 823,-235.5 766,-235.5"/>
<text text-anchor="middle" x="794.5" y="-242.5" font-family="Helvetica,sans-Serif" font-size="10.00">tree.hpp</text>
</a>
</g>
</g>
<!-- Node1&#45;&gt;Node25 -->
<g id="edge45" class="edge">
<title>Node1&#45;&gt;Node25</title>
<path fill="none" stroke="midnightblue" d="M687.46,-347.34C710.34,-325.68 753.88,-284.45 777.78,-261.83"/>
<polygon fill="midnightblue" stroke="midnightblue" points="780.49,-264.09 785.34,-254.67 775.67,-259 780.49,-264.09"/>
</g>
<!-- Node26 -->
<g id="node26" class="node">
<title>Node26</title>
<g id="a_node26"><a xlink:href="main_8hpp.html" target="_top" xlink:title=" ">
<polygon fill="white" stroke="black" points="825.5,-179.5 825.5,-198.5 887.5,-198.5 887.5,-179.5 825.5,-179.5"/>
<text text-anchor="middle" x="856.5" y="-186.5" font-family="Helvetica,sans-Serif" font-size="10.00">main.hpp</text>
</a>
</g>
</g>
<!-- Node1&#45;&gt;Node26 -->
<g id="edge48" class="edge">
<title>Node1&#45;&gt;Node26</title>
<path fill="none" stroke="midnightblue" d="M695.16,-347.41C736.67,-321.44 821.58,-267.54 831.5,-255 842.27,-241.38 848.83,-222.59 852.51,-208.71"/>
<polygon fill="midnightblue" stroke="midnightblue" points="855.95,-209.37 854.86,-198.83 849.14,-207.74 855.95,-209.37"/>
</g>
<!-- Node27 -->
<g id="node27" class="node">
<title>Node27</title>
<g id="a_node27"><a xlink:href="2sat_8hpp.html" target="_top" xlink:title=" ">
<polygon fill="white" stroke="black" points="286,-291.5 286,-310.5 345,-310.5 345,-291.5 286,-291.5"/>
<text text-anchor="middle" x="315.5" y="-298.5" font-family="Helvetica,sans-Serif" font-size="10.00">2sat.hpp</text>
</a>
</g>
</g>
<!-- Node1&#45;&gt;Node27 -->
<g id="edge50" class="edge">
<title>Node1&#45;&gt;Node27</title>
<path fill="none" stroke="midnightblue" d="M600.25,-350.72C536.71,-341.03 441.8,-326.05 359.5,-311 358.06,-310.74 356.6,-310.46 355.12,-310.18"/>
<polygon fill="midnightblue" stroke="midnightblue" points="355.77,-306.75 345.29,-308.27 354.44,-313.62 355.77,-306.75"/>
</g>
<!-- Node28 -->
<g id="node28" class="node">
<title>Node28</title>
<g id="a_node28"><a xlink:href="segment__tree_8hpp.html" target="_top" xlink:title=" ">
<polygon fill="white" stroke="black" points="796,-291.5 796,-310.5 901,-310.5 901,-291.5 796,-291.5"/>
<text text-anchor="middle" x="848.5" y="-298.5" font-family="Helvetica,sans-Serif" font-size="10.00">segment_tree.hpp</text>
</a>
</g>
</g>
<!-- Node1&#45;&gt;Node28 -->
<g id="edge53" class="edge">
<title>Node1&#45;&gt;Node28</title>
<path fill="none" stroke="midnightblue" d="M714.21,-347.4C744.49,-337.16 784.99,-323.47 813.57,-313.81"/>
<polygon fill="midnightblue" stroke="midnightblue" points="814.8,-317.09 823.15,-310.57 812.55,-310.46 814.8,-317.09"/>
</g>
<!-- Node29 -->
<g id="node29" class="node">
<title>Node29</title>
<g id="a_node29"><a xlink:href="queue_8hpp.html" target="_top" xlink:title=" ">
<polygon fill="white" stroke="black" points="919.5,-291.5 919.5,-310.5 987.5,-310.5 987.5,-291.5 919.5,-291.5"/>
<text text-anchor="middle" x="953.5" y="-298.5" font-family="Helvetica,sans-Serif" font-size="10.00">queue.hpp</text>
</a>
</g>
</g>
<!-- Node1&#45;&gt;Node29 -->
<g id="edge55" class="edge">
<title>Node1&#45;&gt;Node29</title>
<path fill="none" stroke="midnightblue" d="M738.74,-347.47C791.38,-336.33 863.55,-321.05 909.36,-311.35"/>
<polygon fill="midnightblue" stroke="midnightblue" points="910.22,-314.74 919.28,-309.25 908.77,-307.89 910.22,-314.74"/>
</g>
<!-- Node30 -->
<g id="node30" class="node">
<title>Node30</title>
<g id="a_node30"><a xlink:href="splay__tree_8hpp.html" target="_top" xlink:title=" ">
<polygon fill="white" stroke="black" points="1006,-291.5 1006,-310.5 1095,-310.5 1095,-291.5 1006,-291.5"/>
<text text-anchor="middle" x="1050.5" y="-298.5" font-family="Helvetica,sans-Serif" font-size="10.00">splay_tree.hpp</text>
</a>
</g>
</g>
<!-- Node1&#45;&gt;Node30 -->
<g id="edge57" class="edge">
<title>Node1&#45;&gt;Node30</title>
<path fill="none" stroke="midnightblue" d="M744.6,-350.48C807.97,-340.75 902.98,-326.04 995.6,-311.13"/>
<polygon fill="midnightblue" stroke="midnightblue" points="996.4,-314.55 1005.72,-309.5 995.29,-307.64 996.4,-314.55"/>
</g>
<!-- Node31 -->
<g id="node31" class="node">
<title>Node31</title>
<g id="a_node31"><a xlink:href="treap_8hpp.html" target="_top" xlink:title=" ">
<polygon fill="white" stroke="black" points="1113,-291.5 1113,-310.5 1176,-310.5 1176,-291.5 1113,-291.5"/>
<text text-anchor="middle" x="1144.5" y="-298.5" font-family="Helvetica,sans-Serif" font-size="10.00">treap.hpp</text>
</a>
</g>
</g>
<!-- Node1&#45;&gt;Node31 -->
<g id="edge59" class="edge">
<title>Node1&#45;&gt;Node31</title>
<path fill="none" stroke="midnightblue" d="M744.88,-355.24C828.66,-347.49 970.96,-332.79 1102.89,-310.94"/>
<polygon fill="midnightblue" stroke="midnightblue" points="1103.49,-314.39 1112.78,-309.29 1102.34,-307.49 1103.49,-314.39"/>
</g>
<!-- Node2&#45;&gt;Node3 -->
<g id="edge2" class="edge">
<title>Node2&#45;&gt;Node3</title>
<path fill="none" stroke="midnightblue" d="M1201.51,-235.41C1192.58,-220.91 1172.32,-191.91 1146.5,-179 1076.74,-144.12 840.65,-136.26 746.12,-134.5"/>
<polygon fill="midnightblue" stroke="midnightblue" points="746.16,-131 736.1,-134.33 746.04,-138 746.16,-131"/>
</g>
<!-- Node4 -->
<g id="node4" class="node">
<title>Node4</title>
<g id="a_node4"><a xlink:title=" ">
<polygon fill="white" stroke="#bfbfbf" points="795,-62 795,-81 878,-81 878,-62 795,-62"/>
<text text-anchor="middle" x="836.5" y="-69" font-family="Helvetica,sans-Serif" font-size="10.00">bits/stdc++.h</text>
</a>
</g>
</g>
<!-- Node3&#45;&gt;Node4 -->
<g id="edge3" class="edge">
<title>Node3&#45;&gt;Node4</title>
<path fill="none" stroke="midnightblue" d="M725.13,-123.48C746.94,-113.49 783.3,-96.85 808.52,-85.31"/>
<polygon fill="midnightblue" stroke="midnightblue" points="810.27,-88.35 817.91,-81.01 807.36,-81.99 810.27,-88.35"/>
</g>
<!-- Node5 -->
<g id="node5" class="node">
<title>Node5</title>
<g id="a_node5"><a xlink:title=" ">
<polygon fill="white" stroke="#bfbfbf" points="896,-62 896,-81 1017,-81 1017,-62 896,-62"/>
<text text-anchor="middle" x="956.5" y="-69" font-family="Helvetica,sans-Serif" font-size="10.00">experimental/iterator</text>
</a>
</g>
</g>
<!-- Node3&#45;&gt;Node5 -->
<g id="edge4" class="edge">
<title>Node3&#45;&gt;Node5</title>
<path fill="none" stroke="midnightblue" d="M736.16,-124.94C779.33,-114.67 859.84,-95.5 910.67,-83.41"/>
<polygon fill="midnightblue" stroke="midnightblue" points="911.51,-86.81 920.42,-81.09 909.88,-80 911.51,-86.81"/>
</g>
<!-- Node6 -->
<g id="node6" class="node">
<title>Node6</title>
<g id="a_node6"><a xlink:title=" ">
<polygon fill="white" stroke="#bfbfbf" points="1035,-56.5 1035,-86.5 1152,-86.5 1152,-56.5 1035,-56.5"/>
<text text-anchor="start" x="1043" y="-74.5" font-family="Helvetica,sans-Serif" font-size="10.00">experimental/source</text>
<text text-anchor="middle" x="1093.5" y="-63.5" font-family="Helvetica,sans-Serif" font-size="10.00">_location</text>
</a>
</g>
</g>
<!-- Node3&#45;&gt;Node6 -->
<g id="edge5" class="edge">
<title>Node3&#45;&gt;Node6</title>
<path fill="none" stroke="midnightblue" d="M736.08,-128.53C790.88,-121.95 912.1,-106.69 1024.77,-87.05"/>
<polygon fill="midnightblue" stroke="midnightblue" points="1025.7,-90.44 1034.95,-85.26 1024.49,-83.54 1025.7,-90.44"/>
</g>
<!-- Node7 -->
<g id="node7" class="node">
<title>Node7</title>
<g id="a_node7"><a xlink:href="my__int_8hpp.html" target="_top" xlink:title=" ">
<polygon fill="white" stroke="black" points="498,-62 498,-81 569,-81 569,-62 498,-62"/>
<text text-anchor="middle" x="533.5" y="-69" font-family="Helvetica,sans-Serif" font-size="10.00">my_int.hpp</text>
</a>
</g>
</g>
<!-- Node3&#45;&gt;Node7 -->
<g id="edge6" class="edge">
<title>Node3&#45;&gt;Node7</title>
<path fill="none" stroke="midnightblue" d="M676.81,-123.48C644.91,-113.27 594.8,-96.11 562.98,-84.55"/>
<polygon fill="midnightblue" stroke="midnightblue" points="563.94,-81.17 553.34,-81.01 561.52,-87.74 563.94,-81.17"/>
</g>
<!-- Node8 -->
<g id="node8" class="node">
<title>Node8</title>
<g id="a_node8"><a xlink:href="io_8hpp.html" target="_top" xlink:title=" ">
<polygon fill="white" stroke="black" points="587,-62 587,-81 634,-81 634,-62 587,-62"/>
<text text-anchor="middle" x="610.5" y="-69" font-family="Helvetica,sans-Serif" font-size="10.00">io.hpp</text>
</a>
</g>
</g>
<!-- Node3&#45;&gt;Node8 -->
<g id="edge8" class="edge">
<title>Node3&#45;&gt;Node8</title>
<path fill="none" stroke="midnightblue" d="M692.75,-123.48C677.13,-113.8 651.44,-97.87 632.92,-86.39"/>
<polygon fill="midnightblue" stroke="midnightblue" points="634.57,-83.3 624.23,-81.01 630.88,-89.25 634.57,-83.3"/>
</g>
<!-- Node9 -->
<g id="node9" class="node">
<title>Node9</title>
<g id="a_node9"><a xlink:href="debug_8hpp.html" target="_top" xlink:title=" ">
<polygon fill="white" stroke="black" points="708.5,-62 708.5,-81 776.5,-81 776.5,-62 708.5,-62"/>
<text text-anchor="middle" x="742.5" y="-69" font-family="Helvetica,sans-Serif" font-size="10.00">debug.hpp</text>
</a>
</g>
</g>
<!-- Node3&#45;&gt;Node9 -->
<g id="edge9" class="edge">
<title>Node3&#45;&gt;Node9</title>
<path fill="none" stroke="midnightblue" d="M711.66,-123.48C716.95,-114.73 725.34,-100.87 732.03,-89.81"/>
<polygon fill="midnightblue" stroke="midnightblue" points="735.17,-91.38 737.35,-81.01 729.18,-87.75 735.17,-91.38"/>
</g>
<!-- Node10 -->
<g id="node10" class="node">
<title>Node10</title>
<g id="a_node10"><a xlink:href="range_8hpp.html" target="_top" xlink:title=" ">
<polygon fill="white" stroke="black" points="710,-0.5 710,-19.5 775,-19.5 775,-0.5 710,-0.5"/>
<text text-anchor="middle" x="742.5" y="-7.5" font-family="Helvetica,sans-Serif" font-size="10.00">range.hpp</text>
</a>
</g>
</g>
<!-- Node3&#45;&gt;Node10 -->
<g id="edge14" class="edge">
<title>Node3&#45;&gt;Node10</title>
<path fill="none" stroke="midnightblue" d="M697.61,-123.19C689.18,-108.63 681.33,-78.88 690.5,-56 695.28,-44.09 704.87,-33.55 714.69,-25.66"/>
<polygon fill="midnightblue" stroke="midnightblue" points="716.86,-28.41 722.89,-19.7 712.74,-22.75 716.86,-28.41"/>
</g>
<!-- Node11 -->
<g id="node11" class="node">
<title>Node11</title>
<g id="a_node11"><a xlink:href="operations_8hpp.html" target="_top" xlink:title=" ">
<polygon fill="white" stroke="black" points="1170,-62 1170,-81 1259,-81 1259,-62 1170,-62"/>
<text text-anchor="middle" x="1214.5" y="-69" font-family="Helvetica,sans-Serif" font-size="10.00">operations.hpp</text>
</a>
</g>
</g>
<!-- Node3&#45;&gt;Node11 -->
<g id="edge12" class="edge">
<title>Node3&#45;&gt;Node11</title>
<path fill="none" stroke="midnightblue" d="M736.02,-130.8C808.83,-127.48 1002.66,-116.37 1161.5,-87 1166.53,-86.07 1171.78,-84.89 1176.93,-83.61"/>
<polygon fill="midnightblue" stroke="midnightblue" points="1177.86,-86.99 1186.65,-81.07 1176.09,-80.22 1177.86,-86.99"/>
</g>
<!-- Node3&#45;&gt;Node12 -->
<g id="edge15" class="edge">
<title>Node3&#45;&gt;Node12</title>
<path fill="none" stroke="midnightblue" d="M736.14,-132.32C820.45,-132.65 1068.42,-129.63 1268.5,-87 1271.93,-86.27 1275.46,-85.33 1278.94,-84.28"/>
<polygon fill="midnightblue" stroke="midnightblue" points="1280.13,-87.57 1288.52,-81.1 1277.93,-80.92 1280.13,-87.57"/>
</g>
<!-- Node7&#45;&gt;Node3 -->
<g id="edge7" class="edge">
<title>Node7&#45;&gt;Node3</title>
<path fill="none" stroke="midnightblue" d="M563.14,-81.01C595.02,-91.21 645.13,-108.37 676.97,-119.93"/>
<polygon fill="midnightblue" stroke="midnightblue" points="676.02,-123.31 686.61,-123.48 678.43,-116.74 676.02,-123.31"/>
</g>
<!-- Node9&#45;&gt;Node10 -->
<g id="edge10" class="edge">
<title>Node9&#45;&gt;Node10</title>
<path fill="none" stroke="midnightblue" d="M742.5,-61.98C742.5,-53.58 742.5,-40.48 742.5,-29.66"/>
<polygon fill="midnightblue" stroke="midnightblue" points="746,-29.51 742.5,-19.51 739,-29.51 746,-29.51"/>
</g>
<!-- Node10&#45;&gt;Node3 -->
<g id="edge11" class="edge">
<title>Node10&#45;&gt;Node3</title>
<path fill="none" stroke="midnightblue" d="M737.12,-19.7C728.63,-27.75 714.61,-40.76 708.5,-56 701.12,-74.41 704.76,-97.27 707.26,-113.08"/>
<polygon fill="midnightblue" stroke="midnightblue" points="703.83,-113.79 708.71,-123.19 710.76,-112.8 703.83,-113.79"/>
</g>
<!-- Node11&#45;&gt;Node10 -->
<g id="edge13" class="edge">
<title>Node11&#45;&gt;Node10</title>
<path fill="none" stroke="midnightblue" d="M1186.64,-61.98C1178.59,-59.76 1169.75,-57.56 1161.5,-56 1025.39,-30.24 861.41,-17.97 785.24,-13.33"/>
<polygon fill="midnightblue" stroke="midnightblue" points="785.28,-9.82 775.09,-12.72 784.86,-16.81 785.28,-9.82"/>
</g>
<!-- Node12&#45;&gt;Node10 -->
<g id="edge16" class="edge">
<title>Node12&#45;&gt;Node10</title>
<path fill="none" stroke="midnightblue" d="M1288.52,-61.93C1282.18,-59.65 1275.14,-57.43 1268.5,-56 1092.05,-17.9 875.77,-11.79 785.38,-11"/>
<polygon fill="midnightblue" stroke="midnightblue" points="785.27,-7.5 775.25,-10.93 785.22,-14.5 785.27,-7.5"/>
</g>
<!-- Node13&#45;&gt;Node3 -->
<g id="edge18" class="edge">
<title>Node13&#45;&gt;Node3</title>
<path fill="none" stroke="midnightblue" d="M1198.7,-180.69C1193.9,-180.09 1189.11,-179.52 1184.5,-179 1022.24,-160.63 828.38,-144.02 746.32,-137.24"/>
<polygon fill="midnightblue" stroke="midnightblue" points="746.44,-133.74 736.19,-136.4 745.87,-140.71 746.44,-133.74"/>
</g>
<!-- Node14&#45;&gt;Node3 -->
<g id="edge21" class="edge">
<title>Node14&#45;&gt;Node3</title>
<path fill="none" stroke="midnightblue" d="M45.59,-235.35C53.02,-220.77 70.22,-191.64 94.5,-179 145.05,-152.68 538.69,-138.92 666.54,-135.11"/>
<polygon fill="midnightblue" stroke="midnightblue" points="666.79,-138.61 676.68,-134.81 666.58,-131.61 666.79,-138.61"/>
</g>
<!-- Node15&#45;&gt;Node3 -->
<g id="edge23" class="edge">
<title>Node15&#45;&gt;Node3</title>
<path fill="none" stroke="midnightblue" d="M159.42,-181.5C164.11,-180.56 168.93,-179.68 173.5,-179 356.65,-151.76 577.85,-139.65 666.71,-135.63"/>
<polygon fill="midnightblue" stroke="midnightblue" points="667.04,-139.12 676.88,-135.18 666.73,-132.13 667.04,-139.12"/>
</g>
<!-- Node16&#45;&gt;Node3 -->
<g id="edge25" class="edge">
<title>Node16&#45;&gt;Node3</title>
<path fill="none" stroke="midnightblue" d="M431.34,-182.51C436.97,-181.31 442.94,-180.08 448.5,-179 525.54,-164.03 615.98,-148.79 666.73,-140.45"/>
<polygon fill="midnightblue" stroke="midnightblue" points="667.33,-143.9 676.64,-138.83 666.2,-136.99 667.33,-143.9"/>
</g>
<!-- Node17&#45;&gt;Node3 -->
<g id="edge27" class="edge">
<title>Node17&#45;&gt;Node3</title>
<path fill="none" stroke="midnightblue" d="M425.41,-235.43C442.05,-221.49 477.18,-193.96 511.5,-179 562.63,-156.72 626.31,-144.69 666.7,-138.81"/>
<polygon fill="midnightblue" stroke="midnightblue" points="667.27,-142.26 676.69,-137.41 666.3,-135.33 667.27,-142.26"/>
</g>
<!-- Node18&#45;&gt;Node3 -->
<g id="edge29" class="edge">
<title>Node18&#45;&gt;Node3</title>
<path fill="none" stroke="midnightblue" d="M189.76,-235.24C189.09,-221.01 190.1,-193.08 206.5,-179 241.13,-149.26 553.91,-138.06 666.42,-134.97"/>
<polygon fill="midnightblue" stroke="midnightblue" points="666.76,-138.46 676.66,-134.7 666.57,-131.47 666.76,-138.46"/>
</g>
<!-- Node18&#45;&gt;Node15 -->
<g id="edge30" class="edge">
<title>Node18&#45;&gt;Node15</title>
<path fill="none" stroke="midnightblue" d="M181.02,-235.32C172.3,-227.34 159.16,-215.31 148.6,-205.65"/>
<polygon fill="midnightblue" stroke="midnightblue" points="150.89,-203 141.15,-198.83 146.17,-208.17 150.89,-203"/>
</g>
<!-- Node18&#45;&gt;Node19 -->
<g id="edge31" class="edge">
<title>Node18&#45;&gt;Node19</title>
<path fill="none" stroke="midnightblue" d="M203.19,-235.32C215.4,-226.98 234.08,-214.21 248.5,-204.35"/>
<polygon fill="midnightblue" stroke="midnightblue" points="250.56,-207.19 256.84,-198.65 246.61,-201.41 250.56,-207.19"/>
</g>
<!-- Node19&#45;&gt;Node3 -->
<g id="edge32" class="edge">
<title>Node19&#45;&gt;Node3</title>
<path fill="none" stroke="midnightblue" d="M323.32,-180.83C328.11,-180.2 332.89,-179.59 337.5,-179 457.22,-163.78 598.92,-146.78 666.62,-138.73"/>
<polygon fill="midnightblue" stroke="midnightblue" points="667.32,-142.17 676.83,-137.51 666.49,-135.22 667.32,-142.17"/>
</g>
<!-- Node20&#45;&gt;Node3 -->
<g id="edge35" class="edge">
<title>Node20&#45;&gt;Node3</title>
<path fill="none" stroke="midnightblue" d="M511.54,-235.1C510.56,-221.19 510.88,-194.32 525.5,-179 544.72,-158.87 619.73,-145.49 666.94,-138.86"/>
<polygon fill="midnightblue" stroke="midnightblue" points="667.42,-142.33 676.86,-137.51 666.48,-135.39 667.42,-142.33"/>
</g>
<!-- Node21&#45;&gt;Node3 -->
<g id="edge37" class="edge">
<title>Node21&#45;&gt;Node3</title>
<path fill="none" stroke="midnightblue" d="M539.39,-291.32C545.77,-282.68 554.81,-268.77 558.5,-255 567.25,-222.37 538.39,-206.14 558.5,-179 583.14,-145.76 631.72,-136.23 666.51,-133.91"/>
<polygon fill="midnightblue" stroke="midnightblue" points="667,-137.39 676.82,-133.41 666.66,-130.4 667,-137.39"/>
</g>
<!-- Node21&#45;&gt;Node20 -->
<g id="edge38" class="edge">
<title>Node21&#45;&gt;Node20</title>
<path fill="none" stroke="midnightblue" d="M529.2,-291.08C526.52,-283.85 522.65,-273.41 519.31,-264.4"/>
<polygon fill="midnightblue" stroke="midnightblue" points="522.5,-262.91 515.74,-254.75 515.93,-265.34 522.5,-262.91"/>
</g>
<!-- Node22&#45;&gt;Node3 -->
<g id="edge40" class="edge">
<title>Node22&#45;&gt;Node3</title>
<path fill="none" stroke="midnightblue" d="M625.92,-179.32C641.04,-170.82 664.32,-157.73 681.97,-147.8"/>
<polygon fill="midnightblue" stroke="midnightblue" points="684.11,-150.61 691.11,-142.65 680.68,-144.51 684.11,-150.61"/>
</g>
<!-- Node23&#45;&gt;Node3 -->
<g id="edge42" class="edge">
<title>Node23&#45;&gt;Node3</title>
<path fill="none" stroke="midnightblue" d="M678.85,-235.37C683.72,-217.54 694.96,-176.3 701.52,-152.27"/>
<polygon fill="midnightblue" stroke="midnightblue" points="704.9,-153.16 704.16,-142.59 698.15,-151.32 704.9,-153.16"/>
</g>
<!-- Node24&#45;&gt;Node3 -->
<g id="edge44" class="edge">
<title>Node24&#45;&gt;Node3</title>
<path fill="none" stroke="midnightblue" d="M734.05,-179.08C729.49,-171.61 722.83,-160.72 717.21,-151.52"/>
<polygon fill="midnightblue" stroke="midnightblue" points="720.05,-149.46 711.85,-142.75 714.08,-153.11 720.05,-149.46"/>
</g>
<!-- Node25&#45;&gt;Node3 -->
<g id="edge46" class="edge">
<title>Node25&#45;&gt;Node3</title>
<path fill="none" stroke="midnightblue" d="M794.37,-235.14C793.76,-221.76 790.91,-196.13 778.5,-179 768.36,-165 752.39,-154.38 738.07,-146.98"/>
<polygon fill="midnightblue" stroke="midnightblue" points="739.5,-143.79 728.97,-142.58 736.45,-150.09 739.5,-143.79"/>
</g>
<!-- Node26&#45;&gt;Node3 -->
<g id="edge49" class="edge">
<title>Node26&#45;&gt;Node3</title>
<path fill="none" stroke="midnightblue" d="M832.73,-179.44C807.61,-170.4 767.79,-156.06 739.6,-145.92"/>
<polygon fill="midnightblue" stroke="midnightblue" points="740.75,-142.61 730.16,-142.52 738.38,-149.2 740.75,-142.61"/>
</g>
<!-- Node27&#45;&gt;Node3 -->
<g id="edge51" class="edge">
<title>Node27&#45;&gt;Node3</title>
<path fill="none" stroke="midnightblue" d="M316.76,-291.19C320.52,-268.39 333.91,-207.27 372.5,-179 418.54,-145.27 588.35,-136.82 666.57,-134.7"/>
<polygon fill="midnightblue" stroke="midnightblue" points="667.07,-138.19 676.98,-134.44 666.9,-131.19 667.07,-138.19"/>
</g>
<!-- Node27&#45;&gt;Node18 -->
<g id="edge52" class="edge">
<title>Node27&#45;&gt;Node18</title>
<path fill="none" stroke="midnightblue" d="M295.69,-291.44C275.21,-282.6 243.02,-268.69 219.64,-258.59"/>
<polygon fill="midnightblue" stroke="midnightblue" points="220.78,-255.27 210.21,-254.52 218.01,-261.7 220.78,-255.27"/>
</g>
<!-- Node28&#45;&gt;Node3 -->
<g id="edge54" class="edge">
<title>Node28&#45;&gt;Node3</title>
<path fill="none" stroke="midnightblue" d="M857.48,-291.22C878.1,-269.98 924.96,-214.98 896.5,-179 878.15,-155.79 796.46,-143.31 746.36,-137.72"/>
<polygon fill="midnightblue" stroke="midnightblue" points="746.5,-134.21 736.18,-136.63 745.75,-141.17 746.5,-134.21"/>
</g>
<!-- Node29&#45;&gt;Node3 -->
<g id="edge56" class="edge">
<title>Node29&#45;&gt;Node3</title>
<path fill="none" stroke="midnightblue" d="M953.55,-291.45C953.2,-269.29 949.02,-209.56 915.5,-179 891.14,-156.79 799.94,-143.73 746.4,-137.82"/>
<polygon fill="midnightblue" stroke="midnightblue" points="746.54,-134.32 736.22,-136.74 745.79,-141.28 746.54,-134.32"/>
</g>
<!-- Node30&#45;&gt;Node3 -->
<g id="edge58" class="edge">
<title>Node30&#45;&gt;Node3</title>
<path fill="none" stroke="midnightblue" d="M1045.18,-291.24C1030.9,-268.56 989.29,-207.7 937.5,-179 876.57,-145.24 794.34,-136.49 746.21,-134.41"/>
<polygon fill="midnightblue" stroke="midnightblue" points="746.3,-130.91 736.18,-134.05 746.05,-137.9 746.3,-130.91"/>
</g>
<!-- Node31&#45;&gt;Node3 -->
<g id="edge60" class="edge">
<title>Node31&#45;&gt;Node3</title>
<path fill="none" stroke="midnightblue" d="M1134.95,-291.26C1109.64,-268.62 1037.86,-207.85 966.5,-179 892.4,-149.04 798.53,-139.02 746.26,-135.67"/>
<polygon fill="midnightblue" stroke="midnightblue" points="746.26,-132.16 736.07,-135.07 745.85,-139.15 746.26,-132.16"/>
</g>
</g>
</svg>
