<?xml version="1.0" encoding="UTF-8" standalone="no"?>
<!DOCTYPE svg PUBLIC "-//W3C//DTD SVG 1.1//EN"
 "http://www.w3.org/Graphics/SVG/1.1/DTD/svg11.dtd">
<!-- Generated by graphviz version 2.43.0 (0)
 -->
<!-- Title: /home/ram/OmniTemplate/template.hpp Pages: 1 -->
<svg width="1413pt" height="498pt"
 viewBox="0.00 0.00 1412.50 498.00" xmlns="http://www.w3.org/2000/svg" xmlns:xlink="http://www.w3.org/1999/xlink">
<g id="graph0" class="graph" transform="scale(1 1) rotate(0) translate(4 494)">
<title>/home/ram/OmniTemplate/template.hpp</title>
<polygon fill="white" stroke="transparent" points="-4,4 -4,-494 1408.5,-494 1408.5,4 -4,4"/>
<!-- Node1 -->
<g id="node1" class="node">
<title>Node1</title>
<g id="a_node1"><a xlink:title=" ">
<polygon fill="#bfbfbf" stroke="black" points="661.5,-459.5 661.5,-489.5 805.5,-489.5 805.5,-459.5 661.5,-459.5"/>
<text text-anchor="start" x="669.5" y="-477.5" font-family="Helvetica,sans-Serif" font-size="10.00">/home/ram/OmniTemplate</text>
<text text-anchor="middle" x="733.5" y="-466.5" font-family="Helvetica,sans-Serif" font-size="10.00">/template.hpp</text>
</a>
</g>
</g>
<!-- Node2 -->
<g id="node2" class="node">
<title>Node2</title>
<g id="a_node2"><a xlink:href="2sat_8hpp.html" target="_top" xlink:title=" ">
<polygon fill="white" stroke="black" points="197,-403.5 197,-422.5 256,-422.5 256,-403.5 197,-403.5"/>
<text text-anchor="middle" x="226.5" y="-410.5" font-family="Helvetica,sans-Serif" font-size="10.00">2sat.hpp</text>
</a>
</g>
</g>
<!-- Node1&#45;&gt;Node2 -->
<g id="edge1" class="edge">
<title>Node1&#45;&gt;Node2</title>
<path fill="none" stroke="midnightblue" d="M661.45,-467.73C570.15,-459.95 408.1,-444.53 270.5,-423 269.06,-422.77 267.59,-422.53 266.1,-422.28"/>
<polygon fill="midnightblue" stroke="midnightblue" points="266.72,-418.83 256.25,-420.48 265.46,-425.72 266.72,-418.83"/>
</g>
<!-- Node3 -->
<g id="node3" class="node">
<title>Node3</title>
<g id="a_node3"><a xlink:href="core_8hpp.html" target="_top" xlink:title=" ">
<polygon fill="white" stroke="black" points="765,-179.5 765,-198.5 824,-198.5 824,-179.5 765,-179.5"/>
<text text-anchor="middle" x="794.5" y="-186.5" font-family="Helvetica,sans-Serif" font-size="10.00">core.hpp</text>
</a>
</g>
</g>
<!-- Node1&#45;&gt;Node3 -->
<g id="edge31" class="edge">
<title>Node1&#45;&gt;Node3</title>
<path fill="none" stroke="midnightblue" d="M661.48,-461.56C631.86,-454.07 598.48,-442.07 572.5,-423 496.04,-366.87 409.23,-306.55 471.5,-235 507.75,-193.34 676.31,-189.04 754.48,-189.36"/>
<polygon fill="midnightblue" stroke="midnightblue" points="754.87,-192.86 764.89,-189.43 754.92,-185.86 754.87,-192.86"/>
</g>
<!-- Node11 -->
<g id="node11" class="node">
<title>Node11</title>
<g id="a_node11"><a xlink:href="utility_8hpp.html" target="_top" xlink:title=" ">
<polygon fill="white" stroke="black" points="1128,-118 1128,-137 1193,-137 1193,-118 1128,-118"/>
<text text-anchor="middle" x="1160.5" y="-125" font-family="Helvetica,sans-Serif" font-size="10.00">utility.hpp</text>
</a>
</g>
</g>
<!-- Node1&#45;&gt;Node11 -->
<g id="edge66" class="edge">
<title>Node1&#45;&gt;Node11</title>
<path fill="none" stroke="midnightblue" d="M805.72,-471.52C961.96,-466.71 1321.03,-452.55 1367.5,-423 1395.55,-405.16 1404.5,-391.24 1404.5,-358 1404.5,-358 1404.5,-358 1404.5,-244 1404.5,-156.07 1273.44,-134.99 1203.43,-130"/>
<polygon fill="midnightblue" stroke="midnightblue" points="1203.35,-126.49 1193.15,-129.35 1202.91,-133.47 1203.35,-126.49"/>
</g>
<!-- Node12 -->
<g id="node12" class="node">
<title>Node12</title>
<g id="a_node12"><a xlink:href="graph__theory_8hpp.html" target="_top" xlink:title=" ">
<polygon fill="white" stroke="black" points="117,-347.5 117,-366.5 218,-366.5 218,-347.5 117,-347.5"/>
<text text-anchor="middle" x="167.5" y="-354.5" font-family="Helvetica,sans-Serif" font-size="10.00">graph_theory.hpp</text>
</a>
</g>
</g>
<!-- Node1&#45;&gt;Node12 -->
<g id="edge39" class="edge">
<title>Node1&#45;&gt;Node12</title>
<path fill="none" stroke="midnightblue" d="M661.41,-471.25C521.46,-466.25 223.52,-452.26 187.5,-423 173.92,-411.97 169.36,-391.92 167.93,-377"/>
<polygon fill="midnightblue" stroke="midnightblue" points="171.41,-376.6 167.35,-366.82 164.42,-377 171.41,-376.6"/>
</g>
<!-- Node13 -->
<g id="node13" class="node">
<title>Node13</title>
<g id="a_node13"><a xlink:href="dsu_8hpp.html" target="_top" xlink:title=" ">
<polygon fill="white" stroke="black" points="0,-291.5 0,-310.5 55,-310.5 55,-291.5 0,-291.5"/>
<text text-anchor="middle" x="27.5" y="-298.5" font-family="Helvetica,sans-Serif" font-size="10.00">dsu.hpp</text>
</a>
</g>
</g>
<!-- Node1&#45;&gt;Node13 -->
<g id="edge34" class="edge">
<title>Node1&#45;&gt;Node13</title>
<path fill="none" stroke="midnightblue" d="M661.28,-474.24C521.85,-474.58 221.32,-469.65 130.5,-423 85.26,-399.76 51.76,-347.24 36.56,-319.66"/>
<polygon fill="midnightblue" stroke="midnightblue" points="39.59,-317.91 31.79,-310.73 33.41,-321.2 39.59,-317.91"/>
</g>
<!-- Node14 -->
<g id="node14" class="node">
<title>Node14</title>
<g id="a_node14"><a xlink:href="linear__algebra_8hpp.html" target="_top" xlink:title=" ">
<polygon fill="white" stroke="black" points="73,-291.5 73,-310.5 180,-310.5 180,-291.5 73,-291.5"/>
<text text-anchor="middle" x="126.5" y="-298.5" font-family="Helvetica,sans-Serif" font-size="10.00">linear_algebra.hpp</text>
</a>
</g>
</g>
<!-- Node1&#45;&gt;Node14 -->
<g id="edge40" class="edge">
<title>Node1&#45;&gt;Node14</title>
<path fill="none" stroke="midnightblue" d="M661.49,-472.61C530.07,-470.09 256.92,-460.36 170.5,-423 136.11,-408.13 122.85,-401.18 107.5,-367 100.52,-351.47 107.52,-332.7 114.92,-319.34"/>
<polygon fill="midnightblue" stroke="midnightblue" points="117.98,-321.04 120.18,-310.68 111.99,-317.41 117.98,-321.04"/>
</g>
<!-- Node15 -->
<g id="node15" class="node">
<title>Node15</title>
<g id="a_node15"><a xlink:href="modulo_8hpp.html" target="_top" xlink:title=" ">
<polygon fill="white" stroke="black" points="274.5,-235.5 274.5,-254.5 348.5,-254.5 348.5,-235.5 274.5,-235.5"/>
<text text-anchor="middle" x="311.5" y="-242.5" font-family="Helvetica,sans-Serif" font-size="10.00">modulo.hpp</text>
</a>
</g>
</g>
<!-- Node1&#45;&gt;Node15 -->
<g id="edge45" class="edge">
<title>Node1&#45;&gt;Node15</title>
<path fill="none" stroke="midnightblue" d="M661.39,-469.18C574.67,-462.92 435.21,-449.09 390.5,-423 336.06,-391.23 323.94,-370.63 303.5,-311 298.32,-295.87 301.24,-277.75 304.93,-264.49"/>
<polygon fill="midnightblue" stroke="midnightblue" points="308.36,-265.26 308.05,-254.67 301.69,-263.14 308.36,-265.26"/>
</g>
<!-- Node16 -->
<g id="node16" class="node">
<title>Node16</title>
<g id="a_node16"><a xlink:href="big__integer_8hpp.html" target="_top" xlink:title=" ">
<polygon fill="white" stroke="black" points="368.5,-347.5 368.5,-366.5 460.5,-366.5 460.5,-347.5 368.5,-347.5"/>
<text text-anchor="middle" x="414.5" y="-354.5" font-family="Helvetica,sans-Serif" font-size="10.00">big_integer.hpp</text>
</a>
</g>
</g>
<!-- Node1&#45;&gt;Node16 -->
<g id="edge24" class="edge">
<title>Node1&#45;&gt;Node16</title>
<path fill="none" stroke="midnightblue" d="M661.23,-471.42C606.86,-467.11 532.11,-455.15 474.5,-423 453.84,-411.47 436.32,-390.29 425.64,-375.24"/>
<polygon fill="midnightblue" stroke="midnightblue" points="428.43,-373.1 419.91,-366.8 422.64,-377.04 428.43,-373.1"/>
</g>
<!-- Node17 -->
<g id="node17" class="node">
<title>Node17</title>
<g id="a_node17"><a xlink:href="bit_8hpp.html" target="_top" xlink:title=" ">
<polygon fill="white" stroke="black" points="1316.5,-235.5 1316.5,-254.5 1366.5,-254.5 1366.5,-235.5 1316.5,-235.5"/>
<text text-anchor="middle" x="1341.5" y="-242.5" font-family="Helvetica,sans-Serif" font-size="10.00">bit.hpp</text>
</a>
</g>
</g>
<!-- Node1&#45;&gt;Node17 -->
<g id="edge26" class="edge">
<title>Node1&#45;&gt;Node17</title>
<path fill="none" stroke="midnightblue" d="M805.78,-472.92C960.06,-470.92 1310.51,-462.08 1346.5,-423 1386.89,-379.15 1363.21,-300.15 1349.36,-264.43"/>
<polygon fill="midnightblue" stroke="midnightblue" points="1352.46,-262.77 1345.46,-254.82 1345.98,-265.4 1352.46,-262.77"/>
</g>
<!-- Node18 -->
<g id="node18" class="node">
<title>Node18</title>
<g id="a_node18"><a xlink:href="combinatorics_8hpp.html" target="_top" xlink:title=" ">
<polygon fill="white" stroke="black" points="481,-235.5 481,-254.5 588,-254.5 588,-235.5 481,-235.5"/>
<text text-anchor="middle" x="534.5" y="-242.5" font-family="Helvetica,sans-Serif" font-size="10.00">combinatorics.hpp</text>
</a>
</g>
</g>
<!-- Node1&#45;&gt;Node18 -->
<g id="edge29" class="edge">
<title>Node1&#45;&gt;Node18</title>
<path fill="none" stroke="midnightblue" d="M680.44,-459.5C635.76,-444.61 574.61,-416.24 545.5,-367 526.6,-335.04 528.49,-289.82 531.52,-264.68"/>
<polygon fill="midnightblue" stroke="midnightblue" points="535,-265.06 532.92,-254.67 528.07,-264.09 535,-265.06"/>
</g>
<!-- Node19 -->
<g id="node19" class="node">
<title>Node19</title>
<g id="a_node19"><a xlink:href="coroutine_8hpp.html" target="_top" xlink:title=" ">
<polygon fill="white" stroke="black" points="555,-347.5 555,-366.5 638,-366.5 638,-347.5 555,-347.5"/>
<text text-anchor="middle" x="596.5" y="-354.5" font-family="Helvetica,sans-Serif" font-size="10.00">coroutine.hpp</text>
</a>
</g>
</g>
<!-- Node1&#45;&gt;Node19 -->
<g id="edge32" class="edge">
<title>Node1&#45;&gt;Node19</title>
<path fill="none" stroke="midnightblue" d="M706.59,-459.45C690.13,-450.22 669.11,-437.23 652.5,-423 635.61,-408.53 619.38,-388.83 608.78,-374.92"/>
<polygon fill="midnightblue" stroke="midnightblue" points="611.45,-372.66 602.67,-366.73 605.84,-376.84 611.45,-372.66"/>
</g>
<!-- Node20 -->
<g id="node20" class="node">
<title>Node20</title>
<g id="a_node20"><a xlink:href="fft_8hpp.html" target="_top" xlink:title=" ">
<polygon fill="white" stroke="black" points="636,-291.5 636,-310.5 685,-310.5 685,-291.5 636,-291.5"/>
<text text-anchor="middle" x="660.5" y="-298.5" font-family="Helvetica,sans-Serif" font-size="10.00">fft.hpp</text>
</a>
</g>
</g>
<!-- Node1&#45;&gt;Node20 -->
<g id="edge35" class="edge">
<title>Node1&#45;&gt;Node20</title>
<path fill="none" stroke="midnightblue" d="M718.31,-459.38C709,-449.92 697.55,-436.73 690.5,-423 673.27,-389.42 665.59,-345.44 662.45,-320.82"/>
<polygon fill="midnightblue" stroke="midnightblue" points="665.9,-320.22 661.28,-310.69 658.95,-321.02 665.9,-320.22"/>
</g>
<!-- Node21 -->
<g id="node21" class="node">
<title>Node21</title>
<g id="a_node21"><a xlink:href="geometry_8hpp.html" target="_top" xlink:title=" ">
<polygon fill="white" stroke="black" points="683,-235.5 683,-254.5 766,-254.5 766,-235.5 683,-235.5"/>
<text text-anchor="middle" x="724.5" y="-242.5" font-family="Helvetica,sans-Serif" font-size="10.00">geometry.hpp</text>
</a>
</g>
</g>
<!-- Node1&#45;&gt;Node21 -->
<g id="edge37" class="edge">
<title>Node1&#45;&gt;Node21</title>
<path fill="none" stroke="midnightblue" d="M729.95,-459.46C727.6,-449.39 724.72,-435.45 723.5,-423 717.86,-365.53 721.04,-297.05 723.13,-264.7"/>
<polygon fill="midnightblue" stroke="midnightblue" points="726.64,-264.72 723.83,-254.5 719.65,-264.24 726.64,-264.72"/>
</g>
<!-- Node22 -->
<g id="node22" class="node">
<title>Node22</title>
<g id="a_node22"><a xlink:href="main_8hpp.html" target="_top" xlink:title=" ">
<polygon fill="white" stroke="black" points="732.5,-403.5 732.5,-422.5 794.5,-422.5 794.5,-403.5 732.5,-403.5"/>
<text text-anchor="middle" x="763.5" y="-410.5" font-family="Helvetica,sans-Serif" font-size="10.00">main.hpp</text>
</a>
</g>
</g>
<!-- Node1&#45;&gt;Node22 -->
<g id="edge41" class="edge">
<title>Node1&#45;&gt;Node22</title>
<path fill="none" stroke="midnightblue" d="M740.61,-459.4C744.79,-451.11 750.11,-440.55 754.57,-431.71"/>
<polygon fill="midnightblue" stroke="midnightblue" points="757.76,-433.16 759.13,-422.66 751.51,-430.01 757.76,-433.16"/>
</g>
<!-- Node23 -->
<g id="node23" class="node">
<title>Node23</title>
<g id="a_node23"><a xlink:href="time_8hpp.html" target="_top" xlink:title=" ">
<polygon fill="white" stroke="black" points="770.5,-347.5 770.5,-366.5 830.5,-366.5 830.5,-347.5 770.5,-347.5"/>
<text text-anchor="middle" x="800.5" y="-354.5" font-family="Helvetica,sans-Serif" font-size="10.00">time.hpp</text>
</a>
</g>
</g>
<!-- Node1&#45;&gt;Node23 -->
<g id="edge61" class="edge">
<title>Node1&#45;&gt;Node23</title>
<path fill="none" stroke="midnightblue" d="M764.84,-459.44C779.42,-451.11 795.31,-439.01 803.5,-423 810.82,-408.7 809.08,-390.23 806.09,-376.64"/>
<polygon fill="midnightblue" stroke="midnightblue" points="809.37,-375.35 803.45,-366.57 802.6,-377.13 809.37,-375.35"/>
</g>
<!-- Node24 -->
<g id="node24" class="node">
<title>Node24</title>
<g id="a_node24"><a xlink:href="number__theory_8hpp.html" target="_top" xlink:title=" ">
<polygon fill="white" stroke="black" points="312.5,-291.5 312.5,-310.5 422.5,-310.5 422.5,-291.5 312.5,-291.5"/>
<text text-anchor="middle" x="367.5" y="-298.5" font-family="Helvetica,sans-Serif" font-size="10.00">number_theory.hpp</text>
</a>
</g>
</g>
<!-- Node1&#45;&gt;Node24 -->
<g id="edge46" class="edge">
<title>Node1&#45;&gt;Node24</title>
<path fill="none" stroke="midnightblue" d="M661.49,-468.78C602.12,-463.03 516.58,-450.43 446.5,-423 403.68,-406.24 381.52,-407.37 359.5,-367 351.68,-352.67 355.15,-333.96 359.71,-320.3"/>
<polygon fill="midnightblue" stroke="midnightblue" points="363.11,-321.19 363.4,-310.6 356.57,-318.7 363.11,-321.19"/>
</g>
<!-- Node25 -->
<g id="node25" class="node">
<title>Node25</title>
<g id="a_node25"><a xlink:href="permutation_8hpp.html" target="_top" xlink:title=" ">
<polygon fill="white" stroke="black" points="848.5,-347.5 848.5,-366.5 946.5,-366.5 946.5,-347.5 848.5,-347.5"/>
<text text-anchor="middle" x="897.5" y="-354.5" font-family="Helvetica,sans-Serif" font-size="10.00">permutation.hpp</text>
</a>
</g>
</g>
<!-- Node1&#45;&gt;Node25 -->
<g id="edge49" class="edge">
<title>Node1&#45;&gt;Node25</title>
<path fill="none" stroke="midnightblue" d="M760.52,-459.42C778.08,-449.88 801.22,-436.57 820.5,-423 842.47,-407.53 865.79,-387.23 880.93,-373.46"/>
<polygon fill="midnightblue" stroke="midnightblue" points="883.45,-375.9 888.44,-366.56 878.71,-370.75 883.45,-375.9"/>
</g>
<!-- Node26 -->
<g id="node26" class="node">
<title>Node26</title>
<g id="a_node26"><a xlink:href="persistent_8hpp.html" target="_top" xlink:title=" ">
<polygon fill="white" stroke="black" points="898.5,-291.5 898.5,-310.5 984.5,-310.5 984.5,-291.5 898.5,-291.5"/>
<text text-anchor="middle" x="941.5" y="-298.5" font-family="Helvetica,sans-Serif" font-size="10.00">persistent.hpp</text>
</a>
</g>
</g>
<!-- Node1&#45;&gt;Node26 -->
<g id="edge51" class="edge">
<title>Node1&#45;&gt;Node26</title>
<path fill="none" stroke="midnightblue" d="M805.7,-460.31C857.51,-446.63 923.58,-419.51 955.5,-367 964.28,-352.55 958.43,-333.36 951.82,-319.58"/>
<polygon fill="midnightblue" stroke="midnightblue" points="954.86,-317.84 947.07,-310.65 948.68,-321.13 954.86,-317.84"/>
</g>
<!-- Node27 -->
<g id="node27" class="node">
<title>Node27</title>
<g id="a_node27"><a xlink:href="queue_8hpp.html" target="_top" xlink:title=" ">
<polygon fill="white" stroke="black" points="962.5,-235.5 962.5,-254.5 1030.5,-254.5 1030.5,-235.5 962.5,-235.5"/>
<text text-anchor="middle" x="996.5" y="-242.5" font-family="Helvetica,sans-Serif" font-size="10.00">queue.hpp</text>
</a>
</g>
</g>
<!-- Node1&#45;&gt;Node27 -->
<g id="edge53" class="edge">
<title>Node1&#45;&gt;Node27</title>
<path fill="none" stroke="midnightblue" d="M805.66,-464.93C843.27,-457.96 888.76,-445.42 924.5,-423 974.03,-391.93 981.74,-368.27 993.5,-311 996.66,-295.59 997.27,-277.72 997.17,-264.62"/>
<polygon fill="midnightblue" stroke="midnightblue" points="1000.67,-264.44 996.94,-254.52 993.67,-264.59 1000.67,-264.44"/>
</g>
<!-- Node28 -->
<g id="node28" class="node">
<title>Node28</title>
<g id="a_node28"><a xlink:href="segment__tree_8hpp.html" target="_top" xlink:title=" ">
<polygon fill="white" stroke="black" points="1041,-347.5 1041,-366.5 1146,-366.5 1146,-347.5 1041,-347.5"/>
<text text-anchor="middle" x="1093.5" y="-354.5" font-family="Helvetica,sans-Serif" font-size="10.00">segment_tree.hpp</text>
</a>
</g>
</g>
<!-- Node1&#45;&gt;Node28 -->
<g id="edge55" class="edge">
<title>Node1&#45;&gt;Node28</title>
<path fill="none" stroke="midnightblue" d="M805.57,-472.83C867.27,-469.59 956.91,-458.39 1026.5,-423 1048.96,-411.58 1068.85,-390.05 1081.01,-374.91"/>
<polygon fill="midnightblue" stroke="midnightblue" points="1083.89,-376.91 1087.24,-366.86 1078.35,-372.63 1083.89,-376.91"/>
</g>
<!-- Node29 -->
<g id="node29" class="node">
<title>Node29</title>
<g id="a_node29"><a xlink:href="splay__tree_8hpp.html" target="_top" xlink:title=" ">
<polygon fill="white" stroke="black" points="1095,-291.5 1095,-310.5 1184,-310.5 1184,-291.5 1095,-291.5"/>
<text text-anchor="middle" x="1139.5" y="-298.5" font-family="Helvetica,sans-Serif" font-size="10.00">splay_tree.hpp</text>
</a>
</g>
</g>
<!-- Node1&#45;&gt;Node29 -->
<g id="edge57" class="edge">
<title>Node1&#45;&gt;Node29</title>
<path fill="none" stroke="midnightblue" d="M805.7,-469.45C871.95,-464.04 972,-451.56 1054.5,-423 1078.57,-414.67 1141.62,-388.97 1154.5,-367 1163.08,-352.37 1156.93,-333.2 1150.1,-319.48"/>
<polygon fill="midnightblue" stroke="midnightblue" points="1153.1,-317.67 1145.21,-310.6 1146.97,-321.04 1153.1,-317.67"/>
</g>
<!-- Node30 -->
<g id="node30" class="node">
<title>Node30</title>
<g id="a_node30"><a xlink:href="string_8hpp.html" target="_top" xlink:title=" ">
<polygon fill="white" stroke="black" points="1117,-403.5 1117,-422.5 1182,-422.5 1182,-403.5 1117,-403.5"/>
<text text-anchor="middle" x="1149.5" y="-410.5" font-family="Helvetica,sans-Serif" font-size="10.00">string.hpp</text>
</a>
</g>
</g>
<!-- Node1&#45;&gt;Node30 -->
<g id="edge59" class="edge">
<title>Node1&#45;&gt;Node30</title>
<path fill="none" stroke="midnightblue" d="M805.79,-464.76C880.31,-455.48 999.77,-439.85 1102.5,-423 1103.96,-422.76 1105.44,-422.51 1106.94,-422.25"/>
<polygon fill="midnightblue" stroke="midnightblue" points="1107.7,-425.67 1116.92,-420.47 1106.46,-418.78 1107.7,-425.67"/>
</g>
<!-- Node31 -->
<g id="node31" class="node">
<title>Node31</title>
<g id="a_node31"><a xlink:href="treap_8hpp.html" target="_top" xlink:title=" ">
<polygon fill="white" stroke="black" points="1200,-403.5 1200,-422.5 1263,-422.5 1263,-403.5 1200,-403.5"/>
<text text-anchor="middle" x="1231.5" y="-410.5" font-family="Helvetica,sans-Serif" font-size="10.00">treap.hpp</text>
</a>
</g>
</g>
<!-- Node1&#45;&gt;Node31 -->
<g id="edge62" class="edge">
<title>Node1&#45;&gt;Node31</title>
<path fill="none" stroke="midnightblue" d="M805.85,-467.89C894.11,-460.51 1047.99,-445.93 1189.61,-422.98"/>
<polygon fill="midnightblue" stroke="midnightblue" points="1190.48,-426.38 1199.78,-421.31 1189.35,-419.47 1190.48,-426.38"/>
</g>
<!-- Node32 -->
<g id="node32" class="node">
<title>Node32</title>
<g id="a_node32"><a xlink:href="tree_8hpp.html" target="_top" xlink:title=" ">
<polygon fill="white" stroke="black" points="1281,-403.5 1281,-422.5 1338,-422.5 1338,-403.5 1281,-403.5"/>
<text text-anchor="middle" x="1309.5" y="-410.5" font-family="Helvetica,sans-Serif" font-size="10.00">tree.hpp</text>
</a>
</g>
</g>
<!-- Node1&#45;&gt;Node32 -->
<g id="edge64" class="edge">
<title>Node1&#45;&gt;Node32</title>
<path fill="none" stroke="midnightblue" d="M805.7,-469.92C907.37,-464.16 1098.58,-450.75 1270.94,-422.85"/>
<polygon fill="midnightblue" stroke="midnightblue" points="1271.65,-426.28 1280.95,-421.21 1270.52,-419.37 1271.65,-426.28"/>
</g>
<!-- Node2&#45;&gt;Node3 -->
<g id="edge2" class="edge">
<title>Node2&#45;&gt;Node3</title>
<path fill="none" stroke="midnightblue" d="M227.08,-403.4C229.47,-371.1 239.58,-257.7 265.5,-235 302.06,-202.98 637.46,-193.17 754.46,-190.72"/>
<polygon fill="midnightblue" stroke="midnightblue" points="754.84,-194.21 764.76,-190.51 754.69,-187.21 754.84,-194.21"/>
</g>
<!-- Node2&#45;&gt;Node12 -->
<g id="edge16" class="edge">
<title>Node2&#45;&gt;Node12</title>
<path fill="none" stroke="midnightblue" d="M217.02,-403.32C208.3,-395.34 195.16,-383.31 184.6,-373.65"/>
<polygon fill="midnightblue" stroke="midnightblue" points="186.89,-371 177.15,-366.83 182.17,-376.17 186.89,-371"/>
</g>
<!-- Node4 -->
<g id="node4" class="node">
<title>Node4</title>
<g id="a_node4"><a xlink:title=" ">
<polygon fill="white" stroke="#bfbfbf" points="956,-118 956,-137 1039,-137 1039,-118 956,-118"/>
<text text-anchor="middle" x="997.5" y="-125" font-family="Helvetica,sans-Serif" font-size="10.00">bits/stdc++.h</text>
</a>
</g>
</g>
<!-- Node3&#45;&gt;Node4 -->
<g id="edge3" class="edge">
<title>Node3&#45;&gt;Node4</title>
<path fill="none" stroke="midnightblue" d="M823.58,-179.48C859.08,-169.07 919.25,-151.44 958.67,-139.88"/>
<polygon fill="midnightblue" stroke="midnightblue" points="959.86,-143.18 968.47,-137.01 957.89,-136.46 959.86,-143.18"/>
</g>
<!-- Node5 -->
<g id="node5" class="node">
<title>Node5</title>
<g id="a_node5"><a xlink:title=" ">
<polygon fill="white" stroke="#bfbfbf" points="436,-118 436,-137 557,-137 557,-118 436,-118"/>
<text text-anchor="middle" x="496.5" y="-125" font-family="Helvetica,sans-Serif" font-size="10.00">experimental/iterator</text>
</a>
</g>
</g>
<!-- Node3&#45;&gt;Node5 -->
<g id="edge4" class="edge">
<title>Node3&#45;&gt;Node5</title>
<path fill="none" stroke="midnightblue" d="M764.83,-182.3C721.15,-173.87 636.97,-157.53 565.5,-143 559.36,-141.75 552.92,-140.42 546.54,-139.1"/>
<polygon fill="midnightblue" stroke="midnightblue" points="547.12,-135.64 536.62,-137.02 545.69,-142.49 547.12,-135.64"/>
</g>
<!-- Node6 -->
<g id="node6" class="node">
<title>Node6</title>
<g id="a_node6"><a xlink:title=" ">
<polygon fill="white" stroke="#bfbfbf" points="575,-112.5 575,-142.5 692,-142.5 692,-112.5 575,-112.5"/>
<text text-anchor="start" x="583" y="-130.5" font-family="Helvetica,sans-Serif" font-size="10.00">experimental/source</text>
<text text-anchor="middle" x="633.5" y="-119.5" font-family="Helvetica,sans-Serif" font-size="10.00">_location</text>
</a>
</g>
</g>
<!-- Node3&#45;&gt;Node6 -->
<g id="edge5" class="edge">
<title>Node3&#45;&gt;Node6</title>
<path fill="none" stroke="midnightblue" d="M771.43,-179.48C747.9,-170.78 710.69,-157.03 680.85,-146"/>
<polygon fill="midnightblue" stroke="midnightblue" points="682.04,-142.71 671.44,-142.52 679.61,-149.27 682.04,-142.71"/>
</g>
<!-- Node7 -->
<g id="node7" class="node">
<title>Node7</title>
<g id="a_node7"><a xlink:href="io_8hpp.html" target="_top" xlink:title=" ">
<polygon fill="white" stroke="black" points="710,-118 710,-137 757,-137 757,-118 710,-118"/>
<text text-anchor="middle" x="733.5" y="-125" font-family="Helvetica,sans-Serif" font-size="10.00">io.hpp</text>
</a>
</g>
</g>
<!-- Node3&#45;&gt;Node7 -->
<g id="edge6" class="edge">
<title>Node3&#45;&gt;Node7</title>
<path fill="none" stroke="midnightblue" d="M785.76,-179.48C776.34,-170.28 761.14,-155.46 749.55,-144.16"/>
<polygon fill="midnightblue" stroke="midnightblue" points="751.83,-141.49 742.22,-137.01 746.94,-146.5 751.83,-141.49"/>
</g>
<!-- Node8 -->
<g id="node8" class="node">
<title>Node8</title>
<g id="a_node8"><a xlink:href="debug_8hpp.html" target="_top" xlink:title=" ">
<polygon fill="white" stroke="black" points="831.5,-118 831.5,-137 899.5,-137 899.5,-118 831.5,-118"/>
<text text-anchor="middle" x="865.5" y="-125" font-family="Helvetica,sans-Serif" font-size="10.00">debug.hpp</text>
</a>
</g>
</g>
<!-- Node3&#45;&gt;Node8 -->
<g id="edge7" class="edge">
<title>Node3&#45;&gt;Node8</title>
<path fill="none" stroke="midnightblue" d="M804.67,-179.48C815.85,-170.11 834.02,-154.88 847.59,-143.51"/>
<polygon fill="midnightblue" stroke="midnightblue" points="849.93,-146.11 855.35,-137.01 845.43,-140.75 849.93,-146.11"/>
</g>
<!-- Node9 -->
<g id="node9" class="node">
<title>Node9</title>
<g id="a_node9"><a xlink:href="operations_8hpp.html" target="_top" xlink:title=" ">
<polygon fill="white" stroke="black" points="876,-56.5 876,-75.5 965,-75.5 965,-56.5 876,-56.5"/>
<text text-anchor="middle" x="920.5" y="-63.5" font-family="Helvetica,sans-Serif" font-size="10.00">operations.hpp</text>
</a>
</g>
</g>
<!-- Node3&#45;&gt;Node9 -->
<g id="edge12" class="edge">
<title>Node3&#45;&gt;Node9</title>
<path fill="none" stroke="midnightblue" d="M824.1,-184.53C850.43,-179.8 887.87,-168.73 908.5,-143 921.4,-126.91 923.1,-102.59 922.43,-85.81"/>
<polygon fill="midnightblue" stroke="midnightblue" points="925.9,-85.32 921.68,-75.6 918.92,-85.83 925.9,-85.32"/>
</g>
<!-- Node10 -->
<g id="node10" class="node">
<title>Node10</title>
<g id="a_node10"><a xlink:href="range_8hpp.html" target="_top" xlink:title=" ">
<polygon fill="white" stroke="black" points="815,-0.5 815,-19.5 880,-19.5 880,-0.5 815,-0.5"/>
<text text-anchor="middle" x="847.5" y="-7.5" font-family="Helvetica,sans-Serif" font-size="10.00">range.hpp</text>
</a>
</g>
</g>
<!-- Node3&#45;&gt;Node10 -->
<g id="edge13" class="edge">
<title>Node3&#45;&gt;Node10</title>
<path fill="none" stroke="midnightblue" d="M793.95,-179.46C797.69,-152.19 822.87,-66.78 837.78,-29.13"/>
<polygon fill="midnightblue" stroke="midnightblue" points="841.02,-30.44 841.68,-19.87 834.57,-27.72 841.02,-30.44"/>
</g>
<!-- Node3&#45;&gt;Node11 -->
<g id="edge14" class="edge">
<title>Node3&#45;&gt;Node11</title>
<path fill="none" stroke="midnightblue" d="M824.14,-183.18C888.83,-172.66 1042.86,-147.62 1117.92,-135.42"/>
<polygon fill="midnightblue" stroke="midnightblue" points="1118.66,-138.85 1127.97,-133.79 1117.54,-131.94 1118.66,-138.85"/>
</g>
<!-- Node8&#45;&gt;Node9 -->
<g id="edge8" class="edge">
<title>Node8&#45;&gt;Node9</title>
<path fill="none" stroke="midnightblue" d="M873.38,-117.98C881.79,-108.87 895.32,-94.24 905.73,-82.98"/>
<polygon fill="midnightblue" stroke="midnightblue" points="908.42,-85.23 912.63,-75.51 903.28,-80.48 908.42,-85.23"/>
</g>
<!-- Node8&#45;&gt;Node10 -->
<g id="edge11" class="edge">
<title>Node8&#45;&gt;Node10</title>
<path fill="none" stroke="midnightblue" d="M864.15,-117.82C861.25,-99.26 854.41,-55.34 850.46,-29.97"/>
<polygon fill="midnightblue" stroke="midnightblue" points="853.87,-29.12 848.87,-19.78 846.95,-30.2 853.87,-29.12"/>
</g>
<!-- Node9&#45;&gt;Node10 -->
<g id="edge9" class="edge">
<title>Node9&#45;&gt;Node10</title>
<path fill="none" stroke="midnightblue" d="M908.77,-56.32C897.66,-48.11 880.76,-35.6 867.52,-25.81"/>
<polygon fill="midnightblue" stroke="midnightblue" points="869.56,-22.97 859.44,-19.83 865.4,-28.59 869.56,-22.97"/>
</g>
<!-- Node10&#45;&gt;Node3 -->
<g id="edge10" class="edge">
<title>Node10&#45;&gt;Node3</title>
<path fill="none" stroke="midnightblue" d="M848.01,-19.87C844.11,-47.48 819.08,-132.32 804.23,-169.84"/>
<polygon fill="midnightblue" stroke="midnightblue" points="800.84,-168.89 800.17,-179.46 807.28,-171.61 800.84,-168.89"/>
</g>
<!-- Node11&#45;&gt;Node10 -->
<g id="edge15" class="edge">
<title>Node11&#45;&gt;Node10</title>
<path fill="none" stroke="midnightblue" d="M1138.1,-117.91C1103.05,-104.5 1033.11,-77.88 973.5,-56 942.31,-44.55 906.65,-31.85 881.24,-22.87"/>
<polygon fill="midnightblue" stroke="midnightblue" points="882.3,-19.53 871.7,-19.5 879.96,-26.13 882.3,-19.53"/>
</g>
<!-- Node12&#45;&gt;Node3 -->
<g id="edge17" class="edge">
<title>Node12&#45;&gt;Node3</title>
<path fill="none" stroke="midnightblue" d="M171.49,-347.49C183.93,-321.1 221.87,-241.95 232.5,-235 275.95,-206.61 633.17,-194.37 754.42,-191.01"/>
<polygon fill="midnightblue" stroke="midnightblue" points="754.84,-194.5 764.74,-190.73 754.65,-187.5 754.84,-194.5"/>
</g>
<!-- Node12&#45;&gt;Node13 -->
<g id="edge18" class="edge">
<title>Node12&#45;&gt;Node13</title>
<path fill="none" stroke="midnightblue" d="M145.32,-347.44C122.07,-338.48 85.35,-324.31 59.08,-314.18"/>
<polygon fill="midnightblue" stroke="midnightblue" points="60.17,-310.85 49.58,-310.52 57.65,-317.38 60.17,-310.85"/>
</g>
<!-- Node12&#45;&gt;Node14 -->
<g id="edge20" class="edge">
<title>Node12&#45;&gt;Node14</title>
<path fill="none" stroke="midnightblue" d="M160.73,-347.08C154.94,-339.46 146.44,-328.26 139.36,-318.94"/>
<polygon fill="midnightblue" stroke="midnightblue" points="141.98,-316.6 133.14,-310.75 136.4,-320.83 141.98,-316.6"/>
</g>
<!-- Node13&#45;&gt;Node3 -->
<g id="edge19" class="edge">
<title>Node13&#45;&gt;Node3</title>
<path fill="none" stroke="midnightblue" d="M40.9,-291.34C64.29,-276.73 114.54,-247.56 161.5,-235 274.24,-204.85 633.9,-193.78 754.58,-190.86"/>
<polygon fill="midnightblue" stroke="midnightblue" points="754.93,-194.36 764.84,-190.62 754.76,-187.36 754.93,-194.36"/>
</g>
<!-- Node14&#45;&gt;Node3 -->
<g id="edge21" class="edge">
<title>Node14&#45;&gt;Node3</title>
<path fill="none" stroke="midnightblue" d="M132.41,-291.32C142.93,-276.69 166.45,-247.49 194.5,-235 295.14,-190.2 637.22,-188.67 754.59,-189.53"/>
<polygon fill="midnightblue" stroke="midnightblue" points="754.88,-193.03 764.91,-189.61 754.94,-186.03 754.88,-193.03"/>
</g>
<!-- Node14&#45;&gt;Node15 -->
<g id="edge22" class="edge">
<title>Node14&#45;&gt;Node15</title>
<path fill="none" stroke="midnightblue" d="M155.81,-291.44C187.34,-282.24 237.63,-267.56 272.49,-257.39"/>
<polygon fill="midnightblue" stroke="midnightblue" points="273.7,-260.68 282.32,-254.52 271.74,-253.96 273.7,-260.68"/>
</g>
<!-- Node15&#45;&gt;Node3 -->
<g id="edge23" class="edge">
<title>Node15&#45;&gt;Node3</title>
<path fill="none" stroke="midnightblue" d="M348.78,-237.11C353.39,-236.35 358.05,-235.62 362.5,-235 506.39,-214.84 678.42,-199.53 754.7,-193.2"/>
<polygon fill="midnightblue" stroke="midnightblue" points="755.14,-196.67 764.82,-192.36 754.57,-189.7 755.14,-196.67"/>
</g>
<!-- Node16&#45;&gt;Node3 -->
<g id="edge25" class="edge">
<title>Node16&#45;&gt;Node3</title>
<path fill="none" stroke="midnightblue" d="M418.61,-347.25C422.61,-338.34 428.5,-324.02 431.5,-311 439.12,-277.95 414.92,-259.39 438.5,-235 460.21,-212.54 666.48,-197.65 754.74,-192.25"/>
<polygon fill="midnightblue" stroke="midnightblue" points="755.13,-195.74 764.9,-191.64 754.71,-188.75 755.13,-195.74"/>
</g>
<!-- Node17&#45;&gt;Node3 -->
<g id="edge27" class="edge">
<title>Node17&#45;&gt;Node3</title>
<path fill="none" stroke="midnightblue" d="M1316.42,-237.68C1311.82,-236.67 1307.03,-235.72 1302.5,-235 1129.37,-207.49 920.18,-195.62 834.26,-191.65"/>
<polygon fill="midnightblue" stroke="midnightblue" points="834.31,-188.15 824.17,-191.19 834,-195.14 834.31,-188.15"/>
</g>
<!-- Node17&#45;&gt;Node11 -->
<g id="edge28" class="edge">
<title>Node17&#45;&gt;Node11</title>
<path fill="none" stroke="midnightblue" d="M1327.9,-235.32C1296.97,-215.59 1221.15,-167.2 1183.08,-142.91"/>
<polygon fill="midnightblue" stroke="midnightblue" points="1184.57,-139.71 1174.26,-137.28 1180.81,-145.61 1184.57,-139.71"/>
</g>
<!-- Node18&#45;&gt;Node3 -->
<g id="edge30" class="edge">
<title>Node18&#45;&gt;Node3</title>
<path fill="none" stroke="midnightblue" d="M575.7,-235.44C624.89,-225.23 706.59,-208.26 755.01,-198.2"/>
<polygon fill="midnightblue" stroke="midnightblue" points="755.74,-201.63 764.82,-196.16 754.31,-194.77 755.74,-201.63"/>
</g>
<!-- Node19&#45;&gt;Node3 -->
<g id="edge33" class="edge">
<title>Node19&#45;&gt;Node3</title>
<path fill="none" stroke="midnightblue" d="M598.5,-347.45C604.12,-325.29 622.27,-265.58 660.5,-235 687.73,-213.23 726,-201.76 754.67,-195.87"/>
<polygon fill="midnightblue" stroke="midnightblue" points="755.6,-199.26 764.76,-193.94 754.29,-192.38 755.6,-199.26"/>
</g>
<!-- Node20&#45;&gt;Node3 -->
<g id="edge36" class="edge">
<title>Node20&#45;&gt;Node3</title>
<path fill="none" stroke="midnightblue" d="M659.75,-291.29C659.06,-277.64 659.76,-251.11 673.5,-235 693.87,-211.11 728.19,-199.89 755.08,-194.63"/>
<polygon fill="midnightblue" stroke="midnightblue" points="755.74,-198.07 764.98,-192.89 754.53,-191.17 755.74,-198.07"/>
</g>
<!-- Node21&#45;&gt;Node3 -->
<g id="edge38" class="edge">
<title>Node21&#45;&gt;Node3</title>
<path fill="none" stroke="midnightblue" d="M735.75,-235.32C746.3,-227.18 762.3,-214.84 774.94,-205.09"/>
<polygon fill="midnightblue" stroke="midnightblue" points="777.27,-207.71 783.05,-198.83 772.99,-202.17 777.27,-207.71"/>
</g>
<!-- Node22&#45;&gt;Node3 -->
<g id="edge42" class="edge">
<title>Node22&#45;&gt;Node3</title>
<path fill="none" stroke="midnightblue" d="M763,-403.38C762.51,-394.32 761.78,-379.67 761.5,-367 761.3,-358.11 760.58,-355.84 761.5,-347 766.76,-296.37 781.33,-238.02 789.23,-208.77"/>
<polygon fill="midnightblue" stroke="midnightblue" points="792.71,-209.32 791.99,-198.75 785.96,-207.46 792.71,-209.32"/>
</g>
<!-- Node22&#45;&gt;Node23 -->
<g id="edge43" class="edge">
<title>Node22&#45;&gt;Node23</title>
<path fill="none" stroke="midnightblue" d="M769.61,-403.08C774.78,-395.53 782.35,-384.49 788.69,-375.23"/>
<polygon fill="midnightblue" stroke="midnightblue" points="791.74,-376.98 794.5,-366.75 785.96,-373.02 791.74,-376.98"/>
</g>
<!-- Node23&#45;&gt;Node3 -->
<g id="edge44" class="edge">
<title>Node23&#45;&gt;Node3</title>
<path fill="none" stroke="midnightblue" d="M802.33,-347.44C806.3,-327.57 814.86,-276.84 808.5,-235 807.13,-226 804.31,-216.33 801.55,-208.26"/>
<polygon fill="midnightblue" stroke="midnightblue" points="804.81,-206.98 798.1,-198.78 798.23,-209.37 804.81,-206.98"/>
</g>
<!-- Node24&#45;&gt;Node3 -->
<g id="edge47" class="edge">
<title>Node24&#45;&gt;Node3</title>
<path fill="none" stroke="midnightblue" d="M369.22,-291.09C372.51,-276.66 381.17,-248.43 400.5,-235 457.13,-195.64 666.45,-190.33 754.77,-189.87"/>
<polygon fill="midnightblue" stroke="midnightblue" points="754.94,-193.37 764.93,-189.84 754.92,-186.37 754.94,-193.37"/>
</g>
<!-- Node24&#45;&gt;Node15 -->
<g id="edge48" class="edge">
<title>Node24&#45;&gt;Node15</title>
<path fill="none" stroke="midnightblue" d="M358.5,-291.32C350.31,-283.42 337.99,-271.55 328.03,-261.94"/>
<polygon fill="midnightblue" stroke="midnightblue" points="330.29,-259.26 320.66,-254.83 325.43,-264.29 330.29,-259.26"/>
</g>
<!-- Node25&#45;&gt;Node3 -->
<g id="edge50" class="edge">
<title>Node25&#45;&gt;Node3</title>
<path fill="none" stroke="midnightblue" d="M892.37,-347.45C880.43,-327.6 849.82,-276.92 823.5,-235 817.68,-225.74 811.08,-215.48 805.65,-207.1"/>
<polygon fill="midnightblue" stroke="midnightblue" points="808.51,-205.06 800.12,-198.59 802.64,-208.88 808.51,-205.06"/>
</g>
<!-- Node26&#45;&gt;Node3 -->
<g id="edge52" class="edge">
<title>Node26&#45;&gt;Node3</title>
<path fill="none" stroke="midnightblue" d="M935.7,-291.47C926.24,-278.07 906.36,-251.87 884.5,-235 867,-221.49 844.8,-210.34 826.83,-202.52"/>
<polygon fill="midnightblue" stroke="midnightblue" points="827.92,-199.18 817.34,-198.52 825.2,-205.63 827.92,-199.18"/>
</g>
<!-- Node27&#45;&gt;Node3 -->
<g id="edge54" class="edge">
<title>Node27&#45;&gt;Node3</title>
<path fill="none" stroke="midnightblue" d="M964.49,-235.44C929.06,-225.97 871.92,-210.7 833.79,-200.5"/>
<polygon fill="midnightblue" stroke="midnightblue" points="834.62,-197.1 824.06,-197.9 832.81,-203.87 834.62,-197.1"/>
</g>
<!-- Node28&#45;&gt;Node3 -->
<g id="edge56" class="edge">
<title>Node28&#45;&gt;Node3</title>
<path fill="none" stroke="midnightblue" d="M1092.39,-347.31C1089.02,-324.79 1076.75,-264.29 1039.5,-235 1008.25,-210.43 895.51,-197.94 834.45,-192.85"/>
<polygon fill="midnightblue" stroke="midnightblue" points="834.65,-189.36 824.4,-192.04 834.09,-196.33 834.65,-189.36"/>
</g>
<!-- Node29&#45;&gt;Node3 -->
<g id="edge58" class="edge">
<title>Node29&#45;&gt;Node3</title>
<path fill="none" stroke="midnightblue" d="M1133.25,-291.11C1122.6,-276.71 1099.44,-248.53 1072.5,-235 994.72,-195.94 890.67,-189.44 834.51,-189.11"/>
<polygon fill="midnightblue" stroke="midnightblue" points="834.27,-185.61 824.27,-189.12 834.27,-192.61 834.27,-185.61"/>
</g>
<!-- Node30&#45;&gt;Node3 -->
<g id="edge60" class="edge">
<title>Node30&#45;&gt;Node3</title>
<path fill="none" stroke="midnightblue" d="M1157.38,-403.36C1175.04,-382.9 1214.56,-330.26 1192.5,-291 1169.05,-249.27 1145.52,-251.25 1100.5,-235 1009.02,-201.98 893.81,-193.16 834.24,-190.82"/>
<polygon fill="midnightblue" stroke="midnightblue" points="834.25,-187.32 824.13,-190.47 834,-194.32 834.25,-187.32"/>
</g>
<!-- Node31&#45;&gt;Node3 -->
<g id="edge63" class="edge">
<title>Node31&#45;&gt;Node3</title>
<path fill="none" stroke="midnightblue" d="M1231.95,-403.41C1232.66,-382.61 1232.13,-328.49 1210.5,-291 1191.11,-257.38 1179.06,-250.55 1143.5,-235 1088.73,-211.05 913.72,-197.42 834.34,-192.33"/>
<polygon fill="midnightblue" stroke="midnightblue" points="834.44,-188.83 824.24,-191.69 834,-195.81 834.44,-188.83"/>
</g>
<!-- Node32&#45;&gt;Node3 -->
<g id="edge65" class="edge">
<title>Node32&#45;&gt;Node3</title>
<path fill="none" stroke="midnightblue" d="M1306.21,-403.11C1294.37,-372.65 1250.71,-272.24 1176.5,-235 1117.13,-205.21 919.32,-194.54 834.11,-191.27"/>
<polygon fill="midnightblue" stroke="midnightblue" points="834.18,-187.77 824.05,-190.9 833.92,-194.76 834.18,-187.77"/>
</g>
</g>
</svg>
