<?xml version="1.0" encoding="UTF-8" standalone="no"?>
<!DOCTYPE svg PUBLIC "-//W3C//DTD SVG 1.1//EN"
 "http://www.w3.org/Graphics/SVG/1.1/DTD/svg11.dtd">
<!-- Generated by graphviz version 2.43.0 (0)
 -->
<!-- Title: /home/ram/OmniTemplate/src/core/time.hpp Pages: 1 -->
<svg width="434pt" height="240pt"
 viewBox="0.00 0.00 434.00 240.00" xmlns="http://www.w3.org/2000/svg" xmlns:xlink="http://www.w3.org/1999/xlink">
<g id="graph0" class="graph" transform="scale(1 1) rotate(0) translate(4 236)">
<title>/home/ram/OmniTemplate/src/core/time.hpp</title>
<polygon fill="white" stroke="transparent" points="-4,4 -4,-236 430,-236 430,4 -4,4"/>
<!-- Node1 -->
<g id="node1" class="node">
<title>Node1</title>
<g id="a_node1"><a xlink:title=" ">
<polygon fill="#bfbfbf" stroke="black" points="100,-201.5 100,-231.5 244,-231.5 244,-201.5 100,-201.5"/>
<text text-anchor="start" x="108" y="-219.5" font-family="Helvetica,sans-Serif" font-size="10.00">/home/ram/OmniTemplate</text>
<text text-anchor="middle" x="172" y="-208.5" font-family="Helvetica,sans-Serif" font-size="10.00">/src/core/time.hpp</text>
</a>
</g>
</g>
<!-- Node2 -->
<g id="node2" class="node">
<title>Node2</title>
<g id="a_node2"><a xlink:href="main_8hpp.html" target="_top" xlink:title=" ">
<polygon fill="white" stroke="black" points="0,-134.5 0,-164.5 144,-164.5 144,-134.5 0,-134.5"/>
<text text-anchor="start" x="8" y="-152.5" font-family="Helvetica,sans-Serif" font-size="10.00">/home/ram/OmniTemplate</text>
<text text-anchor="middle" x="72" y="-141.5" font-family="Helvetica,sans-Serif" font-size="10.00">/src/core/main.hpp</text>
</a>
</g>
</g>
<!-- Node1&#45;&gt;Node2 -->
<g id="edge1" class="edge">
<title>Node1&#45;&gt;Node2</title>
<path fill="none" stroke="midnightblue" d="M141.59,-195.73C126.12,-185.68 107.67,-173.68 93.66,-164.58"/>
<polygon fill="midnightblue" stroke="midnightblue" points="140.01,-198.88 150.3,-201.4 143.82,-193.01 140.01,-198.88"/>
</g>
<!-- Node3 -->
<g id="node3" class="node">
<title>Node3</title>
<g id="a_node3"><a xlink:href="template_8hpp.html" target="_top" xlink:title=" ">
<polygon fill="white" stroke="black" points="100,-67.5 100,-97.5 244,-97.5 244,-67.5 100,-67.5"/>
<text text-anchor="start" x="108" y="-85.5" font-family="Helvetica,sans-Serif" font-size="10.00">/home/ram/OmniTemplate</text>
<text text-anchor="middle" x="172" y="-74.5" font-family="Helvetica,sans-Serif" font-size="10.00">/src/core/template.hpp</text>
</a>
</g>
</g>
<!-- Node1&#45;&gt;Node3 -->
<g id="edge4" class="edge">
<title>Node1&#45;&gt;Node3</title>
<path fill="none" stroke="midnightblue" d="M172,-191.02C172,-163.51 172,-119.79 172,-97.52"/>
<polygon fill="midnightblue" stroke="midnightblue" points="168.5,-191.37 172,-201.37 175.5,-191.37 168.5,-191.37"/>
</g>
<!-- Node5 -->
<g id="node5" class="node">
<title>Node5</title>
<g id="a_node5"><a xlink:href="segment__tree_8hpp.html" target="_top" xlink:title=" ">
<polygon fill="white" stroke="black" points="200,-134.5 200,-164.5 344,-164.5 344,-134.5 200,-134.5"/>
<text text-anchor="start" x="208" y="-152.5" font-family="Helvetica,sans-Serif" font-size="10.00">/home/ram/OmniTemplate</text>
<text text-anchor="middle" x="272" y="-141.5" font-family="Helvetica,sans-Serif" font-size="10.00">/src/ds/segment_tree.hpp</text>
</a>
</g>
</g>
<!-- Node1&#45;&gt;Node5 -->
<g id="edge5" class="edge">
<title>Node1&#45;&gt;Node5</title>
<path fill="none" stroke="midnightblue" d="M202.41,-195.73C217.88,-185.68 236.33,-173.68 250.34,-164.58"/>
<polygon fill="midnightblue" stroke="midnightblue" points="200.18,-193.01 193.7,-201.4 203.99,-198.88 200.18,-193.01"/>
</g>
<!-- Node2&#45;&gt;Node3 -->
<g id="edge2" class="edge">
<title>Node2&#45;&gt;Node3</title>
<path fill="none" stroke="midnightblue" d="M102.41,-128.73C117.88,-118.68 136.33,-106.68 150.34,-97.58"/>
<polygon fill="midnightblue" stroke="midnightblue" points="100.18,-126.01 93.7,-134.4 103.99,-131.88 100.18,-126.01"/>
</g>
<!-- Node4 -->
<g id="node4" class="node">
<title>Node4</title>
<g id="a_node4"><a xlink:href="test_8cpp.html" target="_top" xlink:title=" ">
<polygon fill="white" stroke="black" points="136,-0.5 136,-30.5 280,-30.5 280,-0.5 136,-0.5"/>
<text text-anchor="start" x="144" y="-18.5" font-family="Helvetica,sans-Serif" font-size="10.00">/home/ram/OmniTemplate</text>
<text text-anchor="middle" x="208" y="-7.5" font-family="Helvetica,sans-Serif" font-size="10.00">/src/test/test.cpp</text>
</a>
</g>
</g>
<!-- Node2&#45;&gt;Node4 -->
<g id="edge3" class="edge">
<title>Node2&#45;&gt;Node4</title>
<path fill="none" stroke="midnightblue" d="M72.04,-124.3C73.29,-106.59 77.65,-82.97 91,-67 105.47,-49.68 126.99,-38.15 147.63,-30.54"/>
<polygon fill="midnightblue" stroke="midnightblue" points="68.54,-124.3 71.61,-134.44 75.53,-124.59 68.54,-124.3"/>
</g>
<!-- Node5&#45;&gt;Node3 -->
<g id="edge6" class="edge">
<title>Node5&#45;&gt;Node3</title>
<path fill="none" stroke="midnightblue" d="M241.59,-128.73C226.12,-118.68 207.67,-106.68 193.66,-97.58"/>
<polygon fill="midnightblue" stroke="midnightblue" points="240.01,-131.88 250.3,-134.4 243.82,-126.01 240.01,-131.88"/>
</g>
<!-- Node6 -->
<g id="node6" class="node">
<title>Node6</title>
<g id="a_node6"><a xlink:href="test__segment__tree_8hpp.html" target="_top" xlink:title=" ">
<polygon fill="white" stroke="black" points="262,-67.5 262,-97.5 426,-97.5 426,-67.5 262,-67.5"/>
<text text-anchor="start" x="270" y="-85.5" font-family="Helvetica,sans-Serif" font-size="10.00">/home/ram/OmniTemplate</text>
<text text-anchor="middle" x="344" y="-74.5" font-family="Helvetica,sans-Serif" font-size="10.00">/src/ds/test_segment_tree.hpp</text>
</a>
</g>
</g>
<!-- Node5&#45;&gt;Node6 -->
<g id="edge7" class="edge">
<title>Node5&#45;&gt;Node6</title>
<path fill="none" stroke="midnightblue" d="M295.15,-127.6C306.02,-117.78 318.7,-106.34 328.41,-97.58"/>
<polygon fill="midnightblue" stroke="midnightblue" points="292.7,-125.1 287.62,-134.4 297.39,-130.29 292.7,-125.1"/>
</g>
<!-- Node6&#45;&gt;Node4 -->
<g id="edge8" class="edge">
<title>Node6&#45;&gt;Node4</title>
<path fill="none" stroke="midnightblue" d="M305.28,-62.99C283.72,-52.69 257.31,-40.07 237.45,-30.58"/>
<polygon fill="midnightblue" stroke="midnightblue" points="303.96,-66.24 314.49,-67.4 306.98,-59.93 303.96,-66.24"/>
</g>
</g>
</svg>
