<?xml version="1.0" encoding="UTF-8" standalone="no"?>
<!DOCTYPE svg PUBLIC "-//W3C//DTD SVG 1.1//EN"
 "http://www.w3.org/Graphics/SVG/1.1/DTD/svg11.dtd">
<!-- Generated by graphviz version 2.43.0 (0)
 -->
<!-- Title: /home/ram/OmniTemplate/time.hpp Pages: 1 -->
<svg width="202pt" height="240pt"
 viewBox="0.00 0.00 202.00 240.00" xmlns="http://www.w3.org/2000/svg" xmlns:xlink="http://www.w3.org/1999/xlink">
<g id="graph0" class="graph" transform="scale(1 1) rotate(0) translate(4 236)">
<title>/home/ram/OmniTemplate/time.hpp</title>
<polygon fill="white" stroke="transparent" points="-4,4 -4,-236 198,-236 198,4 -4,4"/>
<!-- Node1 -->
<g id="node1" class="node">
<title>Node1</title>
<g id="a_node1"><a xlink:title=" ">
<polygon fill="#bfbfbf" stroke="black" points="50,-201.5 50,-231.5 194,-231.5 194,-201.5 50,-201.5"/>
<text text-anchor="start" x="58" y="-219.5" font-family="Helvetica,sans-Serif" font-size="10.00">/home/ram/OmniTemplate</text>
<text text-anchor="middle" x="122" y="-208.5" font-family="Helvetica,sans-Serif" font-size="10.00">/time.hpp</text>
</a>
</g>
</g>
<!-- Node2 -->
<g id="node2" class="node">
<title>Node2</title>
<g id="a_node2"><a xlink:href="main_8hpp.html" target="_top" xlink:title=" ">
<polygon fill="white" stroke="black" points="0,-134.5 0,-164.5 144,-164.5 144,-134.5 0,-134.5"/>
<text text-anchor="start" x="8" y="-152.5" font-family="Helvetica,sans-Serif" font-size="10.00">/home/ram/OmniTemplate</text>
<text text-anchor="middle" x="72" y="-141.5" font-family="Helvetica,sans-Serif" font-size="10.00">/main.hpp</text>
</a>
</g>
</g>
<!-- Node1&#45;&gt;Node2 -->
<g id="edge1" class="edge">
<title>Node1&#45;&gt;Node2</title>
<path fill="none" stroke="midnightblue" d="M105.04,-193.45C97.69,-183.9 89.31,-173 82.83,-164.58"/>
<polygon fill="midnightblue" stroke="midnightblue" points="102.28,-195.6 111.15,-201.4 107.83,-191.34 102.28,-195.6"/>
</g>
<!-- Node3 -->
<g id="node3" class="node">
<title>Node3</title>
<g id="a_node3"><a xlink:href="template_8hpp.html" target="_top" xlink:title=" ">
<polygon fill="white" stroke="black" points="50,-67.5 50,-97.5 194,-97.5 194,-67.5 50,-67.5"/>
<text text-anchor="start" x="58" y="-85.5" font-family="Helvetica,sans-Serif" font-size="10.00">/home/ram/OmniTemplate</text>
<text text-anchor="middle" x="122" y="-74.5" font-family="Helvetica,sans-Serif" font-size="10.00">/template.hpp</text>
</a>
</g>
</g>
<!-- Node1&#45;&gt;Node3 -->
<g id="edge4" class="edge">
<title>Node1&#45;&gt;Node3</title>
<path fill="none" stroke="midnightblue" d="M139.41,-193.09C144.88,-184.75 150.21,-174.89 153,-165 156.74,-151.74 156.74,-147.26 153,-134 149.2,-120.54 140.69,-107.12 133.54,-97.51"/>
<polygon fill="midnightblue" stroke="midnightblue" points="136.4,-191.29 133.54,-201.49 142.14,-195.3 136.4,-191.29"/>
</g>
<!-- Node2&#45;&gt;Node3 -->
<g id="edge2" class="edge">
<title>Node2&#45;&gt;Node3</title>
<path fill="none" stroke="midnightblue" d="M88.96,-126.45C96.31,-116.9 104.69,-106 111.17,-97.58"/>
<polygon fill="midnightblue" stroke="midnightblue" points="86.17,-124.34 82.85,-134.4 91.72,-128.6 86.17,-124.34"/>
</g>
<!-- Node4 -->
<g id="node4" class="node">
<title>Node4</title>
<g id="a_node4"><a xlink:href="test_8cpp.html" target="_top" xlink:title=" ">
<polygon fill="white" stroke="black" points="50,-0.5 50,-30.5 194,-30.5 194,-0.5 50,-0.5"/>
<text text-anchor="start" x="58" y="-18.5" font-family="Helvetica,sans-Serif" font-size="10.00">/home/ram/OmniTemplate</text>
<text text-anchor="middle" x="122" y="-7.5" font-family="Helvetica,sans-Serif" font-size="10.00">/test.cpp</text>
</a>
</g>
</g>
<!-- Node3&#45;&gt;Node4 -->
<g id="edge3" class="edge">
<title>Node3&#45;&gt;Node4</title>
<path fill="none" stroke="midnightblue" d="M122,-57.11C122,-48.15 122,-38.32 122,-30.58"/>
<polygon fill="midnightblue" stroke="midnightblue" points="118.5,-57.4 122,-67.4 125.5,-57.4 118.5,-57.4"/>
</g>
</g>
</svg>
