<?xml version="1.0" encoding="UTF-8" standalone="no"?>
<!DOCTYPE svg PUBLIC "-//W3C//DTD SVG 1.1//EN"
 "http://www.w3.org/Graphics/SVG/1.1/DTD/svg11.dtd">
<!-- Generated by graphviz version 2.43.0 (0)
 -->
<!-- Title: join Pages: 1 -->
<svg width="251pt" height="180pt"
 viewBox="0.00 0.00 251.00 180.00" xmlns="http://www.w3.org/2000/svg" xmlns:xlink="http://www.w3.org/1999/xlink">
<g id="graph0" class="graph" transform="scale(1 1) rotate(0) translate(4 176)">
<title>join</title>
<polygon fill="white" stroke="transparent" points="-4,4 -4,-176 247,-176 247,4 -4,4"/>
<!-- Node1 -->
<g id="node1" class="node">
<title>Node1</title>
<g id="a_node1"><a xlink:title=" ">
<polygon fill="#bfbfbf" stroke="black" points="208,-76.5 208,-95.5 243,-95.5 243,-76.5 208,-76.5"/>
<text text-anchor="middle" x="225.5" y="-83.5" font-family="Helvetica,sans-Serif" font-size="10.00">join</text>
</a>
</g>
</g>
<!-- Node2 -->
<g id="node2" class="node">
<title>Node2</title>
<g id="a_node2"><a xlink:href="treap_8hpp.html#add90798283a022be36a018723badda5b" target="_top" xlink:title=" ">
<polygon fill="white" stroke="black" points="116,-152.5 116,-171.5 160,-171.5 160,-152.5 116,-152.5"/>
<text text-anchor="middle" x="138" y="-159.5" font-family="Helvetica,sans-Serif" font-size="10.00">erase</text>
</a>
</g>
</g>
<!-- Node1&#45;&gt;Node2 -->
<g id="edge1" class="edge">
<title>Node1&#45;&gt;Node2</title>
<path fill="none" stroke="midnightblue" d="M210.65,-103.67C200.71,-115.66 186.54,-131.37 172,-143 167.66,-146.47 162.62,-149.71 157.8,-152.49"/>
<polygon fill="midnightblue" stroke="midnightblue" points="213.52,-105.69 217.09,-95.72 208.08,-101.29 213.52,-105.69"/>
</g>
<!-- Node3 -->
<g id="node3" class="node">
<title>Node3</title>
<g id="a_node3"><a xlink:href="treap_8hpp.html#a5029123d55b27e0746b8616a6f79eda3" target="_top" xlink:title=" ">
<polygon fill="white" stroke="black" points="104,-114.5 104,-133.5 172,-133.5 172,-114.5 104,-114.5"/>
<text text-anchor="middle" x="138" y="-121.5" font-family="Helvetica,sans-Serif" font-size="10.00">erase_imp</text>
</a>
</g>
</g>
<!-- Node1&#45;&gt;Node3 -->
<g id="edge2" class="edge">
<title>Node1&#45;&gt;Node3</title>
<path fill="none" stroke="midnightblue" d="M198.4,-97.6C186.23,-103.01 171.94,-109.36 160.41,-114.48"/>
<polygon fill="midnightblue" stroke="midnightblue" points="199.89,-100.77 207.61,-93.51 197.05,-94.37 199.89,-100.77"/>
</g>
<!-- Node4 -->
<g id="node4" class="node">
<title>Node4</title>
<g id="a_node4"><a xlink:href="namespacefix.html#aa1dbc2d92b97d52f7b70dee2535b7e94" target="_top" xlink:title=" ">
<polygon fill="white" stroke="black" points="115.5,-76.5 115.5,-95.5 160.5,-95.5 160.5,-76.5 115.5,-76.5"/>
<text text-anchor="middle" x="138" y="-83.5" font-family="Helvetica,sans-Serif" font-size="10.00">fix.fix</text>
</a>
</g>
</g>
<!-- Node1&#45;&gt;Node4 -->
<g id="edge3" class="edge">
<title>Node1&#45;&gt;Node4</title>
<path fill="none" stroke="midnightblue" d="M197.39,-86C185.56,-86 171.88,-86 160.73,-86"/>
<polygon fill="midnightblue" stroke="midnightblue" points="197.61,-89.5 207.61,-86 197.61,-82.5 197.61,-89.5"/>
</g>
<!-- Node5 -->
<g id="node5" class="node">
<title>Node5</title>
<g id="a_node5"><a xlink:href="treap_8hpp.html#aa2ab504328f4d744315ec1da21b666f3" target="_top" xlink:title=" ">
<polygon fill="white" stroke="black" points="110,-38.5 110,-57.5 166,-57.5 166,-38.5 110,-38.5"/>
<text text-anchor="middle" x="138" y="-45.5" font-family="Helvetica,sans-Serif" font-size="10.00">get_imp</text>
</a>
</g>
</g>
<!-- Node1&#45;&gt;Node5 -->
<g id="edge4" class="edge">
<title>Node1&#45;&gt;Node5</title>
<path fill="none" stroke="midnightblue" d="M198.4,-74.4C186.23,-68.99 171.94,-62.64 160.41,-57.52"/>
<polygon fill="midnightblue" stroke="midnightblue" points="197.05,-77.63 207.61,-78.49 199.89,-71.23 197.05,-77.63"/>
</g>
<!-- Node6 -->
<g id="node6" class="node">
<title>Node6</title>
<g id="a_node6"><a xlink:href="treap_8hpp.html#aa2a3eaf4c00318c5a4c9298b83d06003" target="_top" xlink:title=" ">
<polygon fill="white" stroke="black" points="104,-0.5 104,-19.5 172,-19.5 172,-0.5 104,-0.5"/>
<text text-anchor="middle" x="138" y="-7.5" font-family="Helvetica,sans-Serif" font-size="10.00">insert_imp</text>
</a>
</g>
</g>
<!-- Node1&#45;&gt;Node6 -->
<g id="edge5" class="edge">
<title>Node1&#45;&gt;Node6</title>
<path fill="none" stroke="midnightblue" d="M210.65,-68.33C200.71,-56.34 186.54,-40.63 172,-29 167.66,-25.53 162.62,-22.29 157.8,-19.51"/>
<polygon fill="midnightblue" stroke="midnightblue" points="208.08,-70.71 217.09,-76.28 213.52,-66.31 208.08,-70.71"/>
</g>
<!-- Node7 -->
<g id="node7" class="node">
<title>Node7</title>
<g id="a_node7"><a xlink:href="treap_8hpp.html#a4396c20ba2dc1e8172125ce5a28794e6" target="_top" xlink:title=" ">
<polygon fill="white" stroke="black" points="0,-0.5 0,-19.5 68,-19.5 68,-0.5 0,-0.5"/>
<text text-anchor="middle" x="34" y="-7.5" font-family="Helvetica,sans-Serif" font-size="10.00">insert_imp</text>
</a>
</g>
</g>
<!-- Node6&#45;&gt;Node7 -->
<g id="edge6" class="edge">
<title>Node6&#45;&gt;Node7</title>
<path fill="none" stroke="midnightblue" d="M93.72,-10C85.21,-10 76.42,-10 68.3,-10"/>
<polygon fill="midnightblue" stroke="midnightblue" points="93.88,-13.5 103.88,-10 93.88,-6.5 93.88,-13.5"/>
</g>
</g>
</svg>
