<?xml version="1.0" encoding="UTF-8" standalone="no"?>
<!DOCTYPE svg PUBLIC "-//W3C//DTD SVG 1.1//EN"
 "http://www.w3.org/Graphics/SVG/1.1/DTD/svg11.dtd">
<!-- Generated by graphviz version 2.43.0 (0)
 -->
<!-- Title: join Pages: 1 -->
<svg width="251pt" height="66pt"
 viewBox="0.00 0.00 251.00 66.00" xmlns="http://www.w3.org/2000/svg" xmlns:xlink="http://www.w3.org/1999/xlink">
<g id="graph0" class="graph" transform="scale(1 1) rotate(0) translate(4 62)">
<title>join</title>
<polygon fill="white" stroke="transparent" points="-4,4 -4,-62 247,-62 247,4 -4,4"/>
<!-- Node1 -->
<g id="node1" class="node">
<title>Node1</title>
<g id="a_node1"><a xlink:title=" ">
<polygon fill="#bfbfbf" stroke="black" points="0,-19.5 0,-38.5 35,-38.5 35,-19.5 0,-19.5"/>
<text text-anchor="middle" x="17.5" y="-26.5" font-family="Helvetica,sans-Serif" font-size="10.00">join</text>
</a>
</g>
</g>
<!-- Node2 -->
<g id="node2" class="node">
<title>Node2</title>
<g id="a_node2"><a xlink:href="treap_8hpp.html#a4a94ad7cd8f33ebf044afd6d79a174f8" target="_top" xlink:title=" ">
<polygon fill="white" stroke="black" points="88,-38.5 88,-57.5 131,-57.5 131,-38.5 88,-38.5"/>
<text text-anchor="middle" x="109.5" y="-45.5" font-family="Helvetica,sans-Serif" font-size="10.00">down</text>
</a>
</g>
</g>
<!-- Node1&#45;&gt;Node2 -->
<g id="edge1" class="edge">
<title>Node1&#45;&gt;Node2</title>
<path fill="none" stroke="midnightblue" d="M35.01,-32.48C47.01,-35.02 63.61,-38.52 78,-41.56"/>
<polygon fill="midnightblue" stroke="midnightblue" points="77.48,-45.03 87.99,-43.67 78.93,-38.18 77.48,-45.03"/>
</g>
<!-- Node3 -->
<g id="node3" class="node">
<title>Node3</title>
<g id="a_node3"><a xlink:href="treap_8hpp.html#a9321be3a55db4ee924a0e968e12734a2" target="_top" xlink:title=" ">
<polygon fill="white" stroke="black" points="71,-0.5 71,-19.5 148,-19.5 148,-0.5 71,-0.5"/>
<text text-anchor="middle" x="109.5" y="-7.5" font-family="Helvetica,sans-Serif" font-size="10.00">update_data</text>
</a>
</g>
</g>
<!-- Node1&#45;&gt;Node3 -->
<g id="edge2" class="edge">
<title>Node1&#45;&gt;Node3</title>
<path fill="none" stroke="midnightblue" d="M35.01,-25.52C42.39,-23.96 51.5,-22.03 60.77,-20.08"/>
<polygon fill="midnightblue" stroke="midnightblue" points="61.76,-23.45 70.82,-17.96 60.31,-16.6 61.76,-23.45"/>
</g>
<!-- Node4 -->
<g id="node4" class="node">
<title>Node4</title>
<g id="a_node4"><a xlink:href="treap_8hpp.html#a88d816c35d3a703c27719dabc1631d79" target="_top" xlink:title=" ">
<polygon fill="white" stroke="black" points="184,-0.5 184,-19.5 243,-19.5 243,-0.5 184,-0.5"/>
<text text-anchor="middle" x="213.5" y="-7.5" font-family="Helvetica,sans-Serif" font-size="10.00">get_data</text>
</a>
</g>
</g>
<!-- Node3&#45;&gt;Node4 -->
<g id="edge3" class="edge">
<title>Node3&#45;&gt;Node4</title>
<path fill="none" stroke="midnightblue" d="M148.19,-10C156.49,-10 165.3,-10 173.64,-10"/>
<polygon fill="midnightblue" stroke="midnightblue" points="173.89,-13.5 183.89,-10 173.89,-6.5 173.89,-13.5"/>
</g>
</g>
</svg>
