<?xml version="1.0" encoding="UTF-8" standalone="no"?>
<!DOCTYPE svg PUBLIC "-//W3C//DTD SVG 1.1//EN"
 "http://www.w3.org/Graphics/SVG/1.1/DTD/svg11.dtd">
<!-- Generated by graphviz version 2.43.0 (0)
 -->
<!-- Title: insert_imp Pages: 1 -->
<svg width="486pt" height="79pt"
 viewBox="0.00 0.00 486.00 78.64" xmlns="http://www.w3.org/2000/svg" xmlns:xlink="http://www.w3.org/1999/xlink">
<g id="graph0" class="graph" transform="scale(1 1) rotate(0) translate(4 74.64)">
<title>insert_imp</title>
<polygon fill="white" stroke="transparent" points="-4,4 -4,-74.64 482,-74.64 482,4 -4,4"/>
<!-- Node1 -->
<g id="node1" class="node">
<title>Node1</title>
<g id="a_node1"><a xlink:title=" ">
<polygon fill="#bfbfbf" stroke="black" points="0,-32.14 0,-51.14 68,-51.14 68,-32.14 0,-32.14"/>
<text text-anchor="middle" x="34" y="-39.14" font-family="Helvetica,sans-Serif" font-size="10.00">insert_imp</text>
</a>
</g>
</g>
<!-- Node2 -->
<g id="node2" class="node">
<title>Node2</title>
<g id="a_node2"><a xlink:href="treap_8hpp.html#aa2a3eaf4c00318c5a4c9298b83d06003" target="_top" xlink:title=" ">
<polygon fill="white" stroke="black" points="104,-32.14 104,-51.14 172,-51.14 172,-32.14 104,-32.14"/>
<text text-anchor="middle" x="138" y="-39.14" font-family="Helvetica,sans-Serif" font-size="10.00">insert_imp</text>
</a>
</g>
</g>
<!-- Node1&#45;&gt;Node2 -->
<g id="edge1" class="edge">
<title>Node1&#45;&gt;Node2</title>
<path fill="none" stroke="midnightblue" d="M68.12,-41.64C76.22,-41.64 85.02,-41.64 93.53,-41.64"/>
<polygon fill="midnightblue" stroke="midnightblue" points="93.7,-45.14 103.7,-41.64 93.7,-38.14 93.7,-45.14"/>
</g>
<!-- Node3 -->
<g id="node3" class="node">
<title>Node3</title>
<g id="a_node3"><a xlink:href="treap_8hpp.html#a4338e31f2a01e882efc6adf47768c076" target="_top" xlink:title="Joins treap l and treap r.">
<polygon fill="white" stroke="black" points="221.5,-51.14 221.5,-70.14 256.5,-70.14 256.5,-51.14 221.5,-51.14"/>
<text text-anchor="middle" x="239" y="-58.14" font-family="Helvetica,sans-Serif" font-size="10.00">join</text>
</a>
</g>
</g>
<!-- Node2&#45;&gt;Node3 -->
<g id="edge2" class="edge">
<title>Node2&#45;&gt;Node3</title>
<path fill="none" stroke="midnightblue" d="M172.24,-48.02C185.01,-50.47 199.41,-53.23 211.47,-55.55"/>
<polygon fill="midnightblue" stroke="midnightblue" points="210.89,-59 221.37,-57.45 212.21,-52.12 210.89,-59"/>
</g>
<!-- Node7 -->
<g id="node7" class="node">
<title>Node7</title>
<g id="a_node7"><a xlink:href="treap_8hpp.html#aff38806a204c6e78d7945e04b556f588" target="_top" xlink:title=" ">
<polygon fill="white" stroke="black" points="208,-13.14 208,-32.14 270,-32.14 270,-13.14 208,-13.14"/>
<text text-anchor="middle" x="239" y="-20.14" font-family="Helvetica,sans-Serif" font-size="10.00">split_imp</text>
</a>
</g>
</g>
<!-- Node2&#45;&gt;Node7 -->
<g id="edge6" class="edge">
<title>Node2&#45;&gt;Node7</title>
<path fill="none" stroke="midnightblue" d="M172.24,-35.26C180.39,-33.69 189.2,-32 197.64,-30.38"/>
<polygon fill="midnightblue" stroke="midnightblue" points="198.52,-33.78 207.68,-28.46 197.2,-26.9 198.52,-33.78"/>
</g>
<!-- Node4 -->
<g id="node4" class="node">
<title>Node4</title>
<g id="a_node4"><a xlink:href="treap_8hpp.html#a4a94ad7cd8f33ebf044afd6d79a174f8" target="_top" xlink:title=" ">
<polygon fill="white" stroke="black" points="323,-13.14 323,-32.14 366,-32.14 366,-13.14 323,-13.14"/>
<text text-anchor="middle" x="344.5" y="-20.14" font-family="Helvetica,sans-Serif" font-size="10.00">down</text>
</a>
</g>
</g>
<!-- Node3&#45;&gt;Node4 -->
<g id="edge3" class="edge">
<title>Node3&#45;&gt;Node4</title>
<path fill="none" stroke="midnightblue" d="M256.63,-54.53C271.94,-48.91 295,-40.44 313.52,-33.64"/>
<polygon fill="midnightblue" stroke="midnightblue" points="314.81,-36.9 322.99,-30.17 312.4,-30.33 314.81,-36.9"/>
</g>
<!-- Node5 -->
<g id="node5" class="node">
<title>Node5</title>
<g id="a_node5"><a xlink:href="treap_8hpp.html#a9321be3a55db4ee924a0e968e12734a2" target="_top" xlink:title=" ">
<polygon fill="white" stroke="black" points="306,-51.14 306,-70.14 383,-70.14 383,-51.14 306,-51.14"/>
<text text-anchor="middle" x="344.5" y="-58.14" font-family="Helvetica,sans-Serif" font-size="10.00">update_data</text>
</a>
</g>
</g>
<!-- Node3&#45;&gt;Node5 -->
<g id="edge4" class="edge">
<title>Node3&#45;&gt;Node5</title>
<path fill="none" stroke="midnightblue" d="M256.63,-60.64C267.3,-60.64 281.73,-60.64 295.78,-60.64"/>
<polygon fill="midnightblue" stroke="midnightblue" points="295.87,-64.14 305.87,-60.64 295.87,-57.14 295.87,-64.14"/>
</g>
<!-- Node6 -->
<g id="node6" class="node">
<title>Node6</title>
<g id="a_node6"><a xlink:href="treap_8hpp.html#a88d816c35d3a703c27719dabc1631d79" target="_top" xlink:title=" ">
<polygon fill="white" stroke="black" points="419,-13.14 419,-32.14 478,-32.14 478,-13.14 419,-13.14"/>
<text text-anchor="middle" x="448.5" y="-20.14" font-family="Helvetica,sans-Serif" font-size="10.00">get_data</text>
</a>
</g>
</g>
<!-- Node5&#45;&gt;Node6 -->
<g id="edge5" class="edge">
<title>Node5&#45;&gt;Node6</title>
<path fill="none" stroke="midnightblue" d="M371.24,-51.05C383.68,-46.41 398.81,-40.78 412.3,-35.75"/>
<polygon fill="midnightblue" stroke="midnightblue" points="413.62,-38.99 421.77,-32.22 411.18,-32.43 413.62,-38.99"/>
</g>
<!-- Node7&#45;&gt;Node4 -->
<g id="edge7" class="edge">
<title>Node7&#45;&gt;Node4</title>
<path fill="none" stroke="midnightblue" d="M270.21,-22.64C283.59,-22.64 299.29,-22.64 312.73,-22.64"/>
<polygon fill="midnightblue" stroke="midnightblue" points="312.93,-26.14 322.93,-22.64 312.93,-19.14 312.93,-26.14"/>
</g>
<!-- Node7&#45;&gt;Node5 -->
<g id="edge9" class="edge">
<title>Node7&#45;&gt;Node5</title>
<path fill="none" stroke="midnightblue" d="M266.12,-32.23C278.74,-36.86 294.09,-42.5 307.78,-47.52"/>
<polygon fill="midnightblue" stroke="midnightblue" points="306.8,-50.89 317.39,-51.05 309.21,-44.32 306.8,-50.89"/>
</g>
<!-- Node7&#45;&gt;Node6 -->
<g id="edge8" class="edge">
<title>Node7&#45;&gt;Node6</title>
<path fill="none" stroke="midnightblue" d="M266.6,-13.14C278.49,-9.37 292.78,-5.5 306,-3.64 339.89,1.14 349.13,1.25 383,-3.64 392.5,-5.01 402.56,-7.46 411.83,-10.16"/>
<polygon fill="midnightblue" stroke="midnightblue" points="410.93,-13.54 421.52,-13.14 412.99,-6.85 410.93,-13.54"/>
</g>
</g>
</svg>
