<?xml version="1.0" encoding="UTF-8" standalone="no"?>
<!DOCTYPE svg PUBLIC "-//W3C//DTD SVG 1.1//EN"
 "http://www.w3.org/Graphics/SVG/1.1/DTD/svg11.dtd">
<!-- Generated by graphviz version 2.43.0 (0)
 -->
<!-- Title: insert Pages: 1 -->
<svg width="334pt" height="47pt"
 viewBox="0.00 0.00 334.00 47.00" xmlns="http://www.w3.org/2000/svg" xmlns:xlink="http://www.w3.org/1999/xlink">
<g id="graph0" class="graph" transform="scale(1 1) rotate(0) translate(4 43)">
<title>insert</title>
<polygon fill="white" stroke="transparent" points="-4,4 -4,-43 330,-43 330,4 -4,4"/>
<!-- Node1 -->
<g id="node1" class="node">
<title>Node1</title>
<g id="a_node1"><a xlink:title=" ">
<polygon fill="#bfbfbf" stroke="black" points="0,-0.5 0,-19.5 44,-19.5 44,-0.5 0,-0.5"/>
<text text-anchor="middle" x="22" y="-7.5" font-family="Helvetica,sans-Serif" font-size="10.00">insert</text>
</a>
</g>
</g>
<!-- Node2 -->
<g id="node2" class="node">
<title>Node2</title>
<g id="a_node2"><a xlink:href="treap_8hpp.html#ab4b19e3c8f0a975627a7261ed3e2c29b" target="_top" xlink:title=" ">
<polygon fill="white" stroke="black" points="80,-19.5 80,-38.5 118,-38.5 118,-19.5 80,-19.5"/>
<text text-anchor="middle" x="99" y="-26.5" font-family="Helvetica,sans-Serif" font-size="10.00">split</text>
</a>
</g>
</g>
<!-- Node1&#45;&gt;Node2 -->
<g id="edge1" class="edge">
<title>Node1&#45;&gt;Node2</title>
<path fill="none" stroke="midnightblue" d="M44.29,-15.39C52.3,-17.42 61.52,-19.76 70.04,-21.92"/>
<polygon fill="midnightblue" stroke="midnightblue" points="69.4,-25.37 79.96,-24.43 71.12,-18.58 69.4,-25.37"/>
</g>
<!-- Node3 -->
<g id="node3" class="node">
<title>Node3</title>
<g id="a_node3"><a xlink:href="treap_8hpp.html#a9321be3a55db4ee924a0e968e12734a2" target="_top" xlink:title=" ">
<polygon fill="white" stroke="black" points="154,-0.5 154,-19.5 231,-19.5 231,-0.5 154,-0.5"/>
<text text-anchor="middle" x="192.5" y="-7.5" font-family="Helvetica,sans-Serif" font-size="10.00">update_data</text>
</a>
</g>
</g>
<!-- Node1&#45;&gt;Node3 -->
<g id="edge4" class="edge">
<title>Node1&#45;&gt;Node3</title>
<path fill="none" stroke="midnightblue" d="M44.34,-10C69.11,-10 110.74,-10 143.41,-10"/>
<polygon fill="midnightblue" stroke="midnightblue" points="143.68,-13.5 153.68,-10 143.68,-6.5 143.68,-13.5"/>
</g>
<!-- Node2&#45;&gt;Node3 -->
<g id="edge2" class="edge">
<title>Node2&#45;&gt;Node3</title>
<path fill="none" stroke="midnightblue" d="M118.08,-25.25C125.57,-23.69 134.66,-21.8 143.85,-19.9"/>
<polygon fill="midnightblue" stroke="midnightblue" points="144.7,-23.29 153.78,-17.83 143.28,-16.44 144.7,-23.29"/>
</g>
<!-- Node4 -->
<g id="node4" class="node">
<title>Node4</title>
<g id="a_node4"><a xlink:href="treap_8hpp.html#a88d816c35d3a703c27719dabc1631d79" target="_top" xlink:title=" ">
<polygon fill="white" stroke="black" points="267,-0.5 267,-19.5 326,-19.5 326,-0.5 267,-0.5"/>
<text text-anchor="middle" x="296.5" y="-7.5" font-family="Helvetica,sans-Serif" font-size="10.00">get_data</text>
</a>
</g>
</g>
<!-- Node3&#45;&gt;Node4 -->
<g id="edge3" class="edge">
<title>Node3&#45;&gt;Node4</title>
<path fill="none" stroke="midnightblue" d="M231.19,-10C239.49,-10 248.3,-10 256.64,-10"/>
<polygon fill="midnightblue" stroke="midnightblue" points="256.89,-13.5 266.89,-10 256.89,-6.5 256.89,-13.5"/>
</g>
</g>
</svg>
