<?xml version="1.0" encoding="UTF-8" standalone="no"?>
<!DOCTYPE svg PUBLIC "-//W3C//DTD SVG 1.1//EN"
 "http://www.w3.org/Graphics/SVG/1.1/DTD/svg11.dtd">
<!-- Generated by graphviz version 2.43.0 (0)
 -->
<!-- Title: update_data Pages: 1 -->
<svg width="391pt" height="180pt"
 viewBox="0.00 0.00 391.00 180.00" xmlns="http://www.w3.org/2000/svg" xmlns:xlink="http://www.w3.org/1999/xlink">
<g id="graph0" class="graph" transform="scale(1 1) rotate(0) translate(4 176)">
<title>update_data</title>
<polygon fill="white" stroke="transparent" points="-4,4 -4,-176 387,-176 387,4 -4,4"/>
<!-- Node1 -->
<g id="node1" class="node">
<title>Node1</title>
<g id="a_node1"><a xlink:title=" ">
<polygon fill="#bfbfbf" stroke="black" points="306,-76.5 306,-95.5 383,-95.5 383,-76.5 306,-76.5"/>
<text text-anchor="middle" x="344.5" y="-83.5" font-family="Helvetica,sans-Serif" font-size="10.00">update_data</text>
</a>
</g>
</g>
<!-- Node2 -->
<g id="node2" class="node">
<title>Node2</title>
<g id="a_node2"><a xlink:href="treap_8hpp.html#add90798283a022be36a018723badda5b" target="_top" xlink:title=" ">
<polygon fill="white" stroke="black" points="116,-152.5 116,-171.5 160,-171.5 160,-152.5 116,-152.5"/>
<text text-anchor="middle" x="138" y="-159.5" font-family="Helvetica,sans-Serif" font-size="10.00">erase</text>
</a>
</g>
</g>
<!-- Node1&#45;&gt;Node2 -->
<g id="edge1" class="edge">
<title>Node1&#45;&gt;Node2</title>
<path fill="none" stroke="midnightblue" d="M327.26,-102.67C313.35,-115.87 292.11,-133.6 270,-143 233.62,-158.46 186.99,-161.72 160.31,-162.2"/>
<polygon fill="midnightblue" stroke="midnightblue" points="329.87,-105.02 334.56,-95.52 324.96,-100.02 329.87,-105.02"/>
</g>
<!-- Node3 -->
<g id="node3" class="node">
<title>Node3</title>
<g id="a_node3"><a xlink:href="treap_8hpp.html#ad45b31cb3a5a560af114abfcbce83936" target="_top" xlink:title=" ">
<polygon fill="white" stroke="black" points="116,-0.5 116,-19.5 160,-19.5 160,-0.5 116,-0.5"/>
<text text-anchor="middle" x="138" y="-7.5" font-family="Helvetica,sans-Serif" font-size="10.00">insert</text>
</a>
</g>
</g>
<!-- Node1&#45;&gt;Node3 -->
<g id="edge2" class="edge">
<title>Node1&#45;&gt;Node3</title>
<path fill="none" stroke="midnightblue" d="M327.26,-69.33C313.35,-56.13 292.11,-38.4 270,-29 233.62,-13.54 186.99,-10.28 160.31,-9.8"/>
<polygon fill="midnightblue" stroke="midnightblue" points="324.96,-71.98 334.56,-76.48 329.87,-66.98 324.96,-71.98"/>
</g>
<!-- Node5 -->
<g id="node5" class="node">
<title>Node5</title>
<g id="a_node5"><a xlink:href="treap_8hpp.html#a4338e31f2a01e882efc6adf47768c076" target="_top" xlink:title="Joins treap l and treap r.">
<polygon fill="white" stroke="black" points="221.5,-114.5 221.5,-133.5 256.5,-133.5 256.5,-114.5 221.5,-114.5"/>
<text text-anchor="middle" x="239" y="-121.5" font-family="Helvetica,sans-Serif" font-size="10.00">join</text>
</a>
</g>
</g>
<!-- Node1&#45;&gt;Node5 -->
<g id="edge4" class="edge">
<title>Node1&#45;&gt;Node5</title>
<path fill="none" stroke="midnightblue" d="M307.58,-99.19C290.3,-105.53 270.41,-112.83 256.71,-117.87"/>
<polygon fill="midnightblue" stroke="midnightblue" points="309.2,-102.32 317.38,-95.59 306.79,-95.75 309.2,-102.32"/>
</g>
<!-- Node10 -->
<g id="node10" class="node">
<title>Node10</title>
<g id="a_node10"><a xlink:href="treap_8hpp.html#ab4b19e3c8f0a975627a7261ed3e2c29b" target="_top" xlink:title=" ">
<polygon fill="white" stroke="black" points="220,-38.5 220,-57.5 258,-57.5 258,-38.5 220,-38.5"/>
<text text-anchor="middle" x="239" y="-45.5" font-family="Helvetica,sans-Serif" font-size="10.00">split</text>
</a>
</g>
</g>
<!-- Node1&#45;&gt;Node10 -->
<g id="edge10" class="edge">
<title>Node1&#45;&gt;Node10</title>
<path fill="none" stroke="midnightblue" d="M307.9,-72.93C291.19,-66.79 271.99,-59.75 258.28,-54.71"/>
<polygon fill="midnightblue" stroke="midnightblue" points="306.79,-76.25 317.38,-76.41 309.2,-69.68 306.79,-76.25"/>
</g>
<!-- Node11 -->
<g id="node11" class="node">
<title>Node11</title>
<g id="a_node11"><a xlink:href="treap_8hpp.html#aff38806a204c6e78d7945e04b556f588" target="_top" xlink:title=" ">
<polygon fill="white" stroke="black" points="208,-76.5 208,-95.5 270,-95.5 270,-76.5 208,-76.5"/>
<text text-anchor="middle" x="239" y="-83.5" font-family="Helvetica,sans-Serif" font-size="10.00">split_imp</text>
</a>
</g>
</g>
<!-- Node1&#45;&gt;Node11 -->
<g id="edge12" class="edge">
<title>Node1&#45;&gt;Node11</title>
<path fill="none" stroke="midnightblue" d="M295.7,-86C286.95,-86 278.06,-86 270.01,-86"/>
<polygon fill="midnightblue" stroke="midnightblue" points="295.84,-89.5 305.84,-86 295.84,-82.5 295.84,-89.5"/>
</g>
<!-- Node4 -->
<g id="node4" class="node">
<title>Node4</title>
<g id="a_node4"><a xlink:href="treap_8hpp.html#a14ea768f9d1a656b814be126c0a631c8" target="_top" xlink:title=" ">
<polygon fill="white" stroke="black" points="12,-0.5 12,-19.5 56,-19.5 56,-0.5 12,-0.5"/>
<text text-anchor="middle" x="34" y="-7.5" font-family="Helvetica,sans-Serif" font-size="10.00">insert</text>
</a>
</g>
</g>
<!-- Node3&#45;&gt;Node4 -->
<g id="edge3" class="edge">
<title>Node3&#45;&gt;Node4</title>
<path fill="none" stroke="midnightblue" d="M105.81,-10C89.7,-10 70.46,-10 56.11,-10"/>
<polygon fill="midnightblue" stroke="midnightblue" points="105.87,-13.5 115.87,-10 105.87,-6.5 105.87,-13.5"/>
</g>
<!-- Node5&#45;&gt;Node2 -->
<g id="edge5" class="edge">
<title>Node5&#45;&gt;Node2</title>
<path fill="none" stroke="midnightblue" d="M211.77,-134.07C195.6,-140.28 175.12,-148.13 160.02,-153.93"/>
<polygon fill="midnightblue" stroke="midnightblue" points="213.12,-137.3 221.21,-130.45 210.62,-130.76 213.12,-137.3"/>
</g>
<!-- Node6 -->
<g id="node6" class="node">
<title>Node6</title>
<g id="a_node6"><a xlink:href="treap_8hpp.html#a5029123d55b27e0746b8616a6f79eda3" target="_top" xlink:title=" ">
<polygon fill="white" stroke="black" points="104,-114.5 104,-133.5 172,-133.5 172,-114.5 104,-114.5"/>
<text text-anchor="middle" x="138" y="-121.5" font-family="Helvetica,sans-Serif" font-size="10.00">erase_imp</text>
</a>
</g>
</g>
<!-- Node5&#45;&gt;Node6 -->
<g id="edge6" class="edge">
<title>Node5&#45;&gt;Node6</title>
<path fill="none" stroke="midnightblue" d="M210.98,-124C199.05,-124 184.91,-124 172.33,-124"/>
<polygon fill="midnightblue" stroke="midnightblue" points="211.21,-127.5 221.21,-124 211.21,-120.5 211.21,-127.5"/>
</g>
<!-- Node7 -->
<g id="node7" class="node">
<title>Node7</title>
<g id="a_node7"><a xlink:href="treap_8hpp.html#aa2ab504328f4d744315ec1da21b666f3" target="_top" xlink:title=" ">
<polygon fill="white" stroke="black" points="110,-76.5 110,-95.5 166,-95.5 166,-76.5 110,-76.5"/>
<text text-anchor="middle" x="138" y="-83.5" font-family="Helvetica,sans-Serif" font-size="10.00">get_imp</text>
</a>
</g>
</g>
<!-- Node5&#45;&gt;Node7 -->
<g id="edge7" class="edge">
<title>Node5&#45;&gt;Node7</title>
<path fill="none" stroke="midnightblue" d="M211.65,-113.89C196.9,-108.22 178.6,-101.2 164.07,-95.62"/>
<polygon fill="midnightblue" stroke="midnightblue" points="210.62,-117.24 221.21,-117.55 213.12,-110.7 210.62,-117.24"/>
</g>
<!-- Node8 -->
<g id="node8" class="node">
<title>Node8</title>
<g id="a_node8"><a xlink:href="treap_8hpp.html#aa2a3eaf4c00318c5a4c9298b83d06003" target="_top" xlink:title=" ">
<polygon fill="white" stroke="black" points="104,-38.5 104,-57.5 172,-57.5 172,-38.5 104,-38.5"/>
<text text-anchor="middle" x="138" y="-45.5" font-family="Helvetica,sans-Serif" font-size="10.00">insert_imp</text>
</a>
</g>
</g>
<!-- Node5&#45;&gt;Node8 -->
<g id="edge8" class="edge">
<title>Node5&#45;&gt;Node8</title>
<path fill="none" stroke="midnightblue" d="M212.83,-108.72C211.16,-107.51 209.54,-106.26 208,-105 190.04,-90.22 190.27,-81.4 172,-67 167.64,-63.56 162.59,-60.34 157.77,-57.55"/>
<polygon fill="midnightblue" stroke="midnightblue" points="211.05,-111.75 221.3,-114.45 214.97,-105.95 211.05,-111.75"/>
</g>
<!-- Node9 -->
<g id="node9" class="node">
<title>Node9</title>
<g id="a_node9"><a xlink:href="treap_8hpp.html#a4396c20ba2dc1e8172125ce5a28794e6" target="_top" xlink:title=" ">
<polygon fill="white" stroke="black" points="0,-38.5 0,-57.5 68,-57.5 68,-38.5 0,-38.5"/>
<text text-anchor="middle" x="34" y="-45.5" font-family="Helvetica,sans-Serif" font-size="10.00">insert_imp</text>
</a>
</g>
</g>
<!-- Node8&#45;&gt;Node9 -->
<g id="edge9" class="edge">
<title>Node8&#45;&gt;Node9</title>
<path fill="none" stroke="midnightblue" d="M93.72,-48C85.21,-48 76.42,-48 68.3,-48"/>
<polygon fill="midnightblue" stroke="midnightblue" points="93.88,-51.5 103.88,-48 93.88,-44.5 93.88,-51.5"/>
</g>
<!-- Node10&#45;&gt;Node3 -->
<g id="edge11" class="edge">
<title>Node10&#45;&gt;Node3</title>
<path fill="none" stroke="midnightblue" d="M210.5,-37.44C194.57,-31.33 174.84,-23.76 160.14,-18.11"/>
<polygon fill="midnightblue" stroke="midnightblue" points="209.25,-40.71 219.84,-41.03 211.76,-34.18 209.25,-40.71"/>
</g>
<!-- Node11&#45;&gt;Node6 -->
<g id="edge13" class="edge">
<title>Node11&#45;&gt;Node6</title>
<path fill="none" stroke="midnightblue" d="M203.44,-99.26C190.45,-104.25 175.93,-109.82 163.97,-114.41"/>
<polygon fill="midnightblue" stroke="midnightblue" points="204.94,-102.44 213.02,-95.59 202.43,-95.9 204.94,-102.44"/>
</g>
<!-- Node11&#45;&gt;Node7 -->
<g id="edge14" class="edge">
<title>Node11&#45;&gt;Node7</title>
<path fill="none" stroke="midnightblue" d="M197.44,-86C186.86,-86 175.72,-86 166.03,-86"/>
<polygon fill="midnightblue" stroke="midnightblue" points="197.76,-89.5 207.76,-86 197.76,-82.5 197.76,-89.5"/>
</g>
<!-- Node11&#45;&gt;Node8 -->
<g id="edge15" class="edge">
<title>Node11&#45;&gt;Node8</title>
<path fill="none" stroke="midnightblue" d="M203.44,-72.74C190.45,-67.75 175.93,-62.18 163.97,-57.59"/>
<polygon fill="midnightblue" stroke="midnightblue" points="202.43,-76.1 213.02,-76.41 204.94,-69.56 202.43,-76.1"/>
</g>
</g>
</svg>
