<?xml version="1.0" encoding="UTF-8" standalone="no"?>
<!DOCTYPE svg PUBLIC "-//W3C//DTD SVG 1.1//EN"
 "http://www.w3.org/Graphics/SVG/1.1/DTD/svg11.dtd">
<!-- Generated by graphviz version 2.43.0 (0)
 -->
<!-- Title: get_data Pages: 1 -->
<svg width="486pt" height="218pt"
 viewBox="0.00 0.00 486.00 218.00" xmlns="http://www.w3.org/2000/svg" xmlns:xlink="http://www.w3.org/1999/xlink">
<g id="graph0" class="graph" transform="scale(1 1) rotate(0) translate(4 214)">
<title>get_data</title>
<polygon fill="white" stroke="transparent" points="-4,4 -4,-214 482,-214 482,4 -4,4"/>
<!-- Node1 -->
<g id="node1" class="node">
<title>Node1</title>
<g id="a_node1"><a xlink:title=" ">
<polygon fill="#bfbfbf" stroke="black" points="419,-114.5 419,-133.5 478,-133.5 478,-114.5 419,-114.5"/>
<text text-anchor="middle" x="448.5" y="-121.5" font-family="Helvetica,sans-Serif" font-size="10.00">get_data</text>
</a>
</g>
</g>
<!-- Node2 -->
<g id="node2" class="node">
<title>Node2</title>
<g id="a_node2"><a xlink:href="treap_8hpp.html#aff38806a204c6e78d7945e04b556f588" target="_top" xlink:title=" ">
<polygon fill="white" stroke="black" points="208,-152.5 208,-171.5 270,-171.5 270,-152.5 208,-152.5"/>
<text text-anchor="middle" x="239" y="-159.5" font-family="Helvetica,sans-Serif" font-size="10.00">split_imp</text>
</a>
</g>
</g>
<!-- Node1&#45;&gt;Node2 -->
<g id="edge1" class="edge">
<title>Node1&#45;&gt;Node2</title>
<path fill="none" stroke="midnightblue" d="M408.7,-131.1C368.63,-138.44 306.92,-149.75 270.29,-156.45"/>
<polygon fill="midnightblue" stroke="midnightblue" points="409.44,-134.53 418.65,-129.28 408.18,-127.64 409.44,-134.53"/>
</g>
<!-- Node7 -->
<g id="node7" class="node">
<title>Node7</title>
<g id="a_node7"><a xlink:href="treap_8hpp.html#a9321be3a55db4ee924a0e968e12734a2" target="_top" xlink:title=" ">
<polygon fill="white" stroke="black" points="306,-95.5 306,-114.5 383,-114.5 383,-95.5 306,-95.5"/>
<text text-anchor="middle" x="344.5" y="-102.5" font-family="Helvetica,sans-Serif" font-size="10.00">update_data</text>
</a>
</g>
</g>
<!-- Node1&#45;&gt;Node7 -->
<g id="edge6" class="edge">
<title>Node1&#45;&gt;Node7</title>
<path fill="none" stroke="midnightblue" d="M408.84,-116.8C400.41,-115.23 391.5,-113.57 383.11,-112.01"/>
<polygon fill="midnightblue" stroke="midnightblue" points="408.34,-120.27 418.82,-118.66 409.63,-113.38 408.34,-120.27"/>
</g>
<!-- Node3 -->
<g id="node3" class="node">
<title>Node3</title>
<g id="a_node3"><a xlink:href="treap_8hpp.html#a5029123d55b27e0746b8616a6f79eda3" target="_top" xlink:title=" ">
<polygon fill="white" stroke="black" points="104,-190.5 104,-209.5 172,-209.5 172,-190.5 104,-190.5"/>
<text text-anchor="middle" x="138" y="-197.5" font-family="Helvetica,sans-Serif" font-size="10.00">erase_imp</text>
</a>
</g>
</g>
<!-- Node2&#45;&gt;Node3 -->
<g id="edge2" class="edge">
<title>Node2&#45;&gt;Node3</title>
<path fill="none" stroke="midnightblue" d="M203.44,-175.26C190.45,-180.25 175.93,-185.82 163.97,-190.41"/>
<polygon fill="midnightblue" stroke="midnightblue" points="204.94,-178.44 213.02,-171.59 202.43,-171.9 204.94,-178.44"/>
</g>
<!-- Node4 -->
<g id="node4" class="node">
<title>Node4</title>
<g id="a_node4"><a xlink:href="treap_8hpp.html#aa2ab504328f4d744315ec1da21b666f3" target="_top" xlink:title=" ">
<polygon fill="white" stroke="black" points="110,-152.5 110,-171.5 166,-171.5 166,-152.5 110,-152.5"/>
<text text-anchor="middle" x="138" y="-159.5" font-family="Helvetica,sans-Serif" font-size="10.00">get_imp</text>
</a>
</g>
</g>
<!-- Node2&#45;&gt;Node4 -->
<g id="edge3" class="edge">
<title>Node2&#45;&gt;Node4</title>
<path fill="none" stroke="midnightblue" d="M197.44,-162C186.86,-162 175.72,-162 166.03,-162"/>
<polygon fill="midnightblue" stroke="midnightblue" points="197.76,-165.5 207.76,-162 197.76,-158.5 197.76,-165.5"/>
</g>
<!-- Node5 -->
<g id="node5" class="node">
<title>Node5</title>
<g id="a_node5"><a xlink:href="treap_8hpp.html#aa2a3eaf4c00318c5a4c9298b83d06003" target="_top" xlink:title=" ">
<polygon fill="white" stroke="black" points="104,-114.5 104,-133.5 172,-133.5 172,-114.5 104,-114.5"/>
<text text-anchor="middle" x="138" y="-121.5" font-family="Helvetica,sans-Serif" font-size="10.00">insert_imp</text>
</a>
</g>
</g>
<!-- Node2&#45;&gt;Node5 -->
<g id="edge4" class="edge">
<title>Node2&#45;&gt;Node5</title>
<path fill="none" stroke="midnightblue" d="M203.44,-148.74C190.45,-143.75 175.93,-138.18 163.97,-133.59"/>
<polygon fill="midnightblue" stroke="midnightblue" points="202.43,-152.1 213.02,-152.41 204.94,-145.56 202.43,-152.1"/>
</g>
<!-- Node6 -->
<g id="node6" class="node">
<title>Node6</title>
<g id="a_node6"><a xlink:href="treap_8hpp.html#a4396c20ba2dc1e8172125ce5a28794e6" target="_top" xlink:title=" ">
<polygon fill="white" stroke="black" points="0,-114.5 0,-133.5 68,-133.5 68,-114.5 0,-114.5"/>
<text text-anchor="middle" x="34" y="-121.5" font-family="Helvetica,sans-Serif" font-size="10.00">insert_imp</text>
</a>
</g>
</g>
<!-- Node5&#45;&gt;Node6 -->
<g id="edge5" class="edge">
<title>Node5&#45;&gt;Node6</title>
<path fill="none" stroke="midnightblue" d="M93.72,-124C85.21,-124 76.42,-124 68.3,-124"/>
<polygon fill="midnightblue" stroke="midnightblue" points="93.88,-127.5 103.88,-124 93.88,-120.5 93.88,-127.5"/>
</g>
<!-- Node7&#45;&gt;Node2 -->
<g id="edge17" class="edge">
<title>Node7&#45;&gt;Node2</title>
<path fill="none" stroke="midnightblue" d="M317,-119.59C298.23,-129.93 273.59,-143.5 257.3,-152.47"/>
<polygon fill="midnightblue" stroke="midnightblue" points="318.87,-122.56 325.94,-114.67 315.49,-116.43 318.87,-122.56"/>
</g>
<!-- Node8 -->
<g id="node8" class="node">
<title>Node8</title>
<g id="a_node8"><a xlink:href="treap_8hpp.html#add90798283a022be36a018723badda5b" target="_top" xlink:title=" ">
<polygon fill="white" stroke="black" points="116,-76.5 116,-95.5 160,-95.5 160,-76.5 116,-76.5"/>
<text text-anchor="middle" x="138" y="-83.5" font-family="Helvetica,sans-Serif" font-size="10.00">erase</text>
</a>
</g>
</g>
<!-- Node7&#45;&gt;Node8 -->
<g id="edge7" class="edge">
<title>Node7&#45;&gt;Node8</title>
<path fill="none" stroke="midnightblue" d="M295.77,-100.57C252.83,-96.58 191.76,-90.9 160.01,-87.95"/>
<polygon fill="midnightblue" stroke="midnightblue" points="295.71,-104.07 305.99,-101.52 296.36,-97.1 295.71,-104.07"/>
</g>
<!-- Node9 -->
<g id="node9" class="node">
<title>Node9</title>
<g id="a_node9"><a xlink:href="treap_8hpp.html#ad45b31cb3a5a560af114abfcbce83936" target="_top" xlink:title=" ">
<polygon fill="white" stroke="black" points="116,-19.5 116,-38.5 160,-38.5 160,-19.5 116,-19.5"/>
<text text-anchor="middle" x="138" y="-26.5" font-family="Helvetica,sans-Serif" font-size="10.00">insert</text>
</a>
</g>
</g>
<!-- Node7&#45;&gt;Node9 -->
<g id="edge8" class="edge">
<title>Node7&#45;&gt;Node9</title>
<path fill="none" stroke="midnightblue" d="M308.16,-91.87C265.46,-76 195.02,-49.82 160.05,-36.82"/>
<polygon fill="midnightblue" stroke="midnightblue" points="307.01,-95.17 317.6,-95.37 309.45,-88.61 307.01,-95.17"/>
</g>
<!-- Node11 -->
<g id="node11" class="node">
<title>Node11</title>
<g id="a_node11"><a xlink:href="treap_8hpp.html#a4338e31f2a01e882efc6adf47768c076" target="_top" xlink:title="Joins treap l and treap r.">
<polygon fill="white" stroke="black" points="221.5,-114.5 221.5,-133.5 256.5,-133.5 256.5,-114.5 221.5,-114.5"/>
<text text-anchor="middle" x="239" y="-121.5" font-family="Helvetica,sans-Serif" font-size="10.00">join</text>
</a>
</g>
</g>
<!-- Node7&#45;&gt;Node11 -->
<g id="edge10" class="edge">
<title>Node7&#45;&gt;Node11</title>
<path fill="none" stroke="midnightblue" d="M295.76,-113.76C281.75,-116.34 267.33,-118.98 256.67,-120.94"/>
<polygon fill="midnightblue" stroke="midnightblue" points="296.64,-117.16 305.84,-111.91 295.37,-110.28 296.64,-117.16"/>
</g>
<!-- Node12 -->
<g id="node12" class="node">
<title>Node12</title>
<g id="a_node12"><a xlink:href="treap_8hpp.html#ab4b19e3c8f0a975627a7261ed3e2c29b" target="_top" xlink:title=" ">
<polygon fill="white" stroke="black" points="220,-0.5 220,-19.5 258,-19.5 258,-0.5 220,-0.5"/>
<text text-anchor="middle" x="239" y="-7.5" font-family="Helvetica,sans-Serif" font-size="10.00">split</text>
</a>
</g>
</g>
<!-- Node7&#45;&gt;Node12 -->
<g id="edge15" class="edge">
<title>Node7&#45;&gt;Node12</title>
<path fill="none" stroke="midnightblue" d="M326.46,-87.66C311.84,-72.98 290.01,-51.6 270,-34 264.39,-29.07 257.95,-23.86 252.47,-19.56"/>
<polygon fill="midnightblue" stroke="midnightblue" points="324.27,-90.41 333.79,-95.05 329.24,-85.49 324.27,-90.41"/>
</g>
<!-- Node10 -->
<g id="node10" class="node">
<title>Node10</title>
<g id="a_node10"><a xlink:href="treap_8hpp.html#a14ea768f9d1a656b814be126c0a631c8" target="_top" xlink:title=" ">
<polygon fill="white" stroke="black" points="12,-19.5 12,-38.5 56,-38.5 56,-19.5 12,-19.5"/>
<text text-anchor="middle" x="34" y="-26.5" font-family="Helvetica,sans-Serif" font-size="10.00">insert</text>
</a>
</g>
</g>
<!-- Node9&#45;&gt;Node10 -->
<g id="edge9" class="edge">
<title>Node9&#45;&gt;Node10</title>
<path fill="none" stroke="midnightblue" d="M105.81,-29C89.7,-29 70.46,-29 56.11,-29"/>
<polygon fill="midnightblue" stroke="midnightblue" points="105.87,-32.5 115.87,-29 105.87,-25.5 105.87,-32.5"/>
</g>
<!-- Node11&#45;&gt;Node3 -->
<g id="edge12" class="edge">
<title>Node11&#45;&gt;Node3</title>
<path fill="none" stroke="midnightblue" d="M212.83,-139.28C211.16,-140.49 209.54,-141.74 208,-143 190.04,-157.78 190.27,-166.6 172,-181 167.64,-184.44 162.59,-187.66 157.77,-190.45"/>
<polygon fill="midnightblue" stroke="midnightblue" points="214.97,-142.05 221.3,-133.55 211.05,-136.25 214.97,-142.05"/>
</g>
<!-- Node11&#45;&gt;Node4 -->
<g id="edge13" class="edge">
<title>Node11&#45;&gt;Node4</title>
<path fill="none" stroke="midnightblue" d="M211.65,-134.11C196.9,-139.78 178.6,-146.8 164.07,-152.38"/>
<polygon fill="midnightblue" stroke="midnightblue" points="213.12,-137.3 221.21,-130.45 210.62,-130.76 213.12,-137.3"/>
</g>
<!-- Node11&#45;&gt;Node5 -->
<g id="edge14" class="edge">
<title>Node11&#45;&gt;Node5</title>
<path fill="none" stroke="midnightblue" d="M210.98,-124C199.05,-124 184.91,-124 172.33,-124"/>
<polygon fill="midnightblue" stroke="midnightblue" points="211.21,-127.5 221.21,-124 211.21,-120.5 211.21,-127.5"/>
</g>
<!-- Node11&#45;&gt;Node8 -->
<g id="edge11" class="edge">
<title>Node11&#45;&gt;Node8</title>
<path fill="none" stroke="midnightblue" d="M211.77,-113.93C195.6,-107.72 175.12,-99.87 160.02,-94.07"/>
<polygon fill="midnightblue" stroke="midnightblue" points="210.62,-117.24 221.21,-117.55 213.12,-110.7 210.62,-117.24"/>
</g>
<!-- Node12&#45;&gt;Node9 -->
<g id="edge16" class="edge">
<title>Node12&#45;&gt;Node9</title>
<path fill="none" stroke="midnightblue" d="M209.59,-15.45C193.83,-18.48 174.56,-22.18 160.14,-24.94"/>
<polygon fill="midnightblue" stroke="midnightblue" points="210.68,-18.81 219.84,-13.48 209.36,-11.93 210.68,-18.81"/>
</g>
</g>
</svg>
