<?xml version="1.0" encoding="UTF-8" standalone="no"?>
<!DOCTYPE svg PUBLIC "-//W3C//DTD SVG 1.1//EN"
 "http://www.w3.org/Graphics/SVG/1.1/DTD/svg11.dtd">
<!-- Generated by graphviz version 2.43.0 (0)
 -->
<!-- Title: insert_imp Pages: 1 -->
<svg width="382pt" height="79pt"
 viewBox="0.00 0.00 382.00 78.64" xmlns="http://www.w3.org/2000/svg" xmlns:xlink="http://www.w3.org/1999/xlink">
<g id="graph0" class="graph" transform="scale(1 1) rotate(0) translate(4 74.64)">
<title>insert_imp</title>
<polygon fill="white" stroke="transparent" points="-4,4 -4,-74.64 378,-74.64 378,4 -4,4"/>
<!-- Node1 -->
<g id="node1" class="node">
<title>Node1</title>
<g id="a_node1"><a xlink:title=" ">
<polygon fill="#bfbfbf" stroke="black" points="0,-32.14 0,-51.14 68,-51.14 68,-32.14 0,-32.14"/>
<text text-anchor="middle" x="34" y="-39.14" font-family="Helvetica,sans-Serif" font-size="10.00">insert_imp</text>
</a>
</g>
</g>
<!-- Node2 -->
<g id="node2" class="node">
<title>Node2</title>
<g id="a_node2"><a xlink:href="treap_8hpp.html#a4338e31f2a01e882efc6adf47768c076" target="_top" xlink:title="Joins treap l and treap r.">
<polygon fill="white" stroke="black" points="117.5,-51.14 117.5,-70.14 152.5,-70.14 152.5,-51.14 117.5,-51.14"/>
<text text-anchor="middle" x="135" y="-58.14" font-family="Helvetica,sans-Serif" font-size="10.00">join</text>
</a>
</g>
</g>
<!-- Node1&#45;&gt;Node2 -->
<g id="edge1" class="edge">
<title>Node1&#45;&gt;Node2</title>
<path fill="none" stroke="midnightblue" d="M68.24,-48.02C81.01,-50.47 95.41,-53.23 107.47,-55.55"/>
<polygon fill="midnightblue" stroke="midnightblue" points="106.89,-59 117.37,-57.45 108.21,-52.12 106.89,-59"/>
</g>
<!-- Node6 -->
<g id="node6" class="node">
<title>Node6</title>
<g id="a_node6"><a xlink:href="treap_8hpp.html#aff38806a204c6e78d7945e04b556f588" target="_top" xlink:title=" ">
<polygon fill="white" stroke="black" points="104,-13.14 104,-32.14 166,-32.14 166,-13.14 104,-13.14"/>
<text text-anchor="middle" x="135" y="-20.14" font-family="Helvetica,sans-Serif" font-size="10.00">split_imp</text>
</a>
</g>
</g>
<!-- Node1&#45;&gt;Node6 -->
<g id="edge5" class="edge">
<title>Node1&#45;&gt;Node6</title>
<path fill="none" stroke="midnightblue" d="M68.24,-35.26C76.39,-33.69 85.2,-32 93.64,-30.38"/>
<polygon fill="midnightblue" stroke="midnightblue" points="94.52,-33.78 103.68,-28.46 93.2,-26.9 94.52,-33.78"/>
</g>
<!-- Node3 -->
<g id="node3" class="node">
<title>Node3</title>
<g id="a_node3"><a xlink:href="treap_8hpp.html#a4a94ad7cd8f33ebf044afd6d79a174f8" target="_top" xlink:title=" ">
<polygon fill="white" stroke="black" points="219,-13.14 219,-32.14 262,-32.14 262,-13.14 219,-13.14"/>
<text text-anchor="middle" x="240.5" y="-20.14" font-family="Helvetica,sans-Serif" font-size="10.00">down</text>
</a>
</g>
</g>
<!-- Node2&#45;&gt;Node3 -->
<g id="edge2" class="edge">
<title>Node2&#45;&gt;Node3</title>
<path fill="none" stroke="midnightblue" d="M152.63,-54.53C167.94,-48.91 191,-40.44 209.52,-33.64"/>
<polygon fill="midnightblue" stroke="midnightblue" points="210.81,-36.9 218.99,-30.17 208.4,-30.33 210.81,-36.9"/>
</g>
<!-- Node4 -->
<g id="node4" class="node">
<title>Node4</title>
<g id="a_node4"><a xlink:href="treap_8hpp.html#a9321be3a55db4ee924a0e968e12734a2" target="_top" xlink:title=" ">
<polygon fill="white" stroke="black" points="202,-51.14 202,-70.14 279,-70.14 279,-51.14 202,-51.14"/>
<text text-anchor="middle" x="240.5" y="-58.14" font-family="Helvetica,sans-Serif" font-size="10.00">update_data</text>
</a>
</g>
</g>
<!-- Node2&#45;&gt;Node4 -->
<g id="edge3" class="edge">
<title>Node2&#45;&gt;Node4</title>
<path fill="none" stroke="midnightblue" d="M152.63,-60.64C163.3,-60.64 177.73,-60.64 191.78,-60.64"/>
<polygon fill="midnightblue" stroke="midnightblue" points="191.87,-64.14 201.87,-60.64 191.87,-57.14 191.87,-64.14"/>
</g>
<!-- Node5 -->
<g id="node5" class="node">
<title>Node5</title>
<g id="a_node5"><a xlink:href="treap_8hpp.html#a88d816c35d3a703c27719dabc1631d79" target="_top" xlink:title=" ">
<polygon fill="white" stroke="black" points="315,-13.14 315,-32.14 374,-32.14 374,-13.14 315,-13.14"/>
<text text-anchor="middle" x="344.5" y="-20.14" font-family="Helvetica,sans-Serif" font-size="10.00">get_data</text>
</a>
</g>
</g>
<!-- Node4&#45;&gt;Node5 -->
<g id="edge4" class="edge">
<title>Node4&#45;&gt;Node5</title>
<path fill="none" stroke="midnightblue" d="M267.24,-51.05C279.68,-46.41 294.81,-40.78 308.3,-35.75"/>
<polygon fill="midnightblue" stroke="midnightblue" points="309.62,-38.99 317.77,-32.22 307.18,-32.43 309.62,-38.99"/>
</g>
<!-- Node6&#45;&gt;Node3 -->
<g id="edge6" class="edge">
<title>Node6&#45;&gt;Node3</title>
<path fill="none" stroke="midnightblue" d="M166.21,-22.64C179.59,-22.64 195.29,-22.64 208.73,-22.64"/>
<polygon fill="midnightblue" stroke="midnightblue" points="208.93,-26.14 218.93,-22.64 208.93,-19.14 208.93,-26.14"/>
</g>
<!-- Node6&#45;&gt;Node4 -->
<g id="edge8" class="edge">
<title>Node6&#45;&gt;Node4</title>
<path fill="none" stroke="midnightblue" d="M162.12,-32.23C174.74,-36.86 190.09,-42.5 203.78,-47.52"/>
<polygon fill="midnightblue" stroke="midnightblue" points="202.8,-50.89 213.39,-51.05 205.21,-44.32 202.8,-50.89"/>
</g>
<!-- Node6&#45;&gt;Node5 -->
<g id="edge7" class="edge">
<title>Node6&#45;&gt;Node5</title>
<path fill="none" stroke="midnightblue" d="M162.6,-13.14C174.49,-9.37 188.78,-5.5 202,-3.64 235.89,1.14 245.13,1.25 279,-3.64 288.5,-5.01 298.56,-7.46 307.83,-10.16"/>
<polygon fill="midnightblue" stroke="midnightblue" points="306.93,-13.54 317.52,-13.14 308.99,-6.85 306.93,-13.54"/>
</g>
</g>
</svg>
