<?xml version="1.0" encoding="UTF-8" standalone="no"?>
<!DOCTYPE svg PUBLIC "-//W3C//DTD SVG 1.1//EN"
 "http://www.w3.org/Graphics/SVG/1.1/DTD/svg11.dtd">
<!-- Generated by graphviz version 2.43.0 (0)
 -->
<!-- Title: test_tree_diameter Pages: 1 -->
<svg width="429pt" height="123pt"
 viewBox="0.00 0.00 429.00 123.00" xmlns="http://www.w3.org/2000/svg" xmlns:xlink="http://www.w3.org/1999/xlink">
<g id="graph0" class="graph" transform="scale(1 1) rotate(0) translate(4 119)">
<title>test_tree_diameter</title>
<polygon fill="white" stroke="transparent" points="-4,4 -4,-119 425,-119 425,4 -4,4"/>
<!-- Node1 -->
<g id="node1" class="node">
<title>Node1</title>
<g id="a_node1"><a xlink:title=" ">
<polygon fill="#bfbfbf" stroke="black" points="0,-57.5 0,-76.5 110,-76.5 110,-57.5 0,-57.5"/>
<text text-anchor="middle" x="55" y="-64.5" font-family="Helvetica,sans-Serif" font-size="10.00">test_tree_diameter</text>
</a>
</g>
</g>
<!-- Node2 -->
<g id="node2" class="node">
<title>Node2</title>
<g id="a_node2"><a xlink:href="namespacegraph__theory.html#a7baea0d3e99864e50ed82e6e93a88eb5" target="_top" xlink:title=" ">
<polygon fill="white" stroke="black" points="146,-95.5 146,-114.5 280,-114.5 280,-95.5 146,-95.5"/>
<text text-anchor="middle" x="213" y="-102.5" font-family="Helvetica,sans-Serif" font-size="10.00">graph_theory::add_edge</text>
</a>
</g>
</g>
<!-- Node1&#45;&gt;Node2 -->
<g id="edge1" class="edge">
<title>Node1&#45;&gt;Node2</title>
<path fill="none" stroke="midnightblue" d="M95.37,-76.59C115.95,-81.6 141.34,-87.79 163.17,-93.11"/>
<polygon fill="midnightblue" stroke="midnightblue" points="162.37,-96.51 172.92,-95.48 164.03,-89.71 162.37,-96.51"/>
</g>
<!-- Node3 -->
<g id="node3" class="node">
<title>Node3</title>
<g id="a_node3"><a xlink:href="namespacetree.html#a1db5e81cd89b854831db8147ff509caa" target="_top" xlink:title=" ">
<polygon fill="white" stroke="black" points="177,-57.5 177,-76.5 249,-76.5 249,-57.5 177,-57.5"/>
<text text-anchor="middle" x="213" y="-64.5" font-family="Helvetica,sans-Serif" font-size="10.00">tree::assert</text>
</a>
</g>
</g>
<!-- Node1&#45;&gt;Node3 -->
<g id="edge2" class="edge">
<title>Node1&#45;&gt;Node3</title>
<path fill="none" stroke="midnightblue" d="M110.12,-67C128.51,-67 148.86,-67 166.51,-67"/>
<polygon fill="midnightblue" stroke="midnightblue" points="166.55,-70.5 176.55,-67 166.55,-63.5 166.55,-70.5"/>
</g>
<!-- Node4 -->
<g id="node4" class="node">
<title>Node4</title>
<g id="a_node4"><a xlink:href="tree_8hpp.html#a1e3385a1611e3921d5344fed4db8c54c" target="_top" xlink:title="Find tree diameter.">
<polygon fill="white" stroke="black" points="170,-19.5 170,-38.5 256,-38.5 256,-19.5 170,-19.5"/>
<text text-anchor="middle" x="213" y="-26.5" font-family="Helvetica,sans-Serif" font-size="10.00">tree_diameter</text>
</a>
</g>
</g>
<!-- Node1&#45;&gt;Node4 -->
<g id="edge3" class="edge">
<title>Node1&#45;&gt;Node4</title>
<path fill="none" stroke="midnightblue" d="M95.37,-57.41C115.95,-52.4 141.34,-46.21 163.17,-40.89"/>
<polygon fill="midnightblue" stroke="midnightblue" points="164.03,-44.29 172.92,-38.52 162.37,-37.49 164.03,-44.29"/>
</g>
<!-- Node5 -->
<g id="node5" class="node">
<title>Node5</title>
<g id="a_node5"><a xlink:href="namespacegraph__theory.html#a4ebc5c354c7f3d8a187b1af524050c0a" target="_top" xlink:title=" ">
<polygon fill="white" stroke="black" points="316,-38.5 316,-57.5 421,-57.5 421,-38.5 316,-38.5"/>
<text text-anchor="middle" x="368.5" y="-45.5" font-family="Helvetica,sans-Serif" font-size="10.00">graph_theory::BFS</text>
</a>
</g>
</g>
<!-- Node4&#45;&gt;Node5 -->
<g id="edge4" class="edge">
<title>Node4&#45;&gt;Node5</title>
<path fill="none" stroke="midnightblue" d="M256.35,-34.24C271.64,-36.13 289.22,-38.31 305.82,-40.37"/>
<polygon fill="midnightblue" stroke="midnightblue" points="305.65,-43.87 316,-41.63 306.51,-36.92 305.65,-43.87"/>
</g>
<!-- Node6 -->
<g id="node6" class="node">
<title>Node6</title>
<g id="a_node6"><a xlink:href="operations_8hpp.html#a915663194fec79c061edfaea61707bd0" target="_top" xlink:title=" ">
<polygon fill="white" stroke="black" points="354,-0.5 354,-19.5 383,-19.5 383,-0.5 354,-0.5"/>
<text text-anchor="middle" x="368.5" y="-7.5" font-family="Helvetica,sans-Serif" font-size="10.00">fo</text>
</a>
</g>
</g>
<!-- Node4&#45;&gt;Node6 -->
<g id="edge5" class="edge">
<title>Node4&#45;&gt;Node6</title>
<path fill="none" stroke="midnightblue" d="M256.35,-23.76C284.54,-20.27 320.54,-15.81 343.81,-12.93"/>
<polygon fill="midnightblue" stroke="midnightblue" points="344.32,-16.4 353.82,-11.69 343.46,-9.45 344.32,-16.4"/>
</g>
</g>
</svg>
