<?xml version="1.0" encoding="UTF-8" standalone="no"?>
<!DOCTYPE svg PUBLIC "-//W3C//DTD SVG 1.1//EN"
 "http://www.w3.org/Graphics/SVG/1.1/DTD/svg11.dtd">
<!-- Generated by graphviz version 2.43.0 (0)
 -->
<!-- Title: test_tree_diameter Pages: 1 -->
<svg width="381pt" height="28pt"
 viewBox="0.00 0.00 381.00 28.00" xmlns="http://www.w3.org/2000/svg" xmlns:xlink="http://www.w3.org/1999/xlink">
<g id="graph0" class="graph" transform="scale(1 1) rotate(0) translate(4 24)">
<title>test_tree_diameter</title>
<polygon fill="white" stroke="transparent" points="-4,4 -4,-24 377,-24 377,4 -4,4"/>
<!-- Node1 -->
<g id="node1" class="node">
<title>Node1</title>
<g id="a_node1"><a xlink:title=" ">
<polygon fill="#bfbfbf" stroke="black" points="0,-0.5 0,-19.5 110,-19.5 110,-0.5 0,-0.5"/>
<text text-anchor="middle" x="55" y="-7.5" font-family="Helvetica,sans-Serif" font-size="10.00">test_tree_diameter</text>
</a>
</g>
</g>
<!-- Node2 -->
<g id="node2" class="node">
<title>Node2</title>
<g id="a_node2"><a xlink:href="$tree_8hpp.html#a202200d4d06aea05b7638be837590286" xlink:title="Find tree diameter.">
<polygon fill="white" stroke="black" points="146,-0.5 146,-19.5 232,-19.5 232,-0.5 146,-0.5"/>
<text text-anchor="middle" x="189" y="-7.5" font-family="Helvetica,sans-Serif" font-size="10.00">tree_diameter</text>
</a>
</g>
</g>
<!-- Node1&#45;&gt;Node2 -->
<g id="edge1" class="edge">
<title>Node1&#45;&gt;Node2</title>
<path fill="none" stroke="midnightblue" d="M110.07,-10C118.57,-10 127.35,-10 135.81,-10"/>
<polygon fill="midnightblue" stroke="midnightblue" points="135.93,-13.5 145.93,-10 135.93,-6.5 135.93,-13.5"/>
</g>
<!-- Node3 -->
<g id="node3" class="node">
<title>Node3</title>
<g id="a_node3"><a xlink:href="$namespacegraph__theory.html#a4ebc5c354c7f3d8a187b1af524050c0a" xlink:title=" ">
<polygon fill="white" stroke="black" points="268,-0.5 268,-19.5 373,-19.5 373,-0.5 268,-0.5"/>
<text text-anchor="middle" x="320.5" y="-7.5" font-family="Helvetica,sans-Serif" font-size="10.00">graph_theory::BFS</text>
</a>
</g>
</g>
<!-- Node2&#45;&gt;Node3 -->
<g id="edge2" class="edge">
<title>Node2&#45;&gt;Node3</title>
<path fill="none" stroke="midnightblue" d="M232.04,-10C240.22,-10 248.95,-10 257.61,-10"/>
<polygon fill="midnightblue" stroke="midnightblue" points="257.7,-13.5 267.7,-10 257.7,-6.5 257.7,-13.5"/>
</g>
</g>
</svg>
