<?xml version="1.0" encoding="UTF-8" standalone="no"?>
<!DOCTYPE svg PUBLIC "-//W3C//DTD SVG 1.1//EN"
 "http://www.w3.org/Graphics/SVG/1.1/DTD/svg11.dtd">
<!-- Generated by graphviz version 2.43.0 (0)
 -->
<!-- Title: /home/ram/OmniTemplate/src/graph/tree/tree.hpp Pages: 1 -->
<svg width="746pt" height="318pt"
 viewBox="0.00 0.00 746.00 318.00" xmlns="http://www.w3.org/2000/svg" xmlns:xlink="http://www.w3.org/1999/xlink">
<g id="graph0" class="graph" transform="scale(1 1) rotate(0) translate(4 314)">
<title>/home/ram/OmniTemplate/src/graph/tree/tree.hpp</title>
<polygon fill="white" stroke="transparent" points="-4,4 -4,-314 742,-314 742,4 -4,4"/>
<!-- Node1 -->
<g id="node1" class="node">
<title>Node1</title>
<g id="a_node1"><a xlink:title=" ">
<polygon fill="#bfbfbf" stroke="black" points="68,-279.5 68,-309.5 212,-309.5 212,-279.5 68,-279.5"/>
<text text-anchor="start" x="76" y="-297.5" font-family="Helvetica,sans-Serif" font-size="10.00">/home/ram/OmniTemplate</text>
<text text-anchor="middle" x="140" y="-286.5" font-family="Helvetica,sans-Serif" font-size="10.00">/src/graph/tree/tree.hpp</text>
</a>
</g>
</g>
<!-- Node2 -->
<g id="node2" class="node">
<title>Node2</title>
<g id="a_node2"><a xlink:href="template_8hpp.html" target="_top" xlink:title=" ">
<polygon fill="white" stroke="black" points="168,-73 168,-103 312,-103 312,-73 168,-73"/>
<text text-anchor="start" x="176" y="-91" font-family="Helvetica,sans-Serif" font-size="10.00">/home/ram/OmniTemplate</text>
<text text-anchor="middle" x="240" y="-80" font-family="Helvetica,sans-Serif" font-size="10.00">/src/core/template.hpp</text>
</a>
</g>
</g>
<!-- Node1&#45;&gt;Node2 -->
<g id="edge1" class="edge">
<title>Node1&#45;&gt;Node2</title>
<path fill="none" stroke="midnightblue" d="M114.04,-272.83C79.91,-243.14 27.78,-187.34 59,-145 66.64,-134.64 132.58,-116.02 182.69,-103.11"/>
<polygon fill="midnightblue" stroke="midnightblue" points="111.95,-275.65 121.84,-279.45 116.48,-270.31 111.95,-275.65"/>
</g>
<!-- Node4 -->
<g id="node4" class="node">
<title>Node4</title>
<g id="a_node4"><a xlink:href="graph_2all_8hpp.html" target="_top" xlink:title=" ">
<polygon fill="white" stroke="black" points="218,-212.5 218,-242.5 362,-242.5 362,-212.5 218,-212.5"/>
<text text-anchor="start" x="226" y="-230.5" font-family="Helvetica,sans-Serif" font-size="10.00">/home/ram/OmniTemplate</text>
<text text-anchor="middle" x="290" y="-219.5" font-family="Helvetica,sans-Serif" font-size="10.00">/src/graph/all.hpp</text>
</a>
</g>
</g>
<!-- Node1&#45;&gt;Node4 -->
<g id="edge3" class="edge">
<title>Node1&#45;&gt;Node4</title>
<path fill="none" stroke="midnightblue" d="M181.75,-275.41C205.7,-265.03 235.32,-252.2 257.52,-242.58"/>
<polygon fill="midnightblue" stroke="midnightblue" points="180.33,-272.21 172.55,-279.4 183.11,-278.63 180.33,-272.21"/>
</g>
<!-- Node3 -->
<g id="node3" class="node">
<title>Node3</title>
<g id="a_node3"><a xlink:href="test_8cpp.html" target="_top" xlink:title=" ">
<polygon fill="white" stroke="black" points="330,-0.5 330,-30.5 474,-30.5 474,-0.5 330,-0.5"/>
<text text-anchor="start" x="338" y="-18.5" font-family="Helvetica,sans-Serif" font-size="10.00">/home/ram/OmniTemplate</text>
<text text-anchor="middle" x="402" y="-7.5" font-family="Helvetica,sans-Serif" font-size="10.00">/src/test/test.cpp</text>
</a>
</g>
</g>
<!-- Node2&#45;&gt;Node3 -->
<g id="edge2" class="edge">
<title>Node2&#45;&gt;Node3</title>
<path fill="none" stroke="midnightblue" d="M281.72,-68.84C309.11,-56.92 344.4,-41.57 369.66,-30.57"/>
<polygon fill="midnightblue" stroke="midnightblue" points="280.17,-65.7 272.39,-72.9 282.96,-72.12 280.17,-65.7"/>
</g>
<!-- Node4&#45;&gt;Node2 -->
<g id="edge4" class="edge">
<title>Node4&#45;&gt;Node2</title>
<path fill="none" stroke="midnightblue" d="M273.76,-203.7C268.4,-195.31 262.84,-185.53 259,-176 249.13,-151.48 243.97,-120.9 241.63,-103.29"/>
<polygon fill="midnightblue" stroke="midnightblue" points="270.94,-205.78 279.4,-212.17 276.77,-201.91 270.94,-205.78"/>
</g>
<!-- Node5 -->
<g id="node5" class="node">
<title>Node5</title>
<g id="a_node5"><a xlink:href="2sat_8hpp.html" target="_top" xlink:title=" ">
<polygon fill="white" stroke="black" points="432,-145.5 432,-175.5 576,-175.5 576,-145.5 432,-145.5"/>
<text text-anchor="start" x="440" y="-163.5" font-family="Helvetica,sans-Serif" font-size="10.00">/home/ram/OmniTemplate</text>
<text text-anchor="middle" x="504" y="-152.5" font-family="Helvetica,sans-Serif" font-size="10.00">/src/graph/2sat.hpp</text>
</a>
</g>
</g>
<!-- Node4&#45;&gt;Node5 -->
<g id="edge5" class="edge">
<title>Node4&#45;&gt;Node5</title>
<path fill="none" stroke="midnightblue" d="M346.15,-209.44C380.84,-198.91 424.82,-185.55 457.54,-175.61"/>
<polygon fill="midnightblue" stroke="midnightblue" points="344.72,-206.22 336.17,-212.48 346.76,-212.92 344.72,-206.22"/>
</g>
<!-- Node7 -->
<g id="node7" class="node">
<title>Node7</title>
<g id="a_node7"><a xlink:href="test__all_8hpp.html" target="_top" xlink:title=" ">
<polygon fill="white" stroke="black" points="594,-145.5 594,-175.5 738,-175.5 738,-145.5 594,-145.5"/>
<text text-anchor="start" x="602" y="-163.5" font-family="Helvetica,sans-Serif" font-size="10.00">/home/ram/OmniTemplate</text>
<text text-anchor="middle" x="666" y="-152.5" font-family="Helvetica,sans-Serif" font-size="10.00">/src/graph/test_all.hpp</text>
</a>
</g>
</g>
<!-- Node4&#45;&gt;Node7 -->
<g id="edge9" class="edge">
<title>Node4&#45;&gt;Node7</title>
<path fill="none" stroke="midnightblue" d="M372.2,-212.6C431.4,-202.55 513.15,-188.58 585,-176 587.81,-175.51 590.68,-175 593.58,-174.49"/>
<polygon fill="midnightblue" stroke="midnightblue" points="371.43,-209.18 362.16,-214.3 372.61,-216.08 371.43,-209.18"/>
</g>
<!-- Node8 -->
<g id="node8" class="node">
<title>Node8</title>
<g id="a_node8"><a xlink:href="hld_8hpp.html" target="_top" xlink:title=" ">
<polygon fill="white" stroke="black" points="68,-145.5 68,-175.5 212,-175.5 212,-145.5 68,-145.5"/>
<text text-anchor="start" x="76" y="-163.5" font-family="Helvetica,sans-Serif" font-size="10.00">/home/ram/OmniTemplate</text>
<text text-anchor="middle" x="140" y="-152.5" font-family="Helvetica,sans-Serif" font-size="10.00">/src/graph/tree/hld.hpp</text>
</a>
</g>
</g>
<!-- Node4&#45;&gt;Node8 -->
<g id="edge11" class="edge">
<title>Node4&#45;&gt;Node8</title>
<path fill="none" stroke="midnightblue" d="M248.25,-208.41C224.3,-198.03 194.68,-185.2 172.48,-175.58"/>
<polygon fill="midnightblue" stroke="midnightblue" points="246.89,-211.63 257.45,-212.4 249.67,-205.21 246.89,-211.63"/>
</g>
<!-- Node10 -->
<g id="node10" class="node">
<title>Node10</title>
<g id="a_node10"><a xlink:href="graph__draw_8hpp.html" target="_top" xlink:title=" ">
<polygon fill="white" stroke="black" points="268,-145.5 268,-175.5 414,-175.5 414,-145.5 268,-145.5"/>
<text text-anchor="start" x="276" y="-163.5" font-family="Helvetica,sans-Serif" font-size="10.00">/home/ram/OmniTemplate</text>
<text text-anchor="middle" x="341" y="-152.5" font-family="Helvetica,sans-Serif" font-size="10.00">/src/utility/graph_draw.hpp</text>
</a>
</g>
</g>
<!-- Node4&#45;&gt;Node10 -->
<g id="edge15" class="edge">
<title>Node4&#45;&gt;Node10</title>
<path fill="none" stroke="midnightblue" d="M307.3,-204.45C314.79,-194.9 323.34,-184 329.96,-175.58"/>
<polygon fill="midnightblue" stroke="midnightblue" points="304.49,-202.37 301.07,-212.4 309.99,-206.69 304.49,-202.37"/>
</g>
<!-- Node5&#45;&gt;Node2 -->
<g id="edge6" class="edge">
<title>Node5&#45;&gt;Node2</title>
<path fill="none" stroke="midnightblue" d="M441.81,-142.89C396.51,-130.79 335.79,-114.58 292.83,-103.11"/>
<polygon fill="midnightblue" stroke="midnightblue" points="440.96,-146.29 451.53,-145.49 442.77,-139.53 440.96,-146.29"/>
</g>
<!-- Node6 -->
<g id="node6" class="node">
<title>Node6</title>
<g id="a_node6"><a xlink:href="test__2sat_8hpp.html" target="_top" xlink:title=" ">
<polygon fill="white" stroke="black" points="492,-73 492,-103 636,-103 636,-73 492,-73"/>
<text text-anchor="start" x="500" y="-91" font-family="Helvetica,sans-Serif" font-size="10.00">/home/ram/OmniTemplate</text>
<text text-anchor="middle" x="564" y="-80" font-family="Helvetica,sans-Serif" font-size="10.00">/src/graph/test_2sat.hpp</text>
</a>
</g>
</g>
<!-- Node5&#45;&gt;Node6 -->
<g id="edge7" class="edge">
<title>Node5&#45;&gt;Node6</title>
<path fill="none" stroke="midnightblue" d="M522.69,-137.54C532.21,-126.36 543.5,-113.08 551.88,-103.25"/>
<polygon fill="midnightblue" stroke="midnightblue" points="519.96,-135.35 516.14,-145.23 525.29,-139.89 519.96,-135.35"/>
</g>
<!-- Node6&#45;&gt;Node3 -->
<g id="edge8" class="edge">
<title>Node6&#45;&gt;Node3</title>
<path fill="none" stroke="midnightblue" d="M522.28,-68.84C494.89,-56.92 459.6,-41.57 434.34,-30.57"/>
<polygon fill="midnightblue" stroke="midnightblue" points="521.04,-72.12 531.61,-72.9 523.83,-65.7 521.04,-72.12"/>
</g>
<!-- Node7&#45;&gt;Node3 -->
<g id="edge10" class="edge">
<title>Node7&#45;&gt;Node3</title>
<path fill="none" stroke="midnightblue" d="M667.27,-135.32C666.98,-114.35 663.01,-84.68 645,-67 621.13,-43.57 536.84,-29.98 474.2,-22.92"/>
<polygon fill="midnightblue" stroke="midnightblue" points="663.77,-135.33 667.14,-145.37 670.77,-135.42 663.77,-135.33"/>
</g>
<!-- Node8&#45;&gt;Node2 -->
<g id="edge12" class="edge">
<title>Node8&#45;&gt;Node2</title>
<path fill="none" stroke="midnightblue" d="M168.47,-139.43C184.98,-127.79 205.36,-113.42 220.13,-103"/>
<polygon fill="midnightblue" stroke="midnightblue" points="166.39,-136.61 160.24,-145.23 170.43,-142.33 166.39,-136.61"/>
</g>
<!-- Node9 -->
<g id="node9" class="node">
<title>Node9</title>
<g id="a_node9"><a xlink:href="test__hld_8hpp.html" target="_top" xlink:title=" ">
<polygon fill="white" stroke="black" points="0,-73 0,-103 150,-103 150,-73 0,-73"/>
<text text-anchor="start" x="8" y="-91" font-family="Helvetica,sans-Serif" font-size="10.00">/home/ram/OmniTemplate</text>
<text text-anchor="middle" x="75" y="-80" font-family="Helvetica,sans-Serif" font-size="10.00">/src/graph/tree/test_hld.hpp</text>
</a>
</g>
</g>
<!-- Node8&#45;&gt;Node9 -->
<g id="edge13" class="edge">
<title>Node8&#45;&gt;Node9</title>
<path fill="none" stroke="midnightblue" d="M120.05,-137.86C109.68,-126.61 97.29,-113.18 88.13,-103.25"/>
<polygon fill="midnightblue" stroke="midnightblue" points="117.49,-140.25 126.85,-145.23 122.64,-135.51 117.49,-140.25"/>
</g>
<!-- Node9&#45;&gt;Node3 -->
<g id="edge14" class="edge">
<title>Node9&#45;&gt;Node3</title>
<path fill="none" stroke="midnightblue" d="M142.98,-70.64C148.4,-69.39 153.79,-68.16 159,-67 217.04,-54.06 283.12,-40.4 331.7,-30.55"/>
<polygon fill="midnightblue" stroke="midnightblue" points="142.19,-67.23 133.24,-72.9 143.78,-74.05 142.19,-67.23"/>
</g>
<!-- Node10&#45;&gt;Node2 -->
<g id="edge16" class="edge">
<title>Node10&#45;&gt;Node2</title>
<path fill="none" stroke="midnightblue" d="M312.25,-139.43C295.57,-127.79 274.99,-113.42 260.06,-103"/>
<polygon fill="midnightblue" stroke="midnightblue" points="310.36,-142.38 320.56,-145.23 314.36,-136.64 310.36,-142.38"/>
</g>
<!-- Node11 -->
<g id="node11" class="node">
<title>Node11</title>
<g id="a_node11"><a xlink:href="test__graph__draw_8hpp.html" target="_top" xlink:title=" ">
<polygon fill="white" stroke="black" points="330,-67.5 330,-108.5 474,-108.5 474,-67.5 330,-67.5"/>
<text text-anchor="start" x="338" y="-96.5" font-family="Helvetica,sans-Serif" font-size="10.00">/home/ram/OmniTemplate</text>
<text text-anchor="start" x="338" y="-85.5" font-family="Helvetica,sans-Serif" font-size="10.00">/src/utility/test_graph</text>
<text text-anchor="middle" x="402" y="-74.5" font-family="Helvetica,sans-Serif" font-size="10.00">_draw.hpp</text>
</a>
</g>
</g>
<!-- Node10&#45;&gt;Node11 -->
<g id="edge17" class="edge">
<title>Node10&#45;&gt;Node11</title>
<path fill="none" stroke="midnightblue" d="M360,-137.54C368.01,-128.28 377.27,-117.58 385.05,-108.59"/>
<polygon fill="midnightblue" stroke="midnightblue" points="357.24,-135.38 353.34,-145.23 362.53,-139.96 357.24,-135.38"/>
</g>
<!-- Node11&#45;&gt;Node3 -->
<g id="edge18" class="edge">
<title>Node11&#45;&gt;Node3</title>
<path fill="none" stroke="midnightblue" d="M402,-57.08C402,-48.01 402,-38.45 402,-30.89"/>
<polygon fill="midnightblue" stroke="midnightblue" points="398.5,-57.36 402,-67.36 405.5,-57.36 398.5,-57.36"/>
</g>
</g>
</svg>
