<?xml version="1.0" encoding="UTF-8" standalone="no"?>
<!DOCTYPE svg PUBLIC "-//W3C//DTD SVG 1.1//EN"
 "http://www.w3.org/Graphics/SVG/1.1/DTD/svg11.dtd">
<!-- Generated by graphviz version 2.43.0 (0)
 -->
<!-- Title: test_utility Pages: 1 -->
<svg width="288pt" height="142pt"
 viewBox="0.00 0.00 288.00 142.00" xmlns="http://www.w3.org/2000/svg" xmlns:xlink="http://www.w3.org/1999/xlink">
<g id="graph0" class="graph" transform="scale(1 1) rotate(0) translate(4 138)">
<title>test_utility</title>
<polygon fill="white" stroke="transparent" points="-4,4 -4,-138 284,-138 284,4 -4,4"/>
<!-- Node1 -->
<g id="node1" class="node">
<title>Node1</title>
<g id="a_node1"><a xlink:title=" ">
<polygon fill="#bfbfbf" stroke="black" points="0,-57.5 0,-76.5 69,-76.5 69,-57.5 0,-57.5"/>
<text text-anchor="middle" x="34.5" y="-64.5" font-family="Helvetica,sans-Serif" font-size="10.00">test_utility</text>
</a>
</g>
</g>
<!-- Node2 -->
<g id="node2" class="node">
<title>Node2</title>
<g id="a_node2"><a xlink:href="utility_8hpp.html#aebff8fa924a7c48ecb780e71c6316ea6" target="_top" xlink:title=" ">
<polygon fill="white" stroke="black" points="114,-114.5 114,-133.5 164,-133.5 164,-114.5 114,-114.5"/>
<text text-anchor="middle" x="139" y="-121.5" font-family="Helvetica,sans-Serif" font-size="10.00">test_ar</text>
</a>
</g>
</g>
<!-- Node1&#45;&gt;Node2 -->
<g id="edge1" class="edge">
<title>Node1&#45;&gt;Node2</title>
<path fill="none" stroke="midnightblue" d="M52.89,-76.67C69.11,-85.69 93.52,-99.27 112.05,-109.57"/>
<polygon fill="midnightblue" stroke="midnightblue" points="110.43,-112.67 120.87,-114.47 113.83,-106.55 110.43,-112.67"/>
</g>
<!-- Node3 -->
<g id="node3" class="node">
<title>Node3</title>
<g id="a_node3"><a xlink:href="utility_8hpp.html#af923bad71129f66456f8fd6545d79bfe" target="_top" xlink:title=" ">
<polygon fill="white" stroke="black" points="105,-76.5 105,-95.5 173,-95.5 173,-76.5 105,-76.5"/>
<text text-anchor="middle" x="139" y="-83.5" font-family="Helvetica,sans-Serif" font-size="10.00">test_comb</text>
</a>
</g>
</g>
<!-- Node1&#45;&gt;Node3 -->
<g id="edge2" class="edge">
<title>Node1&#45;&gt;Node3</title>
<path fill="none" stroke="midnightblue" d="M69.06,-73.22C77.29,-74.75 86.21,-76.4 94.81,-77.99"/>
<polygon fill="midnightblue" stroke="midnightblue" points="94.24,-81.45 104.71,-79.83 95.52,-74.57 94.24,-81.45"/>
</g>
<!-- Node5 -->
<g id="node5" class="node">
<title>Node5</title>
<g id="a_node5"><a xlink:href="utility_8hpp.html#ae9af300622998a43b200780645473ec3" target="_top" xlink:title=" ">
<polygon fill="white" stroke="black" points="109.5,-38.5 109.5,-57.5 168.5,-57.5 168.5,-38.5 109.5,-38.5"/>
<text text-anchor="middle" x="139" y="-45.5" font-family="Helvetica,sans-Serif" font-size="10.00">test_nx2</text>
</a>
</g>
</g>
<!-- Node1&#45;&gt;Node5 -->
<g id="edge4" class="edge">
<title>Node1&#45;&gt;Node5</title>
<path fill="none" stroke="midnightblue" d="M69.06,-60.78C78.68,-59 89.25,-57.04 99.16,-55.2"/>
<polygon fill="midnightblue" stroke="midnightblue" points="99.98,-58.61 109.18,-53.34 98.71,-51.72 99.98,-58.61"/>
</g>
<!-- Node7 -->
<g id="node7" class="node">
<title>Node7</title>
<g id="a_node7"><a xlink:href="utility_8hpp.html#a135862e0b9eecf842529ef19034e3c3c" target="_top" xlink:title=" ">
<polygon fill="white" stroke="black" points="108,-0.5 108,-19.5 170,-19.5 170,-0.5 108,-0.5"/>
<text text-anchor="middle" x="139" y="-7.5" font-family="Helvetica,sans-Serif" font-size="10.00">test_uniq</text>
</a>
</g>
</g>
<!-- Node1&#45;&gt;Node7 -->
<g id="edge6" class="edge">
<title>Node1&#45;&gt;Node7</title>
<path fill="none" stroke="midnightblue" d="M52.89,-57.33C69.11,-48.31 93.52,-34.73 112.05,-24.43"/>
<polygon fill="midnightblue" stroke="midnightblue" points="113.83,-27.45 120.87,-19.53 110.43,-21.33 113.83,-27.45"/>
</g>
<!-- Node4 -->
<g id="node4" class="node">
<title>Node4</title>
<g id="a_node4"><a xlink:href="utility_8hpp.html#ae7d7f9d0bbad247488d15de2919cfb9e" target="_top" xlink:title=" ">
<polygon fill="white" stroke="black" points="209,-76.5 209,-95.5 280,-95.5 280,-76.5 209,-76.5"/>
<text text-anchor="middle" x="244.5" y="-83.5" font-family="Helvetica,sans-Serif" font-size="10.00">next_comb</text>
</a>
</g>
</g>
<!-- Node3&#45;&gt;Node4 -->
<g id="edge3" class="edge">
<title>Node3&#45;&gt;Node4</title>
<path fill="none" stroke="midnightblue" d="M173.03,-86C181.28,-86 190.26,-86 198.97,-86"/>
<polygon fill="midnightblue" stroke="midnightblue" points="199,-89.5 209,-86 199,-82.5 199,-89.5"/>
</g>
<!-- Node6 -->
<g id="node6" class="node">
<title>Node6</title>
<g id="a_node6"><a xlink:href="utility_8hpp.html#af792f767f338ad4a8547856ed0626120" target="_top" xlink:title=" ">
<polygon fill="white" stroke="black" points="227,-38.5 227,-57.5 262,-57.5 262,-38.5 227,-38.5"/>
<text text-anchor="middle" x="244.5" y="-45.5" font-family="Helvetica,sans-Serif" font-size="10.00">nx2</text>
</a>
</g>
</g>
<!-- Node5&#45;&gt;Node6 -->
<g id="edge5" class="edge">
<title>Node5&#45;&gt;Node6</title>
<path fill="none" stroke="midnightblue" d="M168.56,-48C183.67,-48 202.12,-48 216.93,-48"/>
<polygon fill="midnightblue" stroke="midnightblue" points="216.97,-51.5 226.97,-48 216.97,-44.5 216.97,-51.5"/>
</g>
<!-- Node8 -->
<g id="node8" class="node">
<title>Node8</title>
<g id="a_node8"><a xlink:href="utility_8hpp.html#a73acc7df64034554661daeb64205aae6" target="_top" xlink:title=" ">
<polygon fill="white" stroke="black" points="225.5,-0.5 225.5,-19.5 263.5,-19.5 263.5,-0.5 225.5,-0.5"/>
<text text-anchor="middle" x="244.5" y="-7.5" font-family="Helvetica,sans-Serif" font-size="10.00">uniq</text>
</a>
</g>
</g>
<!-- Node7&#45;&gt;Node8 -->
<g id="edge7" class="edge">
<title>Node7&#45;&gt;Node8</title>
<path fill="none" stroke="midnightblue" d="M170.21,-10C184.48,-10 201.4,-10 215.39,-10"/>
<polygon fill="midnightblue" stroke="midnightblue" points="215.42,-13.5 225.42,-10 215.42,-6.5 215.42,-13.5"/>
</g>
</g>
</svg>
