<?xml version="1.0" encoding="UTF-8" standalone="no"?>
<!DOCTYPE svg PUBLIC "-//W3C//DTD SVG 1.1//EN"
 "http://www.w3.org/Graphics/SVG/1.1/DTD/svg11.dtd">
<!-- Generated by graphviz version 2.43.0 (0)
 -->
<!-- Title: uniq Pages: 1 -->
<svg width="498pt" height="66pt"
 viewBox="0.00 0.00 498.00 66.00" xmlns="http://www.w3.org/2000/svg" xmlns:xlink="http://www.w3.org/1999/xlink">
<g id="graph0" class="graph" transform="scale(1 1) rotate(0) translate(4 62)">
<title>uniq</title>
<polygon fill="white" stroke="transparent" points="-4,4 -4,-62 494,-62 494,4 -4,4"/>
<!-- Node1 -->
<g id="node1" class="node">
<title>Node1</title>
<g id="a_node1"><a xlink:title=" ">
<polygon fill="#bfbfbf" stroke="black" points="452,-19.5 452,-38.5 490,-38.5 490,-19.5 452,-19.5"/>
<text text-anchor="middle" x="471" y="-26.5" font-family="Helvetica,sans-Serif" font-size="10.00">uniq</text>
</a>
</g>
</g>
<!-- Node2 -->
<g id="node2" class="node">
<title>Node2</title>
<g id="a_node2"><a xlink:href="structcht.html#aa8ccca255cb5abc67b6a9ea2d93931c8" target="_top" xlink:title=" ">
<polygon fill="white" stroke="black" points="358.5,-38.5 358.5,-57.5 411.5,-57.5 411.5,-38.5 358.5,-38.5"/>
<text text-anchor="middle" x="385" y="-45.5" font-family="Helvetica,sans-Serif" font-size="10.00">cht::cht</text>
</a>
</g>
</g>
<!-- Node1&#45;&gt;Node2 -->
<g id="edge1" class="edge">
<title>Node1&#45;&gt;Node2</title>
<path fill="none" stroke="midnightblue" d="M441.72,-35.4C431.95,-37.61 421.06,-40.07 411.52,-42.23"/>
<polygon fill="midnightblue" stroke="midnightblue" points="442.79,-38.74 451.77,-33.12 441.25,-31.92 442.79,-38.74"/>
</g>
<!-- Node3 -->
<g id="node3" class="node">
<title>Node3</title>
<g id="a_node3"><a xlink:href="utility_8hpp.html#a135862e0b9eecf842529ef19034e3c3c" target="_top" xlink:title=" ">
<polygon fill="white" stroke="black" points="354,-0.5 354,-19.5 416,-19.5 416,-0.5 354,-0.5"/>
<text text-anchor="middle" x="385" y="-7.5" font-family="Helvetica,sans-Serif" font-size="10.00">test_uniq</text>
</a>
</g>
</g>
<!-- Node1&#45;&gt;Node3 -->
<g id="edge2" class="edge">
<title>Node1&#45;&gt;Node3</title>
<path fill="none" stroke="midnightblue" d="M441.83,-22.63C433.56,-20.76 424.47,-18.7 416.08,-16.8"/>
<polygon fill="midnightblue" stroke="midnightblue" points="441.25,-26.08 451.77,-24.88 442.79,-19.26 441.25,-26.08"/>
</g>
<!-- Node4 -->
<g id="node4" class="node">
<title>Node4</title>
<g id="a_node4"><a xlink:href="utility_8hpp.html#a5e29afed548a99cd2c14f21a464382d7" target="_top" xlink:title=" ">
<polygon fill="white" stroke="black" points="249,-0.5 249,-19.5 318,-19.5 318,-0.5 249,-0.5"/>
<text text-anchor="middle" x="283.5" y="-7.5" font-family="Helvetica,sans-Serif" font-size="10.00">test_utility</text>
</a>
</g>
</g>
<!-- Node3&#45;&gt;Node4 -->
<g id="edge3" class="edge">
<title>Node3&#45;&gt;Node4</title>
<path fill="none" stroke="midnightblue" d="M343.83,-10C335.38,-10 326.54,-10 318.35,-10"/>
<polygon fill="midnightblue" stroke="midnightblue" points="343.88,-13.5 353.88,-10 343.88,-6.5 343.88,-13.5"/>
</g>
<!-- Node5 -->
<g id="node5" class="node">
<title>Node5</title>
<g id="a_node5"><a xlink:href="test_8cpp.html#aa1c715cac916839a95e25b65b4071c4a" target="_top" xlink:title=" ">
<polygon fill="white" stroke="black" points="160,-0.5 160,-19.5 213,-19.5 213,-0.5 160,-0.5"/>
<text text-anchor="middle" x="186.5" y="-7.5" font-family="Helvetica,sans-Serif" font-size="10.00">test_all</text>
</a>
</g>
</g>
<!-- Node4&#45;&gt;Node5 -->
<g id="edge4" class="edge">
<title>Node4&#45;&gt;Node5</title>
<path fill="none" stroke="midnightblue" d="M238.62,-10C229.88,-10 220.97,-10 213.09,-10"/>
<polygon fill="midnightblue" stroke="midnightblue" points="238.74,-13.5 248.74,-10 238.74,-6.5 238.74,-13.5"/>
</g>
<!-- Node6 -->
<g id="node6" class="node">
<title>Node6</title>
<g id="a_node6"><a xlink:href="test_8cpp.html#af095a232149097b5605064623a9345ac" target="_top" xlink:title=" ">
<polygon fill="white" stroke="black" points="77,-0.5 77,-19.5 124,-19.5 124,-0.5 77,-0.5"/>
<text text-anchor="middle" x="100.5" y="-7.5" font-family="Helvetica,sans-Serif" font-size="10.00">main2</text>
</a>
</g>
</g>
<!-- Node5&#45;&gt;Node6 -->
<g id="edge5" class="edge">
<title>Node5&#45;&gt;Node6</title>
<path fill="none" stroke="midnightblue" d="M149.59,-10C140.96,-10 131.99,-10 124.16,-10"/>
<polygon fill="midnightblue" stroke="midnightblue" points="149.84,-13.5 159.84,-10 149.84,-6.5 149.84,-13.5"/>
</g>
<!-- Node7 -->
<g id="node7" class="node">
<title>Node7</title>
<g id="a_node7"><a xlink:href="main_8hpp.html#a0ddf1224851353fc92bfbff6f499fa97" target="_top" xlink:title=" ">
<polygon fill="white" stroke="black" points="0,-0.5 0,-19.5 41,-19.5 41,-0.5 0,-0.5"/>
<text text-anchor="middle" x="20.5" y="-7.5" font-family="Helvetica,sans-Serif" font-size="10.00">main</text>
</a>
</g>
</g>
<!-- Node6&#45;&gt;Node7 -->
<g id="edge6" class="edge">
<title>Node6&#45;&gt;Node7</title>
<path fill="none" stroke="midnightblue" d="M66.66,-10C57.96,-10 48.84,-10 41.1,-10"/>
<polygon fill="midnightblue" stroke="midnightblue" points="66.94,-13.5 76.94,-10 66.94,-6.5 66.94,-13.5"/>
</g>
</g>
</svg>
