<?xml version="1.0" encoding="UTF-8" standalone="no"?>
<!DOCTYPE svg PUBLIC "-//W3C//DTD SVG 1.1//EN"
 "http://www.w3.org/Graphics/SVG/1.1/DTD/svg11.dtd">
<!-- Generated by graphviz version 2.43.0 (0)
 -->
<!-- Title: nx2 Pages: 1 -->
<svg width="413pt" height="104pt"
 viewBox="0.00 0.00 413.00 104.00" xmlns="http://www.w3.org/2000/svg" xmlns:xlink="http://www.w3.org/1999/xlink">
<g id="graph0" class="graph" transform="scale(1 1) rotate(0) translate(4 100)">
<title>nx2</title>
<polygon fill="white" stroke="transparent" points="-4,4 -4,-100 409,-100 409,4 -4,4"/>
<!-- Node1 -->
<g id="node1" class="node">
<title>Node1</title>
<g id="a_node1"><a xlink:title=" ">
<polygon fill="#bfbfbf" stroke="black" points="370,-38.5 370,-57.5 405,-57.5 405,-38.5 370,-38.5"/>
<text text-anchor="middle" x="387.5" y="-45.5" font-family="Helvetica,sans-Serif" font-size="10.00">nx2</text>
</a>
</g>
</g>
<!-- Node2 -->
<g id="node2" class="node">
<title>Node2</title>
<g id="a_node2"><a xlink:href="fft_8hpp.html#a27632dcb2490189a02cc98a2029a4be3" target="_top" xlink:title=" ">
<polygon fill="white" stroke="black" points="285,-76.5 285,-95.5 314,-95.5 314,-76.5 285,-76.5"/>
<text text-anchor="middle" x="299.5" y="-83.5" font-family="Helvetica,sans-Serif" font-size="10.00">fft</text>
</a>
</g>
</g>
<!-- Node1&#45;&gt;Node2 -->
<g id="edge1" class="edge">
<title>Node1&#45;&gt;Node2</title>
<path fill="none" stroke="midnightblue" d="M360.49,-59.49C345.25,-66.23 326.62,-74.46 314.2,-79.95"/>
<polygon fill="midnightblue" stroke="midnightblue" points="362.19,-62.57 369.92,-55.33 359.36,-56.17 362.19,-62.57"/>
</g>
<!-- Node5 -->
<g id="node5" class="node">
<title>Node5</title>
<g id="a_node5"><a xlink:href="structseg2.html#aa4a805dbfc4482dcb84d65bbc2c0da91" target="_top" xlink:title=" ">
<polygon fill="white" stroke="black" points="265,-38.5 265,-57.5 334,-57.5 334,-38.5 265,-38.5"/>
<text text-anchor="middle" x="299.5" y="-45.5" font-family="Helvetica,sans-Serif" font-size="10.00">seg2::seg2</text>
</a>
</g>
</g>
<!-- Node1&#45;&gt;Node5 -->
<g id="edge5" class="edge">
<title>Node1&#45;&gt;Node5</title>
<path fill="none" stroke="midnightblue" d="M359.87,-48C351.72,-48 342.66,-48 334.12,-48"/>
<polygon fill="midnightblue" stroke="midnightblue" points="359.92,-51.5 369.92,-48 359.92,-44.5 359.92,-51.5"/>
</g>
<!-- Node6 -->
<g id="node6" class="node">
<title>Node6</title>
<g id="a_node6"><a xlink:href="utility_8hpp.html#ae9af300622998a43b200780645473ec3" target="_top" xlink:title=" ">
<polygon fill="white" stroke="black" points="270,-0.5 270,-19.5 329,-19.5 329,-0.5 270,-0.5"/>
<text text-anchor="middle" x="299.5" y="-7.5" font-family="Helvetica,sans-Serif" font-size="10.00">test_nx2</text>
</a>
</g>
</g>
<!-- Node1&#45;&gt;Node6 -->
<g id="edge6" class="edge">
<title>Node1&#45;&gt;Node6</title>
<path fill="none" stroke="midnightblue" d="M360.66,-36.58C348.41,-31.17 333.93,-24.77 322.24,-19.61"/>
<polygon fill="midnightblue" stroke="midnightblue" points="359.36,-39.83 369.92,-40.67 362.19,-33.43 359.36,-39.83"/>
</g>
<!-- Node3 -->
<g id="node3" class="node">
<title>Node3</title>
<g id="a_node3"><a xlink:href="fft_8hpp.html#ad433b30dd657e617f55a72340fcefd4a" target="_top" xlink:title=" ">
<polygon fill="white" stroke="black" points="80.5,-76.5 80.5,-95.5 120.5,-95.5 120.5,-76.5 80.5,-76.5"/>
<text text-anchor="middle" x="100.5" y="-83.5" font-family="Helvetica,sans-Serif" font-size="10.00">conv</text>
</a>
</g>
</g>
<!-- Node2&#45;&gt;Node3 -->
<g id="edge2" class="edge">
<title>Node2&#45;&gt;Node3</title>
<path fill="none" stroke="midnightblue" d="M274.96,-86C235.58,-86 157.12,-86 120.78,-86"/>
<polygon fill="midnightblue" stroke="midnightblue" points="274.96,-89.5 284.96,-86 274.96,-82.5 274.96,-89.5"/>
</g>
<!-- Node4 -->
<g id="node4" class="node">
<title>Node4</title>
<g id="a_node4"><a xlink:href="fft_8hpp.html#af359fe1ab295171c84c1da7bdfc95018" target="_top" xlink:title=" ">
<polygon fill="white" stroke="black" points="179,-57.5 179,-76.5 210,-76.5 210,-57.5 179,-57.5"/>
<text text-anchor="middle" x="194.5" y="-64.5" font-family="Helvetica,sans-Serif" font-size="10.00">ifft</text>
</a>
</g>
</g>
<!-- Node2&#45;&gt;Node4 -->
<g id="edge3" class="edge">
<title>Node2&#45;&gt;Node4</title>
<path fill="none" stroke="midnightblue" d="M274.74,-81.62C254.81,-77.94 226.99,-72.81 210.17,-69.71"/>
<polygon fill="midnightblue" stroke="midnightblue" points="274.14,-85.07 284.61,-83.44 275.41,-78.18 274.14,-85.07"/>
</g>
<!-- Node4&#45;&gt;Node3 -->
<g id="edge4" class="edge">
<title>Node4&#45;&gt;Node3</title>
<path fill="none" stroke="midnightblue" d="M168.56,-72.15C153.51,-75.26 134.61,-79.16 120.72,-82.03"/>
<polygon fill="midnightblue" stroke="midnightblue" points="169.63,-75.5 178.72,-70.05 168.22,-68.65 169.63,-75.5"/>
</g>
<!-- Node7 -->
<g id="node7" class="node">
<title>Node7</title>
<g id="a_node7"><a xlink:href="utility_8hpp.html#a5e29afed548a99cd2c14f21a464382d7" target="_top" xlink:title=" ">
<polygon fill="white" stroke="black" points="160,-0.5 160,-19.5 229,-19.5 229,-0.5 160,-0.5"/>
<text text-anchor="middle" x="194.5" y="-7.5" font-family="Helvetica,sans-Serif" font-size="10.00">test_utility</text>
</a>
</g>
</g>
<!-- Node6&#45;&gt;Node7 -->
<g id="edge7" class="edge">
<title>Node6&#45;&gt;Node7</title>
<path fill="none" stroke="midnightblue" d="M259.66,-10C249.62,-10 238.89,-10 229.14,-10"/>
<polygon fill="midnightblue" stroke="midnightblue" points="259.81,-13.5 269.81,-10 259.81,-6.5 259.81,-13.5"/>
</g>
<!-- Node8 -->
<g id="node8" class="node">
<title>Node8</title>
<g id="a_node8"><a xlink:href="test_8cpp.html#af095a232149097b5605064623a9345ac" target="_top" xlink:title=" ">
<polygon fill="white" stroke="black" points="77,-0.5 77,-19.5 124,-19.5 124,-0.5 77,-0.5"/>
<text text-anchor="middle" x="100.5" y="-7.5" font-family="Helvetica,sans-Serif" font-size="10.00">main2</text>
</a>
</g>
</g>
<!-- Node7&#45;&gt;Node8 -->
<g id="edge8" class="edge">
<title>Node7&#45;&gt;Node8</title>
<path fill="none" stroke="midnightblue" d="M149.52,-10C140.7,-10 131.77,-10 124.04,-10"/>
<polygon fill="midnightblue" stroke="midnightblue" points="149.77,-13.5 159.76,-10 149.76,-6.5 149.77,-13.5"/>
</g>
<!-- Node9 -->
<g id="node9" class="node">
<title>Node9</title>
<g id="a_node9"><a xlink:href="main_8hpp.html#a0ddf1224851353fc92bfbff6f499fa97" target="_top" xlink:title=" ">
<polygon fill="white" stroke="black" points="0,-0.5 0,-19.5 41,-19.5 41,-0.5 0,-0.5"/>
<text text-anchor="middle" x="20.5" y="-7.5" font-family="Helvetica,sans-Serif" font-size="10.00">main</text>
</a>
</g>
</g>
<!-- Node8&#45;&gt;Node9 -->
<g id="edge9" class="edge">
<title>Node8&#45;&gt;Node9</title>
<path fill="none" stroke="midnightblue" d="M66.66,-10C57.96,-10 48.84,-10 41.1,-10"/>
<polygon fill="midnightblue" stroke="midnightblue" points="66.94,-13.5 76.94,-10 66.94,-6.5 66.94,-13.5"/>
</g>
</g>
</svg>
