<?xml version="1.0" encoding="UTF-8" standalone="no"?>
<!DOCTYPE svg PUBLIC "-//W3C//DTD SVG 1.1//EN"
 "http://www.w3.org/Graphics/SVG/1.1/DTD/svg11.dtd">
<!-- Generated by graphviz version 2.43.0 (0)
 -->
<!-- Title: /home/ram/OmniTemplate/src/core/utility.hpp Pages: 1 -->
<!--zoomable 330 -->
<svg id="main" version="1.1" xmlns="http://www.w3.org/2000/svg" xmlns:xlink="http://www.w3.org/1999/xlink" xml:space="preserve" onload="init(evt)">
<style type="text/css"><![CDATA[
.edge:hover path { stroke: red; }
.edge:hover polygon { stroke: red; fill: red; }
]]></style>
<script type="text/javascript"><![CDATA[
var edges = document.getElementsByTagName('g');
if (edges && edges.length) {
  for (var i=0;i<edges.length;i++) {
    if (edges[i].id.substr(0,4)=='edge') {
      edges[i].setAttribute('class','edge');
    }
  }
}
]]></script>
        <defs>
                <circle id="rim" cx="0" cy="0" r="7"/>
                <circle id="rim2" cx="0" cy="0" r="3.5"/>
                <g id="zoomPlus">
                        <use xlink:href="#rim" fill="#404040">
                                <set attributeName="fill" to="#808080" begin="zoomplus.mouseover" end="zoomplus.mouseout"/>
                        </use>
                        <path d="M-4,0h8M0,-4v8" fill="none" stroke="white" stroke-width="1.5" pointer-events="none"/>
                </g>
                <g id="zoomMin">
                        <use xlink:href="#rim" fill="#404040">
                                <set attributeName="fill" to="#808080" begin="zoomminus.mouseover" end="zoomminus.mouseout"/>
                        </use>
                        <path d="M-4,0h8" fill="none" stroke="white" stroke-width="1.5" pointer-events="none"/>
                </g>
                <g id="dirArrow">
                        <path fill="none" stroke="white" stroke-width="1.5" d="M0,-3.0v7 M-2.5,-0.5L0,-3.0L2.5,-0.5"/>
                </g>
               <g id="resetDef">
                       <use xlink:href="#rim2" fill="#404040">
                               <set attributeName="fill" to="#808080" begin="reset.mouseover" end="reset.mouseout"/>
                       </use>
               </g>
        </defs>

<script type="text/javascript">
var viewWidth = 1864;
var viewHeight = 330;
var sectionId = 'dynsection-0';
</script>
<script xlink:href="svgpan.js"/>
<svg id="graph" class="graph">
<g id="viewport">
<title>/home/ram/OmniTemplate/src/core/utility.hpp</title>
<polygon fill="white" stroke="transparent" points="-4,4 -4,-326 1860.45,-326 1860.45,4 -4,4"/>
<!-- Node1 -->
<g id="node1" class="node">
<title>Node1</title>
<g id="a_node1"><a xlink:title=" ">
<polygon fill="#bfbfbf" stroke="black" points="904,-291.5 904,-321.5 1048,-321.5 1048,-291.5 904,-291.5"/>
<text text-anchor="start" x="912" y="-309.5" font-family="Helvetica,sans-Serif" font-size="10.00">/home/ram/OmniTemplate</text>
<text text-anchor="middle" x="976" y="-298.5" font-family="Helvetica,sans-Serif" font-size="10.00">/src/core/utility.hpp</text>
</a>
</g>
</g>
<!-- Node2 -->
<g id="node2" class="node">
<title>Node2</title>
<g id="a_node2"><a xlink:href="range_8hpp.html" target="_top" xlink:title=" ">
<polygon fill="white" stroke="black" points="974.5,-235.5 974.5,-254.5 1039.5,-254.5 1039.5,-235.5 974.5,-235.5"/>
<text text-anchor="middle" x="1007" y="-242.5" font-family="Helvetica,sans-Serif" font-size="10.00">range.hpp</text>
</a>
</g>
</g>
<!-- Node1&#45;&gt;Node2 -->
<g id="edge1" class="edge">
<title>Node1&#45;&gt;Node2</title>
<path fill="none" stroke="midnightblue" d="M983.35,-291.4C987.67,-283.11 993.17,-272.55 997.77,-263.71"/>
<polygon fill="midnightblue" stroke="midnightblue" points="1000.97,-265.14 1002.49,-254.66 994.76,-261.91 1000.97,-265.14"/>
</g>
<!-- Node3 -->
<g id="node3" class="node">
<title>Node3</title>
<g id="a_node3"><a xlink:href="core_2all_8hpp.html" target="_top" xlink:title=" ">
<polygon fill="white" stroke="black" points="909,-179.5 909,-198.5 983,-198.5 983,-179.5 909,-179.5"/>
<text text-anchor="middle" x="946" y="-186.5" font-family="Helvetica,sans-Serif" font-size="10.00">core/all.hpp</text>
</a>
</g>
</g>
<!-- Node2&#45;&gt;Node3 -->
<g id="edge2" class="edge">
<title>Node2&#45;&gt;Node3</title>
<path fill="none" stroke="midnightblue" d="M992.08,-235.32C981.55,-227.5 967.94,-215.78 958.08,-206.22"/>
<polygon fill="midnightblue" stroke="midnightblue" points="960.33,-203.52 950.83,-198.83 955.33,-208.42 960.33,-203.52"/>
</g>
<!-- Node3&#45;&gt;Node1 -->
<g id="edge33" class="edge">
<title>Node3&#45;&gt;Node1</title>
<path fill="none" stroke="midnightblue" d="M948.25,-198.67C952.77,-216.06 963.08,-255.76 969.78,-281.56"/>
<polygon fill="midnightblue" stroke="midnightblue" points="966.42,-282.54 972.32,-291.34 973.19,-280.78 966.42,-282.54"/>
</g>
<!-- Node3&#45;&gt;Node2 -->
<g id="edge32" class="edge">
<title>Node3&#45;&gt;Node2</title>
<path fill="none" stroke="midnightblue" d="M961.02,-198.75C971.52,-206.56 985.04,-218.2 994.86,-227.72"/>
<polygon fill="midnightblue" stroke="midnightblue" points="992.59,-230.4 1002.09,-235.08 997.58,-225.5 992.59,-230.4"/>
</g>
<!-- Node4 -->
<g id="node4" class="node">
<title>Node4</title>
<g id="a_node4"><a xlink:title=" ">
<polygon fill="white" stroke="#bfbfbf" points="0,-118 0,-137 64,-137 64,-118 0,-118"/>
<text text-anchor="middle" x="32" y="-125" font-family="Helvetica,sans-Serif" font-size="10.00">algorithm</text>
</a>
</g>
</g>
<!-- Node3&#45;&gt;Node4 -->
<g id="edge3" class="edge">
<title>Node3&#45;&gt;Node4</title>
<path fill="none" stroke="midnightblue" d="M908.78,-187.51C763.79,-185.36 236.75,-175.46 73,-143 69.49,-142.3 65.87,-141.37 62.3,-140.3"/>
<polygon fill="midnightblue" stroke="midnightblue" points="63.13,-136.89 52.53,-137.06 60.92,-143.53 63.13,-136.89"/>
</g>
<!-- Node5 -->
<g id="node5" class="node">
<title>Node5</title>
<g id="a_node5"><a xlink:title=" ">
<polygon fill="white" stroke="#bfbfbf" points="82,-118 82,-137 126,-137 126,-118 82,-118"/>
<text text-anchor="middle" x="104" y="-125" font-family="Helvetica,sans-Serif" font-size="10.00">bitset</text>
</a>
</g>
</g>
<!-- Node3&#45;&gt;Node5 -->
<g id="edge4" class="edge">
<title>Node3&#45;&gt;Node5</title>
<path fill="none" stroke="midnightblue" d="M908.98,-187.81C770.69,-186.81 284.57,-180.63 135,-143 133.01,-142.5 131,-141.87 129,-141.16"/>
<polygon fill="midnightblue" stroke="midnightblue" points="129.91,-137.75 119.34,-137.09 127.19,-144.2 129.91,-137.75"/>
</g>
<!-- Node6 -->
<g id="node6" class="node">
<title>Node6</title>
<g id="a_node6"><a xlink:title=" ">
<polygon fill="white" stroke="#bfbfbf" points="144,-118 144,-137 196,-137 196,-118 144,-118"/>
<text text-anchor="middle" x="170" y="-125" font-family="Helvetica,sans-Serif" font-size="10.00">cassert</text>
</a>
</g>
</g>
<!-- Node3&#45;&gt;Node6 -->
<g id="edge5" class="edge">
<title>Node3&#45;&gt;Node6</title>
<path fill="none" stroke="midnightblue" d="M908.68,-187.36C777.93,-184.89 341.1,-174.4 205,-143 202.33,-142.38 199.6,-141.58 196.9,-140.68"/>
<polygon fill="midnightblue" stroke="midnightblue" points="198.02,-137.36 187.43,-137.05 195.52,-143.89 198.02,-137.36"/>
</g>
<!-- Node7 -->
<g id="node7" class="node">
<title>Node7</title>
<g id="a_node7"><a xlink:title=" ">
<polygon fill="white" stroke="#bfbfbf" points="214,-118 214,-137 264,-137 264,-118 214,-118"/>
<text text-anchor="middle" x="239" y="-125" font-family="Helvetica,sans-Serif" font-size="10.00">chrono</text>
</a>
</g>
</g>
<!-- Node3&#45;&gt;Node7 -->
<g id="edge6" class="edge">
<title>Node3&#45;&gt;Node7</title>
<path fill="none" stroke="midnightblue" d="M908.74,-187.15C786,-184.1 395.28,-172.27 273,-143 270.49,-142.4 267.93,-141.63 265.39,-140.76"/>
<polygon fill="midnightblue" stroke="midnightblue" points="266.5,-137.43 255.91,-137.04 263.94,-143.95 266.5,-137.43"/>
</g>
<!-- Node8 -->
<g id="node8" class="node">
<title>Node8</title>
<g id="a_node8"><a xlink:title=" ">
<polygon fill="white" stroke="#bfbfbf" points="282,-118 282,-137 332,-137 332,-118 282,-118"/>
<text text-anchor="middle" x="307" y="-125" font-family="Helvetica,sans-Serif" font-size="10.00">climits</text>
</a>
</g>
</g>
<!-- Node3&#45;&gt;Node8 -->
<g id="edge7" class="edge">
<title>Node3&#45;&gt;Node8</title>
<path fill="none" stroke="midnightblue" d="M908.95,-186.84C794.82,-183 449.74,-169.46 341,-143 338.49,-142.39 335.93,-141.61 333.4,-140.74"/>
<polygon fill="midnightblue" stroke="midnightblue" points="334.51,-137.41 323.92,-137.01 331.95,-143.93 334.51,-137.41"/>
</g>
<!-- Node9 -->
<g id="node9" class="node">
<title>Node9</title>
<g id="a_node9"><a xlink:title=" ">
<polygon fill="white" stroke="#bfbfbf" points="350.5,-118 350.5,-137 409.5,-137 409.5,-118 350.5,-118"/>
<text text-anchor="middle" x="380" y="-125" font-family="Helvetica,sans-Serif" font-size="10.00">complex</text>
</a>
</g>
</g>
<!-- Node3&#45;&gt;Node9 -->
<g id="edge8" class="edge">
<title>Node3&#45;&gt;Node9</title>
<path fill="none" stroke="midnightblue" d="M908.97,-188.37C822.06,-188.47 598.71,-184.32 418,-143 415,-142.31 411.92,-141.44 408.87,-140.46"/>
<polygon fill="midnightblue" stroke="midnightblue" points="409.99,-137.15 399.4,-137.1 407.65,-143.74 409.99,-137.15"/>
</g>
<!-- Node10 -->
<g id="node10" class="node">
<title>Node10</title>
<g id="a_node10"><a xlink:title=" ">
<polygon fill="white" stroke="#bfbfbf" points="427.5,-118 427.5,-137 482.5,-137 482.5,-118 427.5,-118"/>
<text text-anchor="middle" x="455" y="-125" font-family="Helvetica,sans-Serif" font-size="10.00">fstream</text>
</a>
</g>
</g>
<!-- Node3&#45;&gt;Node10 -->
<g id="edge9" class="edge">
<title>Node3&#45;&gt;Node10</title>
<path fill="none" stroke="midnightblue" d="M908.84,-187.87C830.44,-186.83 642.87,-180.28 491,-143 488.33,-142.34 485.6,-141.53 482.89,-140.62"/>
<polygon fill="midnightblue" stroke="midnightblue" points="483.94,-137.28 473.35,-137.06 481.49,-143.84 483.94,-137.28"/>
</g>
<!-- Node11 -->
<g id="node11" class="node">
<title>Node11</title>
<g id="a_node11"><a xlink:title=" ">
<polygon fill="white" stroke="#bfbfbf" points="500.5,-118 500.5,-137 565.5,-137 565.5,-118 500.5,-118"/>
<text text-anchor="middle" x="533" y="-125" font-family="Helvetica,sans-Serif" font-size="10.00">functional</text>
</a>
</g>
</g>
<!-- Node3&#45;&gt;Node11 -->
<g id="edge10" class="edge">
<title>Node3&#45;&gt;Node11</title>
<path fill="none" stroke="midnightblue" d="M908.96,-186.11C841.69,-182.1 695.28,-170.73 575,-143 571.59,-142.21 568.07,-141.25 564.58,-140.2"/>
<polygon fill="midnightblue" stroke="midnightblue" points="565.57,-136.84 554.98,-137.07 563.4,-143.49 565.57,-136.84"/>
</g>
<!-- Node12 -->
<g id="node12" class="node">
<title>Node12</title>
<g id="a_node12"><a xlink:title=" ">
<polygon fill="white" stroke="#bfbfbf" points="584,-118 584,-137 644,-137 644,-118 584,-118"/>
<text text-anchor="middle" x="614" y="-125" font-family="Helvetica,sans-Serif" font-size="10.00">iostream</text>
</a>
</g>
</g>
<!-- Node3&#45;&gt;Node12 -->
<g id="edge11" class="edge">
<title>Node3&#45;&gt;Node12</title>
<path fill="none" stroke="midnightblue" d="M908.97,-184.75C852.9,-179.29 743.41,-166.49 653,-143 650.18,-142.27 647.28,-141.41 644.4,-140.48"/>
<polygon fill="midnightblue" stroke="midnightblue" points="645.39,-137.11 634.8,-137.12 643.09,-143.72 645.39,-137.11"/>
</g>
<!-- Node13 -->
<g id="node13" class="node">
<title>Node13</title>
<g id="a_node13"><a xlink:title=" ">
<polygon fill="white" stroke="#bfbfbf" points="662,-118 662,-137 700,-137 700,-118 662,-118"/>
<text text-anchor="middle" x="681" y="-125" font-family="Helvetica,sans-Serif" font-size="10.00">map</text>
</a>
</g>
</g>
<!-- Node3&#45;&gt;Node13 -->
<g id="edge12" class="edge">
<title>Node3&#45;&gt;Node13</title>
<path fill="none" stroke="midnightblue" d="M908.6,-184.29C861.15,-178.83 777.28,-166.6 709,-143 707.58,-142.51 706.14,-141.95 704.7,-141.36"/>
<polygon fill="midnightblue" stroke="midnightblue" points="706,-138.1 695.47,-137 703.02,-144.44 706,-138.1"/>
</g>
<!-- Node14 -->
<g id="node14" class="node">
<title>Node14</title>
<g id="a_node14"><a xlink:title=" ">
<polygon fill="white" stroke="#bfbfbf" points="718,-118 718,-137 774,-137 774,-118 718,-118"/>
<text text-anchor="middle" x="746" y="-125" font-family="Helvetica,sans-Serif" font-size="10.00">numeric</text>
</a>
</g>
</g>
<!-- Node3&#45;&gt;Node14 -->
<g id="edge13" class="edge">
<title>Node3&#45;&gt;Node14</title>
<path fill="none" stroke="midnightblue" d="M911.03,-179.47C877.8,-171.1 826.59,-157.51 783,-143 780.74,-142.25 778.41,-141.43 776.07,-140.59"/>
<polygon fill="midnightblue" stroke="midnightblue" points="777.2,-137.27 766.6,-137.01 774.73,-143.82 777.2,-137.27"/>
</g>
<!-- Node15 -->
<g id="node15" class="node">
<title>Node15</title>
<g id="a_node15"><a xlink:title=" ">
<polygon fill="white" stroke="#bfbfbf" points="792.5,-118 792.5,-137 839.5,-137 839.5,-118 792.5,-118"/>
<text text-anchor="middle" x="816" y="-125" font-family="Helvetica,sans-Serif" font-size="10.00">queue</text>
</a>
</g>
</g>
<!-- Node3&#45;&gt;Node15 -->
<g id="edge14" class="edge">
<title>Node3&#45;&gt;Node15</title>
<path fill="none" stroke="midnightblue" d="M927.37,-179.48C905.56,-169.49 869.2,-152.85 843.98,-141.31"/>
<polygon fill="midnightblue" stroke="midnightblue" points="845.14,-137.99 834.59,-137.01 842.23,-144.35 845.14,-137.99"/>
</g>
<!-- Node16 -->
<g id="node16" class="node">
<title>Node16</title>
<g id="a_node16"><a xlink:title=" ">
<polygon fill="white" stroke="#bfbfbf" points="858,-118 858,-137 912,-137 912,-118 858,-118"/>
<text text-anchor="middle" x="885" y="-125" font-family="Helvetica,sans-Serif" font-size="10.00">random</text>
</a>
</g>
</g>
<!-- Node3&#45;&gt;Node16 -->
<g id="edge15" class="edge">
<title>Node3&#45;&gt;Node16</title>
<path fill="none" stroke="midnightblue" d="M937.26,-179.48C927.84,-170.28 912.64,-155.46 901.05,-144.16"/>
<polygon fill="midnightblue" stroke="midnightblue" points="903.33,-141.49 893.72,-137.01 898.44,-146.5 903.33,-141.49"/>
</g>
<!-- Node17 -->
<g id="node17" class="node">
<title>Node17</title>
<g id="a_node17"><a xlink:title=" ">
<polygon fill="white" stroke="#bfbfbf" points="930,-118 930,-137 962,-137 962,-118 930,-118"/>
<text text-anchor="middle" x="946" y="-125" font-family="Helvetica,sans-Serif" font-size="10.00">set</text>
</a>
</g>
</g>
<!-- Node3&#45;&gt;Node17 -->
<g id="edge16" class="edge">
<title>Node3&#45;&gt;Node17</title>
<path fill="none" stroke="midnightblue" d="M946,-179.48C946,-171.08 946,-157.98 946,-147.16"/>
<polygon fill="midnightblue" stroke="midnightblue" points="949.5,-147.01 946,-137.01 942.5,-147.01 949.5,-147.01"/>
</g>
<!-- Node18 -->
<g id="node18" class="node">
<title>Node18</title>
<g id="a_node18"><a xlink:title=" ">
<polygon fill="white" stroke="#bfbfbf" points="980.5,-118 980.5,-137 1023.5,-137 1023.5,-118 980.5,-118"/>
<text text-anchor="middle" x="1002" y="-125" font-family="Helvetica,sans-Serif" font-size="10.00">stack</text>
</a>
</g>
</g>
<!-- Node3&#45;&gt;Node18 -->
<g id="edge17" class="edge">
<title>Node3&#45;&gt;Node18</title>
<path fill="none" stroke="midnightblue" d="M954.02,-179.48C962.59,-170.37 976.36,-155.74 986.96,-144.48"/>
<polygon fill="midnightblue" stroke="midnightblue" points="989.69,-146.69 993.99,-137.01 984.59,-141.89 989.69,-146.69"/>
</g>
<!-- Node19 -->
<g id="node19" class="node">
<title>Node19</title>
<g id="a_node19"><a xlink:title=" ">
<polygon fill="white" stroke="#bfbfbf" points="1042,-118 1042,-137 1090,-137 1090,-118 1042,-118"/>
<text text-anchor="middle" x="1066" y="-125" font-family="Helvetica,sans-Serif" font-size="10.00">thread</text>
</a>
</g>
</g>
<!-- Node3&#45;&gt;Node19 -->
<g id="edge18" class="edge">
<title>Node3&#45;&gt;Node19</title>
<path fill="none" stroke="midnightblue" d="M963.19,-179.48C983.24,-169.53 1016.6,-152.99 1039.86,-141.46"/>
<polygon fill="midnightblue" stroke="midnightblue" points="1041.43,-144.59 1048.84,-137.01 1038.32,-138.32 1041.43,-144.59"/>
</g>
<!-- Node20 -->
<g id="node20" class="node">
<title>Node20</title>
<g id="a_node20"><a xlink:title=" ">
<polygon fill="white" stroke="#bfbfbf" points="1108.5,-118 1108.5,-137 1177.5,-137 1177.5,-118 1108.5,-118"/>
<text text-anchor="middle" x="1143" y="-125" font-family="Helvetica,sans-Serif" font-size="10.00">type_traits</text>
</a>
</g>
</g>
<!-- Node3&#45;&gt;Node20 -->
<g id="edge19" class="edge">
<title>Node3&#45;&gt;Node20</title>
<path fill="none" stroke="midnightblue" d="M975.99,-179.49C1006.9,-170.65 1056.44,-156.27 1099,-143 1101.9,-142.1 1104.9,-141.14 1107.92,-140.17"/>
<polygon fill="midnightblue" stroke="midnightblue" points="1109.02,-143.49 1117.45,-137.07 1106.86,-136.84 1109.02,-143.49"/>
</g>
<!-- Node21 -->
<g id="node21" class="node">
<title>Node21</title>
<g id="a_node21"><a xlink:title=" ">
<polygon fill="white" stroke="#bfbfbf" points="1196,-118 1196,-137 1282,-137 1282,-118 1196,-118"/>
<text text-anchor="middle" x="1239" y="-125" font-family="Helvetica,sans-Serif" font-size="10.00">unordered_set</text>
</a>
</g>
</g>
<!-- Node3&#45;&gt;Node21 -->
<g id="edge20" class="edge">
<title>Node3&#45;&gt;Node21</title>
<path fill="none" stroke="midnightblue" d="M983.2,-182C1030.54,-174.13 1114.74,-159.4 1186,-143 1190.41,-141.99 1195,-140.85 1199.56,-139.67"/>
<polygon fill="midnightblue" stroke="midnightblue" points="1200.63,-143.01 1209.39,-137.06 1198.83,-136.24 1200.63,-143.01"/>
</g>
<!-- Node22 -->
<g id="node22" class="node">
<title>Node22</title>
<g id="a_node22"><a xlink:title=" ">
<polygon fill="white" stroke="#bfbfbf" points="1300.5,-118 1300.5,-137 1345.5,-137 1345.5,-118 1300.5,-118"/>
<text text-anchor="middle" x="1323" y="-125" font-family="Helvetica,sans-Serif" font-size="10.00">utility</text>
</a>
</g>
</g>
<!-- Node3&#45;&gt;Node22 -->
<g id="edge21" class="edge">
<title>Node3&#45;&gt;Node22</title>
<path fill="none" stroke="midnightblue" d="M983.23,-186.74C1047.28,-183.77 1181.93,-174.08 1291,-143 1292.94,-142.45 1294.9,-141.8 1296.86,-141.08"/>
<polygon fill="midnightblue" stroke="midnightblue" points="1298.51,-144.19 1306.41,-137.14 1295.83,-137.72 1298.51,-144.19"/>
</g>
<!-- Node23 -->
<g id="node23" class="node">
<title>Node23</title>
<g id="a_node23"><a xlink:title=" ">
<polygon fill="white" stroke="#bfbfbf" points="1363.5,-118 1363.5,-137 1410.5,-137 1410.5,-118 1363.5,-118"/>
<text text-anchor="middle" x="1387" y="-125" font-family="Helvetica,sans-Serif" font-size="10.00">vector</text>
</a>
</g>
</g>
<!-- Node3&#45;&gt;Node23 -->
<g id="edge22" class="edge">
<title>Node3&#45;&gt;Node23</title>
<path fill="none" stroke="midnightblue" d="M983.27,-187.65C1055.87,-186.14 1220.81,-178.71 1354,-143 1356.29,-142.38 1358.64,-141.63 1360.96,-140.8"/>
<polygon fill="midnightblue" stroke="midnightblue" points="1362.27,-144.04 1370.23,-137.04 1359.65,-137.55 1362.27,-144.04"/>
</g>
<!-- Node24 -->
<g id="node24" class="node">
<title>Node24</title>
<g id="a_node24"><a xlink:title=" ">
<polygon fill="white" stroke="#bfbfbf" points="1428.5,-112.5 1428.5,-142.5 1545.5,-142.5 1545.5,-112.5 1428.5,-112.5"/>
<text text-anchor="start" x="1436.5" y="-130.5" font-family="Helvetica,sans-Serif" font-size="10.00">experimental/source</text>
<text text-anchor="middle" x="1487" y="-119.5" font-family="Helvetica,sans-Serif" font-size="10.00">_location</text>
</a>
</g>
</g>
<!-- Node3&#45;&gt;Node24 -->
<g id="edge23" class="edge">
<title>Node3&#45;&gt;Node24</title>
<path fill="none" stroke="midnightblue" d="M983.28,-185.92C1061.83,-181.22 1250.22,-168.29 1418.45,-142.96"/>
<polygon fill="midnightblue" stroke="midnightblue" points="1419.12,-146.39 1428.47,-141.43 1418.06,-139.47 1419.12,-146.39"/>
</g>
<!-- Node25 -->
<g id="node25" class="node">
<title>Node25</title>
<g id="a_node25"><a xlink:title=" ">
<polygon fill="white" stroke="#bfbfbf" points="1563.5,-118 1563.5,-137 1684.5,-137 1684.5,-118 1563.5,-118"/>
<text text-anchor="middle" x="1624" y="-125" font-family="Helvetica,sans-Serif" font-size="10.00">experimental/iterator</text>
</a>
</g>
</g>
<!-- Node3&#45;&gt;Node25 -->
<g id="edge24" class="edge">
<title>Node3&#45;&gt;Node25</title>
<path fill="none" stroke="midnightblue" d="M983.19,-186.93C1078.5,-183.84 1339.11,-173.08 1554,-143 1561.61,-141.94 1569.63,-140.54 1577.41,-139.03"/>
<polygon fill="midnightblue" stroke="midnightblue" points="1578.35,-142.41 1587.46,-137.01 1576.97,-135.55 1578.35,-142.41"/>
</g>
<!-- Node26 -->
<g id="node26" class="node">
<title>Node26</title>
<g id="a_node26"><a xlink:href="debug_8hpp.html" target="_top" xlink:title=" ">
<polygon fill="white" stroke="black" points="1769,-56.5 1769,-75.5 1837,-75.5 1837,-56.5 1769,-56.5"/>
<text text-anchor="middle" x="1803" y="-63.5" font-family="Helvetica,sans-Serif" font-size="10.00">debug.hpp</text>
</a>
</g>
</g>
<!-- Node3&#45;&gt;Node26 -->
<g id="edge25" class="edge">
<title>Node3&#45;&gt;Node26</title>
<path fill="none" stroke="midnightblue" d="M983.45,-187.4C1129.84,-184.85 1658.76,-173.59 1727,-143 1755.26,-130.33 1778.82,-102.15 1791.9,-83.89"/>
<polygon fill="midnightblue" stroke="midnightblue" points="1794.81,-85.83 1797.6,-75.61 1789.04,-81.86 1794.81,-85.83"/>
</g>
<!-- Node27 -->
<g id="node27" class="node">
<title>Node27</title>
<g id="a_node27"><a xlink:href="operations_8hpp.html" target="_top" xlink:title=" ">
<polygon fill="white" stroke="black" points="1758.5,-0.5 1758.5,-19.5 1847.5,-19.5 1847.5,-0.5 1758.5,-0.5"/>
<text text-anchor="middle" x="1803" y="-7.5" font-family="Helvetica,sans-Serif" font-size="10.00">operations.hpp</text>
</a>
</g>
</g>
<!-- Node3&#45;&gt;Node27 -->
<g id="edge31" class="edge">
<title>Node3&#45;&gt;Node27</title>
<path fill="none" stroke="midnightblue" d="M983.38,-187.55C1125.86,-185.6 1630.01,-176.39 1693,-143 1736.12,-120.15 1728.21,-93.03 1760,-56 1768.54,-46.06 1778.63,-35.44 1786.9,-27.02"/>
<polygon fill="midnightblue" stroke="midnightblue" points="1789.59,-29.27 1794.15,-19.7 1784.62,-24.34 1789.59,-29.27"/>
</g>
<!-- Node28 -->
<g id="node28" class="node">
<title>Node28</title>
<g id="a_node28"><a xlink:href="io_8hpp.html" target="_top" xlink:title=" ">
<polygon fill="white" stroke="black" points="1779.5,-118 1779.5,-137 1826.5,-137 1826.5,-118 1779.5,-118"/>
<text text-anchor="middle" x="1803" y="-125" font-family="Helvetica,sans-Serif" font-size="10.00">io.hpp</text>
</a>
</g>
</g>
<!-- Node3&#45;&gt;Node28 -->
<g id="edge29" class="edge">
<title>Node3&#45;&gt;Node28</title>
<path fill="none" stroke="midnightblue" d="M983.3,-187.48C1122.67,-185.29 1612.66,-175.42 1765,-143 1768.08,-142.34 1771.24,-141.48 1774.35,-140.49"/>
<polygon fill="midnightblue" stroke="midnightblue" points="1775.77,-143.71 1784.02,-137.06 1773.42,-137.11 1775.77,-143.71"/>
</g>
<!-- Node26&#45;&gt;Node2 -->
<g id="edge28" class="edge">
<title>Node26&#45;&gt;Node2</title>
<path fill="none" stroke="midnightblue" d="M1812.35,-75.97C1827.22,-91.31 1852.84,-122.85 1835,-143 1782.34,-202.48 1211.61,-234.2 1049.63,-242.05"/>
<polygon fill="midnightblue" stroke="midnightblue" points="1049.39,-238.55 1039.57,-242.53 1049.72,-245.55 1049.39,-238.55"/>
</g>
<!-- Node26&#45;&gt;Node27 -->
<g id="edge26" class="edge">
<title>Node26&#45;&gt;Node27</title>
<path fill="none" stroke="midnightblue" d="M1803,-56.08C1803,-49.01 1803,-38.86 1803,-29.99"/>
<polygon fill="midnightblue" stroke="midnightblue" points="1806.5,-29.75 1803,-19.75 1799.5,-29.75 1806.5,-29.75"/>
</g>
<!-- Node27&#45;&gt;Node2 -->
<g id="edge27" class="edge">
<title>Node27&#45;&gt;Node2</title>
<path fill="none" stroke="midnightblue" d="M1814.64,-19.58C1824.75,-27.74 1838.86,-40.97 1846,-56 1850.95,-66.42 1861.79,-130.83 1853,-143 1806.68,-207.15 1761.66,-183.81 1684,-199 1561.72,-222.92 1179.22,-238.04 1050.08,-242.56"/>
<polygon fill="midnightblue" stroke="midnightblue" points="1049.67,-239.08 1039.8,-242.92 1049.92,-246.07 1049.67,-239.08"/>
</g>
<!-- Node28&#45;&gt;Node26 -->
<g id="edge30" class="edge">
<title>Node28&#45;&gt;Node26</title>
<path fill="none" stroke="midnightblue" d="M1803,-117.98C1803,-109.58 1803,-96.48 1803,-85.66"/>
<polygon fill="midnightblue" stroke="midnightblue" points="1806.5,-85.51 1803,-75.51 1799.5,-85.51 1806.5,-85.51"/>
</g>
</g>
</svg>
        <g id="navigator" transform="translate(0 0)" fill="#404254">
                <rect fill="#f2f5e9" fill-opacity="0.5" stroke="#606060" stroke-width=".5" x="0" y="0" width="60" height="60"/>
                <use id="zoomplus" xlink:href="#zoomPlus" x="17" y="9" onmousedown="handleZoom(evt,'in')"/>
                <use id="zoomminus" xlink:href="#zoomMin" x="42" y="9" onmousedown="handleZoom(evt,'out')"/>
                <use id="reset" xlink:href="#resetDef" x="30" y="36" onmousedown="handleReset()"/>
                <g id="arrowUp" xlink:href="#dirArrow" transform="translate(30 24)" onmousedown="handlePan(0,-1)">
                  <use xlink:href="#rim" fill="#404040">
                        <set attributeName="fill" to="#808080" begin="arrowUp.mouseover" end="arrowUp.mouseout"/>
                  </use>
                  <path fill="none" stroke="white" stroke-width="1.5" d="M0,-3.0v7 M-2.5,-0.5L0,-3.0L2.5,-0.5"/>
                </g>
                <g id="arrowRight" xlink:href="#dirArrow" transform="rotate(90) translate(36 -43)" onmousedown="handlePan(1,0)">
                  <use xlink:href="#rim" fill="#404040">
                        <set attributeName="fill" to="#808080" begin="arrowRight.mouseover" end="arrowRight.mouseout"/>
                  </use>
                  <path fill="none" stroke="white" stroke-width="1.5" d="M0,-3.0v7 M-2.5,-0.5L0,-3.0L2.5,-0.5"/>
                </g>
                <g id="arrowDown" xlink:href="#dirArrow" transform="rotate(180) translate(-30 -48)" onmousedown="handlePan(0,1)">
                  <use xlink:href="#rim" fill="#404040">
                        <set attributeName="fill" to="#808080" begin="arrowDown.mouseover" end="arrowDown.mouseout"/>
                  </use>
                  <path fill="none" stroke="white" stroke-width="1.5" d="M0,-3.0v7 M-2.5,-0.5L0,-3.0L2.5,-0.5"/>
                </g>
                <g id="arrowLeft" xlink:href="#dirArrow" transform="rotate(270) translate(-36 17)" onmousedown="handlePan(-1,0)">
                  <use xlink:href="#rim" fill="#404040">
                        <set attributeName="fill" to="#808080" begin="arrowLeft.mouseover" end="arrowLeft.mouseout"/>
                  </use>
                  <path fill="none" stroke="white" stroke-width="1.5" d="M0,-3.0v7 M-2.5,-0.5L0,-3.0L2.5,-0.5"/>
                </g>
        </g>
        <svg viewBox="0 0 15 15" width="100%" height="30px" preserveAspectRatio="xMaxYMin meet">
         <g id="arrow_out" transform="scale(0.3 0.3)">
          <a xlink:href="utility_8hpp__incl_org.svg" target="_base">
           <rect id="button" ry="5" rx="5" y="6" x="6" height="38" width="38"
                fill="#f2f5e9" fill-opacity="0.5" stroke="#606060" stroke-width="1.0"/>
           <path id="arrow"
             d="M 11.500037,31.436501 C 11.940474,20.09759 22.043105,11.32322 32.158766,21.979434 L 37.068811,17.246167 C 37.068811,17.246167 37.088388,32 37.088388,32 L 22.160133,31.978069 C 22.160133,31.978069 26.997745,27.140456 26.997745,27.140456 C 18.528582,18.264221 13.291696,25.230495 11.500037,31.436501 z"
             style="fill:#404040;"/>
          </a>
         </g>
        </svg>
</svg>
